<?xml version="1.0" encoding="utf-8" standalone="no"?>
<!DOCTYPE svg PUBLIC "-//W3C//DTD SVG 1.1//EN"
  "http://www.w3.org/Graphics/SVG/1.1/DTD/svg11.dtd">
<svg xmlns:xlink="http://www.w3.org/1999/xlink" width="425.730937pt" height="331.084266pt" viewBox="0 0 425.730937 331.084266" xmlns="http://www.w3.org/2000/svg" version="1.1">
 <defs>
  <style type="text/css">*{stroke-linejoin: round; stroke-linecap: butt}</style>
 </defs>
 <g id="figure_1">
  <g id="patch_1">
   <path d="M 0 331.084266 
L 425.730937 331.084266 
L 425.730937 0 
L 0 0 
L 0 331.084266 
z
" style="fill: none"/>
  </g>
  <g id="axes_1">
   <g id="patch_2">
    <path d="M 61.410938 279.010828 
L 418.530938 279.010828 
L 418.530938 12.898828 
L 61.410938 12.898828 
L 61.410938 279.010828 
z
" style="fill: none"/>
   </g>
   <g id="matplotlib.axis_1">
    <g id="xtick_1">
     <g id="line2d_1">
      <path d="M 82.443091 279.010828 
L 82.443091 12.898828 
" clip-path="url(#pf2b7413cda)" style="fill: none; stroke: #b0b0b0; stroke-width: 0.8; stroke-linecap: square"/>
     </g>
     <g id="line2d_2">
      <defs>
       <path id="md39032bed2" d="M 0 0 
L 0 3.5 
" style="stroke: #000000; stroke-width: 0.8"/>
      </defs>
      <g>
       <use xlink:href="#md39032bed2" x="82.443091" y="279.010828" style="stroke: #000000; stroke-width: 0.8"/>
      </g>
     </g>
     <g id="text_1">
      <!-- −3000 -->
      <g transform="translate(57.070826 297.408484) scale(0.15 -0.15)">
       <defs>
        <path id="DejaVuSans-2212" d="M 678 2272 
L 4684 2272 
L 4684 1741 
L 678 1741 
L 678 2272 
z
" transform="scale(0.015625)"/>
        <path id="DejaVuSans-33" d="M 2597 2516 
Q 3050 2419 3304 2112 
Q 3559 1806 3559 1356 
Q 3559 666 3084 287 
Q 2609 -91 1734 -91 
Q 1441 -91 1130 -33 
Q 819 25 488 141 
L 488 750 
Q 750 597 1062 519 
Q 1375 441 1716 441 
Q 2309 441 2620 675 
Q 2931 909 2931 1356 
Q 2931 1769 2642 2001 
Q 2353 2234 1838 2234 
L 1294 2234 
L 1294 2753 
L 1863 2753 
Q 2328 2753 2575 2939 
Q 2822 3125 2822 3475 
Q 2822 3834 2567 4026 
Q 2313 4219 1838 4219 
Q 1578 4219 1281 4162 
Q 984 4106 628 3988 
L 628 4550 
Q 988 4650 1302 4700 
Q 1616 4750 1894 4750 
Q 2613 4750 3031 4423 
Q 3450 4097 3450 3541 
Q 3450 3153 3228 2886 
Q 3006 2619 2597 2516 
z
" transform="scale(0.015625)"/>
        <path id="DejaVuSans-30" d="M 2034 4250 
Q 1547 4250 1301 3770 
Q 1056 3291 1056 2328 
Q 1056 1369 1301 889 
Q 1547 409 2034 409 
Q 2525 409 2770 889 
Q 3016 1369 3016 2328 
Q 3016 3291 2770 3770 
Q 2525 4250 2034 4250 
z
M 2034 4750 
Q 2819 4750 3233 4129 
Q 3647 3509 3647 2328 
Q 3647 1150 3233 529 
Q 2819 -91 2034 -91 
Q 1250 -91 836 529 
Q 422 1150 422 2328 
Q 422 3509 836 4129 
Q 1250 4750 2034 4750 
z
" transform="scale(0.015625)"/>
       </defs>
       <use xlink:href="#DejaVuSans-2212"/>
       <use xlink:href="#DejaVuSans-33" x="83.789062"/>
       <use xlink:href="#DejaVuSans-30" x="147.412109"/>
       <use xlink:href="#DejaVuSans-30" x="211.035156"/>
       <use xlink:href="#DejaVuSans-30" x="274.658203"/>
      </g>
     </g>
    </g>
    <g id="xtick_2">
     <g id="line2d_3">
      <path d="M 135.770053 279.010828 
L 135.770053 12.898828 
" clip-path="url(#pf2b7413cda)" style="fill: none; stroke: #b0b0b0; stroke-width: 0.8; stroke-linecap: square"/>
     </g>
     <g id="line2d_4">
      <g>
       <use xlink:href="#md39032bed2" x="135.770053" y="279.010828" style="stroke: #000000; stroke-width: 0.8"/>
      </g>
     </g>
     <g id="text_2">
      <!-- −2500 -->
      <g transform="translate(110.397788 297.408484) scale(0.15 -0.15)">
       <defs>
        <path id="DejaVuSans-32" d="M 1228 531 
L 3431 531 
L 3431 0 
L 469 0 
L 469 531 
Q 828 903 1448 1529 
Q 2069 2156 2228 2338 
Q 2531 2678 2651 2914 
Q 2772 3150 2772 3378 
Q 2772 3750 2511 3984 
Q 2250 4219 1831 4219 
Q 1534 4219 1204 4116 
Q 875 4013 500 3803 
L 500 4441 
Q 881 4594 1212 4672 
Q 1544 4750 1819 4750 
Q 2544 4750 2975 4387 
Q 3406 4025 3406 3419 
Q 3406 3131 3298 2873 
Q 3191 2616 2906 2266 
Q 2828 2175 2409 1742 
Q 1991 1309 1228 531 
z
" transform="scale(0.015625)"/>
        <path id="DejaVuSans-35" d="M 691 4666 
L 3169 4666 
L 3169 4134 
L 1269 4134 
L 1269 2991 
Q 1406 3038 1543 3061 
Q 1681 3084 1819 3084 
Q 2600 3084 3056 2656 
Q 3513 2228 3513 1497 
Q 3513 744 3044 326 
Q 2575 -91 1722 -91 
Q 1428 -91 1123 -41 
Q 819 9 494 109 
L 494 744 
Q 775 591 1075 516 
Q 1375 441 1709 441 
Q 2250 441 2565 725 
Q 2881 1009 2881 1497 
Q 2881 1984 2565 2268 
Q 2250 2553 1709 2553 
Q 1456 2553 1204 2497 
Q 953 2441 691 2322 
L 691 4666 
z
" transform="scale(0.015625)"/>
       </defs>
       <use xlink:href="#DejaVuSans-2212"/>
       <use xlink:href="#DejaVuSans-32" x="83.789062"/>
       <use xlink:href="#DejaVuSans-35" x="147.412109"/>
       <use xlink:href="#DejaVuSans-30" x="211.035156"/>
       <use xlink:href="#DejaVuSans-30" x="274.658203"/>
      </g>
     </g>
    </g>
    <g id="xtick_3">
     <g id="line2d_5">
      <path d="M 189.097016 279.010828 
L 189.097016 12.898828 
" clip-path="url(#pf2b7413cda)" style="fill: none; stroke: #b0b0b0; stroke-width: 0.8; stroke-linecap: square"/>
     </g>
     <g id="line2d_6">
      <g>
       <use xlink:href="#md39032bed2" x="189.097016" y="279.010828" style="stroke: #000000; stroke-width: 0.8"/>
      </g>
     </g>
     <g id="text_3">
      <!-- −2000 -->
      <g transform="translate(163.72475 297.408484) scale(0.15 -0.15)">
       <use xlink:href="#DejaVuSans-2212"/>
       <use xlink:href="#DejaVuSans-32" x="83.789062"/>
       <use xlink:href="#DejaVuSans-30" x="147.412109"/>
       <use xlink:href="#DejaVuSans-30" x="211.035156"/>
       <use xlink:href="#DejaVuSans-30" x="274.658203"/>
      </g>
     </g>
    </g>
    <g id="xtick_4">
     <g id="line2d_7">
      <path d="M 242.423978 279.010828 
L 242.423978 12.898828 
" clip-path="url(#pf2b7413cda)" style="fill: none; stroke: #b0b0b0; stroke-width: 0.8; stroke-linecap: square"/>
     </g>
     <g id="line2d_8">
      <g>
       <use xlink:href="#md39032bed2" x="242.423978" y="279.010828" style="stroke: #000000; stroke-width: 0.8"/>
      </g>
     </g>
     <g id="text_4">
      <!-- −1500 -->
      <g transform="translate(217.051712 297.408484) scale(0.15 -0.15)">
       <defs>
        <path id="DejaVuSans-31" d="M 794 531 
L 1825 531 
L 1825 4091 
L 703 3866 
L 703 4441 
L 1819 4666 
L 2450 4666 
L 2450 531 
L 3481 531 
L 3481 0 
L 794 0 
L 794 531 
z
" transform="scale(0.015625)"/>
       </defs>
       <use xlink:href="#DejaVuSans-2212"/>
       <use xlink:href="#DejaVuSans-31" x="83.789062"/>
       <use xlink:href="#DejaVuSans-35" x="147.412109"/>
       <use xlink:href="#DejaVuSans-30" x="211.035156"/>
       <use xlink:href="#DejaVuSans-30" x="274.658203"/>
      </g>
     </g>
    </g>
    <g id="xtick_5">
     <g id="line2d_9">
      <path d="M 295.75094 279.010828 
L 295.75094 12.898828 
" clip-path="url(#pf2b7413cda)" style="fill: none; stroke: #b0b0b0; stroke-width: 0.8; stroke-linecap: square"/>
     </g>
     <g id="line2d_10">
      <g>
       <use xlink:href="#md39032bed2" x="295.75094" y="279.010828" style="stroke: #000000; stroke-width: 0.8"/>
      </g>
     </g>
     <g id="text_5">
      <!-- −1000 -->
      <g transform="translate(270.378674 297.408484) scale(0.15 -0.15)">
       <use xlink:href="#DejaVuSans-2212"/>
       <use xlink:href="#DejaVuSans-31" x="83.789062"/>
       <use xlink:href="#DejaVuSans-30" x="147.412109"/>
       <use xlink:href="#DejaVuSans-30" x="211.035156"/>
       <use xlink:href="#DejaVuSans-30" x="274.658203"/>
      </g>
     </g>
    </g>
    <g id="xtick_6">
     <g id="line2d_11">
      <path d="M 349.077902 279.010828 
L 349.077902 12.898828 
" clip-path="url(#pf2b7413cda)" style="fill: none; stroke: #b0b0b0; stroke-width: 0.8; stroke-linecap: square"/>
     </g>
     <g id="line2d_12">
      <g>
       <use xlink:href="#md39032bed2" x="349.077902" y="279.010828" style="stroke: #000000; stroke-width: 0.8"/>
      </g>
     </g>
     <g id="text_6">
      <!-- −500 -->
      <g transform="translate(328.477511 297.408484) scale(0.15 -0.15)">
       <use xlink:href="#DejaVuSans-2212"/>
       <use xlink:href="#DejaVuSans-35" x="83.789062"/>
       <use xlink:href="#DejaVuSans-30" x="147.412109"/>
       <use xlink:href="#DejaVuSans-30" x="211.035156"/>
      </g>
     </g>
    </g>
    <g id="xtick_7">
     <g id="line2d_13">
      <path d="M 402.404864 279.010828 
L 402.404864 12.898828 
" clip-path="url(#pf2b7413cda)" style="fill: none; stroke: #b0b0b0; stroke-width: 0.8; stroke-linecap: square"/>
     </g>
     <g id="line2d_14">
      <g>
       <use xlink:href="#md39032bed2" x="402.404864" y="279.010828" style="stroke: #000000; stroke-width: 0.8"/>
      </g>
     </g>
     <g id="text_7">
      <!-- 0 -->
      <g transform="translate(397.632989 297.408484) scale(0.15 -0.15)">
       <use xlink:href="#DejaVuSans-30"/>
      </g>
     </g>
    </g>
    <g id="text_8">
     <!-- Position (μm) -->
     <g transform="translate(173.958438 319.724891) scale(0.2 -0.2)">
      <defs>
       <path id="DejaVuSans-50" d="M 1259 4147 
L 1259 2394 
L 2053 2394 
Q 2494 2394 2734 2622 
Q 2975 2850 2975 3272 
Q 2975 3691 2734 3919 
Q 2494 4147 2053 4147 
L 1259 4147 
z
M 628 4666 
L 2053 4666 
Q 2838 4666 3239 4311 
Q 3641 3956 3641 3272 
Q 3641 2581 3239 2228 
Q 2838 1875 2053 1875 
L 1259 1875 
L 1259 0 
L 628 0 
L 628 4666 
z
" transform="scale(0.015625)"/>
       <path id="DejaVuSans-6f" d="M 1959 3097 
Q 1497 3097 1228 2736 
Q 959 2375 959 1747 
Q 959 1119 1226 758 
Q 1494 397 1959 397 
Q 2419 397 2687 759 
Q 2956 1122 2956 1747 
Q 2956 2369 2687 2733 
Q 2419 3097 1959 3097 
z
M 1959 3584 
Q 2709 3584 3137 3096 
Q 3566 2609 3566 1747 
Q 3566 888 3137 398 
Q 2709 -91 1959 -91 
Q 1206 -91 779 398 
Q 353 888 353 1747 
Q 353 2609 779 3096 
Q 1206 3584 1959 3584 
z
" transform="scale(0.015625)"/>
       <path id="DejaVuSans-73" d="M 2834 3397 
L 2834 2853 
Q 2591 2978 2328 3040 
Q 2066 3103 1784 3103 
Q 1356 3103 1142 2972 
Q 928 2841 928 2578 
Q 928 2378 1081 2264 
Q 1234 2150 1697 2047 
L 1894 2003 
Q 2506 1872 2764 1633 
Q 3022 1394 3022 966 
Q 3022 478 2636 193 
Q 2250 -91 1575 -91 
Q 1294 -91 989 -36 
Q 684 19 347 128 
L 347 722 
Q 666 556 975 473 
Q 1284 391 1588 391 
Q 1994 391 2212 530 
Q 2431 669 2431 922 
Q 2431 1156 2273 1281 
Q 2116 1406 1581 1522 
L 1381 1569 
Q 847 1681 609 1914 
Q 372 2147 372 2553 
Q 372 3047 722 3315 
Q 1072 3584 1716 3584 
Q 2034 3584 2315 3537 
Q 2597 3491 2834 3397 
z
" transform="scale(0.015625)"/>
       <path id="DejaVuSans-69" d="M 603 3500 
L 1178 3500 
L 1178 0 
L 603 0 
L 603 3500 
z
M 603 4863 
L 1178 4863 
L 1178 4134 
L 603 4134 
L 603 4863 
z
" transform="scale(0.015625)"/>
       <path id="DejaVuSans-74" d="M 1172 4494 
L 1172 3500 
L 2356 3500 
L 2356 3053 
L 1172 3053 
L 1172 1153 
Q 1172 725 1289 603 
Q 1406 481 1766 481 
L 2356 481 
L 2356 0 
L 1766 0 
Q 1100 0 847 248 
Q 594 497 594 1153 
L 594 3053 
L 172 3053 
L 172 3500 
L 594 3500 
L 594 4494 
L 1172 4494 
z
" transform="scale(0.015625)"/>
       <path id="DejaVuSans-6e" d="M 3513 2113 
L 3513 0 
L 2938 0 
L 2938 2094 
Q 2938 2591 2744 2837 
Q 2550 3084 2163 3084 
Q 1697 3084 1428 2787 
Q 1159 2491 1159 1978 
L 1159 0 
L 581 0 
L 581 3500 
L 1159 3500 
L 1159 2956 
Q 1366 3272 1645 3428 
Q 1925 3584 2291 3584 
Q 2894 3584 3203 3211 
Q 3513 2838 3513 2113 
z
" transform="scale(0.015625)"/>
       <path id="DejaVuSans-20" transform="scale(0.015625)"/>
       <path id="DejaVuSans-28" d="M 1984 4856 
Q 1566 4138 1362 3434 
Q 1159 2731 1159 2009 
Q 1159 1288 1364 580 
Q 1569 -128 1984 -844 
L 1484 -844 
Q 1016 -109 783 600 
Q 550 1309 550 2009 
Q 550 2706 781 3412 
Q 1013 4119 1484 4856 
L 1984 4856 
z
" transform="scale(0.015625)"/>
       <path id="DejaVuSans-3bc" d="M 544 -1331 
L 544 3500 
L 1119 3500 
L 1119 1325 
Q 1119 872 1334 640 
Q 1550 409 1972 409 
Q 2434 409 2667 671 
Q 2900 934 2900 1459 
L 2900 3500 
L 3475 3500 
L 3475 806 
Q 3475 619 3529 530 
Q 3584 441 3700 441 
Q 3728 441 3778 458 
Q 3828 475 3916 513 
L 3916 50 
Q 3788 -22 3673 -56 
Q 3559 -91 3450 -91 
Q 3234 -91 3106 31 
Q 2978 153 2931 403 
Q 2775 156 2548 32 
Q 2322 -91 2016 -91 
Q 1697 -91 1473 31 
Q 1250 153 1119 397 
L 1119 -1331 
L 544 -1331 
z
" transform="scale(0.015625)"/>
       <path id="DejaVuSans-6d" d="M 3328 2828 
Q 3544 3216 3844 3400 
Q 4144 3584 4550 3584 
Q 5097 3584 5394 3201 
Q 5691 2819 5691 2113 
L 5691 0 
L 5113 0 
L 5113 2094 
Q 5113 2597 4934 2840 
Q 4756 3084 4391 3084 
Q 3944 3084 3684 2787 
Q 3425 2491 3425 1978 
L 3425 0 
L 2847 0 
L 2847 2094 
Q 2847 2600 2669 2842 
Q 2491 3084 2119 3084 
Q 1678 3084 1418 2786 
Q 1159 2488 1159 1978 
L 1159 0 
L 581 0 
L 581 3500 
L 1159 3500 
L 1159 2956 
Q 1356 3278 1631 3431 
Q 1906 3584 2284 3584 
Q 2666 3584 2933 3390 
Q 3200 3197 3328 2828 
z
" transform="scale(0.015625)"/>
       <path id="DejaVuSans-29" d="M 513 4856 
L 1013 4856 
Q 1481 4119 1714 3412 
Q 1947 2706 1947 2009 
Q 1947 1309 1714 600 
Q 1481 -109 1013 -844 
L 513 -844 
Q 928 -128 1133 580 
Q 1338 1288 1338 2009 
Q 1338 2731 1133 3434 
Q 928 4138 513 4856 
z
" transform="scale(0.015625)"/>
      </defs>
      <use xlink:href="#DejaVuSans-50"/>
      <use xlink:href="#DejaVuSans-6f" x="56.677734"/>
      <use xlink:href="#DejaVuSans-73" x="117.859375"/>
      <use xlink:href="#DejaVuSans-69" x="169.958984"/>
      <use xlink:href="#DejaVuSans-74" x="197.742188"/>
      <use xlink:href="#DejaVuSans-69" x="236.951172"/>
      <use xlink:href="#DejaVuSans-6f" x="264.734375"/>
      <use xlink:href="#DejaVuSans-6e" x="325.916016"/>
      <use xlink:href="#DejaVuSans-20" x="389.294922"/>
      <use xlink:href="#DejaVuSans-28" x="421.082031"/>
      <use xlink:href="#DejaVuSans-3bc" x="460.095703"/>
      <use xlink:href="#DejaVuSans-6d" x="523.71875"/>
      <use xlink:href="#DejaVuSans-29" x="621.130859"/>
     </g>
    </g>
   </g>
   <g id="matplotlib.axis_2">
    <g id="ytick_1">
     <g id="line2d_15">
      <path d="M 61.410938 279.010828 
L 418.530938 279.010828 
" clip-path="url(#pf2b7413cda)" style="fill: none; stroke: #b0b0b0; stroke-width: 0.8; stroke-linecap: square"/>
     </g>
     <g id="line2d_16">
      <defs>
       <path id="m6f3f5b6aff" d="M 0 0 
L -3.5 0 
" style="stroke: #000000; stroke-width: 0.8"/>
      </defs>
      <g>
       <use xlink:href="#m6f3f5b6aff" x="61.410938" y="279.010828" style="stroke: #000000; stroke-width: 0.8"/>
      </g>
     </g>
     <g id="text_9">
      <!-- 0.0 -->
      <g transform="translate(30.55625 284.709656) scale(0.15 -0.15)">
       <defs>
        <path id="DejaVuSans-2e" d="M 684 794 
L 1344 794 
L 1344 0 
L 684 0 
L 684 794 
z
" transform="scale(0.015625)"/>
       </defs>
       <use xlink:href="#DejaVuSans-30"/>
       <use xlink:href="#DejaVuSans-2e" x="63.623047"/>
       <use xlink:href="#DejaVuSans-30" x="95.410156"/>
      </g>
     </g>
    </g>
    <g id="ytick_2">
     <g id="line2d_17">
      <path d="M 61.410938 225.788428 
L 418.530938 225.788428 
" clip-path="url(#pf2b7413cda)" style="fill: none; stroke: #b0b0b0; stroke-width: 0.8; stroke-linecap: square"/>
     </g>
     <g id="line2d_18">
      <g>
       <use xlink:href="#m6f3f5b6aff" x="61.410938" y="225.788428" style="stroke: #000000; stroke-width: 0.8"/>
      </g>
     </g>
     <g id="text_10">
      <!-- 0.5 -->
      <g transform="translate(30.55625 231.487256) scale(0.15 -0.15)">
       <use xlink:href="#DejaVuSans-30"/>
       <use xlink:href="#DejaVuSans-2e" x="63.623047"/>
       <use xlink:href="#DejaVuSans-35" x="95.410156"/>
      </g>
     </g>
    </g>
    <g id="ytick_3">
     <g id="line2d_19">
      <path d="M 61.410938 172.566028 
L 418.530938 172.566028 
" clip-path="url(#pf2b7413cda)" style="fill: none; stroke: #b0b0b0; stroke-width: 0.8; stroke-linecap: square"/>
     </g>
     <g id="line2d_20">
      <g>
       <use xlink:href="#m6f3f5b6aff" x="61.410938" y="172.566028" style="stroke: #000000; stroke-width: 0.8"/>
      </g>
     </g>
     <g id="text_11">
      <!-- 1.0 -->
      <g transform="translate(30.55625 178.264856) scale(0.15 -0.15)">
       <use xlink:href="#DejaVuSans-31"/>
       <use xlink:href="#DejaVuSans-2e" x="63.623047"/>
       <use xlink:href="#DejaVuSans-30" x="95.410156"/>
      </g>
     </g>
    </g>
    <g id="ytick_4">
     <g id="line2d_21">
      <path d="M 61.410938 119.343628 
L 418.530938 119.343628 
" clip-path="url(#pf2b7413cda)" style="fill: none; stroke: #b0b0b0; stroke-width: 0.8; stroke-linecap: square"/>
     </g>
     <g id="line2d_22">
      <g>
       <use xlink:href="#m6f3f5b6aff" x="61.410938" y="119.343628" style="stroke: #000000; stroke-width: 0.8"/>
      </g>
     </g>
     <g id="text_12">
      <!-- 1.5 -->
      <g transform="translate(30.55625 125.042456) scale(0.15 -0.15)">
       <use xlink:href="#DejaVuSans-31"/>
       <use xlink:href="#DejaVuSans-2e" x="63.623047"/>
       <use xlink:href="#DejaVuSans-35" x="95.410156"/>
      </g>
     </g>
    </g>
    <g id="ytick_5">
     <g id="line2d_23">
      <path d="M 61.410938 66.121228 
L 418.530938 66.121228 
" clip-path="url(#pf2b7413cda)" style="fill: none; stroke: #b0b0b0; stroke-width: 0.8; stroke-linecap: square"/>
     </g>
     <g id="line2d_24">
      <g>
       <use xlink:href="#m6f3f5b6aff" x="61.410938" y="66.121228" style="stroke: #000000; stroke-width: 0.8"/>
      </g>
     </g>
     <g id="text_13">
      <!-- 2.0 -->
      <g transform="translate(30.55625 71.820056) scale(0.15 -0.15)">
       <use xlink:href="#DejaVuSans-32"/>
       <use xlink:href="#DejaVuSans-2e" x="63.623047"/>
       <use xlink:href="#DejaVuSans-30" x="95.410156"/>
      </g>
     </g>
    </g>
    <g id="ytick_6">
     <g id="line2d_25">
      <path d="M 61.410938 12.898828 
L 418.530938 12.898828 
" clip-path="url(#pf2b7413cda)" style="fill: none; stroke: #b0b0b0; stroke-width: 0.8; stroke-linecap: square"/>
     </g>
     <g id="line2d_26">
      <g>
       <use xlink:href="#m6f3f5b6aff" x="61.410938" y="12.898828" style="stroke: #000000; stroke-width: 0.8"/>
      </g>
     </g>
     <g id="text_14">
      <!-- 2.5 -->
      <g transform="translate(30.55625 18.597656) scale(0.15 -0.15)">
       <use xlink:href="#DejaVuSans-32"/>
       <use xlink:href="#DejaVuSans-2e" x="63.623047"/>
       <use xlink:href="#DejaVuSans-35" x="95.410156"/>
      </g>
     </g>
    </g>
    <g id="text_15">
     <!-- Difference (V) -->
     <g transform="translate(22.396875 215.476703) rotate(-90) scale(0.2 -0.2)">
      <defs>
       <path id="DejaVuSans-44" d="M 1259 4147 
L 1259 519 
L 2022 519 
Q 2988 519 3436 956 
Q 3884 1394 3884 2338 
Q 3884 3275 3436 3711 
Q 2988 4147 2022 4147 
L 1259 4147 
z
M 628 4666 
L 1925 4666 
Q 3281 4666 3915 4102 
Q 4550 3538 4550 2338 
Q 4550 1131 3912 565 
Q 3275 0 1925 0 
L 628 0 
L 628 4666 
z
" transform="scale(0.015625)"/>
       <path id="DejaVuSans-66" d="M 2375 4863 
L 2375 4384 
L 1825 4384 
Q 1516 4384 1395 4259 
Q 1275 4134 1275 3809 
L 1275 3500 
L 2222 3500 
L 2222 3053 
L 1275 3053 
L 1275 0 
L 697 0 
L 697 3053 
L 147 3053 
L 147 3500 
L 697 3500 
L 697 3744 
Q 697 4328 969 4595 
Q 1241 4863 1831 4863 
L 2375 4863 
z
" transform="scale(0.015625)"/>
       <path id="DejaVuSans-65" d="M 3597 1894 
L 3597 1613 
L 953 1613 
Q 991 1019 1311 708 
Q 1631 397 2203 397 
Q 2534 397 2845 478 
Q 3156 559 3463 722 
L 3463 178 
Q 3153 47 2828 -22 
Q 2503 -91 2169 -91 
Q 1331 -91 842 396 
Q 353 884 353 1716 
Q 353 2575 817 3079 
Q 1281 3584 2069 3584 
Q 2775 3584 3186 3129 
Q 3597 2675 3597 1894 
z
M 3022 2063 
Q 3016 2534 2758 2815 
Q 2500 3097 2075 3097 
Q 1594 3097 1305 2825 
Q 1016 2553 972 2059 
L 3022 2063 
z
" transform="scale(0.015625)"/>
       <path id="DejaVuSans-72" d="M 2631 2963 
Q 2534 3019 2420 3045 
Q 2306 3072 2169 3072 
Q 1681 3072 1420 2755 
Q 1159 2438 1159 1844 
L 1159 0 
L 581 0 
L 581 3500 
L 1159 3500 
L 1159 2956 
Q 1341 3275 1631 3429 
Q 1922 3584 2338 3584 
Q 2397 3584 2469 3576 
Q 2541 3569 2628 3553 
L 2631 2963 
z
" transform="scale(0.015625)"/>
       <path id="DejaVuSans-63" d="M 3122 3366 
L 3122 2828 
Q 2878 2963 2633 3030 
Q 2388 3097 2138 3097 
Q 1578 3097 1268 2742 
Q 959 2388 959 1747 
Q 959 1106 1268 751 
Q 1578 397 2138 397 
Q 2388 397 2633 464 
Q 2878 531 3122 666 
L 3122 134 
Q 2881 22 2623 -34 
Q 2366 -91 2075 -91 
Q 1284 -91 818 406 
Q 353 903 353 1747 
Q 353 2603 823 3093 
Q 1294 3584 2113 3584 
Q 2378 3584 2631 3529 
Q 2884 3475 3122 3366 
z
" transform="scale(0.015625)"/>
       <path id="DejaVuSans-56" d="M 1831 0 
L 50 4666 
L 709 4666 
L 2188 738 
L 3669 4666 
L 4325 4666 
L 2547 0 
L 1831 0 
z
" transform="scale(0.015625)"/>
      </defs>
      <use xlink:href="#DejaVuSans-44"/>
      <use xlink:href="#DejaVuSans-69" x="77.001953"/>
      <use xlink:href="#DejaVuSans-66" x="104.785156"/>
      <use xlink:href="#DejaVuSans-66" x="139.990234"/>
      <use xlink:href="#DejaVuSans-65" x="175.195312"/>
      <use xlink:href="#DejaVuSans-72" x="236.71875"/>
      <use xlink:href="#DejaVuSans-65" x="275.582031"/>
      <use xlink:href="#DejaVuSans-6e" x="337.105469"/>
      <use xlink:href="#DejaVuSans-63" x="400.484375"/>
      <use xlink:href="#DejaVuSans-65" x="455.464844"/>
      <use xlink:href="#DejaVuSans-20" x="516.988281"/>
      <use xlink:href="#DejaVuSans-28" x="548.775391"/>
      <use xlink:href="#DejaVuSans-56" x="587.789062"/>
      <use xlink:href="#DejaVuSans-29" x="656.197266"/>
     </g>
    </g>
   </g>
   <g id="line2d_27">
    <path d="M 79.027879 -1 
L 79.13682 39.160689 
L 79.137261 -1 
M 79.803105 -1 
L 79.883397 84.237273 
L 80.416667 36.598049 
L 80.843283 16.603488 
L 81.163244 10.581375 
L 81.269898 10.003654 
L 81.376552 10.139701 
L 81.483206 10.714525 
L 81.696514 14.284912 
L 81.909822 19.06636 
L 82.016476 32.356524 
L 82.016812 -1 
M 84.102679 -1 
L 84.256208 25.404925 
L 84.281236 -1 
M 87.120498 -1 
L 87.135864 108.572576 
L 87.242518 88.242953 
L 87.244046 -1 
M 89.612159 -1 
L 89.802212 89.944285 
L 90.655444 183.747025 
L 90.868751 198.260652 
L 91.082059 191.705582 
L 91.08621 -1 
M 91.293938 -1 
L 91.295367 63.638667 
L 91.300314 -1 
M 91.502276 -1 
L 91.508675 83.82057 
L 91.511555 -1 
M 93.425176 -1 
L 93.428446 144.264431 
L 93.431779 -1 
M 93.744536 -1 
L 93.748407 166.770619 
L 93.752761 -1 
M 95.551907 -1 
L 95.561524 196.380604 
L 95.582323 -1 
M 96.405164 -1 
L 96.414755 57.506508 
L 96.416486 -1 
M 96.812843 -1 
L 96.948025 142.940493 
L 97.587949 183.335649 
L 97.90791 209.354707 
L 98.014564 192.534692 
L 98.121218 216.347534 
L 98.44118 209.96736 
L 98.547834 178.810475 
L 98.552707 -1 
M 99.613207 -1 
L 99.721027 44.648135 
L 99.827681 61.020959 
L 99.934335 32.711473 
L 100.040989 126.357107 
L 100.053112 -1 
M 100.235691 -1 
L 100.254297 208.86205 
L 100.522108 -1 
M 101.63455 -1 
L 101.747452 192.449567 
L 101.96076 191.12923 
L 102.067413 189.868666 
L 102.280721 165.860936 
L 102.600683 122.729871 
L 102.610001 -1 
M 103.547687 -1 
L 103.560568 248.146054 
L 103.602845 -1 
M 104.193403 -1 
L 104.307146 80.629298 
L 104.733762 126.405249 
L 104.840415 67.017073 
L 104.850182 -1 
M 105.084979 -1 
L 105.267031 183.712315 
L 105.373685 215.93073 
L 105.480339 214.63133 
L 105.693647 184.858341 
L 105.906955 145.217032 
L 105.944975 -1 
M 106.079462 -1 
L 106.120263 162.533053 
L 106.140416 -1 
M 107.077258 -1 
L 107.186802 82.942914 
L 107.293456 95.576743 
L 107.40011 184.562535 
L 107.415155 -1 
M 107.598336 -1 
L 107.613417 185.083035 
L 107.720071 160.955811 
L 107.933379 88.325701 
L 108.040033 78.000369 
L 108.045519 -1 
M 109.20308 -1 
L 109.31988 202.038532 
L 109.426534 206.46745 
L 109.959804 134.434712 
L 109.972594 -1 
M 111.047987 -1 
L 111.132997 238.681913 
L 111.14771 -1 
M 111.653419 -1 
L 111.772921 76.907014 
L 112.30619 136.23959 
L 112.946114 208.80258 
L 113.479383 172.456654 
L 113.511911 -1 
M 114.43642 -1 
L 114.545923 81.444428 
L 114.652576 93.77406 
L 114.865884 221.531643 
L 114.883446 -1 
M 115.061437 -1 
L 115.079192 224.480286 
L 115.233304 -1 
M 116.422924 -1 
L 116.465693 172.319233 
L 116.477563 -1 
M 116.665938 -1 
L 116.785655 202.479095 
L 116.892309 209.371555 
L 117.105617 166.564633 
L 117.110912 -1 
M 117.315594 -1 
L 117.318925 102.390202 
L 117.324058 -1 
M 118.487368 -1 
L 118.598772 238.006244 
L 118.613503 -1 
M 118.796554 -1 
L 118.81208 253.095465 
L 118.918733 93.266157 
L 119.025387 93.338712 
L 119.452003 128.394542 
L 120.091927 204.770879 
L 120.198581 219.194689 
L 120.305234 216.211906 
L 120.945158 171.121257 
L 120.986752 -1 
M 121.795732 -1 
L 121.905043 76.48596 
L 122.011697 88.759061 
L 122.118351 170.824191 
L 122.225005 163.511003 
L 122.331659 227.508664 
L 122.349631 -1 
M 122.531656 -1 
L 122.651621 193.399082 
L 122.804945 -1 
M 123.81387 -1 
L 123.824814 131.555519 
L 123.931468 130.767995 
L 123.940604 -1 
M 124.136283 -1 
L 124.144776 120.683798 
L 124.25143 113.235344 
L 124.678045 74.75944 
L 124.784699 61.550426 
L 124.814389 -1 
M 125.931458 -1 
L 125.957892 253.477003 
L 126.064546 234.507085 
L 126.078907 -1 
M 126.262523 -1 
L 126.277854 253.093585 
L 126.384508 249.75577 
L 126.597816 195.109414 
L 126.70447 195.275767 
L 126.72566 -1 
M 126.907369 -1 
L 127.024432 102.793658 
L 127.664355 219.878928 
L 128.517587 145.324578 
L 128.624241 109.588982 
L 128.633424 -1 
M 129.278217 -1 
L 129.370818 21.564661 
L 129.584126 171.680447 
L 129.69078 172.985289 
L 129.797434 199.493209 
L 129.813532 -1 
M 129.995524 -1 
L 130.117396 191.910598 
L 130.224049 195.675106 
L 130.333758 -1 
M 131.247681 -1 
L 131.397243 165.535041 
L 131.408572 -1 
M 131.598009 -1 
L 131.717204 196.092292 
L 131.930512 217.693359 
L 132.14382 184.228421 
L 132.67709 80.080678 
L 132.688813 -1 
M 133.403315 -1 
L 133.423667 253.22192 
L 133.530321 231.440604 
L 133.544668 -1 
M 133.728137 -1 
L 133.743629 253.162393 
L 133.850283 252.163877 
L 133.956937 233.735824 
L 134.032208 -1 
M 134.134715 -1 
L 134.276899 64.612663 
L 135.13013 217.034328 
L 135.236784 214.89061 
L 135.983361 146.178981 
L 136.002453 -1 
M 136.728533 -1 
L 136.836593 53.998576 
L 136.943247 193.160535 
L 137.049901 190.636312 
L 137.263208 179.518835 
L 137.369862 204.278893 
L 137.58317 171.526873 
L 137.689824 174.252533 
L 137.819641 -1 
M 138.715067 -1 
L 138.863017 167.073573 
L 139.396287 218.762985 
L 139.822903 137.717858 
L 140.356172 34.842064 
L 140.357341 -1 
M 140.666648 -1 
L 140.782788 252.164165 
L 140.996096 244.977471 
L 141.10275 221.331026 
L 141.209404 253.15425 
L 141.316058 252.148175 
L 141.422711 243.197909 
L 141.505649 -1 
M 141.59316 -1 
L 141.742673 63.017782 
L 142.595905 217.724544 
L 142.702559 214.559466 
L 143.342482 153.936523 
L 143.453956 -1 
M 144.088377 -1 
L 144.195714 38.144562 
L 144.409021 194.989244 
L 144.515675 189.92678 
L 144.728983 178.712624 
L 144.835637 196.159006 
L 144.942291 183.75489 
L 145.048945 136.799972 
L 145.262253 200.234448 
L 145.475561 22.452643 
L 145.476538 -1 
M 146.209644 -1 
L 146.328792 167.057489 
L 146.862062 218.582126 
L 147.288677 137.378649 
L 147.715293 53.792623 
L 147.717419 -1 
M 148.027494 -1 
L 148.141909 251.145799 
L 148.248563 252.167293 
L 148.355217 244.8526 
L 148.46187 213.946266 
L 148.675178 253.203288 
L 148.888486 251.188689 
L 148.99514 31.455091 
L 149.421756 100.419453 
L 150.061679 220.107944 
L 150.381641 190.82922 
L 150.393522 -1 
M 150.58421 -1 
L 150.594949 170.334319 
L 150.701603 160.889554 
L 150.808257 151.83387 
L 150.826675 -1 
M 151.554182 -1 
L 151.661488 57.913719 
L 151.768142 199.504963 
L 151.874796 194.759465 
L 152.088104 184.206689 
L 152.194758 156.376474 
L 152.408066 184.87944 
L 152.834681 204.313724 
L 153.048342 -1 
M 153.740289 -1 
L 153.901221 176.437346 
L 154.327836 218.341612 
L 154.647798 159.299221 
L 155.181068 53.093054 
L 155.182861 -1 
M 155.470583 -1 
L 155.607683 251.239167 
L 155.714337 252.256316 
L 155.820991 245.703363 
L 155.927645 209.826176 
L 156.140953 253.211894 
L 156.460915 250.219943 
L 156.567569 43.44774 
L 157.527454 217.172259 
L 157.634108 213.106149 
L 158.167378 162.135755 
L 158.214334 -1 
M 158.913563 -1 
L 159.020609 49.455531 
L 159.127263 203.610518 
L 159.233917 199.204351 
L 159.553879 183.901132 
L 159.660533 150.520763 
L 159.87384 184.472103 
L 160.300456 203.999592 
L 160.365267 -1 
M 160.495427 -1 
L 160.513764 26.479181 
L 160.515877 -1 
M 161.241237 -1 
L 161.366995 176.742332 
L 161.793611 218.064858 
L 162.113573 161.006364 
L 162.646842 56.893137 
L 162.648783 -1 
M 162.852334 -1 
L 162.966804 250.261563 
L 163.180112 252.318376 
L 163.286766 245.790401 
L 163.39342 205.702473 
L 163.606728 251.557059 
L 163.713382 252.250968 
L 163.820036 251.238714 
L 164.033343 245.107538 
L 164.139997 59.146003 
L 164.993229 214.770831 
L 165.099883 213.497994 
L 165.633152 163.381876 
L 165.64882 -1 
M 166.272929 -1 
L 166.37973 42.351119 
L 166.486384 207.59459 
L 166.593038 203.429867 
L 166.912999 189.075357 
L 167.019653 104.678874 
L 167.126307 223.274916 
L 167.232961 178.22764 
L 167.872885 207.795199 
L 167.943961 -1 
M 168.068779 -1 
L 168.086193 19.393352 
L 168.087045 -1 
M 168.752973 -1 
L 168.939424 186.586655 
L 169.259386 217.95352 
L 169.579347 160.438798 
L 170.005963 76.101731 
L 170.008566 -1 
M 170.211517 -1 
L 170.325925 245.68208 
L 170.539233 251.376574 
L 170.645887 252.383577 
L 170.752541 245.625851 
L 170.859195 201.610877 
L 171.072502 248.813893 
L 171.179156 252.288681 
L 171.28581 251.280679 
L 171.499118 243.515883 
L 171.605772 232.532785 
L 171.712426 72.741672 
L 172.565657 213.809999 
L 172.992273 172.637234 
L 173.021372 -1 
M 173.63176 -1 
L 173.632197 9.494114 
L 173.651256 -1 
M 173.758086 -1 
L 173.952158 219.584429 
L 174.485428 225.7534 
L 174.592082 181.385374 
L 174.698736 227.569489 
L 174.80539 226.382363 
L 174.912044 224.67214 
L 174.954905 -1 
M 175.085454 -1 
L 175.232005 203.521992 
L 175.445313 211.420875 
L 175.524479 -1 
M 175.642425 -1 
L 175.658621 12.206094 
L 175.659173 -1 
M 176.270548 -1 
L 176.405199 186.513722 
L 176.72516 217.708885 
L 177.045122 159.936481 
L 177.471738 75.337561 
L 177.474347 -1 
M 177.677212 -1 
L 177.7917 245.354549 
L 178.005008 251.440451 
L 178.111661 252.447045 
L 178.218315 245.619258 
L 178.324969 197.483556 
L 178.538277 245.908762 
L 178.644931 252.319492 
L 178.751585 251.318722 
L 178.964893 243.065047 
L 179.071547 238.034358 
L 179.178201 238.954049 
L 179.284855 89.273561 
L 180.031432 214.036753 
L 180.351394 183.049276 
L 180.44628 -1 
M 180.990969 -1 
L 180.991317 7.380637 
L 181.028246 -1 
M 181.105182 -1 
L 181.311279 218.579929 
L 182.164511 230.143996 
L 182.271164 135.275437 
L 182.377818 225.685579 
L 182.484472 224.523407 
L 183.017742 218.125928 
L 183.231442 -1 
M 183.811564 -1 
L 183.977627 196.780861 
L 184.190935 217.719272 
L 184.617551 137.107041 
L 184.830859 94.692853 
L 184.834158 -1 
M 185.036378 -1 
L 185.15082 240.005303 
L 185.470782 251.52365 
L 185.577436 252.52268 
L 185.68409 244.563223 
L 185.790744 193.429635 
L 185.897398 245.567106 
L 186.004052 244.243941 
L 186.110706 252.353389 
L 186.21736 251.390405 
L 186.537321 237.647478 
L 186.750629 226.828638 
L 186.857283 106.545166 
L 187.497207 214.209414 
L 187.710515 193.410599 
L 187.817425 -1 
M 188.456512 -1 
L 188.563746 216.299613 
L 189.523631 227.345597 
L 189.630285 178.352116 
L 189.736939 227.125565 
L 189.843593 226.048773 
L 190.590171 217.379212 
L 190.598675 -1 
M 190.803099 -1 
L 190.803478 8.002588 
L 190.803854 -1 
M 191.388147 -1 
L 191.550056 207.080347 
L 191.65671 217.603903 
L 192.189979 114.628542 
L 192.194011 -1 
M 192.39552 -1 
L 192.509941 234.861777 
L 192.936557 251.611656 
L 193.043211 251.34805 
L 193.149865 244.507211 
L 193.256519 189.477009 
L 193.363173 245.711551 
L 193.469827 244.398851 
L 193.683134 251.461053 
L 194.216404 227.626284 
L 194.323058 232.114898 
L 194.429712 124.448136 
L 194.962981 214.034292 
L 195.069635 203.493821 
L 195.178446 -1 
M 195.81452 -1 
L 195.922867 215.443518 
L 196.882752 226.557069 
L 196.989406 164.202465 
L 197.09606 228.590535 
L 197.202714 227.573677 
L 198.162599 216.756896 
L 198.171087 -1 
M 198.938854 -1 
L 199.122485 218.338238 
L 199.5491 137.616903 
L 199.553986 -1 
M 199.755383 -1 
L 199.869062 209.775436 
L 200.08237 224.464769 
L 200.295678 249.406108 
L 200.508986 252.438105 
L 200.615639 244.718485 
L 200.722293 246.01729 
L 200.828947 185.599494 
L 201.042255 246.669863 
L 201.148909 248.095459 
L 201.362217 215.243764 
L 201.895487 178.370643 
L 202.00214 188.724023 
L 202.108794 163.050014 
L 202.428756 203.795097 
L 202.53541 212.952396 
L 202.56768 -1 
M 203.273567 -1 
L 203.388641 216.059423 
L 204.348527 226.965095 
L 204.455181 151.842173 
L 204.668489 227.901175 
L 204.881796 225.737603 
L 204.98845 203.134112 
L 205.095104 224.01307 
L 205.735028 216.663263 
L 205.84555 -1 
M 206.864291 -1 
L 206.908221 168.70933 
L 207.014875 148.626813 
L 207.228183 225.625234 
L 207.97476 252.95281 
L 208.188068 246.328711 
L 208.294722 181.913272 
L 208.401376 244.82021 
L 208.50803 243.545968 
L 208.614684 246.587496 
L 208.721338 246.428098 
L 209.361261 218.512057 
L 209.461862 -1 
M 211.238896 -1 
L 211.387686 190.201018 
L 211.920955 227.668562 
L 212.027609 226.406326 
L 212.134263 229.104672 
L 212.240917 228.650229 
L 212.987495 217.061946 
L 213.200803 213.584367 
L 213.226333 -1 
M 213.956814 -1 
L 214.054034 223.547019 
L 214.091744 -1 
M 214.231049 -1 
L 214.267342 210.754129 
L 214.373996 192.579058 
L 214.800611 126.767176 
L 215.013919 237.69906 
L 215.440535 253.152696 
L 215.547189 254.11073 
L 215.653843 194.392453 
L 215.760497 246.829156 
L 215.867151 245.408204 
L 216.187112 241.574561 
L 216.93369 215.217999 
L 217.002762 -1 
M 217.427755 -1 
L 217.466959 209.630346 
L 217.573613 125.491185 
L 217.786921 141.018208 
L 217.8701 -1 
M 218.035825 -1 
L 218.213537 198.3541 
L 218.426845 204.09821 
L 218.533499 178.761099 
L 218.640153 179.171218 
L 219.280076 209.325239 
L 219.38673 215.473673 
L 219.493384 213.534679 
L 219.600038 224.819851 
L 219.706692 221.341897 
L 219.92 225.410011 
L 220.346615 218.730471 
L 220.386926 -1 
M 220.523943 -1 
L 220.666577 187.570532 
L 221.199847 217.927913 
L 221.413155 225.295738 
L 222.37304 214.788531 
L 222.410887 -1 
M 222.564919 -1 
L 222.586348 97.638329 
L 222.693002 80.724051 
L 222.90631 50.288752 
L 223.119617 254.68793 
L 223.226271 231.619609 
L 223.332925 248.006811 
L 223.972849 237.91295 
L 224.506118 210.722836 
L 224.82608 200.482452 
L 225.039388 247.911397 
L 225.146042 75.234814 
L 225.35935 205.951438 
L 226.639197 222.724042 
L 226.852505 216.916883 
L 227.172467 205.113977 
L 227.279121 243.383213 
L 227.385774 215.61994 
L 227.492428 218.864852 
L 227.544089 -1 
M 227.660621 -1 
L 227.81239 174.364348 
L 228.132352 186.242457 
L 228.665622 218.66965 
L 228.878929 226.822241 
L 230.26543 211.665634 
L 230.282824 -1 
M 230.462779 -1 
L 230.478738 191.040166 
L 230.585392 189.353877 
L 230.620759 -1 
M 230.762967 -1 
L 230.905354 192.913459 
L 231.118662 247.000459 
L 231.545277 240.357277 
L 232.185201 206.509446 
L 232.505163 196.342926 
L 232.611817 173.012462 
L 232.825125 199.63654 
L 233.678356 210.194873 
L 234.31828 218.706737 
L 234.424933 143.671411 
L 234.531587 210.638877 
L 234.851549 197.054284 
L 234.958203 229.709664 
L 235.064857 179.241854 
L 235.384819 187.941107 
L 235.918088 212.8955 
L 236.23805 227.256821 
L 236.877974 219.529948 
L 237.304589 214.162321 
L 237.411243 203.529067 
L 237.517897 212.135458 
L 237.837859 209.452128 
L 237.856894 -1 
M 238.033538 -1 
L 238.157821 190.882756 
L 238.371129 191.566786 
L 238.477783 192.211359 
L 238.584436 113.377464 
L 238.797744 244.786657 
L 239.011052 242.094548 
L 239.22436 231.320674 
L 239.437668 125.203045 
L 239.650976 103.795047 
L 239.75763 132.257689 
L 239.864284 195.021702 
L 240.077591 188.415442 
L 240.184245 218.05858 
L 240.290899 193.584433 
L 240.397553 194.576106 
L 240.504207 17.951339 
L 240.717515 199.18147 
L 241.144131 204.317653 
L 241.464092 190.977874 
L 241.6774 179.534908 
L 241.694885 -1 
M 241.870795 -1 
L 241.890708 210.357964 
L 241.997362 206.169884 
L 242.21067 197.047109 
L 242.317324 226.395401 
L 242.423978 207.464599 
L 242.530632 211.426109 
L 242.637286 209.362755 
L 242.74394 7.495106 
L 242.850593 30.259545 
L 243.063901 192.65447 
L 243.703825 216.334812 
L 244.343748 208.793374 
L 244.450402 191.006675 
L 244.557056 206.245871 
L 244.66371 149.047741 
L 244.770364 203.562285 
L 244.877018 202.29691 
L 245.090326 199.975613 
L 245.19698 162.316655 
L 245.410288 37.193772 
L 245.516942 19.906756 
L 245.528592 -1 
M 245.683309 -1 
L 245.836903 237.297892 
L 246.156865 241.100114 
L 246.370173 238.984937 
L 246.476827 235.999046 
L 246.903443 207.120849 
L 247.863328 172.829598 
L 247.886886 -1 
M 248.127654 -1 
L 248.289944 202.613197 
L 248.929867 213.461458 
L 249.036521 194.074927 
L 249.143175 217.133017 
L 250.10306 100.194923 
L 250.316368 63.573575 
L 250.329555 -1 
M 250.827727 -1 
L 250.956292 163.686766 
L 251.062946 168.865765 
L 251.1696 136.975995 
L 251.702869 200.8194 
L 251.809523 187.965976 
L 251.916177 69.344775 
L 252.022831 168.432707 
L 252.388358 -1 
M 252.485848 -1 
L 252.662754 234.148629 
L 252.876062 239.537868 
L 252.982716 184.268895 
L 253.196024 233.222726 
L 253.409332 235.810292 
L 254.155909 224.193722 
L 254.902487 191.303902 
L 255.009141 189.127683 
L 255.115795 183.821256 
L 255.329103 163.083853 
L 255.351583 -1 
M 256.596782 -1 
L 256.60895 163.424861 
L 256.715604 148.900266 
L 257.142219 99.511114 
L 257.248873 244.888834 
L 257.270946 -1 
M 258.495969 -1 
L 258.635374 157.305035 
L 258.848682 184.792892 
L 259.275298 198.324741 
L 260.341837 239.967705 
L 260.448491 106.558782 
L 260.661799 234.18646 
L 261.51503 219.711416 
L 261.621684 220.008611 
L 262.0483 197.745094 
L 262.154954 59.020256 
L 262.261608 189.996999 
L 262.368262 186.511906 
L 262.474916 183.275396 
L 262.581569 175.260069 
L 262.794877 150.066541 
L 262.807924 -1 
M 263.652278 -1 
L 263.754763 10.691467 
L 263.803799 -1 
M 264.375238 -1 
L 264.394686 151.861048 
L 264.444201 -1 
M 265.765997 -1 
L 265.887841 149.273843 
L 266.101149 178.975254 
L 266.527765 191.483488 
L 267.061034 216.930182 
L 267.274342 226.275262 
L 267.380996 226.248765 
L 267.594304 228.292949 
L 267.914266 232.957225 
L 268.02092 94.64482 
L 268.127574 232.648741 
L 268.183315 -1 
M 268.388968 -1 
L 268.447535 240.339284 
L 268.554189 238.968783 
L 268.980805 220.217321 
L 270.153998 169.108148 
L 270.260652 147.058487 
L 270.299183 -1 
M 271.261396 -1 
L 271.327191 7.552678 
L 271.327569 -1 
M 271.530563 -1 
L 271.540499 246.307545 
L 271.647153 233.519306 
L 271.753807 214.578847 
L 271.778883 -1 
M 273.549528 -1 
L 273.673578 166.025962 
L 273.690531 -1 
M 273.868495 -1 
L 273.993539 186.820165 
L 274.100193 141.516574 
L 274.313501 205.055636 
L 274.526809 215.861134 
L 274.564594 -1 
M 274.70261 -1 
L 274.846771 222.722686 
L 275.060079 229.418207 
L 275.273386 232.897779 
L 275.38004 119.791175 
L 275.486694 245.53187 
L 275.593348 244.283187 
L 275.700002 242.235386 
L 276.659887 183.348803 
L 276.766541 177.888886 
L 276.789164 -1 
M 276.962607 -1 
L 276.979849 127.136572 
L 276.989019 -1 
M 277.180462 -1 
L 277.193157 183.062996 
L 277.299811 176.258211 
L 277.406465 151.803329 
L 277.416246 -1 
M 278.461169 -1 
L 278.579658 247.592188 
L 278.58889 -1 
M 278.785845 -1 
L 278.792966 186.693666 
L 278.89962 180.315982 
L 279.006274 173.513984 
L 279.019842 -1 
M 279.20638 -1 
L 279.219582 168.131852 
L 279.450897 -1 
M 279.608794 -1 
L 279.752851 169.586752 
L 279.966159 178.974292 
L 280.179467 174.429174 
L 280.185776 -1 
M 281.232673 -1 
L 281.35266 178.856407 
L 281.779276 195.724447 
L 282.312545 227.657683 
L 282.739161 235.185588 
L 282.753377 -1 
M 282.938732 -1 
L 282.952469 226.043055 
L 282.978045 -1 
M 283.823951 -1 
L 284.33897 168.996461 
L 284.445624 193.024911 
L 284.473742 -1 
M 285.82596 -1 
L 285.938779 185.340403 
L 285.944934 -1 
M 286.681668 -1 
L 286.685356 49.858566 
L 286.688897 -1 
M 286.889597 -1 
L 287.005318 144.349749 
L 287.218626 158.583408 
L 287.225218 -1 
M 289.783233 -1 
L 290.204936 235.61069 
L 290.418244 152.005033 
L 290.524898 101.948941 
L 290.593264 -1 
M 292.544703 -1 
L 292.657976 215.253065 
L 292.6646 -1 
M 292.972006 -1 
L 293.084592 125.574737 
L 293.191246 126.779896 
L 293.203518 -1 
M 293.50714 -1 
L 293.617861 133.901137 
L 293.724515 136.022345 
L 293.831169 134.089623 
L 293.937823 124.699202 
L 293.941608 -1 
M 295.635511 -1 
L 295.644286 14.787403 
L 295.644882 -1 
M 295.877575 -1 
L 295.964248 25.809892 
L 296.070902 143.421041 
L 296.177556 90.867679 
L 296.604171 185.747486 
L 296.710825 185.469351 
L 296.716209 -1 
M 297.584892 -1 
L 297.884018 233.684169 
L 297.990672 224.74024 
L 298.097326 155.670891 
L 298.118158 -1 
M 301.935581 -1 
L 302.043521 50.081416 
L 302.150175 67.067891 
L 302.152101 -1 
M 302.462558 -1 
L 302.683445 49.461313 
L 302.790099 115.764298 
L 302.896753 97.573397 
L 303.430022 194.877712 
L 303.749984 192.934952 
L 303.963292 192.579708 
L 304.069946 192.730599 
L 304.1766 193.129835 
L 304.283254 187.549535 
L 304.70987 120.462707 
L 304.816523 125.367434 
L 304.820251 -1 
M 305.027976 -1 
L 305.029831 60.781208 
L 305.136485 24.347019 
L 305.456447 242.086247 
L 305.516524 -1 
M 305.644139 -1 
L 305.669755 58.570563 
L 305.734979 -1 
M 307.266022 -1 
L 307.269564 118.6617 
L 307.27432 -1 
M 308.39956 -1 
L 308.442757 69.222721 
L 308.451518 -1 
M 308.644676 -1 
L 308.656065 92.804331 
L 308.658681 -1 
M 308.86461 -1 
L 308.869373 173.369334 
L 308.883239 -1 
M 309.068295 -1 
L 309.08268 180.906599 
L 309.087593 -1 
M 309.291307 -1 
L 309.402642 184.125454 
L 309.509296 190.957854 
L 309.538907 -1 
M 309.699012 -1 
L 309.829258 145.575893 
L 310.789143 189.9769 
L 310.795867 -1 
M 310.995467 -1 
L 311.002451 197.881721 
L 311.109105 187.074552 
L 311.962336 111.816816 
L 312.708914 63.870716 
L 313.13553 44.035773 
L 313.138975 -1 
M 315.266151 -1 
L 315.268608 77.792344 
L 315.271059 -1 
M 315.562775 -1 
L 315.58857 185.715378 
L 315.695224 179.597867 
L 315.713006 -1 
M 315.893133 -1 
L 316.015185 159.312717 
L 316.548455 190.604818 
L 316.554282 -1 
M 316.862197 -1 
L 316.975071 207.705829 
L 317.295033 204.632608 
L 317.307462 -1 
M 317.497616 -1 
L 317.50834 173.274246 
L 317.519285 -1 
M 317.709178 -1 
L 317.721648 200.776844 
L 317.828302 199.899164 
L 317.834414 -1 
M 318.035499 -1 
L 318.04161 199.874393 
L 318.063418 -1 
M 318.343458 -1 
L 318.361572 118.459793 
L 318.468226 98.595435 
L 318.57488 79.06371 
L 318.681534 190.979936 
L 318.788188 189.45747 
L 318.894841 187.816607 
L 319.641419 148.634874 
L 320.387996 118.065506 
L 320.49465 114.646671 
L 320.498802 -1 
M 322.088323 -1 
L 322.094459 178.824161 
L 322.100599 -1 
M 322.384894 -1 
L 322.414421 186.888936 
L 322.422427 -1 
M 322.947429 -1 
L 322.947691 6.262168 
L 322.947951 -1 
M 323.36824 -1 
L 323.374306 177.90883 
L 323.391694 -1 
M 323.796382 -1 
L 323.907576 181.085571 
L 323.915697 -1 
M 324.267265 -1 
L 324.334192 209.293703 
L 324.440846 207.40497 
L 324.654153 203.50274 
L 324.660909 -1 
M 324.86222 -1 
L 324.974115 157.071383 
L 325.187423 171.314434 
L 325.507385 185.566745 
L 325.519942 -1 
M 325.70963 -1 
L 325.720693 160.79517 
L 325.739186 -1 
M 325.930132 -1 
L 326.040654 31.112533 
L 326.147308 33.126641 
L 326.148466 -1 
M 326.359383 -1 
L 326.360616 35.386879 
L 326.46727 34.717624 
L 326.680578 30.980502 
L 327.00054 20.408279 
L 327.006739 -1 
M 327.844817 -1 
L 327.853771 155.121737 
L 327.870754 -1 
M 328.599576 -1 
L 328.707002 24.643028 
L 328.813656 28.277968 
L 328.823295 -1 
M 329.132265 -1 
L 329.133618 39.938515 
L 329.145313 -1 
M 329.985429 -1 
L 330.093504 51.245221 
L 330.133115 -1 
M 330.625014 -1 
L 330.626773 50.194282 
L 330.733427 22.45022 
L 330.813895 -1 
M 331.155444 -1 
L 331.160043 79.50685 
L 331.179968 -1 
M 331.668215 -1 
L 331.693312 71.381559 
L 331.697471 -1 
M 332.164265 -1 
L 332.333236 163.798363 
L 332.338385 -1 
M 332.639902 -1 
L 332.759852 201.952391 
L 332.766027 -1 
M 332.967112 -1 
L 332.973159 197.492735 
L 332.985667 -1 
M 333.174117 -1 
L 333.186467 194.663039 
L 333.198771 -1 
M 333.387775 -1 
L 333.399775 189.214507 
L 333.506429 187.360562 
L 333.513734 -1 
M 333.715226 -1 
L 333.719737 112.146328 
L 333.723962 -1 
M 334.038725 -1 
L 334.146353 37.742167 
L 334.35966 55.167234 
L 334.362396 -1 
M 335.097918 -1 
L 335.212892 191.824875 
L 335.4262 239.358075 
L 336.066123 106.939795 
L 336.069311 -1 
M 336.276919 -1 
L 336.279431 83.524255 
L 336.288566 -1 
M 336.476494 -1 
L 336.492739 161.1342 
L 336.599393 155.528204 
L 337.026009 140.487686 
L 337.34597 135.461583 
L 337.559278 38.929554 
L 337.574901 -1 
M 338.302234 -1 
L 338.305856 108.125298 
L 338.41251 103.139691 
L 338.519164 107.752852 
L 338.543342 -1 
M 339.046674 -1 
L 339.052433 117.761719 
L 339.159087 112.431954 
L 339.162682 -1 
M 339.368834 -1 
L 339.372395 111.339327 
L 339.479049 107.289785 
L 339.585703 103.629657 
L 339.692357 67.117862 
L 339.799011 93.947434 
L 340.012318 89.61787 
L 340.015076 -1 
M 343.183466 -1 
L 343.211936 236.424756 
L 343.438079 -1 
M 346.515109 -1 
L 346.624862 49.584682 
L 346.643332 -1 
M 347.659907 -1 
L 347.691401 134.252484 
L 347.798055 89.558666 
L 347.801006 -1 
M 348.330514 -1 
L 348.437978 21.782346 
L 348.544632 32.915712 
L 348.651286 78.004051 
L 348.697025 -1 
M 349.181806 -1 
L 349.184556 95.307803 
L 349.190377 -1 
M 349.496816 -1 
L 349.504518 123.36019 
L 349.509329 -1 
M 349.73208 -1 
L 349.931133 165.039123 
L 350.037787 162.304672 
L 350.144441 0.340784 
L 350.571057 87.131272 
L 350.578104 -1 
M 351.080085 -1 
L 351.210981 173.860751 
L 351.317634 182.186494 
L 351.323314 -1 
M 351.529575 -1 
L 351.637596 79.853832 
L 351.957558 180.578597 
L 352.064212 134.613967 
L 352.170866 163.487493 
L 352.196968 -1 
M 352.809517 -1 
L 352.810789 26.221161 
L 352.811704 -1 
M 353.229058 -1 
L 353.237405 28.468626 
L 353.344059 16.013653 
L 353.503268 -1 
M 354.721492 -1 
L 354.837214 131.813398 
L 355.050522 136.263344 
L 355.157176 128.789116 
L 355.205497 -1 
M 355.317781 -1 
L 355.370484 152.051479 
L 355.380877 -1 
M 356.114956 -1 
L 356.117061 3.946701 
L 356.168253 -1 
M 356.240331 -1 
L 356.330369 28.03993 
L 356.333391 -1 
M 356.786233 -1 
L 356.970292 66.775157 
L 357.290254 25.083302 
L 357.292795 -1 
M 358.349601 -1 
L 358.356793 93.772208 
L 358.463447 78.142066 
L 358.844073 -1 
M 360.154723 -1 
L 360.276564 179.029885 
L 360.284038 -1 
M 360.481882 -1 
L 360.596526 198.541855 
L 360.70318 204.218604 
L 360.711584 -1 
M 361.007356 -1 
L 361.023142 219.110286 
L 361.075818 -1 
M 361.442877 -1 
L 361.556411 221.275129 
L 361.565242 -1 
M 361.869115 -1 
L 361.876373 178.239384 
L 361.983027 177.492287 
L 362.302989 175.145902 
L 362.516296 165.57851 
L 362.58634 -1 
M 363.259286 -1 
L 363.262874 77.880101 
L 363.278653 -1 
M 364.313048 -1 
L 364.436067 147.399645 
L 364.756029 161.831484 
L 364.773487 -1 
M 365.008615 -1 
L 365.289299 181.299384 
L 365.395952 184.539683 
L 365.60926 196.054482 
L 365.715914 159.419155 
L 365.929222 206.221997 
L 366.249184 214.845388 
L 366.280945 -1 
M 366.437822 -1 
L 366.569146 168.83686 
L 366.6758 184.746396 
L 366.729904 -1 
M 366.830455 -1 
L 366.889107 219.435553 
L 366.93541 -1 
M 367.057212 -1 
L 367.102415 210.345703 
L 367.209069 27.230555 
L 367.315723 200.409313 
L 367.422377 194.464033 
L 367.580632 -1 
M 367.675002 -1 
L 367.742339 177.475724 
L 367.848993 170.892177 
L 367.955647 94.68786 
L 368.062301 156.134208 
L 368.131132 -1 
M 368.211869 -1 
L 368.275608 127.239505 
L 368.292944 -1 
M 368.578117 -1 
L 368.59557 175.911453 
L 368.667761 -1 
M 368.903198 -1 
L 368.915532 136.504334 
L 368.976503 -1 
M 369.125246 -1 
L 369.235494 203.793591 
L 369.342148 203.206991 
L 369.555455 201.732957 
L 369.662109 181.286059 
L 369.720598 -1 
M 369.906501 -1 
L 369.982071 174.107292 
L 370.088725 90.751585 
L 370.195379 154.464975 
L 370.223628 -1 
M 370.725059 -1 
L 370.728649 3.996811 
L 370.729168 -1 
M 370.927064 -1 
L 371.04861 168.539793 
L 371.901842 192.972811 
L 372.648419 208.126436 
L 372.656853 -1 
M 373.064949 -1 
L 373.181689 124.9834 
L 373.394997 195.844369 
L 373.406985 -1 
M 373.702189 -1 
L 373.714959 213.594905 
L 373.724893 -1 
M 373.918147 -1 
L 374.03492 224.942873 
L 374.248228 240.650548 
L 374.264778 -1 
M 374.444343 -1 
L 374.461536 251.844447 
L 374.56819 247.317953 
L 375.314767 214.73227 
L 375.634729 180.643763 
L 375.741383 168.913264 
L 375.848037 224.46411 
L 376.061345 217.203361 
L 376.086776 -1 
M 376.699693 -1 
L 376.807922 136.89216 
L 377.02123 109.929097 
L 377.127884 184.174884 
L 377.133939 -1 
M 377.490344 -1 
L 377.5545 75.776791 
L 377.557181 -1 
M 377.763987 -1 
L 377.767808 109.612064 
L 377.775938 -1 
M 377.973511 -1 
L 377.981115 101.912897 
L 377.988847 -1 
M 378.187779 -1 
L 378.194423 86.485563 
L 378.200779 -1 
M 379.139931 -1 
L 379.154309 159.67444 
L 379.260963 155.881607 
L 379.367617 160.711233 
L 379.379646 -1 
M 379.6621 -1 
L 379.687578 115.390277 
L 379.703734 -1 
M 379.877281 -1 
L 379.900886 184.306236 
L 380.012796 -1 
M 380.72526 -1 
L 380.860771 161.928287 
L 381.180733 192.983838 
L 381.500695 205.677327 
L 381.820657 209.979123 
L 382.033965 209.806225 
L 382.247272 208.20402 
L 382.353926 212.987659 
L 382.673888 193.119407 
L 382.678964 -1 
M 382.882104 -1 
L 382.887196 193.753097 
L 382.99385 187.170146 
L 383.313812 164.582307 
L 383.319196 -1 
M 384.054591 -1 
L 384.060389 160.343384 
L 384.167043 155.981649 
L 385.126928 114.015943 
L 385.233582 78.166895 
L 385.44689 164.039028 
L 385.660198 191.765584 
L 385.766852 191.019364 
L 386.086814 179.607323 
L 386.160836 -1 
M 386.222707 -1 
L 386.406776 213.611682 
L 386.503847 -1 
M 386.523529 -1 
L 386.620083 201.533877 
L 386.729639 -1 
M 386.933656 -1 
L 386.940045 237.299063 
L 387.046699 236.033932 
L 387.153353 234.387869 
L 387.260007 68.983439 
L 387.366661 230.811427 
L 387.579969 201.152626 
L 387.686623 205.869328 
L 387.793277 222.435255 
L 388.753162 195.014611 
L 389.393085 168.217201 
L 390.033009 130.96975 
L 390.0607 -1 
M 390.240592 -1 
L 390.246317 20.344881 
L 390.26457 -1 
M 391.311409 -1 
L 391.312856 62.281021 
L 391.365167 -1 
M 391.632816 -1 
L 391.632818 -0.991848 
L 391.632839 -1 
M 395.136823 -1 
L 395.259051 143.885215 
L 395.579013 147.101956 
L 395.898975 154.611642 
L 396.218937 169.603444 
L 396.645552 201.25249 
L 396.85886 191.752686 
L 397.072168 166.307809 
L 397.178822 12.900612 
L 397.285476 149.483007 
L 397.498784 116.208486 
L 397.502804 -1 
M 398.88139 -1 
L 398.991939 235.453804 
L 399.098592 233.488663 
L 399.205246 235.53794 
L 399.738516 221.110966 
L 399.84517 217.232653 
L 399.905713 -1 
M 400.65275 -1 
L 400.698401 205.056772 
L 400.805055 201.880976 
L 401.018363 190.854459 
L 401.076104 -1 
M 401.49656 -1 
L 401.551633 177.335448 
L 401.658287 167.145744 
L 401.664615 -1 
L 401.664615 -1 
" clip-path="url(#pf2b7413cda)" style="fill: none; stroke: #1f77b4; stroke-width: 1.5; stroke-linecap: square"/>
   </g>
   <g id="line2d_28">
    <path d="M 77.643665 31.046104 
L 78.60355 31.046559 
L 78.816858 160.616678 
L 79.13682 192.131716 
L 79.243474 31.049605 
L 79.350128 31.049936 
L 79.563435 31.049538 
L 79.776743 172.653077 
L 80.096705 161.43383 
L 80.203359 155.581539 
L 80.416667 141.140292 
L 81.05659 128.878906 
L 81.269898 127.278818 
L 81.376552 127.415416 
L 81.483206 128.034849 
L 81.58986 129.373994 
L 81.803168 75.196381 
L 82.016476 85.585336 
L 82.229784 31.05355 
L 83.083015 31.052909 
L 83.189669 157.737165 
L 83.296323 145.388852 
L 83.509631 166.269415 
L 83.829592 186.377217 
L 83.936246 185.556083 
L 84.149554 154.765269 
L 84.256208 156.584062 
L 84.469516 122.328544 
L 84.682824 31.067305 
L 84.896132 31.046578 
L 85.109439 161.415773 
L 88.629019 161.416266 
L 88.735673 176.198318 
L 88.842327 176.187926 
L 89.055635 176.106893 
L 89.268943 175.876608 
L 89.375596 175.783459 
L 89.48225 176.088268 
L 89.588904 181.688847 
L 89.802212 161.417091 
L 90.442136 161.421379 
L 90.762097 225.274361 
L 90.975405 222.866743 
L 91.082059 206.799563 
L 91.295367 161.418037 
L 92.361906 161.41591 
L 92.575214 227.525881 
L 99.827681 227.525965 
L 100.040989 236.85189 
L 101.96076 236.853913 
L 102.067413 238.557268 
L 102.280721 248.286356 
L 102.494029 236.854481 
L 107.293456 236.851886 
L 107.506764 237.915424 
L 109.639842 237.917506 
L 109.85315 249.478652 
L 109.959804 248.614509 
L 110.173112 237.916911 
L 114.75923 237.915428 
L 114.972538 238.638082 
L 122.225005 238.638077 
L 122.438313 239.451039 
L 124.464738 239.453358 
L 124.571391 241.385735 
L 124.784699 239.452637 
L 129.69078 239.451041 
L 129.904088 240.582664 
L 134.703514 240.582935 
L 134.916822 248.524592 
L 135.13013 246.664557 
L 135.236784 247.844722 
L 135.450092 240.585845 
L 137.156555 240.582671 
L 137.369862 240.858875 
L 139.076325 240.859067 
L 139.502941 246.694687 
L 139.716249 240.861031 
L 140.56948 240.860187 
L 140.782788 250.573746 
L 140.996096 242.029734 
L 141.209404 240.859861 
L 142.169289 240.859172 
L 142.275943 244.984162 
L 142.489251 240.859088 
L 144.622329 240.858862 
L 144.835637 241.177214 
L 146.755408 241.20258 
L 146.968716 246.48112 
L 147.075369 247.427339 
L 147.288677 241.179104 
L 147.928601 241.179239 
L 148.141909 253.822098 
L 148.248563 251.303366 
L 148.355217 243.796427 
L 148.46187 244.357459 
L 148.675178 241.179538 
L 152.088104 241.177206 
L 152.301412 241.791907 
L 154.221182 241.792197 
L 154.43449 246.546428 
L 154.647798 248.431071 
L 154.861106 241.795342 
L 155.394376 241.793738 
L 155.607683 252.225111 
L 155.714337 247.907459 
L 155.820991 247.986274 
L 156.034299 243.600011 
L 156.247607 245.85739 
L 156.460915 241.793314 
L 159.553879 241.791891 
L 159.767186 242.667354 
L 161.900265 242.669304 
L 162.006919 246.534194 
L 162.326881 242.669139 
L 162.753496 242.681227 
L 162.966804 253.756414 
L 163.286766 242.713613 
L 163.39342 242.741584 
L 163.500074 243.28668 
L 163.606728 245.024694 
L 163.92669 253.695809 
L 164.033343 254.213256 
L 164.246651 242.668548 
L 164.673267 242.670208 
L 164.779921 243.007247 
L 164.886575 247.76706 
L 165.099883 242.668728 
L 167.019653 242.667333 
L 167.232961 243.401219 
L 170.112617 243.401797 
L 170.219271 254.932763 
L 170.325925 253.989722 
L 170.432579 254.897987 
L 170.752541 243.402878 
L 171.072502 243.404554 
L 171.179156 245.528188 
L 171.392464 254.482964 
L 171.499118 254.362341 
L 171.605772 251.003878 
L 171.81908 243.401656 
L 174.485428 243.401201 
L 174.698736 243.654634 
L 177.578392 243.656663 
L 177.685046 255.302393 
L 177.898354 254.568129 
L 178.111661 243.658165 
L 178.644931 243.657712 
L 179.071547 255.821336 
L 179.284855 243.655465 
L 181.951203 243.654628 
L 182.164511 243.912911 
L 184.937513 243.913602 
L 185.044167 247.436275 
L 185.15082 254.781364 
L 185.257474 254.610917 
L 185.364128 253.143998 
L 185.577436 243.914916 
L 186.21736 243.918615 
L 186.430668 254.635885 
L 186.537321 254.188907 
L 186.750629 243.913994 
L 189.416977 243.912929 
L 189.630285 244.172163 
L 192.403287 244.174615 
L 192.509941 254.66731 
L 192.616595 253.762411 
L 192.723249 254.637297 
L 192.936557 244.175179 
L 193.789788 244.173971 
L 193.896442 254.685611 
L 194.003096 253.821439 
L 194.10975 254.627934 
L 194.323058 244.172701 
L 199.762408 244.256075 
L 199.869062 246.399441 
L 200.08237 253.842925 
L 200.189024 254.620264 
L 200.402332 244.257091 
L 201.255563 244.257908 
L 201.362217 244.591036 
L 201.468871 253.879297 
L 201.575525 253.009405 
L 201.682179 251.19353 
L 201.895487 244.255536 
L 204.348527 244.254932 
L 204.561835 244.50864 
L 207.228183 244.511565 
L 207.441491 253.012286 
L 207.548145 251.702308 
L 207.761452 244.510403 
L 208.50803 244.514221 
L 208.721338 246.174788 
L 208.827992 253.005573 
L 209.041299 244.509876 
L 211.814301 244.508673 
L 212.027609 246.67623 
L 214.907265 246.677328 
L 215.013919 255.116223 
L 215.333881 246.679819 
L 215.760497 246.682443 
L 215.867151 247.065566 
L 215.973805 250.008822 
L 216.187112 246.677239 
L 219.280076 246.676242 
L 219.493384 246.233809 
L 223.226271 246.235376 
L 223.332925 254.914283 
L 223.439579 254.892827 
L 223.652887 246.234588 
L 226.745851 246.233822 
L 226.959159 244.576673 
L 228.985583 244.576758 
L 229.305545 247.561652 
L 229.412199 247.665132 
L 229.518853 249.53408 
L 229.732161 244.577215 
L 234.211626 244.576673 
L 234.424933 243.383605 
L 236.664666 243.383661 
L 236.877974 246.802354 
L 237.091282 247.514834 
L 237.304589 250.721169 
L 237.411243 249.815729 
L 237.517897 250.271032 
L 237.731205 243.388267 
L 238.371129 243.398225 
L 238.477783 256.106383 
L 238.69109 250.767824 
L 238.797744 247.612849 
L 238.904398 252.055024 
L 239.22436 243.384079 
L 241.6774 243.383626 
L 241.890708 240.345123 
L 245.623595 240.346068 
L 245.730249 240.968716 
L 245.836903 244.13507 
L 246.050211 240.34546 
L 249.143175 240.345129 
L 249.356483 235.499725 
L 252.556101 235.505632 
L 252.662754 235.675259 
L 252.769408 236.983965 
L 252.876062 235.774472 
L 252.982716 235.856965 
L 253.08937 235.715076 
L 253.302678 238.227835 
L 253.515986 235.499707 
L 256.60895 235.499713 
L 256.822258 232.918302 
L 264.074724 232.918328 
L 264.288032 232.754499 
L 271.540499 232.754467 
L 271.753807 233.686876 
L 279.006274 233.686851 
L 279.219582 236.268271 
L 286.472048 236.268286 
L 286.685356 239.79973 
L 293.937823 239.79974 
L 294.151131 239.601818 
L 301.403598 239.601857 
L 301.616906 239.262907 
L 308.869373 239.262934 
L 309.08268 241.01749 
L 316.335147 241.017522 
L 316.548455 242.025485 
L 323.800922 242.02549 
L 324.01423 235.314794 
L 331.266697 235.314832 
L 331.480005 236.590254 
L 338.732471 236.590233 
L 338.945779 236.060453 
L 346.198246 236.060642 
L 346.411554 224.592965 
L 353.664021 224.592818 
L 353.877329 231.250953 
L 361.129795 231.251123 
L 361.343103 255.878979 
L 368.59557 255.879032 
L 368.808878 248.186508 
L 376.061345 248.186487 
L 376.274653 237.60889 
L 383.52712 237.608916 
L 383.740427 205.049302 
L 384.380351 205.052567 
L 384.487005 233.479547 
L 384.700313 205.054989 
L 385.233582 205.053725 
L 385.340236 226.472471 
L 385.44689 216.919071 
L 385.766852 224.021457 
L 385.98016 205.058518 
L 386.086814 205.083161 
L 386.300122 248.23855 
L 386.406776 229.572109 
L 386.513429 246.851863 
L 386.726737 205.054295 
L 390.992894 205.048684 
L 391.099548 155.657227 
L 391.206202 155.657855 
L 392.699357 155.663717 
L 392.912665 229.429708 
L 393.019319 228.235124 
L 393.232627 196.540148 
L 393.339281 196.263243 
L 393.445935 155.65728 
L 393.552588 155.659168 
L 398.458669 155.65458 
L 398.565323 109.391599 
L 398.671977 109.394863 
L 402.29821 109.385917 
L 402.29821 109.385917 
" clip-path="url(#pf2b7413cda)" style="fill: none; stroke: #ff7f0e; stroke-width: 1.5; stroke-linecap: square"/>
   </g>
   <g id="patch_3">
    <path d="M 61.410938 279.010828 
L 61.410938 12.898828 
" style="fill: none; stroke: #000000; stroke-width: 0.8; stroke-linejoin: miter; stroke-linecap: square"/>
   </g>
   <g id="patch_4">
    <path d="M 418.530938 279.010828 
L 418.530938 12.898828 
" style="fill: none; stroke: #000000; stroke-width: 0.8; stroke-linejoin: miter; stroke-linecap: square"/>
   </g>
   <g id="patch_5">
    <path d="M 61.410938 279.010828 
L 418.530938 279.010828 
" style="fill: none; stroke: #000000; stroke-width: 0.8; stroke-linejoin: miter; stroke-linecap: square"/>
   </g>
   <g id="patch_6">
    <path d="M 61.410938 12.898828 
L 418.530938 12.898828 
" style="fill: none; stroke: #000000; stroke-width: 0.8; stroke-linejoin: miter; stroke-linecap: square"/>
   </g>
   <g id="legend_1">
    <g id="patch_7">
     <path d="M 68.410938 274.010828 
L 202.532813 274.010828 
Q 204.532813 274.010828 204.532813 272.010828 
L 204.532813 258.332703 
Q 204.532813 256.332703 202.532813 256.332703 
L 68.410938 256.332703 
Q 66.410938 256.332703 66.410938 258.332703 
L 66.410938 272.010828 
Q 66.410938 274.010828 68.410938 274.010828 
z
" style="fill: #ffffff; opacity: 0.8; stroke: #cccccc; stroke-linejoin: miter"/>
    </g>
    <g id="line2d_29">
     <path d="M 70.410938 264.431141 
L 80.410938 264.431141 
L 90.410938 264.431141 
" style="fill: none; stroke: #1f77b4; stroke-width: 1.5; stroke-linecap: square"/>
    </g>
    <g id="text_16">
     <!-- local -->
     <g transform="translate(98.410938 267.931141) scale(0.1 -0.1)">
      <defs>
       <path id="DejaVuSans-6c" d="M 603 4863 
L 1178 4863 
L 1178 0 
L 603 0 
L 603 4863 
z
" transform="scale(0.015625)"/>
       <path id="DejaVuSans-61" d="M 2194 1759 
Q 1497 1759 1228 1600 
Q 959 1441 959 1056 
Q 959 750 1161 570 
Q 1363 391 1709 391 
Q 2188 391 2477 730 
Q 2766 1069 2766 1631 
L 2766 1759 
L 2194 1759 
z
M 3341 1997 
L 3341 0 
L 2766 0 
L 2766 531 
Q 2569 213 2275 61 
Q 1981 -91 1556 -91 
Q 1019 -91 701 211 
Q 384 513 384 1019 
Q 384 1609 779 1909 
Q 1175 2209 1959 2209 
L 2766 2209 
L 2766 2266 
Q 2766 2663 2505 2880 
Q 2244 3097 1772 3097 
Q 1472 3097 1187 3025 
Q 903 2953 641 2809 
L 641 3341 
Q 956 3463 1253 3523 
Q 1550 3584 1831 3584 
Q 2591 3584 2966 3190 
Q 3341 2797 3341 1997 
z
" transform="scale(0.015625)"/>
      </defs>
      <use xlink:href="#DejaVuSans-6c"/>
      <use xlink:href="#DejaVuSans-6f" x="27.783203"/>
      <use xlink:href="#DejaVuSans-63" x="88.964844"/>
      <use xlink:href="#DejaVuSans-61" x="143.945312"/>
      <use xlink:href="#DejaVuSans-6c" x="205.224609"/>
     </g>
    </g>
    <g id="line2d_30">
     <path d="M 141.7125 264.431141 
L 151.7125 264.431141 
L 161.7125 264.431141 
" style="fill: none; stroke: #ff7f0e; stroke-width: 1.5; stroke-linecap: square"/>
    </g>
    <g id="text_17">
     <!-- blk 70 -->
     <g transform="translate(169.7125 267.931141) scale(0.1 -0.1)">
      <defs>
       <path id="DejaVuSans-62" d="M 3116 1747 
Q 3116 2381 2855 2742 
Q 2594 3103 2138 3103 
Q 1681 3103 1420 2742 
Q 1159 2381 1159 1747 
Q 1159 1113 1420 752 
Q 1681 391 2138 391 
Q 2594 391 2855 752 
Q 3116 1113 3116 1747 
z
M 1159 2969 
Q 1341 3281 1617 3432 
Q 1894 3584 2278 3584 
Q 2916 3584 3314 3078 
Q 3713 2572 3713 1747 
Q 3713 922 3314 415 
Q 2916 -91 2278 -91 
Q 1894 -91 1617 61 
Q 1341 213 1159 525 
L 1159 0 
L 581 0 
L 581 4863 
L 1159 4863 
L 1159 2969 
z
" transform="scale(0.015625)"/>
       <path id="DejaVuSans-6b" d="M 581 4863 
L 1159 4863 
L 1159 1991 
L 2875 3500 
L 3609 3500 
L 1753 1863 
L 3688 0 
L 2938 0 
L 1159 1709 
L 1159 0 
L 581 0 
L 581 4863 
z
" transform="scale(0.015625)"/>
       <path id="DejaVuSans-37" d="M 525 4666 
L 3525 4666 
L 3525 4397 
L 1831 0 
L 1172 0 
L 2766 4134 
L 525 4134 
L 525 4666 
z
" transform="scale(0.015625)"/>
      </defs>
      <use xlink:href="#DejaVuSans-62"/>
      <use xlink:href="#DejaVuSans-6c" x="63.476562"/>
      <use xlink:href="#DejaVuSans-6b" x="91.259766"/>
      <use xlink:href="#DejaVuSans-20" x="149.169922"/>
      <use xlink:href="#DejaVuSans-37" x="180.957031"/>
      <use xlink:href="#DejaVuSans-30" x="244.580078"/>
     </g>
    </g>
   </g>
  </g>
 </g>
 <defs>
  <clipPath id="pf2b7413cda">
   <rect x="61.410938" y="12.898828" width="357.12" height="266.112"/>
  </clipPath>
 </defs>
</svg>
