<?xml version="1.0" encoding="utf-8" standalone="no"?>
<!DOCTYPE svg PUBLIC "-//W3C//DTD SVG 1.1//EN"
  "http://www.w3.org/Graphics/SVG/1.1/DTD/svg11.dtd">
<svg xmlns:xlink="http://www.w3.org/1999/xlink" width="425.730937pt" height="331.084266pt" viewBox="0 0 425.730937 331.084266" xmlns="http://www.w3.org/2000/svg" version="1.1">
 <defs>
  <style type="text/css">*{stroke-linejoin: round; stroke-linecap: butt}</style>
 </defs>
 <g id="figure_1">
  <g id="patch_1">
   <path d="M 0 331.084266 
L 425.730937 331.084266 
L 425.730937 0 
L 0 0 
L 0 331.084266 
z
" style="fill: none"/>
  </g>
  <g id="axes_1">
   <g id="patch_2">
    <path d="M 61.410938 279.010828 
L 418.530938 279.010828 
L 418.530938 12.898828 
L 61.410938 12.898828 
L 61.410938 279.010828 
z
" style="fill: none"/>
   </g>
   <g id="matplotlib.axis_1">
    <g id="xtick_1">
     <g id="line2d_1">
      <path d="M 82.443091 279.010828 
L 82.443091 12.898828 
" clip-path="url(#pf2b7413cda)" style="fill: none; stroke: #b0b0b0; stroke-width: 0.8; stroke-linecap: square"/>
     </g>
     <g id="line2d_2">
      <defs>
       <path id="md39032bed2" d="M 0 0 
L 0 3.5 
" style="stroke: #000000; stroke-width: 0.8"/>
      </defs>
      <g>
       <use xlink:href="#md39032bed2" x="82.443091" y="279.010828" style="stroke: #000000; stroke-width: 0.8"/>
      </g>
     </g>
     <g id="text_1">
      <!-- −3000 -->
      <g transform="translate(57.070826 297.408484)scale(0.15 -0.15)">
       <defs>
        <path id="DejaVuSans-2212" d="M 678 2272 
L 4684 2272 
L 4684 1741 
L 678 1741 
L 678 2272 
z
" transform="scale(0.015625)"/>
        <path id="DejaVuSans-33" d="M 2597 2516 
Q 3050 2419 3304 2112 
Q 3559 1806 3559 1356 
Q 3559 666 3084 287 
Q 2609 -91 1734 -91 
Q 1441 -91 1130 -33 
Q 819 25 488 141 
L 488 750 
Q 750 597 1062 519 
Q 1375 441 1716 441 
Q 2309 441 2620 675 
Q 2931 909 2931 1356 
Q 2931 1769 2642 2001 
Q 2353 2234 1838 2234 
L 1294 2234 
L 1294 2753 
L 1863 2753 
Q 2328 2753 2575 2939 
Q 2822 3125 2822 3475 
Q 2822 3834 2567 4026 
Q 2313 4219 1838 4219 
Q 1578 4219 1281 4162 
Q 984 4106 628 3988 
L 628 4550 
Q 988 4650 1302 4700 
Q 1616 4750 1894 4750 
Q 2613 4750 3031 4423 
Q 3450 4097 3450 3541 
Q 3450 3153 3228 2886 
Q 3006 2619 2597 2516 
z
" transform="scale(0.015625)"/>
        <path id="DejaVuSans-30" d="M 2034 4250 
Q 1547 4250 1301 3770 
Q 1056 3291 1056 2328 
Q 1056 1369 1301 889 
Q 1547 409 2034 409 
Q 2525 409 2770 889 
Q 3016 1369 3016 2328 
Q 3016 3291 2770 3770 
Q 2525 4250 2034 4250 
z
M 2034 4750 
Q 2819 4750 3233 4129 
Q 3647 3509 3647 2328 
Q 3647 1150 3233 529 
Q 2819 -91 2034 -91 
Q 1250 -91 836 529 
Q 422 1150 422 2328 
Q 422 3509 836 4129 
Q 1250 4750 2034 4750 
z
" transform="scale(0.015625)"/>
       </defs>
       <use xlink:href="#DejaVuSans-2212"/>
       <use xlink:href="#DejaVuSans-33" x="83.789062"/>
       <use xlink:href="#DejaVuSans-30" x="147.412109"/>
       <use xlink:href="#DejaVuSans-30" x="211.035156"/>
       <use xlink:href="#DejaVuSans-30" x="274.658203"/>
      </g>
     </g>
    </g>
    <g id="xtick_2">
     <g id="line2d_3">
      <path d="M 135.770053 279.010828 
L 135.770053 12.898828 
" clip-path="url(#pf2b7413cda)" style="fill: none; stroke: #b0b0b0; stroke-width: 0.8; stroke-linecap: square"/>
     </g>
     <g id="line2d_4">
      <g>
       <use xlink:href="#md39032bed2" x="135.770053" y="279.010828" style="stroke: #000000; stroke-width: 0.8"/>
      </g>
     </g>
     <g id="text_2">
      <!-- −2500 -->
      <g transform="translate(110.397788 297.408484)scale(0.15 -0.15)">
       <defs>
        <path id="DejaVuSans-32" d="M 1228 531 
L 3431 531 
L 3431 0 
L 469 0 
L 469 531 
Q 828 903 1448 1529 
Q 2069 2156 2228 2338 
Q 2531 2678 2651 2914 
Q 2772 3150 2772 3378 
Q 2772 3750 2511 3984 
Q 2250 4219 1831 4219 
Q 1534 4219 1204 4116 
Q 875 4013 500 3803 
L 500 4441 
Q 881 4594 1212 4672 
Q 1544 4750 1819 4750 
Q 2544 4750 2975 4387 
Q 3406 4025 3406 3419 
Q 3406 3131 3298 2873 
Q 3191 2616 2906 2266 
Q 2828 2175 2409 1742 
Q 1991 1309 1228 531 
z
" transform="scale(0.015625)"/>
        <path id="DejaVuSans-35" d="M 691 4666 
L 3169 4666 
L 3169 4134 
L 1269 4134 
L 1269 2991 
Q 1406 3038 1543 3061 
Q 1681 3084 1819 3084 
Q 2600 3084 3056 2656 
Q 3513 2228 3513 1497 
Q 3513 744 3044 326 
Q 2575 -91 1722 -91 
Q 1428 -91 1123 -41 
Q 819 9 494 109 
L 494 744 
Q 775 591 1075 516 
Q 1375 441 1709 441 
Q 2250 441 2565 725 
Q 2881 1009 2881 1497 
Q 2881 1984 2565 2268 
Q 2250 2553 1709 2553 
Q 1456 2553 1204 2497 
Q 953 2441 691 2322 
L 691 4666 
z
" transform="scale(0.015625)"/>
       </defs>
       <use xlink:href="#DejaVuSans-2212"/>
       <use xlink:href="#DejaVuSans-32" x="83.789062"/>
       <use xlink:href="#DejaVuSans-35" x="147.412109"/>
       <use xlink:href="#DejaVuSans-30" x="211.035156"/>
       <use xlink:href="#DejaVuSans-30" x="274.658203"/>
      </g>
     </g>
    </g>
    <g id="xtick_3">
     <g id="line2d_5">
      <path d="M 189.097016 279.010828 
L 189.097016 12.898828 
" clip-path="url(#pf2b7413cda)" style="fill: none; stroke: #b0b0b0; stroke-width: 0.8; stroke-linecap: square"/>
     </g>
     <g id="line2d_6">
      <g>
       <use xlink:href="#md39032bed2" x="189.097016" y="279.010828" style="stroke: #000000; stroke-width: 0.8"/>
      </g>
     </g>
     <g id="text_3">
      <!-- −2000 -->
      <g transform="translate(163.72475 297.408484)scale(0.15 -0.15)">
       <use xlink:href="#DejaVuSans-2212"/>
       <use xlink:href="#DejaVuSans-32" x="83.789062"/>
       <use xlink:href="#DejaVuSans-30" x="147.412109"/>
       <use xlink:href="#DejaVuSans-30" x="211.035156"/>
       <use xlink:href="#DejaVuSans-30" x="274.658203"/>
      </g>
     </g>
    </g>
    <g id="xtick_4">
     <g id="line2d_7">
      <path d="M 242.423978 279.010828 
L 242.423978 12.898828 
" clip-path="url(#pf2b7413cda)" style="fill: none; stroke: #b0b0b0; stroke-width: 0.8; stroke-linecap: square"/>
     </g>
     <g id="line2d_8">
      <g>
       <use xlink:href="#md39032bed2" x="242.423978" y="279.010828" style="stroke: #000000; stroke-width: 0.8"/>
      </g>
     </g>
     <g id="text_4">
      <!-- −1500 -->
      <g transform="translate(217.051712 297.408484)scale(0.15 -0.15)">
       <defs>
        <path id="DejaVuSans-31" d="M 794 531 
L 1825 531 
L 1825 4091 
L 703 3866 
L 703 4441 
L 1819 4666 
L 2450 4666 
L 2450 531 
L 3481 531 
L 3481 0 
L 794 0 
L 794 531 
z
" transform="scale(0.015625)"/>
       </defs>
       <use xlink:href="#DejaVuSans-2212"/>
       <use xlink:href="#DejaVuSans-31" x="83.789062"/>
       <use xlink:href="#DejaVuSans-35" x="147.412109"/>
       <use xlink:href="#DejaVuSans-30" x="211.035156"/>
       <use xlink:href="#DejaVuSans-30" x="274.658203"/>
      </g>
     </g>
    </g>
    <g id="xtick_5">
     <g id="line2d_9">
      <path d="M 295.75094 279.010828 
L 295.75094 12.898828 
" clip-path="url(#pf2b7413cda)" style="fill: none; stroke: #b0b0b0; stroke-width: 0.8; stroke-linecap: square"/>
     </g>
     <g id="line2d_10">
      <g>
       <use xlink:href="#md39032bed2" x="295.75094" y="279.010828" style="stroke: #000000; stroke-width: 0.8"/>
      </g>
     </g>
     <g id="text_5">
      <!-- −1000 -->
      <g transform="translate(270.378674 297.408484)scale(0.15 -0.15)">
       <use xlink:href="#DejaVuSans-2212"/>
       <use xlink:href="#DejaVuSans-31" x="83.789062"/>
       <use xlink:href="#DejaVuSans-30" x="147.412109"/>
       <use xlink:href="#DejaVuSans-30" x="211.035156"/>
       <use xlink:href="#DejaVuSans-30" x="274.658203"/>
      </g>
     </g>
    </g>
    <g id="xtick_6">
     <g id="line2d_11">
      <path d="M 349.077902 279.010828 
L 349.077902 12.898828 
" clip-path="url(#pf2b7413cda)" style="fill: none; stroke: #b0b0b0; stroke-width: 0.8; stroke-linecap: square"/>
     </g>
     <g id="line2d_12">
      <g>
       <use xlink:href="#md39032bed2" x="349.077902" y="279.010828" style="stroke: #000000; stroke-width: 0.8"/>
      </g>
     </g>
     <g id="text_6">
      <!-- −500 -->
      <g transform="translate(328.477511 297.408484)scale(0.15 -0.15)">
       <use xlink:href="#DejaVuSans-2212"/>
       <use xlink:href="#DejaVuSans-35" x="83.789062"/>
       <use xlink:href="#DejaVuSans-30" x="147.412109"/>
       <use xlink:href="#DejaVuSans-30" x="211.035156"/>
      </g>
     </g>
    </g>
    <g id="xtick_7">
     <g id="line2d_13">
      <path d="M 402.404864 279.010828 
L 402.404864 12.898828 
" clip-path="url(#pf2b7413cda)" style="fill: none; stroke: #b0b0b0; stroke-width: 0.8; stroke-linecap: square"/>
     </g>
     <g id="line2d_14">
      <g>
       <use xlink:href="#md39032bed2" x="402.404864" y="279.010828" style="stroke: #000000; stroke-width: 0.8"/>
      </g>
     </g>
     <g id="text_7">
      <!-- 0 -->
      <g transform="translate(397.632989 297.408484)scale(0.15 -0.15)">
       <use xlink:href="#DejaVuSans-30"/>
      </g>
     </g>
    </g>
    <g id="text_8">
     <!-- Position (μm) -->
     <g transform="translate(173.958438 319.724891)scale(0.2 -0.2)">
      <defs>
       <path id="DejaVuSans-50" d="M 1259 4147 
L 1259 2394 
L 2053 2394 
Q 2494 2394 2734 2622 
Q 2975 2850 2975 3272 
Q 2975 3691 2734 3919 
Q 2494 4147 2053 4147 
L 1259 4147 
z
M 628 4666 
L 2053 4666 
Q 2838 4666 3239 4311 
Q 3641 3956 3641 3272 
Q 3641 2581 3239 2228 
Q 2838 1875 2053 1875 
L 1259 1875 
L 1259 0 
L 628 0 
L 628 4666 
z
" transform="scale(0.015625)"/>
       <path id="DejaVuSans-6f" d="M 1959 3097 
Q 1497 3097 1228 2736 
Q 959 2375 959 1747 
Q 959 1119 1226 758 
Q 1494 397 1959 397 
Q 2419 397 2687 759 
Q 2956 1122 2956 1747 
Q 2956 2369 2687 2733 
Q 2419 3097 1959 3097 
z
M 1959 3584 
Q 2709 3584 3137 3096 
Q 3566 2609 3566 1747 
Q 3566 888 3137 398 
Q 2709 -91 1959 -91 
Q 1206 -91 779 398 
Q 353 888 353 1747 
Q 353 2609 779 3096 
Q 1206 3584 1959 3584 
z
" transform="scale(0.015625)"/>
       <path id="DejaVuSans-73" d="M 2834 3397 
L 2834 2853 
Q 2591 2978 2328 3040 
Q 2066 3103 1784 3103 
Q 1356 3103 1142 2972 
Q 928 2841 928 2578 
Q 928 2378 1081 2264 
Q 1234 2150 1697 2047 
L 1894 2003 
Q 2506 1872 2764 1633 
Q 3022 1394 3022 966 
Q 3022 478 2636 193 
Q 2250 -91 1575 -91 
Q 1294 -91 989 -36 
Q 684 19 347 128 
L 347 722 
Q 666 556 975 473 
Q 1284 391 1588 391 
Q 1994 391 2212 530 
Q 2431 669 2431 922 
Q 2431 1156 2273 1281 
Q 2116 1406 1581 1522 
L 1381 1569 
Q 847 1681 609 1914 
Q 372 2147 372 2553 
Q 372 3047 722 3315 
Q 1072 3584 1716 3584 
Q 2034 3584 2315 3537 
Q 2597 3491 2834 3397 
z
" transform="scale(0.015625)"/>
       <path id="DejaVuSans-69" d="M 603 3500 
L 1178 3500 
L 1178 0 
L 603 0 
L 603 3500 
z
M 603 4863 
L 1178 4863 
L 1178 4134 
L 603 4134 
L 603 4863 
z
" transform="scale(0.015625)"/>
       <path id="DejaVuSans-74" d="M 1172 4494 
L 1172 3500 
L 2356 3500 
L 2356 3053 
L 1172 3053 
L 1172 1153 
Q 1172 725 1289 603 
Q 1406 481 1766 481 
L 2356 481 
L 2356 0 
L 1766 0 
Q 1100 0 847 248 
Q 594 497 594 1153 
L 594 3053 
L 172 3053 
L 172 3500 
L 594 3500 
L 594 4494 
L 1172 4494 
z
" transform="scale(0.015625)"/>
       <path id="DejaVuSans-6e" d="M 3513 2113 
L 3513 0 
L 2938 0 
L 2938 2094 
Q 2938 2591 2744 2837 
Q 2550 3084 2163 3084 
Q 1697 3084 1428 2787 
Q 1159 2491 1159 1978 
L 1159 0 
L 581 0 
L 581 3500 
L 1159 3500 
L 1159 2956 
Q 1366 3272 1645 3428 
Q 1925 3584 2291 3584 
Q 2894 3584 3203 3211 
Q 3513 2838 3513 2113 
z
" transform="scale(0.015625)"/>
       <path id="DejaVuSans-20" transform="scale(0.015625)"/>
       <path id="DejaVuSans-28" d="M 1984 4856 
Q 1566 4138 1362 3434 
Q 1159 2731 1159 2009 
Q 1159 1288 1364 580 
Q 1569 -128 1984 -844 
L 1484 -844 
Q 1016 -109 783 600 
Q 550 1309 550 2009 
Q 550 2706 781 3412 
Q 1013 4119 1484 4856 
L 1984 4856 
z
" transform="scale(0.015625)"/>
       <path id="DejaVuSans-3bc" d="M 544 -1331 
L 544 3500 
L 1119 3500 
L 1119 1325 
Q 1119 872 1334 640 
Q 1550 409 1972 409 
Q 2434 409 2667 671 
Q 2900 934 2900 1459 
L 2900 3500 
L 3475 3500 
L 3475 806 
Q 3475 619 3529 530 
Q 3584 441 3700 441 
Q 3728 441 3778 458 
Q 3828 475 3916 513 
L 3916 50 
Q 3788 -22 3673 -56 
Q 3559 -91 3450 -91 
Q 3234 -91 3106 31 
Q 2978 153 2931 403 
Q 2775 156 2548 32 
Q 2322 -91 2016 -91 
Q 1697 -91 1473 31 
Q 1250 153 1119 397 
L 1119 -1331 
L 544 -1331 
z
" transform="scale(0.015625)"/>
       <path id="DejaVuSans-6d" d="M 3328 2828 
Q 3544 3216 3844 3400 
Q 4144 3584 4550 3584 
Q 5097 3584 5394 3201 
Q 5691 2819 5691 2113 
L 5691 0 
L 5113 0 
L 5113 2094 
Q 5113 2597 4934 2840 
Q 4756 3084 4391 3084 
Q 3944 3084 3684 2787 
Q 3425 2491 3425 1978 
L 3425 0 
L 2847 0 
L 2847 2094 
Q 2847 2600 2669 2842 
Q 2491 3084 2119 3084 
Q 1678 3084 1418 2786 
Q 1159 2488 1159 1978 
L 1159 0 
L 581 0 
L 581 3500 
L 1159 3500 
L 1159 2956 
Q 1356 3278 1631 3431 
Q 1906 3584 2284 3584 
Q 2666 3584 2933 3390 
Q 3200 3197 3328 2828 
z
" transform="scale(0.015625)"/>
       <path id="DejaVuSans-29" d="M 513 4856 
L 1013 4856 
Q 1481 4119 1714 3412 
Q 1947 2706 1947 2009 
Q 1947 1309 1714 600 
Q 1481 -109 1013 -844 
L 513 -844 
Q 928 -128 1133 580 
Q 1338 1288 1338 2009 
Q 1338 2731 1133 3434 
Q 928 4138 513 4856 
z
" transform="scale(0.015625)"/>
      </defs>
      <use xlink:href="#DejaVuSans-50"/>
      <use xlink:href="#DejaVuSans-6f" x="56.677734"/>
      <use xlink:href="#DejaVuSans-73" x="117.859375"/>
      <use xlink:href="#DejaVuSans-69" x="169.958984"/>
      <use xlink:href="#DejaVuSans-74" x="197.742188"/>
      <use xlink:href="#DejaVuSans-69" x="236.951172"/>
      <use xlink:href="#DejaVuSans-6f" x="264.734375"/>
      <use xlink:href="#DejaVuSans-6e" x="325.916016"/>
      <use xlink:href="#DejaVuSans-20" x="389.294922"/>
      <use xlink:href="#DejaVuSans-28" x="421.082031"/>
      <use xlink:href="#DejaVuSans-3bc" x="460.095703"/>
      <use xlink:href="#DejaVuSans-6d" x="523.71875"/>
      <use xlink:href="#DejaVuSans-29" x="621.130859"/>
     </g>
    </g>
   </g>
   <g id="matplotlib.axis_2">
    <g id="ytick_1">
     <g id="line2d_15">
      <path d="M 61.410938 279.010828 
L 418.530938 279.010828 
" clip-path="url(#pf2b7413cda)" style="fill: none; stroke: #b0b0b0; stroke-width: 0.8; stroke-linecap: square"/>
     </g>
     <g id="line2d_16">
      <defs>
       <path id="m6f3f5b6aff" d="M 0 0 
L -3.5 0 
" style="stroke: #000000; stroke-width: 0.8"/>
      </defs>
      <g>
       <use xlink:href="#m6f3f5b6aff" x="61.410938" y="279.010828" style="stroke: #000000; stroke-width: 0.8"/>
      </g>
     </g>
     <g id="text_9">
      <!-- 0.0 -->
      <g transform="translate(30.55625 284.709656)scale(0.15 -0.15)">
       <defs>
        <path id="DejaVuSans-2e" d="M 684 794 
L 1344 794 
L 1344 0 
L 684 0 
L 684 794 
z
" transform="scale(0.015625)"/>
       </defs>
       <use xlink:href="#DejaVuSans-30"/>
       <use xlink:href="#DejaVuSans-2e" x="63.623047"/>
       <use xlink:href="#DejaVuSans-30" x="95.410156"/>
      </g>
     </g>
    </g>
    <g id="ytick_2">
     <g id="line2d_17">
      <path d="M 61.410938 225.788428 
L 418.530938 225.788428 
" clip-path="url(#pf2b7413cda)" style="fill: none; stroke: #b0b0b0; stroke-width: 0.8; stroke-linecap: square"/>
     </g>
     <g id="line2d_18">
      <g>
       <use xlink:href="#m6f3f5b6aff" x="61.410938" y="225.788428" style="stroke: #000000; stroke-width: 0.8"/>
      </g>
     </g>
     <g id="text_10">
      <!-- 0.5 -->
      <g transform="translate(30.55625 231.487256)scale(0.15 -0.15)">
       <use xlink:href="#DejaVuSans-30"/>
       <use xlink:href="#DejaVuSans-2e" x="63.623047"/>
       <use xlink:href="#DejaVuSans-35" x="95.410156"/>
      </g>
     </g>
    </g>
    <g id="ytick_3">
     <g id="line2d_19">
      <path d="M 61.410938 172.566028 
L 418.530938 172.566028 
" clip-path="url(#pf2b7413cda)" style="fill: none; stroke: #b0b0b0; stroke-width: 0.8; stroke-linecap: square"/>
     </g>
     <g id="line2d_20">
      <g>
       <use xlink:href="#m6f3f5b6aff" x="61.410938" y="172.566028" style="stroke: #000000; stroke-width: 0.8"/>
      </g>
     </g>
     <g id="text_11">
      <!-- 1.0 -->
      <g transform="translate(30.55625 178.264856)scale(0.15 -0.15)">
       <use xlink:href="#DejaVuSans-31"/>
       <use xlink:href="#DejaVuSans-2e" x="63.623047"/>
       <use xlink:href="#DejaVuSans-30" x="95.410156"/>
      </g>
     </g>
    </g>
    <g id="ytick_4">
     <g id="line2d_21">
      <path d="M 61.410938 119.343628 
L 418.530938 119.343628 
" clip-path="url(#pf2b7413cda)" style="fill: none; stroke: #b0b0b0; stroke-width: 0.8; stroke-linecap: square"/>
     </g>
     <g id="line2d_22">
      <g>
       <use xlink:href="#m6f3f5b6aff" x="61.410938" y="119.343628" style="stroke: #000000; stroke-width: 0.8"/>
      </g>
     </g>
     <g id="text_12">
      <!-- 1.5 -->
      <g transform="translate(30.55625 125.042456)scale(0.15 -0.15)">
       <use xlink:href="#DejaVuSans-31"/>
       <use xlink:href="#DejaVuSans-2e" x="63.623047"/>
       <use xlink:href="#DejaVuSans-35" x="95.410156"/>
      </g>
     </g>
    </g>
    <g id="ytick_5">
     <g id="line2d_23">
      <path d="M 61.410938 66.121228 
L 418.530938 66.121228 
" clip-path="url(#pf2b7413cda)" style="fill: none; stroke: #b0b0b0; stroke-width: 0.8; stroke-linecap: square"/>
     </g>
     <g id="line2d_24">
      <g>
       <use xlink:href="#m6f3f5b6aff" x="61.410938" y="66.121228" style="stroke: #000000; stroke-width: 0.8"/>
      </g>
     </g>
     <g id="text_13">
      <!-- 2.0 -->
      <g transform="translate(30.55625 71.820056)scale(0.15 -0.15)">
       <use xlink:href="#DejaVuSans-32"/>
       <use xlink:href="#DejaVuSans-2e" x="63.623047"/>
       <use xlink:href="#DejaVuSans-30" x="95.410156"/>
      </g>
     </g>
    </g>
    <g id="ytick_6">
     <g id="line2d_25">
      <path d="M 61.410938 12.898828 
L 418.530938 12.898828 
" clip-path="url(#pf2b7413cda)" style="fill: none; stroke: #b0b0b0; stroke-width: 0.8; stroke-linecap: square"/>
     </g>
     <g id="line2d_26">
      <g>
       <use xlink:href="#m6f3f5b6aff" x="61.410938" y="12.898828" style="stroke: #000000; stroke-width: 0.8"/>
      </g>
     </g>
     <g id="text_14">
      <!-- 2.5 -->
      <g transform="translate(30.55625 18.597656)scale(0.15 -0.15)">
       <use xlink:href="#DejaVuSans-32"/>
       <use xlink:href="#DejaVuSans-2e" x="63.623047"/>
       <use xlink:href="#DejaVuSans-35" x="95.410156"/>
      </g>
     </g>
    </g>
    <g id="text_15">
     <!-- Difference (V) -->
     <g transform="translate(22.396875 215.476703)rotate(-90)scale(0.2 -0.2)">
      <defs>
       <path id="DejaVuSans-44" d="M 1259 4147 
L 1259 519 
L 2022 519 
Q 2988 519 3436 956 
Q 3884 1394 3884 2338 
Q 3884 3275 3436 3711 
Q 2988 4147 2022 4147 
L 1259 4147 
z
M 628 4666 
L 1925 4666 
Q 3281 4666 3915 4102 
Q 4550 3538 4550 2338 
Q 4550 1131 3912 565 
Q 3275 0 1925 0 
L 628 0 
L 628 4666 
z
" transform="scale(0.015625)"/>
       <path id="DejaVuSans-66" d="M 2375 4863 
L 2375 4384 
L 1825 4384 
Q 1516 4384 1395 4259 
Q 1275 4134 1275 3809 
L 1275 3500 
L 2222 3500 
L 2222 3053 
L 1275 3053 
L 1275 0 
L 697 0 
L 697 3053 
L 147 3053 
L 147 3500 
L 697 3500 
L 697 3744 
Q 697 4328 969 4595 
Q 1241 4863 1831 4863 
L 2375 4863 
z
" transform="scale(0.015625)"/>
       <path id="DejaVuSans-65" d="M 3597 1894 
L 3597 1613 
L 953 1613 
Q 991 1019 1311 708 
Q 1631 397 2203 397 
Q 2534 397 2845 478 
Q 3156 559 3463 722 
L 3463 178 
Q 3153 47 2828 -22 
Q 2503 -91 2169 -91 
Q 1331 -91 842 396 
Q 353 884 353 1716 
Q 353 2575 817 3079 
Q 1281 3584 2069 3584 
Q 2775 3584 3186 3129 
Q 3597 2675 3597 1894 
z
M 3022 2063 
Q 3016 2534 2758 2815 
Q 2500 3097 2075 3097 
Q 1594 3097 1305 2825 
Q 1016 2553 972 2059 
L 3022 2063 
z
" transform="scale(0.015625)"/>
       <path id="DejaVuSans-72" d="M 2631 2963 
Q 2534 3019 2420 3045 
Q 2306 3072 2169 3072 
Q 1681 3072 1420 2755 
Q 1159 2438 1159 1844 
L 1159 0 
L 581 0 
L 581 3500 
L 1159 3500 
L 1159 2956 
Q 1341 3275 1631 3429 
Q 1922 3584 2338 3584 
Q 2397 3584 2469 3576 
Q 2541 3569 2628 3553 
L 2631 2963 
z
" transform="scale(0.015625)"/>
       <path id="DejaVuSans-63" d="M 3122 3366 
L 3122 2828 
Q 2878 2963 2633 3030 
Q 2388 3097 2138 3097 
Q 1578 3097 1268 2742 
Q 959 2388 959 1747 
Q 959 1106 1268 751 
Q 1578 397 2138 397 
Q 2388 397 2633 464 
Q 2878 531 3122 666 
L 3122 134 
Q 2881 22 2623 -34 
Q 2366 -91 2075 -91 
Q 1284 -91 818 406 
Q 353 903 353 1747 
Q 353 2603 823 3093 
Q 1294 3584 2113 3584 
Q 2378 3584 2631 3529 
Q 2884 3475 3122 3366 
z
" transform="scale(0.015625)"/>
       <path id="DejaVuSans-56" d="M 1831 0 
L 50 4666 
L 709 4666 
L 2188 738 
L 3669 4666 
L 4325 4666 
L 2547 0 
L 1831 0 
z
" transform="scale(0.015625)"/>
      </defs>
      <use xlink:href="#DejaVuSans-44"/>
      <use xlink:href="#DejaVuSans-69" x="77.001953"/>
      <use xlink:href="#DejaVuSans-66" x="104.785156"/>
      <use xlink:href="#DejaVuSans-66" x="139.990234"/>
      <use xlink:href="#DejaVuSans-65" x="175.195312"/>
      <use xlink:href="#DejaVuSans-72" x="236.71875"/>
      <use xlink:href="#DejaVuSans-65" x="275.582031"/>
      <use xlink:href="#DejaVuSans-6e" x="337.105469"/>
      <use xlink:href="#DejaVuSans-63" x="400.484375"/>
      <use xlink:href="#DejaVuSans-65" x="455.464844"/>
      <use xlink:href="#DejaVuSans-20" x="516.988281"/>
      <use xlink:href="#DejaVuSans-28" x="548.775391"/>
      <use xlink:href="#DejaVuSans-56" x="587.789062"/>
      <use xlink:href="#DejaVuSans-29" x="656.197266"/>
     </g>
    </g>
   </g>
   <g id="line2d_27">
    <path d="M 78.921182 -1 
L 78.923512 36.433826 
L 79.031622 -1 
M 79.348793 -1 
L 79.456781 32.480445 
L 79.670089 36.003857 
L 79.671475 -1 
M 80.625273 -1 
L 80.629975 138.201115 
L 80.640808 -1 
M 82.196318 -1 
L 82.229784 112.807811 
L 82.233676 -1 
M 82.652616 -1 
L 82.656399 66.716635 
L 82.763053 49.125647 
L 82.944896 -1 
M 83.294868 -1 
L 83.296323 36.152424 
L 83.402977 29.598521 
L 83.616285 21.610546 
L 83.722938 88.301023 
L 83.804312 -1 
M 84.692439 -1 
L 84.789478 105.162256 
L 84.860568 -1 
M 85.528772 -1 
L 85.642709 115.545853 
L 85.856017 136.544375 
L 85.864778 -1 
M 86.059286 -1 
L 86.069325 158.682317 
L 86.079143 -1 
M 86.369421 -1 
L 86.389287 124.033046 
L 86.403133 -1 
M 88.413857 -1 
L 88.415711 33.20798 
L 88.498549 -1 
M 89.791958 -1 
L 89.908866 208.552356 
L 89.931247 -1 
M 90.751243 -1 
L 90.762097 196.283587 
L 90.901436 -1 
M 91.282995 -1 
L 91.402021 53.570576 
L 91.508675 51.884843 
L 91.680257 -1 
M 91.91228 -1 
L 91.935291 44.518775 
L 91.945148 -1 
M 92.147618 -1 
L 92.148598 3.148266 
L 92.149072 -1 
M 93.158921 -1 
L 93.321792 102.823839 
L 93.535099 101.416339 
L 93.641753 101.54024 
L 93.748407 102.230379 
L 93.765623 -1 
M 93.951604 -1 
L 93.961715 55.165615 
L 93.988152 -1 
M 94.13707 -1 
L 94.281677 211.238547 
L 94.494985 183.047307 
L 94.601639 163.072498 
L 94.619307 -1 
M 94.798843 -1 
L 94.921601 174.029944 
L 94.931162 -1 
M 95.229092 -1 
L 95.241562 208.946741 
L 95.252403 -1 
M 96.412065 -1 
L 96.521409 50.291373 
L 96.948025 99.150079 
L 97.267987 149.846776 
L 97.374641 214.543113 
L 97.481295 179.621582 
L 97.694603 203.26627 
L 98.547834 125.061836 
L 98.654488 117.991057 
L 98.692136 -1 
M 100.116917 -1 
L 100.254297 182.778025 
L 100.27454 -1 
M 100.68694 -1 
L 100.787566 100.436034 
L 100.89422 89.611661 
L 101.214182 129.30852 
L 101.42749 146.505982 
L 101.45562 -1 
M 101.624298 -1 
L 101.640798 74.359136 
L 101.708935 -1 
M 101.935367 -1 
L 102.494029 170.439423 
L 102.600683 193.148834 
L 102.920645 151.671226 
L 102.943071 -1 
M 103.235883 -1 
L 103.347261 76.627899 
L 103.352289 -1 
M 104.180341 -1 
L 104.307146 65.794645 
L 104.840415 146.137873 
L 105.160377 197.158714 
L 105.693647 143.904657 
L 105.906955 126.374139 
L 105.971114 -1 
M 106.54314 -1 
L 106.653532 118.7814 
L 106.760186 109.157997 
L 106.86684 67.311994 
L 106.873835 -1 
M 107.595098 -1 
L 107.720071 207.215751 
L 107.764379 -1 
M 108.751173 -1 
L 108.893265 148.120682 
L 109.31988 236.834992 
L 109.533188 20.475005 
L 109.639842 127.607759 
L 109.688015 -1 
M 110.055986 -1 
L 110.066458 159.50101 
L 110.076828 -1 
M 110.858638 -1 
L 110.919689 258.614137 
L 111.132997 160.747671 
L 111.143664 -1 
M 111.344558 -1 
L 111.452959 32.065128 
L 111.666267 54.994061 
L 111.772921 170.708437 
L 111.879574 90.043865 
L 112.30619 153.301424 
L 112.519498 114.501053 
L 112.732806 59.32619 
L 112.83946 131.134995 
L 112.924092 -1 
M 113.844958 -1 
L 113.905999 149.493473 
L 114.119307 128.177063 
L 114.166035 -1 
M 114.538014 -1 
L 114.545923 71.687048 
L 114.652576 66.548252 
L 114.865884 235.298806 
L 114.892828 -1 
M 115.056193 -1 
L 115.079192 191.196368 
L 115.185846 166.352941 
L 115.2925 203.845346 
L 115.343388 -1 
M 115.859007 -1 
L 116.039078 46.161138 
L 116.170434 -1 
M 116.636166 -1 
L 116.679001 68.739965 
L 116.749278 -1 
M 116.905358 -1 
L 117.212271 61.859115 
L 117.318925 64.604345 
L 117.422282 -1 
M 117.818735 -1 
L 117.852194 35.446547 
L 117.867594 -1 
M 118.2226 -1 
L 118.385464 216.497364 
L 118.598772 240.577282 
L 118.616877 -1 
M 118.798472 -1 
L 118.81208 171.792088 
L 118.918733 159.045257 
L 119.345349 204.189316 
L 119.665311 221.466046 
L 119.985273 131.751325 
L 120.091927 96.770792 
L 120.198581 153.555568 
L 120.392761 -1 
M 120.774529 -1 
L 120.838504 161.079251 
L 120.892583 -1 
M 121.251929 -1 
L 121.371774 121.173266 
L 121.488664 -1 
M 121.761067 -1 
L 121.798389 179.2035 
L 121.817273 -1 
M 122.000099 -1 
L 122.011697 101.200217 
L 122.118351 100.209176 
L 122.331659 224.642967 
L 122.357532 -1 
M 122.523169 -1 
L 122.651621 208.285007 
L 122.864929 215.091605 
L 122.924971 -1 
M 123.508676 -1 
L 123.611506 22.838035 
L 123.71816 75.117494 
L 123.740705 -1 
M 124.509286 -1 
L 124.678045 59.225871 
L 124.810476 -1 
M 125.514981 -1 
L 125.637931 239.86503 
L 125.744585 243.775124 
L 125.851239 241.709272 
L 126.064546 63.585386 
L 126.1712 263.637942 
L 126.277854 225.970352 
L 126.291617 -1 
M 126.484148 -1 
L 126.491162 106.831967 
L 126.597816 95.09513 
L 126.70447 112.659422 
L 126.733214 -1 
M 126.886345 -1 
L 127.024432 172.703799 
L 127.23774 212.187764 
L 127.344393 222.126887 
L 127.557701 138.846341 
L 127.850975 -1 
M 128.375505 -1 
L 128.410933 97.805134 
L 128.444939 -1 
M 128.72099 -1 
L 128.837548 40.601098 
L 128.946254 -1 
M 129.227681 -1 
L 129.264164 167.419831 
L 129.370818 165.360831 
L 129.477472 163.7953 
L 129.584126 127.637318 
L 129.797434 245.254161 
L 129.904088 254.519743 
L 130.010742 215.669991 
L 130.117396 216.424921 
L 130.224049 216.572369 
L 130.275313 -1 
M 130.649848 -1 
L 130.650665 4.217673 
L 130.660806 -1 
M 131.787954 -1 
L 131.930512 197.658895 
L 132.14382 230.041741 
L 132.67709 177.003313 
L 132.702309 -1 
M 133.144476 -1 
L 133.210359 243.417344 
L 133.317013 240.204642 
L 133.530321 214.410393 
L 133.636975 215.831085 
L 133.743629 222.54605 
L 133.956937 239.894794 
L 133.971824 -1 
M 134.167321 -1 
L 134.276899 81.582841 
L 134.703514 206.236614 
L 134.810168 216.007086 
L 134.916822 205.718891 
L 135.343438 19.16296 
L 135.556746 187.686175 
L 135.6634 121.265757 
L 135.715169 -1 
M 136.025644 -1 
L 136.196669 195.852196 
L 136.259841 -1 
M 136.506334 -1 
L 136.623285 174.645861 
L 136.729939 172.108111 
L 136.836593 104.949013 
L 136.943247 214.98646 
L 137.049901 214.951483 
L 137.156555 214.900386 
L 137.369862 259.650125 
L 137.476516 215.517141 
L 137.58317 215.543981 
L 137.689824 215.584226 
L 137.797387 -1 
M 138.079418 -1 
L 138.11644 99.252895 
L 138.187809 -1 
M 138.324789 -1 
L 138.329748 1.416987 
L 138.330485 -1 
M 139.31839 -1 
L 139.502941 216.015743 
L 139.609595 226.431267 
L 140.142864 172.94988 
L 140.157476 -1 
M 140.454325 -1 
L 140.56948 146.394786 
L 140.676134 251.420813 
L 140.782788 244.453529 
L 140.889442 222.067691 
L 140.996096 167.78129 
L 141.10275 181.88141 
L 141.316058 242.292092 
L 141.422711 243.589798 
L 141.529365 149.126885 
L 141.539537 -1 
M 141.737375 -1 
L 141.849327 115.605527 
L 142.169289 205.609628 
L 142.275943 215.520103 
L 142.382597 207.898614 
L 142.702559 61.740498 
L 142.915866 198.963641 
L 143.02252 154.616864 
L 143.110341 -1 
M 143.433483 -1 
L 143.55579 189.947571 
L 143.684538 -1 
M 143.945868 -1 
L 143.982406 177.733702 
L 144.08906 174.521036 
L 144.195714 171.855142 
L 144.302367 82.146371 
L 144.515675 215.004636 
L 144.622329 211.509812 
L 144.835637 267.327161 
L 144.942291 215.428415 
L 145.048945 215.442887 
L 145.155599 215.501503 
L 145.368907 215.938825 
L 145.387234 -1 
M 145.640381 -1 
L 145.688868 179.53117 
L 145.774381 -1 
M 145.874427 -1 
L 145.902176 14.696978 
L 145.907533 -1 
M 146.841503 -1 
L 147.182023 214.904986 
L 147.501985 182.593681 
L 147.514053 -1 
M 147.814653 -1 
L 147.928601 126.70883 
L 148.035255 156.665535 
L 148.248563 247.57259 
L 148.355217 229.407826 
L 148.46187 134.599033 
L 148.568524 138.719132 
L 148.781832 245.551165 
L 148.888486 245.996871 
L 149.110136 -1 
M 149.303487 -1 
L 149.315102 176.771086 
L 149.421756 168.628431 
L 149.635064 205.847995 
L 149.741718 215.884975 
L 149.848371 196.613204 
L 150.061679 232.132643 
L 150.381641 195.622312 
L 150.416683 -1 
M 150.848238 -1 
L 150.914911 180.817799 
L 151.021565 151.564828 
L 151.063801 -1 
M 151.316986 -1 
L 151.44818 176.684764 
L 151.554834 173.959604 
L 151.661488 66.475673 
L 151.768142 214.947545 
L 151.874796 214.586657 
L 151.98145 214.697017 
L 152.088104 211.624655 
L 152.301412 273.758684 
L 152.51472 215.65891 
L 152.621374 215.722692 
L 152.941335 216.559355 
L 152.959561 -1 
M 153.138969 -1 
L 153.261297 184.880959 
L 153.367951 173.224867 
L 153.446394 -1 
M 153.681649 -1 
L 153.687913 16.767179 
L 153.694736 -1 
M 154.316422 -1 
L 154.754452 203.576339 
L 154.96776 181.903075 
L 154.979955 -1 
M 155.17524 -1 
L 155.287722 103.215077 
L 155.714337 185.899166 
L 155.820991 243.098137 
L 155.927645 106.53526 
L 156.034299 127.470156 
L 156.140953 228.841278 
L 156.354261 163.036633 
L 156.674223 97.939605 
L 156.681146 -1 
M 156.875246 -1 
L 156.994184 194.206885 
L 157.4208 234.245087 
L 157.527454 232.809159 
L 157.740762 208.905791 
L 157.868185 -1 
M 158.219152 -1 
L 158.274032 128.88754 
L 158.333106 -1 
M 158.697831 -1 
L 158.807301 181.426254 
L 158.913955 62.942443 
L 159.020609 215.814673 
L 159.127263 215.439559 
L 159.233917 215.35059 
L 159.340571 214.866161 
L 159.447225 215.001998 
L 159.553879 214.266155 
L 159.767186 278.494291 
L 159.980494 215.925873 
L 160.087148 215.856295 
L 160.300456 216.517377 
L 160.40711 216.6222 
L 160.513764 217.364131 
L 160.531911 -1 
M 160.711199 -1 
L 160.833726 189.339405 
L 160.94038 192.208111 
L 161.016612 -1 
M 161.225528 -1 
L 161.260341 119.496908 
L 161.299405 -1 
M 161.64028 -1 
L 161.686957 79.980757 
L 161.793611 0.976295 
L 162.220227 204.275783 
L 162.326881 193.588568 
L 162.339973 -1 
M 162.53581 -1 
L 162.646842 80.296528 
L 163.180112 184.45514 
L 163.500074 63.141602 
L 163.713382 183.343007 
L 164.246651 74.983905 
L 164.252159 -1 
M 164.446955 -1 
L 164.566613 202.611066 
L 164.993229 233.380369 
L 165.099883 221.088829 
L 165.235745 -1 
M 165.583831 -1 
L 165.739806 183.280839 
L 165.79786 -1 
M 166.087593 -1 
L 166.166422 186.169446 
L 166.273076 43.537171 
L 166.37973 216.580002 
L 166.486384 215.975607 
L 166.593038 215.794165 
L 166.806345 215.090865 
L 166.912999 213.044481 
L 167.019653 222.922156 
L 167.232961 278.505501 
L 167.446269 216.168396 
L 167.659577 216.274845 
L 168.086193 218.07092 
L 168.104284 -1 
M 168.283342 -1 
L 168.406154 193.706266 
L 168.512808 198.162894 
L 168.619611 -1 
M 168.794251 -1 
L 168.83277 119.109795 
L 168.879385 -1 
M 169.244417 -1 
L 169.259386 6.801976 
L 169.36604 140.073503 
L 169.472694 122.628536 
L 169.686001 203.456296 
L 169.699924 -1 
M 169.894739 -1 
L 169.899309 59.969224 
L 170.005963 57.872738 
L 170.645887 188.048151 
L 170.752541 181.774743 
L 170.842944 -1 
M 170.978988 -1 
L 171.179156 181.884058 
L 171.712426 74.161072 
L 171.81908 52.457211 
L 171.925734 107.639142 
L 171.934041 -1 
M 172.123989 -1 
L 172.245696 220.509513 
L 172.35235 230.662089 
L 172.672311 10.700611 
L 172.706665 -1 
M 172.946809 -1 
L 173.098927 179.276292 
L 173.158374 -1 
M 173.459198 -1 
L 173.632197 217.513596 
L 173.738851 217.270631 
L 173.952158 216.383951 
L 174.27212 215.331135 
L 174.378774 215.456962 
L 174.485428 233.484107 
L 174.698736 278.487482 
L 174.80539 13.475535 
L 175.018698 214.385961 
L 175.232005 214.915768 
L 175.551967 216.504739 
L 175.658621 217.098281 
L 175.676552 -1 
M 175.855493 -1 
L 175.978583 198.678047 
L 176.085237 204.267412 
L 176.191891 123.249134 
L 176.236262 -1 
M 176.385171 -1 
L 176.405199 39.321466 
L 176.475603 -1 
M 176.709302 -1 
L 176.938468 119.911812 
L 176.9536 -1 
M 177.257364 -1 
L 177.365084 63.544865 
L 177.471738 57.244529 
L 178.111661 187.234221 
L 178.218315 181.821181 
L 178.272134 -1 
M 178.486054 -1 
L 178.644931 182.020152 
L 179.391509 34.876528 
L 179.530094 -1 
M 179.802833 -1 
L 179.818124 124.372571 
L 180.17311 -1 
M 180.281983 -1 
L 180.458048 153.680436 
L 180.511619 -1 
M 180.814862 -1 
L 180.991317 219.170281 
L 181.311279 216.777236 
L 181.631241 215.76931 
L 181.844549 215.540635 
L 181.951203 37.90775 
L 182.164511 278.173714 
L 182.20222 -1 
M 182.346177 -1 
L 182.484472 215.105346 
L 182.591126 214.578441 
L 182.804434 215.580828 
L 182.911088 214.900031 
L 183.23105 218.332525 
L 183.337704 219.673856 
L 183.355393 -1 
M 183.534351 -1 
L 183.657665 210.343658 
L 183.764319 218.293492 
L 183.839828 -1 
M 184.028745 -1 
L 184.084281 127.262718 
L 184.190935 5.910575 
L 184.297589 69.254291 
L 184.303111 -1 
M 184.687438 -1 
L 184.830859 36.579833 
L 184.937513 131.766471 
L 185.044167 75.299121 
L 185.577436 184.553703 
L 185.68409 183.138188 
L 185.729703 -1 
M 185.958642 -1 
L 186.110706 181.225041 
L 186.643975 71.824199 
L 186.750629 154.190502 
L 186.979413 -1 
M 187.349183 -1 
L 187.390553 33.317919 
L 187.394944 -1 
M 187.602451 -1 
L 187.710515 110.456088 
L 187.817169 170.523276 
L 187.8811 -1 
M 188.117055 -1 
L 188.243784 219.15224 
L 188.6704 215.70074 
L 188.990362 214.163626 
L 189.310323 213.691049 
L 189.340785 -1 
M 189.496698 -1 
L 189.630285 180.860573 
L 189.736939 238.408637 
L 189.843593 213.871729 
L 189.950247 150.736685 
L 190.163555 215.451589 
L 190.270209 216.803942 
L 190.376863 215.471881 
L 190.590171 219.377388 
L 190.696824 219.76253 
L 191.336748 226.419403 
L 191.550056 229.146754 
L 191.64582 -1 
M 192.159079 -1 
L 192.296633 28.860411 
L 192.403287 123.069001 
L 192.509941 74.191037 
L 193.043211 183.688481 
L 193.149865 182.670666 
L 193.194408 -1 
M 193.426725 -1 
L 193.469827 179.093506 
L 193.57648 177.843806 
L 194.424447 -1 
M 194.680575 -1 
L 194.749674 72.343039 
L 194.831914 -1 
M 194.88021 -1 
L 195.069635 228.564287 
L 195.176289 226.682412 
L 195.709559 219.513567 
L 195.816213 219.316309 
L 195.922867 217.561971 
L 196.029521 192.799229 
L 196.136175 215.441299 
L 196.242829 214.811824 
L 196.349482 214.318747 
L 196.456136 215.273137 
L 196.56279 212.484441 
L 196.776098 213.126014 
L 196.882752 250.231024 
L 196.989406 221.699318 
L 197.09606 228.997029 
L 197.202714 70.314695 
L 197.416022 215.559393 
L 197.62933 217.28773 
L 197.735983 217.252776 
L 197.842637 217.547544 
L 198.482561 222.885254 
L 198.589215 223.190452 
L 199.015831 229.849738 
L 199.122485 229.714958 
L 199.223315 -1 
M 199.254675 -1 
L 199.335792 41.327016 
L 199.377647 -1 
M 199.632263 -1 
L 199.869062 55.187872 
L 199.975716 142.42381 
L 200.08237 94.487653 
L 200.508986 181.715027 
L 200.615639 178.840257 
L 200.664774 -1 
M 200.888277 -1 
L 200.935601 178.720785 
L 201.042255 175.754604 
L 201.878059 -1 
M 202.226199 -1 
L 202.428756 230.280057 
L 202.53541 228.323682 
L 202.962026 222.245021 
L 203.06868 222.058268 
L 203.388641 217.657577 
L 203.495295 218.218839 
L 203.601949 215.29316 
L 203.708603 217.128202 
L 203.815257 215.604679 
L 203.921911 216.233431 
L 204.028565 153.202153 
L 204.135219 211.876397 
L 204.241873 210.571172 
L 204.348527 195.016926 
L 204.561835 272.701902 
L 204.668489 259.303282 
L 204.775142 163.796541 
L 204.881796 213.345973 
L 204.98845 182.618777 
L 205.201758 217.123908 
L 206.05499 224.45549 
L 206.268297 226.958613 
L 206.289034 -1 
M 207.009517 -1 
L 207.228183 37.623459 
L 207.334837 85.510351 
L 207.381643 -1 
M 207.573809 -1 
L 207.654798 211.516466 
L 207.69304 -1 
M 207.827715 -1 
L 207.97476 249.76727 
L 208.081414 261.923814 
L 208.188068 246.33581 
L 208.294722 210.916296 
L 208.401376 261.075072 
L 208.827992 227.590369 
L 208.934646 220.548851 
L 209.041299 224.717199 
L 209.254607 30.259007 
L 209.432207 -1 
M 209.595313 -1 
L 209.681223 96.906503 
L 209.751365 -1 
M 210.116469 -1 
L 210.214493 222.861767 
L 210.321147 214.852632 
L 210.4278 198.51827 
L 210.534454 217.261815 
L 210.96107 213.595129 
L 211.281032 212.239932 
L 211.49434 211.88111 
L 211.600994 211.871762 
L 211.707648 215.468854 
L 211.920955 278.477828 
L 212.027609 278.038053 
L 212.134263 258.156878 
L 212.347571 211.644337 
L 212.454225 211.666513 
L 212.667533 212.072379 
L 212.987495 213.526321 
L 213.200803 214.906741 
L 213.41411 217.200604 
L 213.520764 190.848985 
L 213.627418 208.398531 
L 213.734072 188.001433 
L 213.805686 -1 
M 214.517763 -1 
L 214.693957 30.200168 
L 214.749448 -1 
M 215.154292 -1 
L 215.227227 130.151944 
L 215.333881 17.237411 
L 215.547189 124.03147 
L 215.606505 -1 
M 215.80021 -1 
L 215.867151 157.392475 
L 215.901354 -1 
M 216.035357 -1 
L 216.080458 244.839259 
L 216.187112 167.685843 
L 216.269359 -1 
M 216.690079 -1 
L 216.720382 35.530384 
L 216.924026 -1 
M 217.192508 -1 
L 217.253652 47.21952 
L 217.300673 -1 
M 217.619835 -1 
L 217.786921 211.562527 
L 217.893575 192.059849 
L 218.000229 217.565446 
L 218.426845 213.85061 
L 218.85346 212.157683 
L 218.960114 212.002821 
L 219.066768 210.49172 
L 219.38673 278.489045 
L 219.493384 277.117679 
L 219.600038 271.459894 
L 219.813346 209.244196 
L 220.026654 209.217181 
L 220.239962 209.603035 
L 220.559923 210.985985 
L 220.666577 206.473051 
L 220.773231 180.942554 
L 220.879885 190.90488 
L 220.937348 -1 
M 222.061177 -1 
L 222.266386 207.773544 
L 222.37304 145.901851 
L 222.417416 -1 
M 222.567961 -1 
L 222.693002 189.8641 
L 223.439579 263.608627 
L 223.652887 227.662677 
L 223.759541 52.013226 
L 223.866195 195.884073 
L 223.972849 181.325854 
L 224.11141 -1 
M 225.590265 -1 
L 225.679312 218.419361 
L 225.785966 203.473995 
L 225.892619 213.668494 
L 226.105927 212.145672 
L 226.178112 -1 
M 226.245629 -1 
L 226.425889 227.041194 
L 226.852505 231.563539 
L 226.959159 231.427612 
L 227.172467 272.816245 
L 227.492428 208.17264 
L 227.705736 208.358494 
L 227.919044 159.216451 
L 228.025698 162.618416 
L 228.132352 164.811565 
L 228.156769 -1 
M 228.966874 -1 
L 229.092237 65.927203 
L 229.732161 220.974769 
L 230.26543 167.987107 
L 230.372084 40.921343 
L 230.478738 165.475478 
L 230.585392 122.875117 
L 230.692046 230.10368 
L 230.7987 67.242419 
L 230.905354 261.914998 
L 231.012008 261.069001 
L 231.545277 182.002167 
L 232.078547 119.375118 
L 232.102243 -1 
M 233.310251 -1 
L 233.465048 206.134818 
L 233.678356 219.85317 
L 234.104972 223.79538 
L 234.638241 230.565112 
L 234.744895 230.594676 
L 234.851549 234.211496 
L 234.958203 259.254002 
L 235.171511 210.297189 
L 235.384819 159.846174 
L 235.598127 165.3947 
L 235.704781 181.353249 
L 235.734599 -1 
M 236.548046 -1 
L 236.664666 71.469635 
L 237.197935 217.482349 
L 237.304589 215.280943 
L 237.411243 150.542435 
L 237.517897 193.497536 
L 237.837859 160.152497 
L 237.918809 -1 
M 237.973095 -1 
L 238.051167 138.775792 
L 238.157821 39.184582 
L 238.371129 258.159577 
L 238.477783 57.981166 
L 238.584436 260.257988 
L 239.437668 129.198877 
L 239.462806 -1 
M 240.455226 -1 
L 240.504207 123.793933 
L 240.553367 -1 
M 240.745678 -1 
L 240.824169 205.530399 
L 240.930823 188.112111 
L 241.144131 218.611602 
L 241.570746 222.461856 
L 241.997362 227.562301 
L 242.21067 226.952592 
L 242.423978 259.803594 
L 242.530632 203.465882 
L 242.637286 204.756142 
L 242.74394 204.938042 
L 242.957247 79.400058 
L 243.170555 167.134992 
L 243.277209 121.718961 
L 243.326426 -1 
M 244.223232 -1 
L 244.343748 118.928677 
L 244.450402 32.369879 
L 244.557056 177.831395 
L 244.66371 28.541841 
L 244.770364 207.206825 
L 245.090326 175.809452 
L 245.19698 9.246059 
L 245.410288 185.235366 
L 245.943557 257.605644 
L 246.050211 258.456887 
L 246.903443 121.824997 
L 246.93811 -1 
M 248.133046 -1 
L 248.289944 171.334651 
L 248.396598 183.253256 
L 248.609905 216.145993 
L 249.036521 220.338845 
L 249.056969 -1 
M 249.229224 -1 
L 249.249829 222.451416 
L 249.356483 222.317811 
L 249.463137 222.105157 
L 249.569791 239.479296 
L 249.783099 204.96392 
L 249.838357 -1 
M 250.064774 -1 
L 250.10306 261.490193 
L 250.316368 198.524007 
L 250.529676 199.07541 
L 250.63633 162.463173 
L 250.742984 178.582429 
L 250.867443 -1 
M 251.879855 -1 
L 251.916177 171.45977 
L 252.022831 7.079894 
L 252.236139 108.720026 
L 252.876062 186.100692 
L 252.982716 201.532107 
L 253.196024 254.52184 
L 253.302678 255.448553 
L 253.409332 248.0153 
L 254.049256 130.390216 
L 254.155909 137.662356 
L 254.475871 104.787153 
L 254.582525 90.224599 
L 254.60097 -1 
M 255.67159 -1 
L 255.755718 200.890098 
L 255.862372 151.715073 
L 256.07568 197.089474 
L 256.170007 -1 
M 256.191451 -1 
L 256.288988 275.958842 
L 256.502296 217.202406 
L 256.528794 -1 
M 256.977428 -1 
L 257.035565 243.894092 
L 257.142219 241.7596 
L 257.170244 -1 
M 257.329446 -1 
L 257.462181 268.866906 
L 257.566932 -1 
M 257.570865 -1 
L 257.675489 251.69057 
L 257.995451 97.430749 
L 258.102105 133.725738 
L 258.137228 -1 
M 259.151269 -1 
L 259.275298 72.63319 
L 259.915221 143.362169 
L 260.128529 173.441721 
L 260.341837 220.984058 
L 260.448491 167.438048 
L 260.555145 253.993564 
L 260.661799 252.979736 
L 260.875107 225.709842 
L 260.981761 240.342789 
L 261.195068 172.048698 
L 262.0483 70.196644 
L 262.154954 99.54682 
L 262.167936 -1 
M 263.109151 -1 
L 263.221493 175.736118 
L 263.328147 135.392065 
L 263.648109 268.655542 
L 263.754763 273.768809 
L 263.861417 272.418558 
L 263.884112 -1 
M 264.226892 -1 
L 264.288032 202.012002 
L 264.404522 -1 
M 264.599666 -1 
L 264.714648 268.830189 
L 265.03461 248.252583 
L 265.247918 94.039709 
L 265.354571 176.047456 
L 265.37178 -1 
M 266.384299 -1 
L 266.527765 54.989005 
L 267.167688 123.82753 
L 267.380996 183.326411 
L 267.914266 237.149184 
L 268.02092 137.775024 
L 268.127574 246.661866 
L 268.554189 202.587593 
L 268.637175 -1 
M 268.686621 -1 
L 268.874151 194.887853 
L 269.087459 106.204608 
L 269.727382 41.953391 
L 269.734422 -1 
M 270.662856 -1 
L 270.687268 88.981816 
L 270.793922 6.57227 
L 271.007229 268.685079 
L 271.113883 272.553228 
L 271.220537 264.727432 
L 271.242044 -1 
M 271.414197 -1 
L 271.540499 237.756972 
L 271.633999 -1 
M 271.66024 -1 
L 271.753807 239.14895 
L 271.782052 -1 
M 271.939069 -1 
L 271.967115 236.849091 
L 272.045935 -1 
M 272.099317 -1 
L 272.287077 272.932003 
L 272.500384 265.328115 
L 272.756988 -1 
M 273.751793 -1 
L 273.886885 50.23799 
L 273.993539 59.898245 
L 274.063019 -1 
M 274.129926 -1 
L 274.313501 94.497134 
L 274.420155 106.226273 
L 274.740117 181.382847 
L 275.273386 235.356322 
L 275.38004 150.652654 
L 275.486694 247.693335 
L 276.233272 174.258355 
L 276.339926 185.416338 
L 276.553234 96.641635 
L 277.086503 43.78354 
L 277.193157 76.026994 
L 277.221863 -1 
M 278.135241 -1 
L 278.153042 191.687421 
L 278.259696 44.905025 
L 278.473004 258.377155 
L 278.686312 272.47592 
L 278.710389 -1 
M 278.878017 -1 
L 278.89962 237.226756 
L 278.943296 -1 
M 279.151759 -1 
L 279.219582 226.858192 
L 279.326236 225.375329 
L 279.432889 149.284228 
L 279.646197 273.464198 
L 279.966159 252.940924 
L 280.072813 227.302876 
L 280.286121 156.154474 
L 280.305227 -1 
M 280.923842 -1 
L 280.926044 3.451545 
L 280.928453 -1 
M 281.295822 -1 
L 281.459314 117.354641 
L 281.672622 132.79521 
L 281.687633 -1 
M 281.87517 -1 
L 281.992584 103.794267 
L 282.205892 140.107867 
L 282.237603 -1 
M 282.391224 -1 
L 282.419199 117.570046 
L 282.43276 -1 
M 282.608797 -1 
L 282.739161 248.048006 
L 282.845815 256.254683 
L 282.952469 183.127037 
L 283.059123 234.322713 
L 284.125662 132.694833 
L 284.445624 110.940152 
L 284.559961 -1 
M 285.498556 -1 
L 285.512163 144.311474 
L 285.618817 31.9676 
L 285.832125 254.4986 
L 285.938779 261.552792 
L 286.045433 209.330854 
L 286.258741 236.92947 
L 286.578702 240.514372 
L 286.685356 12.096733 
L 286.79201 225.430075 
L 286.898664 199.37586 
L 287.111972 272.893887 
L 287.218626 269.827327 
L 287.538588 249.41096 
L 287.645242 196.657329 
L 287.751896 61.69006 
L 287.858549 209.023442 
L 287.899463 -1 
M 288.277944 -1 
L 288.285165 52.826576 
L 288.307405 -1 
M 288.586425 -1 
L 288.605127 41.040576 
L 288.625033 -1 
M 288.987567 -1 
L 289.138397 125.067544 
L 289.565012 171.092005 
L 290.204936 256.379146 
L 290.223124 -1 
M 290.40167 -1 
L 290.524898 235.335524 
L 290.844859 204.714961 
L 290.951513 3.595406 
L 291.164821 177.223056 
L 291.271475 189.114561 
L 291.313998 -1 
M 292.498262 -1 
L 292.657976 191.169863 
L 292.76463 188.616624 
L 292.800393 -1 
M 292.952713 -1 
L 292.977938 115.432146 
L 292.998046 -1 
M 293.267924 -1 
L 293.404554 233.45636 
L 293.831169 239.052905 
L 293.937823 208.256567 
L 293.961723 -1 
M 294.135557 -1 
L 294.257785 227.575806 
L 294.364439 225.838199 
L 294.408373 -1 
M 294.6549 -1 
L 294.791055 271.652436 
L 295.004362 261.636519 
L 295.21767 125.882092 
L 295.430978 124.060227 
L 295.537632 123.981615 
L 295.644286 124.537316 
L 295.75094 191.117534 
L 295.835954 -1 
M 296.564306 -1 
L 296.604171 47.706335 
L 296.669119 -1 
M 296.816124 -1 
L 296.924133 33.496449 
L 296.929169 -1 
M 297.229637 -1 
L 297.244095 222.582473 
L 297.258397 -1 
M 297.447471 -1 
L 297.457403 147.233502 
L 297.564057 141.588658 
L 297.670711 175.985346 
L 297.688119 -1 
M 297.866098 -1 
L 297.990672 187.197357 
L 298.523942 219.734858 
L 298.73725 196.622601 
L 299.270519 130.180358 
L 299.377173 84.545278 
L 299.413865 -1 
M 300.316988 -1 
L 300.337059 170.331808 
L 300.443713 163.637278 
L 300.471727 -1 
M 300.74468 -1 
L 300.870328 219.458049 
L 300.889324 -1 
M 301.270105 -1 
L 301.296944 163.312041 
L 301.403598 159.366442 
L 301.418909 -1 
M 301.810773 -1 
L 301.830214 222.908606 
L 301.849749 -1 
M 302.316918 -1 
L 302.363483 240.441547 
L 302.384083 -1 
M 302.595307 -1 
L 302.683445 196.545256 
L 302.790099 181.6964 
L 302.810123 -1 
M 303.19416 -1 
L 303.216715 47.223708 
L 303.22517 -1 
M 303.611282 -1 
L 303.749984 113.385261 
L 303.856638 13.202392 
L 303.963292 43.584093 
L 304.1766 161.01432 
L 304.283254 152.439954 
L 304.816523 202.876348 
L 304.923177 216.992262 
L 305.029831 212.93689 
L 305.136485 214.246248 
L 305.150061 -1 
M 305.443747 -1 
L 305.456447 70.97505 
L 305.563101 34.171764 
L 305.776409 110.552711 
L 305.784042 -1 
M 305.977273 -1 
L 306.096371 200.619034 
L 306.203024 123.313692 
L 306.212688 -1 
M 306.400282 -1 
L 306.416332 220.020921 
L 306.522986 212.44328 
L 306.736294 199.241858 
L 306.750594 -1 
M 306.936298 -1 
L 306.949602 183.303274 
L 307.056256 177.422248 
L 307.16291 172.166365 
L 307.176351 -1 
M 307.372749 -1 
L 307.376218 39.372252 
L 307.482872 32.786444 
L 307.589525 176.746235 
L 307.696179 142.015145 
L 307.912111 -1 
M 308.112245 -1 
L 308.122795 82.429786 
L 308.229449 78.207729 
L 308.336103 74.593723 
L 308.347104 -1 
M 308.521777 -1 
L 308.549411 228.850593 
L 308.656065 201.836162 
L 308.762719 231.029726 
L 308.869373 230.695357 
L 308.891968 -1 
M 309.069514 -1 
L 309.08268 120.386045 
L 309.189334 13.088426 
L 309.295988 139.057155 
L 309.316741 -1 
M 309.611343 -1 
L 309.722604 96.332246 
L 309.829258 55.021192 
L 310.14922 63.158396 
L 310.255874 119.598968 
L 310.362528 96.123874 
L 310.373125 -1 
M 310.663785 -1 
L 310.789143 224.825699 
L 310.895797 224.441342 
L 311.215759 218.584169 
L 311.322413 146.820848 
L 311.429067 211.912157 
L 311.444026 -1 
M 311.628793 -1 
L 311.642375 189.44248 
L 311.655617 -1 
M 312.055286 -1 
L 312.06899 101.527966 
L 312.175644 85.58817 
L 312.183719 -1 
M 312.48673 -1 
L 312.60226 243.633531 
L 312.617979 -1 
M 312.901147 -1 
L 312.922222 139.066719 
L 313.028876 121.678797 
L 313.13553 248.087466 
L 313.242183 243.82854 
L 313.348837 239.970111 
L 313.364703 -1 
M 313.546846 -1 
L 313.562145 229.931029 
L 313.668799 226.322758 
L 313.775453 222.964494 
L 313.791369 -1 
M 314.165222 -1 
L 314.308723 142.194531 
L 314.522031 63.656377 
L 314.628684 157.063958 
L 314.704307 -1 
M 314.947779 -1 
L 315.0553 60.909593 
L 315.161954 46.862861 
L 315.235297 -1 
M 315.463493 -1 
L 315.481916 205.27634 
L 315.500624 -1 
M 316.39803 -1 
L 316.548455 154.951905 
L 316.654577 -1 
M 316.655946 -1 
L 316.761763 97.857685 
L 316.771678 -1 
M 317.471362 -1 
L 317.50834 181.521322 
L 317.627725 -1 
M 318.664722 -1 
L 318.681534 211.729202 
L 318.697628 -1 
M 318.878237 -1 
L 318.894841 219.719519 
L 318.974822 -1 
M 319.212434 -1 
L 319.214803 25.004559 
L 319.246959 -1 
M 319.473811 -1 
L 319.641419 138.395913 
L 319.663355 -1 
M 320.363833 -1 
L 320.387996 158.62519 
L 320.49465 108.538297 
L 320.601304 221.24296 
L 320.616312 -1 
M 320.799766 -1 
L 320.814612 218.461603 
L 320.921266 217.666842 
L 320.936395 -1 
M 321.238677 -1 
L 321.241228 30.064828 
L 321.347882 1.550969 
L 321.370843 -1 
M 321.46913 -1 
L 321.667843 75.944448 
L 321.774497 54.601361 
L 321.808809 -1 
M 321.933316 -1 
L 322.094459 123.29748 
L 322.627729 142.121369 
L 322.649846 -1 
M 323.137636 -1 
L 323.160998 155.54615 
L 323.188639 -1 
M 323.730404 -1 
L 323.800922 266.019387 
L 323.907576 264.178785 
L 323.954994 -1 
M 324.630466 -1 
L 324.760807 272.841656 
L 324.867461 221.483262 
L 324.897215 -1 
M 325.487695 -1 
L 325.614039 160.277098 
L 325.827347 204.015146 
L 325.934 192.707773 
L 326.040654 201.586351 
L 326.253962 235.669949 
L 326.360616 224.33657 
L 326.680578 87.688192 
L 326.787232 183.025092 
L 326.893886 172.951488 
L 327.107194 141.093739 
L 327.13624 -1 
M 328.157757 -1 
L 328.173733 254.167682 
L 328.280387 251.401295 
L 328.322782 -1 
M 328.453319 -1 
L 328.493695 232.049044 
L 328.557634 -1 
M 328.645375 -1 
L 328.707002 212.092498 
L 328.813656 147.067573 
L 328.92031 247.371777 
L 329.026964 246.274114 
L 329.133618 241.457614 
L 329.240272 210.780861 
L 329.264761 -1 
M 329.446017 -1 
L 329.45358 53.232498 
L 329.468445 -1 
M 329.706501 -1 
L 329.773542 223.796637 
L 329.880196 220.958078 
L 330.200157 211.919303 
L 330.306811 121.50573 
L 330.318292 -1 
M 330.70459 -1 
L 330.733427 260.844781 
L 330.767024 -1 
M 331.35643 -1 
L 331.480005 97.453124 
L 331.489616 -1 
M 332.191311 -1 
L 332.226582 261.303156 
L 332.253514 -1 
M 332.518577 -1 
L 332.653198 205.168557 
L 332.670892 -1 
M 332.848064 -1 
L 332.866506 215.692989 
L 332.918047 -1 
M 333.028061 -1 
L 333.186467 219.711015 
L 333.219785 -1 
M 333.44519 -1 
L 333.506429 233.851881 
L 333.613083 225.881607 
L 333.826391 243.163284 
L 333.841884 -1 
M 334.024009 -1 
L 334.146353 247.745046 
L 334.35966 249.65425 
L 334.466314 245.285498 
L 334.586015 -1 
M 335.97735 -1 
L 336.066123 241.124578 
L 336.386085 183.553274 
L 336.414278 -1 
M 337.020564 -1 
L 337.132663 203.225043 
L 337.559278 184.201326 
L 337.677184 -1 
M 339.04159 -1 
L 339.052433 42.256989 
L 339.057029 -1 
M 339.249441 -1 
L 339.265741 172.286105 
L 339.289329 -1 
M 340.542515 -1 
L 340.545588 13.654429 
L 340.548097 -1 
M 340.852399 -1 
L 340.86555 215.766875 
L 340.92069 -1 
M 341.0225 -1 
L 341.078858 225.913801 
L 341.091225 -1 
M 341.476989 -1 
L 341.505473 150.657014 
L 341.612127 128.570379 
L 341.695941 -1 
M 341.74385 -1 
L 341.825435 113.916689 
L 341.835522 -1 
M 344.162118 -1 
L 344.278475 248.999472 
L 344.385129 143.3776 
L 344.393557 -1 
M 344.591431 -1 
L 344.598437 117.323065 
L 344.739829 -1 
M 346.18728 -1 
L 346.198246 80.124567 
L 346.257305 -1 
M 347.674612 -1 
L 347.691401 180.502679 
L 347.722286 -1 
M 347.869115 -1 
L 347.904709 222.035354 
L 348.011363 146.960333 
L 348.118017 224.806384 
L 348.151129 -1 
M 348.29796 -1 
L 348.437978 228.416964 
L 348.544632 229.818132 
L 348.650705 -1 
M 348.651965 -1 
L 348.75794 196.484068 
L 348.973836 -1 
M 350.987568 -1 
L 350.997673 184.550974 
L 351.031458 -1 
M 351.19204 -1 
L 351.210981 85.41867 
L 351.215648 -1 
M 351.41365 -1 
L 351.530942 212.302914 
L 351.541469 -1 
M 351.73332 -1 
L 351.74425 221.417473 
L 351.755042 -1 
M 352.037598 -1 
L 352.064212 241.100348 
L 352.174897 -1 
M 354.082079 -1 
L 354.19729 231.276265 
L 354.213619 -1 
M 355.140233 -1 
L 355.157176 234.620692 
L 355.26383 157.254756 
L 355.370484 237.322656 
L 355.583791 144.566294 
L 355.690445 233.08403 
L 355.797099 225.954522 
L 355.903753 117.912479 
L 356.010407 209.26931 
L 356.200495 -1 
M 356.535421 -1 
L 356.650331 147.892532 
L 356.736934 -1 
M 356.939033 -1 
L 356.970292 115.326927 
L 356.992784 -1 
M 357.394202 -1 
L 357.396908 13.830711 
L 357.401184 -1 
M 358.644539 -1 
L 358.783409 142.360885 
L 358.890063 102.558203 
L 358.921191 -1 
M 359.078106 -1 
L 359.210025 87.205923 
L 359.316679 93.311015 
L 359.32735 -1 
M 359.606816 -1 
L 359.743294 114.465245 
L 359.811314 -1 
M 359.885584 -1 
L 359.956602 129.702443 
L 359.995569 -1 
M 360.203381 -1 
L 360.276564 156.90467 
L 360.383218 9.969847 
L 360.489872 118.310051 
L 360.70318 34.700991 
L 360.710307 -1 
M 360.898794 -1 
L 360.916488 98.155979 
L 361.029832 -1 
M 361.431595 -1 
L 361.449757 200.223862 
L 361.514773 -1 
M 361.597189 -1 
L 361.663065 207.183903 
L 361.769719 196.150458 
L 361.876373 59.64106 
L 362.089681 231.099806 
L 362.302989 231.671515 
L 362.409643 49.844683 
L 362.62295 234.890741 
L 362.729604 235.219822 
L 362.821839 -1 
M 362.850533 -1 
L 362.942912 237.990429 
L 363.049566 171.359792 
L 363.073961 -1 
M 363.251853 -1 
L 363.369528 114.107353 
L 363.385758 -1 
M 363.633314 -1 
L 363.68949 254.197192 
L 363.796144 167.986251 
L 363.854854 -1 
M 363.982664 -1 
L 364.009451 45.284657 
L 364.013814 -1 
M 364.253805 -1 
L 364.329413 151.700365 
L 364.436067 95.434382 
L 364.445936 -1 
M 364.636238 -1 
L 364.756029 153.861312 
L 364.862683 131.588602 
L 364.93726 -1 
M 365.279126 -1 
L 365.289299 153.92192 
L 365.313741 -1 
M 365.843652 -1 
L 366.035876 232.30964 
L 366.14253 114.241987 
L 366.249184 234.428888 
L 366.355838 200.196297 
L 366.462492 249.206423 
L 366.6758 203.025453 
L 366.779575 -1 
M 367.5469 -1 
L 367.742339 175.529415 
L 367.848993 189.279158 
L 367.891576 -1 
M 368.122406 -1 
L 368.168954 196.245103 
L 368.186716 -1 
M 368.378102 -1 
L 368.382262 39.071996 
L 368.488916 30.103511 
L 368.59557 33.059416 
L 368.703392 -1 
M 369.581639 -1 
L 369.662109 228.935992 
L 369.768763 131.656339 
L 369.789904 -1 
M 370.141986 -1 
L 370.302033 195.236311 
L 370.621995 218.211838 
L 371.04861 237.912268 
L 371.58188 247.764511 
L 371.688534 233.525168 
L 371.901842 178.18153 
L 371.92539 -1 
M 372.08689 -1 
L 372.11515 226.955156 
L 372.157668 -1 
M 372.622676 -1 
L 372.648419 182.834176 
L 372.703245 -1 
M 372.800374 -1 
L 372.861727 234.371099 
L 372.968381 230.461698 
L 373.394997 248.365953 
L 373.608305 194.844828 
L 373.714959 200.981311 
L 373.821612 181.559191 
L 374.03492 219.684996 
L 374.141574 218.136236 
L 374.311131 -1 
M 375.1816 -1 
L 375.208113 108.269599 
L 375.225986 -1 
M 375.393555 -1 
L 375.528075 254.678178 
L 375.634729 260.168357 
L 375.67497 -1 
M 375.821513 -1 
L 375.848037 141.673229 
L 375.87606 -1 
M 376.026901 -1 
L 376.061345 189.959372 
L 376.099667 -1 
M 376.378288 -1 
L 376.487961 132.928418 
L 376.701268 192.72593 
L 376.807922 201.65893 
L 376.914576 89.037613 
L 377.02123 169.020294 
L 377.123078 -1 
M 377.134449 -1 
L 377.341192 132.886465 
L 377.36442 -1 
M 377.712794 -1 
L 377.874462 209.179424 
L 377.981115 148.653078 
L 378.011422 -1 
M 378.155914 -1 
L 378.301077 219.412848 
L 378.407731 231.002385 
L 378.514385 229.661413 
L 378.621039 194.513488 
L 378.941001 246.601774 
L 379.047655 249.116692 
L 379.24243 -1 
M 379.274176 -1 
L 379.367617 218.404409 
L 379.38397 -1 
M 379.562653 -1 
L 379.580924 249.467621 
L 379.687578 247.295442 
L 379.900886 241.506396 
L 379.918315 -1 
M 380.111223 -1 
L 380.220848 183.307753 
L 380.327502 230.708266 
L 380.434156 218.893672 
L 380.54081 124.762737 
L 380.647464 218.60706 
L 380.860771 207.034504 
L 380.967425 252.921714 
L 381.074079 192.072137 
L 381.180733 215.105092 
L 381.248209 -1 
M 381.495311 -1 
L 381.607349 157.871778 
L 381.682415 -1 
M 382.005087 -1 
L 382.140619 139.590203 
L 382.247272 128.653627 
L 382.328063 -1 
M 382.757054 -1 
L 382.780542 38.225034 
L 382.789779 -1 
M 383.399031 -1 
L 383.52712 137.544551 
L 383.633773 93.906858 
L 383.649806 -1 
M 383.821837 -1 
L 383.847081 165.348796 
L 383.932865 -1 
M 384.317801 -1 
L 384.380351 75.869796 
L 384.433192 -1 
M 384.835915 -1 
L 385.020274 210.07975 
L 385.126928 246.376196 
L 385.340236 205.451945 
L 385.44689 206.595871 
L 385.518122 -1 
M 385.742185 -1 
L 385.873506 212.528664 
L 386.406776 236.606202 
L 386.513429 224.515997 
L 386.620083 234.272902 
L 386.726737 233.806037 
L 386.940045 231.437957 
L 386.971665 -1 
M 387.12898 -1 
L 387.153353 162.389878 
L 387.260007 158.879063 
L 387.366661 153.723824 
L 387.386743 -1 
M 387.578766 -1 
L 387.579969 6.607114 
L 387.59429 -1 
M 388.055166 -1 
L 388.113238 123.452852 
L 388.219892 89.073249 
L 388.326546 103.874999 
L 388.539854 92.946677 
L 388.646508 55.184216 
L 388.753162 58.021906 
L 388.82233 -1 
M 389.469724 -1 
L 389.606393 213.238964 
L 389.819701 184.644748 
L 389.926355 198.169459 
L 390.218315 -1 
M 390.2666 -1 
L 390.352971 200.049068 
L 390.459625 196.090172 
L 390.566279 190.737581 
L 390.592247 -1 
M 390.750581 -1 
L 390.779586 221.53241 
L 390.88624 202.410942 
L 391.099548 184.397341 
L 391.126264 -1 
M 391.286354 -1 
L 391.41951 196.464334 
L 391.526164 225.784083 
L 391.632818 167.610187 
L 391.661681 -1 
M 391.842415 -1 
L 391.846126 15.379311 
L 391.877876 -1 
M 391.982562 -1 
L 392.059433 98.732535 
L 392.124418 -1 
M 392.522154 -1 
L 392.699357 205.369089 
L 392.797386 -1 
M 393.089717 -1 
L 393.232627 240.491976 
L 393.339281 244.551509 
L 393.45172 -1 
M 393.635422 -1 
L 393.765896 243.943617 
L 393.87255 195.134524 
L 394.085858 214.150998 
L 394.192512 238.017815 
L 394.299166 176.87829 
L 394.321083 -1 
M 394.915246 -1 
L 395.045743 193.270675 
L 395.152397 190.185213 
L 395.259051 199.436542 
L 395.365705 192.055092 
L 395.472359 195.40167 
L 395.579013 27.998613 
L 395.685667 190.323944 
L 395.774383 -1 
M 396.915667 -1 
L 396.965514 147.941555 
L 396.992671 -1 
M 397.139374 -1 
L 397.178822 254.916299 
L 397.285476 251.385906 
L 397.39213 233.782265 
L 397.498784 193.096415 
L 397.535748 -1 
M 397.676482 -1 
L 397.712091 182.419086 
L 397.731929 -1 
M 398.112547 -1 
L 398.138707 190.148285 
L 398.245361 153.603151 
L 398.458669 259.641986 
L 398.565323 245.324636 
L 398.601544 -1 
M 398.952404 -1 
L 398.991939 244.725827 
L 399.035554 -1 
M 399.340155 -1 
L 399.418554 140.601493 
L 399.458634 -1 
M 399.674689 -1 
L 399.84517 99.033198 
L 399.884962 -1 
M 400.009686 -1 
L 400.165132 234.293218 
L 400.317999 -1 
M 400.410277 -1 
L 400.485094 202.3688 
L 400.557361 -1 
M 400.99771 -1 
L 401.018363 57.005078 
L 401.05138 -1 
M 401.194737 -1 
L 401.231671 67.532919 
L 401.276048 -1 
M 401.37193 -1 
L 401.551633 218.186677 
L 401.716158 -1 
M 401.792308 -1 
L 401.871595 255.580185 
L 402.02532 -1 
M 402.144727 -1 
L 402.191556 123.357285 
L 402.210678 -1 
" clip-path="url(#pf2b7413cda)" style="fill: none; stroke: #1f77b4; stroke-width: 1.5; stroke-linecap: square"/>
   </g>
   <g id="line2d_28">
    <path d="M 77.643665 177.199515 
L 78.496896 177.199579 
L 78.710204 232.238232 
L 79.030166 224.714185 
L 79.13682 231.696147 
L 79.883397 226.643618 
L 79.990051 226.646132 
L 80.203359 227.134535 
L 80.310013 240.514552 
L 80.416667 240.368647 
L 80.629975 238.592376 
L 80.843283 231.04257 
L 81.05659 202.958022 
L 81.269898 177.199537 
L 81.376552 236.034616 
L 81.483206 234.409108 
L 81.696514 182.987686 
L 81.909822 237.12496 
L 82.12313 252.480534 
L 82.336437 256.960617 
L 82.656399 255.980465 
L 82.869707 249.975345 
L 83.829592 218.692106 
L 84.256208 209.733178 
L 84.362862 240.981899 
L 84.469516 240.741668 
L 84.682824 177.199586 
L 84.896132 177.19952 
L 85.109439 250.198782 
L 86.709248 250.198783 
L 86.815902 251.241852 
L 87.02921 256.408715 
L 87.56248 259.610428 
L 87.669134 258.738927 
L 87.882442 250.37703 
L 87.989095 252.962516 
L 88.202403 250.1988 
L 92.361906 250.198781 
L 92.575214 250.399212 
L 96.521409 250.399206 
L 96.734717 266.732199 
L 96.841371 255.630389 
L 97.267987 260.729637 
L 97.374641 258.942157 
L 97.481295 260.086098 
L 97.587949 257.298696 
L 97.694603 257.731383 
L 97.90791 261.381613 
L 98.121218 256.09996 
L 98.334526 253.580033 
L 98.547834 252.121467 
L 98.654488 251.128923 
L 98.761142 251.571052 
L 98.867796 251.380499 
L 99.081104 250.399216 
L 99.827681 250.399212 
L 100.040989 256.02467 
L 105.160377 256.024692 
L 105.373685 261.553706 
L 105.586993 256.024684 
L 107.293456 256.024672 
L 107.506764 258.319289 
L 120.091927 258.257211 
L 120.198581 261.837174 
L 120.411888 258.257078 
L 122.225005 258.257064 
L 122.438313 259.126699 
L 129.69078 259.126699 
L 129.904088 259.683741 
L 137.156555 259.683741 
L 137.369862 259.481575 
L 144.622329 259.481575 
L 144.835637 260.052716 
L 152.088104 260.052716 
L 152.301412 260.250776 
L 159.553879 260.250776 
L 159.767186 260.097582 
L 167.019653 260.097582 
L 167.232961 259.849585 
L 174.485428 259.849585 
L 174.698736 259.712079 
L 196.882752 259.764383 
L 197.09606 259.906722 
L 204.348527 259.906722 
L 204.561835 260.198634 
L 211.814301 260.198634 
L 212.027609 259.871175 
L 219.280076 259.871175 
L 219.493384 260.59971 
L 234.211626 260.503836 
L 234.424933 258.699376 
L 241.6774 258.699376 
L 241.890708 257.314309 
L 249.143175 257.314308 
L 249.356483 256.105815 
L 256.60895 256.105815 
L 256.822258 255.302795 
L 264.074724 255.302795 
L 264.288032 255.418854 
L 286.472048 255.465949 
L 286.685356 255.263161 
L 293.937823 255.263161 
L 294.151131 256.009247 
L 301.403598 256.009247 
L 301.616906 257.390936 
L 308.869373 257.390936 
L 309.08268 255.805098 
L 316.335147 255.805098 
L 316.548455 256.126364 
L 323.800922 256.126365 
L 324.01423 254.547955 
L 331.266697 254.547955 
L 331.480005 253.616015 
L 338.732471 253.616015 
L 338.945779 252.009636 
L 346.198246 252.009636 
L 346.411554 250.313444 
L 353.664021 250.313443 
L 353.877329 246.041961 
L 361.129795 246.041961 
L 361.343103 256.699715 
L 376.061345 256.697691 
L 376.274653 262.917142 
L 383.52712 262.917143 
L 383.740427 260.062867 
L 390.992894 260.06285 
L 391.206202 253.965304 
L 398.458669 253.964901 
L 398.565323 223.237384 
L 398.671977 237.492013 
L 398.778631 205.894129 
L 398.991939 266.561819 
L 399.098592 242.471201 
L 399.205246 251.855902 
L 399.3119 240.993195 
L 399.418554 260.266379 
L 399.525208 213.751513 
L 399.631862 242.39714 
L 399.84517 203.484649 
L 399.951824 230.624878 
L 400.058478 203.947062 
L 400.165132 265.919859 
L 400.271786 252.026082 
L 400.37844 264.185479 
L 400.485094 263.678866 
L 400.591747 198.996712 
L 400.698401 238.835727 
L 400.805055 234.454323 
L 400.911709 212.762329 
L 401.018363 248.800094 
L 401.125017 228.542408 
L 401.231671 273.096013 
L 401.338325 248.494426 
L 401.658287 262.65326 
L 401.871595 195.802109 
L 402.29821 195.799663 
L 402.29821 195.799663 
" clip-path="url(#pf2b7413cda)" style="fill: none; stroke: #ff7f0e; stroke-width: 1.5; stroke-linecap: square"/>
   </g>
   <g id="patch_3">
    <path d="M 61.410938 279.010828 
L 61.410938 12.898828 
" style="fill: none; stroke: #000000; stroke-width: 0.8; stroke-linejoin: miter; stroke-linecap: square"/>
   </g>
   <g id="patch_4">
    <path d="M 418.530938 279.010828 
L 418.530938 12.898828 
" style="fill: none; stroke: #000000; stroke-width: 0.8; stroke-linejoin: miter; stroke-linecap: square"/>
   </g>
   <g id="patch_5">
    <path d="M 61.410938 279.010828 
L 418.530938 279.010828 
" style="fill: none; stroke: #000000; stroke-width: 0.8; stroke-linejoin: miter; stroke-linecap: square"/>
   </g>
   <g id="patch_6">
    <path d="M 61.410938 12.898828 
L 418.530938 12.898828 
" style="fill: none; stroke: #000000; stroke-width: 0.8; stroke-linejoin: miter; stroke-linecap: square"/>
   </g>
   <g id="legend_1">
    <g id="patch_7">
     <path d="M 172.91 35.576953 
L 307.031875 35.576953 
Q 309.031875 35.576953 309.031875 33.576953 
L 309.031875 19.898828 
Q 309.031875 17.898828 307.031875 17.898828 
L 172.91 17.898828 
Q 170.91 17.898828 170.91 19.898828 
L 170.91 33.576953 
Q 170.91 35.576953 172.91 35.576953 
z
" style="fill: #ffffff; opacity: 0.8; stroke: #cccccc; stroke-linejoin: miter"/>
    </g>
    <g id="line2d_29">
     <path d="M 174.91 25.997266 
L 184.91 25.997266 
L 194.91 25.997266 
" style="fill: none; stroke: #1f77b4; stroke-width: 1.5; stroke-linecap: square"/>
    </g>
    <g id="text_16">
     <!-- local -->
     <g transform="translate(202.91 29.497266)scale(0.1 -0.1)">
      <defs>
       <path id="DejaVuSans-6c" d="M 603 4863 
L 1178 4863 
L 1178 0 
L 603 0 
L 603 4863 
z
" transform="scale(0.015625)"/>
       <path id="DejaVuSans-61" d="M 2194 1759 
Q 1497 1759 1228 1600 
Q 959 1441 959 1056 
Q 959 750 1161 570 
Q 1363 391 1709 391 
Q 2188 391 2477 730 
Q 2766 1069 2766 1631 
L 2766 1759 
L 2194 1759 
z
M 3341 1997 
L 3341 0 
L 2766 0 
L 2766 531 
Q 2569 213 2275 61 
Q 1981 -91 1556 -91 
Q 1019 -91 701 211 
Q 384 513 384 1019 
Q 384 1609 779 1909 
Q 1175 2209 1959 2209 
L 2766 2209 
L 2766 2266 
Q 2766 2663 2505 2880 
Q 2244 3097 1772 3097 
Q 1472 3097 1187 3025 
Q 903 2953 641 2809 
L 641 3341 
Q 956 3463 1253 3523 
Q 1550 3584 1831 3584 
Q 2591 3584 2966 3190 
Q 3341 2797 3341 1997 
z
" transform="scale(0.015625)"/>
      </defs>
      <use xlink:href="#DejaVuSans-6c"/>
      <use xlink:href="#DejaVuSans-6f" x="27.783203"/>
      <use xlink:href="#DejaVuSans-63" x="88.964844"/>
      <use xlink:href="#DejaVuSans-61" x="143.945312"/>
      <use xlink:href="#DejaVuSans-6c" x="205.224609"/>
     </g>
    </g>
    <g id="line2d_30">
     <path d="M 246.211563 25.997266 
L 256.211563 25.997266 
L 266.211563 25.997266 
" style="fill: none; stroke: #ff7f0e; stroke-width: 1.5; stroke-linecap: square"/>
    </g>
    <g id="text_17">
     <!-- blk 70 -->
     <g transform="translate(274.211563 29.497266)scale(0.1 -0.1)">
      <defs>
       <path id="DejaVuSans-62" d="M 3116 1747 
Q 3116 2381 2855 2742 
Q 2594 3103 2138 3103 
Q 1681 3103 1420 2742 
Q 1159 2381 1159 1747 
Q 1159 1113 1420 752 
Q 1681 391 2138 391 
Q 2594 391 2855 752 
Q 3116 1113 3116 1747 
z
M 1159 2969 
Q 1341 3281 1617 3432 
Q 1894 3584 2278 3584 
Q 2916 3584 3314 3078 
Q 3713 2572 3713 1747 
Q 3713 922 3314 415 
Q 2916 -91 2278 -91 
Q 1894 -91 1617 61 
Q 1341 213 1159 525 
L 1159 0 
L 581 0 
L 581 4863 
L 1159 4863 
L 1159 2969 
z
" transform="scale(0.015625)"/>
       <path id="DejaVuSans-6b" d="M 581 4863 
L 1159 4863 
L 1159 1991 
L 2875 3500 
L 3609 3500 
L 1753 1863 
L 3688 0 
L 2938 0 
L 1159 1709 
L 1159 0 
L 581 0 
L 581 4863 
z
" transform="scale(0.015625)"/>
       <path id="DejaVuSans-37" d="M 525 4666 
L 3525 4666 
L 3525 4397 
L 1831 0 
L 1172 0 
L 2766 4134 
L 525 4134 
L 525 4666 
z
" transform="scale(0.015625)"/>
      </defs>
      <use xlink:href="#DejaVuSans-62"/>
      <use xlink:href="#DejaVuSans-6c" x="63.476562"/>
      <use xlink:href="#DejaVuSans-6b" x="91.259766"/>
      <use xlink:href="#DejaVuSans-20" x="149.169922"/>
      <use xlink:href="#DejaVuSans-37" x="180.957031"/>
      <use xlink:href="#DejaVuSans-30" x="244.580078"/>
     </g>
    </g>
   </g>
  </g>
 </g>
 <defs>
  <clipPath id="pf2b7413cda">
   <rect x="61.410938" y="12.898828" width="357.12" height="266.112"/>
  </clipPath>
 </defs>
</svg>
