<?xml version="1.0" encoding="utf-8" standalone="no"?>
<!DOCTYPE svg PUBLIC "-//W3C//DTD SVG 1.1//EN"
  "http://www.w3.org/Graphics/SVG/1.1/DTD/svg11.dtd">
<svg xmlns:xlink="http://www.w3.org/1999/xlink" width="411.918437pt" height="325.385437pt" viewBox="0 0 411.918437 325.385437" xmlns="http://www.w3.org/2000/svg" version="1.1">
 <defs>
  <style type="text/css">*{stroke-linejoin: round; stroke-linecap: butt}</style>
 </defs>
 <g id="figure_1">
  <g id="patch_1">
   <path d="M 0 325.385437 
L 411.918437 325.385437 
L 411.918437 0 
L 0 0 
L 0 325.385437 
z
" style="fill: none"/>
  </g>
  <g id="axes_1">
   <g id="patch_2">
    <path d="M 47.598438 273.312 
L 404.718438 273.312 
L 404.718438 7.2 
L 47.598438 7.2 
L 47.598438 273.312 
z
" style="fill: none"/>
   </g>
   <g id="matplotlib.axis_1">
    <g id="xtick_1">
     <g id="line2d_1">
      <path d="M 68.629015 273.312 
L 68.629015 7.2 
" clip-path="url(#p24fead16c9)" style="fill: none; stroke: #b0b0b0; stroke-width: 0.8; stroke-linecap: square"/>
     </g>
     <g id="line2d_2">
      <defs>
       <path id="md39032bed2" d="M 0 0 
L 0 3.5 
" style="stroke: #000000; stroke-width: 0.8"/>
      </defs>
      <g>
       <use xlink:href="#md39032bed2" x="68.629015" y="273.312" style="stroke: #000000; stroke-width: 0.8"/>
      </g>
     </g>
     <g id="text_1">
      <!-- −3000 -->
      <g transform="translate(43.25675 291.709656)scale(0.15 -0.15)">
       <defs>
        <path id="DejaVuSans-2212" d="M 678 2272 
L 4684 2272 
L 4684 1741 
L 678 1741 
L 678 2272 
z
" transform="scale(0.015625)"/>
        <path id="DejaVuSans-33" d="M 2597 2516 
Q 3050 2419 3304 2112 
Q 3559 1806 3559 1356 
Q 3559 666 3084 287 
Q 2609 -91 1734 -91 
Q 1441 -91 1130 -33 
Q 819 25 488 141 
L 488 750 
Q 750 597 1062 519 
Q 1375 441 1716 441 
Q 2309 441 2620 675 
Q 2931 909 2931 1356 
Q 2931 1769 2642 2001 
Q 2353 2234 1838 2234 
L 1294 2234 
L 1294 2753 
L 1863 2753 
Q 2328 2753 2575 2939 
Q 2822 3125 2822 3475 
Q 2822 3834 2567 4026 
Q 2313 4219 1838 4219 
Q 1578 4219 1281 4162 
Q 984 4106 628 3988 
L 628 4550 
Q 988 4650 1302 4700 
Q 1616 4750 1894 4750 
Q 2613 4750 3031 4423 
Q 3450 4097 3450 3541 
Q 3450 3153 3228 2886 
Q 3006 2619 2597 2516 
z
" transform="scale(0.015625)"/>
        <path id="DejaVuSans-30" d="M 2034 4250 
Q 1547 4250 1301 3770 
Q 1056 3291 1056 2328 
Q 1056 1369 1301 889 
Q 1547 409 2034 409 
Q 2525 409 2770 889 
Q 3016 1369 3016 2328 
Q 3016 3291 2770 3770 
Q 2525 4250 2034 4250 
z
M 2034 4750 
Q 2819 4750 3233 4129 
Q 3647 3509 3647 2328 
Q 3647 1150 3233 529 
Q 2819 -91 2034 -91 
Q 1250 -91 836 529 
Q 422 1150 422 2328 
Q 422 3509 836 4129 
Q 1250 4750 2034 4750 
z
" transform="scale(0.015625)"/>
       </defs>
       <use xlink:href="#DejaVuSans-2212"/>
       <use xlink:href="#DejaVuSans-33" x="83.789062"/>
       <use xlink:href="#DejaVuSans-30" x="147.412109"/>
       <use xlink:href="#DejaVuSans-30" x="211.035156"/>
       <use xlink:href="#DejaVuSans-30" x="274.658203"/>
      </g>
     </g>
    </g>
    <g id="xtick_2">
     <g id="line2d_3">
      <path d="M 121.938464 273.312 
L 121.938464 7.2 
" clip-path="url(#p24fead16c9)" style="fill: none; stroke: #b0b0b0; stroke-width: 0.8; stroke-linecap: square"/>
     </g>
     <g id="line2d_4">
      <g>
       <use xlink:href="#md39032bed2" x="121.938464" y="273.312" style="stroke: #000000; stroke-width: 0.8"/>
      </g>
     </g>
     <g id="text_2">
      <!-- −2500 -->
      <g transform="translate(96.566199 291.709656)scale(0.15 -0.15)">
       <defs>
        <path id="DejaVuSans-32" d="M 1228 531 
L 3431 531 
L 3431 0 
L 469 0 
L 469 531 
Q 828 903 1448 1529 
Q 2069 2156 2228 2338 
Q 2531 2678 2651 2914 
Q 2772 3150 2772 3378 
Q 2772 3750 2511 3984 
Q 2250 4219 1831 4219 
Q 1534 4219 1204 4116 
Q 875 4013 500 3803 
L 500 4441 
Q 881 4594 1212 4672 
Q 1544 4750 1819 4750 
Q 2544 4750 2975 4387 
Q 3406 4025 3406 3419 
Q 3406 3131 3298 2873 
Q 3191 2616 2906 2266 
Q 2828 2175 2409 1742 
Q 1991 1309 1228 531 
z
" transform="scale(0.015625)"/>
        <path id="DejaVuSans-35" d="M 691 4666 
L 3169 4666 
L 3169 4134 
L 1269 4134 
L 1269 2991 
Q 1406 3038 1543 3061 
Q 1681 3084 1819 3084 
Q 2600 3084 3056 2656 
Q 3513 2228 3513 1497 
Q 3513 744 3044 326 
Q 2575 -91 1722 -91 
Q 1428 -91 1123 -41 
Q 819 9 494 109 
L 494 744 
Q 775 591 1075 516 
Q 1375 441 1709 441 
Q 2250 441 2565 725 
Q 2881 1009 2881 1497 
Q 2881 1984 2565 2268 
Q 2250 2553 1709 2553 
Q 1456 2553 1204 2497 
Q 953 2441 691 2322 
L 691 4666 
z
" transform="scale(0.015625)"/>
       </defs>
       <use xlink:href="#DejaVuSans-2212"/>
       <use xlink:href="#DejaVuSans-32" x="83.789062"/>
       <use xlink:href="#DejaVuSans-35" x="147.412109"/>
       <use xlink:href="#DejaVuSans-30" x="211.035156"/>
       <use xlink:href="#DejaVuSans-30" x="274.658203"/>
      </g>
     </g>
    </g>
    <g id="xtick_3">
     <g id="line2d_5">
      <path d="M 175.247914 273.312 
L 175.247914 7.2 
" clip-path="url(#p24fead16c9)" style="fill: none; stroke: #b0b0b0; stroke-width: 0.8; stroke-linecap: square"/>
     </g>
     <g id="line2d_6">
      <g>
       <use xlink:href="#md39032bed2" x="175.247914" y="273.312" style="stroke: #000000; stroke-width: 0.8"/>
      </g>
     </g>
     <g id="text_3">
      <!-- −2000 -->
      <g transform="translate(149.875648 291.709656)scale(0.15 -0.15)">
       <use xlink:href="#DejaVuSans-2212"/>
       <use xlink:href="#DejaVuSans-32" x="83.789062"/>
       <use xlink:href="#DejaVuSans-30" x="147.412109"/>
       <use xlink:href="#DejaVuSans-30" x="211.035156"/>
       <use xlink:href="#DejaVuSans-30" x="274.658203"/>
      </g>
     </g>
    </g>
    <g id="xtick_4">
     <g id="line2d_7">
      <path d="M 228.557363 273.312 
L 228.557363 7.2 
" clip-path="url(#p24fead16c9)" style="fill: none; stroke: #b0b0b0; stroke-width: 0.8; stroke-linecap: square"/>
     </g>
     <g id="line2d_8">
      <g>
       <use xlink:href="#md39032bed2" x="228.557363" y="273.312" style="stroke: #000000; stroke-width: 0.8"/>
      </g>
     </g>
     <g id="text_4">
      <!-- −1500 -->
      <g transform="translate(203.185097 291.709656)scale(0.15 -0.15)">
       <defs>
        <path id="DejaVuSans-31" d="M 794 531 
L 1825 531 
L 1825 4091 
L 703 3866 
L 703 4441 
L 1819 4666 
L 2450 4666 
L 2450 531 
L 3481 531 
L 3481 0 
L 794 0 
L 794 531 
z
" transform="scale(0.015625)"/>
       </defs>
       <use xlink:href="#DejaVuSans-2212"/>
       <use xlink:href="#DejaVuSans-31" x="83.789062"/>
       <use xlink:href="#DejaVuSans-35" x="147.412109"/>
       <use xlink:href="#DejaVuSans-30" x="211.035156"/>
       <use xlink:href="#DejaVuSans-30" x="274.658203"/>
      </g>
     </g>
    </g>
    <g id="xtick_5">
     <g id="line2d_9">
      <path d="M 281.866812 273.312 
L 281.866812 7.2 
" clip-path="url(#p24fead16c9)" style="fill: none; stroke: #b0b0b0; stroke-width: 0.8; stroke-linecap: square"/>
     </g>
     <g id="line2d_10">
      <g>
       <use xlink:href="#md39032bed2" x="281.866812" y="273.312" style="stroke: #000000; stroke-width: 0.8"/>
      </g>
     </g>
     <g id="text_5">
      <!-- −1000 -->
      <g transform="translate(256.494546 291.709656)scale(0.15 -0.15)">
       <use xlink:href="#DejaVuSans-2212"/>
       <use xlink:href="#DejaVuSans-31" x="83.789062"/>
       <use xlink:href="#DejaVuSans-30" x="147.412109"/>
       <use xlink:href="#DejaVuSans-30" x="211.035156"/>
       <use xlink:href="#DejaVuSans-30" x="274.658203"/>
      </g>
     </g>
    </g>
    <g id="xtick_6">
     <g id="line2d_11">
      <path d="M 335.176261 273.312 
L 335.176261 7.2 
" clip-path="url(#p24fead16c9)" style="fill: none; stroke: #b0b0b0; stroke-width: 0.8; stroke-linecap: square"/>
     </g>
     <g id="line2d_12">
      <g>
       <use xlink:href="#md39032bed2" x="335.176261" y="273.312" style="stroke: #000000; stroke-width: 0.8"/>
      </g>
     </g>
     <g id="text_6">
      <!-- −500 -->
      <g transform="translate(314.57587 291.709656)scale(0.15 -0.15)">
       <use xlink:href="#DejaVuSans-2212"/>
       <use xlink:href="#DejaVuSans-35" x="83.789062"/>
       <use xlink:href="#DejaVuSans-30" x="147.412109"/>
       <use xlink:href="#DejaVuSans-30" x="211.035156"/>
      </g>
     </g>
    </g>
    <g id="xtick_7">
     <g id="line2d_13">
      <path d="M 388.48571 273.312 
L 388.48571 7.2 
" clip-path="url(#p24fead16c9)" style="fill: none; stroke: #b0b0b0; stroke-width: 0.8; stroke-linecap: square"/>
     </g>
     <g id="line2d_14">
      <g>
       <use xlink:href="#md39032bed2" x="388.48571" y="273.312" style="stroke: #000000; stroke-width: 0.8"/>
      </g>
     </g>
     <g id="text_7">
      <!-- 0 -->
      <g transform="translate(383.713835 291.709656)scale(0.15 -0.15)">
       <use xlink:href="#DejaVuSans-30"/>
      </g>
     </g>
    </g>
    <g id="text_8">
     <!-- Max (V) -->
     <g transform="translate(187.661563 314.026062)scale(0.2 -0.2)">
      <defs>
       <path id="DejaVuSans-4d" d="M 628 4666 
L 1569 4666 
L 2759 1491 
L 3956 4666 
L 4897 4666 
L 4897 0 
L 4281 0 
L 4281 4097 
L 3078 897 
L 2444 897 
L 1241 4097 
L 1241 0 
L 628 0 
L 628 4666 
z
" transform="scale(0.015625)"/>
       <path id="DejaVuSans-61" d="M 2194 1759 
Q 1497 1759 1228 1600 
Q 959 1441 959 1056 
Q 959 750 1161 570 
Q 1363 391 1709 391 
Q 2188 391 2477 730 
Q 2766 1069 2766 1631 
L 2766 1759 
L 2194 1759 
z
M 3341 1997 
L 3341 0 
L 2766 0 
L 2766 531 
Q 2569 213 2275 61 
Q 1981 -91 1556 -91 
Q 1019 -91 701 211 
Q 384 513 384 1019 
Q 384 1609 779 1909 
Q 1175 2209 1959 2209 
L 2766 2209 
L 2766 2266 
Q 2766 2663 2505 2880 
Q 2244 3097 1772 3097 
Q 1472 3097 1187 3025 
Q 903 2953 641 2809 
L 641 3341 
Q 956 3463 1253 3523 
Q 1550 3584 1831 3584 
Q 2591 3584 2966 3190 
Q 3341 2797 3341 1997 
z
" transform="scale(0.015625)"/>
       <path id="DejaVuSans-78" d="M 3513 3500 
L 2247 1797 
L 3578 0 
L 2900 0 
L 1881 1375 
L 863 0 
L 184 0 
L 1544 1831 
L 300 3500 
L 978 3500 
L 1906 2253 
L 2834 3500 
L 3513 3500 
z
" transform="scale(0.015625)"/>
       <path id="DejaVuSans-20" transform="scale(0.015625)"/>
       <path id="DejaVuSans-28" d="M 1984 4856 
Q 1566 4138 1362 3434 
Q 1159 2731 1159 2009 
Q 1159 1288 1364 580 
Q 1569 -128 1984 -844 
L 1484 -844 
Q 1016 -109 783 600 
Q 550 1309 550 2009 
Q 550 2706 781 3412 
Q 1013 4119 1484 4856 
L 1984 4856 
z
" transform="scale(0.015625)"/>
       <path id="DejaVuSans-56" d="M 1831 0 
L 50 4666 
L 709 4666 
L 2188 738 
L 3669 4666 
L 4325 4666 
L 2547 0 
L 1831 0 
z
" transform="scale(0.015625)"/>
       <path id="DejaVuSans-29" d="M 513 4856 
L 1013 4856 
Q 1481 4119 1714 3412 
Q 1947 2706 1947 2009 
Q 1947 1309 1714 600 
Q 1481 -109 1013 -844 
L 513 -844 
Q 928 -128 1133 580 
Q 1338 1288 1338 2009 
Q 1338 2731 1133 3434 
Q 928 4138 513 4856 
z
" transform="scale(0.015625)"/>
      </defs>
      <use xlink:href="#DejaVuSans-4d"/>
      <use xlink:href="#DejaVuSans-61" x="86.279297"/>
      <use xlink:href="#DejaVuSans-78" x="147.558594"/>
      <use xlink:href="#DejaVuSans-20" x="206.738281"/>
      <use xlink:href="#DejaVuSans-28" x="238.525391"/>
      <use xlink:href="#DejaVuSans-56" x="277.539062"/>
      <use xlink:href="#DejaVuSans-29" x="345.947266"/>
     </g>
    </g>
   </g>
   <g id="matplotlib.axis_2">
    <g id="ytick_1">
     <g id="line2d_15">
      <path d="M 47.598438 242.8992 
L 404.718438 242.8992 
" clip-path="url(#p24fead16c9)" style="fill: none; stroke: #b0b0b0; stroke-width: 0.8; stroke-linecap: square"/>
     </g>
     <g id="line2d_16">
      <defs>
       <path id="m6f3f5b6aff" d="M 0 0 
L -3.5 0 
" style="stroke: #000000; stroke-width: 0.8"/>
      </defs>
      <g>
       <use xlink:href="#m6f3f5b6aff" x="47.598438" y="242.8992" style="stroke: #000000; stroke-width: 0.8"/>
      </g>
     </g>
     <g id="text_9">
      <!-- 2.5 -->
      <g transform="translate(16.74375 248.598028)scale(0.15 -0.15)">
       <defs>
        <path id="DejaVuSans-2e" d="M 684 794 
L 1344 794 
L 1344 0 
L 684 0 
L 684 794 
z
" transform="scale(0.015625)"/>
       </defs>
       <use xlink:href="#DejaVuSans-32"/>
       <use xlink:href="#DejaVuSans-2e" x="63.623047"/>
       <use xlink:href="#DejaVuSans-35" x="95.410156"/>
      </g>
     </g>
    </g>
    <g id="ytick_2">
     <g id="line2d_17">
      <path d="M 47.598438 204.8832 
L 404.718438 204.8832 
" clip-path="url(#p24fead16c9)" style="fill: none; stroke: #b0b0b0; stroke-width: 0.8; stroke-linecap: square"/>
     </g>
     <g id="line2d_18">
      <g>
       <use xlink:href="#m6f3f5b6aff" x="47.598438" y="204.8832" style="stroke: #000000; stroke-width: 0.8"/>
      </g>
     </g>
     <g id="text_10">
      <!-- 5.0 -->
      <g transform="translate(16.74375 210.582028)scale(0.15 -0.15)">
       <use xlink:href="#DejaVuSans-35"/>
       <use xlink:href="#DejaVuSans-2e" x="63.623047"/>
       <use xlink:href="#DejaVuSans-30" x="95.410156"/>
      </g>
     </g>
    </g>
    <g id="ytick_3">
     <g id="line2d_19">
      <path d="M 47.598438 166.8672 
L 404.718438 166.8672 
" clip-path="url(#p24fead16c9)" style="fill: none; stroke: #b0b0b0; stroke-width: 0.8; stroke-linecap: square"/>
     </g>
     <g id="line2d_20">
      <g>
       <use xlink:href="#m6f3f5b6aff" x="47.598438" y="166.8672" style="stroke: #000000; stroke-width: 0.8"/>
      </g>
     </g>
     <g id="text_11">
      <!-- 7.5 -->
      <g transform="translate(16.74375 172.566028)scale(0.15 -0.15)">
       <defs>
        <path id="DejaVuSans-37" d="M 525 4666 
L 3525 4666 
L 3525 4397 
L 1831 0 
L 1172 0 
L 2766 4134 
L 525 4134 
L 525 4666 
z
" transform="scale(0.015625)"/>
       </defs>
       <use xlink:href="#DejaVuSans-37"/>
       <use xlink:href="#DejaVuSans-2e" x="63.623047"/>
       <use xlink:href="#DejaVuSans-35" x="95.410156"/>
      </g>
     </g>
    </g>
    <g id="ytick_4">
     <g id="line2d_21">
      <path d="M 47.598438 128.8512 
L 404.718438 128.8512 
" clip-path="url(#p24fead16c9)" style="fill: none; stroke: #b0b0b0; stroke-width: 0.8; stroke-linecap: square"/>
     </g>
     <g id="line2d_22">
      <g>
       <use xlink:href="#m6f3f5b6aff" x="47.598438" y="128.8512" style="stroke: #000000; stroke-width: 0.8"/>
      </g>
     </g>
     <g id="text_12">
      <!-- 10.0 -->
      <g transform="translate(7.2 134.550028)scale(0.15 -0.15)">
       <use xlink:href="#DejaVuSans-31"/>
       <use xlink:href="#DejaVuSans-30" x="63.623047"/>
       <use xlink:href="#DejaVuSans-2e" x="127.246094"/>
       <use xlink:href="#DejaVuSans-30" x="159.033203"/>
      </g>
     </g>
    </g>
    <g id="ytick_5">
     <g id="line2d_23">
      <path d="M 47.598438 90.8352 
L 404.718438 90.8352 
" clip-path="url(#p24fead16c9)" style="fill: none; stroke: #b0b0b0; stroke-width: 0.8; stroke-linecap: square"/>
     </g>
     <g id="line2d_24">
      <g>
       <use xlink:href="#m6f3f5b6aff" x="47.598438" y="90.8352" style="stroke: #000000; stroke-width: 0.8"/>
      </g>
     </g>
     <g id="text_13">
      <!-- 12.5 -->
      <g transform="translate(7.2 96.534028)scale(0.15 -0.15)">
       <use xlink:href="#DejaVuSans-31"/>
       <use xlink:href="#DejaVuSans-32" x="63.623047"/>
       <use xlink:href="#DejaVuSans-2e" x="127.246094"/>
       <use xlink:href="#DejaVuSans-35" x="159.033203"/>
      </g>
     </g>
    </g>
    <g id="ytick_6">
     <g id="line2d_25">
      <path d="M 47.598438 52.8192 
L 404.718438 52.8192 
" clip-path="url(#p24fead16c9)" style="fill: none; stroke: #b0b0b0; stroke-width: 0.8; stroke-linecap: square"/>
     </g>
     <g id="line2d_26">
      <g>
       <use xlink:href="#m6f3f5b6aff" x="47.598438" y="52.8192" style="stroke: #000000; stroke-width: 0.8"/>
      </g>
     </g>
     <g id="text_14">
      <!-- 15.0 -->
      <g transform="translate(7.2 58.518028)scale(0.15 -0.15)">
       <use xlink:href="#DejaVuSans-31"/>
       <use xlink:href="#DejaVuSans-35" x="63.623047"/>
       <use xlink:href="#DejaVuSans-2e" x="127.246094"/>
       <use xlink:href="#DejaVuSans-30" x="159.033203"/>
      </g>
     </g>
    </g>
    <g id="ytick_7">
     <g id="line2d_27">
      <path d="M 47.598438 14.8032 
L 404.718438 14.8032 
" clip-path="url(#p24fead16c9)" style="fill: none; stroke: #b0b0b0; stroke-width: 0.8; stroke-linecap: square"/>
     </g>
     <g id="line2d_28">
      <g>
       <use xlink:href="#m6f3f5b6aff" x="47.598438" y="14.8032" style="stroke: #000000; stroke-width: 0.8"/>
      </g>
     </g>
     <g id="text_15">
      <!-- 17.5 -->
      <g transform="translate(7.2 20.502028)scale(0.15 -0.15)">
       <use xlink:href="#DejaVuSans-31"/>
       <use xlink:href="#DejaVuSans-37" x="63.623047"/>
       <use xlink:href="#DejaVuSans-2e" x="127.246094"/>
       <use xlink:href="#DejaVuSans-35" x="159.033203"/>
      </g>
     </g>
    </g>
   </g>
   <g id="line2d_29">
    <path d="M 63.831165 180.16706 
L 63.937784 179.053649 
L 64.044403 174.827785 
L 64.684116 110.451319 
L 65.323829 86.333088 
L 66.603256 49.880777 
L 67.029732 41.064465 
L 67.24297 40.685857 
L 67.349588 40.799308 
L 67.562826 41.671224 
L 67.882683 44.67615 
L 68.309159 51.985159 
L 68.842253 66.315703 
L 69.588585 94.42085 
L 71.187869 160.342211 
L 71.294488 160.038823 
L 71.934201 154.278125 
L 73.00039 141.853017 
L 74.173198 128.550325 
L 74.706292 124.797814 
L 75.026149 123.783915 
L 75.239387 123.730316 
L 75.452625 124.221286 
L 75.772481 126.038805 
L 76.198957 130.371817 
L 76.732051 139.224932 
L 77.585003 159.012828 
L 78.757811 189.234366 
L 79.077667 186.022263 
L 80.676951 154.114577 
L 81.210045 148.571966 
L 81.529902 146.779651 
L 81.849759 146.104273 
L 81.956377 146.107072 
L 82.169615 146.478802 
L 82.489472 147.749105 
L 82.70271 143.199187 
L 82.915948 142.723225 
L 83.022566 142.667949 
L 83.235804 142.941477 
L 83.449042 143.74435 
L 83.768899 145.960933 
L 84.195374 150.76462 
L 84.728469 159.420215 
L 85.58142 177.563305 
L 86.221133 193.298398 
L 88.140274 156.338564 
L 88.673368 150.738131 
L 88.993225 148.904588 
L 89.206463 148.331051 
L 89.4197 148.263007 
L 89.632938 148.668104 
L 89.846176 149.457791 
L 89.952795 151.078025 
L 90.166033 148.465534 
L 90.485889 147.868687 
L 90.592508 147.891016 
L 90.805746 148.31188 
L 91.125603 149.911379 
L 91.552078 153.85246 
L 92.085173 161.460207 
L 92.831505 175.934109 
L 93.684456 194.791475 
L 94.32417 183.345857 
L 95.390359 164.148982 
L 95.923453 157.749246 
L 96.349929 154.732036 
L 96.669785 153.670394 
L 96.883023 153.567092 
L 97.096261 153.770361 
L 97.309499 153.394167 
L 97.416118 153.351484 
L 97.629356 149.601861 
L 97.949212 148.928726 
L 98.055831 148.94092 
L 98.269069 149.339752 
L 98.588926 150.902578 
L 99.015401 154.789571 
L 99.548496 162.322952 
L 100.294828 176.678525 
L 101.147779 195.487233 
L 102.533825 170.080732 
L 103.173538 160.81159 
L 103.706633 156.019582 
L 104.026489 154.549479 
L 104.239727 154.306007 
L 104.452965 154.266994 
L 104.772822 153.507492 
L 104.879441 153.451907 
L 105.092678 149.152257 
L 105.412535 147.94168 
L 105.625773 147.685671 
L 105.732392 147.738266 
L 105.94563 148.226327 
L 106.265486 149.966285 
L 106.691962 154.242427 
L 107.225056 162.670566 
L 107.86477 176.662238 
L 108.611102 195.320684 
L 110.210386 165.411056 
L 110.74348 158.458833 
L 111.169956 154.82844 
L 111.489812 153.371662 
L 112.342764 151.463198 
L 112.556001 151.761577 
L 112.875858 149.27941 
L 113.195715 147.229829 
L 113.408953 146.969501 
L 113.62219 147.469962 
L 113.835428 148.747908 
L 114.155285 152.114967 
L 114.58176 159.158054 
L 115.221474 174.21259 
L 115.967806 193.318532 
L 116.074425 194.216266 
L 116.181044 193.565277 
L 116.820757 182.186347 
L 117.673708 163.465242 
L 118.206803 156.608452 
L 118.52666 154.732063 
L 118.739897 154.443012 
L 118.846516 154.58282 
L 118.953135 154.907875 
L 119.379611 154.404726 
L 119.699468 153.644919 
L 119.806086 153.58064 
L 120.019324 153.895103 
L 120.339181 154.962025 
L 120.659038 153.191014 
L 120.872275 152.877241 
L 120.978894 152.994209 
L 121.192132 153.789196 
L 121.511989 156.391416 
L 121.938464 162.396389 
L 122.471559 173.440768 
L 123.431129 195.113589 
L 123.537748 195.723919 
L 123.644367 195.194114 
L 124.28408 183.359693 
L 125.030412 166.576107 
L 125.563507 158.975117 
L 125.883364 156.596404 
L 126.096601 155.967438 
L 126.20322 155.939403 
L 126.523077 156.443391 
L 126.629696 156.320198 
L 127.056171 154.682667 
L 127.269409 154.406963 
L 127.482647 154.705568 
L 127.802504 155.854722 
L 128.335598 154.140951 
L 128.442217 154.253515 
L 128.655455 155.045418 
L 128.975312 157.656057 
L 129.401787 163.688695 
L 129.934882 174.777334 
L 130.894452 195.933505 
L 131.001071 196.353277 
L 131.10769 196.03622 
L 131.854022 182.671595 
L 132.600354 166.815909 
L 133.133449 160.103601 
L 133.453305 158.294018 
L 133.666543 158.041407 
L 133.879781 158.17172 
L 134.626113 155.227726 
L 134.732732 155.133444 
L 134.94597 155.470798 
L 135.265827 156.662346 
L 135.372446 157.230483 
L 135.692302 156.029052 
L 135.798921 155.97798 
L 135.90554 156.114745 
L 136.118778 156.959958 
L 136.438635 159.659339 
L 136.86511 165.820134 
L 137.398205 177.055077 
L 138.144537 193.508339 
L 138.464394 197.258995 
L 138.571013 197.121119 
L 139.423964 181.84757 
L 140.063677 168.635347 
L 140.596772 161.924011 
L 140.916628 160.111193 
L 141.129866 159.855552 
L 141.236485 160.009929 
L 141.556342 158.192801 
L 141.982817 156.514969 
L 142.196055 156.217678 
L 142.409293 156.570479 
L 142.72915 157.781734 
L 143.049006 159.089014 
L 143.262244 158.801545 
L 143.368863 158.934695 
L 143.582101 159.766323 
L 143.901957 162.429234 
L 144.328433 168.509099 
L 144.861528 179.60125 
L 145.501241 192.7941 
L 145.927716 198.079453 
L 146.034335 198.073224 
L 146.993905 181.296328 
L 147.633619 168.994096 
L 148.060094 163.982228 
L 148.379951 162.151105 
L 148.699808 161.424896 
L 149.232902 158.230463 
L 149.552759 157.355483 
L 149.659378 157.245686 
L 149.872616 157.615651 
L 150.192472 158.848354 
L 150.618948 161.505673 
L 150.725567 161.455412 
L 150.832186 161.589419 
L 151.045424 162.417345 
L 151.36528 165.059613 
L 151.791756 171.083023 
L 152.32485 182.059333 
L 152.751326 190.343084 
L 153.28442 198.888997 
L 153.497658 198.912744 
L 154.243991 187.095808 
L 154.670466 178.728947 
L 155.203561 169.59462 
L 155.630036 165.306482 
L 156.909463 158.579683 
L 157.122701 158.252026 
L 157.335939 158.637638 
L 157.655795 159.890057 
L 158.082271 162.759623 
L 158.295509 164.162146 
L 158.508747 164.961015 
L 158.828603 167.56636 
L 159.255079 173.54708 
L 160.747743 199.697143 
L 160.960981 199.719469 
L 161.387457 193.245597 
L 163.093359 167.390817 
L 163.519835 164.386162 
L 164.052929 160.728093 
L 164.372786 159.544735 
L 164.586024 159.203018 
L 164.799262 159.606098 
L 165.119118 160.88322 
L 165.545594 163.780581 
L 166.505164 172.763073 
L 167.038258 182.171923 
L 168.211066 200.536357 
L 168.424304 200.559881 
L 168.637542 197.739347 
L 170.343444 171.416194 
L 171.409633 162.302219 
L 171.836109 160.523318 
L 172.049347 160.165782 
L 172.262584 160.585584 
L 172.582441 161.886133 
L 173.008917 164.809571 
L 173.542011 170.164023 
L 174.288343 180.111627 
L 175.781008 201.431122 
L 175.887627 201.425928 
L 176.100865 198.8253 
L 177.700148 174.688189 
L 178.44648 166.511307 
L 178.979575 162.799875 
L 179.406051 161.346821 
L 179.512669 161.207376 
L 179.725907 161.646958 
L 180.045764 162.974758 
L 180.47224 165.931024 
L 181.005334 171.320794 
L 181.751666 181.303817 
L 183.244331 202.4197 
L 183.35095 202.417045 
L 183.457569 201.734161 
L 185.163471 175.894841 
L 185.909803 167.689135 
L 186.442898 163.94999 
L 186.869373 162.472324 
L 186.975992 162.32518 
L 187.18923 162.783196 
L 187.509087 164.141124 
L 187.935562 167.135634 
L 188.468657 172.566143 
L 189.214989 182.589662 
L 190.707654 203.458809 
L 190.814273 203.455708 
L 190.920892 202.92545 
L 192.626794 176.894848 
L 193.373126 168.732711 
L 193.906221 164.994919 
L 194.332696 163.502132 
L 194.439315 163.349009 
L 194.652553 163.825675 
L 194.97241 165.20187 
L 195.398885 168.204501 
L 195.93198 173.61661 
L 196.784931 185.113012 
L 198.064358 203.59729 
L 198.277596 203.596235 
L 198.384214 203.075221 
L 200.090117 177.169966 
L 200.836449 168.805823 
L 201.369544 164.916821 
L 201.796019 163.301002 
L 201.902638 163.138962 
L 202.115876 163.584979 
L 202.435733 164.927985 
L 202.862208 167.873322 
L 203.395303 173.218965 
L 204.141635 183.059986 
L 205.527681 203.040149 
L 205.740918 202.991631 
L 205.847537 202.810702 
L 207.233583 178.063454 
L 207.766678 169.071286 
L 208.193153 164.949087 
L 208.51301 163.77935 
L 208.619629 163.420375 
L 209.152723 160.019876 
L 209.47258 159.142749 
L 209.579199 159.167682 
L 209.792437 159.610061 
L 210.112293 161.223522 
L 210.752007 166.609711 
L 211.39172 174.192606 
L 213.31086 199.63969 
L 213.417479 199.489205 
L 213.524098 198.729462 
L 214.163811 186.16866 
L 215.016763 165.188106 
L 215.549857 157.147309 
L 215.869714 154.719164 
L 216.082952 154.141906 
L 216.189571 154.162676 
L 216.402808 154.805809 
L 216.722665 156.871209 
L 216.935903 155.717291 
L 217.149141 155.509502 
L 217.362378 155.846919 
L 217.682235 157.335586 
L 218.108711 160.940712 
L 218.748424 168.818655 
L 220.987421 198.412009 
L 221.09404 199.44953 
L 221.200659 198.956471 
L 221.520515 192.682562 
L 222.480086 168.220363 
L 223.01318 159.433687 
L 223.333037 156.493251 
L 223.652893 154.878241 
L 223.759512 154.941814 
L 223.97275 155.68002 
L 224.292607 158.269068 
L 224.399226 158.236245 
L 224.612463 157.77051 
L 224.719082 157.748167 
L 224.93232 158.133406 
L 225.252177 159.726621 
L 225.678652 163.519026 
L 226.318366 171.723639 
L 228.344125 199.623219 
L 228.557363 201.213873 
L 228.663982 200.733285 
L 229.197076 190.350689 
L 230.050027 169.52574 
L 230.583122 161.47316 
L 230.79636 159.125333 
L 230.902978 160.560545 
L 231.116216 159.943696 
L 231.222835 159.937846 
L 231.329454 160.13027 
L 231.436073 159.805512 
L 231.862549 157.141135 
L 232.075786 156.673928 
L 232.182405 156.665687 
L 232.395643 157.097531 
L 232.7155 158.820585 
L 233.141975 162.867209 
L 233.781689 171.519458 
L 235.380972 194.351758 
L 235.914067 193.984812 
L 236.127304 193.841683 
L 236.340542 193.127968 
L 238.366301 159.811877 
L 238.899396 154.319422 
L 239.219253 152.359846 
L 239.43249 152.068692 
L 239.539109 152.162711 
L 239.752347 152.826435 
L 240.072204 154.956639 
L 240.711917 161.737317 
L 241.351631 171.202382 
L 242.524438 189.56358 
L 242.737676 189.471959 
L 243.057533 189.121417 
L 243.37739 189.219927 
L 243.590627 189.369913 
L 243.803865 188.796337 
L 243.910484 188.213009 
L 245.29653 162.785759 
L 246.042862 153.133069 
L 246.575957 149.070842 
L 246.682575 148.719862 
L 246.789194 148.790369 
L 247.002432 149.428006 
L 247.428908 152.075604 
L 247.855383 156.345534 
L 248.495097 165.466508 
L 249.454667 183.322841 
L 249.667905 186.944663 
L 249.881142 187.2253 
L 250.09438 187.190011 
L 250.414237 186.581082 
L 250.520856 186.663194 
L 250.627475 186.773956 
L 250.840712 187.694491 
L 251.05395 187.414745 
L 251.267188 186.82581 
L 251.906901 174.37948 
L 252.866472 157.689703 
L 253.506185 149.812388 
L 253.932661 146.531743 
L 254.145898 145.550239 
L 254.359136 146.072588 
L 254.678993 147.794732 
L 255.105468 151.629023 
L 255.638563 158.614037 
L 256.384895 171.520355 
L 257.131227 185.480076 
L 257.344465 185.796559 
L 257.451084 185.833125 
L 257.664322 185.491568 
L 257.87756 185.11242 
L 258.304035 185.832597 
L 258.517273 185.674111 
L 258.730511 185.201881 
L 258.83713 184.145402 
L 260.009938 161.911976 
L 260.75627 151.214272 
L 261.289365 146.571149 
L 261.609221 145.257193 
L 261.929078 146.575565 
L 262.355553 149.89144 
L 262.888648 156.315511 
L 263.63498 168.696151 
L 264.701169 186.691327 
L 264.914407 186.888155 
L 265.340883 186.263843 
L 265.767358 186.989053 
L 265.980596 186.845559 
L 266.193834 186.396245 
L 266.300453 185.898877 
L 267.473261 164.38191 
L 268.326212 152.631044 
L 268.752687 149.224859 
L 269.072544 148.311604 
L 269.285782 149.019642 
L 269.605639 150.96556 
L 270.032114 155.009736 
L 270.671828 163.776502 
L 271.524779 179.064686 
L 271.951254 187.008906 
L 272.164492 187.452036 
L 272.37773 187.235228 
L 272.804206 186.75302 
L 273.3373 187.625331 
L 273.550538 187.426231 
L 273.763776 186.933671 
L 274.083632 181.856928 
L 275.363059 160.542558 
L 275.896154 154.529671 
L 276.21601 152.585303 
L 276.429248 152.076689 
L 276.642486 154.05009 
L 276.962343 155.60324 
L 277.708675 160.879597 
L 278.241769 168.314839 
L 278.988102 182.846173 
L 279.307958 188.144254 
L 279.734434 187.508395 
L 280.054291 187.296392 
L 280.16091 187.276247 
L 280.907242 188.892212 
L 281.12048 188.795418 
L 281.227098 188.628168 
L 281.440336 185.807691 
L 282.719763 165.199429 
L 283.252858 159.796275 
L 283.892571 155.805514 
L 283.99919 155.996354 
L 284.212428 155.704647 
L 284.319047 155.764596 
L 284.532284 156.30311 
L 284.852141 158.155972 
L 285.278617 162.494182 
L 285.811711 170.521059 
L 286.771281 188.671315 
L 286.8779 188.489506 
L 287.197757 188.184148 
L 287.410995 188.419547 
L 287.624232 188.604636 
L 288.050708 189.415711 
L 288.157327 189.656615 
L 288.370565 189.589334 
L 288.583802 189.431301 
L 288.79704 187.075732 
L 290.076467 166.394297 
L 290.71618 159.16687 
L 291.142656 156.31069 
L 291.355894 155.599996 
L 291.569132 156.460576 
L 291.782369 156.843476 
L 292.102226 158.402906 
L 292.528702 162.23256 
L 293.061796 169.417552 
L 294.234604 189.467733 
L 294.341223 189.399654 
L 294.874317 188.903877 
L 295.087555 189.052511 
L 295.407412 189.799113 
L 295.727269 190.455718 
L 295.833888 190.430391 
L 296.153744 189.503234 
L 296.366982 188.643158 
L 296.58022 185.717214 
L 297.646409 168.922357 
L 298.179503 162.374795 
L 298.605979 159.477954 
L 298.819217 158.95143 
L 298.925836 160.448694 
L 299.032455 159.079773 
L 299.352311 160.870222 
L 299.885406 165.532276 
L 300.4185 172.202603 
L 301.804546 191.438113 
L 301.911165 191.412865 
L 302.124403 191.122149 
L 302.231021 191.286795 
L 302.657497 191.135354 
L 303.083973 192.128921 
L 303.190592 191.920549 
L 303.403829 191.982232 
L 303.617067 191.753198 
L 303.936924 190.823165 
L 305.749445 165.023233 
L 305.856064 164.062132 
L 305.962683 164.105457 
L 306.175921 163.050513 
L 306.28254 162.988241 
L 306.389159 163.348786 
L 306.495777 162.705196 
L 306.815634 163.955982 
L 307.135491 166.181643 
L 307.668585 172.398542 
L 308.734774 188.785813 
L 308.948012 191.44984 
L 309.16125 192.335619 
L 310.12082 193.813266 
L 310.440677 193.38878 
L 310.867152 192.732336 
L 311.187009 191.714725 
L 311.293628 191.179054 
L 311.720103 184.413639 
L 312.892911 166.120649 
L 313.532625 158.977057 
L 313.852481 157.345079 
L 313.9591 157.145364 
L 314.172338 157.884552 
L 314.492195 159.924005 
L 314.91867 164.026948 
L 315.558384 172.656995 
L 316.731192 190.107026 
L 317.051048 190.656104 
L 317.370905 190.737618 
L 317.904 190.468604 
L 318.223856 189.983242 
L 318.330475 189.689285 
L 318.650332 187.248496 
L 320.462853 154.56367 
L 320.889329 149.743251 
L 321.315804 146.234405 
L 321.422423 145.911858 
L 321.74228 147.369034 
L 322.168755 151.004409 
L 322.70185 157.947462 
L 323.448182 171.406182 
L 324.301133 186.726454 
L 324.727609 188.166642 
L 324.940847 188.385541 
L 325.047466 188.361692 
L 325.687179 186.366636 
L 325.793798 185.910042 
L 326.326892 178.077589 
L 328.139414 138.014715 
L 328.779127 129.013807 
L 328.992365 127.291164 
L 329.098984 127.342176 
L 329.312222 128.082862 
L 329.632078 130.239763 
L 330.058554 134.954234 
L 330.591648 143.275819 
L 330.698267 139.558633 
L 331.657837 161.322909 
L 331.977694 169.263349 
L 332.190932 178.011921 
L 332.510789 184.610468 
L 332.617407 182.984738 
L 332.830645 185.852095 
L 333.150502 185.553038 
L 333.470359 184.963182 
L 333.683596 184.243405 
L 333.790215 183.498245 
L 335.069642 164.644521 
L 335.602737 157.470227 
L 336.135831 150.661534 
L 337.095401 139.381641 
L 337.841734 130.254059 
L 338.268209 127.511719 
L 338.694685 125.64398 
L 338.907922 124.8603 
L 339.12116 124.983747 
L 339.334398 124.556754 
L 339.974111 119.975736 
L 340.08073 120.183504 
L 340.400587 123.244726 
L 340.933682 131.187731 
L 341.253538 135.995246 
L 341.786633 138.611928 
L 342.213108 142.712228 
L 345.091819 177.101382 
L 346.264626 192.490343 
L 346.691102 193.923221 
L 346.90434 194.136148 
L 347.010959 194.668363 
L 347.224197 194.528449 
L 347.437434 192.798336 
L 347.86391 183.79282 
L 349.143337 159.538453 
L 349.889669 149.615436 
L 350.316145 146.305766 
L 350.636001 145.023479 
L 350.74262 145.173667 
L 350.955858 145.079068 
L 351.062477 145.215175 
L 351.169096 145.558147 
L 351.382334 147.889599 
L 352.022047 158.025066 
L 353.727949 188.890634 
L 354.261044 191.130719 
L 354.687519 192.017105 
L 354.900757 192.158602 
L 355.007376 191.995054 
L 355.220614 192.165645 
L 355.433852 192.075305 
L 355.753708 191.438527 
L 355.966946 190.727248 
L 356.180184 189.217387 
L 357.779468 164.645035 
L 358.312562 160.240152 
L 358.632419 158.947356 
L 358.739038 158.905028 
L 359.058894 161.309968 
L 359.591989 167.462939 
L 360.338321 179.190221 
L 361.084653 190.785195 
L 361.40451 191.959306 
L 361.830986 192.885876 
L 361.937605 192.531243 
L 362.683937 196.802901 
L 363.430269 200.427661 
L 363.643507 200.914165 
L 364.176601 195.860255 
L 364.603077 192.218372 
L 365.136171 189.100666 
L 365.456028 188.163443 
L 365.562647 188.026538 
L 365.775885 188.742169 
L 365.989123 189.110895 
L 366.308979 190.263316 
L 366.735455 194.674428 
L 367.268549 202.682648 
L 368.334738 223.287781 
L 368.761214 230.51268 
L 369.507546 236.126837 
L 369.827403 237.333191 
L 369.934022 237.361865 
L 370.14726 236.869787 
L 371.000211 232.020513 
L 372.173019 222.376212 
L 373.239208 213.780115 
L 375.584824 166.897857 
L 376.011299 163.776814 
L 376.224537 163.223373 
L 376.331156 163.213991 
L 376.544394 163.742157 
L 376.757631 164.978443 
L 376.970869 168.245636 
L 377.82382 177.965108 
L 379.529723 198.643175 
L 380.80915 213.949574 
L 380.915768 213.642315 
L 381.022387 212.826684 
L 381.76872 196.798827 
L 382.408433 185.77771 
L 382.621671 184.070205 
L 382.834909 183.452434 
L 383.154765 181.871645 
L 383.261384 182.100006 
L 383.474622 184.509755 
L 383.68786 190.496652 
L 384.114335 207.301594 
L 384.434192 208.590264 
L 384.860668 211.599316 
L 385.713619 218.794976 
L 386.140094 221.918214 
L 386.56657 226.714434 
L 386.993046 234.122288 
L 387.419521 241.519329 
L 388.165854 238.920487 
L 388.48571 237.214866 
L 388.48571 237.214866 
" clip-path="url(#p24fead16c9)" style="fill: none; stroke: #1f77b4; stroke-width: 1.5; stroke-linecap: square"/>
   </g>
   <g id="line2d_30">
    <path d="M 63.831165 86.888697 
L 64.044403 91.94689 
L 64.151021 92.002894 
L 64.364259 92.835355 
L 64.684116 85.259786 
L 65.643686 60.22049 
L 66.283399 47.676541 
L 66.816494 40.875107 
L 67.136351 38.84797 
L 67.349588 38.566267 
L 67.456207 38.572634 
L 67.669445 39.043276 
L 67.882683 40.15926 
L 68.20254 43.139336 
L 68.629015 49.873333 
L 69.055491 60.394979 
L 69.588585 80.064667 
L 70.548155 119.312061 
L 71.401107 153.577102 
L 71.827582 149.722002 
L 72.147439 149.178975 
L 72.573914 143.67547 
L 73.533485 135.178459 
L 74.386436 126.258454 
L 74.812911 123.411321 
L 75.132768 122.321683 
L 75.346006 122.196678 
L 75.452625 122.228185 
L 75.665862 122.747276 
L 75.985719 124.404054 
L 76.305576 127.572638 
L 77.158527 139.66963 
L 78.011478 157.719317 
L 78.757811 176.275716 
L 78.864429 176.37539 
L 81.316664 146.381104 
L 81.849759 144.91474 
L 82.276234 144.239895 
L 82.489472 143.372029 
L 82.915948 142.016217 
L 83.129185 141.779398 
L 83.342423 141.940494 
L 83.555661 142.672062 
L 83.875518 144.893881 
L 84.408612 150.83599 
L 85.154944 161.289767 
L 86.221133 182.752544 
L 86.327752 182.279646 
L 86.54099 179.791114 
L 88.246892 152.770325 
L 88.566749 149.719143 
L 88.993225 147.974608 
L 89.526319 147.403037 
L 90.059414 147.54275 
L 90.37927 147.403036 
L 90.805746 147.412191 
L 91.018984 147.864766 
L 91.338841 149.722215 
L 91.658697 153.105505 
L 93.151362 176.485824 
L 93.684456 185.983225 
L 93.791075 186.111507 
L 94.217551 181.556744 
L 95.28374 164.502738 
L 95.923453 156.478494 
L 96.349929 153.331186 
L 96.883023 151.191332 
L 97.416118 148.993524 
L 97.629356 148.476085 
L 98.375688 147.98124 
L 98.908782 149.444071 
L 99.12202 150.834652 
L 99.655115 156.803904 
L 100.294828 166.567038 
L 101.147779 182.211762 
L 101.467636 179.424037 
L 102.107349 170.79938 
L 102.853682 160.079729 
L 103.280157 156.510815 
L 103.600014 155.134241 
L 103.706633 154.943276 
L 104.026489 153.308953 
L 104.666203 148.665083 
L 104.98606 147.47302 
L 105.199297 147.333231 
L 105.412535 147.400519 
L 105.625773 147.561844 
L 105.839011 147.333232 
L 105.94563 147.425904 
L 106.158867 148.095287 
L 106.372105 149.503205 
L 107.118438 157.743639 
L 107.651532 166.479382 
L 108.611102 184.417928 
L 108.717721 183.912745 
L 108.930959 180.250618 
L 109.357434 175.083417 
L 110.210386 159.859935 
L 110.636861 154.284484 
L 111.063337 151.887084 
L 111.169956 151.756699 
L 111.276575 151.806359 
L 111.489812 152.383049 
L 111.70305 151.992184 
L 112.342764 148.195988 
L 112.66262 147.406834 
L 112.875858 147.371225 
L 112.982477 147.498756 
L 113.302334 146.59915 
L 113.515571 146.552947 
L 113.728809 147.031983 
L 113.942047 148.336362 
L 114.475141 154.432874 
L 115.008236 163.703916 
L 115.967806 183.570749 
L 116.181044 184.013112 
L 116.394282 182.54484 
L 116.607519 180.485671 
L 117.780327 158.169402 
L 118.313422 152.718304 
L 118.52666 152.009755 
L 118.633279 151.946402 
L 118.846516 152.290474 
L 118.953135 152.521255 
L 119.272992 151.949813 
L 119.48623 152.03823 
L 119.699468 152.116367 
L 119.806086 151.946407 
L 120.552419 153.075644 
L 120.872275 152.01708 
L 120.978894 151.946402 
L 121.085513 152.042506 
L 121.298751 152.806044 
L 121.618608 155.441653 
L 122.151702 162.030216 
L 122.578178 170.028212 
L 123.111272 180.624655 
L 123.537748 183.722004 
L 124.070842 179.271849 
L 124.28408 175.696198 
L 125.137031 160.583976 
L 125.670126 155.055564 
L 125.883364 154.208199 
L 125.989983 154.082007 
L 126.096601 154.131264 
L 126.309839 154.681336 
L 126.523077 155.32544 
L 127.056171 153.839794 
L 127.482647 152.840821 
L 128.12236 154.264068 
L 128.335598 153.682375 
L 128.442217 153.584535 
L 128.548836 153.643011 
L 128.762074 154.319077 
L 128.975312 155.869864 
L 129.615025 163.980651 
L 130.041501 172.105569 
L 130.574595 182.267617 
L 131.001071 185.710513 
L 131.320927 183.314961 
L 131.747403 179.285003 
L 132.920211 160.105191 
L 133.240068 157.60711 
L 133.453305 157.04024 
L 133.559924 157.022754 
L 133.773162 157.461831 
L 134.093019 156.420631 
L 134.199638 156.256934 
L 134.626113 153.834016 
L 134.732732 153.671394 
L 134.839351 153.821376 
L 135.479064 156.134951 
L 135.585683 156.017921 
L 135.798921 155.426861 
L 135.90554 155.356618 
L 136.012159 155.421872 
L 136.225397 156.110553 
L 136.438635 157.672828 
L 136.971729 164.567809 
L 137.504824 174.539199 
L 137.82468 180.937424 
L 138.464394 186.620979 
L 138.571013 186.675387 
L 139.210726 180.969528 
L 139.423964 177.784156 
L 139.957058 167.938745 
L 140.490153 161.306094 
L 140.810009 159.43033 
L 141.023247 159.166218 
L 141.129866 159.285238 
L 142.089436 156.300091 
L 142.196055 156.211136 
L 142.302674 156.30035 
L 142.622531 157.283659 
L 142.942387 158.298953 
L 143.049006 158.696287 
L 143.155625 158.641075 
L 143.368863 158.357189 
L 143.475482 158.444774 
L 143.68872 159.167858 
L 143.901957 160.752361 
L 144.541671 168.959406 
L 145.394622 182.373439 
L 145.927716 186.744134 
L 146.034335 186.740481 
L 146.247573 185.379949 
L 146.887287 179.24152 
L 147.846857 164.866259 
L 148.166713 162.21918 
L 148.379951 161.54095 
L 148.48657 161.473014 
L 148.593189 161.238768 
L 149.339521 157.835108 
L 149.659378 157.239613 
L 149.765997 157.338836 
L 150.085854 158.343705 
L 150.725567 161.222819 
L 150.832186 161.187523 
L 150.938805 161.303533 
L 151.152043 162.078433 
L 151.471899 164.606359 
L 151.898375 169.843504 
L 152.751326 181.889141 
L 153.391039 187.36616 
L 153.497658 187.362745 
L 154.030753 182.923321 
L 154.563847 177.360809 
L 155.096942 169.222559 
L 155.523417 165.178805 
L 155.843274 163.835826 
L 155.949893 163.677005 
L 157.016082 157.355111 
L 157.122701 157.239613 
L 157.22932 157.42427 
L 157.549176 159.347955 
L 158.295509 163.528703 
L 158.935222 168.254741 
L 159.681554 180.855659 
L 160.001411 185.202517 
L 160.534506 190.624475 
L 160.747743 190.858763 
L 160.960981 190.887961 
L 161.174219 189.464709 
L 162.02717 180.844084 
L 162.98674 167.708885 
L 164.159548 160.232403 
L 164.479405 159.275613 
L 164.586024 159.193465 
L 164.692643 159.300155 
L 165.012499 160.362615 
L 165.438975 162.930042 
L 166.398545 171.163544 
L 167.89121 189.421415 
L 168.211066 191.461846 
L 168.424304 191.495893 
L 168.637542 191.360038 
L 168.957399 188.59388 
L 169.703731 180.481191 
L 170.343444 171.069918 
L 171.409633 162.288306 
L 171.836109 160.514425 
L 172.049347 160.157096 
L 172.155965 160.242612 
L 172.369203 160.922506 
L 172.68906 162.487496 
L 173.115536 165.735061 
L 173.861868 173.55059 
L 174.928057 186.170623 
L 175.56777 192.171076 
L 175.887627 192.289462 
L 175.994246 192.243244 
L 176.740578 185.247487 
L 178.872956 163.362116 
L 179.512669 160.157097 
L 179.619288 160.296302 
L 179.832526 161.455999 
L 180.898715 170.105204 
L 181.645047 179.738851 
L 182.178142 185.955246 
L 182.924474 193.688659 
L 183.244331 193.942715 
L 183.457569 193.897603 
L 183.564188 193.639477 
L 184.31052 186.145768 
L 184.950233 178.710747 
L 185.803184 168.642307 
L 186.336279 164.517156 
L 186.762755 162.659138 
L 186.975992 162.31263 
L 187.082611 162.413707 
L 187.295849 163.137774 
L 187.615706 164.760553 
L 188.042181 168.077958 
L 188.681895 175.178347 
L 190.06794 191.885583 
L 190.387797 194.858817 
L 190.707654 195.110169 
L 190.920892 195.059688 
L 191.134129 194.836371 
L 191.453986 190.588574 
L 192.306937 180.972546 
L 193.159888 170.545229 
L 193.692983 166.068791 
L 194.119459 163.914809 
L 194.439315 163.111866 
L 194.652553 163.616986 
L 195.079029 165.73178 
L 195.505504 169.07788 
L 196.145218 176.17952 
L 197.104788 187.200477 
L 197.744501 193.727246 
L 197.957739 194.456714 
L 198.277596 194.510836 
L 198.490833 194.334949 
L 198.704071 192.759258 
L 199.77026 181.499987 
L 200.623211 170.842864 
L 201.262925 165.504328 
L 201.6894 163.432691 
L 201.902638 163.111865 
L 202.009257 163.219892 
L 202.222495 163.935599 
L 202.542352 165.533697 
L 202.968827 168.800421 
L 203.608541 175.782555 
L 204.887967 190.922724 
L 205.314443 194.329046 
L 205.527681 194.413694 
L 205.740918 194.324817 
L 205.954156 194.061602 
L 206.167394 192.357185 
L 206.913726 183.792032 
L 207.55344 171.712827 
L 207.979915 165.764151 
L 208.299772 163.850558 
L 208.406391 163.623813 
L 208.832867 161.426196 
L 209.046104 160.526107 
L 209.365961 159.240809 
L 209.579199 159.161314 
L 209.792437 159.607092 
L 210.112293 161.218144 
L 210.752007 166.573681 
L 211.498339 175.419921 
L 212.457909 187.631124 
L 212.884385 190.974928 
L 213.097622 191.341957 
L 213.31086 191.223939 
L 213.417479 191.100751 
L 213.630717 189.570304 
L 213.950574 186.258037 
L 215.23 159.176082 
L 215.549857 155.022161 
L 215.869714 153.27262 
L 216.082952 153.166511 
L 216.296189 153.757606 
L 216.402808 154.232358 
L 216.829284 153.126373 
L 217.149141 153.895141 
L 217.362378 155.145323 
L 218.321948 163.266995 
L 219.1749 174.873653 
L 219.814613 183.119702 
L 220.560945 188.799423 
L 220.667564 188.12278 
L 220.880802 189.321664 
L 220.987421 189.228693 
L 221.307278 185.233819 
L 223.226418 153.473252 
L 223.333037 153.126375 
L 223.439656 153.190752 
L 223.866131 154.560731 
L 223.97275 154.662565 
L 224.185988 154.203741 
L 224.292607 154.165423 
L 224.505845 154.486008 
L 224.93232 156.056373 
L 225.785271 164.679688 
L 226.744841 177.176808 
L 227.171317 182.485195 
L 227.917649 188.459184 
L 228.450744 191.487998 
L 228.557363 191.407812 
L 228.877219 188.139561 
L 229.410314 179.11373 
L 230.476503 160.065544 
L 230.79636 157.624403 
L 230.902978 159.698832 
L 231.009597 159.645217 
L 231.116216 159.654462 
L 232.182405 154.26834 
L 232.289024 154.316116 
L 232.502262 155.226648 
L 232.822119 158.588118 
L 234.528021 182.638107 
L 235.274353 188.673957 
L 235.59421 190.090174 
L 235.914067 189.639223 
L 236.127304 189.086053 
L 236.447161 185.766349 
L 237.406731 173.132236 
L 238.046445 162.54666 
L 238.153064 162.697967 
L 238.686158 155.884903 
L 239.112634 152.589845 
L 239.325871 151.936693 
L 239.539109 151.964027 
L 239.752347 152.667772 
L 240.072204 154.81084 
L 240.711917 161.628754 
L 241.778106 177.029631 
L 242.631057 187.681721 
L 242.950914 187.938305 
L 243.164152 187.858394 
L 243.484008 187.353359 
L 243.803865 184.010992 
L 244.870054 169.836241 
L 245.509768 159.598257 
L 246.469338 147.593324 
L 246.682575 146.217236 
L 246.789194 146.036534 
L 246.895813 146.194928 
L 247.109051 147.524014 
L 248.068621 159.045939 
L 250.09438 186.084331 
L 250.307618 186.551216 
L 250.627475 186.422974 
L 250.840712 184.979484 
L 250.947331 184.7279 
L 251.267188 181.149867 
L 252.333377 166.369995 
L 253.079709 154.491126 
L 253.612804 148.270682 
L 253.932661 146.102888 
L 254.145898 145.511162 
L 254.252517 145.511162 
L 254.465755 146.087937 
L 254.785612 148.202746 
L 255.318706 154.141451 
L 255.95842 163.6609 
L 256.491514 171.473095 
L 257.557703 184.865972 
L 257.770941 185.102081 
L 258.090798 185.033129 
L 258.304035 184.758873 
L 258.623892 181.400117 
L 259.7967 165.44828 
L 260.75627 150.956934 
L 261.182746 146.856112 
L 261.502602 145.340659 
L 261.609221 145.200603 
L 261.71584 145.256193 
L 261.929078 145.987076 
L 262.248935 148.337441 
L 262.782029 154.784745 
L 263.528361 166.431261 
L 264.061456 174.911886 
L 264.914407 185.662188 
L 265.234264 186.182855 
L 265.447502 186.238224 
L 265.767358 186.005987 
L 265.873977 185.781117 
L 266.726928 175.304782 
L 267.686498 161.063788 
L 268.432831 151.288701 
L 268.752687 148.944441 
L 269.072544 148.295917 
L 269.179163 148.295918 
L 269.392401 149.04232 
L 269.712257 151.312994 
L 270.245352 157.568758 
L 272.484349 186.496972 
L 272.697587 186.747982 
L 273.124062 186.629635 
L 273.230681 186.496049 
L 274.083632 176.852928 
L 274.510108 172.582099 
L 274.829965 168.929275 
L 275.789535 154.037978 
L 276.21601 150.645768 
L 276.429248 150.286505 
L 276.535867 150.164528 
L 276.642486 150.414581 
L 276.855724 152.025347 
L 277.388818 157.327316 
L 278.455007 168.037831 
L 279.627815 184.292057 
L 280.16091 186.787592 
L 280.267528 186.72291 
L 281.013861 183.602635 
L 281.333717 180.690038 
L 282.293287 169.528483 
L 283.03962 160.148375 
L 283.466095 156.337933 
L 283.892571 154.86955 
L 284.319047 154.958654 
L 284.532284 155.260588 
L 284.745522 156.089139 
L 285.065379 158.711568 
L 285.811711 168.039261 
L 286.344806 176.242159 
L 286.8779 184.070377 
L 287.517613 187.004421 
L 287.624232 187.09783 
L 287.83747 186.437618 
L 288.583802 182.803147 
L 289.969848 166.164824 
L 290.609562 157.855362 
L 291.036037 154.799723 
L 291.249275 154.374757 
L 291.675751 154.421483 
L 291.888988 154.957972 
L 292.208845 156.874112 
L 292.635321 161.56056 
L 294.447842 186.266756 
L 294.980936 188.365854 
L 295.300793 188.248012 
L 295.62065 186.829598 
L 296.047125 184.207575 
L 298.179503 160.464165 
L 298.605979 157.756026 
L 298.819217 157.199548 
L 299.032455 157.285536 
L 299.352311 159.05484 
L 299.778787 163.10837 
L 300.4185 171.666665 
L 301.164832 180.925546 
L 301.911165 188.026031 
L 302.444259 190.291089 
L 302.764116 190.173363 
L 303.083973 189.856426 
L 303.723686 186.146843 
L 305.642826 164.997152 
L 306.175921 158.91736 
L 306.389159 158.171999 
L 306.495777 158.256243 
L 306.709015 159.362313 
L 307.028872 163.135255 
L 307.455347 168.748642 
L 309.054631 186.750367 
L 309.694344 190.632259 
L 310.014201 191.757535 
L 310.334058 191.714771 
L 310.547296 191.579754 
L 310.867152 189.884243 
L 311.293628 185.44146 
L 312.466436 169.848641 
L 313.212768 160.302709 
L 313.639244 156.927784 
L 313.852481 156.542105 
L 313.9591 156.542107 
L 314.172338 157.244871 
L 314.492195 159.316694 
L 315.131908 165.643075 
L 316.731192 184.741487 
L 317.157667 187.54319 
L 317.477524 189.032392 
L 317.584143 189.082057 
L 317.904 188.729974 
L 318.117237 188.329355 
L 318.223856 187.904379 
L 318.543713 183.579503 
L 319.503283 169.263727 
L 321.209185 142.34269 
L 321.422423 141.889313 
L 321.529042 142.011851 
L 321.74228 143.167451 
L 322.062137 147.309968 
L 324.087896 180.47169 
L 324.62099 185.996825 
L 324.834228 186.773057 
L 325.154085 186.476043 
L 325.473941 185.899014 
L 325.687179 185.131882 
L 326.326892 174.070629 
L 327.286463 153.472431 
L 328.352652 131.126267 
L 328.779127 124.842163 
L 328.992365 123.491277 
L 329.205603 123.309691 
L 329.418841 123.387183 
L 329.632078 124.200773 
L 330.058554 127.572158 
L 330.48503 133.120969 
L 330.911505 141.312497 
L 332.617407 177.475846 
L 332.937264 181.314577 
L 333.150502 182.77849 
L 333.36374 182.591951 
L 333.470359 182.392441 
L 334.110072 175.288404 
L 334.536548 168.793578 
L 336.029212 132.209627 
L 336.775545 121.329918 
L 337.095401 118.958605 
L 337.948352 116.009266 
L 338.16159 115.73993 
L 338.374828 115.74748 
L 338.588066 116.021801 
L 338.907922 116.595325 
L 339.227779 115.782823 
L 339.441017 115.714254 
L 339.654255 115.999631 
L 339.867493 115.714254 
L 339.974111 115.813191 
L 340.187349 116.852503 
L 340.507206 120.264451 
L 341.146919 129.046714 
L 341.253538 129.000133 
L 341.680014 129.059763 
L 341.893252 129.311699 
L 342.213108 130.117917 
L 343.06606 133.672114 
L 343.279297 135.480478 
L 344.452105 151.665274 
L 346.584483 189.249068 
L 347.010959 190.751984 
L 347.224197 189.811217 
L 347.437434 187.369036 
L 348.397004 172.007879 
L 349.463193 154.171553 
L 350.422764 142.70127 
L 350.636001 141.654029 
L 350.74262 141.486935 
L 350.849239 141.704973 
L 351.275715 144.554231 
L 351.595571 149.713886 
L 352.235285 161.260199 
L 353.727949 185.453289 
L 354.154425 187.831547 
L 354.794138 189.047715 
L 354.900757 189.008485 
L 355.433852 187.250725 
L 355.966946 184.525832 
L 356.286803 182.146205 
L 357.033135 173.10733 
L 358.312562 154.203076 
L 358.5258 153.549104 
L 358.632419 153.507899 
L 358.739038 153.652771 
L 358.952275 154.89795 
L 359.378751 159.821092 
L 360.338321 173.59165 
L 361.084653 182.139723 
L 361.40451 183.477254 
L 361.724367 183.900473 
L 361.830986 183.936537 
L 362.577318 189.145671 
L 363.110412 190.718504 
L 363.643507 191.605432 
L 363.963364 191.91372 
L 364.709696 190.469249 
L 364.816315 190.3397 
L 365.456028 187.751586 
L 365.882504 187.76579 
L 366.095742 188.395554 
L 366.522217 191.568631 
L 367.055312 197.727107 
L 367.908263 210.755782 
L 369.400927 234.165874 
L 369.720784 236.092244 
L 369.827403 236.150062 
L 370.14726 235.644152 
L 370.467116 234.351195 
L 370.680354 232.313267 
L 372.173019 215.230124 
L 373.772302 198.460925 
L 374.198778 192.711246 
L 375.798061 162.581262 
L 376.117918 160.400384 
L 376.86425 160.421112 
L 377.077488 161.057243 
L 377.397345 163.336415 
L 377.717201 167.584804 
L 378.463534 182.441325 
L 378.996628 190.269556 
L 380.702531 206.897372 
L 380.80915 206.178355 
L 381.662101 192.930314 
L 382.72829 176.470162 
L 382.941528 175.047672 
L 383.048146 174.913773 
L 383.154765 175.286206 
L 383.368003 178.037421 
L 383.581241 183.61429 
L 384.007716 205.587188 
L 384.64743 209.138323 
L 385.073905 213.320411 
L 385.393762 216.476949 
L 385.820238 218.93842 
L 386.246713 222.645917 
L 386.779808 229.597222 
L 387.206283 237.986002 
L 387.312902 240.723667 
L 387.845997 239.251373 
L 388.272472 237.475475 
L 388.48571 232.850211 
L 388.48571 232.850211 
" clip-path="url(#p24fead16c9)" style="fill: none; stroke: #ff7f0e; stroke-width: 1.5; stroke-linecap: square"/>
   </g>
   <g id="patch_3">
    <path d="M 47.598438 273.312 
L 47.598438 7.2 
" style="fill: none; stroke: #000000; stroke-width: 0.8; stroke-linejoin: miter; stroke-linecap: square"/>
   </g>
   <g id="patch_4">
    <path d="M 404.718438 273.312 
L 404.718438 7.2 
" style="fill: none; stroke: #000000; stroke-width: 0.8; stroke-linejoin: miter; stroke-linecap: square"/>
   </g>
   <g id="patch_5">
    <path d="M 47.598437 273.312 
L 404.718438 273.312 
" style="fill: none; stroke: #000000; stroke-width: 0.8; stroke-linejoin: miter; stroke-linecap: square"/>
   </g>
   <g id="patch_6">
    <path d="M 47.598437 7.2 
L 404.718438 7.2 
" style="fill: none; stroke: #000000; stroke-width: 0.8; stroke-linejoin: miter; stroke-linecap: square"/>
   </g>
   <g id="legend_1">
    <g id="patch_7">
     <path d="M 257.234063 29.878125 
L 397.718438 29.878125 
Q 399.718438 29.878125 399.718438 27.878125 
L 399.718438 14.2 
Q 399.718438 12.2 397.718438 12.2 
L 257.234063 12.2 
Q 255.234063 12.2 255.234063 14.2 
L 255.234063 27.878125 
Q 255.234063 29.878125 257.234063 29.878125 
z
" style="fill: #ffffff; opacity: 0.8; stroke: #cccccc; stroke-linejoin: miter"/>
    </g>
    <g id="line2d_31">
     <path d="M 259.234063 20.298437 
L 269.234063 20.298437 
L 279.234063 20.298437 
" style="fill: none; stroke: #1f77b4; stroke-width: 1.5; stroke-linecap: square"/>
    </g>
    <g id="text_16">
     <!-- local -->
     <g transform="translate(287.234063 23.798437)scale(0.1 -0.1)">
      <defs>
       <path id="DejaVuSans-6c" d="M 603 4863 
L 1178 4863 
L 1178 0 
L 603 0 
L 603 4863 
z
" transform="scale(0.015625)"/>
       <path id="DejaVuSans-6f" d="M 1959 3097 
Q 1497 3097 1228 2736 
Q 959 2375 959 1747 
Q 959 1119 1226 758 
Q 1494 397 1959 397 
Q 2419 397 2687 759 
Q 2956 1122 2956 1747 
Q 2956 2369 2687 2733 
Q 2419 3097 1959 3097 
z
M 1959 3584 
Q 2709 3584 3137 3096 
Q 3566 2609 3566 1747 
Q 3566 888 3137 398 
Q 2709 -91 1959 -91 
Q 1206 -91 779 398 
Q 353 888 353 1747 
Q 353 2609 779 3096 
Q 1206 3584 1959 3584 
z
" transform="scale(0.015625)"/>
       <path id="DejaVuSans-63" d="M 3122 3366 
L 3122 2828 
Q 2878 2963 2633 3030 
Q 2388 3097 2138 3097 
Q 1578 3097 1268 2742 
Q 959 2388 959 1747 
Q 959 1106 1268 751 
Q 1578 397 2138 397 
Q 2388 397 2633 464 
Q 2878 531 3122 666 
L 3122 134 
Q 2881 22 2623 -34 
Q 2366 -91 2075 -91 
Q 1284 -91 818 406 
Q 353 903 353 1747 
Q 353 2603 823 3093 
Q 1294 3584 2113 3584 
Q 2378 3584 2631 3529 
Q 2884 3475 3122 3366 
z
" transform="scale(0.015625)"/>
      </defs>
      <use xlink:href="#DejaVuSans-6c"/>
      <use xlink:href="#DejaVuSans-6f" x="27.783203"/>
      <use xlink:href="#DejaVuSans-63" x="88.964844"/>
      <use xlink:href="#DejaVuSans-61" x="143.945312"/>
      <use xlink:href="#DejaVuSans-6c" x="205.224609"/>
     </g>
    </g>
    <g id="line2d_32">
     <path d="M 330.535625 20.298437 
L 340.535625 20.298437 
L 350.535625 20.298437 
" style="fill: none; stroke: #ff7f0e; stroke-width: 1.5; stroke-linecap: square"/>
    </g>
    <g id="text_17">
     <!-- blk 100 -->
     <g transform="translate(358.535625 23.798437)scale(0.1 -0.1)">
      <defs>
       <path id="DejaVuSans-62" d="M 3116 1747 
Q 3116 2381 2855 2742 
Q 2594 3103 2138 3103 
Q 1681 3103 1420 2742 
Q 1159 2381 1159 1747 
Q 1159 1113 1420 752 
Q 1681 391 2138 391 
Q 2594 391 2855 752 
Q 3116 1113 3116 1747 
z
M 1159 2969 
Q 1341 3281 1617 3432 
Q 1894 3584 2278 3584 
Q 2916 3584 3314 3078 
Q 3713 2572 3713 1747 
Q 3713 922 3314 415 
Q 2916 -91 2278 -91 
Q 1894 -91 1617 61 
Q 1341 213 1159 525 
L 1159 0 
L 581 0 
L 581 4863 
L 1159 4863 
L 1159 2969 
z
" transform="scale(0.015625)"/>
       <path id="DejaVuSans-6b" d="M 581 4863 
L 1159 4863 
L 1159 1991 
L 2875 3500 
L 3609 3500 
L 1753 1863 
L 3688 0 
L 2938 0 
L 1159 1709 
L 1159 0 
L 581 0 
L 581 4863 
z
" transform="scale(0.015625)"/>
      </defs>
      <use xlink:href="#DejaVuSans-62"/>
      <use xlink:href="#DejaVuSans-6c" x="63.476562"/>
      <use xlink:href="#DejaVuSans-6b" x="91.259766"/>
      <use xlink:href="#DejaVuSans-20" x="149.169922"/>
      <use xlink:href="#DejaVuSans-31" x="180.957031"/>
      <use xlink:href="#DejaVuSans-30" x="244.580078"/>
      <use xlink:href="#DejaVuSans-30" x="308.203125"/>
     </g>
    </g>
   </g>
  </g>
 </g>
 <defs>
  <clipPath id="p24fead16c9">
   <rect x="47.598438" y="7.2" width="357.12" height="266.112"/>
  </clipPath>
 </defs>
</svg>
