<?xml version="1.0" encoding="utf-8" standalone="no"?>
<!DOCTYPE svg PUBLIC "-//W3C//DTD SVG 1.1//EN"
  "http://www.w3.org/Graphics/SVG/1.1/DTD/svg11.dtd">
<svg xmlns:xlink="http://www.w3.org/1999/xlink" width="430.5075pt" height="331.084266pt" viewBox="0 0 430.5075 331.084266" xmlns="http://www.w3.org/2000/svg" version="1.1">
 <defs>
  <style type="text/css">*{stroke-linejoin: round; stroke-linecap: butt}</style>
 </defs>
 <g id="figure_1">
  <g id="patch_1">
   <path d="M 0 331.084266 
L 430.5075 331.084266 
L 430.5075 0 
L 0 0 
L 0 331.084266 
z
" style="fill: none"/>
  </g>
  <g id="axes_1">
   <g id="patch_2">
    <path d="M 66.1875 279.010828 
L 423.3075 279.010828 
L 423.3075 12.898828 
L 66.1875 12.898828 
L 66.1875 279.010828 
z
" style="fill: none"/>
   </g>
   <g id="matplotlib.axis_1">
    <g id="xtick_1">
     <g id="line2d_1">
      <path d="M 87.218078 279.010828 
L 87.218078 12.898828 
" clip-path="url(#p2b6cf647a1)" style="fill: none; stroke: #b0b0b0; stroke-width: 0.8; stroke-linecap: square"/>
     </g>
     <g id="line2d_2">
      <defs>
       <path id="md39032bed2" d="M 0 0 
L 0 3.5 
" style="stroke: #000000; stroke-width: 0.8"/>
      </defs>
      <g>
       <use xlink:href="#md39032bed2" x="87.218078" y="279.010828" style="stroke: #000000; stroke-width: 0.8"/>
      </g>
     </g>
     <g id="text_1">
      <!-- −3000 -->
      <g transform="translate(61.845812 297.408484) scale(0.15 -0.15)">
       <defs>
        <path id="DejaVuSans-2212" d="M 678 2272 
L 4684 2272 
L 4684 1741 
L 678 1741 
L 678 2272 
z
" transform="scale(0.015625)"/>
        <path id="DejaVuSans-33" d="M 2597 2516 
Q 3050 2419 3304 2112 
Q 3559 1806 3559 1356 
Q 3559 666 3084 287 
Q 2609 -91 1734 -91 
Q 1441 -91 1130 -33 
Q 819 25 488 141 
L 488 750 
Q 750 597 1062 519 
Q 1375 441 1716 441 
Q 2309 441 2620 675 
Q 2931 909 2931 1356 
Q 2931 1769 2642 2001 
Q 2353 2234 1838 2234 
L 1294 2234 
L 1294 2753 
L 1863 2753 
Q 2328 2753 2575 2939 
Q 2822 3125 2822 3475 
Q 2822 3834 2567 4026 
Q 2313 4219 1838 4219 
Q 1578 4219 1281 4162 
Q 984 4106 628 3988 
L 628 4550 
Q 988 4650 1302 4700 
Q 1616 4750 1894 4750 
Q 2613 4750 3031 4423 
Q 3450 4097 3450 3541 
Q 3450 3153 3228 2886 
Q 3006 2619 2597 2516 
z
" transform="scale(0.015625)"/>
        <path id="DejaVuSans-30" d="M 2034 4250 
Q 1547 4250 1301 3770 
Q 1056 3291 1056 2328 
Q 1056 1369 1301 889 
Q 1547 409 2034 409 
Q 2525 409 2770 889 
Q 3016 1369 3016 2328 
Q 3016 3291 2770 3770 
Q 2525 4250 2034 4250 
z
M 2034 4750 
Q 2819 4750 3233 4129 
Q 3647 3509 3647 2328 
Q 3647 1150 3233 529 
Q 2819 -91 2034 -91 
Q 1250 -91 836 529 
Q 422 1150 422 2328 
Q 422 3509 836 4129 
Q 1250 4750 2034 4750 
z
" transform="scale(0.015625)"/>
       </defs>
       <use xlink:href="#DejaVuSans-2212"/>
       <use xlink:href="#DejaVuSans-33" x="83.789062"/>
       <use xlink:href="#DejaVuSans-30" x="147.412109"/>
       <use xlink:href="#DejaVuSans-30" x="211.035156"/>
       <use xlink:href="#DejaVuSans-30" x="274.658203"/>
      </g>
     </g>
    </g>
    <g id="xtick_2">
     <g id="line2d_3">
      <path d="M 140.527527 279.010828 
L 140.527527 12.898828 
" clip-path="url(#p2b6cf647a1)" style="fill: none; stroke: #b0b0b0; stroke-width: 0.8; stroke-linecap: square"/>
     </g>
     <g id="line2d_4">
      <g>
       <use xlink:href="#md39032bed2" x="140.527527" y="279.010828" style="stroke: #000000; stroke-width: 0.8"/>
      </g>
     </g>
     <g id="text_2">
      <!-- −2500 -->
      <g transform="translate(115.155261 297.408484) scale(0.15 -0.15)">
       <defs>
        <path id="DejaVuSans-32" d="M 1228 531 
L 3431 531 
L 3431 0 
L 469 0 
L 469 531 
Q 828 903 1448 1529 
Q 2069 2156 2228 2338 
Q 2531 2678 2651 2914 
Q 2772 3150 2772 3378 
Q 2772 3750 2511 3984 
Q 2250 4219 1831 4219 
Q 1534 4219 1204 4116 
Q 875 4013 500 3803 
L 500 4441 
Q 881 4594 1212 4672 
Q 1544 4750 1819 4750 
Q 2544 4750 2975 4387 
Q 3406 4025 3406 3419 
Q 3406 3131 3298 2873 
Q 3191 2616 2906 2266 
Q 2828 2175 2409 1742 
Q 1991 1309 1228 531 
z
" transform="scale(0.015625)"/>
        <path id="DejaVuSans-35" d="M 691 4666 
L 3169 4666 
L 3169 4134 
L 1269 4134 
L 1269 2991 
Q 1406 3038 1543 3061 
Q 1681 3084 1819 3084 
Q 2600 3084 3056 2656 
Q 3513 2228 3513 1497 
Q 3513 744 3044 326 
Q 2575 -91 1722 -91 
Q 1428 -91 1123 -41 
Q 819 9 494 109 
L 494 744 
Q 775 591 1075 516 
Q 1375 441 1709 441 
Q 2250 441 2565 725 
Q 2881 1009 2881 1497 
Q 2881 1984 2565 2268 
Q 2250 2553 1709 2553 
Q 1456 2553 1204 2497 
Q 953 2441 691 2322 
L 691 4666 
z
" transform="scale(0.015625)"/>
       </defs>
       <use xlink:href="#DejaVuSans-2212"/>
       <use xlink:href="#DejaVuSans-32" x="83.789062"/>
       <use xlink:href="#DejaVuSans-35" x="147.412109"/>
       <use xlink:href="#DejaVuSans-30" x="211.035156"/>
       <use xlink:href="#DejaVuSans-30" x="274.658203"/>
      </g>
     </g>
    </g>
    <g id="xtick_3">
     <g id="line2d_5">
      <path d="M 193.836976 279.010828 
L 193.836976 12.898828 
" clip-path="url(#p2b6cf647a1)" style="fill: none; stroke: #b0b0b0; stroke-width: 0.8; stroke-linecap: square"/>
     </g>
     <g id="line2d_6">
      <g>
       <use xlink:href="#md39032bed2" x="193.836976" y="279.010828" style="stroke: #000000; stroke-width: 0.8"/>
      </g>
     </g>
     <g id="text_3">
      <!-- −2000 -->
      <g transform="translate(168.46471 297.408484) scale(0.15 -0.15)">
       <use xlink:href="#DejaVuSans-2212"/>
       <use xlink:href="#DejaVuSans-32" x="83.789062"/>
       <use xlink:href="#DejaVuSans-30" x="147.412109"/>
       <use xlink:href="#DejaVuSans-30" x="211.035156"/>
       <use xlink:href="#DejaVuSans-30" x="274.658203"/>
      </g>
     </g>
    </g>
    <g id="xtick_4">
     <g id="line2d_7">
      <path d="M 247.146425 279.010828 
L 247.146425 12.898828 
" clip-path="url(#p2b6cf647a1)" style="fill: none; stroke: #b0b0b0; stroke-width: 0.8; stroke-linecap: square"/>
     </g>
     <g id="line2d_8">
      <g>
       <use xlink:href="#md39032bed2" x="247.146425" y="279.010828" style="stroke: #000000; stroke-width: 0.8"/>
      </g>
     </g>
     <g id="text_4">
      <!-- −1500 -->
      <g transform="translate(221.77416 297.408484) scale(0.15 -0.15)">
       <defs>
        <path id="DejaVuSans-31" d="M 794 531 
L 1825 531 
L 1825 4091 
L 703 3866 
L 703 4441 
L 1819 4666 
L 2450 4666 
L 2450 531 
L 3481 531 
L 3481 0 
L 794 0 
L 794 531 
z
" transform="scale(0.015625)"/>
       </defs>
       <use xlink:href="#DejaVuSans-2212"/>
       <use xlink:href="#DejaVuSans-31" x="83.789062"/>
       <use xlink:href="#DejaVuSans-35" x="147.412109"/>
       <use xlink:href="#DejaVuSans-30" x="211.035156"/>
       <use xlink:href="#DejaVuSans-30" x="274.658203"/>
      </g>
     </g>
    </g>
    <g id="xtick_5">
     <g id="line2d_9">
      <path d="M 300.455874 279.010828 
L 300.455874 12.898828 
" clip-path="url(#p2b6cf647a1)" style="fill: none; stroke: #b0b0b0; stroke-width: 0.8; stroke-linecap: square"/>
     </g>
     <g id="line2d_10">
      <g>
       <use xlink:href="#md39032bed2" x="300.455874" y="279.010828" style="stroke: #000000; stroke-width: 0.8"/>
      </g>
     </g>
     <g id="text_5">
      <!-- −1000 -->
      <g transform="translate(275.083609 297.408484) scale(0.15 -0.15)">
       <use xlink:href="#DejaVuSans-2212"/>
       <use xlink:href="#DejaVuSans-31" x="83.789062"/>
       <use xlink:href="#DejaVuSans-30" x="147.412109"/>
       <use xlink:href="#DejaVuSans-30" x="211.035156"/>
       <use xlink:href="#DejaVuSans-30" x="274.658203"/>
      </g>
     </g>
    </g>
    <g id="xtick_6">
     <g id="line2d_11">
      <path d="M 353.765324 279.010828 
L 353.765324 12.898828 
" clip-path="url(#p2b6cf647a1)" style="fill: none; stroke: #b0b0b0; stroke-width: 0.8; stroke-linecap: square"/>
     </g>
     <g id="line2d_12">
      <g>
       <use xlink:href="#md39032bed2" x="353.765324" y="279.010828" style="stroke: #000000; stroke-width: 0.8"/>
      </g>
     </g>
     <g id="text_6">
      <!-- −500 -->
      <g transform="translate(333.164933 297.408484) scale(0.15 -0.15)">
       <use xlink:href="#DejaVuSans-2212"/>
       <use xlink:href="#DejaVuSans-35" x="83.789062"/>
       <use xlink:href="#DejaVuSans-30" x="147.412109"/>
       <use xlink:href="#DejaVuSans-30" x="211.035156"/>
      </g>
     </g>
    </g>
    <g id="xtick_7">
     <g id="line2d_13">
      <path d="M 407.074773 279.010828 
L 407.074773 12.898828 
" clip-path="url(#p2b6cf647a1)" style="fill: none; stroke: #b0b0b0; stroke-width: 0.8; stroke-linecap: square"/>
     </g>
     <g id="line2d_14">
      <g>
       <use xlink:href="#md39032bed2" x="407.074773" y="279.010828" style="stroke: #000000; stroke-width: 0.8"/>
      </g>
     </g>
     <g id="text_7">
      <!-- 0 -->
      <g transform="translate(402.302898 297.408484) scale(0.15 -0.15)">
       <use xlink:href="#DejaVuSans-30"/>
      </g>
     </g>
    </g>
    <g id="text_8">
     <!-- Position (μm) -->
     <g transform="translate(178.735 319.724891) scale(0.2 -0.2)">
      <defs>
       <path id="DejaVuSans-50" d="M 1259 4147 
L 1259 2394 
L 2053 2394 
Q 2494 2394 2734 2622 
Q 2975 2850 2975 3272 
Q 2975 3691 2734 3919 
Q 2494 4147 2053 4147 
L 1259 4147 
z
M 628 4666 
L 2053 4666 
Q 2838 4666 3239 4311 
Q 3641 3956 3641 3272 
Q 3641 2581 3239 2228 
Q 2838 1875 2053 1875 
L 1259 1875 
L 1259 0 
L 628 0 
L 628 4666 
z
" transform="scale(0.015625)"/>
       <path id="DejaVuSans-6f" d="M 1959 3097 
Q 1497 3097 1228 2736 
Q 959 2375 959 1747 
Q 959 1119 1226 758 
Q 1494 397 1959 397 
Q 2419 397 2687 759 
Q 2956 1122 2956 1747 
Q 2956 2369 2687 2733 
Q 2419 3097 1959 3097 
z
M 1959 3584 
Q 2709 3584 3137 3096 
Q 3566 2609 3566 1747 
Q 3566 888 3137 398 
Q 2709 -91 1959 -91 
Q 1206 -91 779 398 
Q 353 888 353 1747 
Q 353 2609 779 3096 
Q 1206 3584 1959 3584 
z
" transform="scale(0.015625)"/>
       <path id="DejaVuSans-73" d="M 2834 3397 
L 2834 2853 
Q 2591 2978 2328 3040 
Q 2066 3103 1784 3103 
Q 1356 3103 1142 2972 
Q 928 2841 928 2578 
Q 928 2378 1081 2264 
Q 1234 2150 1697 2047 
L 1894 2003 
Q 2506 1872 2764 1633 
Q 3022 1394 3022 966 
Q 3022 478 2636 193 
Q 2250 -91 1575 -91 
Q 1294 -91 989 -36 
Q 684 19 347 128 
L 347 722 
Q 666 556 975 473 
Q 1284 391 1588 391 
Q 1994 391 2212 530 
Q 2431 669 2431 922 
Q 2431 1156 2273 1281 
Q 2116 1406 1581 1522 
L 1381 1569 
Q 847 1681 609 1914 
Q 372 2147 372 2553 
Q 372 3047 722 3315 
Q 1072 3584 1716 3584 
Q 2034 3584 2315 3537 
Q 2597 3491 2834 3397 
z
" transform="scale(0.015625)"/>
       <path id="DejaVuSans-69" d="M 603 3500 
L 1178 3500 
L 1178 0 
L 603 0 
L 603 3500 
z
M 603 4863 
L 1178 4863 
L 1178 4134 
L 603 4134 
L 603 4863 
z
" transform="scale(0.015625)"/>
       <path id="DejaVuSans-74" d="M 1172 4494 
L 1172 3500 
L 2356 3500 
L 2356 3053 
L 1172 3053 
L 1172 1153 
Q 1172 725 1289 603 
Q 1406 481 1766 481 
L 2356 481 
L 2356 0 
L 1766 0 
Q 1100 0 847 248 
Q 594 497 594 1153 
L 594 3053 
L 172 3053 
L 172 3500 
L 594 3500 
L 594 4494 
L 1172 4494 
z
" transform="scale(0.015625)"/>
       <path id="DejaVuSans-6e" d="M 3513 2113 
L 3513 0 
L 2938 0 
L 2938 2094 
Q 2938 2591 2744 2837 
Q 2550 3084 2163 3084 
Q 1697 3084 1428 2787 
Q 1159 2491 1159 1978 
L 1159 0 
L 581 0 
L 581 3500 
L 1159 3500 
L 1159 2956 
Q 1366 3272 1645 3428 
Q 1925 3584 2291 3584 
Q 2894 3584 3203 3211 
Q 3513 2838 3513 2113 
z
" transform="scale(0.015625)"/>
       <path id="DejaVuSans-20" transform="scale(0.015625)"/>
       <path id="DejaVuSans-28" d="M 1984 4856 
Q 1566 4138 1362 3434 
Q 1159 2731 1159 2009 
Q 1159 1288 1364 580 
Q 1569 -128 1984 -844 
L 1484 -844 
Q 1016 -109 783 600 
Q 550 1309 550 2009 
Q 550 2706 781 3412 
Q 1013 4119 1484 4856 
L 1984 4856 
z
" transform="scale(0.015625)"/>
       <path id="DejaVuSans-3bc" d="M 544 -1331 
L 544 3500 
L 1119 3500 
L 1119 1325 
Q 1119 872 1334 640 
Q 1550 409 1972 409 
Q 2434 409 2667 671 
Q 2900 934 2900 1459 
L 2900 3500 
L 3475 3500 
L 3475 806 
Q 3475 619 3529 530 
Q 3584 441 3700 441 
Q 3728 441 3778 458 
Q 3828 475 3916 513 
L 3916 50 
Q 3788 -22 3673 -56 
Q 3559 -91 3450 -91 
Q 3234 -91 3106 31 
Q 2978 153 2931 403 
Q 2775 156 2548 32 
Q 2322 -91 2016 -91 
Q 1697 -91 1473 31 
Q 1250 153 1119 397 
L 1119 -1331 
L 544 -1331 
z
" transform="scale(0.015625)"/>
       <path id="DejaVuSans-6d" d="M 3328 2828 
Q 3544 3216 3844 3400 
Q 4144 3584 4550 3584 
Q 5097 3584 5394 3201 
Q 5691 2819 5691 2113 
L 5691 0 
L 5113 0 
L 5113 2094 
Q 5113 2597 4934 2840 
Q 4756 3084 4391 3084 
Q 3944 3084 3684 2787 
Q 3425 2491 3425 1978 
L 3425 0 
L 2847 0 
L 2847 2094 
Q 2847 2600 2669 2842 
Q 2491 3084 2119 3084 
Q 1678 3084 1418 2786 
Q 1159 2488 1159 1978 
L 1159 0 
L 581 0 
L 581 3500 
L 1159 3500 
L 1159 2956 
Q 1356 3278 1631 3431 
Q 1906 3584 2284 3584 
Q 2666 3584 2933 3390 
Q 3200 3197 3328 2828 
z
" transform="scale(0.015625)"/>
       <path id="DejaVuSans-29" d="M 513 4856 
L 1013 4856 
Q 1481 4119 1714 3412 
Q 1947 2706 1947 2009 
Q 1947 1309 1714 600 
Q 1481 -109 1013 -844 
L 513 -844 
Q 928 -128 1133 580 
Q 1338 1288 1338 2009 
Q 1338 2731 1133 3434 
Q 928 4138 513 4856 
z
" transform="scale(0.015625)"/>
      </defs>
      <use xlink:href="#DejaVuSans-50"/>
      <use xlink:href="#DejaVuSans-6f" x="56.677734"/>
      <use xlink:href="#DejaVuSans-73" x="117.859375"/>
      <use xlink:href="#DejaVuSans-69" x="169.958984"/>
      <use xlink:href="#DejaVuSans-74" x="197.742188"/>
      <use xlink:href="#DejaVuSans-69" x="236.951172"/>
      <use xlink:href="#DejaVuSans-6f" x="264.734375"/>
      <use xlink:href="#DejaVuSans-6e" x="325.916016"/>
      <use xlink:href="#DejaVuSans-20" x="389.294922"/>
      <use xlink:href="#DejaVuSans-28" x="421.082031"/>
      <use xlink:href="#DejaVuSans-3bc" x="460.095703"/>
      <use xlink:href="#DejaVuSans-6d" x="523.71875"/>
      <use xlink:href="#DejaVuSans-29" x="621.130859"/>
     </g>
    </g>
   </g>
   <g id="matplotlib.axis_2">
    <g id="ytick_1">
     <g id="line2d_15">
      <path d="M 66.1875 249.442828 
L 423.3075 249.442828 
" clip-path="url(#p2b6cf647a1)" style="fill: none; stroke: #b0b0b0; stroke-width: 0.8; stroke-linecap: square"/>
     </g>
     <g id="line2d_16">
      <defs>
       <path id="m6f3f5b6aff" d="M 0 0 
L -3.5 0 
" style="stroke: #000000; stroke-width: 0.8"/>
      </defs>
      <g>
       <use xlink:href="#m6f3f5b6aff" x="66.1875" y="249.442828" style="stroke: #000000; stroke-width: 0.8"/>
      </g>
     </g>
     <g id="text_9">
      <!-- 20 -->
      <g transform="translate(40.1 255.141656) scale(0.15 -0.15)">
       <use xlink:href="#DejaVuSans-32"/>
       <use xlink:href="#DejaVuSans-30" x="63.623047"/>
      </g>
     </g>
    </g>
    <g id="ytick_2">
     <g id="line2d_17">
      <path d="M 66.1875 190.306828 
L 423.3075 190.306828 
" clip-path="url(#p2b6cf647a1)" style="fill: none; stroke: #b0b0b0; stroke-width: 0.8; stroke-linecap: square"/>
     </g>
     <g id="line2d_18">
      <g>
       <use xlink:href="#m6f3f5b6aff" x="66.1875" y="190.306828" style="stroke: #000000; stroke-width: 0.8"/>
      </g>
     </g>
     <g id="text_10">
      <!-- 40 -->
      <g transform="translate(40.1 196.005656) scale(0.15 -0.15)">
       <defs>
        <path id="DejaVuSans-34" d="M 2419 4116 
L 825 1625 
L 2419 1625 
L 2419 4116 
z
M 2253 4666 
L 3047 4666 
L 3047 1625 
L 3713 1625 
L 3713 1100 
L 3047 1100 
L 3047 0 
L 2419 0 
L 2419 1100 
L 313 1100 
L 313 1709 
L 2253 4666 
z
" transform="scale(0.015625)"/>
       </defs>
       <use xlink:href="#DejaVuSans-34"/>
       <use xlink:href="#DejaVuSans-30" x="63.623047"/>
      </g>
     </g>
    </g>
    <g id="ytick_3">
     <g id="line2d_19">
      <path d="M 66.1875 131.170828 
L 423.3075 131.170828 
" clip-path="url(#p2b6cf647a1)" style="fill: none; stroke: #b0b0b0; stroke-width: 0.8; stroke-linecap: square"/>
     </g>
     <g id="line2d_20">
      <g>
       <use xlink:href="#m6f3f5b6aff" x="66.1875" y="131.170828" style="stroke: #000000; stroke-width: 0.8"/>
      </g>
     </g>
     <g id="text_11">
      <!-- 60 -->
      <g transform="translate(40.1 136.869656) scale(0.15 -0.15)">
       <defs>
        <path id="DejaVuSans-36" d="M 2113 2584 
Q 1688 2584 1439 2293 
Q 1191 2003 1191 1497 
Q 1191 994 1439 701 
Q 1688 409 2113 409 
Q 2538 409 2786 701 
Q 3034 994 3034 1497 
Q 3034 2003 2786 2293 
Q 2538 2584 2113 2584 
z
M 3366 4563 
L 3366 3988 
Q 3128 4100 2886 4159 
Q 2644 4219 2406 4219 
Q 1781 4219 1451 3797 
Q 1122 3375 1075 2522 
Q 1259 2794 1537 2939 
Q 1816 3084 2150 3084 
Q 2853 3084 3261 2657 
Q 3669 2231 3669 1497 
Q 3669 778 3244 343 
Q 2819 -91 2113 -91 
Q 1303 -91 875 529 
Q 447 1150 447 2328 
Q 447 3434 972 4092 
Q 1497 4750 2381 4750 
Q 2619 4750 2861 4703 
Q 3103 4656 3366 4563 
z
" transform="scale(0.015625)"/>
       </defs>
       <use xlink:href="#DejaVuSans-36"/>
       <use xlink:href="#DejaVuSans-30" x="63.623047"/>
      </g>
     </g>
    </g>
    <g id="ytick_4">
     <g id="line2d_21">
      <path d="M 66.1875 72.034828 
L 423.3075 72.034828 
" clip-path="url(#p2b6cf647a1)" style="fill: none; stroke: #b0b0b0; stroke-width: 0.8; stroke-linecap: square"/>
     </g>
     <g id="line2d_22">
      <g>
       <use xlink:href="#m6f3f5b6aff" x="66.1875" y="72.034828" style="stroke: #000000; stroke-width: 0.8"/>
      </g>
     </g>
     <g id="text_12">
      <!-- 80 -->
      <g transform="translate(40.1 77.733656) scale(0.15 -0.15)">
       <defs>
        <path id="DejaVuSans-38" d="M 2034 2216 
Q 1584 2216 1326 1975 
Q 1069 1734 1069 1313 
Q 1069 891 1326 650 
Q 1584 409 2034 409 
Q 2484 409 2743 651 
Q 3003 894 3003 1313 
Q 3003 1734 2745 1975 
Q 2488 2216 2034 2216 
z
M 1403 2484 
Q 997 2584 770 2862 
Q 544 3141 544 3541 
Q 544 4100 942 4425 
Q 1341 4750 2034 4750 
Q 2731 4750 3128 4425 
Q 3525 4100 3525 3541 
Q 3525 3141 3298 2862 
Q 3072 2584 2669 2484 
Q 3125 2378 3379 2068 
Q 3634 1759 3634 1313 
Q 3634 634 3220 271 
Q 2806 -91 2034 -91 
Q 1263 -91 848 271 
Q 434 634 434 1313 
Q 434 1759 690 2068 
Q 947 2378 1403 2484 
z
M 1172 3481 
Q 1172 3119 1398 2916 
Q 1625 2713 2034 2713 
Q 2441 2713 2670 2916 
Q 2900 3119 2900 3481 
Q 2900 3844 2670 4047 
Q 2441 4250 2034 4250 
Q 1625 4250 1398 4047 
Q 1172 3844 1172 3481 
z
" transform="scale(0.015625)"/>
       </defs>
       <use xlink:href="#DejaVuSans-38"/>
       <use xlink:href="#DejaVuSans-30" x="63.623047"/>
      </g>
     </g>
    </g>
    <g id="ytick_5">
     <g id="line2d_23">
      <path d="M 66.1875 12.898828 
L 423.3075 12.898828 
" clip-path="url(#p2b6cf647a1)" style="fill: none; stroke: #b0b0b0; stroke-width: 0.8; stroke-linecap: square"/>
     </g>
     <g id="line2d_24">
      <g>
       <use xlink:href="#m6f3f5b6aff" x="66.1875" y="12.898828" style="stroke: #000000; stroke-width: 0.8"/>
      </g>
     </g>
     <g id="text_13">
      <!-- 100 -->
      <g transform="translate(30.55625 18.597656) scale(0.15 -0.15)">
       <use xlink:href="#DejaVuSans-31"/>
       <use xlink:href="#DejaVuSans-30" x="63.623047"/>
       <use xlink:href="#DejaVuSans-30" x="127.246094"/>
      </g>
     </g>
    </g>
    <g id="text_14">
     <!-- Max (V) -->
     <g transform="translate(22.396875 184.451703) rotate(-90) scale(0.2 -0.2)">
      <defs>
       <path id="DejaVuSans-4d" d="M 628 4666 
L 1569 4666 
L 2759 1491 
L 3956 4666 
L 4897 4666 
L 4897 0 
L 4281 0 
L 4281 4097 
L 3078 897 
L 2444 897 
L 1241 4097 
L 1241 0 
L 628 0 
L 628 4666 
z
" transform="scale(0.015625)"/>
       <path id="DejaVuSans-61" d="M 2194 1759 
Q 1497 1759 1228 1600 
Q 959 1441 959 1056 
Q 959 750 1161 570 
Q 1363 391 1709 391 
Q 2188 391 2477 730 
Q 2766 1069 2766 1631 
L 2766 1759 
L 2194 1759 
z
M 3341 1997 
L 3341 0 
L 2766 0 
L 2766 531 
Q 2569 213 2275 61 
Q 1981 -91 1556 -91 
Q 1019 -91 701 211 
Q 384 513 384 1019 
Q 384 1609 779 1909 
Q 1175 2209 1959 2209 
L 2766 2209 
L 2766 2266 
Q 2766 2663 2505 2880 
Q 2244 3097 1772 3097 
Q 1472 3097 1187 3025 
Q 903 2953 641 2809 
L 641 3341 
Q 956 3463 1253 3523 
Q 1550 3584 1831 3584 
Q 2591 3584 2966 3190 
Q 3341 2797 3341 1997 
z
" transform="scale(0.015625)"/>
       <path id="DejaVuSans-78" d="M 3513 3500 
L 2247 1797 
L 3578 0 
L 2900 0 
L 1881 1375 
L 863 0 
L 184 0 
L 1544 1831 
L 300 3500 
L 978 3500 
L 1906 2253 
L 2834 3500 
L 3513 3500 
z
" transform="scale(0.015625)"/>
       <path id="DejaVuSans-56" d="M 1831 0 
L 50 4666 
L 709 4666 
L 2188 738 
L 3669 4666 
L 4325 4666 
L 2547 0 
L 1831 0 
z
" transform="scale(0.015625)"/>
      </defs>
      <use xlink:href="#DejaVuSans-4d"/>
      <use xlink:href="#DejaVuSans-61" x="86.279297"/>
      <use xlink:href="#DejaVuSans-78" x="147.558594"/>
      <use xlink:href="#DejaVuSans-20" x="206.738281"/>
      <use xlink:href="#DejaVuSans-28" x="238.525391"/>
      <use xlink:href="#DejaVuSans-56" x="277.539062"/>
      <use xlink:href="#DejaVuSans-29" x="345.947266"/>
     </g>
    </g>
   </g>
   <g id="line2d_25">
    <path d="M 82.420227 41.881528 
L 83.059941 29.326091 
L 83.379797 26.596338 
L 83.486416 26.31961 
L 83.593035 26.365902 
L 83.806273 27.385257 
L 84.019511 29.39901 
L 84.445986 38.809476 
L 85.0857 56.680513 
L 86.151889 95.041455 
L 88.071029 163.721374 
L 88.604123 178.650142 
L 89.88355 200.085165 
L 90.310026 204.245089 
L 90.629882 206.749971 
L 90.949739 205.435705 
L 91.056358 205.434691 
L 91.269596 206.043034 
L 91.482834 207.422246 
L 91.696071 211.997315 
L 92.122547 218.455969 
L 92.442404 222.289968 
L 94.468163 239.536581 
L 94.574782 239.31991 
L 95.214495 236.952829 
L 95.534352 236.445301 
L 95.74759 236.51589 
L 95.960827 237.04464 
L 96.174065 238.203385 
L 96.493922 242.501832 
L 96.813779 251.075756 
L 97.240254 265.800064 
L 97.66673 244.510829 
L 97.879968 239.715353 
L 97.986586 239.951932 
L 98.839538 245.468029 
L 99.692489 252.0031 
L 100.438821 258.040766 
L 101.078534 256.032076 
L 101.611629 254.476915 
L 102.357961 251.319057 
L 102.784437 250.316643 
L 102.997675 250.27855 
L 103.210912 250.740541 
L 103.42415 251.937125 
L 103.637388 254.685355 
L 104.38372 269.326315 
L 105.449909 269.351771 
L 105.663147 267.87548 
L 106.409479 262.386467 
L 106.942574 259.85226 
L 107.369049 258.741732 
L 107.795525 258.304434 
L 108.008763 258.270017 
L 108.435238 258.448792 
L 109.394809 257.405062 
L 109.821284 257.752332 
L 110.034522 258.022367 
L 110.354379 259.080238 
L 110.674235 261.077556 
L 111.740424 269.217836 
L 111.953662 269.399683 
L 113.019851 269.376435 
L 114.08604 261.967225 
L 114.619135 259.950866 
L 115.04561 259.172169 
L 115.365467 258.935906 
L 115.578705 258.984523 
L 115.898561 259.213414 
L 116.111799 259.105573 
L 116.431656 258.689622 
L 116.751513 258.499327 
L 116.96475 258.566035 
L 117.284607 259.023894 
L 117.604464 259.933172 
L 118.030939 261.856171 
L 118.564034 265.324434 
L 119.203747 269.420909 
L 120.483174 269.398348 
L 120.696412 267.935128 
L 121.336125 262.953142 
L 121.86922 260.509417 
L 122.189076 259.940961 
L 122.722171 259.170171 
L 123.042028 259.203173 
L 123.361884 259.395836 
L 123.78836 259.209052 
L 124.108217 258.857886 
L 124.321454 258.833755 
L 124.534692 258.99339 
L 124.854549 259.600105 
L 125.281024 261.124656 
L 125.814119 264.165318 
L 126.66707 269.466747 
L 127.733259 269.423404 
L 127.839878 269.410436 
L 127.946497 269.253145 
L 128.692829 262.907567 
L 129.119305 260.689501 
L 129.439161 259.67047 
L 130.078875 258.760463 
L 130.398732 258.61504 
L 130.931826 258.757858 
L 131.038445 258.634115 
L 131.251683 258.664116 
L 131.784777 257.174084 
L 131.998015 257.054453 
L 132.211253 257.223656 
L 132.531109 258.032244 
L 132.957585 260.127542 
L 133.49068 264.205565 
L 134.130393 269.448777 
L 135.089963 269.460259 
L 135.40982 269.398804 
L 136.689247 260.25581 
L 137.009103 259.281535 
L 137.222341 259.003531 
L 137.435579 259.021102 
L 137.648817 259.235142 
L 137.862054 259.197797 
L 138.28853 259.283266 
L 138.395149 259.257364 
L 138.501768 259.10197 
L 138.715006 259.29512 
L 138.821624 259.181223 
L 139.2481 258.148001 
L 139.461338 258.03338 
L 139.674576 258.204883 
L 139.994432 259.011791 
L 140.420908 261.09587 
L 140.954002 265.14672 
L 141.487097 269.4747 
L 142.659905 269.489431 
L 142.873143 269.424222 
L 143.512856 264.14876 
L 144.045951 260.811544 
L 144.472426 259.393665 
L 144.685664 259.130919 
L 144.898902 259.164456 
L 145.112139 259.485144 
L 145.325377 259.775026 
L 145.538615 259.592004 
L 145.858472 259.377098 
L 146.284947 259.555275 
L 146.711423 258.503609 
L 146.924661 258.385009 
L 147.137899 258.55595 
L 147.457755 259.367611 
L 147.884231 261.465825 
L 148.417325 265.54187 
L 148.95042 269.488545 
L 150.229847 269.504396 
L 150.443084 269.42915 
L 151.402655 262.035611 
L 151.82913 260.322032 
L 152.148987 259.809892 
L 152.362225 259.83843 
L 152.682081 260.296313 
L 152.7887 260.198773 
L 153.215176 259.689021 
L 153.428414 259.707414 
L 153.74827 260.06463 
L 154.174746 259.047354 
L 154.387984 258.94789 
L 154.601221 259.141238 
L 154.921078 259.991433 
L 155.347554 262.146481 
L 155.880648 266.292754 
L 156.307124 269.514879 
L 157.69317 269.540923 
L 157.906407 269.525131 
L 158.119645 268.114972 
L 158.759358 263.21652 
L 159.185834 261.21271 
L 159.505691 260.472218 
L 159.718929 260.350289 
L 159.932166 260.520012 
L 160.145404 260.830855 
L 160.57188 260.196516 
L 160.785118 260.081175 
L 161.104974 260.340304 
L 161.318212 260.672243 
L 161.638069 260.009133 
L 161.851307 259.911007 
L 162.064544 260.102739 
L 162.384401 260.944673 
L 162.810877 263.077267 
L 163.343971 267.177688 
L 163.663828 269.546711 
L 165.049873 269.568359 
L 165.476349 269.550943 
L 166.542538 262.287622 
L 166.862395 261.317732 
L 167.075633 261.038254 
L 167.28887 261.051015 
L 167.608727 261.260687 
L 168.035203 260.601304 
L 168.24844 260.480487 
L 168.568297 260.749279 
L 168.888154 261.27344 
L 169.208011 260.821479 
L 169.421248 260.870292 
L 169.634486 261.21016 
L 169.954343 262.268379 
L 170.380818 264.659112 
L 171.127151 269.585976 
L 172.726434 269.601128 
L 172.939672 269.590526 
L 173.046291 269.439734 
L 173.686004 264.591384 
L 174.11248 262.585338 
L 174.432337 261.82992 
L 174.645574 261.692169 
L 174.965431 261.919697 
L 175.391907 261.114971 
L 175.711763 260.871588 
L 176.03162 261.149202 
L 176.458096 261.916865 
L 176.564715 261.759203 
L 176.777952 261.654426 
L 176.99119 261.83919 
L 177.311047 262.668918 
L 177.737522 264.778719 
L 178.590474 269.625435 
L 180.509614 269.619824 
L 180.722852 268.297417 
L 181.362565 264.131614 
L 181.789041 262.682934 
L 182.108897 262.358706 
L 182.322135 262.502213 
L 183.068467 261.283227 
L 183.281705 261.295858 
L 183.601562 261.69509 
L 184.028037 262.623775 
L 184.134656 262.537377 
L 184.347894 262.578537 
L 184.561132 262.910946 
L 184.880989 263.957181 
L 185.307464 266.327587 
L 185.840559 269.644609 
L 187.546461 269.649381 
L 188.079556 269.642209 
L 189.252363 263.425872 
L 189.57222 263.095992 
L 189.678839 263.129854 
L 189.892077 262.699815 
L 190.318552 261.876137 
L 190.638409 261.616101 
L 190.851647 261.779377 
L 191.171504 262.284721 
L 191.704598 263.311985 
L 191.917836 263.499131 
L 192.237693 264.326459 
L 192.664168 266.420414 
L 193.197263 269.663592 
L 195.009784 269.667 
L 195.649497 269.664689 
L 196.502448 264.814924 
L 196.822305 264.045469 
L 197.142162 263.729798 
L 197.675256 262.447482 
L 197.995113 262.066982 
L 198.208351 262.080679 
L 198.528208 262.503284 
L 198.954683 263.523664 
L 199.27454 264.201465 
L 199.487778 264.537866 
L 199.807634 265.585648 
L 200.23411 267.94762 
L 200.553967 269.692257 
L 203.11282 269.704069 
L 203.219439 269.677503 
L 203.859152 265.959293 
L 204.285628 264.762768 
L 204.498866 264.537161 
L 205.03196 263.087232 
L 205.458436 262.506346 
L 205.671674 262.516099 
L 205.99153 262.954188 
L 206.418006 263.989529 
L 207.484195 267.62851 
L 207.910671 269.728532 
L 210.682762 269.701702 
L 210.789381 269.491727 
L 211.322475 266.622141 
L 211.748951 265.350331 
L 211.962189 264.950319 
L 212.495283 263.501824 
L 212.921759 262.919469 
L 213.134997 262.920654 
L 213.454853 263.373906 
L 213.881329 264.413814 
L 214.414423 266.37852 
L 215.160756 269.754202 
L 215.267375 269.716881 
L 217.506371 269.076477 
L 218.039466 269.217126 
L 218.679179 266.250943 
L 219.318893 264.499893 
L 219.532131 264.299379 
L 219.638749 264.284129 
L 220.171844 263.092376 
L 220.491701 262.782266 
L 220.704938 262.89124 
L 221.024795 263.424318 
L 221.55789 264.987224 
L 222.304222 267.709632 
L 223.263792 266.756878 
L 224.010124 266.27677 
L 224.756457 266.069214 
L 225.289551 265.98725 
L 225.929264 262.555855 
L 226.35574 261.180319 
L 226.675597 260.669325 
L 226.995453 260.576646 
L 227.421929 260.880325 
L 227.741786 261.59191 
L 227.848405 261.426608 
L 228.168261 261.19733 
L 228.381499 261.303705 
L 228.701356 261.830657 
L 229.127831 263.136186 
L 229.660926 265.470498 
L 229.767545 265.343652 
L 230.620496 264.40416 
L 231.366828 263.875087 
L 232.006542 263.683658 
L 232.326398 263.676325 
L 232.539636 262.455344 
L 233.285968 258.023685 
L 233.712444 256.480179 
L 234.032301 255.88342 
L 234.245539 255.745997 
L 234.458776 255.803067 
L 234.778633 256.217585 
L 235.205109 257.319178 
L 235.844822 259.719523 
L 236.05806 259.879849 
L 236.377916 260.493858 
L 236.804392 261.916984 
L 237.444105 264.553563 
L 238.297057 263.917131 
L 238.93677 263.681266 
L 239.150008 263.655667 
L 239.363246 262.925535 
L 239.683102 262.990794 
L 239.789721 262.831608 
L 240.749291 257.644818 
L 241.175767 256.29482 
L 241.495624 255.796262 
L 241.708861 255.707345 
L 241.922099 255.802364 
L 242.455194 256.506717 
L 242.77505 257.580802 
L 243.521383 260.591948 
L 243.841239 261.093821 
L 244.267715 262.422358 
L 245.014047 265.608058 
L 245.120666 265.540328 
L 245.227285 265.476373 
L 245.440523 264.715852 
L 246.293474 264.397801 
L 246.933187 264.386611 
L 247.359663 264.527154 
L 247.466282 264.329534 
L 248.319233 259.875833 
L 248.852328 258.191476 
L 249.385422 257.324882 
L 249.59866 258.255982 
L 249.918517 258.654853 
L 250.238373 259.288231 
L 250.55823 260.233367 
L 250.771468 260.082815 
L 250.984706 260.164974 
L 251.304562 260.708651 
L 251.731038 262.124766 
L 252.370751 265.297101 
L 252.903846 268.090864 
L 253.543559 268.206485 
L 254.183273 268.558475 
L 254.822986 269.169923 
L 255.142843 269.604541 
L 255.35608 268.482396 
L 256.528888 260.926907 
L 256.635507 260.510572 
L 256.742126 260.985874 
L 256.955364 260.390021 
L 257.275221 260.186925 
L 257.808315 258.648407 
L 258.021553 258.443197 
L 258.234791 258.484761 
L 258.448028 258.770155 
L 258.767885 259.62652 
L 259.194361 261.447292 
L 259.940693 265.825905 
L 260.900263 271.539353 
L 261.326739 272.121106 
L 262.17969 272.245803 
L 262.392928 271.761962 
L 262.712784 270.842226 
L 264.418687 259.963084 
L 264.951781 258.001298 
L 265.271638 257.34362 
L 265.484876 257.365272 
L 265.698114 257.640619 
L 266.01797 258.50531 
L 266.551065 260.79695 
L 267.190778 264.493284 
L 268.150348 270.408021 
L 268.89668 271.834254 
L 269.109918 271.879529 
L 269.216537 271.83676 
L 269.323156 272.005791 
L 269.536394 271.745317 
L 270.176107 269.751311 
L 271.348915 261.524603 
L 271.988629 258.294096 
L 272.521723 256.539986 
L 272.734961 256.233281 
L 272.948199 256.409879 
L 273.268055 257.098953 
L 273.694531 258.567349 
L 274.227625 261.24368 
L 274.973958 266.199387 
L 275.507052 269.86234 
L 275.613671 269.878244 
L 276.146766 271.191603 
L 276.360003 271.334293 
L 276.67986 271.276729 
L 276.893098 271.025858 
L 277.63943 269.052106 
L 277.746049 268.683478 
L 278.918857 260.462291 
L 279.55857 257.384068 
L 279.985046 256.385898 
L 280.198284 256.267794 
L 280.51814 256.766529 
L 280.944616 258.027501 
L 281.47771 260.47625 
L 282.224043 265.207957 
L 282.757137 268.270008 
L 282.970375 268.439831 
L 283.396851 268.295703 
L 283.610088 268.00085 
L 284.569659 266.470152 
L 285.42261 265.265905 
L 285.849085 264.166966 
L 286.062323 263.131699 
L 286.702036 259.750225 
L 287.128512 258.378168 
L 287.448369 257.952554 
L 287.554988 257.933862 
L 287.874844 258.365323 
L 288.088082 258.384658 
L 288.30132 258.631115 
L 288.621177 259.428115 
L 289.047652 261.259194 
L 289.367509 262.817579 
L 289.793985 263.270126 
L 290.22046 263.247482 
L 290.433698 263.157639 
L 291.499887 261.20528 
L 292.1396 260.495742 
L 292.992552 259.864014 
L 293.09917 260.239204 
L 293.419027 260.089939 
L 294.165359 258.905881 
L 294.591835 258.211345 
L 295.018311 257.948151 
L 295.444786 258.011761 
L 295.871262 258.349463 
L 296.724213 259.184028 
L 297.150689 259.369045 
L 297.577164 259.313928 
L 298.216878 257.986085 
L 298.96321 257.006972 
L 299.602923 256.282858 
L 300.136018 255.958539 
L 300.775731 255.828451 
L 301.415444 255.970574 
L 301.522063 256.018406 
L 302.481633 255.343644 
L 302.908109 255.308238 
L 303.441204 255.703485 
L 304.614011 256.820841 
L 304.933868 256.978032 
L 306.000057 254.472972 
L 306.533152 253.693336 
L 307.066246 253.243128 
L 307.599341 253.080626 
L 308.132435 253.115186 
L 308.772148 253.389561 
L 309.518481 253.995958 
L 309.731719 254.185482 
L 310.158194 254.139681 
L 310.478051 254.310388 
L 311.011145 254.97001 
L 311.970715 256.291857 
L 312.397191 256.049106 
L 312.610429 255.279413 
L 313.143523 253.897522 
L 313.569999 252.776616 
L 313.996474 252.317867 
L 314.636188 252.188028 
L 315.275901 252.321202 
L 315.915615 252.704101 
L 316.555328 253.341133 
L 317.30166 254.396534 
L 318.367849 256.347691 
L 319.327419 258.007653 
L 319.647276 258.305385 
L 319.967133 258.256955 
L 320.286989 258.176565 
L 321.033322 258.400259 
L 322.632605 258.620564 
L 322.845843 258.987049 
L 323.592175 259.302373 
L 324.231889 259.816854 
L 324.871602 260.603474 
L 325.831172 262.172278 
L 326.577504 263.707566 
L 326.897361 263.740932 
L 328.176788 263.429326 
L 328.603264 263.125669 
L 328.709882 262.988848 
L 328.92312 261.457315 
L 329.776071 261.329735 
L 330.309166 261.160917 
L 330.415785 261.965087 
L 330.522404 261.927179 
L 331.481974 261.171032 
L 331.908449 260.996427 
L 332.441544 259.782713 
L 332.654782 259.626667 
L 332.974638 259.776291 
L 334.680541 261.413935 
L 335.320254 262.330575 
L 335.640111 262.447251 
L 336.173205 262.497978 
L 336.386443 261.180412 
L 337.772489 258.570308 
L 337.879108 259.298401 
L 337.985727 259.123313 
L 338.198964 257.946711 
L 339.051916 256.642983 
L 340.011486 255.316713 
L 340.224723 255.267073 
L 340.54458 255.487977 
L 340.971056 256.122566 
L 341.50415 257.330409 
L 342.676958 260.782308 
L 342.996815 261.613856 
L 343.529909 261.709751 
L 343.636528 261.596005 
L 343.849766 259.920327 
L 345.235812 256.332184 
L 345.342431 256.922424 
L 346.40862 253.569044 
L 347.154952 250.245191 
L 347.688046 248.560349 
L 347.901284 248.397554 
L 348.114522 248.501483 
L 348.434379 249.110369 
L 349.180711 252.147905 
L 350.886613 259.03766 
L 351.099851 259.767539 
L 351.20647 259.378159 
L 351.526327 260.336964 
L 352.805753 260.571651 
L 353.765324 255.235756 
L 353.978561 252.630656 
L 354.618275 250.54261 
L 355.257988 249.307952 
L 355.684464 248.92596 
L 356.00432 248.898268 
L 356.217558 248.911913 
L 356.430796 248.871392 
L 356.644034 249.005052 
L 356.963891 249.534233 
L 357.390366 250.821746 
L 357.923461 253.516453 
L 359.096268 259.879322 
L 359.309506 260.230561 
L 359.735982 260.287628 
L 359.94922 260.427665 
L 360.162457 260.869592 
L 360.482314 262.072767 
L 362.721311 269.111435 
L 363.894119 271.759835 
L 364.107357 272.03183 
L 364.213976 271.465967 
L 364.640451 271.641665 
L 365.70664 271.266797 
L 366.026497 271.254342 
L 366.133116 270.39055 
L 366.239735 270.422909 
L 366.452972 270.51834 
L 366.986067 271.400467 
L 367.62578 272.638999 
L 367.839018 273.435239 
L 367.945637 272.998097 
L 368.58535 273.582478 
L 369.118445 273.548225 
L 372.317012 271.290171 
L 372.850106 271.313097 
L 373.48982 271.591989 
L 373.596439 270.478139 
L 373.703058 270.528164 
L 374.44939 271.036462 
L 375.089103 271.713899 
L 375.195722 272.514389 
L 375.302341 272.485151 
L 375.515579 272.409947 
L 375.728817 271.601293 
L 377.221481 271.056288 
L 377.434719 270.948555 
L 377.541338 270.769604 
L 377.967813 267.371912 
L 378.500908 265.571137 
L 379.034002 264.255914 
L 379.24724 261.348226 
L 380.100191 259.941294 
L 380.420048 259.723404 
L 380.526667 259.737243 
L 380.846524 258.703295 
L 380.953143 262.192077 
L 381.16638 260.359921 
L 381.592856 260.015293 
L 381.912713 259.692511 
L 382.125951 259.900546 
L 382.339188 260.428476 
L 382.552426 261.557237 
L 382.765664 264.222245 
L 382.872283 263.673898 
L 383.618615 268.533833 
L 383.831853 269.251154 
L 384.258328 269.313029 
L 384.684804 268.71972 
L 384.791423 268.508921 
L 384.898042 266.804735 
L 385.217899 258.084258 
L 385.537755 254.552824 
L 385.964231 252.193714 
L 386.603944 250.05363 
L 388.309847 245.361034 
L 388.523084 253.49783 
L 389.269417 252.828046 
L 389.802511 252.590828 
L 390.762081 252.349554 
L 391.295176 252.290885 
L 391.508414 252.266796 
L 392.148127 251.611239 
L 392.78784 250.630913 
L 393.534173 249.073637 
L 394.387124 246.739795 
L 394.920218 244.823386 
L 395.133456 243.303231 
L 395.77317 236.919615 
L 395.879788 234.180484 
L 395.986407 247.42499 
L 396.093026 247.182774 
L 396.306264 246.112981 
L 397.798929 235.210564 
L 398.332023 230.486258 
L 399.078355 219.459606 
L 399.504831 211.421417 
L 399.718069 254.130873 
L 400.357782 254.215993 
L 400.677639 254.44837 
L 400.997496 254.922764 
L 401.317352 255.74957 
L 401.637209 257.082631 
L 402.063685 260.074395 
L 402.49016 265.39024 
L 402.703398 268.143853 
L 403.129873 269.823598 
L 403.343111 270.341047 
L 403.769587 270.274288 
L 404.729157 269.577527 
L 405.262251 269.00175 
L 406.008584 267.729159 
L 406.541678 266.314524 
L 406.648297 265.972078 
L 406.861535 263.244804 
L 406.968154 263.44368 
L 407.074773 254.720825 
L 407.074773 254.720825 
" clip-path="url(#p2b6cf647a1)" style="fill: none; stroke: #1f77b4; stroke-width: 1.5; stroke-linecap: square"/>
   </g>
   <g id="line2d_26">
    <path d="M 82.420227 25.993262 
L 82.633465 36.32529 
L 83.059941 28.291033 
L 83.379797 25.598213 
L 83.593035 25.349407 
L 83.699654 25.617548 
L 83.912892 27.094594 
L 84.232749 31.748578 
L 84.765843 44.467269 
L 85.512175 69.055909 
L 88.284267 167.449624 
L 88.92398 183.345565 
L 89.563693 193.780624 
L 89.670312 192.940852 
L 89.776931 191.500807 
L 89.990169 194.76733 
L 90.203407 197.027564 
L 90.629882 203.405999 
L 90.949739 204.92186 
L 91.056358 204.804073 
L 91.162977 204.91808 
L 91.482834 206.486998 
L 91.909309 212.141536 
L 92.335785 218.481639 
L 94.148306 236.365107 
L 94.468163 239.097579 
L 95.321114 235.436836 
L 95.74759 234.404002 
L 96.067446 234.275306 
L 96.387303 234.641425 
L 96.920397 235.76068 
L 97.027016 235.57719 
L 97.133635 235.108582 
L 97.240254 233.124589 
L 97.453492 235.984855 
L 97.66673 235.498686 
L 97.879968 233.275918 
L 100.012345 253.324231 
L 100.438821 254.712454 
L 100.865297 255.817558 
L 101.078534 255.974122 
L 101.50501 254.597723 
L 102.571199 249.733716 
L 102.997675 248.645104 
L 103.104294 248.696142 
L 103.317531 249.434145 
L 103.637388 252.441525 
L 104.810196 267.452057 
L 105.023434 268.510942 
L 105.130053 268.366232 
L 106.622717 260.366392 
L 107.262431 258.638735 
L 107.582287 258.122381 
L 108.008763 258.045841 
L 108.32862 257.952386 
L 108.755095 257.345893 
L 109.181571 257.211232 
L 109.714665 257.289413 
L 110.24776 257.904648 
L 110.567616 259.19628 
L 111.313949 262.876496 
L 112.273519 269.298462 
L 112.380138 269.299154 
L 112.699994 268.158901 
L 113.979421 261.222078 
L 114.405897 259.861108 
L 114.938991 258.924068 
L 115.152229 258.76378 
L 115.365467 258.702002 
L 116.538275 258.260921 
L 117.177988 258.464382 
L 117.604464 259.106223 
L 118.030939 260.255029 
L 118.564034 262.682394 
L 119.736842 269.321922 
L 119.950079 269.26396 
L 120.376555 267.330839 
L 121.122887 262.691317 
L 121.762601 259.776415 
L 122.189076 258.671474 
L 122.402314 258.449203 
L 122.615552 258.495492 
L 122.82879 258.780863 
L 123.042028 259.016593 
L 123.575122 258.382527 
L 123.894979 258.447247 
L 124.214835 258.550779 
L 124.534692 258.375226 
L 124.74793 258.521934 
L 125.387643 259.718912 
L 126.027357 262.167697 
L 127.200165 269.042583 
L 127.306783 268.953169 
L 127.520021 267.484097 
L 128.159735 263.278073 
L 128.58621 260.643711 
L 129.332543 258.016051 
L 129.759018 257.528518 
L 129.972256 257.648661 
L 130.398732 258.34872 
L 130.50535 258.204177 
L 131.038445 257.288506 
L 131.358302 257.16647 
L 131.464921 257.133667 
L 131.998015 256.261712 
L 132.317872 256.284057 
L 132.531109 256.522383 
L 132.850966 257.318849 
L 133.384061 259.416618 
L 133.703917 261.758889 
L 134.130393 265.169284 
L 134.663487 268.304859 
L 134.876725 267.685762 
L 135.623058 263.177141 
L 136.262771 259.30333 
L 136.795865 257.863759 
L 137.115722 257.601132 
L 137.32896 257.675463 
L 137.648817 258.1903 
L 137.862054 258.418661 
L 138.28853 258.492233 
L 138.501768 258.531408 
L 138.928243 258.596362 
L 139.461338 257.650839 
L 139.674576 257.605218 
L 139.887813 257.764926 
L 140.20767 258.460586 
L 140.634146 259.985828 
L 140.954002 261.828946 
L 141.593716 266.335434 
L 142.12681 268.867361 
L 142.446667 267.870159 
L 143.299618 262.432895 
L 143.726094 260.125295 
L 144.152569 258.80082 
L 144.472426 258.282523 
L 144.685664 258.293055 
L 144.898902 258.548246 
L 145.431996 259.401219 
L 145.645234 259.230751 
L 146.07171 258.713101 
L 146.391566 258.68597 
L 146.498185 258.749807 
L 147.03128 258.07718 
L 147.244517 258.121247 
L 147.457755 258.38116 
L 147.884231 259.483452 
L 148.204088 260.836858 
L 148.843801 265.515439 
L 149.376895 268.59939 
L 149.590133 269.300268 
L 149.803371 268.709976 
L 150.229847 267.105091 
L 151.509273 260.053989 
L 151.935749 259.276352 
L 152.148987 259.252698 
L 152.362225 259.474627 
L 152.682081 259.947655 
L 153.321795 259.367421 
L 153.641651 259.135906 
L 153.854889 259.168191 
L 153.961508 259.240048 
L 154.174746 258.959415 
L 154.494603 258.681322 
L 154.70784 258.74323 
L 154.921078 259.035483 
L 155.240935 259.88235 
L 155.66741 261.731756 
L 156.840218 269.089866 
L 157.053456 269.431941 
L 157.160075 269.428687 
L 157.69317 267.675786 
L 158.226264 264.326097 
L 158.865977 260.946545 
L 159.292453 260.078673 
L 159.505691 259.931997 
L 159.718929 260.02486 
L 160.038785 260.568245 
L 160.145404 260.461165 
L 160.891736 259.963387 
L 161.53145 260.134252 
L 161.851307 259.690106 
L 162.064544 259.655974 
L 162.277782 259.834092 
L 162.597639 260.541567 
L 162.917496 261.675069 
L 163.237352 263.543102 
L 164.196922 269.076468 
L 164.41016 269.464961 
L 164.730017 269.436449 
L 165.263111 267.610618 
L 165.902825 263.696343 
L 166.3293 261.54636 
L 166.649157 260.946935 
L 166.969014 260.653033 
L 167.182251 260.734688 
L 167.502108 261.159552 
L 168.141822 260.498095 
L 168.355059 260.512362 
L 168.781535 260.933273 
L 168.888154 261.100927 
L 169.101392 260.823271 
L 169.421248 260.500907 
L 169.634486 260.58039 
L 169.954343 261.123518 
L 170.167581 261.654 
L 170.594056 263.770893 
L 171.553626 268.985347 
L 171.766864 269.49139 
L 172.19334 269.49172 
L 172.406577 269.032594 
L 172.833053 267.565816 
L 173.899242 261.990158 
L 174.219099 261.510967 
L 174.432337 261.360615 
L 174.645574 261.446239 
L 174.965431 261.657586 
L 175.285288 261.247312 
L 175.605144 260.889719 
L 175.818382 260.901445 
L 176.138239 261.289777 
L 176.458096 261.67579 
L 176.671333 261.554459 
L 176.884571 261.399649 
L 177.097809 261.484532 
L 177.417666 261.919622 
L 177.630903 262.533129 
L 178.163998 265.358447 
L 178.697092 268.365141 
L 179.123568 269.522561 
L 179.8699 269.459171 
L 180.402995 267.738482 
L 181.362565 262.734544 
L 181.682422 262.238884 
L 181.895659 262.082364 
L 182.535373 262.01417 
L 182.961848 261.333156 
L 183.175086 261.237046 
L 183.388324 261.358569 
L 183.8148 262.089031 
L 184.134656 262.365846 
L 184.561132 262.414164 
L 184.880989 262.896049 
L 185.094226 263.567481 
L 186.373653 269.553435 
L 187.439842 269.55309 
L 187.759699 268.629341 
L 188.079556 267.330135 
L 188.825888 263.62452 
L 189.145745 263.054675 
L 189.358982 262.882421 
L 189.678839 262.791302 
L 189.892077 262.621089 
L 190.425171 261.707171 
L 190.638409 261.610902 
L 190.851647 261.731531 
L 191.171504 262.258162 
L 191.597979 262.958222 
L 192.344311 263.776251 
L 192.664168 264.988963 
L 193.623738 269.417047 
L 193.836976 269.581982 
L 195.116403 269.546417 
L 195.756116 267.067939 
L 196.289211 264.539862 
L 196.609067 263.937763 
L 197.462019 262.834275 
L 197.888494 262.110694 
L 198.101732 262.015893 
L 198.31497 262.13755 
L 198.634826 262.689446 
L 199.381159 264.072275 
L 199.701015 264.501295 
L 199.914253 265.055382 
L 200.340729 267.081668 
L 200.767204 268.881512 
L 200.980442 269.609087 
L 202.686345 269.610987 
L 202.792964 269.487261 
L 203.432677 266.847049 
L 203.859152 265.095666 
L 204.179009 264.60011 
L 204.392247 264.351951 
L 205.458436 262.470775 
L 205.671674 262.48558 
L 205.884912 262.714896 
L 206.311387 263.653739 
L 206.844482 264.820665 
L 207.484195 266.637881 
L 208.123908 269.203009 
L 208.337146 269.638171 
L 210.362905 269.580958 
L 211.002619 266.897932 
L 211.322475 265.683575 
L 211.748951 264.988461 
L 212.068808 264.458794 
L 212.708521 263.020368 
L 213.028378 262.802568 
L 213.241616 262.925925 
L 213.561472 263.492776 
L 213.987948 264.131199 
L 214.414423 264.981006 
L 215.054137 266.882311 
L 215.69385 269.367577 
L 215.907088 269.485468 
L 216.866658 269.096839 
L 217.61299 269.059303 
L 217.932847 269.098574 
L 218.359323 266.925601 
L 218.892417 264.494739 
L 219.105655 264.125977 
L 219.745368 263.825807 
L 220.491701 262.773823 
L 221.131414 262.948864 
L 221.451271 263.354739 
L 221.984365 264.4577 
L 222.51746 266.120181 
L 222.837316 267.039523 
L 223.690268 266.435202 
L 224.649838 265.952789 
L 225.076313 265.849801 
L 225.289551 265.538484 
L 226.35574 260.922016 
L 227.102072 260.335434 
L 227.421929 260.550962 
L 227.848405 260.976854 
L 228.27488 260.925359 
L 228.594737 260.596419 
L 228.807975 260.587382 
L 229.127831 260.874481 
L 229.554307 261.722805 
L 230.300639 263.933217 
L 230.513877 264.500051 
L 231.260209 263.915875 
L 231.580066 263.696165 
L 231.899923 263.220953 
L 232.113161 263.246478 
L 232.326398 262.711557 
L 232.859493 260.076987 
L 233.605825 256.414743 
L 234.032301 255.740284 
L 234.352157 255.629154 
L 234.565395 255.704218 
L 234.885252 256.274165 
L 235.418346 257.930137 
L 235.738203 258.926463 
L 235.951441 258.822349 
L 236.591154 259.026977 
L 236.911011 259.496621 
L 237.337487 260.564016 
L 238.190438 263.472591 
L 238.403676 263.858948 
L 239.043389 263.643515 
L 239.150008 263.628407 
L 239.363246 262.355124 
L 239.789721 261.395441 
L 240.429435 258.876097 
L 240.85591 256.594004 
L 241.175767 255.725187 
L 241.495624 255.612626 
L 241.922099 255.594429 
L 242.348575 256.07609 
L 242.77505 257.507084 
L 243.628002 260.653061 
L 243.947858 260.723837 
L 244.267715 261.096678 
L 244.694191 262.109859 
L 245.547142 264.64602 
L 246.293474 264.385282 
L 246.71995 264.328104 
L 247.039806 263.801221 
L 247.359663 263.841697 
L 247.67952 262.625496 
L 248.745709 258.187479 
L 249.385422 257.209293 
L 249.59866 257.974915 
L 249.918517 258.400889 
L 250.55823 259.627675 
L 251.091324 260.004213 
L 251.411181 260.870287 
L 253.43694 268.07969 
L 254.183273 268.497406 
L 254.822986 269.027827 
L 254.929605 269.011267 
L 255.142843 268.120486 
L 256.528888 260.233157 
L 256.635507 259.928198 
L 256.742126 260.286455 
L 256.955364 260.127341 
L 257.168602 260.12449 
L 257.914934 258.472599 
L 258.128172 258.394471 
L 258.34141 258.513335 
L 258.661266 259.214083 
L 258.981123 260.389641 
L 260.687025 267.989821 
L 261.753214 271.002516 
L 261.859833 270.964655 
L 262.073071 270.385862 
L 263.13926 266.332338 
L 264.845162 258.122183 
L 265.165019 257.400943 
L 265.378257 257.305581 
L 265.591495 257.459183 
L 265.911351 258.151463 
L 266.337827 259.815745 
L 266.870921 262.501174 
L 267.617254 266.404858 
L 268.043729 267.970793 
L 269.109918 271.252996 
L 269.216537 270.984039 
L 269.429775 269.807065 
L 270.495964 266.038896 
L 271.242296 262.120109 
L 271.988629 258.088235 
L 272.415104 256.660691 
L 272.628342 256.302649 
L 272.84158 256.221103 
L 273.054818 256.400456 
L 273.374674 257.197118 
L 273.80115 258.939894 
L 275.400433 266.544477 
L 275.507052 266.7889 
L 275.72029 268.013756 
L 276.466622 270.372138 
L 276.573241 270.189198 
L 277.746049 266.079588 
L 278.172525 264.297639 
L 279.771808 256.634446 
L 279.985046 256.289168 
L 280.304903 256.300873 
L 280.51814 256.559768 
L 281.47771 259.1946 
L 282.117424 261.770342 
L 283.076994 266.404496 
L 283.183613 266.366342 
L 283.823326 265.250899 
L 284.889515 264.316262 
L 285.42261 263.949933 
L 285.955704 262.079968 
L 287.128512 258.112741 
L 287.34175 257.704109 
L 287.661607 257.636997 
L 287.874844 257.768608 
L 288.194701 258.030992 
L 288.514558 258.207167 
L 288.834414 258.648353 
L 289.26089 259.995508 
L 289.580747 261.079055 
L 289.687366 261.079371 
L 290.433698 259.592475 
L 291.073411 258.894012 
L 291.606506 258.569564 
L 292.352838 258.425408 
L 292.992552 258.287054 
L 293.205789 258.715436 
L 293.845503 258.402277 
L 294.165359 257.632387 
L 294.485216 256.889486 
L 294.698454 256.726219 
L 294.911692 256.564952 
L 295.124929 256.298721 
L 295.977881 256.363812 
L 296.297737 256.714822 
L 296.830832 257.470716 
L 297.790402 256.469428 
L 298.323496 256.298716 
L 298.856591 256.206186 
L 299.283067 255.984334 
L 301.308826 255.111984 
L 301.84192 254.700184 
L 302.161777 254.23674 
L 302.375015 254.289905 
L 302.694871 254.873129 
L 302.80149 255.067124 
L 303.334585 254.680652 
L 303.867679 254.638795 
L 304.294155 254.70193 
L 305.466963 253.839614 
L 307.919197 252.452087 
L 308.239054 252.66072 
L 308.66553 252.912936 
L 309.518481 253.135792 
L 310.051575 253.457528 
L 310.371432 253.388037 
L 310.797908 253.595563 
L 311.117764 253.694795 
L 311.757478 253.162419 
L 312.397191 252.857341 
L 312.610429 252.51713 
L 313.996474 252.231161 
L 314.742807 251.985451 
L 315.489139 252.068533 
L 315.915615 252.344589 
L 316.34209 252.826618 
L 316.768566 253.408701 
L 317.514898 254.19091 
L 318.900944 255.971089 
L 319.434038 256.625681 
L 320.820084 257.976865 
L 321.459797 258.334543 
L 322.312749 258.268629 
L 322.632605 258.332739 
L 322.952462 258.663226 
L 323.698794 259.101693 
L 324.338508 258.589783 
L 324.764983 258.582369 
L 324.978221 258.796186 
L 325.404697 259.56644 
L 326.04441 260.193661 
L 326.364267 260.599725 
L 327.750312 260.713003 
L 329.349596 259.970866 
L 329.669453 260.030012 
L 330.202547 260.338875 
L 330.522404 260.216732 
L 331.375355 260.056393 
L 331.908449 259.095861 
L 332.228306 258.809492 
L 333.187876 258.845298 
L 334.680541 259.096673 
L 335.853349 258.936847 
L 336.7063 258.346677 
L 337.239394 257.807382 
L 338.945297 255.72672 
L 339.478391 254.769176 
L 339.798248 254.524771 
L 340.437961 254.605087 
L 342.037245 255.761412 
L 342.890196 256.309518 
L 343.103434 256.234647 
L 343.636528 255.739812 
L 344.489479 254.697244 
L 344.809336 254.058079 
L 345.449049 252.612513 
L 345.982144 251.727106 
L 347.36819 248.0208 
L 347.581427 247.886978 
L 348.221141 248.064275 
L 348.434379 248.414547 
L 348.860854 249.778126 
L 349.713805 252.560477 
L 350.779994 255.392268 
L 351.099851 255.615895 
L 351.632946 255.3621 
L 352.699135 253.269603 
L 353.232229 252.377146 
L 353.552086 251.39543 
L 354.08518 249.538602 
L 354.618275 248.609704 
L 354.938131 248.297986 
L 355.151369 248.227227 
L 355.897702 246.993578 
L 356.217558 246.868701 
L 356.537415 246.907141 
L 356.750653 247.201378 
L 357.070509 248.160791 
L 357.710223 250.874384 
L 358.669793 256.120159 
L 358.98965 257.076302 
L 359.202887 257.267609 
L 359.416125 256.993283 
L 359.842601 256.389656 
L 360.162457 256.366618 
L 360.375695 256.442282 
L 360.588933 256.806097 
L 361.335265 259.167069 
L 361.86836 262.429817 
L 362.294835 265.005575 
L 363.254406 267.629427 
L 363.680881 268.394037 
L 364.107357 268.773499 
L 364.533832 268.991426 
L 365.386783 269.339862 
L 365.813259 269.209796 
L 365.919878 269.033867 
L 366.133116 269.268447 
L 366.559591 269.266429 
L 368.265494 270.34753 
L 369.225064 271.206225 
L 369.758158 271.187302 
L 370.397872 270.906756 
L 371.357442 270.102651 
L 372.210393 269.42851 
L 372.636869 269.244507 
L 373.063344 269.304374 
L 373.48982 269.436875 
L 374.022914 269.221676 
L 374.769247 268.879759 
L 375.40896 268.477124 
L 376.475149 267.11514 
L 377.754576 264.804935 
L 378.394289 262.342518 
L 379.140621 259.446731 
L 380.420048 255.642819 
L 380.526667 255.589478 
L 380.739905 255.872428 
L 380.846524 255.589482 
L 381.699475 257.93727 
L 382.232569 259.129619 
L 382.765664 260.51191 
L 383.618615 260.861941 
L 383.938472 260.837588 
L 384.15171 260.485189 
L 384.684804 258.522259 
L 385.324517 254.564683 
L 385.750993 251.937496 
L 386.603944 249.496924 
L 387.670133 246.543674 
L 388.309847 244.02236 
L 388.416466 244.775228 
L 388.842941 250.958612 
L 389.056179 252.077287 
L 389.269417 252.404419 
L 390.762081 251.890176 
L 391.508414 251.229246 
L 391.721651 250.860427 
L 392.041508 249.961996 
L 392.574603 247.311936 
L 392.894459 244.36756 
L 393.534173 238.001446 
L 394.067267 235.244035 
L 394.600362 231.93282 
L 395.346694 225.931222 
L 395.666551 222.274949 
L 395.879788 218.504637 
L 396.306264 230.517781 
L 396.519502 232.235575 
L 396.945977 233.49765 
L 397.159215 233.857021 
L 397.265834 233.622417 
L 397.479072 232.149492 
L 398.012166 226.164551 
L 398.545261 217.730941 
L 399.078355 206.25383 
L 399.61145 193.025444 
L 401.104114 237.571682 
L 401.850447 249.455094 
L 403.023255 259.993383 
L 403.556349 264.525313 
L 403.982825 267.918616 
L 404.089444 268.105811 
L 404.4093 266.205131 
L 405.049014 259.429348 
L 405.36887 252.627022 
L 406.968154 186.665746 
L 407.074773 186.665883 
L 407.074773 186.665883 
" clip-path="url(#p2b6cf647a1)" style="fill: none; stroke: #ff7f0e; stroke-width: 1.5; stroke-linecap: square"/>
   </g>
   <g id="patch_3">
    <path d="M 66.1875 279.010828 
L 66.1875 12.898828 
" style="fill: none; stroke: #000000; stroke-width: 0.8; stroke-linejoin: miter; stroke-linecap: square"/>
   </g>
   <g id="patch_4">
    <path d="M 423.3075 279.010828 
L 423.3075 12.898828 
" style="fill: none; stroke: #000000; stroke-width: 0.8; stroke-linejoin: miter; stroke-linecap: square"/>
   </g>
   <g id="patch_5">
    <path d="M 66.1875 279.010828 
L 423.3075 279.010828 
" style="fill: none; stroke: #000000; stroke-width: 0.8; stroke-linejoin: miter; stroke-linecap: square"/>
   </g>
   <g id="patch_6">
    <path d="M 66.1875 12.898828 
L 423.3075 12.898828 
" style="fill: none; stroke: #000000; stroke-width: 0.8; stroke-linejoin: miter; stroke-linecap: square"/>
   </g>
   <g id="legend_1">
    <g id="patch_7">
     <path d="M 282.185625 35.576953 
L 416.3075 35.576953 
Q 418.3075 35.576953 418.3075 33.576953 
L 418.3075 19.898828 
Q 418.3075 17.898828 416.3075 17.898828 
L 282.185625 17.898828 
Q 280.185625 17.898828 280.185625 19.898828 
L 280.185625 33.576953 
Q 280.185625 35.576953 282.185625 35.576953 
z
" style="fill: #ffffff; opacity: 0.8; stroke: #cccccc; stroke-linejoin: miter"/>
    </g>
    <g id="line2d_27">
     <path d="M 284.185625 25.997266 
L 294.185625 25.997266 
L 304.185625 25.997266 
" style="fill: none; stroke: #1f77b4; stroke-width: 1.5; stroke-linecap: square"/>
    </g>
    <g id="text_15">
     <!-- local -->
     <g transform="translate(312.185625 29.497266) scale(0.1 -0.1)">
      <defs>
       <path id="DejaVuSans-6c" d="M 603 4863 
L 1178 4863 
L 1178 0 
L 603 0 
L 603 4863 
z
" transform="scale(0.015625)"/>
       <path id="DejaVuSans-63" d="M 3122 3366 
L 3122 2828 
Q 2878 2963 2633 3030 
Q 2388 3097 2138 3097 
Q 1578 3097 1268 2742 
Q 959 2388 959 1747 
Q 959 1106 1268 751 
Q 1578 397 2138 397 
Q 2388 397 2633 464 
Q 2878 531 3122 666 
L 3122 134 
Q 2881 22 2623 -34 
Q 2366 -91 2075 -91 
Q 1284 -91 818 406 
Q 353 903 353 1747 
Q 353 2603 823 3093 
Q 1294 3584 2113 3584 
Q 2378 3584 2631 3529 
Q 2884 3475 3122 3366 
z
" transform="scale(0.015625)"/>
      </defs>
      <use xlink:href="#DejaVuSans-6c"/>
      <use xlink:href="#DejaVuSans-6f" x="27.783203"/>
      <use xlink:href="#DejaVuSans-63" x="88.964844"/>
      <use xlink:href="#DejaVuSans-61" x="143.945312"/>
      <use xlink:href="#DejaVuSans-6c" x="205.224609"/>
     </g>
    </g>
    <g id="line2d_28">
     <path d="M 355.487188 25.997266 
L 365.487188 25.997266 
L 375.487188 25.997266 
" style="fill: none; stroke: #ff7f0e; stroke-width: 1.5; stroke-linecap: square"/>
    </g>
    <g id="text_16">
     <!-- blk 70 -->
     <g transform="translate(383.487188 29.497266) scale(0.1 -0.1)">
      <defs>
       <path id="DejaVuSans-62" d="M 3116 1747 
Q 3116 2381 2855 2742 
Q 2594 3103 2138 3103 
Q 1681 3103 1420 2742 
Q 1159 2381 1159 1747 
Q 1159 1113 1420 752 
Q 1681 391 2138 391 
Q 2594 391 2855 752 
Q 3116 1113 3116 1747 
z
M 1159 2969 
Q 1341 3281 1617 3432 
Q 1894 3584 2278 3584 
Q 2916 3584 3314 3078 
Q 3713 2572 3713 1747 
Q 3713 922 3314 415 
Q 2916 -91 2278 -91 
Q 1894 -91 1617 61 
Q 1341 213 1159 525 
L 1159 0 
L 581 0 
L 581 4863 
L 1159 4863 
L 1159 2969 
z
" transform="scale(0.015625)"/>
       <path id="DejaVuSans-6b" d="M 581 4863 
L 1159 4863 
L 1159 1991 
L 2875 3500 
L 3609 3500 
L 1753 1863 
L 3688 0 
L 2938 0 
L 1159 1709 
L 1159 0 
L 581 0 
L 581 4863 
z
" transform="scale(0.015625)"/>
       <path id="DejaVuSans-37" d="M 525 4666 
L 3525 4666 
L 3525 4397 
L 1831 0 
L 1172 0 
L 2766 4134 
L 525 4134 
L 525 4666 
z
" transform="scale(0.015625)"/>
      </defs>
      <use xlink:href="#DejaVuSans-62"/>
      <use xlink:href="#DejaVuSans-6c" x="63.476562"/>
      <use xlink:href="#DejaVuSans-6b" x="91.259766"/>
      <use xlink:href="#DejaVuSans-20" x="149.169922"/>
      <use xlink:href="#DejaVuSans-37" x="180.957031"/>
      <use xlink:href="#DejaVuSans-30" x="244.580078"/>
     </g>
    </g>
   </g>
  </g>
 </g>
 <defs>
  <clipPath id="p2b6cf647a1">
   <rect x="66.1875" y="12.898828" width="357.12" height="266.112"/>
  </clipPath>
 </defs>
</svg>
