<?xml version="1.0" encoding="utf-8" standalone="no"?>
<!DOCTYPE svg PUBLIC "-//W3C//DTD SVG 1.1//EN"
  "http://www.w3.org/Graphics/SVG/1.1/DTD/svg11.dtd">
<svg xmlns:xlink="http://www.w3.org/1999/xlink" width="420.96375pt" height="331.084266pt" viewBox="0 0 420.96375 331.084266" xmlns="http://www.w3.org/2000/svg" version="1.1">
 <defs>
  <style type="text/css">*{stroke-linejoin: round; stroke-linecap: butt}</style>
 </defs>
 <g id="figure_1">
  <g id="patch_1">
   <path d="M 0 331.084266 
L 420.96375 331.084266 
L 420.96375 0 
L 0 0 
L 0 331.084266 
z
" style="fill: none"/>
  </g>
  <g id="axes_1">
   <g id="patch_2">
    <path d="M 56.64375 279.010828 
L 413.76375 279.010828 
L 413.76375 12.898828 
L 56.64375 12.898828 
L 56.64375 279.010828 
z
" style="fill: none"/>
   </g>
   <g id="matplotlib.axis_1">
    <g id="xtick_1">
     <g id="line2d_1">
      <path d="M 77.674328 279.010828 
L 77.674328 12.898828 
" clip-path="url(#pb4487fd597)" style="fill: none; stroke: #b0b0b0; stroke-width: 0.8; stroke-linecap: square"/>
     </g>
     <g id="line2d_2">
      <defs>
       <path id="md39032bed2" d="M 0 0 
L 0 3.5 
" style="stroke: #000000; stroke-width: 0.8"/>
      </defs>
      <g>
       <use xlink:href="#md39032bed2" x="77.674328" y="279.010828" style="stroke: #000000; stroke-width: 0.8"/>
      </g>
     </g>
     <g id="text_1">
      <!-- −3000 -->
      <g transform="translate(52.302062 297.408484)scale(0.15 -0.15)">
       <defs>
        <path id="DejaVuSans-2212" d="M 678 2272 
L 4684 2272 
L 4684 1741 
L 678 1741 
L 678 2272 
z
" transform="scale(0.015625)"/>
        <path id="DejaVuSans-33" d="M 2597 2516 
Q 3050 2419 3304 2112 
Q 3559 1806 3559 1356 
Q 3559 666 3084 287 
Q 2609 -91 1734 -91 
Q 1441 -91 1130 -33 
Q 819 25 488 141 
L 488 750 
Q 750 597 1062 519 
Q 1375 441 1716 441 
Q 2309 441 2620 675 
Q 2931 909 2931 1356 
Q 2931 1769 2642 2001 
Q 2353 2234 1838 2234 
L 1294 2234 
L 1294 2753 
L 1863 2753 
Q 2328 2753 2575 2939 
Q 2822 3125 2822 3475 
Q 2822 3834 2567 4026 
Q 2313 4219 1838 4219 
Q 1578 4219 1281 4162 
Q 984 4106 628 3988 
L 628 4550 
Q 988 4650 1302 4700 
Q 1616 4750 1894 4750 
Q 2613 4750 3031 4423 
Q 3450 4097 3450 3541 
Q 3450 3153 3228 2886 
Q 3006 2619 2597 2516 
z
" transform="scale(0.015625)"/>
        <path id="DejaVuSans-30" d="M 2034 4250 
Q 1547 4250 1301 3770 
Q 1056 3291 1056 2328 
Q 1056 1369 1301 889 
Q 1547 409 2034 409 
Q 2525 409 2770 889 
Q 3016 1369 3016 2328 
Q 3016 3291 2770 3770 
Q 2525 4250 2034 4250 
z
M 2034 4750 
Q 2819 4750 3233 4129 
Q 3647 3509 3647 2328 
Q 3647 1150 3233 529 
Q 2819 -91 2034 -91 
Q 1250 -91 836 529 
Q 422 1150 422 2328 
Q 422 3509 836 4129 
Q 1250 4750 2034 4750 
z
" transform="scale(0.015625)"/>
       </defs>
       <use xlink:href="#DejaVuSans-2212"/>
       <use xlink:href="#DejaVuSans-33" x="83.789062"/>
       <use xlink:href="#DejaVuSans-30" x="147.412109"/>
       <use xlink:href="#DejaVuSans-30" x="211.035156"/>
       <use xlink:href="#DejaVuSans-30" x="274.658203"/>
      </g>
     </g>
    </g>
    <g id="xtick_2">
     <g id="line2d_3">
      <path d="M 130.983777 279.010828 
L 130.983777 12.898828 
" clip-path="url(#pb4487fd597)" style="fill: none; stroke: #b0b0b0; stroke-width: 0.8; stroke-linecap: square"/>
     </g>
     <g id="line2d_4">
      <g>
       <use xlink:href="#md39032bed2" x="130.983777" y="279.010828" style="stroke: #000000; stroke-width: 0.8"/>
      </g>
     </g>
     <g id="text_2">
      <!-- −2500 -->
      <g transform="translate(105.611511 297.408484)scale(0.15 -0.15)">
       <defs>
        <path id="DejaVuSans-32" d="M 1228 531 
L 3431 531 
L 3431 0 
L 469 0 
L 469 531 
Q 828 903 1448 1529 
Q 2069 2156 2228 2338 
Q 2531 2678 2651 2914 
Q 2772 3150 2772 3378 
Q 2772 3750 2511 3984 
Q 2250 4219 1831 4219 
Q 1534 4219 1204 4116 
Q 875 4013 500 3803 
L 500 4441 
Q 881 4594 1212 4672 
Q 1544 4750 1819 4750 
Q 2544 4750 2975 4387 
Q 3406 4025 3406 3419 
Q 3406 3131 3298 2873 
Q 3191 2616 2906 2266 
Q 2828 2175 2409 1742 
Q 1991 1309 1228 531 
z
" transform="scale(0.015625)"/>
        <path id="DejaVuSans-35" d="M 691 4666 
L 3169 4666 
L 3169 4134 
L 1269 4134 
L 1269 2991 
Q 1406 3038 1543 3061 
Q 1681 3084 1819 3084 
Q 2600 3084 3056 2656 
Q 3513 2228 3513 1497 
Q 3513 744 3044 326 
Q 2575 -91 1722 -91 
Q 1428 -91 1123 -41 
Q 819 9 494 109 
L 494 744 
Q 775 591 1075 516 
Q 1375 441 1709 441 
Q 2250 441 2565 725 
Q 2881 1009 2881 1497 
Q 2881 1984 2565 2268 
Q 2250 2553 1709 2553 
Q 1456 2553 1204 2497 
Q 953 2441 691 2322 
L 691 4666 
z
" transform="scale(0.015625)"/>
       </defs>
       <use xlink:href="#DejaVuSans-2212"/>
       <use xlink:href="#DejaVuSans-32" x="83.789062"/>
       <use xlink:href="#DejaVuSans-35" x="147.412109"/>
       <use xlink:href="#DejaVuSans-30" x="211.035156"/>
       <use xlink:href="#DejaVuSans-30" x="274.658203"/>
      </g>
     </g>
    </g>
    <g id="xtick_3">
     <g id="line2d_5">
      <path d="M 184.293226 279.010828 
L 184.293226 12.898828 
" clip-path="url(#pb4487fd597)" style="fill: none; stroke: #b0b0b0; stroke-width: 0.8; stroke-linecap: square"/>
     </g>
     <g id="line2d_6">
      <g>
       <use xlink:href="#md39032bed2" x="184.293226" y="279.010828" style="stroke: #000000; stroke-width: 0.8"/>
      </g>
     </g>
     <g id="text_3">
      <!-- −2000 -->
      <g transform="translate(158.92096 297.408484)scale(0.15 -0.15)">
       <use xlink:href="#DejaVuSans-2212"/>
       <use xlink:href="#DejaVuSans-32" x="83.789062"/>
       <use xlink:href="#DejaVuSans-30" x="147.412109"/>
       <use xlink:href="#DejaVuSans-30" x="211.035156"/>
       <use xlink:href="#DejaVuSans-30" x="274.658203"/>
      </g>
     </g>
    </g>
    <g id="xtick_4">
     <g id="line2d_7">
      <path d="M 237.602675 279.010828 
L 237.602675 12.898828 
" clip-path="url(#pb4487fd597)" style="fill: none; stroke: #b0b0b0; stroke-width: 0.8; stroke-linecap: square"/>
     </g>
     <g id="line2d_8">
      <g>
       <use xlink:href="#md39032bed2" x="237.602675" y="279.010828" style="stroke: #000000; stroke-width: 0.8"/>
      </g>
     </g>
     <g id="text_4">
      <!-- −1500 -->
      <g transform="translate(212.23041 297.408484)scale(0.15 -0.15)">
       <defs>
        <path id="DejaVuSans-31" d="M 794 531 
L 1825 531 
L 1825 4091 
L 703 3866 
L 703 4441 
L 1819 4666 
L 2450 4666 
L 2450 531 
L 3481 531 
L 3481 0 
L 794 0 
L 794 531 
z
" transform="scale(0.015625)"/>
       </defs>
       <use xlink:href="#DejaVuSans-2212"/>
       <use xlink:href="#DejaVuSans-31" x="83.789062"/>
       <use xlink:href="#DejaVuSans-35" x="147.412109"/>
       <use xlink:href="#DejaVuSans-30" x="211.035156"/>
       <use xlink:href="#DejaVuSans-30" x="274.658203"/>
      </g>
     </g>
    </g>
    <g id="xtick_5">
     <g id="line2d_9">
      <path d="M 290.912124 279.010828 
L 290.912124 12.898828 
" clip-path="url(#pb4487fd597)" style="fill: none; stroke: #b0b0b0; stroke-width: 0.8; stroke-linecap: square"/>
     </g>
     <g id="line2d_10">
      <g>
       <use xlink:href="#md39032bed2" x="290.912124" y="279.010828" style="stroke: #000000; stroke-width: 0.8"/>
      </g>
     </g>
     <g id="text_5">
      <!-- −1000 -->
      <g transform="translate(265.539859 297.408484)scale(0.15 -0.15)">
       <use xlink:href="#DejaVuSans-2212"/>
       <use xlink:href="#DejaVuSans-31" x="83.789062"/>
       <use xlink:href="#DejaVuSans-30" x="147.412109"/>
       <use xlink:href="#DejaVuSans-30" x="211.035156"/>
       <use xlink:href="#DejaVuSans-30" x="274.658203"/>
      </g>
     </g>
    </g>
    <g id="xtick_6">
     <g id="line2d_11">
      <path d="M 344.221574 279.010828 
L 344.221574 12.898828 
" clip-path="url(#pb4487fd597)" style="fill: none; stroke: #b0b0b0; stroke-width: 0.8; stroke-linecap: square"/>
     </g>
     <g id="line2d_12">
      <g>
       <use xlink:href="#md39032bed2" x="344.221574" y="279.010828" style="stroke: #000000; stroke-width: 0.8"/>
      </g>
     </g>
     <g id="text_6">
      <!-- −500 -->
      <g transform="translate(323.621183 297.408484)scale(0.15 -0.15)">
       <use xlink:href="#DejaVuSans-2212"/>
       <use xlink:href="#DejaVuSans-35" x="83.789062"/>
       <use xlink:href="#DejaVuSans-30" x="147.412109"/>
       <use xlink:href="#DejaVuSans-30" x="211.035156"/>
      </g>
     </g>
    </g>
    <g id="xtick_7">
     <g id="line2d_13">
      <path d="M 397.531023 279.010828 
L 397.531023 12.898828 
" clip-path="url(#pb4487fd597)" style="fill: none; stroke: #b0b0b0; stroke-width: 0.8; stroke-linecap: square"/>
     </g>
     <g id="line2d_14">
      <g>
       <use xlink:href="#md39032bed2" x="397.531023" y="279.010828" style="stroke: #000000; stroke-width: 0.8"/>
      </g>
     </g>
     <g id="text_7">
      <!-- 0 -->
      <g transform="translate(392.759148 297.408484)scale(0.15 -0.15)">
       <use xlink:href="#DejaVuSans-30"/>
      </g>
     </g>
    </g>
    <g id="text_8">
     <!-- Position (μm) -->
     <g transform="translate(169.19125 319.724891)scale(0.2 -0.2)">
      <defs>
       <path id="DejaVuSans-50" d="M 1259 4147 
L 1259 2394 
L 2053 2394 
Q 2494 2394 2734 2622 
Q 2975 2850 2975 3272 
Q 2975 3691 2734 3919 
Q 2494 4147 2053 4147 
L 1259 4147 
z
M 628 4666 
L 2053 4666 
Q 2838 4666 3239 4311 
Q 3641 3956 3641 3272 
Q 3641 2581 3239 2228 
Q 2838 1875 2053 1875 
L 1259 1875 
L 1259 0 
L 628 0 
L 628 4666 
z
" transform="scale(0.015625)"/>
       <path id="DejaVuSans-6f" d="M 1959 3097 
Q 1497 3097 1228 2736 
Q 959 2375 959 1747 
Q 959 1119 1226 758 
Q 1494 397 1959 397 
Q 2419 397 2687 759 
Q 2956 1122 2956 1747 
Q 2956 2369 2687 2733 
Q 2419 3097 1959 3097 
z
M 1959 3584 
Q 2709 3584 3137 3096 
Q 3566 2609 3566 1747 
Q 3566 888 3137 398 
Q 2709 -91 1959 -91 
Q 1206 -91 779 398 
Q 353 888 353 1747 
Q 353 2609 779 3096 
Q 1206 3584 1959 3584 
z
" transform="scale(0.015625)"/>
       <path id="DejaVuSans-73" d="M 2834 3397 
L 2834 2853 
Q 2591 2978 2328 3040 
Q 2066 3103 1784 3103 
Q 1356 3103 1142 2972 
Q 928 2841 928 2578 
Q 928 2378 1081 2264 
Q 1234 2150 1697 2047 
L 1894 2003 
Q 2506 1872 2764 1633 
Q 3022 1394 3022 966 
Q 3022 478 2636 193 
Q 2250 -91 1575 -91 
Q 1294 -91 989 -36 
Q 684 19 347 128 
L 347 722 
Q 666 556 975 473 
Q 1284 391 1588 391 
Q 1994 391 2212 530 
Q 2431 669 2431 922 
Q 2431 1156 2273 1281 
Q 2116 1406 1581 1522 
L 1381 1569 
Q 847 1681 609 1914 
Q 372 2147 372 2553 
Q 372 3047 722 3315 
Q 1072 3584 1716 3584 
Q 2034 3584 2315 3537 
Q 2597 3491 2834 3397 
z
" transform="scale(0.015625)"/>
       <path id="DejaVuSans-69" d="M 603 3500 
L 1178 3500 
L 1178 0 
L 603 0 
L 603 3500 
z
M 603 4863 
L 1178 4863 
L 1178 4134 
L 603 4134 
L 603 4863 
z
" transform="scale(0.015625)"/>
       <path id="DejaVuSans-74" d="M 1172 4494 
L 1172 3500 
L 2356 3500 
L 2356 3053 
L 1172 3053 
L 1172 1153 
Q 1172 725 1289 603 
Q 1406 481 1766 481 
L 2356 481 
L 2356 0 
L 1766 0 
Q 1100 0 847 248 
Q 594 497 594 1153 
L 594 3053 
L 172 3053 
L 172 3500 
L 594 3500 
L 594 4494 
L 1172 4494 
z
" transform="scale(0.015625)"/>
       <path id="DejaVuSans-6e" d="M 3513 2113 
L 3513 0 
L 2938 0 
L 2938 2094 
Q 2938 2591 2744 2837 
Q 2550 3084 2163 3084 
Q 1697 3084 1428 2787 
Q 1159 2491 1159 1978 
L 1159 0 
L 581 0 
L 581 3500 
L 1159 3500 
L 1159 2956 
Q 1366 3272 1645 3428 
Q 1925 3584 2291 3584 
Q 2894 3584 3203 3211 
Q 3513 2838 3513 2113 
z
" transform="scale(0.015625)"/>
       <path id="DejaVuSans-20" transform="scale(0.015625)"/>
       <path id="DejaVuSans-28" d="M 1984 4856 
Q 1566 4138 1362 3434 
Q 1159 2731 1159 2009 
Q 1159 1288 1364 580 
Q 1569 -128 1984 -844 
L 1484 -844 
Q 1016 -109 783 600 
Q 550 1309 550 2009 
Q 550 2706 781 3412 
Q 1013 4119 1484 4856 
L 1984 4856 
z
" transform="scale(0.015625)"/>
       <path id="DejaVuSans-3bc" d="M 544 -1331 
L 544 3500 
L 1119 3500 
L 1119 1325 
Q 1119 872 1334 640 
Q 1550 409 1972 409 
Q 2434 409 2667 671 
Q 2900 934 2900 1459 
L 2900 3500 
L 3475 3500 
L 3475 806 
Q 3475 619 3529 530 
Q 3584 441 3700 441 
Q 3728 441 3778 458 
Q 3828 475 3916 513 
L 3916 50 
Q 3788 -22 3673 -56 
Q 3559 -91 3450 -91 
Q 3234 -91 3106 31 
Q 2978 153 2931 403 
Q 2775 156 2548 32 
Q 2322 -91 2016 -91 
Q 1697 -91 1473 31 
Q 1250 153 1119 397 
L 1119 -1331 
L 544 -1331 
z
" transform="scale(0.015625)"/>
       <path id="DejaVuSans-6d" d="M 3328 2828 
Q 3544 3216 3844 3400 
Q 4144 3584 4550 3584 
Q 5097 3584 5394 3201 
Q 5691 2819 5691 2113 
L 5691 0 
L 5113 0 
L 5113 2094 
Q 5113 2597 4934 2840 
Q 4756 3084 4391 3084 
Q 3944 3084 3684 2787 
Q 3425 2491 3425 1978 
L 3425 0 
L 2847 0 
L 2847 2094 
Q 2847 2600 2669 2842 
Q 2491 3084 2119 3084 
Q 1678 3084 1418 2786 
Q 1159 2488 1159 1978 
L 1159 0 
L 581 0 
L 581 3500 
L 1159 3500 
L 1159 2956 
Q 1356 3278 1631 3431 
Q 1906 3584 2284 3584 
Q 2666 3584 2933 3390 
Q 3200 3197 3328 2828 
z
" transform="scale(0.015625)"/>
       <path id="DejaVuSans-29" d="M 513 4856 
L 1013 4856 
Q 1481 4119 1714 3412 
Q 1947 2706 1947 2009 
Q 1947 1309 1714 600 
Q 1481 -109 1013 -844 
L 513 -844 
Q 928 -128 1133 580 
Q 1338 1288 1338 2009 
Q 1338 2731 1133 3434 
Q 928 4138 513 4856 
z
" transform="scale(0.015625)"/>
      </defs>
      <use xlink:href="#DejaVuSans-50"/>
      <use xlink:href="#DejaVuSans-6f" x="56.677734"/>
      <use xlink:href="#DejaVuSans-73" x="117.859375"/>
      <use xlink:href="#DejaVuSans-69" x="169.958984"/>
      <use xlink:href="#DejaVuSans-74" x="197.742188"/>
      <use xlink:href="#DejaVuSans-69" x="236.951172"/>
      <use xlink:href="#DejaVuSans-6f" x="264.734375"/>
      <use xlink:href="#DejaVuSans-6e" x="325.916016"/>
      <use xlink:href="#DejaVuSans-20" x="389.294922"/>
      <use xlink:href="#DejaVuSans-28" x="421.082031"/>
      <use xlink:href="#DejaVuSans-3bc" x="460.095703"/>
      <use xlink:href="#DejaVuSans-6d" x="523.71875"/>
      <use xlink:href="#DejaVuSans-29" x="621.130859"/>
     </g>
    </g>
   </g>
   <g id="matplotlib.axis_2">
    <g id="ytick_1">
     <g id="line2d_15">
      <path d="M 56.64375 238.417472 
L 413.76375 238.417472 
" clip-path="url(#pb4487fd597)" style="fill: none; stroke: #b0b0b0; stroke-width: 0.8; stroke-linecap: square"/>
     </g>
     <g id="line2d_16">
      <defs>
       <path id="m6f3f5b6aff" d="M 0 0 
L -3.5 0 
" style="stroke: #000000; stroke-width: 0.8"/>
      </defs>
      <g>
       <use xlink:href="#m6f3f5b6aff" x="56.64375" y="238.417472" style="stroke: #000000; stroke-width: 0.8"/>
      </g>
     </g>
     <g id="text_9">
      <!-- 5 -->
      <g transform="translate(40.1 244.1163)scale(0.15 -0.15)">
       <use xlink:href="#DejaVuSans-35"/>
      </g>
     </g>
    </g>
    <g id="ytick_2">
     <g id="line2d_17">
      <path d="M 56.64375 193.313743 
L 413.76375 193.313743 
" clip-path="url(#pb4487fd597)" style="fill: none; stroke: #b0b0b0; stroke-width: 0.8; stroke-linecap: square"/>
     </g>
     <g id="line2d_18">
      <g>
       <use xlink:href="#m6f3f5b6aff" x="56.64375" y="193.313743" style="stroke: #000000; stroke-width: 0.8"/>
      </g>
     </g>
     <g id="text_10">
      <!-- 10 -->
      <g transform="translate(30.55625 199.012572)scale(0.15 -0.15)">
       <use xlink:href="#DejaVuSans-31"/>
       <use xlink:href="#DejaVuSans-30" x="63.623047"/>
      </g>
     </g>
    </g>
    <g id="ytick_3">
     <g id="line2d_19">
      <path d="M 56.64375 148.210015 
L 413.76375 148.210015 
" clip-path="url(#pb4487fd597)" style="fill: none; stroke: #b0b0b0; stroke-width: 0.8; stroke-linecap: square"/>
     </g>
     <g id="line2d_20">
      <g>
       <use xlink:href="#m6f3f5b6aff" x="56.64375" y="148.210015" style="stroke: #000000; stroke-width: 0.8"/>
      </g>
     </g>
     <g id="text_11">
      <!-- 15 -->
      <g transform="translate(30.55625 153.908843)scale(0.15 -0.15)">
       <use xlink:href="#DejaVuSans-31"/>
       <use xlink:href="#DejaVuSans-35" x="63.623047"/>
      </g>
     </g>
    </g>
    <g id="ytick_4">
     <g id="line2d_21">
      <path d="M 56.64375 103.106286 
L 413.76375 103.106286 
" clip-path="url(#pb4487fd597)" style="fill: none; stroke: #b0b0b0; stroke-width: 0.8; stroke-linecap: square"/>
     </g>
     <g id="line2d_22">
      <g>
       <use xlink:href="#m6f3f5b6aff" x="56.64375" y="103.106286" style="stroke: #000000; stroke-width: 0.8"/>
      </g>
     </g>
     <g id="text_12">
      <!-- 20 -->
      <g transform="translate(30.55625 108.805114)scale(0.15 -0.15)">
       <use xlink:href="#DejaVuSans-32"/>
       <use xlink:href="#DejaVuSans-30" x="63.623047"/>
      </g>
     </g>
    </g>
    <g id="ytick_5">
     <g id="line2d_23">
      <path d="M 56.64375 58.002557 
L 413.76375 58.002557 
" clip-path="url(#pb4487fd597)" style="fill: none; stroke: #b0b0b0; stroke-width: 0.8; stroke-linecap: square"/>
     </g>
     <g id="line2d_24">
      <g>
       <use xlink:href="#m6f3f5b6aff" x="56.64375" y="58.002557" style="stroke: #000000; stroke-width: 0.8"/>
      </g>
     </g>
     <g id="text_13">
      <!-- 25 -->
      <g transform="translate(30.55625 63.701385)scale(0.15 -0.15)">
       <use xlink:href="#DejaVuSans-32"/>
       <use xlink:href="#DejaVuSans-35" x="63.623047"/>
      </g>
     </g>
    </g>
    <g id="ytick_6">
     <g id="line2d_25">
      <path d="M 56.64375 12.898828 
L 413.76375 12.898828 
" clip-path="url(#pb4487fd597)" style="fill: none; stroke: #b0b0b0; stroke-width: 0.8; stroke-linecap: square"/>
     </g>
     <g id="line2d_26">
      <g>
       <use xlink:href="#m6f3f5b6aff" x="56.64375" y="12.898828" style="stroke: #000000; stroke-width: 0.8"/>
      </g>
     </g>
     <g id="text_14">
      <!-- 30 -->
      <g transform="translate(30.55625 18.597656)scale(0.15 -0.15)">
       <use xlink:href="#DejaVuSans-33"/>
       <use xlink:href="#DejaVuSans-30" x="63.623047"/>
      </g>
     </g>
    </g>
    <g id="text_15">
     <!-- Max (V) -->
     <g transform="translate(22.396875 184.451703)rotate(-90)scale(0.2 -0.2)">
      <defs>
       <path id="DejaVuSans-4d" d="M 628 4666 
L 1569 4666 
L 2759 1491 
L 3956 4666 
L 4897 4666 
L 4897 0 
L 4281 0 
L 4281 4097 
L 3078 897 
L 2444 897 
L 1241 4097 
L 1241 0 
L 628 0 
L 628 4666 
z
" transform="scale(0.015625)"/>
       <path id="DejaVuSans-61" d="M 2194 1759 
Q 1497 1759 1228 1600 
Q 959 1441 959 1056 
Q 959 750 1161 570 
Q 1363 391 1709 391 
Q 2188 391 2477 730 
Q 2766 1069 2766 1631 
L 2766 1759 
L 2194 1759 
z
M 3341 1997 
L 3341 0 
L 2766 0 
L 2766 531 
Q 2569 213 2275 61 
Q 1981 -91 1556 -91 
Q 1019 -91 701 211 
Q 384 513 384 1019 
Q 384 1609 779 1909 
Q 1175 2209 1959 2209 
L 2766 2209 
L 2766 2266 
Q 2766 2663 2505 2880 
Q 2244 3097 1772 3097 
Q 1472 3097 1187 3025 
Q 903 2953 641 2809 
L 641 3341 
Q 956 3463 1253 3523 
Q 1550 3584 1831 3584 
Q 2591 3584 2966 3190 
Q 3341 2797 3341 1997 
z
" transform="scale(0.015625)"/>
       <path id="DejaVuSans-78" d="M 3513 3500 
L 2247 1797 
L 3578 0 
L 2900 0 
L 1881 1375 
L 863 0 
L 184 0 
L 1544 1831 
L 300 3500 
L 978 3500 
L 1906 2253 
L 2834 3500 
L 3513 3500 
z
" transform="scale(0.015625)"/>
       <path id="DejaVuSans-56" d="M 1831 0 
L 50 4666 
L 709 4666 
L 2188 738 
L 3669 4666 
L 4325 4666 
L 2547 0 
L 1831 0 
z
" transform="scale(0.015625)"/>
      </defs>
      <use xlink:href="#DejaVuSans-4d"/>
      <use xlink:href="#DejaVuSans-61" x="86.279297"/>
      <use xlink:href="#DejaVuSans-78" x="147.558594"/>
      <use xlink:href="#DejaVuSans-20" x="206.738281"/>
      <use xlink:href="#DejaVuSans-28" x="238.525391"/>
      <use xlink:href="#DejaVuSans-56" x="277.539062"/>
      <use xlink:href="#DejaVuSans-29" x="345.947266"/>
     </g>
    </g>
   </g>
   <g id="line2d_27">
    <path d="M 72.876477 101.676316 
L 74.688999 137.934046 
L 75.328712 148.40161 
L 76.50152 135.992036 
L 77.994184 119.906567 
L 78.527279 116.431048 
L 78.740517 115.811402 
L 78.847136 115.750132 
L 78.953754 115.896972 
L 79.166992 116.99583 
L 79.38023 119.624141 
L 79.593468 124.723511 
L 79.806706 136.700596 
L 80.019943 165.912483 
L 80.3398 167.463003 
L 80.446419 167.520715 
L 80.553038 166.903994 
L 81.192751 154.444972 
L 81.619227 149.36367 
L 81.939084 147.27049 
L 82.152321 146.704491 
L 82.25894 146.673875 
L 82.472178 147.124172 
L 82.685416 148.267462 
L 83.005273 151.319256 
L 83.431748 157.975138 
L 84.17808 171.728035 
L 84.711175 176.908174 
L 85.031032 180.195854 
L 85.883983 173.918895 
L 86.310458 171.863787 
L 86.630315 171.175695 
L 86.843553 173.757763 
L 87.16341 181.636877 
L 87.270029 185.344628 
L 87.589885 205.384303 
L 87.803123 207.222027 
L 87.909742 206.405533 
L 88.442836 187.21905 
L 88.762693 185.312936 
L 88.869312 185.146715 
L 88.975931 185.190543 
L 89.295788 188.211105 
L 90.575214 201.411613 
L 91.321547 203.932535 
L 91.534784 204.481727 
L 91.748022 201.264064 
L 93.347306 192.997384 
L 93.453925 193.010124 
L 93.667162 193.615707 
L 93.8804 195.31245 
L 94.626733 203.88539 
L 94.733351 204.849193 
L 94.946589 209.460075 
L 95.266446 211.795252 
L 95.373065 208.300177 
L 95.479684 208.400611 
L 95.692922 208.616498 
L 96.332635 204.304342 
L 96.865729 202.120722 
L 97.185586 201.545834 
L 97.398824 201.46651 
L 97.612062 201.617985 
L 97.931918 202.240395 
L 98.465013 204.323411 
L 98.678251 205.016155 
L 98.891488 205.485111 
L 98.998107 206.457399 
L 99.211345 204.907039 
L 99.317964 204.660119 
L 99.957677 201.891621 
L 100.384153 201.09286 
L 100.597391 201.023447 
L 100.810629 201.200056 
L 101.130485 201.958943 
L 101.556961 203.924299 
L 102.090055 207.789966 
L 102.196674 208.712395 
L 102.409912 211.832753 
L 102.62315 213.131941 
L 102.729769 213.219503 
L 102.836388 211.684505 
L 103.262863 212.039172 
L 103.902577 208.134017 
L 104.329052 206.563188 
L 104.648909 206.023067 
L 104.862147 205.963556 
L 105.075385 206.131423 
L 105.395241 206.773218 
L 105.821717 207.91748 
L 106.034955 207.996587 
L 106.141574 208.049679 
L 106.46143 207.801516 
L 106.674668 205.499352 
L 107.527619 202.493143 
L 107.847476 202.000901 
L 108.060714 201.951193 
L 108.273952 202.146729 
L 108.593808 202.930953 
L 109.020284 204.921521 
L 109.553378 208.797587 
L 109.659997 209.718113 
L 109.873235 213.773043 
L 110.193092 213.725965 
L 110.299711 211.622253 
L 110.406329 211.708383 
L 110.832805 212.112788 
L 110.939424 211.950217 
L 111.472518 208.318738 
L 111.792375 207.278841 
L 112.112232 206.87383 
L 112.32547 206.902307 
L 112.645326 207.329167 
L 113.071802 208.487254 
L 113.178421 208.345849 
L 113.498278 208.334639 
L 113.818134 207.88445 
L 113.924753 207.851098 
L 114.137991 205.309575 
L 115.20418 202.551206 
L 115.417418 202.443592 
L 115.630656 202.577825 
L 115.950512 203.268109 
L 116.270369 204.57326 
L 116.696844 207.250722 
L 117.12332 210.826606 
L 117.229939 214.326373 
L 117.336558 214.285968 
L 117.656415 214.226699 
L 117.869652 211.07334 
L 118.509366 211.748475 
L 118.722604 210.505429 
L 119.149079 208.102553 
L 119.468936 207.26587 
L 119.682174 207.058283 
L 119.895411 207.091953 
L 120.215268 207.535906 
L 120.428506 208.001435 
L 120.748363 207.572478 
L 121.388076 206.67131 
L 121.601314 206.848547 
L 122.027789 204.852374 
L 122.347646 203.865249 
L 122.667503 203.482532 
L 122.880741 203.531128 
L 123.093978 203.850965 
L 123.413835 204.881644 
L 123.840311 207.330877 
L 124.373405 211.978325 
L 124.586643 213.8491 
L 125.119737 213.724152 
L 125.86607 213.778658 
L 125.972689 213.498786 
L 126.399164 210.837308 
L 127.038878 208.512571 
L 127.358734 208.088274 
L 127.571972 208.116164 
L 128.105067 208.613072 
L 128.531542 208.209986 
L 128.851399 207.925049 
L 129.064637 208.111405 
L 129.384493 208.727592 
L 129.70435 207.678338 
L 130.237445 207.043046 
L 130.450682 207.176486 
L 130.66392 207.586465 
L 130.983777 208.75228 
L 131.410252 211.345247 
L 131.836728 214.426819 
L 132.369823 214.196574 
L 133.222774 214.191279 
L 133.436012 214.269685 
L 133.54263 214.011186 
L 134.288963 210.128379 
L 134.608819 209.262163 
L 134.822057 209.024923 
L 135.035295 209.041954 
L 135.675008 209.524332 
L 136.101484 208.572854 
L 136.314722 208.409543 
L 136.52796 208.586665 
L 136.847816 209.268178 
L 137.594149 207.893097 
L 137.807386 207.920474 
L 138.020624 208.217663 
L 138.340481 209.208521 
L 138.766956 211.581408 
L 139.086813 213.680186 
L 139.300051 213.7871 
L 139.833145 213.72619 
L 140.686097 213.983037 
L 141.112572 214.346116 
L 141.219191 214.181843 
L 142.178761 210.585722 
L 142.391999 210.428986 
L 142.925093 210.606235 
L 143.778045 208.835955 
L 143.991282 209.036289 
L 144.311139 209.743411 
L 144.417758 210.082984 
L 144.737615 209.347866 
L 145.16409 209.17953 
L 145.377328 209.42333 
L 145.697185 210.324243 
L 146.12366 212.573103 
L 146.443517 214.341473 
L 146.976612 214.21262 
L 147.509706 214.326592 
L 148.042801 214.535599 
L 148.575895 215.021923 
L 148.789133 215.172325 
L 149.10899 213.596311 
L 149.535465 212.079423 
L 149.855322 211.654988 
L 150.281797 211.637947 
L 150.388416 211.449601 
L 150.814892 210.042567 
L 151.134749 209.535137 
L 151.241368 209.474605 
L 151.454605 209.684172 
L 151.774462 210.402956 
L 152.094319 211.152273 
L 152.307557 210.981945 
L 152.840651 211.411921 
L 153.160508 212.393092 
L 153.800221 215.042195 
L 154.333316 214.857461 
L 154.86641 214.911075 
L 155.612742 215.194965 
L 156.359075 215.806679 
L 156.465694 215.667219 
L 156.892169 213.795121 
L 157.212026 213.10924 
L 157.74512 212.555132 
L 158.278215 210.66183 
L 158.598072 210.143673 
L 158.70469 210.078741 
L 158.917928 210.298519 
L 159.237785 211.03006 
L 159.770879 212.545898 
L 159.984117 212.815487 
L 160.303974 213.290468 
L 160.623831 214.353078 
L 160.943687 215.69371 
L 161.263544 215.53921 
L 161.796638 215.356536 
L 162.329733 215.410662 
L 162.969446 215.602681 
L 163.715779 216.115391 
L 164.035635 216.379045 
L 164.248873 215.684213 
L 164.675349 214.543192 
L 165.101824 213.706702 
L 165.634919 211.553327 
L 165.954776 210.863767 
L 166.168013 210.669873 
L 166.381251 210.898977 
L 166.701108 211.642507 
L 167.127583 213.345141 
L 167.340821 214.140915 
L 167.660678 214.849314 
L 168.087153 216.087549 
L 168.193772 216.3894 
L 168.833486 215.954225 
L 169.36658 215.817329 
L 170.219531 215.90054 
L 170.859245 216.249991 
L 171.712196 216.940005 
L 172.245291 215.595919 
L 172.458528 214.870371 
L 172.991623 212.467534 
L 173.418098 211.430227 
L 173.631336 211.228254 
L 173.844574 211.467888 
L 174.164431 212.226148 
L 174.590906 213.945432 
L 175.23062 216.772282 
L 175.443857 217.024799 
L 176.19019 216.432944 
L 176.723284 216.245731 
L 177.576235 216.273786 
L 178.10933 216.515522 
L 179.0689 217.290694 
L 179.495376 217.577699 
L 179.708613 216.749142 
L 180.348327 213.447007 
L 180.774802 212.189329 
L 181.094659 211.792588 
L 181.307897 212.042292 
L 181.627754 212.814507 
L 182.054229 214.54965 
L 182.587324 217.726222 
L 182.693943 217.627481 
L 183.440275 216.949609 
L 184.079988 216.654339 
L 184.613083 216.653615 
L 185.466034 216.935113 
L 186.425604 217.770892 
L 186.958698 218.343408 
L 187.065317 218.094992 
L 187.705031 214.523931 
L 188.131506 213.053504 
L 188.451363 212.486725 
L 188.557982 212.404522 
L 188.77122 212.66612 
L 189.091076 213.454829 
L 189.517552 215.209724 
L 190.050647 218.16686 
L 190.157265 218.048726 
L 190.903598 217.390211 
L 191.543311 217.109982 
L 192.076406 217.119695 
L 192.929357 217.376726 
L 193.675689 217.937802 
L 194.422021 218.573981 
L 194.52864 218.685195 
L 195.381591 214.367967 
L 195.808067 213.286949 
L 196.021305 213.060481 
L 196.234543 213.333356 
L 196.554399 214.140196 
L 196.980875 215.917783 
L 197.513969 218.69279 
L 198.366921 217.925407 
L 199.113253 217.388045 
L 199.966204 217.078808 
L 200.179442 217.020724 
L 200.39268 216.430045 
L 201.032393 216.545778 
L 201.565488 216.805791 
L 201.778725 217.125747 
L 202.31182 217.42441 
L 202.844914 214.980958 
L 203.27139 213.893446 
L 203.484628 213.660566 
L 203.804484 214.165763 
L 204.23096 215.558904 
L 204.764055 217.847725 
L 206.1501 214.809081 
L 206.789814 214.121758 
L 207.749384 213.527644 
L 208.389097 213.444084 
L 209.02881 213.589081 
L 209.988381 214.077067 
L 210.414856 214.324087 
L 210.521475 214.246157 
L 210.841332 213.606855 
L 210.947951 213.511135 
L 211.161188 213.771671 
L 211.481045 214.31895 
L 211.694283 214.388463 
L 211.907521 213.986908 
L 213.186947 210.491609 
L 214.039899 209.183425 
L 214.679612 208.593615 
L 215.212707 208.367585 
L 215.745801 208.35438 
L 216.385514 208.575692 
L 217.238466 209.145793 
L 218.411274 209.950643 
L 218.837749 210.013406 
L 219.157606 209.864338 
L 219.370844 209.565558 
L 220.863508 205.457541 
L 221.503222 204.513778 
L 222.036316 204.030061 
L 222.569411 203.822072 
L 223.102505 203.854491 
L 223.6356 204.119377 
L 224.275313 204.686477 
L 225.55474 206.233543 
L 225.767977 206.477416 
L 225.874596 205.747608 
L 226.407691 206.114774 
L 226.727548 206.113152 
L 227.047404 205.841446 
L 227.367261 204.802865 
L 227.900355 203.392387 
L 228.753307 202.453658 
L 229.286401 202.132745 
L 229.606258 202.059368 
L 229.819496 201.092388 
L 230.35259 201.275018 
L 230.992304 201.771082 
L 231.738636 202.662131 
L 232.591587 203.907324 
L 232.698206 203.238581 
L 233.551157 204.365752 
L 233.977633 204.693018 
L 234.297489 204.733244 
L 234.510727 204.616352 
L 234.723965 204.056398 
L 235.150441 202.67582 
L 235.470297 202.113701 
L 235.683535 202.009387 
L 235.896773 200.937041 
L 236.643105 200.705469 
L 237.282819 200.775496 
L 238.13577 201.154224 
L 238.882102 201.774529 
L 239.628434 202.640264 
L 239.735053 202.021026 
L 239.841672 202.170438 
L 240.05491 203.267681 
L 241.227718 204.710557 
L 241.654193 204.963077 
L 241.97405 204.92224 
L 242.187288 204.48123 
L 242.720382 203.17549 
L 243.146858 202.89061 
L 243.999809 202.512934 
L 244.639523 202.492409 
L 245.279236 202.721018 
L 245.918949 203.195325 
L 246.665282 204.040078 
L 247.091757 204.638791 
L 247.198376 205.519281 
L 247.304995 204.938005 
L 248.584422 206.7173 
L 249.543992 207.502723 
L 249.75723 207.182586 
L 250.396943 206.094116 
L 251.143275 205.273961 
L 251.67637 204.992274 
L 252.209464 204.974977 
L 252.955797 205.278039 
L 253.59551 205.861604 
L 254.341842 206.875281 
L 254.981556 207.962203 
L 255.727888 204.875236 
L 255.941126 205.048381 
L 256.260982 205.973173 
L 256.687458 208.014252 
L 257.007315 209.523526 
L 257.327171 209.811585 
L 258.286741 208.050462 
L 258.819836 207.589599 
L 259.35293 207.443304 
L 259.672787 207.431116 
L 259.779406 206.584064 
L 259.886025 206.602797 
L 260.419119 206.842805 
L 260.952214 207.334534 
L 261.591927 208.218092 
L 262.018403 208.960425 
L 263.084592 203.19456 
L 263.191211 202.938882 
L 263.404449 203.25162 
L 263.724305 204.276673 
L 264.150781 206.550296 
L 264.897113 210.938115 
L 265.003732 210.956406 
L 265.536827 209.866635 
L 265.963302 209.337446 
L 266.069921 210.166648 
L 266.496397 209.950392 
L 266.922872 209.943128 
L 267.349348 210.282605 
L 267.775823 210.840874 
L 268.735394 212.572305 
L 269.05525 212.288954 
L 269.481726 208.526282 
L 270.121439 204.409645 
L 270.547915 202.842146 
L 270.654534 202.682859 
L 270.97439 203.465976 
L 271.400866 205.434263 
L 272.147198 209.307292 
L 272.253817 209.331382 
L 273.000149 208.214502 
L 273.533244 207.762359 
L 274.279576 207.473705 
L 274.706052 207.476117 
L 275.132527 207.685914 
L 275.559003 208.158671 
L 275.985479 208.950124 
L 276.305335 209.548513 
L 276.731811 209.099227 
L 277.158286 208.557121 
L 277.691381 205.383099 
L 278.011238 204.527408 
L 278.117857 204.434818 
L 278.331094 204.853999 
L 278.650951 206.01018 
L 278.970808 207.340833 
L 279.397283 207.507912 
L 279.610521 207.620359 
L 280.250235 206.785349 
L 280.889948 206.291356 
L 281.423042 206.086522 
L 281.956137 206.121269 
L 282.382613 206.34694 
L 282.809088 206.817409 
L 283.235564 207.586863 
L 283.448802 208.106787 
L 283.662039 209.484793 
L 283.768658 209.559375 
L 283.981896 209.303658 
L 285.474561 206.557729 
L 285.581179 207.169836 
L 286.007655 207.105577 
L 286.327512 207.241422 
L 286.753987 207.730901 
L 287.287082 208.47701 
L 288.033414 207.782941 
L 288.566509 207.554918 
L 289.099603 207.57062 
L 289.632698 207.851663 
L 290.165792 208.425299 
L 290.698887 209.472078 
L 291.125362 210.569599 
L 291.3386 210.214937 
L 292.618027 206.875622 
L 292.937883 206.528952 
L 293.151121 206.755193 
L 293.470978 206.90147 
L 293.790835 207.315119 
L 294.21731 208.35531 
L 294.750405 209.959796 
L 294.963643 210.12818 
L 296.029832 209.759754 
L 296.243069 209.794165 
L 296.456307 210.2417 
L 296.989402 210.679107 
L 297.202639 210.928656 
L 297.309258 210.645337 
L 297.948972 211.755005 
L 298.482066 212.916389 
L 299.015161 211.805798 
L 300.187969 207.272218 
L 300.401206 206.974087 
L 300.614444 207.653044 
L 300.934301 208.204866 
L 301.254158 209.227103 
L 302.426965 213.871443 
L 302.853441 214.874475 
L 302.96006 214.669203 
L 303.493154 215.788029 
L 303.706392 215.738845 
L 304.239487 215.507621 
L 304.772581 215.600585 
L 305.199057 215.917487 
L 305.625532 216.490684 
L 305.945389 217.106307 
L 306.158627 216.43187 
L 307.544673 211.084797 
L 307.864529 210.356812 
L 307.971148 211.042712 
L 308.077767 208.38829 
L 308.504243 209.658964 
L 308.930718 211.721048 
L 309.67705 215.583796 
L 310.743239 220.461044 
L 310.956477 220.849744 
L 311.169715 220.980263 
L 311.382953 221.509622 
L 312.449142 221.858322 
L 312.66238 222.060852 
L 313.408712 221.26749 
L 313.515331 220.975276 
L 313.62195 217.860218 
L 313.835188 218.456537 
L 314.901377 213.926158 
L 315.007995 214.190852 
L 315.327852 213.279506 
L 315.434471 213.406385 
L 315.54109 212.84264 
L 315.860947 213.811297 
L 316.287422 215.899068 
L 317.673468 224.209652 
L 318.4198 225.390359 
L 318.633038 225.654431 
L 318.739657 227.391426 
L 318.846276 227.367969 
L 319.059514 227.190475 
L 319.166132 227.031925 
L 319.37937 225.600521 
L 320.33894 224.76086 
L 320.658797 223.666385 
L 321.085273 221.796819 
L 322.684556 210.60157 
L 323.004413 209.956359 
L 323.324269 210.690486 
L 323.750745 212.50159 
L 324.28384 215.999268 
L 324.710315 218.718004 
L 326.096361 222.926742 
L 326.629455 223.214878 
L 326.842693 223.067511 
L 327.589025 222.164354 
L 327.908882 221.63605 
L 328.335358 219.211471 
L 328.441977 218.189623 
L 328.655214 214.71247 
L 330.254498 203.877167 
L 330.467736 203.324528 
L 330.680973 203.773056 
L 331.00083 204.992395 
L 331.427306 207.573594 
L 332.813351 217.256277 
L 333.559684 220.513294 
L 333.772922 222.699114 
L 333.986159 223.132536 
L 334.092778 223.133423 
L 334.199397 221.43596 
L 334.306016 221.443457 
L 334.412635 221.427696 
L 335.372205 219.027172 
L 335.585443 217.433882 
L 336.331775 208.557008 
L 337.184726 198.527468 
L 337.82444 193.313762 
L 338.037677 192.243094 
L 338.144296 192.220749 
L 338.357534 192.595426 
L 338.677391 193.803482 
L 339.103866 196.457617 
L 339.636961 201.092435 
L 339.74358 198.820048 
L 341.449482 217.484684 
L 341.556101 217.959711 
L 341.66272 217.102149 
L 342.728909 220.859037 
L 342.942147 221.244209 
L 343.048766 221.154276 
L 343.262003 220.467363 
L 343.368622 219.715683 
L 343.58186 216.463223 
L 343.795098 214.621144 
L 344.967906 200.562747 
L 346.567189 183.220732 
L 346.993665 180.935918 
L 347.313522 180.014853 
L 347.526759 179.81534 
L 347.846616 181.291979 
L 348.486329 185.787203 
L 348.699567 187.326327 
L 349.659137 189.058124 
L 349.872375 188.817131 
L 349.978994 188.594698 
L 350.618707 185.570156 
L 351.045183 186.83462 
L 351.36504 188.428416 
L 351.791515 191.712268 
L 352.431229 198.727432 
L 354.456988 223.426236 
L 354.563607 224.017284 
L 354.670226 223.466292 
L 355.309939 226.766612 
L 355.523177 227.083459 
L 355.949652 227.173841 
L 356.16289 227.934012 
L 356.376128 227.954361 
L 356.482747 227.673147 
L 356.802604 223.962098 
L 359.0416 204.428787 
L 359.468076 202.90194 
L 359.681314 202.539712 
L 359.894552 202.644513 
L 360.107789 202.789076 
L 360.214408 202.955598 
L 360.321027 164.201378 
L 360.534265 171.277198 
L 360.747503 172.992374 
L 360.854122 172.921817 
L 361.067359 171.709767 
L 361.493835 166.832407 
L 363.093119 145.574002 
L 363.412975 143.456731 
L 363.519594 144.768062 
L 363.839451 143.781501 
L 363.94607 143.748506 
L 364.052689 142.461477 
L 364.372545 144.501382 
L 364.799021 149.150214 
L 365.438734 158.902831 
L 366.504923 175.592641 
L 366.82478 177.898491 
L 366.931399 177.841336 
L 367.038018 177.126261 
L 367.144637 175.384206 
L 367.357874 163.292253 
L 367.464493 148.230329 
L 367.571112 115.77267 
L 367.677731 47.451802 
L 367.78435 62.836901 
L 367.997588 148.053877 
L 368.210826 166.973863 
L 368.424063 173.16239 
L 368.637301 174.507475 
L 368.850539 173.090118 
L 369.383634 165.740658 
L 370.129966 149.235713 
L 370.876298 132.803855 
L 370.982917 133.248819 
L 371.089536 133.195654 
L 371.196155 133.355497 
L 371.516012 134.643222 
L 371.835868 139.304174 
L 372.155725 147.1358 
L 372.902057 168.266001 
L 373.541771 178.10725 
L 374.181484 186.811294 
L 374.394722 187.849241 
L 374.501341 187.598174 
L 374.714578 185.790275 
L 374.927816 173.955823 
L 375.247673 115.500211 
L 375.460911 166.471926 
L 375.780767 187.652188 
L 376.100624 193.412235 
L 376.313862 194.133878 
L 376.420481 193.963761 
L 376.633719 192.920182 
L 377.060194 189.088878 
L 378.339621 175.703903 
L 378.44624 176.189391 
L 378.872716 173.422072 
L 379.085953 171.006378 
L 379.40581 170.110353 
L 379.619048 170.000126 
L 379.832286 170.319692 
L 380.045523 171.159527 
L 380.36538 173.555158 
L 380.471999 174.719003 
L 381.111712 166.40298 
L 381.431569 164.192516 
L 381.644807 163.830467 
L 381.751426 164.091929 
L 381.964664 165.787656 
L 382.177901 169.883034 
L 382.497758 184.107381 
L 382.924234 207.185579 
L 383.030853 205.386467 
L 383.137471 205.439979 
L 383.563947 205.786207 
L 383.990423 206.315236 
L 384.097042 206.327901 
L 384.416898 205.177325 
L 384.736755 201.593331 
L 385.696325 188.713547 
L 385.802944 187.774579 
L 385.909563 188.784382 
L 386.22942 187.507973 
L 386.336038 187.18236 
L 386.655895 181.902623 
L 387.828703 165.961803 
L 388.361797 161.660671 
L 388.468416 161.53875 
L 388.575035 161.825109 
L 388.788273 163.667716 
L 389.001511 167.813751 
L 389.321368 179.910915 
L 389.854462 208.924002 
L 390.387557 211.314766 
L 390.814032 214.157455 
L 391.02727 215.727942 
L 391.453746 212.935177 
L 391.666983 212.484538 
L 391.773602 212.644729 
L 391.98684 213.982362 
L 392.200078 217.190074 
L 392.626553 226.878113 
L 392.839791 225.834545 
L 393.799361 220.802687 
L 395.292026 213.758775 
L 397.104547 204.760952 
L 397.211166 203.653786 
L 397.424404 199.658057 
L 397.531023 213.076888 
L 397.531023 213.076888 
" clip-path="url(#pb4487fd597)" style="fill: none; stroke: #1f77b4; stroke-width: 1.5; stroke-linecap: square"/>
   </g>
   <g id="line2d_28">
    <path d="M 72.876477 100.191627 
L 72.983096 99.778452 
L 73.089715 100.49231 
L 73.302953 108.480519 
L 73.62281 117.493185 
L 74.795617 139.739146 
L 75.222093 145.671645 
L 75.435331 146.927536 
L 75.968425 141.539429 
L 78.633898 113.745716 
L 78.847136 113.116575 
L 78.953754 113.074579 
L 79.166992 113.815064 
L 79.700087 116.753825 
L 79.913325 120.815723 
L 80.446419 138.54346 
L 80.659657 135.699699 
L 80.872895 137.670703 
L 81.086132 135.775434 
L 81.192751 135.699699 
L 81.29937 136.24097 
L 81.725846 140.347212 
L 81.939084 140.585477 
L 82.152321 141.501916 
L 82.898654 148.06858 
L 83.431748 155.832733 
L 84.391318 173.414625 
L 84.924413 179.363031 
L 85.031032 178.800326 
L 86.523696 166.144867 
L 86.736934 165.743115 
L 87.056791 166.919545 
L 87.270029 170.15347 
L 87.483266 174.501747 
L 87.589885 175.101116 
L 87.696504 174.810091 
L 88.016361 180.403191 
L 88.12298 180.097143 
L 88.336218 177.201564 
L 88.442836 177.356443 
L 88.549455 177.311392 
L 88.762693 178.506522 
L 89.189169 182.611353 
L 90.04212 193.08584 
L 90.575214 197.015578 
L 91.534784 202.213126 
L 93.240687 192.359131 
L 93.453925 192.050501 
L 93.560544 192.127936 
L 93.773781 193.022545 
L 93.987019 195.267904 
L 94.413495 200.9132 
L 95.053208 206.264693 
L 95.159827 205.66647 
L 95.266446 206.257438 
L 95.479684 206.243259 
L 95.692922 206.294903 
L 95.906159 205.700445 
L 96.972348 201.574838 
L 97.292205 201.296253 
L 97.505443 201.400761 
L 97.825299 201.919769 
L 98.78487 204.24082 
L 98.891488 204.156082 
L 99.104726 204.220539 
L 99.211345 204.276458 
L 99.957677 201.807541 
L 100.384153 200.857578 
L 100.70401 200.631297 
L 101.023866 200.606046 
L 101.237104 200.882766 
L 101.556961 201.776327 
L 101.876818 203.368991 
L 102.62315 208.595545 
L 102.729769 208.631534 
L 103.369482 208.184555 
L 103.476101 208.15164 
L 104.329052 205.838773 
L 104.648909 205.578714 
L 104.862147 205.6496 
L 105.288622 205.96951 
L 105.50186 206.091925 
L 105.821717 205.960874 
L 106.034955 205.882663 
L 106.354811 206.032832 
L 106.46143 205.9209 
L 107.421 202.638056 
L 107.740857 202.064435 
L 108.060714 201.931749 
L 108.273952 202.127298 
L 108.593808 202.590563 
L 108.913665 203.560232 
L 109.233522 205.394655 
L 109.766616 208.583668 
L 109.873235 208.77179 
L 109.979854 208.719281 
L 110.512948 207.893088 
L 111.046043 207.587809 
L 111.472518 207.595739 
L 111.579137 207.63495 
L 112.218851 206.620948 
L 112.645326 206.868825 
L 113.178421 206.113157 
L 113.28504 206.212979 
L 113.498278 206.061171 
L 113.924753 206.123405 
L 114.457848 203.672462 
L 114.884323 202.610032 
L 115.097561 202.418685 
L 115.524037 202.453526 
L 115.737274 202.714955 
L 116.057131 203.568301 
L 116.483607 205.605375 
L 117.12332 209.902763 
L 117.443177 211.362554 
L 117.763033 211.234556 
L 117.869652 210.80302 
L 118.509366 211.664731 
L 119.575555 206.162372 
L 119.895411 205.516739 
L 120.108649 205.499031 
L 120.321887 205.672723 
L 120.641744 205.487003 
L 120.854982 205.60379 
L 121.174838 206.145011 
L 121.388076 206.366937 
L 121.494695 206.388914 
L 121.707933 205.832213 
L 122.241027 203.896069 
L 122.667503 203.099177 
L 122.880741 203.167146 
L 123.093978 203.57275 
L 123.627073 205.563611 
L 123.94693 207.668664 
L 124.480024 212.31261 
L 124.799881 213.673349 
L 125.86607 213.574247 
L 125.972689 213.226295 
L 126.932259 206.964674 
L 127.252115 206.162276 
L 127.465353 206.070588 
L 127.678591 206.261742 
L 127.998448 206.737744 
L 128.318304 206.820908 
L 128.638161 207.269255 
L 128.851399 207.746078 
L 129.810969 206.586309 
L 130.130826 206.070458 
L 130.344063 206.183675 
L 130.557301 206.650161 
L 130.877158 208.010974 
L 131.62349 212.902162 
L 131.836728 214.105878 
L 132.049966 214.270678 
L 132.58306 214.050177 
L 133.116155 214.095888 
L 133.436012 214.196447 
L 133.54263 213.859847 
L 134.288963 208.983788 
L 134.608819 207.818205 
L 134.822057 207.48564 
L 135.035295 207.517232 
L 135.355152 207.793925 
L 135.675008 207.623745 
L 135.994865 207.802196 
L 136.421341 208.407992 
L 137.167673 207.816893 
L 137.48753 207.367241 
L 137.700767 207.289271 
L 137.914005 207.543073 
L 138.233862 208.454724 
L 138.766956 211.498186 
L 139.086813 213.297411 
L 139.833145 213.582562 
L 140.36624 213.660708 
L 140.792716 213.866157 
L 141.112572 214.236241 
L 141.219191 213.969085 
L 141.752286 210.917913 
L 142.178761 209.431926 
L 142.391999 209.224344 
L 142.605237 209.300755 
L 142.925093 208.816154 
L 143.24495 208.711825 
L 143.458188 208.766316 
L 143.671426 208.8542 
L 143.884664 208.900976 
L 144.097901 208.951098 
L 144.311139 208.966093 
L 144.630996 209.012603 
L 144.950853 208.590077 
L 145.16409 208.566614 
L 145.377328 208.888926 
L 145.697185 210.054577 
L 146.550136 213.962676 
L 146.976612 214.042555 
L 147.936182 214.28435 
L 148.256038 214.500635 
L 148.682514 215.0937 
L 148.789133 214.964641 
L 149.642084 210.843308 
L 150.495035 209.576115 
L 150.814892 209.477002 
L 151.02813 209.575459 
L 151.241368 209.474275 
L 151.454605 209.591314 
L 151.667843 209.474289 
L 152.094319 209.693851 
L 152.627413 210.285458 
L 152.840651 210.621814 
L 153.160508 211.753327 
L 153.800221 214.888191 
L 155.079648 214.751514 
L 155.719361 215.051925 
L 156.252456 215.692585 
L 156.359075 215.582558 
L 156.572312 214.383259 
L 156.998788 212.447453 
L 157.958358 210.198431 
L 158.278215 210.078624 
L 158.491453 210.181336 
L 158.70469 210.078576 
L 159.557642 210.734165 
L 159.877498 211.388182 
L 160.623831 213.709741 
L 161.050306 215.655127 
L 161.583401 215.276219 
L 162.223114 215.182422 
L 162.756209 215.279142 
L 163.289303 215.604709 
L 163.822398 216.172152 
L 164.035635 215.86756 
L 164.675349 212.996446 
L 165.101824 211.793289 
L 165.5283 211.241765 
L 166.168013 210.669707 
L 166.381251 210.85834 
L 166.914346 211.719569 
L 167.340821 212.56098 
L 167.767297 214.052211 
L 168.300391 216.109396 
L 168.620248 215.966541 
L 169.046724 215.713988 
L 169.686437 215.661575 
L 170.219531 215.743716 
L 170.752626 216.047489 
L 171.28572 216.501542 
L 171.392339 216.567342 
L 171.605577 216.444977 
L 172.245291 213.707799 
L 172.671766 212.606852 
L 173.631336 211.22792 
L 173.844574 211.426847 
L 174.377668 212.315772 
L 174.804144 213.186821 
L 175.23062 214.70249 
L 175.763714 216.653852 
L 176.296809 216.227761 
L 176.723284 216.090274 
L 178.002711 216.251599 
L 178.322568 216.510496 
L 178.962281 217.173023 
L 179.0689 217.06186 
L 179.921851 213.667419 
L 180.348327 212.841781 
L 180.668183 212.396512 
L 180.98804 211.822775 
L 181.201278 211.843548 
L 181.414516 212.18881 
L 181.734372 212.732967 
L 182.054229 213.256199 
L 182.480705 214.489487 
L 183.227037 217.05605 
L 184.079988 216.481173 
L 185.039558 216.470476 
L 185.679272 216.706929 
L 186.105747 217.277345 
L 186.425604 217.757832 
L 186.638842 217.309203 
L 187.278555 214.669744 
L 187.705031 213.674093 
L 188.557982 212.404107 
L 188.77122 212.5798 
L 189.091076 212.969713 
L 189.517552 213.586032 
L 189.944028 214.817803 
L 190.69036 217.448655 
L 191.330073 216.989208 
L 191.756549 216.909605 
L 193.249214 217.298709 
L 193.888927 218.076263 
L 194.102165 217.672309 
L 194.52864 215.747178 
L 195.061735 214.130441 
L 195.48821 213.558015 
L 195.701448 213.418242 
L 196.021305 213.059908 
L 196.44778 213.279148 
L 196.767637 213.640447 
L 197.087494 214.285141 
L 197.513969 215.756456 
L 198.153683 218.065167 
L 199.219872 216.934604 
L 199.966204 216.854702 
L 200.179442 216.858749 
L 200.39268 216.30225 
L 200.819155 216.317484 
L 201.778725 216.717563 
L 201.885344 216.523273 
L 202.418439 214.751848 
L 202.844914 214.053422 
L 203.27139 213.672829 
L 203.484628 213.567883 
L 203.591247 213.584163 
L 203.804484 213.396225 
L 204.124341 213.471214 
L 204.444198 213.934813 
L 205.19053 215.402779 
L 205.403768 215.495642 
L 206.1501 214.006671 
L 206.576576 213.50662 
L 206.896432 213.396229 
L 207.322908 213.347114 
L 208.495716 213.244735 
L 208.922192 213.271508 
L 209.135429 213.284038 
L 209.348667 213.485444 
L 209.775143 213.951066 
L 209.988381 213.995803 
L 210.308237 213.482032 
L 210.628094 213.305371 
L 211.05457 212.310797 
L 211.267807 212.006259 
L 211.481045 211.988029 
L 211.907521 212.452043 
L 212.97371 209.756571 
L 213.613423 208.631274 
L 214.039899 208.235595 
L 214.359755 208.202542 
L 214.89285 208.149729 
L 215.319325 207.93878 
L 215.745801 207.96324 
L 216.492133 208.327591 
L 217.77156 209.558402 
L 217.878179 209.562219 
L 217.984798 209.447498 
L 218.411274 208.078253 
L 218.624511 207.924341 
L 218.837749 208.032042 
L 219.050987 208.237087 
L 219.477462 207.640394 
L 220.437033 205.347262 
L 221.076746 204.231269 
L 221.503222 203.806015 
L 221.823078 203.721137 
L 222.142935 203.690172 
L 223.209124 203.570398 
L 223.742218 203.920372 
L 224.168694 204.511108 
L 225.021645 205.513665 
L 225.55474 205.276046 
L 225.661359 205.254321 
L 226.194453 203.754092 
L 226.407691 203.756702 
L 226.940785 204.121266 
L 227.154023 204.056752 
L 227.367261 203.761578 
L 228.113593 202.681133 
L 228.753307 202.126154 
L 229.286401 201.90745 
L 229.606258 201.830923 
L 229.712877 200.905855 
L 229.819496 200.933438 
L 230.459209 201.037826 
L 230.885685 201.386584 
L 231.525398 202.178422 
L 231.951874 202.931162 
L 232.165111 203.190301 
L 232.591587 202.716164 
L 232.804825 202.144635 
L 233.977633 202.490238 
L 234.297489 202.589124 
L 235.043822 202.017136 
L 235.683535 201.822981 
L 235.896773 200.799201 
L 236.536486 200.604116 
L 237.389437 200.607025 
L 237.815913 200.727864 
L 238.349008 201.156111 
L 238.775483 201.388325 
L 239.201959 201.265523 
L 239.521815 201.367296 
L 239.628434 201.452576 
L 239.735053 201.242134 
L 239.841672 201.404675 
L 240.05491 203.252203 
L 240.374767 203.565067 
L 241.334337 203.361179 
L 241.97405 202.541052 
L 243.573334 201.266703 
L 243.89319 201.277608 
L 244.213047 201.514404 
L 244.639523 201.944513 
L 245.065998 202.071883 
L 245.599093 202.492609 
L 246.238806 203.34579 
L 246.558663 203.86735 
L 247.091757 203.284641 
L 247.198376 204.697742 
L 247.304995 204.502014 
L 247.518233 204.763967 
L 247.838089 204.852337 
L 248.051327 204.606062 
L 248.477803 204.666649 
L 248.691041 205.004672 
L 249.117516 206.195371 
L 249.330754 205.875903 
L 250.183705 204.499529 
L 250.823419 203.871107 
L 251.143275 203.771223 
L 251.463132 203.896551 
L 252.209464 204.310542 
L 252.63594 204.464697 
L 253.169034 204.96066 
L 253.808748 205.938913 
L 254.235223 206.570898 
L 254.874937 205.65945 
L 255.301412 204.442722 
L 255.51465 204.305402 
L 255.727888 204.305406 
L 256.047745 204.674759 
L 256.154364 204.734554 
L 256.687458 205.868079 
L 257.327171 208.282112 
L 258.499979 206.580763 
L 258.819836 206.488858 
L 259.139693 206.593028 
L 259.459549 206.753785 
L 259.672787 206.754465 
L 259.779406 205.932668 
L 259.886025 205.969739 
L 260.312501 206.271353 
L 260.845595 206.973747 
L 261.37869 207.862027 
L 261.698546 206.884214 
L 262.018403 205.664408 
L 262.551497 203.409515 
L 262.871354 202.907105 
L 263.511068 203.006023 
L 264.150781 204.409364 
L 264.577256 206.409123 
L 265.21697 209.527012 
L 265.963302 208.592395 
L 266.069921 209.41987 
L 266.389778 209.325299 
L 266.709634 209.439023 
L 267.13611 209.778715 
L 267.455967 210.19093 
L 267.775823 210.303504 
L 268.415537 210.899928 
L 268.628775 211.138266 
L 268.735394 210.803723 
L 269.694964 204.465725 
L 270.121439 203.21438 
L 270.654534 202.674974 
L 270.867771 202.674974 
L 271.081009 202.693939 
L 271.294247 203.00931 
L 271.614104 204.069622 
L 272.147198 206.931854 
L 272.467055 208.133755 
L 272.573674 208.09898 
L 273.533244 206.677036 
L 274.066338 206.331424 
L 275.345765 206.131345 
L 275.772241 206.428219 
L 276.198716 207.030682 
L 276.625192 207.773056 
L 277.371524 205.118105 
L 277.691381 204.728091 
L 278.011238 204.385341 
L 278.544332 204.359958 
L 278.75757 204.617237 
L 279.077427 205.511212 
L 279.397283 206.296557 
L 279.610521 206.225703 
L 280.143616 205.385272 
L 280.783329 204.64477 
L 281.209805 204.403737 
L 281.956137 204.336062 
L 282.489231 204.457359 
L 283.342183 204.949057 
L 283.448802 205.078584 
L 283.662039 206.099866 
L 284.195134 207.164968 
L 284.301753 207.062957 
L 284.728228 205.817787 
L 285.581179 204.336064 
L 285.687798 204.426304 
L 286.007655 204.336064 
L 286.220893 204.558738 
L 286.54075 205.423983 
L 286.860606 206.516651 
L 288.353271 205.552454 
L 288.779746 205.564815 
L 290.698887 206.071068 
L 291.231981 206.552239 
L 291.551838 206.775273 
L 291.658457 206.707549 
L 292.084932 205.886464 
L 292.29817 205.771048 
L 292.831265 205.928907 
L 293.044502 205.710892 
L 293.151121 205.710893 
L 293.25774 205.832268 
L 293.577597 205.743068 
L 294.430548 206.364688 
L 295.17688 206.420442 
L 295.709975 206.730319 
L 296.243069 207.298386 
L 297.629115 209.135693 
L 297.948972 208.950363 
L 298.482066 208.325201 
L 299.548255 206.462557 
L 299.868112 206.278588 
L 300.08135 206.251202 
L 300.294587 206.353028 
L 300.507825 206.243295 
L 300.721063 206.275331 
L 300.934301 206.553236 
L 301.467395 207.552087 
L 302.00049 208.555 
L 302.746822 210.327345 
L 302.96006 210.194489 
L 303.599773 212.348182 
L 303.813011 212.370922 
L 304.346106 211.91253 
L 304.772581 211.411914 
L 305.092438 211.248368 
L 305.518913 211.256617 
L 307.118197 208.232322 
L 307.544673 207.841429 
L 307.971148 207.70126 
L 308.184386 207.629399 
L 308.291005 207.712047 
L 308.71748 208.823651 
L 309.143956 210.165656 
L 309.357194 210.438405 
L 310.103526 211.16115 
L 310.849858 212.290655 
L 311.70281 213.584151 
L 312.129285 213.600327 
L 312.342523 213.734018 
L 313.088855 214.620188 
L 313.302093 214.98628 
L 314.368282 213.117397 
L 314.901377 211.943024 
L 315.114614 211.830787 
L 315.327852 211.868335 
L 315.54109 211.791599 
L 315.647709 211.792359 
L 315.860947 212.267367 
L 316.50066 215.565308 
L 317.780087 223.264701 
L 317.993325 223.684988 
L 318.633038 223.834585 
L 318.952895 224.134439 
L 319.37937 223.945395 
L 319.592608 223.365285 
L 320.658797 218.742891 
L 321.511748 214.267003 
L 322.364699 209.960674 
L 322.684556 209.342661 
L 323.217651 209.431683 
L 323.537507 210.334984 
L 323.963983 212.428525 
L 324.816934 217.372411 
L 325.350029 217.396762 
L 325.563266 217.378326 
L 326.20298 216.336405 
L 327.908882 212.350796 
L 328.441977 210.256341 
L 329.721403 203.812187 
L 329.934641 203.4587 
L 330.04126 203.42354 
L 330.361117 202.860857 
L 330.467736 202.860857 
L 330.680973 203.183381 
L 331.00083 204.318748 
L 331.427306 206.850918 
L 332.813351 216.036331 
L 333.239827 217.028256 
L 333.87954 218.041 
L 334.092778 217.896359 
L 334.412635 217.518704 
L 334.732492 216.503821 
L 335.585443 212.914356 
L 335.798681 211.176271 
L 336.971488 198.352315 
L 337.717821 191.188654 
L 338.037677 189.847412 
L 338.250915 189.762819 
L 338.570772 189.794404 
L 338.78401 190.255778 
L 339.103866 191.80691 
L 339.530342 195.115801 
L 340.063437 201.098307 
L 340.809769 209.144567 
L 341.236244 211.62002 
L 341.556101 212.56856 
L 341.875958 213.196029 
L 342.089196 213.564125 
L 342.62229 213.818876 
L 343.155385 214.15589 
L 343.475241 213.326631 
L 343.795098 210.474863 
L 344.54143 200.702201 
L 345.501 187.87063 
L 346.567189 177.967769 
L 346.887046 176.721886 
L 347.100284 176.425945 
L 347.633378 176.425945 
L 347.846616 176.876684 
L 348.166473 178.235976 
L 348.379711 179.224566 
L 348.592948 178.993989 
L 348.699567 179.028729 
L 349.126043 178.69086 
L 349.339281 179.069362 
L 349.659137 180.397303 
L 349.765756 180.242614 
L 350.192232 178.81691 
L 350.40547 178.705758 
L 350.618707 178.733883 
L 350.725326 178.771383 
L 350.831945 178.688302 
L 350.938564 178.815738 
L 351.36504 180.62689 
L 351.791515 184.001816 
L 352.217991 189.768552 
L 354.030512 216.468378 
L 354.456988 218.912594 
L 354.776844 219.207152 
L 355.523177 219.856097 
L 355.843033 220.244096 
L 356.16289 220.843833 
L 356.376128 220.402389 
L 356.589366 219.822907 
L 356.909222 218.021602 
L 357.335698 213.160145 
L 357.868793 205.361307 
L 360.321027 160.745426 
L 360.960741 170.527927 
L 361.067359 170.673245 
L 361.280597 168.702396 
L 362.133548 156.659958 
L 362.879881 147.218937 
L 363.412975 142.992269 
L 363.732832 141.799184 
L 363.94607 141.529002 
L 364.159308 142.284488 
L 364.479164 144.744628 
L 365.012259 151.293371 
L 365.118878 150.269085 
L 365.651972 142.608007 
L 366.185067 132.457748 
L 366.504923 121.677799 
L 367.677731 21.919564 
L 367.78435 21.919563 
L 368.210826 56.81514 
L 369.277015 140.864223 
L 369.810109 153.779174 
L 369.916728 153.677241 
L 371.089536 129.774808 
L 371.302774 129.363686 
L 371.516012 130.617048 
L 371.835868 134.866156 
L 372.262344 144.309584 
L 373.008676 162.626242 
L 373.115295 163.69742 
L 373.328533 160.490525 
L 375.141054 93.700111 
L 375.247673 93.995142 
L 375.460911 98.49457 
L 376.100624 121.980413 
L 377.699908 181.158552 
L 379.085953 170.059835 
L 379.40581 169.21655 
L 379.619048 169.055125 
L 379.725667 169.098195 
L 379.938905 169.576444 
L 380.258761 171.428201 
L 380.471999 173.49499 
L 381.111712 163.290646 
L 381.538188 159.362278 
L 381.751426 158.879125 
L 381.858045 159.009705 
L 381.964664 159.331953 
L 382.177901 161.093832 
L 382.391139 165.415107 
L 383.563947 196.201561 
L 383.883804 198.24653 
L 384.310279 200.006056 
L 384.630136 201.405068 
L 384.736755 201.388713 
L 385.909563 186.856258 
L 386.22942 185.190271 
L 386.442657 184.495358 
L 386.869133 178.731822 
L 387.935322 164.772986 
L 388.361797 161.253138 
L 388.468416 161.194956 
L 388.681654 162.282169 
L 388.894892 165.144051 
L 389.427986 179.164731 
L 390.707413 212.470023 
L 391.02727 214.332447 
L 391.133889 213.970368 
L 391.453746 211.84629 
L 391.773602 210.434371 
L 392.093459 209.845497 
L 392.626553 208.087876 
L 392.839791 207.920738 
L 393.053029 208.10174 
L 393.266267 208.639755 
L 393.586123 210.118955 
L 393.799361 210.946482 
L 394.119218 211.875601 
L 394.332456 212.667869 
L 394.652312 212.591708 
L 394.972169 211.802895 
L 395.611883 206.730759 
L 396.358215 199.311752 
L 397.211166 184.299196 
L 397.317785 186.202942 
L 397.531023 184.300098 
L 397.531023 184.300098 
" clip-path="url(#pb4487fd597)" style="fill: none; stroke: #ff7f0e; stroke-width: 1.5; stroke-linecap: square"/>
   </g>
   <g id="patch_3">
    <path d="M 56.64375 279.010828 
L 56.64375 12.898828 
" style="fill: none; stroke: #000000; stroke-width: 0.8; stroke-linejoin: miter; stroke-linecap: square"/>
   </g>
   <g id="patch_4">
    <path d="M 413.76375 279.010828 
L 413.76375 12.898828 
" style="fill: none; stroke: #000000; stroke-width: 0.8; stroke-linejoin: miter; stroke-linecap: square"/>
   </g>
   <g id="patch_5">
    <path d="M 56.64375 279.010828 
L 413.76375 279.010828 
" style="fill: none; stroke: #000000; stroke-width: 0.8; stroke-linejoin: miter; stroke-linecap: square"/>
   </g>
   <g id="patch_6">
    <path d="M 56.64375 12.898828 
L 413.76375 12.898828 
" style="fill: none; stroke: #000000; stroke-width: 0.8; stroke-linejoin: miter; stroke-linecap: square"/>
   </g>
   <g id="legend_1">
    <g id="patch_7">
     <path d="M 63.64375 35.576953 
L 197.765625 35.576953 
Q 199.765625 35.576953 199.765625 33.576953 
L 199.765625 19.898828 
Q 199.765625 17.898828 197.765625 17.898828 
L 63.64375 17.898828 
Q 61.64375 17.898828 61.64375 19.898828 
L 61.64375 33.576953 
Q 61.64375 35.576953 63.64375 35.576953 
z
" style="fill: #ffffff; opacity: 0.8; stroke: #cccccc; stroke-linejoin: miter"/>
    </g>
    <g id="line2d_29">
     <path d="M 65.64375 25.997266 
L 75.64375 25.997266 
L 85.64375 25.997266 
" style="fill: none; stroke: #1f77b4; stroke-width: 1.5; stroke-linecap: square"/>
    </g>
    <g id="text_16">
     <!-- local -->
     <g transform="translate(93.64375 29.497266)scale(0.1 -0.1)">
      <defs>
       <path id="DejaVuSans-6c" d="M 603 4863 
L 1178 4863 
L 1178 0 
L 603 0 
L 603 4863 
z
" transform="scale(0.015625)"/>
       <path id="DejaVuSans-63" d="M 3122 3366 
L 3122 2828 
Q 2878 2963 2633 3030 
Q 2388 3097 2138 3097 
Q 1578 3097 1268 2742 
Q 959 2388 959 1747 
Q 959 1106 1268 751 
Q 1578 397 2138 397 
Q 2388 397 2633 464 
Q 2878 531 3122 666 
L 3122 134 
Q 2881 22 2623 -34 
Q 2366 -91 2075 -91 
Q 1284 -91 818 406 
Q 353 903 353 1747 
Q 353 2603 823 3093 
Q 1294 3584 2113 3584 
Q 2378 3584 2631 3529 
Q 2884 3475 3122 3366 
z
" transform="scale(0.015625)"/>
      </defs>
      <use xlink:href="#DejaVuSans-6c"/>
      <use xlink:href="#DejaVuSans-6f" x="27.783203"/>
      <use xlink:href="#DejaVuSans-63" x="88.964844"/>
      <use xlink:href="#DejaVuSans-61" x="143.945312"/>
      <use xlink:href="#DejaVuSans-6c" x="205.224609"/>
     </g>
    </g>
    <g id="line2d_30">
     <path d="M 136.945312 25.997266 
L 146.945312 25.997266 
L 156.945312 25.997266 
" style="fill: none; stroke: #ff7f0e; stroke-width: 1.5; stroke-linecap: square"/>
    </g>
    <g id="text_17">
     <!-- blk 70 -->
     <g transform="translate(164.945312 29.497266)scale(0.1 -0.1)">
      <defs>
       <path id="DejaVuSans-62" d="M 3116 1747 
Q 3116 2381 2855 2742 
Q 2594 3103 2138 3103 
Q 1681 3103 1420 2742 
Q 1159 2381 1159 1747 
Q 1159 1113 1420 752 
Q 1681 391 2138 391 
Q 2594 391 2855 752 
Q 3116 1113 3116 1747 
z
M 1159 2969 
Q 1341 3281 1617 3432 
Q 1894 3584 2278 3584 
Q 2916 3584 3314 3078 
Q 3713 2572 3713 1747 
Q 3713 922 3314 415 
Q 2916 -91 2278 -91 
Q 1894 -91 1617 61 
Q 1341 213 1159 525 
L 1159 0 
L 581 0 
L 581 4863 
L 1159 4863 
L 1159 2969 
z
" transform="scale(0.015625)"/>
       <path id="DejaVuSans-6b" d="M 581 4863 
L 1159 4863 
L 1159 1991 
L 2875 3500 
L 3609 3500 
L 1753 1863 
L 3688 0 
L 2938 0 
L 1159 1709 
L 1159 0 
L 581 0 
L 581 4863 
z
" transform="scale(0.015625)"/>
       <path id="DejaVuSans-37" d="M 525 4666 
L 3525 4666 
L 3525 4397 
L 1831 0 
L 1172 0 
L 2766 4134 
L 525 4134 
L 525 4666 
z
" transform="scale(0.015625)"/>
      </defs>
      <use xlink:href="#DejaVuSans-62"/>
      <use xlink:href="#DejaVuSans-6c" x="63.476562"/>
      <use xlink:href="#DejaVuSans-6b" x="91.259766"/>
      <use xlink:href="#DejaVuSans-20" x="149.169922"/>
      <use xlink:href="#DejaVuSans-37" x="180.957031"/>
      <use xlink:href="#DejaVuSans-30" x="244.580078"/>
     </g>
    </g>
   </g>
  </g>
 </g>
 <defs>
  <clipPath id="pb4487fd597">
   <rect x="56.64375" y="12.898828" width="357.12" height="266.112"/>
  </clipPath>
 </defs>
</svg>
