<?xml version="1.0" encoding="utf-8" standalone="no"?>
<!DOCTYPE svg PUBLIC "-//W3C//DTD SVG 1.1//EN"
  "http://www.w3.org/Graphics/SVG/1.1/DTD/svg11.dtd">
<svg xmlns:xlink="http://www.w3.org/1999/xlink" width="425.730937pt" height="331.084266pt" viewBox="0 0 425.730937 331.084266" xmlns="http://www.w3.org/2000/svg" version="1.1">
 <defs>
  <style type="text/css">*{stroke-linejoin: round; stroke-linecap: butt}</style>
 </defs>
 <g id="figure_1">
  <g id="patch_1">
   <path d="M 0 331.084266 
L 425.730937 331.084266 
L 425.730937 0 
L 0 0 
L 0 331.084266 
z
" style="fill: none"/>
  </g>
  <g id="axes_1">
   <g id="patch_2">
    <path d="M 61.410938 279.010828 
L 418.530938 279.010828 
L 418.530938 12.898828 
L 61.410938 12.898828 
L 61.410938 279.010828 
z
" style="fill: none"/>
   </g>
   <g id="matplotlib.axis_1">
    <g id="xtick_1">
     <g id="line2d_1">
      <path d="M 82.443091 279.010828 
L 82.443091 12.898828 
" clip-path="url(#pf2b7413cda)" style="fill: none; stroke: #b0b0b0; stroke-width: 0.8; stroke-linecap: square"/>
     </g>
     <g id="line2d_2">
      <defs>
       <path id="md39032bed2" d="M 0 0 
L 0 3.5 
" style="stroke: #000000; stroke-width: 0.8"/>
      </defs>
      <g>
       <use xlink:href="#md39032bed2" x="82.443091" y="279.010828" style="stroke: #000000; stroke-width: 0.8"/>
      </g>
     </g>
     <g id="text_1">
      <!-- −3000 -->
      <g transform="translate(57.070826 297.408484)scale(0.15 -0.15)">
       <defs>
        <path id="DejaVuSans-2212" d="M 678 2272 
L 4684 2272 
L 4684 1741 
L 678 1741 
L 678 2272 
z
" transform="scale(0.015625)"/>
        <path id="DejaVuSans-33" d="M 2597 2516 
Q 3050 2419 3304 2112 
Q 3559 1806 3559 1356 
Q 3559 666 3084 287 
Q 2609 -91 1734 -91 
Q 1441 -91 1130 -33 
Q 819 25 488 141 
L 488 750 
Q 750 597 1062 519 
Q 1375 441 1716 441 
Q 2309 441 2620 675 
Q 2931 909 2931 1356 
Q 2931 1769 2642 2001 
Q 2353 2234 1838 2234 
L 1294 2234 
L 1294 2753 
L 1863 2753 
Q 2328 2753 2575 2939 
Q 2822 3125 2822 3475 
Q 2822 3834 2567 4026 
Q 2313 4219 1838 4219 
Q 1578 4219 1281 4162 
Q 984 4106 628 3988 
L 628 4550 
Q 988 4650 1302 4700 
Q 1616 4750 1894 4750 
Q 2613 4750 3031 4423 
Q 3450 4097 3450 3541 
Q 3450 3153 3228 2886 
Q 3006 2619 2597 2516 
z
" transform="scale(0.015625)"/>
        <path id="DejaVuSans-30" d="M 2034 4250 
Q 1547 4250 1301 3770 
Q 1056 3291 1056 2328 
Q 1056 1369 1301 889 
Q 1547 409 2034 409 
Q 2525 409 2770 889 
Q 3016 1369 3016 2328 
Q 3016 3291 2770 3770 
Q 2525 4250 2034 4250 
z
M 2034 4750 
Q 2819 4750 3233 4129 
Q 3647 3509 3647 2328 
Q 3647 1150 3233 529 
Q 2819 -91 2034 -91 
Q 1250 -91 836 529 
Q 422 1150 422 2328 
Q 422 3509 836 4129 
Q 1250 4750 2034 4750 
z
" transform="scale(0.015625)"/>
       </defs>
       <use xlink:href="#DejaVuSans-2212"/>
       <use xlink:href="#DejaVuSans-33" x="83.789062"/>
       <use xlink:href="#DejaVuSans-30" x="147.412109"/>
       <use xlink:href="#DejaVuSans-30" x="211.035156"/>
       <use xlink:href="#DejaVuSans-30" x="274.658203"/>
      </g>
     </g>
    </g>
    <g id="xtick_2">
     <g id="line2d_3">
      <path d="M 135.770053 279.010828 
L 135.770053 12.898828 
" clip-path="url(#pf2b7413cda)" style="fill: none; stroke: #b0b0b0; stroke-width: 0.8; stroke-linecap: square"/>
     </g>
     <g id="line2d_4">
      <g>
       <use xlink:href="#md39032bed2" x="135.770053" y="279.010828" style="stroke: #000000; stroke-width: 0.8"/>
      </g>
     </g>
     <g id="text_2">
      <!-- −2500 -->
      <g transform="translate(110.397788 297.408484)scale(0.15 -0.15)">
       <defs>
        <path id="DejaVuSans-32" d="M 1228 531 
L 3431 531 
L 3431 0 
L 469 0 
L 469 531 
Q 828 903 1448 1529 
Q 2069 2156 2228 2338 
Q 2531 2678 2651 2914 
Q 2772 3150 2772 3378 
Q 2772 3750 2511 3984 
Q 2250 4219 1831 4219 
Q 1534 4219 1204 4116 
Q 875 4013 500 3803 
L 500 4441 
Q 881 4594 1212 4672 
Q 1544 4750 1819 4750 
Q 2544 4750 2975 4387 
Q 3406 4025 3406 3419 
Q 3406 3131 3298 2873 
Q 3191 2616 2906 2266 
Q 2828 2175 2409 1742 
Q 1991 1309 1228 531 
z
" transform="scale(0.015625)"/>
        <path id="DejaVuSans-35" d="M 691 4666 
L 3169 4666 
L 3169 4134 
L 1269 4134 
L 1269 2991 
Q 1406 3038 1543 3061 
Q 1681 3084 1819 3084 
Q 2600 3084 3056 2656 
Q 3513 2228 3513 1497 
Q 3513 744 3044 326 
Q 2575 -91 1722 -91 
Q 1428 -91 1123 -41 
Q 819 9 494 109 
L 494 744 
Q 775 591 1075 516 
Q 1375 441 1709 441 
Q 2250 441 2565 725 
Q 2881 1009 2881 1497 
Q 2881 1984 2565 2268 
Q 2250 2553 1709 2553 
Q 1456 2553 1204 2497 
Q 953 2441 691 2322 
L 691 4666 
z
" transform="scale(0.015625)"/>
       </defs>
       <use xlink:href="#DejaVuSans-2212"/>
       <use xlink:href="#DejaVuSans-32" x="83.789062"/>
       <use xlink:href="#DejaVuSans-35" x="147.412109"/>
       <use xlink:href="#DejaVuSans-30" x="211.035156"/>
       <use xlink:href="#DejaVuSans-30" x="274.658203"/>
      </g>
     </g>
    </g>
    <g id="xtick_3">
     <g id="line2d_5">
      <path d="M 189.097016 279.010828 
L 189.097016 12.898828 
" clip-path="url(#pf2b7413cda)" style="fill: none; stroke: #b0b0b0; stroke-width: 0.8; stroke-linecap: square"/>
     </g>
     <g id="line2d_6">
      <g>
       <use xlink:href="#md39032bed2" x="189.097016" y="279.010828" style="stroke: #000000; stroke-width: 0.8"/>
      </g>
     </g>
     <g id="text_3">
      <!-- −2000 -->
      <g transform="translate(163.72475 297.408484)scale(0.15 -0.15)">
       <use xlink:href="#DejaVuSans-2212"/>
       <use xlink:href="#DejaVuSans-32" x="83.789062"/>
       <use xlink:href="#DejaVuSans-30" x="147.412109"/>
       <use xlink:href="#DejaVuSans-30" x="211.035156"/>
       <use xlink:href="#DejaVuSans-30" x="274.658203"/>
      </g>
     </g>
    </g>
    <g id="xtick_4">
     <g id="line2d_7">
      <path d="M 242.423978 279.010828 
L 242.423978 12.898828 
" clip-path="url(#pf2b7413cda)" style="fill: none; stroke: #b0b0b0; stroke-width: 0.8; stroke-linecap: square"/>
     </g>
     <g id="line2d_8">
      <g>
       <use xlink:href="#md39032bed2" x="242.423978" y="279.010828" style="stroke: #000000; stroke-width: 0.8"/>
      </g>
     </g>
     <g id="text_4">
      <!-- −1500 -->
      <g transform="translate(217.051712 297.408484)scale(0.15 -0.15)">
       <defs>
        <path id="DejaVuSans-31" d="M 794 531 
L 1825 531 
L 1825 4091 
L 703 3866 
L 703 4441 
L 1819 4666 
L 2450 4666 
L 2450 531 
L 3481 531 
L 3481 0 
L 794 0 
L 794 531 
z
" transform="scale(0.015625)"/>
       </defs>
       <use xlink:href="#DejaVuSans-2212"/>
       <use xlink:href="#DejaVuSans-31" x="83.789062"/>
       <use xlink:href="#DejaVuSans-35" x="147.412109"/>
       <use xlink:href="#DejaVuSans-30" x="211.035156"/>
       <use xlink:href="#DejaVuSans-30" x="274.658203"/>
      </g>
     </g>
    </g>
    <g id="xtick_5">
     <g id="line2d_9">
      <path d="M 295.75094 279.010828 
L 295.75094 12.898828 
" clip-path="url(#pf2b7413cda)" style="fill: none; stroke: #b0b0b0; stroke-width: 0.8; stroke-linecap: square"/>
     </g>
     <g id="line2d_10">
      <g>
       <use xlink:href="#md39032bed2" x="295.75094" y="279.010828" style="stroke: #000000; stroke-width: 0.8"/>
      </g>
     </g>
     <g id="text_5">
      <!-- −1000 -->
      <g transform="translate(270.378674 297.408484)scale(0.15 -0.15)">
       <use xlink:href="#DejaVuSans-2212"/>
       <use xlink:href="#DejaVuSans-31" x="83.789062"/>
       <use xlink:href="#DejaVuSans-30" x="147.412109"/>
       <use xlink:href="#DejaVuSans-30" x="211.035156"/>
       <use xlink:href="#DejaVuSans-30" x="274.658203"/>
      </g>
     </g>
    </g>
    <g id="xtick_6">
     <g id="line2d_11">
      <path d="M 349.077902 279.010828 
L 349.077902 12.898828 
" clip-path="url(#pf2b7413cda)" style="fill: none; stroke: #b0b0b0; stroke-width: 0.8; stroke-linecap: square"/>
     </g>
     <g id="line2d_12">
      <g>
       <use xlink:href="#md39032bed2" x="349.077902" y="279.010828" style="stroke: #000000; stroke-width: 0.8"/>
      </g>
     </g>
     <g id="text_6">
      <!-- −500 -->
      <g transform="translate(328.477511 297.408484)scale(0.15 -0.15)">
       <use xlink:href="#DejaVuSans-2212"/>
       <use xlink:href="#DejaVuSans-35" x="83.789062"/>
       <use xlink:href="#DejaVuSans-30" x="147.412109"/>
       <use xlink:href="#DejaVuSans-30" x="211.035156"/>
      </g>
     </g>
    </g>
    <g id="xtick_7">
     <g id="line2d_13">
      <path d="M 402.404864 279.010828 
L 402.404864 12.898828 
" clip-path="url(#pf2b7413cda)" style="fill: none; stroke: #b0b0b0; stroke-width: 0.8; stroke-linecap: square"/>
     </g>
     <g id="line2d_14">
      <g>
       <use xlink:href="#md39032bed2" x="402.404864" y="279.010828" style="stroke: #000000; stroke-width: 0.8"/>
      </g>
     </g>
     <g id="text_7">
      <!-- 0 -->
      <g transform="translate(397.632989 297.408484)scale(0.15 -0.15)">
       <use xlink:href="#DejaVuSans-30"/>
      </g>
     </g>
    </g>
    <g id="text_8">
     <!-- Position (μm) -->
     <g transform="translate(173.958438 319.724891)scale(0.2 -0.2)">
      <defs>
       <path id="DejaVuSans-50" d="M 1259 4147 
L 1259 2394 
L 2053 2394 
Q 2494 2394 2734 2622 
Q 2975 2850 2975 3272 
Q 2975 3691 2734 3919 
Q 2494 4147 2053 4147 
L 1259 4147 
z
M 628 4666 
L 2053 4666 
Q 2838 4666 3239 4311 
Q 3641 3956 3641 3272 
Q 3641 2581 3239 2228 
Q 2838 1875 2053 1875 
L 1259 1875 
L 1259 0 
L 628 0 
L 628 4666 
z
" transform="scale(0.015625)"/>
       <path id="DejaVuSans-6f" d="M 1959 3097 
Q 1497 3097 1228 2736 
Q 959 2375 959 1747 
Q 959 1119 1226 758 
Q 1494 397 1959 397 
Q 2419 397 2687 759 
Q 2956 1122 2956 1747 
Q 2956 2369 2687 2733 
Q 2419 3097 1959 3097 
z
M 1959 3584 
Q 2709 3584 3137 3096 
Q 3566 2609 3566 1747 
Q 3566 888 3137 398 
Q 2709 -91 1959 -91 
Q 1206 -91 779 398 
Q 353 888 353 1747 
Q 353 2609 779 3096 
Q 1206 3584 1959 3584 
z
" transform="scale(0.015625)"/>
       <path id="DejaVuSans-73" d="M 2834 3397 
L 2834 2853 
Q 2591 2978 2328 3040 
Q 2066 3103 1784 3103 
Q 1356 3103 1142 2972 
Q 928 2841 928 2578 
Q 928 2378 1081 2264 
Q 1234 2150 1697 2047 
L 1894 2003 
Q 2506 1872 2764 1633 
Q 3022 1394 3022 966 
Q 3022 478 2636 193 
Q 2250 -91 1575 -91 
Q 1294 -91 989 -36 
Q 684 19 347 128 
L 347 722 
Q 666 556 975 473 
Q 1284 391 1588 391 
Q 1994 391 2212 530 
Q 2431 669 2431 922 
Q 2431 1156 2273 1281 
Q 2116 1406 1581 1522 
L 1381 1569 
Q 847 1681 609 1914 
Q 372 2147 372 2553 
Q 372 3047 722 3315 
Q 1072 3584 1716 3584 
Q 2034 3584 2315 3537 
Q 2597 3491 2834 3397 
z
" transform="scale(0.015625)"/>
       <path id="DejaVuSans-69" d="M 603 3500 
L 1178 3500 
L 1178 0 
L 603 0 
L 603 3500 
z
M 603 4863 
L 1178 4863 
L 1178 4134 
L 603 4134 
L 603 4863 
z
" transform="scale(0.015625)"/>
       <path id="DejaVuSans-74" d="M 1172 4494 
L 1172 3500 
L 2356 3500 
L 2356 3053 
L 1172 3053 
L 1172 1153 
Q 1172 725 1289 603 
Q 1406 481 1766 481 
L 2356 481 
L 2356 0 
L 1766 0 
Q 1100 0 847 248 
Q 594 497 594 1153 
L 594 3053 
L 172 3053 
L 172 3500 
L 594 3500 
L 594 4494 
L 1172 4494 
z
" transform="scale(0.015625)"/>
       <path id="DejaVuSans-6e" d="M 3513 2113 
L 3513 0 
L 2938 0 
L 2938 2094 
Q 2938 2591 2744 2837 
Q 2550 3084 2163 3084 
Q 1697 3084 1428 2787 
Q 1159 2491 1159 1978 
L 1159 0 
L 581 0 
L 581 3500 
L 1159 3500 
L 1159 2956 
Q 1366 3272 1645 3428 
Q 1925 3584 2291 3584 
Q 2894 3584 3203 3211 
Q 3513 2838 3513 2113 
z
" transform="scale(0.015625)"/>
       <path id="DejaVuSans-20" transform="scale(0.015625)"/>
       <path id="DejaVuSans-28" d="M 1984 4856 
Q 1566 4138 1362 3434 
Q 1159 2731 1159 2009 
Q 1159 1288 1364 580 
Q 1569 -128 1984 -844 
L 1484 -844 
Q 1016 -109 783 600 
Q 550 1309 550 2009 
Q 550 2706 781 3412 
Q 1013 4119 1484 4856 
L 1984 4856 
z
" transform="scale(0.015625)"/>
       <path id="DejaVuSans-3bc" d="M 544 -1331 
L 544 3500 
L 1119 3500 
L 1119 1325 
Q 1119 872 1334 640 
Q 1550 409 1972 409 
Q 2434 409 2667 671 
Q 2900 934 2900 1459 
L 2900 3500 
L 3475 3500 
L 3475 806 
Q 3475 619 3529 530 
Q 3584 441 3700 441 
Q 3728 441 3778 458 
Q 3828 475 3916 513 
L 3916 50 
Q 3788 -22 3673 -56 
Q 3559 -91 3450 -91 
Q 3234 -91 3106 31 
Q 2978 153 2931 403 
Q 2775 156 2548 32 
Q 2322 -91 2016 -91 
Q 1697 -91 1473 31 
Q 1250 153 1119 397 
L 1119 -1331 
L 544 -1331 
z
" transform="scale(0.015625)"/>
       <path id="DejaVuSans-6d" d="M 3328 2828 
Q 3544 3216 3844 3400 
Q 4144 3584 4550 3584 
Q 5097 3584 5394 3201 
Q 5691 2819 5691 2113 
L 5691 0 
L 5113 0 
L 5113 2094 
Q 5113 2597 4934 2840 
Q 4756 3084 4391 3084 
Q 3944 3084 3684 2787 
Q 3425 2491 3425 1978 
L 3425 0 
L 2847 0 
L 2847 2094 
Q 2847 2600 2669 2842 
Q 2491 3084 2119 3084 
Q 1678 3084 1418 2786 
Q 1159 2488 1159 1978 
L 1159 0 
L 581 0 
L 581 3500 
L 1159 3500 
L 1159 2956 
Q 1356 3278 1631 3431 
Q 1906 3584 2284 3584 
Q 2666 3584 2933 3390 
Q 3200 3197 3328 2828 
z
" transform="scale(0.015625)"/>
       <path id="DejaVuSans-29" d="M 513 4856 
L 1013 4856 
Q 1481 4119 1714 3412 
Q 1947 2706 1947 2009 
Q 1947 1309 1714 600 
Q 1481 -109 1013 -844 
L 513 -844 
Q 928 -128 1133 580 
Q 1338 1288 1338 2009 
Q 1338 2731 1133 3434 
Q 928 4138 513 4856 
z
" transform="scale(0.015625)"/>
      </defs>
      <use xlink:href="#DejaVuSans-50"/>
      <use xlink:href="#DejaVuSans-6f" x="56.677734"/>
      <use xlink:href="#DejaVuSans-73" x="117.859375"/>
      <use xlink:href="#DejaVuSans-69" x="169.958984"/>
      <use xlink:href="#DejaVuSans-74" x="197.742188"/>
      <use xlink:href="#DejaVuSans-69" x="236.951172"/>
      <use xlink:href="#DejaVuSans-6f" x="264.734375"/>
      <use xlink:href="#DejaVuSans-6e" x="325.916016"/>
      <use xlink:href="#DejaVuSans-20" x="389.294922"/>
      <use xlink:href="#DejaVuSans-28" x="421.082031"/>
      <use xlink:href="#DejaVuSans-3bc" x="460.095703"/>
      <use xlink:href="#DejaVuSans-6d" x="523.71875"/>
      <use xlink:href="#DejaVuSans-29" x="621.130859"/>
     </g>
    </g>
   </g>
   <g id="matplotlib.axis_2">
    <g id="ytick_1">
     <g id="line2d_15">
      <path d="M 61.410938 279.010828 
L 418.530938 279.010828 
" clip-path="url(#pf2b7413cda)" style="fill: none; stroke: #b0b0b0; stroke-width: 0.8; stroke-linecap: square"/>
     </g>
     <g id="line2d_16">
      <defs>
       <path id="m6f3f5b6aff" d="M 0 0 
L -3.5 0 
" style="stroke: #000000; stroke-width: 0.8"/>
      </defs>
      <g>
       <use xlink:href="#m6f3f5b6aff" x="61.410938" y="279.010828" style="stroke: #000000; stroke-width: 0.8"/>
      </g>
     </g>
     <g id="text_9">
      <!-- 0.0 -->
      <g transform="translate(30.55625 284.709656)scale(0.15 -0.15)">
       <defs>
        <path id="DejaVuSans-2e" d="M 684 794 
L 1344 794 
L 1344 0 
L 684 0 
L 684 794 
z
" transform="scale(0.015625)"/>
       </defs>
       <use xlink:href="#DejaVuSans-30"/>
       <use xlink:href="#DejaVuSans-2e" x="63.623047"/>
       <use xlink:href="#DejaVuSans-30" x="95.410156"/>
      </g>
     </g>
    </g>
    <g id="ytick_2">
     <g id="line2d_17">
      <path d="M 61.410938 225.788428 
L 418.530938 225.788428 
" clip-path="url(#pf2b7413cda)" style="fill: none; stroke: #b0b0b0; stroke-width: 0.8; stroke-linecap: square"/>
     </g>
     <g id="line2d_18">
      <g>
       <use xlink:href="#m6f3f5b6aff" x="61.410938" y="225.788428" style="stroke: #000000; stroke-width: 0.8"/>
      </g>
     </g>
     <g id="text_10">
      <!-- 0.5 -->
      <g transform="translate(30.55625 231.487256)scale(0.15 -0.15)">
       <use xlink:href="#DejaVuSans-30"/>
       <use xlink:href="#DejaVuSans-2e" x="63.623047"/>
       <use xlink:href="#DejaVuSans-35" x="95.410156"/>
      </g>
     </g>
    </g>
    <g id="ytick_3">
     <g id="line2d_19">
      <path d="M 61.410938 172.566028 
L 418.530938 172.566028 
" clip-path="url(#pf2b7413cda)" style="fill: none; stroke: #b0b0b0; stroke-width: 0.8; stroke-linecap: square"/>
     </g>
     <g id="line2d_20">
      <g>
       <use xlink:href="#m6f3f5b6aff" x="61.410938" y="172.566028" style="stroke: #000000; stroke-width: 0.8"/>
      </g>
     </g>
     <g id="text_11">
      <!-- 1.0 -->
      <g transform="translate(30.55625 178.264856)scale(0.15 -0.15)">
       <use xlink:href="#DejaVuSans-31"/>
       <use xlink:href="#DejaVuSans-2e" x="63.623047"/>
       <use xlink:href="#DejaVuSans-30" x="95.410156"/>
      </g>
     </g>
    </g>
    <g id="ytick_4">
     <g id="line2d_21">
      <path d="M 61.410938 119.343628 
L 418.530938 119.343628 
" clip-path="url(#pf2b7413cda)" style="fill: none; stroke: #b0b0b0; stroke-width: 0.8; stroke-linecap: square"/>
     </g>
     <g id="line2d_22">
      <g>
       <use xlink:href="#m6f3f5b6aff" x="61.410938" y="119.343628" style="stroke: #000000; stroke-width: 0.8"/>
      </g>
     </g>
     <g id="text_12">
      <!-- 1.5 -->
      <g transform="translate(30.55625 125.042456)scale(0.15 -0.15)">
       <use xlink:href="#DejaVuSans-31"/>
       <use xlink:href="#DejaVuSans-2e" x="63.623047"/>
       <use xlink:href="#DejaVuSans-35" x="95.410156"/>
      </g>
     </g>
    </g>
    <g id="ytick_5">
     <g id="line2d_23">
      <path d="M 61.410938 66.121228 
L 418.530938 66.121228 
" clip-path="url(#pf2b7413cda)" style="fill: none; stroke: #b0b0b0; stroke-width: 0.8; stroke-linecap: square"/>
     </g>
     <g id="line2d_24">
      <g>
       <use xlink:href="#m6f3f5b6aff" x="61.410938" y="66.121228" style="stroke: #000000; stroke-width: 0.8"/>
      </g>
     </g>
     <g id="text_13">
      <!-- 2.0 -->
      <g transform="translate(30.55625 71.820056)scale(0.15 -0.15)">
       <use xlink:href="#DejaVuSans-32"/>
       <use xlink:href="#DejaVuSans-2e" x="63.623047"/>
       <use xlink:href="#DejaVuSans-30" x="95.410156"/>
      </g>
     </g>
    </g>
    <g id="ytick_6">
     <g id="line2d_25">
      <path d="M 61.410938 12.898828 
L 418.530938 12.898828 
" clip-path="url(#pf2b7413cda)" style="fill: none; stroke: #b0b0b0; stroke-width: 0.8; stroke-linecap: square"/>
     </g>
     <g id="line2d_26">
      <g>
       <use xlink:href="#m6f3f5b6aff" x="61.410938" y="12.898828" style="stroke: #000000; stroke-width: 0.8"/>
      </g>
     </g>
     <g id="text_14">
      <!-- 2.5 -->
      <g transform="translate(30.55625 18.597656)scale(0.15 -0.15)">
       <use xlink:href="#DejaVuSans-32"/>
       <use xlink:href="#DejaVuSans-2e" x="63.623047"/>
       <use xlink:href="#DejaVuSans-35" x="95.410156"/>
      </g>
     </g>
    </g>
    <g id="text_15">
     <!-- Difference (V) -->
     <g transform="translate(22.396875 215.476703)rotate(-90)scale(0.2 -0.2)">
      <defs>
       <path id="DejaVuSans-44" d="M 1259 4147 
L 1259 519 
L 2022 519 
Q 2988 519 3436 956 
Q 3884 1394 3884 2338 
Q 3884 3275 3436 3711 
Q 2988 4147 2022 4147 
L 1259 4147 
z
M 628 4666 
L 1925 4666 
Q 3281 4666 3915 4102 
Q 4550 3538 4550 2338 
Q 4550 1131 3912 565 
Q 3275 0 1925 0 
L 628 0 
L 628 4666 
z
" transform="scale(0.015625)"/>
       <path id="DejaVuSans-66" d="M 2375 4863 
L 2375 4384 
L 1825 4384 
Q 1516 4384 1395 4259 
Q 1275 4134 1275 3809 
L 1275 3500 
L 2222 3500 
L 2222 3053 
L 1275 3053 
L 1275 0 
L 697 0 
L 697 3053 
L 147 3053 
L 147 3500 
L 697 3500 
L 697 3744 
Q 697 4328 969 4595 
Q 1241 4863 1831 4863 
L 2375 4863 
z
" transform="scale(0.015625)"/>
       <path id="DejaVuSans-65" d="M 3597 1894 
L 3597 1613 
L 953 1613 
Q 991 1019 1311 708 
Q 1631 397 2203 397 
Q 2534 397 2845 478 
Q 3156 559 3463 722 
L 3463 178 
Q 3153 47 2828 -22 
Q 2503 -91 2169 -91 
Q 1331 -91 842 396 
Q 353 884 353 1716 
Q 353 2575 817 3079 
Q 1281 3584 2069 3584 
Q 2775 3584 3186 3129 
Q 3597 2675 3597 1894 
z
M 3022 2063 
Q 3016 2534 2758 2815 
Q 2500 3097 2075 3097 
Q 1594 3097 1305 2825 
Q 1016 2553 972 2059 
L 3022 2063 
z
" transform="scale(0.015625)"/>
       <path id="DejaVuSans-72" d="M 2631 2963 
Q 2534 3019 2420 3045 
Q 2306 3072 2169 3072 
Q 1681 3072 1420 2755 
Q 1159 2438 1159 1844 
L 1159 0 
L 581 0 
L 581 3500 
L 1159 3500 
L 1159 2956 
Q 1341 3275 1631 3429 
Q 1922 3584 2338 3584 
Q 2397 3584 2469 3576 
Q 2541 3569 2628 3553 
L 2631 2963 
z
" transform="scale(0.015625)"/>
       <path id="DejaVuSans-63" d="M 3122 3366 
L 3122 2828 
Q 2878 2963 2633 3030 
Q 2388 3097 2138 3097 
Q 1578 3097 1268 2742 
Q 959 2388 959 1747 
Q 959 1106 1268 751 
Q 1578 397 2138 397 
Q 2388 397 2633 464 
Q 2878 531 3122 666 
L 3122 134 
Q 2881 22 2623 -34 
Q 2366 -91 2075 -91 
Q 1284 -91 818 406 
Q 353 903 353 1747 
Q 353 2603 823 3093 
Q 1294 3584 2113 3584 
Q 2378 3584 2631 3529 
Q 2884 3475 3122 3366 
z
" transform="scale(0.015625)"/>
       <path id="DejaVuSans-56" d="M 1831 0 
L 50 4666 
L 709 4666 
L 2188 738 
L 3669 4666 
L 4325 4666 
L 2547 0 
L 1831 0 
z
" transform="scale(0.015625)"/>
      </defs>
      <use xlink:href="#DejaVuSans-44"/>
      <use xlink:href="#DejaVuSans-69" x="77.001953"/>
      <use xlink:href="#DejaVuSans-66" x="104.785156"/>
      <use xlink:href="#DejaVuSans-66" x="139.990234"/>
      <use xlink:href="#DejaVuSans-65" x="175.195312"/>
      <use xlink:href="#DejaVuSans-72" x="236.71875"/>
      <use xlink:href="#DejaVuSans-65" x="275.582031"/>
      <use xlink:href="#DejaVuSans-6e" x="337.105469"/>
      <use xlink:href="#DejaVuSans-63" x="400.484375"/>
      <use xlink:href="#DejaVuSans-65" x="455.464844"/>
      <use xlink:href="#DejaVuSans-20" x="516.988281"/>
      <use xlink:href="#DejaVuSans-28" x="548.775391"/>
      <use xlink:href="#DejaVuSans-56" x="587.789062"/>
      <use xlink:href="#DejaVuSans-29" x="656.197266"/>
     </g>
    </g>
   </g>
   <g id="line2d_27">
    <path d="M 79.775098 -1 
L 79.776743 -0.882042 
L 79.777129 -1 
M 80.09494 -1 
L 80.096705 29.851409 
L 80.203359 12.036677 
L 80.416667 19.644815 
L 80.523321 13.202657 
L 80.530909 -1 
M 81.33007 -1 
L 81.376552 73.963011 
L 81.483206 73.242855 
L 81.497009 -1 
M 81.694201 -1 
L 81.803168 28.083018 
L 81.909822 46.202948 
L 81.912502 -1 
M 82.226693 -1 
L 82.336437 147.458777 
L 82.656399 162.607592 
L 82.869707 46.263479 
L 83.189669 127.022583 
L 83.509631 225.114336 
L 83.616285 222.734264 
L 83.829592 82.764389 
L 83.832718 -1 
M 84.039382 -1 
L 84.0429 93.654334 
L 84.045669 -1 
M 84.251763 -1 
L 84.256208 153.441719 
L 84.362862 96.75867 
L 84.373011 -1 
M 86.52294 -1 
L 86.602594 114.207732 
L 86.61034 -1 
M 86.806246 -1 
L 86.922556 168.059077 
L 87.02921 154.534014 
L 87.053017 -1 
M 87.6628 -1 
L 87.669134 137.1229 
L 87.697327 -1 
M 87.854599 -1 
L 87.882442 134.801221 
L 87.989095 134.321418 
L 88.095749 134.220132 
L 88.202403 172.727188 
L 88.312208 -1 
M 89.793515 -1 
L 89.908866 197.577132 
L 90.335482 216.216236 
L 90.975405 232.069375 
L 91.082059 231.285071 
L 91.295367 225.94098 
L 91.304723 -1 
M 91.823278 -1 
L 91.828637 110.169283 
L 91.89747 -1 
M 93.314881 -1 
L 93.321792 136.402332 
L 93.42219 -1 
M 93.628141 -1 
L 93.641753 153.053023 
L 93.654324 -1 
M 93.840551 -1 
L 93.855061 180.581135 
L 93.961715 170.595327 
L 94.494985 119.951833 
L 94.601639 159.733838 
L 94.613316 -1 
M 94.802276 -1 
L 94.814947 175.242009 
L 94.921601 167.311075 
L 95.134908 150.314608 
L 95.153072 -1 
M 95.426117 -1 
L 95.45487 236.291212 
L 95.561524 233.630558 
L 95.668178 231.391416 
L 95.694449 -1 
M 96.401291 -1 
L 96.521409 233.748977 
L 96.544736 -1 
M 97.145579 -1 
L 97.267987 218.970475 
L 97.801256 236.966021 
L 97.90791 241.51677 
L 98.014564 197.916676 
L 98.121218 247.325927 
L 98.227872 245.995882 
L 98.334526 244.856809 
L 98.547834 207.461561 
L 98.761142 149.351825 
L 98.867796 157.301805 
L 98.880345 -1 
M 99.065086 -1 
L 99.187757 229.721363 
L 99.401065 216.174286 
L 99.429242 -1 
M 99.586069 -1 
L 99.614373 217.508625 
L 99.721027 217.440454 
L 99.827681 214.881074 
L 99.857115 -1 
M 100.118512 -1 
L 100.254297 215.683794 
L 100.360951 219.320123 
L 100.389461 -1 
M 100.54387 -1 
L 100.680912 241.765089 
L 101.214182 253.164171 
L 101.747452 250.621994 
L 102.067413 248.755536 
L 102.146155 -1 
M 102.202132 -1 
L 102.280721 246.910762 
L 102.387375 246.354318 
L 102.494029 245.838682 
L 102.507973 -1 
M 102.695132 -1 
L 102.813991 240.347491 
L 103.027299 240.137799 
L 103.133953 240.154932 
L 103.240607 232.01588 
L 103.347261 158.011033 
L 103.380268 -1 
M 104.034055 -1 
L 104.093838 240.043666 
L 104.200492 239.804106 
L 104.4138 239.676277 
L 104.520454 239.779101 
L 104.542557 -1 
M 104.826461 -1 
L 104.947069 247.817598 
L 105.480339 250.894302 
L 105.693647 248.873096 
L 106.013609 244.896599 
L 106.440224 231.37249 
L 106.86684 219.079943 
L 106.896286 -1 
M 107.168851 -1 
L 107.186802 228.186711 
L 107.293456 217.723045 
L 107.40011 224.82207 
L 107.431172 -1 
M 107.582965 -1 
L 107.720071 219.33896 
L 107.826725 214.386583 
L 107.970966 -1 
M 108.088726 -1 
L 108.253341 241.924192 
L 108.359995 169.626744 
L 108.375128 -1 
M 108.650727 -1 
L 108.679957 139.793603 
L 108.720003 -1 
M 108.838474 -1 
L 108.999919 247.723509 
L 109.213226 249.062889 
L 109.639842 246.260646 
L 109.711785 -1 
M 110.020077 -1 
L 110.066458 243.657042 
L 110.173112 243.101273 
L 110.187873 -1 
M 110.371923 -1 
L 110.38642 238.017219 
L 110.46253 -1 
M 110.859237 -1 
L 111.026343 265.974058 
L 111.132997 258.800003 
L 111.164726 -1 
M 111.321781 -1 
L 111.346305 182.180485 
L 111.407843 -1 
M 111.830192 -1 
L 111.986228 247.687963 
L 112.30619 248.71781 
L 112.83946 251.45748 
L 113.052768 252.721993 
L 113.159422 241.317566 
L 113.180148 -1 
M 113.400129 -1 
L 113.479383 254.855055 
L 113.586037 251.439772 
L 114.225961 233.882399 
L 114.332615 231.834955 
L 114.364255 -1 
M 114.513515 -1 
L 114.652576 249.839076 
L 114.865884 247.170525 
L 114.899315 -1 
M 115.045827 -1 
L 115.185846 248.316572 
L 115.2925 248.31813 
L 115.505808 235.52204 
L 115.55424 -1 
M 115.764456 -1 
L 115.932424 236.857745 
L 115.976159 -1 
M 116.110594 -1 
L 116.145731 167.118871 
L 116.190078 -1 
M 116.312138 -1 
L 116.465693 192.120495 
L 117.105617 230.23122 
L 117.425579 241.471677 
L 117.638886 240.117866 
L 117.737055 -1 
M 118.21687 -1 
L 118.385464 265.800617 
L 118.492118 266.076405 
L 118.598772 255.077574 
L 118.630201 -1 
M 118.787219 -1 
L 118.918733 187.929092 
L 119.025387 191.164946 
L 119.345349 245.699361 
L 119.665311 246.613977 
L 120.091927 248.736227 
L 120.411888 250.714902 
L 120.518542 250.126874 
L 121.371774 239.599112 
L 121.798389 229.746934 
L 121.830466 -1 
M 121.979913 -1 
L 122.011697 226.758489 
L 122.118351 223.672879 
L 122.225005 220.389355 
L 122.331659 226.863622 
L 122.363405 -1 
M 122.513117 -1 
L 122.544967 227.922582 
L 122.651621 223.949183 
L 122.971583 230.236418 
L 123.078237 231.517755 
L 123.18489 234.173892 
L 123.22163 -1 
M 123.361558 -1 
L 123.504852 236.210737 
L 123.551336 -1 
M 123.753495 -1 
L 123.931468 166.830594 
L 124.571391 212.291785 
L 125.104661 242.356368 
L 125.169737 -1 
M 125.570063 -1 
L 125.744585 265.077562 
L 125.851239 265.594523 
L 125.957892 264.850612 
L 126.064546 252.045982 
L 126.1712 266.555342 
L 126.277854 266.066298 
L 126.491162 237.140389 
L 126.70447 237.153428 
L 126.754165 -1 
M 126.867282 -1 
L 127.024432 244.839461 
L 127.451047 247.102478 
L 128.090971 250.873943 
L 128.304279 248.200474 
L 128.624241 237.967765 
L 129.15751 223.346271 
L 129.243446 -1 
M 129.284302 -1 
L 129.370818 231.372214 
L 129.477472 228.537956 
L 129.797434 218.913015 
L 129.904088 211.59158 
L 130.010742 69.978884 
L 130.224049 221.959786 
L 130.437357 218.844081 
L 130.544011 216.4837 
L 130.598201 -1 
M 131.413882 -1 
L 131.503897 248.876826 
L 131.61055 248.341761 
L 132.463782 243.467817 
L 132.566227 -1 
M 132.583111 -1 
L 132.67709 73.470229 
L 132.690698 -1 
M 133.15736 -1 
L 133.317013 265.554289 
L 133.423667 266.062822 
L 133.530321 247.234401 
L 133.636975 266.569972 
L 133.743629 266.086172 
L 134.063591 264.628067 
L 134.170245 160.995267 
L 134.383552 178.206412 
L 134.490206 197.981862 
L 134.703514 243.619566 
L 135.6634 249.974055 
L 135.876707 247.198026 
L 136.409977 230.880945 
L 136.472949 -1 
M 136.559708 -1 
L 136.623285 236.402359 
L 136.729939 233.910554 
L 137.263208 218.853374 
L 137.369862 119.331186 
L 137.58317 218.451492 
L 137.689824 221.838429 
L 137.903132 213.082513 
L 137.963412 -1 
M 138.053788 -1 
L 138.11644 233.491875 
L 138.141671 -1 
M 138.626355 -1 
L 138.756363 247.61861 
L 138.863017 250.803663 
L 139.502941 246.732315 
L 139.555083 -1 
M 139.771621 -1 
L 139.929557 250.613159 
L 140.142864 173.057825 
L 140.159376 -1 
M 140.452409 -1 
L 140.56948 264.547867 
L 140.996096 266.573494 
L 141.10275 243.77932 
L 141.209404 266.081972 
L 141.316058 265.579536 
L 141.529365 264.323243 
L 141.57694 -1 
M 141.706499 -1 
L 141.849327 177.08353 
L 141.955981 186.375775 
L 142.062635 250.577685 
L 142.169289 243.530244 
L 143.129174 250.062095 
L 143.342482 246.379477 
L 143.662444 235.383706 
L 143.769098 219.029615 
L 143.875752 235.007984 
L 144.195714 227.344906 
L 144.622329 213.996139 
L 144.728983 243.462839 
L 144.835637 217.506196 
L 145.262253 230.85824 
L 145.795522 242.69139 
L 145.826005 -1 
M 146.197439 -1 
L 146.328792 250.332244 
L 146.968716 246.372712 
L 147.075369 245.642594 
L 147.182023 211.564459 
L 147.288677 244.394107 
L 147.501985 182.718638 
L 147.516656 -1 
M 147.805664 -1 
L 147.928601 261.996664 
L 148.141909 265.082303 
L 148.355217 266.087953 
L 148.46187 240.270474 
L 148.568524 266.586363 
L 148.675178 266.106347 
L 148.888486 265.10031 
L 148.99514 263.986309 
L 149.036419 -1 
M 149.177869 -1 
L 149.315102 176.859866 
L 149.421756 186.324167 
L 149.52841 205.940254 
L 149.594714 -1 
M 149.671264 -1 
L 149.848371 244.859337 
L 150.594949 250.272273 
L 150.808257 244.324306 
L 150.914911 240.718535 
L 151.021565 161.110074 
L 151.234873 238.06102 
L 151.874796 221.29163 
L 152.088104 214.300261 
L 152.194758 240.079352 
L 152.301412 218.694486 
L 152.941335 236.353171 
L 153.261297 242.992163 
L 153.367951 242.520412 
L 153.384546 -1 
M 153.671358 -1 
L 153.794567 248.434776 
L 153.901221 249.959313 
L 154.647798 245.120991 
L 154.754452 228.164034 
L 154.96776 182.04705 
L 154.979949 -1 
M 155.164681 -1 
L 155.287722 259.118115 
L 155.607683 265.129441 
L 155.820991 266.130449 
L 155.927645 236.774326 
L 156.034299 266.588006 
L 156.140953 266.110496 
L 156.354261 265.10855 
L 156.460915 263.781856 
L 156.674223 258.396442 
L 156.71105 -1 
M 156.858308 -1 
L 156.994184 194.307039 
L 157.100838 204.189343 
L 157.207492 244.516794 
L 157.298052 -1 
M 157.330208 -1 
L 157.527454 245.8923 
L 158.060724 249.669013 
L 158.167378 246.751286 
L 158.274032 165.049628 
L 158.487339 237.834128 
L 158.593993 238.773657 
L 158.700647 238.168604 
L 159.340571 221.460791 
L 159.553879 214.495587 
L 159.660533 237.124228 
L 159.767186 219.174152 
L 160.40711 236.669678 
L 160.513764 239.001074 
L 160.540746 -1 
M 160.699415 -1 
L 160.727072 247.10808 
L 160.754673 -1 
M 160.91348 -1 
L 160.94038 238.672298 
L 161.047034 238.26064 
L 161.063402 -1 
M 161.243442 -1 
L 161.366995 249.849084 
L 162.006919 245.782189 
L 162.113573 258.276463 
L 162.326881 193.732591 
L 162.339963 -1 
M 162.523688 -1 
L 162.646842 256.414431 
L 163.073458 265.162394 
L 163.286766 266.160606 
L 163.39342 233.266606 
L 163.500074 266.596782 
L 163.606728 266.122284 
L 163.820036 265.125226 
L 164.033343 260.855884 
L 164.246651 255.630789 
L 164.278928 -1 
M 164.433626 -1 
L 164.566613 202.728419 
L 164.673267 212.698804 
L 164.779921 248.71078 
L 164.886575 244.621626 
L 165.099883 246.217497 
L 165.206537 92.7673 
L 165.419844 248.431413 
L 165.526498 168.154596 
L 165.739806 237.166088 
L 166.059768 238.873019 
L 166.166422 238.235375 
L 166.806345 221.569736 
L 167.019653 214.622079 
L 167.126307 234.129277 
L 167.232961 219.493492 
L 167.339615 222.864045 
L 167.363969 -1 
M 167.527969 -1 
L 167.659577 233.154316 
L 167.872885 238.979398 
L 167.925903 -1 
M 168.122101 -1 
L 168.192846 246.850076 
L 168.2995 244.797762 
L 168.512808 238.444354 
L 168.619462 238.078607 
L 168.711713 -1 
M 168.9223 -1 
L 168.939424 249.049395 
L 169.046078 248.405226 
L 169.36604 246.311599 
L 169.472694 251.08281 
L 169.686001 203.610716 
L 169.699911 -1 
M 169.882761 -1 
L 169.899309 249.56175 
L 170.005963 243.312576 
L 170.219271 255.770354 
L 170.325925 260.170551 
L 170.432579 259.123326 
L 170.645887 265.701994 
L 170.752541 266.191473 
L 170.859195 229.773554 
L 170.965849 266.609758 
L 171.072502 266.138033 
L 171.28581 265.146142 
L 171.712426 255.472721 
L 171.925734 250.602339 
L 171.954905 -1 
M 172.113404 -1 
L 172.245696 220.64827 
L 172.35235 252.266024 
L 172.459003 244.996494 
L 172.565657 245.793482 
L 172.672311 244.89089 
L 172.778965 233.760834 
L 172.808408 -1 
M 172.962522 -1 
L 173.098927 237.431993 
L 173.525543 238.990874 
L 173.632197 238.283135 
L 174.27212 221.654794 
L 174.378774 74.398034 
L 174.485428 221.400981 
L 174.550363 -1 
M 174.747112 -1 
L 174.912044 226.47679 
L 175.658621 246.538402 
L 175.871929 239.007485 
L 176.298545 237.659466 
L 176.322992 -1 
M 176.60163 -1 
L 176.72516 246.821791 
L 176.831814 246.107281 
L 177.045122 213.65047 
L 177.059899 -1 
M 177.241685 -1 
L 177.365084 249.205121 
L 178.111661 265.734322 
L 178.218315 266.221355 
L 178.306717 -1 
M 178.346036 -1 
L 178.538277 229.670328 
L 178.621436 -1 
M 178.665909 -1 
L 178.751585 265.165119 
L 178.858239 263.370104 
L 179.391509 247.616737 
L 179.498162 247.712079 
L 179.604816 243.532147 
L 179.627093 -1 
M 179.796906 -1 
L 179.924778 241.465347 
L 180.031432 236.357295 
L 180.05771 -1 
M 180.218419 -1 
L 180.351394 237.011343 
L 180.671356 237.81569 
L 180.991317 239.072203 
L 181.097971 238.330593 
L 181.631241 224.908716 
L 181.661877 -1 
M 181.81396 -1 
L 181.844549 224.424723 
L 181.951203 221.010257 
L 182.057857 243.011324 
L 182.164511 219.404197 
L 183.017742 243.939519 
L 183.23105 248.91345 
L 183.444358 238.665007 
L 183.870973 237.505865 
L 184.084281 237.287095 
L 184.101069 -1 
M 184.279693 -1 
L 184.297589 256.192456 
L 184.315322 -1 
M 184.493958 -1 
L 184.617551 244.698176 
L 185.68409 266.257697 
L 185.790744 222.827683 
L 185.897398 266.645931 
L 186.004052 266.180398 
L 186.21736 265.078291 
L 187.177245 241.923222 
L 187.283899 239.82314 
L 187.318199 -1 
M 187.463188 -1 
L 187.603861 236.926958 
L 187.817169 237.153582 
L 188.13713 237.964022 
L 188.457092 239.224163 
L 188.563746 238.381168 
L 189.20367 221.803202 
L 189.416977 216.661209 
L 189.523631 223.195612 
L 189.630285 220.329031 
L 190.270209 237.520538 
L 190.304705 -1 
M 190.44835 -1 
L 190.590171 246.962191 
L 190.803478 249.154981 
L 190.910132 249.344873 
L 191.016786 245.862029 
L 191.230094 237.772077 
L 191.550056 237.336254 
L 191.65671 237.332856 
L 191.763364 252.076405 
L 191.870018 240.304194 
L 192.616595 257.026315 
L 193.043211 265.814879 
L 193.149865 236.601469 
L 193.256519 162.000021 
L 193.363173 211.027778 
L 193.469827 189.552925 
L 193.57648 265.729443 
L 193.683134 264.815795 
L 194.64302 241.762417 
L 194.67983 -1 
M 194.819977 -1 
L 194.856328 237.16303 
L 194.962981 237.090115 
L 195.176289 237.176313 
L 195.496251 237.815589 
L 195.922867 239.408975 
L 196.029521 238.434906 
L 196.669444 221.887021 
L 196.882752 217.945369 
L 196.989406 218.691802 
L 197.09606 220.592841 
L 197.131354 -1 
M 197.273303 -1 
L 197.416022 231.123126 
L 198.162599 250.195979 
L 198.375907 250.852309 
L 198.589215 238.812707 
L 198.909177 238.315098 
L 199.122485 238.333466 
L 199.229138 238.465346 
L 199.335792 246.157264 
L 199.442446 242.2594 
L 199.869062 251.623586 
L 199.975716 191.133486 
L 200.035847 -1 
M 200.146684 -1 
L 200.295678 263.299028 
L 200.508986 265.893751 
L 200.722293 266.836165 
L 200.828947 215.999011 
L 200.935601 266.215235 
L 201.042255 265.739775 
L 201.148909 264.954444 
L 201.362217 259.576243 
L 201.489919 -1 
M 201.614687 -1 
L 201.682179 249.191406 
L 201.788833 248.373936 
L 202.108794 241.504461 
L 202.149165 -1 
M 202.282178 -1 
L 202.322102 237.225409 
L 202.428756 237.158077 
L 202.642064 237.259897 
L 202.962026 237.917575 
L 203.002146 -1 
M 203.133927 -1 
L 203.175334 250.438033 
L 203.281988 250.391165 
L 203.388641 250.178328 
L 203.815257 240.486535 
L 203.921911 150.856806 
L 204.561835 221.983879 
L 204.668489 215.28796 
L 204.881796 222.161108 
L 204.98845 232.763818 
L 205.095104 228.374917 
L 205.628374 240.876844 
L 205.735028 241.917312 
L 206.05499 241.199658 
L 206.268297 241.035228 
L 206.30275 -1 
M 206.447149 -1 
L 206.588259 241.262758 
L 206.801567 241.921441 
L 206.908221 242.412071 
L 207.121529 248.655799 
L 207.97476 265.99107 
L 208.188068 266.943192 
L 208.294722 212.647706 
L 208.401376 266.151801 
L 208.50803 265.665885 
L 208.614684 264.809916 
L 209.361261 247.55945 
L 209.467915 270.182335 
L 209.681223 239.254575 
L 211.067724 248.521932 
L 211.49434 250.972918 
L 211.707648 247.835078 
L 212.027609 236.169226 
L 212.134263 240.316275 
L 212.240917 240.041502 
L 212.667533 247.640581 
L 212.774187 247.77753 
L 213.200803 246.54412 
L 213.520764 246.120965 
L 213.734072 246.157508 
L 213.94738 246.491212 
L 214.267342 247.690337 
L 214.587304 249.917727 
L 215.013919 254.990466 
L 215.120573 256.724105 
L 215.333881 265.034202 
L 215.547189 266.572797 
L 215.653843 220.230152 
L 215.760497 262.411997 
L 215.867151 261.718419 
L 216.40042 270.905337 
L 216.720382 188.842404 
L 216.827036 162.926503 
L 216.903957 -1 
M 216.955484 -1 
L 217.146998 245.741399 
L 217.360306 245.98297 
L 217.786921 247.170377 
L 218.213537 248.900563 
L 218.426845 246.206445 
L 218.533499 246.53073 
L 218.746807 247.213383 
L 218.85346 246.634362 
L 219.493384 232.595548 
L 219.600038 229.746261 
L 219.706692 243.349168 
L 219.813346 237.506779 
L 220.346615 247.178702 
L 220.773231 245.977659 
L 221.093193 245.594326 
L 221.306501 245.663227 
L 221.519809 246.046144 
L 221.83977 247.346016 
L 222.159732 249.712629 
L 222.586348 255.044066 
L 223.012964 263.72369 
L 223.226271 268.991864 
L 223.332925 268.853794 
L 223.546233 266.933701 
L 223.759541 264.143275 
L 223.972849 253.805359 
L 224.292811 182.608371 
L 224.399465 57.27347 
L 224.612772 244.03625 
L 224.82608 244.510859 
L 224.932734 128.666713 
L 225.039388 247.281363 
L 225.146042 246.84478 
L 225.466004 246.12949 
L 225.679312 246.035106 
L 225.892619 246.166821 
L 226.212581 246.700739 
L 226.319235 245.932846 
L 226.959159 231.33461 
L 227.172467 225.220398 
L 227.279121 245.882926 
L 227.385774 233.37832 
L 228.025698 246.023607 
L 228.558968 244.817282 
L 228.772275 244.712696 
L 228.985583 244.890046 
L 229.198891 245.394312 
L 229.518853 246.931859 
L 229.838815 249.579411 
L 230.26543 255.373294 
L 230.478738 259.508768 
L 230.585392 233.045568 
L 230.7987 268.730319 
L 231.012008 268.421476 
L 231.118662 267.859304 
L 231.33197 265.179213 
L 231.438624 262.1865 
L 231.758585 240.766892 
L 231.865239 206.904679 
L 231.971893 210.504415 
L 232.185201 237.599402 
L 232.291855 237.956522 
L 232.398509 235.054307 
L 232.427682 -1 
M 232.581437 -1 
L 232.611817 248.701487 
L 232.718471 247.803725 
L 233.038432 246.000751 
L 233.358394 245.192717 
L 233.571702 245.08106 
L 233.78501 245.199721 
L 233.891664 244.461608 
L 234.31828 234.381805 
L 234.424933 217.778597 
L 234.531587 228.280171 
L 234.744895 221.455375 
L 234.851549 245.831848 
L 234.958203 228.589028 
L 235.598127 242.480465 
L 235.918088 246.332054 
L 236.23805 245.99517 
L 236.451358 246.09062 
L 236.664666 246.510216 
L 236.984628 247.836927 
L 237.091282 241.535131 
L 237.304589 250.317511 
L 237.411243 237.004144 
L 237.624551 255.944646 
L 237.837859 261.031229 
L 237.944513 260.939453 
L 238.157821 265.104545 
L 238.371129 268.074957 
L 238.477783 268.032088 
L 238.69109 267.440023 
L 238.904398 264.651297 
L 239.22436 244.898245 
L 239.544322 81.706602 
L 239.75763 235.56955 
L 239.970938 236.416834 
L 240.033972 -1 
M 240.119429 -1 
L 240.184245 253.527185 
L 240.290899 252.078289 
L 240.397553 250.851277 
L 240.504207 215.019288 
L 240.610861 250.137213 
L 240.717515 249.36917 
L 241.037477 247.920315 
L 241.064722 -1 
M 241.225096 -1 
L 241.250785 229.185398 
L 241.357439 225.907043 
L 241.890708 205.948461 
L 242.104016 196.011582 
L 242.21067 219.070121 
L 242.317324 199.236128 
L 242.957247 222.905329 
L 243.597171 239.109342 
L 243.917133 239.091733 
L 244.130441 239.428476 
L 244.237094 239.735913 
L 244.274737 -1 
M 244.412727 -1 
L 244.557056 245.025669 
L 244.66371 219.506363 
L 244.877018 248.000398 
L 244.983672 228.029609 
L 245.090326 254.597825 
L 245.19698 252.208205 
L 245.623595 260.923827 
L 245.836903 267.016581 
L 245.943557 266.86489 
L 246.156865 266.336028 
L 246.370173 263.839903 
L 246.476827 262.138946 
L 246.690135 248.322161 
L 246.903443 178.000586 
L 247.004262 -1 
M 247.019789 -1 
L 247.330058 237.201598 
L 247.436712 237.535587 
L 247.525675 -1 
M 247.560305 -1 
L 247.65002 250.240356 
L 247.756674 248.912662 
L 248.18329 245.456253 
L 248.503251 244.27419 
L 248.609905 244.078238 
L 249.036521 234.400892 
L 249.569791 218.027539 
L 249.676445 244.884549 
L 249.783099 224.512515 
L 250.316368 238.143825 
L 251.1696 234.969 
L 251.382907 234.746866 
L 251.596215 234.866726 
L 251.809523 235.382192 
L 252.022831 130.421215 
L 252.236139 238.997263 
L 252.556101 242.688995 
L 252.662754 185.066358 
L 252.876062 248.303487 
L 252.982716 250.696418 
L 253.196024 112.178286 
L 253.409332 258.062224 
L 253.515986 108.030756 
L 253.729294 268.372892 
L 254.049256 271.272643 
L 254.155909 271.71048 
L 254.262563 180.701607 
L 254.369217 259.852418 
L 254.475871 252.708668 
L 254.582525 169.731996 
L 254.795833 238.65381 
L 255.009141 238.1078 
L 255.222449 238.095296 
L 255.329103 238.245196 
L 255.54241 236.503776 
L 255.755718 236.494704 
L 255.969026 236.762575 
L 256.288988 237.560259 
L 256.395642 236.96174 
L 256.928911 221.434067 
L 257.035565 217.709955 
L 257.142219 242.668144 
L 257.248873 224.55625 
L 257.675489 234.154459 
L 258.315412 230.677169 
L 258.742028 229.435728 
L 258.955336 229.276931 
L 259.168644 229.508586 
L 259.381952 230.193916 
L 259.701913 232.262331 
L 259.808567 59.149092 
L 260.021875 245.491156 
L 260.341837 257.144257 
L 260.448491 165.868133 
L 260.555145 256.748639 
L 260.661799 255.84002 
L 260.875107 254.150127 
L 260.981761 256.612826 
L 261.621684 234.552861 
L 261.728338 85.912945 
L 261.941646 269.393899 
L 262.0483 269.844884 
L 262.261608 230.974493 
L 262.794877 234.130541 
L 263.221493 236.479008 
L 263.754763 221.983919 
L 264.181378 206.403022 
L 264.394686 235.488833 
L 264.50134 185.375577 
L 264.607994 230.114319 
L 264.714648 205.403421 
L 265.354571 227.280722 
L 265.461225 228.317343 
L 265.994495 225.405985 
L 266.314457 224.401885 
L 266.527765 224.147244 
L 266.741072 224.302243 
L 266.847726 37.786265 
L 267.061034 232.621675 
L 267.914266 261.406066 
L 268.02092 137.760849 
L 268.127574 261.551687 
L 268.234227 260.919414 
L 268.660843 245.859958 
L 269.407421 221.704713 
L 269.514075 77.691104 
L 269.727382 268.283231 
L 269.834036 226.452879 
L 269.94069 227.520612 
L 270.687268 234.791065 
L 270.793922 221.710458 
L 271.007229 237.192149 
L 271.327191 240.044884 
L 271.647153 233.107125 
L 271.681662 -1 
M 271.826429 -1 
L 271.967115 229.841833 
L 272.073769 229.904522 
L 272.287077 198.879369 
L 272.607038 210.566177 
L 272.927 212.40605 
L 272.958226 -1 
M 273.107341 -1 
L 273.140308 229.62724 
L 273.246962 228.526152 
L 273.353616 227.418097 
L 273.46027 185.140882 
L 273.566924 39.762009 
L 273.673578 264.791822 
L 273.780231 263.762081 
L 273.816309 -1 
M 273.96069 -1 
L 273.993539 229.526403 
L 274.100193 218.396065 
L 274.313501 242.080038 
L 274.953425 258.079723 
L 275.166733 253.990318 
L 275.273386 254.808425 
L 275.38004 148.473444 
L 275.486694 262.137288 
L 275.593348 261.522384 
L 275.806656 259.646415 
L 276.553234 240.696057 
L 276.659887 243.758896 
L 276.687131 -1 
M 277.065235 -1 
L 277.086503 220.666036 
L 277.193157 218.574061 
L 277.939735 224.479631 
L 278.153042 226.399429 
L 278.36635 222.071165 
L 278.473004 224.115527 
L 278.89962 209.685474 
L 279.006274 113.568817 
L 279.219582 206.994689 
L 279.432889 215.273848 
L 279.453158 -1 
M 279.625423 -1 
L 279.752851 225.252119 
L 279.780692 -1 
M 279.937783 -1 
L 280.072813 233.873839 
L 280.179467 234.286667 
L 280.392775 231.941502 
L 280.432371 -1 
M 280.583194 -1 
L 280.712737 228.150375 
L 280.926044 225.465054 
L 280.940318 -1 
M 281.123032 -1 
L 281.139352 263.793553 
L 281.24334 -1 
M 281.564051 -1 
L 281.565968 4.486396 
L 281.568499 -1 
M 282.078083 -1 
L 282.205892 247.614072 
L 282.419199 252.997285 
L 282.845815 256.512735 
L 282.952469 184.493416 
L 283.059123 261.877647 
L 283.165777 261.142097 
L 283.592393 248.49559 
L 283.612771 -1 
M 284.431931 -1 
L 284.552278 221.771671 
L 284.87224 222.930824 
L 285.298855 225.392921 
L 285.315607 -1 
M 285.496204 -1 
L 285.618817 214.301637 
L 286.045433 220.616772 
L 286.578702 200.499148 
L 286.79201 209.556111 
L 286.898664 207.95959 
L 287.005318 109.727282 
L 287.111972 221.13453 
L 287.141448 -1 
M 287.298945 -1 
L 287.431934 190.108408 
L 287.538588 189.437888 
L 287.645242 190.487305 
L 287.751896 188.663707 
L 287.770596 -1 
M 288.057868 -1 
L 288.071857 227.452175 
L 288.178511 225.983619 
L 288.285165 196.037473 
L 288.297764 -1 
M 289.272505 -1 
L 289.351704 15.534973 
L 289.375602 -1 
M 289.661781 -1 
L 289.77832 68.914735 
L 289.784895 -1 
M 289.971015 -1 
L 290.098282 254.907852 
L 290.204936 255.901832 
L 290.224918 -1 
M 290.403816 -1 
L 290.418244 173.318886 
L 290.524898 148.717416 
L 291.164821 11.154116 
L 291.271475 120.986785 
L 291.355173 -1 
M 292.113046 -1 
L 292.23136 193.824934 
L 292.871284 220.870092 
L 293.191246 230.539667 
L 293.404554 226.059703 
L 293.937823 207.77221 
L 293.96485 -1 
M 294.230807 -1 
L 294.364439 214.043099 
L 294.471093 217.842061 
L 294.499191 -1 
M 294.655667 -1 
L 294.791055 227.735861 
L 295.004362 232.361725 
L 295.111016 231.039102 
L 295.12547 -1 
M 295.41672 -1 
L 295.430978 226.651145 
L 295.537632 225.11248 
L 295.644286 223.03412 
L 295.660428 -1 
M 296.142343 -1 
L 296.28421 60.316021 
L 296.295736 -1 
M 296.482036 -1 
L 296.604171 97.395889 
L 296.817479 123.038441 
L 296.826263 -1 
M 297.019863 -1 
L 297.030787 156.720573 
L 297.137441 117.424738 
L 297.457403 218.3762 
L 297.564057 133.967588 
L 297.670711 246.83569 
L 297.700967 -1 
M 297.856417 -1 
L 297.884018 217.497914 
L 297.990672 204.068398 
L 299.163865 68.408553 
L 299.270519 59.311731 
L 299.274745 -1 
M 299.898088 -1 
L 300.017097 194.928202 
L 300.550366 217.786621 
L 300.570912 -1 
M 300.742501 -1 
L 300.870328 229.456163 
L 300.976982 228.937502 
L 301.003252 -1 
M 301.164329 -1 
L 301.19029 225.366575 
L 301.296944 222.043428 
L 301.616906 210.693464 
L 301.707349 -1 
M 303.096005 -1 
L 303.110061 186.210359 
L 303.126469 -1 
M 303.915917 -1 
L 304.069946 173.365322 
L 304.389908 195.840907 
L 304.496562 157.527677 
L 305.136485 255.242086 
L 305.167807 -1 
M 305.320089 -1 
L 305.349793 236.894229 
L 305.456447 228.248786 
L 305.669755 211.179674 
L 305.711573 -1 
M 305.843271 -1 
L 305.883063 194.773956 
L 305.989717 186.751479 
L 306.309678 164.166204 
L 306.340381 -1 
M 306.515846 -1 
L 306.522986 28.315082 
L 306.62964 16.891658 
L 306.81752 -1 
M 306.845884 -1 
L 307.056256 86.090798 
L 307.062645 -1 
M 308.641852 -1 
L 308.656065 171.724633 
L 308.668434 -1 
M 309.275133 -1 
L 309.295988 184.133708 
L 309.321083 -1 
M 309.614775 -1 
L 309.61595 11.457648 
L 309.625918 -1 
M 310.006985 -1 
L 310.14922 58.971472 
L 310.255874 74.968446 
L 310.273945 -1 
M 310.650761 -1 
L 310.682489 180.863965 
L 310.789143 159.97036 
L 310.895797 119.907231 
L 311.962336 200.384459 
L 312.06899 163.715769 
L 312.084431 -1 
M 312.260373 -1 
L 312.388952 251.796486 
L 312.60226 253.991844 
L 312.624164 -1 
M 312.892084 -1 
L 312.922222 225.570889 
L 313.028876 216.12713 
L 313.348837 188.844498 
L 313.364475 -1 
M 313.547697 -1 
L 313.562145 172.141357 
L 313.668799 164.165214 
L 313.775453 156.572708 
L 313.787944 -1 
M 315.56709 -1 
L 315.695224 163.85864 
L 315.777863 -1 
M 316.1163 -1 
L 316.228493 71.599205 
L 316.337547 -1 
M 316.541056 -1 
L 316.548455 86.997907 
L 316.557334 -1 
M 316.751364 -1 
L 316.868417 113.785825 
L 316.877885 -1 
M 317.702034 -1 
L 317.828302 192.350736 
L 317.934956 225.519176 
L 318.148264 184.56772 
L 318.254918 180.203342 
L 318.268585 -1 
M 318.883838 -1 
L 318.894841 84.481481 
L 318.905948 -1 
M 319.631051 -1 
L 319.641419 144.078508 
L 319.664068 -1 
M 319.831416 -1 
L 319.854727 149.502176 
L 319.893759 -1 
M 320.019074 -1 
L 320.068035 220.275151 
L 320.098739 -1 
M 320.364547 -1 
L 320.387996 153.256406 
L 320.49465 147.157059 
L 320.601304 140.121067 
L 320.621217 -1 
M 321.399039 -1 
L 321.454536 187.385888 
L 321.56119 26.21777 
L 321.667843 82.873587 
L 321.881151 76.857083 
L 321.987805 77.193218 
L 322.094459 78.027961 
L 322.109074 -1 
M 322.772331 -1 
L 322.841037 174.371537 
L 322.964368 -1 
M 323.136836 -1 
L 323.267652 119.130981 
L 323.374306 157.522733 
L 323.405567 -1 
M 323.547365 -1 
L 323.587614 230.729538 
L 323.800922 16.828659 
L 323.907576 143.537579 
L 323.935792 -1 
M 324.201444 -1 
L 324.334192 157.343532 
L 324.547499 166.188824 
L 324.786054 -1 
M 326.023397 -1 
L 326.147308 115.678567 
L 326.46727 129.042954 
L 326.573924 137.159125 
L 326.787232 247.023637 
L 327.00054 236.203527 
L 327.107194 211.414905 
L 327.213848 213.725691 
L 327.321154 -1 
M 327.517615 -1 
L 327.533809 256.083584 
L 327.550787 -1 
M 327.833331 -1 
L 327.853771 201.346816 
L 327.906025 -1 
M 328.008142 -1 
L 328.067079 259.187088 
L 328.173733 258.46375 
L 328.295693 -1 
M 328.57095 -1 
L 328.600349 156.197751 
L 328.707002 145.480814 
L 329.133618 106.728553 
L 329.163102 -1 
M 329.44728 -1 
L 329.560234 150.647561 
L 329.666888 173.976051 
L 329.773542 169.312169 
L 329.788857 -1 
M 329.968853 -1 
L 329.98685 205.176709 
L 330.093504 165.56627 
L 330.200157 165.363529 
L 330.413465 162.504477 
L 330.616168 -1 
M 330.670568 -1 
L 330.733427 9.691587 
L 330.946735 211.100347 
L 331.160043 206.841977 
L 331.239294 -1 
M 331.50936 -1 
L 331.693312 137.445151 
L 331.90662 138.724058 
L 332.119928 159.90584 
L 332.226582 167.806902 
L 332.301172 -1 
M 332.857901 -1 
L 332.866506 25.363465 
L 332.8737 -1 
M 333.174687 -1 
L 333.186467 151.374926 
L 333.202447 -1 
M 333.386019 -1 
L 333.399775 127.032165 
L 333.448742 -1 
M 333.713608 -1 
L 333.826391 42.872167 
L 334.466314 113.74401 
L 334.497763 -1 
M 335.399449 -1 
L 335.4262 259.154017 
L 335.532854 258.491472 
L 335.564046 -1 
M 335.83435 -1 
L 335.852815 250.844743 
L 335.959469 247.632447 
L 336.066123 244.723468 
L 336.279431 99.516226 
L 336.492739 75.553058 
L 336.537222 -1 
M 336.965929 -1 
L 337.132663 192.30517 
L 337.34597 183.888118 
L 337.452624 183.224463 
L 337.525867 -1 
M 338.193772 -1 
L 338.305856 33.500302 
L 338.313576 -1 
M 338.508019 -1 
L 338.625817 132.370287 
L 338.636933 -1 
M 338.826392 -1 
L 338.839125 154.415919 
L 338.867316 -1 
M 339.425447 -1 
L 339.585703 93.60152 
L 339.692357 41.565555 
L 339.799011 44.699014 
L 339.905665 57.54887 
L 340.118972 218.727993 
L 340.177702 -1 
M 341.388722 -1 
L 341.398819 159.84554 
L 341.40856 -1 
M 341.602025 -1 
L 341.612127 166.44431 
L 341.659971 -1 
M 341.774958 -1 
L 341.932089 188.057572 
L 341.945971 -1 
M 342.13878 -1 
L 342.252051 259.834395 
L 342.289301 -1 
M 342.427897 -1 
L 342.465359 262.11915 
L 342.548585 -1 
M 344.127864 -1 
L 344.171822 256.385195 
L 344.197625 -1 
M 344.582574 -1 
L 344.598437 222.080708 
L 344.705091 219.904562 
L 345.131707 213.408267 
L 345.451669 210.668775 
L 345.664976 150.062291 
L 345.77163 152.569634 
L 345.795967 -1 
M 346.294347 -1 
L 346.3049 124.590365 
L 346.314448 -1 
M 346.506345 -1 
L 346.624862 163.844111 
L 346.725852 -1 
M 347.017247 -1 
L 347.158131 152.591654 
L 347.264785 136.055777 
L 347.371439 200.618072 
L 347.584747 154.898741 
L 347.626391 -1 
M 348.877033 -1 
L 348.971248 10.641833 
L 348.972497 -1 
M 349.168081 -1 
L 349.184556 178.482429 
L 349.29121 151.779796 
L 349.335947 -1 
M 350.013931 -1 
L 350.037787 167.755512 
L 350.057476 -1 
M 350.230658 -1 
L 350.251095 175.69302 
L 350.357749 174.116035 
L 350.464403 101.123762 
L 351.104327 165.423256 
L 351.210981 156.723235 
L 351.637596 214.280256 
L 351.74425 197.716915 
L 351.763865 -1 
M 351.93432 -1 
L 351.957558 244.644432 
L 352.064212 241.614337 
L 352.170866 237.210264 
L 352.263571 -1 
M 352.293375 -1 
L 352.384174 204.257298 
L 352.434792 -1 
M 352.552076 -1 
L 352.597482 167.450069 
L 352.704135 156.948275 
L 352.810789 139.959547 
L 352.8185 -1 
M 354.282516 -1 
L 354.410598 234.480081 
L 354.426139 -1 
M 354.67794 -1 
L 354.73056 182.710862 
L 354.767002 -1 
M 354.928144 -1 
L 354.943868 60.203863 
L 354.951414 -1 
M 355.421999 -1 
L 355.477137 93.056532 
L 355.490227 -1 
M 356.108987 -1 
L 356.117061 128.514167 
L 356.223715 83.865535 
L 356.437023 61.122236 
L 356.543677 116.091079 
L 356.585504 -1 
M 356.92482 -1 
L 357.076946 153.237127 
L 357.290254 98.216759 
L 357.503562 93.298578 
L 357.516715 -1 
M 357.819893 -1 
L 357.930178 44.350981 
L 358.036832 46.751943 
L 358.25014 180.452539 
L 358.262673 -1 
M 358.664379 -1 
L 358.676755 35.709105 
L 358.765579 -1 
M 359.251664 -1 
L 359.316679 108.371176 
L 359.338626 -1 
M 359.509318 -1 
L 359.529987 100.469476 
L 359.577981 -1 
M 360.035928 -1 
L 360.16991 205.773106 
L 360.276564 38.57517 
L 360.489872 243.04136 
L 360.596526 250.171936 
L 360.70318 219.465479 
L 360.742612 -1 
M 360.876132 -1 
L 361.023142 232.513852 
L 361.093496 -1 
M 361.649624 -1 
L 361.663065 44.144644 
L 361.669837 -1 
M 361.967755 -1 
L 362.089681 27.278308 
L 362.116967 -1 
M 362.442562 -1 
L 362.516296 67.462619 
L 362.62295 12.993808 
L 362.729604 16.076118 
L 362.836258 27.170031 
L 362.844906 -1 
M 363.035094 -1 
L 363.049566 49.118558 
L 363.057893 -1 
M 363.233794 -1 
L 363.369528 222.796429 
L 363.68949 229.364085 
L 363.773668 -1 
M 363.818031 -1 
L 364.009451 239.915162 
L 364.028628 -1 
M 364.203546 -1 
L 364.329413 242.495223 
L 364.436067 244.579237 
L 364.464547 -1 
M 364.620573 -1 
L 364.756029 250.531144 
L 364.862683 252.747861 
L 364.973556 -1 
M 365.285474 -1 
L 365.395952 213.539179 
L 365.502606 226.089743 
L 365.929222 138.176351 
L 366.035876 128.238983 
L 366.180429 -1 
M 366.507069 -1 
L 366.6758 216.528118 
L 366.782453 216.199206 
L 366.995761 218.156136 
L 367.018156 -1 
M 367.303304 -1 
L 367.315723 213.031647 
L 367.422377 84.803601 
L 367.529031 190.958793 
L 367.579863 -1 
M 367.825367 -1 
L 367.848993 211.199446 
L 367.857528 -1 
M 368.162431 -1 
L 368.168954 194.640266 
L 368.182391 -1 
M 368.372698 -1 
L 368.488916 134.20525 
L 368.59557 136.083718 
L 368.604557 -1 
M 368.905704 -1 
L 368.915532 151.800643 
L 369.022186 149.108702 
L 369.12884 146.882902 
L 369.133867 -1 
M 369.444004 -1 
L 369.448802 138.637073 
L 369.555455 119.079133 
L 369.768763 193.358386 
L 369.794498 -1 
M 369.955709 -1 
L 370.088725 205.053417 
L 370.195379 210.164475 
L 370.302033 209.34242 
L 370.515341 216.134017 
L 370.621995 215.597121 
L 370.728649 215.62557 
L 370.835303 216.408857 
L 371.04861 220.612883 
L 371.368572 230.905912 
L 371.58188 210.261974 
L 371.688534 192.224635 
L 371.796965 -1 
M 372.967517 -1 
L 373.075035 101.666428 
L 373.288343 198.812533 
L 373.302589 -1 
M 373.700034 -1 
L 373.714959 200.847915 
L 373.727677 -1 
M 373.922868 -1 
L 373.928266 78.481361 
L 374.03492 63.101875 
L 374.248228 44.488571 
L 374.252341 -1 
M 374.457961 -1 
L 374.461536 38.331666 
L 374.56819 33.811114 
L 374.674844 30.331337 
L 374.676913 -1 
M 374.882184 -1 
L 374.888152 92.878997 
L 374.994806 90.19027 
L 374.998148 -1 
M 375.312143 -1 
L 375.421421 88.613894 
L 375.634729 111.247479 
L 375.642186 -1 
M 375.837855 -1 
L 375.954691 183.308025 
L 376.167999 164.837905 
L 376.178749 -1 
M 376.37132 -1 
L 376.381307 151.843103 
L 376.487961 143.968834 
L 377.234538 83.228079 
L 377.248656 -1 
M 377.435482 -1 
L 377.5545 72.53353 
L 377.565681 -1 
M 377.746156 -1 
L 377.767808 158.931646 
L 377.976213 -1 
M 378.391156 -1 
L 378.407731 55.740867 
L 378.463765 -1 
M 378.694713 -1 
L 378.727693 236.974409 
L 378.834347 232.326743 
L 379.047655 216.157372 
L 379.154309 201.483177 
L 379.232516 -1 
M 379.346894 -1 
L 379.367617 16.760875 
L 379.369743 -1 
M 379.570011 -1 
L 379.580924 98.537051 
L 379.607791 -1 
M 380.638919 -1 
L 380.647464 110.003252 
L 380.754118 63.302276 
L 380.803879 -1 
M 381.058663 -1 
L 381.180733 231.597982 
L 381.394041 253.846698 
L 381.447886 -1 
M 381.701723 -1 
L 381.820657 245.711758 
L 381.832677 -1 
M 382.021924 -1 
L 382.033965 246.177975 
L 382.052919 -1 
M 382.322154 -1 
L 382.353926 244.418342 
L 382.46058 198.211105 
L 382.567234 239.088947 
L 383.100504 219.554024 
L 383.119992 -1 
M 383.380702 -1 
L 383.52712 214.715448 
L 383.570025 -1 
M 383.827811 -1 
L 383.953735 223.929433 
L 385.126928 238.472042 
L 385.151332 -1 
M 385.31587 -1 
L 385.44689 240.043799 
L 385.553544 242.390464 
L 385.56414 -1 
M 385.756044 -1 
L 385.873506 250.339628 
L 386.300122 249.43933 
L 386.406776 247.470174 
L 386.513429 243.322113 
L 386.620083 232.771503 
L 386.654188 -1 
M 386.801622 -1 
L 386.833391 209.967915 
L 386.845451 -1 
M 387.037756 -1 
L 387.046699 150.455017 
L 387.153353 132.688316 
L 387.179227 -1 
M 387.719808 -1 
L 387.89993 213.857226 
L 388.4332 195.639081 
L 388.646508 189.054185 
L 388.753162 190.009184 
L 388.799992 -1 
M 389.541492 -1 
L 389.606393 233.279218 
L 389.713047 138.20966 
L 389.926355 224.368397 
L 390.352971 234.830607 
L 390.459625 238.406739 
L 390.574795 -1 
M 391.293383 -1 
L 391.312856 190.36993 
L 391.526164 102.458651 
L 391.739472 139.257472 
L 391.846126 140.979568 
L 391.860746 -1 
M 392.042507 -1 
L 392.059433 167.596826 
L 392.166087 167.492866 
L 392.379395 175.344195 
L 392.410351 -1 
M 392.557377 -1 
L 392.699357 217.2787 
L 392.806011 220.383565 
L 392.81717 -1 
M 393.116137 -1 
L 393.125973 193.784411 
L 393.232627 185.470571 
L 393.339281 245.678053 
L 393.445935 243.562725 
L 393.457375 -1 
M 393.648908 -1 
L 393.659242 217.392568 
L 393.765896 191.786441 
L 393.87255 152.810174 
L 393.885936 -1 
M 394.079124 -1 
L 394.085858 71.227266 
L 394.198673 -1 
M 394.589363 -1 
L 394.619128 234.247597 
L 394.725782 230.744395 
L 395.045743 218.675784 
L 395.14596 -1 
M 395.15862 -1 
L 395.259051 226.725618 
L 395.365705 225.449967 
L 395.579013 223.338163 
L 395.685667 218.318872 
L 395.725691 -1 
M 395.99408 -1 
L 396.112283 95.158273 
L 396.218937 104.86215 
L 396.32559 126.023576 
L 396.432244 215.323768 
L 396.85886 182.309652 
L 396.969497 -1 
M 397.523263 -1 
L 397.712091 265.71149 
L 398.245361 266.508617 
L 398.352015 266.979328 
L 398.458669 266.938314 
L 398.565323 267.224539 
L 398.991939 265.205739 
L 399.036151 -1 
M 399.162045 -1 
L 399.205246 254.973095 
L 399.3119 254.436428 
L 399.418554 254.320164 
L 399.738516 253.197476 
L 400.058478 252.279256 
L 400.165132 252.7312 
L 400.37844 251.850985 
L 400.698401 251.26062 
L 400.805055 251.710021 
L 400.911709 251.570555 
L 401.018363 252.124984 
L 401.125017 252.077258 
L 401.338325 254.410712 
L 401.444979 253.856692 
L 401.658287 245.100925 
L 401.764941 218.756838 
L 401.876518 -1 
L 401.876518 -1 
" clip-path="url(#pf2b7413cda)" style="fill: none; stroke: #1f77b4; stroke-width: 1.5; stroke-linecap: square"/>
   </g>
   <g id="line2d_28">
    <path d="M 77.643665 195.575953 
L 77.963627 195.575962 
L 78.07028 203.461801 
L 78.283588 227.673986 
L 78.710204 233.306391 
L 79.243474 236.96505 
L 79.563435 237.37153 
L 79.670089 237.449342 
L 79.776743 242.359875 
L 79.883397 239.398991 
L 80.096705 195.575972 
L 82.976361 195.576019 
L 83.083015 197.141198 
L 83.189669 235.498596 
L 83.936246 221.553155 
L 84.149554 218.584018 
L 84.362862 195.575979 
L 84.896132 195.575977 
L 85.109439 221.684213 
L 91.508675 221.684417 
L 91.615329 228.693401 
L 91.828637 221.68422 
L 92.361906 221.684214 
L 92.575214 248.938766 
L 98.761142 248.93879 
L 98.97445 257.615668 
L 99.081104 260.292279 
L 99.401065 259.662097 
L 99.507719 258.874551 
L 99.721027 248.938768 
L 99.827681 248.938767 
L 100.040989 261.286321 
L 107.293456 261.286337 
L 107.506764 260.94268 
L 111.239651 260.94264 
L 111.346305 264.729437 
L 111.452959 264.564871 
L 111.666267 260.942687 
L 114.75923 260.942683 
L 114.972538 261.099898 
L 118.705426 261.099726 
L 118.918733 261.459124 
L 119.132041 261.46197 
L 119.345349 261.785185 
L 119.558657 261.099853 
L 122.225005 261.099912 
L 122.438313 261.361184 
L 125.957892 261.361194 
L 126.064546 263.974549 
L 126.1712 272.908667 
L 126.384508 261.361183 
L 129.69078 261.361185 
L 129.904088 261.563968 
L 133.423667 261.563951 
L 133.636975 269.853333 
L 133.850283 261.563928 
L 140.889442 261.626828 
L 141.10275 276.550882 
L 141.529365 261.626799 
L 144.622329 261.626808 
L 144.835637 261.274159 
L 148.141909 261.274161 
L 148.248563 264.69272 
L 148.355217 274.01608 
L 148.568524 261.274176 
L 148.675178 276.311999 
L 148.99514 261.274149 
L 152.088104 261.274155 
L 152.301412 261.687642 
L 155.607683 261.687644 
L 155.714337 270.234343 
L 156.034299 261.687666 
L 156.140953 276.425526 
L 156.354261 261.687637 
L 159.553879 261.687636 
L 159.767186 261.80505 
L 163.073458 261.80505 
L 163.180112 269.075146 
L 163.39342 261.80507 
L 163.500074 261.805071 
L 163.606728 265.510652 
L 163.713382 275.991512 
L 163.92669 261.805045 
L 167.019653 261.805031 
L 167.232961 261.501795 
L 170.325925 261.501806 
L 170.432579 262.606213 
L 170.539233 275.778261 
L 170.752541 261.501816 
L 171.179156 261.501826 
L 171.392464 273.771043 
L 171.605772 261.501797 
L 177.685046 261.590167 
L 177.7917 264.022366 
L 177.898354 271.425741 
L 178.111661 261.590165 
L 178.644931 261.590167 
L 178.858239 273.737012 
L 179.071547 261.590156 
L 181.951203 261.590108 
L 182.164511 261.859654 
L 185.257474 261.859755 
L 185.364128 273.395153 
L 185.577436 261.859696 
L 186.110706 261.859697 
L 186.324014 271.176632 
L 186.537321 261.859686 
L 189.416977 261.859631 
L 189.630285 261.971494 
L 192.616595 261.971542 
L 192.723249 263.16047 
L 192.829903 271.769837 
L 193.043211 261.971542 
L 193.57648 261.971543 
L 193.683134 269.346084 
L 193.896442 261.971542 
L 196.882752 261.971484 
L 197.09606 262.666483 
L 200.295678 262.666536 
L 200.402332 271.156254 
L 200.615639 262.666532 
L 211.814301 262.665425 
L 212.027609 263.638011 
L 219.280076 263.638013 
L 219.493384 263.893704 
L 226.745851 263.893706 
L 226.959159 262.856799 
L 234.211626 262.8568 
L 234.424933 263.459924 
L 241.6774 263.459924 
L 241.890708 262.296584 
L 249.143175 262.296584 
L 249.356483 260.917549 
L 256.60895 260.917549 
L 256.822258 259.156162 
L 264.074724 259.156162 
L 264.288032 258.566395 
L 271.540499 258.566395 
L 271.753807 258.14085 
L 279.006274 258.14085 
L 279.219582 258.626171 
L 301.403598 258.726192 
L 301.616906 259.177897 
L 308.869373 259.177897 
L 309.08268 258.729277 
L 316.335147 258.729278 
L 316.548455 257.542964 
L 323.800922 257.542963 
L 324.01423 257.152775 
L 331.266697 257.152775 
L 331.480005 256.747213 
L 338.732471 256.747213 
L 338.945779 254.98079 
L 346.198246 254.98079 
L 346.411554 248.633702 
L 353.664021 248.633702 
L 353.877329 249.377926 
L 361.129795 249.377926 
L 361.343103 256.120941 
L 368.59557 256.120944 
L 368.702224 252.094108 
L 368.808878 169.222026 
L 368.915532 246.145574 
L 369.12884 209.698253 
L 369.235494 184.370654 
L 369.448802 256.574863 
L 369.662109 254.818233 
L 369.768763 254.396852 
L 369.982071 169.221973 
L 374.56819 169.221955 
L 374.888152 250.886531 
L 375.208113 250.108653 
L 375.314767 248.178033 
L 375.528075 169.221947 
L 376.061345 169.221928 
L 376.167999 230.969255 
L 376.274653 230.969016 
L 382.673888 230.96925 
L 382.780542 258.012507 
L 382.887196 256.595284 
L 382.99385 248.67054 
L 383.100504 259.23579 
L 383.313812 236.189225 
L 383.420466 250.848776 
L 383.52712 234.081708 
L 383.847081 264.858651 
L 383.953735 264.559044 
L 384.167043 264.677269 
L 384.273697 263.270132 
L 384.380351 263.667165 
L 384.593659 244.852745 
L 389.499739 244.852475 
L 389.713047 260.087316 
L 389.819701 260.149126 
L 390.139663 262.562821 
L 390.566279 267.319324 
L 390.672932 269.203169 
L 390.88624 268.751566 
L 391.099548 266.788422 
L 391.206202 269.316431 
L 391.312856 251.944044 
L 391.41951 253.287219 
L 391.632818 260.654938 
L 391.739472 260.724621 
L 391.846126 260.354365 
L 391.95278 257.406194 
L 392.059433 261.249816 
L 392.166087 261.122275 
L 392.486049 263.552227 
L 392.592703 262.216843 
L 392.699357 264.348129 
L 392.912665 263.092062 
L 393.125973 259.285552 
L 393.339281 254.75327 
L 393.445935 254.977322 
L 393.659242 244.699381 
L 398.458669 244.691688 
L 398.671977 256.541481 
L 400.805055 256.54153 
L 402.29821 256.535982 
L 402.29821 256.535982 
" clip-path="url(#pf2b7413cda)" style="fill: none; stroke: #ff7f0e; stroke-width: 1.5; stroke-linecap: square"/>
   </g>
   <g id="patch_3">
    <path d="M 61.410938 279.010828 
L 61.410938 12.898828 
" style="fill: none; stroke: #000000; stroke-width: 0.8; stroke-linejoin: miter; stroke-linecap: square"/>
   </g>
   <g id="patch_4">
    <path d="M 418.530938 279.010828 
L 418.530938 12.898828 
" style="fill: none; stroke: #000000; stroke-width: 0.8; stroke-linejoin: miter; stroke-linecap: square"/>
   </g>
   <g id="patch_5">
    <path d="M 61.410938 279.010828 
L 418.530938 279.010828 
" style="fill: none; stroke: #000000; stroke-width: 0.8; stroke-linejoin: miter; stroke-linecap: square"/>
   </g>
   <g id="patch_6">
    <path d="M 61.410938 12.898828 
L 418.530938 12.898828 
" style="fill: none; stroke: #000000; stroke-width: 0.8; stroke-linejoin: miter; stroke-linecap: square"/>
   </g>
   <g id="legend_1">
    <g id="patch_7">
     <path d="M 172.91 35.576953 
L 307.031875 35.576953 
Q 309.031875 35.576953 309.031875 33.576953 
L 309.031875 19.898828 
Q 309.031875 17.898828 307.031875 17.898828 
L 172.91 17.898828 
Q 170.91 17.898828 170.91 19.898828 
L 170.91 33.576953 
Q 170.91 35.576953 172.91 35.576953 
z
" style="fill: #ffffff; opacity: 0.8; stroke: #cccccc; stroke-linejoin: miter"/>
    </g>
    <g id="line2d_29">
     <path d="M 174.91 25.997266 
L 184.91 25.997266 
L 194.91 25.997266 
" style="fill: none; stroke: #1f77b4; stroke-width: 1.5; stroke-linecap: square"/>
    </g>
    <g id="text_16">
     <!-- local -->
     <g transform="translate(202.91 29.497266)scale(0.1 -0.1)">
      <defs>
       <path id="DejaVuSans-6c" d="M 603 4863 
L 1178 4863 
L 1178 0 
L 603 0 
L 603 4863 
z
" transform="scale(0.015625)"/>
       <path id="DejaVuSans-61" d="M 2194 1759 
Q 1497 1759 1228 1600 
Q 959 1441 959 1056 
Q 959 750 1161 570 
Q 1363 391 1709 391 
Q 2188 391 2477 730 
Q 2766 1069 2766 1631 
L 2766 1759 
L 2194 1759 
z
M 3341 1997 
L 3341 0 
L 2766 0 
L 2766 531 
Q 2569 213 2275 61 
Q 1981 -91 1556 -91 
Q 1019 -91 701 211 
Q 384 513 384 1019 
Q 384 1609 779 1909 
Q 1175 2209 1959 2209 
L 2766 2209 
L 2766 2266 
Q 2766 2663 2505 2880 
Q 2244 3097 1772 3097 
Q 1472 3097 1187 3025 
Q 903 2953 641 2809 
L 641 3341 
Q 956 3463 1253 3523 
Q 1550 3584 1831 3584 
Q 2591 3584 2966 3190 
Q 3341 2797 3341 1997 
z
" transform="scale(0.015625)"/>
      </defs>
      <use xlink:href="#DejaVuSans-6c"/>
      <use xlink:href="#DejaVuSans-6f" x="27.783203"/>
      <use xlink:href="#DejaVuSans-63" x="88.964844"/>
      <use xlink:href="#DejaVuSans-61" x="143.945312"/>
      <use xlink:href="#DejaVuSans-6c" x="205.224609"/>
     </g>
    </g>
    <g id="line2d_30">
     <path d="M 246.211563 25.997266 
L 256.211563 25.997266 
L 266.211563 25.997266 
" style="fill: none; stroke: #ff7f0e; stroke-width: 1.5; stroke-linecap: square"/>
    </g>
    <g id="text_17">
     <!-- blk 70 -->
     <g transform="translate(274.211563 29.497266)scale(0.1 -0.1)">
      <defs>
       <path id="DejaVuSans-62" d="M 3116 1747 
Q 3116 2381 2855 2742 
Q 2594 3103 2138 3103 
Q 1681 3103 1420 2742 
Q 1159 2381 1159 1747 
Q 1159 1113 1420 752 
Q 1681 391 2138 391 
Q 2594 391 2855 752 
Q 3116 1113 3116 1747 
z
M 1159 2969 
Q 1341 3281 1617 3432 
Q 1894 3584 2278 3584 
Q 2916 3584 3314 3078 
Q 3713 2572 3713 1747 
Q 3713 922 3314 415 
Q 2916 -91 2278 -91 
Q 1894 -91 1617 61 
Q 1341 213 1159 525 
L 1159 0 
L 581 0 
L 581 4863 
L 1159 4863 
L 1159 2969 
z
" transform="scale(0.015625)"/>
       <path id="DejaVuSans-6b" d="M 581 4863 
L 1159 4863 
L 1159 1991 
L 2875 3500 
L 3609 3500 
L 1753 1863 
L 3688 0 
L 2938 0 
L 1159 1709 
L 1159 0 
L 581 0 
L 581 4863 
z
" transform="scale(0.015625)"/>
       <path id="DejaVuSans-37" d="M 525 4666 
L 3525 4666 
L 3525 4397 
L 1831 0 
L 1172 0 
L 2766 4134 
L 525 4134 
L 525 4666 
z
" transform="scale(0.015625)"/>
      </defs>
      <use xlink:href="#DejaVuSans-62"/>
      <use xlink:href="#DejaVuSans-6c" x="63.476562"/>
      <use xlink:href="#DejaVuSans-6b" x="91.259766"/>
      <use xlink:href="#DejaVuSans-20" x="149.169922"/>
      <use xlink:href="#DejaVuSans-37" x="180.957031"/>
      <use xlink:href="#DejaVuSans-30" x="244.580078"/>
     </g>
    </g>
   </g>
  </g>
 </g>
 <defs>
  <clipPath id="pf2b7413cda">
   <rect x="61.410938" y="12.898828" width="357.12" height="266.112"/>
  </clipPath>
 </defs>
</svg>
