<?xml version="1.0" encoding="utf-8" standalone="no"?>
<!DOCTYPE svg PUBLIC "-//W3C//DTD SVG 1.1//EN"
  "http://www.w3.org/Graphics/SVG/1.1/DTD/svg11.dtd">
<svg xmlns:xlink="http://www.w3.org/1999/xlink" width="430.5075pt" height="331.084266pt" viewBox="0 0 430.5075 331.084266" xmlns="http://www.w3.org/2000/svg" version="1.1">
 <defs>
  <style type="text/css">*{stroke-linejoin: round; stroke-linecap: butt}</style>
 </defs>
 <g id="figure_1">
  <g id="patch_1">
   <path d="M 0 331.084266 
L 430.5075 331.084266 
L 430.5075 0 
L 0 0 
L 0 331.084266 
z
" style="fill: none"/>
  </g>
  <g id="axes_1">
   <g id="patch_2">
    <path d="M 66.1875 279.010828 
L 423.3075 279.010828 
L 423.3075 12.898828 
L 66.1875 12.898828 
L 66.1875 279.010828 
z
" style="fill: none"/>
   </g>
   <g id="matplotlib.axis_1">
    <g id="xtick_1">
     <g id="line2d_1">
      <path d="M 87.218078 279.010828 
L 87.218078 12.898828 
" clip-path="url(#p2b6cf647a1)" style="fill: none; stroke: #b0b0b0; stroke-width: 0.8; stroke-linecap: square"/>
     </g>
     <g id="line2d_2">
      <defs>
       <path id="md39032bed2" d="M 0 0 
L 0 3.5 
" style="stroke: #000000; stroke-width: 0.8"/>
      </defs>
      <g>
       <use xlink:href="#md39032bed2" x="87.218078" y="279.010828" style="stroke: #000000; stroke-width: 0.8"/>
      </g>
     </g>
     <g id="text_1">
      <!-- −3000 -->
      <g transform="translate(61.845812 297.408484) scale(0.15 -0.15)">
       <defs>
        <path id="DejaVuSans-2212" d="M 678 2272 
L 4684 2272 
L 4684 1741 
L 678 1741 
L 678 2272 
z
" transform="scale(0.015625)"/>
        <path id="DejaVuSans-33" d="M 2597 2516 
Q 3050 2419 3304 2112 
Q 3559 1806 3559 1356 
Q 3559 666 3084 287 
Q 2609 -91 1734 -91 
Q 1441 -91 1130 -33 
Q 819 25 488 141 
L 488 750 
Q 750 597 1062 519 
Q 1375 441 1716 441 
Q 2309 441 2620 675 
Q 2931 909 2931 1356 
Q 2931 1769 2642 2001 
Q 2353 2234 1838 2234 
L 1294 2234 
L 1294 2753 
L 1863 2753 
Q 2328 2753 2575 2939 
Q 2822 3125 2822 3475 
Q 2822 3834 2567 4026 
Q 2313 4219 1838 4219 
Q 1578 4219 1281 4162 
Q 984 4106 628 3988 
L 628 4550 
Q 988 4650 1302 4700 
Q 1616 4750 1894 4750 
Q 2613 4750 3031 4423 
Q 3450 4097 3450 3541 
Q 3450 3153 3228 2886 
Q 3006 2619 2597 2516 
z
" transform="scale(0.015625)"/>
        <path id="DejaVuSans-30" d="M 2034 4250 
Q 1547 4250 1301 3770 
Q 1056 3291 1056 2328 
Q 1056 1369 1301 889 
Q 1547 409 2034 409 
Q 2525 409 2770 889 
Q 3016 1369 3016 2328 
Q 3016 3291 2770 3770 
Q 2525 4250 2034 4250 
z
M 2034 4750 
Q 2819 4750 3233 4129 
Q 3647 3509 3647 2328 
Q 3647 1150 3233 529 
Q 2819 -91 2034 -91 
Q 1250 -91 836 529 
Q 422 1150 422 2328 
Q 422 3509 836 4129 
Q 1250 4750 2034 4750 
z
" transform="scale(0.015625)"/>
       </defs>
       <use xlink:href="#DejaVuSans-2212"/>
       <use xlink:href="#DejaVuSans-33" x="83.789062"/>
       <use xlink:href="#DejaVuSans-30" x="147.412109"/>
       <use xlink:href="#DejaVuSans-30" x="211.035156"/>
       <use xlink:href="#DejaVuSans-30" x="274.658203"/>
      </g>
     </g>
    </g>
    <g id="xtick_2">
     <g id="line2d_3">
      <path d="M 140.527527 279.010828 
L 140.527527 12.898828 
" clip-path="url(#p2b6cf647a1)" style="fill: none; stroke: #b0b0b0; stroke-width: 0.8; stroke-linecap: square"/>
     </g>
     <g id="line2d_4">
      <g>
       <use xlink:href="#md39032bed2" x="140.527527" y="279.010828" style="stroke: #000000; stroke-width: 0.8"/>
      </g>
     </g>
     <g id="text_2">
      <!-- −2500 -->
      <g transform="translate(115.155261 297.408484) scale(0.15 -0.15)">
       <defs>
        <path id="DejaVuSans-32" d="M 1228 531 
L 3431 531 
L 3431 0 
L 469 0 
L 469 531 
Q 828 903 1448 1529 
Q 2069 2156 2228 2338 
Q 2531 2678 2651 2914 
Q 2772 3150 2772 3378 
Q 2772 3750 2511 3984 
Q 2250 4219 1831 4219 
Q 1534 4219 1204 4116 
Q 875 4013 500 3803 
L 500 4441 
Q 881 4594 1212 4672 
Q 1544 4750 1819 4750 
Q 2544 4750 2975 4387 
Q 3406 4025 3406 3419 
Q 3406 3131 3298 2873 
Q 3191 2616 2906 2266 
Q 2828 2175 2409 1742 
Q 1991 1309 1228 531 
z
" transform="scale(0.015625)"/>
        <path id="DejaVuSans-35" d="M 691 4666 
L 3169 4666 
L 3169 4134 
L 1269 4134 
L 1269 2991 
Q 1406 3038 1543 3061 
Q 1681 3084 1819 3084 
Q 2600 3084 3056 2656 
Q 3513 2228 3513 1497 
Q 3513 744 3044 326 
Q 2575 -91 1722 -91 
Q 1428 -91 1123 -41 
Q 819 9 494 109 
L 494 744 
Q 775 591 1075 516 
Q 1375 441 1709 441 
Q 2250 441 2565 725 
Q 2881 1009 2881 1497 
Q 2881 1984 2565 2268 
Q 2250 2553 1709 2553 
Q 1456 2553 1204 2497 
Q 953 2441 691 2322 
L 691 4666 
z
" transform="scale(0.015625)"/>
       </defs>
       <use xlink:href="#DejaVuSans-2212"/>
       <use xlink:href="#DejaVuSans-32" x="83.789062"/>
       <use xlink:href="#DejaVuSans-35" x="147.412109"/>
       <use xlink:href="#DejaVuSans-30" x="211.035156"/>
       <use xlink:href="#DejaVuSans-30" x="274.658203"/>
      </g>
     </g>
    </g>
    <g id="xtick_3">
     <g id="line2d_5">
      <path d="M 193.836976 279.010828 
L 193.836976 12.898828 
" clip-path="url(#p2b6cf647a1)" style="fill: none; stroke: #b0b0b0; stroke-width: 0.8; stroke-linecap: square"/>
     </g>
     <g id="line2d_6">
      <g>
       <use xlink:href="#md39032bed2" x="193.836976" y="279.010828" style="stroke: #000000; stroke-width: 0.8"/>
      </g>
     </g>
     <g id="text_3">
      <!-- −2000 -->
      <g transform="translate(168.46471 297.408484) scale(0.15 -0.15)">
       <use xlink:href="#DejaVuSans-2212"/>
       <use xlink:href="#DejaVuSans-32" x="83.789062"/>
       <use xlink:href="#DejaVuSans-30" x="147.412109"/>
       <use xlink:href="#DejaVuSans-30" x="211.035156"/>
       <use xlink:href="#DejaVuSans-30" x="274.658203"/>
      </g>
     </g>
    </g>
    <g id="xtick_4">
     <g id="line2d_7">
      <path d="M 247.146425 279.010828 
L 247.146425 12.898828 
" clip-path="url(#p2b6cf647a1)" style="fill: none; stroke: #b0b0b0; stroke-width: 0.8; stroke-linecap: square"/>
     </g>
     <g id="line2d_8">
      <g>
       <use xlink:href="#md39032bed2" x="247.146425" y="279.010828" style="stroke: #000000; stroke-width: 0.8"/>
      </g>
     </g>
     <g id="text_4">
      <!-- −1500 -->
      <g transform="translate(221.77416 297.408484) scale(0.15 -0.15)">
       <defs>
        <path id="DejaVuSans-31" d="M 794 531 
L 1825 531 
L 1825 4091 
L 703 3866 
L 703 4441 
L 1819 4666 
L 2450 4666 
L 2450 531 
L 3481 531 
L 3481 0 
L 794 0 
L 794 531 
z
" transform="scale(0.015625)"/>
       </defs>
       <use xlink:href="#DejaVuSans-2212"/>
       <use xlink:href="#DejaVuSans-31" x="83.789062"/>
       <use xlink:href="#DejaVuSans-35" x="147.412109"/>
       <use xlink:href="#DejaVuSans-30" x="211.035156"/>
       <use xlink:href="#DejaVuSans-30" x="274.658203"/>
      </g>
     </g>
    </g>
    <g id="xtick_5">
     <g id="line2d_9">
      <path d="M 300.455874 279.010828 
L 300.455874 12.898828 
" clip-path="url(#p2b6cf647a1)" style="fill: none; stroke: #b0b0b0; stroke-width: 0.8; stroke-linecap: square"/>
     </g>
     <g id="line2d_10">
      <g>
       <use xlink:href="#md39032bed2" x="300.455874" y="279.010828" style="stroke: #000000; stroke-width: 0.8"/>
      </g>
     </g>
     <g id="text_5">
      <!-- −1000 -->
      <g transform="translate(275.083609 297.408484) scale(0.15 -0.15)">
       <use xlink:href="#DejaVuSans-2212"/>
       <use xlink:href="#DejaVuSans-31" x="83.789062"/>
       <use xlink:href="#DejaVuSans-30" x="147.412109"/>
       <use xlink:href="#DejaVuSans-30" x="211.035156"/>
       <use xlink:href="#DejaVuSans-30" x="274.658203"/>
      </g>
     </g>
    </g>
    <g id="xtick_6">
     <g id="line2d_11">
      <path d="M 353.765324 279.010828 
L 353.765324 12.898828 
" clip-path="url(#p2b6cf647a1)" style="fill: none; stroke: #b0b0b0; stroke-width: 0.8; stroke-linecap: square"/>
     </g>
     <g id="line2d_12">
      <g>
       <use xlink:href="#md39032bed2" x="353.765324" y="279.010828" style="stroke: #000000; stroke-width: 0.8"/>
      </g>
     </g>
     <g id="text_6">
      <!-- −500 -->
      <g transform="translate(333.164933 297.408484) scale(0.15 -0.15)">
       <use xlink:href="#DejaVuSans-2212"/>
       <use xlink:href="#DejaVuSans-35" x="83.789062"/>
       <use xlink:href="#DejaVuSans-30" x="147.412109"/>
       <use xlink:href="#DejaVuSans-30" x="211.035156"/>
      </g>
     </g>
    </g>
    <g id="xtick_7">
     <g id="line2d_13">
      <path d="M 407.074773 279.010828 
L 407.074773 12.898828 
" clip-path="url(#p2b6cf647a1)" style="fill: none; stroke: #b0b0b0; stroke-width: 0.8; stroke-linecap: square"/>
     </g>
     <g id="line2d_14">
      <g>
       <use xlink:href="#md39032bed2" x="407.074773" y="279.010828" style="stroke: #000000; stroke-width: 0.8"/>
      </g>
     </g>
     <g id="text_7">
      <!-- 0 -->
      <g transform="translate(402.302898 297.408484) scale(0.15 -0.15)">
       <use xlink:href="#DejaVuSans-30"/>
      </g>
     </g>
    </g>
    <g id="text_8">
     <!-- Position (μm) -->
     <g transform="translate(178.735 319.724891) scale(0.2 -0.2)">
      <defs>
       <path id="DejaVuSans-50" d="M 1259 4147 
L 1259 2394 
L 2053 2394 
Q 2494 2394 2734 2622 
Q 2975 2850 2975 3272 
Q 2975 3691 2734 3919 
Q 2494 4147 2053 4147 
L 1259 4147 
z
M 628 4666 
L 2053 4666 
Q 2838 4666 3239 4311 
Q 3641 3956 3641 3272 
Q 3641 2581 3239 2228 
Q 2838 1875 2053 1875 
L 1259 1875 
L 1259 0 
L 628 0 
L 628 4666 
z
" transform="scale(0.015625)"/>
       <path id="DejaVuSans-6f" d="M 1959 3097 
Q 1497 3097 1228 2736 
Q 959 2375 959 1747 
Q 959 1119 1226 758 
Q 1494 397 1959 397 
Q 2419 397 2687 759 
Q 2956 1122 2956 1747 
Q 2956 2369 2687 2733 
Q 2419 3097 1959 3097 
z
M 1959 3584 
Q 2709 3584 3137 3096 
Q 3566 2609 3566 1747 
Q 3566 888 3137 398 
Q 2709 -91 1959 -91 
Q 1206 -91 779 398 
Q 353 888 353 1747 
Q 353 2609 779 3096 
Q 1206 3584 1959 3584 
z
" transform="scale(0.015625)"/>
       <path id="DejaVuSans-73" d="M 2834 3397 
L 2834 2853 
Q 2591 2978 2328 3040 
Q 2066 3103 1784 3103 
Q 1356 3103 1142 2972 
Q 928 2841 928 2578 
Q 928 2378 1081 2264 
Q 1234 2150 1697 2047 
L 1894 2003 
Q 2506 1872 2764 1633 
Q 3022 1394 3022 966 
Q 3022 478 2636 193 
Q 2250 -91 1575 -91 
Q 1294 -91 989 -36 
Q 684 19 347 128 
L 347 722 
Q 666 556 975 473 
Q 1284 391 1588 391 
Q 1994 391 2212 530 
Q 2431 669 2431 922 
Q 2431 1156 2273 1281 
Q 2116 1406 1581 1522 
L 1381 1569 
Q 847 1681 609 1914 
Q 372 2147 372 2553 
Q 372 3047 722 3315 
Q 1072 3584 1716 3584 
Q 2034 3584 2315 3537 
Q 2597 3491 2834 3397 
z
" transform="scale(0.015625)"/>
       <path id="DejaVuSans-69" d="M 603 3500 
L 1178 3500 
L 1178 0 
L 603 0 
L 603 3500 
z
M 603 4863 
L 1178 4863 
L 1178 4134 
L 603 4134 
L 603 4863 
z
" transform="scale(0.015625)"/>
       <path id="DejaVuSans-74" d="M 1172 4494 
L 1172 3500 
L 2356 3500 
L 2356 3053 
L 1172 3053 
L 1172 1153 
Q 1172 725 1289 603 
Q 1406 481 1766 481 
L 2356 481 
L 2356 0 
L 1766 0 
Q 1100 0 847 248 
Q 594 497 594 1153 
L 594 3053 
L 172 3053 
L 172 3500 
L 594 3500 
L 594 4494 
L 1172 4494 
z
" transform="scale(0.015625)"/>
       <path id="DejaVuSans-6e" d="M 3513 2113 
L 3513 0 
L 2938 0 
L 2938 2094 
Q 2938 2591 2744 2837 
Q 2550 3084 2163 3084 
Q 1697 3084 1428 2787 
Q 1159 2491 1159 1978 
L 1159 0 
L 581 0 
L 581 3500 
L 1159 3500 
L 1159 2956 
Q 1366 3272 1645 3428 
Q 1925 3584 2291 3584 
Q 2894 3584 3203 3211 
Q 3513 2838 3513 2113 
z
" transform="scale(0.015625)"/>
       <path id="DejaVuSans-20" transform="scale(0.015625)"/>
       <path id="DejaVuSans-28" d="M 1984 4856 
Q 1566 4138 1362 3434 
Q 1159 2731 1159 2009 
Q 1159 1288 1364 580 
Q 1569 -128 1984 -844 
L 1484 -844 
Q 1016 -109 783 600 
Q 550 1309 550 2009 
Q 550 2706 781 3412 
Q 1013 4119 1484 4856 
L 1984 4856 
z
" transform="scale(0.015625)"/>
       <path id="DejaVuSans-3bc" d="M 544 -1331 
L 544 3500 
L 1119 3500 
L 1119 1325 
Q 1119 872 1334 640 
Q 1550 409 1972 409 
Q 2434 409 2667 671 
Q 2900 934 2900 1459 
L 2900 3500 
L 3475 3500 
L 3475 806 
Q 3475 619 3529 530 
Q 3584 441 3700 441 
Q 3728 441 3778 458 
Q 3828 475 3916 513 
L 3916 50 
Q 3788 -22 3673 -56 
Q 3559 -91 3450 -91 
Q 3234 -91 3106 31 
Q 2978 153 2931 403 
Q 2775 156 2548 32 
Q 2322 -91 2016 -91 
Q 1697 -91 1473 31 
Q 1250 153 1119 397 
L 1119 -1331 
L 544 -1331 
z
" transform="scale(0.015625)"/>
       <path id="DejaVuSans-6d" d="M 3328 2828 
Q 3544 3216 3844 3400 
Q 4144 3584 4550 3584 
Q 5097 3584 5394 3201 
Q 5691 2819 5691 2113 
L 5691 0 
L 5113 0 
L 5113 2094 
Q 5113 2597 4934 2840 
Q 4756 3084 4391 3084 
Q 3944 3084 3684 2787 
Q 3425 2491 3425 1978 
L 3425 0 
L 2847 0 
L 2847 2094 
Q 2847 2600 2669 2842 
Q 2491 3084 2119 3084 
Q 1678 3084 1418 2786 
Q 1159 2488 1159 1978 
L 1159 0 
L 581 0 
L 581 3500 
L 1159 3500 
L 1159 2956 
Q 1356 3278 1631 3431 
Q 1906 3584 2284 3584 
Q 2666 3584 2933 3390 
Q 3200 3197 3328 2828 
z
" transform="scale(0.015625)"/>
       <path id="DejaVuSans-29" d="M 513 4856 
L 1013 4856 
Q 1481 4119 1714 3412 
Q 1947 2706 1947 2009 
Q 1947 1309 1714 600 
Q 1481 -109 1013 -844 
L 513 -844 
Q 928 -128 1133 580 
Q 1338 1288 1338 2009 
Q 1338 2731 1133 3434 
Q 928 4138 513 4856 
z
" transform="scale(0.015625)"/>
      </defs>
      <use xlink:href="#DejaVuSans-50"/>
      <use xlink:href="#DejaVuSans-6f" x="56.677734"/>
      <use xlink:href="#DejaVuSans-73" x="117.859375"/>
      <use xlink:href="#DejaVuSans-69" x="169.958984"/>
      <use xlink:href="#DejaVuSans-74" x="197.742188"/>
      <use xlink:href="#DejaVuSans-69" x="236.951172"/>
      <use xlink:href="#DejaVuSans-6f" x="264.734375"/>
      <use xlink:href="#DejaVuSans-6e" x="325.916016"/>
      <use xlink:href="#DejaVuSans-20" x="389.294922"/>
      <use xlink:href="#DejaVuSans-28" x="421.082031"/>
      <use xlink:href="#DejaVuSans-3bc" x="460.095703"/>
      <use xlink:href="#DejaVuSans-6d" x="523.71875"/>
      <use xlink:href="#DejaVuSans-29" x="621.130859"/>
     </g>
    </g>
   </g>
   <g id="matplotlib.axis_2">
    <g id="ytick_1">
     <g id="line2d_15">
      <path d="M 66.1875 254.818828 
L 423.3075 254.818828 
" clip-path="url(#p2b6cf647a1)" style="fill: none; stroke: #b0b0b0; stroke-width: 0.8; stroke-linecap: square"/>
     </g>
     <g id="line2d_16">
      <defs>
       <path id="m6f3f5b6aff" d="M 0 0 
L -3.5 0 
" style="stroke: #000000; stroke-width: 0.8"/>
      </defs>
      <g>
       <use xlink:href="#m6f3f5b6aff" x="66.1875" y="254.818828" style="stroke: #000000; stroke-width: 0.8"/>
      </g>
     </g>
     <g id="text_9">
      <!-- 20 -->
      <g transform="translate(40.1 260.517656) scale(0.15 -0.15)">
       <use xlink:href="#DejaVuSans-32"/>
       <use xlink:href="#DejaVuSans-30" x="63.623047"/>
      </g>
     </g>
    </g>
    <g id="ytick_2">
     <g id="line2d_17">
      <path d="M 66.1875 206.434828 
L 423.3075 206.434828 
" clip-path="url(#p2b6cf647a1)" style="fill: none; stroke: #b0b0b0; stroke-width: 0.8; stroke-linecap: square"/>
     </g>
     <g id="line2d_18">
      <g>
       <use xlink:href="#m6f3f5b6aff" x="66.1875" y="206.434828" style="stroke: #000000; stroke-width: 0.8"/>
      </g>
     </g>
     <g id="text_10">
      <!-- 40 -->
      <g transform="translate(40.1 212.133656) scale(0.15 -0.15)">
       <defs>
        <path id="DejaVuSans-34" d="M 2419 4116 
L 825 1625 
L 2419 1625 
L 2419 4116 
z
M 2253 4666 
L 3047 4666 
L 3047 1625 
L 3713 1625 
L 3713 1100 
L 3047 1100 
L 3047 0 
L 2419 0 
L 2419 1100 
L 313 1100 
L 313 1709 
L 2253 4666 
z
" transform="scale(0.015625)"/>
       </defs>
       <use xlink:href="#DejaVuSans-34"/>
       <use xlink:href="#DejaVuSans-30" x="63.623047"/>
      </g>
     </g>
    </g>
    <g id="ytick_3">
     <g id="line2d_19">
      <path d="M 66.1875 158.050828 
L 423.3075 158.050828 
" clip-path="url(#p2b6cf647a1)" style="fill: none; stroke: #b0b0b0; stroke-width: 0.8; stroke-linecap: square"/>
     </g>
     <g id="line2d_20">
      <g>
       <use xlink:href="#m6f3f5b6aff" x="66.1875" y="158.050828" style="stroke: #000000; stroke-width: 0.8"/>
      </g>
     </g>
     <g id="text_11">
      <!-- 60 -->
      <g transform="translate(40.1 163.749656) scale(0.15 -0.15)">
       <defs>
        <path id="DejaVuSans-36" d="M 2113 2584 
Q 1688 2584 1439 2293 
Q 1191 2003 1191 1497 
Q 1191 994 1439 701 
Q 1688 409 2113 409 
Q 2538 409 2786 701 
Q 3034 994 3034 1497 
Q 3034 2003 2786 2293 
Q 2538 2584 2113 2584 
z
M 3366 4563 
L 3366 3988 
Q 3128 4100 2886 4159 
Q 2644 4219 2406 4219 
Q 1781 4219 1451 3797 
Q 1122 3375 1075 2522 
Q 1259 2794 1537 2939 
Q 1816 3084 2150 3084 
Q 2853 3084 3261 2657 
Q 3669 2231 3669 1497 
Q 3669 778 3244 343 
Q 2819 -91 2113 -91 
Q 1303 -91 875 529 
Q 447 1150 447 2328 
Q 447 3434 972 4092 
Q 1497 4750 2381 4750 
Q 2619 4750 2861 4703 
Q 3103 4656 3366 4563 
z
" transform="scale(0.015625)"/>
       </defs>
       <use xlink:href="#DejaVuSans-36"/>
       <use xlink:href="#DejaVuSans-30" x="63.623047"/>
      </g>
     </g>
    </g>
    <g id="ytick_4">
     <g id="line2d_21">
      <path d="M 66.1875 109.666828 
L 423.3075 109.666828 
" clip-path="url(#p2b6cf647a1)" style="fill: none; stroke: #b0b0b0; stroke-width: 0.8; stroke-linecap: square"/>
     </g>
     <g id="line2d_22">
      <g>
       <use xlink:href="#m6f3f5b6aff" x="66.1875" y="109.666828" style="stroke: #000000; stroke-width: 0.8"/>
      </g>
     </g>
     <g id="text_12">
      <!-- 80 -->
      <g transform="translate(40.1 115.365656) scale(0.15 -0.15)">
       <defs>
        <path id="DejaVuSans-38" d="M 2034 2216 
Q 1584 2216 1326 1975 
Q 1069 1734 1069 1313 
Q 1069 891 1326 650 
Q 1584 409 2034 409 
Q 2484 409 2743 651 
Q 3003 894 3003 1313 
Q 3003 1734 2745 1975 
Q 2488 2216 2034 2216 
z
M 1403 2484 
Q 997 2584 770 2862 
Q 544 3141 544 3541 
Q 544 4100 942 4425 
Q 1341 4750 2034 4750 
Q 2731 4750 3128 4425 
Q 3525 4100 3525 3541 
Q 3525 3141 3298 2862 
Q 3072 2584 2669 2484 
Q 3125 2378 3379 2068 
Q 3634 1759 3634 1313 
Q 3634 634 3220 271 
Q 2806 -91 2034 -91 
Q 1263 -91 848 271 
Q 434 634 434 1313 
Q 434 1759 690 2068 
Q 947 2378 1403 2484 
z
M 1172 3481 
Q 1172 3119 1398 2916 
Q 1625 2713 2034 2713 
Q 2441 2713 2670 2916 
Q 2900 3119 2900 3481 
Q 2900 3844 2670 4047 
Q 2441 4250 2034 4250 
Q 1625 4250 1398 4047 
Q 1172 3844 1172 3481 
z
" transform="scale(0.015625)"/>
       </defs>
       <use xlink:href="#DejaVuSans-38"/>
       <use xlink:href="#DejaVuSans-30" x="63.623047"/>
      </g>
     </g>
    </g>
    <g id="ytick_5">
     <g id="line2d_23">
      <path d="M 66.1875 61.282828 
L 423.3075 61.282828 
" clip-path="url(#p2b6cf647a1)" style="fill: none; stroke: #b0b0b0; stroke-width: 0.8; stroke-linecap: square"/>
     </g>
     <g id="line2d_24">
      <g>
       <use xlink:href="#m6f3f5b6aff" x="66.1875" y="61.282828" style="stroke: #000000; stroke-width: 0.8"/>
      </g>
     </g>
     <g id="text_13">
      <!-- 100 -->
      <g transform="translate(30.55625 66.981656) scale(0.15 -0.15)">
       <use xlink:href="#DejaVuSans-31"/>
       <use xlink:href="#DejaVuSans-30" x="63.623047"/>
       <use xlink:href="#DejaVuSans-30" x="127.246094"/>
      </g>
     </g>
    </g>
    <g id="ytick_6">
     <g id="line2d_25">
      <path d="M 66.1875 12.898828 
L 423.3075 12.898828 
" clip-path="url(#p2b6cf647a1)" style="fill: none; stroke: #b0b0b0; stroke-width: 0.8; stroke-linecap: square"/>
     </g>
     <g id="line2d_26">
      <g>
       <use xlink:href="#m6f3f5b6aff" x="66.1875" y="12.898828" style="stroke: #000000; stroke-width: 0.8"/>
      </g>
     </g>
     <g id="text_14">
      <!-- 120 -->
      <g transform="translate(30.55625 18.597656) scale(0.15 -0.15)">
       <use xlink:href="#DejaVuSans-31"/>
       <use xlink:href="#DejaVuSans-32" x="63.623047"/>
       <use xlink:href="#DejaVuSans-30" x="127.246094"/>
      </g>
     </g>
    </g>
    <g id="text_15">
     <!-- Max (V) -->
     <g transform="translate(22.396875 184.451703) rotate(-90) scale(0.2 -0.2)">
      <defs>
       <path id="DejaVuSans-4d" d="M 628 4666 
L 1569 4666 
L 2759 1491 
L 3956 4666 
L 4897 4666 
L 4897 0 
L 4281 0 
L 4281 4097 
L 3078 897 
L 2444 897 
L 1241 4097 
L 1241 0 
L 628 0 
L 628 4666 
z
" transform="scale(0.015625)"/>
       <path id="DejaVuSans-61" d="M 2194 1759 
Q 1497 1759 1228 1600 
Q 959 1441 959 1056 
Q 959 750 1161 570 
Q 1363 391 1709 391 
Q 2188 391 2477 730 
Q 2766 1069 2766 1631 
L 2766 1759 
L 2194 1759 
z
M 3341 1997 
L 3341 0 
L 2766 0 
L 2766 531 
Q 2569 213 2275 61 
Q 1981 -91 1556 -91 
Q 1019 -91 701 211 
Q 384 513 384 1019 
Q 384 1609 779 1909 
Q 1175 2209 1959 2209 
L 2766 2209 
L 2766 2266 
Q 2766 2663 2505 2880 
Q 2244 3097 1772 3097 
Q 1472 3097 1187 3025 
Q 903 2953 641 2809 
L 641 3341 
Q 956 3463 1253 3523 
Q 1550 3584 1831 3584 
Q 2591 3584 2966 3190 
Q 3341 2797 3341 1997 
z
" transform="scale(0.015625)"/>
       <path id="DejaVuSans-78" d="M 3513 3500 
L 2247 1797 
L 3578 0 
L 2900 0 
L 1881 1375 
L 863 0 
L 184 0 
L 1544 1831 
L 300 3500 
L 978 3500 
L 1906 2253 
L 2834 3500 
L 3513 3500 
z
" transform="scale(0.015625)"/>
       <path id="DejaVuSans-56" d="M 1831 0 
L 50 4666 
L 709 4666 
L 2188 738 
L 3669 4666 
L 4325 4666 
L 2547 0 
L 1831 0 
z
" transform="scale(0.015625)"/>
      </defs>
      <use xlink:href="#DejaVuSans-4d"/>
      <use xlink:href="#DejaVuSans-61" x="86.279297"/>
      <use xlink:href="#DejaVuSans-78" x="147.558594"/>
      <use xlink:href="#DejaVuSans-20" x="206.738281"/>
      <use xlink:href="#DejaVuSans-28" x="238.525391"/>
      <use xlink:href="#DejaVuSans-56" x="277.539062"/>
      <use xlink:href="#DejaVuSans-29" x="345.947266"/>
     </g>
    </g>
   </g>
   <g id="line2d_27">
    <path d="M 82.420227 47.858173 
L 82.953322 39.140467 
L 83.486416 36.844361 
L 84.019511 40.116583 
L 84.552605 47.88996 
L 85.0857 60.402156 
L 86.151889 94.042676 
L 87.751172 147.244187 
L 89.350456 192.637391 
L 89.88355 200.74471 
L 90.949739 209.537511 
L 95.214495 242.786195 
L 95.74759 244.230927 
L 96.280684 246.402391 
L 96.813779 255.189417 
L 97.346873 252.145862 
L 97.879968 243.417661 
L 98.946157 250.221701 
L 99.479251 254.574491 
L 100.012345 255.77084 
L 102.144723 255.806779 
L 102.677818 255.633836 
L 103.210912 255.774508 
L 108.008763 255.890612 
L 127.200165 255.951681 
L 129.332543 255.958065 
L 138.395149 255.987926 
L 150.123228 255.952242 
L 163.45059 255.99748 
L 173.579385 256.042223 
L 179.443425 256.047677 
L 208.230527 256.120009 
L 210.896 256.114067 
L 211.429094 256.243938 
L 222.624079 256.257034 
L 224.223362 256.202355 
L 226.35574 255.876417 
L 226.888835 255.564331 
L 227.421929 255.039043 
L 228.488118 254.91539 
L 230.087401 255.055632 
L 230.620496 254.886824 
L 231.15359 254.478301 
L 232.219779 253.245194 
L 232.752874 252.879877 
L 233.285968 253.097373 
L 233.819063 253.948801 
L 234.352157 253.833944 
L 234.885252 253.481471 
L 235.418346 252.632389 
L 236.484535 252.63163 
L 237.550724 252.810904 
L 238.083819 252.782055 
L 238.616913 252.582177 
L 239.150008 252.246951 
L 239.683102 251.371217 
L 240.216197 251.438922 
L 240.749291 252.033001 
L 241.282386 253.049031 
L 241.81548 252.97435 
L 242.348575 252.095133 
L 242.881669 251.792631 
L 243.414764 251.828044 
L 244.480953 252.306915 
L 245.014047 252.644515 
L 245.547142 252.184557 
L 246.613331 252.377292 
L 247.146425 252.417196 
L 247.67952 252.609371 
L 248.212614 253.170139 
L 248.745709 253.351864 
L 249.278803 252.846037 
L 250.344992 253.187151 
L 251.411181 255.020542 
L 251.944276 255.966667 
L 252.47737 256.629385 
L 255.675937 257.428635 
L 256.209032 257.564486 
L 257.275221 257.980285 
L 259.407599 258.598781 
L 264.205449 259.676742 
L 266.337827 260.288217 
L 267.93711 260.508428 
L 270.069488 260.574883 
L 272.201866 260.511516 
L 272.734961 260.102259 
L 273.80115 260.641188 
L 275.400433 260.707106 
L 277.532811 260.770418 
L 278.065906 260.618685 
L 279.132095 259.833084 
L 280.198284 258.953394 
L 281.264473 258.715951 
L 281.797567 257.689798 
L 282.330662 256.191717 
L 283.396851 254.404025 
L 284.996134 252.948635 
L 286.062323 252.444308 
L 287.661607 252.024607 
L 288.194701 251.438104 
L 288.727796 250.671492 
L 289.793985 248.08035 
L 290.327079 247.161241 
L 291.393268 246.268743 
L 292.459457 245.75173 
L 292.992552 245.638687 
L 293.525646 245.872774 
L 294.591835 245.828893 
L 295.124929 245.529467 
L 296.191118 243.968142 
L 297.257307 240.877888 
L 297.790402 240.090745 
L 298.856591 240.336993 
L 300.455874 240.549414 
L 302.588252 241.103091 
L 303.121347 240.936125 
L 303.654441 239.997748 
L 304.187536 238.662982 
L 305.253725 234.439408 
L 306.319914 235.781617 
L 310.58467 239.232842 
L 311.117764 239.246221 
L 311.650859 238.724008 
L 312.183953 237.39646 
L 312.717048 234.312705 
L 313.250142 232.342834 
L 316.981804 239.115052 
L 318.581087 242.122717 
L 319.114182 242.47955 
L 319.647276 242.009836 
L 320.180371 241.156461 
L 321.24656 242.68351 
L 322.312749 243.965259 
L 322.845843 244.947284 
L 323.912032 246.523327 
L 325.511315 249.501036 
L 326.04441 250.208665 
L 326.577504 250.456327 
L 327.110599 249.989415 
L 327.643693 249.228984 
L 328.709882 246.816234 
L 329.242977 247.037023 
L 330.84226 249.290279 
L 331.375355 250.197641 
L 331.908449 250.337542 
L 333.507733 250.037968 
L 334.573922 250.33197 
L 336.7063 249.38049 
L 337.239394 249.048115 
L 337.772489 248.389517 
L 338.305583 247.942561 
L 338.838678 247.724241 
L 339.371772 247.747772 
L 340.437961 248.394143 
L 341.50415 249.67021 
L 342.037245 249.98635 
L 343.636528 249.255589 
L 344.169623 247.739491 
L 345.235812 246.246407 
L 345.768906 245.322438 
L 346.302001 244.942736 
L 346.835095 244.802395 
L 347.36819 244.908143 
L 347.901284 245.147282 
L 348.434379 245.671343 
L 348.967473 246.487855 
L 350.033662 248.702755 
L 350.566757 248.833147 
L 351.099851 248.491725 
L 351.632946 247.860509 
L 352.16604 248.795819 
L 352.699135 249.483884 
L 353.232229 247.727667 
L 354.298418 242.183272 
L 354.831513 241.179512 
L 355.364607 240.672519 
L 355.897702 241.138058 
L 356.430796 242.411806 
L 358.030079 248.403778 
L 358.563174 249.282179 
L 359.096268 249.913002 
L 359.629363 251.493024 
L 361.761741 256.030506 
L 362.82793 258.398463 
L 363.361024 258.89135 
L 363.894119 258.761132 
L 364.960308 258.053449 
L 365.493402 257.632918 
L 366.026497 257.413865 
L 366.559591 257.370757 
L 367.092686 258.666808 
L 367.62578 259.520948 
L 368.158875 259.968975 
L 368.691969 259.897458 
L 369.225064 259.021892 
L 370.824347 257.812733 
L 371.357442 257.570337 
L 372.423631 256.420335 
L 372.956725 256.157605 
L 374.022914 256.483819 
L 374.556009 257.260032 
L 375.089103 257.593045 
L 375.622198 257.597833 
L 376.155292 257.372985 
L 376.688387 256.602945 
L 377.221481 254.782506 
L 378.28767 248.335455 
L 379.353859 245.541184 
L 380.420048 243.468906 
L 380.953143 242.547637 
L 381.486237 240.110224 
L 382.019332 239.688611 
L 382.552426 239.776005 
L 384.684804 250.943846 
L 385.217899 241.072512 
L 385.750993 235.257319 
L 386.817182 230.890379 
L 387.883371 229.327736 
L 388.416466 226.921076 
L 388.94956 227.916326 
L 389.482655 228.221046 
L 390.015749 227.869264 
L 390.548843 227.012962 
L 391.081938 227.276142 
L 391.615032 228.651574 
L 392.148127 229.596748 
L 392.681221 230.188915 
L 393.214316 230.473433 
L 394.280505 229.423028 
L 394.813599 228.814467 
L 395.346694 227.71253 
L 395.879788 212.330895 
L 396.412883 227.33082 
L 396.945977 225.712644 
L 398.545261 217.682996 
L 399.078355 213.881726 
L 399.61145 237.305096 
L 400.677639 236.942235 
L 401.210733 237.463728 
L 401.743828 239.241318 
L 402.276922 243.367314 
L 402.810017 246.028735 
L 403.343111 248.123575 
L 403.876206 249.309815 
L 404.4093 248.722588 
L 405.475489 248.655903 
L 406.008584 247.559461 
L 406.541678 244.973889 
L 407.074773 236.843421 
L 407.074773 236.843421 
" clip-path="url(#p2b6cf647a1)" style="fill: none; stroke: #1f77b4; stroke-width: 1.5; stroke-linecap: square"/>
   </g>
   <g id="line2d_28">
    <path d="M 82.420227 32.284844 
L 82.953322 34.089315 
L 83.486416 32.284846 
L 84.019511 35.173626 
L 84.552605 43.358914 
L 85.0857 56.354999 
L 86.151889 90.892021 
L 87.751172 145.149998 
L 89.350456 190.232722 
L 90.416645 203.890664 
L 93.082117 225.512859 
L 94.681401 237.631161 
L 95.214495 242.251169 
L 95.74759 243.262562 
L 96.280684 244.547808 
L 96.813779 251.771053 
L 97.346873 249.817694 
L 97.879968 242.331171 
L 98.413062 244.78823 
L 99.479251 254.310508 
L 100.012345 255.754023 
L 102.144723 255.771312 
L 102.677818 255.264679 
L 103.210912 255.264224 
L 103.744007 255.783533 
L 114.938991 255.87193 
L 117.604464 255.893842 
L 122.402314 255.87625 
L 124.534692 255.938449 
L 128.799448 255.799448 
L 129.332543 255.865495 
L 129.865637 255.799448 
L 130.398732 255.896813 
L 130.931826 255.799448 
L 132.531109 255.799441 
L 136.795865 255.870203 
L 138.395149 255.961611 
L 139.994432 255.884948 
L 141.060621 255.83774 
L 142.12681 255.884221 
L 166.649157 255.908426 
L 167.715346 256.024901 
L 177.311047 256.009679 
L 181.042708 255.996681 
L 184.77437 256.05342 
L 188.506031 256.042334 
L 192.237693 256.037663 
L 194.903165 256.024661 
L 198.634826 256.096873 
L 199.167921 255.776328 
L 199.701015 256.07893 
L 204.498866 255.839557 
L 205.03196 256.113561 
L 209.296716 256.039385 
L 211.429094 256.060563 
L 214.094567 256.06144 
L 218.892417 255.909416 
L 220.491701 255.95192 
L 221.024795 255.823128 
L 221.55789 254.47603 
L 222.090984 254.679977 
L 222.624079 255.259161 
L 223.157173 254.621366 
L 223.690268 254.364801 
L 224.223362 253.80031 
L 224.756457 253.774677 
L 225.289551 254.014522 
L 225.822646 252.600489 
L 226.35574 252.600487 
L 226.888835 253.782805 
L 227.421929 253.160105 
L 228.488118 252.600484 
L 229.021212 253.348839 
L 229.554307 253.542957 
L 230.087401 252.716179 
L 230.620496 252.760418 
L 231.15359 252.600487 
L 231.686685 252.311635 
L 232.219779 251.887704 
L 232.752874 251.280454 
L 233.285968 251.796154 
L 233.819063 251.881232 
L 234.352157 252.174406 
L 234.885252 253.217603 
L 235.418346 251.884398 
L 235.951441 251.778878 
L 238.083819 252.636714 
L 238.616913 252.457231 
L 239.683102 251.280455 
L 240.749291 251.280454 
L 241.282386 251.280443 
L 241.81548 252.004196 
L 242.348575 251.613315 
L 242.881669 251.425432 
L 243.947858 251.796371 
L 245.014047 252.528299 
L 246.613331 251.280456 
L 247.146425 251.987221 
L 248.212614 251.280454 
L 248.745709 251.979293 
L 249.278803 252.046853 
L 249.811898 252.721846 
L 250.344992 252.838421 
L 250.878087 253.421391 
L 251.411181 254.188258 
L 251.944276 255.210463 
L 252.47737 255.741442 
L 253.010465 255.529541 
L 253.543559 255.458813 
L 254.076654 255.693145 
L 254.609748 256.214824 
L 255.142843 256.979121 
L 255.675937 257.340163 
L 256.209032 256.364646 
L 256.742126 257.054487 
L 257.275221 256.177066 
L 257.808315 256.190077 
L 258.34141 255.112091 
L 258.874504 254.612557 
L 259.407599 255.136436 
L 260.473788 258.481778 
L 262.073071 258.961628 
L 263.13926 259.21339 
L 263.672354 258.701929 
L 264.738543 255.383905 
L 265.271638 254.213405 
L 265.804732 253.702526 
L 266.337827 254.321813 
L 267.404016 259.203363 
L 267.93711 260.070913 
L 270.069488 260.24177 
L 270.602583 258.918477 
L 271.668772 254.64223 
L 272.201866 253.25357 
L 272.734961 252.838245 
L 273.268055 252.972784 
L 274.334244 257.241612 
L 274.867339 259.240532 
L 275.400433 260.236245 
L 276.466622 260.41367 
L 276.999717 260.448372 
L 278.065906 259.294664 
L 278.599 256.792107 
L 279.665189 253.762248 
L 280.198284 253.43915 
L 280.731378 254.201053 
L 281.264473 255.472605 
L 281.797567 255.34389 
L 282.863756 253.541568 
L 283.396851 252.970968 
L 283.929945 252.575013 
L 285.529229 251.921498 
L 286.595418 250.383624 
L 287.128512 249.787752 
L 288.727796 247.285644 
L 289.793985 246.445276 
L 290.860174 245.632597 
L 291.393268 245.415203 
L 291.926363 245.395079 
L 292.992552 243.531021 
L 293.525646 243.209124 
L 295.124929 240.329451 
L 295.658024 239.924874 
L 296.191118 239.755137 
L 296.724213 239.368387 
L 297.790402 238.282004 
L 298.323496 236.92065 
L 298.856591 236.033928 
L 299.92278 233.21559 
L 300.455874 232.342339 
L 300.988969 232.455376 
L 301.522063 232.342339 
L 302.588252 232.36101 
L 303.121347 232.342339 
L 303.654441 232.544836 
L 304.72063 233.370581 
L 305.253725 233.808396 
L 306.319914 232.715118 
L 306.853008 231.213989 
L 307.386103 230.30624 
L 307.919197 230.140362 
L 308.452292 230.175776 
L 308.985386 230.368042 
L 309.518481 230.167652 
L 310.051575 230.167786 
L 310.58467 230.377286 
L 311.650859 231.027517 
L 312.183953 230.849158 
L 312.717048 230.281031 
L 313.250142 230.140362 
L 313.783237 230.158838 
L 314.316331 230.292014 
L 314.849426 230.140363 
L 315.38252 230.335806 
L 315.915615 231.469378 
L 316.448709 231.979604 
L 316.981804 233.944581 
L 317.514898 236.419667 
L 318.581087 238.002049 
L 320.713465 240.972687 
L 323.378938 243.736242 
L 324.445127 244.603208 
L 325.511315 245.341624 
L 327.110599 246.337207 
L 327.643693 246.17413 
L 328.709882 245.293622 
L 329.242977 245.120375 
L 329.776071 245.178713 
L 330.309166 245.84883 
L 330.84226 246.08228 
L 331.375355 246.445893 
L 331.908449 246.577533 
L 332.441544 246.391461 
L 332.974638 246.401899 
L 334.573922 245.981006 
L 335.107016 245.94854 
L 336.173205 245.346783 
L 337.239394 244.537281 
L 338.838678 244.434516 
L 340.437961 243.922834 
L 340.971056 243.865571 
L 341.50415 243.690827 
L 342.570339 243.522543 
L 343.103434 243.078679 
L 343.636528 242.294742 
L 345.235812 239.438246 
L 345.768906 239.228019 
L 346.302001 238.751505 
L 346.835095 238.510069 
L 347.36819 238.133659 
L 348.434379 236.382353 
L 348.967473 236.382354 
L 349.500568 236.717064 
L 350.033662 237.185629 
L 350.566757 237.115567 
L 351.632946 236.390274 
L 356.430796 236.382354 
L 356.963891 236.687113 
L 358.563174 242.050182 
L 359.096268 242.869843 
L 359.629363 241.647394 
L 360.162457 241.108809 
L 360.695552 242.234327 
L 361.228646 245.038005 
L 362.82793 249.08509 
L 364.427213 251.148586 
L 364.960308 251.144476 
L 365.493402 250.013252 
L 366.026497 250.099039 
L 367.092686 250.91138 
L 368.691969 252.969829 
L 369.225064 252.922657 
L 369.758158 252.742597 
L 370.291253 252.148729 
L 370.824347 251.722938 
L 371.357442 251.857452 
L 372.423631 253.085783 
L 373.48982 253.474003 
L 375.622198 252.153295 
L 376.688387 250.388709 
L 377.221481 249.355937 
L 377.754576 248.060125 
L 378.28767 245.885637 
L 380.420048 240.282309 
L 380.953143 239.675332 
L 381.486237 237.724127 
L 382.019332 237.965799 
L 382.552426 238.60769 
L 383.085521 240.35665 
L 384.15171 245.721625 
L 384.684804 244.959479 
L 385.750993 233.355894 
L 386.284088 230.871176 
L 386.817182 229.221482 
L 387.350277 228.190898 
L 388.416466 220.490348 
L 388.94956 221.438904 
L 389.482655 223.092366 
L 390.548843 223.828391 
L 391.081938 223.813352 
L 391.615032 223.499159 
L 392.148127 223.701981 
L 392.681221 222.275895 
L 393.74741 217.83773 
L 394.280505 214.175061 
L 394.813599 208.774927 
L 395.879788 189.836941 
L 396.412883 194.518109 
L 396.945977 193.086029 
L 397.479072 189.696931 
L 398.012166 183.825821 
L 399.078355 164.887624 
L 400.677639 193.294786 
L 401.210733 192.252667 
L 401.743828 189.046004 
L 406.541678 103.82492 
L 407.074773 103.825162 
L 407.074773 103.825162 
" clip-path="url(#p2b6cf647a1)" style="fill: none; stroke: #ff7f0e; stroke-width: 1.5; stroke-linecap: square"/>
   </g>
   <g id="patch_3">
    <path d="M 66.1875 279.010828 
L 66.1875 12.898828 
" style="fill: none; stroke: #000000; stroke-width: 0.8; stroke-linejoin: miter; stroke-linecap: square"/>
   </g>
   <g id="patch_4">
    <path d="M 423.3075 279.010828 
L 423.3075 12.898828 
" style="fill: none; stroke: #000000; stroke-width: 0.8; stroke-linejoin: miter; stroke-linecap: square"/>
   </g>
   <g id="patch_5">
    <path d="M 66.1875 279.010828 
L 423.3075 279.010828 
" style="fill: none; stroke: #000000; stroke-width: 0.8; stroke-linejoin: miter; stroke-linecap: square"/>
   </g>
   <g id="patch_6">
    <path d="M 66.1875 12.898828 
L 423.3075 12.898828 
" style="fill: none; stroke: #000000; stroke-width: 0.8; stroke-linejoin: miter; stroke-linecap: square"/>
   </g>
   <g id="legend_1">
    <g id="patch_7">
     <path d="M 282.185625 35.576953 
L 416.3075 35.576953 
Q 418.3075 35.576953 418.3075 33.576953 
L 418.3075 19.898828 
Q 418.3075 17.898828 416.3075 17.898828 
L 282.185625 17.898828 
Q 280.185625 17.898828 280.185625 19.898828 
L 280.185625 33.576953 
Q 280.185625 35.576953 282.185625 35.576953 
z
" style="fill: #ffffff; opacity: 0.8; stroke: #cccccc; stroke-linejoin: miter"/>
    </g>
    <g id="line2d_29">
     <path d="M 284.185625 25.997266 
L 294.185625 25.997266 
L 304.185625 25.997266 
" style="fill: none; stroke: #1f77b4; stroke-width: 1.5; stroke-linecap: square"/>
    </g>
    <g id="text_16">
     <!-- local -->
     <g transform="translate(312.185625 29.497266) scale(0.1 -0.1)">
      <defs>
       <path id="DejaVuSans-6c" d="M 603 4863 
L 1178 4863 
L 1178 0 
L 603 0 
L 603 4863 
z
" transform="scale(0.015625)"/>
       <path id="DejaVuSans-63" d="M 3122 3366 
L 3122 2828 
Q 2878 2963 2633 3030 
Q 2388 3097 2138 3097 
Q 1578 3097 1268 2742 
Q 959 2388 959 1747 
Q 959 1106 1268 751 
Q 1578 397 2138 397 
Q 2388 397 2633 464 
Q 2878 531 3122 666 
L 3122 134 
Q 2881 22 2623 -34 
Q 2366 -91 2075 -91 
Q 1284 -91 818 406 
Q 353 903 353 1747 
Q 353 2603 823 3093 
Q 1294 3584 2113 3584 
Q 2378 3584 2631 3529 
Q 2884 3475 3122 3366 
z
" transform="scale(0.015625)"/>
      </defs>
      <use xlink:href="#DejaVuSans-6c"/>
      <use xlink:href="#DejaVuSans-6f" x="27.783203"/>
      <use xlink:href="#DejaVuSans-63" x="88.964844"/>
      <use xlink:href="#DejaVuSans-61" x="143.945312"/>
      <use xlink:href="#DejaVuSans-6c" x="205.224609"/>
     </g>
    </g>
    <g id="line2d_30">
     <path d="M 355.487188 25.997266 
L 365.487188 25.997266 
L 375.487188 25.997266 
" style="fill: none; stroke: #ff7f0e; stroke-width: 1.5; stroke-linecap: square"/>
    </g>
    <g id="text_17">
     <!-- blk 70 -->
     <g transform="translate(383.487188 29.497266) scale(0.1 -0.1)">
      <defs>
       <path id="DejaVuSans-62" d="M 3116 1747 
Q 3116 2381 2855 2742 
Q 2594 3103 2138 3103 
Q 1681 3103 1420 2742 
Q 1159 2381 1159 1747 
Q 1159 1113 1420 752 
Q 1681 391 2138 391 
Q 2594 391 2855 752 
Q 3116 1113 3116 1747 
z
M 1159 2969 
Q 1341 3281 1617 3432 
Q 1894 3584 2278 3584 
Q 2916 3584 3314 3078 
Q 3713 2572 3713 1747 
Q 3713 922 3314 415 
Q 2916 -91 2278 -91 
Q 1894 -91 1617 61 
Q 1341 213 1159 525 
L 1159 0 
L 581 0 
L 581 4863 
L 1159 4863 
L 1159 2969 
z
" transform="scale(0.015625)"/>
       <path id="DejaVuSans-6b" d="M 581 4863 
L 1159 4863 
L 1159 1991 
L 2875 3500 
L 3609 3500 
L 1753 1863 
L 3688 0 
L 2938 0 
L 1159 1709 
L 1159 0 
L 581 0 
L 581 4863 
z
" transform="scale(0.015625)"/>
       <path id="DejaVuSans-37" d="M 525 4666 
L 3525 4666 
L 3525 4397 
L 1831 0 
L 1172 0 
L 2766 4134 
L 525 4134 
L 525 4666 
z
" transform="scale(0.015625)"/>
      </defs>
      <use xlink:href="#DejaVuSans-62"/>
      <use xlink:href="#DejaVuSans-6c" x="63.476562"/>
      <use xlink:href="#DejaVuSans-6b" x="91.259766"/>
      <use xlink:href="#DejaVuSans-20" x="149.169922"/>
      <use xlink:href="#DejaVuSans-37" x="180.957031"/>
      <use xlink:href="#DejaVuSans-30" x="244.580078"/>
     </g>
    </g>
   </g>
  </g>
 </g>
 <defs>
  <clipPath id="p2b6cf647a1">
   <rect x="66.1875" y="12.898828" width="357.12" height="266.112"/>
  </clipPath>
 </defs>
</svg>
