<?xml version="1.0" encoding="utf-8" standalone="no"?>
<!DOCTYPE svg PUBLIC "-//W3C//DTD SVG 1.1//EN"
  "http://www.w3.org/Graphics/SVG/1.1/DTD/svg11.dtd">
<svg xmlns:xlink="http://www.w3.org/1999/xlink" width="435.274687pt" height="325.385437pt" viewBox="0 0 435.274687 325.385437" xmlns="http://www.w3.org/2000/svg" version="1.1">
 <defs>
  <style type="text/css">*{stroke-linejoin: round; stroke-linecap: butt}</style>
 </defs>
 <g id="figure_1">
  <g id="patch_1">
   <path d="M 0 325.385437 
L 435.274687 325.385437 
L 435.274687 0 
L 0 0 
L 0 325.385437 
z
" style="fill: none"/>
  </g>
  <g id="axes_1">
   <g id="patch_2">
    <path d="M 70.954688 273.312 
L 428.074687 273.312 
L 428.074687 7.2 
L 70.954688 7.2 
L 70.954688 273.312 
z
" style="fill: none"/>
   </g>
   <g id="matplotlib.axis_1">
    <g id="xtick_1">
     <g id="line2d_1">
      <path d="M 91.985265 273.312 
L 91.985265 7.2 
" clip-path="url(#p037ef65ab7)" style="fill: none; stroke: #b0b0b0; stroke-width: 0.8; stroke-linecap: square"/>
     </g>
     <g id="line2d_2">
      <defs>
       <path id="md39032bed2" d="M 0 0 
L 0 3.5 
" style="stroke: #000000; stroke-width: 0.8"/>
      </defs>
      <g>
       <use xlink:href="#md39032bed2" x="91.985265" y="273.312" style="stroke: #000000; stroke-width: 0.8"/>
      </g>
     </g>
     <g id="text_1">
      <!-- −3000 -->
      <g transform="translate(66.613 291.709656)scale(0.15 -0.15)">
       <defs>
        <path id="DejaVuSans-2212" d="M 678 2272 
L 4684 2272 
L 4684 1741 
L 678 1741 
L 678 2272 
z
" transform="scale(0.015625)"/>
        <path id="DejaVuSans-33" d="M 2597 2516 
Q 3050 2419 3304 2112 
Q 3559 1806 3559 1356 
Q 3559 666 3084 287 
Q 2609 -91 1734 -91 
Q 1441 -91 1130 -33 
Q 819 25 488 141 
L 488 750 
Q 750 597 1062 519 
Q 1375 441 1716 441 
Q 2309 441 2620 675 
Q 2931 909 2931 1356 
Q 2931 1769 2642 2001 
Q 2353 2234 1838 2234 
L 1294 2234 
L 1294 2753 
L 1863 2753 
Q 2328 2753 2575 2939 
Q 2822 3125 2822 3475 
Q 2822 3834 2567 4026 
Q 2313 4219 1838 4219 
Q 1578 4219 1281 4162 
Q 984 4106 628 3988 
L 628 4550 
Q 988 4650 1302 4700 
Q 1616 4750 1894 4750 
Q 2613 4750 3031 4423 
Q 3450 4097 3450 3541 
Q 3450 3153 3228 2886 
Q 3006 2619 2597 2516 
z
" transform="scale(0.015625)"/>
        <path id="DejaVuSans-30" d="M 2034 4250 
Q 1547 4250 1301 3770 
Q 1056 3291 1056 2328 
Q 1056 1369 1301 889 
Q 1547 409 2034 409 
Q 2525 409 2770 889 
Q 3016 1369 3016 2328 
Q 3016 3291 2770 3770 
Q 2525 4250 2034 4250 
z
M 2034 4750 
Q 2819 4750 3233 4129 
Q 3647 3509 3647 2328 
Q 3647 1150 3233 529 
Q 2819 -91 2034 -91 
Q 1250 -91 836 529 
Q 422 1150 422 2328 
Q 422 3509 836 4129 
Q 1250 4750 2034 4750 
z
" transform="scale(0.015625)"/>
       </defs>
       <use xlink:href="#DejaVuSans-2212"/>
       <use xlink:href="#DejaVuSans-33" x="83.789062"/>
       <use xlink:href="#DejaVuSans-30" x="147.412109"/>
       <use xlink:href="#DejaVuSans-30" x="211.035156"/>
       <use xlink:href="#DejaVuSans-30" x="274.658203"/>
      </g>
     </g>
    </g>
    <g id="xtick_2">
     <g id="line2d_3">
      <path d="M 145.294714 273.312 
L 145.294714 7.2 
" clip-path="url(#p037ef65ab7)" style="fill: none; stroke: #b0b0b0; stroke-width: 0.8; stroke-linecap: square"/>
     </g>
     <g id="line2d_4">
      <g>
       <use xlink:href="#md39032bed2" x="145.294714" y="273.312" style="stroke: #000000; stroke-width: 0.8"/>
      </g>
     </g>
     <g id="text_2">
      <!-- −2500 -->
      <g transform="translate(119.922449 291.709656)scale(0.15 -0.15)">
       <defs>
        <path id="DejaVuSans-32" d="M 1228 531 
L 3431 531 
L 3431 0 
L 469 0 
L 469 531 
Q 828 903 1448 1529 
Q 2069 2156 2228 2338 
Q 2531 2678 2651 2914 
Q 2772 3150 2772 3378 
Q 2772 3750 2511 3984 
Q 2250 4219 1831 4219 
Q 1534 4219 1204 4116 
Q 875 4013 500 3803 
L 500 4441 
Q 881 4594 1212 4672 
Q 1544 4750 1819 4750 
Q 2544 4750 2975 4387 
Q 3406 4025 3406 3419 
Q 3406 3131 3298 2873 
Q 3191 2616 2906 2266 
Q 2828 2175 2409 1742 
Q 1991 1309 1228 531 
z
" transform="scale(0.015625)"/>
        <path id="DejaVuSans-35" d="M 691 4666 
L 3169 4666 
L 3169 4134 
L 1269 4134 
L 1269 2991 
Q 1406 3038 1543 3061 
Q 1681 3084 1819 3084 
Q 2600 3084 3056 2656 
Q 3513 2228 3513 1497 
Q 3513 744 3044 326 
Q 2575 -91 1722 -91 
Q 1428 -91 1123 -41 
Q 819 9 494 109 
L 494 744 
Q 775 591 1075 516 
Q 1375 441 1709 441 
Q 2250 441 2565 725 
Q 2881 1009 2881 1497 
Q 2881 1984 2565 2268 
Q 2250 2553 1709 2553 
Q 1456 2553 1204 2497 
Q 953 2441 691 2322 
L 691 4666 
z
" transform="scale(0.015625)"/>
       </defs>
       <use xlink:href="#DejaVuSans-2212"/>
       <use xlink:href="#DejaVuSans-32" x="83.789062"/>
       <use xlink:href="#DejaVuSans-35" x="147.412109"/>
       <use xlink:href="#DejaVuSans-30" x="211.035156"/>
       <use xlink:href="#DejaVuSans-30" x="274.658203"/>
      </g>
     </g>
    </g>
    <g id="xtick_3">
     <g id="line2d_5">
      <path d="M 198.604164 273.312 
L 198.604164 7.2 
" clip-path="url(#p037ef65ab7)" style="fill: none; stroke: #b0b0b0; stroke-width: 0.8; stroke-linecap: square"/>
     </g>
     <g id="line2d_6">
      <g>
       <use xlink:href="#md39032bed2" x="198.604164" y="273.312" style="stroke: #000000; stroke-width: 0.8"/>
      </g>
     </g>
     <g id="text_3">
      <!-- −2000 -->
      <g transform="translate(173.231898 291.709656)scale(0.15 -0.15)">
       <use xlink:href="#DejaVuSans-2212"/>
       <use xlink:href="#DejaVuSans-32" x="83.789062"/>
       <use xlink:href="#DejaVuSans-30" x="147.412109"/>
       <use xlink:href="#DejaVuSans-30" x="211.035156"/>
       <use xlink:href="#DejaVuSans-30" x="274.658203"/>
      </g>
     </g>
    </g>
    <g id="xtick_4">
     <g id="line2d_7">
      <path d="M 251.913613 273.312 
L 251.913613 7.2 
" clip-path="url(#p037ef65ab7)" style="fill: none; stroke: #b0b0b0; stroke-width: 0.8; stroke-linecap: square"/>
     </g>
     <g id="line2d_8">
      <g>
       <use xlink:href="#md39032bed2" x="251.913613" y="273.312" style="stroke: #000000; stroke-width: 0.8"/>
      </g>
     </g>
     <g id="text_4">
      <!-- −1500 -->
      <g transform="translate(226.541347 291.709656)scale(0.15 -0.15)">
       <defs>
        <path id="DejaVuSans-31" d="M 794 531 
L 1825 531 
L 1825 4091 
L 703 3866 
L 703 4441 
L 1819 4666 
L 2450 4666 
L 2450 531 
L 3481 531 
L 3481 0 
L 794 0 
L 794 531 
z
" transform="scale(0.015625)"/>
       </defs>
       <use xlink:href="#DejaVuSans-2212"/>
       <use xlink:href="#DejaVuSans-31" x="83.789062"/>
       <use xlink:href="#DejaVuSans-35" x="147.412109"/>
       <use xlink:href="#DejaVuSans-30" x="211.035156"/>
       <use xlink:href="#DejaVuSans-30" x="274.658203"/>
      </g>
     </g>
    </g>
    <g id="xtick_5">
     <g id="line2d_9">
      <path d="M 305.223062 273.312 
L 305.223062 7.2 
" clip-path="url(#p037ef65ab7)" style="fill: none; stroke: #b0b0b0; stroke-width: 0.8; stroke-linecap: square"/>
     </g>
     <g id="line2d_10">
      <g>
       <use xlink:href="#md39032bed2" x="305.223062" y="273.312" style="stroke: #000000; stroke-width: 0.8"/>
      </g>
     </g>
     <g id="text_5">
      <!-- −1000 -->
      <g transform="translate(279.850796 291.709656)scale(0.15 -0.15)">
       <use xlink:href="#DejaVuSans-2212"/>
       <use xlink:href="#DejaVuSans-31" x="83.789062"/>
       <use xlink:href="#DejaVuSans-30" x="147.412109"/>
       <use xlink:href="#DejaVuSans-30" x="211.035156"/>
       <use xlink:href="#DejaVuSans-30" x="274.658203"/>
      </g>
     </g>
    </g>
    <g id="xtick_6">
     <g id="line2d_11">
      <path d="M 358.532511 273.312 
L 358.532511 7.2 
" clip-path="url(#p037ef65ab7)" style="fill: none; stroke: #b0b0b0; stroke-width: 0.8; stroke-linecap: square"/>
     </g>
     <g id="line2d_12">
      <g>
       <use xlink:href="#md39032bed2" x="358.532511" y="273.312" style="stroke: #000000; stroke-width: 0.8"/>
      </g>
     </g>
     <g id="text_6">
      <!-- −500 -->
      <g transform="translate(337.93212 291.709656)scale(0.15 -0.15)">
       <use xlink:href="#DejaVuSans-2212"/>
       <use xlink:href="#DejaVuSans-35" x="83.789062"/>
       <use xlink:href="#DejaVuSans-30" x="147.412109"/>
       <use xlink:href="#DejaVuSans-30" x="211.035156"/>
      </g>
     </g>
    </g>
    <g id="xtick_7">
     <g id="line2d_13">
      <path d="M 411.84196 273.312 
L 411.84196 7.2 
" clip-path="url(#p037ef65ab7)" style="fill: none; stroke: #b0b0b0; stroke-width: 0.8; stroke-linecap: square"/>
     </g>
     <g id="line2d_14">
      <g>
       <use xlink:href="#md39032bed2" x="411.84196" y="273.312" style="stroke: #000000; stroke-width: 0.8"/>
      </g>
     </g>
     <g id="text_7">
      <!-- 0 -->
      <g transform="translate(407.070085 291.709656)scale(0.15 -0.15)">
       <use xlink:href="#DejaVuSans-30"/>
      </g>
     </g>
    </g>
    <g id="text_8">
     <!-- Position (μm) -->
     <g transform="translate(183.502187 314.026062)scale(0.2 -0.2)">
      <defs>
       <path id="DejaVuSans-50" d="M 1259 4147 
L 1259 2394 
L 2053 2394 
Q 2494 2394 2734 2622 
Q 2975 2850 2975 3272 
Q 2975 3691 2734 3919 
Q 2494 4147 2053 4147 
L 1259 4147 
z
M 628 4666 
L 2053 4666 
Q 2838 4666 3239 4311 
Q 3641 3956 3641 3272 
Q 3641 2581 3239 2228 
Q 2838 1875 2053 1875 
L 1259 1875 
L 1259 0 
L 628 0 
L 628 4666 
z
" transform="scale(0.015625)"/>
       <path id="DejaVuSans-6f" d="M 1959 3097 
Q 1497 3097 1228 2736 
Q 959 2375 959 1747 
Q 959 1119 1226 758 
Q 1494 397 1959 397 
Q 2419 397 2687 759 
Q 2956 1122 2956 1747 
Q 2956 2369 2687 2733 
Q 2419 3097 1959 3097 
z
M 1959 3584 
Q 2709 3584 3137 3096 
Q 3566 2609 3566 1747 
Q 3566 888 3137 398 
Q 2709 -91 1959 -91 
Q 1206 -91 779 398 
Q 353 888 353 1747 
Q 353 2609 779 3096 
Q 1206 3584 1959 3584 
z
" transform="scale(0.015625)"/>
       <path id="DejaVuSans-73" d="M 2834 3397 
L 2834 2853 
Q 2591 2978 2328 3040 
Q 2066 3103 1784 3103 
Q 1356 3103 1142 2972 
Q 928 2841 928 2578 
Q 928 2378 1081 2264 
Q 1234 2150 1697 2047 
L 1894 2003 
Q 2506 1872 2764 1633 
Q 3022 1394 3022 966 
Q 3022 478 2636 193 
Q 2250 -91 1575 -91 
Q 1294 -91 989 -36 
Q 684 19 347 128 
L 347 722 
Q 666 556 975 473 
Q 1284 391 1588 391 
Q 1994 391 2212 530 
Q 2431 669 2431 922 
Q 2431 1156 2273 1281 
Q 2116 1406 1581 1522 
L 1381 1569 
Q 847 1681 609 1914 
Q 372 2147 372 2553 
Q 372 3047 722 3315 
Q 1072 3584 1716 3584 
Q 2034 3584 2315 3537 
Q 2597 3491 2834 3397 
z
" transform="scale(0.015625)"/>
       <path id="DejaVuSans-69" d="M 603 3500 
L 1178 3500 
L 1178 0 
L 603 0 
L 603 3500 
z
M 603 4863 
L 1178 4863 
L 1178 4134 
L 603 4134 
L 603 4863 
z
" transform="scale(0.015625)"/>
       <path id="DejaVuSans-74" d="M 1172 4494 
L 1172 3500 
L 2356 3500 
L 2356 3053 
L 1172 3053 
L 1172 1153 
Q 1172 725 1289 603 
Q 1406 481 1766 481 
L 2356 481 
L 2356 0 
L 1766 0 
Q 1100 0 847 248 
Q 594 497 594 1153 
L 594 3053 
L 172 3053 
L 172 3500 
L 594 3500 
L 594 4494 
L 1172 4494 
z
" transform="scale(0.015625)"/>
       <path id="DejaVuSans-6e" d="M 3513 2113 
L 3513 0 
L 2938 0 
L 2938 2094 
Q 2938 2591 2744 2837 
Q 2550 3084 2163 3084 
Q 1697 3084 1428 2787 
Q 1159 2491 1159 1978 
L 1159 0 
L 581 0 
L 581 3500 
L 1159 3500 
L 1159 2956 
Q 1366 3272 1645 3428 
Q 1925 3584 2291 3584 
Q 2894 3584 3203 3211 
Q 3513 2838 3513 2113 
z
" transform="scale(0.015625)"/>
       <path id="DejaVuSans-20" transform="scale(0.015625)"/>
       <path id="DejaVuSans-28" d="M 1984 4856 
Q 1566 4138 1362 3434 
Q 1159 2731 1159 2009 
Q 1159 1288 1364 580 
Q 1569 -128 1984 -844 
L 1484 -844 
Q 1016 -109 783 600 
Q 550 1309 550 2009 
Q 550 2706 781 3412 
Q 1013 4119 1484 4856 
L 1984 4856 
z
" transform="scale(0.015625)"/>
       <path id="DejaVuSans-3bc" d="M 544 -1331 
L 544 3500 
L 1119 3500 
L 1119 1325 
Q 1119 872 1334 640 
Q 1550 409 1972 409 
Q 2434 409 2667 671 
Q 2900 934 2900 1459 
L 2900 3500 
L 3475 3500 
L 3475 806 
Q 3475 619 3529 530 
Q 3584 441 3700 441 
Q 3728 441 3778 458 
Q 3828 475 3916 513 
L 3916 50 
Q 3788 -22 3673 -56 
Q 3559 -91 3450 -91 
Q 3234 -91 3106 31 
Q 2978 153 2931 403 
Q 2775 156 2548 32 
Q 2322 -91 2016 -91 
Q 1697 -91 1473 31 
Q 1250 153 1119 397 
L 1119 -1331 
L 544 -1331 
z
" transform="scale(0.015625)"/>
       <path id="DejaVuSans-6d" d="M 3328 2828 
Q 3544 3216 3844 3400 
Q 4144 3584 4550 3584 
Q 5097 3584 5394 3201 
Q 5691 2819 5691 2113 
L 5691 0 
L 5113 0 
L 5113 2094 
Q 5113 2597 4934 2840 
Q 4756 3084 4391 3084 
Q 3944 3084 3684 2787 
Q 3425 2491 3425 1978 
L 3425 0 
L 2847 0 
L 2847 2094 
Q 2847 2600 2669 2842 
Q 2491 3084 2119 3084 
Q 1678 3084 1418 2786 
Q 1159 2488 1159 1978 
L 1159 0 
L 581 0 
L 581 3500 
L 1159 3500 
L 1159 2956 
Q 1356 3278 1631 3431 
Q 1906 3584 2284 3584 
Q 2666 3584 2933 3390 
Q 3200 3197 3328 2828 
z
" transform="scale(0.015625)"/>
       <path id="DejaVuSans-29" d="M 513 4856 
L 1013 4856 
Q 1481 4119 1714 3412 
Q 1947 2706 1947 2009 
Q 1947 1309 1714 600 
Q 1481 -109 1013 -844 
L 513 -844 
Q 928 -128 1133 580 
Q 1338 1288 1338 2009 
Q 1338 2731 1133 3434 
Q 928 4138 513 4856 
z
" transform="scale(0.015625)"/>
      </defs>
      <use xlink:href="#DejaVuSans-50"/>
      <use xlink:href="#DejaVuSans-6f" x="56.677734"/>
      <use xlink:href="#DejaVuSans-73" x="117.859375"/>
      <use xlink:href="#DejaVuSans-69" x="169.958984"/>
      <use xlink:href="#DejaVuSans-74" x="197.742188"/>
      <use xlink:href="#DejaVuSans-69" x="236.951172"/>
      <use xlink:href="#DejaVuSans-6f" x="264.734375"/>
      <use xlink:href="#DejaVuSans-6e" x="325.916016"/>
      <use xlink:href="#DejaVuSans-20" x="389.294922"/>
      <use xlink:href="#DejaVuSans-28" x="421.082031"/>
      <use xlink:href="#DejaVuSans-3bc" x="460.095703"/>
      <use xlink:href="#DejaVuSans-6d" x="523.71875"/>
      <use xlink:href="#DejaVuSans-29" x="621.130859"/>
     </g>
    </g>
   </g>
   <g id="matplotlib.axis_2">
    <g id="ytick_1">
     <g id="line2d_15">
      <path d="M 70.954688 242.8992 
L 428.074687 242.8992 
" clip-path="url(#p037ef65ab7)" style="fill: none; stroke: #b0b0b0; stroke-width: 0.8; stroke-linecap: square"/>
     </g>
     <g id="line2d_16">
      <defs>
       <path id="m6f3f5b6aff" d="M 0 0 
L -3.5 0 
" style="stroke: #000000; stroke-width: 0.8"/>
      </defs>
      <g>
       <use xlink:href="#m6f3f5b6aff" x="70.954688" y="242.8992" style="stroke: #000000; stroke-width: 0.8"/>
      </g>
     </g>
     <g id="text_9">
      <!-- 2.5 -->
      <g transform="translate(40.1 248.598028)scale(0.15 -0.15)">
       <defs>
        <path id="DejaVuSans-2e" d="M 684 794 
L 1344 794 
L 1344 0 
L 684 0 
L 684 794 
z
" transform="scale(0.015625)"/>
       </defs>
       <use xlink:href="#DejaVuSans-32"/>
       <use xlink:href="#DejaVuSans-2e" x="63.623047"/>
       <use xlink:href="#DejaVuSans-35" x="95.410156"/>
      </g>
     </g>
    </g>
    <g id="ytick_2">
     <g id="line2d_17">
      <path d="M 70.954688 204.8832 
L 428.074687 204.8832 
" clip-path="url(#p037ef65ab7)" style="fill: none; stroke: #b0b0b0; stroke-width: 0.8; stroke-linecap: square"/>
     </g>
     <g id="line2d_18">
      <g>
       <use xlink:href="#m6f3f5b6aff" x="70.954688" y="204.8832" style="stroke: #000000; stroke-width: 0.8"/>
      </g>
     </g>
     <g id="text_10">
      <!-- 5.0 -->
      <g transform="translate(40.1 210.582028)scale(0.15 -0.15)">
       <use xlink:href="#DejaVuSans-35"/>
       <use xlink:href="#DejaVuSans-2e" x="63.623047"/>
       <use xlink:href="#DejaVuSans-30" x="95.410156"/>
      </g>
     </g>
    </g>
    <g id="ytick_3">
     <g id="line2d_19">
      <path d="M 70.954688 166.8672 
L 428.074687 166.8672 
" clip-path="url(#p037ef65ab7)" style="fill: none; stroke: #b0b0b0; stroke-width: 0.8; stroke-linecap: square"/>
     </g>
     <g id="line2d_20">
      <g>
       <use xlink:href="#m6f3f5b6aff" x="70.954688" y="166.8672" style="stroke: #000000; stroke-width: 0.8"/>
      </g>
     </g>
     <g id="text_11">
      <!-- 7.5 -->
      <g transform="translate(40.1 172.566028)scale(0.15 -0.15)">
       <defs>
        <path id="DejaVuSans-37" d="M 525 4666 
L 3525 4666 
L 3525 4397 
L 1831 0 
L 1172 0 
L 2766 4134 
L 525 4134 
L 525 4666 
z
" transform="scale(0.015625)"/>
       </defs>
       <use xlink:href="#DejaVuSans-37"/>
       <use xlink:href="#DejaVuSans-2e" x="63.623047"/>
       <use xlink:href="#DejaVuSans-35" x="95.410156"/>
      </g>
     </g>
    </g>
    <g id="ytick_4">
     <g id="line2d_21">
      <path d="M 70.954688 128.8512 
L 428.074687 128.8512 
" clip-path="url(#p037ef65ab7)" style="fill: none; stroke: #b0b0b0; stroke-width: 0.8; stroke-linecap: square"/>
     </g>
     <g id="line2d_22">
      <g>
       <use xlink:href="#m6f3f5b6aff" x="70.954688" y="128.8512" style="stroke: #000000; stroke-width: 0.8"/>
      </g>
     </g>
     <g id="text_12">
      <!-- 10.0 -->
      <g transform="translate(30.55625 134.550028)scale(0.15 -0.15)">
       <use xlink:href="#DejaVuSans-31"/>
       <use xlink:href="#DejaVuSans-30" x="63.623047"/>
       <use xlink:href="#DejaVuSans-2e" x="127.246094"/>
       <use xlink:href="#DejaVuSans-30" x="159.033203"/>
      </g>
     </g>
    </g>
    <g id="ytick_5">
     <g id="line2d_23">
      <path d="M 70.954688 90.8352 
L 428.074687 90.8352 
" clip-path="url(#p037ef65ab7)" style="fill: none; stroke: #b0b0b0; stroke-width: 0.8; stroke-linecap: square"/>
     </g>
     <g id="line2d_24">
      <g>
       <use xlink:href="#m6f3f5b6aff" x="70.954688" y="90.8352" style="stroke: #000000; stroke-width: 0.8"/>
      </g>
     </g>
     <g id="text_13">
      <!-- 12.5 -->
      <g transform="translate(30.55625 96.534028)scale(0.15 -0.15)">
       <use xlink:href="#DejaVuSans-31"/>
       <use xlink:href="#DejaVuSans-32" x="63.623047"/>
       <use xlink:href="#DejaVuSans-2e" x="127.246094"/>
       <use xlink:href="#DejaVuSans-35" x="159.033203"/>
      </g>
     </g>
    </g>
    <g id="ytick_6">
     <g id="line2d_25">
      <path d="M 70.954688 52.8192 
L 428.074687 52.8192 
" clip-path="url(#p037ef65ab7)" style="fill: none; stroke: #b0b0b0; stroke-width: 0.8; stroke-linecap: square"/>
     </g>
     <g id="line2d_26">
      <g>
       <use xlink:href="#m6f3f5b6aff" x="70.954688" y="52.8192" style="stroke: #000000; stroke-width: 0.8"/>
      </g>
     </g>
     <g id="text_14">
      <!-- 15.0 -->
      <g transform="translate(30.55625 58.518028)scale(0.15 -0.15)">
       <use xlink:href="#DejaVuSans-31"/>
       <use xlink:href="#DejaVuSans-35" x="63.623047"/>
       <use xlink:href="#DejaVuSans-2e" x="127.246094"/>
       <use xlink:href="#DejaVuSans-30" x="159.033203"/>
      </g>
     </g>
    </g>
    <g id="ytick_7">
     <g id="line2d_27">
      <path d="M 70.954688 14.8032 
L 428.074687 14.8032 
" clip-path="url(#p037ef65ab7)" style="fill: none; stroke: #b0b0b0; stroke-width: 0.8; stroke-linecap: square"/>
     </g>
     <g id="line2d_28">
      <g>
       <use xlink:href="#m6f3f5b6aff" x="70.954688" y="14.8032" style="stroke: #000000; stroke-width: 0.8"/>
      </g>
     </g>
     <g id="text_15">
      <!-- 17.5 -->
      <g transform="translate(30.55625 20.502028)scale(0.15 -0.15)">
       <use xlink:href="#DejaVuSans-31"/>
       <use xlink:href="#DejaVuSans-37" x="63.623047"/>
       <use xlink:href="#DejaVuSans-2e" x="127.246094"/>
       <use xlink:href="#DejaVuSans-35" x="159.033203"/>
      </g>
     </g>
    </g>
    <g id="text_16">
     <!-- Max (V) -->
     <g transform="translate(22.396875 178.752875)rotate(-90)scale(0.2 -0.2)">
      <defs>
       <path id="DejaVuSans-4d" d="M 628 4666 
L 1569 4666 
L 2759 1491 
L 3956 4666 
L 4897 4666 
L 4897 0 
L 4281 0 
L 4281 4097 
L 3078 897 
L 2444 897 
L 1241 4097 
L 1241 0 
L 628 0 
L 628 4666 
z
" transform="scale(0.015625)"/>
       <path id="DejaVuSans-61" d="M 2194 1759 
Q 1497 1759 1228 1600 
Q 959 1441 959 1056 
Q 959 750 1161 570 
Q 1363 391 1709 391 
Q 2188 391 2477 730 
Q 2766 1069 2766 1631 
L 2766 1759 
L 2194 1759 
z
M 3341 1997 
L 3341 0 
L 2766 0 
L 2766 531 
Q 2569 213 2275 61 
Q 1981 -91 1556 -91 
Q 1019 -91 701 211 
Q 384 513 384 1019 
Q 384 1609 779 1909 
Q 1175 2209 1959 2209 
L 2766 2209 
L 2766 2266 
Q 2766 2663 2505 2880 
Q 2244 3097 1772 3097 
Q 1472 3097 1187 3025 
Q 903 2953 641 2809 
L 641 3341 
Q 956 3463 1253 3523 
Q 1550 3584 1831 3584 
Q 2591 3584 2966 3190 
Q 3341 2797 3341 1997 
z
" transform="scale(0.015625)"/>
       <path id="DejaVuSans-78" d="M 3513 3500 
L 2247 1797 
L 3578 0 
L 2900 0 
L 1881 1375 
L 863 0 
L 184 0 
L 1544 1831 
L 300 3500 
L 978 3500 
L 1906 2253 
L 2834 3500 
L 3513 3500 
z
" transform="scale(0.015625)"/>
       <path id="DejaVuSans-56" d="M 1831 0 
L 50 4666 
L 709 4666 
L 2188 738 
L 3669 4666 
L 4325 4666 
L 2547 0 
L 1831 0 
z
" transform="scale(0.015625)"/>
      </defs>
      <use xlink:href="#DejaVuSans-4d"/>
      <use xlink:href="#DejaVuSans-61" x="86.279297"/>
      <use xlink:href="#DejaVuSans-78" x="147.558594"/>
      <use xlink:href="#DejaVuSans-20" x="206.738281"/>
      <use xlink:href="#DejaVuSans-28" x="238.525391"/>
      <use xlink:href="#DejaVuSans-56" x="277.539062"/>
      <use xlink:href="#DejaVuSans-29" x="345.947266"/>
     </g>
    </g>
   </g>
   <g id="line2d_29">
    <path d="M 87.187415 180.065789 
L 87.294034 178.700464 
L 87.507271 150.008575 
L 87.827128 116.500575 
L 88.360223 90.400509 
L 88.999936 69.691164 
L 89.852887 49.588343 
L 90.385982 40.63491 
L 90.59922 38.934924 
L 90.705838 38.585062 
L 90.812457 38.669108 
L 91.025695 40.368033 
L 91.238933 42.316619 
L 91.452171 42.524995 
L 91.665409 43.513797 
L 91.878646 45.501462 
L 92.198503 51.68657 
L 92.731597 66.987543 
L 93.584549 102.922699 
L 94.863975 154.005686 
L 94.970594 156.752625 
L 95.716927 148.51042 
L 97.849305 123.146145 
L 98.169161 120.282978 
L 98.382399 117.461015 
L 98.595637 119.960988 
L 98.808875 119.996616 
L 99.128731 119.227338 
L 99.341969 120.842845 
L 99.768445 126.611887 
L 100.301539 137.719195 
L 102.114061 185.966855 
L 103.073631 165.570325 
L 104.886152 129.12372 
L 104.992771 127.625853 
L 105.09939 127.898045 
L 105.419246 131.541381 
L 105.739103 135.917236 
L 105.952341 143.576672 
L 106.05896 143.165015 
L 106.272198 142.689113 
L 106.378816 142.633876 
L 106.592054 142.907566 
L 106.805292 143.710715 
L 107.125149 145.92793 
L 107.551624 150.732821 
L 108.084719 159.390429 
L 108.93767 177.534137 
L 109.470765 188.197729 
L 109.684002 191.090764 
L 109.89724 188.312844 
L 111.603142 154.932101 
L 112.136237 149.952193 
L 112.456094 148.509412 
L 112.669331 148.190302 
L 112.77595 148.21576 
L 112.989188 148.617586 
L 113.202426 149.41739 
L 113.309045 151.045789 
L 113.522283 148.432397 
L 113.842139 147.835657 
L 113.948758 147.858048 
L 114.161996 148.27909 
L 114.481853 149.879025 
L 114.908328 153.821032 
L 115.441423 161.430477 
L 116.187755 175.906516 
L 117.040706 194.75259 
L 117.68042 183.307068 
L 118.746609 164.110328 
L 119.279703 157.709785 
L 119.706179 154.672491 
L 120.026035 153.631222 
L 120.239273 153.528133 
L 120.452511 153.734319 
L 120.665749 153.358283 
L 120.772368 153.315647 
L 120.985606 149.567789 
L 121.305462 148.894601 
L 121.412081 148.906828 
L 121.625319 149.305792 
L 121.945176 150.869 
L 122.371651 154.756851 
L 122.904746 162.291686 
L 123.651078 176.647995 
L 124.504029 195.448326 
L 125.890075 170.042587 
L 126.529788 160.771126 
L 127.062883 155.978424 
L 127.382739 154.508172 
L 127.595977 154.263915 
L 127.809215 154.227902 
L 128.129072 153.468485 
L 128.235691 153.412724 
L 128.448928 149.117033 
L 128.768785 147.906451 
L 128.982023 147.650557 
L 129.088642 147.703246 
L 129.30188 148.19157 
L 129.621736 149.932111 
L 130.048212 154.209343 
L 130.581306 162.639114 
L 131.22102 176.629613 
L 131.967352 195.27502 
L 133.566636 165.36438 
L 134.09973 158.414744 
L 134.526206 154.783009 
L 134.846062 153.325582 
L 135.699014 151.4213 
L 135.912251 151.719788 
L 136.232108 149.248576 
L 136.551965 147.199627 
L 136.765203 146.939235 
L 136.97844 147.439764 
L 137.191678 148.717903 
L 137.511535 152.085479 
L 137.93801 159.129586 
L 138.577724 174.18389 
L 139.324056 193.268327 
L 139.430675 194.164165 
L 139.537294 193.51189 
L 140.177007 182.137355 
L 141.029958 163.413408 
L 141.563053 156.554006 
L 141.88291 154.676556 
L 142.096147 154.387178 
L 142.202766 154.526933 
L 142.309385 154.852007 
L 142.735861 154.362185 
L 143.055718 153.60234 
L 143.162336 153.538113 
L 143.375574 153.852669 
L 143.695431 154.933941 
L 144.015288 153.162594 
L 144.228525 152.848738 
L 144.335144 152.965708 
L 144.548382 153.760784 
L 144.868239 156.363337 
L 145.294714 162.368966 
L 145.827809 173.412989 
L 146.787379 195.061353 
L 146.893998 195.669649 
L 147.000617 195.138244 
L 147.64033 183.29897 
L 148.386662 166.521608 
L 148.919757 158.917683 
L 149.239614 156.53766 
L 149.452851 155.908204 
L 149.55947 155.880046 
L 149.879327 156.393517 
L 149.985946 156.276499 
L 150.412421 154.638684 
L 150.625659 154.363088 
L 150.838897 154.661745 
L 151.158754 155.81131 
L 151.371992 154.874349 
L 151.585229 154.185882 
L 151.691848 154.112989 
L 151.798467 154.225539 
L 152.011705 155.017501 
L 152.331562 157.62842 
L 152.758037 163.661577 
L 153.291132 174.749574 
L 154.250702 195.87904 
L 154.357321 196.296597 
L 154.46394 195.977606 
L 155.210272 182.60748 
L 155.956604 166.757689 
L 156.489699 160.042469 
L 156.809555 158.231801 
L 157.022793 157.978845 
L 157.236031 158.119356 
L 157.982363 155.181957 
L 158.088982 155.087805 
L 158.30222 155.425186 
L 158.622077 156.617179 
L 158.728696 157.186565 
L 159.048552 156.001371 
L 159.155171 155.95025 
L 159.26179 156.086994 
L 159.475028 156.932243 
L 159.794885 159.631832 
L 160.22136 165.793009 
L 160.754455 177.026486 
L 161.500787 193.452761 
L 161.820644 197.199319 
L 161.927263 197.059191 
L 162.780214 181.779867 
L 163.419927 168.573771 
L 163.953022 161.859281 
L 164.272878 160.045296 
L 164.486116 159.789284 
L 164.592735 159.943587 
L 164.805973 158.782399 
L 165.232448 156.752881 
L 165.552305 156.169904 
L 165.765543 156.522699 
L 166.0854 157.734366 
L 166.405256 159.060993 
L 166.618494 158.773396 
L 166.725113 158.906519 
L 166.938351 159.738165 
L 167.258207 162.40127 
L 167.684683 168.481422 
L 168.217778 179.571211 
L 168.857491 192.736143 
L 169.283966 198.01614 
L 169.390585 198.009863 
L 170.350155 181.22466 
L 170.989869 168.928106 
L 171.416344 163.913657 
L 171.736201 162.081271 
L 172.056058 161.375087 
L 172.589152 158.179975 
L 172.909009 157.304953 
L 173.015628 157.195404 
L 173.228866 157.565272 
L 173.548722 158.798436 
L 173.975198 161.477177 
L 174.081817 161.426866 
L 174.188436 161.560847 
L 174.401674 162.388786 
L 174.72153 165.031229 
L 175.148006 171.054844 
L 175.6811 182.027821 
L 176.107576 190.283738 
L 176.64067 198.82179 
L 176.853908 198.845422 
L 177.600241 187.033322 
L 178.026716 178.654443 
L 178.559811 169.523655 
L 178.986286 165.233043 
L 180.265713 158.526352 
L 180.478951 158.19914 
L 180.692189 158.58453 
L 181.012045 159.837443 
L 181.438521 162.708029 
L 181.651759 164.133711 
L 181.864997 164.932589 
L 182.184853 167.53802 
L 182.611329 173.518694 
L 184.103993 199.625674 
L 184.317231 199.647868 
L 184.743707 193.174531 
L 186.449609 167.312621 
L 186.876085 164.33091 
L 187.409179 160.671877 
L 187.729036 159.488331 
L 187.942274 159.147215 
L 188.155512 159.549948 
L 188.475368 160.827623 
L 188.901844 163.72613 
L 189.861414 172.734387 
L 190.394508 182.140245 
L 191.567316 200.460135 
L 191.780554 200.48352 
L 191.993792 197.661012 
L 193.699694 171.334532 
L 194.765883 162.242946 
L 195.192359 160.46369 
L 195.405597 160.106835 
L 195.618834 160.526246 
L 195.938691 161.827422 
L 196.365167 164.752148 
L 196.898261 170.10847 
L 197.644593 180.049496 
L 199.137258 201.349982 
L 199.243877 201.344727 
L 199.457115 198.742023 
L 201.056398 174.62485 
L 201.80273 166.449684 
L 202.335825 162.737112 
L 202.762301 161.283839 
L 202.868919 161.145141 
L 203.082157 161.584272 
L 203.402014 162.912782 
L 203.82849 165.870491 
L 204.361584 171.261696 
L 205.107916 181.237361 
L 206.600581 202.333497 
L 206.7072 202.330775 
L 206.813819 201.644512 
L 208.519721 175.826887 
L 209.266053 167.624142 
L 209.799148 163.883793 
L 210.225623 162.405877 
L 210.332242 162.259522 
L 210.54548 162.71707 
L 210.865337 164.075801 
L 211.291812 167.071867 
L 211.824907 172.503034 
L 212.571239 182.518459 
L 214.063904 203.366832 
L 214.170523 203.363642 
L 214.277142 202.829616 
L 215.983044 176.832103 
L 216.729376 168.666138 
L 217.262471 164.926376 
L 217.688946 163.43281 
L 217.795565 163.279674 
L 218.008803 163.75671 
L 218.32866 165.133945 
L 218.755135 168.138521 
L 219.28823 173.553324 
L 220.141181 185.047637 
L 221.420608 203.508343 
L 221.633846 203.506934 
L 221.740464 202.982074 
L 223.446367 177.098492 
L 224.192699 168.728846 
L 224.725794 164.836639 
L 225.152269 163.21931 
L 225.258888 163.057058 
L 225.472126 163.50214 
L 225.791983 164.846856 
L 226.218458 167.794061 
L 226.751553 173.142338 
L 227.497885 182.983756 
L 228.883931 202.932356 
L 229.097168 202.883116 
L 229.203787 202.697045 
L 230.589833 177.938459 
L 231.122928 168.930896 
L 231.549403 164.79948 
L 231.86926 163.62598 
L 231.975879 163.313409 
L 232.508973 159.908708 
L 232.82883 159.02928 
L 232.935449 159.053126 
L 233.148687 159.493682 
L 233.468543 161.105224 
L 234.108257 166.499852 
L 234.74797 174.088261 
L 236.66711 199.502894 
L 236.773729 199.352165 
L 236.880348 198.589921 
L 237.520061 185.986126 
L 238.373013 164.972359 
L 238.906107 156.910937 
L 239.225964 154.473364 
L 239.439202 153.891269 
L 239.545821 153.910065 
L 239.759058 154.550152 
L 240.078915 156.723421 
L 240.292153 155.568471 
L 240.505391 155.357007 
L 240.718628 155.691329 
L 241.038485 157.176522 
L 241.464961 160.779378 
L 242.104674 168.660112 
L 244.237052 196.99987 
L 244.45029 199.301153 
L 244.556909 198.809289 
L 244.876765 192.442971 
L 245.836336 167.959739 
L 246.36943 159.146536 
L 246.795906 155.629309 
L 247.009143 154.571713 
L 247.115762 154.633205 
L 247.329 155.368349 
L 247.755476 158.092859 
L 247.968713 157.622621 
L 248.075332 157.598209 
L 248.28857 157.979761 
L 248.608427 159.568692 
L 249.034902 163.357881 
L 249.674616 171.565905 
L 251.700375 199.43591 
L 251.913613 201.074915 
L 252.020232 200.591221 
L 252.553326 190.090537 
L 253.406277 169.244223 
L 253.939372 161.168029 
L 254.15261 158.814751 
L 254.259228 160.250598 
L 254.472466 159.629836 
L 254.579085 159.622555 
L 254.685704 159.813891 
L 254.792323 159.68158 
L 255.218799 157.010687 
L 255.432036 156.538296 
L 255.538655 156.527622 
L 255.751893 156.954993 
L 256.07175 158.672511 
L 256.498225 162.714218 
L 257.137939 171.373727 
L 258.737222 194.34959 
L 259.270317 193.97985 
L 259.483554 193.834404 
L 259.696792 193.098329 
L 261.402695 162.692256 
L 261.509314 162.738204 
L 261.935789 157.212724 
L 262.468884 152.65778 
L 262.682121 151.995551 
L 262.78874 151.92682 
L 262.895359 152.01814 
L 263.108597 152.676864 
L 263.428454 154.800746 
L 264.068167 161.613892 
L 264.707881 171.088342 
L 265.880688 189.547894 
L 266.093926 189.463667 
L 266.413783 189.118311 
L 266.73364 189.212445 
L 266.946877 189.345208 
L 267.160115 188.764436 
L 267.266734 188.075514 
L 268.65278 162.635645 
L 269.399112 152.977441 
L 269.932207 148.913469 
L 270.038825 148.56134 
L 270.145444 148.628782 
L 270.358682 149.260143 
L 270.785158 151.922432 
L 271.211633 156.196309 
L 271.851347 165.32437 
L 272.810917 183.199052 
L 273.024155 186.913009 
L 273.237392 187.201511 
L 273.45063 187.174465 
L 273.770487 186.576857 
L 273.877106 186.657643 
L 273.983725 186.766754 
L 274.196962 187.671744 
L 274.4102 187.383411 
L 274.623438 186.786177 
L 276.755816 150.691964 
L 277.288911 146.328043 
L 277.502148 145.346404 
L 277.715386 145.870464 
L 278.035243 147.596266 
L 278.461718 151.436974 
L 278.994813 158.431873 
L 279.741145 171.356222 
L 280.487477 185.437586 
L 280.700715 185.763532 
L 280.807334 185.804958 
L 281.020572 185.486124 
L 281.23381 185.103641 
L 281.660285 185.803269 
L 281.873523 185.634401 
L 282.086761 185.151911 
L 282.299999 181.750614 
L 283.472807 159.955076 
L 284.219139 149.844922 
L 284.752233 145.71359 
L 284.965471 144.998 
L 285.285328 146.321286 
L 285.711803 149.64661 
L 286.244898 156.085653 
L 286.99123 168.490044 
L 288.057419 186.642276 
L 288.270657 186.859122 
L 288.697133 186.248831 
L 289.123608 186.950077 
L 289.336846 186.794101 
L 289.550084 186.332582 
L 289.656703 185.647966 
L 290.93613 162.424481 
L 291.682462 152.366292 
L 292.108937 148.926685 
L 292.428794 147.99166 
L 292.642032 148.702205 
L 292.961889 150.655737 
L 293.388364 154.713899 
L 294.028078 163.507697 
L 294.881029 178.832993 
L 295.414123 187.193998 
L 295.627361 187.38989 
L 296.160456 186.7275 
L 296.69355 187.562557 
L 296.906788 187.347997 
L 297.120026 186.83991 
L 297.439882 181.663838 
L 298.719309 160.251501 
L 299.252404 154.183236 
L 299.57226 152.203322 
L 299.785498 151.672412 
L 299.998736 153.618547 
L 300.318593 155.180178 
L 301.064925 160.706996 
L 301.598019 168.145609 
L 302.344352 182.667942 
L 302.664208 188.129516 
L 303.090684 187.483173 
L 303.51716 187.230108 
L 304.156873 188.708401 
L 304.370111 188.754748 
L 304.583348 188.510588 
L 304.796586 185.525747 
L 306.076013 164.813668 
L 306.609108 159.367912 
L 307.248821 155.554772 
L 307.35544 155.732984 
L 307.568678 155.438669 
L 307.675297 155.497771 
L 307.888534 156.035545 
L 308.208391 157.889298 
L 308.634867 162.231677 
L 309.167961 170.269629 
L 310.127531 188.650315 
L 310.23415 188.472466 
L 310.554007 188.182793 
L 310.767245 188.418552 
L 310.980482 188.603671 
L 311.406958 189.402772 
L 311.513577 189.655017 
L 311.726815 189.565719 
L 311.940052 189.391206 
L 312.15329 186.801725 
L 313.326098 167.46146 
L 314.07243 158.723985 
L 314.498906 155.84932 
L 314.712144 155.128689 
L 314.925382 155.865504 
L 315.138619 156.277651 
L 315.458476 157.894472 
L 315.884952 161.726902 
L 316.418046 168.902453 
L 317.484235 187.453032 
L 317.590854 189.373988 
L 317.697473 189.317511 
L 318.230567 188.843312 
L 318.443805 188.973178 
L 318.763662 189.717764 
L 319.083519 190.367774 
L 319.296756 189.946642 
L 319.723232 188.320415 
L 320.256327 179.433789 
L 321.109278 167.029607 
L 321.642372 160.926406 
L 322.068848 158.503537 
L 322.175467 158.284323 
L 322.282086 159.661604 
L 322.388705 158.307491 
L 322.708561 160.151026 
L 323.135037 163.94251 
L 323.77475 172.029384 
L 324.73432 187.888364 
L 324.947558 190.919084 
L 325.160796 191.40784 
L 325.267415 191.39142 
L 325.480653 191.099015 
L 325.587271 191.259847 
L 326.013747 191.085849 
L 326.440223 192.098203 
L 326.546842 191.885861 
L 326.760079 191.943764 
L 326.973317 191.728149 
L 327.293174 190.79913 
L 329.105695 164.924477 
L 329.212314 163.960806 
L 329.318933 164.006184 
L 329.532171 162.935626 
L 329.63879 162.874374 
L 329.745409 163.064994 
L 329.852027 162.408777 
L 330.065265 163.130889 
L 330.385122 165.037939 
L 330.704979 168.102677 
L 331.344692 176.835142 
L 332.410881 191.895093 
L 332.730738 192.464852 
L 332.943975 192.795681 
L 333.157213 193.298165 
L 333.47707 193.589588 
L 333.796927 193.158468 
L 334.223402 192.466883 
L 334.543259 191.448585 
L 334.649878 190.938676 
L 334.969735 185.995775 
L 336.249161 165.562157 
L 336.888875 158.468733 
L 337.208731 156.659554 
L 337.31535 156.477326 
L 337.635207 157.729166 
L 338.061683 161.028331 
L 338.594777 167.318255 
L 339.447728 180.648643 
L 339.980823 188.867176 
L 340.194061 189.751555 
L 340.513917 190.09577 
L 340.727155 190.126227 
L 341.153631 189.859107 
L 341.473487 189.400781 
L 341.686725 188.836387 
L 342.006582 186.305323 
L 343.819103 152.319375 
L 344.13896 148.338218 
L 344.458816 147.10144 
L 344.672054 143.955309 
L 344.778673 144.231155 
L 345.09853 147.297861 
L 345.525005 150.636659 
L 345.951481 155.994308 
L 346.697813 168.992465 
L 347.657383 186.53116 
L 347.97724 187.245822 
L 348.190478 186.901677 
L 348.510335 185.806227 
L 348.830191 184.405176 
L 349.150048 182.374529 
L 349.469905 175.080943 
L 351.708902 111.642904 
L 351.81552 110.328299 
L 351.922139 110.591558 
L 352.135377 128.652254 
L 352.348615 126.763914 
L 352.668472 119.149519 
L 352.775091 119.768062 
L 352.988328 125.239784 
L 353.308185 133.562403 
L 353.947898 142.465463 
L 354.054517 138.968286 
L 355.333944 165.841374 
L 355.547182 177.389838 
L 355.867039 183.931033 
L 355.973657 179.071027 
L 356.186895 181.970875 
L 356.506752 182.753309 
L 356.71999 182.730221 
L 356.933228 182.405337 
L 357.146465 179.087806 
L 357.999417 164.705081 
L 359.172224 146.625253 
L 359.278843 147.50989 
L 359.385462 151.720079 
L 359.918557 145.254908 
L 360.238413 137.887712 
L 360.878127 125.17854 
L 361.304602 120.201226 
L 361.624459 118.272195 
L 361.731078 118.008744 
L 361.944316 119.317751 
L 362.264172 122.556311 
L 362.47741 123.228201 
L 362.690648 123.271082 
L 363.010505 121.926194 
L 363.330361 119.888032 
L 363.43698 119.768493 
L 364.39655 126.026158 
L 364.609788 124.558092 
L 364.929645 122.458694 
L 365.142883 122.129895 
L 365.356121 122.64516 
L 365.569358 123.972834 
L 365.889215 127.420138 
L 366.528928 142.440552 
L 366.848785 153.039912 
L 367.062023 159.820024 
L 367.275261 160.400439 
L 367.488499 158.267885 
L 367.595117 158.976147 
L 368.874544 182.846298 
L 368.981163 182.051797 
L 369.620876 191.973035 
L 369.940733 193.534437 
L 370.473828 194.55738 
L 370.580447 194.469613 
L 370.793684 192.555539 
L 371.113541 185.389004 
L 373.1393 150.646234 
L 373.672395 146.245379 
L 373.992251 144.887869 
L 374.09887 145.122111 
L 374.312108 145.024825 
L 374.525346 145.519899 
L 374.631965 145.941386 
L 374.951821 150.647281 
L 376.551105 181.116576 
L 376.97758 187.705146 
L 377.404056 189.861026 
L 377.723913 190.673036 
L 377.830532 190.117243 
L 378.150388 190.901089 
L 378.257007 190.976437 
L 378.363626 190.878694 
L 378.683483 191.369413 
L 378.896721 191.349587 
L 379.216577 191.039516 
L 379.323196 190.668064 
L 379.643053 186.426023 
L 381.029099 165.860129 
L 381.562193 160.49011 
L 381.988669 158.372821 
L 382.201906 159.300437 
L 382.628382 163.095943 
L 383.161477 169.91252 
L 384.654141 190.655696 
L 384.973998 191.383993 
L 385.187236 191.534486 
L 385.507092 193.424863 
L 385.72033 194.108549 
L 385.933568 193.855387 
L 386.253425 193.837576 
L 386.466662 193.96044 
L 386.786519 193.781588 
L 386.999757 193.82136 
L 387.212995 191.667332 
L 387.63947 186.952939 
L 388.385803 179.123622 
L 389.451992 171.239705 
L 389.55861 173.240042 
L 389.878467 172.601037 
L 389.985086 173.470123 
L 390.198324 172.355707 
L 390.411562 172.229064 
L 390.518181 173.071114 
L 390.624799 173.035072 
L 390.731418 173.012413 
L 390.944656 172.30439 
L 391.051275 173.026794 
L 391.157894 173.00594 
L 391.371132 172.484979 
L 391.477751 172.801597 
L 391.690988 171.608995 
L 391.904226 170.920495 
L 392.010845 171.130801 
L 392.330702 169.889046 
L 392.437321 168.986049 
L 392.54394 169.002293 
L 392.650559 168.575009 
L 392.863796 166.143631 
L 393.077034 165.587108 
L 393.183653 164.27621 
L 393.290272 166.458371 
L 394.782936 161.920367 
L 395.316031 160.530137 
L 395.42265 160.739703 
L 395.529269 160.596765 
L 395.742507 160.074795 
L 396.062363 159.800484 
L 396.275601 159.837455 
L 396.595458 159.845543 
L 396.702077 159.60481 
L 396.915314 159.739686 
L 397.021933 160.206807 
L 397.235171 160.001277 
L 397.448409 159.956809 
L 398.727836 154.813468 
L 399.26093 150.702555 
L 399.474168 150.340446 
L 399.580787 150.254279 
L 399.687406 150.343158 
L 399.794025 150.604408 
L 400.007263 152.627426 
L 400.2205 155.809656 
L 400.966833 166.455215 
L 401.819784 182.131961 
L 402.459497 193.820612 
L 402.566116 194.380648 
L 404.1654 213.710623 
L 404.272018 213.416737 
L 404.378637 212.545878 
L 405.338207 191.877515 
L 405.444826 169.266578 
L 405.871302 183.648661 
L 405.977921 182.47778 
L 406.08454 183.309185 
L 406.297778 182.196583 
L 406.511015 181.068603 
L 406.617634 181.426936 
L 406.830872 183.856217 
L 407.04411 189.887877 
L 407.470585 206.463849 
L 407.683823 207.178736 
L 407.897061 208.042184 
L 408.323537 211.472878 
L 408.750012 215.868519 
L 409.816201 224.451032 
L 410.349296 231.137011 
L 410.775771 236.599866 
L 411.095628 235.132639 
L 411.522104 232.303985 
L 411.735341 230.078071 
L 411.84196 210.428778 
L 411.84196 210.428778 
" clip-path="url(#p037ef65ab7)" style="fill: none; stroke: #1f77b4; stroke-width: 1.5; stroke-linecap: square"/>
   </g>
   <g id="line2d_30">
    <path d="M 87.187415 42.025945 
L 87.400653 37.200303 
L 87.507271 37.200303 
L 87.720509 50.008313 
L 88.146985 92.421965 
L 89.746268 49.232471 
L 90.385982 39.442076 
L 90.705838 37.221787 
L 91.025695 37.200305 
L 91.132314 37.673076 
L 91.238933 38.75013 
L 91.345552 38.617105 
L 91.452171 38.899032 
L 91.665409 40.598864 
L 91.985265 45.381356 
L 92.411741 55.154683 
L 93.051454 76.159285 
L 94.011024 117.641841 
L 94.4375 133.343116 
L 94.544119 121.122058 
L 95.290451 147.968989 
L 95.39707 149.484681 
L 95.823546 145.485455 
L 96.35664 139.017113 
L 96.783116 133.646113 
L 97.529448 124.757178 
L 98.382399 116.71529 
L 98.595637 116.533354 
L 99.022112 116.533354 
L 99.128731 116.735678 
L 99.341969 117.943801 
L 99.661826 120.935848 
L 99.981683 125.982593 
L 100.834634 145.539071 
L 101.580966 166.763799 
L 101.900823 174.082238 
L 102.114061 174.573694 
L 102.540536 168.860658 
L 103.926582 136.755685 
L 104.246439 132.448447 
L 104.886152 126.651451 
L 105.09939 125.732067 
L 105.206009 125.664041 
L 105.312627 125.736536 
L 105.419246 125.664045 
L 105.525865 126.19447 
L 105.632484 127.325374 
L 106.272198 141.706652 
L 106.378816 142.004444 
L 106.485435 141.957075 
L 106.698673 142.248057 
L 106.911911 143.080868 
L 107.231768 145.279821 
L 107.658243 150.098035 
L 108.191338 158.945447 
L 109.150908 176.328936 
L 109.364146 177.545472 
L 109.470765 176.659829 
L 109.577383 177.992261 
L 109.790621 183.750892 
L 109.89724 183.385946 
L 111.389905 154.151393 
L 111.81638 148.311278 
L 112.029618 147.328175 
L 112.242856 147.528306 
L 112.456094 147.758536 
L 112.882569 147.333677 
L 113.095807 147.340017 
L 113.309045 147.328178 
L 113.415664 147.729488 
L 113.948758 147.328172 
L 114.161996 147.346253 
L 114.375234 147.814954 
L 114.588472 148.944957 
L 114.908328 152.047997 
L 115.867898 163.895108 
L 116.72085 179.124746 
L 117.147325 185.223171 
L 117.360563 183.288424 
L 117.68042 178.683812 
L 118.533371 165.355051 
L 119.59956 152.38293 
L 119.812798 151.715563 
L 120.026035 151.639011 
L 120.878987 148.551359 
L 121.198843 148.160935 
L 121.625319 148.180833 
L 121.838557 148.676909 
L 122.051795 149.867831 
L 122.904746 157.709393 
L 123.43784 165.597654 
L 124.184172 180.434858 
L 124.39741 184.331919 
L 124.504029 184.781371 
L 124.717267 183.494337 
L 125.35698 175.198222 
L 126.103313 163.534838 
L 126.743026 156.29146 
L 127.062883 154.883848 
L 127.169502 154.736245 
L 127.595977 151.778581 
L 128.129072 148.222897 
L 128.448928 147.386836 
L 128.768785 147.397528 
L 128.982023 147.541629 
L 129.195261 147.351994 
L 129.408499 147.746694 
L 129.621736 148.828235 
L 130.474687 156.428219 
L 131.327639 171.545397 
L 131.967352 183.61257 
L 132.073971 182.65009 
L 132.287209 178.911422 
L 132.713684 174.071793 
L 133.460017 160.45829 
L 134.09973 152.821731 
L 134.419587 151.754878 
L 134.526206 151.640198 
L 134.632825 151.702271 
L 134.846062 152.299123 
L 135.272538 150.986405 
L 135.912251 148.292993 
L 136.125489 148.122806 
L 136.232108 148.184364 
L 136.551965 146.683415 
L 136.765203 146.320444 
L 136.97844 146.400192 
L 137.191678 147.122794 
L 137.511535 149.564274 
L 138.044629 156.909925 
L 138.684343 169.958242 
L 139.217437 180.996328 
L 139.430675 182.415934 
L 139.963769 178.024601 
L 141.243196 155.982378 
L 141.563053 153.17232 
L 141.88291 151.987395 
L 141.989529 151.93071 
L 142.202766 152.310158 
L 142.309385 152.477519 
L 142.629242 151.930709 
L 142.84248 152.034682 
L 143.055718 152.313009 
L 143.375574 152.289161 
L 143.908669 152.929088 
L 144.228525 151.98132 
L 144.335144 151.930711 
L 144.441763 152.044687 
L 144.655001 152.838421 
L 144.868239 154.20453 
L 145.401333 161.224551 
L 145.934428 170.901672 
L 146.467522 182.026141 
L 146.893998 185.209577 
L 147.427092 180.608327 
L 147.64033 176.816913 
L 148.280044 164.242684 
L 148.919757 156.053428 
L 149.239614 154.326131 
L 149.452851 154.182056 
L 149.666089 154.684711 
L 149.772708 155.148781 
L 150.199184 154.539522 
L 150.305803 154.593772 
L 150.625659 153.800711 
L 150.838897 153.553372 
L 151.158754 153.626222 
L 151.47861 154.201378 
L 151.691848 153.617485 
L 151.905086 153.613205 
L 152.118324 154.294749 
L 152.331562 155.85685 
L 152.971275 163.890574 
L 153.50437 174.26036 
L 153.930845 181.946871 
L 154.357321 185.523021 
L 154.46394 185.170848 
L 155.103653 179.424673 
L 156.169842 161.379469 
L 156.489699 158.116169 
L 156.809555 156.960507 
L 156.916174 156.943064 
L 157.129412 157.381184 
L 157.449269 156.322988 
L 157.662507 155.886159 
L 157.982363 155.062613 
L 158.088982 154.972829 
L 158.195601 155.054791 
L 158.515458 155.655197 
L 158.728696 155.981269 
L 158.835314 156.284864 
L 159.26179 155.229575 
L 159.368409 155.298542 
L 159.581647 155.973567 
L 159.794885 157.490018 
L 160.327979 163.910569 
L 160.861074 173.629726 
L 161.18093 179.60972 
L 161.820644 185.217856 
L 161.927263 184.977952 
L 162.566976 179.359113 
L 162.780214 176.697019 
L 163.313308 167.121305 
L 163.846403 161.106718 
L 164.166259 159.303528 
L 164.379497 159.085449 
L 164.486116 159.217319 
L 164.592735 159.139922 
L 165.339067 156.353085 
L 165.552305 156.060469 
L 165.658924 156.156628 
L 165.978781 157.158048 
L 166.298637 158.207473 
L 166.405256 158.618746 
L 166.831732 158.352107 
L 167.04497 159.095543 
L 167.258207 160.666102 
L 167.791302 167.335675 
L 168.96411 184.527808 
L 169.283966 186.958981 
L 169.390585 186.949494 
L 170.030299 181.305027 
L 170.350155 177.305699 
L 170.88325 168.388649 
L 171.416344 162.778661 
L 171.736201 161.454269 
L 171.84282 161.384148 
L 171.949439 161.132956 
L 172.695771 157.704378 
L 173.015628 157.103572 
L 173.122247 157.198764 
L 173.442104 158.22124 
L 174.081817 161.228623 
L 174.188436 161.222739 
L 174.401674 161.72415 
L 174.614911 162.987055 
L 175.041387 167.591083 
L 175.574481 176.228935 
L 175.894338 181.270912 
L 176.64067 188.249444 
L 176.853908 188.283227 
L 177.067146 186.859282 
L 177.813478 179.461259 
L 178.986286 164.553801 
L 179.732619 160.816838 
L 180.159094 158.739065 
L 180.478951 158.105807 
L 180.58557 158.209742 
L 180.905426 159.253336 
L 181.331902 161.80933 
L 181.651759 163.917278 
L 181.864997 164.444906 
L 182.078234 165.764764 
L 182.50471 170.739265 
L 183.784137 187.527694 
L 184.103993 189.969365 
L 184.317231 190.001177 
L 184.42385 189.950412 
L 185.170182 182.846232 
L 185.596658 177.156718 
L 186.129752 169.786224 
L 186.449609 166.882809 
L 186.769466 164.903268 
L 187.835655 159.142696 
L 187.942274 159.061748 
L 188.048893 159.160089 
L 188.368749 160.242481 
L 188.795225 162.825838 
L 189.754795 171.094398 
L 191.140841 188.516653 
L 191.460697 191.383194 
L 191.780554 191.49877 
L 191.887173 191.448504 
L 192.313649 187.757229 
L 193.059981 179.907017 
L 193.699694 170.945395 
L 194.765883 162.181066 
L 195.192359 160.391774 
L 195.405597 160.032449 
L 195.512215 160.122614 
L 195.832072 161.244777 
L 196.258548 163.855167 
L 196.791642 168.876776 
L 198.92402 192.39728 
L 199.243877 192.5148 
L 199.350496 192.465384 
L 199.670353 189.898865 
L 200.736542 178.911274 
L 201.589493 168.417878 
L 202.122587 163.920044 
L 202.549063 161.763315 
L 202.868919 161.068025 
L 202.975538 161.157959 
L 203.188776 161.871512 
L 203.508633 163.476532 
L 203.935108 166.770363 
L 204.574822 173.844249 
L 205.74763 187.834518 
L 206.280724 193.198054 
L 206.600581 193.455171 
L 206.813819 193.409335 
L 206.920438 193.080014 
L 207.66677 185.639775 
L 209.799148 163.816942 
L 210.225623 162.258605 
L 210.332242 162.17904 
L 210.438861 162.279232 
L 210.652099 163.011834 
L 210.971956 164.648199 
L 211.398431 167.979727 
L 212.038145 175.094959 
L 213.210953 189.156733 
L 213.744047 194.39508 
L 214.063904 194.648192 
L 214.277142 194.592617 
L 214.38376 194.49953 
L 214.490379 193.93608 
L 214.810236 189.773965 
L 215.876425 177.969196 
L 216.622757 169.417667 
L 217.155852 165.320805 
L 217.582327 163.435462 
L 217.795565 163.129664 
L 217.902184 163.244302 
L 218.115422 163.981643 
L 218.541898 166.377876 
L 219.074992 171.119173 
L 219.821324 180.398135 
L 220.2478 185.279566 
L 221.20737 194.588548 
L 221.527227 194.771641 
L 221.740464 194.677753 
L 221.847083 194.564644 
L 221.953702 194.135254 
L 222.913272 184.062397 
L 223.233129 179.915517 
L 224.08608 169.684645 
L 224.619175 165.419898 
L 225.04565 163.367307 
L 225.258888 163.028542 
L 225.365507 163.132276 
L 225.578745 163.851104 
L 225.898602 165.447342 
L 226.325077 168.711926 
L 226.964791 175.692789 
L 228.244217 190.819286 
L 228.670693 194.715991 
L 228.883931 194.810158 
L 229.097168 194.723286 
L 229.310406 194.452589 
L 229.417025 194.014047 
L 230.163357 185.868355 
L 230.589833 177.312232 
L 231.229546 166.669939 
L 231.549403 164.07335 
L 232.402354 160.405872 
L 232.722211 159.122963 
L 232.935449 159.041944 
L 233.148687 159.487351 
L 233.468543 161.097656 
L 234.108257 166.464948 
L 234.74797 173.978118 
L 235.387683 181.572436 
L 236.134016 188.279291 
L 236.347254 189.446229 
L 236.560491 189.401231 
L 236.66711 189.306958 
L 237.093586 185.850535 
L 237.306824 183.235015 
L 238.58625 158.00176 
L 239.225964 152.939781 
L 239.332583 152.815376 
L 239.439202 152.87631 
L 239.652439 153.478389 
L 239.759058 153.989051 
L 240.185534 152.815373 
L 240.292153 153.011032 
L 240.398772 152.891657 
L 240.505391 153.056883 
L 240.718628 154.237646 
L 241.464961 160.740418 
L 242.104674 168.595938 
L 243.384101 185.144266 
L 243.917195 189.220345 
L 244.023814 188.426826 
L 244.237052 189.517978 
L 244.343671 189.498211 
L 244.556909 188.114268 
L 244.876765 182.611767 
L 246.156192 158.909111 
L 246.795906 154.279772 
L 246.902524 154.098611 
L 247.009143 153.66588 
L 247.222381 154.283473 
L 247.329 154.223748 
L 247.542238 153.753856 
L 247.648857 153.711615 
L 247.862095 154.026321 
L 248.075332 154.362401 
L 248.28857 155.531786 
L 249.141521 164.519879 
L 250.101091 177.011911 
L 250.634186 183.926668 
L 251.380518 189.716416 
L 251.806994 191.796099 
L 251.913613 191.839313 
L 252.020232 191.639139 
L 252.340088 188.905841 
L 252.659945 182.886208 
L 253.512896 165.786034 
L 254.045991 158.440104 
L 254.15261 157.421095 
L 254.259228 159.563583 
L 254.472466 159.376366 
L 254.898942 157.089573 
L 255.11218 156.681455 
L 255.325417 156.619034 
L 255.538655 156.444372 
L 255.645274 156.548782 
L 255.858512 157.299116 
L 256.178369 159.419876 
L 256.604844 163.893162 
L 257.351177 174.487705 
L 257.99089 183.158982 
L 258.737222 189.444808 
L 258.95046 190.17781 
L 259.163698 189.927907 
L 259.483554 189.166779 
L 259.91003 184.415182 
L 260.8696 171.158507 
L 261.402695 162.4152 
L 261.509314 162.567466 
L 262.042408 155.758243 
L 262.468884 152.456076 
L 262.682121 151.797458 
L 262.895359 151.800272 
L 263.108597 152.515994 
L 263.428454 154.65162 
L 264.068167 161.506092 
L 265.027737 175.395631 
L 265.880688 186.403887 
L 266.093926 187.454508 
L 266.307164 187.577101 
L 266.520402 187.50221 
L 266.840258 187.007177 
L 266.946877 186.735513 
L 267.586591 178.847278 
L 268.439542 166.055735 
L 269.292493 153.597568 
L 269.718969 149.733308 
L 270.038825 148.495716 
L 270.145444 148.470239 
L 270.358682 149.013891 
L 270.678539 151.0928 
L 271.105014 154.963614 
L 271.638109 161.951766 
L 273.024155 181.889033 
L 273.45063 186.371704 
L 273.663868 186.55325 
L 273.983725 186.422625 
L 274.196962 184.98168 
L 274.303581 184.728448 
L 274.516819 182.586509 
L 275.583008 167.813512 
L 276.969054 148.100141 
L 277.288911 145.900901 
L 277.502148 145.30113 
L 277.608767 145.30113 
L 277.822005 145.885609 
L 278.141862 148.029639 
L 278.674956 153.947006 
L 279.31467 163.524316 
L 280.061002 174.044301 
L 280.913953 184.845763 
L 281.23381 185.096701 
L 281.447048 185.035576 
L 281.660285 184.737534 
L 281.873523 182.684745 
L 282.833093 169.883579 
L 284.538996 146.553835 
L 284.858852 145.066041 
L 284.965471 144.935375 
L 285.07209 145.009716 
L 285.285328 145.745497 
L 285.605185 148.113188 
L 286.138279 154.544937 
L 286.884611 166.246961 
L 287.417706 174.725082 
L 288.270657 185.403669 
L 288.590514 185.923468 
L 288.803752 186.007658 
L 289.016989 185.881849 
L 289.123608 185.74058 
L 289.230227 185.282274 
L 290.083178 174.825824 
L 291.149367 159.172857 
L 291.789081 151.128676 
L 292.108937 148.777791 
L 292.428794 147.966321 
L 292.535413 147.966322 
L 292.748651 148.714049 
L 293.068507 150.985892 
L 293.494983 155.80343 
L 294.347934 168.658814 
L 294.77441 175.080998 
L 295.627361 185.832056 
L 295.840599 186.587687 
L 296.053837 186.739237 
L 296.373693 186.624064 
L 296.480312 186.176998 
L 297.226645 178.109081 
L 299.465641 152.263971 
L 299.678879 151.620328 
L 299.892117 151.620329 
L 299.998736 151.758965 
L 300.318593 153.582723 
L 300.958306 159.10903 
L 302.024495 172.292825 
L 302.877446 184.339447 
L 303.51716 187.048634 
L 303.623778 186.990108 
L 304.370111 183.802576 
L 304.689967 180.860709 
L 305.756156 168.771834 
L 306.715726 156.642991 
L 307.035583 155.222202 
L 307.35544 154.66426 
L 307.781915 154.720572 
L 307.995153 155.218168 
L 308.31501 157.300825 
L 309.061342 165.310344 
L 310.020912 180.337468 
L 310.340769 184.089388 
L 310.767245 186.140571 
L 311.087101 186.603633 
L 311.406958 185.497928 
L 311.940052 182.768092 
L 313.539336 162.61358 
L 314.07243 156.272985 
L 314.392287 154.157985 
L 314.605525 153.638592 
L 315.032001 153.661593 
L 315.245238 154.183799 
L 315.458476 155.210133 
L 315.884952 159.051214 
L 316.311427 165.03109 
L 317.164378 178.984992 
L 317.270997 179.117288 
L 317.910711 187.080867 
L 318.230567 188.182146 
L 318.443805 188.076616 
L 318.870281 187.532071 
L 319.509994 183.241913 
L 321.748991 158.169373 
L 322.068848 156.362637 
L 322.282086 156.150465 
L 322.388705 156.150467 
L 322.601942 157.186163 
L 323.028418 160.920153 
L 323.668131 169.317416 
L 324.840939 185.80419 
L 325.267415 187.955843 
L 325.69389 189.688702 
L 326.120366 189.641335 
L 326.440223 189.392889 
L 326.546842 189.160622 
L 327.079936 186.001343 
L 328.039506 175.308097 
L 328.67922 165.110538 
L 329.425552 155.578634 
L 329.745409 152.663326 
L 330.065265 154.337352 
L 332.197643 184.863779 
L 332.730738 188.929407 
L 333.263832 191.6266 
L 333.583689 191.529826 
L 334.010164 191.111007 
L 334.223402 190.780166 
L 334.543259 188.726464 
L 334.863116 185.347784 
L 335.39621 177.756611 
L 336.462399 161.073187 
L 336.782256 156.378719 
L 336.995494 153.664416 
L 337.208731 153.664416 
L 338.061683 159.70144 
L 338.594777 165.990525 
L 340.087442 185.649022 
L 340.727155 188.879732 
L 340.940393 188.841236 
L 341.26025 188.480569 
L 341.580106 187.843831 
L 341.899963 183.465798 
L 342.539676 171.918269 
L 343.819103 143.559224 
L 344.13896 135.36004 
L 344.245579 134.425346 
L 344.352198 135.092946 
L 344.565435 134.425346 
L 344.672054 134.425346 
L 345.205149 139.134568 
L 345.631624 145.764953 
L 347.764002 183.994195 
L 348.083859 185.361546 
L 348.297097 184.952646 
L 348.723572 183.409109 
L 349.043429 181.509071 
L 349.256667 177.74445 
L 349.576524 170.643477 
L 351.708902 102.949291 
L 351.922139 101.429902 
L 352.455234 101.429903 
L 352.561853 101.725601 
L 352.881709 105.038995 
L 354.054517 130.132042 
L 354.587612 143.283107 
L 355.973657 170.159358 
L 356.400133 176.827117 
L 356.613371 177.716186 
L 356.826609 176.922625 
L 357.146465 174.370064 
L 357.359703 171.388866 
L 358.212654 148.694033 
L 359.278843 118.742796 
L 359.385462 119.561219 
L 359.5987 123.265144 
L 359.811938 116.845314 
L 359.918557 115.800793 
L 360.025176 115.839901 
L 360.131795 115.800792 
L 360.451651 117.256009 
L 360.55827 117.113066 
L 360.878127 115.883196 
L 360.984746 115.800793 
L 361.091365 115.933273 
L 361.304602 115.809371 
L 362.050935 115.837646 
L 362.797267 116.280095 
L 363.010505 116.846987 
L 363.117124 116.832167 
L 363.330361 117.3992 
L 363.543599 117.095334 
L 363.756837 117.606832 
L 363.970075 117.095334 
L 364.183313 117.870077 
L 364.289932 117.830976 
L 364.503169 117.92326 
L 365.036264 117.095334 
L 365.462739 117.095334 
L 365.675977 117.859771 
L 365.889215 119.116975 
L 366.742166 130.591947 
L 366.848785 133.941677 
L 366.955404 133.221192 
L 367.062023 131.554119 
L 367.168642 132.358113 
L 367.275261 131.071592 
L 367.595117 138.221211 
L 368.128212 160.43622 
L 368.448069 169.410837 
L 369.087782 180.474113 
L 369.620876 185.157533 
L 369.940733 187.055229 
L 370.047352 187.232175 
L 370.473828 185.600716 
L 370.580447 184.920528 
L 371.006922 179.012671 
L 371.753254 168.464075 
L 372.819443 150.898269 
L 373.459157 143.754829 
L 374.205489 138.13984 
L 374.312108 138.435605 
L 374.525346 138.139838 
L 374.738584 138.13984 
L 375.05844 141.727015 
L 375.698154 158.031176 
L 376.444486 172.202339 
L 376.764343 175.112738 
L 377.404056 178.829128 
L 377.617294 179.537829 
L 377.723913 179.304801 
L 377.830532 178.182961 
L 378.043769 179.499602 
L 378.257007 180.012171 
L 378.683483 184.511314 
L 378.896721 185.514914 
L 379.00334 185.575728 
L 379.429815 183.189718 
L 379.856291 179.771025 
L 381.668812 157.816724 
L 381.988669 156.300131 
L 382.308525 156.300138 
L 382.521763 158.110771 
L 383.268095 167.2254 
L 383.907809 177.816998 
L 384.334284 183.183196 
L 384.654141 184.345147 
L 384.867379 184.444633 
L 385.080617 184.342062 
L 385.187236 184.215085 
L 385.507092 185.854769 
L 385.613711 185.704632 
L 385.826949 186.819571 
L 385.933568 186.869709 
L 386.146806 186.488007 
L 386.6799 184.797648 
L 386.999757 183.166411 
L 387.426233 179.937573 
L 387.63947 178.282839 
L 387.746089 178.170144 
L 387.959327 177.203227 
L 388.812278 170.220484 
L 389.025516 167.621762 
L 389.132135 167.725525 
L 389.345373 166.892889 
L 389.55861 165.556411 
L 389.878467 165.358982 
L 389.985086 167.055523 
L 390.091705 166.155958 
L 390.411562 166.468696 
L 390.624799 167.760753 
L 390.731418 167.844392 
L 390.838037 167.195863 
L 390.944656 167.361334 
L 391.157894 168.435719 
L 391.371132 167.887535 
L 391.477751 168.059461 
L 391.690988 166.53296 
L 392.117464 164.284323 
L 392.970415 158.497124 
L 393.077034 157.970415 
L 393.183653 155.263564 
L 393.290272 156.469013 
L 393.823366 155.169689 
L 393.929985 155.16605 
L 394.569699 153.827014 
L 394.782936 154.199875 
L 394.996174 154.190763 
L 395.209412 153.751315 
L 395.316031 153.55498 
L 395.42265 153.805892 
L 395.529269 153.539489 
L 395.849125 152.326419 
L 396.595458 150.346906 
L 396.915314 148.876309 
L 397.021933 149.096187 
L 397.235171 148.560894 
L 397.555028 148.291876 
L 397.661647 147.933764 
L 397.874885 148.469799 
L 398.088122 148.402038 
L 398.30136 148.006653 
L 398.407979 147.933763 
L 398.514598 148.399158 
L 398.621217 148.368023 
L 398.834455 147.933755 
L 399.154311 148.541997 
L 399.26093 148.642051 
L 399.794025 147.933727 
L 399.900644 148.28579 
L 400.2205 152.768506 
L 401.393308 173.132285 
L 402.352878 188.061227 
L 404.058781 204.959706 
L 405.338207 165.41235 
L 405.444826 161.834435 
L 405.871302 176.146028 
L 405.977921 173.74292 
L 406.08454 175.930852 
L 406.404396 172.269834 
L 407.04411 187.469458 
L 407.470585 199.862855 
L 408.216918 208.862788 
L 408.323537 209.668631 
L 408.643393 214.809122 
L 408.750012 214.90621 
L 408.96325 216.597335 
L 409.069869 215.745708 
L 409.283107 218.110093 
L 409.389726 218.7193 
L 409.92282 225.315266 
L 410.349296 229.774249 
L 410.455915 230.82926 
L 410.669152 235.358319 
L 410.775771 235.029702 
L 411.095628 233.483399 
L 411.308866 231.822644 
L 411.84196 206.895217 
L 411.84196 206.895217 
" clip-path="url(#p037ef65ab7)" style="fill: none; stroke: #ff7f0e; stroke-width: 1.5; stroke-linecap: square"/>
   </g>
   <g id="patch_3">
    <path d="M 70.954688 273.312 
L 70.954688 7.2 
" style="fill: none; stroke: #000000; stroke-width: 0.8; stroke-linejoin: miter; stroke-linecap: square"/>
   </g>
   <g id="patch_4">
    <path d="M 428.074687 273.312 
L 428.074687 7.2 
" style="fill: none; stroke: #000000; stroke-width: 0.8; stroke-linejoin: miter; stroke-linecap: square"/>
   </g>
   <g id="patch_5">
    <path d="M 70.954687 273.312 
L 428.074687 273.312 
" style="fill: none; stroke: #000000; stroke-width: 0.8; stroke-linejoin: miter; stroke-linecap: square"/>
   </g>
   <g id="patch_6">
    <path d="M 70.954687 7.2 
L 428.074687 7.2 
" style="fill: none; stroke: #000000; stroke-width: 0.8; stroke-linejoin: miter; stroke-linecap: square"/>
   </g>
   <g id="legend_1">
    <g id="patch_7">
     <path d="M 286.952813 29.878125 
L 421.074688 29.878125 
Q 423.074688 29.878125 423.074688 27.878125 
L 423.074688 14.2 
Q 423.074688 12.2 421.074688 12.2 
L 286.952813 12.2 
Q 284.952813 12.2 284.952813 14.2 
L 284.952813 27.878125 
Q 284.952813 29.878125 286.952813 29.878125 
z
" style="fill: #ffffff; opacity: 0.8; stroke: #cccccc; stroke-linejoin: miter"/>
    </g>
    <g id="line2d_31">
     <path d="M 288.952813 20.298437 
L 298.952813 20.298437 
L 308.952813 20.298437 
" style="fill: none; stroke: #1f77b4; stroke-width: 1.5; stroke-linecap: square"/>
    </g>
    <g id="text_17">
     <!-- local -->
     <g transform="translate(316.952813 23.798437)scale(0.1 -0.1)">
      <defs>
       <path id="DejaVuSans-6c" d="M 603 4863 
L 1178 4863 
L 1178 0 
L 603 0 
L 603 4863 
z
" transform="scale(0.015625)"/>
       <path id="DejaVuSans-63" d="M 3122 3366 
L 3122 2828 
Q 2878 2963 2633 3030 
Q 2388 3097 2138 3097 
Q 1578 3097 1268 2742 
Q 959 2388 959 1747 
Q 959 1106 1268 751 
Q 1578 397 2138 397 
Q 2388 397 2633 464 
Q 2878 531 3122 666 
L 3122 134 
Q 2881 22 2623 -34 
Q 2366 -91 2075 -91 
Q 1284 -91 818 406 
Q 353 903 353 1747 
Q 353 2603 823 3093 
Q 1294 3584 2113 3584 
Q 2378 3584 2631 3529 
Q 2884 3475 3122 3366 
z
" transform="scale(0.015625)"/>
      </defs>
      <use xlink:href="#DejaVuSans-6c"/>
      <use xlink:href="#DejaVuSans-6f" x="27.783203"/>
      <use xlink:href="#DejaVuSans-63" x="88.964844"/>
      <use xlink:href="#DejaVuSans-61" x="143.945312"/>
      <use xlink:href="#DejaVuSans-6c" x="205.224609"/>
     </g>
    </g>
    <g id="line2d_32">
     <path d="M 360.254375 20.298437 
L 370.254375 20.298437 
L 380.254375 20.298437 
" style="fill: none; stroke: #ff7f0e; stroke-width: 1.5; stroke-linecap: square"/>
    </g>
    <g id="text_18">
     <!-- blk 70 -->
     <g transform="translate(388.254375 23.798437)scale(0.1 -0.1)">
      <defs>
       <path id="DejaVuSans-62" d="M 3116 1747 
Q 3116 2381 2855 2742 
Q 2594 3103 2138 3103 
Q 1681 3103 1420 2742 
Q 1159 2381 1159 1747 
Q 1159 1113 1420 752 
Q 1681 391 2138 391 
Q 2594 391 2855 752 
Q 3116 1113 3116 1747 
z
M 1159 2969 
Q 1341 3281 1617 3432 
Q 1894 3584 2278 3584 
Q 2916 3584 3314 3078 
Q 3713 2572 3713 1747 
Q 3713 922 3314 415 
Q 2916 -91 2278 -91 
Q 1894 -91 1617 61 
Q 1341 213 1159 525 
L 1159 0 
L 581 0 
L 581 4863 
L 1159 4863 
L 1159 2969 
z
" transform="scale(0.015625)"/>
       <path id="DejaVuSans-6b" d="M 581 4863 
L 1159 4863 
L 1159 1991 
L 2875 3500 
L 3609 3500 
L 1753 1863 
L 3688 0 
L 2938 0 
L 1159 1709 
L 1159 0 
L 581 0 
L 581 4863 
z
" transform="scale(0.015625)"/>
      </defs>
      <use xlink:href="#DejaVuSans-62"/>
      <use xlink:href="#DejaVuSans-6c" x="63.476562"/>
      <use xlink:href="#DejaVuSans-6b" x="91.259766"/>
      <use xlink:href="#DejaVuSans-20" x="149.169922"/>
      <use xlink:href="#DejaVuSans-37" x="180.957031"/>
      <use xlink:href="#DejaVuSans-30" x="244.580078"/>
     </g>
    </g>
   </g>
  </g>
 </g>
 <defs>
  <clipPath id="p037ef65ab7">
   <rect x="70.954688" y="7.2" width="357.12" height="266.112"/>
  </clipPath>
 </defs>
</svg>
