<?xml version="1.0" encoding="utf-8" standalone="no"?>
<!DOCTYPE svg PUBLIC "-//W3C//DTD SVG 1.1//EN"
  "http://www.w3.org/Graphics/SVG/1.1/DTD/svg11.dtd">
<svg xmlns:xlink="http://www.w3.org/1999/xlink" width="435.274687pt" height="331.084266pt" viewBox="0 0 435.274687 331.084266" xmlns="http://www.w3.org/2000/svg" version="1.1">
 <defs>
  <style type="text/css">*{stroke-linejoin: round; stroke-linecap: butt}</style>
 </defs>
 <g id="figure_1">
  <g id="patch_1">
   <path d="M 0 331.084266 
L 435.274687 331.084266 
L 435.274687 0 
L 0 0 
L 0 331.084266 
z
" style="fill: none"/>
  </g>
  <g id="axes_1">
   <g id="patch_2">
    <path d="M 70.954688 279.010828 
L 428.074687 279.010828 
L 428.074687 12.898828 
L 70.954688 12.898828 
L 70.954688 279.010828 
z
" style="fill: none"/>
   </g>
   <g id="matplotlib.axis_1">
    <g id="xtick_1">
     <g id="line2d_1">
      <path d="M 91.993156 279.010828 
L 91.993156 12.898828 
" clip-path="url(#p2e4bd30c86)" style="fill: none; stroke: #b0b0b0; stroke-width: 0.8; stroke-linecap: square"/>
     </g>
     <g id="line2d_2">
      <defs>
       <path id="md39032bed2" d="M 0 0 
L 0 3.5 
" style="stroke: #000000; stroke-width: 0.8"/>
      </defs>
      <g>
       <use xlink:href="#md39032bed2" x="91.993156" y="279.010828" style="stroke: #000000; stroke-width: 0.8"/>
      </g>
     </g>
     <g id="text_1">
      <!-- −3000 -->
      <g transform="translate(66.620891 297.408484) scale(0.15 -0.15)">
       <defs>
        <path id="DejaVuSans-2212" d="M 678 2272 
L 4684 2272 
L 4684 1741 
L 678 1741 
L 678 2272 
z
" transform="scale(0.015625)"/>
        <path id="DejaVuSans-33" d="M 2597 2516 
Q 3050 2419 3304 2112 
Q 3559 1806 3559 1356 
Q 3559 666 3084 287 
Q 2609 -91 1734 -91 
Q 1441 -91 1130 -33 
Q 819 25 488 141 
L 488 750 
Q 750 597 1062 519 
Q 1375 441 1716 441 
Q 2309 441 2620 675 
Q 2931 909 2931 1356 
Q 2931 1769 2642 2001 
Q 2353 2234 1838 2234 
L 1294 2234 
L 1294 2753 
L 1863 2753 
Q 2328 2753 2575 2939 
Q 2822 3125 2822 3475 
Q 2822 3834 2567 4026 
Q 2313 4219 1838 4219 
Q 1578 4219 1281 4162 
Q 984 4106 628 3988 
L 628 4550 
Q 988 4650 1302 4700 
Q 1616 4750 1894 4750 
Q 2613 4750 3031 4423 
Q 3450 4097 3450 3541 
Q 3450 3153 3228 2886 
Q 3006 2619 2597 2516 
z
" transform="scale(0.015625)"/>
        <path id="DejaVuSans-30" d="M 2034 4250 
Q 1547 4250 1301 3770 
Q 1056 3291 1056 2328 
Q 1056 1369 1301 889 
Q 1547 409 2034 409 
Q 2525 409 2770 889 
Q 3016 1369 3016 2328 
Q 3016 3291 2770 3770 
Q 2525 4250 2034 4250 
z
M 2034 4750 
Q 2819 4750 3233 4129 
Q 3647 3509 3647 2328 
Q 3647 1150 3233 529 
Q 2819 -91 2034 -91 
Q 1250 -91 836 529 
Q 422 1150 422 2328 
Q 422 3509 836 4129 
Q 1250 4750 2034 4750 
z
" transform="scale(0.015625)"/>
       </defs>
       <use xlink:href="#DejaVuSans-2212"/>
       <use xlink:href="#DejaVuSans-33" x="83.789062"/>
       <use xlink:href="#DejaVuSans-30" x="147.412109"/>
       <use xlink:href="#DejaVuSans-30" x="211.035156"/>
       <use xlink:href="#DejaVuSans-30" x="274.658203"/>
      </g>
     </g>
    </g>
    <g id="xtick_2">
     <g id="line2d_3">
      <path d="M 145.390286 279.010828 
L 145.390286 12.898828 
" clip-path="url(#p2e4bd30c86)" style="fill: none; stroke: #b0b0b0; stroke-width: 0.8; stroke-linecap: square"/>
     </g>
     <g id="line2d_4">
      <g>
       <use xlink:href="#md39032bed2" x="145.390286" y="279.010828" style="stroke: #000000; stroke-width: 0.8"/>
      </g>
     </g>
     <g id="text_2">
      <!-- −2500 -->
      <g transform="translate(120.01802 297.408484) scale(0.15 -0.15)">
       <defs>
        <path id="DejaVuSans-32" d="M 1228 531 
L 3431 531 
L 3431 0 
L 469 0 
L 469 531 
Q 828 903 1448 1529 
Q 2069 2156 2228 2338 
Q 2531 2678 2651 2914 
Q 2772 3150 2772 3378 
Q 2772 3750 2511 3984 
Q 2250 4219 1831 4219 
Q 1534 4219 1204 4116 
Q 875 4013 500 3803 
L 500 4441 
Q 881 4594 1212 4672 
Q 1544 4750 1819 4750 
Q 2544 4750 2975 4387 
Q 3406 4025 3406 3419 
Q 3406 3131 3298 2873 
Q 3191 2616 2906 2266 
Q 2828 2175 2409 1742 
Q 1991 1309 1228 531 
z
" transform="scale(0.015625)"/>
        <path id="DejaVuSans-35" d="M 691 4666 
L 3169 4666 
L 3169 4134 
L 1269 4134 
L 1269 2991 
Q 1406 3038 1543 3061 
Q 1681 3084 1819 3084 
Q 2600 3084 3056 2656 
Q 3513 2228 3513 1497 
Q 3513 744 3044 326 
Q 2575 -91 1722 -91 
Q 1428 -91 1123 -41 
Q 819 9 494 109 
L 494 744 
Q 775 591 1075 516 
Q 1375 441 1709 441 
Q 2250 441 2565 725 
Q 2881 1009 2881 1497 
Q 2881 1984 2565 2268 
Q 2250 2553 1709 2553 
Q 1456 2553 1204 2497 
Q 953 2441 691 2322 
L 691 4666 
z
" transform="scale(0.015625)"/>
       </defs>
       <use xlink:href="#DejaVuSans-2212"/>
       <use xlink:href="#DejaVuSans-32" x="83.789062"/>
       <use xlink:href="#DejaVuSans-35" x="147.412109"/>
       <use xlink:href="#DejaVuSans-30" x="211.035156"/>
       <use xlink:href="#DejaVuSans-30" x="274.658203"/>
      </g>
     </g>
    </g>
    <g id="xtick_3">
     <g id="line2d_5">
      <path d="M 198.787415 279.010828 
L 198.787415 12.898828 
" clip-path="url(#p2e4bd30c86)" style="fill: none; stroke: #b0b0b0; stroke-width: 0.8; stroke-linecap: square"/>
     </g>
     <g id="line2d_6">
      <g>
       <use xlink:href="#md39032bed2" x="198.787415" y="279.010828" style="stroke: #000000; stroke-width: 0.8"/>
      </g>
     </g>
     <g id="text_3">
      <!-- −2000 -->
      <g transform="translate(173.415149 297.408484) scale(0.15 -0.15)">
       <use xlink:href="#DejaVuSans-2212"/>
       <use xlink:href="#DejaVuSans-32" x="83.789062"/>
       <use xlink:href="#DejaVuSans-30" x="147.412109"/>
       <use xlink:href="#DejaVuSans-30" x="211.035156"/>
       <use xlink:href="#DejaVuSans-30" x="274.658203"/>
      </g>
     </g>
    </g>
    <g id="xtick_4">
     <g id="line2d_7">
      <path d="M 252.184544 279.010828 
L 252.184544 12.898828 
" clip-path="url(#p2e4bd30c86)" style="fill: none; stroke: #b0b0b0; stroke-width: 0.8; stroke-linecap: square"/>
     </g>
     <g id="line2d_8">
      <g>
       <use xlink:href="#md39032bed2" x="252.184544" y="279.010828" style="stroke: #000000; stroke-width: 0.8"/>
      </g>
     </g>
     <g id="text_4">
      <!-- −1500 -->
      <g transform="translate(226.812278 297.408484) scale(0.15 -0.15)">
       <defs>
        <path id="DejaVuSans-31" d="M 794 531 
L 1825 531 
L 1825 4091 
L 703 3866 
L 703 4441 
L 1819 4666 
L 2450 4666 
L 2450 531 
L 3481 531 
L 3481 0 
L 794 0 
L 794 531 
z
" transform="scale(0.015625)"/>
       </defs>
       <use xlink:href="#DejaVuSans-2212"/>
       <use xlink:href="#DejaVuSans-31" x="83.789062"/>
       <use xlink:href="#DejaVuSans-35" x="147.412109"/>
       <use xlink:href="#DejaVuSans-30" x="211.035156"/>
       <use xlink:href="#DejaVuSans-30" x="274.658203"/>
      </g>
     </g>
    </g>
    <g id="xtick_5">
     <g id="line2d_9">
      <path d="M 305.581673 279.010828 
L 305.581673 12.898828 
" clip-path="url(#p2e4bd30c86)" style="fill: none; stroke: #b0b0b0; stroke-width: 0.8; stroke-linecap: square"/>
     </g>
     <g id="line2d_10">
      <g>
       <use xlink:href="#md39032bed2" x="305.581673" y="279.010828" style="stroke: #000000; stroke-width: 0.8"/>
      </g>
     </g>
     <g id="text_5">
      <!-- −1000 -->
      <g transform="translate(280.209408 297.408484) scale(0.15 -0.15)">
       <use xlink:href="#DejaVuSans-2212"/>
       <use xlink:href="#DejaVuSans-31" x="83.789062"/>
       <use xlink:href="#DejaVuSans-30" x="147.412109"/>
       <use xlink:href="#DejaVuSans-30" x="211.035156"/>
       <use xlink:href="#DejaVuSans-30" x="274.658203"/>
      </g>
     </g>
    </g>
    <g id="xtick_6">
     <g id="line2d_11">
      <path d="M 358.978802 279.010828 
L 358.978802 12.898828 
" clip-path="url(#p2e4bd30c86)" style="fill: none; stroke: #b0b0b0; stroke-width: 0.8; stroke-linecap: square"/>
     </g>
     <g id="line2d_12">
      <g>
       <use xlink:href="#md39032bed2" x="358.978802" y="279.010828" style="stroke: #000000; stroke-width: 0.8"/>
      </g>
     </g>
     <g id="text_6">
      <!-- −500 -->
      <g transform="translate(338.378412 297.408484) scale(0.15 -0.15)">
       <use xlink:href="#DejaVuSans-2212"/>
       <use xlink:href="#DejaVuSans-35" x="83.789062"/>
       <use xlink:href="#DejaVuSans-30" x="147.412109"/>
       <use xlink:href="#DejaVuSans-30" x="211.035156"/>
      </g>
     </g>
    </g>
    <g id="xtick_7">
     <g id="line2d_13">
      <path d="M 412.375932 279.010828 
L 412.375932 12.898828 
" clip-path="url(#p2e4bd30c86)" style="fill: none; stroke: #b0b0b0; stroke-width: 0.8; stroke-linecap: square"/>
     </g>
     <g id="line2d_14">
      <g>
       <use xlink:href="#md39032bed2" x="412.375932" y="279.010828" style="stroke: #000000; stroke-width: 0.8"/>
      </g>
     </g>
     <g id="text_7">
      <!-- 0 -->
      <g transform="translate(407.604057 297.408484) scale(0.15 -0.15)">
       <use xlink:href="#DejaVuSans-30"/>
      </g>
     </g>
    </g>
    <g id="text_8">
     <!-- Position (μm) -->
     <g transform="translate(183.502187 319.724891) scale(0.2 -0.2)">
      <defs>
       <path id="DejaVuSans-50" d="M 1259 4147 
L 1259 2394 
L 2053 2394 
Q 2494 2394 2734 2622 
Q 2975 2850 2975 3272 
Q 2975 3691 2734 3919 
Q 2494 4147 2053 4147 
L 1259 4147 
z
M 628 4666 
L 2053 4666 
Q 2838 4666 3239 4311 
Q 3641 3956 3641 3272 
Q 3641 2581 3239 2228 
Q 2838 1875 2053 1875 
L 1259 1875 
L 1259 0 
L 628 0 
L 628 4666 
z
" transform="scale(0.015625)"/>
       <path id="DejaVuSans-6f" d="M 1959 3097 
Q 1497 3097 1228 2736 
Q 959 2375 959 1747 
Q 959 1119 1226 758 
Q 1494 397 1959 397 
Q 2419 397 2687 759 
Q 2956 1122 2956 1747 
Q 2956 2369 2687 2733 
Q 2419 3097 1959 3097 
z
M 1959 3584 
Q 2709 3584 3137 3096 
Q 3566 2609 3566 1747 
Q 3566 888 3137 398 
Q 2709 -91 1959 -91 
Q 1206 -91 779 398 
Q 353 888 353 1747 
Q 353 2609 779 3096 
Q 1206 3584 1959 3584 
z
" transform="scale(0.015625)"/>
       <path id="DejaVuSans-73" d="M 2834 3397 
L 2834 2853 
Q 2591 2978 2328 3040 
Q 2066 3103 1784 3103 
Q 1356 3103 1142 2972 
Q 928 2841 928 2578 
Q 928 2378 1081 2264 
Q 1234 2150 1697 2047 
L 1894 2003 
Q 2506 1872 2764 1633 
Q 3022 1394 3022 966 
Q 3022 478 2636 193 
Q 2250 -91 1575 -91 
Q 1294 -91 989 -36 
Q 684 19 347 128 
L 347 722 
Q 666 556 975 473 
Q 1284 391 1588 391 
Q 1994 391 2212 530 
Q 2431 669 2431 922 
Q 2431 1156 2273 1281 
Q 2116 1406 1581 1522 
L 1381 1569 
Q 847 1681 609 1914 
Q 372 2147 372 2553 
Q 372 3047 722 3315 
Q 1072 3584 1716 3584 
Q 2034 3584 2315 3537 
Q 2597 3491 2834 3397 
z
" transform="scale(0.015625)"/>
       <path id="DejaVuSans-69" d="M 603 3500 
L 1178 3500 
L 1178 0 
L 603 0 
L 603 3500 
z
M 603 4863 
L 1178 4863 
L 1178 4134 
L 603 4134 
L 603 4863 
z
" transform="scale(0.015625)"/>
       <path id="DejaVuSans-74" d="M 1172 4494 
L 1172 3500 
L 2356 3500 
L 2356 3053 
L 1172 3053 
L 1172 1153 
Q 1172 725 1289 603 
Q 1406 481 1766 481 
L 2356 481 
L 2356 0 
L 1766 0 
Q 1100 0 847 248 
Q 594 497 594 1153 
L 594 3053 
L 172 3053 
L 172 3500 
L 594 3500 
L 594 4494 
L 1172 4494 
z
" transform="scale(0.015625)"/>
       <path id="DejaVuSans-6e" d="M 3513 2113 
L 3513 0 
L 2938 0 
L 2938 2094 
Q 2938 2591 2744 2837 
Q 2550 3084 2163 3084 
Q 1697 3084 1428 2787 
Q 1159 2491 1159 1978 
L 1159 0 
L 581 0 
L 581 3500 
L 1159 3500 
L 1159 2956 
Q 1366 3272 1645 3428 
Q 1925 3584 2291 3584 
Q 2894 3584 3203 3211 
Q 3513 2838 3513 2113 
z
" transform="scale(0.015625)"/>
       <path id="DejaVuSans-20" transform="scale(0.015625)"/>
       <path id="DejaVuSans-28" d="M 1984 4856 
Q 1566 4138 1362 3434 
Q 1159 2731 1159 2009 
Q 1159 1288 1364 580 
Q 1569 -128 1984 -844 
L 1484 -844 
Q 1016 -109 783 600 
Q 550 1309 550 2009 
Q 550 2706 781 3412 
Q 1013 4119 1484 4856 
L 1984 4856 
z
" transform="scale(0.015625)"/>
       <path id="DejaVuSans-3bc" d="M 544 -1331 
L 544 3500 
L 1119 3500 
L 1119 1325 
Q 1119 872 1334 640 
Q 1550 409 1972 409 
Q 2434 409 2667 671 
Q 2900 934 2900 1459 
L 2900 3500 
L 3475 3500 
L 3475 806 
Q 3475 619 3529 530 
Q 3584 441 3700 441 
Q 3728 441 3778 458 
Q 3828 475 3916 513 
L 3916 50 
Q 3788 -22 3673 -56 
Q 3559 -91 3450 -91 
Q 3234 -91 3106 31 
Q 2978 153 2931 403 
Q 2775 156 2548 32 
Q 2322 -91 2016 -91 
Q 1697 -91 1473 31 
Q 1250 153 1119 397 
L 1119 -1331 
L 544 -1331 
z
" transform="scale(0.015625)"/>
       <path id="DejaVuSans-6d" d="M 3328 2828 
Q 3544 3216 3844 3400 
Q 4144 3584 4550 3584 
Q 5097 3584 5394 3201 
Q 5691 2819 5691 2113 
L 5691 0 
L 5113 0 
L 5113 2094 
Q 5113 2597 4934 2840 
Q 4756 3084 4391 3084 
Q 3944 3084 3684 2787 
Q 3425 2491 3425 1978 
L 3425 0 
L 2847 0 
L 2847 2094 
Q 2847 2600 2669 2842 
Q 2491 3084 2119 3084 
Q 1678 3084 1418 2786 
Q 1159 2488 1159 1978 
L 1159 0 
L 581 0 
L 581 3500 
L 1159 3500 
L 1159 2956 
Q 1356 3278 1631 3431 
Q 1906 3584 2284 3584 
Q 2666 3584 2933 3390 
Q 3200 3197 3328 2828 
z
" transform="scale(0.015625)"/>
       <path id="DejaVuSans-29" d="M 513 4856 
L 1013 4856 
Q 1481 4119 1714 3412 
Q 1947 2706 1947 2009 
Q 1947 1309 1714 600 
Q 1481 -109 1013 -844 
L 513 -844 
Q 928 -128 1133 580 
Q 1338 1288 1338 2009 
Q 1338 2731 1133 3434 
Q 928 4138 513 4856 
z
" transform="scale(0.015625)"/>
      </defs>
      <use xlink:href="#DejaVuSans-50"/>
      <use xlink:href="#DejaVuSans-6f" x="56.677734"/>
      <use xlink:href="#DejaVuSans-73" x="117.859375"/>
      <use xlink:href="#DejaVuSans-69" x="169.958984"/>
      <use xlink:href="#DejaVuSans-74" x="197.742188"/>
      <use xlink:href="#DejaVuSans-69" x="236.951172"/>
      <use xlink:href="#DejaVuSans-6f" x="264.734375"/>
      <use xlink:href="#DejaVuSans-6e" x="325.916016"/>
      <use xlink:href="#DejaVuSans-20" x="389.294922"/>
      <use xlink:href="#DejaVuSans-28" x="421.082031"/>
      <use xlink:href="#DejaVuSans-3bc" x="460.095703"/>
      <use xlink:href="#DejaVuSans-6d" x="523.71875"/>
      <use xlink:href="#DejaVuSans-29" x="621.130859"/>
     </g>
    </g>
   </g>
   <g id="matplotlib.axis_2">
    <g id="ytick_1">
     <g id="line2d_15">
      <path d="M 70.954688 279.010828 
L 428.074687 279.010828 
" clip-path="url(#p2e4bd30c86)" style="fill: none; stroke: #b0b0b0; stroke-width: 0.8; stroke-linecap: square"/>
     </g>
     <g id="line2d_16">
      <defs>
       <path id="m6f3f5b6aff" d="M 0 0 
L -3.5 0 
" style="stroke: #000000; stroke-width: 0.8"/>
      </defs>
      <g>
       <use xlink:href="#m6f3f5b6aff" x="70.954688" y="279.010828" style="stroke: #000000; stroke-width: 0.8"/>
      </g>
     </g>
     <g id="text_9">
      <!-- 0.0 -->
      <g transform="translate(40.1 284.709656) scale(0.15 -0.15)">
       <defs>
        <path id="DejaVuSans-2e" d="M 684 794 
L 1344 794 
L 1344 0 
L 684 0 
L 684 794 
z
" transform="scale(0.015625)"/>
       </defs>
       <use xlink:href="#DejaVuSans-30"/>
       <use xlink:href="#DejaVuSans-2e" x="63.623047"/>
       <use xlink:href="#DejaVuSans-30" x="95.410156"/>
      </g>
     </g>
    </g>
    <g id="ytick_2">
     <g id="line2d_17">
      <path d="M 70.954688 245.746828 
L 428.074687 245.746828 
" clip-path="url(#p2e4bd30c86)" style="fill: none; stroke: #b0b0b0; stroke-width: 0.8; stroke-linecap: square"/>
     </g>
     <g id="line2d_18">
      <g>
       <use xlink:href="#m6f3f5b6aff" x="70.954688" y="245.746828" style="stroke: #000000; stroke-width: 0.8"/>
      </g>
     </g>
     <g id="text_10">
      <!-- 2.5 -->
      <g transform="translate(40.1 251.445656) scale(0.15 -0.15)">
       <use xlink:href="#DejaVuSans-32"/>
       <use xlink:href="#DejaVuSans-2e" x="63.623047"/>
       <use xlink:href="#DejaVuSans-35" x="95.410156"/>
      </g>
     </g>
    </g>
    <g id="ytick_3">
     <g id="line2d_19">
      <path d="M 70.954688 212.482828 
L 428.074687 212.482828 
" clip-path="url(#p2e4bd30c86)" style="fill: none; stroke: #b0b0b0; stroke-width: 0.8; stroke-linecap: square"/>
     </g>
     <g id="line2d_20">
      <g>
       <use xlink:href="#m6f3f5b6aff" x="70.954688" y="212.482828" style="stroke: #000000; stroke-width: 0.8"/>
      </g>
     </g>
     <g id="text_11">
      <!-- 5.0 -->
      <g transform="translate(40.1 218.181656) scale(0.15 -0.15)">
       <use xlink:href="#DejaVuSans-35"/>
       <use xlink:href="#DejaVuSans-2e" x="63.623047"/>
       <use xlink:href="#DejaVuSans-30" x="95.410156"/>
      </g>
     </g>
    </g>
    <g id="ytick_4">
     <g id="line2d_21">
      <path d="M 70.954688 179.218828 
L 428.074687 179.218828 
" clip-path="url(#p2e4bd30c86)" style="fill: none; stroke: #b0b0b0; stroke-width: 0.8; stroke-linecap: square"/>
     </g>
     <g id="line2d_22">
      <g>
       <use xlink:href="#m6f3f5b6aff" x="70.954688" y="179.218828" style="stroke: #000000; stroke-width: 0.8"/>
      </g>
     </g>
     <g id="text_12">
      <!-- 7.5 -->
      <g transform="translate(40.1 184.917656) scale(0.15 -0.15)">
       <defs>
        <path id="DejaVuSans-37" d="M 525 4666 
L 3525 4666 
L 3525 4397 
L 1831 0 
L 1172 0 
L 2766 4134 
L 525 4134 
L 525 4666 
z
" transform="scale(0.015625)"/>
       </defs>
       <use xlink:href="#DejaVuSans-37"/>
       <use xlink:href="#DejaVuSans-2e" x="63.623047"/>
       <use xlink:href="#DejaVuSans-35" x="95.410156"/>
      </g>
     </g>
    </g>
    <g id="ytick_5">
     <g id="line2d_23">
      <path d="M 70.954688 145.954828 
L 428.074687 145.954828 
" clip-path="url(#p2e4bd30c86)" style="fill: none; stroke: #b0b0b0; stroke-width: 0.8; stroke-linecap: square"/>
     </g>
     <g id="line2d_24">
      <g>
       <use xlink:href="#m6f3f5b6aff" x="70.954688" y="145.954828" style="stroke: #000000; stroke-width: 0.8"/>
      </g>
     </g>
     <g id="text_13">
      <!-- 10.0 -->
      <g transform="translate(30.55625 151.653656) scale(0.15 -0.15)">
       <use xlink:href="#DejaVuSans-31"/>
       <use xlink:href="#DejaVuSans-30" x="63.623047"/>
       <use xlink:href="#DejaVuSans-2e" x="127.246094"/>
       <use xlink:href="#DejaVuSans-30" x="159.033203"/>
      </g>
     </g>
    </g>
    <g id="ytick_6">
     <g id="line2d_25">
      <path d="M 70.954688 112.690828 
L 428.074687 112.690828 
" clip-path="url(#p2e4bd30c86)" style="fill: none; stroke: #b0b0b0; stroke-width: 0.8; stroke-linecap: square"/>
     </g>
     <g id="line2d_26">
      <g>
       <use xlink:href="#m6f3f5b6aff" x="70.954688" y="112.690828" style="stroke: #000000; stroke-width: 0.8"/>
      </g>
     </g>
     <g id="text_14">
      <!-- 12.5 -->
      <g transform="translate(30.55625 118.389656) scale(0.15 -0.15)">
       <use xlink:href="#DejaVuSans-31"/>
       <use xlink:href="#DejaVuSans-32" x="63.623047"/>
       <use xlink:href="#DejaVuSans-2e" x="127.246094"/>
       <use xlink:href="#DejaVuSans-35" x="159.033203"/>
      </g>
     </g>
    </g>
    <g id="ytick_7">
     <g id="line2d_27">
      <path d="M 70.954688 79.426828 
L 428.074687 79.426828 
" clip-path="url(#p2e4bd30c86)" style="fill: none; stroke: #b0b0b0; stroke-width: 0.8; stroke-linecap: square"/>
     </g>
     <g id="line2d_28">
      <g>
       <use xlink:href="#m6f3f5b6aff" x="70.954688" y="79.426828" style="stroke: #000000; stroke-width: 0.8"/>
      </g>
     </g>
     <g id="text_15">
      <!-- 15.0 -->
      <g transform="translate(30.55625 85.125656) scale(0.15 -0.15)">
       <use xlink:href="#DejaVuSans-31"/>
       <use xlink:href="#DejaVuSans-35" x="63.623047"/>
       <use xlink:href="#DejaVuSans-2e" x="127.246094"/>
       <use xlink:href="#DejaVuSans-30" x="159.033203"/>
      </g>
     </g>
    </g>
    <g id="ytick_8">
     <g id="line2d_29">
      <path d="M 70.954688 46.162828 
L 428.074687 46.162828 
" clip-path="url(#p2e4bd30c86)" style="fill: none; stroke: #b0b0b0; stroke-width: 0.8; stroke-linecap: square"/>
     </g>
     <g id="line2d_30">
      <g>
       <use xlink:href="#m6f3f5b6aff" x="70.954688" y="46.162828" style="stroke: #000000; stroke-width: 0.8"/>
      </g>
     </g>
     <g id="text_16">
      <!-- 17.5 -->
      <g transform="translate(30.55625 51.861656) scale(0.15 -0.15)">
       <use xlink:href="#DejaVuSans-31"/>
       <use xlink:href="#DejaVuSans-37" x="63.623047"/>
       <use xlink:href="#DejaVuSans-2e" x="127.246094"/>
       <use xlink:href="#DejaVuSans-35" x="159.033203"/>
      </g>
     </g>
    </g>
    <g id="ytick_9">
     <g id="line2d_31">
      <path d="M 70.954688 12.898828 
L 428.074687 12.898828 
" clip-path="url(#p2e4bd30c86)" style="fill: none; stroke: #b0b0b0; stroke-width: 0.8; stroke-linecap: square"/>
     </g>
     <g id="line2d_32">
      <g>
       <use xlink:href="#m6f3f5b6aff" x="70.954688" y="12.898828" style="stroke: #000000; stroke-width: 0.8"/>
      </g>
     </g>
     <g id="text_17">
      <!-- 20.0 -->
      <g transform="translate(30.55625 18.597656) scale(0.15 -0.15)">
       <use xlink:href="#DejaVuSans-32"/>
       <use xlink:href="#DejaVuSans-30" x="63.623047"/>
       <use xlink:href="#DejaVuSans-2e" x="127.246094"/>
       <use xlink:href="#DejaVuSans-30" x="159.033203"/>
      </g>
     </g>
    </g>
    <g id="text_18">
     <!-- Difference (V) -->
     <g transform="translate(22.396875 215.476703) rotate(-90) scale(0.2 -0.2)">
      <defs>
       <path id="DejaVuSans-44" d="M 1259 4147 
L 1259 519 
L 2022 519 
Q 2988 519 3436 956 
Q 3884 1394 3884 2338 
Q 3884 3275 3436 3711 
Q 2988 4147 2022 4147 
L 1259 4147 
z
M 628 4666 
L 1925 4666 
Q 3281 4666 3915 4102 
Q 4550 3538 4550 2338 
Q 4550 1131 3912 565 
Q 3275 0 1925 0 
L 628 0 
L 628 4666 
z
" transform="scale(0.015625)"/>
       <path id="DejaVuSans-66" d="M 2375 4863 
L 2375 4384 
L 1825 4384 
Q 1516 4384 1395 4259 
Q 1275 4134 1275 3809 
L 1275 3500 
L 2222 3500 
L 2222 3053 
L 1275 3053 
L 1275 0 
L 697 0 
L 697 3053 
L 147 3053 
L 147 3500 
L 697 3500 
L 697 3744 
Q 697 4328 969 4595 
Q 1241 4863 1831 4863 
L 2375 4863 
z
" transform="scale(0.015625)"/>
       <path id="DejaVuSans-65" d="M 3597 1894 
L 3597 1613 
L 953 1613 
Q 991 1019 1311 708 
Q 1631 397 2203 397 
Q 2534 397 2845 478 
Q 3156 559 3463 722 
L 3463 178 
Q 3153 47 2828 -22 
Q 2503 -91 2169 -91 
Q 1331 -91 842 396 
Q 353 884 353 1716 
Q 353 2575 817 3079 
Q 1281 3584 2069 3584 
Q 2775 3584 3186 3129 
Q 3597 2675 3597 1894 
z
M 3022 2063 
Q 3016 2534 2758 2815 
Q 2500 3097 2075 3097 
Q 1594 3097 1305 2825 
Q 1016 2553 972 2059 
L 3022 2063 
z
" transform="scale(0.015625)"/>
       <path id="DejaVuSans-72" d="M 2631 2963 
Q 2534 3019 2420 3045 
Q 2306 3072 2169 3072 
Q 1681 3072 1420 2755 
Q 1159 2438 1159 1844 
L 1159 0 
L 581 0 
L 581 3500 
L 1159 3500 
L 1159 2956 
Q 1341 3275 1631 3429 
Q 1922 3584 2338 3584 
Q 2397 3584 2469 3576 
Q 2541 3569 2628 3553 
L 2631 2963 
z
" transform="scale(0.015625)"/>
       <path id="DejaVuSans-63" d="M 3122 3366 
L 3122 2828 
Q 2878 2963 2633 3030 
Q 2388 3097 2138 3097 
Q 1578 3097 1268 2742 
Q 959 2388 959 1747 
Q 959 1106 1268 751 
Q 1578 397 2138 397 
Q 2388 397 2633 464 
Q 2878 531 3122 666 
L 3122 134 
Q 2881 22 2623 -34 
Q 2366 -91 2075 -91 
Q 1284 -91 818 406 
Q 353 903 353 1747 
Q 353 2603 823 3093 
Q 1294 3584 2113 3584 
Q 2378 3584 2631 3529 
Q 2884 3475 3122 3366 
z
" transform="scale(0.015625)"/>
       <path id="DejaVuSans-56" d="M 1831 0 
L 50 4666 
L 709 4666 
L 2188 738 
L 3669 4666 
L 4325 4666 
L 2547 0 
L 1831 0 
z
" transform="scale(0.015625)"/>
      </defs>
      <use xlink:href="#DejaVuSans-44"/>
      <use xlink:href="#DejaVuSans-69" x="77.001953"/>
      <use xlink:href="#DejaVuSans-66" x="104.785156"/>
      <use xlink:href="#DejaVuSans-66" x="139.990234"/>
      <use xlink:href="#DejaVuSans-65" x="175.195312"/>
      <use xlink:href="#DejaVuSans-72" x="236.71875"/>
      <use xlink:href="#DejaVuSans-65" x="275.582031"/>
      <use xlink:href="#DejaVuSans-6e" x="337.105469"/>
      <use xlink:href="#DejaVuSans-63" x="400.484375"/>
      <use xlink:href="#DejaVuSans-65" x="455.464844"/>
      <use xlink:href="#DejaVuSans-20" x="516.988281"/>
      <use xlink:href="#DejaVuSans-28" x="548.775391"/>
      <use xlink:href="#DejaVuSans-56" x="587.789062"/>
      <use xlink:href="#DejaVuSans-29" x="656.197266"/>
     </g>
    </g>
   </g>
   <g id="line2d_33">
    <path d="M 94.125965 -1 
L 94.129042 4.860299 
L 94.197428 -1 
M 97.743113 -1 
L 97.866841 101.639203 
L 98.293745 -1 
M 98.488609 -1 
L 98.934783 129.816842 
L 99.068902 -1 
M 100.337971 -1 
L 100.536697 180.714223 
L 100.776034 -1 
M 104.54695 -1 
L 104.808467 237.351747 
L 105.342439 244.175363 
L 105.611485 -1 
M 108.283801 -1 
L 108.546266 232.523072 
L 109.080238 191.58082 
L 109.614209 71.040018 
L 110.14818 109.572012 
L 110.682152 244.831831 
L 111.216123 26.552586 
L 111.750094 237.681838 
L 112.284065 243.758681 
L 112.818037 238.219226 
L 113.352008 245.223274 
L 113.885979 243.228738 
L 114.419951 242.388574 
L 114.953922 238.330583 
L 115.487893 226.750351 
L 116.021865 210.326867 
L 116.555836 189.147973 
L 117.089807 187.914618 
L 117.623778 210.685071 
L 118.15775 226.795399 
L 118.691721 238.547055 
L 119.225692 243.228296 
L 119.759664 243.845246 
L 120.293635 172.694689 
L 120.827606 244.031911 
L 121.361577 242.824728 
L 121.895549 242.649939 
L 122.42952 244.233307 
L 122.963491 245.101172 
L 123.497463 235.005339 
L 124.031434 220.072328 
L 124.565405 18.933532 
L 125.099376 18.974505 
L 125.633348 244.878118 
L 126.167319 247.8313 
L 126.70129 247.272069 
L 127.235262 244.683063 
L 127.769233 222.601708 
L 128.303204 19.235218 
L 128.837176 240.966157 
L 129.371147 240.642774 
L 129.905118 241.703133 
L 130.973061 208.386889 
L 131.507032 189.999165 
L 132.041003 19.129837 
L 132.574975 19.045249 
L 133.108946 227.755565 
L 134.176888 247.101281 
L 134.71086 243.760492 
L 135.244831 215.813404 
L 135.778802 19.226741 
L 136.312774 240.856763 
L 137.380716 239.832821 
L 137.914687 227.10967 
L 138.448659 211.098842 
L 138.98263 187.663076 
L 139.516601 19.141329 
L 140.050573 19.194579 
L 140.584544 226.376411 
L 141.652487 246.944763 
L 142.186458 243.053015 
L 142.720429 240.646065 
L 143.2544 19.329303 
L 143.788372 243.472703 
L 144.322343 243.941075 
L 144.856314 248.612984 
L 145.358459 -1 
M 145.427417 -1 
L 145.924257 210.685845 
L 146.458228 187.98392 
L 146.992199 19.150669 
L 147.526171 19.191623 
L 148.060142 226.387411 
L 149.128085 248.626275 
L 149.662056 243.15874 
L 150.196027 241.656667 
L 150.729999 19.294538 
L 151.26397 242.116409 
L 151.797941 49.239027 
L 152.331912 237.763113 
L 152.865884 226.507833 
L 153.399855 210.34181 
L 153.933826 188.509834 
L 154.467798 187.014597 
L 155.001769 210.758266 
L 155.53574 226.760246 
L 156.603683 246.882246 
L 157.137654 243.351509 
L 157.671625 242.187925 
L 158.205597 196.952231 
L 158.739568 241.196784 
L 159.273539 44.418841 
L 159.80751 237.711117 
L 160.341482 226.462154 
L 160.875453 210.248498 
L 161.409424 188.557598 
L 161.943396 187.984386 
L 162.477367 210.616965 
L 163.011338 226.639578 
L 164.079281 248.207084 
L 164.613252 242.021601 
L 165.147223 143.988419 
L 165.681195 238.494667 
L 166.215166 240.845882 
L 166.749137 264.566921 
L 167.283109 37.0327 
L 167.81708 219.913715 
L 168.351051 210.054398 
L 168.885022 187.848285 
L 169.418994 187.603972 
L 169.952965 210.340667 
L 170.486936 226.438663 
L 171.554879 248.282327 
L 172.08885 240.753441 
L 172.622821 138.208154 
L 173.156793 237.989709 
L 173.690764 240.139959 
L 174.224735 32.704583 
L 174.758707 237.467776 
L 175.292678 226.161621 
L 175.826649 209.868637 
L 176.360621 187.198488 
L 176.894592 187.2797 
L 177.428563 210.105558 
L 177.962534 226.264993 
L 179.030477 251.009978 
L 179.564448 241.983867 
L 180.09842 185.259216 
L 180.632391 237.458568 
L 181.166362 239.419503 
L 181.700333 252.939035 
L 182.234305 250.195334 
L 182.768276 243.572368 
L 183.302247 233.145685 
L 183.836219 216.85843 
L 184.223845 -1 
M 184.519994 -1 
L 184.904161 209.928617 
L 185.438132 226.117642 
L 186.506075 250.61296 
L 187.040046 240.852481 
L 187.574018 239.103133 
L 188.107989 172.971813 
L 188.64196 238.627901 
L 189.175932 253.268493 
L 189.709903 250.519403 
L 190.243874 243.278471 
L 190.777845 232.744338 
L 191.311817 217.691509 
L 191.845788 217.07619 
L 192.379759 232.312404 
L 192.867416 -1 
M 192.959157 -1 
L 193.447702 237.304299 
L 193.981673 250.483363 
L 194.515644 239.884122 
L 195.049616 238.375345 
L 195.583587 166.822936 
L 196.117558 237.73318 
L 196.65153 253.828862 
L 197.185501 250.306412 
L 197.719472 242.990526 
L 198.253443 232.348348 
L 198.787415 217.146077 
L 199.321386 216.623547 
L 199.855357 231.851435 
L 200.334735 -1 
M 200.442819 -1 
L 200.9233 237.203349 
L 201.457271 250.553534 
L 201.991243 238.993225 
L 202.525214 237.713654 
L 203.059185 160.665141 
L 203.593156 236.934479 
L 204.127128 254.287319 
L 204.661099 250.133292 
L 205.19507 242.744362 
L 205.729042 231.998018 
L 206.263013 214.528292 
L 206.796984 216.474671 
L 207.330955 231.30827 
L 207.864927 242.09422 
L 208.932869 257.307157 
L 209.211229 -1 
M 209.783148 -1 
L 210.000812 162.225329 
L 210.534783 238.25483 
L 211.068754 218.715341 
L 211.602726 253.799162 
L 212.136697 250.095856 
L 212.670668 242.682512 
L 213.20464 231.899483 
L 213.738611 214.243742 
L 214.272582 218.324992 
L 215.340525 241.871448 
L 215.874496 20.035947 
L 216.408467 256.229977 
L 216.942439 237.343015 
L 217.47641 158.054907 
L 218.010381 239.899397 
L 218.544353 241.488538 
L 219.078324 249.072041 
L 219.612295 251.422383 
L 220.146266 243.390579 
L 220.680238 232.874224 
L 221.214209 215.441532 
L 222.282152 230.919051 
L 222.816123 241.846343 
L 223.350094 249.383194 
L 223.884065 254.468 
L 224.418037 260.712665 
L 224.952008 233.103256 
L 225.485979 159.60949 
L 226.019951 244.904937 
L 226.553922 248.10103 
L 227.087893 250.254484 
L 227.621865 245.782663 
L 228.155836 234.922982 
L 229.027111 -1 
M 230.020199 -1 
L 230.291721 55.334332 
L 230.707555 -1 
M 230.865202 -1 
L 231.359664 199.294557 
L 231.893635 151.538164 
L 232.427606 242.676301 
L 232.961577 243.02258 
L 233.495549 245.075814 
L 234.02952 246.132699 
L 234.563491 245.62843 
L 235.097463 238.294662 
L 236.165405 130.398296 
L 236.699376 207.172647 
L 237.233348 206.811911 
L 237.767319 233.792461 
L 238.30129 205.857968 
L 238.835262 247.135985 
L 239.369233 237.947381 
L 239.903204 131.691529 
L 240.437176 240.533561 
L 240.971147 239.882686 
L 242.039089 239.954874 
L 242.573061 239.544149 
L 243.107032 234.587422 
L 243.641003 217.022206 
L 244.174975 212.437212 
L 244.708946 210.970909 
L 245.242917 226.21679 
L 245.776888 206.853484 
L 246.31086 245.033665 
L 246.844831 249.963709 
L 247.378802 160.088676 
L 247.912774 238.545704 
L 248.446745 67.619241 
L 248.980716 237.234619 
L 249.514687 238.071326 
L 250.048659 233.496 
L 250.58263 219.358902 
L 250.933635 -1 
M 251.298376 -1 
L 251.650573 221.556507 
L 252.184544 210.330221 
L 252.718515 226.772394 
L 253.252487 238.315706 
L 253.786458 246.866762 
L 254.320429 246.716073 
L 254.8544 161.652031 
L 255.388372 157.916646 
L 255.922343 70.840222 
L 256.456314 81.244287 
L 256.990286 134.299307 
L 257.524257 226.602963 
L 258.058228 233.040283 
L 258.592199 218.459863 
L 259.126171 211.610693 
L 259.660142 164.218843 
L 260.194113 229.252867 
L 260.728085 227.406263 
L 261.262056 15.390668 
L 261.796027 93.460879 
L 262.329999 127.09568 
L 262.86397 45.952434 
L 263.397941 183.901154 
L 263.931912 231.279831 
L 264.465884 227.2024 
L 264.999855 234.55245 
L 265.533826 234.668899 
L 266.067798 228.813965 
L 266.601769 240.321895 
L 267.13574 225.492467 
L 267.669711 82.881814 
L 268.203683 138.999048 
L 268.737654 219.013355 
L 269.271625 160.951264 
L 269.805597 13.260752 
L 270.339568 210.224143 
L 270.873539 168.252503 
L 271.223182 -1 
M 271.555237 -1 
L 271.941482 232.295368 
L 272.599636 -1 
M 273.250284 -1 
L 273.543396 229.495568 
L 274.077367 202.784094 
L 274.611338 200.791834 
L 274.887101 -1 
M 275.494597 -1 
L 275.679281 98.904782 
L 276.213252 165.503245 
L 276.552529 -1 
M 279.124602 -1 
L 279.41708 226.546414 
L 279.951051 227.742639 
L 280.485022 45.285815 
L 281.018994 45.473288 
L 281.552965 207.21619 
L 282.086936 212.264473 
L 282.371031 -1 
M 284.736943 -1 
L 284.756793 6.70662 
L 284.775925 -1 
M 286.86456 -1 
L 286.892678 10.950066 
L 287.426649 90.596794 
L 287.960621 14.99645 
L 288.494592 7.943622 
L 289.028563 99.797369 
L 289.17358 -1 
M 290.451142 -1 
L 290.630477 137.637313 
L 291.05138 -1 
M 292.391424 -1 
L 292.766362 177.885577 
L 293.300333 227.430857 
L 293.834305 208.067073 
L 294.368276 153.352115 
L 294.537954 -1 
M 296.912946 -1 
L 297.038132 103.56727 
L 297.160285 -1 
M 300.0872 -1 
L 300.24196 142.960424 
L 300.775932 159.630593 
L 301.309903 185.021342 
L 301.480257 -1 
M 302.778689 -1 
L 302.911817 135.133605 
L 303.445788 149.95241 
L 303.785791 -1 
M 304.153487 -1 
L 304.513731 177.571636 
L 305.047702 197.503799 
L 305.815589 -1 
M 308.220411 -1 
L 308.25153 24.001835 
L 308.785501 118.362213 
L 308.898891 -1 
M 310.962318 -1 
L 311.455357 176.761767 
L 311.651857 -1 
M 312.36124 -1 
L 312.5233 132.030364 
L 313.057271 75.730532 
L 313.591243 39.028949 
L 314.125214 24.012432 
L 314.154595 -1 
M 319.251635 -1 
L 319.464927 90.908498 
L 319.998898 132.063065 
L 320.170169 -1 
M 320.975779 -1 
L 321.066841 56.935474 
L 321.600812 41.969348 
L 321.661481 -1 
M 325.717404 -1 
L 325.872582 128.611533 
L 326.007897 -1 
M 328.922337 -1 
L 329.07641 41.765086 
L 329.138207 -1 
M 330.601912 -1 
L 330.678324 51.734122 
L 330.757802 -1 
M 332.700897 -1 
L 332.814209 82.365425 
L 332.921106 -1 
M 334.220153 -1 
L 334.416123 195.565367 
L 334.950094 201.895908 
L 335.247053 -1 
M 337.527556 -1 
L 337.619951 62.235466 
L 338.153922 101.238045 
L 338.288321 -1 
M 339.346095 -1 
L 339.755836 167.183896 
L 339.951287 -1 
M 343.287513 -1 
L 343.493635 203.577572 
L 344.027606 228.455023 
L 344.561577 61.652247 
L 344.950415 -1 
M 347.057283 -1 
L 347.231434 147.638752 
L 347.404832 -1 
M 349.689519 -1 
L 349.90129 218.333622 
L 350.106486 -1 
M 351.075509 -1 
L 351.503204 102.663882 
L 351.622133 -1 
M 352.906061 -1 
L 353.105118 212.893278 
L 353.639089 173.306388 
L 354.173061 121.952403 
L 354.707032 51.972681 
L 354.783121 -1 
M 359.321311 -1 
L 359.512774 208.390686 
L 359.926102 -1 
M 360.800132 -1 
L 361.114687 190.062893 
L 361.648659 195.847661 
L 362.18263 125.581419 
L 362.419831 -1 
M 364.529201 -1 
L 364.852487 105.685341 
L 365.386458 0.664973 
L 366.4544 49.908737 
L 366.607566 -1 
M 367.817891 -1 
L 368.056314 14.855229 
L 368.590286 123.816262 
L 368.790116 -1 
M 369.61534 -1 
L 369.658228 17.22745 
L 370.192199 128.987989 
L 370.389134 -1 
M 371.227206 -1 
L 371.260142 13.623673 
L 371.794113 31.165934 
L 372.328085 129.507992 
L 372.540204 -1 
M 374.23356 -1 
L 374.46397 151.687789 
L 374.997941 202.758156 
L 375.531912 194.550173 
L 375.955796 -1 
M 376.877862 -1 
L 377.133826 206.428428 
L 377.667798 175.174203 
L 378.201769 132.440174 
L 378.73574 21.283908 
L 379.269711 26.325457 
L 379.803683 100.513557 
L 380.141213 -1 
M 380.478225 -1 
L 380.871625 164.340463 
L 381.405597 174.006749 
L 381.939568 100.669848 
L 382.183346 -1 
M 382.777108 -1 
L 383.00751 90.856942 
L 383.541482 240.03302 
L 384.075453 229.358142 
L 384.609424 214.287941 
L 385.143396 228.831439 
L 385.677367 193.473738 
L 386.095978 -1 
M 388.184827 -1 
L 388.347223 174.625828 
L 388.580417 -1 
M 389.254154 -1 
L 389.415166 96.79425 
L 389.53201 -1 
M 390.843208 -1 
L 391.01708 209.232116 
L 391.372422 -1 
M 391.721836 -1 
L 392.085022 223.742255 
L 392.25603 -1 
M 394.582333 -1 
L 394.754879 232.998556 
L 395.094116 -1 
M 396.189192 -1 
L 396.356793 185.278769 
L 396.890764 195.949906 
L 397.039112 -1 
M 397.866298 -1 
L 397.958707 106.141957 
L 398.492678 229.472888 
L 399.026649 218.938862 
L 399.560621 205.648332 
L 400.094592 182.986191 
L 400.22291 -1 
M 401.62586 -1 
L 401.696506 88.006099 
L 402.230477 88.557556 
L 402.764448 89.827874 
L 402.903124 -1 
M 403.820555 -1 
L 403.832391 4.869058 
L 403.837944 -1 
M 405.055541 -1 
L 405.434305 165.643514 
L 405.968276 112.780803 
L 406.172226 -1 
M 406.788686 -1 
L 407.036219 158.107251 
L 407.241955 -1 
M 408.044526 -1 
L 408.104161 30.91398 
L 408.20374 -1 
M 409.003446 -1 
L 409.172104 63.273864 
L 409.706075 147.803674 
L 410.240046 140.690751 
L 410.774018 7.941929 
L 411.307989 177.984829 
L 411.471582 -1 
L 411.471582 -1 
" clip-path="url(#p2e4bd30c86)" style="fill: none; stroke: #1f77b4; stroke-width: 1.5; stroke-linecap: square"/>
   </g>
   <g id="line2d_34">
    <path d="M 87.187415 91.436492 
L 89.857271 91.436504 
L 90.391243 176.314872 
L 90.925214 175.2686 
L 91.459185 178.740205 
L 92.527128 190.482904 
L 93.061099 193.256784 
L 93.59507 205.33781 
L 94.129042 210.842908 
L 94.663013 213.745684 
L 95.196984 181.936691 
L 95.730955 218.331165 
L 96.264927 233.501612 
L 96.798898 208.564332 
L 97.332869 210.274959 
L 98.400812 212.439434 
L 98.934783 214.072001 
L 99.468754 216.995059 
L 100.002726 248.118459 
L 100.536697 243.142706 
L 101.070668 239.211605 
L 101.60464 150.944378 
L 102.138611 221.664558 
L 102.672582 159.69794 
L 103.206554 239.599156 
L 104.274496 223.949499 
L 104.808467 240.649718 
L 105.87641 250.04841 
L 106.410381 259.832415 
L 106.944353 262.031201 
L 107.478324 260.791093 
L 108.012295 257.298577 
L 108.546266 258.327439 
L 109.080238 258.817496 
L 109.614209 257.274014 
L 110.14818 258.565204 
L 110.682152 257.771321 
L 111.750094 264.540117 
L 112.818037 268.095384 
L 113.352008 266.196337 
L 113.885979 265.25503 
L 114.419951 264.582969 
L 114.953922 262.897963 
L 115.487893 260.727937 
L 116.021865 260.76724 
L 116.555836 259.077202 
L 117.089807 258.199729 
L 117.623778 258.917382 
L 118.15775 261.087149 
L 118.691721 262.774531 
L 119.225692 264.959435 
L 119.759664 265.022578 
L 120.293635 266.572803 
L 120.827606 267.38541 
L 121.361577 266.963298 
L 121.895549 265.305694 
L 122.42952 261.99089 
L 122.963491 262.168139 
L 123.497463 255.74629 
L 124.031434 261.775523 
L 126.167319 261.775525 
L 126.70129 264.215035 
L 127.235262 261.775584 
L 127.769233 262.331876 
L 128.303204 265.946272 
L 128.837176 265.997611 
L 129.371147 263.426497 
L 129.905118 261.775522 
L 149.128085 261.775565 
L 149.662056 262.728646 
L 150.196027 265.929827 
L 150.729999 265.533626 
L 151.26397 264.472799 
L 151.797941 264.513702 
L 152.331912 261.775462 
L 157.137654 261.778062 
L 157.671625 267.113761 
L 158.739568 263.040992 
L 159.273539 262.062476 
L 159.80751 261.775511 
L 160.875453 261.7755 
L 161.409424 263.273761 
L 172.08885 263.27453 
L 173.156793 266.268469 
L 173.690764 263.273831 
L 174.224735 263.743772 
L 174.758707 263.273757 
L 178.496506 263.273759 
L 179.564448 264.996151 
L 180.09842 266.955828 
L 180.632391 266.95872 
L 181.700333 264.064541 
L 182.234305 263.27376 
L 185.972104 263.273762 
L 186.506075 263.795113 
L 187.040046 265.794853 
L 187.574018 266.81794 
L 188.107989 267.174728 
L 188.64196 264.674959 
L 189.175932 264.819708 
L 189.709903 263.678308 
L 190.243874 263.273783 
L 191.311817 263.289971 
L 191.845788 263.433546 
L 192.379759 263.273766 
L 192.913731 263.27377 
L 193.447702 263.659836 
L 193.981673 265.565928 
L 194.515644 264.682966 
L 195.049616 267.026803 
L 195.583587 266.948071 
L 196.117558 264.341082 
L 197.185501 263.273762 
L 198.253443 263.273766 
L 198.787415 264.222268 
L 201.457271 264.222287 
L 201.991243 264.857128 
L 202.525214 266.684435 
L 203.059185 266.965835 
L 203.593156 264.222284 
L 209.466841 264.222278 
L 210.000812 266.794966 
L 210.534783 266.82199 
L 211.068754 264.303446 
L 215.340525 264.222265 
L 215.874496 264.222253 
L 216.408467 265.238869 
L 216.942439 264.883699 
L 217.47641 267.553586 
L 218.010381 266.453736 
L 218.544353 264.22229 
L 223.884065 264.222281 
L 224.418037 266.797266 
L 224.952008 266.506102 
L 225.485979 264.2223 
L 235.631434 264.222288 
L 236.165405 258.851649 
L 237.767319 258.85165 
L 238.30129 262.168486 
L 238.835262 258.851643 
L 244.708946 258.851652 
L 245.242917 259.820648 
L 245.776888 258.851629 
L 273.009424 258.851651 
L 273.543396 257.866009 
L 310.387415 257.866009 
L 310.921386 259.584009 
L 347.765405 259.584009 
L 348.299376 257.562049 
L 385.143396 257.56205 
L 385.677367 226.931578 
L 386.211338 226.931574 
L 386.74531 246.369556 
L 387.279281 230.852013 
L 387.813252 226.931576 
L 390.483109 226.931575 
L 391.01708 239.350599 
L 391.551051 226.93158 
L 392.085022 257.600767 
L 392.618994 226.931558 
L 411.84196 226.930244 
L 411.84196 226.930244 
" clip-path="url(#p2e4bd30c86)" style="fill: none; stroke: #ff7f0e; stroke-width: 1.5; stroke-linecap: square"/>
   </g>
   <g id="patch_3">
    <path d="M 70.954688 279.010828 
L 70.954688 12.898828 
" style="fill: none; stroke: #000000; stroke-width: 0.8; stroke-linejoin: miter; stroke-linecap: square"/>
   </g>
   <g id="patch_4">
    <path d="M 428.074687 279.010828 
L 428.074687 12.898828 
" style="fill: none; stroke: #000000; stroke-width: 0.8; stroke-linejoin: miter; stroke-linecap: square"/>
   </g>
   <g id="patch_5">
    <path d="M 70.954687 279.010828 
L 428.074687 279.010828 
" style="fill: none; stroke: #000000; stroke-width: 0.8; stroke-linejoin: miter; stroke-linecap: square"/>
   </g>
   <g id="patch_6">
    <path d="M 70.954687 12.898828 
L 428.074687 12.898828 
" style="fill: none; stroke: #000000; stroke-width: 0.8; stroke-linejoin: miter; stroke-linecap: square"/>
   </g>
   <g id="legend_1">
    <g id="patch_7">
     <path d="M 182.45375 35.576953 
L 316.575625 35.576953 
Q 318.575625 35.576953 318.575625 33.576953 
L 318.575625 19.898828 
Q 318.575625 17.898828 316.575625 17.898828 
L 182.45375 17.898828 
Q 180.45375 17.898828 180.45375 19.898828 
L 180.45375 33.576953 
Q 180.45375 35.576953 182.45375 35.576953 
z
" style="fill: #ffffff; opacity: 0.8; stroke: #cccccc; stroke-linejoin: miter"/>
    </g>
    <g id="line2d_35">
     <path d="M 184.45375 25.997266 
L 194.45375 25.997266 
L 204.45375 25.997266 
" style="fill: none; stroke: #1f77b4; stroke-width: 1.5; stroke-linecap: square"/>
    </g>
    <g id="text_19">
     <!-- local -->
     <g transform="translate(212.45375 29.497266) scale(0.1 -0.1)">
      <defs>
       <path id="DejaVuSans-6c" d="M 603 4863 
L 1178 4863 
L 1178 0 
L 603 0 
L 603 4863 
z
" transform="scale(0.015625)"/>
       <path id="DejaVuSans-61" d="M 2194 1759 
Q 1497 1759 1228 1600 
Q 959 1441 959 1056 
Q 959 750 1161 570 
Q 1363 391 1709 391 
Q 2188 391 2477 730 
Q 2766 1069 2766 1631 
L 2766 1759 
L 2194 1759 
z
M 3341 1997 
L 3341 0 
L 2766 0 
L 2766 531 
Q 2569 213 2275 61 
Q 1981 -91 1556 -91 
Q 1019 -91 701 211 
Q 384 513 384 1019 
Q 384 1609 779 1909 
Q 1175 2209 1959 2209 
L 2766 2209 
L 2766 2266 
Q 2766 2663 2505 2880 
Q 2244 3097 1772 3097 
Q 1472 3097 1187 3025 
Q 903 2953 641 2809 
L 641 3341 
Q 956 3463 1253 3523 
Q 1550 3584 1831 3584 
Q 2591 3584 2966 3190 
Q 3341 2797 3341 1997 
z
" transform="scale(0.015625)"/>
      </defs>
      <use xlink:href="#DejaVuSans-6c"/>
      <use xlink:href="#DejaVuSans-6f" x="27.783203"/>
      <use xlink:href="#DejaVuSans-63" x="88.964844"/>
      <use xlink:href="#DejaVuSans-61" x="143.945312"/>
      <use xlink:href="#DejaVuSans-6c" x="205.224609"/>
     </g>
    </g>
    <g id="line2d_36">
     <path d="M 255.755313 25.997266 
L 265.755313 25.997266 
L 275.755313 25.997266 
" style="fill: none; stroke: #ff7f0e; stroke-width: 1.5; stroke-linecap: square"/>
    </g>
    <g id="text_20">
     <!-- blk 70 -->
     <g transform="translate(283.755313 29.497266) scale(0.1 -0.1)">
      <defs>
       <path id="DejaVuSans-62" d="M 3116 1747 
Q 3116 2381 2855 2742 
Q 2594 3103 2138 3103 
Q 1681 3103 1420 2742 
Q 1159 2381 1159 1747 
Q 1159 1113 1420 752 
Q 1681 391 2138 391 
Q 2594 391 2855 752 
Q 3116 1113 3116 1747 
z
M 1159 2969 
Q 1341 3281 1617 3432 
Q 1894 3584 2278 3584 
Q 2916 3584 3314 3078 
Q 3713 2572 3713 1747 
Q 3713 922 3314 415 
Q 2916 -91 2278 -91 
Q 1894 -91 1617 61 
Q 1341 213 1159 525 
L 1159 0 
L 581 0 
L 581 4863 
L 1159 4863 
L 1159 2969 
z
" transform="scale(0.015625)"/>
       <path id="DejaVuSans-6b" d="M 581 4863 
L 1159 4863 
L 1159 1991 
L 2875 3500 
L 3609 3500 
L 1753 1863 
L 3688 0 
L 2938 0 
L 1159 1709 
L 1159 0 
L 581 0 
L 581 4863 
z
" transform="scale(0.015625)"/>
      </defs>
      <use xlink:href="#DejaVuSans-62"/>
      <use xlink:href="#DejaVuSans-6c" x="63.476562"/>
      <use xlink:href="#DejaVuSans-6b" x="91.259766"/>
      <use xlink:href="#DejaVuSans-20" x="149.169922"/>
      <use xlink:href="#DejaVuSans-37" x="180.957031"/>
      <use xlink:href="#DejaVuSans-30" x="244.580078"/>
     </g>
    </g>
   </g>
  </g>
 </g>
 <defs>
  <clipPath id="p2e4bd30c86">
   <rect x="70.954688" y="12.898828" width="357.12" height="266.112"/>
  </clipPath>
 </defs>
</svg>
