<?xml version="1.0" encoding="utf-8" standalone="no"?>
<!DOCTYPE svg PUBLIC "-//W3C//DTD SVG 1.1//EN"
  "http://www.w3.org/Graphics/SVG/1.1/DTD/svg11.dtd">
<svg xmlns:xlink="http://www.w3.org/1999/xlink" width="425.433281pt" height="325.429187pt" viewBox="0 0 425.433281 325.429187" xmlns="http://www.w3.org/2000/svg" version="1.1">
 <defs>
  <style type="text/css">*{stroke-linejoin: round; stroke-linecap: butt}</style>
 </defs>
 <g id="figure_1">
  <g id="patch_1">
   <path d="M 0 325.429187 
L 425.433281 325.429187 
L 425.433281 0 
L 0 0 
L 0 325.429187 
z
" style="fill: none"/>
  </g>
  <g id="axes_1">
   <g id="patch_2">
    <path d="M 61.113281 273.312 
L 418.233281 273.312 
L 418.233281 7.2 
L 61.113281 7.2 
L 61.113281 273.312 
z
" style="fill: none"/>
   </g>
   <g id="matplotlib.axis_1">
    <g id="xtick_1">
     <g id="line2d_1">
      <path d="M 101.522411 273.312 
L 101.522411 7.2 
" clip-path="url(#pc029fbf4bd)" style="fill: none; stroke: #b0b0b0; stroke-width: 0.8; stroke-linecap: square"/>
     </g>
     <g id="line2d_2">
      <defs>
       <path id="md39032bed2" d="M 0 0 
L 0 3.5 
" style="stroke: #000000; stroke-width: 0.8"/>
      </defs>
      <g>
       <use xlink:href="#md39032bed2" x="101.522411" y="273.312" style="stroke: #000000; stroke-width: 0.8"/>
      </g>
     </g>
     <g id="text_1">
      <!-- −2000 -->
      <g transform="translate(76.150145 291.709656)scale(0.15 -0.15)">
       <defs>
        <path id="DejaVuSans-2212" d="M 678 2272 
L 4684 2272 
L 4684 1741 
L 678 1741 
L 678 2272 
z
" transform="scale(0.015625)"/>
        <path id="DejaVuSans-32" d="M 1228 531 
L 3431 531 
L 3431 0 
L 469 0 
L 469 531 
Q 828 903 1448 1529 
Q 2069 2156 2228 2338 
Q 2531 2678 2651 2914 
Q 2772 3150 2772 3378 
Q 2772 3750 2511 3984 
Q 2250 4219 1831 4219 
Q 1534 4219 1204 4116 
Q 875 4013 500 3803 
L 500 4441 
Q 881 4594 1212 4672 
Q 1544 4750 1819 4750 
Q 2544 4750 2975 4387 
Q 3406 4025 3406 3419 
Q 3406 3131 3298 2873 
Q 3191 2616 2906 2266 
Q 2828 2175 2409 1742 
Q 1991 1309 1228 531 
z
" transform="scale(0.015625)"/>
        <path id="DejaVuSans-30" d="M 2034 4250 
Q 1547 4250 1301 3770 
Q 1056 3291 1056 2328 
Q 1056 1369 1301 889 
Q 1547 409 2034 409 
Q 2525 409 2770 889 
Q 3016 1369 3016 2328 
Q 3016 3291 2770 3770 
Q 2525 4250 2034 4250 
z
M 2034 4750 
Q 2819 4750 3233 4129 
Q 3647 3509 3647 2328 
Q 3647 1150 3233 529 
Q 2819 -91 2034 -91 
Q 1250 -91 836 529 
Q 422 1150 422 2328 
Q 422 3509 836 4129 
Q 1250 4750 2034 4750 
z
" transform="scale(0.015625)"/>
       </defs>
       <use xlink:href="#DejaVuSans-2212"/>
       <use xlink:href="#DejaVuSans-32" x="83.789062"/>
       <use xlink:href="#DejaVuSans-30" x="147.412109"/>
       <use xlink:href="#DejaVuSans-30" x="211.035156"/>
       <use xlink:href="#DejaVuSans-30" x="274.658203"/>
      </g>
     </g>
    </g>
    <g id="xtick_2">
     <g id="line2d_3">
      <path d="M 170.597846 273.312 
L 170.597846 7.2 
" clip-path="url(#pc029fbf4bd)" style="fill: none; stroke: #b0b0b0; stroke-width: 0.8; stroke-linecap: square"/>
     </g>
     <g id="line2d_4">
      <g>
       <use xlink:href="#md39032bed2" x="170.597846" y="273.312" style="stroke: #000000; stroke-width: 0.8"/>
      </g>
     </g>
     <g id="text_2">
      <!-- −1000 -->
      <g transform="translate(145.22558 291.709656)scale(0.15 -0.15)">
       <defs>
        <path id="DejaVuSans-31" d="M 794 531 
L 1825 531 
L 1825 4091 
L 703 3866 
L 703 4441 
L 1819 4666 
L 2450 4666 
L 2450 531 
L 3481 531 
L 3481 0 
L 794 0 
L 794 531 
z
" transform="scale(0.015625)"/>
       </defs>
       <use xlink:href="#DejaVuSans-2212"/>
       <use xlink:href="#DejaVuSans-31" x="83.789062"/>
       <use xlink:href="#DejaVuSans-30" x="147.412109"/>
       <use xlink:href="#DejaVuSans-30" x="211.035156"/>
       <use xlink:href="#DejaVuSans-30" x="274.658203"/>
      </g>
     </g>
    </g>
    <g id="xtick_3">
     <g id="line2d_5">
      <path d="M 239.673281 273.312 
L 239.673281 7.2 
" clip-path="url(#pc029fbf4bd)" style="fill: none; stroke: #b0b0b0; stroke-width: 0.8; stroke-linecap: square"/>
     </g>
     <g id="line2d_6">
      <g>
       <use xlink:href="#md39032bed2" x="239.673281" y="273.312" style="stroke: #000000; stroke-width: 0.8"/>
      </g>
     </g>
     <g id="text_3">
      <!-- 0 -->
      <g transform="translate(234.901406 291.709656)scale(0.15 -0.15)">
       <use xlink:href="#DejaVuSans-30"/>
      </g>
     </g>
    </g>
    <g id="xtick_4">
     <g id="line2d_7">
      <path d="M 308.748716 273.312 
L 308.748716 7.2 
" clip-path="url(#pc029fbf4bd)" style="fill: none; stroke: #b0b0b0; stroke-width: 0.8; stroke-linecap: square"/>
     </g>
     <g id="line2d_8">
      <g>
       <use xlink:href="#md39032bed2" x="308.748716" y="273.312" style="stroke: #000000; stroke-width: 0.8"/>
      </g>
     </g>
     <g id="text_4">
      <!-- 1000 -->
      <g transform="translate(289.661216 291.709656)scale(0.15 -0.15)">
       <use xlink:href="#DejaVuSans-31"/>
       <use xlink:href="#DejaVuSans-30" x="63.623047"/>
       <use xlink:href="#DejaVuSans-30" x="127.246094"/>
       <use xlink:href="#DejaVuSans-30" x="190.869141"/>
      </g>
     </g>
    </g>
    <g id="xtick_5">
     <g id="line2d_9">
      <path d="M 377.824152 273.312 
L 377.824152 7.2 
" clip-path="url(#pc029fbf4bd)" style="fill: none; stroke: #b0b0b0; stroke-width: 0.8; stroke-linecap: square"/>
     </g>
     <g id="line2d_10">
      <g>
       <use xlink:href="#md39032bed2" x="377.824152" y="273.312" style="stroke: #000000; stroke-width: 0.8"/>
      </g>
     </g>
     <g id="text_5">
      <!-- 2000 -->
      <g transform="translate(358.736652 291.709656)scale(0.15 -0.15)">
       <use xlink:href="#DejaVuSans-32"/>
       <use xlink:href="#DejaVuSans-30" x="63.623047"/>
       <use xlink:href="#DejaVuSans-30" x="127.246094"/>
       <use xlink:href="#DejaVuSans-30" x="190.869141"/>
      </g>
     </g>
    </g>
    <g id="text_6">
     <!-- X ($\mu m$) -->
     <g transform="translate(205.673281 314.029187)scale(0.2 -0.2)">
      <defs>
       <path id="DejaVuSans-58" d="M 403 4666 
L 1081 4666 
L 2241 2931 
L 3406 4666 
L 4084 4666 
L 2584 2425 
L 4184 0 
L 3506 0 
L 2194 1984 
L 872 0 
L 191 0 
L 1856 2491 
L 403 4666 
z
" transform="scale(0.015625)"/>
       <path id="DejaVuSans-20" transform="scale(0.015625)"/>
       <path id="DejaVuSans-28" d="M 1984 4856 
Q 1566 4138 1362 3434 
Q 1159 2731 1159 2009 
Q 1159 1288 1364 580 
Q 1569 -128 1984 -844 
L 1484 -844 
Q 1016 -109 783 600 
Q 550 1309 550 2009 
Q 550 2706 781 3412 
Q 1013 4119 1484 4856 
L 1984 4856 
z
" transform="scale(0.015625)"/>
       <path id="DejaVuSans-Oblique-3bc" d="M -84 -1331 
L 856 3500 
L 1434 3500 
L 1009 1322 
Q 997 1256 987 1175 
Q 978 1094 978 1013 
Q 978 722 1161 565 
Q 1344 409 1684 409 
Q 2147 409 2431 671 
Q 2716 934 2816 1459 
L 3213 3500 
L 3788 3500 
L 3266 809 
Q 3253 750 3248 706 
Q 3244 663 3244 628 
Q 3244 531 3283 486 
Q 3322 441 3406 441 
Q 3438 441 3492 456 
Q 3547 472 3647 513 
L 3559 50 
Q 3422 -19 3297 -55 
Q 3172 -91 3053 -91 
Q 2847 -91 2730 40 
Q 2613 172 2613 403 
Q 2438 153 2195 31 
Q 1953 -91 1625 -91 
Q 1334 -91 1117 43 
Q 900 178 831 397 
L 494 -1331 
L -84 -1331 
z
" transform="scale(0.015625)"/>
       <path id="DejaVuSans-Oblique-6d" d="M 5747 2113 
L 5338 0 
L 4763 0 
L 5166 2094 
Q 5191 2228 5203 2325 
Q 5216 2422 5216 2491 
Q 5216 2772 5059 2928 
Q 4903 3084 4622 3084 
Q 4203 3084 3875 2770 
Q 3547 2456 3450 1953 
L 3066 0 
L 2491 0 
L 2900 2094 
Q 2925 2209 2937 2307 
Q 2950 2406 2950 2484 
Q 2950 2769 2794 2926 
Q 2638 3084 2363 3084 
Q 1938 3084 1609 2770 
Q 1281 2456 1184 1953 
L 800 0 
L 225 0 
L 909 3500 
L 1484 3500 
L 1375 2956 
Q 1609 3263 1923 3423 
Q 2238 3584 2597 3584 
Q 2978 3584 3223 3384 
Q 3469 3184 3519 2828 
Q 3781 3197 4126 3390 
Q 4472 3584 4856 3584 
Q 5306 3584 5551 3325 
Q 5797 3066 5797 2591 
Q 5797 2488 5784 2364 
Q 5772 2241 5747 2113 
z
" transform="scale(0.015625)"/>
       <path id="DejaVuSans-29" d="M 513 4856 
L 1013 4856 
Q 1481 4119 1714 3412 
Q 1947 2706 1947 2009 
Q 1947 1309 1714 600 
Q 1481 -109 1013 -844 
L 513 -844 
Q 928 -128 1133 580 
Q 1338 1288 1338 2009 
Q 1338 2731 1133 3434 
Q 928 4138 513 4856 
z
" transform="scale(0.015625)"/>
      </defs>
      <use xlink:href="#DejaVuSans-58" transform="translate(0 0.125)"/>
      <use xlink:href="#DejaVuSans-20" transform="translate(68.505859 0.125)"/>
      <use xlink:href="#DejaVuSans-28" transform="translate(100.292969 0.125)"/>
      <use xlink:href="#DejaVuSans-Oblique-3bc" transform="translate(139.306641 0.125)"/>
      <use xlink:href="#DejaVuSans-Oblique-6d" transform="translate(202.929688 0.125)"/>
      <use xlink:href="#DejaVuSans-29" transform="translate(300.341797 0.125)"/>
     </g>
    </g>
   </g>
   <g id="matplotlib.axis_2">
    <g id="ytick_1">
     <g id="line2d_11">
      <path d="M 61.113281 254.304 
L 418.233281 254.304 
" clip-path="url(#pc029fbf4bd)" style="fill: none; stroke: #b0b0b0; stroke-width: 0.8; stroke-linecap: square"/>
     </g>
     <g id="line2d_12">
      <defs>
       <path id="m6f3f5b6aff" d="M 0 0 
L -3.5 0 
" style="stroke: #000000; stroke-width: 0.8"/>
      </defs>
      <g>
       <use xlink:href="#m6f3f5b6aff" x="61.113281" y="254.304" style="stroke: #000000; stroke-width: 0.8"/>
      </g>
     </g>
     <g id="text_7">
      <!-- −6 -->
      <g transform="translate(32 260.002828)scale(0.15 -0.15)">
       <defs>
        <path id="DejaVuSans-36" d="M 2113 2584 
Q 1688 2584 1439 2293 
Q 1191 2003 1191 1497 
Q 1191 994 1439 701 
Q 1688 409 2113 409 
Q 2538 409 2786 701 
Q 3034 994 3034 1497 
Q 3034 2003 2786 2293 
Q 2538 2584 2113 2584 
z
M 3366 4563 
L 3366 3988 
Q 3128 4100 2886 4159 
Q 2644 4219 2406 4219 
Q 1781 4219 1451 3797 
Q 1122 3375 1075 2522 
Q 1259 2794 1537 2939 
Q 1816 3084 2150 3084 
Q 2853 3084 3261 2657 
Q 3669 2231 3669 1497 
Q 3669 778 3244 343 
Q 2819 -91 2113 -91 
Q 1303 -91 875 529 
Q 447 1150 447 2328 
Q 447 3434 972 4092 
Q 1497 4750 2381 4750 
Q 2619 4750 2861 4703 
Q 3103 4656 3366 4563 
z
" transform="scale(0.015625)"/>
       </defs>
       <use xlink:href="#DejaVuSans-2212"/>
       <use xlink:href="#DejaVuSans-36" x="83.789062"/>
      </g>
     </g>
    </g>
    <g id="ytick_2">
     <g id="line2d_13">
      <path d="M 61.113281 216.288 
L 418.233281 216.288 
" clip-path="url(#pc029fbf4bd)" style="fill: none; stroke: #b0b0b0; stroke-width: 0.8; stroke-linecap: square"/>
     </g>
     <g id="line2d_14">
      <g>
       <use xlink:href="#m6f3f5b6aff" x="61.113281" y="216.288" style="stroke: #000000; stroke-width: 0.8"/>
      </g>
     </g>
     <g id="text_8">
      <!-- −4 -->
      <g transform="translate(32 221.986828)scale(0.15 -0.15)">
       <defs>
        <path id="DejaVuSans-34" d="M 2419 4116 
L 825 1625 
L 2419 1625 
L 2419 4116 
z
M 2253 4666 
L 3047 4666 
L 3047 1625 
L 3713 1625 
L 3713 1100 
L 3047 1100 
L 3047 0 
L 2419 0 
L 2419 1100 
L 313 1100 
L 313 1709 
L 2253 4666 
z
" transform="scale(0.015625)"/>
       </defs>
       <use xlink:href="#DejaVuSans-2212"/>
       <use xlink:href="#DejaVuSans-34" x="83.789062"/>
      </g>
     </g>
    </g>
    <g id="ytick_3">
     <g id="line2d_15">
      <path d="M 61.113281 178.272 
L 418.233281 178.272 
" clip-path="url(#pc029fbf4bd)" style="fill: none; stroke: #b0b0b0; stroke-width: 0.8; stroke-linecap: square"/>
     </g>
     <g id="line2d_16">
      <g>
       <use xlink:href="#m6f3f5b6aff" x="61.113281" y="178.272" style="stroke: #000000; stroke-width: 0.8"/>
      </g>
     </g>
     <g id="text_9">
      <!-- −2 -->
      <g transform="translate(32 183.970828)scale(0.15 -0.15)">
       <use xlink:href="#DejaVuSans-2212"/>
       <use xlink:href="#DejaVuSans-32" x="83.789062"/>
      </g>
     </g>
    </g>
    <g id="ytick_4">
     <g id="line2d_17">
      <path d="M 61.113281 140.256 
L 418.233281 140.256 
" clip-path="url(#pc029fbf4bd)" style="fill: none; stroke: #b0b0b0; stroke-width: 0.8; stroke-linecap: square"/>
     </g>
     <g id="line2d_18">
      <g>
       <use xlink:href="#m6f3f5b6aff" x="61.113281" y="140.256" style="stroke: #000000; stroke-width: 0.8"/>
      </g>
     </g>
     <g id="text_10">
      <!-- 0 -->
      <g transform="translate(44.569531 145.954828)scale(0.15 -0.15)">
       <use xlink:href="#DejaVuSans-30"/>
      </g>
     </g>
    </g>
    <g id="ytick_5">
     <g id="line2d_19">
      <path d="M 61.113281 102.24 
L 418.233281 102.24 
" clip-path="url(#pc029fbf4bd)" style="fill: none; stroke: #b0b0b0; stroke-width: 0.8; stroke-linecap: square"/>
     </g>
     <g id="line2d_20">
      <g>
       <use xlink:href="#m6f3f5b6aff" x="61.113281" y="102.24" style="stroke: #000000; stroke-width: 0.8"/>
      </g>
     </g>
     <g id="text_11">
      <!-- 2 -->
      <g transform="translate(44.569531 107.938828)scale(0.15 -0.15)">
       <use xlink:href="#DejaVuSans-32"/>
      </g>
     </g>
    </g>
    <g id="ytick_6">
     <g id="line2d_21">
      <path d="M 61.113281 64.224 
L 418.233281 64.224 
" clip-path="url(#pc029fbf4bd)" style="fill: none; stroke: #b0b0b0; stroke-width: 0.8; stroke-linecap: square"/>
     </g>
     <g id="line2d_22">
      <g>
       <use xlink:href="#m6f3f5b6aff" x="61.113281" y="64.224" style="stroke: #000000; stroke-width: 0.8"/>
      </g>
     </g>
     <g id="text_12">
      <!-- 4 -->
      <g transform="translate(44.569531 69.922828)scale(0.15 -0.15)">
       <use xlink:href="#DejaVuSans-34"/>
      </g>
     </g>
    </g>
    <g id="ytick_7">
     <g id="line2d_23">
      <path d="M 61.113281 26.208 
L 418.233281 26.208 
" clip-path="url(#pc029fbf4bd)" style="fill: none; stroke: #b0b0b0; stroke-width: 0.8; stroke-linecap: square"/>
     </g>
     <g id="line2d_24">
      <g>
       <use xlink:href="#m6f3f5b6aff" x="61.113281" y="26.208" style="stroke: #000000; stroke-width: 0.8"/>
      </g>
     </g>
     <g id="text_13">
      <!-- 6 -->
      <g transform="translate(44.569531 31.906828)scale(0.15 -0.15)">
       <use xlink:href="#DejaVuSans-36"/>
      </g>
     </g>
    </g>
    <g id="text_14">
     <!-- Axial RF field ($m^{-1}$) -->
     <g transform="translate(23.840625 237.156)rotate(-90)scale(0.2 -0.2)">
      <defs>
       <path id="DejaVuSans-41" d="M 2188 4044 
L 1331 1722 
L 3047 1722 
L 2188 4044 
z
M 1831 4666 
L 2547 4666 
L 4325 0 
L 3669 0 
L 3244 1197 
L 1141 1197 
L 716 0 
L 50 0 
L 1831 4666 
z
" transform="scale(0.015625)"/>
       <path id="DejaVuSans-78" d="M 3513 3500 
L 2247 1797 
L 3578 0 
L 2900 0 
L 1881 1375 
L 863 0 
L 184 0 
L 1544 1831 
L 300 3500 
L 978 3500 
L 1906 2253 
L 2834 3500 
L 3513 3500 
z
" transform="scale(0.015625)"/>
       <path id="DejaVuSans-69" d="M 603 3500 
L 1178 3500 
L 1178 0 
L 603 0 
L 603 3500 
z
M 603 4863 
L 1178 4863 
L 1178 4134 
L 603 4134 
L 603 4863 
z
" transform="scale(0.015625)"/>
       <path id="DejaVuSans-61" d="M 2194 1759 
Q 1497 1759 1228 1600 
Q 959 1441 959 1056 
Q 959 750 1161 570 
Q 1363 391 1709 391 
Q 2188 391 2477 730 
Q 2766 1069 2766 1631 
L 2766 1759 
L 2194 1759 
z
M 3341 1997 
L 3341 0 
L 2766 0 
L 2766 531 
Q 2569 213 2275 61 
Q 1981 -91 1556 -91 
Q 1019 -91 701 211 
Q 384 513 384 1019 
Q 384 1609 779 1909 
Q 1175 2209 1959 2209 
L 2766 2209 
L 2766 2266 
Q 2766 2663 2505 2880 
Q 2244 3097 1772 3097 
Q 1472 3097 1187 3025 
Q 903 2953 641 2809 
L 641 3341 
Q 956 3463 1253 3523 
Q 1550 3584 1831 3584 
Q 2591 3584 2966 3190 
Q 3341 2797 3341 1997 
z
" transform="scale(0.015625)"/>
       <path id="DejaVuSans-6c" d="M 603 4863 
L 1178 4863 
L 1178 0 
L 603 0 
L 603 4863 
z
" transform="scale(0.015625)"/>
       <path id="DejaVuSans-52" d="M 2841 2188 
Q 3044 2119 3236 1894 
Q 3428 1669 3622 1275 
L 4263 0 
L 3584 0 
L 2988 1197 
Q 2756 1666 2539 1819 
Q 2322 1972 1947 1972 
L 1259 1972 
L 1259 0 
L 628 0 
L 628 4666 
L 2053 4666 
Q 2853 4666 3247 4331 
Q 3641 3997 3641 3322 
Q 3641 2881 3436 2590 
Q 3231 2300 2841 2188 
z
M 1259 4147 
L 1259 2491 
L 2053 2491 
Q 2509 2491 2742 2702 
Q 2975 2913 2975 3322 
Q 2975 3731 2742 3939 
Q 2509 4147 2053 4147 
L 1259 4147 
z
" transform="scale(0.015625)"/>
       <path id="DejaVuSans-46" d="M 628 4666 
L 3309 4666 
L 3309 4134 
L 1259 4134 
L 1259 2759 
L 3109 2759 
L 3109 2228 
L 1259 2228 
L 1259 0 
L 628 0 
L 628 4666 
z
" transform="scale(0.015625)"/>
       <path id="DejaVuSans-66" d="M 2375 4863 
L 2375 4384 
L 1825 4384 
Q 1516 4384 1395 4259 
Q 1275 4134 1275 3809 
L 1275 3500 
L 2222 3500 
L 2222 3053 
L 1275 3053 
L 1275 0 
L 697 0 
L 697 3053 
L 147 3053 
L 147 3500 
L 697 3500 
L 697 3744 
Q 697 4328 969 4595 
Q 1241 4863 1831 4863 
L 2375 4863 
z
" transform="scale(0.015625)"/>
       <path id="DejaVuSans-65" d="M 3597 1894 
L 3597 1613 
L 953 1613 
Q 991 1019 1311 708 
Q 1631 397 2203 397 
Q 2534 397 2845 478 
Q 3156 559 3463 722 
L 3463 178 
Q 3153 47 2828 -22 
Q 2503 -91 2169 -91 
Q 1331 -91 842 396 
Q 353 884 353 1716 
Q 353 2575 817 3079 
Q 1281 3584 2069 3584 
Q 2775 3584 3186 3129 
Q 3597 2675 3597 1894 
z
M 3022 2063 
Q 3016 2534 2758 2815 
Q 2500 3097 2075 3097 
Q 1594 3097 1305 2825 
Q 1016 2553 972 2059 
L 3022 2063 
z
" transform="scale(0.015625)"/>
       <path id="DejaVuSans-64" d="M 2906 2969 
L 2906 4863 
L 3481 4863 
L 3481 0 
L 2906 0 
L 2906 525 
Q 2725 213 2448 61 
Q 2172 -91 1784 -91 
Q 1150 -91 751 415 
Q 353 922 353 1747 
Q 353 2572 751 3078 
Q 1150 3584 1784 3584 
Q 2172 3584 2448 3432 
Q 2725 3281 2906 2969 
z
M 947 1747 
Q 947 1113 1208 752 
Q 1469 391 1925 391 
Q 2381 391 2643 752 
Q 2906 1113 2906 1747 
Q 2906 2381 2643 2742 
Q 2381 3103 1925 3103 
Q 1469 3103 1208 2742 
Q 947 2381 947 1747 
z
" transform="scale(0.015625)"/>
      </defs>
      <use xlink:href="#DejaVuSans-41" transform="translate(0 0.684375)"/>
      <use xlink:href="#DejaVuSans-78" transform="translate(68.408203 0.684375)"/>
      <use xlink:href="#DejaVuSans-69" transform="translate(127.587891 0.684375)"/>
      <use xlink:href="#DejaVuSans-61" transform="translate(155.371094 0.684375)"/>
      <use xlink:href="#DejaVuSans-6c" transform="translate(216.650391 0.684375)"/>
      <use xlink:href="#DejaVuSans-20" transform="translate(244.433594 0.684375)"/>
      <use xlink:href="#DejaVuSans-52" transform="translate(276.220703 0.684375)"/>
      <use xlink:href="#DejaVuSans-46" transform="translate(345.703125 0.684375)"/>
      <use xlink:href="#DejaVuSans-20" transform="translate(403.222656 0.684375)"/>
      <use xlink:href="#DejaVuSans-66" transform="translate(435.009766 0.684375)"/>
      <use xlink:href="#DejaVuSans-69" transform="translate(470.214844 0.684375)"/>
      <use xlink:href="#DejaVuSans-65" transform="translate(497.998047 0.684375)"/>
      <use xlink:href="#DejaVuSans-6c" transform="translate(559.521484 0.684375)"/>
      <use xlink:href="#DejaVuSans-64" transform="translate(587.304688 0.684375)"/>
      <use xlink:href="#DejaVuSans-20" transform="translate(650.78125 0.684375)"/>
      <use xlink:href="#DejaVuSans-28" transform="translate(682.568359 0.684375)"/>
      <use xlink:href="#DejaVuSans-Oblique-6d" transform="translate(721.582031 0.684375)"/>
      <use xlink:href="#DejaVuSans-2212" transform="translate(823.644036 38.965625)scale(0.7)"/>
      <use xlink:href="#DejaVuSans-31" transform="translate(882.29638 38.965625)scale(0.7)"/>
      <use xlink:href="#DejaVuSans-29" transform="translate(929.566888 0.684375)"/>
     </g>
    </g>
   </g>
   <g id="line2d_25">
    <path d="M 80.338391 326.429187 
L 80.45102 -1 
M 82.848309 -1 
L 83.217421 238.004705 
L 83.421529 326.429187 
M 85.291524 326.429187 
L 86.48753 -1 
M 89.325915 -1 
L 90.124964 127.336091 
L 90.470341 167.541467 
L 90.815718 193.409726 
L 91.161096 202.944948 
L 91.506473 197.968082 
L 91.85185 180.0149 
L 93.578736 47.932191 
L 93.924113 45.042019 
L 94.26949 55.92828 
L 94.614867 79.237684 
L 95.996376 205.477686 
L 96.341753 217.591873 
L 96.68713 214.380272 
L 97.032508 195.855129 
L 97.723262 124.507405 
L 98.414016 42.407026 
L 98.759393 11.968922 
L 99.018306 -1 
M 99.630394 -1 
L 99.795525 4.934508 
L 100.486279 58.717607 
L 101.177034 112.52082 
L 101.522411 126.716085 
L 101.867788 128.814769 
L 102.213165 119.479555 
L 103.594674 50.338575 
L 103.940051 51.399146 
L 104.285428 67.191378 
L 104.630805 97.630819 
L 105.32156 189.179525 
L 106.012314 282.793802 
L 106.568393 326.429187 
M 107.362873 326.429187 
L 107.393823 325.460604 
L 108.084577 278.838213 
L 108.775332 231.630278 
L 109.120709 217.984807 
L 109.466086 213.139401 
L 109.811463 216.069842 
L 110.502217 231.868229 
L 110.847595 235.404604 
L 111.192972 229.783841 
L 111.538349 211.489719 
L 111.883726 178.545455 
L 112.57448 68.920686 
L 112.904471 -1 
M 138.65014 -1 
L 139.5139 26.8965 
L 140.550032 55.275183 
L 141.586163 78.227656 
L 142.622295 95.202438 
L 143.658426 107.794124 
L 145.730689 129.125543 
L 146.766821 137.370966 
L 147.457575 141.189004 
L 148.493707 145.183103 
L 150.56597 151.817591 
L 151.256724 153.054138 
L 151.602101 153.332003 
L 152.292856 153.408029 
L 152.98361 153.468564 
L 153.328987 153.74837 
L 153.674364 154.294938 
L 154.365119 156.24654 
L 156.092005 162.656968 
L 156.437382 163.407067 
L 156.782759 163.867206 
L 157.128136 164.069275 
L 157.818891 163.990414 
L 158.509645 163.831794 
L 159.200399 164.019598 
L 160.581908 164.802925 
L 160.927285 164.775753 
L 161.272662 164.598633 
L 161.963417 163.901361 
L 162.654171 163.171872 
L 162.999548 162.981279 
L 163.344925 162.982938 
L 163.690303 163.196897 
L 164.381057 164.154877 
L 165.417188 165.846607 
L 165.762566 166.142876 
L 166.107943 166.217944 
L 166.45332 166.06853 
L 167.144074 165.271193 
L 167.834829 164.350279 
L 168.180206 164.056466 
L 168.525583 163.952057 
L 168.87096 164.056765 
L 169.561715 164.758618 
L 170.252469 165.638457 
L 170.597846 165.934256 
L 170.943223 166.046737 
L 171.2886 165.954947 
L 171.979355 165.247595 
L 173.015486 163.885183 
L 173.360863 163.636597 
L 173.706241 163.547016 
L 174.396995 163.749519 
L 175.087749 164.021116 
L 175.433127 163.996989 
L 175.778504 163.797374 
L 176.469258 162.859766 
L 177.50539 160.94726 
L 177.850767 160.503012 
L 178.196144 160.266077 
L 178.541521 160.251962 
L 178.886898 160.434268 
L 180.268407 161.59837 
L 180.613784 161.576421 
L 180.959161 161.342188 
L 181.649916 160.384527 
L 182.34067 159.324601 
L 182.686047 158.986025 
L 183.031424 158.855086 
L 183.376802 158.945232 
L 184.067556 159.621105 
L 184.75831 160.38347 
L 185.103687 160.561169 
L 185.449065 160.521662 
L 185.794442 160.256882 
L 186.485196 159.225788 
L 187.17595 158.115771 
L 187.521328 157.76325 
L 187.866705 157.622294 
L 188.212082 157.699362 
L 188.902836 158.318288 
L 189.593591 158.973229 
L 189.938968 159.097845 
L 190.284345 159.015965 
L 190.629722 158.723063 
L 191.320477 157.691835 
L 192.011231 156.612901 
L 192.356608 156.26721 
L 192.701985 156.12442 
L 193.047362 156.186272 
L 193.738117 156.762618 
L 194.428871 157.423268 
L 194.774248 157.5777 
L 195.119626 157.545061 
L 195.465003 157.320771 
L 196.155757 156.450251 
L 196.846511 155.523975 
L 197.191889 155.24386 
L 197.537266 155.155626 
L 197.882643 155.276322 
L 198.573397 156.004694 
L 199.264152 156.888606 
L 199.609529 157.177212 
L 199.954906 157.284346 
L 200.300283 157.190084 
L 200.991038 156.53559 
L 201.681792 155.765612 
L 202.027169 155.557817 
L 202.372546 155.549972 
L 202.717923 155.755187 
L 203.408678 156.649819 
L 204.099432 157.624596 
L 204.444809 157.900677 
L 204.790186 157.941516 
L 205.135564 157.721076 
L 205.826318 156.623942 
L 206.86245 154.573171 
L 207.553204 153.848589 
L 208.243958 153.719256 
L 208.934713 153.647721 
L 209.28009 153.430697 
L 209.625467 153.029549 
L 210.316221 151.740961 
L 211.352353 149.668264 
L 211.69773 149.298743 
L 212.043107 149.187125 
L 212.388484 149.332966 
L 213.079239 150.181759 
L 213.769993 151.150566 
L 214.11537 151.447896 
L 214.460747 151.543976 
L 214.806125 151.428096 
L 215.496879 150.740374 
L 216.187633 149.993411 
L 216.53301 149.812677 
L 216.878388 149.829619 
L 217.223765 150.04773 
L 217.914519 150.929619 
L 218.605274 151.898626 
L 218.950651 152.211505 
L 219.296028 152.339748 
L 219.641405 152.275541 
L 220.332159 151.712186 
L 221.022914 151.069053 
L 221.368291 150.923921 
L 221.713668 150.973474 
L 222.059045 151.234779 
L 222.7498 152.256753 
L 223.785931 153.88172 
L 224.131308 154.144311 
L 224.476686 154.211693 
L 225.16744 153.90155 
L 225.858194 153.509947 
L 226.203571 153.505047 
L 226.548949 153.710486 
L 226.894326 154.139847 
L 227.58508 155.51067 
L 228.275834 156.98033 
L 228.621212 157.49984 
L 228.966589 157.77934 
L 229.311966 157.793356 
L 229.657343 157.568556 
L 231.384229 155.666618 
L 231.729606 155.635952 
L 232.420361 155.931185 
L 233.111115 156.155535 
L 233.456492 156.01921 
L 233.801869 155.642927 
L 234.492624 154.193949 
L 235.874132 150.395628 
L 236.564887 149.219421 
L 238.291773 147.430679 
L 238.982527 145.962969 
L 240.364036 142.501687 
L 240.709413 141.963765 
L 241.05479 141.655931 
L 241.400167 141.568638 
L 242.090921 141.871618 
L 242.781676 142.313736 
L 243.127053 142.40897 
L 243.47243 142.371259 
L 244.163185 141.952659 
L 244.853939 141.438863 
L 245.199316 141.317369 
L 245.544693 141.358025 
L 245.89007 141.579122 
L 246.580825 142.464091 
L 247.271579 143.496399 
L 247.616956 143.870662 
L 247.962333 144.071829 
L 248.307711 144.080366 
L 248.998465 143.632686 
L 249.689219 143.032369 
L 250.034597 142.887716 
L 250.379974 142.92991 
L 250.725351 143.178226 
L 251.416105 144.166336 
L 252.10686 145.278683 
L 252.452237 145.647198 
L 252.797614 145.797687 
L 253.142991 145.701734 
L 253.488368 145.379172 
L 255.215254 143.035613 
L 255.560631 142.953208 
L 255.906009 143.046934 
L 256.94214 143.702885 
L 257.287517 143.758924 
L 257.632894 143.627455 
L 257.978272 143.297331 
L 259.705157 140.863423 
L 260.050535 140.845192 
L 260.395912 141.105769 
L 261.086666 142.299217 
L 262.122798 144.37711 
L 262.468175 144.749546 
L 262.813552 144.870874 
L 263.158929 144.745989 
L 263.849684 143.984258 
L 264.540438 143.10512 
L 264.885815 142.82524 
L 265.231192 142.709099 
L 265.576569 142.757008 
L 267.303455 143.49129 
L 267.648833 143.310556 
L 268.339587 142.535279 
L 269.030341 141.6412 
L 269.375718 141.350839 
L 269.721096 141.252978 
L 270.066473 141.377356 
L 270.41185 141.711654 
L 272.138736 144.064363 
L 272.484113 144.115032 
L 272.82949 143.949568 
L 273.520244 143.182266 
L 274.210999 142.43514 
L 274.556376 142.28593 
L 274.901753 142.350545 
L 275.24713 142.625838 
L 276.628639 144.448579 
L 276.974016 144.62941 
L 277.319393 144.580012 
L 277.664771 144.309649 
L 279.391656 142.280211 
L 279.737034 142.319028 
L 280.082411 142.568188 
L 281.46392 144.186544 
L 281.809297 144.287491 
L 282.154674 144.159567 
L 282.845428 143.318446 
L 283.88156 141.77573 
L 284.226937 141.535322 
L 284.572314 141.507203 
L 284.917691 141.675648 
L 286.2992 142.907691 
L 286.644577 142.95365 
L 286.989954 142.804 
L 287.680709 142.031984 
L 288.371463 141.114797 
L 288.71684 140.817637 
L 289.062217 140.716068 
L 289.407595 140.8336 
L 289.752972 141.15366 
L 291.13448 143.087711 
L 291.479858 143.310857 
L 291.825235 143.315277 
L 292.170612 143.107735 
L 292.861366 142.267029 
L 293.552121 141.412201 
L 293.897498 141.179897 
L 294.242875 141.141297 
L 294.588252 141.293854 
L 295.969761 142.55816 
L 296.315138 142.626541 
L 296.660515 142.480828 
L 297.005892 142.128706 
L 298.387401 140.010708 
L 298.732778 139.762183 
L 299.078156 139.753016 
L 299.423533 139.981041 
L 300.114287 140.923387 
L 300.805041 141.888003 
L 301.150419 142.153369 
L 301.495796 142.210024 
L 301.841173 142.062475 
L 303.222682 140.848174 
L 303.568059 140.824248 
L 303.913436 141.017038 
L 304.60419 141.943719 
L 305.294945 143.066855 
L 305.640322 143.456506 
L 305.985699 143.634512 
L 306.331076 143.576895 
L 306.676453 143.301042 
L 308.057962 141.503608 
L 308.403339 141.326458 
L 308.748716 141.362625 
L 309.094094 141.599273 
L 310.82098 143.356287 
L 311.166357 143.337934 
L 311.857111 142.86331 
L 312.547865 142.275035 
L 312.893243 142.152806 
L 313.23862 142.232447 
L 313.583997 142.539753 
L 314.274751 143.727086 
L 315.310883 145.779023 
L 315.65626 146.175462 
L 316.001637 146.332272 
L 316.347014 146.249034 
L 317.037769 145.558782 
L 317.728523 144.723145 
L 318.0739 144.461358 
L 318.419277 144.375147 
L 318.764655 144.475055 
L 319.455409 145.073789 
L 320.146163 145.747143 
L 320.49154 145.945012 
L 320.836918 146.00072 
L 321.527672 145.766903 
L 322.218426 145.513356 
L 322.563803 145.58934 
L 322.909181 145.891003 
L 323.254558 146.442222 
L 323.945312 148.201177 
L 325.326821 152.168299 
L 326.017575 153.309109 
L 327.053707 154.443285 
L 327.399084 155.026455 
L 328.089838 156.944019 
L 328.780593 159.905305 
L 330.852856 169.931822 
L 331.888987 174.413647 
L 332.579742 178.427101 
L 333.270496 183.823039 
L 334.306627 194.04607 
L 336.378891 217.093198 
L 337.069645 226.65271 
L 337.760399 238.545128 
L 338.796531 261.471235 
L 339.832662 289.947227 
L 340.926412 326.429187 
M 366.569379 326.429187 
L 367.117459 221.775172 
L 367.808214 141.187554 
L 368.153591 123.427458 
L 368.498968 118.617864 
L 368.844345 123.124841 
L 369.535099 140.532747 
L 369.880477 143.642675 
L 370.225854 138.343021 
L 370.571231 123.587496 
L 371.261985 72.903522 
L 371.95274 23.244062 
L 372.298117 12.173549 
L 372.643494 16.038902 
L 372.988871 36.734264 
L 373.334248 73.485424 
L 375.216727 326.429187 
M 376.138323 326.429187 
L 377.133397 266.769217 
L 377.478774 256.23679 
L 377.824152 258.058426 
L 378.169529 273.18866 
L 378.790805 326.429187 
M 381.284899 326.429187 
L 381.968678 243.380245 
L 382.314055 211.667902 
L 382.659432 193.687975 
L 383.004809 192.158633 
L 383.350186 207.197049 
L 384.040941 274.37831 
L 384.490277 326.429187 
M 386.669347 326.429187 
L 387.494713 246.349241 
L 387.84009 224.897222 
L 388.185467 217.170625 
L 388.530844 225.707068 
L 388.876221 251.207508 
L 389.440418 326.429187 
M 393.061722 326.429187 
L 393.964034 -1 
M 396.381182 -1 
L 396.474519 55.374375 
L 396.79892 326.429187 
M 398.881235 326.429187 
L 398.990066 -1 
L 398.990066 -1 
" clip-path="url(#pc029fbf4bd)" style="fill: none; stroke: #1f77b4; stroke-width: 1.5; stroke-linecap: square"/>
   </g>
   <g id="patch_3">
    <path d="M 61.113281 273.312 
L 61.113281 7.2 
" style="fill: none; stroke: #000000; stroke-width: 0.8; stroke-linejoin: miter; stroke-linecap: square"/>
   </g>
   <g id="patch_4">
    <path d="M 418.233281 273.312 
L 418.233281 7.2 
" style="fill: none; stroke: #000000; stroke-width: 0.8; stroke-linejoin: miter; stroke-linecap: square"/>
   </g>
   <g id="patch_5">
    <path d="M 61.113281 273.312 
L 418.233281 273.312 
" style="fill: none; stroke: #000000; stroke-width: 0.8; stroke-linejoin: miter; stroke-linecap: square"/>
   </g>
   <g id="patch_6">
    <path d="M 61.113281 7.2 
L 418.233281 7.2 
" style="fill: none; stroke: #000000; stroke-width: 0.8; stroke-linejoin: miter; stroke-linecap: square"/>
   </g>
  </g>
 </g>
 <defs>
  <clipPath id="pc029fbf4bd">
   <rect x="61.113281" y="7.2" width="357.12" height="266.112"/>
  </clipPath>
 </defs>
</svg>
