<?xml version="1.0" encoding="utf-8" standalone="no"?>
<!DOCTYPE svg PUBLIC "-//W3C//DTD SVG 1.1//EN"
  "http://www.w3.org/Graphics/SVG/1.1/DTD/svg11.dtd">
<svg xmlns:xlink="http://www.w3.org/1999/xlink" width="449.487969pt" height="331.128016pt" viewBox="0 0 449.487969 331.128016" xmlns="http://www.w3.org/2000/svg" version="1.1">
 <defs>
  <style type="text/css">*{stroke-linejoin: round; stroke-linecap: butt}</style>
 </defs>
 <g id="figure_1">
  <g id="patch_1">
   <path d="M 0 331.128016 
L 449.487969 331.128016 
L 449.487969 0 
L 0 0 
L 0 331.128016 
z
" style="fill: none"/>
  </g>
  <g id="axes_1">
   <g id="patch_2">
    <path d="M 85.167969 279.010828 
L 442.287969 279.010828 
L 442.287969 12.898828 
L 85.167969 12.898828 
L 85.167969 279.010828 
z
" style="fill: none"/>
   </g>
   <g id="matplotlib.axis_1">
    <g id="xtick_1">
     <g id="line2d_1">
      <path d="M 125.577098 279.010828 
L 125.577098 12.898828 
" clip-path="url(#p8fa5908f58)" style="fill: none; stroke: #b0b0b0; stroke-width: 0.8; stroke-linecap: square"/>
     </g>
     <g id="line2d_2">
      <defs>
       <path id="md39032bed2" d="M 0 0 
L 0 3.5 
" style="stroke: #000000; stroke-width: 0.8"/>
      </defs>
      <g>
       <use xlink:href="#md39032bed2" x="125.577098" y="279.010828" style="stroke: #000000; stroke-width: 0.8"/>
      </g>
     </g>
     <g id="text_1">
      <!-- −2000 -->
      <g transform="translate(100.204833 297.408484)scale(0.15 -0.15)">
       <defs>
        <path id="DejaVuSans-2212" d="M 678 2272 
L 4684 2272 
L 4684 1741 
L 678 1741 
L 678 2272 
z
" transform="scale(0.015625)"/>
        <path id="DejaVuSans-32" d="M 1228 531 
L 3431 531 
L 3431 0 
L 469 0 
L 469 531 
Q 828 903 1448 1529 
Q 2069 2156 2228 2338 
Q 2531 2678 2651 2914 
Q 2772 3150 2772 3378 
Q 2772 3750 2511 3984 
Q 2250 4219 1831 4219 
Q 1534 4219 1204 4116 
Q 875 4013 500 3803 
L 500 4441 
Q 881 4594 1212 4672 
Q 1544 4750 1819 4750 
Q 2544 4750 2975 4387 
Q 3406 4025 3406 3419 
Q 3406 3131 3298 2873 
Q 3191 2616 2906 2266 
Q 2828 2175 2409 1742 
Q 1991 1309 1228 531 
z
" transform="scale(0.015625)"/>
        <path id="DejaVuSans-30" d="M 2034 4250 
Q 1547 4250 1301 3770 
Q 1056 3291 1056 2328 
Q 1056 1369 1301 889 
Q 1547 409 2034 409 
Q 2525 409 2770 889 
Q 3016 1369 3016 2328 
Q 3016 3291 2770 3770 
Q 2525 4250 2034 4250 
z
M 2034 4750 
Q 2819 4750 3233 4129 
Q 3647 3509 3647 2328 
Q 3647 1150 3233 529 
Q 2819 -91 2034 -91 
Q 1250 -91 836 529 
Q 422 1150 422 2328 
Q 422 3509 836 4129 
Q 1250 4750 2034 4750 
z
" transform="scale(0.015625)"/>
       </defs>
       <use xlink:href="#DejaVuSans-2212"/>
       <use xlink:href="#DejaVuSans-32" x="83.789062"/>
       <use xlink:href="#DejaVuSans-30" x="147.412109"/>
       <use xlink:href="#DejaVuSans-30" x="211.035156"/>
       <use xlink:href="#DejaVuSans-30" x="274.658203"/>
      </g>
     </g>
    </g>
    <g id="xtick_2">
     <g id="line2d_3">
      <path d="M 194.652534 279.010828 
L 194.652534 12.898828 
" clip-path="url(#p8fa5908f58)" style="fill: none; stroke: #b0b0b0; stroke-width: 0.8; stroke-linecap: square"/>
     </g>
     <g id="line2d_4">
      <g>
       <use xlink:href="#md39032bed2" x="194.652534" y="279.010828" style="stroke: #000000; stroke-width: 0.8"/>
      </g>
     </g>
     <g id="text_2">
      <!-- −1000 -->
      <g transform="translate(169.280268 297.408484)scale(0.15 -0.15)">
       <defs>
        <path id="DejaVuSans-31" d="M 794 531 
L 1825 531 
L 1825 4091 
L 703 3866 
L 703 4441 
L 1819 4666 
L 2450 4666 
L 2450 531 
L 3481 531 
L 3481 0 
L 794 0 
L 794 531 
z
" transform="scale(0.015625)"/>
       </defs>
       <use xlink:href="#DejaVuSans-2212"/>
       <use xlink:href="#DejaVuSans-31" x="83.789062"/>
       <use xlink:href="#DejaVuSans-30" x="147.412109"/>
       <use xlink:href="#DejaVuSans-30" x="211.035156"/>
       <use xlink:href="#DejaVuSans-30" x="274.658203"/>
      </g>
     </g>
    </g>
    <g id="xtick_3">
     <g id="line2d_5">
      <path d="M 263.727969 279.010828 
L 263.727969 12.898828 
" clip-path="url(#p8fa5908f58)" style="fill: none; stroke: #b0b0b0; stroke-width: 0.8; stroke-linecap: square"/>
     </g>
     <g id="line2d_6">
      <g>
       <use xlink:href="#md39032bed2" x="263.727969" y="279.010828" style="stroke: #000000; stroke-width: 0.8"/>
      </g>
     </g>
     <g id="text_3">
      <!-- 0 -->
      <g transform="translate(258.956094 297.408484)scale(0.15 -0.15)">
       <use xlink:href="#DejaVuSans-30"/>
      </g>
     </g>
    </g>
    <g id="xtick_4">
     <g id="line2d_7">
      <path d="M 332.803404 279.010828 
L 332.803404 12.898828 
" clip-path="url(#p8fa5908f58)" style="fill: none; stroke: #b0b0b0; stroke-width: 0.8; stroke-linecap: square"/>
     </g>
     <g id="line2d_8">
      <g>
       <use xlink:href="#md39032bed2" x="332.803404" y="279.010828" style="stroke: #000000; stroke-width: 0.8"/>
      </g>
     </g>
     <g id="text_4">
      <!-- 1000 -->
      <g transform="translate(313.715904 297.408484)scale(0.15 -0.15)">
       <use xlink:href="#DejaVuSans-31"/>
       <use xlink:href="#DejaVuSans-30" x="63.623047"/>
       <use xlink:href="#DejaVuSans-30" x="127.246094"/>
       <use xlink:href="#DejaVuSans-30" x="190.869141"/>
      </g>
     </g>
    </g>
    <g id="xtick_5">
     <g id="line2d_9">
      <path d="M 401.878839 279.010828 
L 401.878839 12.898828 
" clip-path="url(#p8fa5908f58)" style="fill: none; stroke: #b0b0b0; stroke-width: 0.8; stroke-linecap: square"/>
     </g>
     <g id="line2d_10">
      <g>
       <use xlink:href="#md39032bed2" x="401.878839" y="279.010828" style="stroke: #000000; stroke-width: 0.8"/>
      </g>
     </g>
     <g id="text_5">
      <!-- 2000 -->
      <g transform="translate(382.791339 297.408484)scale(0.15 -0.15)">
       <use xlink:href="#DejaVuSans-32"/>
       <use xlink:href="#DejaVuSans-30" x="63.623047"/>
       <use xlink:href="#DejaVuSans-30" x="127.246094"/>
       <use xlink:href="#DejaVuSans-30" x="190.869141"/>
      </g>
     </g>
    </g>
    <g id="text_6">
     <!-- X ($\mu m$) -->
     <g transform="translate(229.727969 319.728016)scale(0.2 -0.2)">
      <defs>
       <path id="DejaVuSans-58" d="M 403 4666 
L 1081 4666 
L 2241 2931 
L 3406 4666 
L 4084 4666 
L 2584 2425 
L 4184 0 
L 3506 0 
L 2194 1984 
L 872 0 
L 191 0 
L 1856 2491 
L 403 4666 
z
" transform="scale(0.015625)"/>
       <path id="DejaVuSans-20" transform="scale(0.015625)"/>
       <path id="DejaVuSans-28" d="M 1984 4856 
Q 1566 4138 1362 3434 
Q 1159 2731 1159 2009 
Q 1159 1288 1364 580 
Q 1569 -128 1984 -844 
L 1484 -844 
Q 1016 -109 783 600 
Q 550 1309 550 2009 
Q 550 2706 781 3412 
Q 1013 4119 1484 4856 
L 1984 4856 
z
" transform="scale(0.015625)"/>
       <path id="DejaVuSans-Oblique-3bc" d="M -84 -1331 
L 856 3500 
L 1434 3500 
L 1009 1322 
Q 997 1256 987 1175 
Q 978 1094 978 1013 
Q 978 722 1161 565 
Q 1344 409 1684 409 
Q 2147 409 2431 671 
Q 2716 934 2816 1459 
L 3213 3500 
L 3788 3500 
L 3266 809 
Q 3253 750 3248 706 
Q 3244 663 3244 628 
Q 3244 531 3283 486 
Q 3322 441 3406 441 
Q 3438 441 3492 456 
Q 3547 472 3647 513 
L 3559 50 
Q 3422 -19 3297 -55 
Q 3172 -91 3053 -91 
Q 2847 -91 2730 40 
Q 2613 172 2613 403 
Q 2438 153 2195 31 
Q 1953 -91 1625 -91 
Q 1334 -91 1117 43 
Q 900 178 831 397 
L 494 -1331 
L -84 -1331 
z
" transform="scale(0.015625)"/>
       <path id="DejaVuSans-Oblique-6d" d="M 5747 2113 
L 5338 0 
L 4763 0 
L 5166 2094 
Q 5191 2228 5203 2325 
Q 5216 2422 5216 2491 
Q 5216 2772 5059 2928 
Q 4903 3084 4622 3084 
Q 4203 3084 3875 2770 
Q 3547 2456 3450 1953 
L 3066 0 
L 2491 0 
L 2900 2094 
Q 2925 2209 2937 2307 
Q 2950 2406 2950 2484 
Q 2950 2769 2794 2926 
Q 2638 3084 2363 3084 
Q 1938 3084 1609 2770 
Q 1281 2456 1184 1953 
L 800 0 
L 225 0 
L 909 3500 
L 1484 3500 
L 1375 2956 
Q 1609 3263 1923 3423 
Q 2238 3584 2597 3584 
Q 2978 3584 3223 3384 
Q 3469 3184 3519 2828 
Q 3781 3197 4126 3390 
Q 4472 3584 4856 3584 
Q 5306 3584 5551 3325 
Q 5797 3066 5797 2591 
Q 5797 2488 5784 2364 
Q 5772 2241 5747 2113 
z
" transform="scale(0.015625)"/>
       <path id="DejaVuSans-29" d="M 513 4856 
L 1013 4856 
Q 1481 4119 1714 3412 
Q 1947 2706 1947 2009 
Q 1947 1309 1714 600 
Q 1481 -109 1013 -844 
L 513 -844 
Q 928 -128 1133 580 
Q 1338 1288 1338 2009 
Q 1338 2731 1133 3434 
Q 928 4138 513 4856 
z
" transform="scale(0.015625)"/>
      </defs>
      <use xlink:href="#DejaVuSans-58" transform="translate(0 0.125)"/>
      <use xlink:href="#DejaVuSans-20" transform="translate(68.505859 0.125)"/>
      <use xlink:href="#DejaVuSans-28" transform="translate(100.292969 0.125)"/>
      <use xlink:href="#DejaVuSans-Oblique-3bc" transform="translate(139.306641 0.125)"/>
      <use xlink:href="#DejaVuSans-Oblique-6d" transform="translate(202.929688 0.125)"/>
      <use xlink:href="#DejaVuSans-29" transform="translate(300.341797 0.125)"/>
     </g>
    </g>
   </g>
   <g id="matplotlib.axis_2">
    <g id="ytick_1">
     <g id="line2d_11">
      <path d="M 85.167969 279.010828 
L 442.287969 279.010828 
" clip-path="url(#p8fa5908f58)" style="fill: none; stroke: #b0b0b0; stroke-width: 0.8; stroke-linecap: square"/>
     </g>
     <g id="line2d_12">
      <defs>
       <path id="m6f3f5b6aff" d="M 0 0 
L -3.5 0 
" style="stroke: #000000; stroke-width: 0.8"/>
      </defs>
      <g>
       <use xlink:href="#m6f3f5b6aff" x="85.167969" y="279.010828" style="stroke: #000000; stroke-width: 0.8"/>
      </g>
     </g>
     <g id="text_7">
      <!-- −1.00 -->
      <g transform="translate(32.2 284.709656)scale(0.15 -0.15)">
       <defs>
        <path id="DejaVuSans-2e" d="M 684 794 
L 1344 794 
L 1344 0 
L 684 0 
L 684 794 
z
" transform="scale(0.015625)"/>
       </defs>
       <use xlink:href="#DejaVuSans-2212"/>
       <use xlink:href="#DejaVuSans-31" x="83.789062"/>
       <use xlink:href="#DejaVuSans-2e" x="147.412109"/>
       <use xlink:href="#DejaVuSans-30" x="179.199219"/>
       <use xlink:href="#DejaVuSans-30" x="242.822266"/>
      </g>
     </g>
    </g>
    <g id="ytick_2">
     <g id="line2d_13">
      <path d="M 85.167969 245.746828 
L 442.287969 245.746828 
" clip-path="url(#p8fa5908f58)" style="fill: none; stroke: #b0b0b0; stroke-width: 0.8; stroke-linecap: square"/>
     </g>
     <g id="line2d_14">
      <g>
       <use xlink:href="#m6f3f5b6aff" x="85.167969" y="245.746828" style="stroke: #000000; stroke-width: 0.8"/>
      </g>
     </g>
     <g id="text_8">
      <!-- −0.75 -->
      <g transform="translate(32.2 251.445656)scale(0.15 -0.15)">
       <defs>
        <path id="DejaVuSans-37" d="M 525 4666 
L 3525 4666 
L 3525 4397 
L 1831 0 
L 1172 0 
L 2766 4134 
L 525 4134 
L 525 4666 
z
" transform="scale(0.015625)"/>
        <path id="DejaVuSans-35" d="M 691 4666 
L 3169 4666 
L 3169 4134 
L 1269 4134 
L 1269 2991 
Q 1406 3038 1543 3061 
Q 1681 3084 1819 3084 
Q 2600 3084 3056 2656 
Q 3513 2228 3513 1497 
Q 3513 744 3044 326 
Q 2575 -91 1722 -91 
Q 1428 -91 1123 -41 
Q 819 9 494 109 
L 494 744 
Q 775 591 1075 516 
Q 1375 441 1709 441 
Q 2250 441 2565 725 
Q 2881 1009 2881 1497 
Q 2881 1984 2565 2268 
Q 2250 2553 1709 2553 
Q 1456 2553 1204 2497 
Q 953 2441 691 2322 
L 691 4666 
z
" transform="scale(0.015625)"/>
       </defs>
       <use xlink:href="#DejaVuSans-2212"/>
       <use xlink:href="#DejaVuSans-30" x="83.789062"/>
       <use xlink:href="#DejaVuSans-2e" x="147.412109"/>
       <use xlink:href="#DejaVuSans-37" x="179.199219"/>
       <use xlink:href="#DejaVuSans-35" x="242.822266"/>
      </g>
     </g>
    </g>
    <g id="ytick_3">
     <g id="line2d_15">
      <path d="M 85.167969 212.482828 
L 442.287969 212.482828 
" clip-path="url(#p8fa5908f58)" style="fill: none; stroke: #b0b0b0; stroke-width: 0.8; stroke-linecap: square"/>
     </g>
     <g id="line2d_16">
      <g>
       <use xlink:href="#m6f3f5b6aff" x="85.167969" y="212.482828" style="stroke: #000000; stroke-width: 0.8"/>
      </g>
     </g>
     <g id="text_9">
      <!-- −0.50 -->
      <g transform="translate(32.2 218.181656)scale(0.15 -0.15)">
       <use xlink:href="#DejaVuSans-2212"/>
       <use xlink:href="#DejaVuSans-30" x="83.789062"/>
       <use xlink:href="#DejaVuSans-2e" x="147.412109"/>
       <use xlink:href="#DejaVuSans-35" x="179.199219"/>
       <use xlink:href="#DejaVuSans-30" x="242.822266"/>
      </g>
     </g>
    </g>
    <g id="ytick_4">
     <g id="line2d_17">
      <path d="M 85.167969 179.218828 
L 442.287969 179.218828 
" clip-path="url(#p8fa5908f58)" style="fill: none; stroke: #b0b0b0; stroke-width: 0.8; stroke-linecap: square"/>
     </g>
     <g id="line2d_18">
      <g>
       <use xlink:href="#m6f3f5b6aff" x="85.167969" y="179.218828" style="stroke: #000000; stroke-width: 0.8"/>
      </g>
     </g>
     <g id="text_10">
      <!-- −0.25 -->
      <g transform="translate(32.2 184.917656)scale(0.15 -0.15)">
       <use xlink:href="#DejaVuSans-2212"/>
       <use xlink:href="#DejaVuSans-30" x="83.789062"/>
       <use xlink:href="#DejaVuSans-2e" x="147.412109"/>
       <use xlink:href="#DejaVuSans-32" x="179.199219"/>
       <use xlink:href="#DejaVuSans-35" x="242.822266"/>
      </g>
     </g>
    </g>
    <g id="ytick_5">
     <g id="line2d_19">
      <path d="M 85.167969 145.954828 
L 442.287969 145.954828 
" clip-path="url(#p8fa5908f58)" style="fill: none; stroke: #b0b0b0; stroke-width: 0.8; stroke-linecap: square"/>
     </g>
     <g id="line2d_20">
      <g>
       <use xlink:href="#m6f3f5b6aff" x="85.167969" y="145.954828" style="stroke: #000000; stroke-width: 0.8"/>
      </g>
     </g>
     <g id="text_11">
      <!-- 0.00 -->
      <g transform="translate(44.769531 151.653656)scale(0.15 -0.15)">
       <use xlink:href="#DejaVuSans-30"/>
       <use xlink:href="#DejaVuSans-2e" x="63.623047"/>
       <use xlink:href="#DejaVuSans-30" x="95.410156"/>
       <use xlink:href="#DejaVuSans-30" x="159.033203"/>
      </g>
     </g>
    </g>
    <g id="ytick_6">
     <g id="line2d_21">
      <path d="M 85.167969 112.690828 
L 442.287969 112.690828 
" clip-path="url(#p8fa5908f58)" style="fill: none; stroke: #b0b0b0; stroke-width: 0.8; stroke-linecap: square"/>
     </g>
     <g id="line2d_22">
      <g>
       <use xlink:href="#m6f3f5b6aff" x="85.167969" y="112.690828" style="stroke: #000000; stroke-width: 0.8"/>
      </g>
     </g>
     <g id="text_12">
      <!-- 0.25 -->
      <g transform="translate(44.769531 118.389656)scale(0.15 -0.15)">
       <use xlink:href="#DejaVuSans-30"/>
       <use xlink:href="#DejaVuSans-2e" x="63.623047"/>
       <use xlink:href="#DejaVuSans-32" x="95.410156"/>
       <use xlink:href="#DejaVuSans-35" x="159.033203"/>
      </g>
     </g>
    </g>
    <g id="ytick_7">
     <g id="line2d_23">
      <path d="M 85.167969 79.426828 
L 442.287969 79.426828 
" clip-path="url(#p8fa5908f58)" style="fill: none; stroke: #b0b0b0; stroke-width: 0.8; stroke-linecap: square"/>
     </g>
     <g id="line2d_24">
      <g>
       <use xlink:href="#m6f3f5b6aff" x="85.167969" y="79.426828" style="stroke: #000000; stroke-width: 0.8"/>
      </g>
     </g>
     <g id="text_13">
      <!-- 0.50 -->
      <g transform="translate(44.769531 85.125656)scale(0.15 -0.15)">
       <use xlink:href="#DejaVuSans-30"/>
       <use xlink:href="#DejaVuSans-2e" x="63.623047"/>
       <use xlink:href="#DejaVuSans-35" x="95.410156"/>
       <use xlink:href="#DejaVuSans-30" x="159.033203"/>
      </g>
     </g>
    </g>
    <g id="ytick_8">
     <g id="line2d_25">
      <path d="M 85.167969 46.162828 
L 442.287969 46.162828 
" clip-path="url(#p8fa5908f58)" style="fill: none; stroke: #b0b0b0; stroke-width: 0.8; stroke-linecap: square"/>
     </g>
     <g id="line2d_26">
      <g>
       <use xlink:href="#m6f3f5b6aff" x="85.167969" y="46.162828" style="stroke: #000000; stroke-width: 0.8"/>
      </g>
     </g>
     <g id="text_14">
      <!-- 0.75 -->
      <g transform="translate(44.769531 51.861656)scale(0.15 -0.15)">
       <use xlink:href="#DejaVuSans-30"/>
       <use xlink:href="#DejaVuSans-2e" x="63.623047"/>
       <use xlink:href="#DejaVuSans-37" x="95.410156"/>
       <use xlink:href="#DejaVuSans-35" x="159.033203"/>
      </g>
     </g>
    </g>
    <g id="ytick_9">
     <g id="line2d_27">
      <path d="M 85.167969 12.898828 
L 442.287969 12.898828 
" clip-path="url(#p8fa5908f58)" style="fill: none; stroke: #b0b0b0; stroke-width: 0.8; stroke-linecap: square"/>
     </g>
     <g id="line2d_28">
      <g>
       <use xlink:href="#m6f3f5b6aff" x="85.167969" y="12.898828" style="stroke: #000000; stroke-width: 0.8"/>
      </g>
     </g>
     <g id="text_15">
      <!-- 1.00 -->
      <g transform="translate(44.769531 18.597656)scale(0.15 -0.15)">
       <use xlink:href="#DejaVuSans-31"/>
       <use xlink:href="#DejaVuSans-2e" x="63.623047"/>
       <use xlink:href="#DejaVuSans-30" x="95.410156"/>
       <use xlink:href="#DejaVuSans-30" x="159.033203"/>
      </g>
     </g>
    </g>
    <g id="text_16">
     <!-- Violation ($mm^{-2}$) -->
     <g transform="translate(24.040625 231.354828)rotate(-90)scale(0.2 -0.2)">
      <defs>
       <path id="DejaVuSans-56" d="M 1831 0 
L 50 4666 
L 709 4666 
L 2188 738 
L 3669 4666 
L 4325 4666 
L 2547 0 
L 1831 0 
z
" transform="scale(0.015625)"/>
       <path id="DejaVuSans-69" d="M 603 3500 
L 1178 3500 
L 1178 0 
L 603 0 
L 603 3500 
z
M 603 4863 
L 1178 4863 
L 1178 4134 
L 603 4134 
L 603 4863 
z
" transform="scale(0.015625)"/>
       <path id="DejaVuSans-6f" d="M 1959 3097 
Q 1497 3097 1228 2736 
Q 959 2375 959 1747 
Q 959 1119 1226 758 
Q 1494 397 1959 397 
Q 2419 397 2687 759 
Q 2956 1122 2956 1747 
Q 2956 2369 2687 2733 
Q 2419 3097 1959 3097 
z
M 1959 3584 
Q 2709 3584 3137 3096 
Q 3566 2609 3566 1747 
Q 3566 888 3137 398 
Q 2709 -91 1959 -91 
Q 1206 -91 779 398 
Q 353 888 353 1747 
Q 353 2609 779 3096 
Q 1206 3584 1959 3584 
z
" transform="scale(0.015625)"/>
       <path id="DejaVuSans-6c" d="M 603 4863 
L 1178 4863 
L 1178 0 
L 603 0 
L 603 4863 
z
" transform="scale(0.015625)"/>
       <path id="DejaVuSans-61" d="M 2194 1759 
Q 1497 1759 1228 1600 
Q 959 1441 959 1056 
Q 959 750 1161 570 
Q 1363 391 1709 391 
Q 2188 391 2477 730 
Q 2766 1069 2766 1631 
L 2766 1759 
L 2194 1759 
z
M 3341 1997 
L 3341 0 
L 2766 0 
L 2766 531 
Q 2569 213 2275 61 
Q 1981 -91 1556 -91 
Q 1019 -91 701 211 
Q 384 513 384 1019 
Q 384 1609 779 1909 
Q 1175 2209 1959 2209 
L 2766 2209 
L 2766 2266 
Q 2766 2663 2505 2880 
Q 2244 3097 1772 3097 
Q 1472 3097 1187 3025 
Q 903 2953 641 2809 
L 641 3341 
Q 956 3463 1253 3523 
Q 1550 3584 1831 3584 
Q 2591 3584 2966 3190 
Q 3341 2797 3341 1997 
z
" transform="scale(0.015625)"/>
       <path id="DejaVuSans-74" d="M 1172 4494 
L 1172 3500 
L 2356 3500 
L 2356 3053 
L 1172 3053 
L 1172 1153 
Q 1172 725 1289 603 
Q 1406 481 1766 481 
L 2356 481 
L 2356 0 
L 1766 0 
Q 1100 0 847 248 
Q 594 497 594 1153 
L 594 3053 
L 172 3053 
L 172 3500 
L 594 3500 
L 594 4494 
L 1172 4494 
z
" transform="scale(0.015625)"/>
       <path id="DejaVuSans-6e" d="M 3513 2113 
L 3513 0 
L 2938 0 
L 2938 2094 
Q 2938 2591 2744 2837 
Q 2550 3084 2163 3084 
Q 1697 3084 1428 2787 
Q 1159 2491 1159 1978 
L 1159 0 
L 581 0 
L 581 3500 
L 1159 3500 
L 1159 2956 
Q 1366 3272 1645 3428 
Q 1925 3584 2291 3584 
Q 2894 3584 3203 3211 
Q 3513 2838 3513 2113 
z
" transform="scale(0.015625)"/>
      </defs>
      <use xlink:href="#DejaVuSans-56" transform="translate(0 0.765625)"/>
      <use xlink:href="#DejaVuSans-69" transform="translate(68.408203 0.765625)"/>
      <use xlink:href="#DejaVuSans-6f" transform="translate(96.191406 0.765625)"/>
      <use xlink:href="#DejaVuSans-6c" transform="translate(157.373047 0.765625)"/>
      <use xlink:href="#DejaVuSans-61" transform="translate(185.15625 0.765625)"/>
      <use xlink:href="#DejaVuSans-74" transform="translate(246.435547 0.765625)"/>
      <use xlink:href="#DejaVuSans-69" transform="translate(285.644531 0.765625)"/>
      <use xlink:href="#DejaVuSans-6f" transform="translate(313.427734 0.765625)"/>
      <use xlink:href="#DejaVuSans-6e" transform="translate(374.609375 0.765625)"/>
      <use xlink:href="#DejaVuSans-20" transform="translate(437.988281 0.765625)"/>
      <use xlink:href="#DejaVuSans-28" transform="translate(469.775391 0.765625)"/>
      <use xlink:href="#DejaVuSans-Oblique-6d" transform="translate(508.789062 0.765625)"/>
      <use xlink:href="#DejaVuSans-Oblique-6d" transform="translate(606.201172 0.765625)"/>
      <use xlink:href="#DejaVuSans-2212" transform="translate(708.263177 39.046875)scale(0.7)"/>
      <use xlink:href="#DejaVuSans-32" transform="translate(766.915521 39.046875)scale(0.7)"/>
      <use xlink:href="#DejaVuSans-29" transform="translate(814.186029 0.765625)"/>
     </g>
    </g>
   </g>
   <g id="line2d_29">
    <path d="M 102.093671 -1 
L 102.436828 91.570883 
L 102.782205 138.956219 
L 103.127582 154.673071 
L 103.472959 160.657995 
L 103.818336 160.720049 
L 104.509091 156.091729 
L 105.199845 150.785557 
L 105.545222 150.87693 
L 105.890599 154.210571 
L 106.581354 169.255224 
L 106.926731 176.786212 
L 107.272108 180.604328 
L 107.617485 182.894054 
L 107.962862 192.811314 
L 108.30824 199.096501 
L 108.653617 201.852496 
L 108.998994 202.056789 
L 109.344371 200.71055 
L 110.035125 196.886568 
L 110.380503 195.499292 
L 110.72588 194.740278 
L 111.071257 194.624779 
L 111.416634 195.070545 
L 111.762011 195.979733 
L 112.452766 198.642986 
L 114.525029 207.325779 
L 115.56116 210.704167 
L 115.906537 211.394739 
L 116.251915 211.729514 
L 116.597292 211.627827 
L 116.942669 211.052503 
L 117.288046 210.00561 
L 117.9788 206.790023 
L 119.014932 201.674792 
L 121.777949 218.005963 
L 122.123327 219.148515 
L 122.468704 219.884641 
L 122.814081 220.2113 
L 123.159458 220.225995 
L 123.850212 219.987699 
L 124.19559 220.151476 
L 124.540967 220.703737 
L 124.886344 221.673062 
L 126.267853 226.933193 
L 126.61323 227.536169 
L 126.958607 227.580803 
L 127.303984 227.059622 
L 127.649361 226.005592 
L 128.685493 221.095261 
L 129.376247 218.309905 
L 130.067002 216.878266 
L 130.412379 216.349007 
L 130.757756 215.586122 
L 131.103133 214.306499 
L 131.44851 212.267315 
L 132.139265 205.765954 
L 132.484642 201.580165 
L 132.830019 200.364937 
L 134.211528 193.112644 
L 134.902282 191.107381 
L 135.247659 190.603646 
L 135.938414 190.197855 
L 136.974545 189.924508 
L 137.6653 189.44092 
L 139.737563 187.408139 
L 140.428317 187.092644 
L 141.464448 186.944932 
L 143.191334 187.031071 
L 143.882089 187.306298 
L 144.572843 187.926424 
L 145.263597 188.97796 
L 146.299729 191.18937 
L 147.33586 193.496292 
L 148.026615 194.455085 
L 148.371992 194.569084 
L 148.717369 194.388988 
L 149.062746 193.910299 
L 149.753501 192.081154 
L 151.135009 187.37259 
L 152.171141 188.877485 
L 153.207272 190.00784 
L 154.588781 191.069557 
L 155.624913 191.609979 
L 157.006421 192.004829 
L 158.38793 192.092165 
L 165.640851 191.919406 
L 167.713114 191.930115 
L 170.130754 191.881847 
L 172.548394 191.919372 
L 174.966035 191.880634 
L 177.038298 191.969573 
L 181.528201 192.061826 
L 195.688665 192.24642 
L 202.250831 192.286172 
L 203.977717 192.286783 
L 212.612147 192.384062 
L 214.339033 192.434529 
L 216.756673 192.449891 
L 219.865067 192.522301 
L 221.591953 192.487569 
L 222.973462 192.471568 
L 225.391102 192.576408 
L 233.680154 192.582612 
L 235.752417 192.611745 
L 237.479303 192.585339 
L 240.933075 192.648684 
L 243.005338 192.644113 
L 245.077601 192.704613 
L 248.531373 192.717094 
L 249.912882 192.726191 
L 251.985145 192.665057 
L 255.438917 192.693517 
L 256.820425 192.658875 
L 259.238065 192.707903 
L 267.527118 192.761393 
L 269.944758 192.762791 
L 271.326267 192.756701 
L 273.39853 192.849019 
L 280.996828 192.797283 
L 284.105222 192.850839 
L 286.522862 192.858455 
L 288.249748 192.896813 
L 292.739652 192.919299 
L 299.301818 192.864836 
L 300.683327 192.881633 
L 303.446344 192.9239 
L 306.209361 192.922071 
L 308.281624 192.923509 
L 310.699265 192.904905 
L 312.771528 192.952017 
L 315.189168 192.91144 
L 317.261431 192.983762 
L 320.369826 192.931259 
L 322.096711 192.966587 
L 324.859729 192.911784 
L 327.622746 192.967392 
L 329.349632 192.923378 
L 333.148781 192.929583 
L 335.566421 192.96684 
L 337.984062 192.917369 
L 344.891605 192.965393 
L 346.618491 192.965159 
L 354.907543 193.026709 
L 356.289052 193.03147 
L 359.052069 193.044247 
L 361.815087 193.08527 
L 363.88735 193.15803 
L 366.30499 193.257275 
L 368.377253 193.295637 
L 369.758762 193.372886 
L 371.14027 193.252441 
L 372.867156 192.775115 
L 374.594042 192.069664 
L 376.320928 191.215199 
L 377.011682 190.60879 
L 377.702437 189.460198 
L 378.047814 190.105886 
L 378.738568 191.756618 
L 379.083946 192.125345 
L 379.429323 192.188862 
L 379.7747 191.994236 
L 380.465454 191.031708 
L 382.19234 187.954585 
L 382.883094 187.213602 
L 383.573849 186.879251 
L 384.264603 186.909028 
L 385.991489 187.608478 
L 387.027621 188.224953 
L 387.718375 188.879991 
L 388.409129 189.806397 
L 389.790638 191.905205 
L 390.481392 192.548344 
L 391.172147 192.822197 
L 391.862901 193.097111 
L 392.208278 193.457673 
L 392.553655 194.120027 
L 392.899033 195.222562 
L 393.24441 196.850117 
L 393.935164 201.670881 
L 395.316673 213.066036 
L 395.66205 214.911274 
L 396.007427 216.039559 
L 396.352804 216.460543 
L 396.698182 216.259217 
L 397.043559 215.575782 
L 398.07969 212.440131 
L 398.770445 216.156099 
L 399.806576 222.893584 
L 400.151953 224.549908 
L 400.49733 225.636214 
L 400.842708 226.073823 
L 401.188085 225.876443 
L 401.533462 225.141775 
L 402.569594 221.943517 
L 402.914971 221.414779 
L 403.260348 221.42866 
L 403.605725 221.950987 
L 404.987234 225.392387 
L 405.332611 225.521778 
L 405.677988 225.145528 
L 406.023365 224.269734 
L 406.71412 221.340407 
L 408.095628 214.49651 
L 409.822514 207.648311 
L 410.167891 205.678123 
L 410.513269 205.64649 
L 410.858646 207.211016 
L 411.204023 208.235089 
L 411.5494 208.748986 
L 411.894777 208.831101 
L 412.240154 208.598175 
L 412.930909 207.611781 
L 415.003172 204.061012 
L 415.693926 203.404392 
L 416.039303 203.462737 
L 416.384681 203.859748 
L 416.730058 204.614256 
L 417.766189 207.775017 
L 418.111566 207.940781 
L 418.456944 206.396553 
L 418.802321 202.251643 
L 419.147698 194.577848 
L 419.493075 195.228301 
L 419.838452 194.715419 
L 420.183829 188.292895 
L 420.874584 167.720567 
L 421.219961 164.046755 
L 421.565338 158.745257 
L 421.910715 155.377566 
L 422.256093 155.386149 
L 422.60147 158.184791 
L 423.292224 165.094212 
L 423.637601 165.444586 
L 423.982978 164.29374 
L 424.328356 153.757043 
L 424.673733 130.589003 
L 425.01911 43.606241 
L 425.338644 -1 
L 425.338644 -1 
" clip-path="url(#p8fa5908f58)" style="fill: none; stroke: #1f77b4; stroke-width: 1.5; stroke-linecap: square"/>
   </g>
   <g id="patch_3">
    <path d="M 85.167969 279.010828 
L 85.167969 12.898828 
" style="fill: none; stroke: #000000; stroke-width: 0.8; stroke-linejoin: miter; stroke-linecap: square"/>
   </g>
   <g id="patch_4">
    <path d="M 442.287969 279.010828 
L 442.287969 12.898828 
" style="fill: none; stroke: #000000; stroke-width: 0.8; stroke-linejoin: miter; stroke-linecap: square"/>
   </g>
   <g id="patch_5">
    <path d="M 85.167969 279.010828 
L 442.287969 279.010828 
" style="fill: none; stroke: #000000; stroke-width: 0.8; stroke-linejoin: miter; stroke-linecap: square"/>
   </g>
   <g id="patch_6">
    <path d="M 85.167969 12.898828 
L 442.287969 12.898828 
" style="fill: none; stroke: #000000; stroke-width: 0.8; stroke-linejoin: miter; stroke-linecap: square"/>
   </g>
  </g>
 </g>
 <defs>
  <clipPath id="p8fa5908f58">
   <rect x="85.167969" y="12.898828" width="357.12" height="266.112"/>
  </clipPath>
 </defs>
</svg>
