<?xml version="1.0" encoding="utf-8" standalone="no"?>
<!DOCTYPE svg PUBLIC "-//W3C//DTD SVG 1.1//EN"
  "http://www.w3.org/Graphics/SVG/1.1/DTD/svg11.dtd">
<svg xmlns:xlink="http://www.w3.org/1999/xlink" width="435.177031pt" height="325.429187pt" viewBox="0 0 435.177031 325.429187" xmlns="http://www.w3.org/2000/svg" version="1.1">
 <defs>
  <style type="text/css">*{stroke-linejoin: round; stroke-linecap: butt}</style>
 </defs>
 <g id="figure_1">
  <g id="patch_1">
   <path d="M 0 325.429187 
L 435.177031 325.429187 
L 435.177031 0 
L 0 0 
L 0 325.429187 
z
" style="fill: none"/>
  </g>
  <g id="axes_1">
   <g id="patch_2">
    <path d="M 70.857031 273.312 
L 427.977031 273.312 
L 427.977031 7.2 
L 70.857031 7.2 
L 70.857031 273.312 
z
" style="fill: none"/>
   </g>
   <g id="matplotlib.axis_1">
    <g id="xtick_1">
     <g id="line2d_1">
      <path d="M 102.787341 273.312 
L 102.787341 7.2 
" clip-path="url(#pb89c3edd3e)" style="fill: none; stroke: #b0b0b0; stroke-width: 0.8; stroke-linecap: square"/>
     </g>
     <g id="line2d_2">
      <defs>
       <path id="md39032bed2" d="M 0 0 
L 0 3.5 
" style="stroke: #000000; stroke-width: 0.8"/>
      </defs>
      <g>
       <use xlink:href="#md39032bed2" x="102.787341" y="273.312" style="stroke: #000000; stroke-width: 0.8"/>
      </g>
     </g>
     <g id="text_1">
      <!-- −3000 -->
      <g transform="translate(77.415075 291.709656)scale(0.15 -0.15)">
       <defs>
        <path id="DejaVuSans-2212" d="M 678 2272 
L 4684 2272 
L 4684 1741 
L 678 1741 
L 678 2272 
z
" transform="scale(0.015625)"/>
        <path id="DejaVuSans-33" d="M 2597 2516 
Q 3050 2419 3304 2112 
Q 3559 1806 3559 1356 
Q 3559 666 3084 287 
Q 2609 -91 1734 -91 
Q 1441 -91 1130 -33 
Q 819 25 488 141 
L 488 750 
Q 750 597 1062 519 
Q 1375 441 1716 441 
Q 2309 441 2620 675 
Q 2931 909 2931 1356 
Q 2931 1769 2642 2001 
Q 2353 2234 1838 2234 
L 1294 2234 
L 1294 2753 
L 1863 2753 
Q 2328 2753 2575 2939 
Q 2822 3125 2822 3475 
Q 2822 3834 2567 4026 
Q 2313 4219 1838 4219 
Q 1578 4219 1281 4162 
Q 984 4106 628 3988 
L 628 4550 
Q 988 4650 1302 4700 
Q 1616 4750 1894 4750 
Q 2613 4750 3031 4423 
Q 3450 4097 3450 3541 
Q 3450 3153 3228 2886 
Q 3006 2619 2597 2516 
z
" transform="scale(0.015625)"/>
        <path id="DejaVuSans-30" d="M 2034 4250 
Q 1547 4250 1301 3770 
Q 1056 3291 1056 2328 
Q 1056 1369 1301 889 
Q 1547 409 2034 409 
Q 2525 409 2770 889 
Q 3016 1369 3016 2328 
Q 3016 3291 2770 3770 
Q 2525 4250 2034 4250 
z
M 2034 4750 
Q 2819 4750 3233 4129 
Q 3647 3509 3647 2328 
Q 3647 1150 3233 529 
Q 2819 -91 2034 -91 
Q 1250 -91 836 529 
Q 422 1150 422 2328 
Q 422 3509 836 4129 
Q 1250 4750 2034 4750 
z
" transform="scale(0.015625)"/>
       </defs>
       <use xlink:href="#DejaVuSans-2212"/>
       <use xlink:href="#DejaVuSans-33" x="83.789062"/>
       <use xlink:href="#DejaVuSans-30" x="147.412109"/>
       <use xlink:href="#DejaVuSans-30" x="211.035156"/>
       <use xlink:href="#DejaVuSans-30" x="274.658203"/>
      </g>
     </g>
    </g>
    <g id="xtick_2">
     <g id="line2d_3">
      <path d="M 174.139988 273.312 
L 174.139988 7.2 
" clip-path="url(#pb89c3edd3e)" style="fill: none; stroke: #b0b0b0; stroke-width: 0.8; stroke-linecap: square"/>
     </g>
     <g id="line2d_4">
      <g>
       <use xlink:href="#md39032bed2" x="174.139988" y="273.312" style="stroke: #000000; stroke-width: 0.8"/>
      </g>
     </g>
     <g id="text_2">
      <!-- −2000 -->
      <g transform="translate(148.767723 291.709656)scale(0.15 -0.15)">
       <defs>
        <path id="DejaVuSans-32" d="M 1228 531 
L 3431 531 
L 3431 0 
L 469 0 
L 469 531 
Q 828 903 1448 1529 
Q 2069 2156 2228 2338 
Q 2531 2678 2651 2914 
Q 2772 3150 2772 3378 
Q 2772 3750 2511 3984 
Q 2250 4219 1831 4219 
Q 1534 4219 1204 4116 
Q 875 4013 500 3803 
L 500 4441 
Q 881 4594 1212 4672 
Q 1544 4750 1819 4750 
Q 2544 4750 2975 4387 
Q 3406 4025 3406 3419 
Q 3406 3131 3298 2873 
Q 3191 2616 2906 2266 
Q 2828 2175 2409 1742 
Q 1991 1309 1228 531 
z
" transform="scale(0.015625)"/>
       </defs>
       <use xlink:href="#DejaVuSans-2212"/>
       <use xlink:href="#DejaVuSans-32" x="83.789062"/>
       <use xlink:href="#DejaVuSans-30" x="147.412109"/>
       <use xlink:href="#DejaVuSans-30" x="211.035156"/>
       <use xlink:href="#DejaVuSans-30" x="274.658203"/>
      </g>
     </g>
    </g>
    <g id="xtick_3">
     <g id="line2d_5">
      <path d="M 245.492636 273.312 
L 245.492636 7.2 
" clip-path="url(#pb89c3edd3e)" style="fill: none; stroke: #b0b0b0; stroke-width: 0.8; stroke-linecap: square"/>
     </g>
     <g id="line2d_6">
      <g>
       <use xlink:href="#md39032bed2" x="245.492636" y="273.312" style="stroke: #000000; stroke-width: 0.8"/>
      </g>
     </g>
     <g id="text_3">
      <!-- −1000 -->
      <g transform="translate(220.12037 291.709656)scale(0.15 -0.15)">
       <defs>
        <path id="DejaVuSans-31" d="M 794 531 
L 1825 531 
L 1825 4091 
L 703 3866 
L 703 4441 
L 1819 4666 
L 2450 4666 
L 2450 531 
L 3481 531 
L 3481 0 
L 794 0 
L 794 531 
z
" transform="scale(0.015625)"/>
       </defs>
       <use xlink:href="#DejaVuSans-2212"/>
       <use xlink:href="#DejaVuSans-31" x="83.789062"/>
       <use xlink:href="#DejaVuSans-30" x="147.412109"/>
       <use xlink:href="#DejaVuSans-30" x="211.035156"/>
       <use xlink:href="#DejaVuSans-30" x="274.658203"/>
      </g>
     </g>
    </g>
    <g id="xtick_4">
     <g id="line2d_7">
      <path d="M 316.845283 273.312 
L 316.845283 7.2 
" clip-path="url(#pb89c3edd3e)" style="fill: none; stroke: #b0b0b0; stroke-width: 0.8; stroke-linecap: square"/>
     </g>
     <g id="line2d_8">
      <g>
       <use xlink:href="#md39032bed2" x="316.845283" y="273.312" style="stroke: #000000; stroke-width: 0.8"/>
      </g>
     </g>
     <g id="text_4">
      <!-- 0 -->
      <g transform="translate(312.073408 291.709656)scale(0.15 -0.15)">
       <use xlink:href="#DejaVuSans-30"/>
      </g>
     </g>
    </g>
    <g id="xtick_5">
     <g id="line2d_9">
      <path d="M 388.19793 273.312 
L 388.19793 7.2 
" clip-path="url(#pb89c3edd3e)" style="fill: none; stroke: #b0b0b0; stroke-width: 0.8; stroke-linecap: square"/>
     </g>
     <g id="line2d_10">
      <g>
       <use xlink:href="#md39032bed2" x="388.19793" y="273.312" style="stroke: #000000; stroke-width: 0.8"/>
      </g>
     </g>
     <g id="text_5">
      <!-- 1000 -->
      <g transform="translate(369.11043 291.709656)scale(0.15 -0.15)">
       <use xlink:href="#DejaVuSans-31"/>
       <use xlink:href="#DejaVuSans-30" x="63.623047"/>
       <use xlink:href="#DejaVuSans-30" x="127.246094"/>
       <use xlink:href="#DejaVuSans-30" x="190.869141"/>
      </g>
     </g>
    </g>
    <g id="text_6">
     <!-- X ($\mu m$) -->
     <g transform="translate(215.417031 314.029187)scale(0.2 -0.2)">
      <defs>
       <path id="DejaVuSans-58" d="M 403 4666 
L 1081 4666 
L 2241 2931 
L 3406 4666 
L 4084 4666 
L 2584 2425 
L 4184 0 
L 3506 0 
L 2194 1984 
L 872 0 
L 191 0 
L 1856 2491 
L 403 4666 
z
" transform="scale(0.015625)"/>
       <path id="DejaVuSans-20" transform="scale(0.015625)"/>
       <path id="DejaVuSans-28" d="M 1984 4856 
Q 1566 4138 1362 3434 
Q 1159 2731 1159 2009 
Q 1159 1288 1364 580 
Q 1569 -128 1984 -844 
L 1484 -844 
Q 1016 -109 783 600 
Q 550 1309 550 2009 
Q 550 2706 781 3412 
Q 1013 4119 1484 4856 
L 1984 4856 
z
" transform="scale(0.015625)"/>
       <path id="DejaVuSans-Oblique-3bc" d="M -84 -1331 
L 856 3500 
L 1434 3500 
L 1009 1322 
Q 997 1256 987 1175 
Q 978 1094 978 1013 
Q 978 722 1161 565 
Q 1344 409 1684 409 
Q 2147 409 2431 671 
Q 2716 934 2816 1459 
L 3213 3500 
L 3788 3500 
L 3266 809 
Q 3253 750 3248 706 
Q 3244 663 3244 628 
Q 3244 531 3283 486 
Q 3322 441 3406 441 
Q 3438 441 3492 456 
Q 3547 472 3647 513 
L 3559 50 
Q 3422 -19 3297 -55 
Q 3172 -91 3053 -91 
Q 2847 -91 2730 40 
Q 2613 172 2613 403 
Q 2438 153 2195 31 
Q 1953 -91 1625 -91 
Q 1334 -91 1117 43 
Q 900 178 831 397 
L 494 -1331 
L -84 -1331 
z
" transform="scale(0.015625)"/>
       <path id="DejaVuSans-Oblique-6d" d="M 5747 2113 
L 5338 0 
L 4763 0 
L 5166 2094 
Q 5191 2228 5203 2325 
Q 5216 2422 5216 2491 
Q 5216 2772 5059 2928 
Q 4903 3084 4622 3084 
Q 4203 3084 3875 2770 
Q 3547 2456 3450 1953 
L 3066 0 
L 2491 0 
L 2900 2094 
Q 2925 2209 2937 2307 
Q 2950 2406 2950 2484 
Q 2950 2769 2794 2926 
Q 2638 3084 2363 3084 
Q 1938 3084 1609 2770 
Q 1281 2456 1184 1953 
L 800 0 
L 225 0 
L 909 3500 
L 1484 3500 
L 1375 2956 
Q 1609 3263 1923 3423 
Q 2238 3584 2597 3584 
Q 2978 3584 3223 3384 
Q 3469 3184 3519 2828 
Q 3781 3197 4126 3390 
Q 4472 3584 4856 3584 
Q 5306 3584 5551 3325 
Q 5797 3066 5797 2591 
Q 5797 2488 5784 2364 
Q 5772 2241 5747 2113 
z
" transform="scale(0.015625)"/>
       <path id="DejaVuSans-29" d="M 513 4856 
L 1013 4856 
Q 1481 4119 1714 3412 
Q 1947 2706 1947 2009 
Q 1947 1309 1714 600 
Q 1481 -109 1013 -844 
L 513 -844 
Q 928 -128 1133 580 
Q 1338 1288 1338 2009 
Q 1338 2731 1133 3434 
Q 928 4138 513 4856 
z
" transform="scale(0.015625)"/>
      </defs>
      <use xlink:href="#DejaVuSans-58" transform="translate(0 0.125)"/>
      <use xlink:href="#DejaVuSans-20" transform="translate(68.505859 0.125)"/>
      <use xlink:href="#DejaVuSans-28" transform="translate(100.292969 0.125)"/>
      <use xlink:href="#DejaVuSans-Oblique-3bc" transform="translate(139.306641 0.125)"/>
      <use xlink:href="#DejaVuSans-Oblique-6d" transform="translate(202.929688 0.125)"/>
      <use xlink:href="#DejaVuSans-29" transform="translate(300.341797 0.125)"/>
     </g>
    </g>
   </g>
   <g id="matplotlib.axis_2">
    <g id="ytick_1">
     <g id="line2d_11">
      <path d="M 70.857031 246.7008 
L 427.977031 246.7008 
" clip-path="url(#pb89c3edd3e)" style="fill: none; stroke: #b0b0b0; stroke-width: 0.8; stroke-linecap: square"/>
     </g>
     <g id="line2d_12">
      <defs>
       <path id="m6f3f5b6aff" d="M 0 0 
L -3.5 0 
" style="stroke: #000000; stroke-width: 0.8"/>
      </defs>
      <g>
       <use xlink:href="#m6f3f5b6aff" x="70.857031" y="246.7008" style="stroke: #000000; stroke-width: 0.8"/>
      </g>
     </g>
     <g id="text_7">
      <!-- −20 -->
      <g transform="translate(32.2 252.399628)scale(0.15 -0.15)">
       <use xlink:href="#DejaVuSans-2212"/>
       <use xlink:href="#DejaVuSans-32" x="83.789062"/>
       <use xlink:href="#DejaVuSans-30" x="147.412109"/>
      </g>
     </g>
    </g>
    <g id="ytick_2">
     <g id="line2d_13">
      <path d="M 70.857031 193.4784 
L 427.977031 193.4784 
" clip-path="url(#pb89c3edd3e)" style="fill: none; stroke: #b0b0b0; stroke-width: 0.8; stroke-linecap: square"/>
     </g>
     <g id="line2d_14">
      <g>
       <use xlink:href="#m6f3f5b6aff" x="70.857031" y="193.4784" style="stroke: #000000; stroke-width: 0.8"/>
      </g>
     </g>
     <g id="text_8">
      <!-- −10 -->
      <g transform="translate(32.2 199.177228)scale(0.15 -0.15)">
       <use xlink:href="#DejaVuSans-2212"/>
       <use xlink:href="#DejaVuSans-31" x="83.789062"/>
       <use xlink:href="#DejaVuSans-30" x="147.412109"/>
      </g>
     </g>
    </g>
    <g id="ytick_3">
     <g id="line2d_15">
      <path d="M 70.857031 140.256 
L 427.977031 140.256 
" clip-path="url(#pb89c3edd3e)" style="fill: none; stroke: #b0b0b0; stroke-width: 0.8; stroke-linecap: square"/>
     </g>
     <g id="line2d_16">
      <g>
       <use xlink:href="#m6f3f5b6aff" x="70.857031" y="140.256" style="stroke: #000000; stroke-width: 0.8"/>
      </g>
     </g>
     <g id="text_9">
      <!-- 0 -->
      <g transform="translate(54.313281 145.954828)scale(0.15 -0.15)">
       <use xlink:href="#DejaVuSans-30"/>
      </g>
     </g>
    </g>
    <g id="ytick_4">
     <g id="line2d_17">
      <path d="M 70.857031 87.0336 
L 427.977031 87.0336 
" clip-path="url(#pb89c3edd3e)" style="fill: none; stroke: #b0b0b0; stroke-width: 0.8; stroke-linecap: square"/>
     </g>
     <g id="line2d_18">
      <g>
       <use xlink:href="#m6f3f5b6aff" x="70.857031" y="87.0336" style="stroke: #000000; stroke-width: 0.8"/>
      </g>
     </g>
     <g id="text_10">
      <!-- 10 -->
      <g transform="translate(44.769531 92.732428)scale(0.15 -0.15)">
       <use xlink:href="#DejaVuSans-31"/>
       <use xlink:href="#DejaVuSans-30" x="63.623047"/>
      </g>
     </g>
    </g>
    <g id="ytick_5">
     <g id="line2d_19">
      <path d="M 70.857031 33.8112 
L 427.977031 33.8112 
" clip-path="url(#pb89c3edd3e)" style="fill: none; stroke: #b0b0b0; stroke-width: 0.8; stroke-linecap: square"/>
     </g>
     <g id="line2d_20">
      <g>
       <use xlink:href="#m6f3f5b6aff" x="70.857031" y="33.8112" style="stroke: #000000; stroke-width: 0.8"/>
      </g>
     </g>
     <g id="text_11">
      <!-- 20 -->
      <g transform="translate(44.769531 39.510028)scale(0.15 -0.15)">
       <use xlink:href="#DejaVuSans-32"/>
       <use xlink:href="#DejaVuSans-30" x="63.623047"/>
      </g>
     </g>
    </g>
    <g id="text_12">
     <!-- RF field curvature ($mm^{-2}$) -->
     <g transform="translate(24.040625 270.956)rotate(-90)scale(0.2 -0.2)">
      <defs>
       <path id="DejaVuSans-52" d="M 2841 2188 
Q 3044 2119 3236 1894 
Q 3428 1669 3622 1275 
L 4263 0 
L 3584 0 
L 2988 1197 
Q 2756 1666 2539 1819 
Q 2322 1972 1947 1972 
L 1259 1972 
L 1259 0 
L 628 0 
L 628 4666 
L 2053 4666 
Q 2853 4666 3247 4331 
Q 3641 3997 3641 3322 
Q 3641 2881 3436 2590 
Q 3231 2300 2841 2188 
z
M 1259 4147 
L 1259 2491 
L 2053 2491 
Q 2509 2491 2742 2702 
Q 2975 2913 2975 3322 
Q 2975 3731 2742 3939 
Q 2509 4147 2053 4147 
L 1259 4147 
z
" transform="scale(0.015625)"/>
       <path id="DejaVuSans-46" d="M 628 4666 
L 3309 4666 
L 3309 4134 
L 1259 4134 
L 1259 2759 
L 3109 2759 
L 3109 2228 
L 1259 2228 
L 1259 0 
L 628 0 
L 628 4666 
z
" transform="scale(0.015625)"/>
       <path id="DejaVuSans-66" d="M 2375 4863 
L 2375 4384 
L 1825 4384 
Q 1516 4384 1395 4259 
Q 1275 4134 1275 3809 
L 1275 3500 
L 2222 3500 
L 2222 3053 
L 1275 3053 
L 1275 0 
L 697 0 
L 697 3053 
L 147 3053 
L 147 3500 
L 697 3500 
L 697 3744 
Q 697 4328 969 4595 
Q 1241 4863 1831 4863 
L 2375 4863 
z
" transform="scale(0.015625)"/>
       <path id="DejaVuSans-69" d="M 603 3500 
L 1178 3500 
L 1178 0 
L 603 0 
L 603 3500 
z
M 603 4863 
L 1178 4863 
L 1178 4134 
L 603 4134 
L 603 4863 
z
" transform="scale(0.015625)"/>
       <path id="DejaVuSans-65" d="M 3597 1894 
L 3597 1613 
L 953 1613 
Q 991 1019 1311 708 
Q 1631 397 2203 397 
Q 2534 397 2845 478 
Q 3156 559 3463 722 
L 3463 178 
Q 3153 47 2828 -22 
Q 2503 -91 2169 -91 
Q 1331 -91 842 396 
Q 353 884 353 1716 
Q 353 2575 817 3079 
Q 1281 3584 2069 3584 
Q 2775 3584 3186 3129 
Q 3597 2675 3597 1894 
z
M 3022 2063 
Q 3016 2534 2758 2815 
Q 2500 3097 2075 3097 
Q 1594 3097 1305 2825 
Q 1016 2553 972 2059 
L 3022 2063 
z
" transform="scale(0.015625)"/>
       <path id="DejaVuSans-6c" d="M 603 4863 
L 1178 4863 
L 1178 0 
L 603 0 
L 603 4863 
z
" transform="scale(0.015625)"/>
       <path id="DejaVuSans-64" d="M 2906 2969 
L 2906 4863 
L 3481 4863 
L 3481 0 
L 2906 0 
L 2906 525 
Q 2725 213 2448 61 
Q 2172 -91 1784 -91 
Q 1150 -91 751 415 
Q 353 922 353 1747 
Q 353 2572 751 3078 
Q 1150 3584 1784 3584 
Q 2172 3584 2448 3432 
Q 2725 3281 2906 2969 
z
M 947 1747 
Q 947 1113 1208 752 
Q 1469 391 1925 391 
Q 2381 391 2643 752 
Q 2906 1113 2906 1747 
Q 2906 2381 2643 2742 
Q 2381 3103 1925 3103 
Q 1469 3103 1208 2742 
Q 947 2381 947 1747 
z
" transform="scale(0.015625)"/>
       <path id="DejaVuSans-63" d="M 3122 3366 
L 3122 2828 
Q 2878 2963 2633 3030 
Q 2388 3097 2138 3097 
Q 1578 3097 1268 2742 
Q 959 2388 959 1747 
Q 959 1106 1268 751 
Q 1578 397 2138 397 
Q 2388 397 2633 464 
Q 2878 531 3122 666 
L 3122 134 
Q 2881 22 2623 -34 
Q 2366 -91 2075 -91 
Q 1284 -91 818 406 
Q 353 903 353 1747 
Q 353 2603 823 3093 
Q 1294 3584 2113 3584 
Q 2378 3584 2631 3529 
Q 2884 3475 3122 3366 
z
" transform="scale(0.015625)"/>
       <path id="DejaVuSans-75" d="M 544 1381 
L 544 3500 
L 1119 3500 
L 1119 1403 
Q 1119 906 1312 657 
Q 1506 409 1894 409 
Q 2359 409 2629 706 
Q 2900 1003 2900 1516 
L 2900 3500 
L 3475 3500 
L 3475 0 
L 2900 0 
L 2900 538 
Q 2691 219 2414 64 
Q 2138 -91 1772 -91 
Q 1169 -91 856 284 
Q 544 659 544 1381 
z
M 1991 3584 
L 1991 3584 
z
" transform="scale(0.015625)"/>
       <path id="DejaVuSans-72" d="M 2631 2963 
Q 2534 3019 2420 3045 
Q 2306 3072 2169 3072 
Q 1681 3072 1420 2755 
Q 1159 2438 1159 1844 
L 1159 0 
L 581 0 
L 581 3500 
L 1159 3500 
L 1159 2956 
Q 1341 3275 1631 3429 
Q 1922 3584 2338 3584 
Q 2397 3584 2469 3576 
Q 2541 3569 2628 3553 
L 2631 2963 
z
" transform="scale(0.015625)"/>
       <path id="DejaVuSans-76" d="M 191 3500 
L 800 3500 
L 1894 563 
L 2988 3500 
L 3597 3500 
L 2284 0 
L 1503 0 
L 191 3500 
z
" transform="scale(0.015625)"/>
       <path id="DejaVuSans-61" d="M 2194 1759 
Q 1497 1759 1228 1600 
Q 959 1441 959 1056 
Q 959 750 1161 570 
Q 1363 391 1709 391 
Q 2188 391 2477 730 
Q 2766 1069 2766 1631 
L 2766 1759 
L 2194 1759 
z
M 3341 1997 
L 3341 0 
L 2766 0 
L 2766 531 
Q 2569 213 2275 61 
Q 1981 -91 1556 -91 
Q 1019 -91 701 211 
Q 384 513 384 1019 
Q 384 1609 779 1909 
Q 1175 2209 1959 2209 
L 2766 2209 
L 2766 2266 
Q 2766 2663 2505 2880 
Q 2244 3097 1772 3097 
Q 1472 3097 1187 3025 
Q 903 2953 641 2809 
L 641 3341 
Q 956 3463 1253 3523 
Q 1550 3584 1831 3584 
Q 2591 3584 2966 3190 
Q 3341 2797 3341 1997 
z
" transform="scale(0.015625)"/>
       <path id="DejaVuSans-74" d="M 1172 4494 
L 1172 3500 
L 2356 3500 
L 2356 3053 
L 1172 3053 
L 1172 1153 
Q 1172 725 1289 603 
Q 1406 481 1766 481 
L 2356 481 
L 2356 0 
L 1766 0 
Q 1100 0 847 248 
Q 594 497 594 1153 
L 594 3053 
L 172 3053 
L 172 3500 
L 594 3500 
L 594 4494 
L 1172 4494 
z
" transform="scale(0.015625)"/>
      </defs>
      <use xlink:href="#DejaVuSans-52" transform="translate(0 0.765625)"/>
      <use xlink:href="#DejaVuSans-46" transform="translate(69.482422 0.765625)"/>
      <use xlink:href="#DejaVuSans-20" transform="translate(127.001953 0.765625)"/>
      <use xlink:href="#DejaVuSans-66" transform="translate(158.789062 0.765625)"/>
      <use xlink:href="#DejaVuSans-69" transform="translate(193.994141 0.765625)"/>
      <use xlink:href="#DejaVuSans-65" transform="translate(221.777344 0.765625)"/>
      <use xlink:href="#DejaVuSans-6c" transform="translate(283.300781 0.765625)"/>
      <use xlink:href="#DejaVuSans-64" transform="translate(311.083984 0.765625)"/>
      <use xlink:href="#DejaVuSans-20" transform="translate(374.560547 0.765625)"/>
      <use xlink:href="#DejaVuSans-63" transform="translate(406.347656 0.765625)"/>
      <use xlink:href="#DejaVuSans-75" transform="translate(461.328125 0.765625)"/>
      <use xlink:href="#DejaVuSans-72" transform="translate(524.707031 0.765625)"/>
      <use xlink:href="#DejaVuSans-76" transform="translate(565.820312 0.765625)"/>
      <use xlink:href="#DejaVuSans-61" transform="translate(625 0.765625)"/>
      <use xlink:href="#DejaVuSans-74" transform="translate(686.279297 0.765625)"/>
      <use xlink:href="#DejaVuSans-75" transform="translate(725.488281 0.765625)"/>
      <use xlink:href="#DejaVuSans-72" transform="translate(788.867188 0.765625)"/>
      <use xlink:href="#DejaVuSans-65" transform="translate(829.980469 0.765625)"/>
      <use xlink:href="#DejaVuSans-20" transform="translate(891.503906 0.765625)"/>
      <use xlink:href="#DejaVuSans-28" transform="translate(923.291016 0.765625)"/>
      <use xlink:href="#DejaVuSans-Oblique-6d" transform="translate(962.304688 0.765625)"/>
      <use xlink:href="#DejaVuSans-Oblique-6d" transform="translate(1059.716797 0.765625)"/>
      <use xlink:href="#DejaVuSans-2212" transform="translate(1161.778802 39.046875)scale(0.7)"/>
      <use xlink:href="#DejaVuSans-32" transform="translate(1220.431146 39.046875)scale(0.7)"/>
      <use xlink:href="#DejaVuSans-29" transform="translate(1267.701654 0.765625)"/>
     </g>
    </g>
   </g>
   <g id="line2d_21">
    <path d="M 87.089759 141.930782 
L 88.873575 141.414275 
L 90.728744 140.89158 
L 92.51256 140.637081 
L 94.082318 140.632593 
L 99.005651 140.796633 
L 104.000336 140.464586 
L 106.640384 140.118356 
L 109.066374 140.062827 
L 116.344344 140.368689 
L 124.264488 140.86157 
L 125.691541 140.69825 
L 127.118594 140.28596 
L 129.330526 139.608558 
L 130.614873 139.49043 
L 132.541395 139.583833 
L 135.324148 139.92446 
L 138.035549 140.2533 
L 141.531828 140.326459 
L 171.071824 140.340896 
L 189.052692 140.692161 
L 191.121918 140.412678 
L 192.977087 139.914793 
L 196.116604 138.801608 
L 198.257183 137.837184 
L 200.255057 136.963488 
L 201.325347 136.723311 
L 202.324284 136.734829 
L 203.251868 136.97357 
L 204.322158 137.502806 
L 205.677858 138.458735 
L 209.245491 141.092621 
L 210.458486 141.677278 
L 211.457423 141.914143 
L 212.385007 141.899884 
L 213.740708 141.601008 
L 215.310466 141.3009 
L 216.666166 141.300276 
L 219.448919 141.623119 
L 221.304088 141.736825 
L 222.731141 141.588557 
L 229.366937 140.50214 
L 231.293459 140.464853 
L 236.502202 140.465842 
L 243.851525 140.250416 
L 253.198722 140.074743 
L 255.553359 140.189604 
L 258.978286 140.424157 
L 263.40215 140.472885 
L 266.184903 140.507441 
L 268.610893 140.483572 
L 276.102921 140.171666 
L 279.31379 140.191256 
L 298.008184 140.406972 
L 301.290406 140.437139 
L 306.78456 140.200918 
L 310.209487 140.032489 
L 313.777119 139.98053 
L 319.913447 139.58464 
L 322.196732 139.498818 
L 323.409727 139.656346 
L 324.551369 140.037565 
L 327.120064 141.004754 
L 328.190354 141.086366 
L 329.97417 140.949656 
L 336.467261 140.402234 
L 350.381027 140.248738 
L 354.376776 140.266754 
L 367.148899 140.336738 
L 371.001942 140.371502 
L 376.710154 140.246007 
L 390.980684 140.344878 
L 397.687832 140.442699 
L 400.613291 140.469255 
L 404.965802 140.857335 
L 406.606913 141.281763 
L 409.175609 142.246243 
L 411.744304 143.483129 
L 411.744304 143.483129 
" clip-path="url(#pb89c3edd3e)" style="fill: none; stroke: #1f77b4; stroke-width: 1.5; stroke-linecap: square"/>
   </g>
   <g id="line2d_22">
    <path d="M 87.089759 14.71433 
L 88.088696 14.483957 
L 89.158985 14.420259 
L 93.725555 14.450498 
L 98.506182 14.254593 
L 102.359225 14.550154 
L 106.711737 15.26084 
L 109.066374 15.475429 
L 110.279369 15.507963 
L 115.559465 15.449443 
L 118.627629 15.374446 
L 123.479609 15.585662 
L 125.049367 16.055558 
L 126.191009 16.600698 
L 129.758642 18.572153 
L 130.971637 18.899843 
L 132.184632 19.045891 
L 134.253858 18.974284 
L 137.322022 18.496324 
L 141.674534 18.203998 
L 152.876899 18.145274 
L 155.945063 18.174963 
L 159.298638 18.15625 
L 166.790666 18.064733 
L 173.069699 17.834664 
L 177.493563 17.611379 
L 179.063321 17.482467 
L 186.983465 16.955948 
L 189.623513 17.223213 
L 191.335976 17.683511 
L 193.191145 18.464876 
L 198.899357 21.099452 
L 200.469115 21.332826 
L 201.325347 21.223294 
L 202.110226 20.937678 
L 203.323221 20.142831 
L 204.250805 19.27561 
L 209.530901 13.190305 
L 210.886602 12.319503 
L 211.457423 12.170976 
L 212.170949 12.042295 
L 213.669355 12.333614 
L 216.309403 12.937253 
L 217.879161 12.971852 
L 223.016552 12.906294 
L 230.437227 13.825385 
L 233.719449 13.785932 
L 236.430849 13.805904 
L 243.780172 14.08678 
L 249.773794 14.248063 
L 252.913311 14.147032 
L 256.052827 13.739379 
L 259.549107 13.246751 
L 262.831329 13.071986 
L 267.683309 13.102097 
L 269.895241 13.334117 
L 273.890989 13.836593 
L 276.388332 13.875333 
L 293.512967 13.525027 
L 296.438426 13.306657 
L 299.363884 13.106575 
L 301.504464 13.147592 
L 305.000744 13.412562 
L 311.208424 13.937842 
L 318.91451 13.931329 
L 320.626973 13.744812 
L 322.054026 13.381345 
L 323.267021 12.831039 
L 324.622722 11.922094 
L 327.048712 10.186285 
L 328.119001 9.717433 
L 329.403349 9.41742 
L 330.973107 9.26214 
L 333.113687 9.248125 
L 340.534362 9.147498 
L 346.742042 8.981717 
L 350.45238 8.881949 
L 365.365083 8.004886 
L 369.8603 7.542805 
L 372.928464 7.480255 
L 375.853922 7.334412 
L 389.054162 5.961189 
L 395.904016 4.859362 
L 398.401359 4.461604 
L 400.541938 4.006419 
L 403.752807 2.989639 
L 405.822034 2.038034 
L 410.81672 -0.927356 
L 411.048665 -1 
L 411.048665 -1 
" clip-path="url(#pb89c3edd3e)" style="fill: none; stroke: #ff7f0e; stroke-width: 1.5; stroke-linecap: square"/>
   </g>
   <g id="line2d_23">
    <path d="M 87.089759 264.132938 
L 88.445459 264.76426 
L 89.801159 265.202031 
L 91.584975 265.535211 
L 94.225023 265.708433 
L 97.150482 265.668586 
L 101.003525 265.620647 
L 114.774586 265.016525 
L 120.696855 264.77319 
L 123.051493 264.410573 
L 126.619125 263.466324 
L 130.400815 262.497306 
L 132.113279 262.185041 
L 133.897095 262.050579 
L 137.750138 262.086163 
L 142.031297 262.260306 
L 155.516947 262.348085 
L 168.289071 262.466338 
L 188.553223 262.998461 
L 191.193271 262.733576 
L 196.83013 262.004081 
L 198.471241 262.072348 
L 200.61182 262.58056 
L 202.823753 263.414939 
L 204.892979 264.326842 
L 209.887665 266.430918 
L 211.528776 266.743589 
L 212.813123 266.810296 
L 214.525587 266.76208 
L 217.451045 266.414189 
L 219.591625 266.273638 
L 222.088967 266.277841 
L 229.010174 266.481427 
L 240.426598 266.471579 
L 248.132684 266.40178 
L 253.484132 266.590516 
L 264.615145 267.242948 
L 268.824951 267.097825 
L 278.314853 266.707981 
L 293.58432 267.04832 
L 298.507653 267.205252 
L 301.861227 267.179626 
L 308.782434 266.88686 
L 313.491709 266.781794 
L 318.200983 267.053594 
L 320.341563 267.425412 
L 322.268084 267.961157 
L 330.616344 270.603813 
L 333.327745 270.950152 
L 336.18185 271.11167 
L 352.807017 271.727292 
L 361.51204 272.209223 
L 366.720783 272.603232 
L 374.070106 273.10769 
L 382.204308 273.712864 
L 386.628172 274.189126 
L 389.054162 274.488597 
L 399.114885 276.018268 
L 405.96474 277.716191 
L 407.677203 278.196398 
L 408.533435 278.441705 
L 408.890198 278.501962 
L 409.246961 278.507731 
L 410.81672 278.666002 
L 411.10213 278.651766 
L 411.530246 278.696976 
L 411.744304 278.592514 
L 411.744304 278.592514 
" clip-path="url(#pb89c3edd3e)" style="fill: none; stroke: #2ca02c; stroke-width: 1.5; stroke-linecap: square"/>
   </g>
   <g id="patch_3">
    <path d="M 70.857031 273.312 
L 70.857031 7.2 
" style="fill: none; stroke: #000000; stroke-width: 0.8; stroke-linejoin: miter; stroke-linecap: square"/>
   </g>
   <g id="patch_4">
    <path d="M 427.977031 273.312 
L 427.977031 7.2 
" style="fill: none; stroke: #000000; stroke-width: 0.8; stroke-linejoin: miter; stroke-linecap: square"/>
   </g>
   <g id="patch_5">
    <path d="M 70.857031 273.312 
L 427.977031 273.312 
" style="fill: none; stroke: #000000; stroke-width: 0.8; stroke-linejoin: miter; stroke-linecap: square"/>
   </g>
   <g id="patch_6">
    <path d="M 70.857031 7.2 
L 427.977031 7.2 
" style="fill: none; stroke: #000000; stroke-width: 0.8; stroke-linejoin: miter; stroke-linecap: square"/>
   </g>
  </g>
 </g>
 <defs>
  <clipPath id="pb89c3edd3e">
   <rect x="70.857031" y="7.2" width="357.12" height="266.112"/>
  </clipPath>
 </defs>
</svg>
