<?xml version="1.0" encoding="utf-8" standalone="no"?>
<!DOCTYPE svg PUBLIC "-//W3C//DTD SVG 1.1//EN"
  "http://www.w3.org/Graphics/SVG/1.1/DTD/svg11.dtd">
<svg xmlns:xlink="http://www.w3.org/1999/xlink" width="435.177031pt" height="325.429187pt" viewBox="0 0 435.177031 325.429187" xmlns="http://www.w3.org/2000/svg" version="1.1">
 <defs>
  <style type="text/css">*{stroke-linejoin: round; stroke-linecap: butt}</style>
 </defs>
 <g id="figure_1">
  <g id="patch_1">
   <path d="M 0 325.429187 
L 435.177031 325.429187 
L 435.177031 0 
L 0 0 
L 0 325.429187 
z
" style="fill: none"/>
  </g>
  <g id="axes_1">
   <g id="patch_2">
    <path d="M 70.857031 273.312 
L 427.977031 273.312 
L 427.977031 7.2 
L 70.857031 7.2 
L 70.857031 273.312 
z
" style="fill: none"/>
   </g>
   <g id="matplotlib.axis_1">
    <g id="xtick_1">
     <g id="line2d_1">
      <path d="M 111.266161 273.312 
L 111.266161 7.2 
" clip-path="url(#pb89c3edd3e)" style="fill: none; stroke: #b0b0b0; stroke-width: 0.8; stroke-linecap: square"/>
     </g>
     <g id="line2d_2">
      <defs>
       <path id="md39032bed2" d="M 0 0 
L 0 3.5 
" style="stroke: #000000; stroke-width: 0.8"/>
      </defs>
      <g>
       <use xlink:href="#md39032bed2" x="111.266161" y="273.312" style="stroke: #000000; stroke-width: 0.8"/>
      </g>
     </g>
     <g id="text_1">
      <!-- −2000 -->
      <g transform="translate(85.893895 291.709656)scale(0.15 -0.15)">
       <defs>
        <path id="DejaVuSans-2212" d="M 678 2272 
L 4684 2272 
L 4684 1741 
L 678 1741 
L 678 2272 
z
" transform="scale(0.015625)"/>
        <path id="DejaVuSans-32" d="M 1228 531 
L 3431 531 
L 3431 0 
L 469 0 
L 469 531 
Q 828 903 1448 1529 
Q 2069 2156 2228 2338 
Q 2531 2678 2651 2914 
Q 2772 3150 2772 3378 
Q 2772 3750 2511 3984 
Q 2250 4219 1831 4219 
Q 1534 4219 1204 4116 
Q 875 4013 500 3803 
L 500 4441 
Q 881 4594 1212 4672 
Q 1544 4750 1819 4750 
Q 2544 4750 2975 4387 
Q 3406 4025 3406 3419 
Q 3406 3131 3298 2873 
Q 3191 2616 2906 2266 
Q 2828 2175 2409 1742 
Q 1991 1309 1228 531 
z
" transform="scale(0.015625)"/>
        <path id="DejaVuSans-30" d="M 2034 4250 
Q 1547 4250 1301 3770 
Q 1056 3291 1056 2328 
Q 1056 1369 1301 889 
Q 1547 409 2034 409 
Q 2525 409 2770 889 
Q 3016 1369 3016 2328 
Q 3016 3291 2770 3770 
Q 2525 4250 2034 4250 
z
M 2034 4750 
Q 2819 4750 3233 4129 
Q 3647 3509 3647 2328 
Q 3647 1150 3233 529 
Q 2819 -91 2034 -91 
Q 1250 -91 836 529 
Q 422 1150 422 2328 
Q 422 3509 836 4129 
Q 1250 4750 2034 4750 
z
" transform="scale(0.015625)"/>
       </defs>
       <use xlink:href="#DejaVuSans-2212"/>
       <use xlink:href="#DejaVuSans-32" x="83.789062"/>
       <use xlink:href="#DejaVuSans-30" x="147.412109"/>
       <use xlink:href="#DejaVuSans-30" x="211.035156"/>
       <use xlink:href="#DejaVuSans-30" x="274.658203"/>
      </g>
     </g>
    </g>
    <g id="xtick_2">
     <g id="line2d_3">
      <path d="M 180.341596 273.312 
L 180.341596 7.2 
" clip-path="url(#pb89c3edd3e)" style="fill: none; stroke: #b0b0b0; stroke-width: 0.8; stroke-linecap: square"/>
     </g>
     <g id="line2d_4">
      <g>
       <use xlink:href="#md39032bed2" x="180.341596" y="273.312" style="stroke: #000000; stroke-width: 0.8"/>
      </g>
     </g>
     <g id="text_2">
      <!-- −1000 -->
      <g transform="translate(154.96933 291.709656)scale(0.15 -0.15)">
       <defs>
        <path id="DejaVuSans-31" d="M 794 531 
L 1825 531 
L 1825 4091 
L 703 3866 
L 703 4441 
L 1819 4666 
L 2450 4666 
L 2450 531 
L 3481 531 
L 3481 0 
L 794 0 
L 794 531 
z
" transform="scale(0.015625)"/>
       </defs>
       <use xlink:href="#DejaVuSans-2212"/>
       <use xlink:href="#DejaVuSans-31" x="83.789062"/>
       <use xlink:href="#DejaVuSans-30" x="147.412109"/>
       <use xlink:href="#DejaVuSans-30" x="211.035156"/>
       <use xlink:href="#DejaVuSans-30" x="274.658203"/>
      </g>
     </g>
    </g>
    <g id="xtick_3">
     <g id="line2d_5">
      <path d="M 249.417031 273.312 
L 249.417031 7.2 
" clip-path="url(#pb89c3edd3e)" style="fill: none; stroke: #b0b0b0; stroke-width: 0.8; stroke-linecap: square"/>
     </g>
     <g id="line2d_6">
      <g>
       <use xlink:href="#md39032bed2" x="249.417031" y="273.312" style="stroke: #000000; stroke-width: 0.8"/>
      </g>
     </g>
     <g id="text_3">
      <!-- 0 -->
      <g transform="translate(244.645156 291.709656)scale(0.15 -0.15)">
       <use xlink:href="#DejaVuSans-30"/>
      </g>
     </g>
    </g>
    <g id="xtick_4">
     <g id="line2d_7">
      <path d="M 318.492466 273.312 
L 318.492466 7.2 
" clip-path="url(#pb89c3edd3e)" style="fill: none; stroke: #b0b0b0; stroke-width: 0.8; stroke-linecap: square"/>
     </g>
     <g id="line2d_8">
      <g>
       <use xlink:href="#md39032bed2" x="318.492466" y="273.312" style="stroke: #000000; stroke-width: 0.8"/>
      </g>
     </g>
     <g id="text_4">
      <!-- 1000 -->
      <g transform="translate(299.404966 291.709656)scale(0.15 -0.15)">
       <use xlink:href="#DejaVuSans-31"/>
       <use xlink:href="#DejaVuSans-30" x="63.623047"/>
       <use xlink:href="#DejaVuSans-30" x="127.246094"/>
       <use xlink:href="#DejaVuSans-30" x="190.869141"/>
      </g>
     </g>
    </g>
    <g id="xtick_5">
     <g id="line2d_9">
      <path d="M 387.567902 273.312 
L 387.567902 7.2 
" clip-path="url(#pb89c3edd3e)" style="fill: none; stroke: #b0b0b0; stroke-width: 0.8; stroke-linecap: square"/>
     </g>
     <g id="line2d_10">
      <g>
       <use xlink:href="#md39032bed2" x="387.567902" y="273.312" style="stroke: #000000; stroke-width: 0.8"/>
      </g>
     </g>
     <g id="text_5">
      <!-- 2000 -->
      <g transform="translate(368.480402 291.709656)scale(0.15 -0.15)">
       <use xlink:href="#DejaVuSans-32"/>
       <use xlink:href="#DejaVuSans-30" x="63.623047"/>
       <use xlink:href="#DejaVuSans-30" x="127.246094"/>
       <use xlink:href="#DejaVuSans-30" x="190.869141"/>
      </g>
     </g>
    </g>
    <g id="text_6">
     <!-- X ($\mu m$) -->
     <g transform="translate(215.417031 314.029187)scale(0.2 -0.2)">
      <defs>
       <path id="DejaVuSans-58" d="M 403 4666 
L 1081 4666 
L 2241 2931 
L 3406 4666 
L 4084 4666 
L 2584 2425 
L 4184 0 
L 3506 0 
L 2194 1984 
L 872 0 
L 191 0 
L 1856 2491 
L 403 4666 
z
" transform="scale(0.015625)"/>
       <path id="DejaVuSans-20" transform="scale(0.015625)"/>
       <path id="DejaVuSans-28" d="M 1984 4856 
Q 1566 4138 1362 3434 
Q 1159 2731 1159 2009 
Q 1159 1288 1364 580 
Q 1569 -128 1984 -844 
L 1484 -844 
Q 1016 -109 783 600 
Q 550 1309 550 2009 
Q 550 2706 781 3412 
Q 1013 4119 1484 4856 
L 1984 4856 
z
" transform="scale(0.015625)"/>
       <path id="DejaVuSans-Oblique-3bc" d="M -84 -1331 
L 856 3500 
L 1434 3500 
L 1009 1322 
Q 997 1256 987 1175 
Q 978 1094 978 1013 
Q 978 722 1161 565 
Q 1344 409 1684 409 
Q 2147 409 2431 671 
Q 2716 934 2816 1459 
L 3213 3500 
L 3788 3500 
L 3266 809 
Q 3253 750 3248 706 
Q 3244 663 3244 628 
Q 3244 531 3283 486 
Q 3322 441 3406 441 
Q 3438 441 3492 456 
Q 3547 472 3647 513 
L 3559 50 
Q 3422 -19 3297 -55 
Q 3172 -91 3053 -91 
Q 2847 -91 2730 40 
Q 2613 172 2613 403 
Q 2438 153 2195 31 
Q 1953 -91 1625 -91 
Q 1334 -91 1117 43 
Q 900 178 831 397 
L 494 -1331 
L -84 -1331 
z
" transform="scale(0.015625)"/>
       <path id="DejaVuSans-Oblique-6d" d="M 5747 2113 
L 5338 0 
L 4763 0 
L 5166 2094 
Q 5191 2228 5203 2325 
Q 5216 2422 5216 2491 
Q 5216 2772 5059 2928 
Q 4903 3084 4622 3084 
Q 4203 3084 3875 2770 
Q 3547 2456 3450 1953 
L 3066 0 
L 2491 0 
L 2900 2094 
Q 2925 2209 2937 2307 
Q 2950 2406 2950 2484 
Q 2950 2769 2794 2926 
Q 2638 3084 2363 3084 
Q 1938 3084 1609 2770 
Q 1281 2456 1184 1953 
L 800 0 
L 225 0 
L 909 3500 
L 1484 3500 
L 1375 2956 
Q 1609 3263 1923 3423 
Q 2238 3584 2597 3584 
Q 2978 3584 3223 3384 
Q 3469 3184 3519 2828 
Q 3781 3197 4126 3390 
Q 4472 3584 4856 3584 
Q 5306 3584 5551 3325 
Q 5797 3066 5797 2591 
Q 5797 2488 5784 2364 
Q 5772 2241 5747 2113 
z
" transform="scale(0.015625)"/>
       <path id="DejaVuSans-29" d="M 513 4856 
L 1013 4856 
Q 1481 4119 1714 3412 
Q 1947 2706 1947 2009 
Q 1947 1309 1714 600 
Q 1481 -109 1013 -844 
L 513 -844 
Q 928 -128 1133 580 
Q 1338 1288 1338 2009 
Q 1338 2731 1133 3434 
Q 928 4138 513 4856 
z
" transform="scale(0.015625)"/>
      </defs>
      <use xlink:href="#DejaVuSans-58" transform="translate(0 0.125)"/>
      <use xlink:href="#DejaVuSans-20" transform="translate(68.505859 0.125)"/>
      <use xlink:href="#DejaVuSans-28" transform="translate(100.292969 0.125)"/>
      <use xlink:href="#DejaVuSans-Oblique-3bc" transform="translate(139.306641 0.125)"/>
      <use xlink:href="#DejaVuSans-Oblique-6d" transform="translate(202.929688 0.125)"/>
      <use xlink:href="#DejaVuSans-29" transform="translate(300.341797 0.125)"/>
     </g>
    </g>
   </g>
   <g id="matplotlib.axis_2">
    <g id="ytick_1">
     <g id="line2d_11">
      <path d="M 70.857031 246.7008 
L 427.977031 246.7008 
" clip-path="url(#pb89c3edd3e)" style="fill: none; stroke: #b0b0b0; stroke-width: 0.8; stroke-linecap: square"/>
     </g>
     <g id="line2d_12">
      <defs>
       <path id="m6f3f5b6aff" d="M 0 0 
L -3.5 0 
" style="stroke: #000000; stroke-width: 0.8"/>
      </defs>
      <g>
       <use xlink:href="#m6f3f5b6aff" x="70.857031" y="246.7008" style="stroke: #000000; stroke-width: 0.8"/>
      </g>
     </g>
     <g id="text_7">
      <!-- −20 -->
      <g transform="translate(32.2 252.399628)scale(0.15 -0.15)">
       <use xlink:href="#DejaVuSans-2212"/>
       <use xlink:href="#DejaVuSans-32" x="83.789062"/>
       <use xlink:href="#DejaVuSans-30" x="147.412109"/>
      </g>
     </g>
    </g>
    <g id="ytick_2">
     <g id="line2d_13">
      <path d="M 70.857031 193.4784 
L 427.977031 193.4784 
" clip-path="url(#pb89c3edd3e)" style="fill: none; stroke: #b0b0b0; stroke-width: 0.8; stroke-linecap: square"/>
     </g>
     <g id="line2d_14">
      <g>
       <use xlink:href="#m6f3f5b6aff" x="70.857031" y="193.4784" style="stroke: #000000; stroke-width: 0.8"/>
      </g>
     </g>
     <g id="text_8">
      <!-- −10 -->
      <g transform="translate(32.2 199.177228)scale(0.15 -0.15)">
       <use xlink:href="#DejaVuSans-2212"/>
       <use xlink:href="#DejaVuSans-31" x="83.789062"/>
       <use xlink:href="#DejaVuSans-30" x="147.412109"/>
      </g>
     </g>
    </g>
    <g id="ytick_3">
     <g id="line2d_15">
      <path d="M 70.857031 140.256 
L 427.977031 140.256 
" clip-path="url(#pb89c3edd3e)" style="fill: none; stroke: #b0b0b0; stroke-width: 0.8; stroke-linecap: square"/>
     </g>
     <g id="line2d_16">
      <g>
       <use xlink:href="#m6f3f5b6aff" x="70.857031" y="140.256" style="stroke: #000000; stroke-width: 0.8"/>
      </g>
     </g>
     <g id="text_9">
      <!-- 0 -->
      <g transform="translate(54.313281 145.954828)scale(0.15 -0.15)">
       <use xlink:href="#DejaVuSans-30"/>
      </g>
     </g>
    </g>
    <g id="ytick_4">
     <g id="line2d_17">
      <path d="M 70.857031 87.0336 
L 427.977031 87.0336 
" clip-path="url(#pb89c3edd3e)" style="fill: none; stroke: #b0b0b0; stroke-width: 0.8; stroke-linecap: square"/>
     </g>
     <g id="line2d_18">
      <g>
       <use xlink:href="#m6f3f5b6aff" x="70.857031" y="87.0336" style="stroke: #000000; stroke-width: 0.8"/>
      </g>
     </g>
     <g id="text_10">
      <!-- 10 -->
      <g transform="translate(44.769531 92.732428)scale(0.15 -0.15)">
       <use xlink:href="#DejaVuSans-31"/>
       <use xlink:href="#DejaVuSans-30" x="63.623047"/>
      </g>
     </g>
    </g>
    <g id="ytick_5">
     <g id="line2d_19">
      <path d="M 70.857031 33.8112 
L 427.977031 33.8112 
" clip-path="url(#pb89c3edd3e)" style="fill: none; stroke: #b0b0b0; stroke-width: 0.8; stroke-linecap: square"/>
     </g>
     <g id="line2d_20">
      <g>
       <use xlink:href="#m6f3f5b6aff" x="70.857031" y="33.8112" style="stroke: #000000; stroke-width: 0.8"/>
      </g>
     </g>
     <g id="text_11">
      <!-- 20 -->
      <g transform="translate(44.769531 39.510028)scale(0.15 -0.15)">
       <use xlink:href="#DejaVuSans-32"/>
       <use xlink:href="#DejaVuSans-30" x="63.623047"/>
      </g>
     </g>
    </g>
    <g id="text_12">
     <!-- RF field curvature ($mm^{-2}$) -->
     <g transform="translate(24.040625 270.956)rotate(-90)scale(0.2 -0.2)">
      <defs>
       <path id="DejaVuSans-52" d="M 2841 2188 
Q 3044 2119 3236 1894 
Q 3428 1669 3622 1275 
L 4263 0 
L 3584 0 
L 2988 1197 
Q 2756 1666 2539 1819 
Q 2322 1972 1947 1972 
L 1259 1972 
L 1259 0 
L 628 0 
L 628 4666 
L 2053 4666 
Q 2853 4666 3247 4331 
Q 3641 3997 3641 3322 
Q 3641 2881 3436 2590 
Q 3231 2300 2841 2188 
z
M 1259 4147 
L 1259 2491 
L 2053 2491 
Q 2509 2491 2742 2702 
Q 2975 2913 2975 3322 
Q 2975 3731 2742 3939 
Q 2509 4147 2053 4147 
L 1259 4147 
z
" transform="scale(0.015625)"/>
       <path id="DejaVuSans-46" d="M 628 4666 
L 3309 4666 
L 3309 4134 
L 1259 4134 
L 1259 2759 
L 3109 2759 
L 3109 2228 
L 1259 2228 
L 1259 0 
L 628 0 
L 628 4666 
z
" transform="scale(0.015625)"/>
       <path id="DejaVuSans-66" d="M 2375 4863 
L 2375 4384 
L 1825 4384 
Q 1516 4384 1395 4259 
Q 1275 4134 1275 3809 
L 1275 3500 
L 2222 3500 
L 2222 3053 
L 1275 3053 
L 1275 0 
L 697 0 
L 697 3053 
L 147 3053 
L 147 3500 
L 697 3500 
L 697 3744 
Q 697 4328 969 4595 
Q 1241 4863 1831 4863 
L 2375 4863 
z
" transform="scale(0.015625)"/>
       <path id="DejaVuSans-69" d="M 603 3500 
L 1178 3500 
L 1178 0 
L 603 0 
L 603 3500 
z
M 603 4863 
L 1178 4863 
L 1178 4134 
L 603 4134 
L 603 4863 
z
" transform="scale(0.015625)"/>
       <path id="DejaVuSans-65" d="M 3597 1894 
L 3597 1613 
L 953 1613 
Q 991 1019 1311 708 
Q 1631 397 2203 397 
Q 2534 397 2845 478 
Q 3156 559 3463 722 
L 3463 178 
Q 3153 47 2828 -22 
Q 2503 -91 2169 -91 
Q 1331 -91 842 396 
Q 353 884 353 1716 
Q 353 2575 817 3079 
Q 1281 3584 2069 3584 
Q 2775 3584 3186 3129 
Q 3597 2675 3597 1894 
z
M 3022 2063 
Q 3016 2534 2758 2815 
Q 2500 3097 2075 3097 
Q 1594 3097 1305 2825 
Q 1016 2553 972 2059 
L 3022 2063 
z
" transform="scale(0.015625)"/>
       <path id="DejaVuSans-6c" d="M 603 4863 
L 1178 4863 
L 1178 0 
L 603 0 
L 603 4863 
z
" transform="scale(0.015625)"/>
       <path id="DejaVuSans-64" d="M 2906 2969 
L 2906 4863 
L 3481 4863 
L 3481 0 
L 2906 0 
L 2906 525 
Q 2725 213 2448 61 
Q 2172 -91 1784 -91 
Q 1150 -91 751 415 
Q 353 922 353 1747 
Q 353 2572 751 3078 
Q 1150 3584 1784 3584 
Q 2172 3584 2448 3432 
Q 2725 3281 2906 2969 
z
M 947 1747 
Q 947 1113 1208 752 
Q 1469 391 1925 391 
Q 2381 391 2643 752 
Q 2906 1113 2906 1747 
Q 2906 2381 2643 2742 
Q 2381 3103 1925 3103 
Q 1469 3103 1208 2742 
Q 947 2381 947 1747 
z
" transform="scale(0.015625)"/>
       <path id="DejaVuSans-63" d="M 3122 3366 
L 3122 2828 
Q 2878 2963 2633 3030 
Q 2388 3097 2138 3097 
Q 1578 3097 1268 2742 
Q 959 2388 959 1747 
Q 959 1106 1268 751 
Q 1578 397 2138 397 
Q 2388 397 2633 464 
Q 2878 531 3122 666 
L 3122 134 
Q 2881 22 2623 -34 
Q 2366 -91 2075 -91 
Q 1284 -91 818 406 
Q 353 903 353 1747 
Q 353 2603 823 3093 
Q 1294 3584 2113 3584 
Q 2378 3584 2631 3529 
Q 2884 3475 3122 3366 
z
" transform="scale(0.015625)"/>
       <path id="DejaVuSans-75" d="M 544 1381 
L 544 3500 
L 1119 3500 
L 1119 1403 
Q 1119 906 1312 657 
Q 1506 409 1894 409 
Q 2359 409 2629 706 
Q 2900 1003 2900 1516 
L 2900 3500 
L 3475 3500 
L 3475 0 
L 2900 0 
L 2900 538 
Q 2691 219 2414 64 
Q 2138 -91 1772 -91 
Q 1169 -91 856 284 
Q 544 659 544 1381 
z
M 1991 3584 
L 1991 3584 
z
" transform="scale(0.015625)"/>
       <path id="DejaVuSans-72" d="M 2631 2963 
Q 2534 3019 2420 3045 
Q 2306 3072 2169 3072 
Q 1681 3072 1420 2755 
Q 1159 2438 1159 1844 
L 1159 0 
L 581 0 
L 581 3500 
L 1159 3500 
L 1159 2956 
Q 1341 3275 1631 3429 
Q 1922 3584 2338 3584 
Q 2397 3584 2469 3576 
Q 2541 3569 2628 3553 
L 2631 2963 
z
" transform="scale(0.015625)"/>
       <path id="DejaVuSans-76" d="M 191 3500 
L 800 3500 
L 1894 563 
L 2988 3500 
L 3597 3500 
L 2284 0 
L 1503 0 
L 191 3500 
z
" transform="scale(0.015625)"/>
       <path id="DejaVuSans-61" d="M 2194 1759 
Q 1497 1759 1228 1600 
Q 959 1441 959 1056 
Q 959 750 1161 570 
Q 1363 391 1709 391 
Q 2188 391 2477 730 
Q 2766 1069 2766 1631 
L 2766 1759 
L 2194 1759 
z
M 3341 1997 
L 3341 0 
L 2766 0 
L 2766 531 
Q 2569 213 2275 61 
Q 1981 -91 1556 -91 
Q 1019 -91 701 211 
Q 384 513 384 1019 
Q 384 1609 779 1909 
Q 1175 2209 1959 2209 
L 2766 2209 
L 2766 2266 
Q 2766 2663 2505 2880 
Q 2244 3097 1772 3097 
Q 1472 3097 1187 3025 
Q 903 2953 641 2809 
L 641 3341 
Q 956 3463 1253 3523 
Q 1550 3584 1831 3584 
Q 2591 3584 2966 3190 
Q 3341 2797 3341 1997 
z
" transform="scale(0.015625)"/>
       <path id="DejaVuSans-74" d="M 1172 4494 
L 1172 3500 
L 2356 3500 
L 2356 3053 
L 1172 3053 
L 1172 1153 
Q 1172 725 1289 603 
Q 1406 481 1766 481 
L 2356 481 
L 2356 0 
L 1766 0 
Q 1100 0 847 248 
Q 594 497 594 1153 
L 594 3053 
L 172 3053 
L 172 3500 
L 594 3500 
L 594 4494 
L 1172 4494 
z
" transform="scale(0.015625)"/>
      </defs>
      <use xlink:href="#DejaVuSans-52" transform="translate(0 0.765625)"/>
      <use xlink:href="#DejaVuSans-46" transform="translate(69.482422 0.765625)"/>
      <use xlink:href="#DejaVuSans-20" transform="translate(127.001953 0.765625)"/>
      <use xlink:href="#DejaVuSans-66" transform="translate(158.789062 0.765625)"/>
      <use xlink:href="#DejaVuSans-69" transform="translate(193.994141 0.765625)"/>
      <use xlink:href="#DejaVuSans-65" transform="translate(221.777344 0.765625)"/>
      <use xlink:href="#DejaVuSans-6c" transform="translate(283.300781 0.765625)"/>
      <use xlink:href="#DejaVuSans-64" transform="translate(311.083984 0.765625)"/>
      <use xlink:href="#DejaVuSans-20" transform="translate(374.560547 0.765625)"/>
      <use xlink:href="#DejaVuSans-63" transform="translate(406.347656 0.765625)"/>
      <use xlink:href="#DejaVuSans-75" transform="translate(461.328125 0.765625)"/>
      <use xlink:href="#DejaVuSans-72" transform="translate(524.707031 0.765625)"/>
      <use xlink:href="#DejaVuSans-76" transform="translate(565.820312 0.765625)"/>
      <use xlink:href="#DejaVuSans-61" transform="translate(625 0.765625)"/>
      <use xlink:href="#DejaVuSans-74" transform="translate(686.279297 0.765625)"/>
      <use xlink:href="#DejaVuSans-75" transform="translate(725.488281 0.765625)"/>
      <use xlink:href="#DejaVuSans-72" transform="translate(788.867188 0.765625)"/>
      <use xlink:href="#DejaVuSans-65" transform="translate(829.980469 0.765625)"/>
      <use xlink:href="#DejaVuSans-20" transform="translate(891.503906 0.765625)"/>
      <use xlink:href="#DejaVuSans-28" transform="translate(923.291016 0.765625)"/>
      <use xlink:href="#DejaVuSans-Oblique-6d" transform="translate(962.304688 0.765625)"/>
      <use xlink:href="#DejaVuSans-Oblique-6d" transform="translate(1059.716797 0.765625)"/>
      <use xlink:href="#DejaVuSans-2212" transform="translate(1161.778802 39.046875)scale(0.7)"/>
      <use xlink:href="#DejaVuSans-32" transform="translate(1220.431146 39.046875)scale(0.7)"/>
      <use xlink:href="#DejaVuSans-29" transform="translate(1267.701654 0.765625)"/>
     </g>
    </g>
   </g>
   <g id="line2d_21">
    <path d="M 87.089759 52.270715 
L 87.780513 19.521815 
L 88.471267 65.507494 
L 89.162022 88.524674 
L 90.198153 117.127338 
L 90.888907 135.760365 
L 91.579662 148.251384 
L 91.925039 151.020536 
L 92.270416 151.687617 
L 92.615793 150.795542 
L 93.306548 146.737448 
L 94.342679 140.521995 
L 95.033434 138.19533 
L 95.378811 137.672501 
L 95.724188 137.535478 
L 96.069565 137.726571 
L 96.760319 138.796599 
L 98.141828 141.456187 
L 98.487205 141.85016 
L 98.832583 142.06549 
L 99.17796 142.098423 
L 99.523337 141.96186 
L 100.214091 141.300987 
L 101.5956 139.71542 
L 101.940977 139.537665 
L 102.286354 139.508338 
L 102.631731 139.629955 
L 103.322486 140.23575 
L 104.358617 141.2892 
L 104.703994 141.439453 
L 105.049372 141.420255 
L 105.394749 141.227463 
L 106.085503 140.450827 
L 106.776258 139.567636 
L 107.121635 139.259456 
L 107.467012 139.110482 
L 107.812389 139.143904 
L 108.157766 139.35413 
L 108.848521 140.142023 
L 109.539275 140.958759 
L 109.884652 141.196407 
L 110.230029 141.258656 
L 110.575406 141.140966 
L 111.266161 140.52146 
L 111.956915 139.85435 
L 112.302292 139.682192 
L 112.64767 139.677031 
L 112.993047 139.846819 
L 113.683801 140.587746 
L 114.374555 141.43022 
L 114.719933 141.700356 
L 115.06531 141.794462 
L 115.410687 141.694218 
L 116.101441 141.016902 
L 117.137573 139.799558 
L 117.48295 139.604082 
L 117.828327 139.565797 
L 118.519082 139.883767 
L 119.555213 140.55788 
L 119.90059 140.608714 
L 120.245967 140.519841 
L 120.936722 139.957451 
L 122.663608 138.052769 
L 123.354362 137.775218 
L 124.045116 137.834123 
L 126.808134 138.64544 
L 129.225774 138.900147 
L 131.298037 139.558557 
L 132.679546 139.896099 
L 134.406432 140.241331 
L 135.442563 140.701756 
L 138.205581 142.271994 
L 139.241712 142.437702 
L 140.277844 142.328147 
L 142.00473 141.816906 
L 144.076993 141.228455 
L 146.84001 140.754237 
L 149.25765 140.544483 
L 157.201325 140.30024 
L 163.763492 140.283958 
L 167.217263 140.253581 
L 192.775174 140.255597 
L 198.991964 140.266512 
L 208.317147 140.269767 
L 343.014246 140.341939 
L 350.612544 140.610618 
L 353.030184 140.93421 
L 355.447824 141.43148 
L 359.246973 142.432022 
L 360.283105 142.33958 
L 361.319236 141.938089 
L 363.046122 140.832286 
L 364.082254 140.299044 
L 365.118385 140.044805 
L 367.190648 139.72258 
L 370.989797 138.674101 
L 373.06206 138.543213 
L 374.098192 138.169519 
L 375.134323 137.816895 
L 375.825078 137.881335 
L 376.515832 138.331367 
L 377.551964 139.558167 
L 378.242718 140.321555 
L 378.588095 140.550569 
L 378.933472 140.637001 
L 379.278849 140.576645 
L 379.969604 140.127285 
L 380.660358 139.620463 
L 381.005735 139.508049 
L 381.351112 139.552571 
L 381.69649 139.768218 
L 382.387244 140.607721 
L 383.077998 141.551819 
L 383.423376 141.859976 
L 383.768753 141.975494 
L 384.11413 141.877174 
L 384.804884 141.151255 
L 385.841016 139.829637 
L 386.186393 139.631727 
L 386.53177 139.62475 
L 386.877147 139.801919 
L 388.604033 141.360669 
L 388.94941 141.31116 
L 389.294788 141.069775 
L 391.021673 139.119177 
L 391.367051 139.07573 
L 391.712428 139.229297 
L 392.403182 140.004648 
L 393.439314 141.344725 
L 393.784691 141.553467 
L 394.130068 141.572647 
L 394.475445 141.405385 
L 395.1662 140.670956 
L 395.856954 139.834351 
L 396.547708 139.392608 
L 396.893085 139.408854 
L 397.238463 139.588211 
L 397.929217 140.33303 
L 398.965348 141.705972 
L 399.310726 142.014379 
L 399.656103 142.168843 
L 400.00148 142.137471 
L 400.346857 141.903561 
L 400.692234 141.468137 
L 401.382989 140.099043 
L 402.41912 137.686271 
L 402.764497 137.121501 
L 403.109875 136.830516 
L 403.455252 136.89776 
L 403.800629 137.379842 
L 404.146006 138.357825 
L 404.491383 139.842038 
L 405.182138 144.223485 
L 406.218269 152.037402 
L 406.563646 153.489654 
L 406.909024 153.292154 
L 407.254401 150.710937 
L 407.599778 145.303916 
L 408.290532 127.02282 
L 410.017418 70.862561 
L 410.362795 54.550688 
L 410.708172 18.468605 
L 411.05355 21.701592 
L 411.744304 53.080017 
L 411.744304 53.080017 
" clip-path="url(#pb89c3edd3e)" style="fill: none; stroke: #1f77b4; stroke-width: 1.5; stroke-linecap: square"/>
   </g>
   <g id="line2d_22">
    <path d="M 87.089759 211.545379 
L 87.780513 250.00258 
L 88.12589 197.834266 
L 88.471267 165.93614 
L 89.162022 135.992477 
L 90.888907 84.136905 
L 91.579662 67.537969 
L 92.270416 57.478199 
L 92.615793 54.771134 
L 92.961171 53.021355 
L 93.306548 51.953779 
L 93.997302 50.85713 
L 94.688056 50.200067 
L 95.378811 49.12037 
L 96.069565 47.533997 
L 97.451074 43.36037 
L 98.487205 40.460943 
L 99.17796 39.067599 
L 99.868714 38.138337 
L 101.940977 36.046262 
L 102.631731 34.887266 
L 103.667863 32.56488 
L 104.703994 30.319606 
L 105.394749 29.300753 
L 106.085503 28.670619 
L 107.121635 27.844361 
L 107.812389 26.942237 
L 108.848521 24.933379 
L 109.884652 22.933531 
L 110.575406 22.102214 
L 110.920784 21.711289 
L 112.302292 20.968603 
L 112.993047 20.285146 
L 114.374555 18.597512 
L 114.719933 18.378116 
L 115.06531 18.334017 
L 115.410687 18.488416 
L 115.756064 18.840062 
L 116.446818 20.031546 
L 118.519082 24.823702 
L 121.972853 32.553005 
L 122.663608 33.41206 
L 123.354362 33.844855 
L 124.045116 33.941832 
L 125.081248 33.753596 
L 127.498888 33.018382 
L 128.53502 32.387722 
L 129.225774 31.665764 
L 130.261906 30.240103 
L 131.298037 28.356987 
L 133.715677 23.691769 
L 134.751809 22.188289 
L 135.78794 21.030645 
L 137.169449 19.869548 
L 138.550958 19.041582 
L 139.587089 18.635577 
L 140.968598 18.370271 
L 142.695484 18.349237 
L 156.510571 18.878909 
L 162.72736 18.820704 
L 169.980281 18.670267 
L 240.091847 17.604017 
L 280.1556 17.272737 
L 295.352196 17.211726 
L 338.178965 17.080158 
L 347.504149 16.79712 
L 353.030184 16.312381 
L 356.829333 15.976578 
L 358.210842 16.031021 
L 359.246973 16.244759 
L 360.283105 16.634341 
L 361.664613 17.414421 
L 363.046122 18.492355 
L 364.082254 19.565729 
L 365.118385 20.980324 
L 366.154517 22.78341 
L 368.917534 27.935646 
L 369.953666 29.167102 
L 370.64442 29.687899 
L 371.680552 30.109742 
L 374.443569 30.661343 
L 375.134323 30.659412 
L 375.825078 30.392918 
L 376.515832 29.722566 
L 377.206586 28.592869 
L 378.242718 26.209044 
L 382.732621 14.938462 
L 383.423376 13.919649 
L 383.768753 13.718573 
L 384.11413 13.731504 
L 384.459507 13.935403 
L 385.150261 14.724146 
L 386.186393 16.004548 
L 386.877147 16.494223 
L 388.258656 17.0837 
L 388.94941 17.843275 
L 389.640165 19.080643 
L 391.021673 21.936699 
L 391.712428 22.796502 
L 392.748559 23.500506 
L 393.439314 24.046549 
L 394.130068 25.014296 
L 394.820822 26.442415 
L 396.202331 29.594764 
L 396.893085 30.721569 
L 397.58384 31.434254 
L 399.310726 32.777245 
L 400.00148 33.862603 
L 400.692234 35.489167 
L 401.728366 38.784967 
L 402.764497 41.978262 
L 403.455252 43.557429 
L 404.146006 44.403725 
L 405.527515 45.467019 
L 405.872892 46.106963 
L 406.218269 47.535526 
L 406.563646 50.038581 
L 406.909024 54.082426 
L 407.254401 60.085196 
L 407.945155 78.173239 
L 409.326664 125.331257 
L 410.017418 154.059609 
L 410.362795 176.705333 
L 410.708172 236.350141 
L 411.05355 248.309853 
L 411.744304 212.026387 
L 411.744304 212.026387 
" clip-path="url(#pb89c3edd3e)" style="fill: none; stroke: #ff7f0e; stroke-width: 1.5; stroke-linecap: square"/>
   </g>
   <g id="line2d_23">
    <path d="M 87.089759 140.027409 
L 87.780513 143.037578 
L 88.12589 179.158703 
L 88.471267 191.634411 
L 88.816644 195.917924 
L 89.162022 197.90778 
L 89.507399 198.88106 
L 89.852776 199.222476 
L 90.198153 199.347426 
L 90.54353 199.642385 
L 90.888907 200.434426 
L 91.234285 201.986518 
L 91.925039 207.559744 
L 93.651925 225.182387 
L 94.342679 229.830355 
L 95.033434 232.98431 
L 95.724188 234.894294 
L 96.414942 235.99438 
L 98.487205 238.367777 
L 99.523337 240.206443 
L 102.631731 246.330737 
L 105.394749 250.115646 
L 107.467012 254.237689 
L 108.157766 255.085977 
L 110.230029 256.964594 
L 110.575406 257.458238 
L 111.611538 259.285639 
L 112.302292 260.214507 
L 112.993047 260.731021 
L 113.683801 260.841021 
L 116.101441 260.434508 
L 116.446818 260.26149 
L 116.792196 259.963789 
L 117.48295 258.882994 
L 118.173704 257.155191 
L 119.555213 252.930939 
L 120.245967 251.314518 
L 120.936722 250.264902 
L 121.627476 249.698429 
L 122.663608 249.324535 
L 125.426625 248.725233 
L 126.462757 248.768221 
L 127.498888 249.067944 
L 128.53502 249.618183 
L 129.225774 250.207652 
L 130.261906 251.321057 
L 131.298037 252.852588 
L 134.061054 257.502943 
L 134.751809 258.247286 
L 135.442563 258.713656 
L 136.133318 258.957041 
L 139.587089 259.695516 
L 143.040861 260.910267 
L 144.767747 261.20537 
L 147.530764 261.425862 
L 152.711422 261.527868 
L 168.944149 261.809149 
L 240.782602 262.918696 
L 249.417031 262.975533 
L 308.131151 263.331227 
L 319.528598 263.331531 
L 354.411693 263.413629 
L 356.138579 263.124528 
L 357.865465 262.587614 
L 360.283105 261.78267 
L 361.664613 261.595037 
L 363.046122 261.426281 
L 363.736877 261.186057 
L 364.427631 260.625554 
L 365.118385 259.771689 
L 366.154517 258.068887 
L 367.881403 255.082696 
L 368.917534 253.727874 
L 369.953666 252.808356 
L 370.989797 252.234355 
L 372.025929 251.914885 
L 373.06206 251.848163 
L 373.752815 251.885102 
L 375.4797 252.412574 
L 376.861209 252.88381 
L 377.551964 253.333742 
L 378.242718 254.194283 
L 378.933472 255.638828 
L 379.969604 258.785447 
L 381.005735 262.042269 
L 381.69649 263.575309 
L 382.387244 264.412313 
L 383.077998 264.739347 
L 383.423376 264.816853 
L 383.768753 265.06415 
L 385.495639 265.498898 
L 386.186393 265.279358 
L 386.877147 264.594145 
L 389.294788 261.233337 
L 390.676296 260.129079 
L 391.367051 259.340147 
L 392.057805 258.16568 
L 394.130068 254.060781 
L 395.1662 252.760347 
L 396.547708 251.282378 
L 397.58384 249.512821 
L 400.346857 244.201498 
L 401.382989 242.942409 
L 402.764497 241.720634 
L 403.109875 241.197277 
L 403.800629 239.589249 
L 404.491383 236.521817 
L 405.182138 231.505018 
L 405.872892 224.89566 
L 407.254401 209.228886 
L 407.599778 206.580271 
L 407.945155 204.870902 
L 408.290532 204.029476 
L 409.326664 203.163431 
L 409.672041 201.843558 
L 410.017418 198.834838 
L 410.362795 192.258416 
L 411.05355 142.859223 
L 411.398927 141.47136 
L 411.744304 138.938008 
L 411.744304 138.938008 
" clip-path="url(#pb89c3edd3e)" style="fill: none; stroke: #2ca02c; stroke-width: 1.5; stroke-linecap: square"/>
   </g>
   <g id="patch_3">
    <path d="M 70.857031 273.312 
L 70.857031 7.2 
" style="fill: none; stroke: #000000; stroke-width: 0.8; stroke-linejoin: miter; stroke-linecap: square"/>
   </g>
   <g id="patch_4">
    <path d="M 427.977031 273.312 
L 427.977031 7.2 
" style="fill: none; stroke: #000000; stroke-width: 0.8; stroke-linejoin: miter; stroke-linecap: square"/>
   </g>
   <g id="patch_5">
    <path d="M 70.857031 273.312 
L 427.977031 273.312 
" style="fill: none; stroke: #000000; stroke-width: 0.8; stroke-linejoin: miter; stroke-linecap: square"/>
   </g>
   <g id="patch_6">
    <path d="M 70.857031 7.2 
L 427.977031 7.2 
" style="fill: none; stroke: #000000; stroke-width: 0.8; stroke-linejoin: miter; stroke-linecap: square"/>
   </g>
  </g>
 </g>
 <defs>
  <clipPath id="pb89c3edd3e">
   <rect x="70.857031" y="7.2" width="357.12" height="266.112"/>
  </clipPath>
 </defs>
</svg>
