<?xml version="1.0" encoding="utf-8" standalone="no"?>
<!DOCTYPE svg PUBLIC "-//W3C//DTD SVG 1.1//EN"
  "http://www.w3.org/Graphics/SVG/1.1/DTD/svg11.dtd">
<svg xmlns:xlink="http://www.w3.org/1999/xlink" width="434.977031pt" height="325.429187pt" viewBox="0 0 434.977031 325.429187" xmlns="http://www.w3.org/2000/svg" version="1.1">
 <defs>
  <style type="text/css">*{stroke-linejoin: round; stroke-linecap: butt}</style>
 </defs>
 <g id="figure_1">
  <g id="patch_1">
   <path d="M 0 325.429187 
L 434.977031 325.429187 
L 434.977031 0 
L 0 0 
L 0 325.429187 
z
" style="fill: none"/>
  </g>
  <g id="axes_1">
   <g id="patch_2">
    <path d="M 70.657031 273.312 
L 427.777031 273.312 
L 427.777031 7.2 
L 70.657031 7.2 
L 70.657031 273.312 
z
" style="fill: none"/>
   </g>
   <g id="matplotlib.axis_1">
    <g id="xtick_1">
     <g id="line2d_1">
      <path d="M 102.587341 273.312 
L 102.587341 7.2 
" clip-path="url(#p8a517a21ca)" style="fill: none; stroke: #b0b0b0; stroke-width: 0.8; stroke-linecap: square"/>
     </g>
     <g id="line2d_2">
      <defs>
       <path id="md39032bed2" d="M 0 0 
L 0 3.5 
" style="stroke: #000000; stroke-width: 0.8"/>
      </defs>
      <g>
       <use xlink:href="#md39032bed2" x="102.587341" y="273.312" style="stroke: #000000; stroke-width: 0.8"/>
      </g>
     </g>
     <g id="text_1">
      <!-- −3000 -->
      <g transform="translate(77.215075 291.709656)scale(0.15 -0.15)">
       <defs>
        <path id="DejaVuSans-2212" d="M 678 2272 
L 4684 2272 
L 4684 1741 
L 678 1741 
L 678 2272 
z
" transform="scale(0.015625)"/>
        <path id="DejaVuSans-33" d="M 2597 2516 
Q 3050 2419 3304 2112 
Q 3559 1806 3559 1356 
Q 3559 666 3084 287 
Q 2609 -91 1734 -91 
Q 1441 -91 1130 -33 
Q 819 25 488 141 
L 488 750 
Q 750 597 1062 519 
Q 1375 441 1716 441 
Q 2309 441 2620 675 
Q 2931 909 2931 1356 
Q 2931 1769 2642 2001 
Q 2353 2234 1838 2234 
L 1294 2234 
L 1294 2753 
L 1863 2753 
Q 2328 2753 2575 2939 
Q 2822 3125 2822 3475 
Q 2822 3834 2567 4026 
Q 2313 4219 1838 4219 
Q 1578 4219 1281 4162 
Q 984 4106 628 3988 
L 628 4550 
Q 988 4650 1302 4700 
Q 1616 4750 1894 4750 
Q 2613 4750 3031 4423 
Q 3450 4097 3450 3541 
Q 3450 3153 3228 2886 
Q 3006 2619 2597 2516 
z
" transform="scale(0.015625)"/>
        <path id="DejaVuSans-30" d="M 2034 4250 
Q 1547 4250 1301 3770 
Q 1056 3291 1056 2328 
Q 1056 1369 1301 889 
Q 1547 409 2034 409 
Q 2525 409 2770 889 
Q 3016 1369 3016 2328 
Q 3016 3291 2770 3770 
Q 2525 4250 2034 4250 
z
M 2034 4750 
Q 2819 4750 3233 4129 
Q 3647 3509 3647 2328 
Q 3647 1150 3233 529 
Q 2819 -91 2034 -91 
Q 1250 -91 836 529 
Q 422 1150 422 2328 
Q 422 3509 836 4129 
Q 1250 4750 2034 4750 
z
" transform="scale(0.015625)"/>
       </defs>
       <use xlink:href="#DejaVuSans-2212"/>
       <use xlink:href="#DejaVuSans-33" x="83.789062"/>
       <use xlink:href="#DejaVuSans-30" x="147.412109"/>
       <use xlink:href="#DejaVuSans-30" x="211.035156"/>
       <use xlink:href="#DejaVuSans-30" x="274.658203"/>
      </g>
     </g>
    </g>
    <g id="xtick_2">
     <g id="line2d_3">
      <path d="M 173.939988 273.312 
L 173.939988 7.2 
" clip-path="url(#p8a517a21ca)" style="fill: none; stroke: #b0b0b0; stroke-width: 0.8; stroke-linecap: square"/>
     </g>
     <g id="line2d_4">
      <g>
       <use xlink:href="#md39032bed2" x="173.939988" y="273.312" style="stroke: #000000; stroke-width: 0.8"/>
      </g>
     </g>
     <g id="text_2">
      <!-- −2000 -->
      <g transform="translate(148.567723 291.709656)scale(0.15 -0.15)">
       <defs>
        <path id="DejaVuSans-32" d="M 1228 531 
L 3431 531 
L 3431 0 
L 469 0 
L 469 531 
Q 828 903 1448 1529 
Q 2069 2156 2228 2338 
Q 2531 2678 2651 2914 
Q 2772 3150 2772 3378 
Q 2772 3750 2511 3984 
Q 2250 4219 1831 4219 
Q 1534 4219 1204 4116 
Q 875 4013 500 3803 
L 500 4441 
Q 881 4594 1212 4672 
Q 1544 4750 1819 4750 
Q 2544 4750 2975 4387 
Q 3406 4025 3406 3419 
Q 3406 3131 3298 2873 
Q 3191 2616 2906 2266 
Q 2828 2175 2409 1742 
Q 1991 1309 1228 531 
z
" transform="scale(0.015625)"/>
       </defs>
       <use xlink:href="#DejaVuSans-2212"/>
       <use xlink:href="#DejaVuSans-32" x="83.789062"/>
       <use xlink:href="#DejaVuSans-30" x="147.412109"/>
       <use xlink:href="#DejaVuSans-30" x="211.035156"/>
       <use xlink:href="#DejaVuSans-30" x="274.658203"/>
      </g>
     </g>
    </g>
    <g id="xtick_3">
     <g id="line2d_5">
      <path d="M 245.292636 273.312 
L 245.292636 7.2 
" clip-path="url(#p8a517a21ca)" style="fill: none; stroke: #b0b0b0; stroke-width: 0.8; stroke-linecap: square"/>
     </g>
     <g id="line2d_6">
      <g>
       <use xlink:href="#md39032bed2" x="245.292636" y="273.312" style="stroke: #000000; stroke-width: 0.8"/>
      </g>
     </g>
     <g id="text_3">
      <!-- −1000 -->
      <g transform="translate(219.92037 291.709656)scale(0.15 -0.15)">
       <defs>
        <path id="DejaVuSans-31" d="M 794 531 
L 1825 531 
L 1825 4091 
L 703 3866 
L 703 4441 
L 1819 4666 
L 2450 4666 
L 2450 531 
L 3481 531 
L 3481 0 
L 794 0 
L 794 531 
z
" transform="scale(0.015625)"/>
       </defs>
       <use xlink:href="#DejaVuSans-2212"/>
       <use xlink:href="#DejaVuSans-31" x="83.789062"/>
       <use xlink:href="#DejaVuSans-30" x="147.412109"/>
       <use xlink:href="#DejaVuSans-30" x="211.035156"/>
       <use xlink:href="#DejaVuSans-30" x="274.658203"/>
      </g>
     </g>
    </g>
    <g id="xtick_4">
     <g id="line2d_7">
      <path d="M 316.645283 273.312 
L 316.645283 7.2 
" clip-path="url(#p8a517a21ca)" style="fill: none; stroke: #b0b0b0; stroke-width: 0.8; stroke-linecap: square"/>
     </g>
     <g id="line2d_8">
      <g>
       <use xlink:href="#md39032bed2" x="316.645283" y="273.312" style="stroke: #000000; stroke-width: 0.8"/>
      </g>
     </g>
     <g id="text_4">
      <!-- 0 -->
      <g transform="translate(311.873408 291.709656)scale(0.15 -0.15)">
       <use xlink:href="#DejaVuSans-30"/>
      </g>
     </g>
    </g>
    <g id="xtick_5">
     <g id="line2d_9">
      <path d="M 387.99793 273.312 
L 387.99793 7.2 
" clip-path="url(#p8a517a21ca)" style="fill: none; stroke: #b0b0b0; stroke-width: 0.8; stroke-linecap: square"/>
     </g>
     <g id="line2d_10">
      <g>
       <use xlink:href="#md39032bed2" x="387.99793" y="273.312" style="stroke: #000000; stroke-width: 0.8"/>
      </g>
     </g>
     <g id="text_5">
      <!-- 1000 -->
      <g transform="translate(368.91043 291.709656)scale(0.15 -0.15)">
       <use xlink:href="#DejaVuSans-31"/>
       <use xlink:href="#DejaVuSans-30" x="63.623047"/>
       <use xlink:href="#DejaVuSans-30" x="127.246094"/>
       <use xlink:href="#DejaVuSans-30" x="190.869141"/>
      </g>
     </g>
    </g>
    <g id="text_6">
     <!-- X ($\mu m$) -->
     <g transform="translate(215.217031 314.029187)scale(0.2 -0.2)">
      <defs>
       <path id="DejaVuSans-58" d="M 403 4666 
L 1081 4666 
L 2241 2931 
L 3406 4666 
L 4084 4666 
L 2584 2425 
L 4184 0 
L 3506 0 
L 2194 1984 
L 872 0 
L 191 0 
L 1856 2491 
L 403 4666 
z
" transform="scale(0.015625)"/>
       <path id="DejaVuSans-20" transform="scale(0.015625)"/>
       <path id="DejaVuSans-28" d="M 1984 4856 
Q 1566 4138 1362 3434 
Q 1159 2731 1159 2009 
Q 1159 1288 1364 580 
Q 1569 -128 1984 -844 
L 1484 -844 
Q 1016 -109 783 600 
Q 550 1309 550 2009 
Q 550 2706 781 3412 
Q 1013 4119 1484 4856 
L 1984 4856 
z
" transform="scale(0.015625)"/>
       <path id="DejaVuSans-Oblique-3bc" d="M -84 -1331 
L 856 3500 
L 1434 3500 
L 1009 1322 
Q 997 1256 987 1175 
Q 978 1094 978 1013 
Q 978 722 1161 565 
Q 1344 409 1684 409 
Q 2147 409 2431 671 
Q 2716 934 2816 1459 
L 3213 3500 
L 3788 3500 
L 3266 809 
Q 3253 750 3248 706 
Q 3244 663 3244 628 
Q 3244 531 3283 486 
Q 3322 441 3406 441 
Q 3438 441 3492 456 
Q 3547 472 3647 513 
L 3559 50 
Q 3422 -19 3297 -55 
Q 3172 -91 3053 -91 
Q 2847 -91 2730 40 
Q 2613 172 2613 403 
Q 2438 153 2195 31 
Q 1953 -91 1625 -91 
Q 1334 -91 1117 43 
Q 900 178 831 397 
L 494 -1331 
L -84 -1331 
z
" transform="scale(0.015625)"/>
       <path id="DejaVuSans-Oblique-6d" d="M 5747 2113 
L 5338 0 
L 4763 0 
L 5166 2094 
Q 5191 2228 5203 2325 
Q 5216 2422 5216 2491 
Q 5216 2772 5059 2928 
Q 4903 3084 4622 3084 
Q 4203 3084 3875 2770 
Q 3547 2456 3450 1953 
L 3066 0 
L 2491 0 
L 2900 2094 
Q 2925 2209 2937 2307 
Q 2950 2406 2950 2484 
Q 2950 2769 2794 2926 
Q 2638 3084 2363 3084 
Q 1938 3084 1609 2770 
Q 1281 2456 1184 1953 
L 800 0 
L 225 0 
L 909 3500 
L 1484 3500 
L 1375 2956 
Q 1609 3263 1923 3423 
Q 2238 3584 2597 3584 
Q 2978 3584 3223 3384 
Q 3469 3184 3519 2828 
Q 3781 3197 4126 3390 
Q 4472 3584 4856 3584 
Q 5306 3584 5551 3325 
Q 5797 3066 5797 2591 
Q 5797 2488 5784 2364 
Q 5772 2241 5747 2113 
z
" transform="scale(0.015625)"/>
       <path id="DejaVuSans-29" d="M 513 4856 
L 1013 4856 
Q 1481 4119 1714 3412 
Q 1947 2706 1947 2009 
Q 1947 1309 1714 600 
Q 1481 -109 1013 -844 
L 513 -844 
Q 928 -128 1133 580 
Q 1338 1288 1338 2009 
Q 1338 2731 1133 3434 
Q 928 4138 513 4856 
z
" transform="scale(0.015625)"/>
      </defs>
      <use xlink:href="#DejaVuSans-58" transform="translate(0 0.125)"/>
      <use xlink:href="#DejaVuSans-20" transform="translate(68.505859 0.125)"/>
      <use xlink:href="#DejaVuSans-28" transform="translate(100.292969 0.125)"/>
      <use xlink:href="#DejaVuSans-Oblique-3bc" transform="translate(139.306641 0.125)"/>
      <use xlink:href="#DejaVuSans-Oblique-6d" transform="translate(202.929688 0.125)"/>
      <use xlink:href="#DejaVuSans-29" transform="translate(300.341797 0.125)"/>
     </g>
    </g>
   </g>
   <g id="matplotlib.axis_2">
    <g id="ytick_1">
     <g id="line2d_11">
      <path d="M 70.657031 224.308065 
L 427.777031 224.308065 
" clip-path="url(#p8a517a21ca)" style="fill: none; stroke: #b0b0b0; stroke-width: 0.8; stroke-linecap: square"/>
     </g>
     <g id="line2d_12">
      <defs>
       <path id="m6f3f5b6aff" d="M 0 0 
L -3.5 0 
" style="stroke: #000000; stroke-width: 0.8"/>
      </defs>
      <g>
       <use xlink:href="#m6f3f5b6aff" x="70.657031" y="224.308065" style="stroke: #000000; stroke-width: 0.8"/>
      </g>
     </g>
     <g id="text_7">
      <!-- −50 -->
      <g transform="translate(32 230.006893)scale(0.15 -0.15)">
       <defs>
        <path id="DejaVuSans-35" d="M 691 4666 
L 3169 4666 
L 3169 4134 
L 1269 4134 
L 1269 2991 
Q 1406 3038 1543 3061 
Q 1681 3084 1819 3084 
Q 2600 3084 3056 2656 
Q 3513 2228 3513 1497 
Q 3513 744 3044 326 
Q 2575 -91 1722 -91 
Q 1428 -91 1123 -41 
Q 819 9 494 109 
L 494 744 
Q 775 591 1075 516 
Q 1375 441 1709 441 
Q 2250 441 2565 725 
Q 2881 1009 2881 1497 
Q 2881 1984 2565 2268 
Q 2250 2553 1709 2553 
Q 1456 2553 1204 2497 
Q 953 2441 691 2322 
L 691 4666 
z
" transform="scale(0.015625)"/>
       </defs>
       <use xlink:href="#DejaVuSans-2212"/>
       <use xlink:href="#DejaVuSans-35" x="83.789062"/>
       <use xlink:href="#DejaVuSans-30" x="147.412109"/>
      </g>
     </g>
    </g>
    <g id="ytick_2">
     <g id="line2d_13">
      <path d="M 70.657031 169.45389 
L 427.777031 169.45389 
" clip-path="url(#p8a517a21ca)" style="fill: none; stroke: #b0b0b0; stroke-width: 0.8; stroke-linecap: square"/>
     </g>
     <g id="line2d_14">
      <g>
       <use xlink:href="#m6f3f5b6aff" x="70.657031" y="169.45389" style="stroke: #000000; stroke-width: 0.8"/>
      </g>
     </g>
     <g id="text_8">
      <!-- 0 -->
      <g transform="translate(54.113281 175.152718)scale(0.15 -0.15)">
       <use xlink:href="#DejaVuSans-30"/>
      </g>
     </g>
    </g>
    <g id="ytick_3">
     <g id="line2d_15">
      <path d="M 70.657031 114.599715 
L 427.777031 114.599715 
" clip-path="url(#p8a517a21ca)" style="fill: none; stroke: #b0b0b0; stroke-width: 0.8; stroke-linecap: square"/>
     </g>
     <g id="line2d_16">
      <g>
       <use xlink:href="#m6f3f5b6aff" x="70.657031" y="114.599715" style="stroke: #000000; stroke-width: 0.8"/>
      </g>
     </g>
     <g id="text_9">
      <!-- 50 -->
      <g transform="translate(44.569531 120.298543)scale(0.15 -0.15)">
       <use xlink:href="#DejaVuSans-35"/>
       <use xlink:href="#DejaVuSans-30" x="63.623047"/>
      </g>
     </g>
    </g>
    <g id="ytick_4">
     <g id="line2d_17">
      <path d="M 70.657031 59.74554 
L 427.777031 59.74554 
" clip-path="url(#p8a517a21ca)" style="fill: none; stroke: #b0b0b0; stroke-width: 0.8; stroke-linecap: square"/>
     </g>
     <g id="line2d_18">
      <g>
       <use xlink:href="#m6f3f5b6aff" x="70.657031" y="59.74554" style="stroke: #000000; stroke-width: 0.8"/>
      </g>
     </g>
     <g id="text_10">
      <!-- 100 -->
      <g transform="translate(35.025781 65.444368)scale(0.15 -0.15)">
       <use xlink:href="#DejaVuSans-31"/>
       <use xlink:href="#DejaVuSans-30" x="63.623047"/>
       <use xlink:href="#DejaVuSans-30" x="127.246094"/>
      </g>
     </g>
    </g>
    <g id="text_11">
     <!-- Axial RF field ($m^{-1}$) -->
     <g transform="translate(23.840625 237.156)rotate(-90)scale(0.2 -0.2)">
      <defs>
       <path id="DejaVuSans-41" d="M 2188 4044 
L 1331 1722 
L 3047 1722 
L 2188 4044 
z
M 1831 4666 
L 2547 4666 
L 4325 0 
L 3669 0 
L 3244 1197 
L 1141 1197 
L 716 0 
L 50 0 
L 1831 4666 
z
" transform="scale(0.015625)"/>
       <path id="DejaVuSans-78" d="M 3513 3500 
L 2247 1797 
L 3578 0 
L 2900 0 
L 1881 1375 
L 863 0 
L 184 0 
L 1544 1831 
L 300 3500 
L 978 3500 
L 1906 2253 
L 2834 3500 
L 3513 3500 
z
" transform="scale(0.015625)"/>
       <path id="DejaVuSans-69" d="M 603 3500 
L 1178 3500 
L 1178 0 
L 603 0 
L 603 3500 
z
M 603 4863 
L 1178 4863 
L 1178 4134 
L 603 4134 
L 603 4863 
z
" transform="scale(0.015625)"/>
       <path id="DejaVuSans-61" d="M 2194 1759 
Q 1497 1759 1228 1600 
Q 959 1441 959 1056 
Q 959 750 1161 570 
Q 1363 391 1709 391 
Q 2188 391 2477 730 
Q 2766 1069 2766 1631 
L 2766 1759 
L 2194 1759 
z
M 3341 1997 
L 3341 0 
L 2766 0 
L 2766 531 
Q 2569 213 2275 61 
Q 1981 -91 1556 -91 
Q 1019 -91 701 211 
Q 384 513 384 1019 
Q 384 1609 779 1909 
Q 1175 2209 1959 2209 
L 2766 2209 
L 2766 2266 
Q 2766 2663 2505 2880 
Q 2244 3097 1772 3097 
Q 1472 3097 1187 3025 
Q 903 2953 641 2809 
L 641 3341 
Q 956 3463 1253 3523 
Q 1550 3584 1831 3584 
Q 2591 3584 2966 3190 
Q 3341 2797 3341 1997 
z
" transform="scale(0.015625)"/>
       <path id="DejaVuSans-6c" d="M 603 4863 
L 1178 4863 
L 1178 0 
L 603 0 
L 603 4863 
z
" transform="scale(0.015625)"/>
       <path id="DejaVuSans-52" d="M 2841 2188 
Q 3044 2119 3236 1894 
Q 3428 1669 3622 1275 
L 4263 0 
L 3584 0 
L 2988 1197 
Q 2756 1666 2539 1819 
Q 2322 1972 1947 1972 
L 1259 1972 
L 1259 0 
L 628 0 
L 628 4666 
L 2053 4666 
Q 2853 4666 3247 4331 
Q 3641 3997 3641 3322 
Q 3641 2881 3436 2590 
Q 3231 2300 2841 2188 
z
M 1259 4147 
L 1259 2491 
L 2053 2491 
Q 2509 2491 2742 2702 
Q 2975 2913 2975 3322 
Q 2975 3731 2742 3939 
Q 2509 4147 2053 4147 
L 1259 4147 
z
" transform="scale(0.015625)"/>
       <path id="DejaVuSans-46" d="M 628 4666 
L 3309 4666 
L 3309 4134 
L 1259 4134 
L 1259 2759 
L 3109 2759 
L 3109 2228 
L 1259 2228 
L 1259 0 
L 628 0 
L 628 4666 
z
" transform="scale(0.015625)"/>
       <path id="DejaVuSans-66" d="M 2375 4863 
L 2375 4384 
L 1825 4384 
Q 1516 4384 1395 4259 
Q 1275 4134 1275 3809 
L 1275 3500 
L 2222 3500 
L 2222 3053 
L 1275 3053 
L 1275 0 
L 697 0 
L 697 3053 
L 147 3053 
L 147 3500 
L 697 3500 
L 697 3744 
Q 697 4328 969 4595 
Q 1241 4863 1831 4863 
L 2375 4863 
z
" transform="scale(0.015625)"/>
       <path id="DejaVuSans-65" d="M 3597 1894 
L 3597 1613 
L 953 1613 
Q 991 1019 1311 708 
Q 1631 397 2203 397 
Q 2534 397 2845 478 
Q 3156 559 3463 722 
L 3463 178 
Q 3153 47 2828 -22 
Q 2503 -91 2169 -91 
Q 1331 -91 842 396 
Q 353 884 353 1716 
Q 353 2575 817 3079 
Q 1281 3584 2069 3584 
Q 2775 3584 3186 3129 
Q 3597 2675 3597 1894 
z
M 3022 2063 
Q 3016 2534 2758 2815 
Q 2500 3097 2075 3097 
Q 1594 3097 1305 2825 
Q 1016 2553 972 2059 
L 3022 2063 
z
" transform="scale(0.015625)"/>
       <path id="DejaVuSans-64" d="M 2906 2969 
L 2906 4863 
L 3481 4863 
L 3481 0 
L 2906 0 
L 2906 525 
Q 2725 213 2448 61 
Q 2172 -91 1784 -91 
Q 1150 -91 751 415 
Q 353 922 353 1747 
Q 353 2572 751 3078 
Q 1150 3584 1784 3584 
Q 2172 3584 2448 3432 
Q 2725 3281 2906 2969 
z
M 947 1747 
Q 947 1113 1208 752 
Q 1469 391 1925 391 
Q 2381 391 2643 752 
Q 2906 1113 2906 1747 
Q 2906 2381 2643 2742 
Q 2381 3103 1925 3103 
Q 1469 3103 1208 2742 
Q 947 2381 947 1747 
z
" transform="scale(0.015625)"/>
      </defs>
      <use xlink:href="#DejaVuSans-41" transform="translate(0 0.684375)"/>
      <use xlink:href="#DejaVuSans-78" transform="translate(68.408203 0.684375)"/>
      <use xlink:href="#DejaVuSans-69" transform="translate(127.587891 0.684375)"/>
      <use xlink:href="#DejaVuSans-61" transform="translate(155.371094 0.684375)"/>
      <use xlink:href="#DejaVuSans-6c" transform="translate(216.650391 0.684375)"/>
      <use xlink:href="#DejaVuSans-20" transform="translate(244.433594 0.684375)"/>
      <use xlink:href="#DejaVuSans-52" transform="translate(276.220703 0.684375)"/>
      <use xlink:href="#DejaVuSans-46" transform="translate(345.703125 0.684375)"/>
      <use xlink:href="#DejaVuSans-20" transform="translate(403.222656 0.684375)"/>
      <use xlink:href="#DejaVuSans-66" transform="translate(435.009766 0.684375)"/>
      <use xlink:href="#DejaVuSans-69" transform="translate(470.214844 0.684375)"/>
      <use xlink:href="#DejaVuSans-65" transform="translate(497.998047 0.684375)"/>
      <use xlink:href="#DejaVuSans-6c" transform="translate(559.521484 0.684375)"/>
      <use xlink:href="#DejaVuSans-64" transform="translate(587.304688 0.684375)"/>
      <use xlink:href="#DejaVuSans-20" transform="translate(650.78125 0.684375)"/>
      <use xlink:href="#DejaVuSans-28" transform="translate(682.568359 0.684375)"/>
      <use xlink:href="#DejaVuSans-Oblique-6d" transform="translate(721.582031 0.684375)"/>
      <use xlink:href="#DejaVuSans-2212" transform="translate(823.644036 38.965625)scale(0.7)"/>
      <use xlink:href="#DejaVuSans-31" transform="translate(882.29638 38.965625)scale(0.7)"/>
      <use xlink:href="#DejaVuSans-29" transform="translate(929.566888 0.684375)"/>
     </g>
    </g>
   </g>
   <g id="line2d_19">
    <path d="M 86.889759 119.391013 
L 88.102754 130.002866 
L 89.101691 136.804937 
L 89.957922 141.206615 
L 90.814154 144.520138 
L 91.741739 147.204294 
L 92.812028 149.596878 
L 94.667197 153.634169 
L 95.666134 156.441094 
L 97.16454 161.419265 
L 99.233767 168.158907 
L 101.588404 174.935948 
L 102.801399 177.88813 
L 103.586278 179.254301 
L 104.228452 179.947583 
L 104.799273 180.227988 
L 105.298742 180.241354 
L 105.869563 180.033078 
L 106.583089 179.525794 
L 107.653379 178.453901 
L 110.293427 175.684765 
L 111.221011 175.095054 
L 112.219948 174.731413 
L 113.504296 174.523492 
L 114.645938 174.544906 
L 115.50217 174.784151 
L 116.287049 175.226964 
L 117.285986 176.080216 
L 118.427629 177.375469 
L 119.497918 178.935913 
L 120.425503 180.712068 
L 121.353087 183.007555 
L 122.423377 186.278582 
L 125.848304 197.324558 
L 126.419125 198.255715 
L 126.847241 198.572046 
L 127.204004 198.553338 
L 127.560768 198.272296 
L 127.988883 197.591539 
L 128.559705 196.152938 
L 129.273231 193.671222 
L 130.557579 188.203454 
L 132.555453 179.858069 
L 133.768448 175.68891 
L 134.696032 173.185988 
L 135.480911 171.655625 
L 136.123085 170.823871 
L 136.765259 170.33455 
L 137.407433 170.11397 
L 138.192312 170.085347 
L 139.333954 170.286882 
L 140.83236 170.784016 
L 143.186997 171.598386 
L 144.756756 171.799407 
L 146.183808 172.060983 
L 152.676899 173.728995 
L 153.818542 173.758791 
L 157.885643 173.571023 
L 161.524628 173.730284 
L 163.522502 173.960285 
L 167.232839 174.079233 
L 169.872887 174.680071 
L 171.085882 175.194589 
L 175.652452 177.701665 
L 176.936799 178.657348 
L 178.506558 180.140369 
L 179.790905 181.651245 
L 180.861195 183.275901 
L 182.07419 185.561895 
L 183.929359 189.612959 
L 185.499117 193.509131 
L 187.354286 198.799693 
L 189.06675 203.480677 
L 190.065687 205.593837 
L 190.779213 206.616434 
L 191.278682 207.002379 
L 191.706797 207.072381 
L 192.063561 206.920945 
L 192.491677 206.459468 
L 192.991145 205.50765 
L 193.561966 203.839349 
L 194.20414 201.192434 
L 194.917667 197.270905 
L 195.702546 191.723125 
L 196.558778 184.09067 
L 197.486362 173.751005 
L 198.485299 159.966152 
L 199.626941 140.83417 
L 201.125347 111.445188 
L 203.9081 56.057685 
L 204.97839 39.467681 
L 205.834622 29.521025 
L 206.548148 23.768306 
L 207.118969 20.869999 
L 207.547085 19.676233 
L 207.832496 19.334474 
L 208.046554 19.30977 
L 208.260612 19.479705 
L 208.546022 19.995973 
L 208.974138 21.364513 
L 209.473607 23.798558 
L 210.115781 28.074641 
L 211.043365 35.945357 
L 213.897471 61.392443 
L 215.110466 69.397753 
L 218.249982 88.989393 
L 219.748388 100.422466 
L 223.672783 131.575766 
L 224.743073 137.615515 
L 225.813363 142.353071 
L 226.8123 145.835168 
L 227.739884 148.35109 
L 228.596116 150.091522 
L 229.523701 151.46992 
L 237.372492 161.297552 
L 238.514134 162.358482 
L 239.727129 163.180701 
L 241.510945 164.103019 
L 242.652588 164.475069 
L 243.651525 164.554231 
L 244.935872 164.398764 
L 247.076452 163.916402 
L 248.004036 163.485834 
L 248.931621 162.809356 
L 250.358674 161.445537 
L 254.85389 157.055247 
L 255.567417 156.729882 
L 256.209591 156.682267 
L 256.851765 156.859231 
L 257.636644 157.316767 
L 258.706933 158.218223 
L 259.919928 159.535839 
L 261.275629 161.370405 
L 263.558913 164.4848 
L 266.127609 167.737277 
L 269.12442 172.006575 
L 269.980652 172.751553 
L 270.765531 173.141465 
L 271.479057 173.234675 
L 272.192584 173.075147 
L 272.977463 172.641457 
L 274.26181 171.606504 
L 275.546158 170.674396 
L 276.616448 170.189124 
L 280.612196 168.88739 
L 282.039249 168.736326 
L 283.609007 168.509233 
L 286.10635 168.047797 
L 289.459924 167.798314 
L 293.598378 166.91209 
L 295.096783 166.50453 
L 295.881663 166.527754 
L 296.595189 166.762698 
L 297.380068 167.247928 
L 298.450358 168.20261 
L 300.376879 170.305636 
L 302.01799 171.975947 
L 303.08828 172.775159 
L 304.15857 173.300318 
L 305.228859 173.589601 
L 306.085091 173.618105 
L 306.798618 173.435713 
L 307.512144 173.013973 
L 308.297023 172.271551 
L 309.510018 170.758627 
L 311.650598 168.123808 
L 313.077651 166.295924 
L 314.290646 164.336596 
L 316.003109 161.098278 
L 317.287457 158.262615 
L 318.286394 155.522883 
L 319.356684 151.909899 
L 320.712384 146.465617 
L 323.495137 135.007274 
L 324.137311 133.439314 
L 324.565427 132.896682 
L 324.92219 132.797007 
L 325.207601 132.957963 
L 325.564364 133.457123 
L 325.99248 134.466748 
L 326.634654 136.682334 
L 327.633591 141.15537 
L 329.77417 150.861018 
L 330.987165 155.288033 
L 332.057455 158.424041 
L 332.985039 160.492832 
L 333.841271 161.891277 
L 334.840208 163.081152 
L 336.338614 164.466075 
L 337.694314 165.453828 
L 338.835956 165.999258 
L 341.404652 167.088303 
L 344.116052 168.520024 
L 345.971221 169.114764 
L 347.398274 169.386504 
L 348.468564 169.358195 
L 350.894554 169.160938 
L 352.250254 169.400973 
L 353.891365 169.629853 
L 356.246002 169.892311 
L 358.386582 170.200236 
L 360.812572 170.397307 
L 363.167209 170.796723 
L 364.451557 170.668279 
L 365.664552 170.614407 
L 366.520783 170.80115 
L 367.448368 171.233701 
L 368.732716 172.100843 
L 371.586821 174.121209 
L 372.371701 174.354623 
L 373.15658 174.35708 
L 374.298222 174.092872 
L 375.796628 173.785734 
L 378.579381 173.399097 
L 380.220492 173.038284 
L 381.148076 173.096909 
L 384.501651 173.593672 
L 386.000056 173.718716 
L 387.641167 174.1439 
L 390.637978 175.084416 
L 391.993679 175.867802 
L 394.062905 177.32584 
L 395.204548 178.404415 
L 397.059717 180.574007 
L 398.48677 182.0358 
L 400.413291 183.949988 
L 401.412228 185.357342 
L 402.482518 187.26147 
L 403.552807 189.580252 
L 404.480392 192.131763 
L 405.265271 194.945161 
L 406.05015 198.61816 
L 406.906382 203.792885 
L 407.762614 210.363722 
L 408.690198 219.280807 
L 409.617782 230.377808 
L 410.61672 245.049512 
L 411.544304 261.216 
L 411.544304 261.216 
" clip-path="url(#p8a517a21ca)" style="fill: none; stroke: #1f77b4; stroke-width: 1.5; stroke-linecap: square"/>
   </g>
   <g id="patch_3">
    <path d="M 70.657031 273.312 
L 70.657031 7.2 
" style="fill: none; stroke: #000000; stroke-width: 0.8; stroke-linejoin: miter; stroke-linecap: square"/>
   </g>
   <g id="patch_4">
    <path d="M 427.777031 273.312 
L 427.777031 7.2 
" style="fill: none; stroke: #000000; stroke-width: 0.8; stroke-linejoin: miter; stroke-linecap: square"/>
   </g>
   <g id="patch_5">
    <path d="M 70.657031 273.312 
L 427.777031 273.312 
" style="fill: none; stroke: #000000; stroke-width: 0.8; stroke-linejoin: miter; stroke-linecap: square"/>
   </g>
   <g id="patch_6">
    <path d="M 70.657031 7.2 
L 427.777031 7.2 
" style="fill: none; stroke: #000000; stroke-width: 0.8; stroke-linejoin: miter; stroke-linecap: square"/>
   </g>
  </g>
 </g>
 <defs>
  <clipPath id="p8a517a21ca">
   <rect x="70.657031" y="7.2" width="357.12" height="266.112"/>
  </clipPath>
 </defs>
</svg>
