<?xml version="1.0" encoding="utf-8" standalone="no"?>
<!DOCTYPE svg PUBLIC "-//W3C//DTD SVG 1.1//EN"
  "http://www.w3.org/Graphics/SVG/1.1/DTD/svg11.dtd">
<svg xmlns:xlink="http://www.w3.org/1999/xlink" width="435.274687pt" height="325.429188pt" viewBox="0 0 435.274687 325.429188" xmlns="http://www.w3.org/2000/svg" version="1.1">
 <defs>
  <style type="text/css">*{stroke-linejoin: round; stroke-linecap: butt}</style>
 </defs>
 <g id="figure_1">
  <g id="patch_1">
   <path d="M 0 325.429188 
L 435.274687 325.429188 
L 435.274687 0 
L 0 0 
L 0 325.429188 
z
" style="fill: none"/>
  </g>
  <g id="axes_1">
   <g id="patch_2">
    <path d="M 70.954688 273.312 
L 428.074687 273.312 
L 428.074687 7.2 
L 70.954688 7.2 
L 70.954688 273.312 
z
" style="fill: none"/>
   </g>
   <g id="matplotlib.axis_1">
    <g id="xtick_1">
     <g id="line2d_1">
      <path d="M 102.884997 273.312 
L 102.884997 7.2 
" clip-path="url(#p1e82be1f9f)" style="fill: none; stroke: #b0b0b0; stroke-width: 0.8; stroke-linecap: square"/>
     </g>
     <g id="line2d_2">
      <defs>
       <path id="md39032bed2" d="M 0 0 
L 0 3.5 
" style="stroke: #000000; stroke-width: 0.8"/>
      </defs>
      <g>
       <use xlink:href="#md39032bed2" x="102.884997" y="273.312" style="stroke: #000000; stroke-width: 0.8"/>
      </g>
     </g>
     <g id="text_1">
      <!-- −3000 -->
      <g transform="translate(77.512732 291.709656)scale(0.15 -0.15)">
       <defs>
        <path id="DejaVuSans-2212" d="M 678 2272 
L 4684 2272 
L 4684 1741 
L 678 1741 
L 678 2272 
z
" transform="scale(0.015625)"/>
        <path id="DejaVuSans-33" d="M 2597 2516 
Q 3050 2419 3304 2112 
Q 3559 1806 3559 1356 
Q 3559 666 3084 287 
Q 2609 -91 1734 -91 
Q 1441 -91 1130 -33 
Q 819 25 488 141 
L 488 750 
Q 750 597 1062 519 
Q 1375 441 1716 441 
Q 2309 441 2620 675 
Q 2931 909 2931 1356 
Q 2931 1769 2642 2001 
Q 2353 2234 1838 2234 
L 1294 2234 
L 1294 2753 
L 1863 2753 
Q 2328 2753 2575 2939 
Q 2822 3125 2822 3475 
Q 2822 3834 2567 4026 
Q 2313 4219 1838 4219 
Q 1578 4219 1281 4162 
Q 984 4106 628 3988 
L 628 4550 
Q 988 4650 1302 4700 
Q 1616 4750 1894 4750 
Q 2613 4750 3031 4423 
Q 3450 4097 3450 3541 
Q 3450 3153 3228 2886 
Q 3006 2619 2597 2516 
z
" transform="scale(0.015625)"/>
        <path id="DejaVuSans-30" d="M 2034 4250 
Q 1547 4250 1301 3770 
Q 1056 3291 1056 2328 
Q 1056 1369 1301 889 
Q 1547 409 2034 409 
Q 2525 409 2770 889 
Q 3016 1369 3016 2328 
Q 3016 3291 2770 3770 
Q 2525 4250 2034 4250 
z
M 2034 4750 
Q 2819 4750 3233 4129 
Q 3647 3509 3647 2328 
Q 3647 1150 3233 529 
Q 2819 -91 2034 -91 
Q 1250 -91 836 529 
Q 422 1150 422 2328 
Q 422 3509 836 4129 
Q 1250 4750 2034 4750 
z
" transform="scale(0.015625)"/>
       </defs>
       <use xlink:href="#DejaVuSans-2212"/>
       <use xlink:href="#DejaVuSans-33" x="83.789062"/>
       <use xlink:href="#DejaVuSans-30" x="147.412109"/>
       <use xlink:href="#DejaVuSans-30" x="211.035156"/>
       <use xlink:href="#DejaVuSans-30" x="274.658203"/>
      </g>
     </g>
    </g>
    <g id="xtick_2">
     <g id="line2d_3">
      <path d="M 174.237645 273.312 
L 174.237645 7.2 
" clip-path="url(#p1e82be1f9f)" style="fill: none; stroke: #b0b0b0; stroke-width: 0.8; stroke-linecap: square"/>
     </g>
     <g id="line2d_4">
      <g>
       <use xlink:href="#md39032bed2" x="174.237645" y="273.312" style="stroke: #000000; stroke-width: 0.8"/>
      </g>
     </g>
     <g id="text_2">
      <!-- −2000 -->
      <g transform="translate(148.865379 291.709656)scale(0.15 -0.15)">
       <defs>
        <path id="DejaVuSans-32" d="M 1228 531 
L 3431 531 
L 3431 0 
L 469 0 
L 469 531 
Q 828 903 1448 1529 
Q 2069 2156 2228 2338 
Q 2531 2678 2651 2914 
Q 2772 3150 2772 3378 
Q 2772 3750 2511 3984 
Q 2250 4219 1831 4219 
Q 1534 4219 1204 4116 
Q 875 4013 500 3803 
L 500 4441 
Q 881 4594 1212 4672 
Q 1544 4750 1819 4750 
Q 2544 4750 2975 4387 
Q 3406 4025 3406 3419 
Q 3406 3131 3298 2873 
Q 3191 2616 2906 2266 
Q 2828 2175 2409 1742 
Q 1991 1309 1228 531 
z
" transform="scale(0.015625)"/>
       </defs>
       <use xlink:href="#DejaVuSans-2212"/>
       <use xlink:href="#DejaVuSans-32" x="83.789062"/>
       <use xlink:href="#DejaVuSans-30" x="147.412109"/>
       <use xlink:href="#DejaVuSans-30" x="211.035156"/>
       <use xlink:href="#DejaVuSans-30" x="274.658203"/>
      </g>
     </g>
    </g>
    <g id="xtick_3">
     <g id="line2d_5">
      <path d="M 245.590292 273.312 
L 245.590292 7.2 
" clip-path="url(#p1e82be1f9f)" style="fill: none; stroke: #b0b0b0; stroke-width: 0.8; stroke-linecap: square"/>
     </g>
     <g id="line2d_6">
      <g>
       <use xlink:href="#md39032bed2" x="245.590292" y="273.312" style="stroke: #000000; stroke-width: 0.8"/>
      </g>
     </g>
     <g id="text_3">
      <!-- −1000 -->
      <g transform="translate(220.218026 291.709656)scale(0.15 -0.15)">
       <defs>
        <path id="DejaVuSans-31" d="M 794 531 
L 1825 531 
L 1825 4091 
L 703 3866 
L 703 4441 
L 1819 4666 
L 2450 4666 
L 2450 531 
L 3481 531 
L 3481 0 
L 794 0 
L 794 531 
z
" transform="scale(0.015625)"/>
       </defs>
       <use xlink:href="#DejaVuSans-2212"/>
       <use xlink:href="#DejaVuSans-31" x="83.789062"/>
       <use xlink:href="#DejaVuSans-30" x="147.412109"/>
       <use xlink:href="#DejaVuSans-30" x="211.035156"/>
       <use xlink:href="#DejaVuSans-30" x="274.658203"/>
      </g>
     </g>
    </g>
    <g id="xtick_4">
     <g id="line2d_7">
      <path d="M 316.942939 273.312 
L 316.942939 7.2 
" clip-path="url(#p1e82be1f9f)" style="fill: none; stroke: #b0b0b0; stroke-width: 0.8; stroke-linecap: square"/>
     </g>
     <g id="line2d_8">
      <g>
       <use xlink:href="#md39032bed2" x="316.942939" y="273.312" style="stroke: #000000; stroke-width: 0.8"/>
      </g>
     </g>
     <g id="text_4">
      <!-- 0 -->
      <g transform="translate(312.171064 291.709656)scale(0.15 -0.15)">
       <use xlink:href="#DejaVuSans-30"/>
      </g>
     </g>
    </g>
    <g id="xtick_5">
     <g id="line2d_9">
      <path d="M 388.295587 273.312 
L 388.295587 7.2 
" clip-path="url(#p1e82be1f9f)" style="fill: none; stroke: #b0b0b0; stroke-width: 0.8; stroke-linecap: square"/>
     </g>
     <g id="line2d_10">
      <g>
       <use xlink:href="#md39032bed2" x="388.295587" y="273.312" style="stroke: #000000; stroke-width: 0.8"/>
      </g>
     </g>
     <g id="text_5">
      <!-- 1000 -->
      <g transform="translate(369.208087 291.709656)scale(0.15 -0.15)">
       <use xlink:href="#DejaVuSans-31"/>
       <use xlink:href="#DejaVuSans-30" x="63.623047"/>
       <use xlink:href="#DejaVuSans-30" x="127.246094"/>
       <use xlink:href="#DejaVuSans-30" x="190.869141"/>
      </g>
     </g>
    </g>
    <g id="text_6">
     <!-- X ($\mu m$) -->
     <g transform="translate(215.514688 314.029188)scale(0.2 -0.2)">
      <defs>
       <path id="DejaVuSans-58" d="M 403 4666 
L 1081 4666 
L 2241 2931 
L 3406 4666 
L 4084 4666 
L 2584 2425 
L 4184 0 
L 3506 0 
L 2194 1984 
L 872 0 
L 191 0 
L 1856 2491 
L 403 4666 
z
" transform="scale(0.015625)"/>
       <path id="DejaVuSans-20" transform="scale(0.015625)"/>
       <path id="DejaVuSans-28" d="M 1984 4856 
Q 1566 4138 1362 3434 
Q 1159 2731 1159 2009 
Q 1159 1288 1364 580 
Q 1569 -128 1984 -844 
L 1484 -844 
Q 1016 -109 783 600 
Q 550 1309 550 2009 
Q 550 2706 781 3412 
Q 1013 4119 1484 4856 
L 1984 4856 
z
" transform="scale(0.015625)"/>
       <path id="DejaVuSans-Oblique-3bc" d="M -84 -1331 
L 856 3500 
L 1434 3500 
L 1009 1322 
Q 997 1256 987 1175 
Q 978 1094 978 1013 
Q 978 722 1161 565 
Q 1344 409 1684 409 
Q 2147 409 2431 671 
Q 2716 934 2816 1459 
L 3213 3500 
L 3788 3500 
L 3266 809 
Q 3253 750 3248 706 
Q 3244 663 3244 628 
Q 3244 531 3283 486 
Q 3322 441 3406 441 
Q 3438 441 3492 456 
Q 3547 472 3647 513 
L 3559 50 
Q 3422 -19 3297 -55 
Q 3172 -91 3053 -91 
Q 2847 -91 2730 40 
Q 2613 172 2613 403 
Q 2438 153 2195 31 
Q 1953 -91 1625 -91 
Q 1334 -91 1117 43 
Q 900 178 831 397 
L 494 -1331 
L -84 -1331 
z
" transform="scale(0.015625)"/>
       <path id="DejaVuSans-Oblique-6d" d="M 5747 2113 
L 5338 0 
L 4763 0 
L 5166 2094 
Q 5191 2228 5203 2325 
Q 5216 2422 5216 2491 
Q 5216 2772 5059 2928 
Q 4903 3084 4622 3084 
Q 4203 3084 3875 2770 
Q 3547 2456 3450 1953 
L 3066 0 
L 2491 0 
L 2900 2094 
Q 2925 2209 2937 2307 
Q 2950 2406 2950 2484 
Q 2950 2769 2794 2926 
Q 2638 3084 2363 3084 
Q 1938 3084 1609 2770 
Q 1281 2456 1184 1953 
L 800 0 
L 225 0 
L 909 3500 
L 1484 3500 
L 1375 2956 
Q 1609 3263 1923 3423 
Q 2238 3584 2597 3584 
Q 2978 3584 3223 3384 
Q 3469 3184 3519 2828 
Q 3781 3197 4126 3390 
Q 4472 3584 4856 3584 
Q 5306 3584 5551 3325 
Q 5797 3066 5797 2591 
Q 5797 2488 5784 2364 
Q 5772 2241 5747 2113 
z
" transform="scale(0.015625)"/>
       <path id="DejaVuSans-29" d="M 513 4856 
L 1013 4856 
Q 1481 4119 1714 3412 
Q 1947 2706 1947 2009 
Q 1947 1309 1714 600 
Q 1481 -109 1013 -844 
L 513 -844 
Q 928 -128 1133 580 
Q 1338 1288 1338 2009 
Q 1338 2731 1133 3434 
Q 928 4138 513 4856 
z
" transform="scale(0.015625)"/>
      </defs>
      <use xlink:href="#DejaVuSans-58" transform="translate(0 0.125)"/>
      <use xlink:href="#DejaVuSans-20" transform="translate(68.505859 0.125)"/>
      <use xlink:href="#DejaVuSans-28" transform="translate(100.292969 0.125)"/>
      <use xlink:href="#DejaVuSans-Oblique-3bc" transform="translate(139.306641 0.125)"/>
      <use xlink:href="#DejaVuSans-Oblique-6d" transform="translate(202.929688 0.125)"/>
      <use xlink:href="#DejaVuSans-29" transform="translate(300.341797 0.125)"/>
     </g>
    </g>
   </g>
   <g id="matplotlib.axis_2">
    <g id="ytick_1">
     <g id="line2d_11">
      <path d="M 70.954688 243.907318 
L 428.074687 243.907318 
" clip-path="url(#p1e82be1f9f)" style="fill: none; stroke: #b0b0b0; stroke-width: 0.8; stroke-linecap: square"/>
     </g>
     <g id="line2d_12">
      <defs>
       <path id="m6f3f5b6aff" d="M 0 0 
L -3.5 0 
" style="stroke: #000000; stroke-width: 0.8"/>
      </defs>
      <g>
       <use xlink:href="#m6f3f5b6aff" x="70.954688" y="243.907318" style="stroke: #000000; stroke-width: 0.8"/>
      </g>
     </g>
     <g id="text_7">
      <!-- 0.42 -->
      <g transform="translate(30.55625 249.606147)scale(0.15 -0.15)">
       <defs>
        <path id="DejaVuSans-2e" d="M 684 794 
L 1344 794 
L 1344 0 
L 684 0 
L 684 794 
z
" transform="scale(0.015625)"/>
        <path id="DejaVuSans-34" d="M 2419 4116 
L 825 1625 
L 2419 1625 
L 2419 4116 
z
M 2253 4666 
L 3047 4666 
L 3047 1625 
L 3713 1625 
L 3713 1100 
L 3047 1100 
L 3047 0 
L 2419 0 
L 2419 1100 
L 313 1100 
L 313 1709 
L 2253 4666 
z
" transform="scale(0.015625)"/>
       </defs>
       <use xlink:href="#DejaVuSans-30"/>
       <use xlink:href="#DejaVuSans-2e" x="63.623047"/>
       <use xlink:href="#DejaVuSans-34" x="95.410156"/>
       <use xlink:href="#DejaVuSans-32" x="159.033203"/>
      </g>
     </g>
    </g>
    <g id="ytick_2">
     <g id="line2d_13">
      <path d="M 70.954688 190.569025 
L 428.074687 190.569025 
" clip-path="url(#p1e82be1f9f)" style="fill: none; stroke: #b0b0b0; stroke-width: 0.8; stroke-linecap: square"/>
     </g>
     <g id="line2d_14">
      <g>
       <use xlink:href="#m6f3f5b6aff" x="70.954688" y="190.569025" style="stroke: #000000; stroke-width: 0.8"/>
      </g>
     </g>
     <g id="text_8">
      <!-- 0.43 -->
      <g transform="translate(30.55625 196.267853)scale(0.15 -0.15)">
       <use xlink:href="#DejaVuSans-30"/>
       <use xlink:href="#DejaVuSans-2e" x="63.623047"/>
       <use xlink:href="#DejaVuSans-34" x="95.410156"/>
       <use xlink:href="#DejaVuSans-33" x="159.033203"/>
      </g>
     </g>
    </g>
    <g id="ytick_3">
     <g id="line2d_15">
      <path d="M 70.954688 137.230732 
L 428.074687 137.230732 
" clip-path="url(#p1e82be1f9f)" style="fill: none; stroke: #b0b0b0; stroke-width: 0.8; stroke-linecap: square"/>
     </g>
     <g id="line2d_16">
      <g>
       <use xlink:href="#m6f3f5b6aff" x="70.954688" y="137.230732" style="stroke: #000000; stroke-width: 0.8"/>
      </g>
     </g>
     <g id="text_9">
      <!-- 0.44 -->
      <g transform="translate(30.55625 142.92956)scale(0.15 -0.15)">
       <use xlink:href="#DejaVuSans-30"/>
       <use xlink:href="#DejaVuSans-2e" x="63.623047"/>
       <use xlink:href="#DejaVuSans-34" x="95.410156"/>
       <use xlink:href="#DejaVuSans-34" x="159.033203"/>
      </g>
     </g>
    </g>
    <g id="ytick_4">
     <g id="line2d_17">
      <path d="M 70.954688 83.892439 
L 428.074687 83.892439 
" clip-path="url(#p1e82be1f9f)" style="fill: none; stroke: #b0b0b0; stroke-width: 0.8; stroke-linecap: square"/>
     </g>
     <g id="line2d_18">
      <g>
       <use xlink:href="#m6f3f5b6aff" x="70.954688" y="83.892439" style="stroke: #000000; stroke-width: 0.8"/>
      </g>
     </g>
     <g id="text_10">
      <!-- 0.45 -->
      <g transform="translate(30.55625 89.591267)scale(0.15 -0.15)">
       <defs>
        <path id="DejaVuSans-35" d="M 691 4666 
L 3169 4666 
L 3169 4134 
L 1269 4134 
L 1269 2991 
Q 1406 3038 1543 3061 
Q 1681 3084 1819 3084 
Q 2600 3084 3056 2656 
Q 3513 2228 3513 1497 
Q 3513 744 3044 326 
Q 2575 -91 1722 -91 
Q 1428 -91 1123 -41 
Q 819 9 494 109 
L 494 744 
Q 775 591 1075 516 
Q 1375 441 1709 441 
Q 2250 441 2565 725 
Q 2881 1009 2881 1497 
Q 2881 1984 2565 2268 
Q 2250 2553 1709 2553 
Q 1456 2553 1204 2497 
Q 953 2441 691 2322 
L 691 4666 
z
" transform="scale(0.015625)"/>
       </defs>
       <use xlink:href="#DejaVuSans-30"/>
       <use xlink:href="#DejaVuSans-2e" x="63.623047"/>
       <use xlink:href="#DejaVuSans-34" x="95.410156"/>
       <use xlink:href="#DejaVuSans-35" x="159.033203"/>
      </g>
     </g>
    </g>
    <g id="ytick_5">
     <g id="line2d_19">
      <path d="M 70.954688 30.554145 
L 428.074687 30.554145 
" clip-path="url(#p1e82be1f9f)" style="fill: none; stroke: #b0b0b0; stroke-width: 0.8; stroke-linecap: square"/>
     </g>
     <g id="line2d_20">
      <g>
       <use xlink:href="#m6f3f5b6aff" x="70.954688" y="30.554145" style="stroke: #000000; stroke-width: 0.8"/>
      </g>
     </g>
     <g id="text_11">
      <!-- 0.46 -->
      <g transform="translate(30.55625 36.252974)scale(0.15 -0.15)">
       <defs>
        <path id="DejaVuSans-36" d="M 2113 2584 
Q 1688 2584 1439 2293 
Q 1191 2003 1191 1497 
Q 1191 994 1439 701 
Q 1688 409 2113 409 
Q 2538 409 2786 701 
Q 3034 994 3034 1497 
Q 3034 2003 2786 2293 
Q 2538 2584 2113 2584 
z
M 3366 4563 
L 3366 3988 
Q 3128 4100 2886 4159 
Q 2644 4219 2406 4219 
Q 1781 4219 1451 3797 
Q 1122 3375 1075 2522 
Q 1259 2794 1537 2939 
Q 1816 3084 2150 3084 
Q 2853 3084 3261 2657 
Q 3669 2231 3669 1497 
Q 3669 778 3244 343 
Q 2819 -91 2113 -91 
Q 1303 -91 875 529 
Q 447 1150 447 2328 
Q 447 3434 972 4092 
Q 1497 4750 2381 4750 
Q 2619 4750 2861 4703 
Q 3103 4656 3366 4563 
z
" transform="scale(0.015625)"/>
       </defs>
       <use xlink:href="#DejaVuSans-30"/>
       <use xlink:href="#DejaVuSans-2e" x="63.623047"/>
       <use xlink:href="#DejaVuSans-34" x="95.410156"/>
       <use xlink:href="#DejaVuSans-36" x="159.033203"/>
      </g>
     </g>
    </g>
    <g id="text_12">
     <!-- RF potential -->
     <g transform="translate(22.396875 200.616938)rotate(-90)scale(0.2 -0.2)">
      <defs>
       <path id="DejaVuSans-52" d="M 2841 2188 
Q 3044 2119 3236 1894 
Q 3428 1669 3622 1275 
L 4263 0 
L 3584 0 
L 2988 1197 
Q 2756 1666 2539 1819 
Q 2322 1972 1947 1972 
L 1259 1972 
L 1259 0 
L 628 0 
L 628 4666 
L 2053 4666 
Q 2853 4666 3247 4331 
Q 3641 3997 3641 3322 
Q 3641 2881 3436 2590 
Q 3231 2300 2841 2188 
z
M 1259 4147 
L 1259 2491 
L 2053 2491 
Q 2509 2491 2742 2702 
Q 2975 2913 2975 3322 
Q 2975 3731 2742 3939 
Q 2509 4147 2053 4147 
L 1259 4147 
z
" transform="scale(0.015625)"/>
       <path id="DejaVuSans-46" d="M 628 4666 
L 3309 4666 
L 3309 4134 
L 1259 4134 
L 1259 2759 
L 3109 2759 
L 3109 2228 
L 1259 2228 
L 1259 0 
L 628 0 
L 628 4666 
z
" transform="scale(0.015625)"/>
       <path id="DejaVuSans-70" d="M 1159 525 
L 1159 -1331 
L 581 -1331 
L 581 3500 
L 1159 3500 
L 1159 2969 
Q 1341 3281 1617 3432 
Q 1894 3584 2278 3584 
Q 2916 3584 3314 3078 
Q 3713 2572 3713 1747 
Q 3713 922 3314 415 
Q 2916 -91 2278 -91 
Q 1894 -91 1617 61 
Q 1341 213 1159 525 
z
M 3116 1747 
Q 3116 2381 2855 2742 
Q 2594 3103 2138 3103 
Q 1681 3103 1420 2742 
Q 1159 2381 1159 1747 
Q 1159 1113 1420 752 
Q 1681 391 2138 391 
Q 2594 391 2855 752 
Q 3116 1113 3116 1747 
z
" transform="scale(0.015625)"/>
       <path id="DejaVuSans-6f" d="M 1959 3097 
Q 1497 3097 1228 2736 
Q 959 2375 959 1747 
Q 959 1119 1226 758 
Q 1494 397 1959 397 
Q 2419 397 2687 759 
Q 2956 1122 2956 1747 
Q 2956 2369 2687 2733 
Q 2419 3097 1959 3097 
z
M 1959 3584 
Q 2709 3584 3137 3096 
Q 3566 2609 3566 1747 
Q 3566 888 3137 398 
Q 2709 -91 1959 -91 
Q 1206 -91 779 398 
Q 353 888 353 1747 
Q 353 2609 779 3096 
Q 1206 3584 1959 3584 
z
" transform="scale(0.015625)"/>
       <path id="DejaVuSans-74" d="M 1172 4494 
L 1172 3500 
L 2356 3500 
L 2356 3053 
L 1172 3053 
L 1172 1153 
Q 1172 725 1289 603 
Q 1406 481 1766 481 
L 2356 481 
L 2356 0 
L 1766 0 
Q 1100 0 847 248 
Q 594 497 594 1153 
L 594 3053 
L 172 3053 
L 172 3500 
L 594 3500 
L 594 4494 
L 1172 4494 
z
" transform="scale(0.015625)"/>
       <path id="DejaVuSans-65" d="M 3597 1894 
L 3597 1613 
L 953 1613 
Q 991 1019 1311 708 
Q 1631 397 2203 397 
Q 2534 397 2845 478 
Q 3156 559 3463 722 
L 3463 178 
Q 3153 47 2828 -22 
Q 2503 -91 2169 -91 
Q 1331 -91 842 396 
Q 353 884 353 1716 
Q 353 2575 817 3079 
Q 1281 3584 2069 3584 
Q 2775 3584 3186 3129 
Q 3597 2675 3597 1894 
z
M 3022 2063 
Q 3016 2534 2758 2815 
Q 2500 3097 2075 3097 
Q 1594 3097 1305 2825 
Q 1016 2553 972 2059 
L 3022 2063 
z
" transform="scale(0.015625)"/>
       <path id="DejaVuSans-6e" d="M 3513 2113 
L 3513 0 
L 2938 0 
L 2938 2094 
Q 2938 2591 2744 2837 
Q 2550 3084 2163 3084 
Q 1697 3084 1428 2787 
Q 1159 2491 1159 1978 
L 1159 0 
L 581 0 
L 581 3500 
L 1159 3500 
L 1159 2956 
Q 1366 3272 1645 3428 
Q 1925 3584 2291 3584 
Q 2894 3584 3203 3211 
Q 3513 2838 3513 2113 
z
" transform="scale(0.015625)"/>
       <path id="DejaVuSans-69" d="M 603 3500 
L 1178 3500 
L 1178 0 
L 603 0 
L 603 3500 
z
M 603 4863 
L 1178 4863 
L 1178 4134 
L 603 4134 
L 603 4863 
z
" transform="scale(0.015625)"/>
       <path id="DejaVuSans-61" d="M 2194 1759 
Q 1497 1759 1228 1600 
Q 959 1441 959 1056 
Q 959 750 1161 570 
Q 1363 391 1709 391 
Q 2188 391 2477 730 
Q 2766 1069 2766 1631 
L 2766 1759 
L 2194 1759 
z
M 3341 1997 
L 3341 0 
L 2766 0 
L 2766 531 
Q 2569 213 2275 61 
Q 1981 -91 1556 -91 
Q 1019 -91 701 211 
Q 384 513 384 1019 
Q 384 1609 779 1909 
Q 1175 2209 1959 2209 
L 2766 2209 
L 2766 2266 
Q 2766 2663 2505 2880 
Q 2244 3097 1772 3097 
Q 1472 3097 1187 3025 
Q 903 2953 641 2809 
L 641 3341 
Q 956 3463 1253 3523 
Q 1550 3584 1831 3584 
Q 2591 3584 2966 3190 
Q 3341 2797 3341 1997 
z
" transform="scale(0.015625)"/>
       <path id="DejaVuSans-6c" d="M 603 4863 
L 1178 4863 
L 1178 0 
L 603 0 
L 603 4863 
z
" transform="scale(0.015625)"/>
      </defs>
      <use xlink:href="#DejaVuSans-52"/>
      <use xlink:href="#DejaVuSans-46" x="69.482422"/>
      <use xlink:href="#DejaVuSans-20" x="127.001953"/>
      <use xlink:href="#DejaVuSans-70" x="158.789062"/>
      <use xlink:href="#DejaVuSans-6f" x="222.265625"/>
      <use xlink:href="#DejaVuSans-74" x="283.447266"/>
      <use xlink:href="#DejaVuSans-65" x="322.65625"/>
      <use xlink:href="#DejaVuSans-6e" x="384.179688"/>
      <use xlink:href="#DejaVuSans-74" x="447.558594"/>
      <use xlink:href="#DejaVuSans-69" x="486.767578"/>
      <use xlink:href="#DejaVuSans-61" x="514.550781"/>
      <use xlink:href="#DejaVuSans-6c" x="575.830078"/>
     </g>
    </g>
   </g>
   <g id="line2d_21">
    <path d="M 87.187415 194.182089 
L 88.329057 190.6921 
L 89.470699 187.897997 
L 90.755047 185.359861 
L 92.1821 183.03701 
L 93.823211 180.789149 
L 95.321617 179.081415 
L 96.534612 177.999271 
L 97.604901 177.315522 
L 98.675191 176.89716 
L 99.745481 176.730225 
L 100.81577 176.797542 
L 101.88606 177.088947 
L 103.027702 177.628651 
L 104.526108 178.604775 
L 108.521856 181.34057 
L 110.377025 182.267688 
L 112.803015 183.205772 
L 118.011758 185.167304 
L 119.724222 186.117596 
L 121.151275 187.158905 
L 122.435623 188.383532 
L 123.648618 189.865096 
L 124.932965 191.815975 
L 126.431371 194.537855 
L 129.856298 200.952774 
L 131.069293 202.644453 
L 132.139583 203.773583 
L 133.209872 204.583702 
L 134.280162 205.114709 
L 135.421804 205.435043 
L 136.92021 205.611866 
L 143.556006 206.147182 
L 148.051223 206.921784 
L 151.690208 207.803878 
L 162.2504 210.802837 
L 169.671075 213.119538 
L 172.596534 214.248935 
L 175.165229 215.497786 
L 177.519866 216.869351 
L 179.51774 218.287405 
L 181.230204 219.761444 
L 182.799962 221.410783 
L 184.298368 223.313515 
L 185.796773 225.57457 
L 187.295179 228.243956 
L 188.864937 231.513482 
L 190.720106 235.92775 
L 194.85856 246.011073 
L 195.928849 247.948818 
L 196.785081 249.070561 
L 197.427255 249.596987 
L 197.998076 249.796793 
L 198.497545 249.736175 
L 198.997013 249.430698 
L 199.496482 248.856484 
L 200.067303 247.842187 
L 200.709477 246.20859 
L 201.423003 243.742094 
L 202.207882 240.204 
L 203.135467 234.901518 
L 204.205756 227.347273 
L 205.490104 216.530764 
L 207.202568 200.038154 
L 211.769137 155.158067 
L 213.552953 140.443115 
L 215.408122 127.017567 
L 217.334644 114.634254 
L 219.047107 104.966045 
L 220.545513 97.718615 
L 221.82986 92.515357 
L 223.042855 88.461296 
L 224.25585 85.150917 
L 225.540198 82.29422 
L 226.895898 79.822727 
L 228.394304 77.560439 
L 230.249473 75.190989 
L 232.318699 72.902196 
L 234.173868 71.172124 
L 236.029037 69.750083 
L 237.812853 68.654251 
L 239.88208 67.652304 
L 242.450775 66.658515 
L 249.229277 64.189632 
L 251.155798 63.197927 
L 253.08232 61.952415 
L 255.080194 60.390708 
L 260.146232 56.260235 
L 261.858695 55.224719 
L 263.499806 54.497002 
L 265.21227 53.985858 
L 266.782028 53.738693 
L 268.209081 53.731605 
L 269.778839 53.948749 
L 272.418887 54.588462 
L 274.702172 55.044647 
L 276.914104 55.239216 
L 280.053621 55.283056 
L 284.477485 55.06608 
L 289.686228 54.569688 
L 293.896034 53.987034 
L 299.604246 53.101608 
L 301.316709 53.172759 
L 303.171878 53.479695 
L 305.883279 54.183608 
L 308.951443 54.944272 
L 310.521201 55.093637 
L 312.162312 55.024912 
L 313.73207 54.748068 
L 315.159123 54.272984 
L 316.514823 53.584892 
L 317.799171 52.691656 
L 319.012166 51.581164 
L 320.153808 50.234464 
L 321.295451 48.53877 
L 322.508446 46.31626 
L 323.864146 43.336169 
L 328.216658 33.274682 
L 329.429653 31.285745 
L 330.571295 29.814561 
L 331.78429 28.611259 
L 333.068638 27.657568 
L 334.567043 26.831617 
L 336.422212 26.068205 
L 338.562791 25.432127 
L 341.48825 24.810829 
L 343.91424 24.51485 
L 346.982404 24.38908 
L 356.971774 24.389249 
L 362.394576 24.694845 
L 369.101724 25.374531 
L 371.170951 25.868338 
L 374.952642 27.090043 
L 379.733269 28.452412 
L 386.583123 30.291356 
L 390.150755 31.458544 
L 392.790803 32.528921 
L 395.002735 33.664898 
L 396.857904 34.859266 
L 398.784426 36.382942 
L 400.925005 38.366985 
L 402.637469 40.241115 
L 404.207227 42.293222 
L 405.562927 44.427128 
L 406.775922 46.769647 
L 407.846212 49.334597 
L 408.845149 52.297967 
L 409.844086 55.968982 
L 410.843023 60.52768 
L 411.84196 66.168944 
L 411.84196 66.168944 
" clip-path="url(#p1e82be1f9f)" style="fill: none; stroke: #ff7f0e; stroke-width: 1.5; stroke-linecap: square"/>
   </g>
   <g id="line2d_22">
    <path d="M 87.187415 205.59521 
L 88.257704 202.133245 
L 89.327994 199.38122 
L 90.540989 196.858698 
L 92.039395 194.271718 
L 93.894564 191.518037 
L 95.464322 189.529583 
L 96.677317 188.337296 
L 97.676254 187.652823 
L 98.675191 187.244776 
L 99.674128 187.089383 
L 100.673065 187.165473 
L 101.672002 187.472067 
L 102.670939 188.009113 
L 103.883934 188.928324 
L 108.735914 192.935992 
L 110.305673 193.782182 
L 112.374899 194.621421 
L 118.653932 197.049642 
L 120.22369 198.021977 
L 121.508038 199.066898 
L 122.649681 200.285123 
L 123.791323 201.854155 
L 124.932965 203.811405 
L 126.288666 206.611133 
L 129.999003 214.637719 
L 131.069293 216.27156 
L 132.06823 217.428725 
L 133.067167 218.246159 
L 134.066104 218.76569 
L 135.065041 219.036475 
L 136.349389 219.134635 
L 142.271659 219.28007 
L 146.053349 219.835147 
L 149.05016 220.41744 
L 152.974556 221.425106 
L 159.182236 223.148577 
L 166.888322 225.358312 
L 171.026775 226.66923 
L 173.381413 227.616803 
L 176.378224 229.100469 
L 178.518803 230.382197 
L 180.516678 231.835472 
L 182.086436 233.236182 
L 183.584841 234.883664 
L 185.083247 236.861573 
L 186.581653 239.206599 
L 188.080058 241.992326 
L 189.721169 245.55547 
L 191.933101 250.964628 
L 194.359091 256.777821 
L 195.500733 258.969309 
L 196.428318 260.290343 
L 197.141844 260.94451 
L 197.712666 261.193758 
L 198.212134 261.17964 
L 198.711603 260.919422 
L 199.211071 260.383793 
L 199.781892 259.39694 
L 200.424066 257.760524 
L 201.137593 255.232369 
L 201.922472 251.537515 
L 202.778703 246.395342 
L 203.777641 238.988417 
L 204.990636 228.215215 
L 206.132278 218.269324 
L 208.34421 198.300962 
L 211.483726 170.223391 
L 213.338895 155.644474 
L 215.194064 142.794614 
L 217.049233 131.454631 
L 218.761696 122.335255 
L 220.260102 115.471777 
L 221.615802 110.216779 
L 222.90015 106.063384 
L 224.184498 102.631895 
L 225.540198 99.654431 
L 226.967251 97.071269 
L 228.537009 94.707144 
L 230.320825 92.434791 
L 232.247347 90.328823 
L 234.173868 88.549427 
L 236.029037 87.135107 
L 237.955559 85.94916 
L 240.096138 84.901316 
L 242.807539 83.834036 
L 249.229277 81.411088 
L 251.369856 80.321379 
L 253.510436 78.974096 
L 256.007778 77.116153 
L 259.575411 74.467924 
L 261.573285 73.279315 
L 263.357101 72.477971 
L 265.140917 71.924241 
L 266.853381 71.627102 
L 268.494492 71.571426 
L 270.349661 71.741727 
L 277.056809 72.583327 
L 280.481736 72.619971 
L 285.405069 72.423398 
L 291.113281 71.948514 
L 295.608498 71.357138 
L 298.819367 70.992523 
L 300.817241 70.999126 
L 302.886468 71.2329 
L 305.883279 71.827268 
L 308.951443 72.382459 
L 310.735259 72.472782 
L 312.447722 72.337794 
L 314.088833 71.982815 
L 315.587239 71.426263 
L 317.014292 70.652439 
L 318.369992 69.656431 
L 319.65434 68.425996 
L 320.867335 66.959488 
L 322.151683 65.052671 
L 323.578735 62.524824 
L 328.502068 53.369619 
L 329.786416 51.657122 
L 331.070763 50.308681 
L 332.355111 49.271103 
L 333.782164 48.401955 
L 335.494628 47.634097 
L 337.492502 46.991928 
L 339.918492 46.457494 
L 342.629892 46.087319 
L 345.412646 45.941932 
L 349.622452 45.97942 
L 355.544721 46.206483 
L 360.039938 46.609836 
L 364.39245 47.211359 
L 368.459551 47.969865 
L 370.885541 48.66538 
L 374.38182 49.954078 
L 380.01868 51.959764 
L 386.083655 54.106686 
L 389.508582 55.546009 
L 392.14863 56.883648 
L 394.360562 58.250263 
L 396.358436 59.750486 
L 398.213605 61.421967 
L 400.140126 63.459625 
L 401.923942 65.669482 
L 403.4937 67.965219 
L 404.920753 70.445788 
L 406.205101 73.125891 
L 407.418096 76.200295 
L 408.559738 79.74107 
L 409.630028 83.793977 
L 410.700318 88.72864 
L 411.770608 94.733666 
L 411.84196 95.176193 
L 411.84196 95.176193 
" clip-path="url(#p1e82be1f9f)" style="fill: none; stroke-dasharray: 5.55,2.4; stroke-dashoffset: 0; stroke: #1f77b4; stroke-width: 1.5"/>
   </g>
   <g id="line2d_23">
    <path d="M 87.187415 191.655373 
L 88.329057 188.170097 
L 89.470699 185.378444 
L 90.755047 182.84042 
L 92.1821 180.515743 
L 93.823211 178.263515 
L 95.321617 176.533149 
L 96.605964 175.379276 
L 97.676254 174.701137 
L 98.746544 174.290348 
L 99.816833 174.131506 
L 100.887123 174.207634 
L 101.957413 174.509675 
L 103.099055 175.062823 
L 104.668813 176.101168 
L 108.450504 178.658507 
L 110.305673 179.580859 
L 112.66031 180.479431 
L 118.154464 182.497729 
L 119.866927 183.436195 
L 121.29398 184.462735 
L 122.578328 185.664557 
L 123.791323 187.104865 
L 125.075671 188.976295 
L 126.716781 191.804337 
L 129.713593 197.043106 
L 130.926588 198.678363 
L 132.06823 199.847378 
L 133.13852 200.638531 
L 134.280162 201.199879 
L 135.493157 201.539357 
L 137.134268 201.730108 
L 143.627359 202.271707 
L 148.265281 203.040936 
L 152.046971 203.931689 
L 165.175858 207.549082 
L 170.59866 209.223659 
L 173.167355 210.241788 
L 175.807403 211.544276 
L 178.019335 212.865156 
L 179.945856 214.269212 
L 181.65832 215.791282 
L 183.156725 217.418384 
L 184.655131 219.372056 
L 186.153537 221.689107 
L 187.651942 224.420735 
L 189.293053 227.906538 
L 191.36228 232.887762 
L 194.501796 240.488222 
L 195.714791 242.81419 
L 196.642376 244.123157 
L 197.355902 244.766366 
L 197.926723 245.006488 
L 198.426192 244.986888 
L 198.925661 244.727731 
L 199.425129 244.199167 
L 199.99595 243.232219 
L 200.638124 241.65532 
L 201.351651 239.256425 
L 202.13653 235.800583 
L 203.064114 230.612806 
L 204.063051 223.691414 
L 205.347399 213.10238 
L 206.917157 198.241354 
L 211.769137 151.352921 
L 213.481601 137.71481 
L 215.408122 124.256318 
L 217.405996 111.799058 
L 219.189812 102.017535 
L 220.688218 94.999526 
L 222.043918 89.693716 
L 223.399619 85.337275 
L 224.612614 82.164229 
L 225.896961 79.401825 
L 227.252662 76.994249 
L 228.751067 74.788432 
L 230.534883 72.571386 
L 232.532757 70.437212 
L 234.387926 68.772808 
L 236.243095 67.398918 
L 238.098264 66.296819 
L 240.310196 65.260278 
L 243.021597 64.24243 
L 248.301692 62.319563 
L 250.370919 61.337152 
L 252.226088 60.208966 
L 254.081257 58.826704 
L 256.435894 56.75717 
L 259.218648 54.366005 
L 261.073816 53.06684 
L 262.643575 52.226449 
L 264.284686 51.602472 
L 265.925796 51.209354 
L 267.352849 51.080246 
L 268.779902 51.174828 
L 270.492366 51.531244 
L 275.058935 52.617055 
L 277.34222 52.796458 
L 280.410384 52.813375 
L 284.976953 52.559944 
L 290.756518 51.950194 
L 294.538208 51.346475 
L 299.17613 50.509864 
L 300.817241 50.51249 
L 302.601057 50.745299 
L 305.241105 51.345815 
L 308.88009 52.155477 
L 310.521201 52.267425 
L 312.233665 52.151602 
L 313.803423 51.835667 
L 315.230476 51.322534 
L 316.586176 50.59396 
L 317.870524 49.655233 
L 319.083519 48.487693 
L 320.225161 47.065203 
L 321.366803 45.260928 
L 322.508446 43.028283 
L 323.792793 40.009625 
L 325.933373 34.268075 
L 327.503131 30.339817 
L 328.716126 27.877246 
L 329.857768 26.045691 
L 330.999411 24.623145 
L 332.212406 23.476023 
L 333.496753 22.569565 
L 335.066512 21.740664 
L 336.993033 20.983939 
L 339.204965 20.363881 
L 341.987718 19.808206 
L 344.485061 19.541593 
L 347.981341 19.408909 
L 358.042064 19.365095 
L 363.536218 19.692949 
L 369.315782 20.292513 
L 371.527714 20.817987 
L 381.65979 23.600602 
L 386.440418 24.851963 
L 389.936697 25.933003 
L 392.648098 26.980733 
L 394.931383 28.102179 
L 396.857904 29.290142 
L 398.713073 30.711587 
L 400.7823 32.586941 
L 402.494763 34.430162 
L 403.993169 36.361773 
L 405.348869 38.463137 
L 406.561864 40.765021 
L 407.632154 43.276349 
L 408.631091 46.167646 
L 409.630028 49.739133 
L 410.628965 54.167924 
L 411.627902 59.653149 
L 411.84196 60.985381 
L 411.84196 60.985381 
" clip-path="url(#p1e82be1f9f)" style="fill: none; stroke-dasharray: 5.55,2.4; stroke-dashoffset: 0; stroke: #2ca02c; stroke-width: 1.5"/>
   </g>
   <g id="patch_3">
    <path d="M 70.954688 273.312 
L 70.954688 7.2 
" style="fill: none; stroke: #000000; stroke-width: 0.8; stroke-linejoin: miter; stroke-linecap: square"/>
   </g>
   <g id="patch_4">
    <path d="M 428.074687 273.312 
L 428.074687 7.2 
" style="fill: none; stroke: #000000; stroke-width: 0.8; stroke-linejoin: miter; stroke-linecap: square"/>
   </g>
   <g id="patch_5">
    <path d="M 70.954688 273.312 
L 428.074687 273.312 
" style="fill: none; stroke: #000000; stroke-width: 0.8; stroke-linejoin: miter; stroke-linecap: square"/>
   </g>
   <g id="patch_6">
    <path d="M 70.954688 7.2 
L 428.074687 7.2 
" style="fill: none; stroke: #000000; stroke-width: 0.8; stroke-linejoin: miter; stroke-linecap: square"/>
   </g>
  </g>
 </g>
 <defs>
  <clipPath id="p1e82be1f9f">
   <rect x="70.954688" y="7.2" width="357.12" height="266.112"/>
  </clipPath>
 </defs>
</svg>
