<?xml version="1.0" encoding="utf-8" standalone="no"?>
<!DOCTYPE svg PUBLIC "-//W3C//DTD SVG 1.1//EN"
  "http://www.w3.org/Graphics/SVG/1.1/DTD/svg11.dtd">
<svg xmlns:xlink="http://www.w3.org/1999/xlink" width="468.575469pt" height="331.128016pt" viewBox="0 0 468.575469 331.128016" xmlns="http://www.w3.org/2000/svg" version="1.1">
 <defs>
  <style type="text/css">*{stroke-linejoin: round; stroke-linecap: butt}</style>
 </defs>
 <g id="figure_1">
  <g id="patch_1">
   <path d="M 0 331.128016 
L 468.575469 331.128016 
L 468.575469 0 
L 0 0 
L 0 331.128016 
z
" style="fill: none"/>
  </g>
  <g id="axes_1">
   <g id="patch_2">
    <path d="M 104.255469 279.010828 
L 461.375469 279.010828 
L 461.375469 12.898828 
L 104.255469 12.898828 
L 104.255469 279.010828 
z
" style="fill: none"/>
   </g>
   <g id="matplotlib.axis_1">
    <g id="xtick_1">
     <g id="line2d_1">
      <path d="M 136.185778 279.010828 
L 136.185778 12.898828 
" clip-path="url(#p0073ac46e8)" style="fill: none; stroke: #b0b0b0; stroke-width: 0.8; stroke-linecap: square"/>
     </g>
     <g id="line2d_2">
      <defs>
       <path id="md39032bed2" d="M 0 0 
L 0 3.5 
" style="stroke: #000000; stroke-width: 0.8"/>
      </defs>
      <g>
       <use xlink:href="#md39032bed2" x="136.185778" y="279.010828" style="stroke: #000000; stroke-width: 0.8"/>
      </g>
     </g>
     <g id="text_1">
      <!-- −3000 -->
      <g transform="translate(110.813513 297.408484)scale(0.15 -0.15)">
       <defs>
        <path id="DejaVuSans-2212" d="M 678 2272 
L 4684 2272 
L 4684 1741 
L 678 1741 
L 678 2272 
z
" transform="scale(0.015625)"/>
        <path id="DejaVuSans-33" d="M 2597 2516 
Q 3050 2419 3304 2112 
Q 3559 1806 3559 1356 
Q 3559 666 3084 287 
Q 2609 -91 1734 -91 
Q 1441 -91 1130 -33 
Q 819 25 488 141 
L 488 750 
Q 750 597 1062 519 
Q 1375 441 1716 441 
Q 2309 441 2620 675 
Q 2931 909 2931 1356 
Q 2931 1769 2642 2001 
Q 2353 2234 1838 2234 
L 1294 2234 
L 1294 2753 
L 1863 2753 
Q 2328 2753 2575 2939 
Q 2822 3125 2822 3475 
Q 2822 3834 2567 4026 
Q 2313 4219 1838 4219 
Q 1578 4219 1281 4162 
Q 984 4106 628 3988 
L 628 4550 
Q 988 4650 1302 4700 
Q 1616 4750 1894 4750 
Q 2613 4750 3031 4423 
Q 3450 4097 3450 3541 
Q 3450 3153 3228 2886 
Q 3006 2619 2597 2516 
z
" transform="scale(0.015625)"/>
        <path id="DejaVuSans-30" d="M 2034 4250 
Q 1547 4250 1301 3770 
Q 1056 3291 1056 2328 
Q 1056 1369 1301 889 
Q 1547 409 2034 409 
Q 2525 409 2770 889 
Q 3016 1369 3016 2328 
Q 3016 3291 2770 3770 
Q 2525 4250 2034 4250 
z
M 2034 4750 
Q 2819 4750 3233 4129 
Q 3647 3509 3647 2328 
Q 3647 1150 3233 529 
Q 2819 -91 2034 -91 
Q 1250 -91 836 529 
Q 422 1150 422 2328 
Q 422 3509 836 4129 
Q 1250 4750 2034 4750 
z
" transform="scale(0.015625)"/>
       </defs>
       <use xlink:href="#DejaVuSans-2212"/>
       <use xlink:href="#DejaVuSans-33" x="83.789062"/>
       <use xlink:href="#DejaVuSans-30" x="147.412109"/>
       <use xlink:href="#DejaVuSans-30" x="211.035156"/>
       <use xlink:href="#DejaVuSans-30" x="274.658203"/>
      </g>
     </g>
    </g>
    <g id="xtick_2">
     <g id="line2d_3">
      <path d="M 207.538426 279.010828 
L 207.538426 12.898828 
" clip-path="url(#p0073ac46e8)" style="fill: none; stroke: #b0b0b0; stroke-width: 0.8; stroke-linecap: square"/>
     </g>
     <g id="line2d_4">
      <g>
       <use xlink:href="#md39032bed2" x="207.538426" y="279.010828" style="stroke: #000000; stroke-width: 0.8"/>
      </g>
     </g>
     <g id="text_2">
      <!-- −2000 -->
      <g transform="translate(182.16616 297.408484)scale(0.15 -0.15)">
       <defs>
        <path id="DejaVuSans-32" d="M 1228 531 
L 3431 531 
L 3431 0 
L 469 0 
L 469 531 
Q 828 903 1448 1529 
Q 2069 2156 2228 2338 
Q 2531 2678 2651 2914 
Q 2772 3150 2772 3378 
Q 2772 3750 2511 3984 
Q 2250 4219 1831 4219 
Q 1534 4219 1204 4116 
Q 875 4013 500 3803 
L 500 4441 
Q 881 4594 1212 4672 
Q 1544 4750 1819 4750 
Q 2544 4750 2975 4387 
Q 3406 4025 3406 3419 
Q 3406 3131 3298 2873 
Q 3191 2616 2906 2266 
Q 2828 2175 2409 1742 
Q 1991 1309 1228 531 
z
" transform="scale(0.015625)"/>
       </defs>
       <use xlink:href="#DejaVuSans-2212"/>
       <use xlink:href="#DejaVuSans-32" x="83.789062"/>
       <use xlink:href="#DejaVuSans-30" x="147.412109"/>
       <use xlink:href="#DejaVuSans-30" x="211.035156"/>
       <use xlink:href="#DejaVuSans-30" x="274.658203"/>
      </g>
     </g>
    </g>
    <g id="xtick_3">
     <g id="line2d_5">
      <path d="M 278.891073 279.010828 
L 278.891073 12.898828 
" clip-path="url(#p0073ac46e8)" style="fill: none; stroke: #b0b0b0; stroke-width: 0.8; stroke-linecap: square"/>
     </g>
     <g id="line2d_6">
      <g>
       <use xlink:href="#md39032bed2" x="278.891073" y="279.010828" style="stroke: #000000; stroke-width: 0.8"/>
      </g>
     </g>
     <g id="text_3">
      <!-- −1000 -->
      <g transform="translate(253.518808 297.408484)scale(0.15 -0.15)">
       <defs>
        <path id="DejaVuSans-31" d="M 794 531 
L 1825 531 
L 1825 4091 
L 703 3866 
L 703 4441 
L 1819 4666 
L 2450 4666 
L 2450 531 
L 3481 531 
L 3481 0 
L 794 0 
L 794 531 
z
" transform="scale(0.015625)"/>
       </defs>
       <use xlink:href="#DejaVuSans-2212"/>
       <use xlink:href="#DejaVuSans-31" x="83.789062"/>
       <use xlink:href="#DejaVuSans-30" x="147.412109"/>
       <use xlink:href="#DejaVuSans-30" x="211.035156"/>
       <use xlink:href="#DejaVuSans-30" x="274.658203"/>
      </g>
     </g>
    </g>
    <g id="xtick_4">
     <g id="line2d_7">
      <path d="M 350.24372 279.010828 
L 350.24372 12.898828 
" clip-path="url(#p0073ac46e8)" style="fill: none; stroke: #b0b0b0; stroke-width: 0.8; stroke-linecap: square"/>
     </g>
     <g id="line2d_8">
      <g>
       <use xlink:href="#md39032bed2" x="350.24372" y="279.010828" style="stroke: #000000; stroke-width: 0.8"/>
      </g>
     </g>
     <g id="text_4">
      <!-- 0 -->
      <g transform="translate(345.471845 297.408484)scale(0.15 -0.15)">
       <use xlink:href="#DejaVuSans-30"/>
      </g>
     </g>
    </g>
    <g id="xtick_5">
     <g id="line2d_9">
      <path d="M 421.596368 279.010828 
L 421.596368 12.898828 
" clip-path="url(#p0073ac46e8)" style="fill: none; stroke: #b0b0b0; stroke-width: 0.8; stroke-linecap: square"/>
     </g>
     <g id="line2d_10">
      <g>
       <use xlink:href="#md39032bed2" x="421.596368" y="279.010828" style="stroke: #000000; stroke-width: 0.8"/>
      </g>
     </g>
     <g id="text_5">
      <!-- 1000 -->
      <g transform="translate(402.508868 297.408484)scale(0.15 -0.15)">
       <use xlink:href="#DejaVuSans-31"/>
       <use xlink:href="#DejaVuSans-30" x="63.623047"/>
       <use xlink:href="#DejaVuSans-30" x="127.246094"/>
       <use xlink:href="#DejaVuSans-30" x="190.869141"/>
      </g>
     </g>
    </g>
    <g id="text_6">
     <!-- X ($\mu m$) -->
     <g transform="translate(248.815469 319.728016)scale(0.2 -0.2)">
      <defs>
       <path id="DejaVuSans-58" d="M 403 4666 
L 1081 4666 
L 2241 2931 
L 3406 4666 
L 4084 4666 
L 2584 2425 
L 4184 0 
L 3506 0 
L 2194 1984 
L 872 0 
L 191 0 
L 1856 2491 
L 403 4666 
z
" transform="scale(0.015625)"/>
       <path id="DejaVuSans-20" transform="scale(0.015625)"/>
       <path id="DejaVuSans-28" d="M 1984 4856 
Q 1566 4138 1362 3434 
Q 1159 2731 1159 2009 
Q 1159 1288 1364 580 
Q 1569 -128 1984 -844 
L 1484 -844 
Q 1016 -109 783 600 
Q 550 1309 550 2009 
Q 550 2706 781 3412 
Q 1013 4119 1484 4856 
L 1984 4856 
z
" transform="scale(0.015625)"/>
       <path id="DejaVuSans-Oblique-3bc" d="M -84 -1331 
L 856 3500 
L 1434 3500 
L 1009 1322 
Q 997 1256 987 1175 
Q 978 1094 978 1013 
Q 978 722 1161 565 
Q 1344 409 1684 409 
Q 2147 409 2431 671 
Q 2716 934 2816 1459 
L 3213 3500 
L 3788 3500 
L 3266 809 
Q 3253 750 3248 706 
Q 3244 663 3244 628 
Q 3244 531 3283 486 
Q 3322 441 3406 441 
Q 3438 441 3492 456 
Q 3547 472 3647 513 
L 3559 50 
Q 3422 -19 3297 -55 
Q 3172 -91 3053 -91 
Q 2847 -91 2730 40 
Q 2613 172 2613 403 
Q 2438 153 2195 31 
Q 1953 -91 1625 -91 
Q 1334 -91 1117 43 
Q 900 178 831 397 
L 494 -1331 
L -84 -1331 
z
" transform="scale(0.015625)"/>
       <path id="DejaVuSans-Oblique-6d" d="M 5747 2113 
L 5338 0 
L 4763 0 
L 5166 2094 
Q 5191 2228 5203 2325 
Q 5216 2422 5216 2491 
Q 5216 2772 5059 2928 
Q 4903 3084 4622 3084 
Q 4203 3084 3875 2770 
Q 3547 2456 3450 1953 
L 3066 0 
L 2491 0 
L 2900 2094 
Q 2925 2209 2937 2307 
Q 2950 2406 2950 2484 
Q 2950 2769 2794 2926 
Q 2638 3084 2363 3084 
Q 1938 3084 1609 2770 
Q 1281 2456 1184 1953 
L 800 0 
L 225 0 
L 909 3500 
L 1484 3500 
L 1375 2956 
Q 1609 3263 1923 3423 
Q 2238 3584 2597 3584 
Q 2978 3584 3223 3384 
Q 3469 3184 3519 2828 
Q 3781 3197 4126 3390 
Q 4472 3584 4856 3584 
Q 5306 3584 5551 3325 
Q 5797 3066 5797 2591 
Q 5797 2488 5784 2364 
Q 5772 2241 5747 2113 
z
" transform="scale(0.015625)"/>
       <path id="DejaVuSans-29" d="M 513 4856 
L 1013 4856 
Q 1481 4119 1714 3412 
Q 1947 2706 1947 2009 
Q 1947 1309 1714 600 
Q 1481 -109 1013 -844 
L 513 -844 
Q 928 -128 1133 580 
Q 1338 1288 1338 2009 
Q 1338 2731 1133 3434 
Q 928 4138 513 4856 
z
" transform="scale(0.015625)"/>
      </defs>
      <use xlink:href="#DejaVuSans-58" transform="translate(0 0.125)"/>
      <use xlink:href="#DejaVuSans-20" transform="translate(68.505859 0.125)"/>
      <use xlink:href="#DejaVuSans-28" transform="translate(100.292969 0.125)"/>
      <use xlink:href="#DejaVuSans-Oblique-3bc" transform="translate(139.306641 0.125)"/>
      <use xlink:href="#DejaVuSans-Oblique-6d" transform="translate(202.929688 0.125)"/>
      <use xlink:href="#DejaVuSans-29" transform="translate(300.341797 0.125)"/>
     </g>
    </g>
   </g>
   <g id="matplotlib.axis_2">
    <g id="ytick_1">
     <g id="line2d_11">
      <path d="M 104.255469 279.010828 
L 461.375469 279.010828 
" clip-path="url(#p0073ac46e8)" style="fill: none; stroke: #b0b0b0; stroke-width: 0.8; stroke-linecap: square"/>
     </g>
     <g id="line2d_12">
      <defs>
       <path id="m6f3f5b6aff" d="M 0 0 
L -3.5 0 
" style="stroke: #000000; stroke-width: 0.8"/>
      </defs>
      <g>
       <use xlink:href="#m6f3f5b6aff" x="104.255469" y="279.010828" style="stroke: #000000; stroke-width: 0.8"/>
      </g>
     </g>
     <g id="text_7">
      <!-- −0.0100 -->
      <g transform="translate(32.2 284.709656)scale(0.15 -0.15)">
       <defs>
        <path id="DejaVuSans-2e" d="M 684 794 
L 1344 794 
L 1344 0 
L 684 0 
L 684 794 
z
" transform="scale(0.015625)"/>
       </defs>
       <use xlink:href="#DejaVuSans-2212"/>
       <use xlink:href="#DejaVuSans-30" x="83.789062"/>
       <use xlink:href="#DejaVuSans-2e" x="147.412109"/>
       <use xlink:href="#DejaVuSans-30" x="179.199219"/>
       <use xlink:href="#DejaVuSans-31" x="242.822266"/>
       <use xlink:href="#DejaVuSans-30" x="306.445312"/>
       <use xlink:href="#DejaVuSans-30" x="370.068359"/>
      </g>
     </g>
    </g>
    <g id="ytick_2">
     <g id="line2d_13">
      <path d="M 104.255469 245.746828 
L 461.375469 245.746828 
" clip-path="url(#p0073ac46e8)" style="fill: none; stroke: #b0b0b0; stroke-width: 0.8; stroke-linecap: square"/>
     </g>
     <g id="line2d_14">
      <g>
       <use xlink:href="#m6f3f5b6aff" x="104.255469" y="245.746828" style="stroke: #000000; stroke-width: 0.8"/>
      </g>
     </g>
     <g id="text_8">
      <!-- −0.0075 -->
      <g transform="translate(32.2 251.445656)scale(0.15 -0.15)">
       <defs>
        <path id="DejaVuSans-37" d="M 525 4666 
L 3525 4666 
L 3525 4397 
L 1831 0 
L 1172 0 
L 2766 4134 
L 525 4134 
L 525 4666 
z
" transform="scale(0.015625)"/>
        <path id="DejaVuSans-35" d="M 691 4666 
L 3169 4666 
L 3169 4134 
L 1269 4134 
L 1269 2991 
Q 1406 3038 1543 3061 
Q 1681 3084 1819 3084 
Q 2600 3084 3056 2656 
Q 3513 2228 3513 1497 
Q 3513 744 3044 326 
Q 2575 -91 1722 -91 
Q 1428 -91 1123 -41 
Q 819 9 494 109 
L 494 744 
Q 775 591 1075 516 
Q 1375 441 1709 441 
Q 2250 441 2565 725 
Q 2881 1009 2881 1497 
Q 2881 1984 2565 2268 
Q 2250 2553 1709 2553 
Q 1456 2553 1204 2497 
Q 953 2441 691 2322 
L 691 4666 
z
" transform="scale(0.015625)"/>
       </defs>
       <use xlink:href="#DejaVuSans-2212"/>
       <use xlink:href="#DejaVuSans-30" x="83.789062"/>
       <use xlink:href="#DejaVuSans-2e" x="147.412109"/>
       <use xlink:href="#DejaVuSans-30" x="179.199219"/>
       <use xlink:href="#DejaVuSans-30" x="242.822266"/>
       <use xlink:href="#DejaVuSans-37" x="306.445312"/>
       <use xlink:href="#DejaVuSans-35" x="370.068359"/>
      </g>
     </g>
    </g>
    <g id="ytick_3">
     <g id="line2d_15">
      <path d="M 104.255469 212.482828 
L 461.375469 212.482828 
" clip-path="url(#p0073ac46e8)" style="fill: none; stroke: #b0b0b0; stroke-width: 0.8; stroke-linecap: square"/>
     </g>
     <g id="line2d_16">
      <g>
       <use xlink:href="#m6f3f5b6aff" x="104.255469" y="212.482828" style="stroke: #000000; stroke-width: 0.8"/>
      </g>
     </g>
     <g id="text_9">
      <!-- −0.0050 -->
      <g transform="translate(32.2 218.181656)scale(0.15 -0.15)">
       <use xlink:href="#DejaVuSans-2212"/>
       <use xlink:href="#DejaVuSans-30" x="83.789062"/>
       <use xlink:href="#DejaVuSans-2e" x="147.412109"/>
       <use xlink:href="#DejaVuSans-30" x="179.199219"/>
       <use xlink:href="#DejaVuSans-30" x="242.822266"/>
       <use xlink:href="#DejaVuSans-35" x="306.445312"/>
       <use xlink:href="#DejaVuSans-30" x="370.068359"/>
      </g>
     </g>
    </g>
    <g id="ytick_4">
     <g id="line2d_17">
      <path d="M 104.255469 179.218828 
L 461.375469 179.218828 
" clip-path="url(#p0073ac46e8)" style="fill: none; stroke: #b0b0b0; stroke-width: 0.8; stroke-linecap: square"/>
     </g>
     <g id="line2d_18">
      <g>
       <use xlink:href="#m6f3f5b6aff" x="104.255469" y="179.218828" style="stroke: #000000; stroke-width: 0.8"/>
      </g>
     </g>
     <g id="text_10">
      <!-- −0.0025 -->
      <g transform="translate(32.2 184.917656)scale(0.15 -0.15)">
       <use xlink:href="#DejaVuSans-2212"/>
       <use xlink:href="#DejaVuSans-30" x="83.789062"/>
       <use xlink:href="#DejaVuSans-2e" x="147.412109"/>
       <use xlink:href="#DejaVuSans-30" x="179.199219"/>
       <use xlink:href="#DejaVuSans-30" x="242.822266"/>
       <use xlink:href="#DejaVuSans-32" x="306.445312"/>
       <use xlink:href="#DejaVuSans-35" x="370.068359"/>
      </g>
     </g>
    </g>
    <g id="ytick_5">
     <g id="line2d_19">
      <path d="M 104.255469 145.954828 
L 461.375469 145.954828 
" clip-path="url(#p0073ac46e8)" style="fill: none; stroke: #b0b0b0; stroke-width: 0.8; stroke-linecap: square"/>
     </g>
     <g id="line2d_20">
      <g>
       <use xlink:href="#m6f3f5b6aff" x="104.255469" y="145.954828" style="stroke: #000000; stroke-width: 0.8"/>
      </g>
     </g>
     <g id="text_11">
      <!-- 0.0000 -->
      <g transform="translate(44.769531 151.653656)scale(0.15 -0.15)">
       <use xlink:href="#DejaVuSans-30"/>
       <use xlink:href="#DejaVuSans-2e" x="63.623047"/>
       <use xlink:href="#DejaVuSans-30" x="95.410156"/>
       <use xlink:href="#DejaVuSans-30" x="159.033203"/>
       <use xlink:href="#DejaVuSans-30" x="222.65625"/>
       <use xlink:href="#DejaVuSans-30" x="286.279297"/>
      </g>
     </g>
    </g>
    <g id="ytick_6">
     <g id="line2d_21">
      <path d="M 104.255469 112.690828 
L 461.375469 112.690828 
" clip-path="url(#p0073ac46e8)" style="fill: none; stroke: #b0b0b0; stroke-width: 0.8; stroke-linecap: square"/>
     </g>
     <g id="line2d_22">
      <g>
       <use xlink:href="#m6f3f5b6aff" x="104.255469" y="112.690828" style="stroke: #000000; stroke-width: 0.8"/>
      </g>
     </g>
     <g id="text_12">
      <!-- 0.0025 -->
      <g transform="translate(44.769531 118.389656)scale(0.15 -0.15)">
       <use xlink:href="#DejaVuSans-30"/>
       <use xlink:href="#DejaVuSans-2e" x="63.623047"/>
       <use xlink:href="#DejaVuSans-30" x="95.410156"/>
       <use xlink:href="#DejaVuSans-30" x="159.033203"/>
       <use xlink:href="#DejaVuSans-32" x="222.65625"/>
       <use xlink:href="#DejaVuSans-35" x="286.279297"/>
      </g>
     </g>
    </g>
    <g id="ytick_7">
     <g id="line2d_23">
      <path d="M 104.255469 79.426828 
L 461.375469 79.426828 
" clip-path="url(#p0073ac46e8)" style="fill: none; stroke: #b0b0b0; stroke-width: 0.8; stroke-linecap: square"/>
     </g>
     <g id="line2d_24">
      <g>
       <use xlink:href="#m6f3f5b6aff" x="104.255469" y="79.426828" style="stroke: #000000; stroke-width: 0.8"/>
      </g>
     </g>
     <g id="text_13">
      <!-- 0.0050 -->
      <g transform="translate(44.769531 85.125656)scale(0.15 -0.15)">
       <use xlink:href="#DejaVuSans-30"/>
       <use xlink:href="#DejaVuSans-2e" x="63.623047"/>
       <use xlink:href="#DejaVuSans-30" x="95.410156"/>
       <use xlink:href="#DejaVuSans-30" x="159.033203"/>
       <use xlink:href="#DejaVuSans-35" x="222.65625"/>
       <use xlink:href="#DejaVuSans-30" x="286.279297"/>
      </g>
     </g>
    </g>
    <g id="ytick_8">
     <g id="line2d_25">
      <path d="M 104.255469 46.162828 
L 461.375469 46.162828 
" clip-path="url(#p0073ac46e8)" style="fill: none; stroke: #b0b0b0; stroke-width: 0.8; stroke-linecap: square"/>
     </g>
     <g id="line2d_26">
      <g>
       <use xlink:href="#m6f3f5b6aff" x="104.255469" y="46.162828" style="stroke: #000000; stroke-width: 0.8"/>
      </g>
     </g>
     <g id="text_14">
      <!-- 0.0075 -->
      <g transform="translate(44.769531 51.861656)scale(0.15 -0.15)">
       <use xlink:href="#DejaVuSans-30"/>
       <use xlink:href="#DejaVuSans-2e" x="63.623047"/>
       <use xlink:href="#DejaVuSans-30" x="95.410156"/>
       <use xlink:href="#DejaVuSans-30" x="159.033203"/>
       <use xlink:href="#DejaVuSans-37" x="222.65625"/>
       <use xlink:href="#DejaVuSans-35" x="286.279297"/>
      </g>
     </g>
    </g>
    <g id="ytick_9">
     <g id="line2d_27">
      <path d="M 104.255469 12.898828 
L 461.375469 12.898828 
" clip-path="url(#p0073ac46e8)" style="fill: none; stroke: #b0b0b0; stroke-width: 0.8; stroke-linecap: square"/>
     </g>
     <g id="line2d_28">
      <g>
       <use xlink:href="#m6f3f5b6aff" x="104.255469" y="12.898828" style="stroke: #000000; stroke-width: 0.8"/>
      </g>
     </g>
     <g id="text_15">
      <!-- 0.0100 -->
      <g transform="translate(44.769531 18.597656)scale(0.15 -0.15)">
       <use xlink:href="#DejaVuSans-30"/>
       <use xlink:href="#DejaVuSans-2e" x="63.623047"/>
       <use xlink:href="#DejaVuSans-30" x="95.410156"/>
       <use xlink:href="#DejaVuSans-31" x="159.033203"/>
       <use xlink:href="#DejaVuSans-30" x="222.65625"/>
       <use xlink:href="#DejaVuSans-30" x="286.279297"/>
      </g>
     </g>
    </g>
    <g id="text_16">
     <!-- Violation ($mm^{-2}$) -->
     <g transform="translate(24.040625 231.354828)rotate(-90)scale(0.2 -0.2)">
      <defs>
       <path id="DejaVuSans-56" d="M 1831 0 
L 50 4666 
L 709 4666 
L 2188 738 
L 3669 4666 
L 4325 4666 
L 2547 0 
L 1831 0 
z
" transform="scale(0.015625)"/>
       <path id="DejaVuSans-69" d="M 603 3500 
L 1178 3500 
L 1178 0 
L 603 0 
L 603 3500 
z
M 603 4863 
L 1178 4863 
L 1178 4134 
L 603 4134 
L 603 4863 
z
" transform="scale(0.015625)"/>
       <path id="DejaVuSans-6f" d="M 1959 3097 
Q 1497 3097 1228 2736 
Q 959 2375 959 1747 
Q 959 1119 1226 758 
Q 1494 397 1959 397 
Q 2419 397 2687 759 
Q 2956 1122 2956 1747 
Q 2956 2369 2687 2733 
Q 2419 3097 1959 3097 
z
M 1959 3584 
Q 2709 3584 3137 3096 
Q 3566 2609 3566 1747 
Q 3566 888 3137 398 
Q 2709 -91 1959 -91 
Q 1206 -91 779 398 
Q 353 888 353 1747 
Q 353 2609 779 3096 
Q 1206 3584 1959 3584 
z
" transform="scale(0.015625)"/>
       <path id="DejaVuSans-6c" d="M 603 4863 
L 1178 4863 
L 1178 0 
L 603 0 
L 603 4863 
z
" transform="scale(0.015625)"/>
       <path id="DejaVuSans-61" d="M 2194 1759 
Q 1497 1759 1228 1600 
Q 959 1441 959 1056 
Q 959 750 1161 570 
Q 1363 391 1709 391 
Q 2188 391 2477 730 
Q 2766 1069 2766 1631 
L 2766 1759 
L 2194 1759 
z
M 3341 1997 
L 3341 0 
L 2766 0 
L 2766 531 
Q 2569 213 2275 61 
Q 1981 -91 1556 -91 
Q 1019 -91 701 211 
Q 384 513 384 1019 
Q 384 1609 779 1909 
Q 1175 2209 1959 2209 
L 2766 2209 
L 2766 2266 
Q 2766 2663 2505 2880 
Q 2244 3097 1772 3097 
Q 1472 3097 1187 3025 
Q 903 2953 641 2809 
L 641 3341 
Q 956 3463 1253 3523 
Q 1550 3584 1831 3584 
Q 2591 3584 2966 3190 
Q 3341 2797 3341 1997 
z
" transform="scale(0.015625)"/>
       <path id="DejaVuSans-74" d="M 1172 4494 
L 1172 3500 
L 2356 3500 
L 2356 3053 
L 1172 3053 
L 1172 1153 
Q 1172 725 1289 603 
Q 1406 481 1766 481 
L 2356 481 
L 2356 0 
L 1766 0 
Q 1100 0 847 248 
Q 594 497 594 1153 
L 594 3053 
L 172 3053 
L 172 3500 
L 594 3500 
L 594 4494 
L 1172 4494 
z
" transform="scale(0.015625)"/>
       <path id="DejaVuSans-6e" d="M 3513 2113 
L 3513 0 
L 2938 0 
L 2938 2094 
Q 2938 2591 2744 2837 
Q 2550 3084 2163 3084 
Q 1697 3084 1428 2787 
Q 1159 2491 1159 1978 
L 1159 0 
L 581 0 
L 581 3500 
L 1159 3500 
L 1159 2956 
Q 1366 3272 1645 3428 
Q 1925 3584 2291 3584 
Q 2894 3584 3203 3211 
Q 3513 2838 3513 2113 
z
" transform="scale(0.015625)"/>
      </defs>
      <use xlink:href="#DejaVuSans-56" transform="translate(0 0.765625)"/>
      <use xlink:href="#DejaVuSans-69" transform="translate(68.408203 0.765625)"/>
      <use xlink:href="#DejaVuSans-6f" transform="translate(96.191406 0.765625)"/>
      <use xlink:href="#DejaVuSans-6c" transform="translate(157.373047 0.765625)"/>
      <use xlink:href="#DejaVuSans-61" transform="translate(185.15625 0.765625)"/>
      <use xlink:href="#DejaVuSans-74" transform="translate(246.435547 0.765625)"/>
      <use xlink:href="#DejaVuSans-69" transform="translate(285.644531 0.765625)"/>
      <use xlink:href="#DejaVuSans-6f" transform="translate(313.427734 0.765625)"/>
      <use xlink:href="#DejaVuSans-6e" transform="translate(374.609375 0.765625)"/>
      <use xlink:href="#DejaVuSans-20" transform="translate(437.988281 0.765625)"/>
      <use xlink:href="#DejaVuSans-28" transform="translate(469.775391 0.765625)"/>
      <use xlink:href="#DejaVuSans-Oblique-6d" transform="translate(508.789062 0.765625)"/>
      <use xlink:href="#DejaVuSans-Oblique-6d" transform="translate(606.201172 0.765625)"/>
      <use xlink:href="#DejaVuSans-2212" transform="translate(708.263177 39.046875)scale(0.7)"/>
      <use xlink:href="#DejaVuSans-32" transform="translate(766.915521 39.046875)scale(0.7)"/>
      <use xlink:href="#DejaVuSans-29" transform="translate(814.186029 0.765625)"/>
     </g>
    </g>
   </g>
   <g id="line2d_29">
    <path d="M 120.488196 118.477477 
L 120.702254 143.482585 
L 120.773607 144.794666 
L 120.844959 144.107159 
L 120.987665 139.460103 
L 121.201722 126.442545 
L 121.273075 128.745789 
L 121.41578 139.908334 
L 121.558486 167.722391 
L 121.915249 116.862547 
L 121.986602 118.764385 
L 122.129307 131.187103 
L 122.20066 130.317978 
L 122.272012 131.459082 
L 122.343365 130.291282 
L 122.414718 120.502839 
L 122.771481 164.735 
L 122.985539 140.828643 
L 123.128244 150.328765 
L 123.270949 148.197898 
L 123.342302 148.202084 
L 123.413655 149.308545 
L 123.699065 140.776211 
L 123.770418 140.833292 
L 123.984476 145.075344 
L 124.055828 148.851647 
L 124.127181 148.769653 
L 124.341239 142.14761 
L 124.555297 152.004054 
L 124.62665 148.899181 
L 124.840708 140.806531 
L 125.197471 154.985597 
L 125.268823 153.287362 
L 125.411529 118.183686 
L 125.482881 105.502015 
L 125.554234 107.582423 
L 125.98235 166.554153 
L 126.26776 133.359217 
L 126.481818 147.791199 
L 126.624524 152.661406 
L 126.695876 151.105707 
L 126.981287 131.185484 
L 127.480755 149.188487 
L 127.552108 149.438409 
L 127.980224 145.332372 
L 128.051577 146.515786 
L 128.122929 145.731989 
L 128.336987 148.675073 
L 128.551045 147.265709 
L 128.622398 148.367767 
L 128.836456 127.73394 
L 128.979161 134.010271 
L 129.264572 154.323453 
L 129.335924 153.951988 
L 129.549982 139.413916 
L 129.692688 146.941253 
L 129.835393 143.823083 
L 129.906745 143.863908 
L 129.978098 143.194315 
L 130.477567 148.14053 
L 130.548919 147.268898 
L 130.83433 139.426005 
L 130.905683 139.875334 
L 131.048388 144.406355 
L 131.262446 151.565364 
L 131.619209 146.131036 
L 131.761914 149.370793 
L 131.833267 154.435769 
L 132.047325 132.498557 
L 132.118678 133.408388 
L 132.404088 147.786546 
L 132.475441 146.664706 
L 132.760851 136.116993 
L 132.974909 160.94646 
L 133.046262 159.165502 
L 133.331673 140.762199 
L 133.403025 139.547505 
L 133.474378 140.093768 
L 133.902494 149.788344 
L 134.116552 144.682382 
L 134.33061 139.386264 
L 134.758725 149.207193 
L 135.115489 146.063564 
L 135.186841 145.9523 
L 135.258194 146.2846 
L 135.329547 144.155938 
L 135.400899 144.787838 
L 135.543605 145.424833 
L 135.68631 145.25856 
L 135.97172 142.083814 
L 136.043073 142.396545 
L 136.114426 142.217648 
L 136.471189 149.872473 
L 136.542542 149.299504 
L 136.899305 141.065163 
L 137.04201 142.464491 
L 137.256068 151.750841 
L 137.398773 144.759372 
L 137.541479 137.619842 
L 137.612831 137.436905 
L 137.755537 143.253219 
L 137.969595 153.218122 
L 138.255005 145.74369 
L 138.397711 147.68693 
L 138.469063 147.393803 
L 138.540416 147.931526 
L 138.611768 147.094722 
L 138.683121 144.57724 
L 138.754474 144.845377 
L 138.825826 146.429265 
L 139.039884 142.342152 
L 139.18259 144.429626 
L 139.325295 141.010173 
L 139.539353 146.878621 
L 139.610706 148.540822 
L 139.682058 145.745236 
L 139.753411 146.507344 
L 139.896116 149.250853 
L 140.252879 143.780229 
L 140.324232 143.750734 
L 140.395585 142.547352 
L 140.466937 143.232966 
L 140.53829 141.023266 
L 140.609643 141.066435 
L 140.680995 140.532437 
L 140.895053 150.858734 
L 141.037758 156.075966 
L 141.180464 150.972752 
L 141.251816 146.815175 
L 141.323169 147.233099 
L 141.465874 145.027248 
L 141.751285 148.848266 
L 141.822638 148.919155 
L 142.036696 147.616675 
L 142.108048 148.928845 
L 142.250753 146.259501 
L 142.322106 146.878795 
L 142.393459 147.969664 
L 142.536164 145.935015 
L 142.607517 145.689676 
L 142.678869 145.824953 
L 142.750222 145.86625 
L 142.96428 146.646774 
L 143.035633 147.197582 
L 143.106985 149.328946 
L 143.249691 143.539089 
L 143.321043 143.812702 
L 143.463748 145.723071 
L 143.677806 149.665799 
L 143.749159 149.379501 
L 143.820512 146.284953 
L 143.891864 149.350014 
L 143.963217 148.419035 
L 144.03457 148.338498 
L 144.105922 147.901574 
L 144.391333 138.505438 
L 144.462686 139.017315 
L 144.748096 152.078695 
L 144.819449 148.777051 
L 144.890801 150.793549 
L 145.176212 145.26671 
L 145.247565 145.121755 
L 145.39027 146.060958 
L 145.461623 145.945504 
L 145.532975 146.232607 
L 145.747033 150.4509 
L 145.818386 150.39533 
L 146.103796 141.558337 
L 146.175149 142.124804 
L 146.46056 151.790517 
L 146.531912 150.469212 
L 146.74597 147.347936 
L 147.031381 152.327122 
L 147.388144 155.994474 
L 147.459497 155.755733 
L 147.530849 156.267349 
L 147.81626 163.61689 
L 147.887613 162.317837 
L 148.244376 152.089717 
L 148.458434 155.660505 
L 148.815197 148.95068 
L 148.957902 150.31522 
L 149.029255 150.159526 
L 149.17196 149.090588 
L 149.386018 145.262247 
L 149.528723 144.268197 
L 149.600076 144.549688 
L 149.671429 144.596056 
L 149.742781 143.494767 
L 149.814134 143.996977 
L 149.885487 144.372035 
L 150.028192 146.326808 
L 150.099545 146.480316 
L 150.24225 144.400479 
L 150.384955 141.400603 
L 150.527661 144.418757 
L 150.670366 148.569643 
L 150.741719 148.273134 
L 150.884424 149.786527 
L 150.955776 148.379121 
L 151.169834 138.187114 
L 151.455245 148.045314 
L 151.526598 147.697751 
L 151.669303 144.183502 
L 151.812008 139.142644 
L 152.097419 150.685352 
L 152.311477 144.16617 
L 152.382829 144.193269 
L 152.454182 144.597875 
L 152.739593 150.91964 
L 152.810945 150.529254 
L 153.310414 140.215585 
L 153.453119 140.22919 
L 153.524472 139.992546 
L 153.667177 140.845525 
L 153.809882 142.138354 
L 154.237998 152.205475 
L 154.309351 152.108929 
L 154.380704 151.515731 
L 154.737467 137.861138 
L 155.165583 150.395364 
L 155.236935 150.277225 
L 155.308288 150.364023 
L 155.450993 151.256296 
L 155.665051 155.486018 
L 156.235872 147.557625 
L 156.521283 150.545814 
L 156.592636 150.695114 
L 156.735341 148.811698 
L 156.806694 149.391647 
L 157.092104 155.016956 
L 157.306162 156.799231 
L 157.734278 147.783637 
L 157.805631 148.522514 
L 157.948336 151.295449 
L 158.019689 151.711279 
L 158.091041 151.66095 
L 158.162394 151.243303 
L 158.233746 149.568048 
L 158.447804 155.461984 
L 158.947273 148.363787 
L 159.018626 148.853513 
L 159.161331 151.924976 
L 159.232684 149.569145 
L 159.304036 150.245698 
L 159.446741 152.249657 
L 159.589447 150.923921 
L 159.660799 149.515748 
L 159.732152 150.405995 
L 159.94621 157.763629 
L 160.017563 158.189718 
L 160.160268 157.471402 
L 160.588384 145.325187 
L 160.659736 144.180152 
L 160.731089 144.359261 
L 160.802442 145.231512 
L 160.945147 144.325838 
L 161.0165 144.427022 
L 161.230558 150.748969 
L 161.444616 161.263596 
L 161.515968 160.318212 
L 161.730026 149.7239 
L 161.944084 138.663932 
L 162.015437 138.108545 
L 162.086789 139.09316 
L 162.158142 138.174121 
L 162.229495 138.279062 
L 162.300847 138.374792 
L 162.443553 142.450549 
L 162.514905 142.448082 
L 162.586258 142.139645 
L 162.728963 146.262954 
L 162.800316 145.123711 
L 162.871669 145.668056 
L 163.085726 148.604832 
L 163.157079 148.198052 
L 163.513842 137.18342 
L 163.585195 136.456814 
L 163.799253 145.1861 
L 164.084664 139.947712 
L 164.156016 140.940338 
L 164.441427 149.102555 
L 164.512779 148.204482 
L 164.584132 148.30592 
L 164.655485 148.82221 
L 164.726837 148.411233 
L 164.940895 140.267178 
L 165.083601 134.177714 
L 165.154953 134.410353 
L 165.440364 146.781088 
L 165.511717 145.858612 
L 165.583069 145.954871 
L 165.939832 139.907052 
L 166.011185 140.239151 
L 166.225243 145.652753 
L 166.296596 146.019754 
L 166.439301 148.014803 
L 166.724712 144.324406 
L 166.796064 145.245092 
L 166.867417 147.975705 
L 166.938769 146.448292 
L 167.010122 147.137366 
L 167.152827 150.281701 
L 167.366885 146.411159 
L 167.438238 144.607182 
L 167.652296 148.620215 
L 167.866354 148.129171 
L 167.937707 147.8222 
L 168.080412 145.9423 
L 168.365822 151.219351 
L 168.508528 147.964169 
L 168.57988 148.026895 
L 168.865291 143.50014 
L 169.079349 148.078837 
L 169.507465 146.687469 
L 169.721523 148.986999 
L 169.792875 149.356571 
L 169.935581 146.605588 
L 170.006933 147.370749 
L 170.078286 147.089682 
L 170.220991 144.392779 
L 170.363697 141.499594 
L 170.506402 146.716973 
L 170.72046 152.482609 
L 170.791812 152.420636 
L 171.077223 147.051803 
L 171.291281 148.991298 
L 171.648044 144.473746 
L 171.933455 146.413504 
L 172.004807 146.36224 
L 172.07616 146.821254 
L 172.361571 152.591 
L 172.646981 143.753684 
L 172.718334 144.649333 
L 172.932392 147.20911 
L 173.14645 141.91778 
L 173.217802 138.894683 
L 173.289155 138.956011 
L 173.360508 139.216525 
L 173.859976 158.736524 
L 173.931329 157.712813 
L 174.288092 144.721855 
L 174.430797 143.717364 
L 174.50215 144.145049 
L 174.716208 139.478714 
L 174.858913 143.130705 
L 175.072971 148.554102 
L 175.144324 148.819051 
L 175.287029 148.536832 
L 175.358382 149.018311 
L 175.57244 153.85964 
L 175.643792 153.023145 
L 175.85785 146.977572 
L 175.929203 147.318071 
L 176.071908 145.505728 
L 176.571377 147.357475 
L 176.642729 148.188603 
L 176.92814 142.719256 
L 177.142198 148.615779 
L 177.284903 152.231694 
L 177.427609 149.66417 
L 177.570314 146.024686 
L 177.641667 146.322817 
L 177.713019 146.426758 
L 177.784372 146.790518 
L 177.99843 145.144024 
L 178.069782 145.674297 
L 178.141135 147.163966 
L 178.212488 146.283241 
L 178.28384 146.760085 
L 178.426546 145.968156 
L 178.497898 146.218003 
L 178.711956 141.212 
L 178.854662 142.66665 
L 179.068719 140.188367 
L 179.140072 141.988817 
L 179.425483 137.903422 
L 179.568188 140.983161 
L 179.639541 140.629026 
L 179.710893 141.651311 
L 179.782246 140.062086 
L 179.996304 142.650692 
L 180.139009 141.964094 
L 180.210362 141.979119 
L 180.281715 142.494965 
L 180.495772 138.514075 
L 180.567125 138.95803 
L 180.638478 139.463501 
L 180.70983 143.039744 
L 180.781183 141.266651 
L 181.066594 145.724185 
L 181.137946 145.093067 
L 181.49471 138.054339 
L 181.566062 138.018543 
L 181.637415 138.976564 
L 181.851473 142.914351 
L 181.994178 142.282607 
L 182.065531 142.685239 
L 182.350941 140.485124 
L 182.422294 141.026548 
L 182.564999 142.967219 
L 182.636352 143.124185 
L 182.707705 142.967854 
L 182.85041 141.639685 
L 182.993115 138.195407 
L 183.278526 148.022265 
L 183.349878 146.694561 
L 183.706642 136.588697 
L 183.9207 144.75726 
L 183.992052 143.405572 
L 184.20611 140.9558 
L 184.420168 142.477151 
L 184.776931 140.018097 
L 185.062342 142.54408 
L 185.133695 138.502832 
L 185.205047 139.194474 
L 185.2764 139.419095 
L 185.56181 153.501226 
L 185.918574 138.687306 
L 186.203984 152.646679 
L 186.560747 133.939706 
L 186.703453 138.177419 
L 186.917511 146.057067 
L 187.060216 146.560101 
L 187.274274 143.677882 
L 187.416979 145.293521 
L 187.488332 145.363375 
L 187.631037 144.223194 
L 187.70239 144.45405 
L 187.9878 146.916661 
L 188.059153 146.963037 
L 188.201858 145.301509 
L 188.273211 142.013808 
L 188.344564 142.202243 
L 188.415916 142.721045 
L 188.701327 149.145483 
L 188.77268 149.868644 
L 188.844032 148.956363 
L 189.05809 138.656656 
L 189.129443 139.422157 
L 189.200795 140.372152 
L 189.272148 139.545038 
L 189.414853 141.059031 
L 189.700264 146.390673 
L 189.842969 147.199674 
L 190.057027 142.055566 
L 190.12838 143.353812 
L 190.199732 143.202879 
L 190.41379 152.693924 
L 190.556496 146.295499 
L 190.841906 133.673377 
L 190.984612 131.357484 
L 191.19867 135.732568 
L 191.626785 162.757108 
L 191.698138 160.818098 
L 191.769491 156.578468 
L 191.983549 165.617965 
L 192.054901 163.793984 
L 192.197607 149.278313 
L 192.483017 116.767599 
L 192.55437 118.304192 
L 192.911133 144.68618 
L 193.125191 148.937371 
L 193.196544 148.859214 
L 193.267896 146.165563 
L 193.339249 147.400193 
L 193.481954 145.763384 
L 193.696012 143.866253 
L 193.767365 144.118173 
L 194.052775 146.404626 
L 194.195481 145.996669 
L 194.266833 145.759961 
L 194.480891 138.032801 
L 194.623597 142.126531 
L 194.909007 153.772077 
L 195.194418 139.834658 
L 195.479828 147.578103 
L 195.551181 147.697452 
L 195.622534 147.403715 
L 195.765239 143.432359 
L 195.836592 143.813872 
L 195.907944 147.606772 
L 195.979297 147.136078 
L 196.193355 145.191687 
L 196.407413 144.497923 
L 196.478765 144.324458 
L 196.621471 143.160651 
L 196.764176 145.394177 
L 196.978234 148.029463 
L 197.120939 146.300217 
L 197.334997 143.510589 
L 197.40635 144.129739 
L 197.620408 147.590968 
L 197.69176 147.668724 
L 198.333934 143.697801 
L 198.405287 143.51121 
L 198.690698 147.149372 
L 198.76205 147.138426 
L 199.118813 144.084601 
L 199.190166 144.543546 
L 199.332871 146.313805 
L 199.546929 145.617659 
L 199.618282 144.853447 
L 199.689635 147.672876 
L 199.760987 147.31228 
L 199.903693 142.14542 
L 199.975045 142.323403 
L 200.046398 142.85693 
L 200.11775 142.519443 
L 200.331808 151.125434 
L 200.403161 150.103119 
L 200.617219 134.019687 
L 200.688572 135.67049 
L 201.045335 152.896479 
L 201.116688 150.714832 
L 201.330745 143.820756 
L 201.402098 143.912784 
L 201.544803 143.63665 
L 201.758861 145.308169 
L 201.901567 143.64334 
L 202.115625 146.512572 
L 202.25833 145.09172 
L 202.329683 143.360417 
L 202.401035 143.616943 
L 202.54374 143.643006 
L 202.615093 143.017192 
L 202.757798 146.267073 
L 202.829151 146.200384 
L 203.043209 142.427332 
L 203.114562 142.409318 
L 203.542678 145.97052 
L 203.61403 144.599401 
L 203.685383 144.926874 
L 203.828088 144.848814 
L 203.970793 146.260574 
L 204.042146 143.597705 
L 204.113499 143.932378 
L 204.327557 149.703053 
L 204.612967 143.657248 
L 204.755673 141.088805 
L 204.827025 141.367582 
L 204.96973 146.657588 
L 205.041083 144.524054 
L 205.112436 143.220665 
L 205.326494 145.710633 
L 205.397846 144.384494 
L 205.469199 144.569337 
L 205.75461 146.181755 
L 205.897315 145.044841 
L 206.182725 141.609813 
L 206.539489 152.399814 
L 206.610841 151.863956 
L 206.967605 141.134251 
L 207.038957 142.003345 
L 207.11031 143.742817 
L 207.181663 143.435061 
L 207.253015 143.824578 
L 207.324368 142.314204 
L 207.538426 143.93827 
L 207.895189 145.924592 
L 207.966542 144.640646 
L 208.037894 144.89023 
L 208.323305 146.538952 
L 208.46601 145.677459 
L 208.608716 146.738939 
L 208.894126 136.961483 
L 208.965479 137.232697 
L 209.393595 154.446766 
L 209.893063 137.921385 
L 209.964416 137.358889 
L 210.035768 138.964867 
L 210.249826 150.312399 
L 210.463884 139.978966 
L 210.535237 139.116559 
L 210.677942 141.927204 
L 210.892 152.965281 
L 210.963353 151.602367 
L 211.177411 144.126983 
L 211.391469 140.567628 
L 211.605527 144.247598 
L 211.819585 133.374767 
L 211.890937 133.432704 
L 212.104995 146.173018 
L 212.247701 154.980475 
L 212.319053 154.813515 
L 212.533111 148.734144 
L 212.604464 150.066313 
L 212.675816 149.694006 
L 212.747169 148.302529 
L 212.818522 148.802024 
L 212.961227 152.510217 
L 213.31799 131.436595 
L 213.460696 133.483737 
L 213.603401 141.052464 
L 213.674753 145.51291 
L 214.102869 128.925861 
L 214.38828 137.867314 
L 214.459633 136.330457 
L 214.602338 124.691128 
L 214.745043 130.851252 
L 215.030454 151.932182 
L 215.173159 148.158366 
L 215.315864 143.059978 
L 215.387217 143.935709 
L 215.529922 147.830939 
L 215.672628 147.510146 
L 215.74398 148.870202 
L 215.815333 148.657777 
L 215.886686 148.050626 
L 216.100743 140.793174 
L 216.243449 143.339272 
L 216.528859 151.35993 
L 216.81427 141.556974 
L 217.028328 144.023229 
L 217.099681 144.608601 
L 217.385091 152.833539 
L 217.670502 142.771848 
L 217.741854 143.720016 
L 218.027265 150.223233 
L 218.098618 148.388184 
L 218.384028 140.472922 
L 218.526733 143.993539 
L 218.598086 143.958306 
L 218.669439 142.898815 
L 218.740791 143.186618 
L 218.812144 144.247466 
L 218.954849 140.385457 
L 219.026202 142.133334 
L 219.097555 144.143358 
L 219.168907 143.949466 
L 219.24026 145.022854 
L 219.525671 160.456515 
L 219.597023 159.552061 
L 219.953786 139.123268 
L 220.025139 139.95683 
L 220.239197 151.159594 
L 220.453255 157.716194 
L 220.524608 157.643637 
L 220.667313 150.716025 
L 221.095429 131.241236 
L 221.166781 129.463951 
L 221.238134 135.272434 
L 221.309487 134.962857 
L 221.380839 134.21665 
L 221.594897 146.017415 
L 221.737603 133.854911 
L 222.023013 189.450259 
L 222.094366 184.209457 
L 222.451129 94.561202 
L 222.522482 100.689953 
L 222.73654 139.432185 
L 222.807892 142.729864 
L 222.879245 142.064917 
L 222.950598 141.059655 
L 223.02195 142.711388 
L 223.093303 142.362634 
L 223.307361 140.620484 
L 223.378714 140.589264 
L 223.521419 148.581606 
L 223.592771 148.614128 
L 223.806829 133.154971 
L 223.878182 121.251083 
L 224.020887 148.398443 
L 224.234945 185.193958 
L 224.377651 156.839858 
L 224.663061 104.98384 
L 224.877119 132.800301 
L 225.091177 143.135255 
L 225.233882 145.009874 
L 225.44794 140.51988 
L 225.590646 152.011134 
L 225.661998 150.603177 
L 226.090114 118.20725 
L 226.232819 152.864777 
L 226.375525 192.042392 
L 226.446877 187.562072 
L 226.660935 119.652991 
L 226.803641 75.34018 
L 226.874993 84.811351 
L 227.160404 161.449563 
L 227.374462 143.417604 
L 227.517167 134.257392 
L 227.659872 149.253986 
L 227.731225 142.697 
L 227.802578 143.974108 
L 227.87393 145.200182 
L 228.087988 140.824495 
L 228.230694 125.417077 
L 228.587457 183.99383 
L 228.730162 143.864568 
L 228.94422 77.110441 
L 229.015573 84.699361 
L 229.300983 161.205341 
L 229.372336 162.592365 
L 229.657746 136.988435 
L 229.800452 145.64774 
L 229.871804 144.901924 
L 229.943157 149.30478 
L 230.228568 133.153985 
L 230.29992 135.397685 
L 230.442626 130.559975 
L 230.728036 189.214655 
L 230.799389 181.458273 
L 231.156152 79.523221 
L 231.227505 85.085457 
L 231.512915 161.849187 
L 231.584268 160.48317 
L 231.869679 147.181446 
L 231.941031 153.264762 
L 232.012384 150.502341 
L 232.083736 150.677228 
L 232.155089 154.111143 
L 232.583205 108.078533 
L 232.797263 153.225176 
L 232.939968 171.178077 
L 233.082674 132.237064 
L 233.296731 67.480556 
L 233.368084 79.216277 
L 233.653495 174.021135 
L 233.724847 174.50724 
L 234.010258 136.750411 
L 234.152963 145.884363 
L 234.224316 144.826211 
L 234.367021 146.700347 
L 234.723784 130.528342 
L 234.795137 122.083814 
L 235.009195 172.112859 
L 235.080548 186.308098 
L 235.1519 183.309842 
L 235.508664 54.579984 
L 235.580016 65.146271 
L 235.865427 157.871838 
L 236.008132 149.252261 
L 236.22219 135.884196 
L 236.364895 150.975068 
L 236.436248 149.734863 
L 236.507601 152.873899 
L 236.935717 123.436966 
L 237.29248 201.356645 
L 237.435185 155.738165 
L 237.649243 68.873846 
L 237.720596 73.345036 
L 238.006006 162.73689 
L 238.077359 167.285103 
L 238.362769 139.103746 
L 238.505475 151.116264 
L 238.576827 147.975122 
L 238.64818 150.261895 
L 238.933591 135.863825 
L 239.147649 141.825359 
L 239.433059 190.927487 
L 239.647117 133.559498 
L 239.861175 80.895276 
L 240.00388 121.234318 
L 240.217938 164.639576 
L 240.431996 156.300102 
L 240.574702 134.929317 
L 240.717407 149.115558 
L 240.788759 148.740973 
L 240.860112 154.810614 
L 241.288228 130.060979 
L 241.644991 196.623532 
L 241.859049 122.154508 
L 242.001754 65.664854 
L 242.073107 74.347166 
L 242.358518 161.767383 
L 242.42987 165.949765 
L 242.715281 137.912473 
L 242.929339 147.736953 
L 243.214749 154.957231 
L 243.428807 143.337119 
L 243.50016 133.977643 
L 243.785571 189.488714 
L 243.856923 188.067611 
L 244.070981 107.214728 
L 244.213687 63.045616 
L 244.285039 72.898743 
L 244.57045 179.943376 
L 244.641802 180.492503 
L 244.85586 146.622885 
L 244.927213 135.543454 
L 244.998566 138.962079 
L 245.069918 139.956438 
L 245.141271 139.793348 
L 245.212624 146.126833 
L 245.283976 145.904536 
L 245.355329 144.00394 
L 245.640739 114.693796 
L 245.997503 198.108334 
L 246.068855 179.876894 
L 246.354266 63.743631 
L 246.425619 71.587305 
L 246.711029 169.987631 
L 246.782382 175.747674 
L 247.067792 138.126155 
L 247.139145 140.782789 
L 247.210498 145.510591 
L 247.28185 145.282278 
L 247.353203 146.188167 
L 247.424556 145.726673 
L 247.495908 146.313288 
L 247.567261 148.233174 
L 247.638614 146.670169 
L 247.709966 148.288825 
L 247.852672 132.585067 
L 248.209435 190.62105 
L 248.35214 145.018557 
L 248.566198 56.308311 
L 248.637551 68.265921 
L 248.922961 171.556372 
L 248.994314 168.747926 
L 249.279724 131.030645 
L 249.42243 144.522731 
L 249.493782 143.279932 
L 249.565135 143.500714 
L 249.636488 142.775381 
L 249.70784 143.45829 
L 249.779193 142.092164 
L 249.850546 143.909373 
L 249.993251 124.655604 
L 250.350014 195.761191 
L 250.421367 180.573294 
L 250.706777 60.123481 
L 250.77813 66.611305 
L 251.063541 172.43055 
L 251.134893 179.758107 
L 251.420304 138.772865 
L 251.491657 141.597325 
L 251.705715 148.015422 
L 251.919772 146.311294 
L 252.13383 135.297384 
L 252.205183 125.951053 
L 252.561946 192.805127 
L 252.776004 103.772216 
L 252.91871 56.861409 
L 252.990062 69.164648 
L 253.275473 176.911527 
L 253.346825 174.388847 
L 253.632236 139.533028 
L 253.774941 147.774246 
L 253.917647 146.687918 
L 254.131705 144.127927 
L 254.203057 143.919157 
L 254.27441 144.099453 
L 254.417115 142.714905 
L 254.55982 144.039405 
L 254.702526 151.616565 
L 254.773878 150.797117 
L 254.845231 149.556711 
L 255.059289 118.12814 
L 255.130642 120.739059 
L 255.487405 167.69454 
L 255.772815 137.776576 
L 255.844168 143.025081 
L 255.915521 145.30317 
L 256.129579 143.228434 
L 256.272284 143.423781 
L 256.7004 151.42718 
L 256.771752 153.681544 
L 256.843105 153.022312 
L 256.98581 142.848837 
L 257.128516 124.44547 
L 257.271221 111.034691 
L 257.413926 134.550721 
L 257.627984 167.637601 
L 257.699337 166.341965 
L 257.984747 137.617984 
L 258.0561 142.496788 
L 258.127453 145.196819 
L 258.198805 144.300931 
L 258.270158 144.117796 
L 258.341511 143.03741 
L 258.412863 143.358733 
L 258.626921 146.691403 
L 258.698274 146.583281 
L 258.769627 144.099151 
L 258.840979 144.659175 
L 258.983685 143.202155 
L 259.12639 141.951686 
L 259.340448 143.167307 
L 259.4118 143.380104 
L 259.625858 146.236649 
L 259.697211 145.948364 
L 259.839916 142.035076 
L 259.911269 141.992849 
L 260.268032 146.107686 
L 260.339385 144.560192 
L 260.410737 144.697822 
L 260.553443 148.348051 
L 260.624795 148.049059 
L 260.767501 146.52171 
L 261.052911 142.554654 
L 261.195617 144.439314 
L 261.266969 147.980842 
L 261.481027 142.127706 
L 261.980496 154.693202 
L 262.051848 154.103834 
L 262.408612 139.689789 
L 262.479964 139.391895 
L 262.62267 142.243445 
L 262.765375 145.744859 
L 262.979433 143.968595 
L 263.122138 145.305333 
L 263.193491 145.128752 
L 263.336196 143.086862 
L 263.621607 149.199286 
L 263.692959 148.556751 
L 263.97837 142.400146 
L 264.049722 142.582467 
L 264.26378 146.845593 
L 264.406486 144.852971 
L 264.477838 145.449804 
L 264.620544 144.830304 
L 264.691896 145.00942 
L 264.763249 144.277945 
L 264.977307 149.148106 
L 265.33407 139.810295 
L 265.405423 140.197217 
L 265.690833 147.054241 
L 265.762186 145.700394 
L 265.904891 144.825534 
L 265.976244 145.06265 
L 266.047597 144.609751 
L 266.118949 144.761064 
L 266.261655 144.481304 
L 266.475713 148.045214 
L 266.618418 145.197937 
L 266.832476 142.116404 
L 266.975181 143.938028 
L 267.117886 147.20534 
L 267.189239 146.333965 
L 267.331944 142.861341 
L 267.617355 145.571135 
L 267.688708 145.54025 
L 267.902765 150.72837 
L 268.116823 144.092698 
L 268.330881 139.193641 
L 268.473587 142.425491 
L 268.616292 147.128457 
L 268.83035 144.143353 
L 268.973055 145.213873 
L 269.044408 144.330475 
L 269.258466 150.69054 
L 269.329818 149.017354 
L 269.615229 139.137018 
L 269.686582 139.57878 
L 269.829287 144.357173 
L 269.971992 147.818405 
L 270.18605 142.62882 
L 270.400108 145.481437 
L 270.471461 145.951204 
L 270.542813 145.718618 
L 270.614166 144.360372 
L 270.756871 147.059183 
L 270.828224 149.978671 
L 270.899577 149.551992 
L 271.25634 138.229637 
L 271.327693 139.218458 
L 271.54175 148.236078 
L 271.755808 141.247113 
L 272.183924 148.356206 
L 272.255277 147.469388 
L 272.397982 145.026339 
L 272.469335 146.03927 
L 272.540688 145.618321 
L 272.754745 144.09921 
L 272.826098 143.930501 
L 272.897451 144.56081 
L 272.968803 144.455969 
L 273.040156 144.332292 
L 273.254214 142.631384 
L 273.468272 145.30227 
L 273.68233 149.070741 
L 273.753683 149.250551 
L 273.825035 149.007309 
L 274.039093 149.736509 
L 274.181798 149.4927 
L 274.895325 144.843078 
L 274.966678 144.479348 
L 275.03803 144.537558 
L 275.180735 145.083843 
L 275.323441 149.136194 
L 275.394793 149.059556 
L 275.466146 148.180785 
L 275.608851 139.497988 
L 275.965615 117.288934 
L 276.10832 127.784215 
L 276.536436 170.616334 
L 276.679141 158.254359 
L 276.750494 160.88212 
L 276.821846 163.799375 
L 276.893199 162.195692 
L 277.321315 131.371229 
L 277.392668 132.016674 
L 277.606725 143.897268 
L 277.678078 141.625492 
L 277.749431 141.72964 
L 277.892136 146.362472 
L 278.320252 143.36742 
L 278.462957 147.205834 
L 278.677015 146.069437 
L 278.748368 146.10228 
L 278.81972 146.40665 
L 278.962426 147.246619 
L 279.033778 147.513617 
L 279.105131 147.414621 
L 279.176484 147.421191 
L 279.319189 142.115179 
L 279.390542 143.446576 
L 279.747305 147.523316 
L 280.032716 143.304539 
L 280.104068 143.668278 
L 280.318126 146.041287 
L 280.674889 143.139542 
L 280.817595 145.58721 
L 280.888947 147.491002 
L 281.174358 138.34276 
L 281.317063 141.497394 
L 281.602474 151.39775 
L 281.816532 143.918001 
L 281.887884 144.030688 
L 282.173295 142.214982 
L 282.387353 147.71498 
L 282.672763 141.422426 
L 283.029527 151.538441 
L 283.100879 151.154291 
L 283.314937 143.800772 
L 283.528995 145.117588 
L 283.743053 147.783853 
L 283.814406 149.876117 
L 283.885758 148.673635 
L 284.171169 135.840143 
L 284.242522 136.558386 
L 284.385227 143.973032 
L 284.527932 151.539821 
L 284.599285 151.198992 
L 284.884696 143.731527 
L 285.241459 149.39054 
L 285.526869 138.61303 
L 285.598222 138.884522 
L 285.954985 150.55535 
L 286.026338 150.156985 
L 286.240396 144.328447 
L 286.311748 143.596201 
L 286.383101 143.681941 
L 286.454454 144.221301 
L 286.525806 143.465736 
L 286.739864 149.660625 
L 286.953922 140.932752 
L 287.025275 138.170272 
L 287.096628 138.962559 
L 287.453391 151.261812 
L 287.667449 140.367948 
L 287.810154 143.129901 
L 288.166917 155.276975 
L 288.452328 146.445471 
L 288.595033 149.34526 
L 288.809091 152.73206 
L 289.237207 142.291319 
L 289.451265 147.598596 
L 289.59397 146.525281 
L 289.950733 140.851727 
L 290.164791 145.765167 
L 290.236144 143.990958 
L 290.307497 143.397788 
L 290.450202 143.789731 
L 290.521555 145.687333 
L 290.592907 145.327804 
L 290.806965 142.389274 
L 290.878318 142.938392 
L 291.235081 149.470196 
L 291.377786 145.39405 
L 291.449139 141.940105 
L 291.520492 142.664844 
L 291.663197 145.464756 
L 291.73455 147.043285 
L 291.948608 141.410625 
L 292.01996 141.782265 
L 292.162666 143.644186 
L 292.376723 148.606439 
L 292.519429 146.51718 
L 292.662134 143.746566 
L 292.804839 145.222035 
L 292.876192 144.020336 
L 292.947545 144.318534 
L 293.018897 145.539941 
L 293.304308 138.65479 
L 293.375661 139.930864 
L 293.447013 139.581481 
L 293.589719 141.500521 
L 293.732424 144.934469 
L 293.803776 144.850329 
L 293.875129 143.439649 
L 293.946482 143.582912 
L 294.16054 147.605496 
L 294.303245 148.835449 
L 294.374598 150.828005 
L 294.44595 150.363648 
L 294.588656 149.217424 
L 294.945419 154.481883 
L 295.230829 148.880344 
L 295.444887 152.588146 
L 295.587593 148.744534 
L 295.801651 143.105302 
L 295.873003 144.752067 
L 296.087061 153.46767 
L 296.158414 154.338042 
L 296.800588 136.856011 
L 296.87194 137.175316 
L 297.228704 151.636947 
L 297.371409 147.13331 
L 297.514114 141.650892 
L 297.799525 147.541309 
L 297.870877 146.958531 
L 298.084935 143.228459 
L 298.156288 142.810234 
L 298.370346 137.784013 
L 298.513051 143.264711 
L 298.798462 154.2327 
L 298.869814 153.859483 
L 299.155225 140.677757 
L 299.226578 138.185228 
L 299.29793 138.332314 
L 299.511988 135.675242 
L 299.797399 119.070725 
L 300.154162 163.215323 
L 300.36822 129.675114 
L 300.510925 116.371447 
L 300.582278 115.552094 
L 300.796336 120.586451 
L 301.153099 153.297789 
L 301.224452 152.52564 
L 301.43851 143.006214 
L 301.581215 146.205923 
L 301.652568 146.586189 
L 301.795273 151.743444 
L 301.866626 151.297947 
L 302.223389 143.350688 
L 302.294741 142.737658 
L 302.366094 143.291705 
L 302.580152 150.274766 
L 302.722857 143.610892 
L 302.79421 143.899493 
L 302.865563 144.874801 
L 303.008268 151.146359 
L 303.079621 150.350767 
L 303.365031 140.804712 
L 303.436384 141.564171 
L 303.650442 151.063563 
L 303.721794 150.195675 
L 303.935852 142.046035 
L 304.078558 143.436575 
L 304.14991 144.268219 
L 304.363968 151.332838 
L 304.435321 151.065364 
L 304.578026 146.724707 
L 304.792084 139.880997 
L 304.863437 140.39372 
L 305.077495 144.864546 
L 305.148847 143.812883 
L 305.2202 143.865925 
L 305.362905 145.120358 
L 305.434258 147.252611 
L 305.505611 146.776109 
L 305.719669 141.953766 
L 305.791021 142.346573 
L 306.076432 150.980861 
L 306.147784 150.878891 
L 306.433195 139.868667 
L 306.5759 141.420935 
L 306.932664 150.352344 
L 307.004016 149.816136 
L 307.289427 143.030626 
L 307.360779 143.028786 
L 307.432132 142.878898 
L 307.64619 145.793562 
L 307.717543 145.753937 
L 308.002953 142.400255 
L 308.145659 141.763442 
L 308.217011 141.799476 
L 308.359717 142.372834 
L 308.645127 146.802471 
L 308.71648 146.367317 
L 308.787832 145.991634 
L 308.859185 146.467124 
L 309.215948 144.291405 
L 309.430006 150.766358 
L 309.501359 150.662456 
L 309.715417 144.59593 
L 309.858122 141.988388 
L 310.000827 145.36027 
L 310.143533 148.675294 
L 310.357591 144.921926 
L 310.428943 144.923919 
L 310.500296 147.03968 
L 310.571649 146.608162 
L 310.714354 144.935464 
L 310.857059 142.593666 
L 310.999764 145.663438 
L 311.213822 151.556959 
L 311.285175 151.03688 
L 311.641938 140.062929 
L 311.927349 148.516231 
L 312.284112 137.328324 
L 312.355465 138.701819 
L 312.569523 146.625325 
L 312.712228 144.312471 
L 312.997639 147.447117 
L 313.211697 138.988163 
L 313.283049 136.765995 
L 313.354402 137.065611 
L 313.497107 142.363312 
L 313.711165 149.999479 
L 313.782518 149.665368 
L 313.925223 144.353922 
L 313.996576 144.538179 
L 314.139281 145.002299 
L 314.353339 151.698561 
L 314.496044 148.316973 
L 314.781455 140.738381 
L 315.066865 146.89053 
L 315.138218 144.909537 
L 315.209571 144.903914 
L 315.352276 146.010248 
L 315.423629 147.722346 
L 315.566334 144.094447 
L 315.709039 140.447044 
L 315.780392 140.863385 
L 316.065802 149.908018 
L 316.137155 149.682521 
L 316.351213 143.174456 
L 316.422566 143.86073 
L 316.636624 146.093642 
L 316.850682 147.895519 
L 316.922034 148.071285 
L 316.993387 147.915905 
L 317.35015 142.404303 
L 317.564208 143.880401 
L 317.706913 145.571193 
L 317.778266 145.055047 
L 317.849619 146.044676 
L 317.920971 145.611617 
L 318.206382 142.983665 
L 318.277734 143.05555 
L 318.349087 142.535742 
L 318.42044 142.681543 
L 318.634498 147.481305 
L 318.848556 155.355508 
L 318.919908 154.587918 
L 319.205319 139.894978 
L 319.276672 141.336666 
L 319.490729 144.836631 
L 319.562082 144.116046 
L 319.847493 135.955249 
L 319.918845 136.175933 
L 320.346961 151.631517 
L 320.418314 151.393574 
L 320.489667 150.890286 
L 320.989135 130.160066 
L 321.060488 129.881234 
L 321.13184 130.987312 
L 321.488604 151.571128 
L 321.702662 170.195177 
L 321.774014 170.028582 
L 321.845367 166.806052 
L 322.20213 108.265358 
L 322.273483 108.320493 
L 322.701599 142.193589 
L 322.772951 143.501481 
L 322.844304 143.274867 
L 322.915657 143.14471 
L 322.987009 143.641351 
L 323.058362 141.252175 
L 323.201067 143.737103 
L 323.55783 146.033615 
L 323.700536 148.145646 
L 323.771888 147.247515 
L 323.985946 140.892984 
L 324.057299 139.305089 
L 324.128652 140.058524 
L 324.414062 144.943761 
L 324.485415 143.572272 
L 324.556767 145.52335 
L 324.62812 144.898362 
L 324.770825 143.412997 
L 324.842178 143.3735 
L 325.127589 151.482919 
L 325.198941 151.033935 
L 325.412999 142.69055 
L 325.627057 133.175845 
L 325.69841 134.025463 
L 326.126526 146.497474 
L 326.340584 138.485728 
L 326.411936 140.301664 
L 326.697347 159.378802 
L 326.7687 158.2483 
L 326.911405 150.002259 
L 327.125463 140.36716 
L 327.196815 140.279283 
L 327.339521 141.759616 
L 327.410873 141.212983 
L 327.624931 142.514524 
L 327.696284 144.179549 
L 327.767637 143.894203 
L 327.838989 143.467479 
L 327.981695 139.744355 
L 328.338458 151.071088 
L 328.40981 150.791881 
L 328.552516 146.640543 
L 328.695221 143.297952 
L 328.766574 142.678522 
L 328.837926 143.660324 
L 328.909279 143.104807 
L 328.980632 141.51254 
L 329.051984 141.797983 
L 329.19469 142.474969 
L 329.337395 149.348169 
L 329.408747 149.197987 
L 329.551453 144.216814 
L 329.622805 144.444975 
L 329.836863 148.191003 
L 329.979569 149.356408 
L 330.050921 148.9965 
L 330.264979 141.182057 
L 330.479037 147.945798 
L 330.764448 141.94756 
L 330.8358 142.382522 
L 331.049858 147.423335 
L 331.192564 150.403189 
L 331.335269 148.083241 
L 331.406622 146.33711 
L 331.477974 146.639278 
L 331.62068 144.562731 
L 331.90609 149.386917 
L 332.120148 141.884999 
L 332.262853 138.751444 
L 332.334206 138.813413 
L 332.548264 143.074534 
L 332.619617 141.450785 
L 332.690969 142.187399 
L 332.97638 149.240908 
L 333.119085 144.27304 
L 333.333143 136.68096 
L 333.618554 148.255967 
L 333.761259 153.196842 
L 334.118022 143.644701 
L 334.403433 148.147515 
L 334.474785 150.801336 
L 334.546138 149.978403 
L 334.760196 142.671285 
L 334.831549 142.075784 
L 334.974254 143.793326 
L 335.188312 147.426544 
L 335.259665 147.082929 
L 335.331017 144.274405 
L 335.40237 145.422566 
L 335.473722 144.793849 
L 335.68778 140.958896 
L 335.759133 140.458524 
L 335.973191 149.960906 
L 336.044544 149.900803 
L 336.187249 145.311115 
L 336.329954 139.010697 
L 336.544012 145.568826 
L 336.686718 150.880525 
L 336.829423 147.154235 
L 336.900775 147.513449 
L 337.043481 145.236884 
L 337.257539 140.067915 
L 337.542949 148.110614 
L 337.614302 147.625937 
L 337.899713 142.636929 
L 338.042418 145.436289 
L 338.185123 147.074542 
L 338.327828 144.734714 
L 338.613239 149.340588 
L 338.684592 146.252792 
L 338.755944 147.012275 
L 338.89865 151.621315 
L 339.041355 148.699235 
L 339.255413 132.675146 
L 339.326765 133.267455 
L 339.612176 153.437389 
L 339.683529 151.286223 
L 339.897587 147.609711 
L 339.968939 148.33176 
L 340.111645 151.257341 
L 340.182997 147.995169 
L 340.25435 148.866174 
L 340.468408 156.685359 
L 340.611113 150.336049 
L 340.896524 131.857473 
L 341.039229 139.710041 
L 341.253287 149.228567 
L 341.32464 149.722662 
L 341.395992 148.664593 
L 341.467345 149.258215 
L 341.538698 148.501188 
L 341.61005 148.980249 
L 341.681403 150.89783 
L 341.752755 150.100619 
L 342.038166 139.931572 
L 342.109519 140.253938 
L 342.323577 151.978051 
L 342.466282 158.354631 
L 342.608987 150.133314 
L 342.823045 135.686617 
L 343.108456 154.638705 
L 343.393866 129.034283 
L 343.465219 130.331991 
L 343.75063 144.156484 
L 343.964688 127.946323 
L 344.250098 141.757835 
L 344.321451 143.117173 
L 344.392803 142.272415 
L 344.678214 128.450061 
L 344.749567 130.722026 
L 345.177683 160.002361 
L 345.39174 156.548119 
L 345.605798 148.355542 
L 345.748504 146.117797 
L 345.891209 147.773267 
L 346.033914 144.045266 
L 346.247972 133.392524 
L 346.319325 133.895358 
L 346.676088 161.005491 
L 346.890146 156.135216 
L 347.104204 150.604351 
L 347.603673 133.440199 
L 347.746378 138.411109 
L 348.031788 154.330366 
L 348.103141 154.295902 
L 348.245846 149.709367 
L 348.317199 154.144048 
L 348.388552 153.822085 
L 348.459904 153.973521 
L 348.60261 154.898052 
L 348.88802 146.001897 
L 349.173431 132.76739 
L 349.316136 146.997589 
L 349.530194 159.224117 
L 349.601547 158.206723 
L 349.886957 146.981924 
L 350.101015 156.82457 
L 350.600484 133.304722 
L 350.885894 146.636318 
L 351.0286 152.587442 
L 351.099952 152.606716 
L 351.242658 149.307699 
L 351.385363 144.056749 
L 351.456716 144.408638 
L 351.599421 146.038407 
L 351.813479 152.257317 
L 351.956184 147.122571 
L 352.170242 136.732189 
L 352.527005 144.16226 
L 352.598358 143.482978 
L 352.669711 143.829623 
L 352.883768 155.923245 
L 352.955121 155.647613 
L 353.240532 133.675128 
L 353.311884 134.491259 
L 353.597295 154.396144 
L 353.668648 152.291651 
L 353.954058 141.096148 
L 354.096763 143.018178 
L 354.382174 158.911836 
L 354.453527 157.394344 
L 354.81029 139.810229 
L 354.952995 143.664229 
L 355.095701 147.277622 
L 355.167053 148.231471 
L 355.309758 146.744128 
L 355.381111 149.135068 
L 355.452464 148.545872 
L 355.666522 144.713276 
L 355.737874 145.113168 
L 356.023285 150.140486 
L 356.094638 149.975358 
L 356.308696 145.375245 
L 356.380048 145.703907 
L 356.522753 145.822279 
L 356.879517 149.037698 
L 356.950869 148.860894 
L 357.23628 143.316296 
L 357.307633 144.279084 
L 357.521691 140.028566 
L 357.878454 148.569442 
L 357.949806 147.999563 
L 358.021159 147.586992 
L 358.235217 141.304917 
L 358.520628 149.270541 
L 358.59198 149.249652 
L 358.734686 149.517875 
L 358.877391 143.274497 
L 358.948743 141.081064 
L 359.020096 141.758565 
L 359.234154 149.087761 
L 359.376859 154.306209 
L 359.448212 153.082633 
L 359.66227 142.101409 
L 359.733623 142.309927 
L 359.804975 142.472418 
L 359.876328 142.027674 
L 360.090386 147.187278 
L 360.161738 145.801991 
L 360.233091 146.971576 
L 360.589854 142.026685 
L 360.73256 144.53595 
L 360.946618 150.651457 
L 361.01797 150.10462 
L 361.160676 146.13005 
L 361.232028 146.635377 
L 361.374733 143.935175 
L 361.517439 146.337506 
L 361.588791 145.939499 
L 361.731497 149.587922 
L 361.874202 146.09537 
L 362.016907 145.432875 
L 362.373671 136.586569 
L 362.445023 136.167064 
L 362.587728 132.178194 
L 362.659081 133.122889 
L 362.730434 134.80017 
L 362.873139 127.919796 
L 362.944492 128.713335 
L 363.015844 129.225566 
L 363.301255 137.202396 
L 363.658018 151.026631 
L 363.729371 152.1825 
L 364.086134 143.079779 
L 364.300192 151.237037 
L 364.442897 148.698926 
L 364.656955 142.391397 
L 364.728308 143.659583 
L 364.871013 141.344879 
L 364.942366 141.967241 
L 365.013719 142.808379 
L 365.085071 141.345414 
L 365.227776 144.012668 
L 365.370482 149.284182 
L 365.441834 148.686761 
L 365.655892 139.488332 
L 366.012656 149.627483 
L 366.084008 149.377132 
L 366.440771 142.503426 
L 366.512124 140.875904 
L 366.654829 145.010676 
L 366.94024 153.092524 
L 367.082945 148.292444 
L 367.225651 141.750491 
L 367.582414 145.616037 
L 367.653766 146.577997 
L 367.725119 145.618417 
L 367.796472 147.077199 
L 367.867824 146.621697 
L 367.939177 146.172534 
L 368.153235 137.692528 
L 368.224588 137.909345 
L 368.581351 152.899542 
L 368.652704 152.612235 
L 368.795409 146.525862 
L 368.938114 140.029182 
L 369.080819 141.832658 
L 369.152172 143.121439 
L 369.36623 154.929028 
L 369.437583 154.470028 
L 369.722993 140.757218 
L 369.794346 141.003827 
L 370.079756 147.974507 
L 370.151109 146.092226 
L 370.365167 144.99617 
L 370.43652 147.024088 
L 370.507872 145.956143 
L 370.72193 141.066699 
L 370.864636 144.610365 
L 371.150046 152.249519 
L 371.578162 142.588692 
L 371.863573 150.039034 
L 372.220336 138.724707 
L 372.291689 139.625908 
L 372.505746 147.662076 
L 372.577099 146.439894 
L 372.648452 145.634873 
L 372.719804 146.082657 
L 372.791157 145.618848 
L 372.933862 147.747967 
L 373.219273 139.119651 
L 373.576036 145.084513 
L 373.790094 143.056866 
L 373.861447 144.227174 
L 374.004152 149.763163 
L 374.075505 149.177934 
L 374.360915 151.541063 
L 374.503621 148.132519 
L 374.717679 140.193646 
L 374.789031 140.280332 
L 375.003089 148.587507 
L 375.2885 139.819293 
L 375.716616 150.895027 
L 375.930674 138.601753 
L 376.002026 138.719115 
L 376.144731 143.37132 
L 376.430142 159.758751 
L 376.858258 141.733624 
L 377.000963 149.913608 
L 377.215021 160.05605 
L 377.357726 152.62628 
L 377.643137 130.989634 
L 377.71449 133.576175 
L 377.785842 132.922134 
L 377.857195 132.810681 
L 377.928548 132.066271 
L 377.9999 133.646618 
L 378.285311 148.33024 
L 378.499369 127.998136 
L 378.570721 128.747028 
L 378.713427 146.954418 
L 378.927485 168.853484 
L 379.07019 154.071341 
L 379.212895 138.568379 
L 379.426953 148.99985 
L 379.498306 148.679647 
L 379.712364 144.523597 
L 379.783717 144.500744 
L 379.997774 138.743432 
L 380.14048 128.528383 
L 380.211832 128.984364 
L 380.497243 160.07139 
L 380.568596 158.015809 
L 380.854006 140.646162 
L 381.068064 151.109218 
L 381.139417 150.547868 
L 381.353475 144.812975 
L 381.424827 146.206932 
L 381.49618 145.488734 
L 381.710238 135.406805 
L 381.781591 137.36769 
L 382.067001 155.761767 
L 382.209707 148.878343 
L 382.352412 139.57446 
L 382.423764 140.397543 
L 382.56647 146.21347 
L 382.709175 147.94109 
L 382.780528 147.143088 
L 382.923233 149.965804 
L 383.351349 132.68669 
L 383.422702 134.68801 
L 383.708112 155.295738 
L 383.92217 147.35374 
L 384.136228 127.231498 
L 384.207581 128.51638 
L 384.421639 117.391073 
L 384.564344 127.905364 
L 384.921107 166.343271 
L 384.99246 167.28692 
L 385.420576 140.837204 
L 385.634634 123.848414 
L 385.991397 149.361274 
L 386.062749 148.541739 
L 386.205455 143.149252 
L 386.276807 143.433484 
L 386.419513 146.919768 
L 386.490865 146.682246 
L 386.633571 145.430248 
L 386.704923 142.779777 
L 386.776276 143.481183 
L 386.990334 146.104489 
L 387.061687 145.79642 
L 387.204392 142.626825 
L 387.275744 143.086623 
L 387.632508 150.124765 
L 387.70386 149.025662 
L 387.775213 149.78047 
L 388.131976 140.87824 
L 388.203329 141.155525 
L 388.560092 150.008371 
L 388.631445 149.769732 
L 388.77415 149.165308 
L 389.059561 143.190585 
L 389.130913 141.497999 
L 389.416324 150.302346 
L 389.487677 150.489083 
L 389.630382 145.174796 
L 389.84444 137.523867 
L 389.987145 140.402656 
L 390.272556 148.902431 
L 390.343908 148.770916 
L 390.415261 149.879607 
L 390.700672 144.43264 
L 390.843377 146.677131 
L 391.057435 150.134478 
L 391.128787 149.641221 
L 391.342845 144.903381 
L 391.414198 145.399172 
L 391.556903 143.389753 
L 391.699609 158.480903 
L 391.770961 153.191593 
L 391.985019 128.496101 
L 392.056372 129.035063 
L 392.199077 139.40018 
L 392.413135 160.277876 
L 392.484488 155.069835 
L 392.627193 135.943031 
L 392.769898 148.298235 
L 393.126662 137.591102 
L 393.198014 137.857107 
L 393.340719 144.082916 
L 393.554777 153.70484 
L 393.62613 152.466268 
L 393.768835 146.950892 
L 393.840188 146.999864 
L 394.054246 136.044253 
L 394.125599 137.70955 
L 394.339657 156.104017 
L 394.411009 155.594674 
L 394.69642 127.49268 
L 394.767772 129.587567 
L 394.98183 165.980276 
L 395.195888 146.743686 
L 395.267241 147.524729 
L 395.552652 166.191058 
L 395.624004 168.836523 
L 395.838062 151.304978 
L 395.909415 157.63689 
L 395.980767 156.504373 
L 396.266178 130.263224 
L 396.551589 142.192357 
L 396.694294 149.709562 
L 396.836999 149.03721 
L 396.908352 148.911492 
L 397.193762 144.71124 
L 397.265115 144.920961 
L 397.336468 146.017508 
L 397.40782 145.954878 
L 397.550526 142.888258 
L 397.764584 151.508412 
L 397.835936 150.503059 
L 397.978642 144.671334 
L 398.049994 145.376603 
L 398.121347 150.430669 
L 398.335405 130.410527 
L 398.406757 131.994204 
L 398.834873 160.367018 
L 399.048931 139.050005 
L 399.120284 144.298536 
L 399.334342 151.86606 
L 399.405695 151.849389 
L 399.5484 148.261035 
L 399.762458 142.137523 
L 399.83381 141.901094 
L 400.047868 147.824805 
L 400.190574 146.782598 
L 400.261926 146.309952 
L 400.333279 146.439304 
L 400.547337 145.76402 
L 400.61869 145.919656 
L 400.761395 145.232277 
L 400.832747 145.260874 
L 401.046805 146.851212 
L 401.118158 145.576597 
L 401.189511 145.747799 
L 401.332216 156.010806 
L 401.403569 150.148713 
L 401.546274 128.65856 
L 401.617627 130.226734 
L 401.97439 159.363931 
L 402.045742 156.618165 
L 402.2598 132.015451 
L 402.473858 151.538771 
L 402.687916 145.846871 
L 402.973327 147.253053 
L 403.04468 146.949243 
L 403.116032 147.394581 
L 403.33009 145.336058 
L 403.472795 145.998407 
L 403.758206 147.494054 
L 403.972264 144.895197 
L 404.043617 143.208507 
L 404.329027 151.868995 
L 404.40038 151.451524 
L 404.543085 148.992601 
L 404.614438 148.906939 
L 404.68579 148.977972 
L 404.757143 150.121506 
L 405.113906 139.001734 
L 405.185259 140.044009 
L 405.399317 151.888732 
L 405.47067 149.598243 
L 405.542022 147.97912 
L 405.970138 122.983887 
L 406.041491 123.366109 
L 406.398254 129.284459 
L 406.469607 127.968031 
L 406.755017 135.013394 
L 406.969075 130.617864 
L 407.11178 137.873214 
L 407.325838 146.394886 
L 407.397191 145.797445 
L 407.611249 136.448628 
L 407.682602 137.218374 
L 407.968012 151.255342 
L 408.110718 148.205054 
L 408.324775 140.816366 
L 408.396128 141.172102 
L 408.467481 142.164728 
L 408.752891 149.532189 
L 408.824244 149.240316 
L 409.038302 145.735441 
L 409.181007 145.289989 
L 409.25236 145.414047 
L 409.323713 145.358867 
L 409.53777 149.342347 
L 409.609123 147.635243 
L 409.751828 151.092443 
L 409.894534 145.52382 
L 410.037239 140.790872 
L 410.108592 140.906478 
L 410.465355 148.978091 
L 410.536708 148.750215 
L 410.679413 146.415278 
L 410.822118 148.730954 
L 410.893471 148.947608 
L 411.036176 147.365833 
L 411.250234 151.888733 
L 411.392939 146.333389 
L 411.606997 137.314854 
L 411.67835 136.862339 
L 412.035113 149.300554 
L 412.106466 149.276389 
L 412.320524 146.933397 
L 412.534582 140.89164 
L 412.819992 149.935146 
L 412.891345 148.645405 
L 413.176755 143.788418 
L 413.390813 145.998676 
L 413.462166 145.719521 
L 413.604871 142.742138 
L 413.890282 146.996483 
L 413.961635 147.299121 
L 414.175693 149.180955 
L 414.532456 139.136722 
L 414.889219 145.371411 
L 414.960572 143.904932 
L 415.031924 143.922812 
L 415.17463 148.285398 
L 415.245982 147.64939 
L 415.388688 138.167546 
L 415.531393 140.840785 
L 415.745451 152.54247 
L 415.888156 149.776964 
L 416.316272 131.928076 
L 416.387625 132.490096 
L 416.673035 141.743701 
L 417.029798 125.409015 
L 417.101151 125.53867 
L 417.172504 125.509024 
L 417.243856 125.674554 
L 417.315209 126.176023 
L 417.529267 119.885039 
L 417.60062 119.930593 
L 417.814678 130.569169 
L 418.028735 140.230204 
L 418.171441 135.91488 
L 418.385499 122.365258 
L 418.528204 128.89479 
L 418.813615 159.218615 
L 418.884967 158.041631 
L 419.24173 135.234971 
L 419.384436 142.141284 
L 419.598494 151.449358 
L 419.741199 148.903349 
L 419.955257 145.053568 
L 420.240668 148.693655 
L 420.526078 147.62004 
L 420.597431 149.291993 
L 420.740136 145.47772 
L 420.954194 151.349591 
L 421.025547 151.008929 
L 421.310957 143.790387 
L 421.38231 144.216187 
L 421.525015 149.442857 
L 421.596368 154.142126 
L 421.66772 152.904921 
L 421.739073 151.705883 
L 421.810426 152.26945 
L 422.024484 149.085686 
L 422.309894 135.274277 
L 422.381247 137.264161 
L 422.73801 158.975561 
L 422.809363 160.133949 
L 422.880716 158.358523 
L 423.166126 168.390766 
L 423.237479 168.278481 
L 423.522889 162.782166 
L 423.594242 162.952439 
L 423.736947 165.932556 
L 423.8083 165.910978 
L 423.879653 164.673701 
L 423.951005 166.635768 
L 424.022358 166.419812 
L 424.450474 138.431551 
L 424.593179 128.980734 
L 424.87859 144.316794 
L 424.949942 144.166218 
L 425.164 129.014733 
L 425.306706 122.097773 
L 425.378058 126.156116 
L 425.592116 120.183634 
L 425.663469 120.943857 
L 426.162937 144.925051 
L 426.23429 144.507564 
L 426.305643 144.928017 
L 426.448348 147.915103 
L 426.591053 145.285063 
L 426.662406 147.11015 
L 426.805111 140.255588 
L 426.947816 142.039736 
L 427.019169 140.961432 
L 427.161874 146.637256 
L 427.375932 155.008215 
L 427.58999 138.65411 
L 427.875401 152.255 
L 427.946753 152.975127 
L 428.303517 143.622367 
L 428.374869 144.178331 
L 428.517575 141.330591 
L 428.588927 142.746123 
L 428.874338 154.599161 
L 429.088396 142.342053 
L 429.159748 142.518317 
L 429.231101 143.291437 
L 429.373806 146.843463 
L 429.659217 143.605633 
L 429.73057 141.359668 
L 430.301391 153.362692 
L 430.515449 140.640666 
L 430.586801 142.004572 
L 430.800859 148.402071 
L 430.872212 150.139824 
L 430.943565 149.408676 
L 431.157623 147.884709 
L 431.443033 137.576045 
L 431.514386 138.175586 
L 431.657091 142.882386 
L 431.799796 120.920443 
L 432.013854 138.122042 
L 432.227912 164.603688 
L 432.299265 164.244195 
L 432.513323 155.124258 
L 432.656028 159.694551 
L 432.798733 155.02752 
L 432.941439 161.427694 
L 433.155497 153.00625 
L 433.440907 127.077962 
L 433.583613 138.250556 
L 433.726318 149.941652 
L 433.869023 146.507912 
L 434.083081 136.16896 
L 434.297139 147.816332 
L 434.368492 146.159798 
L 434.439844 146.050192 
L 434.58255 148.025621 
L 434.725255 147.851892 
L 435.010666 134.703861 
L 435.082018 138.724037 
L 435.367429 157.864379 
L 435.438781 158.636532 
L 435.652839 149.221716 
L 435.724192 149.355803 
L 435.93825 153.779202 
L 436.080955 150.938556 
L 436.295013 154.622732 
L 436.366366 156.219943 
L 436.723129 143.102887 
L 437.00854 150.275355 
L 437.222598 131.786882 
L 437.29395 133.626227 
L 437.365303 134.52573 
L 437.436656 132.907527 
L 437.650714 139.831273 
L 437.864771 136.360192 
L 437.936124 136.088871 
L 438.36424 147.081277 
L 438.435593 146.518052 
L 438.506945 142.798327 
L 438.578298 143.252934 
L 438.792356 148.390528 
L 438.863709 147.754719 
L 439.077766 141.24477 
L 439.149119 141.362862 
L 439.363177 145.333757 
L 439.43453 144.948472 
L 439.505882 146.636637 
L 439.577235 145.5639 
L 439.791293 135.403471 
L 439.862646 136.716719 
L 439.933998 132.051677 
L 440.005351 133.219231 
L 440.219409 147.986654 
L 440.433467 133.86902 
L 440.504819 134.042272 
L 440.576172 141.146523 
L 440.79023 188.257594 
L 441.075641 143.218893 
L 441.289699 173.118822 
L 441.575109 89.490363 
L 441.717814 197.489007 
L 441.86052 39.928821 
L 442.071457 332.128016 
M 442.076846 332.128016 
L 442.152256 -1 
M 442.539797 -1 
L 442.542981 332.128016 
M 442.783234 332.128016 
L 442.784751 -1 
M 443.203182 -1 
L 443.204835 332.128016 
M 443.41158 332.128016 
L 443.412966 -1 
M 444.243118 -1 
L 444.243187 332.128016 
M 444.579459 332.128016 
L 444.579465 -1 
L 444.579465 -1 
" clip-path="url(#p0073ac46e8)" style="fill: none; stroke: #1f77b4; stroke-width: 1.5; stroke-linecap: square"/>
   </g>
   <g id="patch_3">
    <path d="M 104.255469 279.010828 
L 104.255469 12.898828 
" style="fill: none; stroke: #000000; stroke-width: 0.8; stroke-linejoin: miter; stroke-linecap: square"/>
   </g>
   <g id="patch_4">
    <path d="M 461.375469 279.010828 
L 461.375469 12.898828 
" style="fill: none; stroke: #000000; stroke-width: 0.8; stroke-linejoin: miter; stroke-linecap: square"/>
   </g>
   <g id="patch_5">
    <path d="M 104.255469 279.010828 
L 461.375469 279.010828 
" style="fill: none; stroke: #000000; stroke-width: 0.8; stroke-linejoin: miter; stroke-linecap: square"/>
   </g>
   <g id="patch_6">
    <path d="M 104.255469 12.898828 
L 461.375469 12.898828 
" style="fill: none; stroke: #000000; stroke-width: 0.8; stroke-linejoin: miter; stroke-linecap: square"/>
   </g>
  </g>
 </g>
 <defs>
  <clipPath id="p0073ac46e8">
   <rect x="104.255469" y="12.898828" width="357.12" height="266.112"/>
  </clipPath>
 </defs>
</svg>
