<?xml version="1.0" encoding="utf-8" standalone="no"?>
<!DOCTYPE svg PUBLIC "-//W3C//DTD SVG 1.1//EN"
  "http://www.w3.org/Graphics/SVG/1.1/DTD/svg11.dtd">
<svg xmlns:xlink="http://www.w3.org/1999/xlink" width="425.433281pt" height="325.429187pt" viewBox="0 0 425.433281 325.429187" xmlns="http://www.w3.org/2000/svg" version="1.1">
 <defs>
  <style type="text/css">*{stroke-linejoin: round; stroke-linecap: butt}</style>
 </defs>
 <g id="figure_1">
  <g id="patch_1">
   <path d="M 0 325.429187 
L 425.433281 325.429187 
L 425.433281 0 
L 0 0 
L 0 325.429187 
z
" style="fill: none"/>
  </g>
  <g id="axes_1">
   <g id="patch_2">
    <path d="M 61.113281 273.312 
L 418.233281 273.312 
L 418.233281 7.2 
L 61.113281 7.2 
L 61.113281 273.312 
z
" style="fill: none"/>
   </g>
   <g id="matplotlib.axis_1">
    <g id="xtick_1">
     <g id="line2d_1">
      <path d="M 93.043591 273.312 
L 93.043591 7.2 
" clip-path="url(#pc029fbf4bd)" style="fill: none; stroke: #b0b0b0; stroke-width: 0.8; stroke-linecap: square"/>
     </g>
     <g id="line2d_2">
      <defs>
       <path id="md39032bed2" d="M 0 0 
L 0 3.5 
" style="stroke: #000000; stroke-width: 0.8"/>
      </defs>
      <g>
       <use xlink:href="#md39032bed2" x="93.043591" y="273.312" style="stroke: #000000; stroke-width: 0.8"/>
      </g>
     </g>
     <g id="text_1">
      <!-- −3000 -->
      <g transform="translate(67.671325 291.709656)scale(0.15 -0.15)">
       <defs>
        <path id="DejaVuSans-2212" d="M 678 2272 
L 4684 2272 
L 4684 1741 
L 678 1741 
L 678 2272 
z
" transform="scale(0.015625)"/>
        <path id="DejaVuSans-33" d="M 2597 2516 
Q 3050 2419 3304 2112 
Q 3559 1806 3559 1356 
Q 3559 666 3084 287 
Q 2609 -91 1734 -91 
Q 1441 -91 1130 -33 
Q 819 25 488 141 
L 488 750 
Q 750 597 1062 519 
Q 1375 441 1716 441 
Q 2309 441 2620 675 
Q 2931 909 2931 1356 
Q 2931 1769 2642 2001 
Q 2353 2234 1838 2234 
L 1294 2234 
L 1294 2753 
L 1863 2753 
Q 2328 2753 2575 2939 
Q 2822 3125 2822 3475 
Q 2822 3834 2567 4026 
Q 2313 4219 1838 4219 
Q 1578 4219 1281 4162 
Q 984 4106 628 3988 
L 628 4550 
Q 988 4650 1302 4700 
Q 1616 4750 1894 4750 
Q 2613 4750 3031 4423 
Q 3450 4097 3450 3541 
Q 3450 3153 3228 2886 
Q 3006 2619 2597 2516 
z
" transform="scale(0.015625)"/>
        <path id="DejaVuSans-30" d="M 2034 4250 
Q 1547 4250 1301 3770 
Q 1056 3291 1056 2328 
Q 1056 1369 1301 889 
Q 1547 409 2034 409 
Q 2525 409 2770 889 
Q 3016 1369 3016 2328 
Q 3016 3291 2770 3770 
Q 2525 4250 2034 4250 
z
M 2034 4750 
Q 2819 4750 3233 4129 
Q 3647 3509 3647 2328 
Q 3647 1150 3233 529 
Q 2819 -91 2034 -91 
Q 1250 -91 836 529 
Q 422 1150 422 2328 
Q 422 3509 836 4129 
Q 1250 4750 2034 4750 
z
" transform="scale(0.015625)"/>
       </defs>
       <use xlink:href="#DejaVuSans-2212"/>
       <use xlink:href="#DejaVuSans-33" x="83.789062"/>
       <use xlink:href="#DejaVuSans-30" x="147.412109"/>
       <use xlink:href="#DejaVuSans-30" x="211.035156"/>
       <use xlink:href="#DejaVuSans-30" x="274.658203"/>
      </g>
     </g>
    </g>
    <g id="xtick_2">
     <g id="line2d_3">
      <path d="M 164.396238 273.312 
L 164.396238 7.2 
" clip-path="url(#pc029fbf4bd)" style="fill: none; stroke: #b0b0b0; stroke-width: 0.8; stroke-linecap: square"/>
     </g>
     <g id="line2d_4">
      <g>
       <use xlink:href="#md39032bed2" x="164.396238" y="273.312" style="stroke: #000000; stroke-width: 0.8"/>
      </g>
     </g>
     <g id="text_2">
      <!-- −2000 -->
      <g transform="translate(139.023973 291.709656)scale(0.15 -0.15)">
       <defs>
        <path id="DejaVuSans-32" d="M 1228 531 
L 3431 531 
L 3431 0 
L 469 0 
L 469 531 
Q 828 903 1448 1529 
Q 2069 2156 2228 2338 
Q 2531 2678 2651 2914 
Q 2772 3150 2772 3378 
Q 2772 3750 2511 3984 
Q 2250 4219 1831 4219 
Q 1534 4219 1204 4116 
Q 875 4013 500 3803 
L 500 4441 
Q 881 4594 1212 4672 
Q 1544 4750 1819 4750 
Q 2544 4750 2975 4387 
Q 3406 4025 3406 3419 
Q 3406 3131 3298 2873 
Q 3191 2616 2906 2266 
Q 2828 2175 2409 1742 
Q 1991 1309 1228 531 
z
" transform="scale(0.015625)"/>
       </defs>
       <use xlink:href="#DejaVuSans-2212"/>
       <use xlink:href="#DejaVuSans-32" x="83.789062"/>
       <use xlink:href="#DejaVuSans-30" x="147.412109"/>
       <use xlink:href="#DejaVuSans-30" x="211.035156"/>
       <use xlink:href="#DejaVuSans-30" x="274.658203"/>
      </g>
     </g>
    </g>
    <g id="xtick_3">
     <g id="line2d_5">
      <path d="M 235.748886 273.312 
L 235.748886 7.2 
" clip-path="url(#pc029fbf4bd)" style="fill: none; stroke: #b0b0b0; stroke-width: 0.8; stroke-linecap: square"/>
     </g>
     <g id="line2d_6">
      <g>
       <use xlink:href="#md39032bed2" x="235.748886" y="273.312" style="stroke: #000000; stroke-width: 0.8"/>
      </g>
     </g>
     <g id="text_3">
      <!-- −1000 -->
      <g transform="translate(210.37662 291.709656)scale(0.15 -0.15)">
       <defs>
        <path id="DejaVuSans-31" d="M 794 531 
L 1825 531 
L 1825 4091 
L 703 3866 
L 703 4441 
L 1819 4666 
L 2450 4666 
L 2450 531 
L 3481 531 
L 3481 0 
L 794 0 
L 794 531 
z
" transform="scale(0.015625)"/>
       </defs>
       <use xlink:href="#DejaVuSans-2212"/>
       <use xlink:href="#DejaVuSans-31" x="83.789062"/>
       <use xlink:href="#DejaVuSans-30" x="147.412109"/>
       <use xlink:href="#DejaVuSans-30" x="211.035156"/>
       <use xlink:href="#DejaVuSans-30" x="274.658203"/>
      </g>
     </g>
    </g>
    <g id="xtick_4">
     <g id="line2d_7">
      <path d="M 307.101533 273.312 
L 307.101533 7.2 
" clip-path="url(#pc029fbf4bd)" style="fill: none; stroke: #b0b0b0; stroke-width: 0.8; stroke-linecap: square"/>
     </g>
     <g id="line2d_8">
      <g>
       <use xlink:href="#md39032bed2" x="307.101533" y="273.312" style="stroke: #000000; stroke-width: 0.8"/>
      </g>
     </g>
     <g id="text_4">
      <!-- 0 -->
      <g transform="translate(302.329658 291.709656)scale(0.15 -0.15)">
       <use xlink:href="#DejaVuSans-30"/>
      </g>
     </g>
    </g>
    <g id="xtick_5">
     <g id="line2d_9">
      <path d="M 378.45418 273.312 
L 378.45418 7.2 
" clip-path="url(#pc029fbf4bd)" style="fill: none; stroke: #b0b0b0; stroke-width: 0.8; stroke-linecap: square"/>
     </g>
     <g id="line2d_10">
      <g>
       <use xlink:href="#md39032bed2" x="378.45418" y="273.312" style="stroke: #000000; stroke-width: 0.8"/>
      </g>
     </g>
     <g id="text_5">
      <!-- 1000 -->
      <g transform="translate(359.36668 291.709656)scale(0.15 -0.15)">
       <use xlink:href="#DejaVuSans-31"/>
       <use xlink:href="#DejaVuSans-30" x="63.623047"/>
       <use xlink:href="#DejaVuSans-30" x="127.246094"/>
       <use xlink:href="#DejaVuSans-30" x="190.869141"/>
      </g>
     </g>
    </g>
    <g id="text_6">
     <!-- X ($\mu m$) -->
     <g transform="translate(205.673281 314.029187)scale(0.2 -0.2)">
      <defs>
       <path id="DejaVuSans-58" d="M 403 4666 
L 1081 4666 
L 2241 2931 
L 3406 4666 
L 4084 4666 
L 2584 2425 
L 4184 0 
L 3506 0 
L 2194 1984 
L 872 0 
L 191 0 
L 1856 2491 
L 403 4666 
z
" transform="scale(0.015625)"/>
       <path id="DejaVuSans-20" transform="scale(0.015625)"/>
       <path id="DejaVuSans-28" d="M 1984 4856 
Q 1566 4138 1362 3434 
Q 1159 2731 1159 2009 
Q 1159 1288 1364 580 
Q 1569 -128 1984 -844 
L 1484 -844 
Q 1016 -109 783 600 
Q 550 1309 550 2009 
Q 550 2706 781 3412 
Q 1013 4119 1484 4856 
L 1984 4856 
z
" transform="scale(0.015625)"/>
       <path id="DejaVuSans-Oblique-3bc" d="M -84 -1331 
L 856 3500 
L 1434 3500 
L 1009 1322 
Q 997 1256 987 1175 
Q 978 1094 978 1013 
Q 978 722 1161 565 
Q 1344 409 1684 409 
Q 2147 409 2431 671 
Q 2716 934 2816 1459 
L 3213 3500 
L 3788 3500 
L 3266 809 
Q 3253 750 3248 706 
Q 3244 663 3244 628 
Q 3244 531 3283 486 
Q 3322 441 3406 441 
Q 3438 441 3492 456 
Q 3547 472 3647 513 
L 3559 50 
Q 3422 -19 3297 -55 
Q 3172 -91 3053 -91 
Q 2847 -91 2730 40 
Q 2613 172 2613 403 
Q 2438 153 2195 31 
Q 1953 -91 1625 -91 
Q 1334 -91 1117 43 
Q 900 178 831 397 
L 494 -1331 
L -84 -1331 
z
" transform="scale(0.015625)"/>
       <path id="DejaVuSans-Oblique-6d" d="M 5747 2113 
L 5338 0 
L 4763 0 
L 5166 2094 
Q 5191 2228 5203 2325 
Q 5216 2422 5216 2491 
Q 5216 2772 5059 2928 
Q 4903 3084 4622 3084 
Q 4203 3084 3875 2770 
Q 3547 2456 3450 1953 
L 3066 0 
L 2491 0 
L 2900 2094 
Q 2925 2209 2937 2307 
Q 2950 2406 2950 2484 
Q 2950 2769 2794 2926 
Q 2638 3084 2363 3084 
Q 1938 3084 1609 2770 
Q 1281 2456 1184 1953 
L 800 0 
L 225 0 
L 909 3500 
L 1484 3500 
L 1375 2956 
Q 1609 3263 1923 3423 
Q 2238 3584 2597 3584 
Q 2978 3584 3223 3384 
Q 3469 3184 3519 2828 
Q 3781 3197 4126 3390 
Q 4472 3584 4856 3584 
Q 5306 3584 5551 3325 
Q 5797 3066 5797 2591 
Q 5797 2488 5784 2364 
Q 5772 2241 5747 2113 
z
" transform="scale(0.015625)"/>
       <path id="DejaVuSans-29" d="M 513 4856 
L 1013 4856 
Q 1481 4119 1714 3412 
Q 1947 2706 1947 2009 
Q 1947 1309 1714 600 
Q 1481 -109 1013 -844 
L 513 -844 
Q 928 -128 1133 580 
Q 1338 1288 1338 2009 
Q 1338 2731 1133 3434 
Q 928 4138 513 4856 
z
" transform="scale(0.015625)"/>
      </defs>
      <use xlink:href="#DejaVuSans-58" transform="translate(0 0.125)"/>
      <use xlink:href="#DejaVuSans-20" transform="translate(68.505859 0.125)"/>
      <use xlink:href="#DejaVuSans-28" transform="translate(100.292969 0.125)"/>
      <use xlink:href="#DejaVuSans-Oblique-3bc" transform="translate(139.306641 0.125)"/>
      <use xlink:href="#DejaVuSans-Oblique-6d" transform="translate(202.929688 0.125)"/>
      <use xlink:href="#DejaVuSans-29" transform="translate(300.341797 0.125)"/>
     </g>
    </g>
   </g>
   <g id="matplotlib.axis_2">
    <g id="ytick_1">
     <g id="line2d_11">
      <path d="M 61.113281 254.304 
L 418.233281 254.304 
" clip-path="url(#pc029fbf4bd)" style="fill: none; stroke: #b0b0b0; stroke-width: 0.8; stroke-linecap: square"/>
     </g>
     <g id="line2d_12">
      <defs>
       <path id="m6f3f5b6aff" d="M 0 0 
L -3.5 0 
" style="stroke: #000000; stroke-width: 0.8"/>
      </defs>
      <g>
       <use xlink:href="#m6f3f5b6aff" x="61.113281" y="254.304" style="stroke: #000000; stroke-width: 0.8"/>
      </g>
     </g>
     <g id="text_7">
      <!-- −6 -->
      <g transform="translate(32 260.002828)scale(0.15 -0.15)">
       <defs>
        <path id="DejaVuSans-36" d="M 2113 2584 
Q 1688 2584 1439 2293 
Q 1191 2003 1191 1497 
Q 1191 994 1439 701 
Q 1688 409 2113 409 
Q 2538 409 2786 701 
Q 3034 994 3034 1497 
Q 3034 2003 2786 2293 
Q 2538 2584 2113 2584 
z
M 3366 4563 
L 3366 3988 
Q 3128 4100 2886 4159 
Q 2644 4219 2406 4219 
Q 1781 4219 1451 3797 
Q 1122 3375 1075 2522 
Q 1259 2794 1537 2939 
Q 1816 3084 2150 3084 
Q 2853 3084 3261 2657 
Q 3669 2231 3669 1497 
Q 3669 778 3244 343 
Q 2819 -91 2113 -91 
Q 1303 -91 875 529 
Q 447 1150 447 2328 
Q 447 3434 972 4092 
Q 1497 4750 2381 4750 
Q 2619 4750 2861 4703 
Q 3103 4656 3366 4563 
z
" transform="scale(0.015625)"/>
       </defs>
       <use xlink:href="#DejaVuSans-2212"/>
       <use xlink:href="#DejaVuSans-36" x="83.789062"/>
      </g>
     </g>
    </g>
    <g id="ytick_2">
     <g id="line2d_13">
      <path d="M 61.113281 216.288 
L 418.233281 216.288 
" clip-path="url(#pc029fbf4bd)" style="fill: none; stroke: #b0b0b0; stroke-width: 0.8; stroke-linecap: square"/>
     </g>
     <g id="line2d_14">
      <g>
       <use xlink:href="#m6f3f5b6aff" x="61.113281" y="216.288" style="stroke: #000000; stroke-width: 0.8"/>
      </g>
     </g>
     <g id="text_8">
      <!-- −4 -->
      <g transform="translate(32 221.986828)scale(0.15 -0.15)">
       <defs>
        <path id="DejaVuSans-34" d="M 2419 4116 
L 825 1625 
L 2419 1625 
L 2419 4116 
z
M 2253 4666 
L 3047 4666 
L 3047 1625 
L 3713 1625 
L 3713 1100 
L 3047 1100 
L 3047 0 
L 2419 0 
L 2419 1100 
L 313 1100 
L 313 1709 
L 2253 4666 
z
" transform="scale(0.015625)"/>
       </defs>
       <use xlink:href="#DejaVuSans-2212"/>
       <use xlink:href="#DejaVuSans-34" x="83.789062"/>
      </g>
     </g>
    </g>
    <g id="ytick_3">
     <g id="line2d_15">
      <path d="M 61.113281 178.272 
L 418.233281 178.272 
" clip-path="url(#pc029fbf4bd)" style="fill: none; stroke: #b0b0b0; stroke-width: 0.8; stroke-linecap: square"/>
     </g>
     <g id="line2d_16">
      <g>
       <use xlink:href="#m6f3f5b6aff" x="61.113281" y="178.272" style="stroke: #000000; stroke-width: 0.8"/>
      </g>
     </g>
     <g id="text_9">
      <!-- −2 -->
      <g transform="translate(32 183.970828)scale(0.15 -0.15)">
       <use xlink:href="#DejaVuSans-2212"/>
       <use xlink:href="#DejaVuSans-32" x="83.789062"/>
      </g>
     </g>
    </g>
    <g id="ytick_4">
     <g id="line2d_17">
      <path d="M 61.113281 140.256 
L 418.233281 140.256 
" clip-path="url(#pc029fbf4bd)" style="fill: none; stroke: #b0b0b0; stroke-width: 0.8; stroke-linecap: square"/>
     </g>
     <g id="line2d_18">
      <g>
       <use xlink:href="#m6f3f5b6aff" x="61.113281" y="140.256" style="stroke: #000000; stroke-width: 0.8"/>
      </g>
     </g>
     <g id="text_10">
      <!-- 0 -->
      <g transform="translate(44.569531 145.954828)scale(0.15 -0.15)">
       <use xlink:href="#DejaVuSans-30"/>
      </g>
     </g>
    </g>
    <g id="ytick_5">
     <g id="line2d_19">
      <path d="M 61.113281 102.24 
L 418.233281 102.24 
" clip-path="url(#pc029fbf4bd)" style="fill: none; stroke: #b0b0b0; stroke-width: 0.8; stroke-linecap: square"/>
     </g>
     <g id="line2d_20">
      <g>
       <use xlink:href="#m6f3f5b6aff" x="61.113281" y="102.24" style="stroke: #000000; stroke-width: 0.8"/>
      </g>
     </g>
     <g id="text_11">
      <!-- 2 -->
      <g transform="translate(44.569531 107.938828)scale(0.15 -0.15)">
       <use xlink:href="#DejaVuSans-32"/>
      </g>
     </g>
    </g>
    <g id="ytick_6">
     <g id="line2d_21">
      <path d="M 61.113281 64.224 
L 418.233281 64.224 
" clip-path="url(#pc029fbf4bd)" style="fill: none; stroke: #b0b0b0; stroke-width: 0.8; stroke-linecap: square"/>
     </g>
     <g id="line2d_22">
      <g>
       <use xlink:href="#m6f3f5b6aff" x="61.113281" y="64.224" style="stroke: #000000; stroke-width: 0.8"/>
      </g>
     </g>
     <g id="text_12">
      <!-- 4 -->
      <g transform="translate(44.569531 69.922828)scale(0.15 -0.15)">
       <use xlink:href="#DejaVuSans-34"/>
      </g>
     </g>
    </g>
    <g id="ytick_7">
     <g id="line2d_23">
      <path d="M 61.113281 26.208 
L 418.233281 26.208 
" clip-path="url(#pc029fbf4bd)" style="fill: none; stroke: #b0b0b0; stroke-width: 0.8; stroke-linecap: square"/>
     </g>
     <g id="line2d_24">
      <g>
       <use xlink:href="#m6f3f5b6aff" x="61.113281" y="26.208" style="stroke: #000000; stroke-width: 0.8"/>
      </g>
     </g>
     <g id="text_13">
      <!-- 6 -->
      <g transform="translate(44.569531 31.906828)scale(0.15 -0.15)">
       <use xlink:href="#DejaVuSans-36"/>
      </g>
     </g>
    </g>
    <g id="text_14">
     <!-- Axial RF field ($m^{-1}$) -->
     <g transform="translate(23.840625 237.156)rotate(-90)scale(0.2 -0.2)">
      <defs>
       <path id="DejaVuSans-41" d="M 2188 4044 
L 1331 1722 
L 3047 1722 
L 2188 4044 
z
M 1831 4666 
L 2547 4666 
L 4325 0 
L 3669 0 
L 3244 1197 
L 1141 1197 
L 716 0 
L 50 0 
L 1831 4666 
z
" transform="scale(0.015625)"/>
       <path id="DejaVuSans-78" d="M 3513 3500 
L 2247 1797 
L 3578 0 
L 2900 0 
L 1881 1375 
L 863 0 
L 184 0 
L 1544 1831 
L 300 3500 
L 978 3500 
L 1906 2253 
L 2834 3500 
L 3513 3500 
z
" transform="scale(0.015625)"/>
       <path id="DejaVuSans-69" d="M 603 3500 
L 1178 3500 
L 1178 0 
L 603 0 
L 603 3500 
z
M 603 4863 
L 1178 4863 
L 1178 4134 
L 603 4134 
L 603 4863 
z
" transform="scale(0.015625)"/>
       <path id="DejaVuSans-61" d="M 2194 1759 
Q 1497 1759 1228 1600 
Q 959 1441 959 1056 
Q 959 750 1161 570 
Q 1363 391 1709 391 
Q 2188 391 2477 730 
Q 2766 1069 2766 1631 
L 2766 1759 
L 2194 1759 
z
M 3341 1997 
L 3341 0 
L 2766 0 
L 2766 531 
Q 2569 213 2275 61 
Q 1981 -91 1556 -91 
Q 1019 -91 701 211 
Q 384 513 384 1019 
Q 384 1609 779 1909 
Q 1175 2209 1959 2209 
L 2766 2209 
L 2766 2266 
Q 2766 2663 2505 2880 
Q 2244 3097 1772 3097 
Q 1472 3097 1187 3025 
Q 903 2953 641 2809 
L 641 3341 
Q 956 3463 1253 3523 
Q 1550 3584 1831 3584 
Q 2591 3584 2966 3190 
Q 3341 2797 3341 1997 
z
" transform="scale(0.015625)"/>
       <path id="DejaVuSans-6c" d="M 603 4863 
L 1178 4863 
L 1178 0 
L 603 0 
L 603 4863 
z
" transform="scale(0.015625)"/>
       <path id="DejaVuSans-52" d="M 2841 2188 
Q 3044 2119 3236 1894 
Q 3428 1669 3622 1275 
L 4263 0 
L 3584 0 
L 2988 1197 
Q 2756 1666 2539 1819 
Q 2322 1972 1947 1972 
L 1259 1972 
L 1259 0 
L 628 0 
L 628 4666 
L 2053 4666 
Q 2853 4666 3247 4331 
Q 3641 3997 3641 3322 
Q 3641 2881 3436 2590 
Q 3231 2300 2841 2188 
z
M 1259 4147 
L 1259 2491 
L 2053 2491 
Q 2509 2491 2742 2702 
Q 2975 2913 2975 3322 
Q 2975 3731 2742 3939 
Q 2509 4147 2053 4147 
L 1259 4147 
z
" transform="scale(0.015625)"/>
       <path id="DejaVuSans-46" d="M 628 4666 
L 3309 4666 
L 3309 4134 
L 1259 4134 
L 1259 2759 
L 3109 2759 
L 3109 2228 
L 1259 2228 
L 1259 0 
L 628 0 
L 628 4666 
z
" transform="scale(0.015625)"/>
       <path id="DejaVuSans-66" d="M 2375 4863 
L 2375 4384 
L 1825 4384 
Q 1516 4384 1395 4259 
Q 1275 4134 1275 3809 
L 1275 3500 
L 2222 3500 
L 2222 3053 
L 1275 3053 
L 1275 0 
L 697 0 
L 697 3053 
L 147 3053 
L 147 3500 
L 697 3500 
L 697 3744 
Q 697 4328 969 4595 
Q 1241 4863 1831 4863 
L 2375 4863 
z
" transform="scale(0.015625)"/>
       <path id="DejaVuSans-65" d="M 3597 1894 
L 3597 1613 
L 953 1613 
Q 991 1019 1311 708 
Q 1631 397 2203 397 
Q 2534 397 2845 478 
Q 3156 559 3463 722 
L 3463 178 
Q 3153 47 2828 -22 
Q 2503 -91 2169 -91 
Q 1331 -91 842 396 
Q 353 884 353 1716 
Q 353 2575 817 3079 
Q 1281 3584 2069 3584 
Q 2775 3584 3186 3129 
Q 3597 2675 3597 1894 
z
M 3022 2063 
Q 3016 2534 2758 2815 
Q 2500 3097 2075 3097 
Q 1594 3097 1305 2825 
Q 1016 2553 972 2059 
L 3022 2063 
z
" transform="scale(0.015625)"/>
       <path id="DejaVuSans-64" d="M 2906 2969 
L 2906 4863 
L 3481 4863 
L 3481 0 
L 2906 0 
L 2906 525 
Q 2725 213 2448 61 
Q 2172 -91 1784 -91 
Q 1150 -91 751 415 
Q 353 922 353 1747 
Q 353 2572 751 3078 
Q 1150 3584 1784 3584 
Q 2172 3584 2448 3432 
Q 2725 3281 2906 2969 
z
M 947 1747 
Q 947 1113 1208 752 
Q 1469 391 1925 391 
Q 2381 391 2643 752 
Q 2906 1113 2906 1747 
Q 2906 2381 2643 2742 
Q 2381 3103 1925 3103 
Q 1469 3103 1208 2742 
Q 947 2381 947 1747 
z
" transform="scale(0.015625)"/>
      </defs>
      <use xlink:href="#DejaVuSans-41" transform="translate(0 0.684375)"/>
      <use xlink:href="#DejaVuSans-78" transform="translate(68.408203 0.684375)"/>
      <use xlink:href="#DejaVuSans-69" transform="translate(127.587891 0.684375)"/>
      <use xlink:href="#DejaVuSans-61" transform="translate(155.371094 0.684375)"/>
      <use xlink:href="#DejaVuSans-6c" transform="translate(216.650391 0.684375)"/>
      <use xlink:href="#DejaVuSans-20" transform="translate(244.433594 0.684375)"/>
      <use xlink:href="#DejaVuSans-52" transform="translate(276.220703 0.684375)"/>
      <use xlink:href="#DejaVuSans-46" transform="translate(345.703125 0.684375)"/>
      <use xlink:href="#DejaVuSans-20" transform="translate(403.222656 0.684375)"/>
      <use xlink:href="#DejaVuSans-66" transform="translate(435.009766 0.684375)"/>
      <use xlink:href="#DejaVuSans-69" transform="translate(470.214844 0.684375)"/>
      <use xlink:href="#DejaVuSans-65" transform="translate(497.998047 0.684375)"/>
      <use xlink:href="#DejaVuSans-6c" transform="translate(559.521484 0.684375)"/>
      <use xlink:href="#DejaVuSans-64" transform="translate(587.304688 0.684375)"/>
      <use xlink:href="#DejaVuSans-20" transform="translate(650.78125 0.684375)"/>
      <use xlink:href="#DejaVuSans-28" transform="translate(682.568359 0.684375)"/>
      <use xlink:href="#DejaVuSans-Oblique-6d" transform="translate(721.582031 0.684375)"/>
      <use xlink:href="#DejaVuSans-2212" transform="translate(823.644036 38.965625)scale(0.7)"/>
      <use xlink:href="#DejaVuSans-31" transform="translate(882.29638 38.965625)scale(0.7)"/>
      <use xlink:href="#DejaVuSans-29" transform="translate(929.566888 0.684375)"/>
     </g>
    </g>
   </g>
   <g id="line2d_25">
    <path d="M 77.346009 213.361767 
L 78.344946 193.730879 
L 78.987119 176.574888 
L 79.843351 147.131677 
L 83.268278 21.179106 
L 84.053157 1.593386 
L 84.198698 -1 
M 85.543476 -1 
L 85.836974 5.649395 
L 86.336442 22.270374 
L 87.049969 54.911501 
L 89.975427 199.114295 
L 91.331127 263.780292 
L 92.45784 326.429187 
M 98.445749 326.429187 
L 100.678324 249.581276 
L 101.320498 235.36648 
L 101.891319 226.8046 
L 102.604846 219.596962 
L 103.603783 209.913066 
L 104.388662 199.622861 
L 105.67301 182.494716 
L 106.172478 178.378806 
L 106.600594 176.454232 
L 106.957357 175.78895 
L 107.31412 175.636711 
L 107.813589 175.497985 
L 108.099 175.086538 
L 108.38441 174.240738 
L 108.741173 172.438713 
L 109.240642 168.582765 
L 110.953105 153.671375 
L 111.309869 152.47887 
L 111.595279 152.19973 
L 111.809337 152.329666 
L 112.094748 152.834712 
L 113.093685 154.88287 
L 113.307743 154.861766 
L 113.521801 154.560928 
L 113.807211 153.703192 
L 114.235327 151.535679 
L 115.805085 142.373322 
L 116.090496 141.982933 
L 116.233201 142.024382 
L 116.447259 142.371548 
L 116.804023 143.610016 
L 117.446196 147.049509 
L 118.08837 150.076735 
L 118.445133 150.823347 
L 118.659191 150.846135 
L 118.873249 150.549834 
L 119.15866 149.69867 
L 119.658128 147.307999 
L 120.51436 143.096593 
L 120.871123 142.282982 
L 121.085181 142.21212 
L 121.299239 142.475338 
L 121.58465 143.319108 
L 122.012766 145.410401 
L 123.154408 151.49638 
L 123.439819 152.121998 
L 123.653877 152.212527 
L 123.867935 151.978629 
L 124.153345 151.20294 
L 124.652814 148.917377 
L 125.580398 144.500835 
L 125.937161 143.78448 
L 126.151219 143.760042 
L 126.365277 144.042997 
L 126.650688 144.861816 
L 127.150156 147.153747 
L 128.006388 151.037477 
L 128.291799 151.593655 
L 128.505857 151.633756 
L 128.719915 151.335988 
L 129.005325 150.43621 
L 129.433441 148.195729 
L 130.717789 140.635615 
L 131.074552 139.865252 
L 131.28861 139.84395 
L 131.502668 140.142949 
L 131.788078 140.977955 
L 132.3589 143.569992 
L 133.001073 146.288413 
L 133.357837 146.962936 
L 133.571895 146.957958 
L 133.785953 146.624646 
L 134.071363 145.703082 
L 134.570832 143.071275 
L 135.712474 136.590718 
L 136.069237 135.701557 
L 136.283295 135.557198 
L 136.497353 135.690913 
L 136.782764 136.233061 
L 137.49629 138.41734 
L 137.924406 139.297612 
L 138.138464 139.366335 
L 138.352522 139.111704 
L 138.637933 138.225299 
L 138.994696 136.252589 
L 139.565517 131.49661 
L 140.849865 120.226522 
L 141.277981 118.210301 
L 141.634744 117.401996 
L 141.920154 117.200104 
L 142.276918 117.250454 
L 142.705033 117.275634 
L 142.990444 116.985161 
L 143.275855 116.30507 
L 143.632618 114.796514 
L 144.132086 111.582282 
L 145.416434 102.739901 
L 145.701845 101.969731 
L 145.915903 101.879426 
L 146.129961 102.227707 
L 146.415371 103.361236 
L 146.843487 106.302739 
L 148.627303 120.411556 
L 148.984066 121.210906 
L 149.198124 121.294223 
L 149.412182 121.139116 
L 149.840298 120.41945 
L 150.339767 119.637023 
L 150.553825 119.552958 
L 150.767883 119.710134 
L 151.053293 120.360454 
L 151.410056 121.900995 
L 151.909525 125.205165 
L 153.051167 133.213835 
L 153.407931 134.412637 
L 153.621989 134.66117 
L 153.764694 134.629778 
L 153.978752 134.300993 
L 154.335515 133.116202 
L 155.833921 127.019647 
L 156.047979 126.972609 
L 156.262036 127.259305 
L 156.547447 128.131788 
L 156.975563 130.278372 
L 158.188558 136.879254 
L 158.473969 137.471458 
L 158.688027 137.544455 
L 158.902084 137.30419 
L 159.187495 136.553256 
L 159.686964 134.438723 
L 160.471843 131.175575 
L 160.757253 130.632067 
L 160.971311 130.572172 
L 161.185369 130.834613 
L 161.47078 131.660371 
L 161.898896 133.728459 
L 163.111891 140.12959 
L 163.397301 140.65306 
L 163.611359 140.648614 
L 163.825417 140.300922 
L 164.110828 139.354488 
L 164.610296 136.745714 
L 165.537881 131.749231 
L 165.894644 130.846967 
L 166.108702 130.732731 
L 166.32276 130.949195 
L 166.60817 131.706244 
L 167.036286 133.600131 
L 168.035223 138.334094 
L 168.391987 138.99835 
L 168.606044 138.983499 
L 168.820102 138.655484 
L 169.176866 137.498902 
L 169.819039 134.249477 
L 170.461213 131.32207 
L 170.817977 130.586552 
L 171.032034 130.563702 
L 171.246092 130.873754 
L 171.531503 131.768081 
L 171.959619 133.921652 
L 173.029909 139.752767 
L 173.386672 140.558896 
L 173.60073 140.602741 
L 173.814788 140.308388 
L 174.100198 139.439279 
L 174.599667 136.959186 
L 175.527251 132.122153 
L 175.884015 131.229872 
L 176.098072 131.092187 
L 176.31213 131.268556 
L 176.597541 131.959906 
L 177.09701 134.037574 
L 177.953241 137.714934 
L 178.310005 138.338551 
L 178.524062 138.320571 
L 178.73812 138.005738 
L 179.023531 137.181585 
L 179.523 134.848718 
L 180.379231 130.881698 
L 180.735995 130.2035 
L 180.8787 130.188901 
L 181.092758 130.465977 
L 181.378168 131.355597 
L 181.806284 133.621624 
L 183.233337 142.21944 
L 183.518748 142.76889 
L 183.732806 142.762077 
L 183.946864 142.439846 
L 184.303627 141.324033 
L 185.73068 135.848142 
L 185.944738 135.770265 
L 186.158796 136.034084 
L 186.444206 136.879832 
L 186.872322 139.002812 
L 188.085317 145.741747 
L 188.44208 146.44686 
L 188.656138 146.43851 
L 188.870196 146.104868 
L 189.22696 144.919721 
L 189.940486 141.327351 
L 190.511307 138.90862 
L 190.796718 138.351105 
L 191.010776 138.286763 
L 191.224834 138.544209 
L 191.510244 139.347918 
L 191.93836 141.323271 
L 192.937297 146.165506 
L 193.222708 146.730746 
L 193.436766 146.761192 
L 193.650824 146.426794 
L 193.936234 145.449401 
L 194.36435 143.073881 
L 195.72005 134.52078 
L 196.076814 133.714727 
L 196.290872 133.698005 
L 196.50493 133.988656 
L 196.861693 135.027983 
L 198.217393 139.991486 
L 198.431451 140.121887 
L 198.645509 139.961856 
L 198.93092 139.286425 
L 199.430388 137.248098 
L 200.357973 133.288587 
L 200.643383 132.833695 
L 200.857441 132.876572 
L 201.071499 133.249868 
L 201.35691 134.294077 
L 201.785026 136.86342 
L 203.212078 146.296509 
L 203.497489 146.939111 
L 203.711547 147.032163 
L 203.925605 146.790255 
L 204.211016 146.026137 
L 204.781837 143.61654 
L 205.424011 141.205739 
L 205.709421 140.755474 
L 205.923479 140.802633 
L 206.137537 141.179767 
L 206.422948 142.192138 
L 206.851063 144.624117 
L 208.206764 153.229502 
L 208.563527 154.097992 
L 208.777585 154.208761 
L 208.991643 154.035922 
L 209.348406 153.262976 
L 210.418696 150.505151 
L 210.632754 150.498307 
L 210.846812 150.816133 
L 211.132222 151.7807 
L 211.560338 154.340504 
L 212.273865 160.525291 
L 213.058744 166.83621 
L 213.48686 168.711219 
L 213.77227 169.158109 
L 213.986328 169.079904 
L 214.271739 168.503644 
L 214.771207 166.69838 
L 215.484734 164.104657 
L 215.770144 163.627801 
L 215.984202 163.589157 
L 216.19826 163.841679 
L 216.483671 164.615101 
L 216.911787 166.517707 
L 217.982076 171.588769 
L 218.267487 172.113047 
L 218.481545 172.134106 
L 218.695603 171.832248 
L 218.981014 170.963267 
L 219.480482 168.461018 
L 220.408066 163.546018 
L 220.76483 162.669075 
L 220.978888 162.579879 
L 221.192946 162.839896 
L 221.478356 163.702519 
L 221.906472 165.886817 
L 223.119467 172.770727 
L 223.47623 173.551609 
L 223.690288 173.598459 
L 223.904346 173.343789 
L 224.189757 172.603072 
L 224.760578 170.316782 
L 225.402752 168.048045 
L 225.688162 167.652785 
L 225.90222 167.707027 
L 226.116278 168.08495 
L 226.401689 169.070646 
L 226.901157 171.856566 
L 228.0428 178.694314 
L 228.399563 179.579864 
L 228.613621 179.676634 
L 228.827679 179.454907 
L 229.113089 178.72842 
L 229.612558 176.668889 
L 230.326084 173.776055 
L 230.611495 173.218561 
L 230.825553 173.151186 
L 231.039611 173.413781 
L 231.325022 174.277043 
L 231.753137 176.518942 
L 233.251543 185.446063 
L 233.536954 185.95053 
L 233.751012 185.952091 
L 233.965069 185.654642 
L 234.321833 184.618715 
L 235.677533 179.988284 
L 235.891591 179.868607 
L 236.105649 180.002691 
L 236.391059 180.532353 
L 236.890528 182.084311 
L 237.461349 183.680887 
L 237.675407 183.891366 
L 237.818112 183.847792 
L 238.03217 183.456088 
L 238.317581 182.264529 
L 238.674344 179.659605 
L 239.173813 174.143582 
L 241.100334 150.233487 
L 241.52845 147.822673 
L 241.956566 146.538918 
L 243.026856 144.293364 
L 243.454972 142.22707 
L 243.95444 138.491896 
L 245.738256 123.585419 
L 246.023667 122.876268 
L 246.237725 122.823042 
L 246.451783 123.160206 
L 246.737193 124.133166 
L 247.236662 126.810559 
L 248.092894 131.45265 
L 248.449657 132.462698 
L 248.735067 132.708109 
L 248.949125 132.575353 
L 249.234536 132.051088 
L 249.805357 130.357169 
L 250.304826 129.092234 
L 250.590236 128.832511 
L 250.804294 128.951309 
L 251.018352 129.360053 
L 251.375115 130.676159 
L 251.874584 133.567347 
L 252.873521 139.551896 
L 253.230284 140.568019 
L 253.444342 140.724779 
L 253.6584 140.535162 
L 253.943811 139.787872 
L 254.371927 137.851455 
L 255.442216 132.524855 
L 255.727627 131.933641 
L 255.941685 131.872601 
L 256.155743 132.149881 
L 256.441153 133.025584 
L 256.869269 135.18571 
L 258.082264 141.842303 
L 258.367675 142.452276 
L 258.581733 142.539567 
L 258.795791 142.319052 
L 259.081201 141.594317 
L 259.58067 139.542779 
L 260.365549 136.433557 
L 260.65096 135.959906 
L 260.865018 135.953763 
L 261.079075 136.266495 
L 261.364486 137.168638 
L 261.792602 139.358113 
L 263.005597 146.167184 
L 263.291008 146.812329 
L 263.505065 146.909344 
L 263.719123 146.67823 
L 264.004534 145.907138 
L 264.504003 143.654564 
L 265.360234 139.742506 
L 265.645645 139.159321 
L 265.859703 139.096936 
L 266.073761 139.377439 
L 266.359171 140.275606 
L 266.787287 142.552425 
L 268.142988 150.674866 
L 268.428398 151.307079 
L 268.642456 151.400084 
L 268.856514 151.182892 
L 269.141925 150.469773 
L 269.712746 148.173771 
L 270.35492 145.785787 
L 270.64033 145.297048 
L 270.854388 145.262654 
L 271.068446 145.532669 
L 271.353857 146.352067 
L 271.781973 148.366158 
L 272.923615 154.203805 
L 273.209026 154.765413 
L 273.423083 154.797034 
L 273.637141 154.492253 
L 273.922552 153.598039 
L 274.422021 151.026074 
L 275.420958 145.642944 
L 275.777721 144.839113 
L 275.991779 144.797408 
L 276.205837 145.093074 
L 276.491247 145.973391 
L 276.990716 148.475832 
L 277.9183 153.243857 
L 278.275063 154.018054 
L 278.489121 154.053084 
L 278.703179 153.765871 
L 278.98859 152.90741 
L 279.488058 150.465011 
L 280.415643 145.770387 
L 280.772406 144.943688 
L 280.986464 144.848146 
L 281.200522 145.061807 
L 281.485933 145.781075 
L 281.985401 147.875428 
L 282.77028 151.204299 
L 283.127043 151.845275 
L 283.341101 151.820433 
L 283.555159 151.478113 
L 283.84057 150.551575 
L 284.340038 147.948481 
L 285.267623 142.844769 
L 285.624386 141.933044 
L 285.838444 141.845731 
L 286.052502 142.125492 
L 286.337913 143.053989 
L 286.766029 145.416634 
L 288.121729 153.779116 
L 288.407139 154.416123 
L 288.621197 154.500737 
L 288.835255 154.264491 
L 289.120666 153.515252 
L 289.691487 151.120405 
L 290.333661 148.619181 
L 290.619071 148.089886 
L 290.833129 148.03092 
L 291.047187 148.276771 
L 291.332598 149.06884 
L 291.760714 151.05418 
L 292.831004 156.508461 
L 293.116414 157.11421 
L 293.330472 157.161856 
L 293.54453 156.848854 
L 293.829941 155.890013 
L 294.258056 153.484978 
L 295.685109 144.56144 
L 295.97052 143.970428 
L 296.184578 143.923371 
L 296.398636 144.205395 
L 296.684046 145.02851 
L 297.254868 147.593633 
L 297.897041 150.2903 
L 298.253805 150.998976 
L 298.467863 151.040535 
L 298.681921 150.786124 
L 298.967331 150.020584 
L 299.4668 147.837016 
L 300.394384 143.689257 
L 300.751147 143.047018 
L 300.965205 143.043479 
L 301.179263 143.331754 
L 301.536027 144.35936 
L 302.891727 149.216538 
L 303.105785 149.206264 
L 303.319843 148.81454 
L 303.605253 147.682625 
L 304.033369 144.768498 
L 304.746896 137.816418 
L 305.603127 129.91498 
L 306.102596 127.257807 
L 306.459359 126.472483 
L 306.673417 126.390992 
L 306.887475 126.538093 
L 307.315591 127.240981 
L 307.886412 128.144521 
L 308.171823 128.252732 
L 308.385881 128.109576 
L 308.671291 127.617386 
L 309.099407 126.346602 
L 310.026992 123.422046 
L 310.312402 123.152195 
L 310.52646 123.309967 
L 310.740518 123.80951 
L 311.097281 125.419461 
L 311.59675 129.109411 
L 313.095155 141.295305 
L 313.451919 142.346633 
L 313.665977 142.473638 
L 313.880034 142.250722 
L 314.165445 141.492693 
L 314.736266 139.070844 
L 315.37844 136.655932 
L 315.663851 136.216915 
L 315.877909 136.242861 
L 316.091967 136.593546 
L 316.377377 137.547093 
L 316.876846 140.222912 
L 317.947135 146.245169 
L 318.303899 147.084101 
L 318.517957 147.170315 
L 318.732015 146.952813 
L 319.017425 146.253819 
L 319.588246 144.030701 
L 320.159067 142.003609 
L 320.444478 141.546019 
L 320.658536 141.563605 
L 320.872594 141.920668 
L 321.158005 142.927879 
L 321.58612 145.428452 
L 323.084526 155.290557 
L 323.369937 155.82513 
L 323.512642 155.84363 
L 323.7267 155.57276 
L 324.01211 154.711094 
L 324.511579 152.24067 
L 325.367811 147.921913 
L 325.724574 147.092412 
L 325.938632 147.006192 
L 326.15269 147.240894 
L 326.4381 148.009578 
L 326.937569 150.218339 
L 327.722448 153.698734 
L 328.007859 154.273358 
L 328.221917 154.32081 
L 328.435975 154.009853 
L 328.721385 153.056133 
L 329.149501 150.642242 
L 330.505201 142.003972 
L 330.790612 141.41114 
L 330.933317 141.38033 
L 331.147375 141.675067 
L 331.432786 142.669107 
L 331.860902 145.203411 
L 333.287955 154.74522 
L 333.644718 155.669449 
L 333.930128 155.84788 
L 334.144186 155.716881 
L 334.50095 155.180138 
L 335.071771 154.332529 
L 335.285829 154.285885 
L 335.499887 154.494297 
L 335.785297 155.257208 
L 336.14206 157.044372 
L 336.641529 160.94084 
L 338.211287 174.399779 
L 338.56805 175.677509 
L 338.853461 176.05965 
L 339.067519 176.032802 
L 339.35293 175.695295 
L 340.137809 174.537076 
L 340.351867 174.553193 
L 340.565925 174.845755 
L 340.851335 175.726869 
L 341.208098 177.648008 
L 341.77892 182.294326 
L 342.991915 192.773453 
L 343.420031 194.681336 
L 343.705441 195.223007 
L 343.919499 195.289631 
L 344.133557 195.126347 
L 344.633026 194.293032 
L 345.061141 193.765236 
L 345.275199 193.8014 
L 345.489257 194.134552 
L 345.774668 195.119867 
L 346.131431 197.286706 
L 346.6309 201.907314 
L 348.414716 220.319475 
L 348.914184 222.672558 
L 349.413653 223.975477 
L 349.984474 225.442146 
L 350.341237 227.051632 
L 350.769353 230.213985 
L 351.268822 235.828784 
L 352.053701 247.831475 
L 353.123991 263.698809 
L 353.694812 268.964163 
L 354.122928 271.236 
L 354.551043 272.505581 
L 355.407275 274.564115 
L 355.835391 276.524589 
L 356.33486 280.037969 
L 358.261381 295.412299 
L 358.618144 296.169593 
L 358.832202 296.227511 
L 359.04626 296.04268 
L 359.474376 295.230821 
L 359.973845 294.372804 
L 360.187903 294.303005 
L 360.401961 294.526442 
L 360.687371 295.378813 
L 361.044134 297.424557 
L 361.543603 302.027502 
L 362.685245 315.95752 
L 363.327419 322.092264 
L 363.826888 324.925609 
L 364.255004 326.192495 
L 364.379897 326.429187 
M 387.303479 326.429187 
L 387.87273 287.390001 
L 388.443551 233.26954 
L 389.085725 150.346618 
L 389.799251 26.152952 
L 389.931332 -1 
L 389.931332 -1 
" clip-path="url(#pc029fbf4bd)" style="fill: none; stroke: #1f77b4; stroke-width: 1.5; stroke-linecap: square"/>
   </g>
   <g id="patch_3">
    <path d="M 61.113281 273.312 
L 61.113281 7.2 
" style="fill: none; stroke: #000000; stroke-width: 0.8; stroke-linejoin: miter; stroke-linecap: square"/>
   </g>
   <g id="patch_4">
    <path d="M 418.233281 273.312 
L 418.233281 7.2 
" style="fill: none; stroke: #000000; stroke-width: 0.8; stroke-linejoin: miter; stroke-linecap: square"/>
   </g>
   <g id="patch_5">
    <path d="M 61.113281 273.312 
L 418.233281 273.312 
" style="fill: none; stroke: #000000; stroke-width: 0.8; stroke-linejoin: miter; stroke-linecap: square"/>
   </g>
   <g id="patch_6">
    <path d="M 61.113281 7.2 
L 418.233281 7.2 
" style="fill: none; stroke: #000000; stroke-width: 0.8; stroke-linejoin: miter; stroke-linecap: square"/>
   </g>
  </g>
 </g>
 <defs>
  <clipPath id="pc029fbf4bd">
   <rect x="61.113281" y="7.2" width="357.12" height="266.112"/>
  </clipPath>
 </defs>
</svg>
