<?xml version="1.0" encoding="utf-8" standalone="no"?>
<!DOCTYPE svg PUBLIC "-//W3C//DTD SVG 1.1//EN"
  "http://www.w3.org/Graphics/SVG/1.1/DTD/svg11.dtd">
<svg xmlns:xlink="http://www.w3.org/1999/xlink" width="468.575469pt" height="331.128016pt" viewBox="0 0 468.575469 331.128016" xmlns="http://www.w3.org/2000/svg" version="1.1">
 <defs>
  <style type="text/css">*{stroke-linejoin: round; stroke-linecap: butt}</style>
 </defs>
 <g id="figure_1">
  <g id="patch_1">
   <path d="M 0 331.128016 
L 468.575469 331.128016 
L 468.575469 0 
L 0 0 
L 0 331.128016 
z
" style="fill: none"/>
  </g>
  <g id="axes_1">
   <g id="patch_2">
    <path d="M 104.255469 279.010828 
L 461.375469 279.010828 
L 461.375469 12.898828 
L 104.255469 12.898828 
L 104.255469 279.010828 
z
" style="fill: none"/>
   </g>
   <g id="matplotlib.axis_1">
    <g id="xtick_1">
     <g id="line2d_1">
      <path d="M 136.185778 279.010828 
L 136.185778 12.898828 
" clip-path="url(#p0073ac46e8)" style="fill: none; stroke: #b0b0b0; stroke-width: 0.8; stroke-linecap: square"/>
     </g>
     <g id="line2d_2">
      <defs>
       <path id="md39032bed2" d="M 0 0 
L 0 3.5 
" style="stroke: #000000; stroke-width: 0.8"/>
      </defs>
      <g>
       <use xlink:href="#md39032bed2" x="136.185778" y="279.010828" style="stroke: #000000; stroke-width: 0.8"/>
      </g>
     </g>
     <g id="text_1">
      <!-- −3000 -->
      <g transform="translate(110.813513 297.408484)scale(0.15 -0.15)">
       <defs>
        <path id="DejaVuSans-2212" d="M 678 2272 
L 4684 2272 
L 4684 1741 
L 678 1741 
L 678 2272 
z
" transform="scale(0.015625)"/>
        <path id="DejaVuSans-33" d="M 2597 2516 
Q 3050 2419 3304 2112 
Q 3559 1806 3559 1356 
Q 3559 666 3084 287 
Q 2609 -91 1734 -91 
Q 1441 -91 1130 -33 
Q 819 25 488 141 
L 488 750 
Q 750 597 1062 519 
Q 1375 441 1716 441 
Q 2309 441 2620 675 
Q 2931 909 2931 1356 
Q 2931 1769 2642 2001 
Q 2353 2234 1838 2234 
L 1294 2234 
L 1294 2753 
L 1863 2753 
Q 2328 2753 2575 2939 
Q 2822 3125 2822 3475 
Q 2822 3834 2567 4026 
Q 2313 4219 1838 4219 
Q 1578 4219 1281 4162 
Q 984 4106 628 3988 
L 628 4550 
Q 988 4650 1302 4700 
Q 1616 4750 1894 4750 
Q 2613 4750 3031 4423 
Q 3450 4097 3450 3541 
Q 3450 3153 3228 2886 
Q 3006 2619 2597 2516 
z
" transform="scale(0.015625)"/>
        <path id="DejaVuSans-30" d="M 2034 4250 
Q 1547 4250 1301 3770 
Q 1056 3291 1056 2328 
Q 1056 1369 1301 889 
Q 1547 409 2034 409 
Q 2525 409 2770 889 
Q 3016 1369 3016 2328 
Q 3016 3291 2770 3770 
Q 2525 4250 2034 4250 
z
M 2034 4750 
Q 2819 4750 3233 4129 
Q 3647 3509 3647 2328 
Q 3647 1150 3233 529 
Q 2819 -91 2034 -91 
Q 1250 -91 836 529 
Q 422 1150 422 2328 
Q 422 3509 836 4129 
Q 1250 4750 2034 4750 
z
" transform="scale(0.015625)"/>
       </defs>
       <use xlink:href="#DejaVuSans-2212"/>
       <use xlink:href="#DejaVuSans-33" x="83.789062"/>
       <use xlink:href="#DejaVuSans-30" x="147.412109"/>
       <use xlink:href="#DejaVuSans-30" x="211.035156"/>
       <use xlink:href="#DejaVuSans-30" x="274.658203"/>
      </g>
     </g>
    </g>
    <g id="xtick_2">
     <g id="line2d_3">
      <path d="M 207.538426 279.010828 
L 207.538426 12.898828 
" clip-path="url(#p0073ac46e8)" style="fill: none; stroke: #b0b0b0; stroke-width: 0.8; stroke-linecap: square"/>
     </g>
     <g id="line2d_4">
      <g>
       <use xlink:href="#md39032bed2" x="207.538426" y="279.010828" style="stroke: #000000; stroke-width: 0.8"/>
      </g>
     </g>
     <g id="text_2">
      <!-- −2000 -->
      <g transform="translate(182.16616 297.408484)scale(0.15 -0.15)">
       <defs>
        <path id="DejaVuSans-32" d="M 1228 531 
L 3431 531 
L 3431 0 
L 469 0 
L 469 531 
Q 828 903 1448 1529 
Q 2069 2156 2228 2338 
Q 2531 2678 2651 2914 
Q 2772 3150 2772 3378 
Q 2772 3750 2511 3984 
Q 2250 4219 1831 4219 
Q 1534 4219 1204 4116 
Q 875 4013 500 3803 
L 500 4441 
Q 881 4594 1212 4672 
Q 1544 4750 1819 4750 
Q 2544 4750 2975 4387 
Q 3406 4025 3406 3419 
Q 3406 3131 3298 2873 
Q 3191 2616 2906 2266 
Q 2828 2175 2409 1742 
Q 1991 1309 1228 531 
z
" transform="scale(0.015625)"/>
       </defs>
       <use xlink:href="#DejaVuSans-2212"/>
       <use xlink:href="#DejaVuSans-32" x="83.789062"/>
       <use xlink:href="#DejaVuSans-30" x="147.412109"/>
       <use xlink:href="#DejaVuSans-30" x="211.035156"/>
       <use xlink:href="#DejaVuSans-30" x="274.658203"/>
      </g>
     </g>
    </g>
    <g id="xtick_3">
     <g id="line2d_5">
      <path d="M 278.891073 279.010828 
L 278.891073 12.898828 
" clip-path="url(#p0073ac46e8)" style="fill: none; stroke: #b0b0b0; stroke-width: 0.8; stroke-linecap: square"/>
     </g>
     <g id="line2d_6">
      <g>
       <use xlink:href="#md39032bed2" x="278.891073" y="279.010828" style="stroke: #000000; stroke-width: 0.8"/>
      </g>
     </g>
     <g id="text_3">
      <!-- −1000 -->
      <g transform="translate(253.518808 297.408484)scale(0.15 -0.15)">
       <defs>
        <path id="DejaVuSans-31" d="M 794 531 
L 1825 531 
L 1825 4091 
L 703 3866 
L 703 4441 
L 1819 4666 
L 2450 4666 
L 2450 531 
L 3481 531 
L 3481 0 
L 794 0 
L 794 531 
z
" transform="scale(0.015625)"/>
       </defs>
       <use xlink:href="#DejaVuSans-2212"/>
       <use xlink:href="#DejaVuSans-31" x="83.789062"/>
       <use xlink:href="#DejaVuSans-30" x="147.412109"/>
       <use xlink:href="#DejaVuSans-30" x="211.035156"/>
       <use xlink:href="#DejaVuSans-30" x="274.658203"/>
      </g>
     </g>
    </g>
    <g id="xtick_4">
     <g id="line2d_7">
      <path d="M 350.24372 279.010828 
L 350.24372 12.898828 
" clip-path="url(#p0073ac46e8)" style="fill: none; stroke: #b0b0b0; stroke-width: 0.8; stroke-linecap: square"/>
     </g>
     <g id="line2d_8">
      <g>
       <use xlink:href="#md39032bed2" x="350.24372" y="279.010828" style="stroke: #000000; stroke-width: 0.8"/>
      </g>
     </g>
     <g id="text_4">
      <!-- 0 -->
      <g transform="translate(345.471845 297.408484)scale(0.15 -0.15)">
       <use xlink:href="#DejaVuSans-30"/>
      </g>
     </g>
    </g>
    <g id="xtick_5">
     <g id="line2d_9">
      <path d="M 421.596368 279.010828 
L 421.596368 12.898828 
" clip-path="url(#p0073ac46e8)" style="fill: none; stroke: #b0b0b0; stroke-width: 0.8; stroke-linecap: square"/>
     </g>
     <g id="line2d_10">
      <g>
       <use xlink:href="#md39032bed2" x="421.596368" y="279.010828" style="stroke: #000000; stroke-width: 0.8"/>
      </g>
     </g>
     <g id="text_5">
      <!-- 1000 -->
      <g transform="translate(402.508868 297.408484)scale(0.15 -0.15)">
       <use xlink:href="#DejaVuSans-31"/>
       <use xlink:href="#DejaVuSans-30" x="63.623047"/>
       <use xlink:href="#DejaVuSans-30" x="127.246094"/>
       <use xlink:href="#DejaVuSans-30" x="190.869141"/>
      </g>
     </g>
    </g>
    <g id="text_6">
     <!-- X ($\mu m$) -->
     <g transform="translate(248.815469 319.728016)scale(0.2 -0.2)">
      <defs>
       <path id="DejaVuSans-58" d="M 403 4666 
L 1081 4666 
L 2241 2931 
L 3406 4666 
L 4084 4666 
L 2584 2425 
L 4184 0 
L 3506 0 
L 2194 1984 
L 872 0 
L 191 0 
L 1856 2491 
L 403 4666 
z
" transform="scale(0.015625)"/>
       <path id="DejaVuSans-20" transform="scale(0.015625)"/>
       <path id="DejaVuSans-28" d="M 1984 4856 
Q 1566 4138 1362 3434 
Q 1159 2731 1159 2009 
Q 1159 1288 1364 580 
Q 1569 -128 1984 -844 
L 1484 -844 
Q 1016 -109 783 600 
Q 550 1309 550 2009 
Q 550 2706 781 3412 
Q 1013 4119 1484 4856 
L 1984 4856 
z
" transform="scale(0.015625)"/>
       <path id="DejaVuSans-Oblique-3bc" d="M -84 -1331 
L 856 3500 
L 1434 3500 
L 1009 1322 
Q 997 1256 987 1175 
Q 978 1094 978 1013 
Q 978 722 1161 565 
Q 1344 409 1684 409 
Q 2147 409 2431 671 
Q 2716 934 2816 1459 
L 3213 3500 
L 3788 3500 
L 3266 809 
Q 3253 750 3248 706 
Q 3244 663 3244 628 
Q 3244 531 3283 486 
Q 3322 441 3406 441 
Q 3438 441 3492 456 
Q 3547 472 3647 513 
L 3559 50 
Q 3422 -19 3297 -55 
Q 3172 -91 3053 -91 
Q 2847 -91 2730 40 
Q 2613 172 2613 403 
Q 2438 153 2195 31 
Q 1953 -91 1625 -91 
Q 1334 -91 1117 43 
Q 900 178 831 397 
L 494 -1331 
L -84 -1331 
z
" transform="scale(0.015625)"/>
       <path id="DejaVuSans-Oblique-6d" d="M 5747 2113 
L 5338 0 
L 4763 0 
L 5166 2094 
Q 5191 2228 5203 2325 
Q 5216 2422 5216 2491 
Q 5216 2772 5059 2928 
Q 4903 3084 4622 3084 
Q 4203 3084 3875 2770 
Q 3547 2456 3450 1953 
L 3066 0 
L 2491 0 
L 2900 2094 
Q 2925 2209 2937 2307 
Q 2950 2406 2950 2484 
Q 2950 2769 2794 2926 
Q 2638 3084 2363 3084 
Q 1938 3084 1609 2770 
Q 1281 2456 1184 1953 
L 800 0 
L 225 0 
L 909 3500 
L 1484 3500 
L 1375 2956 
Q 1609 3263 1923 3423 
Q 2238 3584 2597 3584 
Q 2978 3584 3223 3384 
Q 3469 3184 3519 2828 
Q 3781 3197 4126 3390 
Q 4472 3584 4856 3584 
Q 5306 3584 5551 3325 
Q 5797 3066 5797 2591 
Q 5797 2488 5784 2364 
Q 5772 2241 5747 2113 
z
" transform="scale(0.015625)"/>
       <path id="DejaVuSans-29" d="M 513 4856 
L 1013 4856 
Q 1481 4119 1714 3412 
Q 1947 2706 1947 2009 
Q 1947 1309 1714 600 
Q 1481 -109 1013 -844 
L 513 -844 
Q 928 -128 1133 580 
Q 1338 1288 1338 2009 
Q 1338 2731 1133 3434 
Q 928 4138 513 4856 
z
" transform="scale(0.015625)"/>
      </defs>
      <use xlink:href="#DejaVuSans-58" transform="translate(0 0.125)"/>
      <use xlink:href="#DejaVuSans-20" transform="translate(68.505859 0.125)"/>
      <use xlink:href="#DejaVuSans-28" transform="translate(100.292969 0.125)"/>
      <use xlink:href="#DejaVuSans-Oblique-3bc" transform="translate(139.306641 0.125)"/>
      <use xlink:href="#DejaVuSans-Oblique-6d" transform="translate(202.929688 0.125)"/>
      <use xlink:href="#DejaVuSans-29" transform="translate(300.341797 0.125)"/>
     </g>
    </g>
   </g>
   <g id="matplotlib.axis_2">
    <g id="ytick_1">
     <g id="line2d_11">
      <path d="M 104.255469 279.010828 
L 461.375469 279.010828 
" clip-path="url(#p0073ac46e8)" style="fill: none; stroke: #b0b0b0; stroke-width: 0.8; stroke-linecap: square"/>
     </g>
     <g id="line2d_12">
      <defs>
       <path id="m6f3f5b6aff" d="M 0 0 
L -3.5 0 
" style="stroke: #000000; stroke-width: 0.8"/>
      </defs>
      <g>
       <use xlink:href="#m6f3f5b6aff" x="104.255469" y="279.010828" style="stroke: #000000; stroke-width: 0.8"/>
      </g>
     </g>
     <g id="text_7">
      <!-- −0.0100 -->
      <g transform="translate(32.2 284.709656)scale(0.15 -0.15)">
       <defs>
        <path id="DejaVuSans-2e" d="M 684 794 
L 1344 794 
L 1344 0 
L 684 0 
L 684 794 
z
" transform="scale(0.015625)"/>
       </defs>
       <use xlink:href="#DejaVuSans-2212"/>
       <use xlink:href="#DejaVuSans-30" x="83.789062"/>
       <use xlink:href="#DejaVuSans-2e" x="147.412109"/>
       <use xlink:href="#DejaVuSans-30" x="179.199219"/>
       <use xlink:href="#DejaVuSans-31" x="242.822266"/>
       <use xlink:href="#DejaVuSans-30" x="306.445312"/>
       <use xlink:href="#DejaVuSans-30" x="370.068359"/>
      </g>
     </g>
    </g>
    <g id="ytick_2">
     <g id="line2d_13">
      <path d="M 104.255469 245.746828 
L 461.375469 245.746828 
" clip-path="url(#p0073ac46e8)" style="fill: none; stroke: #b0b0b0; stroke-width: 0.8; stroke-linecap: square"/>
     </g>
     <g id="line2d_14">
      <g>
       <use xlink:href="#m6f3f5b6aff" x="104.255469" y="245.746828" style="stroke: #000000; stroke-width: 0.8"/>
      </g>
     </g>
     <g id="text_8">
      <!-- −0.0075 -->
      <g transform="translate(32.2 251.445656)scale(0.15 -0.15)">
       <defs>
        <path id="DejaVuSans-37" d="M 525 4666 
L 3525 4666 
L 3525 4397 
L 1831 0 
L 1172 0 
L 2766 4134 
L 525 4134 
L 525 4666 
z
" transform="scale(0.015625)"/>
        <path id="DejaVuSans-35" d="M 691 4666 
L 3169 4666 
L 3169 4134 
L 1269 4134 
L 1269 2991 
Q 1406 3038 1543 3061 
Q 1681 3084 1819 3084 
Q 2600 3084 3056 2656 
Q 3513 2228 3513 1497 
Q 3513 744 3044 326 
Q 2575 -91 1722 -91 
Q 1428 -91 1123 -41 
Q 819 9 494 109 
L 494 744 
Q 775 591 1075 516 
Q 1375 441 1709 441 
Q 2250 441 2565 725 
Q 2881 1009 2881 1497 
Q 2881 1984 2565 2268 
Q 2250 2553 1709 2553 
Q 1456 2553 1204 2497 
Q 953 2441 691 2322 
L 691 4666 
z
" transform="scale(0.015625)"/>
       </defs>
       <use xlink:href="#DejaVuSans-2212"/>
       <use xlink:href="#DejaVuSans-30" x="83.789062"/>
       <use xlink:href="#DejaVuSans-2e" x="147.412109"/>
       <use xlink:href="#DejaVuSans-30" x="179.199219"/>
       <use xlink:href="#DejaVuSans-30" x="242.822266"/>
       <use xlink:href="#DejaVuSans-37" x="306.445312"/>
       <use xlink:href="#DejaVuSans-35" x="370.068359"/>
      </g>
     </g>
    </g>
    <g id="ytick_3">
     <g id="line2d_15">
      <path d="M 104.255469 212.482828 
L 461.375469 212.482828 
" clip-path="url(#p0073ac46e8)" style="fill: none; stroke: #b0b0b0; stroke-width: 0.8; stroke-linecap: square"/>
     </g>
     <g id="line2d_16">
      <g>
       <use xlink:href="#m6f3f5b6aff" x="104.255469" y="212.482828" style="stroke: #000000; stroke-width: 0.8"/>
      </g>
     </g>
     <g id="text_9">
      <!-- −0.0050 -->
      <g transform="translate(32.2 218.181656)scale(0.15 -0.15)">
       <use xlink:href="#DejaVuSans-2212"/>
       <use xlink:href="#DejaVuSans-30" x="83.789062"/>
       <use xlink:href="#DejaVuSans-2e" x="147.412109"/>
       <use xlink:href="#DejaVuSans-30" x="179.199219"/>
       <use xlink:href="#DejaVuSans-30" x="242.822266"/>
       <use xlink:href="#DejaVuSans-35" x="306.445312"/>
       <use xlink:href="#DejaVuSans-30" x="370.068359"/>
      </g>
     </g>
    </g>
    <g id="ytick_4">
     <g id="line2d_17">
      <path d="M 104.255469 179.218828 
L 461.375469 179.218828 
" clip-path="url(#p0073ac46e8)" style="fill: none; stroke: #b0b0b0; stroke-width: 0.8; stroke-linecap: square"/>
     </g>
     <g id="line2d_18">
      <g>
       <use xlink:href="#m6f3f5b6aff" x="104.255469" y="179.218828" style="stroke: #000000; stroke-width: 0.8"/>
      </g>
     </g>
     <g id="text_10">
      <!-- −0.0025 -->
      <g transform="translate(32.2 184.917656)scale(0.15 -0.15)">
       <use xlink:href="#DejaVuSans-2212"/>
       <use xlink:href="#DejaVuSans-30" x="83.789062"/>
       <use xlink:href="#DejaVuSans-2e" x="147.412109"/>
       <use xlink:href="#DejaVuSans-30" x="179.199219"/>
       <use xlink:href="#DejaVuSans-30" x="242.822266"/>
       <use xlink:href="#DejaVuSans-32" x="306.445312"/>
       <use xlink:href="#DejaVuSans-35" x="370.068359"/>
      </g>
     </g>
    </g>
    <g id="ytick_5">
     <g id="line2d_19">
      <path d="M 104.255469 145.954828 
L 461.375469 145.954828 
" clip-path="url(#p0073ac46e8)" style="fill: none; stroke: #b0b0b0; stroke-width: 0.8; stroke-linecap: square"/>
     </g>
     <g id="line2d_20">
      <g>
       <use xlink:href="#m6f3f5b6aff" x="104.255469" y="145.954828" style="stroke: #000000; stroke-width: 0.8"/>
      </g>
     </g>
     <g id="text_11">
      <!-- 0.0000 -->
      <g transform="translate(44.769531 151.653656)scale(0.15 -0.15)">
       <use xlink:href="#DejaVuSans-30"/>
       <use xlink:href="#DejaVuSans-2e" x="63.623047"/>
       <use xlink:href="#DejaVuSans-30" x="95.410156"/>
       <use xlink:href="#DejaVuSans-30" x="159.033203"/>
       <use xlink:href="#DejaVuSans-30" x="222.65625"/>
       <use xlink:href="#DejaVuSans-30" x="286.279297"/>
      </g>
     </g>
    </g>
    <g id="ytick_6">
     <g id="line2d_21">
      <path d="M 104.255469 112.690828 
L 461.375469 112.690828 
" clip-path="url(#p0073ac46e8)" style="fill: none; stroke: #b0b0b0; stroke-width: 0.8; stroke-linecap: square"/>
     </g>
     <g id="line2d_22">
      <g>
       <use xlink:href="#m6f3f5b6aff" x="104.255469" y="112.690828" style="stroke: #000000; stroke-width: 0.8"/>
      </g>
     </g>
     <g id="text_12">
      <!-- 0.0025 -->
      <g transform="translate(44.769531 118.389656)scale(0.15 -0.15)">
       <use xlink:href="#DejaVuSans-30"/>
       <use xlink:href="#DejaVuSans-2e" x="63.623047"/>
       <use xlink:href="#DejaVuSans-30" x="95.410156"/>
       <use xlink:href="#DejaVuSans-30" x="159.033203"/>
       <use xlink:href="#DejaVuSans-32" x="222.65625"/>
       <use xlink:href="#DejaVuSans-35" x="286.279297"/>
      </g>
     </g>
    </g>
    <g id="ytick_7">
     <g id="line2d_23">
      <path d="M 104.255469 79.426828 
L 461.375469 79.426828 
" clip-path="url(#p0073ac46e8)" style="fill: none; stroke: #b0b0b0; stroke-width: 0.8; stroke-linecap: square"/>
     </g>
     <g id="line2d_24">
      <g>
       <use xlink:href="#m6f3f5b6aff" x="104.255469" y="79.426828" style="stroke: #000000; stroke-width: 0.8"/>
      </g>
     </g>
     <g id="text_13">
      <!-- 0.0050 -->
      <g transform="translate(44.769531 85.125656)scale(0.15 -0.15)">
       <use xlink:href="#DejaVuSans-30"/>
       <use xlink:href="#DejaVuSans-2e" x="63.623047"/>
       <use xlink:href="#DejaVuSans-30" x="95.410156"/>
       <use xlink:href="#DejaVuSans-30" x="159.033203"/>
       <use xlink:href="#DejaVuSans-35" x="222.65625"/>
       <use xlink:href="#DejaVuSans-30" x="286.279297"/>
      </g>
     </g>
    </g>
    <g id="ytick_8">
     <g id="line2d_25">
      <path d="M 104.255469 46.162828 
L 461.375469 46.162828 
" clip-path="url(#p0073ac46e8)" style="fill: none; stroke: #b0b0b0; stroke-width: 0.8; stroke-linecap: square"/>
     </g>
     <g id="line2d_26">
      <g>
       <use xlink:href="#m6f3f5b6aff" x="104.255469" y="46.162828" style="stroke: #000000; stroke-width: 0.8"/>
      </g>
     </g>
     <g id="text_14">
      <!-- 0.0075 -->
      <g transform="translate(44.769531 51.861656)scale(0.15 -0.15)">
       <use xlink:href="#DejaVuSans-30"/>
       <use xlink:href="#DejaVuSans-2e" x="63.623047"/>
       <use xlink:href="#DejaVuSans-30" x="95.410156"/>
       <use xlink:href="#DejaVuSans-30" x="159.033203"/>
       <use xlink:href="#DejaVuSans-37" x="222.65625"/>
       <use xlink:href="#DejaVuSans-35" x="286.279297"/>
      </g>
     </g>
    </g>
    <g id="ytick_9">
     <g id="line2d_27">
      <path d="M 104.255469 12.898828 
L 461.375469 12.898828 
" clip-path="url(#p0073ac46e8)" style="fill: none; stroke: #b0b0b0; stroke-width: 0.8; stroke-linecap: square"/>
     </g>
     <g id="line2d_28">
      <g>
       <use xlink:href="#m6f3f5b6aff" x="104.255469" y="12.898828" style="stroke: #000000; stroke-width: 0.8"/>
      </g>
     </g>
     <g id="text_15">
      <!-- 0.0100 -->
      <g transform="translate(44.769531 18.597656)scale(0.15 -0.15)">
       <use xlink:href="#DejaVuSans-30"/>
       <use xlink:href="#DejaVuSans-2e" x="63.623047"/>
       <use xlink:href="#DejaVuSans-30" x="95.410156"/>
       <use xlink:href="#DejaVuSans-31" x="159.033203"/>
       <use xlink:href="#DejaVuSans-30" x="222.65625"/>
       <use xlink:href="#DejaVuSans-30" x="286.279297"/>
      </g>
     </g>
    </g>
    <g id="text_16">
     <!-- Violation ($mm^{-2}$) -->
     <g transform="translate(24.040625 231.354828)rotate(-90)scale(0.2 -0.2)">
      <defs>
       <path id="DejaVuSans-56" d="M 1831 0 
L 50 4666 
L 709 4666 
L 2188 738 
L 3669 4666 
L 4325 4666 
L 2547 0 
L 1831 0 
z
" transform="scale(0.015625)"/>
       <path id="DejaVuSans-69" d="M 603 3500 
L 1178 3500 
L 1178 0 
L 603 0 
L 603 3500 
z
M 603 4863 
L 1178 4863 
L 1178 4134 
L 603 4134 
L 603 4863 
z
" transform="scale(0.015625)"/>
       <path id="DejaVuSans-6f" d="M 1959 3097 
Q 1497 3097 1228 2736 
Q 959 2375 959 1747 
Q 959 1119 1226 758 
Q 1494 397 1959 397 
Q 2419 397 2687 759 
Q 2956 1122 2956 1747 
Q 2956 2369 2687 2733 
Q 2419 3097 1959 3097 
z
M 1959 3584 
Q 2709 3584 3137 3096 
Q 3566 2609 3566 1747 
Q 3566 888 3137 398 
Q 2709 -91 1959 -91 
Q 1206 -91 779 398 
Q 353 888 353 1747 
Q 353 2609 779 3096 
Q 1206 3584 1959 3584 
z
" transform="scale(0.015625)"/>
       <path id="DejaVuSans-6c" d="M 603 4863 
L 1178 4863 
L 1178 0 
L 603 0 
L 603 4863 
z
" transform="scale(0.015625)"/>
       <path id="DejaVuSans-61" d="M 2194 1759 
Q 1497 1759 1228 1600 
Q 959 1441 959 1056 
Q 959 750 1161 570 
Q 1363 391 1709 391 
Q 2188 391 2477 730 
Q 2766 1069 2766 1631 
L 2766 1759 
L 2194 1759 
z
M 3341 1997 
L 3341 0 
L 2766 0 
L 2766 531 
Q 2569 213 2275 61 
Q 1981 -91 1556 -91 
Q 1019 -91 701 211 
Q 384 513 384 1019 
Q 384 1609 779 1909 
Q 1175 2209 1959 2209 
L 2766 2209 
L 2766 2266 
Q 2766 2663 2505 2880 
Q 2244 3097 1772 3097 
Q 1472 3097 1187 3025 
Q 903 2953 641 2809 
L 641 3341 
Q 956 3463 1253 3523 
Q 1550 3584 1831 3584 
Q 2591 3584 2966 3190 
Q 3341 2797 3341 1997 
z
" transform="scale(0.015625)"/>
       <path id="DejaVuSans-74" d="M 1172 4494 
L 1172 3500 
L 2356 3500 
L 2356 3053 
L 1172 3053 
L 1172 1153 
Q 1172 725 1289 603 
Q 1406 481 1766 481 
L 2356 481 
L 2356 0 
L 1766 0 
Q 1100 0 847 248 
Q 594 497 594 1153 
L 594 3053 
L 172 3053 
L 172 3500 
L 594 3500 
L 594 4494 
L 1172 4494 
z
" transform="scale(0.015625)"/>
       <path id="DejaVuSans-6e" d="M 3513 2113 
L 3513 0 
L 2938 0 
L 2938 2094 
Q 2938 2591 2744 2837 
Q 2550 3084 2163 3084 
Q 1697 3084 1428 2787 
Q 1159 2491 1159 1978 
L 1159 0 
L 581 0 
L 581 3500 
L 1159 3500 
L 1159 2956 
Q 1366 3272 1645 3428 
Q 1925 3584 2291 3584 
Q 2894 3584 3203 3211 
Q 3513 2838 3513 2113 
z
" transform="scale(0.015625)"/>
      </defs>
      <use xlink:href="#DejaVuSans-56" transform="translate(0 0.765625)"/>
      <use xlink:href="#DejaVuSans-69" transform="translate(68.408203 0.765625)"/>
      <use xlink:href="#DejaVuSans-6f" transform="translate(96.191406 0.765625)"/>
      <use xlink:href="#DejaVuSans-6c" transform="translate(157.373047 0.765625)"/>
      <use xlink:href="#DejaVuSans-61" transform="translate(185.15625 0.765625)"/>
      <use xlink:href="#DejaVuSans-74" transform="translate(246.435547 0.765625)"/>
      <use xlink:href="#DejaVuSans-69" transform="translate(285.644531 0.765625)"/>
      <use xlink:href="#DejaVuSans-6f" transform="translate(313.427734 0.765625)"/>
      <use xlink:href="#DejaVuSans-6e" transform="translate(374.609375 0.765625)"/>
      <use xlink:href="#DejaVuSans-20" transform="translate(437.988281 0.765625)"/>
      <use xlink:href="#DejaVuSans-28" transform="translate(469.775391 0.765625)"/>
      <use xlink:href="#DejaVuSans-Oblique-6d" transform="translate(508.789062 0.765625)"/>
      <use xlink:href="#DejaVuSans-Oblique-6d" transform="translate(606.201172 0.765625)"/>
      <use xlink:href="#DejaVuSans-2212" transform="translate(708.263177 39.046875)scale(0.7)"/>
      <use xlink:href="#DejaVuSans-32" transform="translate(766.915521 39.046875)scale(0.7)"/>
      <use xlink:href="#DejaVuSans-29" transform="translate(814.186029 0.765625)"/>
     </g>
    </g>
   </g>
   <g id="line2d_29">
    <path d="M 120.488196 171.080751 
L 120.559549 168.360602 
L 120.987665 114.297239 
L 121.059017 114.48046 
L 121.344428 145.151843 
L 121.558486 106.044394 
L 121.986602 169.024648 
L 122.057954 175.414224 
L 122.557423 97.618133 
L 122.914186 190.480156 
L 122.985539 186.111191 
L 123.270949 126.008351 
L 123.342302 128.163388 
L 123.413655 138.937218 
L 123.485007 129.501135 
L 123.627713 164.760863 
L 123.770418 142.487926 
L 123.984476 122.008637 
L 124.055828 116.703256 
L 124.341239 164.53466 
L 124.62665 140.512946 
L 124.769355 144.145686 
L 124.840708 148.59993 
L 125.126118 133.359028 
L 125.197471 133.490502 
L 125.268823 134.335638 
L 125.411529 129.655981 
L 125.625587 146.906468 
L 125.696939 151.490903 
L 125.768292 150.97747 
L 125.839645 152.798829 
L 125.910997 146.637307 
L 126.196408 157.897603 
L 126.26776 154.682672 
L 126.553171 124.551677 
L 126.624524 129.209539 
L 126.695876 120.763684 
L 126.767229 124.359525 
L 126.981287 149.712939 
L 127.05264 146.829245 
L 127.123992 144.184746 
L 127.480755 175.108699 
L 127.623461 190.608781 
L 127.908871 122.841904 
L 128.122929 97.260672 
L 128.40834 180.840695 
L 128.479693 179.831312 
L 128.551045 177.775254 
L 128.622398 180.856639 
L 128.907808 170.176192 
L 129.121866 137.934231 
L 129.407277 148.358323 
L 129.549982 144.4217 
L 129.76404 165.406106 
L 129.835393 164.631847 
L 130.049451 139.941318 
L 130.192156 123.28534 
L 130.263509 123.189803 
L 130.548919 88.843559 
L 130.620272 93.88313 
L 130.977035 187.375032 
L 131.048388 182.47287 
L 131.191093 161.722074 
L 131.262446 161.841698 
L 131.333798 160.868982 
L 131.476504 167.549922 
L 131.90462 136.378156 
L 131.975972 139.141961 
L 132.332735 172.502922 
L 132.475441 161.478213 
L 132.618146 131.117776 
L 132.689499 134.727188 
L 132.760851 130.427858 
L 132.832204 135.539908 
L 133.188967 123.413476 
L 133.403025 150.363301 
L 133.54573 181.328977 
L 133.617083 180.485498 
L 133.688436 176.880037 
L 134.116552 114.567176 
L 134.187904 114.862034 
L 134.473315 166.529604 
L 134.61602 180.04591 
L 134.687373 181.723001 
L 134.830078 172.761887 
L 135.186841 114.090199 
L 135.258194 113.588285 
L 136.043073 175.057371 
L 136.613894 130.23801 
L 136.899305 88.893863 
L 136.970658 95.138802 
L 137.113363 125.660258 
L 137.398773 191.753244 
L 137.898242 135.732807 
L 138.1123 79.368222 
L 138.183653 82.566991 
L 138.611768 210.976997 
L 138.683121 205.759499 
L 138.897179 160.145816 
L 139.111237 128.888979 
L 139.325295 107.067567 
L 139.396648 105.404342 
L 139.610706 134.853122 
L 139.824763 170.300971 
L 140.181527 146.584924 
L 140.252879 146.569686 
L 140.466937 156.315379 
L 140.680995 132.861854 
L 141.037758 151.142591 
L 141.251816 167.149335 
L 141.679932 111.919533 
L 141.822638 125.78184 
L 141.965343 110.327441 
L 142.179401 126.089954 
L 142.393459 148.727432 
L 142.607517 177.581192 
L 142.678869 165.365093 
L 142.750222 169.703103 
L 143.106985 138.237074 
L 143.249691 149.544661 
L 143.321043 148.486703 
L 143.392396 148.4445 
L 143.891864 143.515628 
L 143.963217 144.934452 
L 144.105922 149.609335 
L 144.248628 134.286446 
L 144.605391 177.607592 
L 144.748096 152.919549 
L 144.962154 122.524135 
L 145.033507 129.265468 
L 145.176212 156.638118 
L 145.39027 140.587085 
L 145.461623 139.703516 
L 145.532975 137.422953 
L 145.747033 146.312168 
L 145.961091 151.091989 
L 146.032444 148.050454 
L 146.103796 153.192385 
L 146.389207 132.719372 
L 146.46056 137.904519 
L 146.674618 149.422939 
L 146.74597 140.52059 
L 146.960028 155.287409 
L 147.031381 152.661084 
L 147.102733 154.249034 
L 147.388144 134.17517 
L 147.673555 151.785944 
L 147.81626 131.789242 
L 148.101671 150.106162 
L 148.173023 152.366432 
L 148.529786 136.479286 
L 148.601139 138.310256 
L 148.815197 152.021426 
L 148.88655 150.920383 
L 149.17196 125.944167 
L 149.314666 129.058112 
L 149.528723 178.997143 
L 149.671429 163.221525 
L 149.956839 123.67792 
L 150.028192 129.213936 
L 150.24225 156.256915 
L 150.384955 138.924375 
L 150.456308 140.346596 
L 150.527661 139.049773 
L 150.599013 141.837752 
L 150.813071 159.957056 
L 150.884424 157.7115 
L 151.098482 138.61876 
L 151.169834 141.491746 
L 151.31254 134.052976 
L 151.383892 135.00238 
L 151.669303 152.750837 
L 151.740656 148.53742 
L 151.812008 133.102689 
L 151.883361 135.141648 
L 152.168771 169.440248 
L 152.240124 169.13266 
L 152.525535 102.249129 
L 152.596887 109.577007 
L 152.810945 149.07782 
L 152.953651 154.72657 
L 153.381766 137.489715 
L 153.524472 147.04064 
L 153.881235 133.531269 
L 154.095293 137.093426 
L 154.309351 159.637536 
L 154.452056 134.390469 
L 154.594761 138.139746 
L 154.666114 135.726565 
L 154.880172 156.910681 
L 155.022877 137.47461 
L 155.165583 118.267711 
L 155.450993 158.778988 
L 155.593699 162.083039 
L 155.736404 146.220512 
L 155.879109 128.461967 
L 155.950462 126.5903 
L 156.021814 128.915223 
L 156.307225 181.262696 
L 156.378578 175.959715 
L 156.592636 123.423295 
L 156.663988 126.501096 
L 156.806694 143.365718 
L 157.020751 172.756631 
L 157.092104 183.116452 
L 157.306162 150.410041 
L 157.52022 122.272583 
L 157.662925 131.588587 
L 157.876983 155.787392 
L 158.019689 143.153938 
L 158.091041 149.713931 
L 158.162394 135.824461 
L 158.233746 138.774484 
L 158.447804 164.354613 
L 158.733215 122.115109 
L 158.804568 124.185199 
L 158.947273 134.866019 
L 159.089978 164.191008 
L 159.161331 156.784903 
L 159.375389 128.285266 
L 159.446741 131.491235 
L 159.732152 155.897538 
L 159.874857 169.15653 
L 160.088915 155.245215 
L 160.160268 152.975887 
L 160.517031 128.88924 
L 160.588384 133.869201 
L 160.802442 171.41114 
L 161.159205 119.244481 
L 161.230558 120.665636 
L 161.658674 164.102917 
L 161.730026 162.103146 
L 161.801379 165.591228 
L 162.086789 140.303146 
L 162.158142 141.352927 
L 162.300847 148.676599 
L 162.3722 147.481466 
L 162.514905 135.934839 
L 162.657611 138.750526 
L 162.943021 171.415232 
L 163.014374 165.678158 
L 163.085726 141.361565 
L 163.157079 143.563371 
L 163.228432 143.645684 
L 163.299784 144.13081 
L 163.44249 139.973536 
L 163.513842 142.022267 
L 163.799253 129.193689 
L 163.870606 129.569674 
L 164.084664 143.767932 
L 164.156016 141.013366 
L 164.298721 136.459986 
L 164.441427 143.526276 
L 164.655485 178.981913 
L 164.726837 174.716184 
L 164.869543 141.36024 
L 164.940895 122.17434 
L 165.012248 122.5768 
L 165.154953 128.484454 
L 165.511717 174.126218 
L 165.654422 165.955994 
L 165.939832 135.865822 
L 166.082538 141.823131 
L 166.15389 141.427945 
L 166.225243 140.259532 
L 166.367948 120.628982 
L 166.439301 120.756872 
L 166.582006 141.471799 
L 166.796064 163.900555 
L 166.938769 170.373589 
L 167.152827 156.118376 
L 167.509591 189.053356 
L 167.580943 189.608947 
L 167.937707 122.405368 
L 168.080412 131.801993 
L 168.151764 136.377529 
L 168.365822 163.94003 
L 168.437175 163.566978 
L 168.865291 124.640367 
L 169.007996 121.364431 
L 169.150702 126.508979 
L 169.507465 187.836839 
L 169.578817 187.259146 
L 169.65017 180.549418 
L 169.721523 180.965045 
L 169.792875 178.324482 
L 170.006933 158.246975 
L 170.149639 173.875149 
L 170.292344 186.343512 
L 170.435049 163.847525 
L 170.649107 121.881314 
L 170.72046 125.355519 
L 170.934518 146.828397 
L 171.00587 145.217859 
L 171.077223 137.076068 
L 171.148576 139.301868 
L 171.362634 156.54988 
L 171.790749 142.426278 
L 172.07616 168.506386 
L 172.290218 193.563774 
L 172.361571 190.764938 
L 172.575629 171.792889 
L 172.646981 171.861998 
L 172.718334 175.610499 
L 172.932392 149.151132 
L 173.14645 131.728357 
L 173.217802 131.272883 
L 173.360508 139.103541 
L 173.645918 131.267595 
L 173.788624 143.837623 
L 173.931329 137.520304 
L 174.002682 130.505392 
L 174.359445 194.164978 
L 174.430797 189.909996 
L 174.716208 142.762431 
L 174.930266 179.287907 
L 175.001619 177.406615 
L 175.144324 186.606903 
L 175.215677 186.392343 
L 175.358382 173.306441 
L 175.501087 156.523262 
L 175.57244 156.875401 
L 175.786498 140.018157 
L 176.000556 122.474707 
L 176.071908 125.561297 
L 176.357319 164.292643 
L 176.428672 155.977039 
L 176.571377 139.823284 
L 176.642729 141.258979 
L 176.785435 157.256863 
L 177.070845 193.531078 
L 177.142198 191.78642 
L 177.427609 161.116552 
L 177.498961 160.488249 
L 177.570314 163.21217 
L 177.784372 187.745615 
L 177.855724 185.807424 
L 178.28384 151.036338 
L 178.355193 149.974066 
L 178.569251 123.585887 
L 178.783309 95.585165 
L 179.282777 176.610766 
L 179.35413 177.450409 
L 179.425483 173.165868 
L 179.568188 193.196782 
L 179.639541 191.712042 
L 179.853599 176.101489 
L 179.924951 176.567142 
L 180.139009 166.992224 
L 180.353067 179.42042 
L 180.852536 145.763443 
L 180.923888 149.60413 
L 180.995241 151.419516 
L 181.423357 128.221299 
L 181.566062 125.84609 
L 181.708767 139.64622 
L 182.065531 193.741256 
L 182.136883 187.374563 
L 182.350941 170.809337 
L 182.422294 172.227629 
L 182.707705 186.952269 
L 182.779057 186.838334 
L 182.85041 183.252784 
L 183.13582 155.018561 
L 183.207173 151.75251 
L 183.278526 152.573943 
L 183.349878 151.472717 
L 183.421231 145.790506 
L 183.492584 147.94694 
L 183.563936 147.034584 
L 183.706642 139.136713 
L 183.849347 129.554276 
L 184.063405 139.256043 
L 184.134757 136.80154 
L 184.277463 150.217772 
L 184.562873 201.861617 
L 184.705579 218.365596 
L 185.062342 149.420396 
L 185.133695 150.508179 
L 185.205047 154.337309 
L 185.347752 174.215926 
L 185.633163 128.727203 
L 186.061279 163.723197 
L 186.132632 158.287575 
L 186.203984 143.77432 
L 186.275337 144.095393 
L 186.489395 161.22698 
L 186.6321 157.799514 
L 187.274274 100.960962 
L 187.488332 131.949783 
L 187.559685 125.734231 
L 187.773742 153.523697 
L 187.9878 193.613912 
L 188.059153 192.59715 
L 188.344564 138.814699 
L 188.415916 148.279629 
L 188.487269 152.13371 
L 188.558622 150.407939 
L 188.701327 146.780848 
L 188.915385 132.199151 
L 189.129443 148.727459 
L 189.200795 147.464 
L 189.486206 126.009871 
L 189.557559 127.376801 
L 190.199732 202.625728 
L 190.271085 199.111987 
L 190.485143 159.663826 
L 190.699201 124.791503 
L 190.770554 125.38173 
L 190.913259 127.434037 
L 191.055964 119.310621 
L 191.19867 131.689434 
L 191.412727 149.619482 
L 191.555433 154.240099 
L 191.626785 151.931029 
L 191.698138 145.172216 
L 191.769491 147.387533 
L 191.840843 149.424918 
L 191.912196 148.719371 
L 192.054901 143.527178 
L 192.268959 115.372907 
L 192.340312 115.526014 
L 192.483017 136.711812 
L 192.697075 177.069595 
L 192.911133 179.785273 
L 192.982486 178.901277 
L 193.053838 183.280318 
L 193.410602 138.765414 
L 193.62466 125.900206 
L 193.696012 129.476447 
L 193.838718 132.04628 
L 193.981423 141.435134 
L 194.052775 140.220024 
L 194.266833 154.573724 
L 194.409539 139.20472 
L 194.552244 142.482201 
L 194.694949 137.586899 
L 194.909007 166.061406 
L 194.98036 163.882878 
L 195.051713 154.90781 
L 195.194418 173.662729 
L 195.337123 197.413052 
L 195.551181 160.024099 
L 195.765239 109.005349 
L 196.05065 152.392805 
L 196.122002 151.894046 
L 196.33606 141.683848 
L 196.550118 126.571444 
L 196.692823 139.255049 
L 196.835529 146.677113 
L 196.906881 148.094478 
L 197.049587 143.504454 
L 197.120939 138.600231 
L 197.263645 116.872834 
L 197.69176 178.754462 
L 197.834466 167.636192 
L 197.977171 156.321686 
L 198.119876 177.420813 
L 198.191229 174.891195 
L 198.405287 148.820497 
L 198.547992 131.968183 
L 198.76205 157.03088 
L 198.833403 155.606897 
L 199.190166 122.441439 
L 199.261519 126.334205 
L 199.475577 147.428659 
L 199.618282 143.113889 
L 199.689635 145.313067 
L 199.760987 139.76412 
L 199.903693 158.431511 
L 200.046398 179.70268 
L 200.189103 169.339364 
L 200.260456 171.200269 
L 200.331808 177.653928 
L 200.403161 174.601157 
L 200.831277 110.403603 
L 201.045335 143.921802 
L 201.18804 139.264137 
L 201.259393 141.450399 
L 201.402098 156.136917 
L 201.473451 155.439383 
L 201.972919 127.298962 
L 202.186977 129.94304 
L 202.329683 114.751258 
L 202.615093 155.982903 
L 202.829151 198.100335 
L 202.971856 178.004477 
L 203.114562 162.637847 
L 203.185914 165.202718 
L 203.542678 132.975221 
L 203.61403 134.992942 
L 203.828088 159.811159 
L 203.899441 156.921626 
L 204.113499 135.256368 
L 204.184851 135.777564 
L 204.256204 134.068757 
L 204.398909 146.597206 
L 204.470262 156.734695 
L 204.541615 154.92701 
L 204.898378 122.61482 
L 205.183788 184.173533 
L 205.255141 178.20846 
L 205.397846 188.373454 
L 205.469199 198.141099 
L 205.540552 195.44211 
L 205.75461 155.273698 
L 206.04002 104.460477 
L 206.539489 157.197937 
L 206.753547 142.992266 
L 206.824899 145.66113 
L 206.967605 148.018102 
L 207.253015 131.186421 
L 207.39572 100.938668 
L 207.467073 107.416063 
L 207.681131 163.227612 
L 207.895189 197.205483 
L 207.966542 191.042939 
L 208.1806 161.634762 
L 208.251952 167.876178 
L 208.323305 166.39049 
L 208.537363 145.322733 
L 208.680068 131.91952 
L 208.751421 132.142761 
L 209.108184 150.257133 
L 209.179537 149.371361 
L 209.250889 146.398547 
L 209.393595 137.408576 
L 209.607653 151.625616 
L 209.964416 131.843678 
L 210.249826 165.348942 
L 210.321179 162.616201 
L 210.60659 193.816828 
L 210.749295 171.717583 
L 211.034706 110.060738 
L 211.106058 112.208178 
L 211.462821 142.403964 
L 211.605527 147.292595 
L 211.676879 147.317394 
L 211.819585 146.587373 
L 211.890937 146.746836 
L 212.033643 147.3767 
L 212.176348 140.82468 
L 212.533111 108.288231 
L 212.747169 160.321194 
L 212.961227 193.6586 
L 213.03258 189.25624 
L 213.246638 156.3587 
L 213.389343 159.620874 
L 213.460696 157.856911 
L 213.674753 137.34972 
L 213.746106 136.156211 
L 213.888811 141.784368 
L 214.031517 148.199868 
L 214.38828 136.375619 
L 214.602338 148.24149 
L 214.673691 151.240865 
L 214.816396 141.612768 
L 215.030454 125.294622 
L 215.74398 197.368674 
L 215.886686 181.262118 
L 216.243449 110.832224 
L 216.742917 147.765095 
L 216.885623 148.6735 
L 217.028328 147.395575 
L 217.099681 148.09144 
L 217.171033 147.506092 
L 217.599149 113.850575 
L 217.670502 117.753586 
L 218.027265 183.173201 
L 218.098618 182.968628 
L 218.312676 159.863333 
L 218.526733 146.160895 
L 218.598086 144.748301 
L 218.669439 138.406044 
L 218.740791 141.346245 
L 219.026202 150.839656 
L 219.097555 150.310952 
L 219.311613 142.893262 
L 219.454318 141.770329 
L 219.525671 141.792854 
L 219.597023 141.90017 
L 219.811081 154.462372 
L 220.239197 129.859171 
L 220.524608 179.039289 
L 220.738666 166.181078 
L 220.810018 168.070863 
L 220.952723 173.038236 
L 221.024076 170.741604 
L 221.380839 100.921768 
L 221.452192 106.295064 
L 221.66625 156.047376 
L 221.737603 153.373147 
L 221.808955 153.859431 
L 221.951661 159.241771 
L 222.023013 158.021507 
L 222.379776 122.24397 
L 222.522482 99.389983 
L 222.665187 110.719782 
L 222.73654 116.394383 
L 223.02195 192.370849 
L 223.164656 173.572534 
L 223.236008 159.473152 
L 223.307361 170.905704 
L 223.521419 129.12758 
L 223.592771 131.562716 
L 223.878182 154.744757 
L 224.020887 166.3179 
L 224.09224 162.88022 
L 224.234945 127.776101 
L 224.377651 141.663337 
L 224.449003 141.670558 
L 224.520356 159.255917 
L 224.591709 155.523835 
L 224.734414 130.616093 
L 224.805766 131.424884 
L 225.019824 153.727978 
L 225.16253 165.22908 
L 225.233882 161.436351 
L 225.44794 138.587741 
L 225.661998 170.719889 
L 225.733351 159.979719 
L 225.804704 174.161699 
L 225.947409 155.837729 
L 226.018761 157.1725 
L 226.161467 165.496847 
L 226.232819 160.241495 
L 226.446877 129.73817 
L 226.51823 126.648795 
L 226.589583 127.583441 
L 226.660935 129.620641 
L 226.732288 125.916942 
L 226.874993 148.842792 
L 227.160404 139.365078 
L 227.58852 131.016934 
L 227.945283 153.469768 
L 228.016636 150.66298 
L 228.373399 114.352438 
L 228.444751 115.154766 
L 228.516104 117.375067 
L 228.801515 137.777878 
L 228.872867 133.097638 
L 228.94422 141.186986 
L 229.015573 140.544665 
L 229.158278 142.236167 
L 229.372336 140.913266 
L 229.586394 145.034883 
L 229.729099 147.968911 
L 229.800452 147.546211 
L 230.01451 145.276775 
L 230.157215 145.97187 
L 230.442626 155.343485 
L 230.513978 154.293952 
L 230.585331 153.985035 
L 230.870741 143.01595 
L 230.942094 153.430842 
L 231.156152 123.844136 
L 231.227505 126.595313 
L 231.584268 212.373789 
L 231.726973 178.428906 
L 231.869679 127.354203 
L 231.941031 138.055622 
L 232.226442 157.917766 
L 232.511852 121.275759 
L 232.868616 192.946467 
L 233.011321 165.576637 
L 233.154026 124.460348 
L 233.439437 149.541316 
L 233.724847 143.348154 
L 233.7962 145.296015 
L 233.867553 133.612037 
L 234.152963 166.050355 
L 234.509726 129.217299 
L 234.581079 129.362253 
L 234.795137 155.511709 
L 234.937842 134.819716 
L 235.223253 146.584313 
L 235.294606 151.889701 
L 235.437311 138.775646 
L 235.508664 146.880519 
L 235.794074 84.543009 
L 236.008132 152.779666 
L 236.22219 230.849838 
L 236.436248 119.00901 
L 236.578953 119.186207 
L 236.721659 125.781805 
L 236.793011 143.202961 
L 236.864364 140.816369 
L 236.935717 132.365833 
L 237.078422 103.527564 
L 237.221127 160.597973 
L 237.435185 237.488656 
L 237.57789 185.387217 
L 237.791948 106.65025 
L 237.863301 108.268785 
L 237.934654 105.646993 
L 238.148712 152.967034 
L 238.220064 174.391249 
L 238.719533 104.35294 
L 239.004943 196.06636 
L 239.076296 181.053874 
L 239.575764 72.850606 
L 239.647117 76.999712 
L 239.71847 85.335215 
L 239.861175 153.94002 
L 240.00388 232.690066 
L 240.075233 223.713853 
L 240.289291 149.456359 
L 240.360644 142.385835 
L 240.431996 142.59083 
L 240.503349 145.255328 
L 240.574702 142.197109 
L 240.931465 157.989756 
L 241.002817 156.820074 
L 241.288228 153.040025 
L 241.359581 155.961879 
L 241.502286 134.702225 
L 241.787697 220.551211 
L 241.859049 214.359121 
L 241.930402 194.180792 
L 242.14446 100.921923 
L 242.215812 99.921692 
L 242.287165 110.01069 
L 242.501223 54.946404 
L 242.572576 24.672219 
L 242.643928 38.721216 
L 243.000692 258.101083 
L 243.357455 169.90505 
L 243.428807 168.785122 
L 243.50016 170.658038 
L 243.571513 166.086137 
L 243.642865 167.490859 
L 243.714218 175.711111 
L 243.785571 171.893523 
L 243.856923 161.940217 
L 244.070981 223.64635 
L 244.142334 223.535023 
L 244.427744 154.80307 
L 244.499097 157.029742 
L 244.57045 170.90729 
L 244.641802 160.90613 
L 244.713155 185.810007 
L 244.784508 274.842196 
L 244.85586 272.672261 
L 244.998566 235.451171 
L 245.355329 19.932339 
L 245.426682 26.083569 
L 245.854797 147.914957 
L 245.997503 138.954437 
L 246.211561 144.861064 
L 246.282913 142.77598 
L 246.496971 146.34156 
L 246.568324 143.525949 
L 246.639677 144.261477 
L 246.711029 144.682558 
L 246.853734 147.943712 
L 247.210498 128.25336 
L 247.495908 184.961676 
L 247.567261 179.215641 
L 247.924024 116.828666 
L 248.138082 152.589228 
L 248.209435 148.721436 
L 248.35214 140.589471 
L 248.423493 142.956187 
L 248.494845 144.308986 
L 248.637551 142.548625 
L 248.780256 144.344215 
L 249.137019 155.037564 
L 249.279724 151.611407 
L 249.42243 146.404793 
L 249.565135 147.9448 
L 249.636488 150.121838 
L 249.70784 149.688764 
L 249.779193 150.316085 
L 249.921898 142.433166 
L 250.207309 154.16461 
L 250.564072 136.596433 
L 250.635425 140.062451 
L 250.849483 149.619594 
L 250.920835 142.95599 
L 250.992188 143.72917 
L 251.420304 152.742338 
L 251.563009 146.949997 
L 251.634362 148.518802 
L 251.84842 142.521078 
L 251.919772 138.234714 
L 251.991125 139.309771 
L 252.062478 141.901501 
L 252.13383 141.357901 
L 252.276536 139.168381 
L 252.91871 158.78986 
L 253.20412 107.709041 
L 253.346825 132.742764 
L 253.560883 185.263553 
L 253.632236 181.856891 
L 253.774941 154.76026 
L 253.846294 136.213275 
L 253.917647 142.212659 
L 253.988999 142.501673 
L 254.131705 149.024167 
L 254.345762 144.777383 
L 254.417115 145.46974 
L 254.55982 147.670358 
L 254.702526 149.103349 
L 254.987936 139.110653 
L 255.130642 144.819786 
L 255.273347 152.822981 
L 255.558757 136.619111 
L 255.701463 145.45872 
L 255.915521 154.744148 
L 256.129579 142.486475 
L 256.200931 144.128679 
L 256.414989 148.370568 
L 256.557695 147.156358 
L 256.771752 144.214461 
L 256.843105 144.424204 
L 256.98581 146.057894 
L 257.057163 148.322408 
L 257.199868 141.328092 
L 257.627984 151.275808 
L 257.699337 150.500169 
L 257.913395 142.253111 
L 257.984747 143.943059 
L 258.0561 148.735261 
L 258.127453 144.445195 
L 258.198805 146.309109 
L 258.341511 144.30707 
L 258.840979 147.684349 
L 258.912332 147.730418 
L 259.055037 145.924199 
L 259.12639 144.171072 
L 259.197742 148.801741 
L 259.269095 148.376518 
L 259.4118 150.588185 
L 259.697211 115.742243 
L 259.768564 120.50487 
L 260.053974 172.317767 
L 260.125327 170.800355 
L 260.268032 153.418888 
L 260.339385 144.434171 
L 260.410737 145.248857 
L 260.48209 144.93785 
L 260.696148 146.535825 
L 260.767501 145.649958 
L 260.838853 146.104696 
L 260.910206 146.2055 
L 261.052911 145.814746 
L 261.195617 146.907833 
L 261.338322 139.387593 
L 261.623732 157.417143 
L 261.980496 126.747745 
L 262.123201 142.56489 
L 262.265906 157.973638 
L 262.408612 151.889754 
L 262.551317 142.329051 
L 262.62267 142.853678 
L 262.979433 148.268431 
L 263.050785 148.858592 
L 263.122138 148.71341 
L 263.193491 148.290258 
L 263.407549 145.370392 
L 263.478901 145.806764 
L 263.764312 143.073981 
L 263.97837 146.359332 
L 264.192428 138.927178 
L 264.26378 140.036315 
L 264.620544 154.675661 
L 264.763249 149.09003 
L 264.834602 142.112703 
L 264.905954 143.735553 
L 264.977307 146.620456 
L 265.120012 141.223855 
L 265.191365 142.190926 
L 265.548128 155.906602 
L 265.762186 147.803484 
L 265.833539 142.063081 
L 265.904891 143.723926 
L 266.118949 149.002928 
L 266.333007 165.156057 
L 266.618418 133.587979 
L 266.68977 134.297003 
L 266.832476 143.859249 
L 266.975181 157.046189 
L 267.046534 156.446009 
L 267.260592 137.623122 
L 267.688708 152.419616 
L 267.76006 152.368181 
L 268.045471 145.737111 
L 268.116823 145.501982 
L 268.188176 145.546393 
L 268.402234 146.460878 
L 268.473587 147.502543 
L 268.544939 144.59709 
L 268.758997 154.168829 
L 269.044408 146.752659 
L 269.258466 137.801998 
L 269.329818 138.041962 
L 269.472524 145.815105 
L 269.543876 144.151034 
L 269.757934 150.133883 
L 269.829287 148.906677 
L 269.90064 149.590348 
L 270.043345 147.654656 
L 270.18605 143.954055 
L 270.328755 147.68047 
L 270.542813 142.498452 
L 270.756871 143.055867 
L 270.899577 144.719692 
L 271.042282 152.142549 
L 271.113635 151.089474 
L 271.184987 149.489426 
L 271.327693 153.109111 
L 271.684456 141.424935 
L 271.969866 148.331818 
L 272.041219 148.27388 
L 272.32663 144.657889 
L 272.469335 142.443055 
L 272.540688 143.38532 
L 272.61204 147.70648 
L 272.683393 146.936841 
L 272.897451 138.913529 
L 272.968803 139.343587 
L 273.254214 147.787875 
L 273.396919 155.672507 
L 273.96774 140.229914 
L 274.110446 144.43068 
L 274.181798 144.203607 
L 274.253151 144.411613 
L 274.538562 149.353967 
L 274.609914 148.546194 
L 274.681267 147.820892 
L 274.823972 144.114918 
L 274.966678 147.800291 
L 275.03803 149.396401 
L 275.252088 138.576946 
L 275.394793 134.959474 
L 275.608851 146.535991 
L 275.680204 145.437436 
L 275.822909 140.78537 
L 275.894262 140.876304 
L 276.036967 145.385585 
L 276.10832 144.366909 
L 276.39373 135.86861 
L 276.465083 137.48017 
L 276.679141 146.111892 
L 276.750494 145.635637 
L 276.893199 143.457261 
L 277.035904 145.486013 
L 277.107257 145.087236 
L 277.17861 145.197525 
L 277.249962 145.998958 
L 277.321315 148.677747 
L 277.606725 135.308307 
L 277.963489 145.232135 
L 278.034841 145.208579 
L 278.248899 138.13706 
L 278.391605 143.532722 
L 278.462957 144.182286 
L 278.677015 139.839376 
L 278.81972 142.130793 
L 278.891073 142.102547 
L 278.962426 142.242726 
L 279.033778 141.917095 
L 279.176484 143.520981 
L 279.319189 147.126559 
L 279.390542 146.293219 
L 279.533247 147.183953 
L 279.6046 146.456842 
L 279.675952 146.928264 
L 279.89001 139.191357 
L 280.104068 148.308088 
L 280.318126 156.65586 
L 280.603537 132.64026 
L 280.674889 135.561161 
L 281.031653 151.511211 
L 281.103005 148.887251 
L 281.174358 147.673604 
L 281.245711 140.805284 
L 281.317063 144.028106 
L 281.531121 160.091772 
L 281.887884 134.745251 
L 281.959237 137.882313 
L 282.173295 147.312387 
L 282.316 136.843372 
L 282.672763 155.358264 
L 282.744116 153.267417 
L 282.958174 138.859155 
L 283.243585 154.45087 
L 283.528995 141.223878 
L 283.600348 134.602174 
L 283.671701 136.971426 
L 283.885758 165.527077 
L 283.957111 163.891389 
L 284.242522 140.590184 
L 284.313874 140.696661 
L 284.527932 152.85643 
L 284.670638 146.480992 
L 285.027401 161.217131 
L 285.312811 140.128319 
L 285.384164 143.533198 
L 285.598222 148.944554 
L 285.669575 148.575059 
L 285.740927 147.842586 
L 285.954985 139.564322 
L 286.169043 158.605919 
L 286.240396 157.383818 
L 286.597159 136.1806 
L 286.668512 136.941728 
L 286.88257 153.091011 
L 287.025275 146.68636 
L 287.096628 146.819796 
L 287.239333 147.546757 
L 287.310686 147.454216 
L 287.453391 147.843237 
L 287.524743 147.603976 
L 287.881507 152.488341 
L 288.024212 148.690455 
L 288.309623 132.284514 
L 288.595033 156.736981 
L 288.880444 130.764709 
L 288.951796 131.519396 
L 289.237207 154.132352 
L 289.451265 142.471186 
L 289.665323 143.989699 
L 289.736676 143.574495 
L 289.879381 145.134365 
L 289.950733 145.113726 
L 290.022086 145.325047 
L 290.093439 144.21759 
L 290.164791 146.126544 
L 290.307497 139.92821 
L 290.450202 136.494696 
L 290.521555 137.624912 
L 290.735613 152.944834 
L 290.806965 161.60894 
L 290.878318 160.697771 
L 291.163728 135.636475 
L 291.235081 135.839453 
L 291.306434 137.383858 
L 291.591844 150.266568 
L 291.663197 142.250414 
L 291.73455 142.268671 
L 291.948608 148.571737 
L 292.01996 149.117367 
L 292.162666 146.575105 
L 292.305371 144.006185 
L 292.376723 144.301199 
L 292.448076 145.38004 
L 292.590781 155.994627 
L 292.662134 155.006352 
L 292.947545 131.127687 
L 293.018897 132.375535 
L 293.232955 162.920272 
L 293.304308 161.611614 
L 293.589719 131.835058 
L 293.661071 135.130861 
L 293.803776 148.37945 
L 293.875129 145.484004 
L 293.946482 147.235671 
L 294.089187 143.640071 
L 294.231892 144.664369 
L 294.303245 144.410721 
L 294.517303 149.518843 
L 294.588656 148.642265 
L 294.731361 147.440728 
L 294.802714 148.442267 
L 295.230829 136.037446 
L 295.51624 154.986346 
L 295.587593 154.043837 
L 295.944356 140.580189 
L 296.158414 151.747197 
L 296.372472 143.39156 
L 296.58653 142.469108 
L 296.729235 145.975638 
L 296.800588 145.784445 
L 296.943293 144.4029 
L 297.014646 143.388381 
L 297.228704 153.820115 
L 297.442761 143.700839 
L 297.585467 139.648843 
L 297.799525 147.569959 
L 297.94223 151.492037 
L 298.156288 140.931744 
L 298.441699 149.799123 
L 298.727109 145.97129 
L 298.869814 141.307008 
L 299.155225 150.919976 
L 299.29793 147.730853 
L 299.440636 143.016861 
L 299.511988 144.375917 
L 299.797399 151.322322 
L 300.011457 147.93044 
L 300.225515 139.977564 
L 300.296867 137.820504 
L 300.653631 147.553612 
L 300.796336 152.535391 
L 301.081746 144.890214 
L 301.153099 144.576684 
L 301.295804 142.601951 
L 301.509862 149.75463 
L 301.581215 149.113375 
L 301.866626 141.822104 
L 302.152036 151.446452 
L 302.865563 139.202293 
L 303.008268 142.423322 
L 303.222326 150.983496 
L 303.293679 149.48225 
L 303.365031 153.110499 
L 303.507736 145.779983 
L 303.579089 146.216902 
L 303.721794 145.73412 
L 304.007205 147.449969 
L 304.14991 149.027861 
L 304.221263 148.61232 
L 304.363968 145.575318 
L 304.506674 142.027055 
L 304.792084 152.203645 
L 305.006142 143.850852 
L 305.2202 130.759264 
L 305.362905 139.692222 
L 305.719669 155.253489 
L 305.791021 155.841046 
L 306.147784 139.150712 
L 306.219137 138.556204 
L 306.29049 139.828126 
L 306.504548 148.573433 
L 306.718606 144.164094 
L 306.932664 142.31375 
L 307.289427 151.588682 
L 307.432132 148.776936 
L 307.64619 134.598886 
L 308.074306 150.688368 
L 308.288364 145.75023 
L 308.502422 151.42041 
L 308.573774 150.838768 
L 308.859185 147.015286 
L 308.930538 147.065992 
L 309.00189 148.497228 
L 309.073243 148.047459 
L 309.215948 145.948741 
L 309.501359 149.997968 
L 309.644064 147.919404 
L 309.786769 150.363039 
L 310.07218 139.22037 
L 310.143533 139.649658 
L 310.214885 141.199046 
L 310.357591 135.514471 
L 310.428943 137.457235 
L 310.643001 145.921561 
L 310.857059 155.440643 
L 310.999764 148.599301 
L 311.14247 142.653191 
L 311.213822 146.013671 
L 311.285175 145.653983 
L 311.356528 145.500579 
L 311.42788 145.959761 
L 311.570586 148.807553 
L 311.998702 140.589535 
L 312.141407 148.794242 
L 312.284112 158.349716 
L 312.426817 151.72643 
L 312.783581 132.98817 
L 312.854933 132.930293 
L 313.283049 156.283382 
L 313.354402 155.688188 
L 313.56846 136.512135 
L 313.639812 138.526249 
L 313.782518 145.789844 
L 313.996576 155.476269 
L 314.067928 154.811248 
L 314.353339 142.810453 
L 314.496044 144.3966 
L 314.710102 155.920262 
L 314.852807 149.675218 
L 315.066865 141.567002 
L 315.209571 135.956114 
L 315.280923 137.141652 
L 315.566334 148.41696 
L 315.709039 150.911217 
L 315.923097 144.780832 
L 316.137155 150.924737 
L 316.208508 150.329351 
L 316.422566 145.344856 
L 316.493918 145.462437 
L 316.565271 145.994261 
L 316.707976 144.935807 
L 316.850682 142.781898 
L 316.922034 143.501132 
L 317.207445 155.856635 
L 317.278797 155.493838 
L 317.421503 150.397213 
L 317.635561 132.876767 
L 317.706913 134.301135 
L 318.063677 149.917308 
L 318.135029 149.798522 
L 318.349087 147.749002 
L 318.42044 149.542822 
L 318.491792 149.143208 
L 318.563145 146.948448 
L 318.70585 139.980158 
L 318.991261 144.029983 
L 319.062614 144.5146 
L 319.348024 133.735149 
L 319.419377 133.971711 
L 319.704787 147.809475 
L 319.847493 156.99362 
L 319.990198 150.945363 
L 320.346961 129.909231 
L 320.418314 131.924523 
L 320.703724 147.187067 
L 320.84643 151.735748 
L 320.989135 146.561015 
L 321.13184 141.195751 
L 321.417251 144.511629 
L 321.631309 147.253043 
L 321.774014 145.189343 
L 321.916719 146.841846 
L 322.059425 146.212642 
L 322.273483 157.903612 
L 322.416188 151.750978 
L 322.772951 129.561336 
L 323.27242 154.751423 
L 323.415125 148.23071 
L 323.486478 143.172651 
L 323.55783 144.246743 
L 323.629183 145.04908 
L 323.700536 144.693178 
L 323.843241 143.425899 
L 323.985946 144.378532 
L 324.271357 147.623717 
L 324.414062 145.039866 
L 324.485415 143.185557 
L 324.699473 154.414837 
L 324.842178 150.376591 
L 325.198941 132.456667 
L 325.341647 141.021715 
L 325.555705 152.065264 
L 325.627057 153.928492 
L 325.769762 147.560554 
L 325.912468 134.290761 
L 325.98382 134.973479 
L 326.269231 139.686105 
L 326.483289 138.541423 
L 326.554642 139.35625 
L 326.7687 147.468451 
L 326.911405 144.395506 
L 326.982757 145.567968 
L 327.410873 159.493724 
L 327.696284 139.364653 
L 328.1244 148.538872 
L 328.338458 146.176743 
L 328.40981 149.17727 
L 328.481163 148.757432 
L 328.623868 145.123663 
L 328.695221 145.846774 
L 328.909279 147.985496 
L 328.980632 148.704641 
L 329.051984 148.285401 
L 329.19469 145.472036 
L 329.551453 136.834784 
L 329.622805 136.123185 
L 329.836863 148.115143 
L 329.908216 146.688827 
L 330.264979 129.45476 
L 330.336332 130.206713 
L 330.764448 152.739499 
L 330.8358 152.975548 
L 330.978506 147.927676 
L 331.049858 144.074609 
L 331.121211 145.902843 
L 331.192564 145.704056 
L 331.263916 143.404509 
L 331.335269 144.162718 
L 331.477974 146.402022 
L 331.692032 143.424537 
L 331.834737 145.705382 
L 332.048795 154.094242 
L 332.262853 143.795718 
L 332.334206 143.832442 
L 332.548264 151.765913 
L 332.619617 150.674466 
L 332.905027 137.492826 
L 332.97638 138.359651 
L 333.190438 150.018207 
L 333.26179 149.740469 
L 333.333143 149.712721 
L 333.618554 140.8702 
L 333.689906 138.008164 
L 333.761259 138.552217 
L 334.04667 142.688675 
L 334.118022 142.388588 
L 334.260727 140.339586 
L 334.617491 150.079834 
L 334.974254 139.999672 
L 335.045607 140.287748 
L 335.188312 145.041723 
L 335.259665 143.120777 
L 335.473722 141.301906 
L 335.830486 160.815752 
L 335.973191 153.031619 
L 336.115896 141.023689 
L 336.187249 141.36686 
L 336.401307 145.896927 
L 336.615365 142.713813 
L 336.686718 142.529793 
L 336.75807 142.01972 
L 336.829423 142.256689 
L 336.900775 142.293698 
L 336.972128 141.864185 
L 337.186186 149.113328 
L 337.257539 148.585529 
L 337.542949 132.722501 
L 337.614302 133.528692 
L 337.899713 150.21435 
L 337.971065 147.899796 
L 338.11377 140.370688 
L 338.470534 161.995165 
L 338.613239 152.95015 
L 338.827297 137.717537 
L 338.970002 141.890677 
L 339.112708 146.19103 
L 339.18406 145.829758 
L 339.255413 144.357449 
L 339.326765 144.57856 
L 339.398118 144.683987 
L 339.612176 153.329867 
L 339.683529 153.613179 
L 339.754881 152.681067 
L 340.040292 145.602509 
L 340.25435 139.754226 
L 340.325703 141.021603 
L 340.397055 138.579371 
L 340.468408 138.865992 
L 340.611113 145.446553 
L 340.753818 152.700836 
L 340.825171 151.909926 
L 340.967876 154.234413 
L 341.039229 153.536494 
L 341.181934 144.870734 
L 341.253287 139.254318 
L 341.32464 141.393164 
L 341.61005 151.325027 
L 341.752755 147.826869 
L 341.895461 144.114762 
L 341.966813 144.465141 
L 342.180871 148.058877 
L 342.252224 145.54156 
L 342.323577 147.896601 
L 342.394929 147.51266 
L 342.68034 141.561809 
L 342.751693 143.305013 
L 342.823045 141.741844 
L 342.894398 142.393435 
L 342.96575 141.92699 
L 343.465219 153.877312 
L 343.607924 147.470141 
L 343.679277 143.529486 
L 343.75063 144.149794 
L 343.964688 148.462332 
L 344.178745 142.29262 
L 344.250098 142.61151 
L 344.535509 151.179639 
L 344.678214 146.58304 
L 344.820919 150.143926 
L 345.034977 138.762222 
L 345.10633 138.948539 
L 345.177683 138.235343 
L 345.39174 142.531224 
L 345.534446 148.584425 
L 345.677151 146.170452 
L 345.819856 152.299335 
L 345.962562 145.752896 
L 346.105267 139.364134 
L 346.17662 140.453933 
L 346.46203 152.479603 
L 346.676088 142.633685 
L 346.890146 151.468162 
L 346.961499 153.134856 
L 347.032851 152.736831 
L 347.246909 154.587233 
L 347.53232 133.205119 
L 347.603673 133.071294 
L 347.675025 132.530173 
L 347.960436 155.274625 
L 348.174494 139.822547 
L 348.459904 149.206272 
L 348.60261 148.766196 
L 348.816668 144.404597 
L 348.88802 144.930974 
L 349.030725 149.02462 
L 349.316136 139.655938 
L 349.387489 140.660391 
L 349.672899 156.068582 
L 350.101015 139.422068 
L 350.172368 139.827184 
L 350.24372 141.780188 
L 350.315073 141.141075 
L 350.529131 142.909815 
L 350.671836 148.817844 
L 350.743189 147.761666 
L 350.814542 147.458784 
L 350.957247 149.576938 
L 351.0286 149.406116 
L 351.242658 138.664867 
L 351.528068 156.638856 
L 351.599421 154.221657 
L 351.884831 137.241144 
L 351.956184 138.523712 
L 352.170242 149.958413 
L 352.3843 162.692992 
L 352.455653 159.359344 
L 352.812416 135.616721 
L 352.883768 134.995505 
L 352.955121 136.522197 
L 353.097826 142.155324 
L 353.169179 142.809957 
L 353.240532 140.262571 
L 353.383237 145.1856 
L 353.45459 144.856972 
L 353.668648 138.33634 
L 353.74 138.523563 
L 353.811353 138.424157 
L 353.954058 141.270088 
L 354.168116 152.157014 
L 354.310821 163.19788 
L 354.382174 160.058152 
L 354.667585 137.476185 
L 355.167053 154.039931 
L 355.238406 151.573294 
L 355.309758 155.07949 
L 355.666522 139.020614 
L 355.737874 139.850585 
L 355.88058 141.410721 
L 355.951932 141.100816 
L 356.094638 135.176806 
L 356.16599 137.279685 
L 356.237343 137.807167 
L 356.308696 136.479494 
L 356.380048 138.772203 
L 356.451401 138.425568 
L 356.736811 129.042396 
L 356.808164 129.534122 
L 356.950869 137.796086 
L 357.164927 165.861292 
L 357.23628 165.097954 
L 357.521691 140.98035 
L 357.878454 149.634581 
L 358.092512 144.331854 
L 358.235217 148.656863 
L 358.30657 147.974012 
L 358.449275 145.42911 
L 358.520628 145.799286 
L 358.59198 147.300958 
L 358.663333 147.180798 
L 358.734686 147.177671 
L 358.877391 146.885955 
L 358.948743 145.540823 
L 359.020096 141.606456 
L 359.091449 141.847225 
L 359.234154 145.974254 
L 359.519565 153.364206 
L 359.66227 150.001989 
L 359.876328 134.07725 
L 359.947681 135.020855 
L 360.090386 142.785821 
L 360.233091 155.261079 
L 360.304444 155.161007 
L 360.518502 144.712985 
L 360.661207 140.376032 
L 360.73256 139.173844 
L 360.875265 143.810249 
L 361.01797 148.690815 
L 361.232028 150.167984 
L 361.446086 144.90418 
L 361.874202 155.813701 
L 362.016907 151.372028 
L 362.302318 133.991319 
L 362.373671 135.824876 
L 362.445023 138.188546 
L 362.730434 158.425117 
L 362.801786 157.708367 
L 362.944492 149.877832 
L 363.15855 135.729195 
L 363.301255 143.122076 
L 363.44396 152.040419 
L 363.515313 152.378134 
L 363.586666 151.703175 
L 363.800723 141.615527 
L 363.872076 141.693861 
L 364.157487 154.098851 
L 364.228839 153.992924 
L 364.371545 149.149588 
L 364.656955 141.516464 
L 364.728308 142.533535 
L 365.085071 162.478699 
L 365.156424 161.407424 
L 365.58454 138.342405 
L 365.727245 144.369986 
L 365.86995 149.524097 
L 366.155361 151.802365 
L 366.226714 151.666165 
L 366.440771 157.03018 
L 366.583477 151.790301 
L 366.726182 145.091015 
L 366.94024 151.621954 
L 367.297003 139.719207 
L 367.368356 139.852244 
L 367.582414 154.42237 
L 367.653766 154.20527 
L 367.867824 147.025621 
L 368.081882 151.296303 
L 368.153235 150.600011 
L 368.224588 151.670533 
L 368.29594 151.604013 
L 368.438646 148.423326 
L 368.509998 148.301985 
L 368.581351 149.124722 
L 368.652704 148.796689 
L 368.724056 148.078512 
L 368.938114 138.838954 
L 369.080819 140.626169 
L 369.223525 149.040107 
L 369.437583 162.787605 
L 369.580288 158.777478 
L 369.865699 138.510575 
L 370.079756 145.153957 
L 370.293814 153.547842 
L 370.365167 153.302831 
L 370.507872 147.456004 
L 370.72193 137.908064 
L 370.793283 138.453311 
L 371.150046 151.886636 
L 371.292751 148.13866 
L 371.435457 144.372469 
L 371.506809 145.495725 
L 371.578162 144.628625 
L 371.649515 145.733256 
L 371.863573 153.61116 
L 372.006278 150.566112 
L 372.291689 134.727346 
L 372.434394 140.223599 
L 372.648452 157.354175 
L 372.719804 158.112283 
L 372.86251 151.054801 
L 373.14792 132.441722 
L 373.576036 151.749935 
L 373.861447 144.455187 
L 373.932799 145.196621 
L 374.004152 145.11816 
L 374.075505 145.343346 
L 374.289563 152.114767 
L 374.503621 146.016522 
L 374.717679 135.771652 
L 375.145794 154.369603 
L 375.217147 153.616006 
L 375.57391 135.91572 
L 375.645263 136.794458 
L 375.930674 150.376847 
L 376.002026 150.46377 
L 376.216084 145.079665 
L 376.287437 145.839156 
L 376.358789 146.435914 
L 376.430142 144.249449 
L 376.501495 144.264435 
L 376.715553 151.127125 
L 376.858258 153.026141 
L 377.000963 145.17082 
L 377.215021 133.688203 
L 377.357726 141.29325 
L 377.643137 155.998142 
L 377.928548 139.445102 
L 377.9999 140.992741 
L 378.213958 151.142004 
L 378.570721 142.1817 
L 378.642074 143.201291 
L 378.856132 148.755268 
L 378.998837 143.973289 
L 379.355601 150.703602 
L 379.426953 152.193918 
L 379.569659 149.645775 
L 379.783717 135.529727 
L 379.855069 135.847259 
L 379.926422 136.098864 
L 380.211832 157.978336 
L 380.283185 157.827743 
L 380.497243 145.415418 
L 380.711301 135.720107 
L 381.139417 152.906914 
L 381.210769 151.614835 
L 381.424827 144.45346 
L 381.49618 144.745604 
L 381.567533 144.031142 
L 381.638885 145.264929 
L 381.924296 156.204732 
L 381.995649 155.807147 
L 382.352412 139.446813 
L 382.423764 141.254443 
L 382.637822 162.785367 
L 382.709175 162.535808 
L 382.923233 142.709963 
L 383.137291 129.034794 
L 383.422702 152.898705 
L 383.494054 152.580012 
L 383.565407 154.089578 
L 383.850817 146.159719 
L 383.92217 148.115352 
L 384.207581 164.14639 
L 384.350286 150.396367 
L 384.564344 132.850332 
L 384.635697 133.88311 
L 384.921107 156.99279 
L 384.99246 157.615573 
L 385.063812 155.46532 
L 385.135165 155.918772 
L 385.206518 157.003786 
L 385.27787 156.319651 
L 385.420576 145.842572 
L 385.705986 156.227956 
L 385.777339 155.681925 
L 385.991397 144.925996 
L 386.062749 145.069865 
L 386.276807 156.543248 
L 386.34816 155.013071 
L 386.490865 151.892611 
L 386.633571 146.785433 
L 387.061687 159.836774 
L 387.133039 158.856339 
L 387.41845 146.922516 
L 387.489802 148.785756 
L 387.70386 154.580687 
L 388.060624 141.024132 
L 388.131976 141.797401 
L 388.203329 141.477906 
L 388.274682 136.110357 
L 388.417387 147.708035 
L 388.560092 160.403371 
L 388.631445 159.036011 
L 388.77415 144.690803 
L 388.988208 123.165095 
L 389.059561 126.572458 
L 389.273619 149.474097 
L 389.416324 154.177245 
L 389.487677 154.701075 
L 389.630382 146.55853 
L 389.773087 131.252911 
L 389.84444 132.239792 
L 390.201203 155.778436 
L 390.557966 131.023105 
L 390.914729 150.435708 
L 390.986082 150.78611 
L 391.128787 147.79453 
L 391.20014 148.526037 
L 391.342845 142.456382 
L 391.414198 142.807924 
L 391.485551 143.239567 
L 391.628256 146.707869 
L 391.699609 152.442311 
L 391.770961 151.516814 
L 392.199077 136.473275 
L 392.698546 154.21876 
L 392.769898 153.969922 
L 392.841251 152.527542 
L 393.055309 139.588386 
L 393.126662 139.654378 
L 393.269367 137.174756 
L 393.412072 146.335786 
L 393.62613 155.536481 
L 393.697483 154.86921 
L 393.911541 147.438288 
L 394.054246 138.797623 
L 394.268304 153.707342 
L 394.339657 153.591196 
L 394.411009 153.865934 
L 394.553715 139.596863 
L 394.625067 140.773022 
L 394.98183 152.589338 
L 395.338594 140.876338 
L 395.409946 143.247725 
L 395.552652 135.730245 
L 395.624004 138.418292 
L 395.980767 152.909816 
L 396.123473 150.191206 
L 396.337531 137.468156 
L 396.480236 141.688361 
L 396.836999 154.628899 
L 397.051057 141.964316 
L 397.12241 144.369458 
L 397.336468 139.279113 
L 397.479173 148.747655 
L 397.621878 156.819828 
L 397.764584 142.144703 
L 397.978642 150.363115 
L 398.049994 148.639593 
L 398.121347 147.675608 
L 398.264052 140.574773 
L 398.406757 131.378901 
L 398.47811 133.639594 
L 398.620815 150.633243 
L 398.692168 150.147504 
L 398.834873 143.140961 
L 398.906226 145.064291 
L 398.977579 152.684282 
L 399.048931 148.480439 
L 399.262989 134.182992 
L 399.5484 172.677373 
L 399.619752 169.672751 
L 399.976516 123.838158 
L 400.047868 128.047894 
L 400.261926 149.842938 
L 400.475984 159.557818 
L 400.547337 157.726539 
L 400.761395 135.45494 
L 400.9041 145.689446 
L 401.046805 144.887721 
L 401.260863 147.720114 
L 401.403569 146.233021 
L 401.617627 143.796686 
L 401.831685 153.707384 
L 401.903037 152.802331 
L 402.402506 135.586871 
L 402.473858 142.110332 
L 402.545211 139.393181 
L 402.616564 133.672732 
L 402.973327 161.905893 
L 403.33009 131.953811 
L 403.401443 136.806157 
L 403.544148 157.089346 
L 403.686853 154.085909 
L 403.900911 140.899384 
L 403.972264 144.333097 
L 404.043617 142.7003 
L 404.186322 151.8581 
L 404.257675 161.467927 
L 404.614438 134.324071 
L 404.971201 160.894917 
L 405.042554 156.174674 
L 405.113906 154.906566 
L 405.327964 136.104631 
L 405.399317 135.700247 
L 405.684727 150.482194 
L 405.827433 156.326708 
L 406.041491 139.491138 
L 406.112843 148.71772 
L 406.184196 147.866804 
L 406.255549 145.995396 
L 406.326901 146.837863 
L 406.398254 146.801425 
L 406.540959 147.766364 
L 406.612312 147.636261 
L 406.897722 145.51798 
L 407.11178 146.569531 
L 407.325838 144.365397 
L 407.468544 147.501744 
L 407.753954 160.179258 
L 407.968012 130.06814 
L 408.039365 130.500117 
L 408.18207 141.989182 
L 408.253423 154.579836 
L 408.324775 148.243246 
L 408.467481 150.934153 
L 408.538833 150.085311 
L 408.681539 141.720024 
L 408.752891 152.352338 
L 408.824244 149.920949 
L 409.109655 140.191491 
L 409.181007 143.221947 
L 409.25236 153.448521 
L 409.395065 143.451838 
L 409.53777 144.535936 
L 409.609123 156.189727 
L 409.680476 149.699766 
L 409.965886 139.361125 
L 410.037239 139.084175 
L 410.251297 149.736912 
L 410.394002 167.225196 
L 410.536708 142.508017 
L 410.679413 142.743997 
L 410.750765 142.773287 
L 410.822118 141.499763 
L 411.107529 156.733535 
L 411.321587 138.34949 
L 411.392939 149.997293 
L 411.464292 147.583186 
L 411.535645 144.656883 
L 411.606997 144.698123 
L 411.67835 144.681583 
L 412.035113 148.555184 
L 412.106466 148.480352 
L 412.177818 148.924304 
L 412.463229 145.832183 
L 412.677287 147.545019 
L 412.74864 148.965061 
L 412.819992 141.325725 
L 412.891345 143.833702 
L 412.962698 145.777935 
L 413.03405 155.042292 
L 413.248108 136.838433 
L 413.462166 141.656324 
L 413.533519 150.562999 
L 413.604871 141.429731 
L 413.676224 145.959536 
L 413.747577 152.432402 
L 413.961635 142.882126 
L 414.032987 153.251854 
L 414.10434 148.055492 
L 414.318398 138.012989 
L 414.38975 138.045063 
L 414.461103 142.193205 
L 414.532456 156.636366 
L 414.603808 149.320804 
L 414.675161 147.917869 
L 414.746514 149.410137 
L 414.817866 148.107791 
L 414.889219 159.495731 
L 415.031924 150.280017 
L 415.245982 147.935523 
L 415.388688 151.308266 
L 415.46004 145.099644 
L 415.674098 155.810092 
L 415.816803 129.691355 
L 415.888156 140.696909 
L 415.959509 137.25827 
L 416.244919 153.14128 
L 416.387625 161.094232 
L 416.601683 144.593728 
L 416.673035 156.654714 
L 416.744388 151.845902 
L 416.958446 144.095253 
L 417.101151 142.449975 
L 417.315209 147.12708 
L 417.529267 138.904593 
L 417.743325 167.325608 
L 417.814678 170.43283 
L 418.028735 156.424255 
L 418.171441 138.50519 
L 418.242793 139.086523 
L 418.314146 158.935528 
L 418.385499 152.231108 
L 418.528204 142.703656 
L 418.670909 156.592755 
L 418.742262 157.473675 
L 418.813615 175.748067 
L 418.884967 174.692978 
L 419.027673 184.599764 
L 419.24173 159.831708 
L 419.313083 171.113392 
L 419.455788 161.200906 
L 419.669846 168.459178 
L 419.741199 161.099597 
L 419.812552 170.307295 
L 420.097962 144.114912 
L 420.31202 156.029456 
L 420.454725 152.898254 
L 420.740136 132.528584 
L 420.954194 149.404163 
L 421.025547 156.645556 
L 421.096899 147.800925 
L 421.168252 150.109513 
L 421.239605 150.364487 
L 421.453663 144.59511 
L 421.525015 146.190281 
L 421.596368 143.796314 
L 421.66772 157.858218 
L 421.739073 157.167755 
L 421.810426 154.329328 
L 421.881778 154.740572 
L 421.953131 155.893784 
L 422.095836 142.597966 
L 422.4526 103.496233 
L 422.523952 104.277772 
L 422.595305 100.269852 
L 422.666658 102.488066 
L 422.809363 92.919786 
L 422.880716 101.201275 
L 422.952068 96.26454 
L 423.094773 109.090117 
L 423.308831 153.359687 
L 423.451537 142.452509 
L 423.522889 143.589293 
L 423.665595 151.496874 
L 423.736947 149.024217 
L 423.8083 150.504735 
L 423.879653 163.042435 
L 423.951005 157.191099 
L 424.022358 151.730758 
L 424.093711 137.547545 
L 424.165063 140.842873 
L 424.236416 140.1399 
L 424.450474 155.777551 
L 424.521826 153.616232 
L 424.593179 155.000071 
L 424.664532 160.290083 
L 424.807237 145.19193 
L 425.021295 124.802308 
L 425.092648 126.637011 
L 425.306706 145.200177 
L 425.378058 144.048176 
L 425.520763 148.999805 
L 425.663469 127.956712 
L 425.806174 134.00226 
L 425.948879 148.756141 
L 426.020232 133.886092 
L 426.23429 151.937992 
L 426.305643 152.868888 
L 426.376995 144.103221 
L 426.448348 144.587784 
L 426.519701 158.998167 
L 426.733758 141.126926 
L 426.805111 135.01108 
L 426.947816 155.854053 
L 427.019169 136.323516 
L 427.090522 137.509462 
L 427.233227 142.011357 
L 427.447285 148.822112 
L 427.518638 145.670591 
L 427.661343 154.288129 
L 427.732696 153.18079 
L 427.804048 142.431506 
L 427.875401 147.001683 
L 427.946753 146.27754 
L 428.089459 139.9621 
L 428.160811 146.344638 
L 428.303517 126.544184 
L 428.446222 144.976758 
L 428.517575 143.949949 
L 428.66028 149.213299 
L 428.802985 138.492476 
L 429.088396 156.734407 
L 429.159748 176.780186 
L 429.445159 129.123328 
L 429.516512 129.51647 
L 429.873275 158.909119 
L 430.230038 123.225496 
L 430.301391 126.926701 
L 430.372743 142.450351 
L 430.444096 140.353499 
L 430.586801 149.589893 
L 430.658154 142.09519 
L 430.729507 142.412652 
L 430.800859 143.453885 
L 430.943565 126.550796 
L 431.228975 155.72013 
L 431.300328 149.370456 
L 431.371681 153.430053 
L 431.657091 129.977947 
L 431.728444 132.948527 
L 431.799796 151.270002 
L 431.871149 141.952215 
L 432.013854 158.508063 
L 432.085207 151.769046 
L 432.15656 152.10193 
L 432.227912 155.306088 
L 432.299265 146.291649 
L 432.370618 146.347657 
L 432.44197 144.78079 
L 432.656028 149.459293 
L 432.727381 146.950454 
L 432.870086 137.627088 
L 432.941439 138.807635 
L 433.012791 145.34395 
L 433.084144 143.165655 
L 433.226849 145.096822 
L 433.298202 136.714777 
L 433.369555 138.423029 
L 433.440907 147.130376 
L 433.51226 127.858676 
L 433.726318 159.596766 
L 433.797671 158.524304 
L 433.869023 161.879067 
L 434.083081 138.539605 
L 434.225786 141.407492 
L 434.297139 128.309744 
L 434.439844 162.069796 
L 434.511197 144.889537 
L 434.58255 146.883129 
L 434.653902 153.105326 
L 434.796608 130.495093 
L 434.939313 144.499528 
L 435.010666 134.262377 
L 435.153371 152.996961 
L 435.367429 176.262291 
L 435.581487 158.752128 
L 435.652839 162.344742 
L 435.795545 132.490148 
L 435.93825 146.494806 
L 436.009603 144.912235 
L 436.080955 151.384277 
L 436.152308 132.564911 
L 436.223661 132.728324 
L 436.437719 156.9991 
L 436.509071 163.110056 
L 436.723129 143.454914 
L 436.794482 136.990442 
L 436.865834 144.61712 
L 436.937187 139.266319 
L 437.079892 170.572937 
L 437.222598 151.972201 
L 437.29395 160.777706 
L 437.436656 130.080341 
L 437.508008 141.10291 
L 437.579361 135.808999 
L 437.650714 138.272561 
L 437.936124 161.218094 
L 438.007477 161.73574 
L 438.221535 136.029053 
L 438.292887 143.016555 
L 438.435593 128.782524 
L 438.506945 141.914692 
L 438.578298 140.333486 
L 438.649651 140.266993 
L 438.721003 139.375869 
L 438.863709 103.608486 
L 439.149119 148.697861 
L 439.291824 156.579263 
L 439.43453 130.53118 
L 439.577235 136.215794 
L 439.71994 176.712484 
L 439.862646 148.284401 
L 439.933998 158.243316 
L 440.076704 138.514414 
L 440.148056 138.732078 
L 440.290761 154.84578 
L 440.433467 158.191368 
L 440.576172 139.657023 
L 440.647525 148.124553 
L 440.861583 121.738445 
L 441.004288 157.899999 
L 441.218346 134.658494 
L 441.503756 78.92734 
L 441.789167 157.752513 
L 441.931872 180.479577 
L 442.217283 124.066425 
L 442.288636 122.013528 
L 442.502694 66.141261 
L 442.645399 114.29087 
L 442.716751 89.945796 
L 442.788104 90.164377 
L 442.930809 159.408386 
L 443.002162 152.14629 
L 443.073515 123.966575 
L 443.144867 136.211842 
L 443.21622 168.486118 
L 443.501631 106.942508 
L 443.715689 102.459777 
L 443.787041 111.725066 
L 443.929746 160.377546 
L 444.072452 141.916108 
L 444.143804 149.37853 
L 444.215157 193.868479 
L 444.28651 175.537657 
L 444.500568 216.694959 
L 444.714626 144.691886 
L 444.928684 117.923015 
L 445.000036 116.031659 
L 445.071389 110.46476 
L 445.142741 93.624952 
L 445.142741 93.624952 
" clip-path="url(#p0073ac46e8)" style="fill: none; stroke: #1f77b4; stroke-width: 1.5; stroke-linecap: square"/>
   </g>
   <g id="patch_3">
    <path d="M 104.255469 279.010828 
L 104.255469 12.898828 
" style="fill: none; stroke: #000000; stroke-width: 0.8; stroke-linejoin: miter; stroke-linecap: square"/>
   </g>
   <g id="patch_4">
    <path d="M 461.375469 279.010828 
L 461.375469 12.898828 
" style="fill: none; stroke: #000000; stroke-width: 0.8; stroke-linejoin: miter; stroke-linecap: square"/>
   </g>
   <g id="patch_5">
    <path d="M 104.255469 279.010828 
L 461.375469 279.010828 
" style="fill: none; stroke: #000000; stroke-width: 0.8; stroke-linejoin: miter; stroke-linecap: square"/>
   </g>
   <g id="patch_6">
    <path d="M 104.255469 12.898828 
L 461.375469 12.898828 
" style="fill: none; stroke: #000000; stroke-width: 0.8; stroke-linejoin: miter; stroke-linecap: square"/>
   </g>
  </g>
 </g>
 <defs>
  <clipPath id="p0073ac46e8">
   <rect x="104.255469" y="12.898828" width="357.12" height="266.112"/>
  </clipPath>
 </defs>
</svg>
