<?xml version="1.0" encoding="utf-8" standalone="no"?>
<!DOCTYPE svg PUBLIC "-//W3C//DTD SVG 1.1//EN"
  "http://www.w3.org/Graphics/SVG/1.1/DTD/svg11.dtd">
<svg xmlns:xlink="http://www.w3.org/1999/xlink" width="433.533281pt" height="325.429187pt" viewBox="0 0 433.533281 325.429187" xmlns="http://www.w3.org/2000/svg" version="1.1">
 <defs>
  <style type="text/css">*{stroke-linejoin: round; stroke-linecap: butt}</style>
 </defs>
 <g id="figure_1">
  <g id="patch_1">
   <path d="M 0 325.429187 
L 433.533281 325.429187 
L 433.533281 0 
L 0 0 
L 0 325.429187 
z
" style="fill: none"/>
  </g>
  <g id="axes_1">
   <g id="patch_2">
    <path d="M 69.213281 273.312 
L 426.333281 273.312 
L 426.333281 7.2 
L 69.213281 7.2 
L 69.213281 273.312 
z
" style="fill: none"/>
   </g>
   <g id="matplotlib.axis_1">
    <g id="xtick_1">
     <g id="line2d_1">
      <path d="M 101.143591 273.312 
L 101.143591 7.2 
" clip-path="url(#pc6a415eb61)" style="fill: none; stroke: #b0b0b0; stroke-width: 0.8; stroke-linecap: square"/>
     </g>
     <g id="line2d_2">
      <defs>
       <path id="md39032bed2" d="M 0 0 
L 0 3.5 
" style="stroke: #000000; stroke-width: 0.8"/>
      </defs>
      <g>
       <use xlink:href="#md39032bed2" x="101.143591" y="273.312" style="stroke: #000000; stroke-width: 0.8"/>
      </g>
     </g>
     <g id="text_1">
      <!-- −3000 -->
      <g transform="translate(75.771325 291.709656)scale(0.15 -0.15)">
       <defs>
        <path id="DejaVuSans-2212" d="M 678 2272 
L 4684 2272 
L 4684 1741 
L 678 1741 
L 678 2272 
z
" transform="scale(0.015625)"/>
        <path id="DejaVuSans-33" d="M 2597 2516 
Q 3050 2419 3304 2112 
Q 3559 1806 3559 1356 
Q 3559 666 3084 287 
Q 2609 -91 1734 -91 
Q 1441 -91 1130 -33 
Q 819 25 488 141 
L 488 750 
Q 750 597 1062 519 
Q 1375 441 1716 441 
Q 2309 441 2620 675 
Q 2931 909 2931 1356 
Q 2931 1769 2642 2001 
Q 2353 2234 1838 2234 
L 1294 2234 
L 1294 2753 
L 1863 2753 
Q 2328 2753 2575 2939 
Q 2822 3125 2822 3475 
Q 2822 3834 2567 4026 
Q 2313 4219 1838 4219 
Q 1578 4219 1281 4162 
Q 984 4106 628 3988 
L 628 4550 
Q 988 4650 1302 4700 
Q 1616 4750 1894 4750 
Q 2613 4750 3031 4423 
Q 3450 4097 3450 3541 
Q 3450 3153 3228 2886 
Q 3006 2619 2597 2516 
z
" transform="scale(0.015625)"/>
        <path id="DejaVuSans-30" d="M 2034 4250 
Q 1547 4250 1301 3770 
Q 1056 3291 1056 2328 
Q 1056 1369 1301 889 
Q 1547 409 2034 409 
Q 2525 409 2770 889 
Q 3016 1369 3016 2328 
Q 3016 3291 2770 3770 
Q 2525 4250 2034 4250 
z
M 2034 4750 
Q 2819 4750 3233 4129 
Q 3647 3509 3647 2328 
Q 3647 1150 3233 529 
Q 2819 -91 2034 -91 
Q 1250 -91 836 529 
Q 422 1150 422 2328 
Q 422 3509 836 4129 
Q 1250 4750 2034 4750 
z
" transform="scale(0.015625)"/>
       </defs>
       <use xlink:href="#DejaVuSans-2212"/>
       <use xlink:href="#DejaVuSans-33" x="83.789062"/>
       <use xlink:href="#DejaVuSans-30" x="147.412109"/>
       <use xlink:href="#DejaVuSans-30" x="211.035156"/>
       <use xlink:href="#DejaVuSans-30" x="274.658203"/>
      </g>
     </g>
    </g>
    <g id="xtick_2">
     <g id="line2d_3">
      <path d="M 172.496238 273.312 
L 172.496238 7.2 
" clip-path="url(#pc6a415eb61)" style="fill: none; stroke: #b0b0b0; stroke-width: 0.8; stroke-linecap: square"/>
     </g>
     <g id="line2d_4">
      <g>
       <use xlink:href="#md39032bed2" x="172.496238" y="273.312" style="stroke: #000000; stroke-width: 0.8"/>
      </g>
     </g>
     <g id="text_2">
      <!-- −2000 -->
      <g transform="translate(147.123973 291.709656)scale(0.15 -0.15)">
       <defs>
        <path id="DejaVuSans-32" d="M 1228 531 
L 3431 531 
L 3431 0 
L 469 0 
L 469 531 
Q 828 903 1448 1529 
Q 2069 2156 2228 2338 
Q 2531 2678 2651 2914 
Q 2772 3150 2772 3378 
Q 2772 3750 2511 3984 
Q 2250 4219 1831 4219 
Q 1534 4219 1204 4116 
Q 875 4013 500 3803 
L 500 4441 
Q 881 4594 1212 4672 
Q 1544 4750 1819 4750 
Q 2544 4750 2975 4387 
Q 3406 4025 3406 3419 
Q 3406 3131 3298 2873 
Q 3191 2616 2906 2266 
Q 2828 2175 2409 1742 
Q 1991 1309 1228 531 
z
" transform="scale(0.015625)"/>
       </defs>
       <use xlink:href="#DejaVuSans-2212"/>
       <use xlink:href="#DejaVuSans-32" x="83.789062"/>
       <use xlink:href="#DejaVuSans-30" x="147.412109"/>
       <use xlink:href="#DejaVuSans-30" x="211.035156"/>
       <use xlink:href="#DejaVuSans-30" x="274.658203"/>
      </g>
     </g>
    </g>
    <g id="xtick_3">
     <g id="line2d_5">
      <path d="M 243.848886 273.312 
L 243.848886 7.2 
" clip-path="url(#pc6a415eb61)" style="fill: none; stroke: #b0b0b0; stroke-width: 0.8; stroke-linecap: square"/>
     </g>
     <g id="line2d_6">
      <g>
       <use xlink:href="#md39032bed2" x="243.848886" y="273.312" style="stroke: #000000; stroke-width: 0.8"/>
      </g>
     </g>
     <g id="text_3">
      <!-- −1000 -->
      <g transform="translate(218.47662 291.709656)scale(0.15 -0.15)">
       <defs>
        <path id="DejaVuSans-31" d="M 794 531 
L 1825 531 
L 1825 4091 
L 703 3866 
L 703 4441 
L 1819 4666 
L 2450 4666 
L 2450 531 
L 3481 531 
L 3481 0 
L 794 0 
L 794 531 
z
" transform="scale(0.015625)"/>
       </defs>
       <use xlink:href="#DejaVuSans-2212"/>
       <use xlink:href="#DejaVuSans-31" x="83.789062"/>
       <use xlink:href="#DejaVuSans-30" x="147.412109"/>
       <use xlink:href="#DejaVuSans-30" x="211.035156"/>
       <use xlink:href="#DejaVuSans-30" x="274.658203"/>
      </g>
     </g>
    </g>
    <g id="xtick_4">
     <g id="line2d_7">
      <path d="M 315.201533 273.312 
L 315.201533 7.2 
" clip-path="url(#pc6a415eb61)" style="fill: none; stroke: #b0b0b0; stroke-width: 0.8; stroke-linecap: square"/>
     </g>
     <g id="line2d_8">
      <g>
       <use xlink:href="#md39032bed2" x="315.201533" y="273.312" style="stroke: #000000; stroke-width: 0.8"/>
      </g>
     </g>
     <g id="text_4">
      <!-- 0 -->
      <g transform="translate(310.429658 291.709656)scale(0.15 -0.15)">
       <use xlink:href="#DejaVuSans-30"/>
      </g>
     </g>
    </g>
    <g id="xtick_5">
     <g id="line2d_9">
      <path d="M 386.55418 273.312 
L 386.55418 7.2 
" clip-path="url(#pc6a415eb61)" style="fill: none; stroke: #b0b0b0; stroke-width: 0.8; stroke-linecap: square"/>
     </g>
     <g id="line2d_10">
      <g>
       <use xlink:href="#md39032bed2" x="386.55418" y="273.312" style="stroke: #000000; stroke-width: 0.8"/>
      </g>
     </g>
     <g id="text_5">
      <!-- 1000 -->
      <g transform="translate(367.46668 291.709656)scale(0.15 -0.15)">
       <use xlink:href="#DejaVuSans-31"/>
       <use xlink:href="#DejaVuSans-30" x="63.623047"/>
       <use xlink:href="#DejaVuSans-30" x="127.246094"/>
       <use xlink:href="#DejaVuSans-30" x="190.869141"/>
      </g>
     </g>
    </g>
    <g id="text_6">
     <!-- X ($\mu m$) -->
     <g transform="translate(213.773281 314.029187)scale(0.2 -0.2)">
      <defs>
       <path id="DejaVuSans-58" d="M 403 4666 
L 1081 4666 
L 2241 2931 
L 3406 4666 
L 4084 4666 
L 2584 2425 
L 4184 0 
L 3506 0 
L 2194 1984 
L 872 0 
L 191 0 
L 1856 2491 
L 403 4666 
z
" transform="scale(0.015625)"/>
       <path id="DejaVuSans-20" transform="scale(0.015625)"/>
       <path id="DejaVuSans-28" d="M 1984 4856 
Q 1566 4138 1362 3434 
Q 1159 2731 1159 2009 
Q 1159 1288 1364 580 
Q 1569 -128 1984 -844 
L 1484 -844 
Q 1016 -109 783 600 
Q 550 1309 550 2009 
Q 550 2706 781 3412 
Q 1013 4119 1484 4856 
L 1984 4856 
z
" transform="scale(0.015625)"/>
       <path id="DejaVuSans-Oblique-3bc" d="M -84 -1331 
L 856 3500 
L 1434 3500 
L 1009 1322 
Q 997 1256 987 1175 
Q 978 1094 978 1013 
Q 978 722 1161 565 
Q 1344 409 1684 409 
Q 2147 409 2431 671 
Q 2716 934 2816 1459 
L 3213 3500 
L 3788 3500 
L 3266 809 
Q 3253 750 3248 706 
Q 3244 663 3244 628 
Q 3244 531 3283 486 
Q 3322 441 3406 441 
Q 3438 441 3492 456 
Q 3547 472 3647 513 
L 3559 50 
Q 3422 -19 3297 -55 
Q 3172 -91 3053 -91 
Q 2847 -91 2730 40 
Q 2613 172 2613 403 
Q 2438 153 2195 31 
Q 1953 -91 1625 -91 
Q 1334 -91 1117 43 
Q 900 178 831 397 
L 494 -1331 
L -84 -1331 
z
" transform="scale(0.015625)"/>
       <path id="DejaVuSans-Oblique-6d" d="M 5747 2113 
L 5338 0 
L 4763 0 
L 5166 2094 
Q 5191 2228 5203 2325 
Q 5216 2422 5216 2491 
Q 5216 2772 5059 2928 
Q 4903 3084 4622 3084 
Q 4203 3084 3875 2770 
Q 3547 2456 3450 1953 
L 3066 0 
L 2491 0 
L 2900 2094 
Q 2925 2209 2937 2307 
Q 2950 2406 2950 2484 
Q 2950 2769 2794 2926 
Q 2638 3084 2363 3084 
Q 1938 3084 1609 2770 
Q 1281 2456 1184 1953 
L 800 0 
L 225 0 
L 909 3500 
L 1484 3500 
L 1375 2956 
Q 1609 3263 1923 3423 
Q 2238 3584 2597 3584 
Q 2978 3584 3223 3384 
Q 3469 3184 3519 2828 
Q 3781 3197 4126 3390 
Q 4472 3584 4856 3584 
Q 5306 3584 5551 3325 
Q 5797 3066 5797 2591 
Q 5797 2488 5784 2364 
Q 5772 2241 5747 2113 
z
" transform="scale(0.015625)"/>
       <path id="DejaVuSans-29" d="M 513 4856 
L 1013 4856 
Q 1481 4119 1714 3412 
Q 1947 2706 1947 2009 
Q 1947 1309 1714 600 
Q 1481 -109 1013 -844 
L 513 -844 
Q 928 -128 1133 580 
Q 1338 1288 1338 2009 
Q 1338 2731 1133 3434 
Q 928 4138 513 4856 
z
" transform="scale(0.015625)"/>
      </defs>
      <use xlink:href="#DejaVuSans-58" transform="translate(0 0.125)"/>
      <use xlink:href="#DejaVuSans-20" transform="translate(68.505859 0.125)"/>
      <use xlink:href="#DejaVuSans-28" transform="translate(100.292969 0.125)"/>
      <use xlink:href="#DejaVuSans-Oblique-3bc" transform="translate(139.306641 0.125)"/>
      <use xlink:href="#DejaVuSans-Oblique-6d" transform="translate(202.929688 0.125)"/>
      <use xlink:href="#DejaVuSans-29" transform="translate(300.341797 0.125)"/>
     </g>
    </g>
   </g>
   <g id="matplotlib.axis_2">
    <g id="ytick_1">
     <g id="line2d_11">
      <path d="M 69.213281 224.304113 
L 426.333281 224.304113 
" clip-path="url(#pc6a415eb61)" style="fill: none; stroke: #b0b0b0; stroke-width: 0.8; stroke-linecap: square"/>
     </g>
     <g id="line2d_12">
      <defs>
       <path id="m6f3f5b6aff" d="M 0 0 
L -3.5 0 
" style="stroke: #000000; stroke-width: 0.8"/>
      </defs>
      <g>
       <use xlink:href="#m6f3f5b6aff" x="69.213281" y="224.304113" style="stroke: #000000; stroke-width: 0.8"/>
      </g>
     </g>
     <g id="text_7">
      <!-- −50 -->
      <g transform="translate(30.55625 230.002941)scale(0.15 -0.15)">
       <defs>
        <path id="DejaVuSans-35" d="M 691 4666 
L 3169 4666 
L 3169 4134 
L 1269 4134 
L 1269 2991 
Q 1406 3038 1543 3061 
Q 1681 3084 1819 3084 
Q 2600 3084 3056 2656 
Q 3513 2228 3513 1497 
Q 3513 744 3044 326 
Q 2575 -91 1722 -91 
Q 1428 -91 1123 -41 
Q 819 9 494 109 
L 494 744 
Q 775 591 1075 516 
Q 1375 441 1709 441 
Q 2250 441 2565 725 
Q 2881 1009 2881 1497 
Q 2881 1984 2565 2268 
Q 2250 2553 1709 2553 
Q 1456 2553 1204 2497 
Q 953 2441 691 2322 
L 691 4666 
z
" transform="scale(0.015625)"/>
       </defs>
       <use xlink:href="#DejaVuSans-2212"/>
       <use xlink:href="#DejaVuSans-35" x="83.789062"/>
       <use xlink:href="#DejaVuSans-30" x="147.412109"/>
      </g>
     </g>
    </g>
    <g id="ytick_2">
     <g id="line2d_13">
      <path d="M 69.213281 169.450868 
L 426.333281 169.450868 
" clip-path="url(#pc6a415eb61)" style="fill: none; stroke: #b0b0b0; stroke-width: 0.8; stroke-linecap: square"/>
     </g>
     <g id="line2d_14">
      <g>
       <use xlink:href="#m6f3f5b6aff" x="69.213281" y="169.450868" style="stroke: #000000; stroke-width: 0.8"/>
      </g>
     </g>
     <g id="text_8">
      <!-- 0 -->
      <g transform="translate(52.669531 175.149696)scale(0.15 -0.15)">
       <use xlink:href="#DejaVuSans-30"/>
      </g>
     </g>
    </g>
    <g id="ytick_3">
     <g id="line2d_15">
      <path d="M 69.213281 114.597623 
L 426.333281 114.597623 
" clip-path="url(#pc6a415eb61)" style="fill: none; stroke: #b0b0b0; stroke-width: 0.8; stroke-linecap: square"/>
     </g>
     <g id="line2d_16">
      <g>
       <use xlink:href="#m6f3f5b6aff" x="69.213281" y="114.597623" style="stroke: #000000; stroke-width: 0.8"/>
      </g>
     </g>
     <g id="text_9">
      <!-- 50 -->
      <g transform="translate(43.125781 120.296451)scale(0.15 -0.15)">
       <use xlink:href="#DejaVuSans-35"/>
       <use xlink:href="#DejaVuSans-30" x="63.623047"/>
      </g>
     </g>
    </g>
    <g id="ytick_4">
     <g id="line2d_17">
      <path d="M 69.213281 59.744378 
L 426.333281 59.744378 
" clip-path="url(#pc6a415eb61)" style="fill: none; stroke: #b0b0b0; stroke-width: 0.8; stroke-linecap: square"/>
     </g>
     <g id="line2d_18">
      <g>
       <use xlink:href="#m6f3f5b6aff" x="69.213281" y="59.744378" style="stroke: #000000; stroke-width: 0.8"/>
      </g>
     </g>
     <g id="text_10">
      <!-- 100 -->
      <g transform="translate(33.582031 65.443206)scale(0.15 -0.15)">
       <use xlink:href="#DejaVuSans-31"/>
       <use xlink:href="#DejaVuSans-30" x="63.623047"/>
       <use xlink:href="#DejaVuSans-30" x="127.246094"/>
      </g>
     </g>
    </g>
    <g id="text_11">
     <!-- Axial RF field $m^{-1}$ -->
     <g transform="translate(22.396875 229.356)rotate(-90)scale(0.2 -0.2)">
      <defs>
       <path id="DejaVuSans-41" d="M 2188 4044 
L 1331 1722 
L 3047 1722 
L 2188 4044 
z
M 1831 4666 
L 2547 4666 
L 4325 0 
L 3669 0 
L 3244 1197 
L 1141 1197 
L 716 0 
L 50 0 
L 1831 4666 
z
" transform="scale(0.015625)"/>
       <path id="DejaVuSans-78" d="M 3513 3500 
L 2247 1797 
L 3578 0 
L 2900 0 
L 1881 1375 
L 863 0 
L 184 0 
L 1544 1831 
L 300 3500 
L 978 3500 
L 1906 2253 
L 2834 3500 
L 3513 3500 
z
" transform="scale(0.015625)"/>
       <path id="DejaVuSans-69" d="M 603 3500 
L 1178 3500 
L 1178 0 
L 603 0 
L 603 3500 
z
M 603 4863 
L 1178 4863 
L 1178 4134 
L 603 4134 
L 603 4863 
z
" transform="scale(0.015625)"/>
       <path id="DejaVuSans-61" d="M 2194 1759 
Q 1497 1759 1228 1600 
Q 959 1441 959 1056 
Q 959 750 1161 570 
Q 1363 391 1709 391 
Q 2188 391 2477 730 
Q 2766 1069 2766 1631 
L 2766 1759 
L 2194 1759 
z
M 3341 1997 
L 3341 0 
L 2766 0 
L 2766 531 
Q 2569 213 2275 61 
Q 1981 -91 1556 -91 
Q 1019 -91 701 211 
Q 384 513 384 1019 
Q 384 1609 779 1909 
Q 1175 2209 1959 2209 
L 2766 2209 
L 2766 2266 
Q 2766 2663 2505 2880 
Q 2244 3097 1772 3097 
Q 1472 3097 1187 3025 
Q 903 2953 641 2809 
L 641 3341 
Q 956 3463 1253 3523 
Q 1550 3584 1831 3584 
Q 2591 3584 2966 3190 
Q 3341 2797 3341 1997 
z
" transform="scale(0.015625)"/>
       <path id="DejaVuSans-6c" d="M 603 4863 
L 1178 4863 
L 1178 0 
L 603 0 
L 603 4863 
z
" transform="scale(0.015625)"/>
       <path id="DejaVuSans-52" d="M 2841 2188 
Q 3044 2119 3236 1894 
Q 3428 1669 3622 1275 
L 4263 0 
L 3584 0 
L 2988 1197 
Q 2756 1666 2539 1819 
Q 2322 1972 1947 1972 
L 1259 1972 
L 1259 0 
L 628 0 
L 628 4666 
L 2053 4666 
Q 2853 4666 3247 4331 
Q 3641 3997 3641 3322 
Q 3641 2881 3436 2590 
Q 3231 2300 2841 2188 
z
M 1259 4147 
L 1259 2491 
L 2053 2491 
Q 2509 2491 2742 2702 
Q 2975 2913 2975 3322 
Q 2975 3731 2742 3939 
Q 2509 4147 2053 4147 
L 1259 4147 
z
" transform="scale(0.015625)"/>
       <path id="DejaVuSans-46" d="M 628 4666 
L 3309 4666 
L 3309 4134 
L 1259 4134 
L 1259 2759 
L 3109 2759 
L 3109 2228 
L 1259 2228 
L 1259 0 
L 628 0 
L 628 4666 
z
" transform="scale(0.015625)"/>
       <path id="DejaVuSans-66" d="M 2375 4863 
L 2375 4384 
L 1825 4384 
Q 1516 4384 1395 4259 
Q 1275 4134 1275 3809 
L 1275 3500 
L 2222 3500 
L 2222 3053 
L 1275 3053 
L 1275 0 
L 697 0 
L 697 3053 
L 147 3053 
L 147 3500 
L 697 3500 
L 697 3744 
Q 697 4328 969 4595 
Q 1241 4863 1831 4863 
L 2375 4863 
z
" transform="scale(0.015625)"/>
       <path id="DejaVuSans-65" d="M 3597 1894 
L 3597 1613 
L 953 1613 
Q 991 1019 1311 708 
Q 1631 397 2203 397 
Q 2534 397 2845 478 
Q 3156 559 3463 722 
L 3463 178 
Q 3153 47 2828 -22 
Q 2503 -91 2169 -91 
Q 1331 -91 842 396 
Q 353 884 353 1716 
Q 353 2575 817 3079 
Q 1281 3584 2069 3584 
Q 2775 3584 3186 3129 
Q 3597 2675 3597 1894 
z
M 3022 2063 
Q 3016 2534 2758 2815 
Q 2500 3097 2075 3097 
Q 1594 3097 1305 2825 
Q 1016 2553 972 2059 
L 3022 2063 
z
" transform="scale(0.015625)"/>
       <path id="DejaVuSans-64" d="M 2906 2969 
L 2906 4863 
L 3481 4863 
L 3481 0 
L 2906 0 
L 2906 525 
Q 2725 213 2448 61 
Q 2172 -91 1784 -91 
Q 1150 -91 751 415 
Q 353 922 353 1747 
Q 353 2572 751 3078 
Q 1150 3584 1784 3584 
Q 2172 3584 2448 3432 
Q 2725 3281 2906 2969 
z
M 947 1747 
Q 947 1113 1208 752 
Q 1469 391 1925 391 
Q 2381 391 2643 752 
Q 2906 1113 2906 1747 
Q 2906 2381 2643 2742 
Q 2381 3103 1925 3103 
Q 1469 3103 1208 2742 
Q 947 2381 947 1747 
z
" transform="scale(0.015625)"/>
      </defs>
      <use xlink:href="#DejaVuSans-41" transform="translate(0 0.684375)"/>
      <use xlink:href="#DejaVuSans-78" transform="translate(68.408203 0.684375)"/>
      <use xlink:href="#DejaVuSans-69" transform="translate(127.587891 0.684375)"/>
      <use xlink:href="#DejaVuSans-61" transform="translate(155.371094 0.684375)"/>
      <use xlink:href="#DejaVuSans-6c" transform="translate(216.650391 0.684375)"/>
      <use xlink:href="#DejaVuSans-20" transform="translate(244.433594 0.684375)"/>
      <use xlink:href="#DejaVuSans-52" transform="translate(276.220703 0.684375)"/>
      <use xlink:href="#DejaVuSans-46" transform="translate(345.703125 0.684375)"/>
      <use xlink:href="#DejaVuSans-20" transform="translate(403.222656 0.684375)"/>
      <use xlink:href="#DejaVuSans-66" transform="translate(435.009766 0.684375)"/>
      <use xlink:href="#DejaVuSans-69" transform="translate(470.214844 0.684375)"/>
      <use xlink:href="#DejaVuSans-65" transform="translate(497.998047 0.684375)"/>
      <use xlink:href="#DejaVuSans-6c" transform="translate(559.521484 0.684375)"/>
      <use xlink:href="#DejaVuSans-64" transform="translate(587.304688 0.684375)"/>
      <use xlink:href="#DejaVuSans-20" transform="translate(650.78125 0.684375)"/>
      <use xlink:href="#DejaVuSans-Oblique-6d" transform="translate(682.568359 0.684375)"/>
      <use xlink:href="#DejaVuSans-2212" transform="translate(784.630365 38.965625)scale(0.7)"/>
      <use xlink:href="#DejaVuSans-31" transform="translate(843.282708 38.965625)scale(0.7)"/>
     </g>
    </g>
   </g>
   <g id="line2d_19">
    <path d="M 85.446009 119.388615 
L 86.659004 130.000679 
L 87.657941 136.802739 
L 88.514172 141.204213 
L 89.370404 144.517525 
L 90.297989 147.201694 
L 91.368278 149.594174 
L 93.223447 153.631743 
L 94.222384 156.438375 
L 95.72079 161.416673 
L 97.790017 168.155806 
L 100.144654 174.932747 
L 101.357649 177.884914 
L 102.142528 179.251434 
L 102.784702 179.944279 
L 103.355523 180.225277 
L 103.854992 180.23786 
L 104.425813 180.030005 
L 105.139339 179.522547 
L 106.209629 178.450602 
L 108.849677 175.681645 
L 109.777261 175.09184 
L 110.776198 174.728327 
L 112.060546 174.520371 
L 113.202188 174.54175 
L 114.05842 174.780977 
L 114.843299 175.223832 
L 115.842236 176.077043 
L 116.983879 177.37236 
L 118.054168 178.932648 
L 118.981753 180.708899 
L 119.909337 183.004259 
L 120.979627 186.27544 
L 124.404554 197.321105 
L 124.975375 198.252109 
L 125.403491 198.568573 
L 125.760254 198.549736 
L 126.117018 198.268754 
L 126.545133 197.588031 
L 127.115955 196.149518 
L 127.829481 193.667864 
L 129.113829 188.200057 
L 131.111703 179.854924 
L 132.324698 175.685911 
L 133.252282 173.182925 
L 134.037161 171.652718 
L 134.679335 170.820708 
L 135.321509 170.331392 
L 135.963683 170.110917 
L 136.748562 170.082379 
L 137.890204 170.28374 
L 139.38861 170.780858 
L 141.743247 171.595531 
L 143.313006 171.796289 
L 144.740058 172.057887 
L 151.233149 173.725972 
L 152.374792 173.755774 
L 156.441893 173.567907 
L 160.080878 173.727465 
L 162.078752 173.956889 
L 165.789089 174.076032 
L 168.429137 174.67699 
L 169.642132 175.191353 
L 174.280054 177.744304 
L 175.564402 178.714865 
L 177.13416 180.212035 
L 178.347155 181.647868 
L 179.417445 183.272744 
L 180.63044 185.558636 
L 182.414256 189.444714 
L 184.055367 193.505694 
L 185.910536 198.796016 
L 187.623 203.477285 
L 188.621937 205.590121 
L 189.335463 206.612909 
L 189.834932 206.998753 
L 190.263047 207.068884 
L 190.619811 206.917417 
L 191.047927 206.45578 
L 191.547395 205.504083 
L 192.118216 203.835637 
L 192.76039 201.188969 
L 193.473917 197.267459 
L 194.258796 191.719751 
L 195.115028 184.087442 
L 196.042612 173.747925 
L 197.041549 159.963396 
L 198.183191 140.831688 
L 199.681597 111.443179 
L 202.46435 56.05622 
L 203.53464 39.466783 
L 204.390872 29.519798 
L 205.104398 23.767221 
L 205.675219 20.869661 
L 206.103335 19.675661 
L 206.388746 19.33398 
L 206.602804 19.309743 
L 206.816862 19.479195 
L 207.102272 19.995205 
L 207.530388 21.364093 
L 208.029857 23.797718 
L 208.672031 28.073893 
L 209.599615 35.94487 
L 212.453721 61.391234 
L 213.666716 69.396456 
L 216.806232 88.987694 
L 218.304638 100.42093 
L 222.229033 131.573396 
L 223.299323 137.613046 
L 224.369613 142.350366 
L 225.36855 145.83251 
L 226.296134 148.348491 
L 227.152366 150.088948 
L 228.079951 151.467193 
L 235.928742 161.294727 
L 237.070384 162.355557 
L 238.283379 163.177847 
L 240.067195 164.100047 
L 241.208838 164.472105 
L 242.207775 164.5513 
L 243.492122 164.395817 
L 245.632702 163.913525 
L 246.560286 163.482892 
L 247.487871 162.806477 
L 248.914924 161.442647 
L 253.41014 157.052483 
L 254.123667 156.72715 
L 254.765841 156.67945 
L 255.408015 156.856418 
L 256.192894 157.313982 
L 257.263183 158.21539 
L 258.476178 159.532907 
L 259.831879 161.367499 
L 262.115163 164.481882 
L 264.683859 167.734284 
L 267.68067 172.003543 
L 268.536902 172.748469 
L 269.321781 173.138349 
L 270.035307 173.231522 
L 270.748834 173.07204 
L 271.533713 172.638375 
L 272.81806 171.603469 
L 274.102408 170.671366 
L 275.172698 170.186049 
L 279.168446 168.884342 
L 280.595499 168.733321 
L 282.165257 168.506237 
L 284.6626 168.044885 
L 288.016174 167.795315 
L 292.154628 166.909156 
L 293.653033 166.501568 
L 294.437913 166.524753 
L 295.151439 166.759682 
L 295.936318 167.244908 
L 297.006608 168.199584 
L 298.933129 170.302612 
L 300.57424 171.972921 
L 301.64453 172.772075 
L 302.71482 173.297266 
L 303.785109 173.586486 
L 304.641341 173.615 
L 305.354868 173.432575 
L 306.068394 173.010856 
L 306.853273 172.2685 
L 308.066268 170.755612 
L 310.206848 168.120759 
L 311.633901 166.292961 
L 312.846896 164.333723 
L 314.559359 161.095388 
L 315.843707 158.259768 
L 316.842644 155.520107 
L 317.912934 151.907202 
L 319.268634 146.46297 
L 322.051387 135.004988 
L 322.693561 133.436928 
L 323.121677 132.894311 
L 323.47844 132.794577 
L 323.763851 132.955567 
L 324.120614 133.454741 
L 324.54873 134.464287 
L 325.119551 136.399312 
L 326.047135 140.4739 
L 328.401773 151.143103 
L 329.614768 155.517703 
L 330.685057 158.602276 
L 331.612642 160.623896 
L 332.468874 161.986478 
L 333.467811 163.151585 
L 334.966216 164.52259 
L 336.250564 165.450817 
L 337.392206 165.996397 
L 339.960902 167.085373 
L 342.743655 168.544313 
L 344.670176 169.149608 
L 346.025877 169.388476 
L 347.096166 169.346399 
L 349.379451 169.151583 
L 350.663799 169.36835 
L 352.447615 169.626864 
L 354.802252 169.8893 
L 356.942832 170.197134 
L 359.368822 170.394215 
L 361.723459 170.793753 
L 363.007807 170.665196 
L 364.220802 170.611547 
L 365.077033 170.798262 
L 366.004618 171.230627 
L 367.288966 172.097797 
L 370.143071 174.117985 
L 370.927951 174.351435 
L 371.71283 174.353975 
L 372.854472 174.089715 
L 374.352878 173.782658 
L 377.135631 173.396019 
L 378.776742 173.035151 
L 379.704326 173.093857 
L 383.057901 173.59045 
L 384.556306 173.715626 
L 386.197417 174.14083 
L 389.194228 175.081318 
L 390.549929 175.864566 
L 392.619155 177.322681 
L 393.760798 178.401232 
L 395.615967 180.570758 
L 397.04302 182.032551 
L 398.969541 183.946715 
L 399.968478 185.354136 
L 401.038768 187.258079 
L 402.109057 189.576937 
L 403.036642 192.12826 
L 403.821521 194.941813 
L 404.6064 198.614503 
L 405.462632 203.788828 
L 406.318864 210.360021 
L 407.246448 219.279281 
L 408.174032 230.374395 
L 409.17297 245.04627 
L 410.100554 261.216 
L 410.100554 261.216 
" clip-path="url(#pc6a415eb61)" style="fill: none; stroke: #1f77b4; stroke-width: 1.5; stroke-linecap: square"/>
   </g>
   <g id="patch_3">
    <path d="M 69.213281 273.312 
L 69.213281 7.2 
" style="fill: none; stroke: #000000; stroke-width: 0.8; stroke-linejoin: miter; stroke-linecap: square"/>
   </g>
   <g id="patch_4">
    <path d="M 426.333281 273.312 
L 426.333281 7.2 
" style="fill: none; stroke: #000000; stroke-width: 0.8; stroke-linejoin: miter; stroke-linecap: square"/>
   </g>
   <g id="patch_5">
    <path d="M 69.213281 273.312 
L 426.333281 273.312 
" style="fill: none; stroke: #000000; stroke-width: 0.8; stroke-linejoin: miter; stroke-linecap: square"/>
   </g>
   <g id="patch_6">
    <path d="M 69.213281 7.2 
L 426.333281 7.2 
" style="fill: none; stroke: #000000; stroke-width: 0.8; stroke-linejoin: miter; stroke-linecap: square"/>
   </g>
  </g>
 </g>
 <defs>
  <clipPath id="pc6a415eb61">
   <rect x="69.213281" y="7.2" width="357.12" height="266.112"/>
  </clipPath>
 </defs>
</svg>
