<?xml version="1.0" encoding="utf-8" standalone="no"?>
<!DOCTYPE svg PUBLIC "-//W3C//DTD SVG 1.1//EN"
  "http://www.w3.org/Graphics/SVG/1.1/DTD/svg11.dtd">
<svg xmlns:xlink="http://www.w3.org/1999/xlink" width="459.031719pt" height="331.128016pt" viewBox="0 0 459.031719 331.128016" xmlns="http://www.w3.org/2000/svg" version="1.1">
 <defs>
  <style type="text/css">*{stroke-linejoin: round; stroke-linecap: butt}</style>
 </defs>
 <g id="figure_1">
  <g id="patch_1">
   <path d="M 0 331.128016 
L 459.031719 331.128016 
L 459.031719 0 
L 0 0 
L 0 331.128016 
z
" style="fill: none"/>
  </g>
  <g id="axes_1">
   <g id="patch_2">
    <path d="M 94.711719 279.010828 
L 451.831719 279.010828 
L 451.831719 12.898828 
L 94.711719 12.898828 
L 94.711719 279.010828 
z
" style="fill: none"/>
   </g>
   <g id="matplotlib.axis_1">
    <g id="xtick_1">
     <g id="line2d_1">
      <path d="M 126.642028 279.010828 
L 126.642028 12.898828 
" clip-path="url(#pf08283222a)" style="fill: none; stroke: #b0b0b0; stroke-width: 0.8; stroke-linecap: square"/>
     </g>
     <g id="line2d_2">
      <defs>
       <path id="md39032bed2" d="M 0 0 
L 0 3.5 
" style="stroke: #000000; stroke-width: 0.8"/>
      </defs>
      <g>
       <use xlink:href="#md39032bed2" x="126.642028" y="279.010828" style="stroke: #000000; stroke-width: 0.8"/>
      </g>
     </g>
     <g id="text_1">
      <!-- −3000 -->
      <g transform="translate(101.269763 297.408484)scale(0.15 -0.15)">
       <defs>
        <path id="DejaVuSans-2212" d="M 678 2272 
L 4684 2272 
L 4684 1741 
L 678 1741 
L 678 2272 
z
" transform="scale(0.015625)"/>
        <path id="DejaVuSans-33" d="M 2597 2516 
Q 3050 2419 3304 2112 
Q 3559 1806 3559 1356 
Q 3559 666 3084 287 
Q 2609 -91 1734 -91 
Q 1441 -91 1130 -33 
Q 819 25 488 141 
L 488 750 
Q 750 597 1062 519 
Q 1375 441 1716 441 
Q 2309 441 2620 675 
Q 2931 909 2931 1356 
Q 2931 1769 2642 2001 
Q 2353 2234 1838 2234 
L 1294 2234 
L 1294 2753 
L 1863 2753 
Q 2328 2753 2575 2939 
Q 2822 3125 2822 3475 
Q 2822 3834 2567 4026 
Q 2313 4219 1838 4219 
Q 1578 4219 1281 4162 
Q 984 4106 628 3988 
L 628 4550 
Q 988 4650 1302 4700 
Q 1616 4750 1894 4750 
Q 2613 4750 3031 4423 
Q 3450 4097 3450 3541 
Q 3450 3153 3228 2886 
Q 3006 2619 2597 2516 
z
" transform="scale(0.015625)"/>
        <path id="DejaVuSans-30" d="M 2034 4250 
Q 1547 4250 1301 3770 
Q 1056 3291 1056 2328 
Q 1056 1369 1301 889 
Q 1547 409 2034 409 
Q 2525 409 2770 889 
Q 3016 1369 3016 2328 
Q 3016 3291 2770 3770 
Q 2525 4250 2034 4250 
z
M 2034 4750 
Q 2819 4750 3233 4129 
Q 3647 3509 3647 2328 
Q 3647 1150 3233 529 
Q 2819 -91 2034 -91 
Q 1250 -91 836 529 
Q 422 1150 422 2328 
Q 422 3509 836 4129 
Q 1250 4750 2034 4750 
z
" transform="scale(0.015625)"/>
       </defs>
       <use xlink:href="#DejaVuSans-2212"/>
       <use xlink:href="#DejaVuSans-33" x="83.789062"/>
       <use xlink:href="#DejaVuSans-30" x="147.412109"/>
       <use xlink:href="#DejaVuSans-30" x="211.035156"/>
       <use xlink:href="#DejaVuSans-30" x="274.658203"/>
      </g>
     </g>
    </g>
    <g id="xtick_2">
     <g id="line2d_3">
      <path d="M 197.994676 279.010828 
L 197.994676 12.898828 
" clip-path="url(#pf08283222a)" style="fill: none; stroke: #b0b0b0; stroke-width: 0.8; stroke-linecap: square"/>
     </g>
     <g id="line2d_4">
      <g>
       <use xlink:href="#md39032bed2" x="197.994676" y="279.010828" style="stroke: #000000; stroke-width: 0.8"/>
      </g>
     </g>
     <g id="text_2">
      <!-- −2000 -->
      <g transform="translate(172.62241 297.408484)scale(0.15 -0.15)">
       <defs>
        <path id="DejaVuSans-32" d="M 1228 531 
L 3431 531 
L 3431 0 
L 469 0 
L 469 531 
Q 828 903 1448 1529 
Q 2069 2156 2228 2338 
Q 2531 2678 2651 2914 
Q 2772 3150 2772 3378 
Q 2772 3750 2511 3984 
Q 2250 4219 1831 4219 
Q 1534 4219 1204 4116 
Q 875 4013 500 3803 
L 500 4441 
Q 881 4594 1212 4672 
Q 1544 4750 1819 4750 
Q 2544 4750 2975 4387 
Q 3406 4025 3406 3419 
Q 3406 3131 3298 2873 
Q 3191 2616 2906 2266 
Q 2828 2175 2409 1742 
Q 1991 1309 1228 531 
z
" transform="scale(0.015625)"/>
       </defs>
       <use xlink:href="#DejaVuSans-2212"/>
       <use xlink:href="#DejaVuSans-32" x="83.789062"/>
       <use xlink:href="#DejaVuSans-30" x="147.412109"/>
       <use xlink:href="#DejaVuSans-30" x="211.035156"/>
       <use xlink:href="#DejaVuSans-30" x="274.658203"/>
      </g>
     </g>
    </g>
    <g id="xtick_3">
     <g id="line2d_5">
      <path d="M 269.347323 279.010828 
L 269.347323 12.898828 
" clip-path="url(#pf08283222a)" style="fill: none; stroke: #b0b0b0; stroke-width: 0.8; stroke-linecap: square"/>
     </g>
     <g id="line2d_6">
      <g>
       <use xlink:href="#md39032bed2" x="269.347323" y="279.010828" style="stroke: #000000; stroke-width: 0.8"/>
      </g>
     </g>
     <g id="text_3">
      <!-- −1000 -->
      <g transform="translate(243.975058 297.408484)scale(0.15 -0.15)">
       <defs>
        <path id="DejaVuSans-31" d="M 794 531 
L 1825 531 
L 1825 4091 
L 703 3866 
L 703 4441 
L 1819 4666 
L 2450 4666 
L 2450 531 
L 3481 531 
L 3481 0 
L 794 0 
L 794 531 
z
" transform="scale(0.015625)"/>
       </defs>
       <use xlink:href="#DejaVuSans-2212"/>
       <use xlink:href="#DejaVuSans-31" x="83.789062"/>
       <use xlink:href="#DejaVuSans-30" x="147.412109"/>
       <use xlink:href="#DejaVuSans-30" x="211.035156"/>
       <use xlink:href="#DejaVuSans-30" x="274.658203"/>
      </g>
     </g>
    </g>
    <g id="xtick_4">
     <g id="line2d_7">
      <path d="M 340.69997 279.010828 
L 340.69997 12.898828 
" clip-path="url(#pf08283222a)" style="fill: none; stroke: #b0b0b0; stroke-width: 0.8; stroke-linecap: square"/>
     </g>
     <g id="line2d_8">
      <g>
       <use xlink:href="#md39032bed2" x="340.69997" y="279.010828" style="stroke: #000000; stroke-width: 0.8"/>
      </g>
     </g>
     <g id="text_4">
      <!-- 0 -->
      <g transform="translate(335.928095 297.408484)scale(0.15 -0.15)">
       <use xlink:href="#DejaVuSans-30"/>
      </g>
     </g>
    </g>
    <g id="xtick_5">
     <g id="line2d_9">
      <path d="M 412.052618 279.010828 
L 412.052618 12.898828 
" clip-path="url(#pf08283222a)" style="fill: none; stroke: #b0b0b0; stroke-width: 0.8; stroke-linecap: square"/>
     </g>
     <g id="line2d_10">
      <g>
       <use xlink:href="#md39032bed2" x="412.052618" y="279.010828" style="stroke: #000000; stroke-width: 0.8"/>
      </g>
     </g>
     <g id="text_5">
      <!-- 1000 -->
      <g transform="translate(392.965118 297.408484)scale(0.15 -0.15)">
       <use xlink:href="#DejaVuSans-31"/>
       <use xlink:href="#DejaVuSans-30" x="63.623047"/>
       <use xlink:href="#DejaVuSans-30" x="127.246094"/>
       <use xlink:href="#DejaVuSans-30" x="190.869141"/>
      </g>
     </g>
    </g>
    <g id="text_6">
     <!-- X ($\mu m$) -->
     <g transform="translate(239.271719 319.728016)scale(0.2 -0.2)">
      <defs>
       <path id="DejaVuSans-58" d="M 403 4666 
L 1081 4666 
L 2241 2931 
L 3406 4666 
L 4084 4666 
L 2584 2425 
L 4184 0 
L 3506 0 
L 2194 1984 
L 872 0 
L 191 0 
L 1856 2491 
L 403 4666 
z
" transform="scale(0.015625)"/>
       <path id="DejaVuSans-20" transform="scale(0.015625)"/>
       <path id="DejaVuSans-28" d="M 1984 4856 
Q 1566 4138 1362 3434 
Q 1159 2731 1159 2009 
Q 1159 1288 1364 580 
Q 1569 -128 1984 -844 
L 1484 -844 
Q 1016 -109 783 600 
Q 550 1309 550 2009 
Q 550 2706 781 3412 
Q 1013 4119 1484 4856 
L 1984 4856 
z
" transform="scale(0.015625)"/>
       <path id="DejaVuSans-Oblique-3bc" d="M -84 -1331 
L 856 3500 
L 1434 3500 
L 1009 1322 
Q 997 1256 987 1175 
Q 978 1094 978 1013 
Q 978 722 1161 565 
Q 1344 409 1684 409 
Q 2147 409 2431 671 
Q 2716 934 2816 1459 
L 3213 3500 
L 3788 3500 
L 3266 809 
Q 3253 750 3248 706 
Q 3244 663 3244 628 
Q 3244 531 3283 486 
Q 3322 441 3406 441 
Q 3438 441 3492 456 
Q 3547 472 3647 513 
L 3559 50 
Q 3422 -19 3297 -55 
Q 3172 -91 3053 -91 
Q 2847 -91 2730 40 
Q 2613 172 2613 403 
Q 2438 153 2195 31 
Q 1953 -91 1625 -91 
Q 1334 -91 1117 43 
Q 900 178 831 397 
L 494 -1331 
L -84 -1331 
z
" transform="scale(0.015625)"/>
       <path id="DejaVuSans-Oblique-6d" d="M 5747 2113 
L 5338 0 
L 4763 0 
L 5166 2094 
Q 5191 2228 5203 2325 
Q 5216 2422 5216 2491 
Q 5216 2772 5059 2928 
Q 4903 3084 4622 3084 
Q 4203 3084 3875 2770 
Q 3547 2456 3450 1953 
L 3066 0 
L 2491 0 
L 2900 2094 
Q 2925 2209 2937 2307 
Q 2950 2406 2950 2484 
Q 2950 2769 2794 2926 
Q 2638 3084 2363 3084 
Q 1938 3084 1609 2770 
Q 1281 2456 1184 1953 
L 800 0 
L 225 0 
L 909 3500 
L 1484 3500 
L 1375 2956 
Q 1609 3263 1923 3423 
Q 2238 3584 2597 3584 
Q 2978 3584 3223 3384 
Q 3469 3184 3519 2828 
Q 3781 3197 4126 3390 
Q 4472 3584 4856 3584 
Q 5306 3584 5551 3325 
Q 5797 3066 5797 2591 
Q 5797 2488 5784 2364 
Q 5772 2241 5747 2113 
z
" transform="scale(0.015625)"/>
       <path id="DejaVuSans-29" d="M 513 4856 
L 1013 4856 
Q 1481 4119 1714 3412 
Q 1947 2706 1947 2009 
Q 1947 1309 1714 600 
Q 1481 -109 1013 -844 
L 513 -844 
Q 928 -128 1133 580 
Q 1338 1288 1338 2009 
Q 1338 2731 1133 3434 
Q 928 4138 513 4856 
z
" transform="scale(0.015625)"/>
      </defs>
      <use xlink:href="#DejaVuSans-58" transform="translate(0 0.125)"/>
      <use xlink:href="#DejaVuSans-20" transform="translate(68.505859 0.125)"/>
      <use xlink:href="#DejaVuSans-28" transform="translate(100.292969 0.125)"/>
      <use xlink:href="#DejaVuSans-Oblique-3bc" transform="translate(139.306641 0.125)"/>
      <use xlink:href="#DejaVuSans-Oblique-6d" transform="translate(202.929688 0.125)"/>
      <use xlink:href="#DejaVuSans-29" transform="translate(300.341797 0.125)"/>
     </g>
    </g>
   </g>
   <g id="matplotlib.axis_2">
    <g id="ytick_1">
     <g id="line2d_11">
      <path d="M 94.711719 279.010828 
L 451.831719 279.010828 
" clip-path="url(#pf08283222a)" style="fill: none; stroke: #b0b0b0; stroke-width: 0.8; stroke-linecap: square"/>
     </g>
     <g id="line2d_12">
      <defs>
       <path id="m6f3f5b6aff" d="M 0 0 
L -3.5 0 
" style="stroke: #000000; stroke-width: 0.8"/>
      </defs>
      <g>
       <use xlink:href="#m6f3f5b6aff" x="94.711719" y="279.010828" style="stroke: #000000; stroke-width: 0.8"/>
      </g>
     </g>
     <g id="text_7">
      <!-- −0.100 -->
      <g transform="translate(32.2 284.709656)scale(0.15 -0.15)">
       <defs>
        <path id="DejaVuSans-2e" d="M 684 794 
L 1344 794 
L 1344 0 
L 684 0 
L 684 794 
z
" transform="scale(0.015625)"/>
       </defs>
       <use xlink:href="#DejaVuSans-2212"/>
       <use xlink:href="#DejaVuSans-30" x="83.789062"/>
       <use xlink:href="#DejaVuSans-2e" x="147.412109"/>
       <use xlink:href="#DejaVuSans-31" x="179.199219"/>
       <use xlink:href="#DejaVuSans-30" x="242.822266"/>
       <use xlink:href="#DejaVuSans-30" x="306.445312"/>
      </g>
     </g>
    </g>
    <g id="ytick_2">
     <g id="line2d_13">
      <path d="M 94.711719 245.746828 
L 451.831719 245.746828 
" clip-path="url(#pf08283222a)" style="fill: none; stroke: #b0b0b0; stroke-width: 0.8; stroke-linecap: square"/>
     </g>
     <g id="line2d_14">
      <g>
       <use xlink:href="#m6f3f5b6aff" x="94.711719" y="245.746828" style="stroke: #000000; stroke-width: 0.8"/>
      </g>
     </g>
     <g id="text_8">
      <!-- −0.075 -->
      <g transform="translate(32.2 251.445656)scale(0.15 -0.15)">
       <defs>
        <path id="DejaVuSans-37" d="M 525 4666 
L 3525 4666 
L 3525 4397 
L 1831 0 
L 1172 0 
L 2766 4134 
L 525 4134 
L 525 4666 
z
" transform="scale(0.015625)"/>
        <path id="DejaVuSans-35" d="M 691 4666 
L 3169 4666 
L 3169 4134 
L 1269 4134 
L 1269 2991 
Q 1406 3038 1543 3061 
Q 1681 3084 1819 3084 
Q 2600 3084 3056 2656 
Q 3513 2228 3513 1497 
Q 3513 744 3044 326 
Q 2575 -91 1722 -91 
Q 1428 -91 1123 -41 
Q 819 9 494 109 
L 494 744 
Q 775 591 1075 516 
Q 1375 441 1709 441 
Q 2250 441 2565 725 
Q 2881 1009 2881 1497 
Q 2881 1984 2565 2268 
Q 2250 2553 1709 2553 
Q 1456 2553 1204 2497 
Q 953 2441 691 2322 
L 691 4666 
z
" transform="scale(0.015625)"/>
       </defs>
       <use xlink:href="#DejaVuSans-2212"/>
       <use xlink:href="#DejaVuSans-30" x="83.789062"/>
       <use xlink:href="#DejaVuSans-2e" x="147.412109"/>
       <use xlink:href="#DejaVuSans-30" x="179.199219"/>
       <use xlink:href="#DejaVuSans-37" x="242.822266"/>
       <use xlink:href="#DejaVuSans-35" x="306.445312"/>
      </g>
     </g>
    </g>
    <g id="ytick_3">
     <g id="line2d_15">
      <path d="M 94.711719 212.482828 
L 451.831719 212.482828 
" clip-path="url(#pf08283222a)" style="fill: none; stroke: #b0b0b0; stroke-width: 0.8; stroke-linecap: square"/>
     </g>
     <g id="line2d_16">
      <g>
       <use xlink:href="#m6f3f5b6aff" x="94.711719" y="212.482828" style="stroke: #000000; stroke-width: 0.8"/>
      </g>
     </g>
     <g id="text_9">
      <!-- −0.050 -->
      <g transform="translate(32.2 218.181656)scale(0.15 -0.15)">
       <use xlink:href="#DejaVuSans-2212"/>
       <use xlink:href="#DejaVuSans-30" x="83.789062"/>
       <use xlink:href="#DejaVuSans-2e" x="147.412109"/>
       <use xlink:href="#DejaVuSans-30" x="179.199219"/>
       <use xlink:href="#DejaVuSans-35" x="242.822266"/>
       <use xlink:href="#DejaVuSans-30" x="306.445312"/>
      </g>
     </g>
    </g>
    <g id="ytick_4">
     <g id="line2d_17">
      <path d="M 94.711719 179.218828 
L 451.831719 179.218828 
" clip-path="url(#pf08283222a)" style="fill: none; stroke: #b0b0b0; stroke-width: 0.8; stroke-linecap: square"/>
     </g>
     <g id="line2d_18">
      <g>
       <use xlink:href="#m6f3f5b6aff" x="94.711719" y="179.218828" style="stroke: #000000; stroke-width: 0.8"/>
      </g>
     </g>
     <g id="text_10">
      <!-- −0.025 -->
      <g transform="translate(32.2 184.917656)scale(0.15 -0.15)">
       <use xlink:href="#DejaVuSans-2212"/>
       <use xlink:href="#DejaVuSans-30" x="83.789062"/>
       <use xlink:href="#DejaVuSans-2e" x="147.412109"/>
       <use xlink:href="#DejaVuSans-30" x="179.199219"/>
       <use xlink:href="#DejaVuSans-32" x="242.822266"/>
       <use xlink:href="#DejaVuSans-35" x="306.445312"/>
      </g>
     </g>
    </g>
    <g id="ytick_5">
     <g id="line2d_19">
      <path d="M 94.711719 145.954828 
L 451.831719 145.954828 
" clip-path="url(#pf08283222a)" style="fill: none; stroke: #b0b0b0; stroke-width: 0.8; stroke-linecap: square"/>
     </g>
     <g id="line2d_20">
      <g>
       <use xlink:href="#m6f3f5b6aff" x="94.711719" y="145.954828" style="stroke: #000000; stroke-width: 0.8"/>
      </g>
     </g>
     <g id="text_11">
      <!-- 0.000 -->
      <g transform="translate(44.769531 151.653656)scale(0.15 -0.15)">
       <use xlink:href="#DejaVuSans-30"/>
       <use xlink:href="#DejaVuSans-2e" x="63.623047"/>
       <use xlink:href="#DejaVuSans-30" x="95.410156"/>
       <use xlink:href="#DejaVuSans-30" x="159.033203"/>
       <use xlink:href="#DejaVuSans-30" x="222.65625"/>
      </g>
     </g>
    </g>
    <g id="ytick_6">
     <g id="line2d_21">
      <path d="M 94.711719 112.690828 
L 451.831719 112.690828 
" clip-path="url(#pf08283222a)" style="fill: none; stroke: #b0b0b0; stroke-width: 0.8; stroke-linecap: square"/>
     </g>
     <g id="line2d_22">
      <g>
       <use xlink:href="#m6f3f5b6aff" x="94.711719" y="112.690828" style="stroke: #000000; stroke-width: 0.8"/>
      </g>
     </g>
     <g id="text_12">
      <!-- 0.025 -->
      <g transform="translate(44.769531 118.389656)scale(0.15 -0.15)">
       <use xlink:href="#DejaVuSans-30"/>
       <use xlink:href="#DejaVuSans-2e" x="63.623047"/>
       <use xlink:href="#DejaVuSans-30" x="95.410156"/>
       <use xlink:href="#DejaVuSans-32" x="159.033203"/>
       <use xlink:href="#DejaVuSans-35" x="222.65625"/>
      </g>
     </g>
    </g>
    <g id="ytick_7">
     <g id="line2d_23">
      <path d="M 94.711719 79.426828 
L 451.831719 79.426828 
" clip-path="url(#pf08283222a)" style="fill: none; stroke: #b0b0b0; stroke-width: 0.8; stroke-linecap: square"/>
     </g>
     <g id="line2d_24">
      <g>
       <use xlink:href="#m6f3f5b6aff" x="94.711719" y="79.426828" style="stroke: #000000; stroke-width: 0.8"/>
      </g>
     </g>
     <g id="text_13">
      <!-- 0.050 -->
      <g transform="translate(44.769531 85.125656)scale(0.15 -0.15)">
       <use xlink:href="#DejaVuSans-30"/>
       <use xlink:href="#DejaVuSans-2e" x="63.623047"/>
       <use xlink:href="#DejaVuSans-30" x="95.410156"/>
       <use xlink:href="#DejaVuSans-35" x="159.033203"/>
       <use xlink:href="#DejaVuSans-30" x="222.65625"/>
      </g>
     </g>
    </g>
    <g id="ytick_8">
     <g id="line2d_25">
      <path d="M 94.711719 46.162828 
L 451.831719 46.162828 
" clip-path="url(#pf08283222a)" style="fill: none; stroke: #b0b0b0; stroke-width: 0.8; stroke-linecap: square"/>
     </g>
     <g id="line2d_26">
      <g>
       <use xlink:href="#m6f3f5b6aff" x="94.711719" y="46.162828" style="stroke: #000000; stroke-width: 0.8"/>
      </g>
     </g>
     <g id="text_14">
      <!-- 0.075 -->
      <g transform="translate(44.769531 51.861656)scale(0.15 -0.15)">
       <use xlink:href="#DejaVuSans-30"/>
       <use xlink:href="#DejaVuSans-2e" x="63.623047"/>
       <use xlink:href="#DejaVuSans-30" x="95.410156"/>
       <use xlink:href="#DejaVuSans-37" x="159.033203"/>
       <use xlink:href="#DejaVuSans-35" x="222.65625"/>
      </g>
     </g>
    </g>
    <g id="ytick_9">
     <g id="line2d_27">
      <path d="M 94.711719 12.898828 
L 451.831719 12.898828 
" clip-path="url(#pf08283222a)" style="fill: none; stroke: #b0b0b0; stroke-width: 0.8; stroke-linecap: square"/>
     </g>
     <g id="line2d_28">
      <g>
       <use xlink:href="#m6f3f5b6aff" x="94.711719" y="12.898828" style="stroke: #000000; stroke-width: 0.8"/>
      </g>
     </g>
     <g id="text_15">
      <!-- 0.100 -->
      <g transform="translate(44.769531 18.597656)scale(0.15 -0.15)">
       <use xlink:href="#DejaVuSans-30"/>
       <use xlink:href="#DejaVuSans-2e" x="63.623047"/>
       <use xlink:href="#DejaVuSans-31" x="95.410156"/>
       <use xlink:href="#DejaVuSans-30" x="159.033203"/>
       <use xlink:href="#DejaVuSans-30" x="222.65625"/>
      </g>
     </g>
    </g>
    <g id="text_16">
     <!-- Violation ($mm^{-2}$) -->
     <g transform="translate(24.040625 231.354828)rotate(-90)scale(0.2 -0.2)">
      <defs>
       <path id="DejaVuSans-56" d="M 1831 0 
L 50 4666 
L 709 4666 
L 2188 738 
L 3669 4666 
L 4325 4666 
L 2547 0 
L 1831 0 
z
" transform="scale(0.015625)"/>
       <path id="DejaVuSans-69" d="M 603 3500 
L 1178 3500 
L 1178 0 
L 603 0 
L 603 3500 
z
M 603 4863 
L 1178 4863 
L 1178 4134 
L 603 4134 
L 603 4863 
z
" transform="scale(0.015625)"/>
       <path id="DejaVuSans-6f" d="M 1959 3097 
Q 1497 3097 1228 2736 
Q 959 2375 959 1747 
Q 959 1119 1226 758 
Q 1494 397 1959 397 
Q 2419 397 2687 759 
Q 2956 1122 2956 1747 
Q 2956 2369 2687 2733 
Q 2419 3097 1959 3097 
z
M 1959 3584 
Q 2709 3584 3137 3096 
Q 3566 2609 3566 1747 
Q 3566 888 3137 398 
Q 2709 -91 1959 -91 
Q 1206 -91 779 398 
Q 353 888 353 1747 
Q 353 2609 779 3096 
Q 1206 3584 1959 3584 
z
" transform="scale(0.015625)"/>
       <path id="DejaVuSans-6c" d="M 603 4863 
L 1178 4863 
L 1178 0 
L 603 0 
L 603 4863 
z
" transform="scale(0.015625)"/>
       <path id="DejaVuSans-61" d="M 2194 1759 
Q 1497 1759 1228 1600 
Q 959 1441 959 1056 
Q 959 750 1161 570 
Q 1363 391 1709 391 
Q 2188 391 2477 730 
Q 2766 1069 2766 1631 
L 2766 1759 
L 2194 1759 
z
M 3341 1997 
L 3341 0 
L 2766 0 
L 2766 531 
Q 2569 213 2275 61 
Q 1981 -91 1556 -91 
Q 1019 -91 701 211 
Q 384 513 384 1019 
Q 384 1609 779 1909 
Q 1175 2209 1959 2209 
L 2766 2209 
L 2766 2266 
Q 2766 2663 2505 2880 
Q 2244 3097 1772 3097 
Q 1472 3097 1187 3025 
Q 903 2953 641 2809 
L 641 3341 
Q 956 3463 1253 3523 
Q 1550 3584 1831 3584 
Q 2591 3584 2966 3190 
Q 3341 2797 3341 1997 
z
" transform="scale(0.015625)"/>
       <path id="DejaVuSans-74" d="M 1172 4494 
L 1172 3500 
L 2356 3500 
L 2356 3053 
L 1172 3053 
L 1172 1153 
Q 1172 725 1289 603 
Q 1406 481 1766 481 
L 2356 481 
L 2356 0 
L 1766 0 
Q 1100 0 847 248 
Q 594 497 594 1153 
L 594 3053 
L 172 3053 
L 172 3500 
L 594 3500 
L 594 4494 
L 1172 4494 
z
" transform="scale(0.015625)"/>
       <path id="DejaVuSans-6e" d="M 3513 2113 
L 3513 0 
L 2938 0 
L 2938 2094 
Q 2938 2591 2744 2837 
Q 2550 3084 2163 3084 
Q 1697 3084 1428 2787 
Q 1159 2491 1159 1978 
L 1159 0 
L 581 0 
L 581 3500 
L 1159 3500 
L 1159 2956 
Q 1366 3272 1645 3428 
Q 1925 3584 2291 3584 
Q 2894 3584 3203 3211 
Q 3513 2838 3513 2113 
z
" transform="scale(0.015625)"/>
      </defs>
      <use xlink:href="#DejaVuSans-56" transform="translate(0 0.765625)"/>
      <use xlink:href="#DejaVuSans-69" transform="translate(68.408203 0.765625)"/>
      <use xlink:href="#DejaVuSans-6f" transform="translate(96.191406 0.765625)"/>
      <use xlink:href="#DejaVuSans-6c" transform="translate(157.373047 0.765625)"/>
      <use xlink:href="#DejaVuSans-61" transform="translate(185.15625 0.765625)"/>
      <use xlink:href="#DejaVuSans-74" transform="translate(246.435547 0.765625)"/>
      <use xlink:href="#DejaVuSans-69" transform="translate(285.644531 0.765625)"/>
      <use xlink:href="#DejaVuSans-6f" transform="translate(313.427734 0.765625)"/>
      <use xlink:href="#DejaVuSans-6e" transform="translate(374.609375 0.765625)"/>
      <use xlink:href="#DejaVuSans-20" transform="translate(437.988281 0.765625)"/>
      <use xlink:href="#DejaVuSans-28" transform="translate(469.775391 0.765625)"/>
      <use xlink:href="#DejaVuSans-Oblique-6d" transform="translate(508.789062 0.765625)"/>
      <use xlink:href="#DejaVuSans-Oblique-6d" transform="translate(606.201172 0.765625)"/>
      <use xlink:href="#DejaVuSans-2212" transform="translate(708.263177 39.046875)scale(0.7)"/>
      <use xlink:href="#DejaVuSans-32" transform="translate(766.915521 39.046875)scale(0.7)"/>
      <use xlink:href="#DejaVuSans-29" transform="translate(814.186029 0.765625)"/>
     </g>
    </g>
   </g>
   <g id="line2d_29">
    <path d="M 110.944446 172.468174 
L 111.158504 173.619896 
L 111.443915 173.998705 
L 111.657972 173.677333 
L 111.729325 173.726679 
L 111.87203 174.379116 
L 112.014736 175.147012 
L 112.157441 174.244504 
L 112.371499 173.241714 
L 112.585557 172.597506 
L 113.156378 174.430354 
L 113.370436 174.042168 
L 113.513141 174.197881 
L 113.727199 173.722611 
L 114.01261 173.113578 
L 114.29802 173.57024 
L 114.440726 173.345448 
L 114.583431 173.223271 
L 114.654784 172.995049 
L 114.797489 173.242236 
L 114.868842 173.208864 
L 115.011547 172.784429 
L 115.225605 172.104634 
L 115.36831 172.277277 
L 115.582368 172.689158 
L 115.939131 171.149172 
L 116.081837 170.873472 
L 116.153189 171.01493 
L 116.4386 172.347852 
L 116.509953 172.251705 
L 116.795363 170.639094 
L 116.938068 170.921651 
L 117.009421 170.987024 
L 117.152126 170.598156 
L 117.366184 169.929377 
L 117.437537 169.927131 
L 117.580242 170.447414 
L 117.937005 171.913266 
L 118.222416 172.422282 
L 118.86459 173.236979 
L 119.221353 172.69587 
L 119.364058 173.228684 
L 119.720822 174.934266 
L 119.93488 174.442987 
L 120.077585 174.262919 
L 120.291643 174.387842 
L 120.648406 174.755044 
L 120.933817 174.796714 
L 121.076522 174.763929 
L 121.147875 174.873527 
L 121.219227 174.796099 
L 121.361933 174.704186 
L 121.861401 174.965408 
L 122.432222 174.168268 
L 122.574928 174.542395 
L 122.788985 175.34895 
L 122.860338 175.278953 
L 123.074396 175.008965 
L 123.145749 175.146843 
L 123.217101 174.941654 
L 123.431159 176.428858 
L 123.573865 175.447568 
L 123.787923 173.98906 
L 123.859275 173.998355 
L 124.144686 175.653387 
L 124.287391 175.550596 
L 124.358744 175.563919 
L 124.572802 175.04439 
L 124.78686 174.761453 
L 125.000918 175.351398 
L 125.07227 175.215167 
L 125.357681 175.304209 
L 125.714444 175.061404 
L 126.14256 174.93267 
L 126.42797 174.736407 
L 126.642028 174.802478 
L 126.856086 174.828291 
L 127.21285 174.619945 
L 127.426908 174.490743 
L 127.640966 174.458839 
L 127.783671 174.254682 
L 128.069081 173.732172 
L 128.283139 173.815364 
L 128.56855 173.817375 
L 128.925313 173.225821 
L 129.282076 172.478792 
L 129.567487 172.068222 
L 129.852898 171.684586 
L 130.066956 171.687229 
L 130.495071 171.189935 
L 130.851835 170.292717 
L 131.708066 171.555645 
L 132.06483 171.872038 
L 132.278888 171.938069 
L 132.635651 171.739845 
L 132.992414 172.085454 
L 133.277825 171.929817 
L 133.42053 171.913226 
L 133.848646 172.306132 
L 134.062704 172.212121 
L 134.348114 171.99311 
L 134.633525 172.27021 
L 134.918936 171.732144 
L 134.990288 171.779155 
L 135.275699 172.349517 
L 135.347051 172.279881 
L 135.632462 171.995041 
L 136.131931 171.984941 
L 136.417341 172.104591 
L 136.631399 171.92266 
L 137.416278 172.303332 
L 137.844394 172.241842 
L 138.27251 172.447034 
L 138.771978 171.969972 
L 139.057389 172.037617 
L 139.414152 172.06191 
L 139.770916 171.905198 
L 139.984973 171.893862 
L 140.413089 171.545932 
L 140.6985 171.795402 
L 141.055263 171.455362 
L 141.412026 171.72698 
L 141.697437 171.470685 
L 142.0542 171.949917 
L 142.339611 171.631258 
L 142.553669 171.769494 
L 142.839079 171.813684 
L 143.195843 171.652966 
L 143.623959 171.521398 
L 143.766664 171.525037 
L 144.123427 171.878546 
L 144.622896 171.786217 
L 145.051011 171.427647 
L 145.55048 171.299051 
L 146.121301 171.469794 
L 146.478064 171.509972 
L 147.120238 171.562846 
L 147.477001 171.589024 
L 147.762412 171.378898 
L 148.119175 171.72124 
L 148.333233 171.565773 
L 148.618644 171.659393 
L 148.832702 171.617996 
L 148.975407 171.564981 
L 149.33217 171.212244 
L 149.688934 171.467389 
L 150.117049 171.371761 
L 150.759223 171.002017 
L 150.973281 171.284745 
L 151.330044 171.296473 
L 151.544102 171.480406 
L 151.900866 171.184425 
L 152.186276 170.865567 
L 152.257629 170.949929 
L 152.543039 171.152328 
L 152.899803 170.831365 
L 153.185213 171.164017 
L 153.327919 171.190055 
L 153.684682 170.807142 
L 154.041445 170.963569 
L 154.18415 170.922476 
L 154.469561 171.004931 
L 155.25444 170.696857 
L 155.539851 170.287199 
L 155.682556 170.433815 
L 155.896614 170.68296 
L 156.039319 170.596191 
L 156.32473 170.413572 
L 156.467435 170.497674 
L 156.752846 170.804116 
L 157.109609 170.667425 
L 157.537725 171.137726 
L 157.894488 171.02621 
L 158.108546 171.067271 
L 158.536662 170.809345 
L 158.75072 171.029112 
L 159.107483 170.81971 
L 159.250188 170.812068 
L 159.606952 170.975245 
L 159.963715 170.607248 
L 160.249125 170.77365 
L 160.748594 170.55915 
L 161.105357 170.855323 
L 161.46212 170.625818 
L 161.747531 170.761303 
L 162.246999 170.677018 
L 162.53241 171.037137 
L 163.459994 170.236978 
L 163.674052 170.350751 
L 164.316226 171.095484 
L 164.387579 171.027183 
L 164.601637 170.868032 
L 164.815695 170.714394 
L 165.101105 170.529789 
L 165.315163 170.57543 
L 165.885984 170.820899 
L 166.100042 170.789228 
L 166.599511 170.607442 
L 166.813569 170.622036 
L 167.241685 170.650882 
L 167.38439 170.612938 
L 167.598448 170.800636 
L 167.883859 171.077363 
L 168.311974 170.701369 
L 168.526032 170.788345 
L 169.025501 170.936364 
L 169.239559 170.715517 
L 169.524969 170.980635 
L 169.667675 170.96667 
L 169.881733 170.731532 
L 170.095791 170.87483 
L 170.523907 170.658609 
L 170.666612 170.700359 
L 171.023375 170.402884 
L 171.308786 170.764894 
L 171.879607 170.678823 
L 172.093665 170.466945 
L 172.450428 170.824812 
L 172.735839 170.542573 
L 173.163955 171.033745 
L 174.37695 170.611756 
L 174.519655 170.682761 
L 174.733713 170.798727 
L 175.375887 170.356126 
L 175.518592 170.381039 
L 175.661297 170.502027 
L 175.946708 170.833282 
L 176.089413 170.819955 
L 176.446176 170.32784 
L 176.731587 170.68846 
L 177.159703 170.49144 
L 177.516466 170.702666 
L 178.658108 170.858708 
L 178.800814 170.929516 
L 179.300282 171.360483 
L 179.51434 170.973017 
L 179.728398 170.675174 
L 179.871103 170.907856 
L 180.156514 171.439561 
L 180.58463 171.444982 
L 180.87004 171.748577 
L 181.084098 171.325754 
L 181.298156 170.984578 
L 181.512214 171.199196 
L 181.726272 171.302266 
L 182.011683 171.313406 
L 182.725209 171.152941 
L 182.867915 171.161386 
L 183.29603 170.9484 
L 183.724146 171.554184 
L 184.009557 171.580372 
L 184.223615 171.576538 
L 184.437673 171.627277 
L 184.865789 171.317776 
L 185.222552 171.775349 
L 185.365257 171.846306 
L 185.72202 171.586672 
L 186.007431 171.980702 
L 186.720958 171.547465 
L 187.363131 171.626615 
L 187.8626 171.51742 
L 188.076658 171.603003 
L 188.647479 171.459203 
L 188.861537 171.45832 
L 189.146948 171.560311 
L 189.575063 171.51697 
L 189.789121 171.599834 
L 190.28859 171.354978 
L 190.502648 171.353996 
L 190.859411 171.676501 
L 191.073469 171.360942 
L 191.216174 171.438374 
L 191.430232 171.708858 
L 191.64429 171.768651 
L 192.072406 171.450589 
L 192.357817 171.411015 
L 193.356754 171.403015 
L 193.570812 171.311019 
L 194.498396 171.422482 
L 194.855159 171.685853 
L 195.211923 171.261895 
L 195.497333 171.454339 
L 195.782744 171.465182 
L 196.139507 171.438336 
L 196.424918 171.398722 
L 196.924386 171.573908 
L 197.281149 171.212265 
L 197.495207 171.048485 
L 198.066028 171.34209 
L 198.280086 171.434941 
L 198.779555 171.314782 
L 199.207671 171.309748 
L 199.421729 171.186015 
L 199.564434 171.364237 
L 199.849845 171.826471 
L 200.063903 171.789692 
L 200.420666 171.317855 
L 200.634724 171.542188 
L 200.777429 171.425565 
L 200.991487 171.025237 
L 201.134192 171.237151 
L 201.419603 171.73171 
L 201.562308 171.58861 
L 201.847719 171.46323 
L 201.990424 171.457725 
L 202.347187 170.890339 
L 202.41854 170.951556 
L 202.918008 171.563583 
L 203.417477 171.783625 
L 203.560182 171.760503 
L 203.845593 171.230388 
L 203.916946 171.279527 
L 204.202356 171.561546 
L 204.630472 171.134205 
L 204.773177 171.160337 
L 205.201293 170.886164 
L 205.700762 171.876499 
L 206.057525 171.4185 
L 206.485641 171.272973 
L 206.628346 171.18243 
L 206.842404 171.652949 
L 207.056462 171.964406 
L 207.555931 171.510911 
L 207.984046 171.379609 
L 208.198104 171.177166 
L 208.554868 171.775402 
L 208.911631 171.403522 
L 209.197041 171.677459 
L 209.482452 171.301333 
L 209.69651 170.960254 
L 209.767863 170.999363 
L 210.124626 172.175069 
L 210.195978 172.145373 
L 210.481389 171.649125 
L 210.7668 172.067911 
L 210.838152 171.985881 
L 211.337621 171.355968 
L 211.480326 171.307565 
L 211.908442 170.929795 
L 211.979795 170.984329 
L 212.407911 173.035482 
L 212.479263 172.934358 
L 212.621969 172.334967 
L 212.836026 171.174048 
L 212.978732 170.615336 
L 213.19279 169.882294 
L 213.335495 169.742679 
L 213.4782 170.260938 
L 213.692258 171.566907 
L 213.906316 171.952127 
L 214.120374 171.302557 
L 214.191727 171.368758 
L 214.619843 172.805489 
L 215.119311 171.253991 
L 215.404722 170.173462 
L 215.547427 170.338851 
L 216.046896 172.020995 
L 216.118248 172.100502 
L 216.403659 171.345212 
L 216.546364 171.534772 
L 216.903127 171.540851 
L 217.045833 171.098264 
L 217.117185 171.157281 
L 217.188538 171.172892 
L 217.331243 170.724991 
L 217.402596 170.444899 
L 217.473949 170.473746 
L 217.545301 170.469638 
L 217.759359 171.115016 
L 217.973417 172.077234 
L 218.187475 171.591213 
L 218.472886 170.732253 
L 218.544238 170.812018 
L 218.829649 172.238811 
L 218.972354 171.921969 
L 219.257765 170.957021 
L 219.471823 171.378469 
L 219.685881 171.02445 
L 219.899939 170.922767 
L 220.042644 171.314461 
L 220.185349 171.7313 
L 220.399407 171.500012 
L 220.47076 171.520049 
L 220.613465 171.229689 
L 220.684818 171.335237 
L 220.970228 172.222817 
L 221.041581 172.184189 
L 221.112934 172.16231 
L 221.612402 170.923981 
L 221.82646 170.018448 
L 221.897813 170.033119 
L 222.111871 171.340102 
L 222.325929 172.318279 
L 222.89675 170.991476 
L 223.18216 171.986107 
L 223.253513 171.919169 
L 223.396218 171.340365 
L 223.610276 170.331125 
L 223.824334 170.75375 
L 223.967039 170.516936 
L 224.038392 170.577195 
L 224.25245 170.801584 
L 224.537861 172.054591 
L 224.680566 171.896281 
L 224.965976 171.252168 
L 225.32274 171.948182 
L 226.107619 170.629873 
L 226.321677 170.763847 
L 226.464382 171.127984 
L 226.67844 172.103412 
L 226.749793 172.052372 
L 227.035203 171.732174 
L 227.177909 171.221139 
L 227.249261 171.295198 
L 227.534672 172.756476 
L 227.606024 172.663063 
L 227.74873 171.988051 
L 227.962788 170.710198 
L 228.176846 170.871626 
L 228.319551 170.644153 
L 228.604962 171.022286 
L 228.747667 171.549516 
L 228.890372 171.969009 
L 228.961725 171.874194 
L 229.175783 172.097255 
L 229.389841 171.594519 
L 229.461193 171.76302 
L 229.675251 172.789731 
L 229.817957 172.635328 
L 230.103367 171.142587 
L 230.17472 171.220446 
L 230.246072 171.407551 
L 230.317425 171.327029 
L 230.602836 170.140708 
L 230.816894 171.067643 
L 231.030952 172.369056 
L 231.53042 171.636689 
L 231.673125 172.201548 
L 231.815831 172.779262 
L 231.887183 172.710732 
L 232.315299 170.624693 
L 232.386652 170.783937 
L 232.529357 170.837172 
L 232.672062 170.703822 
L 232.814768 170.898597 
L 233.028826 171.256017 
L 233.242884 172.114447 
L 233.670999 171.763721 
L 234.027763 172.550669 
L 234.099115 172.375572 
L 234.241821 172.086021 
L 234.527231 170.913308 
L 234.741289 170.87209 
L 234.812642 170.808871 
L 235.383463 172.290736 
L 235.454816 172.135239 
L 235.668874 171.897294 
L 235.740226 171.888544 
L 235.882932 171.32883 
L 235.954284 171.417022 
L 236.239695 173.065276 
L 236.311047 173.013901 
L 236.453753 172.353353 
L 236.667811 170.693656 
L 236.739163 170.737729 
L 237.095927 170.902678 
L 237.595395 172.212336 
L 237.952158 172.176201 
L 238.023511 171.965814 
L 238.094864 172.028709 
L 238.166216 172.110003 
L 238.380274 172.814808 
L 238.594332 172.368243 
L 239.022448 170.806254 
L 239.165153 170.695295 
L 239.735974 172.187629 
L 239.87868 172.07184 
L 240.16409 172.005372 
L 240.235443 171.920932 
L 240.449501 172.646892 
L 240.592206 173.052845 
L 240.877617 171.781977 
L 241.091675 170.926397 
L 241.377085 170.963736 
L 241.733849 171.883865 
L 241.947907 172.403141 
L 242.161965 172.245327 
L 242.233317 172.371301 
L 242.30467 172.293727 
L 242.376022 172.101178 
L 242.447375 172.177135 
L 242.518728 172.253992 
L 242.732786 172.844429 
L 243.018196 171.874609 
L 243.303607 170.841786 
L 243.517665 170.708253 
L 243.589017 170.832793 
L 243.874428 171.813548 
L 244.088486 172.424697 
L 244.159839 172.352637 
L 244.373897 172.169694 
L 244.659307 172.237275 
L 244.802012 172.16571 
L 245.087423 171.631936 
L 245.515539 171.912255 
L 245.658244 171.961675 
L 245.80095 172.329526 
L 246.015007 172.913918 
L 246.157713 172.917071 
L 246.514476 172.135354 
L 246.799887 172.420164 
L 247.013945 172.34549 
L 247.584766 171.344558 
L 248.369645 172.728511 
L 248.726408 172.056465 
L 248.797761 172.107907 
L 249.154524 172.356356 
L 249.86805 172.124312 
L 250.296166 172.321112 
L 250.581577 172.330508 
L 250.866987 172.491674 
L 251.009693 172.630482 
L 251.152398 172.454824 
L 251.437809 171.948754 
L 251.723219 172.048839 
L 251.937277 171.740058 
L 252.079982 171.937581 
L 252.436746 172.551502 
L 252.579451 172.388519 
L 252.864862 171.876027 
L 253.007567 171.903002 
L 253.292977 172.172614 
L 253.721093 172.155717 
L 254.006504 172.36789 
L 254.505972 172.100536 
L 254.934088 172.266457 
L 255.219499 172.350507 
L 255.433557 172.497763 
L 255.647615 172.251476 
L 255.861673 172.112456 
L 256.147083 172.407351 
L 256.432494 172.302275 
L 257.003315 172.430497 
L 257.360078 172.124835 
L 257.788194 172.295872 
L 258.002252 172.319675 
L 258.359015 172.563474 
L 258.644426 172.203282 
L 258.787131 172.134528 
L 259.643363 172.708181 
L 259.786068 172.623132 
L 260.142832 172.260364 
L 260.856358 172.586938 
L 261.141769 172.815159 
L 261.284474 172.834464 
L 261.569885 172.479642 
L 261.783943 172.362714 
L 261.998 172.565611 
L 262.354764 172.500236 
L 262.711527 172.704769 
L 263.139643 172.573835 
L 263.567759 172.538396 
L 263.853169 172.566799 
L 264.209933 172.61516 
L 264.638048 172.57175 
L 265.137517 172.769712 
L 265.636985 172.848411 
L 265.851043 172.718898 
L 266.136454 172.384138 
L 266.56457 172.528818 
L 266.778628 172.5252 
L 266.992686 172.705729 
L 267.563507 172.450731 
L 267.706212 172.41946 
L 268.062975 172.865971 
L 268.348386 172.676705 
L 268.633797 172.862652 
L 268.919207 172.779456 
L 269.27597 172.621755 
L 269.632734 173.043104 
L 269.989497 172.767552 
L 270.34626 172.841916 
L 271.559255 172.46679 
L 271.701961 172.451541 
L 272.201429 172.750109 
L 272.629545 172.399554 
L 272.914956 172.39128 
L 273.200366 172.218817 
L 273.628482 172.617053 
L 273.985245 172.482587 
L 274.342008 172.317059 
L 274.698772 172.246232 
L 275.126888 172.673979 
L 275.412298 172.496 
L 275.697709 172.535628 
L 276.054472 172.102038 
L 276.553941 172.547362 
L 276.982056 172.428817 
L 277.33882 172.253806 
L 277.552878 172.023854 
L 277.695583 172.285737 
L 277.909641 172.677259 
L 278.052346 172.504831 
L 278.266404 172.279393 
L 278.69452 172.579385 
L 279.265341 172.444881 
L 279.836162 172.638835 
L 280.05022 172.562631 
L 280.335631 172.299579 
L 280.835099 172.480524 
L 281.263215 172.399237 
L 281.548626 172.531155 
L 282.119447 172.492146 
L 282.404858 172.083538 
L 282.547563 172.195418 
L 282.832973 172.522726 
L 283.189737 172.397901 
L 283.475147 172.279952 
L 283.831911 172.15044 
L 284.045969 172.268466 
L 284.331379 172.700792 
L 284.545437 172.442077 
L 284.688142 172.30434 
L 285.258964 172.538818 
L 285.758432 172.287056 
L 285.97249 172.322528 
L 286.257901 172.13492 
L 286.757369 172.475989 
L 287.256838 171.913616 
L 287.756306 172.496995 
L 288.113069 172.274401 
L 288.327127 172.234126 
L 288.469833 172.05512 
L 288.612538 171.939207 
L 288.897949 172.106528 
L 289.326064 172.484692 
L 289.540122 172.353459 
L 289.896886 172.137832 
L 290.253649 171.676445 
L 290.396354 171.897904 
L 290.681765 172.462264 
L 290.82447 172.27621 
L 291.109881 171.851119 
L 291.323939 171.720379 
L 291.466644 171.780193 
L 292.108818 172.734429 
L 292.251523 172.646305 
L 292.536934 172.275582 
L 292.893697 171.81386 
L 293.107755 171.90578 
L 293.393165 172.179074 
L 293.607223 172.242839 
L 293.892634 172.290668 
L 294.32075 172.555242 
L 294.962924 172.541321 
L 295.462392 172.346629 
L 295.747803 172.545334 
L 296.175919 172.376394 
L 296.818092 172.59177 
L 297.174856 172.552945 
L 297.602971 172.475147 
L 298.10244 172.503044 
L 298.387851 172.435801 
L 298.601909 172.325577 
L 299.244082 172.645096 
L 299.600846 172.702412 
L 299.886256 172.78008 
L 300.243019 172.581926 
L 300.457077 172.536929 
L 300.813841 172.73004 
L 301.099251 172.612928 
L 301.313309 172.684857 
L 301.812778 172.788633 
L 302.454952 172.660144 
L 302.883067 172.441201 
L 303.311183 172.602765 
L 303.596594 172.394443 
L 303.810652 172.474805 
L 304.381473 172.833854 
L 304.738236 172.903354 
L 305.309057 172.614911 
L 305.808526 172.722127 
L 306.165289 172.54712 
L 306.664758 172.854165 
L 308.020458 172.55906 
L 308.305869 172.688166 
L 308.733984 172.602192 
L 309.233453 172.97479 
L 310.018332 172.816025 
L 310.375095 172.672009 
L 310.803211 172.991475 
L 311.231327 172.636073 
L 311.516738 172.774002 
L 312.444322 172.703079 
L 312.872438 172.091315 
L 313.015143 172.205659 
L 313.371907 172.720654 
L 313.942728 172.973716 
L 314.370844 173.057484 
L 315.369781 173.040433 
L 315.726544 173.177198 
L 316.15466 172.6708 
L 317.296302 173.174407 
L 318.009829 172.607866 
L 318.652002 173.050502 
L 319.080118 173.162758 
L 319.508234 173.005464 
L 320.150408 173.264655 
L 320.649877 173.157991 
L 320.792582 173.126799 
L 321.149345 172.860923 
L 322.07693 173.373202 
L 322.719103 173.021889 
L 322.933161 172.968249 
L 323.075867 173.081773 
L 323.289925 173.259317 
L 323.71804 173.020864 
L 323.932098 173.195396 
L 324.288862 173.649803 
L 324.360214 173.594094 
L 324.645625 173.126071 
L 324.78833 173.244269 
L 325.002388 173.512831 
L 325.430504 173.081247 
L 325.715915 173.524919 
L 326.072678 173.096453 
L 326.215383 173.204944 
L 326.500794 173.574502 
L 326.714852 173.326351 
L 326.857557 173.217271 
L 327.285673 173.480668 
L 327.785141 173.271159 
L 327.999199 173.354632 
L 328.427315 173.082451 
L 328.998136 173.369116 
L 329.497605 173.46203 
L 329.783015 173.219935 
L 329.925721 173.332613 
L 330.139779 173.521748 
L 330.639247 173.580008 
L 330.853305 173.738016 
L 331.352774 173.181061 
L 331.923595 173.695117 
L 332.351711 173.366763 
L 332.637121 173.375685 
L 332.922532 173.681277 
L 333.065237 173.734739 
L 333.207943 173.5338 
L 333.493353 173.130796 
L 334.064174 173.43058 
L 334.278232 173.527838 
L 334.420938 173.669663 
L 334.634995 173.865815 
L 335.063111 173.214949 
L 335.134464 173.288466 
L 335.491227 173.536365 
L 335.776638 173.915202 
L 336.204754 173.728928 
L 336.418812 173.6029 
L 337.132338 173.874336 
L 337.346396 174.077668 
L 337.489101 174.042185 
L 337.703159 173.666825 
L 337.917217 173.409868 
L 338.345333 173.688794 
L 338.559391 173.481257 
L 338.702096 173.626742 
L 338.987507 174.049505 
L 339.486975 173.874663 
L 339.843739 173.980368 
L 340.129149 174.068802 
L 340.343207 174.048885 
L 340.485913 174.135579 
L 340.771323 173.965912 
L 341.413497 174.110903 
L 341.698908 174.375992 
L 342.412434 174.175124 
L 342.84055 173.980827 
L 343.054608 174.221103 
L 343.268666 174.568527 
L 343.482724 174.352477 
L 343.696782 174.014914 
L 343.839487 174.079939 
L 344.267603 174.553993 
L 344.481661 174.636956 
L 344.767071 174.797283 
L 345.052482 174.325641 
L 345.26654 174.068274 
L 345.551951 174.269372 
L 345.694656 174.337304 
L 346.051419 174.139952 
L 346.550888 174.541301 
L 347.121709 174.586418 
L 347.478472 174.642697 
L 347.69253 174.465351 
L 347.977941 174.2482 
L 348.406056 174.632764 
L 348.691467 174.47582 
L 349.119583 174.717536 
L 349.476346 174.450744 
L 349.833109 174.982442 
L 349.904462 174.915511 
L 350.332578 174.463482 
L 350.760694 174.633394 
L 350.974752 174.437287 
L 351.545573 174.781916 
L 352.116394 174.681423 
L 352.401805 174.436491 
L 352.758568 174.480608 
L 353.043978 174.443066 
L 353.186684 174.477138 
L 353.329389 174.331811 
L 353.6148 174.148336 
L 353.828858 174.277771 
L 354.185621 174.825232 
L 354.471031 175.09964 
L 354.756442 174.951405 
L 355.255911 174.560537 
L 355.469969 174.689922 
L 355.755379 174.948645 
L 355.969437 174.812659 
L 356.183495 174.758228 
L 356.611611 175.024292 
L 356.968374 174.750852 
L 357.182432 174.97082 
L 357.39649 175.144993 
L 357.610548 174.968704 
L 357.824606 174.790995 
L 358.395427 174.754853 
L 358.609485 174.648432 
L 358.75219 174.810976 
L 359.037601 175.232231 
L 359.251659 174.993523 
L 359.394364 174.878588 
L 359.608422 175.102086 
L 359.82248 175.291896 
L 360.036538 175.033912 
L 360.321949 174.788359 
L 360.821417 175.013221 
L 361.106828 174.902063 
L 361.891707 175.239707 
L 362.605233 175.074981 
L 362.890644 175.052896 
L 363.247407 175.246379 
L 363.60417 175.081957 
L 363.960934 175.198903 
L 364.317697 175.510615 
L 364.959871 175.549264 
L 365.459339 175.232286 
L 365.816102 175.403232 
L 366.101513 175.340326 
L 366.743687 175.707688 
L 368.099387 176.08164 
L 368.313445 175.922718 
L 368.812914 175.41557 
L 369.669145 176.391937 
L 369.740498 176.30483 
L 370.382672 175.277926 
L 370.59673 175.537194 
L 370.88214 175.853557 
L 371.381609 176.075931 
L 371.95243 175.764206 
L 372.166488 175.88998 
L 372.451899 176.107802 
L 372.880014 176.128334 
L 373.236778 175.98738 
L 373.593541 175.608431 
L 373.736246 175.749011 
L 373.950304 176.035266 
L 374.093009 175.986718 
L 374.37842 175.766129 
L 374.735183 175.818952 
L 374.949241 175.910915 
L 375.377357 175.777267 
L 375.662768 176.071339 
L 376.447647 175.919546 
L 377.018468 176.227585 
L 377.517937 176.037806 
L 378.017405 176.140769 
L 378.302816 176.128053 
L 378.659579 176.00652 
L 379.087695 176.167049 
L 379.515811 176.087588 
L 379.872574 176.285287 
L 380.229337 175.904343 
L 380.443395 175.784935 
L 380.942864 176.010158 
L 381.156922 176.013977 
L 381.442332 176.157341 
L 381.870448 176.111645 
L 382.013153 176.108695 
L 382.369917 175.378694 
L 382.441269 175.451609 
L 382.655327 176.203238 
L 382.798032 176.622459 
L 382.869385 176.580111 
L 383.083443 176.258873 
L 383.368854 175.956619 
L 383.868322 176.027696 
L 384.153733 176.253183 
L 384.581849 175.489093 
L 384.653201 175.565876 
L 385.009965 175.972542 
L 385.580786 175.478423 
L 385.794844 175.991808 
L 386.008902 176.630753 
L 386.294312 176.323716 
L 386.793781 175.742077 
L 387.007839 175.568255 
L 387.650012 175.820579 
L 388.078128 175.91727 
L 388.292186 175.967125 
L 388.434892 175.772428 
L 388.791655 174.942908 
L 388.93436 175.344804 
L 389.219771 176.412539 
L 389.647887 175.623019 
L 389.719239 175.737912 
L 389.933297 175.771112 
L 390.29006 175.344505 
L 390.504118 175.435732 
L 390.789529 175.470689 
L 391.288997 175.433468 
L 391.574408 175.425826 
L 391.788466 175.100657 
L 391.931171 174.914717 
L 392.002524 174.897593 
L 392.43064 176.017321 
L 392.858756 175.172795 
L 393.072814 175.460567 
L 393.286872 175.378142 
L 394.357161 174.71279 
L 394.499867 174.65283 
L 394.713925 174.627602 
L 395.14204 174.892007 
L 395.356098 174.665784 
L 395.498804 174.72618 
L 395.712862 174.374683 
L 395.92692 174.042698 
L 396.069625 174.113422 
L 396.640446 174.789066 
L 396.854504 174.691387 
L 397.139915 174.815122 
L 397.28262 174.756121 
L 397.782088 174.278442 
L 398.067499 174.209955 
L 398.210204 174.215512 
L 398.709673 174.263798 
L 398.995083 173.949459 
L 399.494552 174.165167 
L 399.99402 173.787429 
L 400.208078 173.813847 
L 400.636194 173.467639 
L 400.921605 173.612279 
L 401.777837 173.352601 
L 402.1346 172.867134 
L 402.634068 173.27242 
L 402.990832 172.912027 
L 403.347595 172.677653 
L 403.633005 172.36352 
L 404.489237 172.027884 
L 404.703295 171.728393 
L 404.988706 171.25308 
L 405.345469 171.141899 
L 405.488174 171.134811 
L 405.702232 171.128086 
L 405.91629 171.141788 
L 406.130348 171.644065 
L 406.273053 171.736167 
L 406.558464 171.33637 
L 406.772522 171.781751 
L 407.129285 172.296722 
L 407.343343 172.237749 
L 407.628754 172.161454 
L 407.985517 172.468185 
L 408.199575 172.569641 
L 408.627691 173.070712 
L 408.841749 173.100406 
L 409.198512 173.806054 
L 409.483923 174.157743 
L 409.840686 174.273085 
L 410.411507 174.726085 
L 410.76827 174.988463 
L 411.125033 175.117708 
L 411.339091 175.206737 
L 411.695855 175.458833 
L 411.909913 175.416393 
L 412.480734 175.692953 
L 412.623439 175.700972 
L 413.19426 176.310189 
L 413.408318 176.387764 
L 413.622376 176.557569 
L 414.121845 176.578579 
L 414.549961 176.921911 
L 414.692666 176.914829 
L 415.049429 176.387857 
L 415.192134 176.506429 
L 415.548898 176.294353 
L 415.691603 176.570762 
L 415.834308 176.811038 
L 415.977013 176.563115 
L 416.191071 176.141782 
L 416.405129 176.457613 
L 416.547835 176.611334 
L 416.904598 176.167389 
L 417.190008 176.451915 
L 417.475419 176.403132 
L 417.76083 176.688519 
L 418.188946 176.36516 
L 418.331651 176.389379 
L 418.617061 176.063312 
L 419.045177 175.684034 
L 419.401941 175.592576 
L 419.687351 175.2428 
L 420.18682 174.433787 
L 420.686288 174.223077 
L 421.827931 172.045401 
L 422.113341 171.156255 
L 422.541457 172.322928 
L 422.826868 172.704999 
L 422.969573 172.822417 
L 423.326336 173.578543 
L 424.111215 175.748071 
L 424.325273 175.75501 
L 424.467978 175.768972 
L 424.753389 176.382629 
L 425.0388 176.735115 
L 425.32421 176.944039 
L 425.752326 177.603882 
L 425.895031 177.579619 
L 426.180442 177.50128 
L 426.537205 177.274255 
L 426.822616 176.80299 
L 427.179379 174.983183 
L 427.393437 173.585869 
L 427.892906 176.780127 
L 428.249669 178.035573 
L 428.321021 177.961633 
L 428.606432 176.560803 
L 428.891843 173.529422 
L 428.963195 172.36516 
L 429.319959 177.795156 
L 429.462664 178.472611 
L 429.534016 178.363641 
L 429.676722 176.877019 
L 429.819427 173.690226 
L 429.89078 173.827103 
L 430.17619 179.350639 
L 430.247543 179.361651 
L 430.390248 176.845872 
L 430.461601 174.194673 
L 430.747011 180.058715 
L 430.889717 176.615003 
L 430.961069 174.236101 
L 431.175127 181.867069 
L 431.24648 181.091144 
L 431.317833 177.964521 
L 431.531891 183.406568 
L 431.674596 176.38421 
L 431.817301 154.889248 
L 432.031359 79.807413 
L 432.165576 -1 
L 432.165576 -1 
" clip-path="url(#pf08283222a)" style="fill: none; stroke: #1f77b4; stroke-width: 1.5; stroke-linecap: square"/>
   </g>
   <g id="patch_3">
    <path d="M 94.711719 279.010828 
L 94.711719 12.898828 
" style="fill: none; stroke: #000000; stroke-width: 0.8; stroke-linejoin: miter; stroke-linecap: square"/>
   </g>
   <g id="patch_4">
    <path d="M 451.831719 279.010828 
L 451.831719 12.898828 
" style="fill: none; stroke: #000000; stroke-width: 0.8; stroke-linejoin: miter; stroke-linecap: square"/>
   </g>
   <g id="patch_5">
    <path d="M 94.711719 279.010828 
L 451.831719 279.010828 
" style="fill: none; stroke: #000000; stroke-width: 0.8; stroke-linejoin: miter; stroke-linecap: square"/>
   </g>
   <g id="patch_6">
    <path d="M 94.711719 12.898828 
L 451.831719 12.898828 
" style="fill: none; stroke: #000000; stroke-width: 0.8; stroke-linejoin: miter; stroke-linecap: square"/>
   </g>
  </g>
 </g>
 <defs>
  <clipPath id="pf08283222a">
   <rect x="94.711719" y="12.898828" width="357.12" height="266.112"/>
  </clipPath>
 </defs>
</svg>
