<?xml version="1.0" encoding="utf-8" standalone="no"?>
<!DOCTYPE svg PUBLIC "-//W3C//DTD SVG 1.1//EN"
  "http://www.w3.org/Graphics/SVG/1.1/DTD/svg11.dtd">
<svg xmlns:xlink="http://www.w3.org/1999/xlink" width="468.575469pt" height="331.128016pt" viewBox="0 0 468.575469 331.128016" xmlns="http://www.w3.org/2000/svg" version="1.1">
 <defs>
  <style type="text/css">*{stroke-linejoin: round; stroke-linecap: butt}</style>
 </defs>
 <g id="figure_1">
  <g id="patch_1">
   <path d="M 0 331.128016 
L 468.575469 331.128016 
L 468.575469 0 
L 0 0 
L 0 331.128016 
z
" style="fill: none"/>
  </g>
  <g id="axes_1">
   <g id="patch_2">
    <path d="M 104.255469 279.010828 
L 461.375469 279.010828 
L 461.375469 12.898828 
L 104.255469 12.898828 
L 104.255469 279.010828 
z
" style="fill: none"/>
   </g>
   <g id="matplotlib.axis_1">
    <g id="xtick_1">
     <g id="line2d_1">
      <path d="M 144.664598 279.010828 
L 144.664598 12.898828 
" clip-path="url(#p0073ac46e8)" style="fill: none; stroke: #b0b0b0; stroke-width: 0.8; stroke-linecap: square"/>
     </g>
     <g id="line2d_2">
      <defs>
       <path id="md39032bed2" d="M 0 0 
L 0 3.5 
" style="stroke: #000000; stroke-width: 0.8"/>
      </defs>
      <g>
       <use xlink:href="#md39032bed2" x="144.664598" y="279.010828" style="stroke: #000000; stroke-width: 0.8"/>
      </g>
     </g>
     <g id="text_1">
      <!-- −2000 -->
      <g transform="translate(119.292333 297.408484)scale(0.15 -0.15)">
       <defs>
        <path id="DejaVuSans-2212" d="M 678 2272 
L 4684 2272 
L 4684 1741 
L 678 1741 
L 678 2272 
z
" transform="scale(0.015625)"/>
        <path id="DejaVuSans-32" d="M 1228 531 
L 3431 531 
L 3431 0 
L 469 0 
L 469 531 
Q 828 903 1448 1529 
Q 2069 2156 2228 2338 
Q 2531 2678 2651 2914 
Q 2772 3150 2772 3378 
Q 2772 3750 2511 3984 
Q 2250 4219 1831 4219 
Q 1534 4219 1204 4116 
Q 875 4013 500 3803 
L 500 4441 
Q 881 4594 1212 4672 
Q 1544 4750 1819 4750 
Q 2544 4750 2975 4387 
Q 3406 4025 3406 3419 
Q 3406 3131 3298 2873 
Q 3191 2616 2906 2266 
Q 2828 2175 2409 1742 
Q 1991 1309 1228 531 
z
" transform="scale(0.015625)"/>
        <path id="DejaVuSans-30" d="M 2034 4250 
Q 1547 4250 1301 3770 
Q 1056 3291 1056 2328 
Q 1056 1369 1301 889 
Q 1547 409 2034 409 
Q 2525 409 2770 889 
Q 3016 1369 3016 2328 
Q 3016 3291 2770 3770 
Q 2525 4250 2034 4250 
z
M 2034 4750 
Q 2819 4750 3233 4129 
Q 3647 3509 3647 2328 
Q 3647 1150 3233 529 
Q 2819 -91 2034 -91 
Q 1250 -91 836 529 
Q 422 1150 422 2328 
Q 422 3509 836 4129 
Q 1250 4750 2034 4750 
z
" transform="scale(0.015625)"/>
       </defs>
       <use xlink:href="#DejaVuSans-2212"/>
       <use xlink:href="#DejaVuSans-32" x="83.789062"/>
       <use xlink:href="#DejaVuSans-30" x="147.412109"/>
       <use xlink:href="#DejaVuSans-30" x="211.035156"/>
       <use xlink:href="#DejaVuSans-30" x="274.658203"/>
      </g>
     </g>
    </g>
    <g id="xtick_2">
     <g id="line2d_3">
      <path d="M 213.740034 279.010828 
L 213.740034 12.898828 
" clip-path="url(#p0073ac46e8)" style="fill: none; stroke: #b0b0b0; stroke-width: 0.8; stroke-linecap: square"/>
     </g>
     <g id="line2d_4">
      <g>
       <use xlink:href="#md39032bed2" x="213.740034" y="279.010828" style="stroke: #000000; stroke-width: 0.8"/>
      </g>
     </g>
     <g id="text_2">
      <!-- −1000 -->
      <g transform="translate(188.367768 297.408484)scale(0.15 -0.15)">
       <defs>
        <path id="DejaVuSans-31" d="M 794 531 
L 1825 531 
L 1825 4091 
L 703 3866 
L 703 4441 
L 1819 4666 
L 2450 4666 
L 2450 531 
L 3481 531 
L 3481 0 
L 794 0 
L 794 531 
z
" transform="scale(0.015625)"/>
       </defs>
       <use xlink:href="#DejaVuSans-2212"/>
       <use xlink:href="#DejaVuSans-31" x="83.789062"/>
       <use xlink:href="#DejaVuSans-30" x="147.412109"/>
       <use xlink:href="#DejaVuSans-30" x="211.035156"/>
       <use xlink:href="#DejaVuSans-30" x="274.658203"/>
      </g>
     </g>
    </g>
    <g id="xtick_3">
     <g id="line2d_5">
      <path d="M 282.815469 279.010828 
L 282.815469 12.898828 
" clip-path="url(#p0073ac46e8)" style="fill: none; stroke: #b0b0b0; stroke-width: 0.8; stroke-linecap: square"/>
     </g>
     <g id="line2d_6">
      <g>
       <use xlink:href="#md39032bed2" x="282.815469" y="279.010828" style="stroke: #000000; stroke-width: 0.8"/>
      </g>
     </g>
     <g id="text_3">
      <!-- 0 -->
      <g transform="translate(278.043594 297.408484)scale(0.15 -0.15)">
       <use xlink:href="#DejaVuSans-30"/>
      </g>
     </g>
    </g>
    <g id="xtick_4">
     <g id="line2d_7">
      <path d="M 351.890904 279.010828 
L 351.890904 12.898828 
" clip-path="url(#p0073ac46e8)" style="fill: none; stroke: #b0b0b0; stroke-width: 0.8; stroke-linecap: square"/>
     </g>
     <g id="line2d_8">
      <g>
       <use xlink:href="#md39032bed2" x="351.890904" y="279.010828" style="stroke: #000000; stroke-width: 0.8"/>
      </g>
     </g>
     <g id="text_4">
      <!-- 1000 -->
      <g transform="translate(332.803404 297.408484)scale(0.15 -0.15)">
       <use xlink:href="#DejaVuSans-31"/>
       <use xlink:href="#DejaVuSans-30" x="63.623047"/>
       <use xlink:href="#DejaVuSans-30" x="127.246094"/>
       <use xlink:href="#DejaVuSans-30" x="190.869141"/>
      </g>
     </g>
    </g>
    <g id="xtick_5">
     <g id="line2d_9">
      <path d="M 420.966339 279.010828 
L 420.966339 12.898828 
" clip-path="url(#p0073ac46e8)" style="fill: none; stroke: #b0b0b0; stroke-width: 0.8; stroke-linecap: square"/>
     </g>
     <g id="line2d_10">
      <g>
       <use xlink:href="#md39032bed2" x="420.966339" y="279.010828" style="stroke: #000000; stroke-width: 0.8"/>
      </g>
     </g>
     <g id="text_5">
      <!-- 2000 -->
      <g transform="translate(401.878839 297.408484)scale(0.15 -0.15)">
       <use xlink:href="#DejaVuSans-32"/>
       <use xlink:href="#DejaVuSans-30" x="63.623047"/>
       <use xlink:href="#DejaVuSans-30" x="127.246094"/>
       <use xlink:href="#DejaVuSans-30" x="190.869141"/>
      </g>
     </g>
    </g>
    <g id="text_6">
     <!-- X ($\mu m$) -->
     <g transform="translate(248.815469 319.728016)scale(0.2 -0.2)">
      <defs>
       <path id="DejaVuSans-58" d="M 403 4666 
L 1081 4666 
L 2241 2931 
L 3406 4666 
L 4084 4666 
L 2584 2425 
L 4184 0 
L 3506 0 
L 2194 1984 
L 872 0 
L 191 0 
L 1856 2491 
L 403 4666 
z
" transform="scale(0.015625)"/>
       <path id="DejaVuSans-20" transform="scale(0.015625)"/>
       <path id="DejaVuSans-28" d="M 1984 4856 
Q 1566 4138 1362 3434 
Q 1159 2731 1159 2009 
Q 1159 1288 1364 580 
Q 1569 -128 1984 -844 
L 1484 -844 
Q 1016 -109 783 600 
Q 550 1309 550 2009 
Q 550 2706 781 3412 
Q 1013 4119 1484 4856 
L 1984 4856 
z
" transform="scale(0.015625)"/>
       <path id="DejaVuSans-Oblique-3bc" d="M -84 -1331 
L 856 3500 
L 1434 3500 
L 1009 1322 
Q 997 1256 987 1175 
Q 978 1094 978 1013 
Q 978 722 1161 565 
Q 1344 409 1684 409 
Q 2147 409 2431 671 
Q 2716 934 2816 1459 
L 3213 3500 
L 3788 3500 
L 3266 809 
Q 3253 750 3248 706 
Q 3244 663 3244 628 
Q 3244 531 3283 486 
Q 3322 441 3406 441 
Q 3438 441 3492 456 
Q 3547 472 3647 513 
L 3559 50 
Q 3422 -19 3297 -55 
Q 3172 -91 3053 -91 
Q 2847 -91 2730 40 
Q 2613 172 2613 403 
Q 2438 153 2195 31 
Q 1953 -91 1625 -91 
Q 1334 -91 1117 43 
Q 900 178 831 397 
L 494 -1331 
L -84 -1331 
z
" transform="scale(0.015625)"/>
       <path id="DejaVuSans-Oblique-6d" d="M 5747 2113 
L 5338 0 
L 4763 0 
L 5166 2094 
Q 5191 2228 5203 2325 
Q 5216 2422 5216 2491 
Q 5216 2772 5059 2928 
Q 4903 3084 4622 3084 
Q 4203 3084 3875 2770 
Q 3547 2456 3450 1953 
L 3066 0 
L 2491 0 
L 2900 2094 
Q 2925 2209 2937 2307 
Q 2950 2406 2950 2484 
Q 2950 2769 2794 2926 
Q 2638 3084 2363 3084 
Q 1938 3084 1609 2770 
Q 1281 2456 1184 1953 
L 800 0 
L 225 0 
L 909 3500 
L 1484 3500 
L 1375 2956 
Q 1609 3263 1923 3423 
Q 2238 3584 2597 3584 
Q 2978 3584 3223 3384 
Q 3469 3184 3519 2828 
Q 3781 3197 4126 3390 
Q 4472 3584 4856 3584 
Q 5306 3584 5551 3325 
Q 5797 3066 5797 2591 
Q 5797 2488 5784 2364 
Q 5772 2241 5747 2113 
z
" transform="scale(0.015625)"/>
       <path id="DejaVuSans-29" d="M 513 4856 
L 1013 4856 
Q 1481 4119 1714 3412 
Q 1947 2706 1947 2009 
Q 1947 1309 1714 600 
Q 1481 -109 1013 -844 
L 513 -844 
Q 928 -128 1133 580 
Q 1338 1288 1338 2009 
Q 1338 2731 1133 3434 
Q 928 4138 513 4856 
z
" transform="scale(0.015625)"/>
      </defs>
      <use xlink:href="#DejaVuSans-58" transform="translate(0 0.125)"/>
      <use xlink:href="#DejaVuSans-20" transform="translate(68.505859 0.125)"/>
      <use xlink:href="#DejaVuSans-28" transform="translate(100.292969 0.125)"/>
      <use xlink:href="#DejaVuSans-Oblique-3bc" transform="translate(139.306641 0.125)"/>
      <use xlink:href="#DejaVuSans-Oblique-6d" transform="translate(202.929688 0.125)"/>
      <use xlink:href="#DejaVuSans-29" transform="translate(300.341797 0.125)"/>
     </g>
    </g>
   </g>
   <g id="matplotlib.axis_2">
    <g id="ytick_1">
     <g id="line2d_11">
      <path d="M 104.255469 279.010828 
L 461.375469 279.010828 
" clip-path="url(#p0073ac46e8)" style="fill: none; stroke: #b0b0b0; stroke-width: 0.8; stroke-linecap: square"/>
     </g>
     <g id="line2d_12">
      <defs>
       <path id="m6f3f5b6aff" d="M 0 0 
L -3.5 0 
" style="stroke: #000000; stroke-width: 0.8"/>
      </defs>
      <g>
       <use xlink:href="#m6f3f5b6aff" x="104.255469" y="279.010828" style="stroke: #000000; stroke-width: 0.8"/>
      </g>
     </g>
     <g id="text_7">
      <!-- −0.0100 -->
      <g transform="translate(32.2 284.709656)scale(0.15 -0.15)">
       <defs>
        <path id="DejaVuSans-2e" d="M 684 794 
L 1344 794 
L 1344 0 
L 684 0 
L 684 794 
z
" transform="scale(0.015625)"/>
       </defs>
       <use xlink:href="#DejaVuSans-2212"/>
       <use xlink:href="#DejaVuSans-30" x="83.789062"/>
       <use xlink:href="#DejaVuSans-2e" x="147.412109"/>
       <use xlink:href="#DejaVuSans-30" x="179.199219"/>
       <use xlink:href="#DejaVuSans-31" x="242.822266"/>
       <use xlink:href="#DejaVuSans-30" x="306.445312"/>
       <use xlink:href="#DejaVuSans-30" x="370.068359"/>
      </g>
     </g>
    </g>
    <g id="ytick_2">
     <g id="line2d_13">
      <path d="M 104.255469 245.746828 
L 461.375469 245.746828 
" clip-path="url(#p0073ac46e8)" style="fill: none; stroke: #b0b0b0; stroke-width: 0.8; stroke-linecap: square"/>
     </g>
     <g id="line2d_14">
      <g>
       <use xlink:href="#m6f3f5b6aff" x="104.255469" y="245.746828" style="stroke: #000000; stroke-width: 0.8"/>
      </g>
     </g>
     <g id="text_8">
      <!-- −0.0075 -->
      <g transform="translate(32.2 251.445656)scale(0.15 -0.15)">
       <defs>
        <path id="DejaVuSans-37" d="M 525 4666 
L 3525 4666 
L 3525 4397 
L 1831 0 
L 1172 0 
L 2766 4134 
L 525 4134 
L 525 4666 
z
" transform="scale(0.015625)"/>
        <path id="DejaVuSans-35" d="M 691 4666 
L 3169 4666 
L 3169 4134 
L 1269 4134 
L 1269 2991 
Q 1406 3038 1543 3061 
Q 1681 3084 1819 3084 
Q 2600 3084 3056 2656 
Q 3513 2228 3513 1497 
Q 3513 744 3044 326 
Q 2575 -91 1722 -91 
Q 1428 -91 1123 -41 
Q 819 9 494 109 
L 494 744 
Q 775 591 1075 516 
Q 1375 441 1709 441 
Q 2250 441 2565 725 
Q 2881 1009 2881 1497 
Q 2881 1984 2565 2268 
Q 2250 2553 1709 2553 
Q 1456 2553 1204 2497 
Q 953 2441 691 2322 
L 691 4666 
z
" transform="scale(0.015625)"/>
       </defs>
       <use xlink:href="#DejaVuSans-2212"/>
       <use xlink:href="#DejaVuSans-30" x="83.789062"/>
       <use xlink:href="#DejaVuSans-2e" x="147.412109"/>
       <use xlink:href="#DejaVuSans-30" x="179.199219"/>
       <use xlink:href="#DejaVuSans-30" x="242.822266"/>
       <use xlink:href="#DejaVuSans-37" x="306.445312"/>
       <use xlink:href="#DejaVuSans-35" x="370.068359"/>
      </g>
     </g>
    </g>
    <g id="ytick_3">
     <g id="line2d_15">
      <path d="M 104.255469 212.482828 
L 461.375469 212.482828 
" clip-path="url(#p0073ac46e8)" style="fill: none; stroke: #b0b0b0; stroke-width: 0.8; stroke-linecap: square"/>
     </g>
     <g id="line2d_16">
      <g>
       <use xlink:href="#m6f3f5b6aff" x="104.255469" y="212.482828" style="stroke: #000000; stroke-width: 0.8"/>
      </g>
     </g>
     <g id="text_9">
      <!-- −0.0050 -->
      <g transform="translate(32.2 218.181656)scale(0.15 -0.15)">
       <use xlink:href="#DejaVuSans-2212"/>
       <use xlink:href="#DejaVuSans-30" x="83.789062"/>
       <use xlink:href="#DejaVuSans-2e" x="147.412109"/>
       <use xlink:href="#DejaVuSans-30" x="179.199219"/>
       <use xlink:href="#DejaVuSans-30" x="242.822266"/>
       <use xlink:href="#DejaVuSans-35" x="306.445312"/>
       <use xlink:href="#DejaVuSans-30" x="370.068359"/>
      </g>
     </g>
    </g>
    <g id="ytick_4">
     <g id="line2d_17">
      <path d="M 104.255469 179.218828 
L 461.375469 179.218828 
" clip-path="url(#p0073ac46e8)" style="fill: none; stroke: #b0b0b0; stroke-width: 0.8; stroke-linecap: square"/>
     </g>
     <g id="line2d_18">
      <g>
       <use xlink:href="#m6f3f5b6aff" x="104.255469" y="179.218828" style="stroke: #000000; stroke-width: 0.8"/>
      </g>
     </g>
     <g id="text_10">
      <!-- −0.0025 -->
      <g transform="translate(32.2 184.917656)scale(0.15 -0.15)">
       <use xlink:href="#DejaVuSans-2212"/>
       <use xlink:href="#DejaVuSans-30" x="83.789062"/>
       <use xlink:href="#DejaVuSans-2e" x="147.412109"/>
       <use xlink:href="#DejaVuSans-30" x="179.199219"/>
       <use xlink:href="#DejaVuSans-30" x="242.822266"/>
       <use xlink:href="#DejaVuSans-32" x="306.445312"/>
       <use xlink:href="#DejaVuSans-35" x="370.068359"/>
      </g>
     </g>
    </g>
    <g id="ytick_5">
     <g id="line2d_19">
      <path d="M 104.255469 145.954828 
L 461.375469 145.954828 
" clip-path="url(#p0073ac46e8)" style="fill: none; stroke: #b0b0b0; stroke-width: 0.8; stroke-linecap: square"/>
     </g>
     <g id="line2d_20">
      <g>
       <use xlink:href="#m6f3f5b6aff" x="104.255469" y="145.954828" style="stroke: #000000; stroke-width: 0.8"/>
      </g>
     </g>
     <g id="text_11">
      <!-- 0.0000 -->
      <g transform="translate(44.769531 151.653656)scale(0.15 -0.15)">
       <use xlink:href="#DejaVuSans-30"/>
       <use xlink:href="#DejaVuSans-2e" x="63.623047"/>
       <use xlink:href="#DejaVuSans-30" x="95.410156"/>
       <use xlink:href="#DejaVuSans-30" x="159.033203"/>
       <use xlink:href="#DejaVuSans-30" x="222.65625"/>
       <use xlink:href="#DejaVuSans-30" x="286.279297"/>
      </g>
     </g>
    </g>
    <g id="ytick_6">
     <g id="line2d_21">
      <path d="M 104.255469 112.690828 
L 461.375469 112.690828 
" clip-path="url(#p0073ac46e8)" style="fill: none; stroke: #b0b0b0; stroke-width: 0.8; stroke-linecap: square"/>
     </g>
     <g id="line2d_22">
      <g>
       <use xlink:href="#m6f3f5b6aff" x="104.255469" y="112.690828" style="stroke: #000000; stroke-width: 0.8"/>
      </g>
     </g>
     <g id="text_12">
      <!-- 0.0025 -->
      <g transform="translate(44.769531 118.389656)scale(0.15 -0.15)">
       <use xlink:href="#DejaVuSans-30"/>
       <use xlink:href="#DejaVuSans-2e" x="63.623047"/>
       <use xlink:href="#DejaVuSans-30" x="95.410156"/>
       <use xlink:href="#DejaVuSans-30" x="159.033203"/>
       <use xlink:href="#DejaVuSans-32" x="222.65625"/>
       <use xlink:href="#DejaVuSans-35" x="286.279297"/>
      </g>
     </g>
    </g>
    <g id="ytick_7">
     <g id="line2d_23">
      <path d="M 104.255469 79.426828 
L 461.375469 79.426828 
" clip-path="url(#p0073ac46e8)" style="fill: none; stroke: #b0b0b0; stroke-width: 0.8; stroke-linecap: square"/>
     </g>
     <g id="line2d_24">
      <g>
       <use xlink:href="#m6f3f5b6aff" x="104.255469" y="79.426828" style="stroke: #000000; stroke-width: 0.8"/>
      </g>
     </g>
     <g id="text_13">
      <!-- 0.0050 -->
      <g transform="translate(44.769531 85.125656)scale(0.15 -0.15)">
       <use xlink:href="#DejaVuSans-30"/>
       <use xlink:href="#DejaVuSans-2e" x="63.623047"/>
       <use xlink:href="#DejaVuSans-30" x="95.410156"/>
       <use xlink:href="#DejaVuSans-30" x="159.033203"/>
       <use xlink:href="#DejaVuSans-35" x="222.65625"/>
       <use xlink:href="#DejaVuSans-30" x="286.279297"/>
      </g>
     </g>
    </g>
    <g id="ytick_8">
     <g id="line2d_25">
      <path d="M 104.255469 46.162828 
L 461.375469 46.162828 
" clip-path="url(#p0073ac46e8)" style="fill: none; stroke: #b0b0b0; stroke-width: 0.8; stroke-linecap: square"/>
     </g>
     <g id="line2d_26">
      <g>
       <use xlink:href="#m6f3f5b6aff" x="104.255469" y="46.162828" style="stroke: #000000; stroke-width: 0.8"/>
      </g>
     </g>
     <g id="text_14">
      <!-- 0.0075 -->
      <g transform="translate(44.769531 51.861656)scale(0.15 -0.15)">
       <use xlink:href="#DejaVuSans-30"/>
       <use xlink:href="#DejaVuSans-2e" x="63.623047"/>
       <use xlink:href="#DejaVuSans-30" x="95.410156"/>
       <use xlink:href="#DejaVuSans-30" x="159.033203"/>
       <use xlink:href="#DejaVuSans-37" x="222.65625"/>
       <use xlink:href="#DejaVuSans-35" x="286.279297"/>
      </g>
     </g>
    </g>
    <g id="ytick_9">
     <g id="line2d_27">
      <path d="M 104.255469 12.898828 
L 461.375469 12.898828 
" clip-path="url(#p0073ac46e8)" style="fill: none; stroke: #b0b0b0; stroke-width: 0.8; stroke-linecap: square"/>
     </g>
     <g id="line2d_28">
      <g>
       <use xlink:href="#m6f3f5b6aff" x="104.255469" y="12.898828" style="stroke: #000000; stroke-width: 0.8"/>
      </g>
     </g>
     <g id="text_15">
      <!-- 0.0100 -->
      <g transform="translate(44.769531 18.597656)scale(0.15 -0.15)">
       <use xlink:href="#DejaVuSans-30"/>
       <use xlink:href="#DejaVuSans-2e" x="63.623047"/>
       <use xlink:href="#DejaVuSans-30" x="95.410156"/>
       <use xlink:href="#DejaVuSans-31" x="159.033203"/>
       <use xlink:href="#DejaVuSans-30" x="222.65625"/>
       <use xlink:href="#DejaVuSans-30" x="286.279297"/>
      </g>
     </g>
    </g>
    <g id="text_16">
     <!-- Violation ($mm^{-2}$) -->
     <g transform="translate(24.040625 231.354828)rotate(-90)scale(0.2 -0.2)">
      <defs>
       <path id="DejaVuSans-56" d="M 1831 0 
L 50 4666 
L 709 4666 
L 2188 738 
L 3669 4666 
L 4325 4666 
L 2547 0 
L 1831 0 
z
" transform="scale(0.015625)"/>
       <path id="DejaVuSans-69" d="M 603 3500 
L 1178 3500 
L 1178 0 
L 603 0 
L 603 3500 
z
M 603 4863 
L 1178 4863 
L 1178 4134 
L 603 4134 
L 603 4863 
z
" transform="scale(0.015625)"/>
       <path id="DejaVuSans-6f" d="M 1959 3097 
Q 1497 3097 1228 2736 
Q 959 2375 959 1747 
Q 959 1119 1226 758 
Q 1494 397 1959 397 
Q 2419 397 2687 759 
Q 2956 1122 2956 1747 
Q 2956 2369 2687 2733 
Q 2419 3097 1959 3097 
z
M 1959 3584 
Q 2709 3584 3137 3096 
Q 3566 2609 3566 1747 
Q 3566 888 3137 398 
Q 2709 -91 1959 -91 
Q 1206 -91 779 398 
Q 353 888 353 1747 
Q 353 2609 779 3096 
Q 1206 3584 1959 3584 
z
" transform="scale(0.015625)"/>
       <path id="DejaVuSans-6c" d="M 603 4863 
L 1178 4863 
L 1178 0 
L 603 0 
L 603 4863 
z
" transform="scale(0.015625)"/>
       <path id="DejaVuSans-61" d="M 2194 1759 
Q 1497 1759 1228 1600 
Q 959 1441 959 1056 
Q 959 750 1161 570 
Q 1363 391 1709 391 
Q 2188 391 2477 730 
Q 2766 1069 2766 1631 
L 2766 1759 
L 2194 1759 
z
M 3341 1997 
L 3341 0 
L 2766 0 
L 2766 531 
Q 2569 213 2275 61 
Q 1981 -91 1556 -91 
Q 1019 -91 701 211 
Q 384 513 384 1019 
Q 384 1609 779 1909 
Q 1175 2209 1959 2209 
L 2766 2209 
L 2766 2266 
Q 2766 2663 2505 2880 
Q 2244 3097 1772 3097 
Q 1472 3097 1187 3025 
Q 903 2953 641 2809 
L 641 3341 
Q 956 3463 1253 3523 
Q 1550 3584 1831 3584 
Q 2591 3584 2966 3190 
Q 3341 2797 3341 1997 
z
" transform="scale(0.015625)"/>
       <path id="DejaVuSans-74" d="M 1172 4494 
L 1172 3500 
L 2356 3500 
L 2356 3053 
L 1172 3053 
L 1172 1153 
Q 1172 725 1289 603 
Q 1406 481 1766 481 
L 2356 481 
L 2356 0 
L 1766 0 
Q 1100 0 847 248 
Q 594 497 594 1153 
L 594 3053 
L 172 3053 
L 172 3500 
L 594 3500 
L 594 4494 
L 1172 4494 
z
" transform="scale(0.015625)"/>
       <path id="DejaVuSans-6e" d="M 3513 2113 
L 3513 0 
L 2938 0 
L 2938 2094 
Q 2938 2591 2744 2837 
Q 2550 3084 2163 3084 
Q 1697 3084 1428 2787 
Q 1159 2491 1159 1978 
L 1159 0 
L 581 0 
L 581 3500 
L 1159 3500 
L 1159 2956 
Q 1366 3272 1645 3428 
Q 1925 3584 2291 3584 
Q 2894 3584 3203 3211 
Q 3513 2838 3513 2113 
z
" transform="scale(0.015625)"/>
      </defs>
      <use xlink:href="#DejaVuSans-56" transform="translate(0 0.765625)"/>
      <use xlink:href="#DejaVuSans-69" transform="translate(68.408203 0.765625)"/>
      <use xlink:href="#DejaVuSans-6f" transform="translate(96.191406 0.765625)"/>
      <use xlink:href="#DejaVuSans-6c" transform="translate(157.373047 0.765625)"/>
      <use xlink:href="#DejaVuSans-61" transform="translate(185.15625 0.765625)"/>
      <use xlink:href="#DejaVuSans-74" transform="translate(246.435547 0.765625)"/>
      <use xlink:href="#DejaVuSans-69" transform="translate(285.644531 0.765625)"/>
      <use xlink:href="#DejaVuSans-6f" transform="translate(313.427734 0.765625)"/>
      <use xlink:href="#DejaVuSans-6e" transform="translate(374.609375 0.765625)"/>
      <use xlink:href="#DejaVuSans-20" transform="translate(437.988281 0.765625)"/>
      <use xlink:href="#DejaVuSans-28" transform="translate(469.775391 0.765625)"/>
      <use xlink:href="#DejaVuSans-Oblique-6d" transform="translate(508.789062 0.765625)"/>
      <use xlink:href="#DejaVuSans-Oblique-6d" transform="translate(606.201172 0.765625)"/>
      <use xlink:href="#DejaVuSans-2212" transform="translate(708.263177 39.046875)scale(0.7)"/>
      <use xlink:href="#DejaVuSans-32" transform="translate(766.915521 39.046875)scale(0.7)"/>
      <use xlink:href="#DejaVuSans-29" transform="translate(814.186029 0.765625)"/>
     </g>
    </g>
   </g>
   <g id="line2d_29">
    <path d="M 121.560692 -1 
L 121.578075 332.128016 
M 123.410466 332.128016 
L 123.632184 -1 
M 126.526707 -1 
L 126.735899 332.128016 
M 128.937391 332.128016 
L 130.134409 -1 
M 132.682777 -1 
L 133.612529 110.151577 
L 135.32073 332.128016 
M 136.239063 332.128016 
L 136.375546 323.162477 
L 137.0663 235.53441 
L 137.757055 148.952417 
L 138.102432 130.855056 
L 138.241829 -1 
M 139.637237 -1 
L 140.174695 115.911402 
L 140.520072 172.605026 
L 140.865449 206.107733 
L 141.210827 207.944302 
L 141.556204 179.805316 
L 142.246958 59.198339 
L 142.547514 -1 
M 144.052961 -1 
L 145.330172 332.128016 
M 146.739663 332.128016 
L 147.772993 120.803632 
L 148.11837 79.368221 
L 148.463747 73.089184 
L 148.809124 108.609047 
L 149.499879 271.792249 
L 149.720014 332.128016 
M 151.62608 332.128016 
L 151.917519 57.698435 
L 152.416186 -1 
M 153.699461 -1 
L 155.371291 184.486931 
L 155.716668 198.753363 
L 156.062045 199.364346 
L 156.407422 189.878201 
L 157.098177 155.832922 
L 157.788931 116.11403 
L 158.134308 101.054936 
L 158.479685 91.315254 
L 158.825063 87.885046 
L 159.17044 91.708307 
L 159.861194 112.766171 
L 160.551948 136.582864 
L 161.242703 151.160352 
L 161.58808 155.572786 
L 161.933457 158.08941 
L 162.278834 159.223243 
L 162.624211 159.864133 
L 162.969589 158.736344 
L 163.314966 156.519352 
L 164.00572 148.646658 
L 164.351097 146.594934 
L 165.041852 146.075139 
L 165.387229 147.86608 
L 165.732606 152.370123 
L 166.077983 160.229703 
L 167.114115 200.386307 
L 167.804869 222.504663 
L 168.150246 228.630774 
L 168.495623 229.001757 
L 168.841001 224.200875 
L 169.531755 208.880606 
L 169.877132 199.801882 
L 170.222509 92.408066 
L 170.913264 98.913033 
L 171.949395 112.524054 
L 172.294772 117.232647 
L 172.64015 120.236416 
L 172.985527 122.174429 
L 173.330904 123.427854 
L 174.021658 127.740988 
L 174.712413 134.377548 
L 175.05779 135.643338 
L 175.403167 137.711092 
L 176.093921 139.877455 
L 176.439299 139.605484 
L 177.130053 138.010776 
L 177.47543 135.160508 
L 177.820807 134.126258 
L 178.166184 134.292964 
L 178.856939 131.923978 
L 179.202316 132.328971 
L 179.547693 133.27565 
L 179.89307 133.181148 
L 180.238447 134.269126 
L 180.583825 133.971745 
L 181.274579 133.805982 
L 181.619956 134.833993 
L 181.965333 133.691908 
L 182.310711 131.552242 
L 183.001465 130.34763 
L 183.346842 128.450378 
L 183.692219 128.044617 
L 184.382974 128.952706 
L 184.728351 129.963082 
L 185.073728 133.344101 
L 185.419105 134.897912 
L 186.109859 135.66077 
L 186.455237 135.599301 
L 186.800614 133.751025 
L 187.145991 132.754284 
L 187.491368 132.160876 
L 187.836745 131.132162 
L 188.182123 130.819538 
L 188.5275 132.187695 
L 188.872877 132.265593 
L 189.218254 133.378617 
L 189.563631 133.890512 
L 189.909008 135.106877 
L 190.599763 136.807565 
L 190.94514 136.483741 
L 191.290517 135.797084 
L 191.635894 134.529708 
L 192.326649 132.838615 
L 193.017403 129.428014 
L 193.36278 128.902383 
L 193.708157 129.059165 
L 194.053535 130.255895 
L 194.398912 130.452142 
L 194.744289 130.271839 
L 195.435043 131.823713 
L 195.78042 132.673412 
L 196.125798 132.38945 
L 196.471175 131.370405 
L 196.816552 129.905044 
L 197.161929 129.0983 
L 197.507306 129.245459 
L 198.198061 128.06696 
L 198.888815 132.304334 
L 199.924947 137.206868 
L 200.270324 136.953952 
L 200.615701 137.995431 
L 200.961078 137.159177 
L 201.306455 135.642402 
L 201.99721 130.829846 
L 202.342587 130.175416 
L 202.687964 130.165327 
L 203.033341 130.354995 
L 203.724095 133.786472 
L 204.069473 134.236408 
L 204.41485 134.126586 
L 204.760227 134.430429 
L 205.105604 133.510429 
L 205.450981 133.890401 
L 205.796358 133.423005 
L 206.141736 133.213696 
L 206.487113 133.856137 
L 206.83249 134.928106 
L 207.177867 135.268341 
L 207.523244 135.211065 
L 207.868622 135.514511 
L 208.559376 132.659857 
L 208.904753 131.136959 
L 209.595507 132.57033 
L 209.940885 133.72681 
L 210.286262 136.394102 
L 210.631639 137.647462 
L 210.977016 136.892695 
L 211.66777 134.550985 
L 212.013148 133.060336 
L 212.358525 130.695026 
L 212.703902 130.165047 
L 213.049279 129.915129 
L 213.394656 130.534319 
L 213.740034 132.252111 
L 214.430788 137.397607 
L 215.121542 139.487716 
L 215.466919 139.195587 
L 215.812297 137.973778 
L 216.157674 135.717772 
L 216.503051 132.468137 
L 216.848428 131.156308 
L 217.193805 131.33927 
L 217.539182 130.760486 
L 217.88456 131.416315 
L 218.229937 132.795117 
L 218.920691 137.556563 
L 219.266068 139.783566 
L 219.611446 140.802081 
L 219.956823 140.798848 
L 220.3022 139.450706 
L 220.992954 135.40155 
L 221.683709 132.152983 
L 222.029086 132.059891 
L 222.374463 131.327832 
L 222.71984 131.217512 
L 223.065217 131.46503 
L 224.101349 135.113721 
L 224.792103 137.472512 
L 225.13748 138.979031 
L 225.482858 138.106819 
L 225.828235 138.237575 
L 226.173612 137.675989 
L 226.518989 137.526127 
L 227.209743 136.293581 
L 227.555121 135.606468 
L 227.900498 135.59928 
L 228.245875 135.191398 
L 228.591252 135.498781 
L 228.936629 136.141117 
L 229.282006 137.282289 
L 229.627384 136.944829 
L 229.972761 137.478272 
L 230.318138 137.174091 
L 230.663515 137.97988 
L 231.008892 136.780116 
L 231.35427 136.320272 
L 232.045024 134.830056 
L 232.390401 133.554907 
L 232.735778 133.280624 
L 233.426533 135.421645 
L 234.117287 138.608871 
L 234.462664 138.901742 
L 234.808041 137.789795 
L 235.153418 137.063653 
L 236.18955 132.182573 
L 236.534927 131.828979 
L 236.880304 132.438554 
L 237.571059 132.904706 
L 238.952567 142.942981 
L 239.297945 144.007953 
L 239.643322 142.806596 
L 239.988699 140.939995 
L 240.679453 134.253084 
L 241.02483 131.604166 
L 241.370208 131.194502 
L 241.715585 131.608494 
L 242.060962 133.081517 
L 242.751716 136.998513 
L 243.097094 138.196447 
L 243.442471 139.812319 
L 243.787848 140.371302 
L 244.133225 140.687715 
L 244.823979 138.615685 
L 245.169357 137.752409 
L 245.514734 135.658283 
L 246.205488 133.361669 
L 246.550865 133.64432 
L 246.896242 133.716965 
L 247.586997 137.448313 
L 247.932374 139.831215 
L 248.277751 139.325539 
L 248.623128 138.388703 
L 248.968506 138.100437 
L 249.313883 137.26344 
L 249.65926 136.917684 
L 250.004637 138.195064 
L 250.350014 139.034137 
L 250.695391 140.16609 
L 251.040769 139.228422 
L 251.386146 138.991088 
L 252.0769 135.430759 
L 252.422277 135.281918 
L 252.767654 136.277045 
L 253.458409 139.266251 
L 253.803786 140.575714 
L 254.149163 141.242593 
L 254.49454 140.27008 
L 255.185295 136.68735 
L 255.876049 135.731233 
L 256.221426 134.42429 
L 256.566803 133.827786 
L 256.912181 133.585424 
L 257.257558 135.134927 
L 257.602935 136.078134 
L 257.948312 137.845329 
L 258.293689 137.967796 
L 258.639066 139.800299 
L 258.984444 140.66962 
L 259.329821 140.843516 
L 259.675198 140.053934 
L 260.711329 133.783705 
L 261.056707 132.079764 
L 261.402084 132.04372 
L 261.747461 133.176209 
L 262.783593 141.342993 
L 263.474347 141.809824 
L 263.819724 141.080834 
L 264.165101 138.983729 
L 265.201233 135.540521 
L 265.54661 135.468599 
L 265.891987 134.43214 
L 266.237364 133.920929 
L 266.928119 137.65467 
L 267.618873 142.775266 
L 267.96425 144.146231 
L 268.655005 140.894768 
L 269.000382 138.367562 
L 269.691136 135.441271 
L 270.036513 135.357062 
L 270.38189 136.097755 
L 270.727268 136.47404 
L 271.072645 135.345884 
L 271.418022 135.694956 
L 271.763399 135.721611 
L 272.108776 136.696007 
L 272.454153 136.474936 
L 273.144908 140.006718 
L 273.490285 140.486836 
L 274.181039 139.733458 
L 275.217171 136.7787 
L 275.562548 136.660339 
L 275.907925 136.749411 
L 276.253302 136.641268 
L 276.59868 137.023524 
L 276.944057 138.621061 
L 277.980188 141.58294 
L 278.670943 140.536006 
L 279.01632 140.11647 
L 279.707074 138.211051 
L 280.397829 135.387208 
L 280.743206 135.40249 
L 281.088583 135.137819 
L 281.43396 135.786278 
L 282.124714 138.689427 
L 282.815469 139.921149 
L 283.160846 138.838971 
L 283.506223 138.491766 
L 283.8516 137.765896 
L 284.542355 134.311816 
L 284.887732 133.620558 
L 285.233109 134.174055 
L 285.578486 135.107145 
L 286.269241 138.809953 
L 286.614618 142.711504 
L 286.959995 144.670746 
L 287.305372 145.288329 
L 287.650749 145.410798 
L 289.032258 135.394245 
L 289.377635 134.318277 
L 289.723012 134.394678 
L 290.413767 137.446896 
L 290.759144 139.797824 
L 291.104521 140.324586 
L 291.449898 142.219302 
L 291.795275 143.299589 
L 292.48603 143.16373 
L 293.176784 140.43486 
L 294.212916 136.090804 
L 294.558293 136.338072 
L 294.90367 136.190072 
L 295.249047 136.534803 
L 295.594424 137.786838 
L 295.939801 138.167614 
L 296.285179 138.361783 
L 296.975933 139.699902 
L 297.32131 140.908266 
L 297.666687 140.565818 
L 298.012064 141.192138 
L 298.357442 140.861736 
L 298.702819 139.926607 
L 299.393573 139.12824 
L 299.73895 138.196642 
L 300.084328 137.924772 
L 300.429705 136.571423 
L 301.465836 138.802961 
L 301.811213 138.977142 
L 302.156591 139.976524 
L 302.847345 140.650122 
L 303.192722 140.160419 
L 303.538099 139.898854 
L 304.228854 138.413599 
L 304.574231 137.262255 
L 304.919608 137.510031 
L 305.264985 137.167366 
L 305.610362 137.215824 
L 305.95574 138.577634 
L 306.301117 138.683954 
L 306.646494 140.056444 
L 306.991871 140.892376 
L 307.682625 140.333411 
L 308.37338 137.358957 
L 308.718757 135.083779 
L 309.064134 134.215625 
L 309.409511 133.692239 
L 309.754888 134.444898 
L 310.100266 138.223766 
L 310.445643 140.499742 
L 310.79102 143.717117 
L 311.136397 143.673393 
L 311.481774 144.590792 
L 311.827152 144.324142 
L 312.172529 142.638816 
L 312.863283 137.833225 
L 313.20866 136.238276 
L 313.554037 135.588038 
L 313.899415 135.384984 
L 314.590169 136.297285 
L 314.935546 137.754645 
L 315.6263 141.649919 
L 316.317055 141.811973 
L 316.662432 141.747248 
L 317.007809 143.372715 
L 317.353186 143.805527 
L 318.389318 139.218858 
L 318.734695 138.25922 
L 319.080072 136.592363 
L 319.425449 134.00559 
L 319.770827 133.147645 
L 320.116204 134.252344 
L 322.188467 144.406257 
L 322.879221 141.509344 
L 323.224598 138.149543 
L 323.569976 136.716956 
L 323.915353 136.331665 
L 324.26073 134.417012 
L 324.606107 134.240687 
L 324.951484 134.772837 
L 325.987616 144.255392 
L 326.332993 144.893924 
L 327.023747 143.476522 
L 327.369124 141.99786 
L 327.714502 141.649742 
L 328.405256 136.583572 
L 328.750633 135.657139 
L 329.441388 136.933354 
L 329.786765 135.480738 
L 330.822896 143.082717 
L 331.168273 142.825603 
L 332.204405 137.348595 
L 332.549782 137.353726 
L 332.895159 135.57697 
L 333.585914 135.621587 
L 334.276668 140.23371 
L 334.622045 139.393133 
L 334.967422 140.143334 
L 335.3128 139.628573 
L 335.658177 141.586316 
L 336.003554 142.162084 
L 337.039685 137.264522 
L 337.385063 138.259536 
L 337.73044 137.285305 
L 338.075817 137.340768 
L 338.421194 136.282319 
L 338.766571 136.867157 
L 339.111948 138.420124 
L 339.802703 142.428657 
L 340.838834 142.699426 
L 341.184211 142.938235 
L 341.529589 141.061674 
L 341.874966 137.377782 
L 342.56572 135.781736 
L 342.911097 136.482396 
L 343.256475 135.408324 
L 343.601852 134.978534 
L 343.947229 135.265563 
L 344.637983 138.580179 
L 344.98336 139.435903 
L 345.328738 141.46124 
L 345.674115 142.178015 
L 346.019492 144.566147 
L 346.364869 144.257611 
L 347.055623 139.276683 
L 347.401001 135.935983 
L 347.746378 135.663327 
L 348.091755 135.000883 
L 348.437132 134.018112 
L 348.782509 134.37074 
L 349.127887 135.809672 
L 349.473264 139.179764 
L 350.164018 141.185942 
L 350.509395 140.176498 
L 350.854772 140.134926 
L 351.20015 139.584672 
L 351.545527 139.777543 
L 351.890904 139.0006 
L 352.236281 137.279191 
L 352.581658 136.885406 
L 352.927035 136.947158 
L 353.272413 138.006764 
L 353.61779 137.944288 
L 353.963167 137.467421 
L 354.999299 140.983676 
L 355.344676 139.824631 
L 356.03543 136.2715 
L 356.380807 135.205817 
L 356.726184 135.162448 
L 357.071562 134.715303 
L 357.416939 135.719364 
L 357.762316 135.573389 
L 358.107693 138.56135 
L 358.798447 140.780723 
L 359.143825 140.529503 
L 359.489202 139.755288 
L 359.834579 140.823894 
L 360.179956 140.986369 
L 360.870711 139.583399 
L 361.216088 138.244864 
L 361.561465 137.955253 
L 361.906842 137.157442 
L 362.252219 136.728108 
L 362.597596 134.711154 
L 362.942974 135.093359 
L 363.288351 135.93483 
L 363.633728 140.080194 
L 363.979105 141.285267 
L 364.324482 140.871857 
L 364.669859 141.056903 
L 365.015237 140.694925 
L 365.360614 141.142955 
L 366.396745 137.059366 
L 366.742123 136.981946 
L 367.0875 137.101456 
L 367.432877 136.094917 
L 368.123631 135.616491 
L 368.469008 138.543166 
L 368.814386 140.170632 
L 369.159763 140.520708 
L 369.50514 141.733466 
L 369.850517 141.352304 
L 370.195894 141.708589 
L 370.886649 137.001762 
L 371.232026 134.914547 
L 371.577403 134.19136 
L 371.92278 134.112482 
L 372.268157 133.758863 
L 372.613535 134.659272 
L 373.304289 138.053454 
L 373.649666 139.957058 
L 373.995043 140.013185 
L 374.34042 139.704991 
L 374.685798 139.022411 
L 375.031175 139.125629 
L 375.376552 138.316995 
L 375.721929 137.866096 
L 376.067306 136.135503 
L 376.758061 134.918084 
L 377.103438 134.419195 
L 377.794192 135.451071 
L 378.139569 137.019348 
L 379.175701 143.159809 
L 379.866455 141.465271 
L 380.211832 140.144277 
L 380.55721 139.888987 
L 380.902587 138.82764 
L 381.247964 137.354057 
L 381.938718 137.224976 
L 382.284095 138.031767 
L 382.629473 136.862993 
L 382.97485 136.918209 
L 383.320227 137.114765 
L 384.010981 139.700925 
L 384.701736 140.543497 
L 385.047113 140.027718 
L 385.39249 140.671153 
L 385.737867 140.383141 
L 386.083244 137.989045 
L 386.428622 136.419569 
L 386.773999 135.82702 
L 387.119376 137.239655 
L 387.464753 138.015074 
L 388.155507 140.751851 
L 388.500885 143.339635 
L 388.846262 144.92462 
L 389.191639 145.515266 
L 389.537016 145.177452 
L 389.882393 144.061777 
L 390.22777 144.485598 
L 390.573148 144.318991 
L 391.263902 141.037095 
L 391.609279 138.400738 
L 391.954656 136.718237 
L 392.645411 129.291518 
L 392.990788 123.906326 
L 393.681542 117.432075 
L 395.063051 103.63029 
L 395.408428 102.799034 
L 395.753805 102.281243 
L 396.099182 102.609375 
L 396.44456 103.259267 
L 396.789937 103.106773 
L 397.135314 244.340346 
L 397.480691 244.137644 
L 397.826068 239.662518 
L 398.516823 218.001127 
L 399.898331 164.695817 
L 400.243709 158.245928 
L 400.589086 155.136138 
L 400.934463 155.707805 
L 401.970594 160.273877 
L 402.661349 161.908784 
L 403.352103 166.823363 
L 403.69748 170.075376 
L 404.042858 171.657381 
L 404.388235 170.122987 
L 405.078989 155.941166 
L 405.769743 131.703649 
L 406.460498 106.44002 
L 406.805875 99.196668 
L 407.151252 98.640504 
L 407.496629 106.381763 
L 407.842006 121.413228 
L 409.223515 212.91646 
L 409.568892 221.252483 
L 409.91427 218.681623 
L 410.259647 202.968791 
L 410.605024 174.248126 
L 411.971051 -1 
M 413.060284 -1 
L 413.713418 91.122908 
L 414.058796 144.466572 
L 414.404173 180.262254 
L 414.74955 186.669103 
L 415.094927 157.441183 
L 415.440304 90.648751 
L 415.773208 -1 
M 417.062559 -1 
L 417.16719 121.49596 
L 417.512567 129.917457 
L 417.857945 178.437461 
L 418.500581 332.128016 
M 420.728072 332.128016 
L 421.657094 58.93564 
L 422.065644 -1 
M 422.483728 -1 
L 422.693225 15.935825 
L 423.383979 155.332233 
L 424.074734 288.259328 
L 424.420111 320.638457 
L 424.765488 319.882751 
L 425.110865 286.307131 
L 425.80162 142.174689 
L 426.363036 -1 
M 428.852643 -1 
L 429.255391 55.520653 
L 429.506728 332.128016 
M 431.223484 332.128016 
L 433.05454 85.256592 
L 433.745295 12.150669 
L 433.934369 -1 
M 434.939865 -1 
L 435.126803 15.936232 
L 435.472181 75.97883 
L 436.162935 276.944885 
L 436.312663 332.128016 
M 438.54662 332.128016 
L 438.580575 281.051372 
L 439.094934 -1 
M 442.015853 -1 
L 442.185404 332.128016 
M 444.031698 332.128016 
L 444.045186 -1 
L 444.045186 -1 
" clip-path="url(#p0073ac46e8)" style="fill: none; stroke: #1f77b4; stroke-width: 1.5; stroke-linecap: square"/>
   </g>
   <g id="patch_3">
    <path d="M 104.255469 279.010828 
L 104.255469 12.898828 
" style="fill: none; stroke: #000000; stroke-width: 0.8; stroke-linejoin: miter; stroke-linecap: square"/>
   </g>
   <g id="patch_4">
    <path d="M 461.375469 279.010828 
L 461.375469 12.898828 
" style="fill: none; stroke: #000000; stroke-width: 0.8; stroke-linejoin: miter; stroke-linecap: square"/>
   </g>
   <g id="patch_5">
    <path d="M 104.255469 279.010828 
L 461.375469 279.010828 
" style="fill: none; stroke: #000000; stroke-width: 0.8; stroke-linejoin: miter; stroke-linecap: square"/>
   </g>
   <g id="patch_6">
    <path d="M 104.255469 12.898828 
L 461.375469 12.898828 
" style="fill: none; stroke: #000000; stroke-width: 0.8; stroke-linejoin: miter; stroke-linecap: square"/>
   </g>
  </g>
 </g>
 <defs>
  <clipPath id="p0073ac46e8">
   <rect x="104.255469" y="12.898828" width="357.12" height="266.112"/>
  </clipPath>
 </defs>
</svg>
