<?xml version="1.0" encoding="utf-8" standalone="no"?>
<!DOCTYPE svg PUBLIC "-//W3C//DTD SVG 1.1//EN"
  "http://www.w3.org/Graphics/SVG/1.1/DTD/svg11.dtd">
<svg xmlns:xlink="http://www.w3.org/1999/xlink" width="435.177031pt" height="325.429187pt" viewBox="0 0 435.177031 325.429187" xmlns="http://www.w3.org/2000/svg" version="1.1">
 <defs>
  <style type="text/css">*{stroke-linejoin: round; stroke-linecap: butt}</style>
 </defs>
 <g id="figure_1">
  <g id="patch_1">
   <path d="M 0 325.429187 
L 435.177031 325.429187 
L 435.177031 0 
L 0 0 
L 0 325.429187 
z
" style="fill: none"/>
  </g>
  <g id="axes_1">
   <g id="patch_2">
    <path d="M 70.857031 273.312 
L 427.977031 273.312 
L 427.977031 7.2 
L 70.857031 7.2 
L 70.857031 273.312 
z
" style="fill: none"/>
   </g>
   <g id="matplotlib.axis_1">
    <g id="xtick_1">
     <g id="line2d_1">
      <path d="M 111.266161 273.312 
L 111.266161 7.2 
" clip-path="url(#pb89c3edd3e)" style="fill: none; stroke: #b0b0b0; stroke-width: 0.8; stroke-linecap: square"/>
     </g>
     <g id="line2d_2">
      <defs>
       <path id="md39032bed2" d="M 0 0 
L 0 3.5 
" style="stroke: #000000; stroke-width: 0.8"/>
      </defs>
      <g>
       <use xlink:href="#md39032bed2" x="111.266161" y="273.312" style="stroke: #000000; stroke-width: 0.8"/>
      </g>
     </g>
     <g id="text_1">
      <!-- −2000 -->
      <g transform="translate(85.893895 291.709656)scale(0.15 -0.15)">
       <defs>
        <path id="DejaVuSans-2212" d="M 678 2272 
L 4684 2272 
L 4684 1741 
L 678 1741 
L 678 2272 
z
" transform="scale(0.015625)"/>
        <path id="DejaVuSans-32" d="M 1228 531 
L 3431 531 
L 3431 0 
L 469 0 
L 469 531 
Q 828 903 1448 1529 
Q 2069 2156 2228 2338 
Q 2531 2678 2651 2914 
Q 2772 3150 2772 3378 
Q 2772 3750 2511 3984 
Q 2250 4219 1831 4219 
Q 1534 4219 1204 4116 
Q 875 4013 500 3803 
L 500 4441 
Q 881 4594 1212 4672 
Q 1544 4750 1819 4750 
Q 2544 4750 2975 4387 
Q 3406 4025 3406 3419 
Q 3406 3131 3298 2873 
Q 3191 2616 2906 2266 
Q 2828 2175 2409 1742 
Q 1991 1309 1228 531 
z
" transform="scale(0.015625)"/>
        <path id="DejaVuSans-30" d="M 2034 4250 
Q 1547 4250 1301 3770 
Q 1056 3291 1056 2328 
Q 1056 1369 1301 889 
Q 1547 409 2034 409 
Q 2525 409 2770 889 
Q 3016 1369 3016 2328 
Q 3016 3291 2770 3770 
Q 2525 4250 2034 4250 
z
M 2034 4750 
Q 2819 4750 3233 4129 
Q 3647 3509 3647 2328 
Q 3647 1150 3233 529 
Q 2819 -91 2034 -91 
Q 1250 -91 836 529 
Q 422 1150 422 2328 
Q 422 3509 836 4129 
Q 1250 4750 2034 4750 
z
" transform="scale(0.015625)"/>
       </defs>
       <use xlink:href="#DejaVuSans-2212"/>
       <use xlink:href="#DejaVuSans-32" x="83.789062"/>
       <use xlink:href="#DejaVuSans-30" x="147.412109"/>
       <use xlink:href="#DejaVuSans-30" x="211.035156"/>
       <use xlink:href="#DejaVuSans-30" x="274.658203"/>
      </g>
     </g>
    </g>
    <g id="xtick_2">
     <g id="line2d_3">
      <path d="M 180.341596 273.312 
L 180.341596 7.2 
" clip-path="url(#pb89c3edd3e)" style="fill: none; stroke: #b0b0b0; stroke-width: 0.8; stroke-linecap: square"/>
     </g>
     <g id="line2d_4">
      <g>
       <use xlink:href="#md39032bed2" x="180.341596" y="273.312" style="stroke: #000000; stroke-width: 0.8"/>
      </g>
     </g>
     <g id="text_2">
      <!-- −1000 -->
      <g transform="translate(154.96933 291.709656)scale(0.15 -0.15)">
       <defs>
        <path id="DejaVuSans-31" d="M 794 531 
L 1825 531 
L 1825 4091 
L 703 3866 
L 703 4441 
L 1819 4666 
L 2450 4666 
L 2450 531 
L 3481 531 
L 3481 0 
L 794 0 
L 794 531 
z
" transform="scale(0.015625)"/>
       </defs>
       <use xlink:href="#DejaVuSans-2212"/>
       <use xlink:href="#DejaVuSans-31" x="83.789062"/>
       <use xlink:href="#DejaVuSans-30" x="147.412109"/>
       <use xlink:href="#DejaVuSans-30" x="211.035156"/>
       <use xlink:href="#DejaVuSans-30" x="274.658203"/>
      </g>
     </g>
    </g>
    <g id="xtick_3">
     <g id="line2d_5">
      <path d="M 249.417031 273.312 
L 249.417031 7.2 
" clip-path="url(#pb89c3edd3e)" style="fill: none; stroke: #b0b0b0; stroke-width: 0.8; stroke-linecap: square"/>
     </g>
     <g id="line2d_6">
      <g>
       <use xlink:href="#md39032bed2" x="249.417031" y="273.312" style="stroke: #000000; stroke-width: 0.8"/>
      </g>
     </g>
     <g id="text_3">
      <!-- 0 -->
      <g transform="translate(244.645156 291.709656)scale(0.15 -0.15)">
       <use xlink:href="#DejaVuSans-30"/>
      </g>
     </g>
    </g>
    <g id="xtick_4">
     <g id="line2d_7">
      <path d="M 318.492466 273.312 
L 318.492466 7.2 
" clip-path="url(#pb89c3edd3e)" style="fill: none; stroke: #b0b0b0; stroke-width: 0.8; stroke-linecap: square"/>
     </g>
     <g id="line2d_8">
      <g>
       <use xlink:href="#md39032bed2" x="318.492466" y="273.312" style="stroke: #000000; stroke-width: 0.8"/>
      </g>
     </g>
     <g id="text_4">
      <!-- 1000 -->
      <g transform="translate(299.404966 291.709656)scale(0.15 -0.15)">
       <use xlink:href="#DejaVuSans-31"/>
       <use xlink:href="#DejaVuSans-30" x="63.623047"/>
       <use xlink:href="#DejaVuSans-30" x="127.246094"/>
       <use xlink:href="#DejaVuSans-30" x="190.869141"/>
      </g>
     </g>
    </g>
    <g id="xtick_5">
     <g id="line2d_9">
      <path d="M 387.567902 273.312 
L 387.567902 7.2 
" clip-path="url(#pb89c3edd3e)" style="fill: none; stroke: #b0b0b0; stroke-width: 0.8; stroke-linecap: square"/>
     </g>
     <g id="line2d_10">
      <g>
       <use xlink:href="#md39032bed2" x="387.567902" y="273.312" style="stroke: #000000; stroke-width: 0.8"/>
      </g>
     </g>
     <g id="text_5">
      <!-- 2000 -->
      <g transform="translate(368.480402 291.709656)scale(0.15 -0.15)">
       <use xlink:href="#DejaVuSans-32"/>
       <use xlink:href="#DejaVuSans-30" x="63.623047"/>
       <use xlink:href="#DejaVuSans-30" x="127.246094"/>
       <use xlink:href="#DejaVuSans-30" x="190.869141"/>
      </g>
     </g>
    </g>
    <g id="text_6">
     <!-- X ($\mu m$) -->
     <g transform="translate(215.417031 314.029187)scale(0.2 -0.2)">
      <defs>
       <path id="DejaVuSans-58" d="M 403 4666 
L 1081 4666 
L 2241 2931 
L 3406 4666 
L 4084 4666 
L 2584 2425 
L 4184 0 
L 3506 0 
L 2194 1984 
L 872 0 
L 191 0 
L 1856 2491 
L 403 4666 
z
" transform="scale(0.015625)"/>
       <path id="DejaVuSans-20" transform="scale(0.015625)"/>
       <path id="DejaVuSans-28" d="M 1984 4856 
Q 1566 4138 1362 3434 
Q 1159 2731 1159 2009 
Q 1159 1288 1364 580 
Q 1569 -128 1984 -844 
L 1484 -844 
Q 1016 -109 783 600 
Q 550 1309 550 2009 
Q 550 2706 781 3412 
Q 1013 4119 1484 4856 
L 1984 4856 
z
" transform="scale(0.015625)"/>
       <path id="DejaVuSans-Oblique-3bc" d="M -84 -1331 
L 856 3500 
L 1434 3500 
L 1009 1322 
Q 997 1256 987 1175 
Q 978 1094 978 1013 
Q 978 722 1161 565 
Q 1344 409 1684 409 
Q 2147 409 2431 671 
Q 2716 934 2816 1459 
L 3213 3500 
L 3788 3500 
L 3266 809 
Q 3253 750 3248 706 
Q 3244 663 3244 628 
Q 3244 531 3283 486 
Q 3322 441 3406 441 
Q 3438 441 3492 456 
Q 3547 472 3647 513 
L 3559 50 
Q 3422 -19 3297 -55 
Q 3172 -91 3053 -91 
Q 2847 -91 2730 40 
Q 2613 172 2613 403 
Q 2438 153 2195 31 
Q 1953 -91 1625 -91 
Q 1334 -91 1117 43 
Q 900 178 831 397 
L 494 -1331 
L -84 -1331 
z
" transform="scale(0.015625)"/>
       <path id="DejaVuSans-Oblique-6d" d="M 5747 2113 
L 5338 0 
L 4763 0 
L 5166 2094 
Q 5191 2228 5203 2325 
Q 5216 2422 5216 2491 
Q 5216 2772 5059 2928 
Q 4903 3084 4622 3084 
Q 4203 3084 3875 2770 
Q 3547 2456 3450 1953 
L 3066 0 
L 2491 0 
L 2900 2094 
Q 2925 2209 2937 2307 
Q 2950 2406 2950 2484 
Q 2950 2769 2794 2926 
Q 2638 3084 2363 3084 
Q 1938 3084 1609 2770 
Q 1281 2456 1184 1953 
L 800 0 
L 225 0 
L 909 3500 
L 1484 3500 
L 1375 2956 
Q 1609 3263 1923 3423 
Q 2238 3584 2597 3584 
Q 2978 3584 3223 3384 
Q 3469 3184 3519 2828 
Q 3781 3197 4126 3390 
Q 4472 3584 4856 3584 
Q 5306 3584 5551 3325 
Q 5797 3066 5797 2591 
Q 5797 2488 5784 2364 
Q 5772 2241 5747 2113 
z
" transform="scale(0.015625)"/>
       <path id="DejaVuSans-29" d="M 513 4856 
L 1013 4856 
Q 1481 4119 1714 3412 
Q 1947 2706 1947 2009 
Q 1947 1309 1714 600 
Q 1481 -109 1013 -844 
L 513 -844 
Q 928 -128 1133 580 
Q 1338 1288 1338 2009 
Q 1338 2731 1133 3434 
Q 928 4138 513 4856 
z
" transform="scale(0.015625)"/>
      </defs>
      <use xlink:href="#DejaVuSans-58" transform="translate(0 0.125)"/>
      <use xlink:href="#DejaVuSans-20" transform="translate(68.505859 0.125)"/>
      <use xlink:href="#DejaVuSans-28" transform="translate(100.292969 0.125)"/>
      <use xlink:href="#DejaVuSans-Oblique-3bc" transform="translate(139.306641 0.125)"/>
      <use xlink:href="#DejaVuSans-Oblique-6d" transform="translate(202.929688 0.125)"/>
      <use xlink:href="#DejaVuSans-29" transform="translate(300.341797 0.125)"/>
     </g>
    </g>
   </g>
   <g id="matplotlib.axis_2">
    <g id="ytick_1">
     <g id="line2d_11">
      <path d="M 70.857031 246.7008 
L 427.977031 246.7008 
" clip-path="url(#pb89c3edd3e)" style="fill: none; stroke: #b0b0b0; stroke-width: 0.8; stroke-linecap: square"/>
     </g>
     <g id="line2d_12">
      <defs>
       <path id="m6f3f5b6aff" d="M 0 0 
L -3.5 0 
" style="stroke: #000000; stroke-width: 0.8"/>
      </defs>
      <g>
       <use xlink:href="#m6f3f5b6aff" x="70.857031" y="246.7008" style="stroke: #000000; stroke-width: 0.8"/>
      </g>
     </g>
     <g id="text_7">
      <!-- −20 -->
      <g transform="translate(32.2 252.399628)scale(0.15 -0.15)">
       <use xlink:href="#DejaVuSans-2212"/>
       <use xlink:href="#DejaVuSans-32" x="83.789062"/>
       <use xlink:href="#DejaVuSans-30" x="147.412109"/>
      </g>
     </g>
    </g>
    <g id="ytick_2">
     <g id="line2d_13">
      <path d="M 70.857031 193.4784 
L 427.977031 193.4784 
" clip-path="url(#pb89c3edd3e)" style="fill: none; stroke: #b0b0b0; stroke-width: 0.8; stroke-linecap: square"/>
     </g>
     <g id="line2d_14">
      <g>
       <use xlink:href="#m6f3f5b6aff" x="70.857031" y="193.4784" style="stroke: #000000; stroke-width: 0.8"/>
      </g>
     </g>
     <g id="text_8">
      <!-- −10 -->
      <g transform="translate(32.2 199.177228)scale(0.15 -0.15)">
       <use xlink:href="#DejaVuSans-2212"/>
       <use xlink:href="#DejaVuSans-31" x="83.789062"/>
       <use xlink:href="#DejaVuSans-30" x="147.412109"/>
      </g>
     </g>
    </g>
    <g id="ytick_3">
     <g id="line2d_15">
      <path d="M 70.857031 140.256 
L 427.977031 140.256 
" clip-path="url(#pb89c3edd3e)" style="fill: none; stroke: #b0b0b0; stroke-width: 0.8; stroke-linecap: square"/>
     </g>
     <g id="line2d_16">
      <g>
       <use xlink:href="#m6f3f5b6aff" x="70.857031" y="140.256" style="stroke: #000000; stroke-width: 0.8"/>
      </g>
     </g>
     <g id="text_9">
      <!-- 0 -->
      <g transform="translate(54.313281 145.954828)scale(0.15 -0.15)">
       <use xlink:href="#DejaVuSans-30"/>
      </g>
     </g>
    </g>
    <g id="ytick_4">
     <g id="line2d_17">
      <path d="M 70.857031 87.0336 
L 427.977031 87.0336 
" clip-path="url(#pb89c3edd3e)" style="fill: none; stroke: #b0b0b0; stroke-width: 0.8; stroke-linecap: square"/>
     </g>
     <g id="line2d_18">
      <g>
       <use xlink:href="#m6f3f5b6aff" x="70.857031" y="87.0336" style="stroke: #000000; stroke-width: 0.8"/>
      </g>
     </g>
     <g id="text_10">
      <!-- 10 -->
      <g transform="translate(44.769531 92.732428)scale(0.15 -0.15)">
       <use xlink:href="#DejaVuSans-31"/>
       <use xlink:href="#DejaVuSans-30" x="63.623047"/>
      </g>
     </g>
    </g>
    <g id="ytick_5">
     <g id="line2d_19">
      <path d="M 70.857031 33.8112 
L 427.977031 33.8112 
" clip-path="url(#pb89c3edd3e)" style="fill: none; stroke: #b0b0b0; stroke-width: 0.8; stroke-linecap: square"/>
     </g>
     <g id="line2d_20">
      <g>
       <use xlink:href="#m6f3f5b6aff" x="70.857031" y="33.8112" style="stroke: #000000; stroke-width: 0.8"/>
      </g>
     </g>
     <g id="text_11">
      <!-- 20 -->
      <g transform="translate(44.769531 39.510028)scale(0.15 -0.15)">
       <use xlink:href="#DejaVuSans-32"/>
       <use xlink:href="#DejaVuSans-30" x="63.623047"/>
      </g>
     </g>
    </g>
    <g id="text_12">
     <!-- RF field curvature ($mm^{-2}$) -->
     <g transform="translate(24.040625 270.956)rotate(-90)scale(0.2 -0.2)">
      <defs>
       <path id="DejaVuSans-52" d="M 2841 2188 
Q 3044 2119 3236 1894 
Q 3428 1669 3622 1275 
L 4263 0 
L 3584 0 
L 2988 1197 
Q 2756 1666 2539 1819 
Q 2322 1972 1947 1972 
L 1259 1972 
L 1259 0 
L 628 0 
L 628 4666 
L 2053 4666 
Q 2853 4666 3247 4331 
Q 3641 3997 3641 3322 
Q 3641 2881 3436 2590 
Q 3231 2300 2841 2188 
z
M 1259 4147 
L 1259 2491 
L 2053 2491 
Q 2509 2491 2742 2702 
Q 2975 2913 2975 3322 
Q 2975 3731 2742 3939 
Q 2509 4147 2053 4147 
L 1259 4147 
z
" transform="scale(0.015625)"/>
       <path id="DejaVuSans-46" d="M 628 4666 
L 3309 4666 
L 3309 4134 
L 1259 4134 
L 1259 2759 
L 3109 2759 
L 3109 2228 
L 1259 2228 
L 1259 0 
L 628 0 
L 628 4666 
z
" transform="scale(0.015625)"/>
       <path id="DejaVuSans-66" d="M 2375 4863 
L 2375 4384 
L 1825 4384 
Q 1516 4384 1395 4259 
Q 1275 4134 1275 3809 
L 1275 3500 
L 2222 3500 
L 2222 3053 
L 1275 3053 
L 1275 0 
L 697 0 
L 697 3053 
L 147 3053 
L 147 3500 
L 697 3500 
L 697 3744 
Q 697 4328 969 4595 
Q 1241 4863 1831 4863 
L 2375 4863 
z
" transform="scale(0.015625)"/>
       <path id="DejaVuSans-69" d="M 603 3500 
L 1178 3500 
L 1178 0 
L 603 0 
L 603 3500 
z
M 603 4863 
L 1178 4863 
L 1178 4134 
L 603 4134 
L 603 4863 
z
" transform="scale(0.015625)"/>
       <path id="DejaVuSans-65" d="M 3597 1894 
L 3597 1613 
L 953 1613 
Q 991 1019 1311 708 
Q 1631 397 2203 397 
Q 2534 397 2845 478 
Q 3156 559 3463 722 
L 3463 178 
Q 3153 47 2828 -22 
Q 2503 -91 2169 -91 
Q 1331 -91 842 396 
Q 353 884 353 1716 
Q 353 2575 817 3079 
Q 1281 3584 2069 3584 
Q 2775 3584 3186 3129 
Q 3597 2675 3597 1894 
z
M 3022 2063 
Q 3016 2534 2758 2815 
Q 2500 3097 2075 3097 
Q 1594 3097 1305 2825 
Q 1016 2553 972 2059 
L 3022 2063 
z
" transform="scale(0.015625)"/>
       <path id="DejaVuSans-6c" d="M 603 4863 
L 1178 4863 
L 1178 0 
L 603 0 
L 603 4863 
z
" transform="scale(0.015625)"/>
       <path id="DejaVuSans-64" d="M 2906 2969 
L 2906 4863 
L 3481 4863 
L 3481 0 
L 2906 0 
L 2906 525 
Q 2725 213 2448 61 
Q 2172 -91 1784 -91 
Q 1150 -91 751 415 
Q 353 922 353 1747 
Q 353 2572 751 3078 
Q 1150 3584 1784 3584 
Q 2172 3584 2448 3432 
Q 2725 3281 2906 2969 
z
M 947 1747 
Q 947 1113 1208 752 
Q 1469 391 1925 391 
Q 2381 391 2643 752 
Q 2906 1113 2906 1747 
Q 2906 2381 2643 2742 
Q 2381 3103 1925 3103 
Q 1469 3103 1208 2742 
Q 947 2381 947 1747 
z
" transform="scale(0.015625)"/>
       <path id="DejaVuSans-63" d="M 3122 3366 
L 3122 2828 
Q 2878 2963 2633 3030 
Q 2388 3097 2138 3097 
Q 1578 3097 1268 2742 
Q 959 2388 959 1747 
Q 959 1106 1268 751 
Q 1578 397 2138 397 
Q 2388 397 2633 464 
Q 2878 531 3122 666 
L 3122 134 
Q 2881 22 2623 -34 
Q 2366 -91 2075 -91 
Q 1284 -91 818 406 
Q 353 903 353 1747 
Q 353 2603 823 3093 
Q 1294 3584 2113 3584 
Q 2378 3584 2631 3529 
Q 2884 3475 3122 3366 
z
" transform="scale(0.015625)"/>
       <path id="DejaVuSans-75" d="M 544 1381 
L 544 3500 
L 1119 3500 
L 1119 1403 
Q 1119 906 1312 657 
Q 1506 409 1894 409 
Q 2359 409 2629 706 
Q 2900 1003 2900 1516 
L 2900 3500 
L 3475 3500 
L 3475 0 
L 2900 0 
L 2900 538 
Q 2691 219 2414 64 
Q 2138 -91 1772 -91 
Q 1169 -91 856 284 
Q 544 659 544 1381 
z
M 1991 3584 
L 1991 3584 
z
" transform="scale(0.015625)"/>
       <path id="DejaVuSans-72" d="M 2631 2963 
Q 2534 3019 2420 3045 
Q 2306 3072 2169 3072 
Q 1681 3072 1420 2755 
Q 1159 2438 1159 1844 
L 1159 0 
L 581 0 
L 581 3500 
L 1159 3500 
L 1159 2956 
Q 1341 3275 1631 3429 
Q 1922 3584 2338 3584 
Q 2397 3584 2469 3576 
Q 2541 3569 2628 3553 
L 2631 2963 
z
" transform="scale(0.015625)"/>
       <path id="DejaVuSans-76" d="M 191 3500 
L 800 3500 
L 1894 563 
L 2988 3500 
L 3597 3500 
L 2284 0 
L 1503 0 
L 191 3500 
z
" transform="scale(0.015625)"/>
       <path id="DejaVuSans-61" d="M 2194 1759 
Q 1497 1759 1228 1600 
Q 959 1441 959 1056 
Q 959 750 1161 570 
Q 1363 391 1709 391 
Q 2188 391 2477 730 
Q 2766 1069 2766 1631 
L 2766 1759 
L 2194 1759 
z
M 3341 1997 
L 3341 0 
L 2766 0 
L 2766 531 
Q 2569 213 2275 61 
Q 1981 -91 1556 -91 
Q 1019 -91 701 211 
Q 384 513 384 1019 
Q 384 1609 779 1909 
Q 1175 2209 1959 2209 
L 2766 2209 
L 2766 2266 
Q 2766 2663 2505 2880 
Q 2244 3097 1772 3097 
Q 1472 3097 1187 3025 
Q 903 2953 641 2809 
L 641 3341 
Q 956 3463 1253 3523 
Q 1550 3584 1831 3584 
Q 2591 3584 2966 3190 
Q 3341 2797 3341 1997 
z
" transform="scale(0.015625)"/>
       <path id="DejaVuSans-74" d="M 1172 4494 
L 1172 3500 
L 2356 3500 
L 2356 3053 
L 1172 3053 
L 1172 1153 
Q 1172 725 1289 603 
Q 1406 481 1766 481 
L 2356 481 
L 2356 0 
L 1766 0 
Q 1100 0 847 248 
Q 594 497 594 1153 
L 594 3053 
L 172 3053 
L 172 3500 
L 594 3500 
L 594 4494 
L 1172 4494 
z
" transform="scale(0.015625)"/>
      </defs>
      <use xlink:href="#DejaVuSans-52" transform="translate(0 0.765625)"/>
      <use xlink:href="#DejaVuSans-46" transform="translate(69.482422 0.765625)"/>
      <use xlink:href="#DejaVuSans-20" transform="translate(127.001953 0.765625)"/>
      <use xlink:href="#DejaVuSans-66" transform="translate(158.789062 0.765625)"/>
      <use xlink:href="#DejaVuSans-69" transform="translate(193.994141 0.765625)"/>
      <use xlink:href="#DejaVuSans-65" transform="translate(221.777344 0.765625)"/>
      <use xlink:href="#DejaVuSans-6c" transform="translate(283.300781 0.765625)"/>
      <use xlink:href="#DejaVuSans-64" transform="translate(311.083984 0.765625)"/>
      <use xlink:href="#DejaVuSans-20" transform="translate(374.560547 0.765625)"/>
      <use xlink:href="#DejaVuSans-63" transform="translate(406.347656 0.765625)"/>
      <use xlink:href="#DejaVuSans-75" transform="translate(461.328125 0.765625)"/>
      <use xlink:href="#DejaVuSans-72" transform="translate(524.707031 0.765625)"/>
      <use xlink:href="#DejaVuSans-76" transform="translate(565.820312 0.765625)"/>
      <use xlink:href="#DejaVuSans-61" transform="translate(625 0.765625)"/>
      <use xlink:href="#DejaVuSans-74" transform="translate(686.279297 0.765625)"/>
      <use xlink:href="#DejaVuSans-75" transform="translate(725.488281 0.765625)"/>
      <use xlink:href="#DejaVuSans-72" transform="translate(788.867188 0.765625)"/>
      <use xlink:href="#DejaVuSans-65" transform="translate(829.980469 0.765625)"/>
      <use xlink:href="#DejaVuSans-20" transform="translate(891.503906 0.765625)"/>
      <use xlink:href="#DejaVuSans-28" transform="translate(923.291016 0.765625)"/>
      <use xlink:href="#DejaVuSans-Oblique-6d" transform="translate(962.304688 0.765625)"/>
      <use xlink:href="#DejaVuSans-Oblique-6d" transform="translate(1059.716797 0.765625)"/>
      <use xlink:href="#DejaVuSans-2212" transform="translate(1161.778802 39.046875)scale(0.7)"/>
      <use xlink:href="#DejaVuSans-32" transform="translate(1220.431146 39.046875)scale(0.7)"/>
      <use xlink:href="#DejaVuSans-29" transform="translate(1267.701654 0.765625)"/>
     </g>
    </g>
   </g>
   <g id="line2d_21">
    <path d="M 87.089759 64.682614 
L 87.780513 29.443632 
L 88.816644 76.671233 
L 90.54353 126.843017 
L 91.234285 143.076549 
L 91.579662 148.188383 
L 91.925039 150.905759 
L 92.270416 151.525351 
L 92.615793 150.602289 
L 93.306548 146.538636 
L 94.342679 140.419666 
L 95.033434 138.169014 
L 95.378811 137.678112 
L 95.724188 137.566559 
L 96.069565 137.775116 
L 96.760319 138.852898 
L 98.141828 141.45896 
L 98.487205 141.840485 
L 98.832583 142.048074 
L 99.17796 142.078468 
L 99.523337 141.943539 
L 100.214091 141.291566 
L 101.5956 139.711118 
L 101.940977 139.531093 
L 102.286354 139.499782 
L 102.631731 139.620925 
L 103.322486 140.232232 
L 104.358617 141.304185 
L 104.703994 141.458553 
L 105.049372 141.439973 
L 105.394749 141.244291 
L 106.085503 140.453112 
L 106.776258 139.553191 
L 107.121635 139.239078 
L 107.467012 139.087103 
L 107.812389 139.121625 
L 108.157766 139.337605 
L 108.848521 140.147905 
L 109.539275 140.988627 
L 109.884652 141.23185 
L 110.230029 141.292511 
L 110.575406 141.166009 
L 111.266161 140.517284 
L 111.956915 139.82641 
L 112.302292 139.649844 
L 112.64767 139.645854 
L 112.993047 139.821738 
L 113.683801 140.58449 
L 114.374555 141.452927 
L 114.719933 141.732075 
L 115.06531 141.828859 
L 115.410687 141.723448 
L 116.101441 141.015825 
L 117.137573 139.761764 
L 117.48295 139.569557 
L 117.828327 139.541951 
L 118.519082 139.888683 
L 119.555213 140.576782 
L 119.90059 140.621815 
L 120.245967 140.524658 
L 120.936722 139.947782 
L 122.663608 138.049776 
L 123.354362 137.782288 
L 124.045116 137.847668 
L 126.808134 138.643564 
L 128.880397 138.824841 
L 130.261906 139.209078 
L 132.334169 139.834588 
L 134.751809 140.366255 
L 135.78794 140.908786 
L 137.860203 142.139673 
L 138.896335 142.407517 
L 139.932466 142.381598 
L 141.313975 142.041934 
L 144.076993 141.230036 
L 146.84001 140.755456 
L 149.25765 140.545283 
L 157.546702 140.293349 
L 172.052544 140.24427 
L 185.176877 140.253484 
L 192.08442 140.242804 
L 199.337341 140.262964 
L 206.590261 140.244998 
L 214.188559 140.261242 
L 220.059971 140.233429 
L 289.826161 140.266855 
L 300.532853 140.270444 
L 308.821906 140.259628 
L 315.038695 140.270891 
L 322.291615 140.249158 
L 329.889913 140.26419 
L 337.142834 140.274576 
L 351.648675 140.722504 
L 354.75707 141.26398 
L 356.829333 141.852957 
L 358.556219 142.341192 
L 359.59235 142.423903 
L 360.628482 142.232248 
L 361.664613 141.739128 
L 364.082254 140.299576 
L 365.118385 140.047437 
L 367.190648 139.723623 
L 370.989797 138.671255 
L 373.06206 138.549823 
L 374.098192 138.18426 
L 375.134323 137.827822 
L 375.825078 137.882755 
L 376.515832 138.322412 
L 377.551964 139.544017 
L 378.242718 140.317748 
L 378.588095 140.555506 
L 378.933472 140.650903 
L 379.278849 140.597285 
L 379.969604 140.144875 
L 380.660358 139.611985 
L 381.005735 139.483911 
L 381.351112 139.516499 
L 381.69649 139.727895 
L 382.387244 140.587112 
L 383.077998 141.569272 
L 383.423376 141.891546 
L 383.768753 142.013186 
L 384.11413 141.911914 
L 384.804884 141.162318 
L 385.841016 139.802246 
L 386.186393 139.597915 
L 386.53177 139.589548 
L 386.877147 139.771375 
L 387.567902 140.516835 
L 388.258656 141.243358 
L 388.604033 141.397941 
L 388.94941 141.35044 
L 389.294788 141.102935 
L 391.021673 139.094764 
L 391.367051 139.050008 
L 391.712428 139.206623 
L 392.403182 139.997048 
L 393.439314 141.362307 
L 393.784691 141.574311 
L 394.130068 141.592869 
L 394.475445 141.421436 
L 395.1662 140.673205 
L 395.856954 139.825779 
L 396.202331 139.530769 
L 396.547708 139.38295 
L 396.893085 139.401566 
L 397.238463 139.583655 
L 397.929217 140.330164 
L 398.965348 141.69021 
L 399.310726 141.993443 
L 399.656103 142.145605 
L 400.00148 142.11661 
L 400.346857 141.890731 
L 400.692234 141.468837 
L 401.382989 140.135706 
L 402.41912 137.751472 
L 402.764497 137.178887 
L 403.109875 136.870042 
L 403.455252 136.910074 
L 403.800629 137.3568 
L 404.146006 138.293105 
L 404.491383 139.732229 
L 405.182138 144.033324 
L 406.218269 151.825842 
L 406.563646 153.319197 
L 406.909024 153.179335 
L 407.254401 150.660127 
L 407.599778 145.29859 
L 408.290532 127.016376 
L 410.017418 68.566504 
L 410.362795 53.146387 
L 410.708172 22.353828 
L 411.05355 31.322625 
L 411.744304 65.323894 
L 411.744304 65.323894 
" clip-path="url(#pb89c3edd3e)" style="fill: none; stroke: #1f77b4; stroke-width: 1.5; stroke-linecap: square"/>
   </g>
   <g id="line2d_22">
    <path d="M 87.089759 209.923993 
L 87.780513 246.281945 
L 88.12589 195.95038 
L 88.471267 165.005854 
L 89.162022 135.701242 
L 90.888907 84.677609 
L 91.579662 68.300584 
L 92.270416 58.339584 
L 92.615793 55.643931 
L 92.961171 53.892463 
L 93.306548 52.819479 
L 93.997302 51.726951 
L 94.688056 51.081285 
L 95.378811 50.029346 
L 96.069565 48.486639 
L 97.451074 44.428128 
L 98.487205 41.611704 
L 99.17796 40.260944 
L 99.868714 39.362358 
L 101.940977 37.333805 
L 102.631731 36.201771 
L 103.667863 33.927543 
L 104.703994 31.724525 
L 105.394749 30.727187 
L 106.085503 30.108804 
L 107.121635 29.296308 
L 107.812389 28.410608 
L 108.848521 26.442833 
L 109.884652 24.483969 
L 110.575406 23.669014 
L 110.920784 23.284281 
L 112.302292 22.551408 
L 112.993047 21.877362 
L 114.374555 20.20734 
L 114.719933 19.984908 
L 115.06531 19.932429 
L 115.410687 20.071991 
L 115.756064 20.402515 
L 116.446818 21.535376 
L 118.864459 26.830687 
L 121.972853 33.499262 
L 122.663608 34.325598 
L 123.354362 34.734501 
L 124.045116 34.814008 
L 125.081248 34.609372 
L 127.498888 33.848487 
L 128.53502 33.217605 
L 129.225774 32.502621 
L 130.261906 31.100453 
L 131.298037 29.25262 
L 133.715677 24.670627 
L 134.751809 23.184774 
L 135.78794 22.030093 
L 137.169449 20.854712 
L 138.550958 20.008673 
L 139.587089 19.59247 
L 140.968598 19.319278 
L 142.695484 19.291899 
L 147.530764 19.607182 
L 152.366045 19.790104 
L 158.582834 19.81578 
L 172.052544 19.566349 
L 184.486122 19.304801 
L 243.890996 18.539964 
L 250.79854 18.473211 
L 261.85061 18.342184 
L 274.284188 18.265453 
L 291.898424 18.176846 
L 304.332002 18.132072 
L 325.054633 18.100543 
L 332.652931 18.084266 
L 347.849526 17.71864 
L 353.030184 17.25986 
L 356.829333 16.929807 
L 358.210842 16.989302 
L 359.246973 17.209897 
L 360.283105 17.609589 
L 361.664613 18.408314 
L 363.046122 19.501415 
L 364.082254 20.575573 
L 365.118385 21.973264 
L 366.154517 23.744757 
L 368.917534 28.798689 
L 369.953666 30.011353 
L 370.64442 30.52796 
L 371.680552 30.95344 
L 374.788946 31.572785 
L 375.4797 31.474676 
L 376.170455 31.04413 
L 376.861209 30.178509 
L 377.551964 28.881233 
L 378.933472 25.559739 
L 382.387244 17.239914 
L 383.077998 15.949807 
L 383.423376 15.556604 
L 383.768753 15.369803 
L 384.11413 15.392458 
L 384.459507 15.600246 
L 385.150261 16.383539 
L 386.186393 17.646332 
L 386.877147 18.130236 
L 388.258656 18.711726 
L 388.94941 19.45577 
L 389.640165 20.667289 
L 391.021673 23.465748 
L 391.712428 24.309353 
L 392.748559 25.002374 
L 393.439314 25.538986 
L 394.130068 26.48748 
L 394.820822 27.884976 
L 396.202331 30.966426 
L 396.893085 32.066928 
L 397.58384 32.758839 
L 399.310726 34.051196 
L 400.00148 35.102013 
L 400.692234 36.679492 
L 401.728366 39.882821 
L 402.764497 42.987867 
L 403.455252 44.523054 
L 404.146006 45.342648 
L 405.527515 46.413574 
L 405.872892 47.066098 
L 406.218269 48.499505 
L 406.563646 51.004398 
L 406.909024 55.037798 
L 407.254401 60.99105 
L 407.945155 78.840715 
L 409.326664 125.181184 
L 410.017418 153.369204 
L 410.362795 175.437584 
L 410.708172 232.999704 
L 411.05355 244.667785 
L 411.744304 210.36368 
L 411.744304 210.36368 
" clip-path="url(#pb89c3edd3e)" style="fill: none; stroke: #ff7f0e; stroke-width: 1.5; stroke-linecap: square"/>
   </g>
   <g id="line2d_23">
    <path d="M 87.089759 138.163986 
L 87.780513 139.140272 
L 88.12589 177.1362 
L 88.471267 191.267783 
L 88.816644 196.239507 
L 89.162022 198.403942 
L 89.507399 199.250526 
L 89.852776 199.492409 
L 90.198153 199.56861 
L 90.54353 199.790412 
L 90.888907 200.531005 
L 91.234285 202.094768 
L 91.579662 204.609263 
L 92.270416 211.835081 
L 93.306548 222.887454 
L 93.997302 229.003279 
L 94.688056 232.852148 
L 95.378811 235.172545 
L 96.069565 236.488023 
L 97.105697 237.690024 
L 98.141828 238.9546 
L 99.17796 240.718052 
L 100.559468 243.652684 
L 101.250223 245.240365 
L 102.286354 247.078406 
L 103.322486 248.309862 
L 104.358617 249.365809 
L 104.703994 249.813721 
L 105.740126 251.976304 
L 107.121635 255.053767 
L 107.812389 256.163515 
L 108.503143 256.883798 
L 109.884652 258.020047 
L 110.575406 258.961707 
L 111.611538 260.87685 
L 112.302292 261.830002 
L 112.993047 262.313092 
L 113.683801 262.336187 
L 116.446818 261.473633 
L 116.792196 261.142582 
L 117.48295 259.928111 
L 118.519082 256.968262 
L 119.90059 252.886877 
L 120.591345 251.527987 
L 121.282099 250.740401 
L 121.972853 250.351851 
L 123.699739 249.905203 
L 125.426625 249.545133 
L 126.462757 249.584103 
L 127.498888 249.881014 
L 128.53502 250.425333 
L 129.225774 251.012181 
L 130.261906 252.137333 
L 131.298037 253.704262 
L 134.061054 258.432038 
L 134.751809 259.13519 
L 135.442563 259.526722 
L 136.133318 259.671876 
L 137.169449 259.79775 
L 138.896335 260.273783 
L 143.386238 261.892712 
L 145.113124 262.150726 
L 148.221519 262.359438 
L 202.100358 263.389171 
L 214.188559 263.55539 
L 225.240629 263.715307 
L 265.304381 264.059108 
L 276.701828 264.139657 
L 285.681635 264.183642 
L 308.131151 264.269988 
L 319.528598 264.268917 
L 349.576412 264.506129 
L 352.684807 264.48145 
L 355.102447 264.274256 
L 356.829333 263.87714 
L 361.319236 262.478096 
L 363.046122 262.199015 
L 364.082254 261.697871 
L 364.773008 261.044812 
L 365.463762 260.079129 
L 367.190648 257.00892 
L 368.22678 255.357015 
L 369.262911 254.150104 
L 370.299043 253.377516 
L 371.335174 252.916669 
L 372.371306 252.698624 
L 373.407437 252.681575 
L 374.788946 253.082553 
L 377.206586 253.968201 
L 377.897341 254.595786 
L 378.588095 255.762389 
L 379.278849 257.583098 
L 381.351112 264.245401 
L 382.041867 265.43957 
L 382.732621 265.921774 
L 384.459507 266.367 
L 385.495639 266.827673 
L 385.841016 266.831903 
L 386.186393 266.711008 
L 386.877147 266.063254 
L 387.913279 264.409842 
L 388.604033 263.368069 
L 389.294788 262.691342 
L 390.676296 261.726601 
L 391.367051 260.944265 
L 392.057805 259.722851 
L 394.130068 255.375566 
L 395.1662 253.944507 
L 397.238463 251.238686 
L 398.274594 249.241463 
L 400.00148 245.917758 
L 400.692234 244.943919 
L 401.728366 243.866389 
L 402.764497 242.989438 
L 403.109875 242.503896 
L 403.800629 240.93357 
L 404.146006 239.549916 
L 404.83676 235.243629 
L 405.527515 229.605325 
L 406.218269 221.678546 
L 407.254401 209.628441 
L 407.599778 206.861729 
L 407.945155 205.132887 
L 408.290532 204.357377 
L 408.981287 204.084525 
L 409.326664 203.634336 
L 409.672041 202.369378 
L 410.017418 199.144381 
L 410.362795 191.569395 
L 411.05355 138.755094 
L 411.398927 138.422529 
L 411.744304 137.053839 
L 411.744304 137.053839 
" clip-path="url(#pb89c3edd3e)" style="fill: none; stroke: #2ca02c; stroke-width: 1.5; stroke-linecap: square"/>
   </g>
   <g id="patch_3">
    <path d="M 70.857031 273.312 
L 70.857031 7.2 
" style="fill: none; stroke: #000000; stroke-width: 0.8; stroke-linejoin: miter; stroke-linecap: square"/>
   </g>
   <g id="patch_4">
    <path d="M 427.977031 273.312 
L 427.977031 7.2 
" style="fill: none; stroke: #000000; stroke-width: 0.8; stroke-linejoin: miter; stroke-linecap: square"/>
   </g>
   <g id="patch_5">
    <path d="M 70.857031 273.312 
L 427.977031 273.312 
" style="fill: none; stroke: #000000; stroke-width: 0.8; stroke-linejoin: miter; stroke-linecap: square"/>
   </g>
   <g id="patch_6">
    <path d="M 70.857031 7.2 
L 427.977031 7.2 
" style="fill: none; stroke: #000000; stroke-width: 0.8; stroke-linejoin: miter; stroke-linecap: square"/>
   </g>
  </g>
 </g>
 <defs>
  <clipPath id="pb89c3edd3e">
   <rect x="70.857031" y="7.2" width="357.12" height="266.112"/>
  </clipPath>
 </defs>
</svg>
