<?xml version="1.0" encoding="utf-8" standalone="no"?>
<!DOCTYPE svg PUBLIC "-//W3C//DTD SVG 1.1//EN"
  "http://www.w3.org/Graphics/SVG/1.1/DTD/svg11.dtd">
<svg xmlns:xlink="http://www.w3.org/1999/xlink" width="425.433281pt" height="325.429187pt" viewBox="0 0 425.433281 325.429187" xmlns="http://www.w3.org/2000/svg" version="1.1">
 <defs>
  <style type="text/css">*{stroke-linejoin: round; stroke-linecap: butt}</style>
 </defs>
 <g id="figure_1">
  <g id="patch_1">
   <path d="M 0 325.429187 
L 425.433281 325.429187 
L 425.433281 0 
L 0 0 
L 0 325.429187 
z
" style="fill: none"/>
  </g>
  <g id="axes_1">
   <g id="patch_2">
    <path d="M 61.113281 273.312 
L 418.233281 273.312 
L 418.233281 7.2 
L 61.113281 7.2 
L 61.113281 273.312 
z
" style="fill: none"/>
   </g>
   <g id="matplotlib.axis_1">
    <g id="xtick_1">
     <g id="line2d_1">
      <path d="M 93.043591 273.312 
L 93.043591 7.2 
" clip-path="url(#pc029fbf4bd)" style="fill: none; stroke: #b0b0b0; stroke-width: 0.8; stroke-linecap: square"/>
     </g>
     <g id="line2d_2">
      <defs>
       <path id="md39032bed2" d="M 0 0 
L 0 3.5 
" style="stroke: #000000; stroke-width: 0.8"/>
      </defs>
      <g>
       <use xlink:href="#md39032bed2" x="93.043591" y="273.312" style="stroke: #000000; stroke-width: 0.8"/>
      </g>
     </g>
     <g id="text_1">
      <!-- −3000 -->
      <g transform="translate(67.671325 291.709656)scale(0.15 -0.15)">
       <defs>
        <path id="DejaVuSans-2212" d="M 678 2272 
L 4684 2272 
L 4684 1741 
L 678 1741 
L 678 2272 
z
" transform="scale(0.015625)"/>
        <path id="DejaVuSans-33" d="M 2597 2516 
Q 3050 2419 3304 2112 
Q 3559 1806 3559 1356 
Q 3559 666 3084 287 
Q 2609 -91 1734 -91 
Q 1441 -91 1130 -33 
Q 819 25 488 141 
L 488 750 
Q 750 597 1062 519 
Q 1375 441 1716 441 
Q 2309 441 2620 675 
Q 2931 909 2931 1356 
Q 2931 1769 2642 2001 
Q 2353 2234 1838 2234 
L 1294 2234 
L 1294 2753 
L 1863 2753 
Q 2328 2753 2575 2939 
Q 2822 3125 2822 3475 
Q 2822 3834 2567 4026 
Q 2313 4219 1838 4219 
Q 1578 4219 1281 4162 
Q 984 4106 628 3988 
L 628 4550 
Q 988 4650 1302 4700 
Q 1616 4750 1894 4750 
Q 2613 4750 3031 4423 
Q 3450 4097 3450 3541 
Q 3450 3153 3228 2886 
Q 3006 2619 2597 2516 
z
" transform="scale(0.015625)"/>
        <path id="DejaVuSans-30" d="M 2034 4250 
Q 1547 4250 1301 3770 
Q 1056 3291 1056 2328 
Q 1056 1369 1301 889 
Q 1547 409 2034 409 
Q 2525 409 2770 889 
Q 3016 1369 3016 2328 
Q 3016 3291 2770 3770 
Q 2525 4250 2034 4250 
z
M 2034 4750 
Q 2819 4750 3233 4129 
Q 3647 3509 3647 2328 
Q 3647 1150 3233 529 
Q 2819 -91 2034 -91 
Q 1250 -91 836 529 
Q 422 1150 422 2328 
Q 422 3509 836 4129 
Q 1250 4750 2034 4750 
z
" transform="scale(0.015625)"/>
       </defs>
       <use xlink:href="#DejaVuSans-2212"/>
       <use xlink:href="#DejaVuSans-33" x="83.789062"/>
       <use xlink:href="#DejaVuSans-30" x="147.412109"/>
       <use xlink:href="#DejaVuSans-30" x="211.035156"/>
       <use xlink:href="#DejaVuSans-30" x="274.658203"/>
      </g>
     </g>
    </g>
    <g id="xtick_2">
     <g id="line2d_3">
      <path d="M 164.396238 273.312 
L 164.396238 7.2 
" clip-path="url(#pc029fbf4bd)" style="fill: none; stroke: #b0b0b0; stroke-width: 0.8; stroke-linecap: square"/>
     </g>
     <g id="line2d_4">
      <g>
       <use xlink:href="#md39032bed2" x="164.396238" y="273.312" style="stroke: #000000; stroke-width: 0.8"/>
      </g>
     </g>
     <g id="text_2">
      <!-- −2000 -->
      <g transform="translate(139.023973 291.709656)scale(0.15 -0.15)">
       <defs>
        <path id="DejaVuSans-32" d="M 1228 531 
L 3431 531 
L 3431 0 
L 469 0 
L 469 531 
Q 828 903 1448 1529 
Q 2069 2156 2228 2338 
Q 2531 2678 2651 2914 
Q 2772 3150 2772 3378 
Q 2772 3750 2511 3984 
Q 2250 4219 1831 4219 
Q 1534 4219 1204 4116 
Q 875 4013 500 3803 
L 500 4441 
Q 881 4594 1212 4672 
Q 1544 4750 1819 4750 
Q 2544 4750 2975 4387 
Q 3406 4025 3406 3419 
Q 3406 3131 3298 2873 
Q 3191 2616 2906 2266 
Q 2828 2175 2409 1742 
Q 1991 1309 1228 531 
z
" transform="scale(0.015625)"/>
       </defs>
       <use xlink:href="#DejaVuSans-2212"/>
       <use xlink:href="#DejaVuSans-32" x="83.789062"/>
       <use xlink:href="#DejaVuSans-30" x="147.412109"/>
       <use xlink:href="#DejaVuSans-30" x="211.035156"/>
       <use xlink:href="#DejaVuSans-30" x="274.658203"/>
      </g>
     </g>
    </g>
    <g id="xtick_3">
     <g id="line2d_5">
      <path d="M 235.748886 273.312 
L 235.748886 7.2 
" clip-path="url(#pc029fbf4bd)" style="fill: none; stroke: #b0b0b0; stroke-width: 0.8; stroke-linecap: square"/>
     </g>
     <g id="line2d_6">
      <g>
       <use xlink:href="#md39032bed2" x="235.748886" y="273.312" style="stroke: #000000; stroke-width: 0.8"/>
      </g>
     </g>
     <g id="text_3">
      <!-- −1000 -->
      <g transform="translate(210.37662 291.709656)scale(0.15 -0.15)">
       <defs>
        <path id="DejaVuSans-31" d="M 794 531 
L 1825 531 
L 1825 4091 
L 703 3866 
L 703 4441 
L 1819 4666 
L 2450 4666 
L 2450 531 
L 3481 531 
L 3481 0 
L 794 0 
L 794 531 
z
" transform="scale(0.015625)"/>
       </defs>
       <use xlink:href="#DejaVuSans-2212"/>
       <use xlink:href="#DejaVuSans-31" x="83.789062"/>
       <use xlink:href="#DejaVuSans-30" x="147.412109"/>
       <use xlink:href="#DejaVuSans-30" x="211.035156"/>
       <use xlink:href="#DejaVuSans-30" x="274.658203"/>
      </g>
     </g>
    </g>
    <g id="xtick_4">
     <g id="line2d_7">
      <path d="M 307.101533 273.312 
L 307.101533 7.2 
" clip-path="url(#pc029fbf4bd)" style="fill: none; stroke: #b0b0b0; stroke-width: 0.8; stroke-linecap: square"/>
     </g>
     <g id="line2d_8">
      <g>
       <use xlink:href="#md39032bed2" x="307.101533" y="273.312" style="stroke: #000000; stroke-width: 0.8"/>
      </g>
     </g>
     <g id="text_4">
      <!-- 0 -->
      <g transform="translate(302.329658 291.709656)scale(0.15 -0.15)">
       <use xlink:href="#DejaVuSans-30"/>
      </g>
     </g>
    </g>
    <g id="xtick_5">
     <g id="line2d_9">
      <path d="M 378.45418 273.312 
L 378.45418 7.2 
" clip-path="url(#pc029fbf4bd)" style="fill: none; stroke: #b0b0b0; stroke-width: 0.8; stroke-linecap: square"/>
     </g>
     <g id="line2d_10">
      <g>
       <use xlink:href="#md39032bed2" x="378.45418" y="273.312" style="stroke: #000000; stroke-width: 0.8"/>
      </g>
     </g>
     <g id="text_5">
      <!-- 1000 -->
      <g transform="translate(359.36668 291.709656)scale(0.15 -0.15)">
       <use xlink:href="#DejaVuSans-31"/>
       <use xlink:href="#DejaVuSans-30" x="63.623047"/>
       <use xlink:href="#DejaVuSans-30" x="127.246094"/>
       <use xlink:href="#DejaVuSans-30" x="190.869141"/>
      </g>
     </g>
    </g>
    <g id="text_6">
     <!-- X ($\mu m$) -->
     <g transform="translate(205.673281 314.029187)scale(0.2 -0.2)">
      <defs>
       <path id="DejaVuSans-58" d="M 403 4666 
L 1081 4666 
L 2241 2931 
L 3406 4666 
L 4084 4666 
L 2584 2425 
L 4184 0 
L 3506 0 
L 2194 1984 
L 872 0 
L 191 0 
L 1856 2491 
L 403 4666 
z
" transform="scale(0.015625)"/>
       <path id="DejaVuSans-20" transform="scale(0.015625)"/>
       <path id="DejaVuSans-28" d="M 1984 4856 
Q 1566 4138 1362 3434 
Q 1159 2731 1159 2009 
Q 1159 1288 1364 580 
Q 1569 -128 1984 -844 
L 1484 -844 
Q 1016 -109 783 600 
Q 550 1309 550 2009 
Q 550 2706 781 3412 
Q 1013 4119 1484 4856 
L 1984 4856 
z
" transform="scale(0.015625)"/>
       <path id="DejaVuSans-Oblique-3bc" d="M -84 -1331 
L 856 3500 
L 1434 3500 
L 1009 1322 
Q 997 1256 987 1175 
Q 978 1094 978 1013 
Q 978 722 1161 565 
Q 1344 409 1684 409 
Q 2147 409 2431 671 
Q 2716 934 2816 1459 
L 3213 3500 
L 3788 3500 
L 3266 809 
Q 3253 750 3248 706 
Q 3244 663 3244 628 
Q 3244 531 3283 486 
Q 3322 441 3406 441 
Q 3438 441 3492 456 
Q 3547 472 3647 513 
L 3559 50 
Q 3422 -19 3297 -55 
Q 3172 -91 3053 -91 
Q 2847 -91 2730 40 
Q 2613 172 2613 403 
Q 2438 153 2195 31 
Q 1953 -91 1625 -91 
Q 1334 -91 1117 43 
Q 900 178 831 397 
L 494 -1331 
L -84 -1331 
z
" transform="scale(0.015625)"/>
       <path id="DejaVuSans-Oblique-6d" d="M 5747 2113 
L 5338 0 
L 4763 0 
L 5166 2094 
Q 5191 2228 5203 2325 
Q 5216 2422 5216 2491 
Q 5216 2772 5059 2928 
Q 4903 3084 4622 3084 
Q 4203 3084 3875 2770 
Q 3547 2456 3450 1953 
L 3066 0 
L 2491 0 
L 2900 2094 
Q 2925 2209 2937 2307 
Q 2950 2406 2950 2484 
Q 2950 2769 2794 2926 
Q 2638 3084 2363 3084 
Q 1938 3084 1609 2770 
Q 1281 2456 1184 1953 
L 800 0 
L 225 0 
L 909 3500 
L 1484 3500 
L 1375 2956 
Q 1609 3263 1923 3423 
Q 2238 3584 2597 3584 
Q 2978 3584 3223 3384 
Q 3469 3184 3519 2828 
Q 3781 3197 4126 3390 
Q 4472 3584 4856 3584 
Q 5306 3584 5551 3325 
Q 5797 3066 5797 2591 
Q 5797 2488 5784 2364 
Q 5772 2241 5747 2113 
z
" transform="scale(0.015625)"/>
       <path id="DejaVuSans-29" d="M 513 4856 
L 1013 4856 
Q 1481 4119 1714 3412 
Q 1947 2706 1947 2009 
Q 1947 1309 1714 600 
Q 1481 -109 1013 -844 
L 513 -844 
Q 928 -128 1133 580 
Q 1338 1288 1338 2009 
Q 1338 2731 1133 3434 
Q 928 4138 513 4856 
z
" transform="scale(0.015625)"/>
      </defs>
      <use xlink:href="#DejaVuSans-58" transform="translate(0 0.125)"/>
      <use xlink:href="#DejaVuSans-20" transform="translate(68.505859 0.125)"/>
      <use xlink:href="#DejaVuSans-28" transform="translate(100.292969 0.125)"/>
      <use xlink:href="#DejaVuSans-Oblique-3bc" transform="translate(139.306641 0.125)"/>
      <use xlink:href="#DejaVuSans-Oblique-6d" transform="translate(202.929688 0.125)"/>
      <use xlink:href="#DejaVuSans-29" transform="translate(300.341797 0.125)"/>
     </g>
    </g>
   </g>
   <g id="matplotlib.axis_2">
    <g id="ytick_1">
     <g id="line2d_11">
      <path d="M 61.113281 254.304 
L 418.233281 254.304 
" clip-path="url(#pc029fbf4bd)" style="fill: none; stroke: #b0b0b0; stroke-width: 0.8; stroke-linecap: square"/>
     </g>
     <g id="line2d_12">
      <defs>
       <path id="m6f3f5b6aff" d="M 0 0 
L -3.5 0 
" style="stroke: #000000; stroke-width: 0.8"/>
      </defs>
      <g>
       <use xlink:href="#m6f3f5b6aff" x="61.113281" y="254.304" style="stroke: #000000; stroke-width: 0.8"/>
      </g>
     </g>
     <g id="text_7">
      <!-- −6 -->
      <g transform="translate(32 260.002828)scale(0.15 -0.15)">
       <defs>
        <path id="DejaVuSans-36" d="M 2113 2584 
Q 1688 2584 1439 2293 
Q 1191 2003 1191 1497 
Q 1191 994 1439 701 
Q 1688 409 2113 409 
Q 2538 409 2786 701 
Q 3034 994 3034 1497 
Q 3034 2003 2786 2293 
Q 2538 2584 2113 2584 
z
M 3366 4563 
L 3366 3988 
Q 3128 4100 2886 4159 
Q 2644 4219 2406 4219 
Q 1781 4219 1451 3797 
Q 1122 3375 1075 2522 
Q 1259 2794 1537 2939 
Q 1816 3084 2150 3084 
Q 2853 3084 3261 2657 
Q 3669 2231 3669 1497 
Q 3669 778 3244 343 
Q 2819 -91 2113 -91 
Q 1303 -91 875 529 
Q 447 1150 447 2328 
Q 447 3434 972 4092 
Q 1497 4750 2381 4750 
Q 2619 4750 2861 4703 
Q 3103 4656 3366 4563 
z
" transform="scale(0.015625)"/>
       </defs>
       <use xlink:href="#DejaVuSans-2212"/>
       <use xlink:href="#DejaVuSans-36" x="83.789062"/>
      </g>
     </g>
    </g>
    <g id="ytick_2">
     <g id="line2d_13">
      <path d="M 61.113281 216.288 
L 418.233281 216.288 
" clip-path="url(#pc029fbf4bd)" style="fill: none; stroke: #b0b0b0; stroke-width: 0.8; stroke-linecap: square"/>
     </g>
     <g id="line2d_14">
      <g>
       <use xlink:href="#m6f3f5b6aff" x="61.113281" y="216.288" style="stroke: #000000; stroke-width: 0.8"/>
      </g>
     </g>
     <g id="text_8">
      <!-- −4 -->
      <g transform="translate(32 221.986828)scale(0.15 -0.15)">
       <defs>
        <path id="DejaVuSans-34" d="M 2419 4116 
L 825 1625 
L 2419 1625 
L 2419 4116 
z
M 2253 4666 
L 3047 4666 
L 3047 1625 
L 3713 1625 
L 3713 1100 
L 3047 1100 
L 3047 0 
L 2419 0 
L 2419 1100 
L 313 1100 
L 313 1709 
L 2253 4666 
z
" transform="scale(0.015625)"/>
       </defs>
       <use xlink:href="#DejaVuSans-2212"/>
       <use xlink:href="#DejaVuSans-34" x="83.789062"/>
      </g>
     </g>
    </g>
    <g id="ytick_3">
     <g id="line2d_15">
      <path d="M 61.113281 178.272 
L 418.233281 178.272 
" clip-path="url(#pc029fbf4bd)" style="fill: none; stroke: #b0b0b0; stroke-width: 0.8; stroke-linecap: square"/>
     </g>
     <g id="line2d_16">
      <g>
       <use xlink:href="#m6f3f5b6aff" x="61.113281" y="178.272" style="stroke: #000000; stroke-width: 0.8"/>
      </g>
     </g>
     <g id="text_9">
      <!-- −2 -->
      <g transform="translate(32 183.970828)scale(0.15 -0.15)">
       <use xlink:href="#DejaVuSans-2212"/>
       <use xlink:href="#DejaVuSans-32" x="83.789062"/>
      </g>
     </g>
    </g>
    <g id="ytick_4">
     <g id="line2d_17">
      <path d="M 61.113281 140.256 
L 418.233281 140.256 
" clip-path="url(#pc029fbf4bd)" style="fill: none; stroke: #b0b0b0; stroke-width: 0.8; stroke-linecap: square"/>
     </g>
     <g id="line2d_18">
      <g>
       <use xlink:href="#m6f3f5b6aff" x="61.113281" y="140.256" style="stroke: #000000; stroke-width: 0.8"/>
      </g>
     </g>
     <g id="text_10">
      <!-- 0 -->
      <g transform="translate(44.569531 145.954828)scale(0.15 -0.15)">
       <use xlink:href="#DejaVuSans-30"/>
      </g>
     </g>
    </g>
    <g id="ytick_5">
     <g id="line2d_19">
      <path d="M 61.113281 102.24 
L 418.233281 102.24 
" clip-path="url(#pc029fbf4bd)" style="fill: none; stroke: #b0b0b0; stroke-width: 0.8; stroke-linecap: square"/>
     </g>
     <g id="line2d_20">
      <g>
       <use xlink:href="#m6f3f5b6aff" x="61.113281" y="102.24" style="stroke: #000000; stroke-width: 0.8"/>
      </g>
     </g>
     <g id="text_11">
      <!-- 2 -->
      <g transform="translate(44.569531 107.938828)scale(0.15 -0.15)">
       <use xlink:href="#DejaVuSans-32"/>
      </g>
     </g>
    </g>
    <g id="ytick_6">
     <g id="line2d_21">
      <path d="M 61.113281 64.224 
L 418.233281 64.224 
" clip-path="url(#pc029fbf4bd)" style="fill: none; stroke: #b0b0b0; stroke-width: 0.8; stroke-linecap: square"/>
     </g>
     <g id="line2d_22">
      <g>
       <use xlink:href="#m6f3f5b6aff" x="61.113281" y="64.224" style="stroke: #000000; stroke-width: 0.8"/>
      </g>
     </g>
     <g id="text_12">
      <!-- 4 -->
      <g transform="translate(44.569531 69.922828)scale(0.15 -0.15)">
       <use xlink:href="#DejaVuSans-34"/>
      </g>
     </g>
    </g>
    <g id="ytick_7">
     <g id="line2d_23">
      <path d="M 61.113281 26.208 
L 418.233281 26.208 
" clip-path="url(#pc029fbf4bd)" style="fill: none; stroke: #b0b0b0; stroke-width: 0.8; stroke-linecap: square"/>
     </g>
     <g id="line2d_24">
      <g>
       <use xlink:href="#m6f3f5b6aff" x="61.113281" y="26.208" style="stroke: #000000; stroke-width: 0.8"/>
      </g>
     </g>
     <g id="text_13">
      <!-- 6 -->
      <g transform="translate(44.569531 31.906828)scale(0.15 -0.15)">
       <use xlink:href="#DejaVuSans-36"/>
      </g>
     </g>
    </g>
    <g id="text_14">
     <!-- Axial RF field ($m^{-1}$) -->
     <g transform="translate(23.840625 237.156)rotate(-90)scale(0.2 -0.2)">
      <defs>
       <path id="DejaVuSans-41" d="M 2188 4044 
L 1331 1722 
L 3047 1722 
L 2188 4044 
z
M 1831 4666 
L 2547 4666 
L 4325 0 
L 3669 0 
L 3244 1197 
L 1141 1197 
L 716 0 
L 50 0 
L 1831 4666 
z
" transform="scale(0.015625)"/>
       <path id="DejaVuSans-78" d="M 3513 3500 
L 2247 1797 
L 3578 0 
L 2900 0 
L 1881 1375 
L 863 0 
L 184 0 
L 1544 1831 
L 300 3500 
L 978 3500 
L 1906 2253 
L 2834 3500 
L 3513 3500 
z
" transform="scale(0.015625)"/>
       <path id="DejaVuSans-69" d="M 603 3500 
L 1178 3500 
L 1178 0 
L 603 0 
L 603 3500 
z
M 603 4863 
L 1178 4863 
L 1178 4134 
L 603 4134 
L 603 4863 
z
" transform="scale(0.015625)"/>
       <path id="DejaVuSans-61" d="M 2194 1759 
Q 1497 1759 1228 1600 
Q 959 1441 959 1056 
Q 959 750 1161 570 
Q 1363 391 1709 391 
Q 2188 391 2477 730 
Q 2766 1069 2766 1631 
L 2766 1759 
L 2194 1759 
z
M 3341 1997 
L 3341 0 
L 2766 0 
L 2766 531 
Q 2569 213 2275 61 
Q 1981 -91 1556 -91 
Q 1019 -91 701 211 
Q 384 513 384 1019 
Q 384 1609 779 1909 
Q 1175 2209 1959 2209 
L 2766 2209 
L 2766 2266 
Q 2766 2663 2505 2880 
Q 2244 3097 1772 3097 
Q 1472 3097 1187 3025 
Q 903 2953 641 2809 
L 641 3341 
Q 956 3463 1253 3523 
Q 1550 3584 1831 3584 
Q 2591 3584 2966 3190 
Q 3341 2797 3341 1997 
z
" transform="scale(0.015625)"/>
       <path id="DejaVuSans-6c" d="M 603 4863 
L 1178 4863 
L 1178 0 
L 603 0 
L 603 4863 
z
" transform="scale(0.015625)"/>
       <path id="DejaVuSans-52" d="M 2841 2188 
Q 3044 2119 3236 1894 
Q 3428 1669 3622 1275 
L 4263 0 
L 3584 0 
L 2988 1197 
Q 2756 1666 2539 1819 
Q 2322 1972 1947 1972 
L 1259 1972 
L 1259 0 
L 628 0 
L 628 4666 
L 2053 4666 
Q 2853 4666 3247 4331 
Q 3641 3997 3641 3322 
Q 3641 2881 3436 2590 
Q 3231 2300 2841 2188 
z
M 1259 4147 
L 1259 2491 
L 2053 2491 
Q 2509 2491 2742 2702 
Q 2975 2913 2975 3322 
Q 2975 3731 2742 3939 
Q 2509 4147 2053 4147 
L 1259 4147 
z
" transform="scale(0.015625)"/>
       <path id="DejaVuSans-46" d="M 628 4666 
L 3309 4666 
L 3309 4134 
L 1259 4134 
L 1259 2759 
L 3109 2759 
L 3109 2228 
L 1259 2228 
L 1259 0 
L 628 0 
L 628 4666 
z
" transform="scale(0.015625)"/>
       <path id="DejaVuSans-66" d="M 2375 4863 
L 2375 4384 
L 1825 4384 
Q 1516 4384 1395 4259 
Q 1275 4134 1275 3809 
L 1275 3500 
L 2222 3500 
L 2222 3053 
L 1275 3053 
L 1275 0 
L 697 0 
L 697 3053 
L 147 3053 
L 147 3500 
L 697 3500 
L 697 3744 
Q 697 4328 969 4595 
Q 1241 4863 1831 4863 
L 2375 4863 
z
" transform="scale(0.015625)"/>
       <path id="DejaVuSans-65" d="M 3597 1894 
L 3597 1613 
L 953 1613 
Q 991 1019 1311 708 
Q 1631 397 2203 397 
Q 2534 397 2845 478 
Q 3156 559 3463 722 
L 3463 178 
Q 3153 47 2828 -22 
Q 2503 -91 2169 -91 
Q 1331 -91 842 396 
Q 353 884 353 1716 
Q 353 2575 817 3079 
Q 1281 3584 2069 3584 
Q 2775 3584 3186 3129 
Q 3597 2675 3597 1894 
z
M 3022 2063 
Q 3016 2534 2758 2815 
Q 2500 3097 2075 3097 
Q 1594 3097 1305 2825 
Q 1016 2553 972 2059 
L 3022 2063 
z
" transform="scale(0.015625)"/>
       <path id="DejaVuSans-64" d="M 2906 2969 
L 2906 4863 
L 3481 4863 
L 3481 0 
L 2906 0 
L 2906 525 
Q 2725 213 2448 61 
Q 2172 -91 1784 -91 
Q 1150 -91 751 415 
Q 353 922 353 1747 
Q 353 2572 751 3078 
Q 1150 3584 1784 3584 
Q 2172 3584 2448 3432 
Q 2725 3281 2906 2969 
z
M 947 1747 
Q 947 1113 1208 752 
Q 1469 391 1925 391 
Q 2381 391 2643 752 
Q 2906 1113 2906 1747 
Q 2906 2381 2643 2742 
Q 2381 3103 1925 3103 
Q 1469 3103 1208 2742 
Q 947 2381 947 1747 
z
" transform="scale(0.015625)"/>
      </defs>
      <use xlink:href="#DejaVuSans-41" transform="translate(0 0.684375)"/>
      <use xlink:href="#DejaVuSans-78" transform="translate(68.408203 0.684375)"/>
      <use xlink:href="#DejaVuSans-69" transform="translate(127.587891 0.684375)"/>
      <use xlink:href="#DejaVuSans-61" transform="translate(155.371094 0.684375)"/>
      <use xlink:href="#DejaVuSans-6c" transform="translate(216.650391 0.684375)"/>
      <use xlink:href="#DejaVuSans-20" transform="translate(244.433594 0.684375)"/>
      <use xlink:href="#DejaVuSans-52" transform="translate(276.220703 0.684375)"/>
      <use xlink:href="#DejaVuSans-46" transform="translate(345.703125 0.684375)"/>
      <use xlink:href="#DejaVuSans-20" transform="translate(403.222656 0.684375)"/>
      <use xlink:href="#DejaVuSans-66" transform="translate(435.009766 0.684375)"/>
      <use xlink:href="#DejaVuSans-69" transform="translate(470.214844 0.684375)"/>
      <use xlink:href="#DejaVuSans-65" transform="translate(497.998047 0.684375)"/>
      <use xlink:href="#DejaVuSans-6c" transform="translate(559.521484 0.684375)"/>
      <use xlink:href="#DejaVuSans-64" transform="translate(587.304688 0.684375)"/>
      <use xlink:href="#DejaVuSans-20" transform="translate(650.78125 0.684375)"/>
      <use xlink:href="#DejaVuSans-28" transform="translate(682.568359 0.684375)"/>
      <use xlink:href="#DejaVuSans-Oblique-6d" transform="translate(721.582031 0.684375)"/>
      <use xlink:href="#DejaVuSans-2212" transform="translate(823.644036 38.965625)scale(0.7)"/>
      <use xlink:href="#DejaVuSans-31" transform="translate(882.29638 38.965625)scale(0.7)"/>
      <use xlink:href="#DejaVuSans-29" transform="translate(929.566888 0.684375)"/>
     </g>
    </g>
   </g>
   <g id="line2d_25">
    <path d="M 77.346009 213.365679 
L 78.344946 193.732135 
L 79.058472 174.373404 
L 79.986056 141.703963 
L 82.982868 29.908039 
L 83.839099 6.115872 
L 84.198727 -1 
M 85.543571 -1 
L 85.836974 5.64964 
L 86.336442 22.269959 
L 87.049969 54.911835 
L 89.975427 199.114717 
L 91.331127 263.780611 
L 92.457839 326.429187 
M 98.445752 326.429187 
L 100.678324 249.581855 
L 101.320498 235.366931 
L 101.891319 226.804498 
L 102.604846 219.596642 
L 103.603783 209.912892 
L 104.388662 199.623569 
L 105.67301 182.495087 
L 106.172478 178.378411 
L 106.600594 176.454535 
L 106.957357 175.78878 
L 107.31412 175.637391 
L 107.813589 175.497059 
L 108.099 175.087067 
L 108.38441 174.24052 
L 108.741173 172.439278 
L 109.240642 168.58289 
L 110.953105 153.672046 
L 111.309869 152.478259 
L 111.595279 152.200134 
L 111.809337 152.330722 
L 112.094748 152.834535 
L 113.093685 154.883113 
L 113.307743 154.862049 
L 113.521801 154.560581 
L 113.807211 153.703667 
L 114.235327 151.534859 
L 115.805085 142.372991 
L 116.090496 141.982897 
L 116.233201 142.024749 
L 116.447259 142.37133 
L 116.804023 143.610618 
L 117.446196 147.049428 
L 118.08837 150.077687 
L 118.445133 150.822668 
L 118.659191 150.845224 
L 118.873249 150.549402 
L 119.15866 149.699375 
L 119.658128 147.307936 
L 120.51436 143.096835 
L 120.871123 142.282891 
L 121.085181 142.212978 
L 121.299239 142.475527 
L 121.58465 143.318813 
L 122.012766 145.410506 
L 123.154408 151.49667 
L 123.439819 152.121837 
L 123.653877 152.212563 
L 123.867935 151.97866 
L 124.153345 151.202591 
L 124.652814 148.917563 
L 125.580398 144.50043 
L 125.937161 143.78464 
L 126.151219 143.760223 
L 126.365277 144.042998 
L 126.650688 144.861904 
L 127.150156 147.153439 
L 128.006388 151.037416 
L 128.291799 151.593367 
L 128.505857 151.633688 
L 128.719915 151.335888 
L 129.005325 150.436945 
L 129.433441 148.195782 
L 130.717789 140.635481 
L 131.074552 139.864905 
L 131.28861 139.843737 
L 131.502668 140.142937 
L 131.859431 141.251671 
L 133.357837 146.963012 
L 133.571895 146.957392 
L 133.785953 146.624978 
L 134.071363 145.703344 
L 134.570832 143.071518 
L 135.712474 136.590334 
L 136.069237 135.701537 
L 136.283295 135.557448 
L 136.497353 135.690875 
L 136.782764 136.233587 
L 137.424938 138.207066 
L 137.853053 139.21114 
L 138.067111 139.376752 
L 138.281169 139.23499 
L 138.495227 138.747501 
L 138.851991 137.152228 
L 139.351459 133.452196 
L 141.063923 119.067867 
L 141.492038 117.639775 
L 141.777449 117.261235 
L 142.06286 117.196441 
L 142.776386 117.233758 
L 143.061797 116.85581 
L 143.347207 116.062123 
L 143.775323 113.996062 
L 144.417497 109.377741 
L 145.273729 103.378346 
L 145.630492 102.09437 
L 145.84455 101.860971 
L 145.987255 101.946927 
L 146.201313 102.440873 
L 146.486724 103.757702 
L 146.91484 106.903417 
L 148.484598 119.837738 
L 148.841361 120.995341 
L 149.126772 121.292292 
L 149.34083 121.21278 
L 149.697593 120.693405 
L 150.339767 119.636718 
L 150.553825 119.552766 
L 150.767883 119.710743 
L 151.053293 120.360169 
L 151.410056 121.901243 
L 151.909525 125.204583 
L 153.051167 133.213627 
L 153.407931 134.41253 
L 153.621989 134.661517 
L 153.764694 134.629977 
L 153.978752 134.300799 
L 154.335515 133.116419 
L 155.833921 127.019407 
L 156.047979 126.972596 
L 156.262036 127.259349 
L 156.547447 128.131721 
L 156.975563 130.278616 
L 158.188558 136.878922 
L 158.473969 137.471657 
L 158.688027 137.544295 
L 158.902084 137.304159 
L 159.187495 136.553152 
L 159.686964 134.438662 
L 160.471843 131.175338 
L 160.757253 130.632029 
L 160.971311 130.572669 
L 161.185369 130.834383 
L 161.47078 131.660185 
L 161.898896 133.728321 
L 163.111891 140.130252 
L 163.397301 140.6532 
L 163.611359 140.648016 
L 163.825417 140.300724 
L 164.110828 139.354433 
L 164.610296 136.745816 
L 165.537881 131.748542 
L 165.894644 130.847623 
L 166.108702 130.73301 
L 166.32276 130.948255 
L 166.60817 131.706194 
L 167.036286 133.60071 
L 168.035223 138.333625 
L 168.391987 138.998227 
L 168.606044 138.983396 
L 168.820102 138.656107 
L 169.176866 137.498999 
L 169.819039 134.248156 
L 170.461213 131.323033 
L 170.817977 130.586228 
L 171.032034 130.563864 
L 171.246092 130.874014 
L 171.531503 131.768835 
L 172.030972 134.343589 
L 173.029909 139.752706 
L 173.386672 140.558541 
L 173.60073 140.602471 
L 173.814788 140.30865 
L 174.100198 139.439962 
L 174.599667 136.95913 
L 175.527251 132.122135 
L 175.884015 131.230724 
L 176.098072 131.093617 
L 176.31213 131.268264 
L 176.597541 131.958535 
L 177.09701 134.037742 
L 177.953241 137.714707 
L 178.310005 138.338322 
L 178.524062 138.319576 
L 178.73812 138.009692 
L 179.023531 137.176495 
L 179.523 134.85524 
L 180.379231 130.88162 
L 180.735995 130.205049 
L 180.950052 130.244743 
L 181.16411 130.63382 
L 181.449521 131.658372 
L 181.94899 134.563941 
L 183.090632 141.72625 
L 183.447395 142.682885 
L 183.661453 142.801738 
L 183.875511 142.585207 
L 184.160922 141.845643 
L 184.66039 139.721336 
L 185.445269 136.401782 
L 185.802032 135.784504 
L 186.01609 135.828225 
L 186.230148 136.196507 
L 186.586912 137.486497 
L 187.157733 140.758021 
L 187.942612 145.223732 
L 188.299375 146.273189 
L 188.513433 146.478995 
L 188.727491 146.360841 
L 189.012902 145.715716 
L 189.441018 143.924844 
L 190.58266 138.722249 
L 190.86807 138.291167 
L 191.082128 138.338259 
L 191.296186 138.697309 
L 191.65295 139.921044 
L 192.366476 143.670714 
L 192.937297 146.163214 
L 193.222708 146.731809 
L 193.436766 146.760194 
L 193.650824 146.424384 
L 193.936234 145.455462 
L 194.36435 143.063436 
L 195.72005 134.5207 
L 196.076814 133.720042 
L 196.290872 133.694623 
L 196.50493 133.980797 
L 196.861693 135.037242 
L 198.217393 139.997048 
L 198.431451 140.123593 
L 198.645509 139.952108 
L 198.93092 139.289073 
L 199.359035 137.582628 
L 200.357973 133.291776 
L 200.643383 132.833401 
L 200.857441 132.866636 
L 201.071499 133.250032 
L 201.35691 134.300866 
L 201.785026 136.859743 
L 203.212078 146.294003 
L 203.497489 146.945957 
L 203.711547 147.030494 
L 203.925605 146.78662 
L 204.211016 146.026735 
L 204.781837 143.621749 
L 205.424011 141.205305 
L 205.709421 140.762035 
L 205.923479 140.800076 
L 206.137537 141.177087 
L 206.422948 142.192227 
L 206.851063 144.628048 
L 208.206764 153.225236 
L 208.563527 154.098282 
L 208.777585 154.20772 
L 208.991643 154.035357 
L 209.277053 153.456041 
L 210.490048 150.467017 
L 210.704106 150.566977 
L 210.918164 150.998685 
L 211.203575 152.11932 
L 211.631691 154.877362 
L 212.487923 162.477601 
L 213.130096 167.24533 
L 213.48686 168.71258 
L 213.77227 169.155904 
L 213.986328 169.076562 
L 214.271739 168.507655 
L 214.699855 166.989609 
L 215.484734 164.104626 
L 215.770144 163.627624 
L 215.984202 163.58923 
L 216.19826 163.842039 
L 216.483671 164.614802 
L 216.911787 166.517887 
L 217.982076 171.589246 
L 218.267487 172.112987 
L 218.481545 172.134246 
L 218.695603 171.832584 
L 218.981014 170.962375 
L 219.480482 168.461075 
L 220.408066 163.546258 
L 220.76483 162.668669 
L 220.978888 162.580035 
L 221.192946 162.839805 
L 221.478356 163.702609 
L 221.906472 165.88651 
L 223.119467 172.770897 
L 223.47623 173.55147 
L 223.690288 173.598623 
L 223.904346 173.343862 
L 224.189757 172.602837 
L 224.760578 170.316523 
L 225.402752 168.048528 
L 225.688162 167.652488 
L 225.90222 167.707439 
L 226.116278 168.084719 
L 226.401689 169.070449 
L 226.901157 171.85626 
L 228.0428 178.694012 
L 228.399563 179.579795 
L 228.613621 179.676458 
L 228.827679 179.455148 
L 229.113089 178.728354 
L 229.612558 176.668764 
L 230.326084 173.776492 
L 230.611495 173.218601 
L 230.825553 173.15123 
L 231.039611 173.413884 
L 231.325022 174.276836 
L 231.753137 176.518655 
L 233.251543 185.448257 
L 233.536954 185.949743 
L 233.751012 185.950612 
L 233.965069 185.652423 
L 234.321833 184.619329 
L 235.677533 179.988019 
L 235.891591 179.868316 
L 236.105649 180.002598 
L 236.391059 180.532613 
L 236.890528 182.084369 
L 237.461349 183.680902 
L 237.675407 183.891352 
L 237.818112 183.847135 
L 238.03217 183.456139 
L 238.317581 182.265016 
L 238.674344 179.659017 
L 239.173813 174.14369 
L 241.100334 150.233708 
L 241.52845 147.822297 
L 241.956566 146.539241 
L 243.026856 144.292623 
L 243.454972 142.227652 
L 243.95444 138.492006 
L 245.738256 123.585137 
L 246.023667 122.875814 
L 246.237725 122.823352 
L 246.451783 123.160133 
L 246.737193 124.13301 
L 247.236662 126.810801 
L 248.092894 131.452498 
L 248.449657 132.463029 
L 248.735067 132.708085 
L 248.949125 132.575207 
L 249.234536 132.05125 
L 249.87671 130.138453 
L 250.376178 128.986705 
L 250.590236 128.832506 
L 250.804294 128.951438 
L 251.089705 129.561742 
L 251.446468 131.026422 
L 252.088642 134.996293 
L 252.873521 139.552741 
L 253.230284 140.567124 
L 253.444342 140.724214 
L 253.6584 140.535133 
L 253.943811 139.788301 
L 254.371927 137.851166 
L 255.442216 132.525854 
L 255.727627 131.932892 
L 255.941685 131.871439 
L 256.155743 132.15002 
L 256.441153 133.024277 
L 256.869269 135.187779 
L 258.082264 141.842159 
L 258.367675 142.451664 
L 258.581733 142.540601 
L 258.795791 142.318795 
L 259.081201 141.594208 
L 259.58067 139.542415 
L 260.365549 136.433819 
L 260.65096 135.959197 
L 260.865018 135.953682 
L 261.079075 136.267737 
L 261.364486 137.168079 
L 261.792602 139.358444 
L 263.005597 146.16673 
L 263.291008 146.811918 
L 263.505065 146.910378 
L 263.719123 146.678691 
L 264.004534 145.906324 
L 264.504003 143.654667 
L 265.360234 139.742863 
L 265.645645 139.159214 
L 265.859703 139.09666 
L 266.073761 139.378127 
L 266.359171 140.275388 
L 266.787287 142.552685 
L 268.142988 150.674371 
L 268.428398 151.306694 
L 268.642456 151.400759 
L 268.856514 151.182408 
L 269.141925 150.469693 
L 269.712746 148.174061 
L 270.35492 145.786666 
L 270.64033 145.296697 
L 270.854388 145.262476 
L 271.068446 145.533645 
L 271.353857 146.351471 
L 271.781973 148.366706 
L 272.923615 154.204138 
L 273.209026 154.76468 
L 273.423083 154.797466 
L 273.637141 154.492505 
L 273.922552 153.597735 
L 274.422021 151.026173 
L 275.420958 145.643563 
L 275.777721 144.838479 
L 275.991779 144.796875 
L 276.205837 145.093355 
L 276.491247 145.972806 
L 276.990716 148.476766 
L 277.9183 153.244286 
L 278.275063 154.019912 
L 278.489121 154.054832 
L 278.703179 153.762512 
L 278.98859 152.904659 
L 279.488058 150.465722 
L 280.415643 145.770563 
L 280.772406 144.94295 
L 280.986464 144.848948 
L 281.200522 145.062039 
L 281.485933 145.780637 
L 281.985401 147.875152 
L 282.77028 151.205072 
L 283.127043 151.844697 
L 283.341101 151.821478 
L 283.555159 151.478486 
L 283.84057 150.550503 
L 284.340038 147.948639 
L 285.267623 142.844803 
L 285.624386 141.932593 
L 285.838444 141.845488 
L 286.052502 142.126599 
L 286.337913 143.0538 
L 286.766029 145.416794 
L 288.121729 153.778624 
L 288.407139 154.416123 
L 288.621197 154.501085 
L 288.835255 154.263886 
L 289.120666 153.514981 
L 289.691487 151.120868 
L 290.333661 148.619887 
L 290.619071 148.089858 
L 290.833129 148.030725 
L 291.047187 148.277074 
L 291.332598 149.068825 
L 291.760714 151.054341 
L 292.831004 156.508568 
L 293.116414 157.11363 
L 293.330472 157.162273 
L 293.54453 156.849275 
L 293.829941 155.889569 
L 294.258056 153.485333 
L 295.685109 144.561373 
L 295.97052 143.969635 
L 296.184578 143.923883 
L 296.398636 144.206328 
L 296.684046 145.028215 
L 297.254868 147.593989 
L 297.897041 150.291377 
L 298.253805 150.998178 
L 298.467863 151.04075 
L 298.681921 150.7858 
L 298.967331 150.020794 
L 299.4668 147.836176 
L 300.394384 143.689809 
L 300.751147 143.04589 
L 300.965205 143.04479 
L 301.179263 143.332134 
L 301.536027 144.359107 
L 302.891727 149.215455 
L 303.105785 149.205803 
L 303.319843 148.816145 
L 303.605253 147.682666 
L 304.033369 144.76805 
L 304.746896 137.817409 
L 305.603127 129.913956 
L 306.031243 127.525763 
L 306.388007 126.560527 
L 306.602064 126.389371 
L 306.816122 126.467702 
L 307.172886 126.971503 
L 307.957765 128.200782 
L 308.243175 128.226463 
L 308.528586 127.905623 
L 308.885349 127.046009 
L 310.241049 123.173062 
L 310.455107 123.22026 
L 310.669165 123.602719 
L 310.954576 124.660931 
L 311.382692 127.357652 
L 312.096218 133.734531 
L 312.881097 140.167734 
L 313.309213 142.053326 
L 313.594624 142.472125 
L 313.737329 142.436291 
L 313.951387 142.10559 
L 314.30815 140.96153 
L 315.521145 136.372213 
L 315.735203 136.189555 
L 315.949261 136.323925 
L 316.234672 137.005326 
L 316.591435 138.567996 
L 317.447667 143.821774 
L 318.018488 146.480284 
L 318.303899 147.084463 
L 318.517957 147.170921 
L 318.732015 146.952375 
L 319.017425 146.253004 
L 319.588246 144.030493 
L 320.159067 142.004698 
L 320.444478 141.546598 
L 320.658536 141.562665 
L 320.872594 141.920258 
L 321.158005 142.928114 
L 321.58612 145.428118 
L 323.084526 155.289859 
L 323.369937 155.8256 
L 323.512642 155.844231 
L 323.7267 155.572899 
L 324.01211 154.710438 
L 324.511579 152.240934 
L 325.367811 147.922571 
L 325.724574 147.091425 
L 325.938632 147.006692 
L 326.15269 147.241724 
L 326.4381 148.008707 
L 326.937569 150.218625 
L 327.722448 153.69931 
L 328.007859 154.273272 
L 328.221917 154.31959 
L 328.435975 154.010522 
L 328.721385 153.055964 
L 329.149501 150.64253 
L 330.505201 142.003968 
L 330.790612 141.41157 
L 330.933317 141.381394 
L 331.147375 141.674869 
L 331.432786 142.668528 
L 331.860902 145.20339 
L 333.287955 154.74522 
L 333.644718 155.669277 
L 333.930128 155.848819 
L 334.144186 155.716344 
L 334.572302 155.051229 
L 335.071771 154.332431 
L 335.285829 154.285256 
L 335.499887 154.496099 
L 335.785297 155.257055 
L 336.14206 157.044882 
L 336.641529 160.940056 
L 338.211287 174.39852 
L 338.56805 175.678335 
L 338.853461 176.060299 
L 339.067519 176.031797 
L 339.35293 175.696204 
L 340.137809 174.536855 
L 340.351867 174.554643 
L 340.565925 174.845848 
L 340.851335 175.724865 
L 341.208098 177.647249 
L 341.77892 182.296346 
L 342.991915 192.773056 
L 343.420031 194.681444 
L 343.705441 195.223217 
L 343.919499 195.289557 
L 344.133557 195.126392 
L 344.633026 194.292617 
L 345.061141 193.765455 
L 345.275199 193.80203 
L 345.489257 194.134508 
L 345.774668 195.119204 
L 346.131431 197.287215 
L 346.6309 201.906855 
L 348.414716 220.321126 
L 348.914184 222.672579 
L 349.413653 223.973928 
L 349.984474 225.442151 
L 350.341237 227.052332 
L 350.769353 230.2134 
L 351.268822 235.827421 
L 352.053701 247.830765 
L 353.123991 263.698172 
L 353.694812 268.96415 
L 354.122928 271.235907 
L 354.551043 272.505828 
L 355.407275 274.564458 
L 355.835391 276.523413 
L 356.33486 280.037472 
L 358.261381 295.409693 
L 358.618144 296.17031 
L 358.832202 296.227828 
L 359.04626 296.041251 
L 359.474376 295.230096 
L 359.973845 294.372923 
L 360.187903 294.303358 
L 360.401961 294.526669 
L 360.687371 295.378612 
L 361.044134 297.425116 
L 361.543603 302.027014 
L 362.685245 315.955938 
L 363.327419 322.092678 
L 363.826888 324.926736 
L 364.255004 326.192553 
L 364.380259 326.429187 
M 387.303474 326.429187 
L 387.87273 287.390087 
L 388.443551 233.269628 
L 389.085725 150.348789 
L 389.799251 26.152396 
L 389.931321 -1 
L 389.931321 -1 
" clip-path="url(#pc029fbf4bd)" style="fill: none; stroke: #1f77b4; stroke-width: 1.5; stroke-linecap: square"/>
   </g>
   <g id="patch_3">
    <path d="M 61.113281 273.312 
L 61.113281 7.2 
" style="fill: none; stroke: #000000; stroke-width: 0.8; stroke-linejoin: miter; stroke-linecap: square"/>
   </g>
   <g id="patch_4">
    <path d="M 418.233281 273.312 
L 418.233281 7.2 
" style="fill: none; stroke: #000000; stroke-width: 0.8; stroke-linejoin: miter; stroke-linecap: square"/>
   </g>
   <g id="patch_5">
    <path d="M 61.113281 273.312 
L 418.233281 273.312 
" style="fill: none; stroke: #000000; stroke-width: 0.8; stroke-linejoin: miter; stroke-linecap: square"/>
   </g>
   <g id="patch_6">
    <path d="M 61.113281 7.2 
L 418.233281 7.2 
" style="fill: none; stroke: #000000; stroke-width: 0.8; stroke-linejoin: miter; stroke-linecap: square"/>
   </g>
  </g>
 </g>
 <defs>
  <clipPath id="pc029fbf4bd">
   <rect x="61.113281" y="7.2" width="357.12" height="266.112"/>
  </clipPath>
 </defs>
</svg>
