<?xml version="1.0" encoding="utf-8" standalone="no"?>
<!DOCTYPE svg PUBLIC "-//W3C//DTD SVG 1.1//EN"
  "http://www.w3.org/Graphics/SVG/1.1/DTD/svg11.dtd">
<svg xmlns:xlink="http://www.w3.org/1999/xlink" width="435.177031pt" height="325.429187pt" viewBox="0 0 435.177031 325.429187" xmlns="http://www.w3.org/2000/svg" version="1.1">
 <defs>
  <style type="text/css">*{stroke-linejoin: round; stroke-linecap: butt}</style>
 </defs>
 <g id="figure_1">
  <g id="patch_1">
   <path d="M 0 325.429187 
L 435.177031 325.429187 
L 435.177031 0 
L 0 0 
L 0 325.429187 
z
" style="fill: none"/>
  </g>
  <g id="axes_1">
   <g id="patch_2">
    <path d="M 70.857031 273.312 
L 427.977031 273.312 
L 427.977031 7.2 
L 70.857031 7.2 
L 70.857031 273.312 
z
" style="fill: none"/>
   </g>
   <g id="matplotlib.axis_1">
    <g id="xtick_1">
     <g id="line2d_1">
      <path d="M 102.787341 273.312 
L 102.787341 7.2 
" clip-path="url(#pb89c3edd3e)" style="fill: none; stroke: #b0b0b0; stroke-width: 0.8; stroke-linecap: square"/>
     </g>
     <g id="line2d_2">
      <defs>
       <path id="md39032bed2" d="M 0 0 
L 0 3.5 
" style="stroke: #000000; stroke-width: 0.8"/>
      </defs>
      <g>
       <use xlink:href="#md39032bed2" x="102.787341" y="273.312" style="stroke: #000000; stroke-width: 0.8"/>
      </g>
     </g>
     <g id="text_1">
      <!-- −3000 -->
      <g transform="translate(77.415075 291.709656)scale(0.15 -0.15)">
       <defs>
        <path id="DejaVuSans-2212" d="M 678 2272 
L 4684 2272 
L 4684 1741 
L 678 1741 
L 678 2272 
z
" transform="scale(0.015625)"/>
        <path id="DejaVuSans-33" d="M 2597 2516 
Q 3050 2419 3304 2112 
Q 3559 1806 3559 1356 
Q 3559 666 3084 287 
Q 2609 -91 1734 -91 
Q 1441 -91 1130 -33 
Q 819 25 488 141 
L 488 750 
Q 750 597 1062 519 
Q 1375 441 1716 441 
Q 2309 441 2620 675 
Q 2931 909 2931 1356 
Q 2931 1769 2642 2001 
Q 2353 2234 1838 2234 
L 1294 2234 
L 1294 2753 
L 1863 2753 
Q 2328 2753 2575 2939 
Q 2822 3125 2822 3475 
Q 2822 3834 2567 4026 
Q 2313 4219 1838 4219 
Q 1578 4219 1281 4162 
Q 984 4106 628 3988 
L 628 4550 
Q 988 4650 1302 4700 
Q 1616 4750 1894 4750 
Q 2613 4750 3031 4423 
Q 3450 4097 3450 3541 
Q 3450 3153 3228 2886 
Q 3006 2619 2597 2516 
z
" transform="scale(0.015625)"/>
        <path id="DejaVuSans-30" d="M 2034 4250 
Q 1547 4250 1301 3770 
Q 1056 3291 1056 2328 
Q 1056 1369 1301 889 
Q 1547 409 2034 409 
Q 2525 409 2770 889 
Q 3016 1369 3016 2328 
Q 3016 3291 2770 3770 
Q 2525 4250 2034 4250 
z
M 2034 4750 
Q 2819 4750 3233 4129 
Q 3647 3509 3647 2328 
Q 3647 1150 3233 529 
Q 2819 -91 2034 -91 
Q 1250 -91 836 529 
Q 422 1150 422 2328 
Q 422 3509 836 4129 
Q 1250 4750 2034 4750 
z
" transform="scale(0.015625)"/>
       </defs>
       <use xlink:href="#DejaVuSans-2212"/>
       <use xlink:href="#DejaVuSans-33" x="83.789062"/>
       <use xlink:href="#DejaVuSans-30" x="147.412109"/>
       <use xlink:href="#DejaVuSans-30" x="211.035156"/>
       <use xlink:href="#DejaVuSans-30" x="274.658203"/>
      </g>
     </g>
    </g>
    <g id="xtick_2">
     <g id="line2d_3">
      <path d="M 174.139988 273.312 
L 174.139988 7.2 
" clip-path="url(#pb89c3edd3e)" style="fill: none; stroke: #b0b0b0; stroke-width: 0.8; stroke-linecap: square"/>
     </g>
     <g id="line2d_4">
      <g>
       <use xlink:href="#md39032bed2" x="174.139988" y="273.312" style="stroke: #000000; stroke-width: 0.8"/>
      </g>
     </g>
     <g id="text_2">
      <!-- −2000 -->
      <g transform="translate(148.767723 291.709656)scale(0.15 -0.15)">
       <defs>
        <path id="DejaVuSans-32" d="M 1228 531 
L 3431 531 
L 3431 0 
L 469 0 
L 469 531 
Q 828 903 1448 1529 
Q 2069 2156 2228 2338 
Q 2531 2678 2651 2914 
Q 2772 3150 2772 3378 
Q 2772 3750 2511 3984 
Q 2250 4219 1831 4219 
Q 1534 4219 1204 4116 
Q 875 4013 500 3803 
L 500 4441 
Q 881 4594 1212 4672 
Q 1544 4750 1819 4750 
Q 2544 4750 2975 4387 
Q 3406 4025 3406 3419 
Q 3406 3131 3298 2873 
Q 3191 2616 2906 2266 
Q 2828 2175 2409 1742 
Q 1991 1309 1228 531 
z
" transform="scale(0.015625)"/>
       </defs>
       <use xlink:href="#DejaVuSans-2212"/>
       <use xlink:href="#DejaVuSans-32" x="83.789062"/>
       <use xlink:href="#DejaVuSans-30" x="147.412109"/>
       <use xlink:href="#DejaVuSans-30" x="211.035156"/>
       <use xlink:href="#DejaVuSans-30" x="274.658203"/>
      </g>
     </g>
    </g>
    <g id="xtick_3">
     <g id="line2d_5">
      <path d="M 245.492636 273.312 
L 245.492636 7.2 
" clip-path="url(#pb89c3edd3e)" style="fill: none; stroke: #b0b0b0; stroke-width: 0.8; stroke-linecap: square"/>
     </g>
     <g id="line2d_6">
      <g>
       <use xlink:href="#md39032bed2" x="245.492636" y="273.312" style="stroke: #000000; stroke-width: 0.8"/>
      </g>
     </g>
     <g id="text_3">
      <!-- −1000 -->
      <g transform="translate(220.12037 291.709656)scale(0.15 -0.15)">
       <defs>
        <path id="DejaVuSans-31" d="M 794 531 
L 1825 531 
L 1825 4091 
L 703 3866 
L 703 4441 
L 1819 4666 
L 2450 4666 
L 2450 531 
L 3481 531 
L 3481 0 
L 794 0 
L 794 531 
z
" transform="scale(0.015625)"/>
       </defs>
       <use xlink:href="#DejaVuSans-2212"/>
       <use xlink:href="#DejaVuSans-31" x="83.789062"/>
       <use xlink:href="#DejaVuSans-30" x="147.412109"/>
       <use xlink:href="#DejaVuSans-30" x="211.035156"/>
       <use xlink:href="#DejaVuSans-30" x="274.658203"/>
      </g>
     </g>
    </g>
    <g id="xtick_4">
     <g id="line2d_7">
      <path d="M 316.845283 273.312 
L 316.845283 7.2 
" clip-path="url(#pb89c3edd3e)" style="fill: none; stroke: #b0b0b0; stroke-width: 0.8; stroke-linecap: square"/>
     </g>
     <g id="line2d_8">
      <g>
       <use xlink:href="#md39032bed2" x="316.845283" y="273.312" style="stroke: #000000; stroke-width: 0.8"/>
      </g>
     </g>
     <g id="text_4">
      <!-- 0 -->
      <g transform="translate(312.073408 291.709656)scale(0.15 -0.15)">
       <use xlink:href="#DejaVuSans-30"/>
      </g>
     </g>
    </g>
    <g id="xtick_5">
     <g id="line2d_9">
      <path d="M 388.19793 273.312 
L 388.19793 7.2 
" clip-path="url(#pb89c3edd3e)" style="fill: none; stroke: #b0b0b0; stroke-width: 0.8; stroke-linecap: square"/>
     </g>
     <g id="line2d_10">
      <g>
       <use xlink:href="#md39032bed2" x="388.19793" y="273.312" style="stroke: #000000; stroke-width: 0.8"/>
      </g>
     </g>
     <g id="text_5">
      <!-- 1000 -->
      <g transform="translate(369.11043 291.709656)scale(0.15 -0.15)">
       <use xlink:href="#DejaVuSans-31"/>
       <use xlink:href="#DejaVuSans-30" x="63.623047"/>
       <use xlink:href="#DejaVuSans-30" x="127.246094"/>
       <use xlink:href="#DejaVuSans-30" x="190.869141"/>
      </g>
     </g>
    </g>
    <g id="text_6">
     <!-- X ($\mu m$) -->
     <g transform="translate(215.417031 314.029187)scale(0.2 -0.2)">
      <defs>
       <path id="DejaVuSans-58" d="M 403 4666 
L 1081 4666 
L 2241 2931 
L 3406 4666 
L 4084 4666 
L 2584 2425 
L 4184 0 
L 3506 0 
L 2194 1984 
L 872 0 
L 191 0 
L 1856 2491 
L 403 4666 
z
" transform="scale(0.015625)"/>
       <path id="DejaVuSans-20" transform="scale(0.015625)"/>
       <path id="DejaVuSans-28" d="M 1984 4856 
Q 1566 4138 1362 3434 
Q 1159 2731 1159 2009 
Q 1159 1288 1364 580 
Q 1569 -128 1984 -844 
L 1484 -844 
Q 1016 -109 783 600 
Q 550 1309 550 2009 
Q 550 2706 781 3412 
Q 1013 4119 1484 4856 
L 1984 4856 
z
" transform="scale(0.015625)"/>
       <path id="DejaVuSans-Oblique-3bc" d="M -84 -1331 
L 856 3500 
L 1434 3500 
L 1009 1322 
Q 997 1256 987 1175 
Q 978 1094 978 1013 
Q 978 722 1161 565 
Q 1344 409 1684 409 
Q 2147 409 2431 671 
Q 2716 934 2816 1459 
L 3213 3500 
L 3788 3500 
L 3266 809 
Q 3253 750 3248 706 
Q 3244 663 3244 628 
Q 3244 531 3283 486 
Q 3322 441 3406 441 
Q 3438 441 3492 456 
Q 3547 472 3647 513 
L 3559 50 
Q 3422 -19 3297 -55 
Q 3172 -91 3053 -91 
Q 2847 -91 2730 40 
Q 2613 172 2613 403 
Q 2438 153 2195 31 
Q 1953 -91 1625 -91 
Q 1334 -91 1117 43 
Q 900 178 831 397 
L 494 -1331 
L -84 -1331 
z
" transform="scale(0.015625)"/>
       <path id="DejaVuSans-Oblique-6d" d="M 5747 2113 
L 5338 0 
L 4763 0 
L 5166 2094 
Q 5191 2228 5203 2325 
Q 5216 2422 5216 2491 
Q 5216 2772 5059 2928 
Q 4903 3084 4622 3084 
Q 4203 3084 3875 2770 
Q 3547 2456 3450 1953 
L 3066 0 
L 2491 0 
L 2900 2094 
Q 2925 2209 2937 2307 
Q 2950 2406 2950 2484 
Q 2950 2769 2794 2926 
Q 2638 3084 2363 3084 
Q 1938 3084 1609 2770 
Q 1281 2456 1184 1953 
L 800 0 
L 225 0 
L 909 3500 
L 1484 3500 
L 1375 2956 
Q 1609 3263 1923 3423 
Q 2238 3584 2597 3584 
Q 2978 3584 3223 3384 
Q 3469 3184 3519 2828 
Q 3781 3197 4126 3390 
Q 4472 3584 4856 3584 
Q 5306 3584 5551 3325 
Q 5797 3066 5797 2591 
Q 5797 2488 5784 2364 
Q 5772 2241 5747 2113 
z
" transform="scale(0.015625)"/>
       <path id="DejaVuSans-29" d="M 513 4856 
L 1013 4856 
Q 1481 4119 1714 3412 
Q 1947 2706 1947 2009 
Q 1947 1309 1714 600 
Q 1481 -109 1013 -844 
L 513 -844 
Q 928 -128 1133 580 
Q 1338 1288 1338 2009 
Q 1338 2731 1133 3434 
Q 928 4138 513 4856 
z
" transform="scale(0.015625)"/>
      </defs>
      <use xlink:href="#DejaVuSans-58" transform="translate(0 0.125)"/>
      <use xlink:href="#DejaVuSans-20" transform="translate(68.505859 0.125)"/>
      <use xlink:href="#DejaVuSans-28" transform="translate(100.292969 0.125)"/>
      <use xlink:href="#DejaVuSans-Oblique-3bc" transform="translate(139.306641 0.125)"/>
      <use xlink:href="#DejaVuSans-Oblique-6d" transform="translate(202.929688 0.125)"/>
      <use xlink:href="#DejaVuSans-29" transform="translate(300.341797 0.125)"/>
     </g>
    </g>
   </g>
   <g id="matplotlib.axis_2">
    <g id="ytick_1">
     <g id="line2d_11">
      <path d="M 70.857031 246.7008 
L 427.977031 246.7008 
" clip-path="url(#pb89c3edd3e)" style="fill: none; stroke: #b0b0b0; stroke-width: 0.8; stroke-linecap: square"/>
     </g>
     <g id="line2d_12">
      <defs>
       <path id="m6f3f5b6aff" d="M 0 0 
L -3.5 0 
" style="stroke: #000000; stroke-width: 0.8"/>
      </defs>
      <g>
       <use xlink:href="#m6f3f5b6aff" x="70.857031" y="246.7008" style="stroke: #000000; stroke-width: 0.8"/>
      </g>
     </g>
     <g id="text_7">
      <!-- −20 -->
      <g transform="translate(32.2 252.399628)scale(0.15 -0.15)">
       <use xlink:href="#DejaVuSans-2212"/>
       <use xlink:href="#DejaVuSans-32" x="83.789062"/>
       <use xlink:href="#DejaVuSans-30" x="147.412109"/>
      </g>
     </g>
    </g>
    <g id="ytick_2">
     <g id="line2d_13">
      <path d="M 70.857031 193.4784 
L 427.977031 193.4784 
" clip-path="url(#pb89c3edd3e)" style="fill: none; stroke: #b0b0b0; stroke-width: 0.8; stroke-linecap: square"/>
     </g>
     <g id="line2d_14">
      <g>
       <use xlink:href="#m6f3f5b6aff" x="70.857031" y="193.4784" style="stroke: #000000; stroke-width: 0.8"/>
      </g>
     </g>
     <g id="text_8">
      <!-- −10 -->
      <g transform="translate(32.2 199.177228)scale(0.15 -0.15)">
       <use xlink:href="#DejaVuSans-2212"/>
       <use xlink:href="#DejaVuSans-31" x="83.789062"/>
       <use xlink:href="#DejaVuSans-30" x="147.412109"/>
      </g>
     </g>
    </g>
    <g id="ytick_3">
     <g id="line2d_15">
      <path d="M 70.857031 140.256 
L 427.977031 140.256 
" clip-path="url(#pb89c3edd3e)" style="fill: none; stroke: #b0b0b0; stroke-width: 0.8; stroke-linecap: square"/>
     </g>
     <g id="line2d_16">
      <g>
       <use xlink:href="#m6f3f5b6aff" x="70.857031" y="140.256" style="stroke: #000000; stroke-width: 0.8"/>
      </g>
     </g>
     <g id="text_9">
      <!-- 0 -->
      <g transform="translate(54.313281 145.954828)scale(0.15 -0.15)">
       <use xlink:href="#DejaVuSans-30"/>
      </g>
     </g>
    </g>
    <g id="ytick_4">
     <g id="line2d_17">
      <path d="M 70.857031 87.0336 
L 427.977031 87.0336 
" clip-path="url(#pb89c3edd3e)" style="fill: none; stroke: #b0b0b0; stroke-width: 0.8; stroke-linecap: square"/>
     </g>
     <g id="line2d_18">
      <g>
       <use xlink:href="#m6f3f5b6aff" x="70.857031" y="87.0336" style="stroke: #000000; stroke-width: 0.8"/>
      </g>
     </g>
     <g id="text_10">
      <!-- 10 -->
      <g transform="translate(44.769531 92.732428)scale(0.15 -0.15)">
       <use xlink:href="#DejaVuSans-31"/>
       <use xlink:href="#DejaVuSans-30" x="63.623047"/>
      </g>
     </g>
    </g>
    <g id="ytick_5">
     <g id="line2d_19">
      <path d="M 70.857031 33.8112 
L 427.977031 33.8112 
" clip-path="url(#pb89c3edd3e)" style="fill: none; stroke: #b0b0b0; stroke-width: 0.8; stroke-linecap: square"/>
     </g>
     <g id="line2d_20">
      <g>
       <use xlink:href="#m6f3f5b6aff" x="70.857031" y="33.8112" style="stroke: #000000; stroke-width: 0.8"/>
      </g>
     </g>
     <g id="text_11">
      <!-- 20 -->
      <g transform="translate(44.769531 39.510028)scale(0.15 -0.15)">
       <use xlink:href="#DejaVuSans-32"/>
       <use xlink:href="#DejaVuSans-30" x="63.623047"/>
      </g>
     </g>
    </g>
    <g id="text_12">
     <!-- RF field curvature ($mm^{-2}$) -->
     <g transform="translate(24.040625 270.956)rotate(-90)scale(0.2 -0.2)">
      <defs>
       <path id="DejaVuSans-52" d="M 2841 2188 
Q 3044 2119 3236 1894 
Q 3428 1669 3622 1275 
L 4263 0 
L 3584 0 
L 2988 1197 
Q 2756 1666 2539 1819 
Q 2322 1972 1947 1972 
L 1259 1972 
L 1259 0 
L 628 0 
L 628 4666 
L 2053 4666 
Q 2853 4666 3247 4331 
Q 3641 3997 3641 3322 
Q 3641 2881 3436 2590 
Q 3231 2300 2841 2188 
z
M 1259 4147 
L 1259 2491 
L 2053 2491 
Q 2509 2491 2742 2702 
Q 2975 2913 2975 3322 
Q 2975 3731 2742 3939 
Q 2509 4147 2053 4147 
L 1259 4147 
z
" transform="scale(0.015625)"/>
       <path id="DejaVuSans-46" d="M 628 4666 
L 3309 4666 
L 3309 4134 
L 1259 4134 
L 1259 2759 
L 3109 2759 
L 3109 2228 
L 1259 2228 
L 1259 0 
L 628 0 
L 628 4666 
z
" transform="scale(0.015625)"/>
       <path id="DejaVuSans-66" d="M 2375 4863 
L 2375 4384 
L 1825 4384 
Q 1516 4384 1395 4259 
Q 1275 4134 1275 3809 
L 1275 3500 
L 2222 3500 
L 2222 3053 
L 1275 3053 
L 1275 0 
L 697 0 
L 697 3053 
L 147 3053 
L 147 3500 
L 697 3500 
L 697 3744 
Q 697 4328 969 4595 
Q 1241 4863 1831 4863 
L 2375 4863 
z
" transform="scale(0.015625)"/>
       <path id="DejaVuSans-69" d="M 603 3500 
L 1178 3500 
L 1178 0 
L 603 0 
L 603 3500 
z
M 603 4863 
L 1178 4863 
L 1178 4134 
L 603 4134 
L 603 4863 
z
" transform="scale(0.015625)"/>
       <path id="DejaVuSans-65" d="M 3597 1894 
L 3597 1613 
L 953 1613 
Q 991 1019 1311 708 
Q 1631 397 2203 397 
Q 2534 397 2845 478 
Q 3156 559 3463 722 
L 3463 178 
Q 3153 47 2828 -22 
Q 2503 -91 2169 -91 
Q 1331 -91 842 396 
Q 353 884 353 1716 
Q 353 2575 817 3079 
Q 1281 3584 2069 3584 
Q 2775 3584 3186 3129 
Q 3597 2675 3597 1894 
z
M 3022 2063 
Q 3016 2534 2758 2815 
Q 2500 3097 2075 3097 
Q 1594 3097 1305 2825 
Q 1016 2553 972 2059 
L 3022 2063 
z
" transform="scale(0.015625)"/>
       <path id="DejaVuSans-6c" d="M 603 4863 
L 1178 4863 
L 1178 0 
L 603 0 
L 603 4863 
z
" transform="scale(0.015625)"/>
       <path id="DejaVuSans-64" d="M 2906 2969 
L 2906 4863 
L 3481 4863 
L 3481 0 
L 2906 0 
L 2906 525 
Q 2725 213 2448 61 
Q 2172 -91 1784 -91 
Q 1150 -91 751 415 
Q 353 922 353 1747 
Q 353 2572 751 3078 
Q 1150 3584 1784 3584 
Q 2172 3584 2448 3432 
Q 2725 3281 2906 2969 
z
M 947 1747 
Q 947 1113 1208 752 
Q 1469 391 1925 391 
Q 2381 391 2643 752 
Q 2906 1113 2906 1747 
Q 2906 2381 2643 2742 
Q 2381 3103 1925 3103 
Q 1469 3103 1208 2742 
Q 947 2381 947 1747 
z
" transform="scale(0.015625)"/>
       <path id="DejaVuSans-63" d="M 3122 3366 
L 3122 2828 
Q 2878 2963 2633 3030 
Q 2388 3097 2138 3097 
Q 1578 3097 1268 2742 
Q 959 2388 959 1747 
Q 959 1106 1268 751 
Q 1578 397 2138 397 
Q 2388 397 2633 464 
Q 2878 531 3122 666 
L 3122 134 
Q 2881 22 2623 -34 
Q 2366 -91 2075 -91 
Q 1284 -91 818 406 
Q 353 903 353 1747 
Q 353 2603 823 3093 
Q 1294 3584 2113 3584 
Q 2378 3584 2631 3529 
Q 2884 3475 3122 3366 
z
" transform="scale(0.015625)"/>
       <path id="DejaVuSans-75" d="M 544 1381 
L 544 3500 
L 1119 3500 
L 1119 1403 
Q 1119 906 1312 657 
Q 1506 409 1894 409 
Q 2359 409 2629 706 
Q 2900 1003 2900 1516 
L 2900 3500 
L 3475 3500 
L 3475 0 
L 2900 0 
L 2900 538 
Q 2691 219 2414 64 
Q 2138 -91 1772 -91 
Q 1169 -91 856 284 
Q 544 659 544 1381 
z
M 1991 3584 
L 1991 3584 
z
" transform="scale(0.015625)"/>
       <path id="DejaVuSans-72" d="M 2631 2963 
Q 2534 3019 2420 3045 
Q 2306 3072 2169 3072 
Q 1681 3072 1420 2755 
Q 1159 2438 1159 1844 
L 1159 0 
L 581 0 
L 581 3500 
L 1159 3500 
L 1159 2956 
Q 1341 3275 1631 3429 
Q 1922 3584 2338 3584 
Q 2397 3584 2469 3576 
Q 2541 3569 2628 3553 
L 2631 2963 
z
" transform="scale(0.015625)"/>
       <path id="DejaVuSans-76" d="M 191 3500 
L 800 3500 
L 1894 563 
L 2988 3500 
L 3597 3500 
L 2284 0 
L 1503 0 
L 191 3500 
z
" transform="scale(0.015625)"/>
       <path id="DejaVuSans-61" d="M 2194 1759 
Q 1497 1759 1228 1600 
Q 959 1441 959 1056 
Q 959 750 1161 570 
Q 1363 391 1709 391 
Q 2188 391 2477 730 
Q 2766 1069 2766 1631 
L 2766 1759 
L 2194 1759 
z
M 3341 1997 
L 3341 0 
L 2766 0 
L 2766 531 
Q 2569 213 2275 61 
Q 1981 -91 1556 -91 
Q 1019 -91 701 211 
Q 384 513 384 1019 
Q 384 1609 779 1909 
Q 1175 2209 1959 2209 
L 2766 2209 
L 2766 2266 
Q 2766 2663 2505 2880 
Q 2244 3097 1772 3097 
Q 1472 3097 1187 3025 
Q 903 2953 641 2809 
L 641 3341 
Q 956 3463 1253 3523 
Q 1550 3584 1831 3584 
Q 2591 3584 2966 3190 
Q 3341 2797 3341 1997 
z
" transform="scale(0.015625)"/>
       <path id="DejaVuSans-74" d="M 1172 4494 
L 1172 3500 
L 2356 3500 
L 2356 3053 
L 1172 3053 
L 1172 1153 
Q 1172 725 1289 603 
Q 1406 481 1766 481 
L 2356 481 
L 2356 0 
L 1766 0 
Q 1100 0 847 248 
Q 594 497 594 1153 
L 594 3053 
L 172 3053 
L 172 3500 
L 594 3500 
L 594 4494 
L 1172 4494 
z
" transform="scale(0.015625)"/>
      </defs>
      <use xlink:href="#DejaVuSans-52" transform="translate(0 0.765625)"/>
      <use xlink:href="#DejaVuSans-46" transform="translate(69.482422 0.765625)"/>
      <use xlink:href="#DejaVuSans-20" transform="translate(127.001953 0.765625)"/>
      <use xlink:href="#DejaVuSans-66" transform="translate(158.789062 0.765625)"/>
      <use xlink:href="#DejaVuSans-69" transform="translate(193.994141 0.765625)"/>
      <use xlink:href="#DejaVuSans-65" transform="translate(221.777344 0.765625)"/>
      <use xlink:href="#DejaVuSans-6c" transform="translate(283.300781 0.765625)"/>
      <use xlink:href="#DejaVuSans-64" transform="translate(311.083984 0.765625)"/>
      <use xlink:href="#DejaVuSans-20" transform="translate(374.560547 0.765625)"/>
      <use xlink:href="#DejaVuSans-63" transform="translate(406.347656 0.765625)"/>
      <use xlink:href="#DejaVuSans-75" transform="translate(461.328125 0.765625)"/>
      <use xlink:href="#DejaVuSans-72" transform="translate(524.707031 0.765625)"/>
      <use xlink:href="#DejaVuSans-76" transform="translate(565.820312 0.765625)"/>
      <use xlink:href="#DejaVuSans-61" transform="translate(625 0.765625)"/>
      <use xlink:href="#DejaVuSans-74" transform="translate(686.279297 0.765625)"/>
      <use xlink:href="#DejaVuSans-75" transform="translate(725.488281 0.765625)"/>
      <use xlink:href="#DejaVuSans-72" transform="translate(788.867188 0.765625)"/>
      <use xlink:href="#DejaVuSans-65" transform="translate(829.980469 0.765625)"/>
      <use xlink:href="#DejaVuSans-20" transform="translate(891.503906 0.765625)"/>
      <use xlink:href="#DejaVuSans-28" transform="translate(923.291016 0.765625)"/>
      <use xlink:href="#DejaVuSans-Oblique-6d" transform="translate(962.304688 0.765625)"/>
      <use xlink:href="#DejaVuSans-Oblique-6d" transform="translate(1059.716797 0.765625)"/>
      <use xlink:href="#DejaVuSans-2212" transform="translate(1161.778802 39.046875)scale(0.7)"/>
      <use xlink:href="#DejaVuSans-32" transform="translate(1220.431146 39.046875)scale(0.7)"/>
      <use xlink:href="#DejaVuSans-29" transform="translate(1267.701654 0.765625)"/>
     </g>
    </g>
   </g>
   <g id="line2d_21">
    <path d="M 87.089759 140.077728 
L 88.445459 139.985132 
L 90.300628 139.857593 
L 93.083381 139.974223 
L 94.510434 140.230406 
L 97.007777 140.784084 
L 98.363477 140.749259 
L 100.218646 140.71622 
L 102.359225 140.803584 
L 103.57222 140.586523 
L 106.212268 140.00998 
L 108.638258 139.884721 
L 110.279369 139.976994 
L 112.776712 140.163417 
L 115.844875 140.188298 
L 117.771397 140.238227 
L 120.625503 140.203516 
L 122.837435 140.261001 
L 125.477483 140.226316 
L 127.83212 140.28829 
L 130.472168 140.235422 
L 132.898158 140.287554 
L 135.395501 140.22912 
L 137.892843 140.275661 
L 140.318833 140.213182 
L 142.958881 140.272831 
L 145.384871 140.215915 
L 147.882214 140.25204 
L 150.379557 140.182187 
L 152.948252 140.228294 
L 155.088831 140.211341 
L 157.871585 140.326008 
L 160.511633 140.269733 
L 162.794917 140.302522 
L 165.363613 140.232047 
L 167.932308 140.286359 
L 170.358298 140.236843 
L 172.855641 140.28431 
L 175.352983 140.223699 
L 177.921679 140.277056 
L 180.276316 140.228593 
L 182.916364 140.281188 
L 185.342354 140.224381 
L 187.911049 140.271474 
L 190.194334 140.230071 
L 192.905735 140.291043 
L 195.331725 140.236475 
L 197.971773 140.278425 
L 200.255057 140.227636 
L 202.823753 140.275658 
L 205.321095 140.211458 
L 207.961143 140.268367 
L 210.315781 140.245051 
L 212.599065 140.314854 
L 215.310466 140.240149 
L 217.665103 140.310161 
L 220.447856 140.268205 
L 222.659788 140.325145 
L 225.513894 140.247551 
L 227.797179 140.279133 
L 230.294522 140.228905 
L 232.791864 140.29412 
L 235.289207 140.242035 
L 237.78655 140.29289 
L 240.21254 140.236389 
L 242.852588 140.293209 
L 245.34993 140.24046 
L 247.49051 140.253071 
L 250.20191 140.135727 
L 252.984664 140.207926 
L 255.125243 140.189519 
L 257.907996 140.290735 
L 260.333986 140.255004 
L 262.688624 140.292073 
L 265.185966 140.225803 
L 267.826014 140.286995 
L 270.180652 140.235063 
L 272.749347 140.288542 
L 275.175337 140.230884 
L 277.815385 140.292998 
L 280.241375 140.238828 
L 282.738718 140.280746 
L 285.164708 140.221536 
L 287.804756 140.280199 
L 290.230746 140.226178 
L 292.728088 140.271981 
L 295.082726 140.223013 
L 297.794126 140.293669 
L 300.148764 140.233177 
L 302.717459 140.277436 
L 305.143449 140.205781 
L 307.926202 140.269526 
L 310.209487 140.23169 
L 312.564124 140.269209 
L 315.275525 140.180487 
L 317.986925 140.250831 
L 320.198857 140.266082 
L 322.482142 140.326392 
L 325.336248 140.245182 
L 327.690885 140.291231 
L 330.116875 140.244428 
L 332.542865 140.307267 
L 335.254266 140.230406 
L 337.608903 140.276327 
L 340.106246 140.212755 
L 342.817647 140.306759 
L 345.172284 140.267923 
L 347.669627 140.325104 
L 350.166969 140.267411 
L 352.664312 140.320675 
L 355.018949 140.26438 
L 357.801703 140.341764 
L 360.013635 140.308057 
L 362.653683 140.388529 
L 365.293731 140.298076 
L 367.648368 140.316047 
L 370.003005 140.264157 
L 372.714406 140.354522 
L 375.283101 140.297087 
L 377.423681 140.297527 
L 379.921023 140.203651 
L 382.846482 140.303419 
L 384.915709 140.288645 
L 387.627109 140.405205 
L 390.195804 140.326219 
L 392.265031 140.347827 
L 396.474837 139.843602 
L 397.545127 139.48819 
L 398.758122 138.818523 
L 399.971117 137.915534 
L 400.827349 137.036092 
L 401.612228 135.890713 
L 402.325755 134.439738 
L 403.039281 132.499877 
L 403.82416 129.691037 
L 404.609039 126.007347 
L 405.393918 121.178844 
L 406.178797 114.82486 
L 406.963677 106.477018 
L 407.748556 95.606654 
L 408.533435 81.582096 
L 409.318314 63.795678 
L 410.174546 29.426054 
L 410.388604 12.203076 
L 410.459956 15.2613 
L 410.531309 13.359078 
L 410.593737 -1 
M 411.047875 -1 
L 411.10213 43.708045 
L 411.131936 -1 
" clip-path="url(#pb89c3edd3e)" style="fill: none; stroke: #1f77b4; stroke-width: 1.5; stroke-linecap: square"/>
   </g>
   <g id="line2d_22">
    <path d="M 87.089759 19.33613 
L 91.085507 19.053549 
L 93.297439 18.621882 
L 96.008839 17.808035 
L 97.36454 17.515686 
L 99.148356 17.393767 
L 101.717051 17.356233 
L 103.072752 17.542872 
L 108.780963 18.662106 
L 110.636132 18.674142 
L 114.275117 18.62603 
L 120.910913 18.440954 
L 123.693667 18.383886 
L 126.405067 18.279283 
L 129.687289 18.270055 
L 138.320959 18.186439 
L 140.961007 18.169963 
L 143.529703 18.169471 
L 146.027045 18.154412 
L 149.594678 18.188692 
L 151.877962 18.102782 
L 155.945063 17.927757 
L 158.085643 17.845551 
L 161.153806 17.793753 
L 164.22197 17.833545 
L 210.743896 17.586332 
L 212.313655 17.562242 
L 213.81206 17.603196 
L 216.309403 17.541764 
L 218.521335 17.548171 
L 236.216791 17.496442 
L 239.14225 17.541991 
L 248.132684 17.715927 
L 250.344616 17.784066 
L 263.473503 17.606171 
L 265.614082 17.586836 
L 268.182778 17.560012 
L 270.894178 17.530558 
L 273.962342 17.542594 
L 281.097607 17.451485 
L 283.309539 17.47326 
L 285.735529 17.445504 
L 288.161519 17.429916 
L 290.159393 17.428691 
L 298.150889 17.296178 
L 301.076348 17.261607 
L 303.430985 17.283537 
L 305.785623 17.239944 
L 308.282965 17.196309 
L 315.846346 17.080512 
L 333.185039 16.47024 
L 335.396971 16.418611 
L 338.037019 16.322045 
L 340.891125 16.16502 
L 343.531173 16.015504 
L 345.743105 15.87281 
L 348.02639 15.760047 
L 351.594022 15.564619 
L 364.009383 14.893169 
L 368.79001 14.675349 
L 371.786821 14.377404 
L 380.277786 13.603942 
L 385.700588 12.413659 
L 388.055225 11.794386 
L 390.195804 11.202235 
L 402.040344 7.173548 
L 403.324692 6.516868 
L 404.109571 5.866053 
L 404.751745 5.046678 
L 405.393918 3.836026 
L 405.96474 2.288559 
L 406.535561 0.118616 
L 406.770101 -1 
M 410.871731 -1 
L 410.942982 326.429187 
M 411.156112 326.429187 
L 411.178673 -1 
L 411.178673 -1 
" clip-path="url(#pb89c3edd3e)" style="fill: none; stroke: #ff7f0e; stroke-width: 1.5; stroke-linecap: square"/>
   </g>
   <g id="line2d_23">
    <path d="M 87.089759 261.343152 
L 92.298502 262.008912 
L 94.082318 262.230428 
L 100.932172 262.655061 
L 104.071689 262.526495 
L 106.497679 262.422006 
L 111.349659 262.0208 
L 113.133475 262.002768 
L 120.982266 262.102615 
L 123.265551 262.154289 
L 125.762893 262.207663 
L 128.260236 262.248923 
L 131.399753 262.26954 
L 133.611685 262.321094 
L 135.966322 262.31865 
L 138.60637 262.347727 
L 141.175065 262.333311 
L 143.601055 262.366994 
L 146.098398 262.352448 
L 148.667093 262.39393 
L 151.378494 262.400963 
L 153.733131 262.503729 
L 156.444532 262.549907 
L 164.22197 262.726111 
L 166.505255 262.683915 
L 169.359361 262.744168 
L 175.923804 262.725402 
L 178.4925 262.749195 
L 180.91849 262.74908 
L 183.415832 262.776857 
L 186.05588 262.777061 
L 188.981339 262.824111 
L 195.831193 262.830983 
L 198.399888 262.839087 
L 200.754526 262.828998 
L 203.03781 262.823744 
L 205.677858 262.840862 
L 207.961143 262.848311 
L 209.887665 262.902878 
L 217.807808 262.937409 
L 222.303025 262.941797 
L 235.931381 262.976056 
L 238.286018 262.99058 
L 240.997419 262.968206 
L 243.851525 262.966334 
L 247.062394 262.85121 
L 257.551233 262.857554 
L 261.118865 262.892021 
L 263.687561 262.933146 
L 265.899493 262.914894 
L 268.111425 262.941938 
L 270.68012 262.961838 
L 273.248815 262.986228 
L 275.817511 262.997065 
L 278.528911 263.03977 
L 281.097607 263.02436 
L 283.594949 263.067054 
L 286.30635 263.044766 
L 288.875045 263.106557 
L 295.867605 263.160567 
L 298.507653 263.220838 
L 301.076348 263.215846 
L 303.573691 263.268749 
L 306.427796 263.266902 
L 308.925139 263.357047 
L 311.208424 263.342489 
L 313.634414 263.429067 
L 316.417167 263.470126 
L 319.057215 263.62412 
L 324.622722 263.817999 
L 332.328807 263.985921 
L 336.324556 264.109996 
L 338.821898 264.261645 
L 341.604652 264.343699 
L 344.316052 264.542444 
L 351.950785 264.874305 
L 357.373587 265.183455 
L 361.083924 265.398527 
L 363.295856 265.533982 
L 365.864552 265.640776 
L 368.219189 265.791144 
L 370.502474 265.942959 
L 372.999816 266.128973 
L 376.139333 266.390271 
L 378.137207 266.63524 
L 384.344887 267.713229 
L 389.054162 268.914815 
L 393.692084 270.512149 
L 396.902953 272.087494 
L 398.115948 272.985242 
L 399.400296 274.213843 
L 400.470586 275.534825 
L 401.326817 276.953054 
L 402.111697 278.706287 
L 402.825223 280.821825 
L 403.53875 283.597274 
L 404.252276 287.249071 
L 404.965802 292.098887 
L 405.679329 298.573843 
L 406.392855 307.267898 
L 407.106382 318.956409 
L 407.471514 326.429187 
L 407.471514 326.429187 
" clip-path="url(#pb89c3edd3e)" style="fill: none; stroke: #2ca02c; stroke-width: 1.5; stroke-linecap: square"/>
   </g>
   <g id="patch_3">
    <path d="M 70.857031 273.312 
L 70.857031 7.2 
" style="fill: none; stroke: #000000; stroke-width: 0.8; stroke-linejoin: miter; stroke-linecap: square"/>
   </g>
   <g id="patch_4">
    <path d="M 427.977031 273.312 
L 427.977031 7.2 
" style="fill: none; stroke: #000000; stroke-width: 0.8; stroke-linejoin: miter; stroke-linecap: square"/>
   </g>
   <g id="patch_5">
    <path d="M 70.857031 273.312 
L 427.977031 273.312 
" style="fill: none; stroke: #000000; stroke-width: 0.8; stroke-linejoin: miter; stroke-linecap: square"/>
   </g>
   <g id="patch_6">
    <path d="M 70.857031 7.2 
L 427.977031 7.2 
" style="fill: none; stroke: #000000; stroke-width: 0.8; stroke-linejoin: miter; stroke-linecap: square"/>
   </g>
  </g>
 </g>
 <defs>
  <clipPath id="pb89c3edd3e">
   <rect x="70.857031" y="7.2" width="357.12" height="266.112"/>
  </clipPath>
 </defs>
</svg>
