<?xml version="1.0" encoding="utf-8" standalone="no"?>
<!DOCTYPE svg PUBLIC "-//W3C//DTD SVG 1.1//EN"
  "http://www.w3.org/Graphics/SVG/1.1/DTD/svg11.dtd">
<svg xmlns:xlink="http://www.w3.org/1999/xlink" width="459.031719pt" height="331.128016pt" viewBox="0 0 459.031719 331.128016" xmlns="http://www.w3.org/2000/svg" version="1.1">
 <defs>
  <style type="text/css">*{stroke-linejoin: round; stroke-linecap: butt}</style>
 </defs>
 <g id="figure_1">
  <g id="patch_1">
   <path d="M 0 331.128016 
L 459.031719 331.128016 
L 459.031719 0 
L 0 0 
L 0 331.128016 
z
" style="fill: none"/>
  </g>
  <g id="axes_1">
   <g id="patch_2">
    <path d="M 94.711719 279.010828 
L 451.831719 279.010828 
L 451.831719 12.898828 
L 94.711719 12.898828 
L 94.711719 279.010828 
z
" style="fill: none"/>
   </g>
   <g id="matplotlib.axis_1">
    <g id="xtick_1">
     <g id="line2d_1">
      <path d="M 126.642028 279.010828 
L 126.642028 12.898828 
" clip-path="url(#pf08283222a)" style="fill: none; stroke: #b0b0b0; stroke-width: 0.8; stroke-linecap: square"/>
     </g>
     <g id="line2d_2">
      <defs>
       <path id="md39032bed2" d="M 0 0 
L 0 3.5 
" style="stroke: #000000; stroke-width: 0.8"/>
      </defs>
      <g>
       <use xlink:href="#md39032bed2" x="126.642028" y="279.010828" style="stroke: #000000; stroke-width: 0.8"/>
      </g>
     </g>
     <g id="text_1">
      <!-- −3000 -->
      <g transform="translate(101.269763 297.408484)scale(0.15 -0.15)">
       <defs>
        <path id="DejaVuSans-2212" d="M 678 2272 
L 4684 2272 
L 4684 1741 
L 678 1741 
L 678 2272 
z
" transform="scale(0.015625)"/>
        <path id="DejaVuSans-33" d="M 2597 2516 
Q 3050 2419 3304 2112 
Q 3559 1806 3559 1356 
Q 3559 666 3084 287 
Q 2609 -91 1734 -91 
Q 1441 -91 1130 -33 
Q 819 25 488 141 
L 488 750 
Q 750 597 1062 519 
Q 1375 441 1716 441 
Q 2309 441 2620 675 
Q 2931 909 2931 1356 
Q 2931 1769 2642 2001 
Q 2353 2234 1838 2234 
L 1294 2234 
L 1294 2753 
L 1863 2753 
Q 2328 2753 2575 2939 
Q 2822 3125 2822 3475 
Q 2822 3834 2567 4026 
Q 2313 4219 1838 4219 
Q 1578 4219 1281 4162 
Q 984 4106 628 3988 
L 628 4550 
Q 988 4650 1302 4700 
Q 1616 4750 1894 4750 
Q 2613 4750 3031 4423 
Q 3450 4097 3450 3541 
Q 3450 3153 3228 2886 
Q 3006 2619 2597 2516 
z
" transform="scale(0.015625)"/>
        <path id="DejaVuSans-30" d="M 2034 4250 
Q 1547 4250 1301 3770 
Q 1056 3291 1056 2328 
Q 1056 1369 1301 889 
Q 1547 409 2034 409 
Q 2525 409 2770 889 
Q 3016 1369 3016 2328 
Q 3016 3291 2770 3770 
Q 2525 4250 2034 4250 
z
M 2034 4750 
Q 2819 4750 3233 4129 
Q 3647 3509 3647 2328 
Q 3647 1150 3233 529 
Q 2819 -91 2034 -91 
Q 1250 -91 836 529 
Q 422 1150 422 2328 
Q 422 3509 836 4129 
Q 1250 4750 2034 4750 
z
" transform="scale(0.015625)"/>
       </defs>
       <use xlink:href="#DejaVuSans-2212"/>
       <use xlink:href="#DejaVuSans-33" x="83.789062"/>
       <use xlink:href="#DejaVuSans-30" x="147.412109"/>
       <use xlink:href="#DejaVuSans-30" x="211.035156"/>
       <use xlink:href="#DejaVuSans-30" x="274.658203"/>
      </g>
     </g>
    </g>
    <g id="xtick_2">
     <g id="line2d_3">
      <path d="M 197.994676 279.010828 
L 197.994676 12.898828 
" clip-path="url(#pf08283222a)" style="fill: none; stroke: #b0b0b0; stroke-width: 0.8; stroke-linecap: square"/>
     </g>
     <g id="line2d_4">
      <g>
       <use xlink:href="#md39032bed2" x="197.994676" y="279.010828" style="stroke: #000000; stroke-width: 0.8"/>
      </g>
     </g>
     <g id="text_2">
      <!-- −2000 -->
      <g transform="translate(172.62241 297.408484)scale(0.15 -0.15)">
       <defs>
        <path id="DejaVuSans-32" d="M 1228 531 
L 3431 531 
L 3431 0 
L 469 0 
L 469 531 
Q 828 903 1448 1529 
Q 2069 2156 2228 2338 
Q 2531 2678 2651 2914 
Q 2772 3150 2772 3378 
Q 2772 3750 2511 3984 
Q 2250 4219 1831 4219 
Q 1534 4219 1204 4116 
Q 875 4013 500 3803 
L 500 4441 
Q 881 4594 1212 4672 
Q 1544 4750 1819 4750 
Q 2544 4750 2975 4387 
Q 3406 4025 3406 3419 
Q 3406 3131 3298 2873 
Q 3191 2616 2906 2266 
Q 2828 2175 2409 1742 
Q 1991 1309 1228 531 
z
" transform="scale(0.015625)"/>
       </defs>
       <use xlink:href="#DejaVuSans-2212"/>
       <use xlink:href="#DejaVuSans-32" x="83.789062"/>
       <use xlink:href="#DejaVuSans-30" x="147.412109"/>
       <use xlink:href="#DejaVuSans-30" x="211.035156"/>
       <use xlink:href="#DejaVuSans-30" x="274.658203"/>
      </g>
     </g>
    </g>
    <g id="xtick_3">
     <g id="line2d_5">
      <path d="M 269.347323 279.010828 
L 269.347323 12.898828 
" clip-path="url(#pf08283222a)" style="fill: none; stroke: #b0b0b0; stroke-width: 0.8; stroke-linecap: square"/>
     </g>
     <g id="line2d_6">
      <g>
       <use xlink:href="#md39032bed2" x="269.347323" y="279.010828" style="stroke: #000000; stroke-width: 0.8"/>
      </g>
     </g>
     <g id="text_3">
      <!-- −1000 -->
      <g transform="translate(243.975058 297.408484)scale(0.15 -0.15)">
       <defs>
        <path id="DejaVuSans-31" d="M 794 531 
L 1825 531 
L 1825 4091 
L 703 3866 
L 703 4441 
L 1819 4666 
L 2450 4666 
L 2450 531 
L 3481 531 
L 3481 0 
L 794 0 
L 794 531 
z
" transform="scale(0.015625)"/>
       </defs>
       <use xlink:href="#DejaVuSans-2212"/>
       <use xlink:href="#DejaVuSans-31" x="83.789062"/>
       <use xlink:href="#DejaVuSans-30" x="147.412109"/>
       <use xlink:href="#DejaVuSans-30" x="211.035156"/>
       <use xlink:href="#DejaVuSans-30" x="274.658203"/>
      </g>
     </g>
    </g>
    <g id="xtick_4">
     <g id="line2d_7">
      <path d="M 340.69997 279.010828 
L 340.69997 12.898828 
" clip-path="url(#pf08283222a)" style="fill: none; stroke: #b0b0b0; stroke-width: 0.8; stroke-linecap: square"/>
     </g>
     <g id="line2d_8">
      <g>
       <use xlink:href="#md39032bed2" x="340.69997" y="279.010828" style="stroke: #000000; stroke-width: 0.8"/>
      </g>
     </g>
     <g id="text_4">
      <!-- 0 -->
      <g transform="translate(335.928095 297.408484)scale(0.15 -0.15)">
       <use xlink:href="#DejaVuSans-30"/>
      </g>
     </g>
    </g>
    <g id="xtick_5">
     <g id="line2d_9">
      <path d="M 412.052618 279.010828 
L 412.052618 12.898828 
" clip-path="url(#pf08283222a)" style="fill: none; stroke: #b0b0b0; stroke-width: 0.8; stroke-linecap: square"/>
     </g>
     <g id="line2d_10">
      <g>
       <use xlink:href="#md39032bed2" x="412.052618" y="279.010828" style="stroke: #000000; stroke-width: 0.8"/>
      </g>
     </g>
     <g id="text_5">
      <!-- 1000 -->
      <g transform="translate(392.965118 297.408484)scale(0.15 -0.15)">
       <use xlink:href="#DejaVuSans-31"/>
       <use xlink:href="#DejaVuSans-30" x="63.623047"/>
       <use xlink:href="#DejaVuSans-30" x="127.246094"/>
       <use xlink:href="#DejaVuSans-30" x="190.869141"/>
      </g>
     </g>
    </g>
    <g id="text_6">
     <!-- X ($\mu m$) -->
     <g transform="translate(239.271719 319.728016)scale(0.2 -0.2)">
      <defs>
       <path id="DejaVuSans-58" d="M 403 4666 
L 1081 4666 
L 2241 2931 
L 3406 4666 
L 4084 4666 
L 2584 2425 
L 4184 0 
L 3506 0 
L 2194 1984 
L 872 0 
L 191 0 
L 1856 2491 
L 403 4666 
z
" transform="scale(0.015625)"/>
       <path id="DejaVuSans-20" transform="scale(0.015625)"/>
       <path id="DejaVuSans-28" d="M 1984 4856 
Q 1566 4138 1362 3434 
Q 1159 2731 1159 2009 
Q 1159 1288 1364 580 
Q 1569 -128 1984 -844 
L 1484 -844 
Q 1016 -109 783 600 
Q 550 1309 550 2009 
Q 550 2706 781 3412 
Q 1013 4119 1484 4856 
L 1984 4856 
z
" transform="scale(0.015625)"/>
       <path id="DejaVuSans-Oblique-3bc" d="M -84 -1331 
L 856 3500 
L 1434 3500 
L 1009 1322 
Q 997 1256 987 1175 
Q 978 1094 978 1013 
Q 978 722 1161 565 
Q 1344 409 1684 409 
Q 2147 409 2431 671 
Q 2716 934 2816 1459 
L 3213 3500 
L 3788 3500 
L 3266 809 
Q 3253 750 3248 706 
Q 3244 663 3244 628 
Q 3244 531 3283 486 
Q 3322 441 3406 441 
Q 3438 441 3492 456 
Q 3547 472 3647 513 
L 3559 50 
Q 3422 -19 3297 -55 
Q 3172 -91 3053 -91 
Q 2847 -91 2730 40 
Q 2613 172 2613 403 
Q 2438 153 2195 31 
Q 1953 -91 1625 -91 
Q 1334 -91 1117 43 
Q 900 178 831 397 
L 494 -1331 
L -84 -1331 
z
" transform="scale(0.015625)"/>
       <path id="DejaVuSans-Oblique-6d" d="M 5747 2113 
L 5338 0 
L 4763 0 
L 5166 2094 
Q 5191 2228 5203 2325 
Q 5216 2422 5216 2491 
Q 5216 2772 5059 2928 
Q 4903 3084 4622 3084 
Q 4203 3084 3875 2770 
Q 3547 2456 3450 1953 
L 3066 0 
L 2491 0 
L 2900 2094 
Q 2925 2209 2937 2307 
Q 2950 2406 2950 2484 
Q 2950 2769 2794 2926 
Q 2638 3084 2363 3084 
Q 1938 3084 1609 2770 
Q 1281 2456 1184 1953 
L 800 0 
L 225 0 
L 909 3500 
L 1484 3500 
L 1375 2956 
Q 1609 3263 1923 3423 
Q 2238 3584 2597 3584 
Q 2978 3584 3223 3384 
Q 3469 3184 3519 2828 
Q 3781 3197 4126 3390 
Q 4472 3584 4856 3584 
Q 5306 3584 5551 3325 
Q 5797 3066 5797 2591 
Q 5797 2488 5784 2364 
Q 5772 2241 5747 2113 
z
" transform="scale(0.015625)"/>
       <path id="DejaVuSans-29" d="M 513 4856 
L 1013 4856 
Q 1481 4119 1714 3412 
Q 1947 2706 1947 2009 
Q 1947 1309 1714 600 
Q 1481 -109 1013 -844 
L 513 -844 
Q 928 -128 1133 580 
Q 1338 1288 1338 2009 
Q 1338 2731 1133 3434 
Q 928 4138 513 4856 
z
" transform="scale(0.015625)"/>
      </defs>
      <use xlink:href="#DejaVuSans-58" transform="translate(0 0.125)"/>
      <use xlink:href="#DejaVuSans-20" transform="translate(68.505859 0.125)"/>
      <use xlink:href="#DejaVuSans-28" transform="translate(100.292969 0.125)"/>
      <use xlink:href="#DejaVuSans-Oblique-3bc" transform="translate(139.306641 0.125)"/>
      <use xlink:href="#DejaVuSans-Oblique-6d" transform="translate(202.929688 0.125)"/>
      <use xlink:href="#DejaVuSans-29" transform="translate(300.341797 0.125)"/>
     </g>
    </g>
   </g>
   <g id="matplotlib.axis_2">
    <g id="ytick_1">
     <g id="line2d_11">
      <path d="M 94.711719 279.010828 
L 451.831719 279.010828 
" clip-path="url(#pf08283222a)" style="fill: none; stroke: #b0b0b0; stroke-width: 0.8; stroke-linecap: square"/>
     </g>
     <g id="line2d_12">
      <defs>
       <path id="m6f3f5b6aff" d="M 0 0 
L -3.5 0 
" style="stroke: #000000; stroke-width: 0.8"/>
      </defs>
      <g>
       <use xlink:href="#m6f3f5b6aff" x="94.711719" y="279.010828" style="stroke: #000000; stroke-width: 0.8"/>
      </g>
     </g>
     <g id="text_7">
      <!-- −0.100 -->
      <g transform="translate(32.2 284.709656)scale(0.15 -0.15)">
       <defs>
        <path id="DejaVuSans-2e" d="M 684 794 
L 1344 794 
L 1344 0 
L 684 0 
L 684 794 
z
" transform="scale(0.015625)"/>
       </defs>
       <use xlink:href="#DejaVuSans-2212"/>
       <use xlink:href="#DejaVuSans-30" x="83.789062"/>
       <use xlink:href="#DejaVuSans-2e" x="147.412109"/>
       <use xlink:href="#DejaVuSans-31" x="179.199219"/>
       <use xlink:href="#DejaVuSans-30" x="242.822266"/>
       <use xlink:href="#DejaVuSans-30" x="306.445312"/>
      </g>
     </g>
    </g>
    <g id="ytick_2">
     <g id="line2d_13">
      <path d="M 94.711719 245.746828 
L 451.831719 245.746828 
" clip-path="url(#pf08283222a)" style="fill: none; stroke: #b0b0b0; stroke-width: 0.8; stroke-linecap: square"/>
     </g>
     <g id="line2d_14">
      <g>
       <use xlink:href="#m6f3f5b6aff" x="94.711719" y="245.746828" style="stroke: #000000; stroke-width: 0.8"/>
      </g>
     </g>
     <g id="text_8">
      <!-- −0.075 -->
      <g transform="translate(32.2 251.445656)scale(0.15 -0.15)">
       <defs>
        <path id="DejaVuSans-37" d="M 525 4666 
L 3525 4666 
L 3525 4397 
L 1831 0 
L 1172 0 
L 2766 4134 
L 525 4134 
L 525 4666 
z
" transform="scale(0.015625)"/>
        <path id="DejaVuSans-35" d="M 691 4666 
L 3169 4666 
L 3169 4134 
L 1269 4134 
L 1269 2991 
Q 1406 3038 1543 3061 
Q 1681 3084 1819 3084 
Q 2600 3084 3056 2656 
Q 3513 2228 3513 1497 
Q 3513 744 3044 326 
Q 2575 -91 1722 -91 
Q 1428 -91 1123 -41 
Q 819 9 494 109 
L 494 744 
Q 775 591 1075 516 
Q 1375 441 1709 441 
Q 2250 441 2565 725 
Q 2881 1009 2881 1497 
Q 2881 1984 2565 2268 
Q 2250 2553 1709 2553 
Q 1456 2553 1204 2497 
Q 953 2441 691 2322 
L 691 4666 
z
" transform="scale(0.015625)"/>
       </defs>
       <use xlink:href="#DejaVuSans-2212"/>
       <use xlink:href="#DejaVuSans-30" x="83.789062"/>
       <use xlink:href="#DejaVuSans-2e" x="147.412109"/>
       <use xlink:href="#DejaVuSans-30" x="179.199219"/>
       <use xlink:href="#DejaVuSans-37" x="242.822266"/>
       <use xlink:href="#DejaVuSans-35" x="306.445312"/>
      </g>
     </g>
    </g>
    <g id="ytick_3">
     <g id="line2d_15">
      <path d="M 94.711719 212.482828 
L 451.831719 212.482828 
" clip-path="url(#pf08283222a)" style="fill: none; stroke: #b0b0b0; stroke-width: 0.8; stroke-linecap: square"/>
     </g>
     <g id="line2d_16">
      <g>
       <use xlink:href="#m6f3f5b6aff" x="94.711719" y="212.482828" style="stroke: #000000; stroke-width: 0.8"/>
      </g>
     </g>
     <g id="text_9">
      <!-- −0.050 -->
      <g transform="translate(32.2 218.181656)scale(0.15 -0.15)">
       <use xlink:href="#DejaVuSans-2212"/>
       <use xlink:href="#DejaVuSans-30" x="83.789062"/>
       <use xlink:href="#DejaVuSans-2e" x="147.412109"/>
       <use xlink:href="#DejaVuSans-30" x="179.199219"/>
       <use xlink:href="#DejaVuSans-35" x="242.822266"/>
       <use xlink:href="#DejaVuSans-30" x="306.445312"/>
      </g>
     </g>
    </g>
    <g id="ytick_4">
     <g id="line2d_17">
      <path d="M 94.711719 179.218828 
L 451.831719 179.218828 
" clip-path="url(#pf08283222a)" style="fill: none; stroke: #b0b0b0; stroke-width: 0.8; stroke-linecap: square"/>
     </g>
     <g id="line2d_18">
      <g>
       <use xlink:href="#m6f3f5b6aff" x="94.711719" y="179.218828" style="stroke: #000000; stroke-width: 0.8"/>
      </g>
     </g>
     <g id="text_10">
      <!-- −0.025 -->
      <g transform="translate(32.2 184.917656)scale(0.15 -0.15)">
       <use xlink:href="#DejaVuSans-2212"/>
       <use xlink:href="#DejaVuSans-30" x="83.789062"/>
       <use xlink:href="#DejaVuSans-2e" x="147.412109"/>
       <use xlink:href="#DejaVuSans-30" x="179.199219"/>
       <use xlink:href="#DejaVuSans-32" x="242.822266"/>
       <use xlink:href="#DejaVuSans-35" x="306.445312"/>
      </g>
     </g>
    </g>
    <g id="ytick_5">
     <g id="line2d_19">
      <path d="M 94.711719 145.954828 
L 451.831719 145.954828 
" clip-path="url(#pf08283222a)" style="fill: none; stroke: #b0b0b0; stroke-width: 0.8; stroke-linecap: square"/>
     </g>
     <g id="line2d_20">
      <g>
       <use xlink:href="#m6f3f5b6aff" x="94.711719" y="145.954828" style="stroke: #000000; stroke-width: 0.8"/>
      </g>
     </g>
     <g id="text_11">
      <!-- 0.000 -->
      <g transform="translate(44.769531 151.653656)scale(0.15 -0.15)">
       <use xlink:href="#DejaVuSans-30"/>
       <use xlink:href="#DejaVuSans-2e" x="63.623047"/>
       <use xlink:href="#DejaVuSans-30" x="95.410156"/>
       <use xlink:href="#DejaVuSans-30" x="159.033203"/>
       <use xlink:href="#DejaVuSans-30" x="222.65625"/>
      </g>
     </g>
    </g>
    <g id="ytick_6">
     <g id="line2d_21">
      <path d="M 94.711719 112.690828 
L 451.831719 112.690828 
" clip-path="url(#pf08283222a)" style="fill: none; stroke: #b0b0b0; stroke-width: 0.8; stroke-linecap: square"/>
     </g>
     <g id="line2d_22">
      <g>
       <use xlink:href="#m6f3f5b6aff" x="94.711719" y="112.690828" style="stroke: #000000; stroke-width: 0.8"/>
      </g>
     </g>
     <g id="text_12">
      <!-- 0.025 -->
      <g transform="translate(44.769531 118.389656)scale(0.15 -0.15)">
       <use xlink:href="#DejaVuSans-30"/>
       <use xlink:href="#DejaVuSans-2e" x="63.623047"/>
       <use xlink:href="#DejaVuSans-30" x="95.410156"/>
       <use xlink:href="#DejaVuSans-32" x="159.033203"/>
       <use xlink:href="#DejaVuSans-35" x="222.65625"/>
      </g>
     </g>
    </g>
    <g id="ytick_7">
     <g id="line2d_23">
      <path d="M 94.711719 79.426828 
L 451.831719 79.426828 
" clip-path="url(#pf08283222a)" style="fill: none; stroke: #b0b0b0; stroke-width: 0.8; stroke-linecap: square"/>
     </g>
     <g id="line2d_24">
      <g>
       <use xlink:href="#m6f3f5b6aff" x="94.711719" y="79.426828" style="stroke: #000000; stroke-width: 0.8"/>
      </g>
     </g>
     <g id="text_13">
      <!-- 0.050 -->
      <g transform="translate(44.769531 85.125656)scale(0.15 -0.15)">
       <use xlink:href="#DejaVuSans-30"/>
       <use xlink:href="#DejaVuSans-2e" x="63.623047"/>
       <use xlink:href="#DejaVuSans-30" x="95.410156"/>
       <use xlink:href="#DejaVuSans-35" x="159.033203"/>
       <use xlink:href="#DejaVuSans-30" x="222.65625"/>
      </g>
     </g>
    </g>
    <g id="ytick_8">
     <g id="line2d_25">
      <path d="M 94.711719 46.162828 
L 451.831719 46.162828 
" clip-path="url(#pf08283222a)" style="fill: none; stroke: #b0b0b0; stroke-width: 0.8; stroke-linecap: square"/>
     </g>
     <g id="line2d_26">
      <g>
       <use xlink:href="#m6f3f5b6aff" x="94.711719" y="46.162828" style="stroke: #000000; stroke-width: 0.8"/>
      </g>
     </g>
     <g id="text_14">
      <!-- 0.075 -->
      <g transform="translate(44.769531 51.861656)scale(0.15 -0.15)">
       <use xlink:href="#DejaVuSans-30"/>
       <use xlink:href="#DejaVuSans-2e" x="63.623047"/>
       <use xlink:href="#DejaVuSans-30" x="95.410156"/>
       <use xlink:href="#DejaVuSans-37" x="159.033203"/>
       <use xlink:href="#DejaVuSans-35" x="222.65625"/>
      </g>
     </g>
    </g>
    <g id="ytick_9">
     <g id="line2d_27">
      <path d="M 94.711719 12.898828 
L 451.831719 12.898828 
" clip-path="url(#pf08283222a)" style="fill: none; stroke: #b0b0b0; stroke-width: 0.8; stroke-linecap: square"/>
     </g>
     <g id="line2d_28">
      <g>
       <use xlink:href="#m6f3f5b6aff" x="94.711719" y="12.898828" style="stroke: #000000; stroke-width: 0.8"/>
      </g>
     </g>
     <g id="text_15">
      <!-- 0.100 -->
      <g transform="translate(44.769531 18.597656)scale(0.15 -0.15)">
       <use xlink:href="#DejaVuSans-30"/>
       <use xlink:href="#DejaVuSans-2e" x="63.623047"/>
       <use xlink:href="#DejaVuSans-31" x="95.410156"/>
       <use xlink:href="#DejaVuSans-30" x="159.033203"/>
       <use xlink:href="#DejaVuSans-30" x="222.65625"/>
      </g>
     </g>
    </g>
    <g id="text_16">
     <!-- Violation ($mm^{-2}$) -->
     <g transform="translate(24.040625 231.354828)rotate(-90)scale(0.2 -0.2)">
      <defs>
       <path id="DejaVuSans-56" d="M 1831 0 
L 50 4666 
L 709 4666 
L 2188 738 
L 3669 4666 
L 4325 4666 
L 2547 0 
L 1831 0 
z
" transform="scale(0.015625)"/>
       <path id="DejaVuSans-69" d="M 603 3500 
L 1178 3500 
L 1178 0 
L 603 0 
L 603 3500 
z
M 603 4863 
L 1178 4863 
L 1178 4134 
L 603 4134 
L 603 4863 
z
" transform="scale(0.015625)"/>
       <path id="DejaVuSans-6f" d="M 1959 3097 
Q 1497 3097 1228 2736 
Q 959 2375 959 1747 
Q 959 1119 1226 758 
Q 1494 397 1959 397 
Q 2419 397 2687 759 
Q 2956 1122 2956 1747 
Q 2956 2369 2687 2733 
Q 2419 3097 1959 3097 
z
M 1959 3584 
Q 2709 3584 3137 3096 
Q 3566 2609 3566 1747 
Q 3566 888 3137 398 
Q 2709 -91 1959 -91 
Q 1206 -91 779 398 
Q 353 888 353 1747 
Q 353 2609 779 3096 
Q 1206 3584 1959 3584 
z
" transform="scale(0.015625)"/>
       <path id="DejaVuSans-6c" d="M 603 4863 
L 1178 4863 
L 1178 0 
L 603 0 
L 603 4863 
z
" transform="scale(0.015625)"/>
       <path id="DejaVuSans-61" d="M 2194 1759 
Q 1497 1759 1228 1600 
Q 959 1441 959 1056 
Q 959 750 1161 570 
Q 1363 391 1709 391 
Q 2188 391 2477 730 
Q 2766 1069 2766 1631 
L 2766 1759 
L 2194 1759 
z
M 3341 1997 
L 3341 0 
L 2766 0 
L 2766 531 
Q 2569 213 2275 61 
Q 1981 -91 1556 -91 
Q 1019 -91 701 211 
Q 384 513 384 1019 
Q 384 1609 779 1909 
Q 1175 2209 1959 2209 
L 2766 2209 
L 2766 2266 
Q 2766 2663 2505 2880 
Q 2244 3097 1772 3097 
Q 1472 3097 1187 3025 
Q 903 2953 641 2809 
L 641 3341 
Q 956 3463 1253 3523 
Q 1550 3584 1831 3584 
Q 2591 3584 2966 3190 
Q 3341 2797 3341 1997 
z
" transform="scale(0.015625)"/>
       <path id="DejaVuSans-74" d="M 1172 4494 
L 1172 3500 
L 2356 3500 
L 2356 3053 
L 1172 3053 
L 1172 1153 
Q 1172 725 1289 603 
Q 1406 481 1766 481 
L 2356 481 
L 2356 0 
L 1766 0 
Q 1100 0 847 248 
Q 594 497 594 1153 
L 594 3053 
L 172 3053 
L 172 3500 
L 594 3500 
L 594 4494 
L 1172 4494 
z
" transform="scale(0.015625)"/>
       <path id="DejaVuSans-6e" d="M 3513 2113 
L 3513 0 
L 2938 0 
L 2938 2094 
Q 2938 2591 2744 2837 
Q 2550 3084 2163 3084 
Q 1697 3084 1428 2787 
Q 1159 2491 1159 1978 
L 1159 0 
L 581 0 
L 581 3500 
L 1159 3500 
L 1159 2956 
Q 1366 3272 1645 3428 
Q 1925 3584 2291 3584 
Q 2894 3584 3203 3211 
Q 3513 2838 3513 2113 
z
" transform="scale(0.015625)"/>
      </defs>
      <use xlink:href="#DejaVuSans-56" transform="translate(0 0.765625)"/>
      <use xlink:href="#DejaVuSans-69" transform="translate(68.408203 0.765625)"/>
      <use xlink:href="#DejaVuSans-6f" transform="translate(96.191406 0.765625)"/>
      <use xlink:href="#DejaVuSans-6c" transform="translate(157.373047 0.765625)"/>
      <use xlink:href="#DejaVuSans-61" transform="translate(185.15625 0.765625)"/>
      <use xlink:href="#DejaVuSans-74" transform="translate(246.435547 0.765625)"/>
      <use xlink:href="#DejaVuSans-69" transform="translate(285.644531 0.765625)"/>
      <use xlink:href="#DejaVuSans-6f" transform="translate(313.427734 0.765625)"/>
      <use xlink:href="#DejaVuSans-6e" transform="translate(374.609375 0.765625)"/>
      <use xlink:href="#DejaVuSans-20" transform="translate(437.988281 0.765625)"/>
      <use xlink:href="#DejaVuSans-28" transform="translate(469.775391 0.765625)"/>
      <use xlink:href="#DejaVuSans-Oblique-6d" transform="translate(508.789062 0.765625)"/>
      <use xlink:href="#DejaVuSans-Oblique-6d" transform="translate(606.201172 0.765625)"/>
      <use xlink:href="#DejaVuSans-2212" transform="translate(708.263177 39.046875)scale(0.7)"/>
      <use xlink:href="#DejaVuSans-32" transform="translate(766.915521 39.046875)scale(0.7)"/>
      <use xlink:href="#DejaVuSans-29" transform="translate(814.186029 0.765625)"/>
     </g>
    </g>
   </g>
   <g id="line2d_29">
    <path d="M 110.944446 164.484526 
L 111.158504 167.458295 
L 111.301209 167.099048 
L 111.515267 166.272773 
L 111.58662 166.31333 
L 111.800678 167.745107 
L 112.086088 164.478242 
L 112.157441 164.619377 
L 112.442852 167.760883 
L 112.514204 167.624972 
L 112.585557 167.108222 
L 112.65691 167.118199 
L 112.728262 167.240638 
L 113.013673 165.049596 
L 113.299083 166.182461 
L 113.441789 166.996362 
L 113.655847 166.409763 
L 113.869905 168.15664 
L 113.941257 167.991745 
L 114.440726 164.345974 
L 114.512078 164.538184 
L 114.868842 166.908165 
L 115.154252 166.070247 
L 115.296958 166.457225 
L 115.653721 165.070699 
L 115.867779 164.493426 
L 116.295895 166.254553 
L 116.367247 165.754706 
L 116.4386 165.788761 
L 116.652658 165.937328 
L 117.152126 163.493453 
L 117.223479 163.608992 
L 117.294832 163.862391 
L 117.651595 167.295742 
L 117.722948 167.133049 
L 117.7943 166.933347 
L 118.008358 165.777251 
L 118.079711 165.800196 
L 118.507827 162.157059 
L 118.721885 163.028298 
L 119.221353 167.203515 
L 119.292706 167.166776 
L 119.435411 166.440449 
L 119.720822 164.031252 
L 120.006232 163.685513 
L 120.148938 163.787944 
L 120.362995 164.193387 
L 120.719759 163.523535 
L 121.005169 162.335039 
L 121.076522 162.218817 
L 121.219227 163.089728 
L 121.433285 164.176754 
L 121.647343 164.582915 
L 121.861401 165.434469 
L 121.932754 165.715946 
L 122.146812 165.004178 
L 122.36087 163.242661 
L 122.432222 163.299011 
L 122.64628 164.400682 
L 122.717633 164.338772 
L 122.860338 164.114096 
L 123.074396 163.178158 
L 123.288454 164.554993 
L 123.573865 164.568624 
L 123.859275 163.635787 
L 124.358744 165.062582 
L 124.644154 164.574955 
L 124.715507 164.627658 
L 124.78686 164.616789 
L 124.858212 164.771298 
L 125.07227 165.787846 
L 125.143623 165.714341 
L 125.357681 164.456888 
L 125.571739 162.868728 
L 125.714444 163.571901 
L 125.999855 165.481751 
L 126.213913 165.101258 
L 126.285265 165.193299 
L 126.499323 165.861074 
L 126.642028 165.625674 
L 126.927439 164.57655 
L 127.141497 164.428201 
L 127.284202 164.561706 
L 127.426908 164.845039 
L 127.49826 164.828426 
L 128.140434 167.828538 
L 128.354492 166.531445 
L 128.497197 165.381338 
L 128.56855 165.447037 
L 128.711255 166.167862 
L 128.996666 167.390451 
L 129.282076 167.998145 
L 129.424782 168.397614 
L 129.496134 168.335101 
L 129.63884 167.314556 
L 129.852898 165.150811 
L 129.92425 165.148903 
L 130.281013 167.656705 
L 130.352366 167.478779 
L 130.566424 166.996247 
L 130.780482 167.386485 
L 130.923187 167.491459 
L 131.065893 166.770123 
L 131.279951 165.82207 
L 131.422656 166.546874 
L 131.636714 167.640398 
L 131.708066 167.613406 
L 132.06483 166.494659 
L 132.207535 166.591096 
L 132.492946 167.339548 
L 132.778356 164.838725 
L 132.849709 165.10763 
L 133.206472 169.459774 
L 133.277825 169.295291 
L 133.705941 167.034861 
L 133.848646 167.247154 
L 133.919998 167.487256 
L 133.991351 167.387266 
L 134.276762 167.169682 
L 134.49082 167.487433 
L 134.704878 167.336828 
L 134.847583 167.772818 
L 134.990288 168.345596 
L 135.061641 168.306959 
L 135.204346 167.312241 
L 135.418404 165.987398 
L 135.561109 166.737739 
L 135.775167 167.700255 
L 135.917873 167.504634 
L 136.203283 167.041988 
L 136.274636 167.070013 
L 136.560046 167.611457 
L 136.631399 167.566374 
L 136.845457 166.863781 
L 137.344926 168.187552 
L 137.558983 168.314575 
L 137.701689 167.831735 
L 137.915747 166.819398 
L 138.201157 167.117849 
L 138.343863 167.021189 
L 138.415215 167.014619 
L 138.771978 167.972673 
L 138.843331 167.869712 
L 139.057389 167.63351 
L 139.3428 168.052676 
L 139.699563 167.241187 
L 139.770916 167.32377 
L 140.056326 169.010588 
L 140.484442 166.891493 
L 140.555795 166.872804 
L 140.6985 167.180551 
L 140.769853 167.134493 
L 140.912558 167.56971 
L 141.055263 168.305817 
L 141.126616 168.271118 
L 141.269321 168.499356 
L 141.340674 168.687183 
L 141.412026 168.651251 
L 141.626084 167.75925 
L 141.840142 167.017751 
L 141.982848 167.539179 
L 142.125553 168.159051 
L 142.268258 167.752051 
L 142.482316 168.808115 
L 142.625021 169.582834 
L 142.696374 169.499321 
L 143.053137 166.514599 
L 143.481253 168.67473 
L 143.695311 168.379143 
L 143.909369 168.37155 
L 144.052074 168.226496 
L 144.266132 167.819146 
L 144.337485 167.925704 
L 144.408838 167.840653 
L 144.551543 167.86223 
L 145.051011 169.169425 
L 145.193717 169.140388 
L 145.407775 168.379122 
L 145.55048 167.936878 
L 145.693185 168.351514 
L 145.978596 169.341323 
L 146.406712 168.121791 
L 146.763475 169.520287 
L 147.191591 168.609898 
L 147.619707 169.493777 
L 147.691059 169.445654 
L 147.833765 168.899478 
L 148.119175 167.225835 
L 148.190528 167.289634 
L 148.404586 168.141506 
L 148.475939 167.986144 
L 148.689996 168.091078 
L 148.832702 168.572457 
L 148.904054 168.534989 
L 148.975407 168.579698 
L 149.04676 168.45029 
L 149.33217 166.671991 
L 149.403523 166.720252 
L 149.474876 166.65168 
L 149.546228 166.848303 
L 149.617581 166.80259 
L 149.831639 165.958087 
L 149.974344 165.734005 
L 150.188402 166.224607 
L 150.259755 166.115252 
L 150.473813 165.268328 
L 150.545165 165.53029 
L 150.687871 165.856493 
L 150.973281 165.257743 
L 151.115986 165.104154 
L 151.330044 165.786385 
L 151.47275 165.668106 
L 151.75816 164.920268 
L 151.900866 165.531724 
L 152.186276 167.245599 
L 152.257629 167.226874 
L 152.899803 165.020957 
L 152.971155 165.084359 
L 153.327919 165.939309 
L 153.89874 164.504666 
L 154.18415 164.690215 
L 154.255503 164.574114 
L 154.326856 164.660817 
L 154.469561 164.676631 
L 154.683619 165.865006 
L 155.040382 167.809551 
L 155.183087 167.303237 
L 155.468498 165.750511 
L 155.539851 165.783271 
L 156.039319 167.851652 
L 156.182024 167.938682 
L 156.467435 167.420638 
L 156.752846 166.7887 
L 156.895551 166.734023 
L 157.038256 166.611926 
L 157.323667 167.092082 
L 157.823135 169.225563 
L 157.894488 168.970924 
L 158.179899 167.187962 
L 158.322604 167.023155 
L 158.393957 167.216562 
L 158.465309 167.033718 
L 158.893425 168.750078 
L 159.107483 168.531889 
L 159.606952 166.370644 
L 159.678304 166.50133 
L 160.10642 167.746746 
L 160.320478 167.566056 
L 160.605889 168.033575 
L 160.748594 168.057867 
L 161.105357 167.12994 
L 161.248062 167.174488 
L 161.390768 167.387566 
L 161.604826 167.901456 
L 161.890236 168.204032 
L 161.961589 168.077995 
L 162.389705 166.113226 
L 162.603763 166.88244 
L 162.817821 167.530687 
L 162.889173 167.535284 
L 163.245937 166.911285 
L 163.459994 167.18465 
L 163.6027 167.197061 
L 163.959463 166.59466 
L 164.601637 167.8886 
L 164.744342 167.86338 
L 164.887047 167.548657 
L 165.243811 166.144867 
L 165.315163 166.137534 
L 165.743279 167.297182 
L 165.885984 167.326664 
L 166.100042 166.876056 
L 166.385453 166.24804 
L 166.456806 166.292091 
L 166.670864 166.726263 
L 167.027627 167.670681 
L 167.241685 167.508054 
L 167.527095 167.586864 
L 167.741153 167.05878 
L 167.955211 166.742074 
L 168.026564 166.739446 
L 168.240622 167.415467 
L 168.526032 168.257531 
L 168.597385 168.159145 
L 168.811443 166.895658 
L 169.025501 165.379365 
L 169.096854 165.405919 
L 169.239559 165.956397 
L 169.524969 167.415831 
L 169.881733 168.481638 
L 169.953085 168.476933 
L 170.167143 167.482863 
L 170.309849 166.979934 
L 170.452554 167.103419 
L 170.666612 167.341229 
L 170.737965 167.278042 
L 170.88067 166.973904 
L 171.237433 167.966472 
L 171.308786 167.923934 
L 171.522844 167.250912 
L 171.736902 166.828575 
L 172.022312 166.580105 
L 172.093665 166.604695 
L 172.23637 167.045196 
L 172.521781 168.229577 
L 172.664486 167.954697 
L 172.878544 167.223117 
L 172.949897 167.314926 
L 173.235307 168.086399 
L 173.30666 167.961643 
L 173.59207 167.127463 
L 173.663423 167.206585 
L 173.948834 168.037595 
L 174.091539 167.659829 
L 174.234244 167.298028 
L 174.305597 167.306343 
L 174.448302 167.76465 
L 174.519655 167.979705 
L 174.591007 167.926381 
L 174.876418 167.374521 
L 174.947771 167.452971 
L 175.233181 168.19079 
L 176.089413 166.518727 
L 176.232118 167.036257 
L 176.517529 167.839237 
L 176.660234 167.859937 
L 176.80294 167.441564 
L 177.231055 165.3267 
L 177.373761 165.674775 
L 177.659171 166.776696 
L 177.801877 167.06235 
L 178.015935 167.127074 
L 178.229992 167.646419 
L 178.44405 167.588516 
L 178.658108 167.409865 
L 178.800814 167.838483 
L 179.086224 168.843845 
L 179.157577 168.909924 
L 179.51434 168.242056 
L 179.728398 167.618945 
L 179.942456 166.92976 
L 180.085161 166.977689 
L 180.87004 168.905142 
L 181.012746 168.251411 
L 181.369509 166.407473 
L 181.583567 165.821522 
L 181.65492 165.798821 
L 182.011683 167.659935 
L 182.083035 167.574049 
L 182.511151 166.970003 
L 182.725209 167.329034 
L 182.796562 167.47316 
L 182.867915 167.419624 
L 183.081972 166.878769 
L 183.153325 166.945593 
L 183.510088 168.965754 
L 183.581441 168.776947 
L 184.009557 167.157332 
L 184.152262 167.242667 
L 184.580378 168.548808 
L 184.651731 168.482079 
L 185.079847 168.184886 
L 185.151199 168.338056 
L 185.293905 168.411276 
L 185.43661 168.129711 
L 185.72202 167.028007 
L 186.078784 168.188324 
L 186.150136 168.18854 
L 186.364194 167.993806 
L 186.435547 167.962832 
L 186.79231 166.355615 
L 187.006368 166.485215 
L 187.149073 166.633805 
L 187.220426 166.671444 
L 187.363131 167.292487 
L 187.8626 168.780944 
L 188.005305 168.365148 
L 188.290716 166.953472 
L 188.647479 168.337314 
L 188.718832 168.388022 
L 188.861537 168.333556 
L 189.2183 168.734205 
L 189.432358 168.626139 
L 189.860474 167.86144 
L 190.217237 168.50636 
L 190.431295 169.064634 
L 190.574 168.522264 
L 190.859411 167.135324 
L 191.144822 167.719643 
L 191.35888 167.495926 
L 191.430232 167.600701 
L 191.501585 167.670107 
L 191.572938 167.594571 
L 191.715643 167.55915 
L 191.929701 167.342127 
L 192.001053 167.352759 
L 192.215111 166.857439 
L 192.357817 166.316799 
L 192.643227 166.976151 
L 193.071343 169.420224 
L 193.214048 168.464805 
L 193.428106 167.510138 
L 193.642164 167.687962 
L 193.927575 167.571327 
L 193.998928 167.690098 
L 194.284338 168.679041 
L 194.498396 168.922956 
L 194.641101 168.862623 
L 194.926512 168.33924 
L 195.211923 167.647453 
L 195.42598 167.995129 
L 195.640038 168.499023 
L 195.925449 167.905221 
L 196.139507 168.208775 
L 196.49627 167.056927 
L 196.567623 167.094449 
L 196.638975 167.125363 
L 196.781681 166.973598 
L 196.924386 166.995378 
L 197.209797 167.537982 
L 197.56656 166.841632 
L 197.709265 166.863683 
L 197.85197 167.187618 
L 198.208734 168.468858 
L 198.565497 167.925598 
L 198.708202 168.021309 
L 198.993613 167.615288 
L 199.136318 167.679338 
L 199.350376 168.069998 
L 199.707139 168.966599 
L 199.849845 168.746137 
L 200.206608 167.922155 
L 200.492018 167.902781 
L 200.634724 168.084442 
L 200.706076 168.077975 
L 200.991487 167.257601 
L 201.276898 167.682534 
L 201.776366 166.727854 
L 202.061777 166.387923 
L 202.275835 166.699302 
L 202.632598 166.501621 
L 202.918008 166.787942 
L 203.060714 167.036173 
L 203.274772 167.629426 
L 203.631535 166.78202 
L 204.630472 167.574908 
L 204.84453 167.604457 
L 205.91482 166.358651 
L 206.057525 166.146056 
L 206.128878 166.144253 
L 206.342936 166.551914 
L 206.913757 165.367 
L 207.127815 165.039524 
L 207.199167 165.124226 
L 207.413225 165.290596 
L 207.698636 165.071232 
L 207.984046 165.17607 
L 208.198104 165.844058 
L 208.34081 166.152225 
L 208.412162 166.026285 
L 208.62622 165.185543 
L 208.911631 165.392934 
L 209.339747 166.581973 
L 209.910568 167.06409 
L 210.195978 166.949303 
L 210.338684 167.056888 
L 210.624094 166.69164 
L 210.7668 166.750425 
L 210.909505 167.090976 
L 210.980858 167.022755 
L 211.123563 166.745443 
L 211.337621 166.23462 
L 211.480326 166.172264 
L 211.551679 166.259856 
L 211.765737 166.139498 
L 212.1225 166.201017 
L 212.265205 166.466914 
L 212.479263 166.664736 
L 212.907379 165.769333 
L 213.121437 166.049035 
L 213.4782 167.952216 
L 213.549553 167.923219 
L 213.692258 167.064077 
L 213.906316 165.675265 
L 214.049021 165.826861 
L 214.191727 167.242309 
L 214.405785 169.24504 
L 214.477137 169.268712 
L 214.619843 168.656037 
L 214.762548 167.767312 
L 214.833901 167.895804 
L 214.976606 168.436717 
L 215.047959 168.28927 
L 215.333369 166.997088 
L 215.61878 169.31763 
L 215.690132 169.230046 
L 216.118248 167.184466 
L 216.189601 167.375793 
L 216.332306 166.687473 
L 216.546364 165.513558 
L 216.617717 165.536361 
L 216.97448 167.584616 
L 217.045833 167.323294 
L 217.331243 166.039056 
L 217.902064 167.467275 
L 218.04477 167.628696 
L 218.401533 167.590814 
L 218.615591 167.978768 
L 218.901001 166.437286 
L 218.972354 166.453562 
L 219.115059 167.014154 
L 219.329117 167.761453 
L 219.685881 167.065561 
L 220.042644 166.919001 
L 220.185349 167.138727 
L 220.684818 168.070973 
L 220.898876 168.233219 
L 221.326991 167.245075 
L 221.612402 166.308536 
L 221.755107 167.06466 
L 222.040518 168.83321 
L 222.183223 168.793622 
L 222.254576 168.518237 
L 222.325929 168.654791 
L 222.611339 167.559916 
L 222.825397 166.713848 
L 222.968102 167.314056 
L 223.253513 169.569146 
L 223.324866 169.755636 
L 223.967039 167.714971 
L 224.038392 167.807634 
L 224.109745 167.735149 
L 224.25245 167.465198 
L 224.537861 168.526088 
L 224.609213 168.424296 
L 224.965976 165.734315 
L 225.037329 165.864569 
L 225.180034 166.277871 
L 225.32274 166.087839 
L 225.536798 165.246881 
L 225.679503 165.666705 
L 226.036266 162.451414 
L 226.107619 162.829179 
L 226.250324 164.534688 
L 226.607087 170.382712 
L 226.67844 170.514916 
L 226.963851 168.115917 
L 227.320614 166.105578 
L 227.391967 166.012389 
L 227.534672 166.892461 
L 227.820082 170.345456 
L 227.891435 170.24099 
L 228.03414 169.022919 
L 228.390904 162.655436 
L 228.462256 163.062089 
L 228.890372 168.363813 
L 229.10443 167.349267 
L 229.175783 167.395855 
L 229.461193 169.519446 
L 229.532546 169.270903 
L 229.675251 167.389469 
L 229.960662 163.174775 
L 230.103367 164.360272 
L 230.317425 165.916621 
L 230.388778 165.699302 
L 230.816894 168.303622 
L 230.888246 168.416389 
L 231.173657 167.823151 
L 231.387715 168.268403 
L 231.601773 168.035703 
L 231.673125 168.006849 
L 231.958536 168.461731 
L 232.172594 167.883412 
L 232.315299 165.80086 
L 232.60071 161.661098 
L 232.672062 161.358849 
L 233.314236 165.67373 
L 233.385589 165.781571 
L 233.599647 166.639704 
L 233.670999 166.562077 
L 233.742352 166.698095 
L 233.95641 166.195299 
L 234.027763 166.387949 
L 234.384526 169.263767 
L 234.455879 169.251018 
L 234.527231 168.873061 
L 234.883994 162.212999 
L 234.955347 163.145449 
L 235.169405 166.68134 
L 235.383463 164.569073 
L 235.526168 163.130473 
L 235.740226 161.23735 
L 235.811579 160.870084 
L 235.882932 160.937982 
L 236.168342 163.315296 
L 236.311047 162.303907 
L 236.453753 161.471348 
L 236.525105 161.605267 
L 236.667811 162.912644 
L 236.881869 164.822463 
L 236.953221 164.980601 
L 237.45269 163.915908 
L 237.524042 163.96339 
L 237.952158 164.986341 
L 238.023511 164.767057 
L 238.451627 161.346806 
L 238.665685 162.126901 
L 238.737037 162.062805 
L 239.379211 160.202605 
L 239.593269 159.539146 
L 240.092738 157.534697 
L 240.449501 158.314588 
L 240.734912 159.793639 
L 240.806264 159.752203 
L 241.020322 159.457118 
L 241.163027 159.8133 
L 241.377085 160.515828 
L 241.448438 160.49471 
L 241.519791 160.481031 
L 241.947907 161.549384 
L 242.090612 161.471569 
L 242.30467 161.246361 
L 242.518728 161.45984 
L 242.732786 161.809229 
L 243.089549 161.751431 
L 243.589017 160.703353 
L 243.945781 161.764366 
L 244.159839 162.515295 
L 244.302544 162.099119 
L 244.659307 160.911151 
L 244.73066 161.039561 
L 244.944718 160.91708 
L 245.80095 160.044562 
L 246.08636 159.919962 
L 246.443123 160.099469 
L 246.585829 159.901672 
L 246.871239 159.546964 
L 247.085297 159.523318 
L 247.584766 158.952457 
L 247.656118 159.103084 
L 247.870176 159.503663 
L 248.012882 159.241355 
L 248.22694 158.810686 
L 248.369645 158.848294 
L 248.51235 159.076803 
L 248.583703 158.97646 
L 249.083171 158.871677 
L 249.368582 159.051172 
L 249.58264 159.084412 
L 250.082108 157.855298 
L 250.153461 158.047134 
L 250.510224 159.328447 
L 250.724282 159.783718 
L 251.009693 159.0765 
L 251.152398 158.507296 
L 251.509161 158.585809 
L 251.651867 158.48721 
L 251.723219 158.484548 
L 252.079982 158.917002 
L 252.222688 158.418899 
L 252.436746 157.721562 
L 252.508098 157.80281 
L 252.864862 159.036694 
L 253.292977 158.405446 
L 253.721093 158.526711 
L 254.291915 158.382127 
L 254.577325 158.056017 
L 254.791383 158.278547 
L 255.076794 158.942112 
L 255.433557 158.595357 
L 255.718968 158.098944 
L 256.075731 159.214281 
L 256.147083 159.052937 
L 256.289789 158.895901 
L 256.575199 159.487058 
L 256.646552 159.42162 
L 256.931963 158.365263 
L 257.288726 158.476287 
L 257.502784 158.696138 
L 258.073605 158.907054 
L 258.430368 159.138424 
L 258.787131 158.950089 
L 259.2866 159.366969 
L 259.429305 159.050946 
L 259.714716 158.467649 
L 259.857421 158.668217 
L 260.214184 159.117402 
L 260.35689 159.174976 
L 260.570948 159.015977 
L 260.927711 158.872261 
L 261.070416 158.612192 
L 261.213121 158.876311 
L 261.498532 159.432581 
L 262.283411 158.736598 
L 262.711527 158.914658 
L 262.854232 158.883107 
L 263.06829 159.015699 
L 263.282348 158.781136 
L 263.425053 158.509186 
L 263.496406 158.574464 
L 263.853169 159.486452 
L 263.995875 159.219414 
L 264.209933 158.651554 
L 264.352638 158.656394 
L 264.495343 158.589155 
L 264.923459 158.879304 
L 265.20887 158.988796 
L 265.280222 159.006831 
L 265.708338 158.376152 
L 265.851043 158.653193 
L 266.207807 159.366516 
L 266.350512 159.345311 
L 266.493217 159.263545 
L 266.707275 159.492752 
L 267.349449 159.1626 
L 267.563507 158.749846 
L 267.92027 158.720591 
L 268.134328 158.441447 
L 268.205681 158.546789 
L 268.491091 159.108535 
L 268.847855 158.997183 
L 268.99056 159.189745 
L 269.490028 158.836482 
L 270.274908 158.599332 
L 270.417613 158.564302 
L 270.560318 158.942195 
L 270.774376 159.520835 
L 271.202492 158.844434 
L 271.559255 159.651108 
L 271.701961 159.749801 
L 271.987371 159.509429 
L 272.201429 158.714277 
L 272.344134 158.442039 
L 272.48684 158.597521 
L 272.558192 158.508751 
L 272.700898 158.738413 
L 272.843603 158.771774 
L 273.129013 159.282325 
L 273.343071 159.074651 
L 273.699835 159.49252 
L 273.771187 159.343588 
L 273.985245 158.694148 
L 274.127951 158.817683 
L 274.413361 159.333408 
L 274.698772 158.375588 
L 274.770124 158.412163 
L 274.91283 158.337362 
L 275.055535 158.64778 
L 275.19824 158.616183 
L 275.340946 158.871186 
L 275.483651 159.096064 
L 275.769061 158.760657 
L 275.911767 158.814763 
L 276.125825 159.427731 
L 276.411235 158.901159 
L 276.553941 158.959222 
L 276.696646 158.734205 
L 276.982056 157.58175 
L 277.053409 157.601566 
L 277.33882 158.192722 
L 277.62423 158.199185 
L 277.980993 158.179731 
L 278.266404 158.652237 
L 278.480462 158.166295 
L 278.623167 157.480781 
L 278.837225 158.487976 
L 278.979931 158.940758 
L 279.051283 158.841601 
L 279.336694 157.514726 
L 279.693457 158.276986 
L 279.836162 158.155284 
L 280.478336 158.50018 
L 280.763747 158.019801 
L 280.977805 158.091235 
L 281.263215 159.29625 
L 281.334568 159.242655 
L 281.548626 158.104128 
L 281.691331 157.509525 
L 281.762684 157.581379 
L 281.976742 158.298502 
L 282.119447 158.252567 
L 282.262152 158.251026 
L 282.47621 158.46348 
L 282.690268 158.3127 
L 282.975679 158.542985 
L 283.118384 158.35324 
L 283.332442 157.400332 
L 283.475147 158.065354 
L 283.689205 159.06066 
L 283.831911 158.422285 
L 284.045969 157.314716 
L 284.402732 158.397929 
L 284.545437 158.073569 
L 285.116258 158.659139 
L 285.258964 158.577602 
L 285.687079 157.951184 
L 285.758432 158.001397 
L 285.901137 158.756996 
L 286.043843 159.386347 
L 286.186548 158.833714 
L 286.400606 157.786335 
L 286.686016 158.989877 
L 286.757369 158.867319 
L 286.971427 158.310151 
L 287.114132 158.348726 
L 287.32819 158.687218 
L 287.542248 158.777831 
L 287.756306 158.799696 
L 288.184422 158.546753 
L 288.327127 158.630114 
L 288.612538 158.598737 
L 288.826596 158.937835 
L 288.969301 159.020206 
L 289.326064 158.559233 
L 289.46877 158.727878 
L 289.682828 158.943284 
L 290.110944 158.657852 
L 290.325001 159.120266 
L 290.396354 159.064285 
L 290.82447 157.819073 
L 290.895823 157.955569 
L 291.252586 159.084243 
L 291.323939 159.052783 
L 291.609349 158.322973 
L 291.680702 158.387954 
L 291.823407 158.474266 
L 291.966112 158.543824 
L 292.322876 158.323586 
L 292.750991 158.517776 
L 292.893697 158.196221 
L 293.25046 157.242511 
L 293.464518 157.657961 
L 293.749929 158.236985 
L 294.178044 157.637985 
L 294.32075 157.682587 
L 295.319687 157.867532 
L 295.67645 156.731298 
L 295.819155 157.095932 
L 296.247271 158.340807 
L 296.318624 158.299887 
L 296.675387 157.075014 
L 297.103503 157.515339 
L 297.388914 157.346439 
L 297.745677 158.102061 
L 297.959735 157.116425 
L 298.10244 156.60812 
L 298.245145 157.028411 
L 298.459203 157.563498 
L 298.673261 157.223779 
L 299.030024 157.68785 
L 299.17273 157.700745 
L 299.386788 157.705635 
L 299.600846 157.505007 
L 299.814904 157.378842 
L 300.171667 157.783869 
L 300.385725 157.525712 
L 300.742488 156.621328 
L 300.813841 156.659245 
L 301.027899 157.465323 
L 301.241957 158.077186 
L 301.741425 157.474373 
L 301.88413 157.582447 
L 302.026836 157.636949 
L 302.169541 157.459666 
L 302.312246 157.287374 
L 302.526304 157.618488 
L 302.811715 158.283485 
L 302.883067 158.173465 
L 303.239831 156.610174 
L 303.311183 156.678444 
L 303.667947 157.960892 
L 303.739299 157.875759 
L 304.167415 157.167343 
L 304.31012 157.576114 
L 304.524178 158.124731 
L 304.880942 157.500918 
L 304.952294 157.63748 
L 305.166352 158.056269 
L 305.309057 157.829462 
L 305.594468 157.053073 
L 305.737173 157.030561 
L 306.307994 157.95481 
L 306.593405 157.821061 
L 307.021521 157.395416 
L 307.306932 157.557023 
L 307.449637 157.765265 
L 307.735047 158.433975 
L 307.877753 157.872308 
L 308.091811 156.836053 
L 308.163163 156.908336 
L 308.448574 157.905359 
L 308.733984 157.834503 
L 309.019395 157.997025 
L 309.233453 158.070848 
L 309.518864 158.21148 
L 309.804274 157.592671 
L 309.875627 157.650473 
L 310.161037 158.160655 
L 310.446448 157.85662 
L 310.803211 156.928035 
L 310.945917 157.138695 
L 311.30268 157.867203 
L 311.445385 157.865288 
L 311.730796 157.555288 
L 312.087559 157.808496 
L 312.230264 157.715502 
L 312.372969 158.050357 
L 312.587027 158.639762 
L 312.729733 158.438697 
L 313.229201 157.038737 
L 313.300554 157.12427 
L 313.72867 158.445758 
L 313.800022 158.338364 
L 314.370844 157.827398 
L 315.298428 158.223892 
L 315.583839 157.351645 
L 315.655191 157.277908 
L 315.797897 157.572352 
L 316.15466 158.420734 
L 316.297365 158.398991 
L 316.511423 158.250835 
L 316.654128 158.252934 
L 316.868186 158.399051 
L 317.439007 158.236552 
L 317.724418 159.002737 
L 317.795771 158.936346 
L 318.152534 157.673282 
L 318.223887 157.812129 
L 318.437945 158.274605 
L 318.509297 158.215559 
L 318.652002 158.071793 
L 318.937413 158.328373 
L 319.65094 157.980962 
L 320.293113 158.658101 
L 320.435819 158.422861 
L 320.792582 157.363601 
L 320.935287 157.606312 
L 321.29205 158.433294 
L 321.434756 158.395709 
L 321.648814 158.193531 
L 321.934224 158.169128 
L 322.219635 158.310266 
L 322.505045 158.648008 
L 322.647751 158.720613 
L 323.004514 158.26569 
L 323.218572 157.889815 
L 323.289925 158.041394 
L 323.71804 158.951589 
L 324.217509 158.166723 
L 324.931035 158.500327 
L 325.145093 158.907613 
L 325.287799 158.725833 
L 325.644562 157.940391 
L 325.715915 157.969045 
L 326.215383 158.951819 
L 327.285673 158.082168 
L 327.428378 158.205383 
L 327.713789 158.370091 
L 327.927847 157.89701 
L 328.070552 157.617926 
L 328.926784 159.07971 
L 329.069489 158.788105 
L 329.426252 158.143606 
L 329.64031 158.100266 
L 330.282484 158.729001 
L 330.353837 158.656553 
L 330.639247 157.902094 
L 330.781953 157.479447 
L 330.853305 157.53148 
L 331.281421 158.939755 
L 331.352774 158.899382 
L 331.78089 158.371303 
L 331.994948 158.556137 
L 332.209005 158.682766 
L 332.351711 158.566446 
L 332.494416 158.297475 
L 332.851179 158.43226 
L 333.279295 157.709297 
L 333.850116 158.847453 
L 334.064174 158.726398 
L 334.278232 158.653146 
L 334.634995 158.710551 
L 334.991759 158.840269 
L 335.134464 158.882201 
L 335.277169 158.645072 
L 335.56258 158.032518 
L 335.633933 158.035011 
L 336.133401 158.934577 
L 336.490164 158.66293 
L 336.91828 158.942198 
L 337.060985 158.882577 
L 337.489101 159.564691 
L 337.560454 159.445036 
L 338.059923 158.508477 
L 338.416686 159.259513 
L 338.488038 159.300821 
L 338.773449 158.931179 
L 338.987507 159.086515 
L 339.415623 159.274615 
L 339.701033 158.910801 
L 339.843739 158.986594 
L 340.200502 159.466885 
L 340.343207 159.353093 
L 340.771323 158.471124 
L 340.842676 158.54681 
L 341.199439 159.235309 
L 341.413497 159.139489 
L 341.556202 158.98551 
L 342.127023 159.609503 
L 342.483787 159.270174 
L 342.769197 159.817244 
L 342.911903 159.628245 
L 343.197313 159.272201 
L 343.91084 160.208625 
L 344.124898 160.17586 
L 344.410308 160.04668 
L 344.695719 160.556649 
L 345.052482 160.663537 
L 345.337893 161.178696 
L 345.551951 161.144141 
L 345.766008 160.902102 
L 345.908714 160.834439 
L 346.62224 161.630166 
L 346.907651 161.504854 
L 347.050356 161.433458 
L 347.193061 161.369248 
L 347.335767 161.539796 
L 347.549825 161.898299 
L 347.69253 161.584336 
L 347.835235 161.331711 
L 348.191998 161.491147 
L 348.691467 160.753848 
L 348.905525 160.360564 
L 349.119583 160.374822 
L 349.476346 159.368804 
L 349.547699 159.42131 
L 349.833109 159.946489 
L 350.047167 160.396291 
L 350.11852 160.294409 
L 350.403931 159.344687 
L 350.546636 159.68799 
L 350.760694 160.519959 
L 351.18881 159.583987 
L 351.47422 160.026 
L 351.545573 159.967832 
L 352.330452 159.733556 
L 352.615863 159.074217 
L 352.829921 158.767454 
L 352.972626 159.087844 
L 353.186684 159.556248 
L 353.329389 159.255905 
L 353.543447 158.676343 
L 353.686152 158.69546 
L 353.90021 158.832145 
L 354.256973 158.606453 
L 354.542384 158.806925 
L 354.685089 158.726328 
L 355.184558 157.932669 
L 355.255911 158.016836 
L 355.398616 158.295747 
L 355.541321 158.533898 
L 355.684026 158.266315 
L 356.04079 157.606237 
L 356.3262 157.958033 
L 356.611611 158.104565 
L 356.897021 158.225097 
L 357.039727 158.111015 
L 357.182432 158.174504 
L 357.39649 158.273457 
L 357.681901 157.698195 
L 357.753253 157.67846 
L 358.252722 158.203751 
L 358.823543 157.547467 
L 359.251659 157.434966 
L 359.465717 157.227515 
L 359.679775 157.653503 
L 359.893833 158.099368 
L 360.250596 157.391365 
L 360.750064 157.810604 
L 360.964122 157.38386 
L 361.17818 157.0144 
L 361.320886 157.081586 
L 361.606296 157.502365 
L 362.034412 157.482518 
L 362.177117 157.479391 
L 362.319823 157.483513 
L 362.747939 156.858989 
L 362.819291 156.864819 
L 363.247407 157.519577 
L 363.390112 157.161923 
L 363.60417 156.700822 
L 363.818228 156.836964 
L 364.103639 157.189924 
L 364.317697 157.132236 
L 364.460402 157.149574 
L 364.603107 157.053553 
L 364.745813 156.975581 
L 365.245281 156.301925 
L 365.387986 156.653315 
L 365.602044 157.058001 
L 365.816102 156.569488 
L 366.03016 156.314069 
L 366.529629 156.710627 
L 366.957745 156.620114 
L 367.243155 157.183783 
L 367.385861 156.694615 
L 367.599919 155.83791 
L 367.742624 155.962178 
L 368.028034 156.670382 
L 368.598856 156.25401 
L 368.741561 156.427299 
L 369.098324 155.914686 
L 369.169677 155.974954 
L 369.455087 156.383814 
L 369.597793 156.329181 
L 369.669145 156.247245 
L 369.740498 156.325084 
L 369.811851 156.395065 
L 369.883203 156.320068 
L 370.239967 155.675322 
L 370.382672 155.746594 
L 370.668082 156.568598 
L 370.739435 156.552395 
L 370.88214 156.171413 
L 371.096198 155.517067 
L 372.023783 156.318679 
L 372.808662 155.537462 
L 373.165425 156.49227 
L 373.236778 156.378831 
L 373.522188 155.402031 
L 373.593541 155.440227 
L 373.878952 155.801495 
L 374.021657 155.816835 
L 374.235715 155.536674 
L 374.37842 155.87879 
L 374.521125 156.069753 
L 374.663831 156.00433 
L 374.949241 154.575097 
L 375.020594 154.610862 
L 375.377357 155.872844 
L 375.44871 155.989135 
L 375.805473 155.148072 
L 375.876826 155.229681 
L 376.233589 154.946536 
L 376.376294 154.472849 
L 376.447647 154.523284 
L 376.590352 154.976609 
L 376.80441 155.748231 
L 376.875763 155.70982 
L 377.089821 155.074219 
L 377.232526 155.144029 
L 377.446584 154.941159 
L 377.589289 154.805064 
L 377.660642 154.921338 
L 377.731994 154.853367 
L 378.088758 154.357091 
L 378.374168 154.7186 
L 378.445521 154.622584 
L 378.588226 153.925914 
L 378.659579 154.031064 
L 378.730932 154.053345 
L 379.087695 155.183139 
L 379.159047 155.072936 
L 379.444458 153.124291 
L 379.515811 153.160269 
L 379.587163 153.278906 
L 379.872574 154.503095 
L 380.229337 153.578539 
L 380.30069 153.610066 
L 380.657453 154.328319 
L 380.871511 153.505157 
L 381.014216 153.036477 
L 381.299627 153.622845 
L 381.442332 153.799504 
L 381.585037 153.635848 
L 381.870448 153.772444 
L 381.941801 153.868183 
L 382.512622 152.96402 
L 382.869385 153.099052 
L 383.01209 153.375536 
L 383.083443 153.329931 
L 383.368854 153.234122 
L 383.725617 152.243521 
L 383.796969 152.280031 
L 383.939675 152.700741 
L 384.08238 153.407501 
L 384.153733 153.392677 
L 384.439143 152.804232 
L 384.510496 152.621999 
L 384.581849 152.735904 
L 384.653201 152.842041 
L 384.724554 152.773874 
L 384.795907 152.705334 
L 385.009965 152.235533 
L 385.224022 152.361918 
L 385.43808 152.736747 
L 385.580786 152.298413 
L 385.866196 151.45348 
L 386.008902 151.559971 
L 386.437017 152.242884 
L 386.579723 152.058503 
L 386.865133 151.486082 
L 386.936486 151.455513 
L 387.150544 152.260281 
L 387.293249 152.110276 
L 387.650012 151.137312 
L 387.721365 151.175409 
L 387.86407 151.632166 
L 387.935423 151.518962 
L 388.149481 151.259809 
L 388.292186 151.422113 
L 388.506244 151.705134 
L 388.64895 151.22064 
L 388.863007 150.11063 
L 389.005713 150.138233 
L 389.219771 150.805863 
L 389.291123 150.833915 
L 389.576534 150.023054 
L 389.647887 150.113891 
L 389.790592 150.224006 
L 390.076002 151.494915 
L 390.147355 151.320394 
L 390.504118 148.143657 
L 390.575471 148.148305 
L 390.860882 150.634946 
L 391.146292 149.414907 
L 391.288997 148.962128 
L 391.574408 149.204238 
L 392.073877 148.822317 
L 392.287935 148.917463 
L 392.43064 148.642057 
L 392.71605 148.038478 
L 392.787403 148.146923 
L 393.072814 147.488864 
L 393.215519 147.609266 
L 393.50093 148.484407 
L 393.714987 147.69341 
L 393.929045 147.935923 
L 394.071751 147.968839 
L 394.143103 147.905965 
L 394.357161 147.600647 
L 394.571219 147.743109 
L 395.070688 146.473283 
L 395.14204 146.563034 
L 395.427451 148.247697 
L 395.498804 147.848117 
L 395.641509 146.887677 
L 395.855567 145.742836 
L 396.21233 147.39695 
L 396.283683 147.257768 
L 396.569093 146.599844 
L 397.068562 146.575221 
L 397.56803 146.252166 
L 397.710736 146.386099 
L 397.924794 146.179191 
L 397.996146 146.206846 
L 398.067499 146.406136 
L 398.424262 145.238611 
L 398.566968 144.660612 
L 398.852378 146.529964 
L 398.923731 146.396593 
L 399.351847 145.108815 
L 399.423199 145.355379 
L 399.494552 145.319014 
L 399.565905 145.098954 
L 399.637257 145.138941 
L 399.851315 145.373396 
L 400.422136 144.093084 
L 400.707547 145.246598 
L 400.850252 145.052014 
L 401.135663 143.59941 
L 401.207015 143.757229 
L 401.421073 144.691825 
L 401.492426 144.860892 
L 401.849189 143.861125 
L 402.634068 143.676587 
L 402.990832 143.254366 
L 403.276242 143.050035 
L 403.347595 143.285207 
L 403.918416 141.889508 
L 404.203827 143.148616 
L 404.275179 143.121169 
L 404.346532 143.220947 
L 404.631943 141.674291 
L 404.703295 141.922468 
L 404.846 141.994749 
L 404.917353 141.868577 
L 405.060058 141.961687 
L 405.131411 141.985827 
L 405.702232 140.596401 
L 405.987643 142.38019 
L 406.058995 142.335577 
L 406.201701 141.589963 
L 406.415759 140.13901 
L 406.558464 140.65394 
L 406.701169 141.101731 
L 406.772522 141.260449 
L 407.200638 140.213566 
L 407.27199 140.122948 
L 407.343343 140.203252 
L 407.628754 140.114583 
L 407.842812 140.073293 
L 407.914164 140.137112 
L 407.985517 139.956945 
L 408.05687 140.012448 
L 408.270928 140.199069 
L 408.34228 140.231287 
L 408.556338 139.033181 
L 408.627691 139.2535 
L 408.699043 139.265676 
L 408.841749 140.020113 
L 409.055807 141.099537 
L 409.198512 140.63524 
L 409.626628 141.983223 
L 409.912038 140.026653 
L 410.126096 140.372036 
L 410.554212 138.580367 
L 410.625565 138.822005 
L 410.696918 138.891326 
L 410.76827 138.807229 
L 410.982328 137.6423 
L 411.196386 136.347832 
L 411.481797 136.93934 
L 411.624502 136.783346 
L 411.767207 136.106446 
L 411.909913 135.414116 
L 411.981265 135.445311 
L 412.195323 135.93448 
L 412.266676 135.957112 
L 412.623439 134.452084 
L 412.766144 134.472599 
L 412.837497 134.239338 
L 412.90885 134.290383 
L 413.122908 133.849488 
L 413.336966 133.184068 
L 413.622376 134.185541 
L 413.693729 134.583922 
L 413.765081 134.557571 
L 413.979139 133.914846 
L 414.193197 134.18016 
L 414.621313 133.005107 
L 414.906724 133.566761 
L 414.978076 133.50907 
L 415.477545 131.470462 
L 415.691603 132.041239 
L 415.762956 131.839349 
L 415.905661 130.857618 
L 415.977013 130.905747 
L 416.048366 130.924447 
L 416.119719 130.81112 
L 416.262424 131.338922 
L 416.405129 131.865971 
L 416.476482 131.723214 
L 416.619187 131.552326 
L 416.69054 131.680664 
L 416.833245 131.012023 
L 417.047303 129.798485 
L 417.118656 129.699739 
L 417.332714 129.178178 
L 417.404066 129.11892 
L 417.546772 128.913245 
L 417.903535 129.332082 
L 417.974888 129.247571 
L 418.188946 128.928381 
L 418.403003 127.78989 
L 418.545709 126.414287 
L 418.617061 126.488881 
L 419.045177 127.739653 
L 419.259235 126.616016 
L 419.473293 127.395291 
L 419.758704 126.274047 
L 419.972762 124.886854 
L 420.258172 125.85253 
L 420.400878 125.445922 
L 420.757641 122.861747 
L 420.828993 122.92181 
L 420.900346 123.118403 
L 420.971699 123.823155 
L 421.043051 123.788541 
L 421.328462 122.561275 
L 421.471167 122.523198 
L 421.685225 123.435654 
L 422.041988 122.552812 
L 422.256046 121.072982 
L 422.398752 121.697596 
L 422.470104 121.665736 
L 422.541457 121.728812 
L 422.61281 122.011077 
L 422.755515 121.368479 
L 422.89822 120.331261 
L 422.969573 120.340214 
L 423.112278 120.471782 
L 423.540394 118.328912 
L 423.611747 118.46827 
L 423.825805 117.263866 
L 423.897157 117.568615 
L 424.182568 118.469145 
L 424.253921 118.315445 
L 424.539331 116.798905 
L 424.610684 117.069811 
L 424.682036 117.019846 
L 425.181505 114.57976 
L 425.252858 114.775987 
L 425.395563 115.277663 
L 425.609621 114.583751 
L 425.752326 114.204093 
L 426.251795 111.749335 
L 426.3945 111.23064 
L 426.608558 109.885797 
L 426.679911 109.718375 
L 426.751263 109.845254 
L 426.893969 110.881985 
L 426.965321 110.860073 
L 427.250732 109.450967 
L 427.7502 106.937028 
L 427.821553 106.560634 
L 427.892906 106.586738 
L 428.178316 106.034183 
L 428.463727 104.890698 
L 428.891843 101.283346 
L 428.963195 100.944016 
L 429.034548 101.942719 
L 429.248606 98.890155 
L 429.319959 98.940828 
L 429.676722 101.372057 
L 429.819427 99.328831 
L 429.962132 96.885482 
L 430.033485 97.947176 
L 430.104838 97.52011 
L 430.461601 94.91178 
L 430.604306 95.416265 
L 430.818364 94.888854 
L 431.103775 91.686742 
L 431.317833 88.811672 
L 431.531891 89.441038 
L 431.603243 89.293382 
L 431.960006 85.495975 
L 432.031359 86.692677 
L 432.102712 86.394565 
L 432.31677 85.80713 
L 432.530828 86.582564 
L 432.744886 84.055145 
L 432.958944 81.160586 
L 433.030296 82.563432 
L 433.101649 82.481581 
L 433.244354 82.36406 
L 433.529765 79.49262 
L 434.029233 77.323695 
L 434.314644 78.349743 
L 434.385996 78.275675 
L 434.600054 76.775295 
L 435.02817 75.310948 
L 435.099523 75.634574 
L 435.384934 77.198201 
L 435.456286 77.076108 
L 435.598991 73.940239 
L 435.598991 73.940239 
" clip-path="url(#pf08283222a)" style="fill: none; stroke: #1f77b4; stroke-width: 1.5; stroke-linecap: square"/>
   </g>
   <g id="patch_3">
    <path d="M 94.711719 279.010828 
L 94.711719 12.898828 
" style="fill: none; stroke: #000000; stroke-width: 0.8; stroke-linejoin: miter; stroke-linecap: square"/>
   </g>
   <g id="patch_4">
    <path d="M 451.831719 279.010828 
L 451.831719 12.898828 
" style="fill: none; stroke: #000000; stroke-width: 0.8; stroke-linejoin: miter; stroke-linecap: square"/>
   </g>
   <g id="patch_5">
    <path d="M 94.711719 279.010828 
L 451.831719 279.010828 
" style="fill: none; stroke: #000000; stroke-width: 0.8; stroke-linejoin: miter; stroke-linecap: square"/>
   </g>
   <g id="patch_6">
    <path d="M 94.711719 12.898828 
L 451.831719 12.898828 
" style="fill: none; stroke: #000000; stroke-width: 0.8; stroke-linejoin: miter; stroke-linecap: square"/>
   </g>
  </g>
 </g>
 <defs>
  <clipPath id="pf08283222a">
   <rect x="94.711719" y="12.898828" width="357.12" height="266.112"/>
  </clipPath>
 </defs>
</svg>
