<?xml version="1.0" encoding="utf-8" standalone="no"?>
<!DOCTYPE svg PUBLIC "-//W3C//DTD SVG 1.1//EN"
  "http://www.w3.org/Graphics/SVG/1.1/DTD/svg11.dtd">
<svg xmlns:xlink="http://www.w3.org/1999/xlink" width="778.1275pt" height="349.665437pt" viewBox="0 0 778.1275 349.665437" xmlns="http://www.w3.org/2000/svg" version="1.1">
 <defs>
  <style type="text/css">*{stroke-linejoin: round; stroke-linecap: butt}</style>
 </defs>
 <g id="figure_1">
  <g id="patch_1">
   <path d="M -0 349.665437 
L 778.1275 349.665437 
L 778.1275 0 
L -0 0 
L -0 349.665437 
z
" style="fill: none"/>
  </g>
  <g id="axes_1">
   <g id="patch_2">
    <path d="M 56.6875 297.54825 
L 381.342045 297.54825 
L 381.342045 31.43625 
L 56.6875 31.43625 
L 56.6875 297.54825 
z
" style="fill: none"/>
   </g>
   <g id="matplotlib.axis_1">
    <g id="xtick_1">
     <g id="line2d_1">
      <path d="M 85.715054 297.54825 
L 85.715054 31.43625 
" clip-path="url(#pa2b998310d)" style="fill: none; stroke: #b0b0b0; stroke-width: 0.8; stroke-linecap: square"/>
     </g>
     <g id="line2d_2">
      <defs>
       <path id="md39032bed2" d="M 0 0 
L 0 3.5 
" style="stroke: #000000; stroke-width: 0.8"/>
      </defs>
      <g>
       <use xlink:href="#md39032bed2" x="85.715054" y="297.54825" style="stroke: #000000; stroke-width: 0.8"/>
      </g>
     </g>
     <g id="text_1">
      <!-- −3000 -->
      <g transform="translate(60.342789 315.945906)scale(0.15 -0.15)">
       <defs>
        <path id="DejaVuSans-2212" d="M 678 2272 
L 4684 2272 
L 4684 1741 
L 678 1741 
L 678 2272 
z
" transform="scale(0.015625)"/>
        <path id="DejaVuSans-33" d="M 2597 2516 
Q 3050 2419 3304 2112 
Q 3559 1806 3559 1356 
Q 3559 666 3084 287 
Q 2609 -91 1734 -91 
Q 1441 -91 1130 -33 
Q 819 25 488 141 
L 488 750 
Q 750 597 1062 519 
Q 1375 441 1716 441 
Q 2309 441 2620 675 
Q 2931 909 2931 1356 
Q 2931 1769 2642 2001 
Q 2353 2234 1838 2234 
L 1294 2234 
L 1294 2753 
L 1863 2753 
Q 2328 2753 2575 2939 
Q 2822 3125 2822 3475 
Q 2822 3834 2567 4026 
Q 2313 4219 1838 4219 
Q 1578 4219 1281 4162 
Q 984 4106 628 3988 
L 628 4550 
Q 988 4650 1302 4700 
Q 1616 4750 1894 4750 
Q 2613 4750 3031 4423 
Q 3450 4097 3450 3541 
Q 3450 3153 3228 2886 
Q 3006 2619 2597 2516 
z
" transform="scale(0.015625)"/>
        <path id="DejaVuSans-30" d="M 2034 4250 
Q 1547 4250 1301 3770 
Q 1056 3291 1056 2328 
Q 1056 1369 1301 889 
Q 1547 409 2034 409 
Q 2525 409 2770 889 
Q 3016 1369 3016 2328 
Q 3016 3291 2770 3770 
Q 2525 4250 2034 4250 
z
M 2034 4750 
Q 2819 4750 3233 4129 
Q 3647 3509 3647 2328 
Q 3647 1150 3233 529 
Q 2819 -91 2034 -91 
Q 1250 -91 836 529 
Q 422 1150 422 2328 
Q 422 3509 836 4129 
Q 1250 4750 2034 4750 
z
" transform="scale(0.015625)"/>
       </defs>
       <use xlink:href="#DejaVuSans-2212"/>
       <use xlink:href="#DejaVuSans-33" x="83.789062"/>
       <use xlink:href="#DejaVuSans-30" x="147.412109"/>
       <use xlink:href="#DejaVuSans-30" x="211.035156"/>
       <use xlink:href="#DejaVuSans-30" x="274.658203"/>
      </g>
     </g>
    </g>
    <g id="xtick_2">
     <g id="line2d_3">
      <path d="M 150.581097 297.54825 
L 150.581097 31.43625 
" clip-path="url(#pa2b998310d)" style="fill: none; stroke: #b0b0b0; stroke-width: 0.8; stroke-linecap: square"/>
     </g>
     <g id="line2d_4">
      <g>
       <use xlink:href="#md39032bed2" x="150.581097" y="297.54825" style="stroke: #000000; stroke-width: 0.8"/>
      </g>
     </g>
     <g id="text_2">
      <!-- −2000 -->
      <g transform="translate(125.208832 315.945906)scale(0.15 -0.15)">
       <defs>
        <path id="DejaVuSans-32" d="M 1228 531 
L 3431 531 
L 3431 0 
L 469 0 
L 469 531 
Q 828 903 1448 1529 
Q 2069 2156 2228 2338 
Q 2531 2678 2651 2914 
Q 2772 3150 2772 3378 
Q 2772 3750 2511 3984 
Q 2250 4219 1831 4219 
Q 1534 4219 1204 4116 
Q 875 4013 500 3803 
L 500 4441 
Q 881 4594 1212 4672 
Q 1544 4750 1819 4750 
Q 2544 4750 2975 4387 
Q 3406 4025 3406 3419 
Q 3406 3131 3298 2873 
Q 3191 2616 2906 2266 
Q 2828 2175 2409 1742 
Q 1991 1309 1228 531 
z
" transform="scale(0.015625)"/>
       </defs>
       <use xlink:href="#DejaVuSans-2212"/>
       <use xlink:href="#DejaVuSans-32" x="83.789062"/>
       <use xlink:href="#DejaVuSans-30" x="147.412109"/>
       <use xlink:href="#DejaVuSans-30" x="211.035156"/>
       <use xlink:href="#DejaVuSans-30" x="274.658203"/>
      </g>
     </g>
    </g>
    <g id="xtick_3">
     <g id="line2d_5">
      <path d="M 215.44714 297.54825 
L 215.44714 31.43625 
" clip-path="url(#pa2b998310d)" style="fill: none; stroke: #b0b0b0; stroke-width: 0.8; stroke-linecap: square"/>
     </g>
     <g id="line2d_6">
      <g>
       <use xlink:href="#md39032bed2" x="215.44714" y="297.54825" style="stroke: #000000; stroke-width: 0.8"/>
      </g>
     </g>
     <g id="text_3">
      <!-- −1000 -->
      <g transform="translate(190.074875 315.945906)scale(0.15 -0.15)">
       <defs>
        <path id="DejaVuSans-31" d="M 794 531 
L 1825 531 
L 1825 4091 
L 703 3866 
L 703 4441 
L 1819 4666 
L 2450 4666 
L 2450 531 
L 3481 531 
L 3481 0 
L 794 0 
L 794 531 
z
" transform="scale(0.015625)"/>
       </defs>
       <use xlink:href="#DejaVuSans-2212"/>
       <use xlink:href="#DejaVuSans-31" x="83.789062"/>
       <use xlink:href="#DejaVuSans-30" x="147.412109"/>
       <use xlink:href="#DejaVuSans-30" x="211.035156"/>
       <use xlink:href="#DejaVuSans-30" x="274.658203"/>
      </g>
     </g>
    </g>
    <g id="xtick_4">
     <g id="line2d_7">
      <path d="M 280.313183 297.54825 
L 280.313183 31.43625 
" clip-path="url(#pa2b998310d)" style="fill: none; stroke: #b0b0b0; stroke-width: 0.8; stroke-linecap: square"/>
     </g>
     <g id="line2d_8">
      <g>
       <use xlink:href="#md39032bed2" x="280.313183" y="297.54825" style="stroke: #000000; stroke-width: 0.8"/>
      </g>
     </g>
     <g id="text_4">
      <!-- 0 -->
      <g transform="translate(275.541308 315.945906)scale(0.15 -0.15)">
       <use xlink:href="#DejaVuSans-30"/>
      </g>
     </g>
    </g>
    <g id="xtick_5">
     <g id="line2d_9">
      <path d="M 345.179226 297.54825 
L 345.179226 31.43625 
" clip-path="url(#pa2b998310d)" style="fill: none; stroke: #b0b0b0; stroke-width: 0.8; stroke-linecap: square"/>
     </g>
     <g id="line2d_10">
      <g>
       <use xlink:href="#md39032bed2" x="345.179226" y="297.54825" style="stroke: #000000; stroke-width: 0.8"/>
      </g>
     </g>
     <g id="text_5">
      <!-- 1000 -->
      <g transform="translate(326.091726 315.945906)scale(0.15 -0.15)">
       <use xlink:href="#DejaVuSans-31"/>
       <use xlink:href="#DejaVuSans-30" x="63.623047"/>
       <use xlink:href="#DejaVuSans-30" x="127.246094"/>
       <use xlink:href="#DejaVuSans-30" x="190.869141"/>
      </g>
     </g>
    </g>
    <g id="text_6">
     <!-- X ($\mu$m) -->
     <g transform="translate(185.014773 338.265437)scale(0.2 -0.2)">
      <defs>
       <path id="DejaVuSans-58" d="M 403 4666 
L 1081 4666 
L 2241 2931 
L 3406 4666 
L 4084 4666 
L 2584 2425 
L 4184 0 
L 3506 0 
L 2194 1984 
L 872 0 
L 191 0 
L 1856 2491 
L 403 4666 
z
" transform="scale(0.015625)"/>
       <path id="DejaVuSans-20" transform="scale(0.015625)"/>
       <path id="DejaVuSans-28" d="M 1984 4856 
Q 1566 4138 1362 3434 
Q 1159 2731 1159 2009 
Q 1159 1288 1364 580 
Q 1569 -128 1984 -844 
L 1484 -844 
Q 1016 -109 783 600 
Q 550 1309 550 2009 
Q 550 2706 781 3412 
Q 1013 4119 1484 4856 
L 1984 4856 
z
" transform="scale(0.015625)"/>
       <path id="DejaVuSans-Oblique-3bc" d="M -84 -1331 
L 856 3500 
L 1434 3500 
L 1009 1322 
Q 997 1256 987 1175 
Q 978 1094 978 1013 
Q 978 722 1161 565 
Q 1344 409 1684 409 
Q 2147 409 2431 671 
Q 2716 934 2816 1459 
L 3213 3500 
L 3788 3500 
L 3266 809 
Q 3253 750 3248 706 
Q 3244 663 3244 628 
Q 3244 531 3283 486 
Q 3322 441 3406 441 
Q 3438 441 3492 456 
Q 3547 472 3647 513 
L 3559 50 
Q 3422 -19 3297 -55 
Q 3172 -91 3053 -91 
Q 2847 -91 2730 40 
Q 2613 172 2613 403 
Q 2438 153 2195 31 
Q 1953 -91 1625 -91 
Q 1334 -91 1117 43 
Q 900 178 831 397 
L 494 -1331 
L -84 -1331 
z
" transform="scale(0.015625)"/>
       <path id="DejaVuSans-6d" d="M 3328 2828 
Q 3544 3216 3844 3400 
Q 4144 3584 4550 3584 
Q 5097 3584 5394 3201 
Q 5691 2819 5691 2113 
L 5691 0 
L 5113 0 
L 5113 2094 
Q 5113 2597 4934 2840 
Q 4756 3084 4391 3084 
Q 3944 3084 3684 2787 
Q 3425 2491 3425 1978 
L 3425 0 
L 2847 0 
L 2847 2094 
Q 2847 2600 2669 2842 
Q 2491 3084 2119 3084 
Q 1678 3084 1418 2786 
Q 1159 2488 1159 1978 
L 1159 0 
L 581 0 
L 581 3500 
L 1159 3500 
L 1159 2956 
Q 1356 3278 1631 3431 
Q 1906 3584 2284 3584 
Q 2666 3584 2933 3390 
Q 3200 3197 3328 2828 
z
" transform="scale(0.015625)"/>
       <path id="DejaVuSans-29" d="M 513 4856 
L 1013 4856 
Q 1481 4119 1714 3412 
Q 1947 2706 1947 2009 
Q 1947 1309 1714 600 
Q 1481 -109 1013 -844 
L 513 -844 
Q 928 -128 1133 580 
Q 1338 1288 1338 2009 
Q 1338 2731 1133 3434 
Q 928 4138 513 4856 
z
" transform="scale(0.015625)"/>
      </defs>
      <use xlink:href="#DejaVuSans-58" transform="translate(0 0.125)"/>
      <use xlink:href="#DejaVuSans-20" transform="translate(68.505859 0.125)"/>
      <use xlink:href="#DejaVuSans-28" transform="translate(100.292969 0.125)"/>
      <use xlink:href="#DejaVuSans-Oblique-3bc" transform="translate(139.306641 0.125)"/>
      <use xlink:href="#DejaVuSans-6d" transform="translate(202.929688 0.125)"/>
      <use xlink:href="#DejaVuSans-29" transform="translate(300.341797 0.125)"/>
     </g>
    </g>
   </g>
   <g id="matplotlib.axis_2">
    <g id="ytick_1">
     <g id="line2d_11">
      <path d="M 56.6875 291.862075 
L 381.342045 291.862075 
" clip-path="url(#pa2b998310d)" style="fill: none; stroke: #b0b0b0; stroke-width: 0.8; stroke-linecap: square"/>
     </g>
     <g id="line2d_12">
      <defs>
       <path id="m6f3f5b6aff" d="M 0 0 
L -3.5 0 
" style="stroke: #000000; stroke-width: 0.8"/>
      </defs>
      <g>
       <use xlink:href="#m6f3f5b6aff" x="56.6875" y="291.862075" style="stroke: #000000; stroke-width: 0.8"/>
      </g>
     </g>
     <g id="text_7">
      <!-- 64 -->
      <g transform="translate(30.6 297.560904)scale(0.15 -0.15)">
       <defs>
        <path id="DejaVuSans-36" d="M 2113 2584 
Q 1688 2584 1439 2293 
Q 1191 2003 1191 1497 
Q 1191 994 1439 701 
Q 1688 409 2113 409 
Q 2538 409 2786 701 
Q 3034 994 3034 1497 
Q 3034 2003 2786 2293 
Q 2538 2584 2113 2584 
z
M 3366 4563 
L 3366 3988 
Q 3128 4100 2886 4159 
Q 2644 4219 2406 4219 
Q 1781 4219 1451 3797 
Q 1122 3375 1075 2522 
Q 1259 2794 1537 2939 
Q 1816 3084 2150 3084 
Q 2853 3084 3261 2657 
Q 3669 2231 3669 1497 
Q 3669 778 3244 343 
Q 2819 -91 2113 -91 
Q 1303 -91 875 529 
Q 447 1150 447 2328 
Q 447 3434 972 4092 
Q 1497 4750 2381 4750 
Q 2619 4750 2861 4703 
Q 3103 4656 3366 4563 
z
" transform="scale(0.015625)"/>
        <path id="DejaVuSans-34" d="M 2419 4116 
L 825 1625 
L 2419 1625 
L 2419 4116 
z
M 2253 4666 
L 3047 4666 
L 3047 1625 
L 3713 1625 
L 3713 1100 
L 3047 1100 
L 3047 0 
L 2419 0 
L 2419 1100 
L 313 1100 
L 313 1709 
L 2253 4666 
z
" transform="scale(0.015625)"/>
       </defs>
       <use xlink:href="#DejaVuSans-36"/>
       <use xlink:href="#DejaVuSans-34" x="63.623047"/>
      </g>
     </g>
    </g>
    <g id="ytick_2">
     <g id="line2d_13">
      <path d="M 56.6875 246.781415 
L 381.342045 246.781415 
" clip-path="url(#pa2b998310d)" style="fill: none; stroke: #b0b0b0; stroke-width: 0.8; stroke-linecap: square"/>
     </g>
     <g id="line2d_14">
      <g>
       <use xlink:href="#m6f3f5b6aff" x="56.6875" y="246.781415" style="stroke: #000000; stroke-width: 0.8"/>
      </g>
     </g>
     <g id="text_8">
      <!-- 66 -->
      <g transform="translate(30.6 252.480243)scale(0.15 -0.15)">
       <use xlink:href="#DejaVuSans-36"/>
       <use xlink:href="#DejaVuSans-36" x="63.623047"/>
      </g>
     </g>
    </g>
    <g id="ytick_3">
     <g id="line2d_15">
      <path d="M 56.6875 201.700755 
L 381.342045 201.700755 
" clip-path="url(#pa2b998310d)" style="fill: none; stroke: #b0b0b0; stroke-width: 0.8; stroke-linecap: square"/>
     </g>
     <g id="line2d_16">
      <g>
       <use xlink:href="#m6f3f5b6aff" x="56.6875" y="201.700755" style="stroke: #000000; stroke-width: 0.8"/>
      </g>
     </g>
     <g id="text_9">
      <!-- 68 -->
      <g transform="translate(30.6 207.399583)scale(0.15 -0.15)">
       <defs>
        <path id="DejaVuSans-38" d="M 2034 2216 
Q 1584 2216 1326 1975 
Q 1069 1734 1069 1313 
Q 1069 891 1326 650 
Q 1584 409 2034 409 
Q 2484 409 2743 651 
Q 3003 894 3003 1313 
Q 3003 1734 2745 1975 
Q 2488 2216 2034 2216 
z
M 1403 2484 
Q 997 2584 770 2862 
Q 544 3141 544 3541 
Q 544 4100 942 4425 
Q 1341 4750 2034 4750 
Q 2731 4750 3128 4425 
Q 3525 4100 3525 3541 
Q 3525 3141 3298 2862 
Q 3072 2584 2669 2484 
Q 3125 2378 3379 2068 
Q 3634 1759 3634 1313 
Q 3634 634 3220 271 
Q 2806 -91 2034 -91 
Q 1263 -91 848 271 
Q 434 634 434 1313 
Q 434 1759 690 2068 
Q 947 2378 1403 2484 
z
M 1172 3481 
Q 1172 3119 1398 2916 
Q 1625 2713 2034 2713 
Q 2441 2713 2670 2916 
Q 2900 3119 2900 3481 
Q 2900 3844 2670 4047 
Q 2441 4250 2034 4250 
Q 1625 4250 1398 4047 
Q 1172 3844 1172 3481 
z
" transform="scale(0.015625)"/>
       </defs>
       <use xlink:href="#DejaVuSans-36"/>
       <use xlink:href="#DejaVuSans-38" x="63.623047"/>
      </g>
     </g>
    </g>
    <g id="ytick_4">
     <g id="line2d_17">
      <path d="M 56.6875 156.620094 
L 381.342045 156.620094 
" clip-path="url(#pa2b998310d)" style="fill: none; stroke: #b0b0b0; stroke-width: 0.8; stroke-linecap: square"/>
     </g>
     <g id="line2d_18">
      <g>
       <use xlink:href="#m6f3f5b6aff" x="56.6875" y="156.620094" style="stroke: #000000; stroke-width: 0.8"/>
      </g>
     </g>
     <g id="text_10">
      <!-- 70 -->
      <g transform="translate(30.6 162.318922)scale(0.15 -0.15)">
       <defs>
        <path id="DejaVuSans-37" d="M 525 4666 
L 3525 4666 
L 3525 4397 
L 1831 0 
L 1172 0 
L 2766 4134 
L 525 4134 
L 525 4666 
z
" transform="scale(0.015625)"/>
       </defs>
       <use xlink:href="#DejaVuSans-37"/>
       <use xlink:href="#DejaVuSans-30" x="63.623047"/>
      </g>
     </g>
    </g>
    <g id="ytick_5">
     <g id="line2d_19">
      <path d="M 56.6875 111.539434 
L 381.342045 111.539434 
" clip-path="url(#pa2b998310d)" style="fill: none; stroke: #b0b0b0; stroke-width: 0.8; stroke-linecap: square"/>
     </g>
     <g id="line2d_20">
      <g>
       <use xlink:href="#m6f3f5b6aff" x="56.6875" y="111.539434" style="stroke: #000000; stroke-width: 0.8"/>
      </g>
     </g>
     <g id="text_11">
      <!-- 72 -->
      <g transform="translate(30.6 117.238262)scale(0.15 -0.15)">
       <use xlink:href="#DejaVuSans-37"/>
       <use xlink:href="#DejaVuSans-32" x="63.623047"/>
      </g>
     </g>
    </g>
    <g id="ytick_6">
     <g id="line2d_21">
      <path d="M 56.6875 66.458773 
L 381.342045 66.458773 
" clip-path="url(#pa2b998310d)" style="fill: none; stroke: #b0b0b0; stroke-width: 0.8; stroke-linecap: square"/>
     </g>
     <g id="line2d_22">
      <g>
       <use xlink:href="#m6f3f5b6aff" x="56.6875" y="66.458773" style="stroke: #000000; stroke-width: 0.8"/>
      </g>
     </g>
     <g id="text_12">
      <!-- 74 -->
      <g transform="translate(30.6 72.157602)scale(0.15 -0.15)">
       <use xlink:href="#DejaVuSans-37"/>
       <use xlink:href="#DejaVuSans-34" x="63.623047"/>
      </g>
     </g>
    </g>
    <g id="text_13">
     <!-- Z ($\mu$m) -->
     <g transform="translate(22.4 198.49225)rotate(-90)scale(0.2 -0.2)">
      <defs>
       <path id="DejaVuSans-5a" d="M 359 4666 
L 4025 4666 
L 4025 4184 
L 1075 531 
L 4097 531 
L 4097 0 
L 288 0 
L 288 481 
L 3238 4134 
L 359 4134 
L 359 4666 
z
" transform="scale(0.015625)"/>
      </defs>
      <use xlink:href="#DejaVuSans-5a" transform="translate(0 0.125)"/>
      <use xlink:href="#DejaVuSans-20" transform="translate(68.505859 0.125)"/>
      <use xlink:href="#DejaVuSans-28" transform="translate(100.292969 0.125)"/>
      <use xlink:href="#DejaVuSans-Oblique-3bc" transform="translate(139.306641 0.125)"/>
      <use xlink:href="#DejaVuSans-6d" transform="translate(202.929688 0.125)"/>
      <use xlink:href="#DejaVuSans-29" transform="translate(300.341797 0.125)"/>
     </g>
    </g>
   </g>
   <g id="line2d_23">
    <path d="M 71.444525 64.312548 
L 72.158051 65.76945 
L 72.806712 66.628948 
L 73.585104 67.289901 
L 76.633808 69.524677 
L 77.736531 70.857674 
L 80.071709 73.79733 
L 80.850101 74.359192 
L 81.563628 74.615717 
L 82.34202 74.650163 
L 83.185279 74.45327 
L 84.028537 74.02326 
L 84.80693 73.371069 
L 85.585322 72.435555 
L 86.558313 70.90656 
L 89.217821 66.473693 
L 90.255677 65.26858 
L 91.163802 64.533443 
L 92.201659 64.034336 
L 93.239515 63.801254 
L 95.250363 63.637088 
L 97.131478 63.682386 
L 99.661254 63.789725 
L 101.672101 63.564685 
L 102.774824 63.215282 
L 103.553216 62.722429 
L 104.266743 62.009929 
L 104.980269 60.997422 
L 105.823528 59.364576 
L 106.731652 57.051002 
L 107.964107 53.184438 
L 109.650624 47.954453 
L 110.493883 46.020535 
L 111.272275 44.774995 
L 111.985802 44.048897 
L 112.699328 43.648046 
L 113.412855 43.53225 
L 114.126381 43.659385 
L 114.904774 44.036262 
L 116.202094 44.967745 
L 117.694013 45.975792 
L 119.0562 46.585802 
L 120.548119 47.002128 
L 121.975172 47.158506 
L 131.575347 47.665985 
L 133.715926 47.750086 
L 140.397129 48.392409 
L 142.797172 48.561831 
L 147.013465 49.365865 
L 153.110873 50.985126 
L 155.251452 51.9761 
L 157.067702 53.099624 
L 161.738057 56.293781 
L 163.554306 57.507091 
L 165.240823 58.352568 
L 166.862474 58.915631 
L 168.678723 59.544999 
L 169.651714 60.128937 
L 170.689571 61.030632 
L 171.662561 62.177114 
L 172.50582 63.534735 
L 173.219346 65.122034 
L 173.932873 67.310751 
L 174.646399 70.289488 
L 175.359926 74.227997 
L 176.203184 80.259607 
L 177.111309 88.42938 
L 178.278898 101.141497 
L 180.289745 126.084313 
L 182.17086 148.381809 
L 183.403315 160.596719 
L 184.441172 168.863297 
L 185.414162 174.905455 
L 186.452019 179.969002 
L 192.095365 204.407752 
L 193.133222 207.958638 
L 193.97648 210.134596 
L 194.690007 211.438738 
L 195.403533 212.300616 
L 196.11706 212.81887 
L 196.895452 213.118454 
L 197.868443 213.250973 
L 199.036031 213.17869 
L 201.695539 212.902954 
L 203.31719 213.122359 
L 205.45777 213.322976 
L 207.857813 213.332918 
L 210.582187 213.007997 
L 213.760623 212.576402 
L 215.901203 212.356525 
L 219.987763 212.170274 
L 221.34995 212.468479 
L 222.777003 212.983819 
L 223.944592 213.65325 
L 225.631109 214.930805 
L 227.25276 216.023257 
L 228.874411 216.838225 
L 230.106866 217.227273 
L 231.209589 217.337678 
L 233.4799 217.252048 
L 235.361016 216.912291 
L 236.398872 216.426635 
L 237.825925 215.478845 
L 240.809763 213.423799 
L 241.782754 213.061957 
L 242.885477 212.902664 
L 246.128779 212.841994 
L 247.231501 212.950131 
L 253.069445 213.902758 
L 255.599221 214.258065 
L 258.907389 214.837628 
L 260.269576 215.245587 
L 262.020959 216.046085 
L 263.577744 216.644677 
L 264.810199 216.869515 
L 265.912922 216.851016 
L 267.015645 216.61422 
L 268.377831 216.080579 
L 270.323813 215.06598 
L 273.696847 213.185383 
L 274.929302 212.919562 
L 278.172604 212.548958 
L 279.469925 212.670674 
L 281.091576 213.061107 
L 282.129433 213.517804 
L 282.907825 214.089252 
L 283.686218 214.947086 
L 284.46461 216.157676 
L 285.243003 217.790715 
L 286.086261 220.113903 
L 287.059252 223.50566 
L 289.783626 233.510679 
L 290.626884 235.530745 
L 291.405277 236.856119 
L 292.248535 237.854037 
L 293.091794 238.519503 
L 293.935052 238.928001 
L 294.972909 239.17623 
L 300.486523 240.096992 
L 302.432504 240.638473 
L 304.248753 241.077918 
L 308.07585 241.633079 
L 310.086697 241.963448 
L 312.162411 242.62118 
L 320.270666 245.228452 
L 324.746423 247.304033 
L 328.378921 249.62339 
L 329.805974 250.205861 
L 334.151999 251.685004 
L 338.498024 253.836795 
L 340.379139 254.874597 
L 342.779183 256.144834 
L 346.476547 258.552937 
L 348.681993 260.29296 
L 351.146902 262.437949 
L 355.94699 267.150318 
L 357.374043 269.090564 
L 359.125426 271.845416 
L 360.357881 274.186134 
L 362.109264 278.084345 
L 364.249843 282.765268 
L 365.2877 284.500295 
L 365.871494 285.141556 
L 366.390423 285.424565 
L 366.585021 285.45225 
L 366.585021 285.45225 
" clip-path="url(#pa2b998310d)" style="fill: none; stroke: #1f77b4; stroke-width: 1.5; stroke-linecap: square"/>
   </g>
   <g id="patch_3">
    <path d="M 56.6875 297.54825 
L 56.6875 31.43625 
" style="fill: none; stroke: #000000; stroke-width: 0.8; stroke-linejoin: miter; stroke-linecap: square"/>
   </g>
   <g id="patch_4">
    <path d="M 381.342045 297.54825 
L 381.342045 31.43625 
" style="fill: none; stroke: #000000; stroke-width: 0.8; stroke-linejoin: miter; stroke-linecap: square"/>
   </g>
   <g id="patch_5">
    <path d="M 56.6875 297.54825 
L 381.342045 297.54825 
" style="fill: none; stroke: #000000; stroke-width: 0.8; stroke-linejoin: miter; stroke-linecap: square"/>
   </g>
   <g id="patch_6">
    <path d="M 56.6875 31.43625 
L 381.342045 31.43625 
" style="fill: none; stroke: #000000; stroke-width: 0.8; stroke-linejoin: miter; stroke-linecap: square"/>
   </g>
   <g id="text_14">
    <!-- RF null Z position -->
    <g transform="translate(114.704773 25.43625)scale(0.24 -0.24)">
     <defs>
      <path id="DejaVuSans-52" d="M 2841 2188 
Q 3044 2119 3236 1894 
Q 3428 1669 3622 1275 
L 4263 0 
L 3584 0 
L 2988 1197 
Q 2756 1666 2539 1819 
Q 2322 1972 1947 1972 
L 1259 1972 
L 1259 0 
L 628 0 
L 628 4666 
L 2053 4666 
Q 2853 4666 3247 4331 
Q 3641 3997 3641 3322 
Q 3641 2881 3436 2590 
Q 3231 2300 2841 2188 
z
M 1259 4147 
L 1259 2491 
L 2053 2491 
Q 2509 2491 2742 2702 
Q 2975 2913 2975 3322 
Q 2975 3731 2742 3939 
Q 2509 4147 2053 4147 
L 1259 4147 
z
" transform="scale(0.015625)"/>
      <path id="DejaVuSans-46" d="M 628 4666 
L 3309 4666 
L 3309 4134 
L 1259 4134 
L 1259 2759 
L 3109 2759 
L 3109 2228 
L 1259 2228 
L 1259 0 
L 628 0 
L 628 4666 
z
" transform="scale(0.015625)"/>
      <path id="DejaVuSans-6e" d="M 3513 2113 
L 3513 0 
L 2938 0 
L 2938 2094 
Q 2938 2591 2744 2837 
Q 2550 3084 2163 3084 
Q 1697 3084 1428 2787 
Q 1159 2491 1159 1978 
L 1159 0 
L 581 0 
L 581 3500 
L 1159 3500 
L 1159 2956 
Q 1366 3272 1645 3428 
Q 1925 3584 2291 3584 
Q 2894 3584 3203 3211 
Q 3513 2838 3513 2113 
z
" transform="scale(0.015625)"/>
      <path id="DejaVuSans-75" d="M 544 1381 
L 544 3500 
L 1119 3500 
L 1119 1403 
Q 1119 906 1312 657 
Q 1506 409 1894 409 
Q 2359 409 2629 706 
Q 2900 1003 2900 1516 
L 2900 3500 
L 3475 3500 
L 3475 0 
L 2900 0 
L 2900 538 
Q 2691 219 2414 64 
Q 2138 -91 1772 -91 
Q 1169 -91 856 284 
Q 544 659 544 1381 
z
M 1991 3584 
L 1991 3584 
z
" transform="scale(0.015625)"/>
      <path id="DejaVuSans-6c" d="M 603 4863 
L 1178 4863 
L 1178 0 
L 603 0 
L 603 4863 
z
" transform="scale(0.015625)"/>
      <path id="DejaVuSans-70" d="M 1159 525 
L 1159 -1331 
L 581 -1331 
L 581 3500 
L 1159 3500 
L 1159 2969 
Q 1341 3281 1617 3432 
Q 1894 3584 2278 3584 
Q 2916 3584 3314 3078 
Q 3713 2572 3713 1747 
Q 3713 922 3314 415 
Q 2916 -91 2278 -91 
Q 1894 -91 1617 61 
Q 1341 213 1159 525 
z
M 3116 1747 
Q 3116 2381 2855 2742 
Q 2594 3103 2138 3103 
Q 1681 3103 1420 2742 
Q 1159 2381 1159 1747 
Q 1159 1113 1420 752 
Q 1681 391 2138 391 
Q 2594 391 2855 752 
Q 3116 1113 3116 1747 
z
" transform="scale(0.015625)"/>
      <path id="DejaVuSans-6f" d="M 1959 3097 
Q 1497 3097 1228 2736 
Q 959 2375 959 1747 
Q 959 1119 1226 758 
Q 1494 397 1959 397 
Q 2419 397 2687 759 
Q 2956 1122 2956 1747 
Q 2956 2369 2687 2733 
Q 2419 3097 1959 3097 
z
M 1959 3584 
Q 2709 3584 3137 3096 
Q 3566 2609 3566 1747 
Q 3566 888 3137 398 
Q 2709 -91 1959 -91 
Q 1206 -91 779 398 
Q 353 888 353 1747 
Q 353 2609 779 3096 
Q 1206 3584 1959 3584 
z
" transform="scale(0.015625)"/>
      <path id="DejaVuSans-73" d="M 2834 3397 
L 2834 2853 
Q 2591 2978 2328 3040 
Q 2066 3103 1784 3103 
Q 1356 3103 1142 2972 
Q 928 2841 928 2578 
Q 928 2378 1081 2264 
Q 1234 2150 1697 2047 
L 1894 2003 
Q 2506 1872 2764 1633 
Q 3022 1394 3022 966 
Q 3022 478 2636 193 
Q 2250 -91 1575 -91 
Q 1294 -91 989 -36 
Q 684 19 347 128 
L 347 722 
Q 666 556 975 473 
Q 1284 391 1588 391 
Q 1994 391 2212 530 
Q 2431 669 2431 922 
Q 2431 1156 2273 1281 
Q 2116 1406 1581 1522 
L 1381 1569 
Q 847 1681 609 1914 
Q 372 2147 372 2553 
Q 372 3047 722 3315 
Q 1072 3584 1716 3584 
Q 2034 3584 2315 3537 
Q 2597 3491 2834 3397 
z
" transform="scale(0.015625)"/>
      <path id="DejaVuSans-69" d="M 603 3500 
L 1178 3500 
L 1178 0 
L 603 0 
L 603 3500 
z
M 603 4863 
L 1178 4863 
L 1178 4134 
L 603 4134 
L 603 4863 
z
" transform="scale(0.015625)"/>
      <path id="DejaVuSans-74" d="M 1172 4494 
L 1172 3500 
L 2356 3500 
L 2356 3053 
L 1172 3053 
L 1172 1153 
Q 1172 725 1289 603 
Q 1406 481 1766 481 
L 2356 481 
L 2356 0 
L 1766 0 
Q 1100 0 847 248 
Q 594 497 594 1153 
L 594 3053 
L 172 3053 
L 172 3500 
L 594 3500 
L 594 4494 
L 1172 4494 
z
" transform="scale(0.015625)"/>
     </defs>
     <use xlink:href="#DejaVuSans-52"/>
     <use xlink:href="#DejaVuSans-46" x="69.482422"/>
     <use xlink:href="#DejaVuSans-20" x="127.001953"/>
     <use xlink:href="#DejaVuSans-6e" x="158.789062"/>
     <use xlink:href="#DejaVuSans-75" x="222.167969"/>
     <use xlink:href="#DejaVuSans-6c" x="285.546875"/>
     <use xlink:href="#DejaVuSans-6c" x="313.330078"/>
     <use xlink:href="#DejaVuSans-20" x="341.113281"/>
     <use xlink:href="#DejaVuSans-5a" x="372.900391"/>
     <use xlink:href="#DejaVuSans-20" x="441.40625"/>
     <use xlink:href="#DejaVuSans-70" x="473.193359"/>
     <use xlink:href="#DejaVuSans-6f" x="536.669922"/>
     <use xlink:href="#DejaVuSans-73" x="597.851562"/>
     <use xlink:href="#DejaVuSans-69" x="649.951172"/>
     <use xlink:href="#DejaVuSans-74" x="677.734375"/>
     <use xlink:href="#DejaVuSans-69" x="716.943359"/>
     <use xlink:href="#DejaVuSans-6f" x="744.726562"/>
     <use xlink:href="#DejaVuSans-6e" x="805.908203"/>
    </g>
   </g>
  </g>
  <g id="axes_2">
   <g id="patch_7">
    <path d="M 446.272955 297.54825 
L 770.9275 297.54825 
L 770.9275 31.43625 
L 446.272955 31.43625 
L 446.272955 297.54825 
z
" style="fill: none"/>
   </g>
   <g id="matplotlib.axis_3">
    <g id="xtick_6">
     <g id="line2d_24">
      <path d="M 475.300509 297.54825 
L 475.300509 31.43625 
" clip-path="url(#p6b381aa782)" style="fill: none; stroke: #b0b0b0; stroke-width: 0.8; stroke-linecap: square"/>
     </g>
     <g id="line2d_25">
      <g>
       <use xlink:href="#md39032bed2" x="475.300509" y="297.54825" style="stroke: #000000; stroke-width: 0.8"/>
      </g>
     </g>
     <g id="text_15">
      <!-- −3000 -->
      <g transform="translate(449.928243 315.945906)scale(0.15 -0.15)">
       <use xlink:href="#DejaVuSans-2212"/>
       <use xlink:href="#DejaVuSans-33" x="83.789062"/>
       <use xlink:href="#DejaVuSans-30" x="147.412109"/>
       <use xlink:href="#DejaVuSans-30" x="211.035156"/>
       <use xlink:href="#DejaVuSans-30" x="274.658203"/>
      </g>
     </g>
    </g>
    <g id="xtick_7">
     <g id="line2d_26">
      <path d="M 540.166552 297.54825 
L 540.166552 31.43625 
" clip-path="url(#p6b381aa782)" style="fill: none; stroke: #b0b0b0; stroke-width: 0.8; stroke-linecap: square"/>
     </g>
     <g id="line2d_27">
      <g>
       <use xlink:href="#md39032bed2" x="540.166552" y="297.54825" style="stroke: #000000; stroke-width: 0.8"/>
      </g>
     </g>
     <g id="text_16">
      <!-- −2000 -->
      <g transform="translate(514.794286 315.945906)scale(0.15 -0.15)">
       <use xlink:href="#DejaVuSans-2212"/>
       <use xlink:href="#DejaVuSans-32" x="83.789062"/>
       <use xlink:href="#DejaVuSans-30" x="147.412109"/>
       <use xlink:href="#DejaVuSans-30" x="211.035156"/>
       <use xlink:href="#DejaVuSans-30" x="274.658203"/>
      </g>
     </g>
    </g>
    <g id="xtick_8">
     <g id="line2d_28">
      <path d="M 605.032595 297.54825 
L 605.032595 31.43625 
" clip-path="url(#p6b381aa782)" style="fill: none; stroke: #b0b0b0; stroke-width: 0.8; stroke-linecap: square"/>
     </g>
     <g id="line2d_29">
      <g>
       <use xlink:href="#md39032bed2" x="605.032595" y="297.54825" style="stroke: #000000; stroke-width: 0.8"/>
      </g>
     </g>
     <g id="text_17">
      <!-- −1000 -->
      <g transform="translate(579.660329 315.945906)scale(0.15 -0.15)">
       <use xlink:href="#DejaVuSans-2212"/>
       <use xlink:href="#DejaVuSans-31" x="83.789062"/>
       <use xlink:href="#DejaVuSans-30" x="147.412109"/>
       <use xlink:href="#DejaVuSans-30" x="211.035156"/>
       <use xlink:href="#DejaVuSans-30" x="274.658203"/>
      </g>
     </g>
    </g>
    <g id="xtick_9">
     <g id="line2d_30">
      <path d="M 669.898638 297.54825 
L 669.898638 31.43625 
" clip-path="url(#p6b381aa782)" style="fill: none; stroke: #b0b0b0; stroke-width: 0.8; stroke-linecap: square"/>
     </g>
     <g id="line2d_31">
      <g>
       <use xlink:href="#md39032bed2" x="669.898638" y="297.54825" style="stroke: #000000; stroke-width: 0.8"/>
      </g>
     </g>
     <g id="text_18">
      <!-- 0 -->
      <g transform="translate(665.126763 315.945906)scale(0.15 -0.15)">
       <use xlink:href="#DejaVuSans-30"/>
      </g>
     </g>
    </g>
    <g id="xtick_10">
     <g id="line2d_32">
      <path d="M 734.764681 297.54825 
L 734.764681 31.43625 
" clip-path="url(#p6b381aa782)" style="fill: none; stroke: #b0b0b0; stroke-width: 0.8; stroke-linecap: square"/>
     </g>
     <g id="line2d_33">
      <g>
       <use xlink:href="#md39032bed2" x="734.764681" y="297.54825" style="stroke: #000000; stroke-width: 0.8"/>
      </g>
     </g>
     <g id="text_19">
      <!-- 1000 -->
      <g transform="translate(715.677181 315.945906)scale(0.15 -0.15)">
       <use xlink:href="#DejaVuSans-31"/>
       <use xlink:href="#DejaVuSans-30" x="63.623047"/>
       <use xlink:href="#DejaVuSans-30" x="127.246094"/>
       <use xlink:href="#DejaVuSans-30" x="190.869141"/>
      </g>
     </g>
    </g>
    <g id="text_20">
     <!-- X ($\mu$m) -->
     <g transform="translate(574.600227 338.265437)scale(0.2 -0.2)">
      <use xlink:href="#DejaVuSans-58" transform="translate(0 0.125)"/>
      <use xlink:href="#DejaVuSans-20" transform="translate(68.505859 0.125)"/>
      <use xlink:href="#DejaVuSans-28" transform="translate(100.292969 0.125)"/>
      <use xlink:href="#DejaVuSans-Oblique-3bc" transform="translate(139.306641 0.125)"/>
      <use xlink:href="#DejaVuSans-6d" transform="translate(202.929688 0.125)"/>
      <use xlink:href="#DejaVuSans-29" transform="translate(300.341797 0.125)"/>
     </g>
    </g>
   </g>
   <g id="matplotlib.axis_4">
    <g id="ytick_7">
     <g id="line2d_34">
      <path d="M 446.272955 263.643617 
L 770.9275 263.643617 
" clip-path="url(#p6b381aa782)" style="fill: none; stroke: #b0b0b0; stroke-width: 0.8; stroke-linecap: square"/>
     </g>
     <g id="line2d_35">
      <g>
       <use xlink:href="#m6f3f5b6aff" x="446.272955" y="263.643617" style="stroke: #000000; stroke-width: 0.8"/>
      </g>
     </g>
     <g id="text_21">
      <!-- −2 -->
      <g transform="translate(417.159673 269.342445)scale(0.15 -0.15)">
       <use xlink:href="#DejaVuSans-2212"/>
       <use xlink:href="#DejaVuSans-32" x="83.789062"/>
      </g>
     </g>
    </g>
    <g id="ytick_8">
     <g id="line2d_36">
      <path d="M 446.272955 212.614934 
L 770.9275 212.614934 
" clip-path="url(#p6b381aa782)" style="fill: none; stroke: #b0b0b0; stroke-width: 0.8; stroke-linecap: square"/>
     </g>
     <g id="line2d_37">
      <g>
       <use xlink:href="#m6f3f5b6aff" x="446.272955" y="212.614934" style="stroke: #000000; stroke-width: 0.8"/>
      </g>
     </g>
     <g id="text_22">
      <!-- −1 -->
      <g transform="translate(417.159673 218.313762)scale(0.15 -0.15)">
       <use xlink:href="#DejaVuSans-2212"/>
       <use xlink:href="#DejaVuSans-31" x="83.789062"/>
      </g>
     </g>
    </g>
    <g id="ytick_9">
     <g id="line2d_38">
      <path d="M 446.272955 161.586251 
L 770.9275 161.586251 
" clip-path="url(#p6b381aa782)" style="fill: none; stroke: #b0b0b0; stroke-width: 0.8; stroke-linecap: square"/>
     </g>
     <g id="line2d_39">
      <g>
       <use xlink:href="#m6f3f5b6aff" x="446.272955" y="161.586251" style="stroke: #000000; stroke-width: 0.8"/>
      </g>
     </g>
     <g id="text_23">
      <!-- 0 -->
      <g transform="translate(429.729205 167.285079)scale(0.15 -0.15)">
       <use xlink:href="#DejaVuSans-30"/>
      </g>
     </g>
    </g>
    <g id="ytick_10">
     <g id="line2d_40">
      <path d="M 446.272955 110.557569 
L 770.9275 110.557569 
" clip-path="url(#p6b381aa782)" style="fill: none; stroke: #b0b0b0; stroke-width: 0.8; stroke-linecap: square"/>
     </g>
     <g id="line2d_41">
      <g>
       <use xlink:href="#m6f3f5b6aff" x="446.272955" y="110.557569" style="stroke: #000000; stroke-width: 0.8"/>
      </g>
     </g>
     <g id="text_24">
      <!-- 1 -->
      <g transform="translate(429.729205 116.256397)scale(0.15 -0.15)">
       <use xlink:href="#DejaVuSans-31"/>
      </g>
     </g>
    </g>
    <g id="ytick_11">
     <g id="line2d_42">
      <path d="M 446.272955 59.528886 
L 770.9275 59.528886 
" clip-path="url(#p6b381aa782)" style="fill: none; stroke: #b0b0b0; stroke-width: 0.8; stroke-linecap: square"/>
     </g>
     <g id="line2d_43">
      <g>
       <use xlink:href="#m6f3f5b6aff" x="446.272955" y="59.528886" style="stroke: #000000; stroke-width: 0.8"/>
      </g>
     </g>
     <g id="text_25">
      <!-- 2 -->
      <g transform="translate(429.729205 65.227714)scale(0.15 -0.15)">
       <use xlink:href="#DejaVuSans-32"/>
      </g>
     </g>
    </g>
    <g id="text_26">
     <!-- Y ($\mu$m) -->
     <g transform="translate(408.959673 197.69225)rotate(-90)scale(0.2 -0.2)">
      <defs>
       <path id="DejaVuSans-59" d="M -13 4666 
L 666 4666 
L 1959 2747 
L 3244 4666 
L 3922 4666 
L 2272 2222 
L 2272 0 
L 1638 0 
L 1638 2222 
L -13 4666 
z
" transform="scale(0.015625)"/>
      </defs>
      <use xlink:href="#DejaVuSans-59" transform="translate(0 0.125)"/>
      <use xlink:href="#DejaVuSans-20" transform="translate(61.083984 0.125)"/>
      <use xlink:href="#DejaVuSans-28" transform="translate(92.871094 0.125)"/>
      <use xlink:href="#DejaVuSans-Oblique-3bc" transform="translate(131.884766 0.125)"/>
      <use xlink:href="#DejaVuSans-6d" transform="translate(195.507812 0.125)"/>
      <use xlink:href="#DejaVuSans-29" transform="translate(292.919922 0.125)"/>
     </g>
    </g>
   </g>
   <g id="line2d_44">
    <path d="M 461.029979 137.152189 
L 461.743506 137.296988 
L 462.716496 137.329305 
L 464.46788 137.096423 
L 466.413861 136.584216 
L 469.073369 135.638057 
L 473.224795 133.903338 
L 475.495107 132.990307 
L 479.905998 131.457527 
L 483.084434 130.290506 
L 486.652066 128.716036 
L 488.468316 127.67029 
L 489.765636 126.679562 
L 490.868359 125.547294 
L 491.84135 124.183483 
L 492.684608 122.580081 
L 493.463001 120.618251 
L 494.241393 118.037078 
L 495.084652 114.403284 
L 495.992777 109.439901 
L 497.225231 101.261889 
L 499.236079 87.812753 
L 500.209069 82.871475 
L 500.987462 79.944646 
L 501.765854 77.901625 
L 502.414515 76.78451 
L 503.063175 76.138335 
L 503.64697 75.887526 
L 504.29563 75.917182 
L 504.94429 76.174497 
L 505.982147 76.856305 
L 508.057861 78.149897 
L 509.095717 78.467577 
L 510.19844 78.549776 
L 511.430895 78.416696 
L 513.766072 77.822557 
L 517.463437 76.491301 
L 520.122945 75.217815 
L 525.11763 72.756303 
L 529.009592 70.858773 
L 531.798832 69.288926 
L 535.690795 67.221715 
L 537.117848 66.513557 
L 542.696328 63.83161 
L 546.782888 62.125315 
L 548.72887 61.017169 
L 550.220789 59.905137 
L 551.582975 58.635651 
L 552.750564 57.261902 
L 553.853287 55.644049 
L 555.085742 53.400037 
L 556.772259 49.873165 
L 558.134446 47.247427 
L 559.172302 45.687077 
L 560.015561 44.752182 
L 560.923686 44.067212 
L 561.766944 43.695785 
L 562.739935 43.532382 
L 563.648059 43.628354 
L 564.556184 43.961552 
L 565.464309 44.571582 
L 566.307567 45.427214 
L 566.956228 46.319993 
L 567.994084 48.290274 
L 568.772477 50.339434 
L 569.550869 53.016564 
L 570.329262 56.438086 
L 571.17252 61.122804 
L 572.145511 67.943799 
L 573.183368 76.998348 
L 574.350957 89.384203 
L 576.10234 110.735501 
L 577.853723 130.899277 
L 578.956446 140.976709 
L 579.86457 147.418866 
L 580.707829 151.980624 
L 581.551087 155.386495 
L 582.459212 158.116721 
L 583.626801 160.867155 
L 585.897112 166.147545 
L 588.426888 172.347154 
L 589.140414 173.480674 
L 589.724209 174.049098 
L 590.243137 174.273948 
L 590.762065 174.2566 
L 591.34586 173.996185 
L 592.124252 173.374841 
L 594.978358 170.867757 
L 595.886483 170.45 
L 596.859473 170.241352 
L 598.740589 170.344366 
L 601.33523 170.892817 
L 603.281212 171.471607 
L 604.902863 172.204026 
L 607.302906 173.585683 
L 609.313754 174.985573 
L 610.870539 176.331974 
L 612.102994 177.712396 
L 613.270582 179.379172 
L 615.151698 182.586455 
L 616.643617 184.961792 
L 617.746339 186.318874 
L 618.913928 187.370636 
L 620.146383 188.154962 
L 621.378838 188.695067 
L 622.611293 189.008375 
L 624.62214 188.911159 
L 625.530265 188.537477 
L 626.438389 187.907225 
L 627.541112 186.80968 
L 630.52495 183.62985 
L 631.562807 182.972589 
L 632.600663 182.574445 
L 633.833118 182.337619 
L 635.519635 182.234839 
L 636.42776 182.192598 
L 639.411598 182.219413 
L 641.746775 182.517988 
L 645.44414 183.185124 
L 647.844183 183.785385 
L 649.076638 184.326711 
L 650.179361 185.04744 
L 651.606414 186.277502 
L 653.228065 187.639463 
L 654.071323 188.074167 
L 654.979448 188.277626 
L 656.406501 188.382817 
L 657.314626 188.641438 
L 658.028152 189.074311 
L 658.806545 189.819223 
L 659.649803 190.937715 
L 660.817392 192.893465 
L 663.347168 197.274693 
L 664.514756 198.809067 
L 665.812077 200.149491 
L 668.212121 202.224881 
L 670.093236 203.977412 
L 671.195959 205.292667 
L 672.104083 206.731834 
L 672.882476 208.40528 
L 673.596002 210.466268 
L 674.309529 213.195767 
L 675.087921 217.118588 
L 675.93118 222.555947 
L 677.098769 231.759015 
L 679.174482 248.409854 
L 680.147473 254.326341 
L 680.990731 258.168168 
L 681.83399 260.982441 
L 682.677248 263.011307 
L 683.520507 264.480991 
L 684.493498 265.738308 
L 685.59622 266.797597 
L 686.828675 267.6804 
L 688.125996 268.348087 
L 689.617915 268.856884 
L 691.109834 269.126999 
L 695.261261 269.620782 
L 696.818046 270.22905 
L 700.061348 271.478478 
L 703.823578 272.54718 
L 708.623666 273.86882 
L 711.542638 274.413113 
L 713.229155 274.525936 
L 714.591342 274.392792 
L 715.953529 274.079406 
L 717.185983 273.906109 
L 718.029242 274.014634 
L 718.8725 274.354801 
L 720.104955 275.127589 
L 722.375267 276.553913 
L 724.061784 277.310518 
L 726.332095 278.104673 
L 740.732357 282.58105 
L 742.094544 283.456518 
L 744.170257 284.798184 
L 745.337846 285.252813 
L 746.440569 285.440649 
L 747.543291 285.393885 
L 748.516282 285.127987 
L 749.424407 284.636256 
L 750.332531 283.856211 
L 751.240656 282.760457 
L 752.278513 281.150391 
L 753.316369 279.221635 
L 755.586681 273.499898 
L 756.170475 271.375057 
L 756.170475 271.375057 
" clip-path="url(#p6b381aa782)" style="fill: none; stroke: #1f77b4; stroke-width: 1.5; stroke-linecap: square"/>
   </g>
   <g id="patch_8">
    <path d="M 446.272955 297.54825 
L 446.272955 31.43625 
" style="fill: none; stroke: #000000; stroke-width: 0.8; stroke-linejoin: miter; stroke-linecap: square"/>
   </g>
   <g id="patch_9">
    <path d="M 770.9275 297.54825 
L 770.9275 31.43625 
" style="fill: none; stroke: #000000; stroke-width: 0.8; stroke-linejoin: miter; stroke-linecap: square"/>
   </g>
   <g id="patch_10">
    <path d="M 446.272955 297.54825 
L 770.9275 297.54825 
" style="fill: none; stroke: #000000; stroke-width: 0.8; stroke-linejoin: miter; stroke-linecap: square"/>
   </g>
   <g id="patch_11">
    <path d="M 446.272955 31.43625 
L 770.9275 31.43625 
" style="fill: none; stroke: #000000; stroke-width: 0.8; stroke-linejoin: miter; stroke-linecap: square"/>
   </g>
   <g id="text_27">
    <!-- RF null Y position -->
    <g transform="translate(505.180852 25.43625)scale(0.24 -0.24)">
     <use xlink:href="#DejaVuSans-52"/>
     <use xlink:href="#DejaVuSans-46" x="69.482422"/>
     <use xlink:href="#DejaVuSans-20" x="127.001953"/>
     <use xlink:href="#DejaVuSans-6e" x="158.789062"/>
     <use xlink:href="#DejaVuSans-75" x="222.167969"/>
     <use xlink:href="#DejaVuSans-6c" x="285.546875"/>
     <use xlink:href="#DejaVuSans-6c" x="313.330078"/>
     <use xlink:href="#DejaVuSans-20" x="341.113281"/>
     <use xlink:href="#DejaVuSans-59" x="372.900391"/>
     <use xlink:href="#DejaVuSans-20" x="433.984375"/>
     <use xlink:href="#DejaVuSans-70" x="465.771484"/>
     <use xlink:href="#DejaVuSans-6f" x="529.248047"/>
     <use xlink:href="#DejaVuSans-73" x="590.429688"/>
     <use xlink:href="#DejaVuSans-69" x="642.529297"/>
     <use xlink:href="#DejaVuSans-74" x="670.3125"/>
     <use xlink:href="#DejaVuSans-69" x="709.521484"/>
     <use xlink:href="#DejaVuSans-6f" x="737.304688"/>
     <use xlink:href="#DejaVuSans-6e" x="798.486328"/>
    </g>
   </g>
  </g>
 </g>
 <defs>
  <clipPath id="pa2b998310d">
   <rect x="56.6875" y="31.43625" width="324.654545" height="266.112"/>
  </clipPath>
  <clipPath id="p6b381aa782">
   <rect x="446.272955" y="31.43625" width="324.654545" height="266.112"/>
  </clipPath>
 </defs>
</svg>
