<?xml version="1.0" encoding="utf-8" standalone="no"?>
<!DOCTYPE svg PUBLIC "-//W3C//DTD SVG 1.1//EN"
  "http://www.w3.org/Graphics/SVG/1.1/DTD/svg11.dtd">
<svg xmlns:xlink="http://www.w3.org/1999/xlink" width="889.1675pt" height="312.793437pt" viewBox="0 0 889.1675 312.793437" xmlns="http://www.w3.org/2000/svg" version="1.1">
 <defs>
  <style type="text/css">*{stroke-linejoin: round; stroke-linecap: butt}</style>
 </defs>
 <g id="figure_1">
  <g id="patch_1">
   <path d="M 0 312.793437 
L 889.1675 312.793437 
L 889.1675 0 
L 0 0 
L 0 312.793437 
z
" style="fill: none"/>
  </g>
  <g id="axes_1">
   <g id="patch_2">
    <path d="M 56.6875 260.67625 
L 418.5125 260.67625 
L 418.5125 31.43625 
L 56.6875 31.43625 
L 56.6875 260.67625 
z
" style="fill: none"/>
   </g>
   <g id="matplotlib.axis_1">
    <g id="xtick_1">
     <g id="line2d_1">
      <path d="M 97.629014 260.67625 
L 97.629014 31.43625 
" clip-path="url(#p6b80884790)" style="fill: none; stroke: #b0b0b0; stroke-width: 0.8; stroke-linecap: square"/>
     </g>
     <g id="line2d_2">
      <defs>
       <path id="md39032bed2" d="M 0 0 
L 0 3.5 
" style="stroke: #000000; stroke-width: 0.8"/>
      </defs>
      <g>
       <use xlink:href="#md39032bed2" x="97.629014" y="260.67625" style="stroke: #000000; stroke-width: 0.8"/>
      </g>
     </g>
     <g id="text_1">
      <!-- −2000 -->
      <g transform="translate(72.256748 279.073906)scale(0.15 -0.15)">
       <defs>
        <path id="DejaVuSans-2212" d="M 678 2272 
L 4684 2272 
L 4684 1741 
L 678 1741 
L 678 2272 
z
" transform="scale(0.015625)"/>
        <path id="DejaVuSans-32" d="M 1228 531 
L 3431 531 
L 3431 0 
L 469 0 
L 469 531 
Q 828 903 1448 1529 
Q 2069 2156 2228 2338 
Q 2531 2678 2651 2914 
Q 2772 3150 2772 3378 
Q 2772 3750 2511 3984 
Q 2250 4219 1831 4219 
Q 1534 4219 1204 4116 
Q 875 4013 500 3803 
L 500 4441 
Q 881 4594 1212 4672 
Q 1544 4750 1819 4750 
Q 2544 4750 2975 4387 
Q 3406 4025 3406 3419 
Q 3406 3131 3298 2873 
Q 3191 2616 2906 2266 
Q 2828 2175 2409 1742 
Q 1991 1309 1228 531 
z
" transform="scale(0.015625)"/>
        <path id="DejaVuSans-30" d="M 2034 4250 
Q 1547 4250 1301 3770 
Q 1056 3291 1056 2328 
Q 1056 1369 1301 889 
Q 1547 409 2034 409 
Q 2525 409 2770 889 
Q 3016 1369 3016 2328 
Q 3016 3291 2770 3770 
Q 2525 4250 2034 4250 
z
M 2034 4750 
Q 2819 4750 3233 4129 
Q 3647 3509 3647 2328 
Q 3647 1150 3233 529 
Q 2819 -91 2034 -91 
Q 1250 -91 836 529 
Q 422 1150 422 2328 
Q 422 3509 836 4129 
Q 1250 4750 2034 4750 
z
" transform="scale(0.015625)"/>
       </defs>
       <use xlink:href="#DejaVuSans-2212"/>
       <use xlink:href="#DejaVuSans-32" x="83.789062"/>
       <use xlink:href="#DejaVuSans-30" x="147.412109"/>
       <use xlink:href="#DejaVuSans-30" x="211.035156"/>
       <use xlink:href="#DejaVuSans-30" x="274.658203"/>
      </g>
     </g>
    </g>
    <g id="xtick_2">
     <g id="line2d_3">
      <path d="M 167.614507 260.67625 
L 167.614507 31.43625 
" clip-path="url(#p6b80884790)" style="fill: none; stroke: #b0b0b0; stroke-width: 0.8; stroke-linecap: square"/>
     </g>
     <g id="line2d_4">
      <g>
       <use xlink:href="#md39032bed2" x="167.614507" y="260.67625" style="stroke: #000000; stroke-width: 0.8"/>
      </g>
     </g>
     <g id="text_2">
      <!-- −1000 -->
      <g transform="translate(142.242241 279.073906)scale(0.15 -0.15)">
       <defs>
        <path id="DejaVuSans-31" d="M 794 531 
L 1825 531 
L 1825 4091 
L 703 3866 
L 703 4441 
L 1819 4666 
L 2450 4666 
L 2450 531 
L 3481 531 
L 3481 0 
L 794 0 
L 794 531 
z
" transform="scale(0.015625)"/>
       </defs>
       <use xlink:href="#DejaVuSans-2212"/>
       <use xlink:href="#DejaVuSans-31" x="83.789062"/>
       <use xlink:href="#DejaVuSans-30" x="147.412109"/>
       <use xlink:href="#DejaVuSans-30" x="211.035156"/>
       <use xlink:href="#DejaVuSans-30" x="274.658203"/>
      </g>
     </g>
    </g>
    <g id="xtick_3">
     <g id="line2d_5">
      <path d="M 237.6 260.67625 
L 237.6 31.43625 
" clip-path="url(#p6b80884790)" style="fill: none; stroke: #b0b0b0; stroke-width: 0.8; stroke-linecap: square"/>
     </g>
     <g id="line2d_6">
      <g>
       <use xlink:href="#md39032bed2" x="237.6" y="260.67625" style="stroke: #000000; stroke-width: 0.8"/>
      </g>
     </g>
     <g id="text_3">
      <!-- 0 -->
      <g transform="translate(232.828125 279.073906)scale(0.15 -0.15)">
       <use xlink:href="#DejaVuSans-30"/>
      </g>
     </g>
    </g>
    <g id="xtick_4">
     <g id="line2d_7">
      <path d="M 307.585493 260.67625 
L 307.585493 31.43625 
" clip-path="url(#p6b80884790)" style="fill: none; stroke: #b0b0b0; stroke-width: 0.8; stroke-linecap: square"/>
     </g>
     <g id="line2d_8">
      <g>
       <use xlink:href="#md39032bed2" x="307.585493" y="260.67625" style="stroke: #000000; stroke-width: 0.8"/>
      </g>
     </g>
     <g id="text_4">
      <!-- 1000 -->
      <g transform="translate(288.497993 279.073906)scale(0.15 -0.15)">
       <use xlink:href="#DejaVuSans-31"/>
       <use xlink:href="#DejaVuSans-30" x="63.623047"/>
       <use xlink:href="#DejaVuSans-30" x="127.246094"/>
       <use xlink:href="#DejaVuSans-30" x="190.869141"/>
      </g>
     </g>
    </g>
    <g id="xtick_5">
     <g id="line2d_9">
      <path d="M 377.570986 260.67625 
L 377.570986 31.43625 
" clip-path="url(#p6b80884790)" style="fill: none; stroke: #b0b0b0; stroke-width: 0.8; stroke-linecap: square"/>
     </g>
     <g id="line2d_10">
      <g>
       <use xlink:href="#md39032bed2" x="377.570986" y="260.67625" style="stroke: #000000; stroke-width: 0.8"/>
      </g>
     </g>
     <g id="text_5">
      <!-- 2000 -->
      <g transform="translate(358.483486 279.073906)scale(0.15 -0.15)">
       <use xlink:href="#DejaVuSans-32"/>
       <use xlink:href="#DejaVuSans-30" x="63.623047"/>
       <use xlink:href="#DejaVuSans-30" x="127.246094"/>
       <use xlink:href="#DejaVuSans-30" x="190.869141"/>
      </g>
     </g>
    </g>
    <g id="text_6">
     <!-- X ($\mu$m) -->
     <g transform="translate(203.6 301.393437)scale(0.2 -0.2)">
      <defs>
       <path id="DejaVuSans-58" d="M 403 4666 
L 1081 4666 
L 2241 2931 
L 3406 4666 
L 4084 4666 
L 2584 2425 
L 4184 0 
L 3506 0 
L 2194 1984 
L 872 0 
L 191 0 
L 1856 2491 
L 403 4666 
z
" transform="scale(0.015625)"/>
       <path id="DejaVuSans-20" transform="scale(0.015625)"/>
       <path id="DejaVuSans-28" d="M 1984 4856 
Q 1566 4138 1362 3434 
Q 1159 2731 1159 2009 
Q 1159 1288 1364 580 
Q 1569 -128 1984 -844 
L 1484 -844 
Q 1016 -109 783 600 
Q 550 1309 550 2009 
Q 550 2706 781 3412 
Q 1013 4119 1484 4856 
L 1984 4856 
z
" transform="scale(0.015625)"/>
       <path id="DejaVuSans-Oblique-3bc" d="M -84 -1331 
L 856 3500 
L 1434 3500 
L 1009 1322 
Q 997 1256 987 1175 
Q 978 1094 978 1013 
Q 978 722 1161 565 
Q 1344 409 1684 409 
Q 2147 409 2431 671 
Q 2716 934 2816 1459 
L 3213 3500 
L 3788 3500 
L 3266 809 
Q 3253 750 3248 706 
Q 3244 663 3244 628 
Q 3244 531 3283 486 
Q 3322 441 3406 441 
Q 3438 441 3492 456 
Q 3547 472 3647 513 
L 3559 50 
Q 3422 -19 3297 -55 
Q 3172 -91 3053 -91 
Q 2847 -91 2730 40 
Q 2613 172 2613 403 
Q 2438 153 2195 31 
Q 1953 -91 1625 -91 
Q 1334 -91 1117 43 
Q 900 178 831 397 
L 494 -1331 
L -84 -1331 
z
" transform="scale(0.015625)"/>
       <path id="DejaVuSans-6d" d="M 3328 2828 
Q 3544 3216 3844 3400 
Q 4144 3584 4550 3584 
Q 5097 3584 5394 3201 
Q 5691 2819 5691 2113 
L 5691 0 
L 5113 0 
L 5113 2094 
Q 5113 2597 4934 2840 
Q 4756 3084 4391 3084 
Q 3944 3084 3684 2787 
Q 3425 2491 3425 1978 
L 3425 0 
L 2847 0 
L 2847 2094 
Q 2847 2600 2669 2842 
Q 2491 3084 2119 3084 
Q 1678 3084 1418 2786 
Q 1159 2488 1159 1978 
L 1159 0 
L 581 0 
L 581 3500 
L 1159 3500 
L 1159 2956 
Q 1356 3278 1631 3431 
Q 1906 3584 2284 3584 
Q 2666 3584 2933 3390 
Q 3200 3197 3328 2828 
z
" transform="scale(0.015625)"/>
       <path id="DejaVuSans-29" d="M 513 4856 
L 1013 4856 
Q 1481 4119 1714 3412 
Q 1947 2706 1947 2009 
Q 1947 1309 1714 600 
Q 1481 -109 1013 -844 
L 513 -844 
Q 928 -128 1133 580 
Q 1338 1288 1338 2009 
Q 1338 2731 1133 3434 
Q 928 4138 513 4856 
z
" transform="scale(0.015625)"/>
      </defs>
      <use xlink:href="#DejaVuSans-58" transform="translate(0 0.125)"/>
      <use xlink:href="#DejaVuSans-20" transform="translate(68.505859 0.125)"/>
      <use xlink:href="#DejaVuSans-28" transform="translate(100.292969 0.125)"/>
      <use xlink:href="#DejaVuSans-Oblique-3bc" transform="translate(139.306641 0.125)"/>
      <use xlink:href="#DejaVuSans-6d" transform="translate(202.929688 0.125)"/>
      <use xlink:href="#DejaVuSans-29" transform="translate(300.341797 0.125)"/>
     </g>
    </g>
   </g>
   <g id="matplotlib.axis_2">
    <g id="ytick_1">
     <g id="line2d_11">
      <path d="M 56.6875 232.206772 
L 418.5125 232.206772 
" clip-path="url(#p6b80884790)" style="fill: none; stroke: #b0b0b0; stroke-width: 0.8; stroke-linecap: square"/>
     </g>
     <g id="line2d_12">
      <defs>
       <path id="m6f3f5b6aff" d="M 0 0 
L -3.5 0 
" style="stroke: #000000; stroke-width: 0.8"/>
      </defs>
      <g>
       <use xlink:href="#m6f3f5b6aff" x="56.6875" y="232.206772" style="stroke: #000000; stroke-width: 0.8"/>
      </g>
     </g>
     <g id="text_7">
      <!-- 60 -->
      <g transform="translate(30.6 237.9056)scale(0.15 -0.15)">
       <defs>
        <path id="DejaVuSans-36" d="M 2113 2584 
Q 1688 2584 1439 2293 
Q 1191 2003 1191 1497 
Q 1191 994 1439 701 
Q 1688 409 2113 409 
Q 2538 409 2786 701 
Q 3034 994 3034 1497 
Q 3034 2003 2786 2293 
Q 2538 2584 2113 2584 
z
M 3366 4563 
L 3366 3988 
Q 3128 4100 2886 4159 
Q 2644 4219 2406 4219 
Q 1781 4219 1451 3797 
Q 1122 3375 1075 2522 
Q 1259 2794 1537 2939 
Q 1816 3084 2150 3084 
Q 2853 3084 3261 2657 
Q 3669 2231 3669 1497 
Q 3669 778 3244 343 
Q 2819 -91 2113 -91 
Q 1303 -91 875 529 
Q 447 1150 447 2328 
Q 447 3434 972 4092 
Q 1497 4750 2381 4750 
Q 2619 4750 2861 4703 
Q 3103 4656 3366 4563 
z
" transform="scale(0.015625)"/>
       </defs>
       <use xlink:href="#DejaVuSans-36"/>
       <use xlink:href="#DejaVuSans-30" x="63.623047"/>
      </g>
     </g>
    </g>
    <g id="ytick_2">
     <g id="line2d_13">
      <path d="M 56.6875 197.119135 
L 418.5125 197.119135 
" clip-path="url(#p6b80884790)" style="fill: none; stroke: #b0b0b0; stroke-width: 0.8; stroke-linecap: square"/>
     </g>
     <g id="line2d_14">
      <g>
       <use xlink:href="#m6f3f5b6aff" x="56.6875" y="197.119135" style="stroke: #000000; stroke-width: 0.8"/>
      </g>
     </g>
     <g id="text_8">
      <!-- 65 -->
      <g transform="translate(30.6 202.817964)scale(0.15 -0.15)">
       <defs>
        <path id="DejaVuSans-35" d="M 691 4666 
L 3169 4666 
L 3169 4134 
L 1269 4134 
L 1269 2991 
Q 1406 3038 1543 3061 
Q 1681 3084 1819 3084 
Q 2600 3084 3056 2656 
Q 3513 2228 3513 1497 
Q 3513 744 3044 326 
Q 2575 -91 1722 -91 
Q 1428 -91 1123 -41 
Q 819 9 494 109 
L 494 744 
Q 775 591 1075 516 
Q 1375 441 1709 441 
Q 2250 441 2565 725 
Q 2881 1009 2881 1497 
Q 2881 1984 2565 2268 
Q 2250 2553 1709 2553 
Q 1456 2553 1204 2497 
Q 953 2441 691 2322 
L 691 4666 
z
" transform="scale(0.015625)"/>
       </defs>
       <use xlink:href="#DejaVuSans-36"/>
       <use xlink:href="#DejaVuSans-35" x="63.623047"/>
      </g>
     </g>
    </g>
    <g id="ytick_3">
     <g id="line2d_15">
      <path d="M 56.6875 162.031499 
L 418.5125 162.031499 
" clip-path="url(#p6b80884790)" style="fill: none; stroke: #b0b0b0; stroke-width: 0.8; stroke-linecap: square"/>
     </g>
     <g id="line2d_16">
      <g>
       <use xlink:href="#m6f3f5b6aff" x="56.6875" y="162.031499" style="stroke: #000000; stroke-width: 0.8"/>
      </g>
     </g>
     <g id="text_9">
      <!-- 70 -->
      <g transform="translate(30.6 167.730327)scale(0.15 -0.15)">
       <defs>
        <path id="DejaVuSans-37" d="M 525 4666 
L 3525 4666 
L 3525 4397 
L 1831 0 
L 1172 0 
L 2766 4134 
L 525 4134 
L 525 4666 
z
" transform="scale(0.015625)"/>
       </defs>
       <use xlink:href="#DejaVuSans-37"/>
       <use xlink:href="#DejaVuSans-30" x="63.623047"/>
      </g>
     </g>
    </g>
    <g id="ytick_4">
     <g id="line2d_17">
      <path d="M 56.6875 126.943862 
L 418.5125 126.943862 
" clip-path="url(#p6b80884790)" style="fill: none; stroke: #b0b0b0; stroke-width: 0.8; stroke-linecap: square"/>
     </g>
     <g id="line2d_18">
      <g>
       <use xlink:href="#m6f3f5b6aff" x="56.6875" y="126.943862" style="stroke: #000000; stroke-width: 0.8"/>
      </g>
     </g>
     <g id="text_10">
      <!-- 75 -->
      <g transform="translate(30.6 132.64269)scale(0.15 -0.15)">
       <use xlink:href="#DejaVuSans-37"/>
       <use xlink:href="#DejaVuSans-35" x="63.623047"/>
      </g>
     </g>
    </g>
    <g id="ytick_5">
     <g id="line2d_19">
      <path d="M 56.6875 91.856225 
L 418.5125 91.856225 
" clip-path="url(#p6b80884790)" style="fill: none; stroke: #b0b0b0; stroke-width: 0.8; stroke-linecap: square"/>
     </g>
     <g id="line2d_20">
      <g>
       <use xlink:href="#m6f3f5b6aff" x="56.6875" y="91.856225" style="stroke: #000000; stroke-width: 0.8"/>
      </g>
     </g>
     <g id="text_11">
      <!-- 80 -->
      <g transform="translate(30.6 97.555053)scale(0.15 -0.15)">
       <defs>
        <path id="DejaVuSans-38" d="M 2034 2216 
Q 1584 2216 1326 1975 
Q 1069 1734 1069 1313 
Q 1069 891 1326 650 
Q 1584 409 2034 409 
Q 2484 409 2743 651 
Q 3003 894 3003 1313 
Q 3003 1734 2745 1975 
Q 2488 2216 2034 2216 
z
M 1403 2484 
Q 997 2584 770 2862 
Q 544 3141 544 3541 
Q 544 4100 942 4425 
Q 1341 4750 2034 4750 
Q 2731 4750 3128 4425 
Q 3525 4100 3525 3541 
Q 3525 3141 3298 2862 
Q 3072 2584 2669 2484 
Q 3125 2378 3379 2068 
Q 3634 1759 3634 1313 
Q 3634 634 3220 271 
Q 2806 -91 2034 -91 
Q 1263 -91 848 271 
Q 434 634 434 1313 
Q 434 1759 690 2068 
Q 947 2378 1403 2484 
z
M 1172 3481 
Q 1172 3119 1398 2916 
Q 1625 2713 2034 2713 
Q 2441 2713 2670 2916 
Q 2900 3119 2900 3481 
Q 2900 3844 2670 4047 
Q 2441 4250 2034 4250 
Q 1625 4250 1398 4047 
Q 1172 3844 1172 3481 
z
" transform="scale(0.015625)"/>
       </defs>
       <use xlink:href="#DejaVuSans-38"/>
       <use xlink:href="#DejaVuSans-30" x="63.623047"/>
      </g>
     </g>
    </g>
    <g id="ytick_6">
     <g id="line2d_21">
      <path d="M 56.6875 56.768588 
L 418.5125 56.768588 
" clip-path="url(#p6b80884790)" style="fill: none; stroke: #b0b0b0; stroke-width: 0.8; stroke-linecap: square"/>
     </g>
     <g id="line2d_22">
      <g>
       <use xlink:href="#m6f3f5b6aff" x="56.6875" y="56.768588" style="stroke: #000000; stroke-width: 0.8"/>
      </g>
     </g>
     <g id="text_12">
      <!-- 85 -->
      <g transform="translate(30.6 62.467417)scale(0.15 -0.15)">
       <use xlink:href="#DejaVuSans-38"/>
       <use xlink:href="#DejaVuSans-35" x="63.623047"/>
      </g>
     </g>
    </g>
    <g id="text_13">
     <!-- Z ($\mu$m) -->
     <g transform="translate(22.4 180.05625)rotate(-90)scale(0.2 -0.2)">
      <defs>
       <path id="DejaVuSans-5a" d="M 359 4666 
L 4025 4666 
L 4025 4184 
L 1075 531 
L 4097 531 
L 4097 0 
L 288 0 
L 288 481 
L 3238 4134 
L 359 4134 
L 359 4666 
z
" transform="scale(0.015625)"/>
      </defs>
      <use xlink:href="#DejaVuSans-5a" transform="translate(0 0.125)"/>
      <use xlink:href="#DejaVuSans-20" transform="translate(68.505859 0.125)"/>
      <use xlink:href="#DejaVuSans-28" transform="translate(100.292969 0.125)"/>
      <use xlink:href="#DejaVuSans-Oblique-3bc" transform="translate(139.306641 0.125)"/>
      <use xlink:href="#DejaVuSans-6d" transform="translate(202.929688 0.125)"/>
      <use xlink:href="#DejaVuSans-29" transform="translate(300.341797 0.125)"/>
     </g>
    </g>
   </g>
   <g id="line2d_23">
    <path d="M 73.134091 162.031836 
L 73.833946 243.665922 
L 74.533801 155.10875 
L 74.883728 132.209629 
L 75.233656 118.938461 
L 75.583583 111.724647 
L 75.933511 108.597756 
L 76.283438 108.043695 
L 76.983293 109.134697 
L 77.333221 108.320687 
L 77.683148 105.569388 
L 78.033075 100.832462 
L 78.73293 87.112536 
L 79.782713 65.406412 
L 80.482568 53.955878 
L 81.182423 46.478215 
L 81.53235 44.139075 
L 81.882278 42.651973 
L 82.232205 41.92686 
L 82.582132 41.85625 
L 82.93206 42.32284 
L 83.631915 44.383164 
L 86.431335 55.057667 
L 87.481117 58.636149 
L 88.530899 62.704793 
L 91.330319 75.313308 
L 92.030174 77.306176 
L 93.779811 81.447944 
L 94.829594 84.956482 
L 96.229304 89.908431 
L 97.279086 92.577792 
L 98.678796 95.039387 
L 99.378651 96.711307 
L 101.828143 103.390724 
L 103.927708 107.310992 
L 104.627563 109.380195 
L 106.3772 115.011776 
L 107.077055 116.393356 
L 107.77691 117.10064 
L 108.476765 117.387633 
L 109.526547 117.750893 
L 110.226402 118.269106 
L 110.926257 119.068032 
L 111.97604 120.631424 
L 114.775459 125.366282 
L 120.024371 134.945197 
L 121.074154 137.355639 
L 122.123936 140.357231 
L 125.273283 150.054693 
L 126.323066 152.250847 
L 127.022921 153.311774 
L 127.722776 154.088044 
L 128.422631 154.630993 
L 129.472413 155.129182 
L 130.872123 155.443537 
L 132.62176 155.550115 
L 138.2206 155.404127 
L 142.419729 155.37416 
L 149.068351 155.474025 
L 172.863419 156.306002 
L 184.760953 156.671266 
L 192.459357 156.878515 
L 208.905948 157.224144 
L 216.254425 157.405281 
L 242.848912 157.760205 
L 251.597099 157.886352 
L 264.194487 158.053798 
L 289.389265 158.245643 
L 303.036436 158.296505 
L 333.130198 158.595282 
L 338.029183 158.899792 
L 343.97795 159.304135 
L 345.37766 159.129022 
L 346.427442 158.772852 
L 347.127297 158.35288 
L 347.827152 157.724527 
L 348.527007 156.833313 
L 349.226862 155.637828 
L 350.276644 153.236877 
L 351.326426 150.197974 
L 353.775919 142.702317 
L 354.825701 140.284477 
L 355.875484 138.410393 
L 364.62367 124.713927 
L 365.323525 124.078678 
L 366.02338 123.713214 
L 367.42309 123.247079 
L 367.773017 122.972329 
L 368.122945 122.551042 
L 368.8228 121.173072 
L 369.522655 119.120472 
L 371.272292 113.513329 
L 371.972147 112.043275 
L 373.721784 109.180766 
L 374.421639 107.445629 
L 376.171277 102.555872 
L 376.871132 101.194367 
L 378.620769 98.285514 
L 379.320624 96.368333 
L 380.370406 92.735154 
L 381.070261 90.209453 
L 381.770116 88.35206 
L 383.869681 83.710474 
L 384.569536 81.223967 
L 385.969246 74.859486 
L 387.019028 70.430369 
L 388.06881 67.054937 
L 389.818448 62.016817 
L 391.218158 56.882959 
L 391.918013 54.401393 
L 392.26794 53.639235 
L 392.617868 53.296702 
L 392.967795 53.502727 
L 393.317722 54.384488 
L 393.66765 56.060098 
L 394.367505 62.383199 
L 395.06736 72.516902 
L 395.767215 86.560591 
L 397.166925 119.270319 
L 397.516852 125.260427 
L 397.866779 129.251804 
L 398.216707 130.952556 
L 398.566634 131.126734 
L 398.916562 130.97611 
L 399.266489 131.968607 
L 399.616417 135.650991 
L 399.966344 143.536396 
L 400.316272 158.693807 
L 400.666199 185.418193 
L 401.016127 250.25625 
L 401.366054 241.167384 
L 402.065909 162.032729 
L 402.065909 162.032729 
" clip-path="url(#p6b80884790)" style="fill: none; stroke: #1f77b4; stroke-width: 1.5; stroke-linecap: square"/>
   </g>
   <g id="patch_3">
    <path d="M 56.6875 260.67625 
L 56.6875 31.43625 
" style="fill: none; stroke: #000000; stroke-width: 0.8; stroke-linejoin: miter; stroke-linecap: square"/>
   </g>
   <g id="patch_4">
    <path d="M 418.5125 260.67625 
L 418.5125 31.43625 
" style="fill: none; stroke: #000000; stroke-width: 0.8; stroke-linejoin: miter; stroke-linecap: square"/>
   </g>
   <g id="patch_5">
    <path d="M 56.6875 260.67625 
L 418.5125 260.67625 
" style="fill: none; stroke: #000000; stroke-width: 0.8; stroke-linejoin: miter; stroke-linecap: square"/>
   </g>
   <g id="patch_6">
    <path d="M 56.6875 31.43625 
L 418.5125 31.43625 
" style="fill: none; stroke: #000000; stroke-width: 0.8; stroke-linejoin: miter; stroke-linecap: square"/>
   </g>
   <g id="text_14">
    <!-- RF null Z position -->
    <g transform="translate(133.29 25.43625)scale(0.24 -0.24)">
     <defs>
      <path id="DejaVuSans-52" d="M 2841 2188 
Q 3044 2119 3236 1894 
Q 3428 1669 3622 1275 
L 4263 0 
L 3584 0 
L 2988 1197 
Q 2756 1666 2539 1819 
Q 2322 1972 1947 1972 
L 1259 1972 
L 1259 0 
L 628 0 
L 628 4666 
L 2053 4666 
Q 2853 4666 3247 4331 
Q 3641 3997 3641 3322 
Q 3641 2881 3436 2590 
Q 3231 2300 2841 2188 
z
M 1259 4147 
L 1259 2491 
L 2053 2491 
Q 2509 2491 2742 2702 
Q 2975 2913 2975 3322 
Q 2975 3731 2742 3939 
Q 2509 4147 2053 4147 
L 1259 4147 
z
" transform="scale(0.015625)"/>
      <path id="DejaVuSans-46" d="M 628 4666 
L 3309 4666 
L 3309 4134 
L 1259 4134 
L 1259 2759 
L 3109 2759 
L 3109 2228 
L 1259 2228 
L 1259 0 
L 628 0 
L 628 4666 
z
" transform="scale(0.015625)"/>
      <path id="DejaVuSans-6e" d="M 3513 2113 
L 3513 0 
L 2938 0 
L 2938 2094 
Q 2938 2591 2744 2837 
Q 2550 3084 2163 3084 
Q 1697 3084 1428 2787 
Q 1159 2491 1159 1978 
L 1159 0 
L 581 0 
L 581 3500 
L 1159 3500 
L 1159 2956 
Q 1366 3272 1645 3428 
Q 1925 3584 2291 3584 
Q 2894 3584 3203 3211 
Q 3513 2838 3513 2113 
z
" transform="scale(0.015625)"/>
      <path id="DejaVuSans-75" d="M 544 1381 
L 544 3500 
L 1119 3500 
L 1119 1403 
Q 1119 906 1312 657 
Q 1506 409 1894 409 
Q 2359 409 2629 706 
Q 2900 1003 2900 1516 
L 2900 3500 
L 3475 3500 
L 3475 0 
L 2900 0 
L 2900 538 
Q 2691 219 2414 64 
Q 2138 -91 1772 -91 
Q 1169 -91 856 284 
Q 544 659 544 1381 
z
M 1991 3584 
L 1991 3584 
z
" transform="scale(0.015625)"/>
      <path id="DejaVuSans-6c" d="M 603 4863 
L 1178 4863 
L 1178 0 
L 603 0 
L 603 4863 
z
" transform="scale(0.015625)"/>
      <path id="DejaVuSans-70" d="M 1159 525 
L 1159 -1331 
L 581 -1331 
L 581 3500 
L 1159 3500 
L 1159 2969 
Q 1341 3281 1617 3432 
Q 1894 3584 2278 3584 
Q 2916 3584 3314 3078 
Q 3713 2572 3713 1747 
Q 3713 922 3314 415 
Q 2916 -91 2278 -91 
Q 1894 -91 1617 61 
Q 1341 213 1159 525 
z
M 3116 1747 
Q 3116 2381 2855 2742 
Q 2594 3103 2138 3103 
Q 1681 3103 1420 2742 
Q 1159 2381 1159 1747 
Q 1159 1113 1420 752 
Q 1681 391 2138 391 
Q 2594 391 2855 752 
Q 3116 1113 3116 1747 
z
" transform="scale(0.015625)"/>
      <path id="DejaVuSans-6f" d="M 1959 3097 
Q 1497 3097 1228 2736 
Q 959 2375 959 1747 
Q 959 1119 1226 758 
Q 1494 397 1959 397 
Q 2419 397 2687 759 
Q 2956 1122 2956 1747 
Q 2956 2369 2687 2733 
Q 2419 3097 1959 3097 
z
M 1959 3584 
Q 2709 3584 3137 3096 
Q 3566 2609 3566 1747 
Q 3566 888 3137 398 
Q 2709 -91 1959 -91 
Q 1206 -91 779 398 
Q 353 888 353 1747 
Q 353 2609 779 3096 
Q 1206 3584 1959 3584 
z
" transform="scale(0.015625)"/>
      <path id="DejaVuSans-73" d="M 2834 3397 
L 2834 2853 
Q 2591 2978 2328 3040 
Q 2066 3103 1784 3103 
Q 1356 3103 1142 2972 
Q 928 2841 928 2578 
Q 928 2378 1081 2264 
Q 1234 2150 1697 2047 
L 1894 2003 
Q 2506 1872 2764 1633 
Q 3022 1394 3022 966 
Q 3022 478 2636 193 
Q 2250 -91 1575 -91 
Q 1294 -91 989 -36 
Q 684 19 347 128 
L 347 722 
Q 666 556 975 473 
Q 1284 391 1588 391 
Q 1994 391 2212 530 
Q 2431 669 2431 922 
Q 2431 1156 2273 1281 
Q 2116 1406 1581 1522 
L 1381 1569 
Q 847 1681 609 1914 
Q 372 2147 372 2553 
Q 372 3047 722 3315 
Q 1072 3584 1716 3584 
Q 2034 3584 2315 3537 
Q 2597 3491 2834 3397 
z
" transform="scale(0.015625)"/>
      <path id="DejaVuSans-69" d="M 603 3500 
L 1178 3500 
L 1178 0 
L 603 0 
L 603 3500 
z
M 603 4863 
L 1178 4863 
L 1178 4134 
L 603 4134 
L 603 4863 
z
" transform="scale(0.015625)"/>
      <path id="DejaVuSans-74" d="M 1172 4494 
L 1172 3500 
L 2356 3500 
L 2356 3053 
L 1172 3053 
L 1172 1153 
Q 1172 725 1289 603 
Q 1406 481 1766 481 
L 2356 481 
L 2356 0 
L 1766 0 
Q 1100 0 847 248 
Q 594 497 594 1153 
L 594 3053 
L 172 3053 
L 172 3500 
L 594 3500 
L 594 4494 
L 1172 4494 
z
" transform="scale(0.015625)"/>
     </defs>
     <use xlink:href="#DejaVuSans-52"/>
     <use xlink:href="#DejaVuSans-46" x="69.482422"/>
     <use xlink:href="#DejaVuSans-20" x="127.001953"/>
     <use xlink:href="#DejaVuSans-6e" x="158.789062"/>
     <use xlink:href="#DejaVuSans-75" x="222.167969"/>
     <use xlink:href="#DejaVuSans-6c" x="285.546875"/>
     <use xlink:href="#DejaVuSans-6c" x="313.330078"/>
     <use xlink:href="#DejaVuSans-20" x="341.113281"/>
     <use xlink:href="#DejaVuSans-5a" x="372.900391"/>
     <use xlink:href="#DejaVuSans-20" x="441.40625"/>
     <use xlink:href="#DejaVuSans-70" x="473.193359"/>
     <use xlink:href="#DejaVuSans-6f" x="536.669922"/>
     <use xlink:href="#DejaVuSans-73" x="597.851562"/>
     <use xlink:href="#DejaVuSans-69" x="649.951172"/>
     <use xlink:href="#DejaVuSans-74" x="677.734375"/>
     <use xlink:href="#DejaVuSans-69" x="716.943359"/>
     <use xlink:href="#DejaVuSans-6f" x="744.726562"/>
     <use xlink:href="#DejaVuSans-6e" x="805.908203"/>
    </g>
   </g>
  </g>
  <g id="axes_2">
   <g id="patch_7">
    <path d="M 520.1425 260.67625 
L 881.9675 260.67625 
L 881.9675 31.43625 
L 520.1425 31.43625 
L 520.1425 260.67625 
z
" style="fill: none"/>
   </g>
   <g id="matplotlib.axis_3">
    <g id="xtick_6">
     <g id="line2d_24">
      <path d="M 561.084014 260.67625 
L 561.084014 31.43625 
" clip-path="url(#p7abf3ede7f)" style="fill: none; stroke: #b0b0b0; stroke-width: 0.8; stroke-linecap: square"/>
     </g>
     <g id="line2d_25">
      <g>
       <use xlink:href="#md39032bed2" x="561.084014" y="260.67625" style="stroke: #000000; stroke-width: 0.8"/>
      </g>
     </g>
     <g id="text_15">
      <!-- −2000 -->
      <g transform="translate(535.711748 279.073906)scale(0.15 -0.15)">
       <use xlink:href="#DejaVuSans-2212"/>
       <use xlink:href="#DejaVuSans-32" x="83.789062"/>
       <use xlink:href="#DejaVuSans-30" x="147.412109"/>
       <use xlink:href="#DejaVuSans-30" x="211.035156"/>
       <use xlink:href="#DejaVuSans-30" x="274.658203"/>
      </g>
     </g>
    </g>
    <g id="xtick_7">
     <g id="line2d_26">
      <path d="M 631.069507 260.67625 
L 631.069507 31.43625 
" clip-path="url(#p7abf3ede7f)" style="fill: none; stroke: #b0b0b0; stroke-width: 0.8; stroke-linecap: square"/>
     </g>
     <g id="line2d_27">
      <g>
       <use xlink:href="#md39032bed2" x="631.069507" y="260.67625" style="stroke: #000000; stroke-width: 0.8"/>
      </g>
     </g>
     <g id="text_16">
      <!-- −1000 -->
      <g transform="translate(605.697241 279.073906)scale(0.15 -0.15)">
       <use xlink:href="#DejaVuSans-2212"/>
       <use xlink:href="#DejaVuSans-31" x="83.789062"/>
       <use xlink:href="#DejaVuSans-30" x="147.412109"/>
       <use xlink:href="#DejaVuSans-30" x="211.035156"/>
       <use xlink:href="#DejaVuSans-30" x="274.658203"/>
      </g>
     </g>
    </g>
    <g id="xtick_8">
     <g id="line2d_28">
      <path d="M 701.055 260.67625 
L 701.055 31.43625 
" clip-path="url(#p7abf3ede7f)" style="fill: none; stroke: #b0b0b0; stroke-width: 0.8; stroke-linecap: square"/>
     </g>
     <g id="line2d_29">
      <g>
       <use xlink:href="#md39032bed2" x="701.055" y="260.67625" style="stroke: #000000; stroke-width: 0.8"/>
      </g>
     </g>
     <g id="text_17">
      <!-- 0 -->
      <g transform="translate(696.283125 279.073906)scale(0.15 -0.15)">
       <use xlink:href="#DejaVuSans-30"/>
      </g>
     </g>
    </g>
    <g id="xtick_9">
     <g id="line2d_30">
      <path d="M 771.040493 260.67625 
L 771.040493 31.43625 
" clip-path="url(#p7abf3ede7f)" style="fill: none; stroke: #b0b0b0; stroke-width: 0.8; stroke-linecap: square"/>
     </g>
     <g id="line2d_31">
      <g>
       <use xlink:href="#md39032bed2" x="771.040493" y="260.67625" style="stroke: #000000; stroke-width: 0.8"/>
      </g>
     </g>
     <g id="text_18">
      <!-- 1000 -->
      <g transform="translate(751.952993 279.073906)scale(0.15 -0.15)">
       <use xlink:href="#DejaVuSans-31"/>
       <use xlink:href="#DejaVuSans-30" x="63.623047"/>
       <use xlink:href="#DejaVuSans-30" x="127.246094"/>
       <use xlink:href="#DejaVuSans-30" x="190.869141"/>
      </g>
     </g>
    </g>
    <g id="xtick_10">
     <g id="line2d_32">
      <path d="M 841.025986 260.67625 
L 841.025986 31.43625 
" clip-path="url(#p7abf3ede7f)" style="fill: none; stroke: #b0b0b0; stroke-width: 0.8; stroke-linecap: square"/>
     </g>
     <g id="line2d_33">
      <g>
       <use xlink:href="#md39032bed2" x="841.025986" y="260.67625" style="stroke: #000000; stroke-width: 0.8"/>
      </g>
     </g>
     <g id="text_19">
      <!-- 2000 -->
      <g transform="translate(821.938486 279.073906)scale(0.15 -0.15)">
       <use xlink:href="#DejaVuSans-32"/>
       <use xlink:href="#DejaVuSans-30" x="63.623047"/>
       <use xlink:href="#DejaVuSans-30" x="127.246094"/>
       <use xlink:href="#DejaVuSans-30" x="190.869141"/>
      </g>
     </g>
    </g>
    <g id="text_20">
     <!-- X ($\mu$m) -->
     <g transform="translate(667.055 301.393437)scale(0.2 -0.2)">
      <use xlink:href="#DejaVuSans-58" transform="translate(0 0.125)"/>
      <use xlink:href="#DejaVuSans-20" transform="translate(68.505859 0.125)"/>
      <use xlink:href="#DejaVuSans-28" transform="translate(100.292969 0.125)"/>
      <use xlink:href="#DejaVuSans-Oblique-3bc" transform="translate(139.306641 0.125)"/>
      <use xlink:href="#DejaVuSans-6d" transform="translate(202.929688 0.125)"/>
      <use xlink:href="#DejaVuSans-29" transform="translate(300.341797 0.125)"/>
     </g>
    </g>
   </g>
   <g id="matplotlib.axis_4">
    <g id="ytick_7">
     <g id="line2d_34">
      <path d="M 520.1425 260.67625 
L 881.9675 260.67625 
" clip-path="url(#p7abf3ede7f)" style="fill: none; stroke: #b0b0b0; stroke-width: 0.8; stroke-linecap: square"/>
     </g>
     <g id="line2d_35">
      <g>
       <use xlink:href="#m6f3f5b6aff" x="520.1425" y="260.67625" style="stroke: #000000; stroke-width: 0.8"/>
      </g>
     </g>
     <g id="text_21">
      <!-- −0.2 -->
      <g transform="translate(476.718281 266.375078)scale(0.15 -0.15)">
       <defs>
        <path id="DejaVuSans-2e" d="M 684 794 
L 1344 794 
L 1344 0 
L 684 0 
L 684 794 
z
" transform="scale(0.015625)"/>
       </defs>
       <use xlink:href="#DejaVuSans-2212"/>
       <use xlink:href="#DejaVuSans-30" x="83.789062"/>
       <use xlink:href="#DejaVuSans-2e" x="147.412109"/>
       <use xlink:href="#DejaVuSans-32" x="179.199219"/>
      </g>
     </g>
    </g>
    <g id="ytick_8">
     <g id="line2d_36">
      <path d="M 520.1425 203.36625 
L 881.9675 203.36625 
" clip-path="url(#p7abf3ede7f)" style="fill: none; stroke: #b0b0b0; stroke-width: 0.8; stroke-linecap: square"/>
     </g>
     <g id="line2d_37">
      <g>
       <use xlink:href="#m6f3f5b6aff" x="520.1425" y="203.36625" style="stroke: #000000; stroke-width: 0.8"/>
      </g>
     </g>
     <g id="text_22">
      <!-- −0.1 -->
      <g transform="translate(476.718281 209.065078)scale(0.15 -0.15)">
       <use xlink:href="#DejaVuSans-2212"/>
       <use xlink:href="#DejaVuSans-30" x="83.789062"/>
       <use xlink:href="#DejaVuSans-2e" x="147.412109"/>
       <use xlink:href="#DejaVuSans-31" x="179.199219"/>
      </g>
     </g>
    </g>
    <g id="ytick_9">
     <g id="line2d_38">
      <path d="M 520.1425 146.05625 
L 881.9675 146.05625 
" clip-path="url(#p7abf3ede7f)" style="fill: none; stroke: #b0b0b0; stroke-width: 0.8; stroke-linecap: square"/>
     </g>
     <g id="line2d_39">
      <g>
       <use xlink:href="#m6f3f5b6aff" x="520.1425" y="146.05625" style="stroke: #000000; stroke-width: 0.8"/>
      </g>
     </g>
     <g id="text_23">
      <!-- 0.0 -->
      <g transform="translate(489.287812 151.755078)scale(0.15 -0.15)">
       <use xlink:href="#DejaVuSans-30"/>
       <use xlink:href="#DejaVuSans-2e" x="63.623047"/>
       <use xlink:href="#DejaVuSans-30" x="95.410156"/>
      </g>
     </g>
    </g>
    <g id="ytick_10">
     <g id="line2d_40">
      <path d="M 520.1425 88.74625 
L 881.9675 88.74625 
" clip-path="url(#p7abf3ede7f)" style="fill: none; stroke: #b0b0b0; stroke-width: 0.8; stroke-linecap: square"/>
     </g>
     <g id="line2d_41">
      <g>
       <use xlink:href="#m6f3f5b6aff" x="520.1425" y="88.74625" style="stroke: #000000; stroke-width: 0.8"/>
      </g>
     </g>
     <g id="text_24">
      <!-- 0.1 -->
      <g transform="translate(489.287812 94.445078)scale(0.15 -0.15)">
       <use xlink:href="#DejaVuSans-30"/>
       <use xlink:href="#DejaVuSans-2e" x="63.623047"/>
       <use xlink:href="#DejaVuSans-31" x="95.410156"/>
      </g>
     </g>
    </g>
    <g id="ytick_11">
     <g id="line2d_42">
      <path d="M 520.1425 31.43625 
L 881.9675 31.43625 
" clip-path="url(#p7abf3ede7f)" style="fill: none; stroke: #b0b0b0; stroke-width: 0.8; stroke-linecap: square"/>
     </g>
     <g id="line2d_43">
      <g>
       <use xlink:href="#m6f3f5b6aff" x="520.1425" y="31.43625" style="stroke: #000000; stroke-width: 0.8"/>
      </g>
     </g>
     <g id="text_25">
      <!-- 0.2 -->
      <g transform="translate(489.287812 37.135078)scale(0.15 -0.15)">
       <use xlink:href="#DejaVuSans-30"/>
       <use xlink:href="#DejaVuSans-2e" x="63.623047"/>
       <use xlink:href="#DejaVuSans-32" x="95.410156"/>
      </g>
     </g>
    </g>
    <g id="text_26">
     <!-- Y ($\mu$m) -->
     <g transform="translate(468.518281 179.25625)rotate(-90)scale(0.2 -0.2)">
      <defs>
       <path id="DejaVuSans-59" d="M -13 4666 
L 666 4666 
L 1959 2747 
L 3244 4666 
L 3922 4666 
L 2272 2222 
L 2272 0 
L 1638 0 
L 1638 2222 
L -13 4666 
z
" transform="scale(0.015625)"/>
      </defs>
      <use xlink:href="#DejaVuSans-59" transform="translate(0 0.125)"/>
      <use xlink:href="#DejaVuSans-20" transform="translate(61.083984 0.125)"/>
      <use xlink:href="#DejaVuSans-28" transform="translate(92.871094 0.125)"/>
      <use xlink:href="#DejaVuSans-Oblique-3bc" transform="translate(131.884766 0.125)"/>
      <use xlink:href="#DejaVuSans-6d" transform="translate(195.507812 0.125)"/>
      <use xlink:href="#DejaVuSans-29" transform="translate(292.919922 0.125)"/>
     </g>
    </g>
   </g>
   <g id="line2d_44">
    <path d="M 536.742211 313.793437 
L 536.939018 21.354318 
L 537.288946 94.59301 
L 537.638873 144.284006 
L 537.988801 146.05625 
L 538.338728 146.05625 
L 538.68309 -1 
M 538.695562 -1 
L 539.038583 117.055887 
L 539.388511 141.173335 
L 540.088366 150.101775 
L 540.438293 152.89396 
L 540.788221 154.122538 
L 541.138148 154.081632 
L 541.488075 153.052144 
L 542.18793 149.157759 
L 542.537858 146.827899 
L 542.887785 146.05625 
L 545.337278 145.982815 
L 545.687205 145.202636 
L 546.38706 144.632393 
L 547.78677 144.032188 
L 548.486625 143.465001 
L 549.536407 142.21305 
L 550.236262 141.458484 
L 550.936117 141.107912 
L 551.286044 141.094198 
L 551.635972 141.249473 
L 551.985899 141.574333 
L 552.335827 142.069962 
L 553.035682 143.6616 
L 553.735537 146.033847 
L 555.485174 146.05625 
L 556.185029 146.073185 
L 558.284594 165.846444 
L 558.984449 171.025561 
L 559.684304 174.954961 
L 560.384159 177.613316 
L 561.084014 179.195319 
L 561.433941 179.613128 
L 561.783868 179.792493 
L 562.133796 179.77857 
L 562.483723 179.576636 
L 563.183578 178.727375 
L 563.883433 177.415513 
L 566.332926 172.193457 
L 567.03278 171.366522 
L 567.382708 171.147312 
L 567.732635 171.072259 
L 568.082563 171.117536 
L 568.782418 171.572219 
L 569.482273 172.405564 
L 570.182128 173.527978 
L 570.881983 174.960499 
L 571.581838 176.8709 
L 572.281692 179.336929 
L 572.981547 182.510728 
L 574.381257 190.443486 
L 575.43104 196.168053 
L 576.130895 199.006955 
L 576.83075 200.732844 
L 577.180677 201.1299 
L 577.530604 201.274136 
L 577.880532 201.148504 
L 578.230459 200.808002 
L 578.930314 199.620269 
L 579.630169 197.905645 
L 580.679952 194.684638 
L 582.779516 187.839213 
L 583.479371 186.214423 
L 584.529154 184.44741 
L 585.928864 182.143984 
L 587.678501 178.991174 
L 588.378356 178.232016 
L 589.078211 177.940978 
L 589.428138 177.949173 
L 590.127993 178.24532 
L 591.177776 178.98122 
L 593.27734 180.514029 
L 595.026978 181.412294 
L 597.47647 182.418559 
L 599.576035 183.059732 
L 600.975745 183.249421 
L 602.375455 183.226786 
L 605.174874 182.935502 
L 606.224657 183.123393 
L 606.924512 183.472118 
L 607.624367 184.055446 
L 608.324221 184.863693 
L 609.723931 187.072279 
L 610.773714 188.728408 
L 611.473569 189.5218 
L 612.173424 190.040182 
L 613.223206 190.316963 
L 614.272988 190.560975 
L 614.972843 190.893337 
L 617.072408 192.143111 
L 617.772263 192.18711 
L 618.822045 191.851809 
L 620.571683 191.139778 
L 621.621465 190.943848 
L 622.671248 190.965918 
L 624.420885 190.994156 
L 625.470667 190.69144 
L 627.220305 190.120734 
L 628.969942 190.078348 
L 630.719579 190.15524 
L 631.419434 190.346436 
L 634.918709 191.701331 
L 636.318419 191.854107 
L 637.368201 191.744104 
L 640.517548 191.200317 
L 644.36675 190.798794 
L 649.96559 190.224259 
L 653.464865 189.91143 
L 655.564429 189.790636 
L 657.314067 189.733977 
L 659.763559 189.621025 
L 663.612761 189.823772 
L 665.012471 190.201881 
L 667.112036 191.042003 
L 668.511746 191.552105 
L 669.211601 191.624932 
L 669.911456 191.534804 
L 670.961238 191.110254 
L 672.710875 190.108393 
L 674.81044 188.897479 
L 675.860222 188.466604 
L 677.959787 187.939347 
L 679.709425 187.680794 
L 682.158917 187.548855 
L 683.908554 187.482748 
L 686.707974 187.726062 
L 688.107684 188.169611 
L 689.507394 189.001763 
L 690.907103 190.200612 
L 692.656741 192.093358 
L 695.806088 195.436308 
L 696.85587 196.437072 
L 697.905653 197.122428 
L 698.605508 197.318852 
L 699.305363 197.294868 
L 700.005218 197.035381 
L 700.705073 196.586892 
L 701.754855 195.565981 
L 703.85442 192.937761 
L 705.953985 190.460946 
L 707.353694 189.108862 
L 711.902751 185.601702 
L 712.952534 185.233676 
L 718.901301 184.088791 
L 719.951083 183.467987 
L 722.750503 181.398874 
L 723.800285 180.916859 
L 724.850068 180.772471 
L 727.29956 180.667713 
L 728.349342 180.420286 
L 729.399125 180.012883 
L 733.598254 177.909024 
L 735.347892 177.388431 
L 736.747602 177.212157 
L 742.696368 177.062491 
L 748.645135 175.722261 
L 751.794483 175.378901 
L 753.894047 175.499644 
L 755.993612 175.495212 
L 758.443104 175.304918 
L 760.542669 174.919209 
L 762.292307 174.705556 
L 765.091726 174.591516 
L 768.591001 174.63352 
L 771.740348 174.254437 
L 775.939478 173.321478 
L 779.088825 172.456582 
L 780.488535 171.959869 
L 781.538317 171.749472 
L 782.5881 171.78436 
L 784.337737 171.89649 
L 785.737447 171.70531 
L 788.186939 171.220657 
L 789.586649 171.271814 
L 790.636431 171.474991 
L 793.785779 172.134461 
L 794.835561 172.10103 
L 796.235271 171.824457 
L 798.334836 170.989634 
L 799.734545 170.492162 
L 800.784328 170.305303 
L 802.184038 170.413982 
L 803.933675 170.958638 
L 806.733095 171.957407 
L 809.882442 172.733179 
L 810.932224 172.794246 
L 811.632079 172.602406 
L 812.331934 172.117141 
L 813.031789 171.205313 
L 813.731644 169.765545 
L 814.781426 166.811667 
L 815.831209 163.830097 
L 816.531064 162.584776 
L 816.880991 162.323364 
L 817.230919 162.319539 
L 817.580846 162.54764 
L 818.280701 163.570958 
L 819.680411 166.095485 
L 820.380266 166.738986 
L 820.730193 166.822311 
L 821.080121 166.776034 
L 821.779976 166.249903 
L 822.479831 165.311737 
L 823.529613 163.435943 
L 824.579396 161.082473 
L 829.828308 147.980481 
L 830.528162 146.056529 
L 837.526712 146.110747 
L 838.226567 147.53241 
L 839.276349 148.971686 
L 839.976204 149.590568 
L 841.025986 150.049879 
L 842.075769 150.561671 
L 842.775624 151.150568 
L 843.825406 152.402008 
L 845.575044 154.993371 
L 846.624826 156.488174 
L 847.324681 157.244336 
L 848.024536 157.647659 
L 848.724391 157.634302 
L 849.424246 157.21278 
L 850.474028 156.022041 
L 851.52381 154.793432 
L 852.223665 154.318555 
L 852.573593 154.244588 
L 852.92352 154.286165 
L 853.623375 154.759308 
L 854.32323 155.696884 
L 855.373013 157.728715 
L 856.772722 161.215019 
L 858.172432 165.528802 
L 859.222215 169.602281 
L 859.92207 173.148793 
L 860.621925 178.133055 
L 860.971852 181.633542 
L 861.321779 186.284658 
L 861.671707 192.757187 
L 862.021634 202.177116 
L 862.371562 217.285435 
L 862.721489 245.615011 
L 863.03474 313.793437 
M 863.698881 313.793437 
L 863.771272 24.917815 
L 864.121199 115.674852 
L 864.471127 146.05625 
L 865.520909 146.044333 
L 865.520909 146.044333 
" clip-path="url(#p7abf3ede7f)" style="fill: none; stroke: #1f77b4; stroke-width: 1.5; stroke-linecap: square"/>
   </g>
   <g id="patch_8">
    <path d="M 520.1425 260.67625 
L 520.1425 31.43625 
" style="fill: none; stroke: #000000; stroke-width: 0.8; stroke-linejoin: miter; stroke-linecap: square"/>
   </g>
   <g id="patch_9">
    <path d="M 881.9675 260.67625 
L 881.9675 31.43625 
" style="fill: none; stroke: #000000; stroke-width: 0.8; stroke-linejoin: miter; stroke-linecap: square"/>
   </g>
   <g id="patch_10">
    <path d="M 520.1425 260.67625 
L 881.9675 260.67625 
" style="fill: none; stroke: #000000; stroke-width: 0.8; stroke-linejoin: miter; stroke-linecap: square"/>
   </g>
   <g id="patch_11">
    <path d="M 520.1425 31.43625 
L 881.9675 31.43625 
" style="fill: none; stroke: #000000; stroke-width: 0.8; stroke-linejoin: miter; stroke-linecap: square"/>
   </g>
   <g id="text_27">
    <!-- RF null Y position -->
    <g transform="translate(597.635625 25.43625)scale(0.24 -0.24)">
     <use xlink:href="#DejaVuSans-52"/>
     <use xlink:href="#DejaVuSans-46" x="69.482422"/>
     <use xlink:href="#DejaVuSans-20" x="127.001953"/>
     <use xlink:href="#DejaVuSans-6e" x="158.789062"/>
     <use xlink:href="#DejaVuSans-75" x="222.167969"/>
     <use xlink:href="#DejaVuSans-6c" x="285.546875"/>
     <use xlink:href="#DejaVuSans-6c" x="313.330078"/>
     <use xlink:href="#DejaVuSans-20" x="341.113281"/>
     <use xlink:href="#DejaVuSans-59" x="372.900391"/>
     <use xlink:href="#DejaVuSans-20" x="433.984375"/>
     <use xlink:href="#DejaVuSans-70" x="465.771484"/>
     <use xlink:href="#DejaVuSans-6f" x="529.248047"/>
     <use xlink:href="#DejaVuSans-73" x="590.429688"/>
     <use xlink:href="#DejaVuSans-69" x="642.529297"/>
     <use xlink:href="#DejaVuSans-74" x="670.3125"/>
     <use xlink:href="#DejaVuSans-69" x="709.521484"/>
     <use xlink:href="#DejaVuSans-6f" x="737.304688"/>
     <use xlink:href="#DejaVuSans-6e" x="798.486328"/>
    </g>
   </g>
  </g>
 </g>
 <defs>
  <clipPath id="p6b80884790">
   <rect x="56.6875" y="31.43625" width="361.825" height="229.24"/>
  </clipPath>
  <clipPath id="p7abf3ede7f">
   <rect x="520.1425" y="31.43625" width="361.825" height="229.24"/>
  </clipPath>
 </defs>
</svg>
