<?xml version="1.0" encoding="utf-8" standalone="no"?>
<!DOCTYPE svg PUBLIC "-//W3C//DTD SVG 1.1//EN"
  "http://www.w3.org/Graphics/SVG/1.1/DTD/svg11.dtd">
<svg xmlns:xlink="http://www.w3.org/1999/xlink" width="889.168437pt" height="312.793437pt" viewBox="0 0 889.168437 312.793437" xmlns="http://www.w3.org/2000/svg" version="1.1">
 <defs>
  <style type="text/css">*{stroke-linejoin: round; stroke-linecap: butt}</style>
 </defs>
 <g id="figure_1">
  <g id="patch_1">
   <path d="M 0 312.793437 
L 889.168437 312.793437 
L 889.168437 0 
L 0 0 
L 0 312.793437 
z
" style="fill: none"/>
  </g>
  <g id="axes_1">
   <g id="patch_2">
    <path d="M 70.998438 260.67625 
L 425.668437 260.67625 
L 425.668437 31.43625 
L 70.998438 31.43625 
L 70.998438 260.67625 
z
" style="fill: none"/>
   </g>
   <g id="matplotlib.axis_1">
    <g id="xtick_1">
     <g id="line2d_1">
      <path d="M 102.709691 260.67625 
L 102.709691 31.43625 
" clip-path="url(#pb309daa3a3)" style="fill: none; stroke: #b0b0b0; stroke-width: 0.8; stroke-linecap: square"/>
     </g>
     <g id="line2d_2">
      <defs>
       <path id="md39032bed2" d="M 0 0 
L 0 3.5 
" style="stroke: #000000; stroke-width: 0.8"/>
      </defs>
      <g>
       <use xlink:href="#md39032bed2" x="102.709691" y="260.67625" style="stroke: #000000; stroke-width: 0.8"/>
      </g>
     </g>
     <g id="text_1">
      <!-- −3000 -->
      <g transform="translate(77.337426 279.073906)scale(0.15 -0.15)">
       <defs>
        <path id="DejaVuSans-2212" d="M 678 2272 
L 4684 2272 
L 4684 1741 
L 678 1741 
L 678 2272 
z
" transform="scale(0.015625)"/>
        <path id="DejaVuSans-33" d="M 2597 2516 
Q 3050 2419 3304 2112 
Q 3559 1806 3559 1356 
Q 3559 666 3084 287 
Q 2609 -91 1734 -91 
Q 1441 -91 1130 -33 
Q 819 25 488 141 
L 488 750 
Q 750 597 1062 519 
Q 1375 441 1716 441 
Q 2309 441 2620 675 
Q 2931 909 2931 1356 
Q 2931 1769 2642 2001 
Q 2353 2234 1838 2234 
L 1294 2234 
L 1294 2753 
L 1863 2753 
Q 2328 2753 2575 2939 
Q 2822 3125 2822 3475 
Q 2822 3834 2567 4026 
Q 2313 4219 1838 4219 
Q 1578 4219 1281 4162 
Q 984 4106 628 3988 
L 628 4550 
Q 988 4650 1302 4700 
Q 1616 4750 1894 4750 
Q 2613 4750 3031 4423 
Q 3450 4097 3450 3541 
Q 3450 3153 3228 2886 
Q 3006 2619 2597 2516 
z
" transform="scale(0.015625)"/>
        <path id="DejaVuSans-30" d="M 2034 4250 
Q 1547 4250 1301 3770 
Q 1056 3291 1056 2328 
Q 1056 1369 1301 889 
Q 1547 409 2034 409 
Q 2525 409 2770 889 
Q 3016 1369 3016 2328 
Q 3016 3291 2770 3770 
Q 2525 4250 2034 4250 
z
M 2034 4750 
Q 2819 4750 3233 4129 
Q 3647 3509 3647 2328 
Q 3647 1150 3233 529 
Q 2819 -91 2034 -91 
Q 1250 -91 836 529 
Q 422 1150 422 2328 
Q 422 3509 836 4129 
Q 1250 4750 2034 4750 
z
" transform="scale(0.015625)"/>
       </defs>
       <use xlink:href="#DejaVuSans-2212"/>
       <use xlink:href="#DejaVuSans-33" x="83.789062"/>
       <use xlink:href="#DejaVuSans-30" x="147.412109"/>
       <use xlink:href="#DejaVuSans-30" x="211.035156"/>
       <use xlink:href="#DejaVuSans-30" x="274.658203"/>
      </g>
     </g>
    </g>
    <g id="xtick_2">
     <g id="line2d_3">
      <path d="M 173.572828 260.67625 
L 173.572828 31.43625 
" clip-path="url(#pb309daa3a3)" style="fill: none; stroke: #b0b0b0; stroke-width: 0.8; stroke-linecap: square"/>
     </g>
     <g id="line2d_4">
      <g>
       <use xlink:href="#md39032bed2" x="173.572828" y="260.67625" style="stroke: #000000; stroke-width: 0.8"/>
      </g>
     </g>
     <g id="text_2">
      <!-- −2000 -->
      <g transform="translate(148.200562 279.073906)scale(0.15 -0.15)">
       <defs>
        <path id="DejaVuSans-32" d="M 1228 531 
L 3431 531 
L 3431 0 
L 469 0 
L 469 531 
Q 828 903 1448 1529 
Q 2069 2156 2228 2338 
Q 2531 2678 2651 2914 
Q 2772 3150 2772 3378 
Q 2772 3750 2511 3984 
Q 2250 4219 1831 4219 
Q 1534 4219 1204 4116 
Q 875 4013 500 3803 
L 500 4441 
Q 881 4594 1212 4672 
Q 1544 4750 1819 4750 
Q 2544 4750 2975 4387 
Q 3406 4025 3406 3419 
Q 3406 3131 3298 2873 
Q 3191 2616 2906 2266 
Q 2828 2175 2409 1742 
Q 1991 1309 1228 531 
z
" transform="scale(0.015625)"/>
       </defs>
       <use xlink:href="#DejaVuSans-2212"/>
       <use xlink:href="#DejaVuSans-32" x="83.789062"/>
       <use xlink:href="#DejaVuSans-30" x="147.412109"/>
       <use xlink:href="#DejaVuSans-30" x="211.035156"/>
       <use xlink:href="#DejaVuSans-30" x="274.658203"/>
      </g>
     </g>
    </g>
    <g id="xtick_3">
     <g id="line2d_5">
      <path d="M 244.435965 260.67625 
L 244.435965 31.43625 
" clip-path="url(#pb309daa3a3)" style="fill: none; stroke: #b0b0b0; stroke-width: 0.8; stroke-linecap: square"/>
     </g>
     <g id="line2d_6">
      <g>
       <use xlink:href="#md39032bed2" x="244.435965" y="260.67625" style="stroke: #000000; stroke-width: 0.8"/>
      </g>
     </g>
     <g id="text_3">
      <!-- −1000 -->
      <g transform="translate(219.063699 279.073906)scale(0.15 -0.15)">
       <defs>
        <path id="DejaVuSans-31" d="M 794 531 
L 1825 531 
L 1825 4091 
L 703 3866 
L 703 4441 
L 1819 4666 
L 2450 4666 
L 2450 531 
L 3481 531 
L 3481 0 
L 794 0 
L 794 531 
z
" transform="scale(0.015625)"/>
       </defs>
       <use xlink:href="#DejaVuSans-2212"/>
       <use xlink:href="#DejaVuSans-31" x="83.789062"/>
       <use xlink:href="#DejaVuSans-30" x="147.412109"/>
       <use xlink:href="#DejaVuSans-30" x="211.035156"/>
       <use xlink:href="#DejaVuSans-30" x="274.658203"/>
      </g>
     </g>
    </g>
    <g id="xtick_4">
     <g id="line2d_7">
      <path d="M 315.299102 260.67625 
L 315.299102 31.43625 
" clip-path="url(#pb309daa3a3)" style="fill: none; stroke: #b0b0b0; stroke-width: 0.8; stroke-linecap: square"/>
     </g>
     <g id="line2d_8">
      <g>
       <use xlink:href="#md39032bed2" x="315.299102" y="260.67625" style="stroke: #000000; stroke-width: 0.8"/>
      </g>
     </g>
     <g id="text_4">
      <!-- 0 -->
      <g transform="translate(310.527227 279.073906)scale(0.15 -0.15)">
       <use xlink:href="#DejaVuSans-30"/>
      </g>
     </g>
    </g>
    <g id="xtick_5">
     <g id="line2d_9">
      <path d="M 386.162239 260.67625 
L 386.162239 31.43625 
" clip-path="url(#pb309daa3a3)" style="fill: none; stroke: #b0b0b0; stroke-width: 0.8; stroke-linecap: square"/>
     </g>
     <g id="line2d_10">
      <g>
       <use xlink:href="#md39032bed2" x="386.162239" y="260.67625" style="stroke: #000000; stroke-width: 0.8"/>
      </g>
     </g>
     <g id="text_5">
      <!-- 1000 -->
      <g transform="translate(367.074739 279.073906)scale(0.15 -0.15)">
       <use xlink:href="#DejaVuSans-31"/>
       <use xlink:href="#DejaVuSans-30" x="63.623047"/>
       <use xlink:href="#DejaVuSans-30" x="127.246094"/>
       <use xlink:href="#DejaVuSans-30" x="190.869141"/>
      </g>
     </g>
    </g>
    <g id="text_6">
     <!-- X ($\mu$m) -->
     <g transform="translate(214.333438 301.393437)scale(0.2 -0.2)">
      <defs>
       <path id="DejaVuSans-58" d="M 403 4666 
L 1081 4666 
L 2241 2931 
L 3406 4666 
L 4084 4666 
L 2584 2425 
L 4184 0 
L 3506 0 
L 2194 1984 
L 872 0 
L 191 0 
L 1856 2491 
L 403 4666 
z
" transform="scale(0.015625)"/>
       <path id="DejaVuSans-20" transform="scale(0.015625)"/>
       <path id="DejaVuSans-28" d="M 1984 4856 
Q 1566 4138 1362 3434 
Q 1159 2731 1159 2009 
Q 1159 1288 1364 580 
Q 1569 -128 1984 -844 
L 1484 -844 
Q 1016 -109 783 600 
Q 550 1309 550 2009 
Q 550 2706 781 3412 
Q 1013 4119 1484 4856 
L 1984 4856 
z
" transform="scale(0.015625)"/>
       <path id="DejaVuSans-Oblique-3bc" d="M -84 -1331 
L 856 3500 
L 1434 3500 
L 1009 1322 
Q 997 1256 987 1175 
Q 978 1094 978 1013 
Q 978 722 1161 565 
Q 1344 409 1684 409 
Q 2147 409 2431 671 
Q 2716 934 2816 1459 
L 3213 3500 
L 3788 3500 
L 3266 809 
Q 3253 750 3248 706 
Q 3244 663 3244 628 
Q 3244 531 3283 486 
Q 3322 441 3406 441 
Q 3438 441 3492 456 
Q 3547 472 3647 513 
L 3559 50 
Q 3422 -19 3297 -55 
Q 3172 -91 3053 -91 
Q 2847 -91 2730 40 
Q 2613 172 2613 403 
Q 2438 153 2195 31 
Q 1953 -91 1625 -91 
Q 1334 -91 1117 43 
Q 900 178 831 397 
L 494 -1331 
L -84 -1331 
z
" transform="scale(0.015625)"/>
       <path id="DejaVuSans-6d" d="M 3328 2828 
Q 3544 3216 3844 3400 
Q 4144 3584 4550 3584 
Q 5097 3584 5394 3201 
Q 5691 2819 5691 2113 
L 5691 0 
L 5113 0 
L 5113 2094 
Q 5113 2597 4934 2840 
Q 4756 3084 4391 3084 
Q 3944 3084 3684 2787 
Q 3425 2491 3425 1978 
L 3425 0 
L 2847 0 
L 2847 2094 
Q 2847 2600 2669 2842 
Q 2491 3084 2119 3084 
Q 1678 3084 1418 2786 
Q 1159 2488 1159 1978 
L 1159 0 
L 581 0 
L 581 3500 
L 1159 3500 
L 1159 2956 
Q 1356 3278 1631 3431 
Q 1906 3584 2284 3584 
Q 2666 3584 2933 3390 
Q 3200 3197 3328 2828 
z
" transform="scale(0.015625)"/>
       <path id="DejaVuSans-29" d="M 513 4856 
L 1013 4856 
Q 1481 4119 1714 3412 
Q 1947 2706 1947 2009 
Q 1947 1309 1714 600 
Q 1481 -109 1013 -844 
L 513 -844 
Q 928 -128 1133 580 
Q 1338 1288 1338 2009 
Q 1338 2731 1133 3434 
Q 928 4138 513 4856 
z
" transform="scale(0.015625)"/>
      </defs>
      <use xlink:href="#DejaVuSans-58" transform="translate(0 0.125)"/>
      <use xlink:href="#DejaVuSans-20" transform="translate(68.505859 0.125)"/>
      <use xlink:href="#DejaVuSans-28" transform="translate(100.292969 0.125)"/>
      <use xlink:href="#DejaVuSans-Oblique-3bc" transform="translate(139.306641 0.125)"/>
      <use xlink:href="#DejaVuSans-6d" transform="translate(202.929688 0.125)"/>
      <use xlink:href="#DejaVuSans-29" transform="translate(300.341797 0.125)"/>
     </g>
    </g>
   </g>
   <g id="matplotlib.axis_2">
    <g id="ytick_1">
     <g id="line2d_11">
      <path d="M 70.998438 260.67625 
L 425.668437 260.67625 
" clip-path="url(#pb309daa3a3)" style="fill: none; stroke: #b0b0b0; stroke-width: 0.8; stroke-linecap: square"/>
     </g>
     <g id="line2d_12">
      <defs>
       <path id="m6f3f5b6aff" d="M 0 0 
L -3.5 0 
" style="stroke: #000000; stroke-width: 0.8"/>
      </defs>
      <g>
       <use xlink:href="#m6f3f5b6aff" x="70.998438" y="260.67625" style="stroke: #000000; stroke-width: 0.8"/>
      </g>
     </g>
     <g id="text_7">
      <!-- 73.5 -->
      <g transform="translate(30.6 266.375078)scale(0.15 -0.15)">
       <defs>
        <path id="DejaVuSans-37" d="M 525 4666 
L 3525 4666 
L 3525 4397 
L 1831 0 
L 1172 0 
L 2766 4134 
L 525 4134 
L 525 4666 
z
" transform="scale(0.015625)"/>
        <path id="DejaVuSans-2e" d="M 684 794 
L 1344 794 
L 1344 0 
L 684 0 
L 684 794 
z
" transform="scale(0.015625)"/>
        <path id="DejaVuSans-35" d="M 691 4666 
L 3169 4666 
L 3169 4134 
L 1269 4134 
L 1269 2991 
Q 1406 3038 1543 3061 
Q 1681 3084 1819 3084 
Q 2600 3084 3056 2656 
Q 3513 2228 3513 1497 
Q 3513 744 3044 326 
Q 2575 -91 1722 -91 
Q 1428 -91 1123 -41 
Q 819 9 494 109 
L 494 744 
Q 775 591 1075 516 
Q 1375 441 1709 441 
Q 2250 441 2565 725 
Q 2881 1009 2881 1497 
Q 2881 1984 2565 2268 
Q 2250 2553 1709 2553 
Q 1456 2553 1204 2497 
Q 953 2441 691 2322 
L 691 4666 
z
" transform="scale(0.015625)"/>
       </defs>
       <use xlink:href="#DejaVuSans-37"/>
       <use xlink:href="#DejaVuSans-33" x="63.623047"/>
       <use xlink:href="#DejaVuSans-2e" x="127.246094"/>
       <use xlink:href="#DejaVuSans-35" x="159.033203"/>
      </g>
     </g>
    </g>
    <g id="ytick_2">
     <g id="line2d_13">
      <path d="M 70.998438 218.224398 
L 425.668437 218.224398 
" clip-path="url(#pb309daa3a3)" style="fill: none; stroke: #b0b0b0; stroke-width: 0.8; stroke-linecap: square"/>
     </g>
     <g id="line2d_14">
      <g>
       <use xlink:href="#m6f3f5b6aff" x="70.998438" y="218.224398" style="stroke: #000000; stroke-width: 0.8"/>
      </g>
     </g>
     <g id="text_8">
      <!-- 74.0 -->
      <g transform="translate(30.6 223.923226)scale(0.15 -0.15)">
       <defs>
        <path id="DejaVuSans-34" d="M 2419 4116 
L 825 1625 
L 2419 1625 
L 2419 4116 
z
M 2253 4666 
L 3047 4666 
L 3047 1625 
L 3713 1625 
L 3713 1100 
L 3047 1100 
L 3047 0 
L 2419 0 
L 2419 1100 
L 313 1100 
L 313 1709 
L 2253 4666 
z
" transform="scale(0.015625)"/>
       </defs>
       <use xlink:href="#DejaVuSans-37"/>
       <use xlink:href="#DejaVuSans-34" x="63.623047"/>
       <use xlink:href="#DejaVuSans-2e" x="127.246094"/>
       <use xlink:href="#DejaVuSans-30" x="159.033203"/>
      </g>
     </g>
    </g>
    <g id="ytick_3">
     <g id="line2d_15">
      <path d="M 70.998438 175.772546 
L 425.668437 175.772546 
" clip-path="url(#pb309daa3a3)" style="fill: none; stroke: #b0b0b0; stroke-width: 0.8; stroke-linecap: square"/>
     </g>
     <g id="line2d_16">
      <g>
       <use xlink:href="#m6f3f5b6aff" x="70.998438" y="175.772546" style="stroke: #000000; stroke-width: 0.8"/>
      </g>
     </g>
     <g id="text_9">
      <!-- 74.5 -->
      <g transform="translate(30.6 181.471374)scale(0.15 -0.15)">
       <use xlink:href="#DejaVuSans-37"/>
       <use xlink:href="#DejaVuSans-34" x="63.623047"/>
       <use xlink:href="#DejaVuSans-2e" x="127.246094"/>
       <use xlink:href="#DejaVuSans-35" x="159.033203"/>
      </g>
     </g>
    </g>
    <g id="ytick_4">
     <g id="line2d_17">
      <path d="M 70.998438 133.320694 
L 425.668437 133.320694 
" clip-path="url(#pb309daa3a3)" style="fill: none; stroke: #b0b0b0; stroke-width: 0.8; stroke-linecap: square"/>
     </g>
     <g id="line2d_18">
      <g>
       <use xlink:href="#m6f3f5b6aff" x="70.998438" y="133.320694" style="stroke: #000000; stroke-width: 0.8"/>
      </g>
     </g>
     <g id="text_10">
      <!-- 75.0 -->
      <g transform="translate(30.6 139.019523)scale(0.15 -0.15)">
       <use xlink:href="#DejaVuSans-37"/>
       <use xlink:href="#DejaVuSans-35" x="63.623047"/>
       <use xlink:href="#DejaVuSans-2e" x="127.246094"/>
       <use xlink:href="#DejaVuSans-30" x="159.033203"/>
      </g>
     </g>
    </g>
    <g id="ytick_5">
     <g id="line2d_19">
      <path d="M 70.998438 90.868843 
L 425.668437 90.868843 
" clip-path="url(#pb309daa3a3)" style="fill: none; stroke: #b0b0b0; stroke-width: 0.8; stroke-linecap: square"/>
     </g>
     <g id="line2d_20">
      <g>
       <use xlink:href="#m6f3f5b6aff" x="70.998438" y="90.868843" style="stroke: #000000; stroke-width: 0.8"/>
      </g>
     </g>
     <g id="text_11">
      <!-- 75.5 -->
      <g transform="translate(30.6 96.567671)scale(0.15 -0.15)">
       <use xlink:href="#DejaVuSans-37"/>
       <use xlink:href="#DejaVuSans-35" x="63.623047"/>
       <use xlink:href="#DejaVuSans-2e" x="127.246094"/>
       <use xlink:href="#DejaVuSans-35" x="159.033203"/>
      </g>
     </g>
    </g>
    <g id="ytick_6">
     <g id="line2d_21">
      <path d="M 70.998438 48.416991 
L 425.668437 48.416991 
" clip-path="url(#pb309daa3a3)" style="fill: none; stroke: #b0b0b0; stroke-width: 0.8; stroke-linecap: square"/>
     </g>
     <g id="line2d_22">
      <g>
       <use xlink:href="#m6f3f5b6aff" x="70.998438" y="48.416991" style="stroke: #000000; stroke-width: 0.8"/>
      </g>
     </g>
     <g id="text_12">
      <!-- 76.0 -->
      <g transform="translate(30.6 54.115819)scale(0.15 -0.15)">
       <defs>
        <path id="DejaVuSans-36" d="M 2113 2584 
Q 1688 2584 1439 2293 
Q 1191 2003 1191 1497 
Q 1191 994 1439 701 
Q 1688 409 2113 409 
Q 2538 409 2786 701 
Q 3034 994 3034 1497 
Q 3034 2003 2786 2293 
Q 2538 2584 2113 2584 
z
M 3366 4563 
L 3366 3988 
Q 3128 4100 2886 4159 
Q 2644 4219 2406 4219 
Q 1781 4219 1451 3797 
Q 1122 3375 1075 2522 
Q 1259 2794 1537 2939 
Q 1816 3084 2150 3084 
Q 2853 3084 3261 2657 
Q 3669 2231 3669 1497 
Q 3669 778 3244 343 
Q 2819 -91 2113 -91 
Q 1303 -91 875 529 
Q 447 1150 447 2328 
Q 447 3434 972 4092 
Q 1497 4750 2381 4750 
Q 2619 4750 2861 4703 
Q 3103 4656 3366 4563 
z
" transform="scale(0.015625)"/>
       </defs>
       <use xlink:href="#DejaVuSans-37"/>
       <use xlink:href="#DejaVuSans-36" x="63.623047"/>
       <use xlink:href="#DejaVuSans-2e" x="127.246094"/>
       <use xlink:href="#DejaVuSans-30" x="159.033203"/>
      </g>
     </g>
    </g>
    <g id="text_13">
     <!-- Z ($\mu$m) -->
     <g transform="translate(22.4 180.05625)rotate(-90)scale(0.2 -0.2)">
      <defs>
       <path id="DejaVuSans-5a" d="M 359 4666 
L 4025 4666 
L 4025 4184 
L 1075 531 
L 4097 531 
L 4097 0 
L 288 0 
L 288 481 
L 3238 4134 
L 359 4134 
L 359 4666 
z
" transform="scale(0.015625)"/>
      </defs>
      <use xlink:href="#DejaVuSans-5a" transform="translate(0 0.125)"/>
      <use xlink:href="#DejaVuSans-20" transform="translate(68.505859 0.125)"/>
      <use xlink:href="#DejaVuSans-28" transform="translate(100.292969 0.125)"/>
      <use xlink:href="#DejaVuSans-Oblique-3bc" transform="translate(139.306641 0.125)"/>
      <use xlink:href="#DejaVuSans-6d" transform="translate(202.929688 0.125)"/>
      <use xlink:href="#DejaVuSans-29" transform="translate(300.341797 0.125)"/>
     </g>
    </g>
   </g>
   <g id="line2d_23">
    <path d="M 87.119801 68.631294 
L 87.970159 69.641505 
L 89.033106 70.867668 
L 89.600011 71.906917 
L 90.166916 73.401469 
L 90.875547 75.987945 
L 91.655042 79.714513 
L 92.576263 85.269891 
L 93.497483 92.188701 
L 94.702157 103.126995 
L 96.261146 116.984649 
L 97.04064 121.933979 
L 97.678409 124.669839 
L 98.245314 126.241908 
L 98.812219 127.216646 
L 99.379124 127.802328 
L 99.946029 128.089556 
L 100.371208 128.097655 
L 100.796387 127.864998 
L 101.221565 127.304375 
L 101.646744 126.322277 
L 102.142786 124.542628 
L 102.709691 121.612295 
L 103.489186 116.183525 
L 106.607164 92.447547 
L 107.528385 87.894105 
L 108.307879 85.080312 
L 108.945647 83.54364 
L 109.441689 82.84345 
L 109.866868 82.560662 
L 110.292047 82.516203 
L 110.929815 82.725707 
L 112.063625 83.140361 
L 112.772257 83.119475 
L 114.118656 82.994406 
L 115.039877 83.484796 
L 117.024045 85.023717 
L 117.661813 85.090515 
L 118.370444 84.993284 
L 118.866486 84.955425 
L 119.362528 85.059399 
L 120.000297 85.434881 
L 122.055328 86.939095 
L 124.464674 87.020656 
L 125.102442 87.437485 
L 126.732295 88.633691 
L 127.2992 88.714262 
L 127.795242 88.620577 
L 129.070778 88.373036 
L 129.495957 88.463652 
L 130.133725 88.812012 
L 131.621851 89.741897 
L 132.755661 89.642233 
L 134.031198 89.274834 
L 134.668966 89.375792 
L 135.44846 89.794822 
L 136.440544 90.29152 
L 137.503491 90.185617 
L 139.133344 89.603394 
L 139.700249 89.702318 
L 140.550606 90.148917 
L 141.400964 90.53826 
L 142.393048 90.433288 
L 144.377216 89.679176 
L 145.15671 89.900218 
L 146.50311 90.34926 
L 147.140878 90.238388 
L 148.203825 89.716398 
L 148.841593 89.5294 
L 149.550225 89.638126 
L 150.187993 90.02967 
L 151.676119 91.048134 
L 152.455613 91.235929 
L 153.51856 91.465487 
L 154.085465 91.836547 
L 154.723234 92.528487 
L 156.494812 94.647721 
L 157.061717 94.897916 
L 157.699485 94.906743 
L 159.045885 94.827122 
L 159.683653 95.072139 
L 161.384369 95.901204 
L 161.809547 95.898488 
L 163.368536 95.102198 
L 164.006305 94.929126 
L 164.644073 95.025664 
L 166.699104 95.67754 
L 167.762051 95.18415 
L 168.683272 94.742314 
L 169.817082 94.843182 
L 171.305208 95.316267 
L 171.80125 95.225192 
L 172.509881 94.853134 
L 173.643691 94.250732 
L 174.635775 94.336967 
L 176.619943 95.059447 
L 177.115985 94.964212 
L 178.8167 94.457846 
L 179.312742 94.57469 
L 180.092237 95.027139 
L 180.942594 95.53407 
L 181.509499 95.656463 
L 182.005541 95.594006 
L 184.060572 95.095604 
L 186.611645 96.226644 
L 187.39114 96.024875 
L 188.52495 95.696424 
L 189.091855 95.774016 
L 189.800486 96.114589 
L 190.863434 96.656844 
L 191.855517 96.571439 
L 192.705875 96.080641 
L 193.343643 95.746402 
L 193.910548 95.637902 
L 194.477453 95.738235 
L 196.319895 96.277197 
L 197.028526 96.022012 
L 198.374926 95.297987 
L 199.012694 95.237106 
L 199.650462 95.444761 
L 200.996862 95.950529 
L 201.563767 95.877976 
L 202.130672 95.622463 
L 203.406209 94.981358 
L 204.185703 95.049453 
L 204.894335 95.417731 
L 205.815555 95.929942 
L 206.524187 96.039387 
L 207.232818 95.880395 
L 208.154039 95.624345 
L 208.720944 95.665977 
L 209.358712 95.95516 
L 210.988564 96.891554 
L 211.484606 96.89993 
L 212.334964 96.57176 
L 213.397911 96.215311 
L 213.964816 96.302995 
L 214.602584 96.641999 
L 215.948984 97.438652 
L 216.515889 97.50494 
L 218.712646 97.258427 
L 219.208688 97.516559 
L 221.05113 98.672701 
L 221.618035 98.644883 
L 222.397529 98.318208 
L 223.31875 97.966828 
L 223.885655 97.979337 
L 224.594287 98.25443 
L 225.79896 98.779155 
L 226.365865 98.781329 
L 227.074496 98.535615 
L 228.137443 98.164693 
L 228.846075 98.264302 
L 229.483843 98.626687 
L 230.830243 99.461279 
L 231.468011 99.533431 
L 231.89319 99.441607 
L 233.239589 99.160653 
L 233.664768 99.257527 
L 234.302536 99.610986 
L 235.861525 100.613378 
L 236.428431 100.672277 
L 237.207925 100.503015 
L 238.058283 100.361034 
L 238.625188 100.485166 
L 239.262956 100.860252 
L 240.680219 101.792656 
L 241.247124 101.855132 
L 241.884892 101.668527 
L 243.443881 101.057229 
L 244.152512 101.088721 
L 245.286323 101.182641 
L 245.853228 100.971701 
L 246.490996 100.447161 
L 248.191711 98.808841 
L 248.758616 98.661786 
L 249.325521 98.755063 
L 250.88451 99.153028 
L 251.522279 98.982345 
L 253.222994 98.353821 
L 253.719036 98.453743 
L 254.427667 98.836364 
L 255.490614 99.413317 
L 256.057519 99.468806 
L 256.907877 99.147466 
L 258.041687 98.62188 
L 259.175497 98.716956 
L 260.451034 99.075628 
L 261.088802 98.97972 
L 261.868297 98.560147 
L 262.860381 98.056544 
L 263.852464 98.14574 
L 264.915412 98.733431 
L 265.624043 98.98404 
L 266.403537 98.895737 
L 268.175116 98.405039 
L 269.1672 98.869635 
L 270.442736 99.636 
L 271.080504 99.710737 
L 271.505683 99.612012 
L 272.993809 99.258402 
L 273.418988 99.355939 
L 274.127619 99.753382 
L 275.332293 100.488141 
L 275.899198 100.5629 
L 276.39524 100.453162 
L 278.095955 99.911294 
L 278.591997 100.0098 
L 279.442355 100.445255 
L 280.292712 100.803171 
L 280.647028 100.854908 
L 281.213933 100.755349 
L 282.985511 100.172208 
L 283.481553 100.265585 
L 284.261048 100.698268 
L 285.253132 101.229521 
L 285.820037 101.277928 
L 286.316079 101.173466 
L 287.875068 100.6802 
L 288.37111 100.77787 
L 289.079741 101.168858 
L 290.284415 101.889997 
L 290.922183 101.981149 
L 291.77254 101.826818 
L 292.197719 101.728033 
L 292.622898 101.696147 
L 293.331529 101.94403 
L 294.111024 102.541792 
L 295.173971 103.33108 
L 295.740876 103.47644 
L 296.378644 103.381657 
L 297.795907 103.050184 
L 298.433675 103.238424 
L 299.284033 103.784678 
L 300.134391 104.26222 
L 300.701296 104.34468 
L 301.197338 104.241684 
L 302.898053 103.799461 
L 303.819274 104.245891 
L 305.378263 105.259652 
L 305.945168 105.326631 
L 307.149841 105.090812 
L 307.57502 105.05364 
L 308.212788 105.218305 
L 308.992283 105.70621 
L 310.126093 106.380841 
L 310.692998 106.451536 
L 311.472492 106.26049 
L 312.393713 106.053939 
L 312.889755 106.150397 
L 313.45666 106.505228 
L 314.236155 107.304984 
L 315.440828 108.509361 
L 316.220323 108.955616 
L 317.495859 109.620942 
L 318.20449 110.302501 
L 320.259521 112.537175 
L 320.826427 112.710631 
L 321.535058 112.670472 
L 322.456279 112.641911 
L 323.023184 112.851428 
L 323.731815 113.382646 
L 325.078215 114.449191 
L 325.715983 114.618462 
L 326.566341 114.549396 
L 327.700151 114.658213 
L 328.337919 115.069459 
L 330.251224 116.565205 
L 330.818129 116.63242 
L 331.455897 116.546921 
L 331.951939 116.461455 
L 332.589707 116.549177 
L 333.156612 116.871472 
L 334.00697 117.685306 
L 334.999054 118.591783 
L 335.636822 118.896637 
L 337.550127 119.540234 
L 338.117032 120.15752 
L 338.96739 121.47021 
L 340.1012 123.156711 
L 340.809831 123.801298 
L 341.872778 124.378659 
L 342.652273 124.956871 
L 343.431767 125.866078 
L 344.990756 127.764723 
L 345.628524 128.146257 
L 346.478882 128.357797 
L 347.258377 128.632004 
L 347.896145 129.13535 
L 348.675639 130.084263 
L 349.951176 131.648289 
L 350.659807 132.143212 
L 352.360522 133.045116 
L 352.927428 133.706047 
L 353.919511 135.249964 
L 354.982458 136.779957 
L 355.69109 137.422114 
L 357.391805 138.716338 
L 358.100437 139.709223 
L 360.084604 142.759124 
L 360.793236 143.262756 
L 362.635677 144.22275 
L 363.415172 145.122383 
L 364.832435 146.965044 
L 365.682792 147.69548 
L 366.887465 148.677805 
L 367.525234 149.559578 
L 368.304728 151.088689 
L 370.218033 155.064556 
L 371.210117 156.406672 
L 372.273064 157.886134 
L 373.123422 159.501146 
L 375.107589 163.45131 
L 377.091757 166.767228 
L 377.800389 168.666212 
L 378.863336 172.26175 
L 380.564051 177.876323 
L 382.052177 182.649715 
L 383.044261 186.777232 
L 385.878786 199.246232 
L 387.225186 204.895584 
L 388.358996 210.803672 
L 391.335248 226.862889 
L 392.469058 233.538632 
L 393.886321 243.531142 
L 396.933436 266.874544 
L 397.854656 276.4044 
L 398.775877 288.327929 
L 399.697098 303.315726 
L 400.21946 313.793437 
L 400.21946 313.793437 
" clip-path="url(#pb309daa3a3)" style="fill: none; stroke: #1f77b4; stroke-width: 1.5; stroke-linecap: square"/>
   </g>
   <g id="patch_3">
    <path d="M 70.998438 260.67625 
L 70.998438 31.43625 
" style="fill: none; stroke: #000000; stroke-width: 0.8; stroke-linejoin: miter; stroke-linecap: square"/>
   </g>
   <g id="patch_4">
    <path d="M 425.668437 260.67625 
L 425.668437 31.43625 
" style="fill: none; stroke: #000000; stroke-width: 0.8; stroke-linejoin: miter; stroke-linecap: square"/>
   </g>
   <g id="patch_5">
    <path d="M 70.998437 260.67625 
L 425.668437 260.67625 
" style="fill: none; stroke: #000000; stroke-width: 0.8; stroke-linejoin: miter; stroke-linecap: square"/>
   </g>
   <g id="patch_6">
    <path d="M 70.998437 31.43625 
L 425.668437 31.43625 
" style="fill: none; stroke: #000000; stroke-width: 0.8; stroke-linejoin: miter; stroke-linecap: square"/>
   </g>
   <g id="text_14">
    <!-- RF null Z position -->
    <g transform="translate(144.023438 25.43625)scale(0.24 -0.24)">
     <defs>
      <path id="DejaVuSans-52" d="M 2841 2188 
Q 3044 2119 3236 1894 
Q 3428 1669 3622 1275 
L 4263 0 
L 3584 0 
L 2988 1197 
Q 2756 1666 2539 1819 
Q 2322 1972 1947 1972 
L 1259 1972 
L 1259 0 
L 628 0 
L 628 4666 
L 2053 4666 
Q 2853 4666 3247 4331 
Q 3641 3997 3641 3322 
Q 3641 2881 3436 2590 
Q 3231 2300 2841 2188 
z
M 1259 4147 
L 1259 2491 
L 2053 2491 
Q 2509 2491 2742 2702 
Q 2975 2913 2975 3322 
Q 2975 3731 2742 3939 
Q 2509 4147 2053 4147 
L 1259 4147 
z
" transform="scale(0.015625)"/>
      <path id="DejaVuSans-46" d="M 628 4666 
L 3309 4666 
L 3309 4134 
L 1259 4134 
L 1259 2759 
L 3109 2759 
L 3109 2228 
L 1259 2228 
L 1259 0 
L 628 0 
L 628 4666 
z
" transform="scale(0.015625)"/>
      <path id="DejaVuSans-6e" d="M 3513 2113 
L 3513 0 
L 2938 0 
L 2938 2094 
Q 2938 2591 2744 2837 
Q 2550 3084 2163 3084 
Q 1697 3084 1428 2787 
Q 1159 2491 1159 1978 
L 1159 0 
L 581 0 
L 581 3500 
L 1159 3500 
L 1159 2956 
Q 1366 3272 1645 3428 
Q 1925 3584 2291 3584 
Q 2894 3584 3203 3211 
Q 3513 2838 3513 2113 
z
" transform="scale(0.015625)"/>
      <path id="DejaVuSans-75" d="M 544 1381 
L 544 3500 
L 1119 3500 
L 1119 1403 
Q 1119 906 1312 657 
Q 1506 409 1894 409 
Q 2359 409 2629 706 
Q 2900 1003 2900 1516 
L 2900 3500 
L 3475 3500 
L 3475 0 
L 2900 0 
L 2900 538 
Q 2691 219 2414 64 
Q 2138 -91 1772 -91 
Q 1169 -91 856 284 
Q 544 659 544 1381 
z
M 1991 3584 
L 1991 3584 
z
" transform="scale(0.015625)"/>
      <path id="DejaVuSans-6c" d="M 603 4863 
L 1178 4863 
L 1178 0 
L 603 0 
L 603 4863 
z
" transform="scale(0.015625)"/>
      <path id="DejaVuSans-70" d="M 1159 525 
L 1159 -1331 
L 581 -1331 
L 581 3500 
L 1159 3500 
L 1159 2969 
Q 1341 3281 1617 3432 
Q 1894 3584 2278 3584 
Q 2916 3584 3314 3078 
Q 3713 2572 3713 1747 
Q 3713 922 3314 415 
Q 2916 -91 2278 -91 
Q 1894 -91 1617 61 
Q 1341 213 1159 525 
z
M 3116 1747 
Q 3116 2381 2855 2742 
Q 2594 3103 2138 3103 
Q 1681 3103 1420 2742 
Q 1159 2381 1159 1747 
Q 1159 1113 1420 752 
Q 1681 391 2138 391 
Q 2594 391 2855 752 
Q 3116 1113 3116 1747 
z
" transform="scale(0.015625)"/>
      <path id="DejaVuSans-6f" d="M 1959 3097 
Q 1497 3097 1228 2736 
Q 959 2375 959 1747 
Q 959 1119 1226 758 
Q 1494 397 1959 397 
Q 2419 397 2687 759 
Q 2956 1122 2956 1747 
Q 2956 2369 2687 2733 
Q 2419 3097 1959 3097 
z
M 1959 3584 
Q 2709 3584 3137 3096 
Q 3566 2609 3566 1747 
Q 3566 888 3137 398 
Q 2709 -91 1959 -91 
Q 1206 -91 779 398 
Q 353 888 353 1747 
Q 353 2609 779 3096 
Q 1206 3584 1959 3584 
z
" transform="scale(0.015625)"/>
      <path id="DejaVuSans-73" d="M 2834 3397 
L 2834 2853 
Q 2591 2978 2328 3040 
Q 2066 3103 1784 3103 
Q 1356 3103 1142 2972 
Q 928 2841 928 2578 
Q 928 2378 1081 2264 
Q 1234 2150 1697 2047 
L 1894 2003 
Q 2506 1872 2764 1633 
Q 3022 1394 3022 966 
Q 3022 478 2636 193 
Q 2250 -91 1575 -91 
Q 1294 -91 989 -36 
Q 684 19 347 128 
L 347 722 
Q 666 556 975 473 
Q 1284 391 1588 391 
Q 1994 391 2212 530 
Q 2431 669 2431 922 
Q 2431 1156 2273 1281 
Q 2116 1406 1581 1522 
L 1381 1569 
Q 847 1681 609 1914 
Q 372 2147 372 2553 
Q 372 3047 722 3315 
Q 1072 3584 1716 3584 
Q 2034 3584 2315 3537 
Q 2597 3491 2834 3397 
z
" transform="scale(0.015625)"/>
      <path id="DejaVuSans-69" d="M 603 3500 
L 1178 3500 
L 1178 0 
L 603 0 
L 603 3500 
z
M 603 4863 
L 1178 4863 
L 1178 4134 
L 603 4134 
L 603 4863 
z
" transform="scale(0.015625)"/>
      <path id="DejaVuSans-74" d="M 1172 4494 
L 1172 3500 
L 2356 3500 
L 2356 3053 
L 1172 3053 
L 1172 1153 
Q 1172 725 1289 603 
Q 1406 481 1766 481 
L 2356 481 
L 2356 0 
L 1766 0 
Q 1100 0 847 248 
Q 594 497 594 1153 
L 594 3053 
L 172 3053 
L 172 3500 
L 594 3500 
L 594 4494 
L 1172 4494 
z
" transform="scale(0.015625)"/>
     </defs>
     <use xlink:href="#DejaVuSans-52"/>
     <use xlink:href="#DejaVuSans-46" x="69.482422"/>
     <use xlink:href="#DejaVuSans-20" x="127.001953"/>
     <use xlink:href="#DejaVuSans-6e" x="158.789062"/>
     <use xlink:href="#DejaVuSans-75" x="222.167969"/>
     <use xlink:href="#DejaVuSans-6c" x="285.546875"/>
     <use xlink:href="#DejaVuSans-6c" x="313.330078"/>
     <use xlink:href="#DejaVuSans-20" x="341.113281"/>
     <use xlink:href="#DejaVuSans-5a" x="372.900391"/>
     <use xlink:href="#DejaVuSans-20" x="441.40625"/>
     <use xlink:href="#DejaVuSans-70" x="473.193359"/>
     <use xlink:href="#DejaVuSans-6f" x="536.669922"/>
     <use xlink:href="#DejaVuSans-73" x="597.851562"/>
     <use xlink:href="#DejaVuSans-69" x="649.951172"/>
     <use xlink:href="#DejaVuSans-74" x="677.734375"/>
     <use xlink:href="#DejaVuSans-69" x="716.943359"/>
     <use xlink:href="#DejaVuSans-6f" x="744.726562"/>
     <use xlink:href="#DejaVuSans-6e" x="805.908203"/>
    </g>
   </g>
  </g>
  <g id="axes_2">
   <g id="patch_7">
    <path d="M 527.298438 260.67625 
L 881.968438 260.67625 
L 881.968438 31.43625 
L 527.298438 31.43625 
L 527.298438 260.67625 
z
" style="fill: none"/>
   </g>
   <g id="matplotlib.axis_3">
    <g id="xtick_6">
     <g id="line2d_24">
      <path d="M 559.009691 260.67625 
L 559.009691 31.43625 
" clip-path="url(#p21b594530e)" style="fill: none; stroke: #b0b0b0; stroke-width: 0.8; stroke-linecap: square"/>
     </g>
     <g id="line2d_25">
      <g>
       <use xlink:href="#md39032bed2" x="559.009691" y="260.67625" style="stroke: #000000; stroke-width: 0.8"/>
      </g>
     </g>
     <g id="text_15">
      <!-- −3000 -->
      <g transform="translate(533.637426 279.073906)scale(0.15 -0.15)">
       <use xlink:href="#DejaVuSans-2212"/>
       <use xlink:href="#DejaVuSans-33" x="83.789062"/>
       <use xlink:href="#DejaVuSans-30" x="147.412109"/>
       <use xlink:href="#DejaVuSans-30" x="211.035156"/>
       <use xlink:href="#DejaVuSans-30" x="274.658203"/>
      </g>
     </g>
    </g>
    <g id="xtick_7">
     <g id="line2d_26">
      <path d="M 629.872828 260.67625 
L 629.872828 31.43625 
" clip-path="url(#p21b594530e)" style="fill: none; stroke: #b0b0b0; stroke-width: 0.8; stroke-linecap: square"/>
     </g>
     <g id="line2d_27">
      <g>
       <use xlink:href="#md39032bed2" x="629.872828" y="260.67625" style="stroke: #000000; stroke-width: 0.8"/>
      </g>
     </g>
     <g id="text_16">
      <!-- −2000 -->
      <g transform="translate(604.500562 279.073906)scale(0.15 -0.15)">
       <use xlink:href="#DejaVuSans-2212"/>
       <use xlink:href="#DejaVuSans-32" x="83.789062"/>
       <use xlink:href="#DejaVuSans-30" x="147.412109"/>
       <use xlink:href="#DejaVuSans-30" x="211.035156"/>
       <use xlink:href="#DejaVuSans-30" x="274.658203"/>
      </g>
     </g>
    </g>
    <g id="xtick_8">
     <g id="line2d_28">
      <path d="M 700.735965 260.67625 
L 700.735965 31.43625 
" clip-path="url(#p21b594530e)" style="fill: none; stroke: #b0b0b0; stroke-width: 0.8; stroke-linecap: square"/>
     </g>
     <g id="line2d_29">
      <g>
       <use xlink:href="#md39032bed2" x="700.735965" y="260.67625" style="stroke: #000000; stroke-width: 0.8"/>
      </g>
     </g>
     <g id="text_17">
      <!-- −1000 -->
      <g transform="translate(675.363699 279.073906)scale(0.15 -0.15)">
       <use xlink:href="#DejaVuSans-2212"/>
       <use xlink:href="#DejaVuSans-31" x="83.789062"/>
       <use xlink:href="#DejaVuSans-30" x="147.412109"/>
       <use xlink:href="#DejaVuSans-30" x="211.035156"/>
       <use xlink:href="#DejaVuSans-30" x="274.658203"/>
      </g>
     </g>
    </g>
    <g id="xtick_9">
     <g id="line2d_30">
      <path d="M 771.599102 260.67625 
L 771.599102 31.43625 
" clip-path="url(#p21b594530e)" style="fill: none; stroke: #b0b0b0; stroke-width: 0.8; stroke-linecap: square"/>
     </g>
     <g id="line2d_31">
      <g>
       <use xlink:href="#md39032bed2" x="771.599102" y="260.67625" style="stroke: #000000; stroke-width: 0.8"/>
      </g>
     </g>
     <g id="text_18">
      <!-- 0 -->
      <g transform="translate(766.827227 279.073906)scale(0.15 -0.15)">
       <use xlink:href="#DejaVuSans-30"/>
      </g>
     </g>
    </g>
    <g id="xtick_10">
     <g id="line2d_32">
      <path d="M 842.462239 260.67625 
L 842.462239 31.43625 
" clip-path="url(#p21b594530e)" style="fill: none; stroke: #b0b0b0; stroke-width: 0.8; stroke-linecap: square"/>
     </g>
     <g id="line2d_33">
      <g>
       <use xlink:href="#md39032bed2" x="842.462239" y="260.67625" style="stroke: #000000; stroke-width: 0.8"/>
      </g>
     </g>
     <g id="text_19">
      <!-- 1000 -->
      <g transform="translate(823.374739 279.073906)scale(0.15 -0.15)">
       <use xlink:href="#DejaVuSans-31"/>
       <use xlink:href="#DejaVuSans-30" x="63.623047"/>
       <use xlink:href="#DejaVuSans-30" x="127.246094"/>
       <use xlink:href="#DejaVuSans-30" x="190.869141"/>
      </g>
     </g>
    </g>
    <g id="text_20">
     <!-- X ($\mu$m) -->
     <g transform="translate(670.633438 301.393437)scale(0.2 -0.2)">
      <use xlink:href="#DejaVuSans-58" transform="translate(0 0.125)"/>
      <use xlink:href="#DejaVuSans-20" transform="translate(68.505859 0.125)"/>
      <use xlink:href="#DejaVuSans-28" transform="translate(100.292969 0.125)"/>
      <use xlink:href="#DejaVuSans-Oblique-3bc" transform="translate(139.306641 0.125)"/>
      <use xlink:href="#DejaVuSans-6d" transform="translate(202.929688 0.125)"/>
      <use xlink:href="#DejaVuSans-29" transform="translate(300.341797 0.125)"/>
     </g>
    </g>
   </g>
   <g id="matplotlib.axis_4">
    <g id="ytick_7">
     <g id="line2d_34">
      <path d="M 527.298438 260.67625 
L 881.968438 260.67625 
" clip-path="url(#p21b594530e)" style="fill: none; stroke: #b0b0b0; stroke-width: 0.8; stroke-linecap: square"/>
     </g>
     <g id="line2d_35">
      <g>
       <use xlink:href="#m6f3f5b6aff" x="527.298438" y="260.67625" style="stroke: #000000; stroke-width: 0.8"/>
      </g>
     </g>
     <g id="text_21">
      <!-- −0.2 -->
      <g transform="translate(483.874219 266.375078)scale(0.15 -0.15)">
       <use xlink:href="#DejaVuSans-2212"/>
       <use xlink:href="#DejaVuSans-30" x="83.789062"/>
       <use xlink:href="#DejaVuSans-2e" x="147.412109"/>
       <use xlink:href="#DejaVuSans-32" x="179.199219"/>
      </g>
     </g>
    </g>
    <g id="ytick_8">
     <g id="line2d_36">
      <path d="M 527.298438 203.36625 
L 881.968438 203.36625 
" clip-path="url(#p21b594530e)" style="fill: none; stroke: #b0b0b0; stroke-width: 0.8; stroke-linecap: square"/>
     </g>
     <g id="line2d_37">
      <g>
       <use xlink:href="#m6f3f5b6aff" x="527.298438" y="203.36625" style="stroke: #000000; stroke-width: 0.8"/>
      </g>
     </g>
     <g id="text_22">
      <!-- −0.1 -->
      <g transform="translate(483.874219 209.065078)scale(0.15 -0.15)">
       <use xlink:href="#DejaVuSans-2212"/>
       <use xlink:href="#DejaVuSans-30" x="83.789062"/>
       <use xlink:href="#DejaVuSans-2e" x="147.412109"/>
       <use xlink:href="#DejaVuSans-31" x="179.199219"/>
      </g>
     </g>
    </g>
    <g id="ytick_9">
     <g id="line2d_38">
      <path d="M 527.298438 146.05625 
L 881.968438 146.05625 
" clip-path="url(#p21b594530e)" style="fill: none; stroke: #b0b0b0; stroke-width: 0.8; stroke-linecap: square"/>
     </g>
     <g id="line2d_39">
      <g>
       <use xlink:href="#m6f3f5b6aff" x="527.298438" y="146.05625" style="stroke: #000000; stroke-width: 0.8"/>
      </g>
     </g>
     <g id="text_23">
      <!-- 0.0 -->
      <g transform="translate(496.44375 151.755078)scale(0.15 -0.15)">
       <use xlink:href="#DejaVuSans-30"/>
       <use xlink:href="#DejaVuSans-2e" x="63.623047"/>
       <use xlink:href="#DejaVuSans-30" x="95.410156"/>
      </g>
     </g>
    </g>
    <g id="ytick_10">
     <g id="line2d_40">
      <path d="M 527.298438 88.74625 
L 881.968438 88.74625 
" clip-path="url(#p21b594530e)" style="fill: none; stroke: #b0b0b0; stroke-width: 0.8; stroke-linecap: square"/>
     </g>
     <g id="line2d_41">
      <g>
       <use xlink:href="#m6f3f5b6aff" x="527.298438" y="88.74625" style="stroke: #000000; stroke-width: 0.8"/>
      </g>
     </g>
     <g id="text_24">
      <!-- 0.1 -->
      <g transform="translate(496.44375 94.445078)scale(0.15 -0.15)">
       <use xlink:href="#DejaVuSans-30"/>
       <use xlink:href="#DejaVuSans-2e" x="63.623047"/>
       <use xlink:href="#DejaVuSans-31" x="95.410156"/>
      </g>
     </g>
    </g>
    <g id="ytick_11">
     <g id="line2d_42">
      <path d="M 527.298438 31.43625 
L 881.968438 31.43625 
" clip-path="url(#p21b594530e)" style="fill: none; stroke: #b0b0b0; stroke-width: 0.8; stroke-linecap: square"/>
     </g>
     <g id="line2d_43">
      <g>
       <use xlink:href="#m6f3f5b6aff" x="527.298438" y="31.43625" style="stroke: #000000; stroke-width: 0.8"/>
      </g>
     </g>
     <g id="text_25">
      <!-- 0.2 -->
      <g transform="translate(496.44375 37.135078)scale(0.15 -0.15)">
       <use xlink:href="#DejaVuSans-30"/>
       <use xlink:href="#DejaVuSans-2e" x="63.623047"/>
       <use xlink:href="#DejaVuSans-32" x="95.410156"/>
      </g>
     </g>
    </g>
    <g id="text_26">
     <!-- Y ($\mu$m) -->
     <g transform="translate(475.674219 179.25625)rotate(-90)scale(0.2 -0.2)">
      <defs>
       <path id="DejaVuSans-59" d="M -13 4666 
L 666 4666 
L 1959 2747 
L 3244 4666 
L 3922 4666 
L 2272 2222 
L 2272 0 
L 1638 0 
L 1638 2222 
L -13 4666 
z
" transform="scale(0.015625)"/>
      </defs>
      <use xlink:href="#DejaVuSans-59" transform="translate(0 0.125)"/>
      <use xlink:href="#DejaVuSans-20" transform="translate(61.083984 0.125)"/>
      <use xlink:href="#DejaVuSans-28" transform="translate(92.871094 0.125)"/>
      <use xlink:href="#DejaVuSans-Oblique-3bc" transform="translate(131.884766 0.125)"/>
      <use xlink:href="#DejaVuSans-6d" transform="translate(195.507812 0.125)"/>
      <use xlink:href="#DejaVuSans-29" transform="translate(292.919922 0.125)"/>
     </g>
    </g>
   </g>
   <g id="line2d_44">
    <path d="M 543.419801 207.541743 
L 544.199296 206.360077 
L 546.608642 200.966081 
L 550.435252 191.955117 
L 552.065104 188.808271 
L 556.742071 180.38895 
L 557.875881 177.514929 
L 558.938828 174.208144 
L 559.930912 170.396976 
L 560.922996 165.642261 
L 562.056806 158.958474 
L 565.599963 137.074328 
L 566.592047 132.780174 
L 567.654994 129.17311 
L 568.717941 126.358231 
L 569.780888 124.170808 
L 569.851751 124.170808 
L 570.064341 123.67957 
L 570.135204 123.67957 
L 570.347793 123.229818 
L 570.418656 123.229818 
L 570.702109 122.706843 
L 571.835919 121.412685 
L 572.75714 120.688653 
L 573.607497 120.266746 
L 574.032676 120.19646 
L 574.174403 120.087418 
L 575.591665 120.19659 
L 576.300297 120.609035 
L 577.150654 121.38909 
L 578.709643 123.230049 
L 578.922233 123.6086 
L 578.993096 123.6086 
L 579.205685 123.986198 
L 579.276548 123.986198 
L 579.489138 124.368367 
L 579.560001 124.368367 
L 579.77259 124.733344 
L 579.843453 124.733344 
L 580.056043 125.091097 
L 580.126906 125.091097 
L 580.339495 125.448371 
L 580.410359 125.448371 
L 580.693811 125.866896 
L 581.969348 127.205998 
L 583.315747 128.237256 
L 583.457473 128.237256 
L 583.5992 128.363577 
L 583.670063 128.363577 
L 583.882652 128.569619 
L 584.024379 128.647872 
L 585.087326 129.104598 
L 585.299915 129.104598 
L 585.441641 129.242308 
L 585.654231 129.323821 
L 586.07941 129.492378 
L 587.496672 129.947644 
L 590.402061 130.685978 
L 590.61465 130.685978 
L 590.82724 130.83797 
L 592.315366 131.076903 
L 593.520039 131.07055 
L 594.795575 130.813533 
L 596.638017 130.122131 
L 598.05528 129.73092 
L 599.401679 129.824905 
L 600.252037 130.245768 
L 600.393763 130.346107 
L 600.464626 130.346107 
L 600.606353 130.508671 
L 600.677216 130.508671 
L 600.889805 130.802631 
L 600.960668 130.802631 
L 601.244121 131.112595 
L 602.661384 132.347869 
L 602.732247 132.347869 
L 602.873973 132.521679 
L 602.944836 132.521679 
L 603.157426 132.803866 
L 603.299152 132.903658 
L 604.362099 133.451913 
L 605.07073 133.592858 
L 605.708498 133.497408 
L 606.346267 133.159974 
L 606.842309 132.683254 
L 607.480077 131.73722 
L 608.117845 130.365089 
L 608.826476 128.268818 
L 609.605971 125.321787 
L 610.881507 119.509314 
L 612.582223 111.947297 
L 613.574307 108.480504 
L 614.566391 105.780303 
L 615.629338 103.556437 
L 616.834011 101.5504 
L 620.377168 95.964249 
L 620.589757 95.466186 
L 620.66062 95.466186 
L 620.944073 94.844587 
L 622.361336 92.46213 
L 622.432199 92.46213 
L 622.644788 92.026162 
L 622.715651 92.026162 
L 622.928241 91.602432 
L 622.999104 91.602432 
L 623.282556 91.10929 
L 624.48723 89.666922 
L 625.195861 89.091688 
L 625.266724 89.091688 
L 625.40845 88.937364 
L 625.479314 88.937364 
L 625.691903 88.70456 
L 625.833629 88.624789 
L 626.75485 88.254778 
L 627.321755 88.165123 
L 628.951607 88.269039 
L 630.227144 88.536233 
L 630.510596 88.536233 
L 630.723186 88.705663 
L 631.998722 88.988821 
L 632.84908 89.048308 
L 633.98289 88.948834 
L 635.1167 88.691548 
L 635.32929 88.485374 
L 635.541879 88.380445 
L 636.604826 87.670531 
L 637.809499 86.638913 
L 638.022089 86.322251 
L 638.092952 86.322251 
L 638.376405 85.901793 
L 639.793667 84.008654 
L 640.006257 83.572024 
L 640.07712 83.572024 
L 640.289709 83.108237 
L 640.360572 83.108237 
L 640.644025 82.523659 
L 644.683224 75.509599 
L 645.108403 74.650028 
L 645.179266 74.650028 
L 645.462718 73.999179 
L 648.226381 69.165748 
L 648.651559 68.75 
L 649.501917 68.470968 
L 649.927096 68.603887 
L 650.068822 68.703699 
L 650.139685 68.703699 
L 650.352275 69.041937 
L 650.423138 69.041937 
L 650.990043 70.186748 
L 651.698674 72.08341 
L 652.336442 74.553318 
L 653.045074 78.197239 
L 654.037158 84.968003 
L 654.958379 93.131782 
L 656.092189 105.086405 
L 658.288946 128.447517 
L 659.28103 136.605619 
L 660.273114 142.807122 
L 661.052608 146.450053 
L 661.902966 149.730132 
L 662.68246 152.159728 
L 664.02886 155.747575 
L 666.083891 160.788421 
L 667.855469 165.72033 
L 668.564101 167.903075 
L 670.831721 174.380886 
L 672.107258 177.576449 
L 675.366962 185.029274 
L 676.996814 188.182916 
L 679.477024 193.097841 
L 682.09896 199.270252 
L 683.374496 201.816479 
L 684.153991 203.040842 
L 684.224854 203.040842 
L 684.437443 203.42267 
L 684.508307 203.42267 
L 684.720896 203.765179 
L 684.791759 203.765179 
L 685.075212 204.137076 
L 685.854706 204.736764 
L 686.421611 204.996716 
L 687.130243 205.0976 
L 687.9806 204.964562 
L 688.618369 204.616895 
L 689.468726 204.031124 
L 689.681316 203.764135 
L 689.752179 203.764135 
L 690.035631 203.385398 
L 691.098578 202.04207 
L 692.444978 200.030889 
L 692.728431 199.409276 
L 694.28742 196.397028 
L 695.846409 192.910037 
L 697.121945 189.603103 
L 698.326618 185.828072 
L 699.318702 181.992076 
L 700.310786 177.271687 
L 701.515459 170.302661 
L 704.420848 152.711868 
L 705.342069 148.723742 
L 706.121563 146.166917 
L 706.334153 145.711452 
L 707.113647 143.972478 
L 707.893142 142.787104 
L 708.53091 142.178302 
L 709.097815 141.892239 
L 710.302488 141.986137 
L 711.01112 142.415796 
L 712.074067 143.307142 
L 712.286656 143.590108 
L 712.357519 143.590108 
L 712.640972 143.942767 
L 713.774782 144.910619 
L 714.554277 145.304265 
L 714.979455 145.385493 
L 715.192045 145.51534 
L 716.254992 145.591011 
L 719.798149 145.62424 
L 720.010738 145.695511 
L 723.553895 146.050816 
L 726.034105 145.99033 
L 728.656041 145.83229 
L 730.498482 145.976215 
L 732.057471 146.062126 
L 733.403871 146.172252 
L 734.750271 146.111865 
L 735.813218 146.052877 
L 736.380123 145.983547 
L 739.285511 145.42119 
L 739.568964 145.319075 
L 741.978311 145.044019 
L 742.616079 144.937333 
L 744.45852 144.524701 
L 744.883699 144.349612 
L 746.017509 143.799781 
L 747.434772 142.945807 
L 747.647362 142.670607 
L 747.789088 142.562393 
L 748.852035 141.841153 
L 748.922898 141.841153 
L 749.135487 141.626081 
L 749.914982 141.348053 
L 750.623613 141.380218 
L 751.190518 141.618805 
L 751.970013 142.151499 
L 752.182602 142.425342 
L 752.253465 142.425342 
L 752.466055 142.722069 
L 752.536918 142.722069 
L 752.820371 143.120944 
L 755.51317 146.149051 
L 755.654896 146.167606 
L 756.717843 147.102746 
L 756.859569 147.102746 
L 757.001296 147.267239 
L 757.072159 147.267239 
L 757.284748 147.519595 
L 757.426474 147.620164 
L 758.560285 148.227667 
L 759.198053 148.330222 
L 759.410642 148.462445 
L 760.190137 148.466852 
L 761.111358 148.182529 
L 762.245168 147.590964 
L 762.386894 147.444988 
L 762.457757 147.444988 
L 762.670347 147.195935 
L 762.882936 147.089611 
L 763.095525 146.881335 
L 763.308115 146.782086 
L 763.520704 146.579998 
L 763.662431 146.579998 
L 763.804157 146.433014 
L 763.87502 146.433014 
L 764.087609 146.188072 
L 764.300199 146.146658 
L 764.512788 145.918055 
L 764.654514 145.951069 
L 766.071777 145.125023 
L 767.701629 144.004162 
L 768.764576 143.013956 
L 768.977166 142.654923 
L 769.048029 142.654923 
L 769.331481 142.148949 
L 770.040113 140.907571 
L 770.677881 139.440402 
L 771.457376 137.07496 
L 772.307733 133.699025 
L 773.299817 128.765838 
L 777.126427 108.568138 
L 778.189374 104.609674 
L 779.394047 100.968634 
L 780.669583 97.787554 
L 781.94512 95.111588 
L 782.866341 93.486023 
L 782.937204 93.486023 
L 783.149793 93.030597 
L 783.220656 93.030597 
L 783.433246 92.594344 
L 783.504109 92.594344 
L 783.787561 92.075956 
L 787.188992 87.182199 
L 787.401581 86.702453 
L 787.472444 86.702453 
L 787.685034 86.21639 
L 787.755897 86.21639 
L 787.968486 85.726425 
L 788.03935 85.726425 
L 788.251939 85.257308 
L 788.322802 85.257308 
L 788.535392 84.794268 
L 788.606255 84.794268 
L 788.889707 84.231803 
L 789.952654 82.81432 
L 790.590423 82.215995 
L 791.299054 81.888671 
L 791.795096 81.897584 
L 792.362001 82.141678 
L 792.57459 82.402474 
L 792.645453 82.402474 
L 792.858043 82.754127 
L 792.928906 82.754127 
L 793.283222 83.464714 
L 793.92099 84.946866 
L 794.700484 87.430574 
L 795.834295 92.093843 
L 798.739683 104.625892 
L 800.369535 110.346773 
L 805.046502 126.156608 
L 810.502964 145.540795 
L 811.7785 149.152649 
L 813.620942 153.890032 
L 815.60511 159.049186 
L 816.597194 162.26256 
L 817.518415 165.910629 
L 818.581362 170.978769 
L 821.628476 186.119595 
L 822.478834 189.00021 
L 823.187465 190.735457 
L 823.825234 191.809367 
L 824.392139 192.390877 
L 824.888181 192.6215 
L 825.384223 192.599791 
L 825.880265 192.317486 
L 826.44717 191.653344 
L 827.014075 190.615032 
L 827.651843 189.005166 
L 828.431338 186.379048 
L 829.352558 182.404838 
L 830.557232 176.292135 
L 832.683126 165.59511 
L 834.029525 160.072566 
L 835.446788 155.232965 
L 837.360093 149.523515 
L 839.273398 144.372356 
L 840.761523 140.708335 
L 841.753607 138.824219 
L 842.462239 137.912244 
L 843.029144 137.472908 
L 843.596049 137.280723 
L 844.233817 137.320059 
L 845.155038 137.725848 
L 848.343879 139.418816 
L 849.2651 139.554295 
L 850.328047 139.44332 
L 851.036678 139.214032 
L 852.099625 138.678194 
L 855.713645 136.75112 
L 856.918319 136.502098 
L 858.052129 136.51845 
L 859.256802 136.743218 
L 861.382696 137.439542 
L 862.58737 137.766898 
L 862.729096 138.092639 
L 862.799959 139.030309 
L 862.941685 137.450188 
L 863.012548 137.955489 
L 863.083412 137.527289 
L 863.154275 136.362314 
L 863.225138 138.804962 
L 863.296001 138.682868 
L 863.366864 137.540153 
L 863.50859 139.402139 
L 863.579453 137.202819 
L 863.650317 138.167481 
L 863.72118 139.958267 
L 863.792043 139.0851 
L 863.862906 140.494698 
L 863.933769 139.422853 
L 864.146359 128.964878 
L 864.288085 146.05625 
L 864.571537 146.05625 
L 864.642401 133.50099 
L 864.713264 144.309338 
L 864.784127 140.545069 
L 864.85499 136.449529 
L 864.925853 173.768725 
L 865.138442 60.579232 
L 865.209306 110.084395 
L 865.249763 -1 
M 865.305831 -1 
L 865.351032 146.05625 
L 865.421895 139.900341 
L 865.563621 146.05625 
L 865.634484 146.05473 
L 865.691513 -1 
M 865.774658 -1 
L 865.776211 -0.200703 
L 865.847074 146.05625 
L 865.847074 146.05625 
" clip-path="url(#p21b594530e)" style="fill: none; stroke: #1f77b4; stroke-width: 1.5; stroke-linecap: square"/>
   </g>
   <g id="patch_8">
    <path d="M 527.298438 260.67625 
L 527.298438 31.43625 
" style="fill: none; stroke: #000000; stroke-width: 0.8; stroke-linejoin: miter; stroke-linecap: square"/>
   </g>
   <g id="patch_9">
    <path d="M 881.968438 260.67625 
L 881.968438 31.43625 
" style="fill: none; stroke: #000000; stroke-width: 0.8; stroke-linejoin: miter; stroke-linecap: square"/>
   </g>
   <g id="patch_10">
    <path d="M 527.298438 260.67625 
L 881.968438 260.67625 
" style="fill: none; stroke: #000000; stroke-width: 0.8; stroke-linejoin: miter; stroke-linecap: square"/>
   </g>
   <g id="patch_11">
    <path d="M 527.298438 31.43625 
L 881.968438 31.43625 
" style="fill: none; stroke: #000000; stroke-width: 0.8; stroke-linejoin: miter; stroke-linecap: square"/>
   </g>
   <g id="text_27">
    <!-- RF null Y position -->
    <g transform="translate(601.214063 25.43625)scale(0.24 -0.24)">
     <use xlink:href="#DejaVuSans-52"/>
     <use xlink:href="#DejaVuSans-46" x="69.482422"/>
     <use xlink:href="#DejaVuSans-20" x="127.001953"/>
     <use xlink:href="#DejaVuSans-6e" x="158.789062"/>
     <use xlink:href="#DejaVuSans-75" x="222.167969"/>
     <use xlink:href="#DejaVuSans-6c" x="285.546875"/>
     <use xlink:href="#DejaVuSans-6c" x="313.330078"/>
     <use xlink:href="#DejaVuSans-20" x="341.113281"/>
     <use xlink:href="#DejaVuSans-59" x="372.900391"/>
     <use xlink:href="#DejaVuSans-20" x="433.984375"/>
     <use xlink:href="#DejaVuSans-70" x="465.771484"/>
     <use xlink:href="#DejaVuSans-6f" x="529.248047"/>
     <use xlink:href="#DejaVuSans-73" x="590.429688"/>
     <use xlink:href="#DejaVuSans-69" x="642.529297"/>
     <use xlink:href="#DejaVuSans-74" x="670.3125"/>
     <use xlink:href="#DejaVuSans-69" x="709.521484"/>
     <use xlink:href="#DejaVuSans-6f" x="737.304688"/>
     <use xlink:href="#DejaVuSans-6e" x="798.486328"/>
    </g>
   </g>
  </g>
 </g>
 <defs>
  <clipPath id="pb309daa3a3">
   <rect x="70.998438" y="31.43625" width="354.67" height="229.24"/>
  </clipPath>
  <clipPath id="p21b594530e">
   <rect x="527.298438" y="31.43625" width="354.67" height="229.24"/>
  </clipPath>
 </defs>
</svg>
