<?xml version="1.0" encoding="utf-8" standalone="no"?>
<!DOCTYPE svg PUBLIC "-//W3C//DTD SVG 1.1//EN"
  "http://www.w3.org/Graphics/SVG/1.1/DTD/svg11.dtd">
<svg xmlns:xlink="http://www.w3.org/1999/xlink" width="447.844219pt" height="349.665437pt" viewBox="0 0 447.844219 349.665437" xmlns="http://www.w3.org/2000/svg" version="1.1">
 <defs>
  <style type="text/css">*{stroke-linejoin: round; stroke-linecap: butt}</style>
 </defs>
 <g id="figure_1">
  <g id="patch_1">
   <path d="M 0 349.665437 
L 447.844219 349.665437 
L 447.844219 0 
L 0 0 
L 0 349.665437 
z
" style="fill: none"/>
  </g>
  <g id="axes_1">
   <g id="patch_2">
    <path d="M 83.524219 297.54825 
L 440.644219 297.54825 
L 440.644219 31.43625 
L 83.524219 31.43625 
L 83.524219 297.54825 
z
" style="fill: none"/>
   </g>
   <g id="matplotlib.axis_1">
    <g id="xtick_1">
     <g id="line2d_1">
      <path d="M 115.454528 297.54825 
L 115.454528 31.43625 
" clip-path="url(#p2592da7fbd)" style="fill: none; stroke: #b0b0b0; stroke-width: 0.8; stroke-linecap: square"/>
     </g>
     <g id="line2d_2">
      <defs>
       <path id="md39032bed2" d="M 0 0 
L 0 3.5 
" style="stroke: #000000; stroke-width: 0.8"/>
      </defs>
      <g>
       <use xlink:href="#md39032bed2" x="115.454528" y="297.54825" style="stroke: #000000; stroke-width: 0.8"/>
      </g>
     </g>
     <g id="text_1">
      <!-- −3000 -->
      <g transform="translate(90.082263 315.945906)scale(0.15 -0.15)">
       <defs>
        <path id="DejaVuSans-2212" d="M 678 2272 
L 4684 2272 
L 4684 1741 
L 678 1741 
L 678 2272 
z
" transform="scale(0.015625)"/>
        <path id="DejaVuSans-33" d="M 2597 2516 
Q 3050 2419 3304 2112 
Q 3559 1806 3559 1356 
Q 3559 666 3084 287 
Q 2609 -91 1734 -91 
Q 1441 -91 1130 -33 
Q 819 25 488 141 
L 488 750 
Q 750 597 1062 519 
Q 1375 441 1716 441 
Q 2309 441 2620 675 
Q 2931 909 2931 1356 
Q 2931 1769 2642 2001 
Q 2353 2234 1838 2234 
L 1294 2234 
L 1294 2753 
L 1863 2753 
Q 2328 2753 2575 2939 
Q 2822 3125 2822 3475 
Q 2822 3834 2567 4026 
Q 2313 4219 1838 4219 
Q 1578 4219 1281 4162 
Q 984 4106 628 3988 
L 628 4550 
Q 988 4650 1302 4700 
Q 1616 4750 1894 4750 
Q 2613 4750 3031 4423 
Q 3450 4097 3450 3541 
Q 3450 3153 3228 2886 
Q 3006 2619 2597 2516 
z
" transform="scale(0.015625)"/>
        <path id="DejaVuSans-30" d="M 2034 4250 
Q 1547 4250 1301 3770 
Q 1056 3291 1056 2328 
Q 1056 1369 1301 889 
Q 1547 409 2034 409 
Q 2525 409 2770 889 
Q 3016 1369 3016 2328 
Q 3016 3291 2770 3770 
Q 2525 4250 2034 4250 
z
M 2034 4750 
Q 2819 4750 3233 4129 
Q 3647 3509 3647 2328 
Q 3647 1150 3233 529 
Q 2819 -91 2034 -91 
Q 1250 -91 836 529 
Q 422 1150 422 2328 
Q 422 3509 836 4129 
Q 1250 4750 2034 4750 
z
" transform="scale(0.015625)"/>
       </defs>
       <use xlink:href="#DejaVuSans-2212"/>
       <use xlink:href="#DejaVuSans-33" x="83.789062"/>
       <use xlink:href="#DejaVuSans-30" x="147.412109"/>
       <use xlink:href="#DejaVuSans-30" x="211.035156"/>
       <use xlink:href="#DejaVuSans-30" x="274.658203"/>
      </g>
     </g>
    </g>
    <g id="xtick_2">
     <g id="line2d_3">
      <path d="M 186.807176 297.54825 
L 186.807176 31.43625 
" clip-path="url(#p2592da7fbd)" style="fill: none; stroke: #b0b0b0; stroke-width: 0.8; stroke-linecap: square"/>
     </g>
     <g id="line2d_4">
      <g>
       <use xlink:href="#md39032bed2" x="186.807176" y="297.54825" style="stroke: #000000; stroke-width: 0.8"/>
      </g>
     </g>
     <g id="text_2">
      <!-- −2000 -->
      <g transform="translate(161.43491 315.945906)scale(0.15 -0.15)">
       <defs>
        <path id="DejaVuSans-32" d="M 1228 531 
L 3431 531 
L 3431 0 
L 469 0 
L 469 531 
Q 828 903 1448 1529 
Q 2069 2156 2228 2338 
Q 2531 2678 2651 2914 
Q 2772 3150 2772 3378 
Q 2772 3750 2511 3984 
Q 2250 4219 1831 4219 
Q 1534 4219 1204 4116 
Q 875 4013 500 3803 
L 500 4441 
Q 881 4594 1212 4672 
Q 1544 4750 1819 4750 
Q 2544 4750 2975 4387 
Q 3406 4025 3406 3419 
Q 3406 3131 3298 2873 
Q 3191 2616 2906 2266 
Q 2828 2175 2409 1742 
Q 1991 1309 1228 531 
z
" transform="scale(0.015625)"/>
       </defs>
       <use xlink:href="#DejaVuSans-2212"/>
       <use xlink:href="#DejaVuSans-32" x="83.789062"/>
       <use xlink:href="#DejaVuSans-30" x="147.412109"/>
       <use xlink:href="#DejaVuSans-30" x="211.035156"/>
       <use xlink:href="#DejaVuSans-30" x="274.658203"/>
      </g>
     </g>
    </g>
    <g id="xtick_3">
     <g id="line2d_5">
      <path d="M 258.159823 297.54825 
L 258.159823 31.43625 
" clip-path="url(#p2592da7fbd)" style="fill: none; stroke: #b0b0b0; stroke-width: 0.8; stroke-linecap: square"/>
     </g>
     <g id="line2d_6">
      <g>
       <use xlink:href="#md39032bed2" x="258.159823" y="297.54825" style="stroke: #000000; stroke-width: 0.8"/>
      </g>
     </g>
     <g id="text_3">
      <!-- −1000 -->
      <g transform="translate(232.787558 315.945906)scale(0.15 -0.15)">
       <defs>
        <path id="DejaVuSans-31" d="M 794 531 
L 1825 531 
L 1825 4091 
L 703 3866 
L 703 4441 
L 1819 4666 
L 2450 4666 
L 2450 531 
L 3481 531 
L 3481 0 
L 794 0 
L 794 531 
z
" transform="scale(0.015625)"/>
       </defs>
       <use xlink:href="#DejaVuSans-2212"/>
       <use xlink:href="#DejaVuSans-31" x="83.789062"/>
       <use xlink:href="#DejaVuSans-30" x="147.412109"/>
       <use xlink:href="#DejaVuSans-30" x="211.035156"/>
       <use xlink:href="#DejaVuSans-30" x="274.658203"/>
      </g>
     </g>
    </g>
    <g id="xtick_4">
     <g id="line2d_7">
      <path d="M 329.51247 297.54825 
L 329.51247 31.43625 
" clip-path="url(#p2592da7fbd)" style="fill: none; stroke: #b0b0b0; stroke-width: 0.8; stroke-linecap: square"/>
     </g>
     <g id="line2d_8">
      <g>
       <use xlink:href="#md39032bed2" x="329.51247" y="297.54825" style="stroke: #000000; stroke-width: 0.8"/>
      </g>
     </g>
     <g id="text_4">
      <!-- 0 -->
      <g transform="translate(324.740595 315.945906)scale(0.15 -0.15)">
       <use xlink:href="#DejaVuSans-30"/>
      </g>
     </g>
    </g>
    <g id="xtick_5">
     <g id="line2d_9">
      <path d="M 400.865118 297.54825 
L 400.865118 31.43625 
" clip-path="url(#p2592da7fbd)" style="fill: none; stroke: #b0b0b0; stroke-width: 0.8; stroke-linecap: square"/>
     </g>
     <g id="line2d_10">
      <g>
       <use xlink:href="#md39032bed2" x="400.865118" y="297.54825" style="stroke: #000000; stroke-width: 0.8"/>
      </g>
     </g>
     <g id="text_5">
      <!-- 1000 -->
      <g transform="translate(381.777618 315.945906)scale(0.15 -0.15)">
       <use xlink:href="#DejaVuSans-31"/>
       <use xlink:href="#DejaVuSans-30" x="63.623047"/>
       <use xlink:href="#DejaVuSans-30" x="127.246094"/>
       <use xlink:href="#DejaVuSans-30" x="190.869141"/>
      </g>
     </g>
    </g>
    <g id="text_6">
     <!-- X ($\mu m$) -->
     <g transform="translate(228.084219 338.265437)scale(0.2 -0.2)">
      <defs>
       <path id="DejaVuSans-58" d="M 403 4666 
L 1081 4666 
L 2241 2931 
L 3406 4666 
L 4084 4666 
L 2584 2425 
L 4184 0 
L 3506 0 
L 2194 1984 
L 872 0 
L 191 0 
L 1856 2491 
L 403 4666 
z
" transform="scale(0.015625)"/>
       <path id="DejaVuSans-20" transform="scale(0.015625)"/>
       <path id="DejaVuSans-28" d="M 1984 4856 
Q 1566 4138 1362 3434 
Q 1159 2731 1159 2009 
Q 1159 1288 1364 580 
Q 1569 -128 1984 -844 
L 1484 -844 
Q 1016 -109 783 600 
Q 550 1309 550 2009 
Q 550 2706 781 3412 
Q 1013 4119 1484 4856 
L 1984 4856 
z
" transform="scale(0.015625)"/>
       <path id="DejaVuSans-Oblique-3bc" d="M -84 -1331 
L 856 3500 
L 1434 3500 
L 1009 1322 
Q 997 1256 987 1175 
Q 978 1094 978 1013 
Q 978 722 1161 565 
Q 1344 409 1684 409 
Q 2147 409 2431 671 
Q 2716 934 2816 1459 
L 3213 3500 
L 3788 3500 
L 3266 809 
Q 3253 750 3248 706 
Q 3244 663 3244 628 
Q 3244 531 3283 486 
Q 3322 441 3406 441 
Q 3438 441 3492 456 
Q 3547 472 3647 513 
L 3559 50 
Q 3422 -19 3297 -55 
Q 3172 -91 3053 -91 
Q 2847 -91 2730 40 
Q 2613 172 2613 403 
Q 2438 153 2195 31 
Q 1953 -91 1625 -91 
Q 1334 -91 1117 43 
Q 900 178 831 397 
L 494 -1331 
L -84 -1331 
z
" transform="scale(0.015625)"/>
       <path id="DejaVuSans-Oblique-6d" d="M 5747 2113 
L 5338 0 
L 4763 0 
L 5166 2094 
Q 5191 2228 5203 2325 
Q 5216 2422 5216 2491 
Q 5216 2772 5059 2928 
Q 4903 3084 4622 3084 
Q 4203 3084 3875 2770 
Q 3547 2456 3450 1953 
L 3066 0 
L 2491 0 
L 2900 2094 
Q 2925 2209 2937 2307 
Q 2950 2406 2950 2484 
Q 2950 2769 2794 2926 
Q 2638 3084 2363 3084 
Q 1938 3084 1609 2770 
Q 1281 2456 1184 1953 
L 800 0 
L 225 0 
L 909 3500 
L 1484 3500 
L 1375 2956 
Q 1609 3263 1923 3423 
Q 2238 3584 2597 3584 
Q 2978 3584 3223 3384 
Q 3469 3184 3519 2828 
Q 3781 3197 4126 3390 
Q 4472 3584 4856 3584 
Q 5306 3584 5551 3325 
Q 5797 3066 5797 2591 
Q 5797 2488 5784 2364 
Q 5772 2241 5747 2113 
z
" transform="scale(0.015625)"/>
       <path id="DejaVuSans-29" d="M 513 4856 
L 1013 4856 
Q 1481 4119 1714 3412 
Q 1947 2706 1947 2009 
Q 1947 1309 1714 600 
Q 1481 -109 1013 -844 
L 513 -844 
Q 928 -128 1133 580 
Q 1338 1288 1338 2009 
Q 1338 2731 1133 3434 
Q 928 4138 513 4856 
z
" transform="scale(0.015625)"/>
      </defs>
      <use xlink:href="#DejaVuSans-58" transform="translate(0 0.125)"/>
      <use xlink:href="#DejaVuSans-20" transform="translate(68.505859 0.125)"/>
      <use xlink:href="#DejaVuSans-28" transform="translate(100.292969 0.125)"/>
      <use xlink:href="#DejaVuSans-Oblique-3bc" transform="translate(139.306641 0.125)"/>
      <use xlink:href="#DejaVuSans-Oblique-6d" transform="translate(202.929688 0.125)"/>
      <use xlink:href="#DejaVuSans-29" transform="translate(300.341797 0.125)"/>
     </g>
    </g>
   </g>
   <g id="matplotlib.axis_2">
    <g id="ytick_1">
     <g id="line2d_11">
      <path d="M 83.524219 297.54825 
L 440.644219 297.54825 
" clip-path="url(#p2592da7fbd)" style="fill: none; stroke: #b0b0b0; stroke-width: 0.8; stroke-linecap: square"/>
     </g>
     <g id="line2d_12">
      <defs>
       <path id="m6f3f5b6aff" d="M 0 0 
L -3.5 0 
" style="stroke: #000000; stroke-width: 0.8"/>
      </defs>
      <g>
       <use xlink:href="#m6f3f5b6aff" x="83.524219" y="297.54825" style="stroke: #000000; stroke-width: 0.8"/>
      </g>
     </g>
     <g id="text_7">
      <!-- −0.20 -->
      <g transform="translate(30.55625 303.247078)scale(0.15 -0.15)">
       <defs>
        <path id="DejaVuSans-2e" d="M 684 794 
L 1344 794 
L 1344 0 
L 684 0 
L 684 794 
z
" transform="scale(0.015625)"/>
       </defs>
       <use xlink:href="#DejaVuSans-2212"/>
       <use xlink:href="#DejaVuSans-30" x="83.789062"/>
       <use xlink:href="#DejaVuSans-2e" x="147.412109"/>
       <use xlink:href="#DejaVuSans-32" x="179.199219"/>
       <use xlink:href="#DejaVuSans-30" x="242.822266"/>
      </g>
     </g>
    </g>
    <g id="ytick_2">
     <g id="line2d_13">
      <path d="M 83.524219 264.28425 
L 440.644219 264.28425 
" clip-path="url(#p2592da7fbd)" style="fill: none; stroke: #b0b0b0; stroke-width: 0.8; stroke-linecap: square"/>
     </g>
     <g id="line2d_14">
      <g>
       <use xlink:href="#m6f3f5b6aff" x="83.524219" y="264.28425" style="stroke: #000000; stroke-width: 0.8"/>
      </g>
     </g>
     <g id="text_8">
      <!-- −0.15 -->
      <g transform="translate(30.55625 269.983078)scale(0.15 -0.15)">
       <defs>
        <path id="DejaVuSans-35" d="M 691 4666 
L 3169 4666 
L 3169 4134 
L 1269 4134 
L 1269 2991 
Q 1406 3038 1543 3061 
Q 1681 3084 1819 3084 
Q 2600 3084 3056 2656 
Q 3513 2228 3513 1497 
Q 3513 744 3044 326 
Q 2575 -91 1722 -91 
Q 1428 -91 1123 -41 
Q 819 9 494 109 
L 494 744 
Q 775 591 1075 516 
Q 1375 441 1709 441 
Q 2250 441 2565 725 
Q 2881 1009 2881 1497 
Q 2881 1984 2565 2268 
Q 2250 2553 1709 2553 
Q 1456 2553 1204 2497 
Q 953 2441 691 2322 
L 691 4666 
z
" transform="scale(0.015625)"/>
       </defs>
       <use xlink:href="#DejaVuSans-2212"/>
       <use xlink:href="#DejaVuSans-30" x="83.789062"/>
       <use xlink:href="#DejaVuSans-2e" x="147.412109"/>
       <use xlink:href="#DejaVuSans-31" x="179.199219"/>
       <use xlink:href="#DejaVuSans-35" x="242.822266"/>
      </g>
     </g>
    </g>
    <g id="ytick_3">
     <g id="line2d_15">
      <path d="M 83.524219 231.02025 
L 440.644219 231.02025 
" clip-path="url(#p2592da7fbd)" style="fill: none; stroke: #b0b0b0; stroke-width: 0.8; stroke-linecap: square"/>
     </g>
     <g id="line2d_16">
      <g>
       <use xlink:href="#m6f3f5b6aff" x="83.524219" y="231.02025" style="stroke: #000000; stroke-width: 0.8"/>
      </g>
     </g>
     <g id="text_9">
      <!-- −0.10 -->
      <g transform="translate(30.55625 236.719078)scale(0.15 -0.15)">
       <use xlink:href="#DejaVuSans-2212"/>
       <use xlink:href="#DejaVuSans-30" x="83.789062"/>
       <use xlink:href="#DejaVuSans-2e" x="147.412109"/>
       <use xlink:href="#DejaVuSans-31" x="179.199219"/>
       <use xlink:href="#DejaVuSans-30" x="242.822266"/>
      </g>
     </g>
    </g>
    <g id="ytick_4">
     <g id="line2d_17">
      <path d="M 83.524219 197.75625 
L 440.644219 197.75625 
" clip-path="url(#p2592da7fbd)" style="fill: none; stroke: #b0b0b0; stroke-width: 0.8; stroke-linecap: square"/>
     </g>
     <g id="line2d_18">
      <g>
       <use xlink:href="#m6f3f5b6aff" x="83.524219" y="197.75625" style="stroke: #000000; stroke-width: 0.8"/>
      </g>
     </g>
     <g id="text_10">
      <!-- −0.05 -->
      <g transform="translate(30.55625 203.455078)scale(0.15 -0.15)">
       <use xlink:href="#DejaVuSans-2212"/>
       <use xlink:href="#DejaVuSans-30" x="83.789062"/>
       <use xlink:href="#DejaVuSans-2e" x="147.412109"/>
       <use xlink:href="#DejaVuSans-30" x="179.199219"/>
       <use xlink:href="#DejaVuSans-35" x="242.822266"/>
      </g>
     </g>
    </g>
    <g id="ytick_5">
     <g id="line2d_19">
      <path d="M 83.524219 164.49225 
L 440.644219 164.49225 
" clip-path="url(#p2592da7fbd)" style="fill: none; stroke: #b0b0b0; stroke-width: 0.8; stroke-linecap: square"/>
     </g>
     <g id="line2d_20">
      <g>
       <use xlink:href="#m6f3f5b6aff" x="83.524219" y="164.49225" style="stroke: #000000; stroke-width: 0.8"/>
      </g>
     </g>
     <g id="text_11">
      <!-- 0.00 -->
      <g transform="translate(43.125781 170.191078)scale(0.15 -0.15)">
       <use xlink:href="#DejaVuSans-30"/>
       <use xlink:href="#DejaVuSans-2e" x="63.623047"/>
       <use xlink:href="#DejaVuSans-30" x="95.410156"/>
       <use xlink:href="#DejaVuSans-30" x="159.033203"/>
      </g>
     </g>
    </g>
    <g id="ytick_6">
     <g id="line2d_21">
      <path d="M 83.524219 131.22825 
L 440.644219 131.22825 
" clip-path="url(#p2592da7fbd)" style="fill: none; stroke: #b0b0b0; stroke-width: 0.8; stroke-linecap: square"/>
     </g>
     <g id="line2d_22">
      <g>
       <use xlink:href="#m6f3f5b6aff" x="83.524219" y="131.22825" style="stroke: #000000; stroke-width: 0.8"/>
      </g>
     </g>
     <g id="text_12">
      <!-- 0.05 -->
      <g transform="translate(43.125781 136.927078)scale(0.15 -0.15)">
       <use xlink:href="#DejaVuSans-30"/>
       <use xlink:href="#DejaVuSans-2e" x="63.623047"/>
       <use xlink:href="#DejaVuSans-30" x="95.410156"/>
       <use xlink:href="#DejaVuSans-35" x="159.033203"/>
      </g>
     </g>
    </g>
    <g id="ytick_7">
     <g id="line2d_23">
      <path d="M 83.524219 97.96425 
L 440.644219 97.96425 
" clip-path="url(#p2592da7fbd)" style="fill: none; stroke: #b0b0b0; stroke-width: 0.8; stroke-linecap: square"/>
     </g>
     <g id="line2d_24">
      <g>
       <use xlink:href="#m6f3f5b6aff" x="83.524219" y="97.96425" style="stroke: #000000; stroke-width: 0.8"/>
      </g>
     </g>
     <g id="text_13">
      <!-- 0.10 -->
      <g transform="translate(43.125781 103.663078)scale(0.15 -0.15)">
       <use xlink:href="#DejaVuSans-30"/>
       <use xlink:href="#DejaVuSans-2e" x="63.623047"/>
       <use xlink:href="#DejaVuSans-31" x="95.410156"/>
       <use xlink:href="#DejaVuSans-30" x="159.033203"/>
      </g>
     </g>
    </g>
    <g id="ytick_8">
     <g id="line2d_25">
      <path d="M 83.524219 64.70025 
L 440.644219 64.70025 
" clip-path="url(#p2592da7fbd)" style="fill: none; stroke: #b0b0b0; stroke-width: 0.8; stroke-linecap: square"/>
     </g>
     <g id="line2d_26">
      <g>
       <use xlink:href="#m6f3f5b6aff" x="83.524219" y="64.70025" style="stroke: #000000; stroke-width: 0.8"/>
      </g>
     </g>
     <g id="text_14">
      <!-- 0.15 -->
      <g transform="translate(43.125781 70.399078)scale(0.15 -0.15)">
       <use xlink:href="#DejaVuSans-30"/>
       <use xlink:href="#DejaVuSans-2e" x="63.623047"/>
       <use xlink:href="#DejaVuSans-31" x="95.410156"/>
       <use xlink:href="#DejaVuSans-35" x="159.033203"/>
      </g>
     </g>
    </g>
    <g id="ytick_9">
     <g id="line2d_27">
      <path d="M 83.524219 31.43625 
L 440.644219 31.43625 
" clip-path="url(#p2592da7fbd)" style="fill: none; stroke: #b0b0b0; stroke-width: 0.8; stroke-linecap: square"/>
     </g>
     <g id="line2d_28">
      <g>
       <use xlink:href="#m6f3f5b6aff" x="83.524219" y="31.43625" style="stroke: #000000; stroke-width: 0.8"/>
      </g>
     </g>
     <g id="text_15">
      <!-- 0.20 -->
      <g transform="translate(43.125781 37.135078)scale(0.15 -0.15)">
       <use xlink:href="#DejaVuSans-30"/>
       <use xlink:href="#DejaVuSans-2e" x="63.623047"/>
       <use xlink:href="#DejaVuSans-32" x="95.410156"/>
       <use xlink:href="#DejaVuSans-30" x="159.033203"/>
      </g>
     </g>
    </g>
    <g id="text_16">
     <!-- $mm^{-2}$ -->
     <g transform="translate(22.396875 195.09225)rotate(-90)scale(0.2 -0.2)">
      <use xlink:href="#DejaVuSans-Oblique-6d" transform="translate(0 0.765625)"/>
      <use xlink:href="#DejaVuSans-Oblique-6d" transform="translate(97.412109 0.765625)"/>
      <use xlink:href="#DejaVuSans-2212" transform="translate(199.474115 39.046875)scale(0.7)"/>
      <use xlink:href="#DejaVuSans-32" transform="translate(258.126458 39.046875)scale(0.7)"/>
     </g>
    </g>
   </g>
   <g id="line2d_29">
    <path d="M 99.756946 143.306335 
L 99.828299 143.272314 
L 100.327767 139.596827 
L 100.39912 142.989654 
L 100.541825 137.696687 
L 100.613178 137.316538 
L 101.112646 130.383605 
L 101.183999 135.136148 
L 101.326704 128.074984 
L 101.540762 124.773548 
L 101.612115 125.99467 
L 101.75482 124.458985 
L 101.897525 118.791444 
L 101.968878 119.350653 
L 102.396994 116.530039 
L 102.611052 115.366781 
L 102.753757 114.889536 
L 102.896463 114.450827 
L 103.11052 115.413382 
L 103.181873 114.609609 
L 103.253226 114.852052 
L 103.324578 114.890837 
L 104.109458 118.259884 
L 104.18081 119.185064 
L 104.252163 119.144699 
L 104.323515 117.794682 
L 104.965689 124.702402 
L 105.108395 119.936804 
L 105.322453 125.456722 
L 105.53651 127.011973 
L 105.964626 131.542569 
L 107.034916 156.647961 
L 109.104143 222.638551 
L 109.532259 229.09532 
L 109.889022 231.591347 
L 110.174433 232.384954 
L 111.316075 223.485685 
L 111.387428 223.798053 
L 111.45878 224.127843 
L 111.530133 223.644934 
L 111.601485 219.105823 
L 111.672838 219.899592 
L 111.744191 220.775735 
L 111.815543 220.52257 
L 111.958249 220.113101 
L 112.100954 219.062021 
L 112.243659 219.045086 
L 112.457717 219.719213 
L 112.52907 219.682462 
L 113.385302 226.897176 
L 114.098828 233.661508 
L 114.598297 235.556293 
L 114.669649 235.39681 
L 115.169118 231.57525 
L 115.739939 220.009338 
L 116.382113 201.26276 
L 117.880518 152.035533 
L 118.379987 140.948695 
L 118.45134 140.834346 
L 119.022161 131.828789 
L 119.093513 131.54547 
L 119.378924 128.447196 
L 119.450277 128.545882 
L 119.80704 125.417309 
L 119.878393 125.530717 
L 120.021098 124.73734 
L 120.092451 122.759084 
L 120.163803 122.942716 
L 120.449214 121.332622 
L 120.948682 118.686692 
L 121.020035 118.81079 
L 121.091388 118.605394 
L 121.16274 117.804811 
L 121.234093 118.45491 
L 121.376798 117.813882 
L 121.448151 117.824439 
L 121.804914 118.817344 
L 121.876267 118.336707 
L 122.090325 120.081571 
L 122.304383 121.655772 
L 123.089262 131.588601 
L 124.088199 146.631473 
L 124.587667 151.874643 
L 124.730373 152.08586 
L 124.801725 153.13087 
L 124.873078 152.959515 
L 125.015783 153.338936 
L 125.158488 153.012889 
L 125.301194 153.883573 
L 125.372546 153.448027 
L 125.515252 152.925851 
L 125.72931 151.442167 
L 125.800662 151.300701 
L 126.728247 146.191054 
L 126.942305 145.603934 
L 127.013657 145.745273 
L 127.156363 145.265442 
L 127.798536 148.910082 
L 129.368295 163.268041 
L 129.653705 164.490503 
L 129.796411 164.393572 
L 129.939116 164.430221 
L 130.081821 163.750072 
L 130.153174 163.716249 
L 130.295879 163.25196 
L 130.438584 162.244577 
L 130.509937 162.447885 
L 130.58129 162.086794 
L 130.795348 159.256527 
L 130.8667 158.916806 
L 130.938053 159.243651 
L 131.366169 154.860002 
L 131.93699 151.823151 
L 132.151048 151.588937 
L 132.864574 154.524241 
L 134.220275 166.002956 
L 134.505685 167.462927 
L 134.577038 167.243216 
L 134.719743 167.41173 
L 134.791096 167.333915 
L 134.933801 167.225085 
L 135.290564 166.190885 
L 135.504622 165.016497 
L 136.646265 155.953072 
L 136.717617 156.220671 
L 137.074381 155.353763 
L 137.359791 155.579278 
L 137.85926 157.863024 
L 137.930612 158.17388 
L 138.073318 160.280308 
L 138.14467 160.26882 
L 139.072255 168.823401 
L 139.357665 169.885345 
L 139.500371 171.244829 
L 139.571723 170.78416 
L 139.785781 171.791456 
L 139.857134 171.846392 
L 139.999839 171.21218 
L 140.071192 171.162359 
L 140.784718 165.513597 
L 140.856071 164.419059 
L 140.927424 164.883712 
L 141.498245 160.166896 
L 141.569597 160.540403 
L 141.783655 158.702721 
L 141.926361 157.908867 
L 141.997713 157.937783 
L 142.069066 158.247203 
L 142.211771 157.128821 
L 142.568534 158.265544 
L 142.853945 160.281252 
L 143.210708 162.483434 
L 143.638824 166.225053 
L 144.495056 172.3188 
L 144.566409 172.258925 
L 144.637761 172.001644 
L 144.709114 172.043373 
L 144.780467 172.193063 
L 144.851819 172.133027 
L 145.13723 171.406237 
L 145.42264 169.650425 
L 146.635635 159.458356 
L 146.849693 158.598944 
L 147.135104 157.222691 
L 147.206457 158.296154 
L 147.277809 157.91156 
L 147.349162 157.515184 
L 147.420514 157.685205 
L 147.777278 159.198648 
L 148.205394 162.230217 
L 148.704862 166.756605 
L 148.776215 166.682851 
L 149.275683 170.22499 
L 149.347036 170.263517 
L 149.561094 171.069349 
L 149.703799 171.253718 
L 149.775152 171.142053 
L 150.060562 169.551457 
L 150.131915 170.064942 
L 150.774089 165.159141 
L 151.773026 156.847217 
L 151.915731 156.995655 
L 151.987084 156.661557 
L 152.058437 155.731749 
L 152.129789 156.015238 
L 152.272494 155.894732 
L 152.486552 156.71083 
L 152.557905 156.838944 
L 152.843316 158.553827 
L 152.914668 157.699762 
L 153.200079 160.287479 
L 154.199016 169.306692 
L 154.270369 168.901303 
L 154.484427 170.360691 
L 154.555779 170.578978 
L 154.627132 170.555644 
L 154.698484 169.905871 
L 154.769837 170.414855 
L 154.84119 170.298489 
L 155.1266 169.859698 
L 155.840127 164.800636 
L 156.625006 158.161214 
L 156.839064 157.2751 
L 157.053122 156.480277 
L 157.124474 156.583783 
L 157.195827 156.563125 
L 157.338532 156.416578 
L 157.409885 156.524176 
L 157.481238 156.838743 
L 157.55259 156.498039 
L 157.838001 158.419295 
L 157.909354 158.114883 
L 158.123412 160.399916 
L 159.407759 168.786178 
L 159.479112 167.981568 
L 159.550465 169.046141 
L 159.621817 168.93448 
L 159.69317 169.032228 
L 159.835875 168.515506 
L 159.97858 168.202597 
L 160.335344 165.801284 
L 160.406696 165.401608 
L 160.620754 163.658165 
L 160.834812 161.611719 
L 161.334281 156.817466 
L 161.833749 153.26408 
L 162.047807 152.604874 
L 162.11916 152.668224 
L 162.333218 152.485667 
L 162.547276 152.696288 
L 162.618628 152.553065 
L 162.689981 152.843665 
L 162.904039 154.786515 
L 163.260802 157.035769 
L 164.331092 164.502561 
L 164.54515 165.169002 
L 164.759208 164.520108 
L 164.901913 164.44915 
L 164.973266 163.680136 
L 165.044618 165.053641 
L 165.115971 164.501434 
L 165.544087 161.20107 
L 165.758145 160.623573 
L 166.257613 156.524893 
L 166.828435 154.631211 
L 166.97114 154.557656 
L 167.042492 155.117527 
L 167.113845 154.761462 
L 167.613314 157.717832 
L 168.754956 170.474703 
L 168.969014 172.288866 
L 169.325777 175.528245 
L 169.468482 175.93535 
L 169.68254 176.334017 
L 169.753893 176.420413 
L 169.896598 176.066615 
L 169.967951 177.261754 
L 170.039304 177.003888 
L 170.110656 176.808914 
L 170.253362 175.566324 
L 170.396067 174.955852 
L 170.538772 174.033538 
L 170.75283 170.684554 
L 171.466357 164.305067 
L 171.537709 165.907994 
L 171.609062 165.389047 
L 171.965825 162.998483 
L 172.037178 163.640098 
L 172.179883 161.906465 
L 172.607999 162.609551 
L 173.036115 165.181177 
L 173.606936 169.748016 
L 173.892347 172.150952 
L 173.963699 172.538267 
L 174.035052 172.052924 
L 174.53452 175.062826 
L 174.605873 174.878908 
L 174.677226 173.157229 
L 174.748578 173.991097 
L 174.819931 174.340615 
L 175.176694 172.267071 
L 175.533458 169.746335 
L 176.603747 160.088983 
L 177.031863 158.066124 
L 177.103216 158.163307 
L 177.245921 158.049525 
L 177.388626 158.213031 
L 177.602684 158.974114 
L 178.0308 161.396986 
L 178.530269 165.895381 
L 179.172443 170.811278 
L 179.315148 171.753233 
L 179.3865 172.931053 
L 179.529206 171.601516 
L 179.671911 172.459229 
L 179.743264 172.427535 
L 179.814616 172.208223 
L 179.957322 172.889208 
L 180.028674 172.578984 
L 180.242732 170.47321 
L 180.385438 169.794263 
L 180.884906 165.911072 
L 181.598433 160.055532 
L 181.669785 160.386673 
L 181.955196 158.765841 
L 182.026548 158.514922 
L 182.097901 158.903654 
L 182.240606 158.486857 
L 182.311959 158.543673 
L 182.383312 159.390533 
L 182.454664 159.033736 
L 182.526017 159.147891 
L 183.025485 162.102861 
L 183.667659 167.41538 
L 183.739012 167.080029 
L 183.881717 170.001519 
L 183.95307 169.910062 
L 184.095775 170.357812 
L 184.23848 171.465762 
L 184.666596 172.253436 
L 184.809302 172.072921 
L 185.02336 171.339062 
L 185.451475 168.797764 
L 186.521765 159.396474 
L 186.949881 157.139982 
L 187.021234 157.137607 
L 187.163939 156.935032 
L 187.235292 156.98188 
L 187.306644 156.995483 
L 187.592055 157.760348 
L 187.663408 157.906671 
L 187.948818 160.02509 
L 188.80505 167.173366 
L 189.090461 170.413117 
L 189.161813 170.092537 
L 189.518576 171.171596 
L 189.589929 171.083078 
L 189.661282 170.650357 
L 189.803987 172.060842 
L 189.87534 171.998634 
L 190.018045 170.167771 
L 190.089398 170.11553 
L 190.588866 167.32101 
L 191.302393 161.385065 
L 191.445098 159.849676 
L 191.730508 158.334034 
L 191.944566 157.767336 
L 192.158624 157.344112 
L 192.372682 157.879385 
L 192.444035 157.989416 
L 192.58674 160.134846 
L 192.658093 160.109122 
L 192.729446 159.496134 
L 193.228914 163.626424 
L 193.371619 165.889315 
L 193.442972 165.873595 
L 194.013793 171.015447 
L 194.156498 170.847713 
L 194.227851 170.260807 
L 194.441909 171.981034 
L 194.584614 172.345188 
L 194.798672 171.977683 
L 194.870025 171.876672 
L 195.369493 169.561695 
L 195.440846 169.635504 
L 195.726257 166.0891 
L 195.797609 165.823847 
L 196.297078 161.34598 
L 196.796546 157.450715 
L 196.867899 157.815957 
L 196.939252 157.613129 
L 197.010604 158.082102 
L 197.15331 156.585537 
L 197.296015 156.661415 
L 197.43872 157.918662 
L 197.510073 157.883172 
L 197.724131 158.872749 
L 198.009541 160.75697 
L 198.080894 160.667524 
L 198.294952 163.009361 
L 198.366305 163.279968 
L 198.50901 164.856858 
L 198.580363 164.550723 
L 198.651715 165.068294 
L 198.723068 166.656064 
L 198.794421 166.357253 
L 198.865773 166.098457 
L 199.151184 169.439785 
L 199.436594 170.372749 
L 199.507947 170.09715 
L 199.5793 170.202836 
L 199.650652 170.286887 
L 199.722005 169.633186 
L 199.793358 170.399046 
L 200.007416 169.345653 
L 200.078768 170.014322 
L 200.150121 169.991914 
L 200.364179 168.112968 
L 200.435531 168.271699 
L 200.649589 166.690984 
L 200.863647 164.124784 
L 200.935 165.015133 
L 201.077705 161.975974 
L 201.149058 162.16683 
L 201.434469 156.138885 
L 201.505821 161.690741 
L 201.577174 161.321338 
L 201.648526 161.555701 
L 201.791232 159.676036 
L 201.933937 158.469359 
L 202.147995 158.16505 
L 202.433406 158.799799 
L 203.004227 162.193777 
L 203.146932 165.690327 
L 203.289637 165.585056 
L 203.36099 165.114652 
L 203.432343 166.016905 
L 203.503695 163.318272 
L 203.575048 163.818016 
L 203.717753 170.435889 
L 204.145869 172.857257 
L 204.217222 172.574858 
L 204.573985 173.616252 
L 204.930748 173.117643 
L 205.002101 171.978181 
L 205.073454 172.006741 
L 205.144806 171.977893 
L 205.216159 173.260514 
L 205.287511 173.251386 
L 205.430217 170.013612 
L 205.501569 169.994219 
L 205.78698 162.841925 
L 205.858333 167.39075 
L 205.929685 167.340242 
L 206.001038 168.496545 
L 206.072391 167.799959 
L 206.357801 159.128627 
L 206.429154 159.327139 
L 206.500506 161.357612 
L 206.571859 160.949077 
L 206.85727 159.055353 
L 207.071328 158.592159 
L 207.14268 158.432153 
L 207.285386 158.909169 
L 207.356738 158.759905 
L 207.428091 158.160047 
L 207.499444 160.751795 
L 207.570796 160.005667 
L 207.713501 159.50719 
L 207.784854 159.94502 
L 207.856207 157.049612 
L 207.927559 158.038969 
L 208.070265 164.911754 
L 208.284323 167.493799 
L 208.498381 165.074385 
L 208.569733 165.316231 
L 208.783791 169.198327 
L 209.56867 173.186666 
L 209.640023 174.169304 
L 209.711376 171.832043 
L 209.782728 171.966297 
L 209.854081 172.402743 
L 210.068139 167.553649 
L 210.139491 168.066738 
L 210.210844 172.745185 
L 210.282197 172.120544 
L 210.353549 173.327843 
L 210.424902 172.575288 
L 210.710313 164.831776 
L 210.781665 165.988743 
L 210.924371 163.513615 
L 210.995723 164.416876 
L 211.495192 160.109567 
L 211.566544 160.149864 
L 211.70925 159.197748 
L 211.780602 159.672599 
L 211.851955 160.782373 
L 211.923308 158.796345 
L 211.99466 159.017399 
L 212.137366 158.079302 
L 212.208718 154.726206 
L 212.280071 154.901218 
L 212.422776 160.968193 
L 212.494129 161.364661 
L 212.636834 162.953437 
L 212.850892 158.259558 
L 212.922245 158.356411 
L 213.136303 162.97757 
L 213.992534 170.368701 
L 214.063887 170.970422 
L 214.13524 170.321941 
L 214.206592 171.502665 
L 214.42065 167.159851 
L 214.492003 168.439988 
L 214.634708 174.070459 
L 214.706061 176.053359 
L 214.777414 175.873807 
L 215.134177 168.05835 
L 215.205529 169.232706 
L 215.276882 168.826804 
L 215.348235 168.811929 
L 216.133114 161.238793 
L 216.204467 161.861072 
L 216.418524 157.661241 
L 216.489877 156.965749 
L 216.632582 152.189233 
L 216.703935 158.708322 
L 216.775288 158.133307 
L 216.84664 158.066815 
L 216.917993 159.887761 
L 216.989346 159.625084 
L 217.203404 154.187192 
L 217.274756 153.442616 
L 217.488814 156.280256 
L 217.631519 156.502607 
L 218.059635 159.484066 
L 218.202341 161.359122 
L 218.273693 161.061168 
L 218.345046 163.391848 
L 218.416399 161.845137 
L 218.487751 162.061235 
L 218.559104 163.555366 
L 218.630457 163.526564 
L 218.701809 163.834238 
L 218.773162 162.511696 
L 218.844514 163.976175 
L 218.915867 170.055798 
L 218.98722 169.635931 
L 219.058572 171.917923 
L 219.129925 171.663775 
L 219.201278 169.298461 
L 219.27263 169.618508 
L 219.343983 173.365866 
L 219.486688 167.257034 
L 219.629394 169.817029 
L 219.772099 170.380247 
L 219.914804 170.103626 
L 220.128862 168.925695 
L 220.414273 167.346968 
L 220.485625 167.504006 
L 220.556978 168.107814 
L 220.628331 164.559264 
L 220.699683 164.788064 
L 220.771036 165.77742 
L 220.985094 158.711724 
L 221.056447 164.821162 
L 221.127799 164.0389 
L 221.199152 163.827228 
L 221.270504 165.327352 
L 221.341857 164.754894 
L 221.627268 157.159154 
L 221.69862 158.825292 
L 221.769973 158.518016 
L 221.841326 158.981411 
L 221.984031 158.153974 
L 222.055384 158.31378 
L 222.269442 158.802594 
L 222.340794 158.472458 
L 222.554852 159.321734 
L 222.840263 162.010081 
L 222.911615 162.504521 
L 222.982968 161.83667 
L 223.054321 162.74449 
L 223.125673 160.655342 
L 223.197026 161.629448 
L 223.411084 171.178899 
L 223.553789 172.181994 
L 223.767847 167.898625 
L 223.8392 168.42766 
L 224.053258 172.229028 
L 224.410021 174.333149 
L 224.481374 174.352881 
L 224.552726 174.126983 
L 224.695432 174.417374 
L 224.766784 174.204327 
L 224.909489 175.907047 
L 225.123547 172.048579 
L 225.1949 170.94501 
L 225.266253 166.875811 
L 225.337605 167.205348 
L 225.408958 172.902347 
L 225.480311 172.270325 
L 225.551663 171.676716 
L 225.623016 173.104833 
L 225.694369 172.311525 
L 225.979779 162.899369 
L 226.051132 163.901649 
L 226.336542 162.15417 
L 226.764658 159.135853 
L 226.836011 159.617881 
L 227.050069 158.629046 
L 227.121422 158.782559 
L 227.264127 159.122549 
L 227.478185 154.958935 
L 227.549537 156.144378 
L 227.763595 165.265111 
L 227.906301 166.163266 
L 228.120359 161.177037 
L 228.191711 161.858375 
L 228.405769 166.867608 
L 229.404706 173.820179 
L 229.547412 172.939947 
L 229.690117 168.623583 
L 229.761469 176.198163 
L 229.832822 175.925089 
L 229.904175 175.544411 
L 229.975527 177.636532 
L 230.04688 177.29154 
L 230.332291 168.57994 
L 230.403643 169.917695 
L 230.474996 169.304866 
L 230.546349 169.431078 
L 230.974465 166.294941 
L 231.11717 164.361837 
L 231.188522 164.644417 
L 231.759344 159.991413 
L 231.830696 156.208773 
L 231.902049 156.673717 
L 231.973402 162.910522 
L 232.044754 162.477135 
L 232.116107 164.926992 
L 232.18746 164.905026 
L 232.258812 164.847571 
L 232.47287 159.054169 
L 232.544223 159.500368 
L 232.758281 163.165223 
L 233.257749 167.321636 
L 233.757218 172.15264 
L 234.399392 177.471246 
L 234.470744 177.041939 
L 234.542097 177.083651 
L 234.61345 173.880267 
L 234.684802 173.896121 
L 234.756155 175.657688 
L 234.827507 175.510106 
L 234.89886 175.797488 
L 235.541034 171.390782 
L 236.040502 166.386668 
L 236.25456 164.28898 
L 236.325913 164.571353 
L 236.539971 163.492223 
L 236.754029 161.517361 
L 236.896734 157.868876 
L 236.968087 159.384484 
L 237.03944 159.195268 
L 237.110792 159.59338 
L 237.182145 159.478208 
L 237.253497 159.279582 
L 237.681613 160.310761 
L 238.323787 164.613586 
L 239.108666 170.339335 
L 239.394077 171.140907 
L 239.536782 171.267298 
L 239.608135 171.476123 
L 239.679487 171.359828 
L 239.964898 170.60034 
L 240.036251 169.652365 
L 240.107603 170.103787 
L 240.250309 169.242417 
L 240.464367 167.554538 
L 241.035188 161.840708 
L 241.249246 160.477302 
L 241.534656 158.430423 
L 241.606009 158.834923 
L 241.748714 158.167995 
L 241.89142 157.250831 
L 242.105477 157.209854 
L 242.319535 157.420896 
L 242.462241 157.821877 
L 242.890357 160.295731 
L 243.033062 161.41885 
L 243.175767 163.517631 
L 243.24712 163.498742 
L 243.817941 168.936681 
L 244.246057 171.617477 
L 244.60282 173.201792 
L 244.674173 172.925083 
L 244.816878 172.44498 
L 244.888231 172.415526 
L 245.173641 171.251955 
L 246.886105 159.117307 
L 247.02881 159.139115 
L 247.100163 159.006512 
L 247.171515 159.049817 
L 247.242868 159.132298 
L 247.314221 159.04404 
L 247.385573 159.232796 
L 247.599631 161.012495 
L 247.670984 160.763069 
L 248.0991 163.940204 
L 248.955332 171.437896 
L 249.026684 171.112956 
L 249.383448 172.908148 
L 249.526153 173.306363 
L 249.668858 172.942464 
L 249.740211 172.925465 
L 250.025621 171.910446 
L 250.168327 171.062792 
L 250.311032 169.858487 
L 250.382385 170.227762 
L 250.52509 169.17492 
L 250.739148 166.70704 
L 251.666732 159.643176 
L 251.88079 158.924903 
L 251.952143 158.987688 
L 252.094848 158.761808 
L 252.166201 158.813519 
L 252.308906 159.080168 
L 252.737022 161.055888 
L 253.022433 163.014436 
L 253.379196 165.975429 
L 253.735959 169.431916 
L 254.235428 172.692504 
L 254.520838 173.397754 
L 254.806249 173.089362 
L 254.877601 173.007908 
L 254.948954 173.736467 
L 255.020307 173.402361 
L 255.448423 171.112083 
L 255.66248 166.907283 
L 256.376007 161.115767 
L 256.44736 162.81572 
L 256.518712 162.382991 
L 256.661418 160.51284 
L 256.73277 160.508967 
L 257.018181 159.277046 
L 257.232239 159.1939 
L 257.731707 160.878053 
L 258.017118 162.430375 
L 258.08847 163.810035 
L 258.159823 163.122162 
L 258.801997 167.648351 
L 259.15876 168.746555 
L 259.230113 168.997823 
L 259.586876 168.25283 
L 259.800934 167.237181 
L 260.514461 160.836096 
L 261.156634 152.549608 
L 261.656103 148.081929 
L 261.870161 146.600173 
L 261.941513 147.505686 
L 262.012866 147.211959 
L 262.155571 146.065576 
L 262.298277 146.307705 
L 262.369629 146.44596 
L 262.583687 147.678586 
L 262.65504 147.88298 
L 263.368566 154.479228 
L 263.511272 156.332344 
L 263.582624 156.082493 
L 264.01074 159.652265 
L 264.224798 161.233509 
L 264.438856 162.138642 
L 264.510209 161.967194 
L 264.581561 162.139673 
L 264.652914 163.137951 
L 264.724267 162.697129 
L 264.795619 162.550055 
L 264.866972 163.040565 
L 264.938325 162.841047 
L 265.152383 161.244457 
L 265.295088 160.755169 
L 265.865909 156.859873 
L 266.222672 154.102094 
L 266.294025 154.832562 
L 266.650788 152.316064 
L 266.722141 151.99395 
L 266.793493 152.395321 
L 266.936199 151.9536 
L 267.150257 152.615813 
L 267.221609 152.031679 
L 267.292962 152.290663 
L 268.006488 157.929666 
L 268.220546 160.589259 
L 268.791368 166.797123 
L 268.934073 167.807148 
L 269.076778 169.747717 
L 269.219483 170.422703 
L 269.504894 171.79517 
L 269.790305 172.303724 
L 270.147068 171.459292 
L 270.218421 171.642067 
L 270.432478 169.447835 
L 270.789242 167.388566 
L 271.28871 163.760973 
L 271.431416 162.915357 
L 271.574121 161.407569 
L 271.645473 161.604435 
L 272.073589 160.622458 
L 272.216295 160.704458 
L 272.430353 161.163095 
L 272.715763 162.981146 
L 272.787116 162.739794 
L 274.142816 171.785404 
L 274.570932 172.73273 
L 274.642285 172.855129 
L 274.78499 171.925315 
L 274.856343 172.162333 
L 275.213106 169.728196 
L 276.568806 158.602611 
L 276.640159 158.676242 
L 276.996922 157.400208 
L 277.139627 157.339634 
L 277.639096 159.210312 
L 277.853154 160.912405 
L 277.924506 160.629865 
L 278.209917 163.703437 
L 278.852091 169.884107 
L 279.208854 172.669632 
L 279.351559 170.880691 
L 279.494265 171.117572 
L 279.63697 173.751206 
L 279.779675 173.517591 
L 279.922381 173.202887 
L 280.207791 171.979122 
L 280.350496 169.021118 
L 281.777549 158.977757 
L 281.848902 158.978188 
L 282.06296 158.595115 
L 282.277018 159.222448 
L 282.348371 158.572348 
L 282.419723 158.774052 
L 282.633781 161.170721 
L 282.705134 161.502004 
L 282.776486 161.051898 
L 282.990544 162.752917 
L 283.275955 165.426451 
L 284.060834 171.662328 
L 284.132187 171.748365 
L 284.417597 172.60104 
L 284.560303 172.681685 
L 284.845713 172.002366 
L 285.131124 171.249982 
L 285.345182 168.750382 
L 285.630592 166.990754 
L 286.344119 160.644897 
L 286.629529 159.086585 
L 286.91494 158.025703 
L 287.057645 157.943799 
L 287.271703 158.396286 
L 287.343056 158.518544 
L 288.056582 163.142246 
L 289.126872 172.235093 
L 289.269577 172.592895 
L 289.412283 173.010054 
L 289.483635 172.993273 
L 289.626341 173.336146 
L 289.911751 172.616579 
L 290.125809 171.876943 
L 290.197162 171.874071 
L 290.41122 169.321418 
L 291.695567 159.820973 
L 292.052331 159.07577 
L 292.195036 159.105645 
L 292.337741 159.335219 
L 292.551799 160.39792 
L 292.694504 161.670116 
L 292.765857 161.172006 
L 293.12262 163.97182 
L 293.764794 168.834856 
L 293.836147 169.334432 
L 293.907499 170.74962 
L 293.978852 170.728527 
L 294.264263 171.593527 
L 294.478321 171.907871 
L 294.621026 171.791651 
L 294.977789 170.84945 
L 295.120494 170.392352 
L 295.334552 167.859133 
L 295.54861 166.381207 
L 296.761605 157.257111 
L 296.904311 157.089313 
L 296.975663 156.791616 
L 297.047016 156.87771 
L 297.189721 157.00495 
L 297.332427 157.340342 
L 298.117306 162.160806 
L 299.04489 170.798626 
L 299.401653 172.005473 
L 299.615711 171.566433 
L 299.829769 171.228975 
L 299.901122 171.332979 
L 299.972474 171.34874 
L 300.043827 171.169017 
L 300.257885 169.728287 
L 300.543296 168.005748 
L 300.757354 164.600291 
L 301.185469 159.803154 
L 301.328175 161.689187 
L 301.399527 161.666643 
L 301.613585 159.589789 
L 302.041701 157.345213 
L 302.327112 158.080291 
L 302.398465 157.766133 
L 302.969286 161.249067 
L 303.754165 167.691185 
L 304.253633 170.924452 
L 304.324986 169.867405 
L 304.396339 169.996055 
L 304.539044 170.11578 
L 304.681749 170.751316 
L 304.753102 170.69837 
L 305.109865 169.504732 
L 305.323923 166.924229 
L 305.537981 165.511377 
L 306.465565 158.063589 
L 306.536918 158.100133 
L 306.750976 157.225271 
L 307.036387 156.947852 
L 307.67856 159.295674 
L 307.892618 161.705153 
L 308.891555 170.794766 
L 308.962908 172.30274 
L 309.034261 172.076556 
L 309.105613 171.870748 
L 309.176966 172.020822 
L 309.319671 173.61829 
L 309.462377 173.595898 
L 309.676435 173.55643 
L 310.033198 172.485398 
L 310.175903 171.949696 
L 310.389961 169.571229 
L 311.674309 159.692557 
L 311.959719 159.035986 
L 312.24513 158.619256 
L 312.673246 161.461589 
L 312.744598 161.029657 
L 313.101362 163.6601 
L 313.60083 167.787293 
L 313.886241 170.427869 
L 313.957593 170.155041 
L 314.028946 170.533205 
L 314.100299 171.642529 
L 314.171651 171.559234 
L 314.243004 171.355078 
L 314.314357 171.651004 
L 314.385709 171.557284 
L 314.599767 171.791207 
L 315.027883 170.177728 
L 315.099236 170.191998 
L 315.313294 167.395014 
L 315.384646 167.043713 
L 315.455999 166.121371 
L 315.527352 166.575 
L 315.670057 164.373549 
L 316.383583 157.942814 
L 316.883052 155.045639 
L 316.954405 155.010182 
L 317.025757 156.010034 
L 317.09711 155.675982 
L 317.168463 155.250021 
L 317.239815 155.489592 
L 317.311168 155.388063 
L 317.453873 156.124165 
L 317.739284 157.717296 
L 317.810636 157.922469 
L 318.381458 162.53677 
L 318.524163 165.703511 
L 318.595515 165.862402 
L 318.738221 166.672686 
L 318.809573 166.264373 
L 319.309042 169.744136 
L 319.594453 170.468672 
L 319.737158 170.148509 
L 319.879863 169.57495 
L 320.022568 170.375769 
L 320.379332 168.147208 
L 320.59339 166.073857 
L 321.663679 158.091799 
L 321.735032 158.102368 
L 321.806385 157.876073 
L 321.94909 158.272648 
L 322.020443 157.997114 
L 322.091795 159.00822 
L 322.163148 158.807024 
L 322.2345 158.046598 
L 322.305853 158.246062 
L 322.377206 157.834666 
L 322.519911 158.713306 
L 322.662616 161.61926 
L 322.733969 161.03711 
L 322.805322 161.445483 
L 322.876674 161.1758 
L 323.518848 166.597774 
L 323.590201 166.37845 
L 323.732906 169.280094 
L 323.804259 167.88748 
L 323.875611 169.795921 
L 323.946964 169.668891 
L 324.089669 170.440588 
L 324.303727 169.389789 
L 324.446433 169.621074 
L 324.517785 169.539329 
L 325.088606 167.761164 
L 325.159959 166.08777 
L 325.231312 166.28044 
L 325.44537 164.431862 
L 325.516722 164.387986 
L 326.016191 157.302133 
L 326.587012 152.964547 
L 326.658365 153.37507 
L 326.729717 152.428171 
L 326.80107 152.478014 
L 326.872423 152.336069 
L 327.015128 152.579835 
L 327.157833 151.030988 
L 327.443244 151.713602 
L 327.87136 154.062333 
L 327.942712 154.526086 
L 328.15677 156.941969 
L 328.513533 160.718346 
L 328.656239 161.351048 
L 328.727591 160.888589 
L 329.084355 164.653224 
L 329.22706 165.167861 
L 329.441118 165.965749 
L 329.51247 165.951533 
L 329.655176 167.883811 
L 329.726528 167.103316 
L 329.797881 167.540365 
L 329.940586 167.173914 
L 330.083292 166.520665 
L 330.154644 166.730932 
L 330.29735 165.095359 
L 330.725466 163.507197 
L 331.296287 160.548793 
L 331.367639 161.441326 
L 331.438992 160.941965 
L 331.65305 160.040428 
L 331.724403 159.983001 
L 331.795755 159.752491 
L 331.938461 160.717224 
L 332.009813 159.908416 
L 332.081166 160.038406 
L 332.366576 161.414295 
L 332.509282 163.745185 
L 332.651987 164.244296 
L 332.72334 164.19361 
L 333.722277 173.014278 
L 333.793629 173.127597 
L 334.007687 176.113291 
L 334.07904 176.165359 
L 334.150393 175.734014 
L 334.221745 175.922975 
L 334.364451 176.389154 
L 334.721214 175.68429 
L 334.935272 175.038942 
L 335.43474 170.654346 
L 336.719088 159.581738 
L 336.861793 159.188621 
L 336.933146 159.390236 
L 337.004498 159.244409 
L 337.147204 158.263321 
L 337.361262 159.366153 
L 337.86073 161.789806 
L 338.288846 165.655352 
L 338.431551 167.26371 
L 338.502904 166.910943 
L 338.574257 167.376904 
L 338.788315 169.461659 
L 338.859667 169.82327 
L 339.002373 171.373338 
L 339.287783 172.343001 
L 339.644546 172.490319 
L 339.929957 171.981496 
L 340.072662 170.483728 
L 340.144015 171.049804 
L 340.28672 169.072736 
L 340.358073 168.873248 
L 341.214305 161.637137 
L 341.285657 161.472773 
L 341.35701 161.911165 
L 341.499715 159.808625 
L 341.571068 160.754896 
L 341.642421 160.396018 
L 341.785126 159.689678 
L 341.927831 159.813193 
L 342.4273 161.58491 
L 342.498652 161.013488 
L 342.855416 163.762583 
L 342.926768 163.598829 
L 344.068411 173.506267 
L 344.425174 174.967978 
L 344.567879 173.836017 
L 344.639232 174.157133 
L 345.067348 172.643513 
L 345.281406 169.975404 
L 345.495464 168.355939 
L 346.494401 159.429402 
L 346.779811 157.808605 
L 346.993869 157.395433 
L 347.136574 157.417483 
L 347.27928 157.650426 
L 347.636043 159.610945 
L 347.707396 159.380501 
L 347.778748 159.497683 
L 348.135511 163.127795 
L 348.777685 168.159837 
L 348.849038 168.42545 
L 348.991743 169.95958 
L 349.205801 170.430189 
L 349.491212 170.868543 
L 349.633917 170.66085 
L 349.847975 169.901225 
L 350.133386 168.806992 
L 350.347444 166.114369 
L 351.631791 155.815357 
L 351.917202 155.175144 
L 352.13126 155.306206 
L 352.41667 156.72226 
L 352.559376 157.997205 
L 352.630728 158.523458 
L 352.702081 157.963824 
L 353.986429 171.866883 
L 354.057781 172.049216 
L 354.414544 173.827897 
L 354.628602 174.75204 
L 354.699955 174.687611 
L 354.84266 173.774005 
L 355.056718 173.872705 
L 355.128071 172.555054 
L 355.199424 172.785129 
L 355.342129 172.627769 
L 356.127008 165.545108 
L 356.269713 165.233968 
L 356.483771 161.758141 
L 356.555124 162.848299 
L 356.626476 162.718752 
L 356.769182 163.098739 
L 356.98324 162.853567 
L 357.340003 163.370806 
L 357.482708 163.770464 
L 357.554061 163.643712 
L 357.696766 165.388319 
L 357.910824 167.852076 
L 357.982177 167.747297 
L 358.053529 166.163069 
L 358.124882 166.599582 
L 358.481645 171.878158 
L 359.052467 176.083637 
L 359.123819 176.103937 
L 359.266524 176.742762 
L 359.480582 178.002645 
L 359.837346 175.292354 
L 359.980051 176.000824 
L 360.122756 175.418914 
L 360.336814 172.888202 
L 361.193046 165.454313 
L 361.264399 163.363439 
L 361.335751 164.293698 
L 361.83522 162.399927 
L 362.049278 162.081614 
L 362.334688 162.704636 
L 362.620099 165.612992 
L 362.691452 164.665613 
L 363.904447 176.296042 
L 363.975799 173.934803 
L 364.047152 174.242491 
L 364.332562 176.046438 
L 364.403915 176.09724 
L 364.54662 175.125616 
L 364.689326 176.82336 
L 364.760678 176.924862 
L 365.046089 175.445973 
L 365.260147 172.758798 
L 365.331499 172.582893 
L 366.6872 162.41582 
L 366.901258 162.035915 
L 367.115316 162.294923 
L 367.258021 163.001758 
L 368.0429 168.698066 
L 368.613721 174.500655 
L 368.827779 175.903439 
L 368.899132 177.626436 
L 368.970484 177.523786 
L 369.255895 179.247316 
L 369.327248 179.161524 
L 369.3986 179.35667 
L 369.469953 179.289197 
L 369.612658 179.332886 
L 369.755364 179.094478 
L 370.112127 178.141728 
L 370.326185 176.154894 
L 371.182417 169.076944 
L 371.253769 169.550586 
L 371.325122 171.543719 
L 371.396474 171.237656 
L 371.53918 165.878617 
L 371.610532 167.529709 
L 371.681885 167.44061 
L 371.895943 167.253015 
L 372.038648 167.473996 
L 372.252706 167.87165 
L 372.466764 169.68243 
L 372.609469 170.808182 
L 372.680822 170.276213 
L 373.251643 176.836146 
L 373.537054 180.328981 
L 373.608407 179.100393 
L 374.036522 184.618883 
L 374.179228 183.485511 
L 374.321933 183.929583 
L 374.393286 183.837765 
L 374.535991 186.405713 
L 374.607344 186.391656 
L 374.750049 182.109725 
L 374.821402 183.784086 
L 374.892754 183.755129 
L 375.03546 183.216936 
L 375.249517 180.856861 
L 375.32087 181.613404 
L 375.891691 175.245496 
L 376.39116 169.90815 
L 376.462512 170.012617 
L 376.961981 167.356274 
L 377.033334 167.195305 
L 377.176039 166.483591 
L 377.247392 166.528169 
L 377.390097 167.794683 
L 377.46145 167.767596 
L 377.532802 167.180401 
L 377.604155 167.498115 
L 377.818213 171.05787 
L 377.889565 167.433225 
L 377.960918 167.819235 
L 378.103623 170.488981 
L 378.460387 173.273917 
L 378.531739 173.202223 
L 378.745797 174.57199 
L 378.81715 174.556336 
L 378.959855 176.101641 
L 379.031208 176.378147 
L 379.10256 176.277159 
L 379.316618 176.628374 
L 379.673382 176.029267 
L 379.958792 174.615876 
L 380.244203 172.62236 
L 380.815024 167.140012 
L 380.886377 167.518785 
L 380.957729 168.249911 
L 381.029082 167.889535 
L 381.171787 162.0254 
L 381.314492 164.483963 
L 381.385845 164.003964 
L 381.742608 161.758902 
L 382.170724 162.332238 
L 382.456135 163.810652 
L 383.098309 169.774069 
L 383.95454 178.122324 
L 384.168598 179.023096 
L 384.382656 180.764896 
L 384.454009 180.891882 
L 384.525362 180.047836 
L 384.596714 180.224298 
L 384.668067 180.240262 
L 384.882125 179.810256 
L 384.953477 179.881918 
L 385.02483 180.294223 
L 385.167535 179.139394 
L 385.238888 179.499157 
L 385.524299 176.544643 
L 386.665941 166.974339 
L 386.808646 167.383112 
L 387.022704 166.449814 
L 387.16541 166.345383 
L 387.308115 166.203251 
L 388.307052 171.797145 
L 388.378405 172.78923 
L 388.449757 172.671402 
L 388.877873 174.400721 
L 389.020578 174.379468 
L 389.091931 174.906106 
L 389.163284 174.862687 
L 389.305989 174.627574 
L 389.377342 175.297696 
L 389.805458 172.146534 
L 390.304926 167.303018 
L 391.23251 157.700799 
L 391.589274 155.281097 
L 391.660626 155.39937 
L 391.731979 155.315696 
L 392.01739 154.753481 
L 392.231448 155.28496 
L 392.374153 156.844769 
L 392.445505 156.704017 
L 392.802269 160.041358 
L 394.300674 174.301387 
L 394.44338 174.103446 
L 394.586085 175.137603 
L 394.657438 174.982829 
L 394.871495 174.12796 
L 395.299611 171.924078 
L 395.370964 172.106235 
L 396.08449 166.589114 
L 396.155843 166.832123 
L 396.298548 166.176824 
L 396.583959 165.057474 
L 396.798017 165.48939 
L 396.86937 165.354307 
L 397.083428 165.888585 
L 397.15478 165.687608 
L 397.226133 165.829611 
L 397.868307 172.503231 
L 397.939659 172.205008 
L 398.22507 175.551109 
L 398.51048 180.227572 
L 399.009949 184.377194 
L 399.224007 185.924099 
L 399.438065 186.410401 
L 399.58077 186.593894 
L 399.723475 186.407115 
L 400.294297 183.09694 
L 400.365649 181.367306 
L 400.437002 181.709721 
L 400.508355 181.926683 
L 400.865118 177.269365 
L 401.079176 175.26081 
L 401.364586 172.613817 
L 401.435939 172.866608 
L 402.00676 169.40605 
L 402.149466 169.521641 
L 402.292171 169.35377 
L 402.577581 169.902325 
L 402.648934 171.79955 
L 402.720287 171.288834 
L 403.07705 173.880495 
L 403.505166 177.372427 
L 403.719224 179.490441 
L 403.790576 179.772274 
L 404.004634 181.831236 
L 404.14734 179.44539 
L 404.218692 180.825832 
L 404.290045 180.232601 
L 404.43275 181.619622 
L 404.646808 179.558179 
L 405.074924 175.36633 
L 405.288982 171.645284 
L 406.145214 155.914787 
L 406.85874 144.554494 
L 407.001446 142.856892 
L 407.215503 139.086274 
L 407.286856 139.484201 
L 408.499851 126.678215 
L 408.713909 122.911068 
L 409.142025 112.837476 
L 409.427436 103.645174 
L 409.926904 83.759123 
L 410.925841 22.639523 
L 411.257983 -1 
M 423.036594 -1 
L 423.037792 350.665437 
M 423.2162 350.665437 
L 423.216718 -1 
M 423.360723 -1 
L 423.361418 350.665437 
M 423.464286 350.665437 
L 423.46499 -1 
M 423.487251 -1 
L 423.487375 350.665437 
M 423.589214 350.665437 
L 423.589276 -1 
M 423.861077 -1 
L 423.861098 350.665437 
M 424.25392 350.665437 
L 424.253941 -1 
M 424.302889 -1 
L 424.302938 350.665437 
L 424.302938 350.665437 
" clip-path="url(#p2592da7fbd)" style="fill: none; stroke: #1f77b4; stroke-width: 1.5; stroke-linecap: square"/>
   </g>
   <g id="patch_3">
    <path d="M 83.524219 297.54825 
L 83.524219 31.43625 
" style="fill: none; stroke: #000000; stroke-width: 0.8; stroke-linejoin: miter; stroke-linecap: square"/>
   </g>
   <g id="patch_4">
    <path d="M 440.644219 297.54825 
L 440.644219 31.43625 
" style="fill: none; stroke: #000000; stroke-width: 0.8; stroke-linejoin: miter; stroke-linecap: square"/>
   </g>
   <g id="patch_5">
    <path d="M 83.524219 297.54825 
L 440.644219 297.54825 
" style="fill: none; stroke: #000000; stroke-width: 0.8; stroke-linejoin: miter; stroke-linecap: square"/>
   </g>
   <g id="patch_6">
    <path d="M 83.524219 31.43625 
L 440.644219 31.43625 
" style="fill: none; stroke: #000000; stroke-width: 0.8; stroke-linejoin: miter; stroke-linecap: square"/>
   </g>
   <g id="text_17">
    <!-- RF Field Axial Curvature -->
    <g transform="translate(118.639219 25.43625)scale(0.24 -0.24)">
     <defs>
      <path id="DejaVuSans-52" d="M 2841 2188 
Q 3044 2119 3236 1894 
Q 3428 1669 3622 1275 
L 4263 0 
L 3584 0 
L 2988 1197 
Q 2756 1666 2539 1819 
Q 2322 1972 1947 1972 
L 1259 1972 
L 1259 0 
L 628 0 
L 628 4666 
L 2053 4666 
Q 2853 4666 3247 4331 
Q 3641 3997 3641 3322 
Q 3641 2881 3436 2590 
Q 3231 2300 2841 2188 
z
M 1259 4147 
L 1259 2491 
L 2053 2491 
Q 2509 2491 2742 2702 
Q 2975 2913 2975 3322 
Q 2975 3731 2742 3939 
Q 2509 4147 2053 4147 
L 1259 4147 
z
" transform="scale(0.015625)"/>
      <path id="DejaVuSans-46" d="M 628 4666 
L 3309 4666 
L 3309 4134 
L 1259 4134 
L 1259 2759 
L 3109 2759 
L 3109 2228 
L 1259 2228 
L 1259 0 
L 628 0 
L 628 4666 
z
" transform="scale(0.015625)"/>
      <path id="DejaVuSans-69" d="M 603 3500 
L 1178 3500 
L 1178 0 
L 603 0 
L 603 3500 
z
M 603 4863 
L 1178 4863 
L 1178 4134 
L 603 4134 
L 603 4863 
z
" transform="scale(0.015625)"/>
      <path id="DejaVuSans-65" d="M 3597 1894 
L 3597 1613 
L 953 1613 
Q 991 1019 1311 708 
Q 1631 397 2203 397 
Q 2534 397 2845 478 
Q 3156 559 3463 722 
L 3463 178 
Q 3153 47 2828 -22 
Q 2503 -91 2169 -91 
Q 1331 -91 842 396 
Q 353 884 353 1716 
Q 353 2575 817 3079 
Q 1281 3584 2069 3584 
Q 2775 3584 3186 3129 
Q 3597 2675 3597 1894 
z
M 3022 2063 
Q 3016 2534 2758 2815 
Q 2500 3097 2075 3097 
Q 1594 3097 1305 2825 
Q 1016 2553 972 2059 
L 3022 2063 
z
" transform="scale(0.015625)"/>
      <path id="DejaVuSans-6c" d="M 603 4863 
L 1178 4863 
L 1178 0 
L 603 0 
L 603 4863 
z
" transform="scale(0.015625)"/>
      <path id="DejaVuSans-64" d="M 2906 2969 
L 2906 4863 
L 3481 4863 
L 3481 0 
L 2906 0 
L 2906 525 
Q 2725 213 2448 61 
Q 2172 -91 1784 -91 
Q 1150 -91 751 415 
Q 353 922 353 1747 
Q 353 2572 751 3078 
Q 1150 3584 1784 3584 
Q 2172 3584 2448 3432 
Q 2725 3281 2906 2969 
z
M 947 1747 
Q 947 1113 1208 752 
Q 1469 391 1925 391 
Q 2381 391 2643 752 
Q 2906 1113 2906 1747 
Q 2906 2381 2643 2742 
Q 2381 3103 1925 3103 
Q 1469 3103 1208 2742 
Q 947 2381 947 1747 
z
" transform="scale(0.015625)"/>
      <path id="DejaVuSans-41" d="M 2188 4044 
L 1331 1722 
L 3047 1722 
L 2188 4044 
z
M 1831 4666 
L 2547 4666 
L 4325 0 
L 3669 0 
L 3244 1197 
L 1141 1197 
L 716 0 
L 50 0 
L 1831 4666 
z
" transform="scale(0.015625)"/>
      <path id="DejaVuSans-78" d="M 3513 3500 
L 2247 1797 
L 3578 0 
L 2900 0 
L 1881 1375 
L 863 0 
L 184 0 
L 1544 1831 
L 300 3500 
L 978 3500 
L 1906 2253 
L 2834 3500 
L 3513 3500 
z
" transform="scale(0.015625)"/>
      <path id="DejaVuSans-61" d="M 2194 1759 
Q 1497 1759 1228 1600 
Q 959 1441 959 1056 
Q 959 750 1161 570 
Q 1363 391 1709 391 
Q 2188 391 2477 730 
Q 2766 1069 2766 1631 
L 2766 1759 
L 2194 1759 
z
M 3341 1997 
L 3341 0 
L 2766 0 
L 2766 531 
Q 2569 213 2275 61 
Q 1981 -91 1556 -91 
Q 1019 -91 701 211 
Q 384 513 384 1019 
Q 384 1609 779 1909 
Q 1175 2209 1959 2209 
L 2766 2209 
L 2766 2266 
Q 2766 2663 2505 2880 
Q 2244 3097 1772 3097 
Q 1472 3097 1187 3025 
Q 903 2953 641 2809 
L 641 3341 
Q 956 3463 1253 3523 
Q 1550 3584 1831 3584 
Q 2591 3584 2966 3190 
Q 3341 2797 3341 1997 
z
" transform="scale(0.015625)"/>
      <path id="DejaVuSans-43" d="M 4122 4306 
L 4122 3641 
Q 3803 3938 3442 4084 
Q 3081 4231 2675 4231 
Q 1875 4231 1450 3742 
Q 1025 3253 1025 2328 
Q 1025 1406 1450 917 
Q 1875 428 2675 428 
Q 3081 428 3442 575 
Q 3803 722 4122 1019 
L 4122 359 
Q 3791 134 3420 21 
Q 3050 -91 2638 -91 
Q 1578 -91 968 557 
Q 359 1206 359 2328 
Q 359 3453 968 4101 
Q 1578 4750 2638 4750 
Q 3056 4750 3426 4639 
Q 3797 4528 4122 4306 
z
" transform="scale(0.015625)"/>
      <path id="DejaVuSans-75" d="M 544 1381 
L 544 3500 
L 1119 3500 
L 1119 1403 
Q 1119 906 1312 657 
Q 1506 409 1894 409 
Q 2359 409 2629 706 
Q 2900 1003 2900 1516 
L 2900 3500 
L 3475 3500 
L 3475 0 
L 2900 0 
L 2900 538 
Q 2691 219 2414 64 
Q 2138 -91 1772 -91 
Q 1169 -91 856 284 
Q 544 659 544 1381 
z
M 1991 3584 
L 1991 3584 
z
" transform="scale(0.015625)"/>
      <path id="DejaVuSans-72" d="M 2631 2963 
Q 2534 3019 2420 3045 
Q 2306 3072 2169 3072 
Q 1681 3072 1420 2755 
Q 1159 2438 1159 1844 
L 1159 0 
L 581 0 
L 581 3500 
L 1159 3500 
L 1159 2956 
Q 1341 3275 1631 3429 
Q 1922 3584 2338 3584 
Q 2397 3584 2469 3576 
Q 2541 3569 2628 3553 
L 2631 2963 
z
" transform="scale(0.015625)"/>
      <path id="DejaVuSans-76" d="M 191 3500 
L 800 3500 
L 1894 563 
L 2988 3500 
L 3597 3500 
L 2284 0 
L 1503 0 
L 191 3500 
z
" transform="scale(0.015625)"/>
      <path id="DejaVuSans-74" d="M 1172 4494 
L 1172 3500 
L 2356 3500 
L 2356 3053 
L 1172 3053 
L 1172 1153 
Q 1172 725 1289 603 
Q 1406 481 1766 481 
L 2356 481 
L 2356 0 
L 1766 0 
Q 1100 0 847 248 
Q 594 497 594 1153 
L 594 3053 
L 172 3053 
L 172 3500 
L 594 3500 
L 594 4494 
L 1172 4494 
z
" transform="scale(0.015625)"/>
     </defs>
     <use xlink:href="#DejaVuSans-52"/>
     <use xlink:href="#DejaVuSans-46" x="69.482422"/>
     <use xlink:href="#DejaVuSans-20" x="127.001953"/>
     <use xlink:href="#DejaVuSans-46" x="158.789062"/>
     <use xlink:href="#DejaVuSans-69" x="209.058594"/>
     <use xlink:href="#DejaVuSans-65" x="236.841797"/>
     <use xlink:href="#DejaVuSans-6c" x="298.365234"/>
     <use xlink:href="#DejaVuSans-64" x="326.148438"/>
     <use xlink:href="#DejaVuSans-20" x="389.625"/>
     <use xlink:href="#DejaVuSans-41" x="421.412109"/>
     <use xlink:href="#DejaVuSans-78" x="489.820312"/>
     <use xlink:href="#DejaVuSans-69" x="549"/>
     <use xlink:href="#DejaVuSans-61" x="576.783203"/>
     <use xlink:href="#DejaVuSans-6c" x="638.0625"/>
     <use xlink:href="#DejaVuSans-20" x="665.845703"/>
     <use xlink:href="#DejaVuSans-43" x="697.632812"/>
     <use xlink:href="#DejaVuSans-75" x="767.457031"/>
     <use xlink:href="#DejaVuSans-72" x="830.835938"/>
     <use xlink:href="#DejaVuSans-76" x="871.949219"/>
     <use xlink:href="#DejaVuSans-61" x="931.128906"/>
     <use xlink:href="#DejaVuSans-74" x="992.408203"/>
     <use xlink:href="#DejaVuSans-75" x="1031.617188"/>
     <use xlink:href="#DejaVuSans-72" x="1094.996094"/>
     <use xlink:href="#DejaVuSans-65" x="1133.859375"/>
    </g>
   </g>
   <g id="legend_1">
    <g id="patch_7">
     <path d="M 97.524219 76.7925 
L 183.724219 76.7925 
Q 187.724219 76.7925 187.724219 72.7925 
L 187.724219 45.43625 
Q 187.724219 41.43625 183.724219 41.43625 
L 97.524219 41.43625 
Q 93.524219 41.43625 93.524219 45.43625 
L 93.524219 72.7925 
Q 93.524219 76.7925 97.524219 76.7925 
z
" style="fill: #ffffff; opacity: 0.8; stroke: #cccccc; stroke-linejoin: miter"/>
    </g>
    <g id="line2d_30">
     <path d="M 101.524219 57.633125 
L 121.524219 57.633125 
L 141.524219 57.633125 
" style="fill: none; stroke: #1f77b4; stroke-width: 1.5; stroke-linecap: square"/>
    </g>
    <g id="text_18">
     <!-- $x^2$ -->
     <g transform="translate(157.524219 64.633125)scale(0.2 -0.2)">
      <defs>
       <path id="DejaVuSans-Oblique-78" d="M 3841 3500 
L 2234 1784 
L 3219 0 
L 2559 0 
L 1819 1388 
L 531 0 
L -166 0 
L 1556 1844 
L 641 3500 
L 1300 3500 
L 1972 2234 
L 3144 3500 
L 3841 3500 
z
" transform="scale(0.015625)"/>
      </defs>
      <use xlink:href="#DejaVuSans-Oblique-78" transform="translate(0 0.765625)"/>
      <use xlink:href="#DejaVuSans-32" transform="translate(63.645833 39.046875)scale(0.7)"/>
     </g>
    </g>
   </g>
  </g>
 </g>
 <defs>
  <clipPath id="p2592da7fbd">
   <rect x="83.524219" y="31.43625" width="357.12" height="266.112"/>
  </clipPath>
 </defs>
</svg>
