<?xml version="1.0" encoding="utf-8" standalone="no"?>
<!DOCTYPE svg PUBLIC "-//W3C//DTD SVG 1.1//EN"
  "http://www.w3.org/Graphics/SVG/1.1/DTD/svg11.dtd">
<svg xmlns:xlink="http://www.w3.org/1999/xlink" width="435.274687pt" height="349.665437pt" viewBox="0 0 435.274687 349.665437" xmlns="http://www.w3.org/2000/svg" version="1.1">
 <defs>
  <style type="text/css">*{stroke-linejoin: round; stroke-linecap: butt}</style>
 </defs>
 <g id="figure_1">
  <g id="patch_1">
   <path d="M 0 349.665437 
L 435.274687 349.665437 
L 435.274687 0 
L 0 0 
L 0 349.665437 
z
" style="fill: none"/>
  </g>
  <g id="axes_1">
   <g id="patch_2">
    <path d="M 70.954688 297.54825 
L 428.074687 297.54825 
L 428.074687 31.43625 
L 70.954688 31.43625 
L 70.954688 297.54825 
z
" style="fill: none"/>
   </g>
   <g id="matplotlib.axis_1">
    <g id="xtick_1">
     <g id="line2d_1">
      <path d="M 102.884997 297.54825 
L 102.884997 31.43625 
" clip-path="url(#p17a5bf9d1e)" style="fill: none; stroke: #b0b0b0; stroke-width: 0.8; stroke-linecap: square"/>
     </g>
     <g id="line2d_2">
      <defs>
       <path id="md39032bed2" d="M 0 0 
L 0 3.5 
" style="stroke: #000000; stroke-width: 0.8"/>
      </defs>
      <g>
       <use xlink:href="#md39032bed2" x="102.884997" y="297.54825" style="stroke: #000000; stroke-width: 0.8"/>
      </g>
     </g>
     <g id="text_1">
      <!-- −3000 -->
      <g transform="translate(77.512732 315.945906)scale(0.15 -0.15)">
       <defs>
        <path id="DejaVuSans-2212" d="M 678 2272 
L 4684 2272 
L 4684 1741 
L 678 1741 
L 678 2272 
z
" transform="scale(0.015625)"/>
        <path id="DejaVuSans-33" d="M 2597 2516 
Q 3050 2419 3304 2112 
Q 3559 1806 3559 1356 
Q 3559 666 3084 287 
Q 2609 -91 1734 -91 
Q 1441 -91 1130 -33 
Q 819 25 488 141 
L 488 750 
Q 750 597 1062 519 
Q 1375 441 1716 441 
Q 2309 441 2620 675 
Q 2931 909 2931 1356 
Q 2931 1769 2642 2001 
Q 2353 2234 1838 2234 
L 1294 2234 
L 1294 2753 
L 1863 2753 
Q 2328 2753 2575 2939 
Q 2822 3125 2822 3475 
Q 2822 3834 2567 4026 
Q 2313 4219 1838 4219 
Q 1578 4219 1281 4162 
Q 984 4106 628 3988 
L 628 4550 
Q 988 4650 1302 4700 
Q 1616 4750 1894 4750 
Q 2613 4750 3031 4423 
Q 3450 4097 3450 3541 
Q 3450 3153 3228 2886 
Q 3006 2619 2597 2516 
z
" transform="scale(0.015625)"/>
        <path id="DejaVuSans-30" d="M 2034 4250 
Q 1547 4250 1301 3770 
Q 1056 3291 1056 2328 
Q 1056 1369 1301 889 
Q 1547 409 2034 409 
Q 2525 409 2770 889 
Q 3016 1369 3016 2328 
Q 3016 3291 2770 3770 
Q 2525 4250 2034 4250 
z
M 2034 4750 
Q 2819 4750 3233 4129 
Q 3647 3509 3647 2328 
Q 3647 1150 3233 529 
Q 2819 -91 2034 -91 
Q 1250 -91 836 529 
Q 422 1150 422 2328 
Q 422 3509 836 4129 
Q 1250 4750 2034 4750 
z
" transform="scale(0.015625)"/>
       </defs>
       <use xlink:href="#DejaVuSans-2212"/>
       <use xlink:href="#DejaVuSans-33" x="83.789062"/>
       <use xlink:href="#DejaVuSans-30" x="147.412109"/>
       <use xlink:href="#DejaVuSans-30" x="211.035156"/>
       <use xlink:href="#DejaVuSans-30" x="274.658203"/>
      </g>
     </g>
    </g>
    <g id="xtick_2">
     <g id="line2d_3">
      <path d="M 174.237645 297.54825 
L 174.237645 31.43625 
" clip-path="url(#p17a5bf9d1e)" style="fill: none; stroke: #b0b0b0; stroke-width: 0.8; stroke-linecap: square"/>
     </g>
     <g id="line2d_4">
      <g>
       <use xlink:href="#md39032bed2" x="174.237645" y="297.54825" style="stroke: #000000; stroke-width: 0.8"/>
      </g>
     </g>
     <g id="text_2">
      <!-- −2000 -->
      <g transform="translate(148.865379 315.945906)scale(0.15 -0.15)">
       <defs>
        <path id="DejaVuSans-32" d="M 1228 531 
L 3431 531 
L 3431 0 
L 469 0 
L 469 531 
Q 828 903 1448 1529 
Q 2069 2156 2228 2338 
Q 2531 2678 2651 2914 
Q 2772 3150 2772 3378 
Q 2772 3750 2511 3984 
Q 2250 4219 1831 4219 
Q 1534 4219 1204 4116 
Q 875 4013 500 3803 
L 500 4441 
Q 881 4594 1212 4672 
Q 1544 4750 1819 4750 
Q 2544 4750 2975 4387 
Q 3406 4025 3406 3419 
Q 3406 3131 3298 2873 
Q 3191 2616 2906 2266 
Q 2828 2175 2409 1742 
Q 1991 1309 1228 531 
z
" transform="scale(0.015625)"/>
       </defs>
       <use xlink:href="#DejaVuSans-2212"/>
       <use xlink:href="#DejaVuSans-32" x="83.789062"/>
       <use xlink:href="#DejaVuSans-30" x="147.412109"/>
       <use xlink:href="#DejaVuSans-30" x="211.035156"/>
       <use xlink:href="#DejaVuSans-30" x="274.658203"/>
      </g>
     </g>
    </g>
    <g id="xtick_3">
     <g id="line2d_5">
      <path d="M 245.590292 297.54825 
L 245.590292 31.43625 
" clip-path="url(#p17a5bf9d1e)" style="fill: none; stroke: #b0b0b0; stroke-width: 0.8; stroke-linecap: square"/>
     </g>
     <g id="line2d_6">
      <g>
       <use xlink:href="#md39032bed2" x="245.590292" y="297.54825" style="stroke: #000000; stroke-width: 0.8"/>
      </g>
     </g>
     <g id="text_3">
      <!-- −1000 -->
      <g transform="translate(220.218026 315.945906)scale(0.15 -0.15)">
       <defs>
        <path id="DejaVuSans-31" d="M 794 531 
L 1825 531 
L 1825 4091 
L 703 3866 
L 703 4441 
L 1819 4666 
L 2450 4666 
L 2450 531 
L 3481 531 
L 3481 0 
L 794 0 
L 794 531 
z
" transform="scale(0.015625)"/>
       </defs>
       <use xlink:href="#DejaVuSans-2212"/>
       <use xlink:href="#DejaVuSans-31" x="83.789062"/>
       <use xlink:href="#DejaVuSans-30" x="147.412109"/>
       <use xlink:href="#DejaVuSans-30" x="211.035156"/>
       <use xlink:href="#DejaVuSans-30" x="274.658203"/>
      </g>
     </g>
    </g>
    <g id="xtick_4">
     <g id="line2d_7">
      <path d="M 316.942939 297.54825 
L 316.942939 31.43625 
" clip-path="url(#p17a5bf9d1e)" style="fill: none; stroke: #b0b0b0; stroke-width: 0.8; stroke-linecap: square"/>
     </g>
     <g id="line2d_8">
      <g>
       <use xlink:href="#md39032bed2" x="316.942939" y="297.54825" style="stroke: #000000; stroke-width: 0.8"/>
      </g>
     </g>
     <g id="text_4">
      <!-- 0 -->
      <g transform="translate(312.171064 315.945906)scale(0.15 -0.15)">
       <use xlink:href="#DejaVuSans-30"/>
      </g>
     </g>
    </g>
    <g id="xtick_5">
     <g id="line2d_9">
      <path d="M 388.295587 297.54825 
L 388.295587 31.43625 
" clip-path="url(#p17a5bf9d1e)" style="fill: none; stroke: #b0b0b0; stroke-width: 0.8; stroke-linecap: square"/>
     </g>
     <g id="line2d_10">
      <g>
       <use xlink:href="#md39032bed2" x="388.295587" y="297.54825" style="stroke: #000000; stroke-width: 0.8"/>
      </g>
     </g>
     <g id="text_5">
      <!-- 1000 -->
      <g transform="translate(369.208087 315.945906)scale(0.15 -0.15)">
       <use xlink:href="#DejaVuSans-31"/>
       <use xlink:href="#DejaVuSans-30" x="63.623047"/>
       <use xlink:href="#DejaVuSans-30" x="127.246094"/>
       <use xlink:href="#DejaVuSans-30" x="190.869141"/>
      </g>
     </g>
    </g>
    <g id="text_6">
     <!-- X ($\mu m$) -->
     <g transform="translate(215.514688 338.265437)scale(0.2 -0.2)">
      <defs>
       <path id="DejaVuSans-58" d="M 403 4666 
L 1081 4666 
L 2241 2931 
L 3406 4666 
L 4084 4666 
L 2584 2425 
L 4184 0 
L 3506 0 
L 2194 1984 
L 872 0 
L 191 0 
L 1856 2491 
L 403 4666 
z
" transform="scale(0.015625)"/>
       <path id="DejaVuSans-20" transform="scale(0.015625)"/>
       <path id="DejaVuSans-28" d="M 1984 4856 
Q 1566 4138 1362 3434 
Q 1159 2731 1159 2009 
Q 1159 1288 1364 580 
Q 1569 -128 1984 -844 
L 1484 -844 
Q 1016 -109 783 600 
Q 550 1309 550 2009 
Q 550 2706 781 3412 
Q 1013 4119 1484 4856 
L 1984 4856 
z
" transform="scale(0.015625)"/>
       <path id="DejaVuSans-Oblique-3bc" d="M -84 -1331 
L 856 3500 
L 1434 3500 
L 1009 1322 
Q 997 1256 987 1175 
Q 978 1094 978 1013 
Q 978 722 1161 565 
Q 1344 409 1684 409 
Q 2147 409 2431 671 
Q 2716 934 2816 1459 
L 3213 3500 
L 3788 3500 
L 3266 809 
Q 3253 750 3248 706 
Q 3244 663 3244 628 
Q 3244 531 3283 486 
Q 3322 441 3406 441 
Q 3438 441 3492 456 
Q 3547 472 3647 513 
L 3559 50 
Q 3422 -19 3297 -55 
Q 3172 -91 3053 -91 
Q 2847 -91 2730 40 
Q 2613 172 2613 403 
Q 2438 153 2195 31 
Q 1953 -91 1625 -91 
Q 1334 -91 1117 43 
Q 900 178 831 397 
L 494 -1331 
L -84 -1331 
z
" transform="scale(0.015625)"/>
       <path id="DejaVuSans-Oblique-6d" d="M 5747 2113 
L 5338 0 
L 4763 0 
L 5166 2094 
Q 5191 2228 5203 2325 
Q 5216 2422 5216 2491 
Q 5216 2772 5059 2928 
Q 4903 3084 4622 3084 
Q 4203 3084 3875 2770 
Q 3547 2456 3450 1953 
L 3066 0 
L 2491 0 
L 2900 2094 
Q 2925 2209 2937 2307 
Q 2950 2406 2950 2484 
Q 2950 2769 2794 2926 
Q 2638 3084 2363 3084 
Q 1938 3084 1609 2770 
Q 1281 2456 1184 1953 
L 800 0 
L 225 0 
L 909 3500 
L 1484 3500 
L 1375 2956 
Q 1609 3263 1923 3423 
Q 2238 3584 2597 3584 
Q 2978 3584 3223 3384 
Q 3469 3184 3519 2828 
Q 3781 3197 4126 3390 
Q 4472 3584 4856 3584 
Q 5306 3584 5551 3325 
Q 5797 3066 5797 2591 
Q 5797 2488 5784 2364 
Q 5772 2241 5747 2113 
z
" transform="scale(0.015625)"/>
       <path id="DejaVuSans-29" d="M 513 4856 
L 1013 4856 
Q 1481 4119 1714 3412 
Q 1947 2706 1947 2009 
Q 1947 1309 1714 600 
Q 1481 -109 1013 -844 
L 513 -844 
Q 928 -128 1133 580 
Q 1338 1288 1338 2009 
Q 1338 2731 1133 3434 
Q 928 4138 513 4856 
z
" transform="scale(0.015625)"/>
      </defs>
      <use xlink:href="#DejaVuSans-58" transform="translate(0 0.125)"/>
      <use xlink:href="#DejaVuSans-20" transform="translate(68.505859 0.125)"/>
      <use xlink:href="#DejaVuSans-28" transform="translate(100.292969 0.125)"/>
      <use xlink:href="#DejaVuSans-Oblique-3bc" transform="translate(139.306641 0.125)"/>
      <use xlink:href="#DejaVuSans-Oblique-6d" transform="translate(202.929688 0.125)"/>
      <use xlink:href="#DejaVuSans-29" transform="translate(300.341797 0.125)"/>
     </g>
    </g>
   </g>
   <g id="matplotlib.axis_2">
    <g id="ytick_1">
     <g id="line2d_11">
      <path d="M 70.954688 255.37906 
L 428.074687 255.37906 
" clip-path="url(#p17a5bf9d1e)" style="fill: none; stroke: #b0b0b0; stroke-width: 0.8; stroke-linecap: square"/>
     </g>
     <g id="line2d_12">
      <defs>
       <path id="m6f3f5b6aff" d="M 0 0 
L -3.5 0 
" style="stroke: #000000; stroke-width: 0.8"/>
      </defs>
      <g>
       <use xlink:href="#m6f3f5b6aff" x="70.954688" y="255.37906" style="stroke: #000000; stroke-width: 0.8"/>
      </g>
     </g>
     <g id="text_7">
      <!-- 10.0 -->
      <g transform="translate(30.55625 261.077888)scale(0.15 -0.15)">
       <defs>
        <path id="DejaVuSans-2e" d="M 684 794 
L 1344 794 
L 1344 0 
L 684 0 
L 684 794 
z
" transform="scale(0.015625)"/>
       </defs>
       <use xlink:href="#DejaVuSans-31"/>
       <use xlink:href="#DejaVuSans-30" x="63.623047"/>
       <use xlink:href="#DejaVuSans-2e" x="127.246094"/>
       <use xlink:href="#DejaVuSans-30" x="159.033203"/>
      </g>
     </g>
    </g>
    <g id="ytick_2">
     <g id="line2d_13">
      <path d="M 70.954688 190.522135 
L 428.074687 190.522135 
" clip-path="url(#p17a5bf9d1e)" style="fill: none; stroke: #b0b0b0; stroke-width: 0.8; stroke-linecap: square"/>
     </g>
     <g id="line2d_14">
      <g>
       <use xlink:href="#m6f3f5b6aff" x="70.954688" y="190.522135" style="stroke: #000000; stroke-width: 0.8"/>
      </g>
     </g>
     <g id="text_8">
      <!-- 10.5 -->
      <g transform="translate(30.55625 196.220963)scale(0.15 -0.15)">
       <defs>
        <path id="DejaVuSans-35" d="M 691 4666 
L 3169 4666 
L 3169 4134 
L 1269 4134 
L 1269 2991 
Q 1406 3038 1543 3061 
Q 1681 3084 1819 3084 
Q 2600 3084 3056 2656 
Q 3513 2228 3513 1497 
Q 3513 744 3044 326 
Q 2575 -91 1722 -91 
Q 1428 -91 1123 -41 
Q 819 9 494 109 
L 494 744 
Q 775 591 1075 516 
Q 1375 441 1709 441 
Q 2250 441 2565 725 
Q 2881 1009 2881 1497 
Q 2881 1984 2565 2268 
Q 2250 2553 1709 2553 
Q 1456 2553 1204 2497 
Q 953 2441 691 2322 
L 691 4666 
z
" transform="scale(0.015625)"/>
       </defs>
       <use xlink:href="#DejaVuSans-31"/>
       <use xlink:href="#DejaVuSans-30" x="63.623047"/>
       <use xlink:href="#DejaVuSans-2e" x="127.246094"/>
       <use xlink:href="#DejaVuSans-35" x="159.033203"/>
      </g>
     </g>
    </g>
    <g id="ytick_3">
     <g id="line2d_15">
      <path d="M 70.954688 125.66521 
L 428.074687 125.66521 
" clip-path="url(#p17a5bf9d1e)" style="fill: none; stroke: #b0b0b0; stroke-width: 0.8; stroke-linecap: square"/>
     </g>
     <g id="line2d_16">
      <g>
       <use xlink:href="#m6f3f5b6aff" x="70.954688" y="125.66521" style="stroke: #000000; stroke-width: 0.8"/>
      </g>
     </g>
     <g id="text_9">
      <!-- 11.0 -->
      <g transform="translate(30.55625 131.364038)scale(0.15 -0.15)">
       <use xlink:href="#DejaVuSans-31"/>
       <use xlink:href="#DejaVuSans-31" x="63.623047"/>
       <use xlink:href="#DejaVuSans-2e" x="127.246094"/>
       <use xlink:href="#DejaVuSans-30" x="159.033203"/>
      </g>
     </g>
    </g>
    <g id="ytick_4">
     <g id="line2d_17">
      <path d="M 70.954688 60.808285 
L 428.074687 60.808285 
" clip-path="url(#p17a5bf9d1e)" style="fill: none; stroke: #b0b0b0; stroke-width: 0.8; stroke-linecap: square"/>
     </g>
     <g id="line2d_18">
      <g>
       <use xlink:href="#m6f3f5b6aff" x="70.954688" y="60.808285" style="stroke: #000000; stroke-width: 0.8"/>
      </g>
     </g>
     <g id="text_10">
      <!-- 11.5 -->
      <g transform="translate(30.55625 66.507113)scale(0.15 -0.15)">
       <use xlink:href="#DejaVuSans-31"/>
       <use xlink:href="#DejaVuSans-31" x="63.623047"/>
       <use xlink:href="#DejaVuSans-2e" x="127.246094"/>
       <use xlink:href="#DejaVuSans-35" x="159.033203"/>
      </g>
     </g>
    </g>
    <g id="text_11">
     <!-- $kHz/V$ -->
     <g transform="translate(22.396875 193.29225)rotate(-90)scale(0.2 -0.2)">
      <defs>
       <path id="DejaVuSans-Oblique-6b" d="M 1172 4863 
L 1747 4863 
L 1197 2028 
L 3169 3500 
L 3916 3500 
L 1716 1825 
L 3322 0 
L 2625 0 
L 1131 1709 
L 800 0 
L 225 0 
L 1172 4863 
z
" transform="scale(0.015625)"/>
       <path id="DejaVuSans-Oblique-48" d="M 1081 4666 
L 1716 4666 
L 1344 2753 
L 3634 2753 
L 4006 4666 
L 4641 4666 
L 3731 0 
L 3097 0 
L 3531 2222 
L 1241 2222 
L 806 0 
L 172 0 
L 1081 4666 
z
" transform="scale(0.015625)"/>
       <path id="DejaVuSans-Oblique-7a" d="M 744 3500 
L 3475 3500 
L 3372 2975 
L 738 459 
L 2913 459 
L 2822 0 
L -19 0 
L 84 525 
L 2719 3041 
L 653 3041 
L 744 3500 
z
" transform="scale(0.015625)"/>
       <path id="DejaVuSans-2f" d="M 1625 4666 
L 2156 4666 
L 531 -594 
L 0 -594 
L 1625 4666 
z
" transform="scale(0.015625)"/>
       <path id="DejaVuSans-Oblique-56" d="M 1319 0 
L 500 4666 
L 1119 4666 
L 1797 653 
L 4063 4666 
L 4750 4666 
L 2053 0 
L 1319 0 
z
" transform="scale(0.015625)"/>
      </defs>
      <use xlink:href="#DejaVuSans-Oblique-6b" transform="translate(0 0.015625)"/>
      <use xlink:href="#DejaVuSans-Oblique-48" transform="translate(57.910156 0.015625)"/>
      <use xlink:href="#DejaVuSans-Oblique-7a" transform="translate(133.105469 0.015625)"/>
      <use xlink:href="#DejaVuSans-2f" transform="translate(185.595703 0.015625)"/>
      <use xlink:href="#DejaVuSans-Oblique-56" transform="translate(219.287109 0.015625)"/>
     </g>
    </g>
   </g>
   <g id="line2d_19">
    <path d="M 87.187415 232.075943 
L 88.257704 226.59123 
L 89.399347 222.172183 
L 89.970168 220.371811 
L 91.825337 216.911845 
L 92.824274 215.870483 
L 93.25239 215.627037 
L 93.965916 215.362246 
L 96.962727 215.737939 
L 99.46007 215.512172 
L 100.459007 215.885629 
L 101.88606 216.863145 
L 103.384466 217.538658 
L 104.882871 217.795668 
L 105.739103 219.430687 
L 107.80833 222.235079 
L 108.521856 222.8528 
L 109.663499 223.556559 
L 109.877557 223.559951 
L 110.947846 223.729831 
L 113.516542 223.599907 
L 114.586831 223.380789 
L 116.085237 222.964832 
L 119.153401 223.86598 
L 120.080985 224.482241 
L 120.937217 225.386533 
L 122.007507 226.946329 
L 122.792386 228.369895 
L 123.791323 230.582205 
L 124.576202 232.679765 
L 127.21625 241.23115 
L 129.071419 252.636639 
L 129.927651 256.47178 
L 130.71253 258.923241 
L 131.426056 260.40196 
L 132.424993 261.333506 
L 133.209872 261.298639 
L 133.923399 260.914506 
L 134.49422 260.261009 
L 135.992626 257.842436 
L 137.847794 254.911253 
L 138.775379 253.843873 
L 140.41649 252.688601 
L 142.771127 252.023355 
L 145.054412 251.86372 
L 145.625233 251.751147 
L 146.410112 251.594316 
L 147.123639 251.461975 
L 149.264218 251.403443 
L 152.617792 251.653804 
L 155.900014 252.070031 
L 157.041657 251.985198 
L 157.327067 251.930752 
L 157.897888 251.828354 
L 159.82441 251.740066 
L 160.537936 251.59315 
L 160.894699 251.553608 
L 162.036342 251.365769 
L 162.749868 251.33119 
L 164.034216 251.357926 
L 164.248274 251.342789 
L 166.888322 250.751392 
L 167.530496 250.531241 
L 177.87663 246.620529 
L 178.447451 246.284986 
L 181.016146 245.035172 
L 182.72861 244.260164 
L 184.512426 243.436301 
L 186.653005 243.335731 
L 188.793585 244.117604 
L 190.149285 245.333057 
L 191.433633 246.980578 
L 191.64769 247.550413 
L 193.074743 253.965343 
L 197.56996 277.12765 
L 198.568897 281.432029 
L 199.353776 283.960734 
L 199.781892 284.866984 
L 200.281361 285.392508 
L 200.566771 285.439277 
L 200.923535 285.224585 
L 201.565708 283.836526 
L 201.993824 282.248879 
L 202.564646 279.248193 
L 203.206819 274.628419 
L 204.134404 266.014457 
L 205.204693 253.386017 
L 208.34421 213.367251 
L 209.985321 207.45688 
L 210.698847 205.796814 
L 211.483726 204.646609 
L 211.769137 204.374313 
L 212.339958 203.894709 
L 212.982132 203.590338 
L 213.624306 203.583429 
L 214.195127 203.808714 
L 214.980006 204.525367 
L 215.836238 205.681863 
L 217.405996 207.79444 
L 218.333581 208.665836 
L 219.189812 209.210927 
L 220.188749 209.574879 
L 221.116334 209.70097 
L 221.82986 209.582822 
L 222.757445 209.163335 
L 223.685029 208.599933 
L 224.826672 208.015648 
L 225.682903 207.793545 
L 230.249473 207.269049 
L 231.676526 207.392474 
L 232.746815 207.358246 
L 233.246284 207.293321 
L 236.314448 207.147603 
L 238.52638 207.203123 
L 239.453964 207.236634 
L 241.380486 207.651144 
L 243.164302 208.163567 
L 244.805413 208.818694 
L 246.803287 209.299746 
L 247.302755 209.45807 
L 249.657393 210.144463 
L 250.156861 210.156631 
L 251.512562 209.864066 
L 252.154735 209.599326 
L 252.654204 209.328419 
L 254.009904 208.158239 
L 254.866136 206.982556 
L 255.936426 205.129578 
L 257.006715 203.301116 
L 260.146232 200.688768 
L 264.070628 199.168635 
L 265.21227 199.19824 
L 266.068502 199.469681 
L 269.707487 201.160224 
L 270.492366 201.679704 
L 271.277245 202.362714 
L 272.704298 204.471205 
L 274.345409 205.887293 
L 274.987583 206.135023 
L 276.057872 206.17938 
L 277.34222 206.086968 
L 277.841688 206.057123 
L 278.69792 206.025317 
L 279.411447 205.91326 
L 279.910915 205.829544 
L 281.409321 205.373512 
L 282.122847 205.181253 
L 285.69048 204.683727 
L 288.045117 204.045002 
L 290.042991 203.620478 
L 292.183571 202.913635 
L 292.96845 202.683539 
L 294.110092 202.199575 
L 295.180382 201.425391 
L 296.75014 200.084676 
L 297.677724 199.806491 
L 299.247483 199.457992 
L 299.889657 199.436683 
L 300.745888 199.533586 
L 304.242168 200.620852 
L 305.38381 201.473162 
L 306.4541 202.735011 
L 308.88009 205.731817 
L 309.593617 206.257256 
L 310.449848 206.663104 
L 314.659655 207.629585 
L 315.587239 207.577908 
L 318.798108 206.882499 
L 319.511635 206.410532 
L 320.153808 205.723562 
L 320.795982 204.673789 
L 321.366803 203.397589 
L 322.008977 201.437822 
L 322.793856 198.184059 
L 323.578735 193.753163 
L 324.434967 187.622596 
L 325.505257 179.937704 
L 328.0026 170.91923 
L 329.286947 166.675752 
L 330.42859 163.926 
L 331.427527 162.210974 
L 332.355111 160.93202 
L 333.924869 159.221745 
L 334.709748 158.636907 
L 336.63627 157.835418 
L 337.278444 157.581143 
L 339.276318 156.53674 
L 340.061197 156.240432 
L 343.700182 154.943788 
L 344.128298 154.737635 
L 344.556414 154.594805 
L 345.055882 154.41374 
L 345.412646 154.336489 
L 345.983467 154.175745 
L 348.124046 153.826832 
L 348.908925 153.658631 
L 349.622452 153.429864 
L 359.54047 147.850008 
L 360.89617 146.8862 
L 361.324286 146.663857 
L 363.036749 145.459455 
L 363.964334 144.908868 
L 364.749213 144.293523 
L 365.320034 143.722412 
L 366.533029 142.590045 
L 366.81844 142.408412 
L 367.10385 142.140645 
L 367.603319 141.773129 
L 370.671483 139.636125 
L 372.098536 138.727609 
L 372.312594 138.511814 
L 373.097473 137.961189 
L 373.953704 137.731668 
L 374.595878 137.406279 
L 374.881289 137.220848 
L 376.236989 136.162906 
L 377.592689 135.124238 
L 377.8781 134.930131 
L 378.520274 134.437892 
L 379.447858 133.588653 
L 381.160322 131.912794 
L 382.016554 131.237512 
L 382.301964 130.860797 
L 382.73008 130.372216 
L 382.872785 130.249062 
L 383.514959 129.473124 
L 385.227423 127.500133 
L 385.298775 127.472016 
L 385.512833 127.1823 
L 386.155007 126.529679 
L 387.29665 125.344588 
L 389.936697 121.800542 
L 390.150755 121.495235 
L 392.933509 117.545687 
L 393.361625 116.855209 
L 396.001673 112.967724 
L 396.144378 112.755679 
L 397.714136 110.02259 
L 399.283894 107.038873 
L 399.569305 106.441968 
L 399.997421 105.543557 
L 401.638532 102.144945 
L 401.923942 101.496625 
L 402.423411 100.155853 
L 403.850464 96.149458 
L 406.847275 87.744927 
L 406.98998 87.378899 
L 407.988917 84.758921 
L 408.274328 84.122872 
L 408.559738 83.397008 
L 409.13056 82.251679 
L 409.273265 82.058935 
L 409.487323 81.699742 
L 409.915439 81.207032 
L 409.986791 80.885935 
L 410.058144 80.952865 
L 410.129497 81.054919 
L 410.272202 80.818905 
L 410.343555 80.84555 
L 410.48626 80.662229 
L 410.914376 80.626983 
L 411.128434 80.440788 
L 411.199786 80.717168 
L 411.271139 80.560095 
L 411.485197 80.747864 
L 411.699255 80.808022 
L 411.84196 81.000716 
L 411.84196 81.000716 
" clip-path="url(#p17a5bf9d1e)" style="fill: none; stroke: #1f77b4; stroke-width: 1.5; stroke-linecap: square"/>
   </g>
   <g id="line2d_20">
    <path d="M 87.187415 215.059922 
L 87.758236 213.461103 
L 87.972294 213.178054 
L 88.329057 212.529581 
L 88.971231 212.178575 
L 89.256642 212.114628 
L 89.542052 212.144609 
L 89.898815 212.260326 
L 90.540989 212.446855 
L 90.897752 212.580529 
L 91.183163 212.708668 
L 93.038332 212.724005 
L 93.466448 212.537604 
L 93.965916 212.310876 
L 94.251327 212.15587 
L 94.964853 211.498622 
L 96.249201 210.568103 
L 96.463259 210.418542 
L 97.462196 210.080357 
L 99.317365 210.590984 
L 100.244949 211.138749 
L 100.958476 211.706433 
L 101.672002 212.375667 
L 102.884997 214.086246 
L 103.527171 215.167487 
L 104.954224 217.763708 
L 106.880745 218.668325 
L 108.307798 219.698039 
L 109.592146 220.613308 
L 112.232194 222.213372 
L 114.230068 222.551777 
L 114.515479 222.585589 
L 116.370648 222.865402 
L 117.155527 222.565493 
L 120.580454 222.044736 
L 121.29398 222.140895 
L 122.36427 222.726887 
L 122.792386 223.20114 
L 123.505912 224.383309 
L 124.219439 226.117579 
L 124.861613 228.326169 
L 125.717844 232.18725 
L 127.002192 239.833805 
L 127.21625 240.723093 
L 129.142771 245.919231 
L 131.069293 250.737839 
L 132.06823 252.580464 
L 133.067167 253.686114 
L 133.709341 254.065213 
L 135.279099 254.381803 
L 136.206684 254.357869 
L 137.062915 254.150771 
L 138.918084 253.12938 
L 139.631611 252.742025 
L 141.986248 251.948784 
L 142.271659 251.899529 
L 142.771127 251.722839 
L 145.482528 251.162541 
L 146.196054 251.138557 
L 146.766875 251.15714 
L 147.623107 251.113956 
L 148.407986 251.01001 
L 149.835039 250.898415 
L 153.331319 251.032993 
L 155.400546 250.928879 
L 156.114072 251.029762 
L 158.183299 250.966391 
L 158.896825 250.870904 
L 163.534747 250.50518 
L 164.248274 250.338367 
L 165.675327 250.165909 
L 168.244022 249.750919 
L 170.741365 249.131656 
L 171.811655 248.855833 
L 172.810592 248.447071 
L 174.166292 248.026232 
L 176.092813 247.106167 
L 177.87663 245.793286 
L 179.446388 244.486606 
L 180.944793 242.983326 
L 182.300494 241.609959 
L 183.584841 240.538942 
L 184.227015 240.09606 
L 185.582715 239.302227 
L 186.79571 238.930031 
L 187.58059 239.031443 
L 188.579527 239.816348 
L 189.2217 240.692709 
L 190.00658 242.303661 
L 190.648753 244.119675 
L 191.719043 247.39885 
L 192.43257 248.479381 
L 196.428318 254.160362 
L 196.927786 254.440167 
L 197.427255 254.499702 
L 197.855371 254.351923 
L 198.568897 253.582941 
L 199.211071 252.443215 
L 199.853245 250.865877 
L 200.780829 248.008499 
L 202.42194 241.739508 
L 205.704162 226.186844 
L 208.272857 213.136791 
L 209.485852 200.019045 
L 210.270731 193.700502 
L 210.912905 189.931439 
L 211.412374 188.20575 
L 211.769137 187.293066 
L 212.197253 186.889463 
L 212.554016 187.065046 
L 212.768074 187.307363 
L 213.552953 189.226133 
L 215.836238 195.384053 
L 216.478412 196.199647 
L 217.049233 196.597574 
L 217.620054 196.646442 
L 218.262228 196.435314 
L 219.047107 195.901246 
L 220.830923 194.618479 
L 221.401744 194.527235 
L 221.82986 194.633708 
L 222.400682 195.039294 
L 223.042855 195.807132 
L 223.97044 197.337097 
L 225.825609 200.649964 
L 227.252662 202.753798 
L 227.894835 203.565127 
L 229.036478 204.860183 
L 229.821357 205.434458 
L 230.534883 205.681443 
L 231.319762 205.70289 
L 231.890584 205.578122 
L 232.675463 205.423535 
L 233.103579 205.337978 
L 233.531694 205.276943 
L 234.816042 205.285763 
L 236.029037 205.383829 
L 237.884206 205.901804 
L 242.878891 207.854057 
L 244.520002 207.941367 
L 245.090823 208.030286 
L 247.659519 208.258984 
L 250.228214 207.770184 
L 251.084446 207.594287 
L 252.154735 207.181246 
L 253.938552 205.863718 
L 257.078068 203.013521 
L 258.505121 200.826821 
L 259.718116 199.392304 
L 261.216522 198.14516 
L 262.215459 197.708193 
L 262.429517 197.665974 
L 262.714927 197.598564 
L 264.427391 197.51741 
L 266.996086 197.511493 
L 267.852318 197.93725 
L 268.70855 198.698199 
L 269.850192 200.152649 
L 271.491303 202.378142 
L 272.062124 202.720203 
L 272.704298 203.071799 
L 273.489177 203.453315 
L 276.27193 204.797532 
L 277.270867 205.005008 
L 278.983331 204.808877 
L 279.696857 204.740313 
L 280.053621 204.698193 
L 281.908789 204.606878 
L 285.547774 203.898837 
L 287.117533 203.748879 
L 289.828933 202.797729 
L 290.399754 202.647389 
L 292.183571 202.054879 
L 294.038739 201.052976 
L 295.109029 200.595935 
L 295.822556 200.35925 
L 296.464729 200.159684 
L 297.535019 199.074093 
L 298.676662 198.243957 
L 299.675599 197.911938 
L 301.388062 198.290289 
L 302.601057 199.054385 
L 303.671347 199.878703 
L 306.311395 201.866311 
L 307.595742 202.484207 
L 308.951443 203.03259 
L 310.164438 203.619971 
L 311.662843 204.26722 
L 313.660717 204.083678 
L 314.374244 203.880489 
L 315.016418 203.685773 
L 316.800234 202.866379 
L 318.29864 201.209621 
L 319.226224 199.711191 
L 320.581924 196.835462 
L 321.438156 194.485373 
L 322.793856 189.840524 
L 325.362552 179.98951 
L 326.646899 169.966342 
L 327.574484 164.570452 
L 328.28801 161.644773 
L 329.072889 159.45314 
L 329.786416 158.199651 
L 330.499942 157.406371 
L 331.213469 156.934176 
L 331.78429 156.766945 
L 332.783227 156.760574 
L 335.066512 157.010033 
L 336.993033 156.740943 
L 338.990907 156.410581 
L 339.847139 156.125587 
L 343.129361 154.641628 
L 345.840761 154.118817 
L 347.267814 153.77934 
L 349.051631 152.942793 
L 349.693804 152.711474 
L 350.550036 152.470238 
L 351.905736 152.044881 
L 356.757716 149.389519 
L 357.185832 149.134623 
L 359.897233 147.38736 
L 360.182644 147.245456 
L 360.610759 147.035729 
L 363.108102 145.299341 
L 364.820566 143.756065 
L 365.177329 143.532643 
L 366.461677 142.378621 
L 367.10385 141.560876 
L 368.530903 139.87366 
L 369.52984 138.989019 
L 370.243367 138.536153 
L 371.099599 138.186268 
L 371.599067 138.103301 
L 371.884478 138.073829 
L 372.098536 138.016527 
L 372.455299 138.034123 
L 373.097473 137.908269 
L 374.239115 137.107031 
L 375.095347 136.6624 
L 375.238052 136.541075 
L 375.380757 136.496226 
L 375.808873 136.274326 
L 377.164574 135.401793 
L 377.449984 135.076041 
L 377.592689 134.959646 
L 379.875974 132.841919 
L 380.375443 132.517882 
L 380.732206 132.084382 
L 381.945201 130.580485 
L 383.80037 128.732635 
L 385.227423 127.20265 
L 385.726891 126.602445 
L 386.369065 125.699797 
L 387.439355 124.219529 
L 389.437229 121.428013 
L 390.364813 119.995707 
L 391.149692 118.707981 
L 392.219982 116.823474 
L 397.785489 106.969779 
L 398.499015 105.721471 
L 399.569305 103.535891 
L 402.138 96.262588 
L 403.707758 90.634832 
L 404.920753 85.149964 
L 406.561864 75.965947 
L 408.631091 62.469077 
L 408.987854 60.013572 
L 411.128434 46.70784 
L 411.55655 44.800822 
L 411.84196 43.53225 
L 411.84196 43.53225 
" clip-path="url(#p17a5bf9d1e)" style="fill: none; stroke: #ff7f0e; stroke-width: 1.5; stroke-linecap: square"/>
   </g>
   <g id="patch_3">
    <path d="M 70.954688 297.54825 
L 70.954688 31.43625 
" style="fill: none; stroke: #000000; stroke-width: 0.8; stroke-linejoin: miter; stroke-linecap: square"/>
   </g>
   <g id="patch_4">
    <path d="M 428.074687 297.54825 
L 428.074687 31.43625 
" style="fill: none; stroke: #000000; stroke-width: 0.8; stroke-linejoin: miter; stroke-linecap: square"/>
   </g>
   <g id="patch_5">
    <path d="M 70.954688 297.54825 
L 428.074687 297.54825 
" style="fill: none; stroke: #000000; stroke-width: 0.8; stroke-linejoin: miter; stroke-linecap: square"/>
   </g>
   <g id="patch_6">
    <path d="M 70.954688 31.43625 
L 428.074687 31.43625 
" style="fill: none; stroke: #000000; stroke-width: 0.8; stroke-linejoin: miter; stroke-linecap: square"/>
   </g>
   <g id="text_12">
    <!-- Secular Frequency -->
    <g transform="translate(138.884063 25.43625)scale(0.24 -0.24)">
     <defs>
      <path id="DejaVuSans-53" d="M 3425 4513 
L 3425 3897 
Q 3066 4069 2747 4153 
Q 2428 4238 2131 4238 
Q 1616 4238 1336 4038 
Q 1056 3838 1056 3469 
Q 1056 3159 1242 3001 
Q 1428 2844 1947 2747 
L 2328 2669 
Q 3034 2534 3370 2195 
Q 3706 1856 3706 1288 
Q 3706 609 3251 259 
Q 2797 -91 1919 -91 
Q 1588 -91 1214 -16 
Q 841 59 441 206 
L 441 856 
Q 825 641 1194 531 
Q 1563 422 1919 422 
Q 2459 422 2753 634 
Q 3047 847 3047 1241 
Q 3047 1584 2836 1778 
Q 2625 1972 2144 2069 
L 1759 2144 
Q 1053 2284 737 2584 
Q 422 2884 422 3419 
Q 422 4038 858 4394 
Q 1294 4750 2059 4750 
Q 2388 4750 2728 4690 
Q 3069 4631 3425 4513 
z
" transform="scale(0.015625)"/>
      <path id="DejaVuSans-65" d="M 3597 1894 
L 3597 1613 
L 953 1613 
Q 991 1019 1311 708 
Q 1631 397 2203 397 
Q 2534 397 2845 478 
Q 3156 559 3463 722 
L 3463 178 
Q 3153 47 2828 -22 
Q 2503 -91 2169 -91 
Q 1331 -91 842 396 
Q 353 884 353 1716 
Q 353 2575 817 3079 
Q 1281 3584 2069 3584 
Q 2775 3584 3186 3129 
Q 3597 2675 3597 1894 
z
M 3022 2063 
Q 3016 2534 2758 2815 
Q 2500 3097 2075 3097 
Q 1594 3097 1305 2825 
Q 1016 2553 972 2059 
L 3022 2063 
z
" transform="scale(0.015625)"/>
      <path id="DejaVuSans-63" d="M 3122 3366 
L 3122 2828 
Q 2878 2963 2633 3030 
Q 2388 3097 2138 3097 
Q 1578 3097 1268 2742 
Q 959 2388 959 1747 
Q 959 1106 1268 751 
Q 1578 397 2138 397 
Q 2388 397 2633 464 
Q 2878 531 3122 666 
L 3122 134 
Q 2881 22 2623 -34 
Q 2366 -91 2075 -91 
Q 1284 -91 818 406 
Q 353 903 353 1747 
Q 353 2603 823 3093 
Q 1294 3584 2113 3584 
Q 2378 3584 2631 3529 
Q 2884 3475 3122 3366 
z
" transform="scale(0.015625)"/>
      <path id="DejaVuSans-75" d="M 544 1381 
L 544 3500 
L 1119 3500 
L 1119 1403 
Q 1119 906 1312 657 
Q 1506 409 1894 409 
Q 2359 409 2629 706 
Q 2900 1003 2900 1516 
L 2900 3500 
L 3475 3500 
L 3475 0 
L 2900 0 
L 2900 538 
Q 2691 219 2414 64 
Q 2138 -91 1772 -91 
Q 1169 -91 856 284 
Q 544 659 544 1381 
z
M 1991 3584 
L 1991 3584 
z
" transform="scale(0.015625)"/>
      <path id="DejaVuSans-6c" d="M 603 4863 
L 1178 4863 
L 1178 0 
L 603 0 
L 603 4863 
z
" transform="scale(0.015625)"/>
      <path id="DejaVuSans-61" d="M 2194 1759 
Q 1497 1759 1228 1600 
Q 959 1441 959 1056 
Q 959 750 1161 570 
Q 1363 391 1709 391 
Q 2188 391 2477 730 
Q 2766 1069 2766 1631 
L 2766 1759 
L 2194 1759 
z
M 3341 1997 
L 3341 0 
L 2766 0 
L 2766 531 
Q 2569 213 2275 61 
Q 1981 -91 1556 -91 
Q 1019 -91 701 211 
Q 384 513 384 1019 
Q 384 1609 779 1909 
Q 1175 2209 1959 2209 
L 2766 2209 
L 2766 2266 
Q 2766 2663 2505 2880 
Q 2244 3097 1772 3097 
Q 1472 3097 1187 3025 
Q 903 2953 641 2809 
L 641 3341 
Q 956 3463 1253 3523 
Q 1550 3584 1831 3584 
Q 2591 3584 2966 3190 
Q 3341 2797 3341 1997 
z
" transform="scale(0.015625)"/>
      <path id="DejaVuSans-72" d="M 2631 2963 
Q 2534 3019 2420 3045 
Q 2306 3072 2169 3072 
Q 1681 3072 1420 2755 
Q 1159 2438 1159 1844 
L 1159 0 
L 581 0 
L 581 3500 
L 1159 3500 
L 1159 2956 
Q 1341 3275 1631 3429 
Q 1922 3584 2338 3584 
Q 2397 3584 2469 3576 
Q 2541 3569 2628 3553 
L 2631 2963 
z
" transform="scale(0.015625)"/>
      <path id="DejaVuSans-46" d="M 628 4666 
L 3309 4666 
L 3309 4134 
L 1259 4134 
L 1259 2759 
L 3109 2759 
L 3109 2228 
L 1259 2228 
L 1259 0 
L 628 0 
L 628 4666 
z
" transform="scale(0.015625)"/>
      <path id="DejaVuSans-71" d="M 947 1747 
Q 947 1113 1208 752 
Q 1469 391 1925 391 
Q 2381 391 2643 752 
Q 2906 1113 2906 1747 
Q 2906 2381 2643 2742 
Q 2381 3103 1925 3103 
Q 1469 3103 1208 2742 
Q 947 2381 947 1747 
z
M 2906 525 
Q 2725 213 2448 61 
Q 2172 -91 1784 -91 
Q 1150 -91 751 415 
Q 353 922 353 1747 
Q 353 2572 751 3078 
Q 1150 3584 1784 3584 
Q 2172 3584 2448 3432 
Q 2725 3281 2906 2969 
L 2906 3500 
L 3481 3500 
L 3481 -1331 
L 2906 -1331 
L 2906 525 
z
" transform="scale(0.015625)"/>
      <path id="DejaVuSans-6e" d="M 3513 2113 
L 3513 0 
L 2938 0 
L 2938 2094 
Q 2938 2591 2744 2837 
Q 2550 3084 2163 3084 
Q 1697 3084 1428 2787 
Q 1159 2491 1159 1978 
L 1159 0 
L 581 0 
L 581 3500 
L 1159 3500 
L 1159 2956 
Q 1366 3272 1645 3428 
Q 1925 3584 2291 3584 
Q 2894 3584 3203 3211 
Q 3513 2838 3513 2113 
z
" transform="scale(0.015625)"/>
      <path id="DejaVuSans-79" d="M 2059 -325 
Q 1816 -950 1584 -1140 
Q 1353 -1331 966 -1331 
L 506 -1331 
L 506 -850 
L 844 -850 
Q 1081 -850 1212 -737 
Q 1344 -625 1503 -206 
L 1606 56 
L 191 3500 
L 800 3500 
L 1894 763 
L 2988 3500 
L 3597 3500 
L 2059 -325 
z
" transform="scale(0.015625)"/>
     </defs>
     <use xlink:href="#DejaVuSans-53"/>
     <use xlink:href="#DejaVuSans-65" x="63.476562"/>
     <use xlink:href="#DejaVuSans-63" x="125"/>
     <use xlink:href="#DejaVuSans-75" x="179.980469"/>
     <use xlink:href="#DejaVuSans-6c" x="243.359375"/>
     <use xlink:href="#DejaVuSans-61" x="271.142578"/>
     <use xlink:href="#DejaVuSans-72" x="332.421875"/>
     <use xlink:href="#DejaVuSans-20" x="373.535156"/>
     <use xlink:href="#DejaVuSans-46" x="405.322266"/>
     <use xlink:href="#DejaVuSans-72" x="455.591797"/>
     <use xlink:href="#DejaVuSans-65" x="494.455078"/>
     <use xlink:href="#DejaVuSans-71" x="555.978516"/>
     <use xlink:href="#DejaVuSans-75" x="619.455078"/>
     <use xlink:href="#DejaVuSans-65" x="682.833984"/>
     <use xlink:href="#DejaVuSans-6e" x="744.357422"/>
     <use xlink:href="#DejaVuSans-63" x="807.736328"/>
     <use xlink:href="#DejaVuSans-79" x="862.716797"/>
    </g>
   </g>
   <g id="legend_1">
    <g id="patch_7">
     <path d="M 84.954688 106.14875 
L 207.126563 106.14875 
Q 211.126563 106.14875 211.126563 102.14875 
L 211.126563 45.43625 
Q 211.126563 41.43625 207.126563 41.43625 
L 84.954688 41.43625 
Q 80.954688 41.43625 80.954688 45.43625 
L 80.954688 102.14875 
Q 80.954688 106.14875 84.954688 106.14875 
z
" style="fill: #ffffff; opacity: 0.8; stroke: #cccccc; stroke-linejoin: miter"/>
    </g>
    <g id="line2d_21">
     <path d="M 88.954688 57.633125 
L 108.954688 57.633125 
L 128.954688 57.633125 
" style="fill: none; stroke: #1f77b4; stroke-width: 1.5; stroke-linecap: square"/>
    </g>
    <g id="text_13">
     <!-- minor -->
     <g transform="translate(144.954688 64.633125)scale(0.2 -0.2)">
      <defs>
       <path id="DejaVuSans-6d" d="M 3328 2828 
Q 3544 3216 3844 3400 
Q 4144 3584 4550 3584 
Q 5097 3584 5394 3201 
Q 5691 2819 5691 2113 
L 5691 0 
L 5113 0 
L 5113 2094 
Q 5113 2597 4934 2840 
Q 4756 3084 4391 3084 
Q 3944 3084 3684 2787 
Q 3425 2491 3425 1978 
L 3425 0 
L 2847 0 
L 2847 2094 
Q 2847 2600 2669 2842 
Q 2491 3084 2119 3084 
Q 1678 3084 1418 2786 
Q 1159 2488 1159 1978 
L 1159 0 
L 581 0 
L 581 3500 
L 1159 3500 
L 1159 2956 
Q 1356 3278 1631 3431 
Q 1906 3584 2284 3584 
Q 2666 3584 2933 3390 
Q 3200 3197 3328 2828 
z
" transform="scale(0.015625)"/>
       <path id="DejaVuSans-69" d="M 603 3500 
L 1178 3500 
L 1178 0 
L 603 0 
L 603 3500 
z
M 603 4863 
L 1178 4863 
L 1178 4134 
L 603 4134 
L 603 4863 
z
" transform="scale(0.015625)"/>
       <path id="DejaVuSans-6f" d="M 1959 3097 
Q 1497 3097 1228 2736 
Q 959 2375 959 1747 
Q 959 1119 1226 758 
Q 1494 397 1959 397 
Q 2419 397 2687 759 
Q 2956 1122 2956 1747 
Q 2956 2369 2687 2733 
Q 2419 3097 1959 3097 
z
M 1959 3584 
Q 2709 3584 3137 3096 
Q 3566 2609 3566 1747 
Q 3566 888 3137 398 
Q 2709 -91 1959 -91 
Q 1206 -91 779 398 
Q 353 888 353 1747 
Q 353 2609 779 3096 
Q 1206 3584 1959 3584 
z
" transform="scale(0.015625)"/>
      </defs>
      <use xlink:href="#DejaVuSans-6d"/>
      <use xlink:href="#DejaVuSans-69" x="97.412109"/>
      <use xlink:href="#DejaVuSans-6e" x="125.195312"/>
      <use xlink:href="#DejaVuSans-6f" x="188.574219"/>
      <use xlink:href="#DejaVuSans-72" x="249.755859"/>
     </g>
    </g>
    <g id="line2d_22">
     <path d="M 88.954688 86.989375 
L 108.954688 86.989375 
L 128.954688 86.989375 
" style="fill: none; stroke: #ff7f0e; stroke-width: 1.5; stroke-linecap: square"/>
    </g>
    <g id="text_14">
     <!-- major -->
     <g transform="translate(144.954688 93.989375)scale(0.2 -0.2)">
      <defs>
       <path id="DejaVuSans-6a" d="M 603 3500 
L 1178 3500 
L 1178 -63 
Q 1178 -731 923 -1031 
Q 669 -1331 103 -1331 
L -116 -1331 
L -116 -844 
L 38 -844 
Q 366 -844 484 -692 
Q 603 -541 603 -63 
L 603 3500 
z
M 603 4863 
L 1178 4863 
L 1178 4134 
L 603 4134 
L 603 4863 
z
" transform="scale(0.015625)"/>
      </defs>
      <use xlink:href="#DejaVuSans-6d"/>
      <use xlink:href="#DejaVuSans-61" x="97.412109"/>
      <use xlink:href="#DejaVuSans-6a" x="158.691406"/>
      <use xlink:href="#DejaVuSans-6f" x="186.474609"/>
      <use xlink:href="#DejaVuSans-72" x="247.65625"/>
     </g>
    </g>
   </g>
  </g>
 </g>
 <defs>
  <clipPath id="p17a5bf9d1e">
   <rect x="70.954688" y="31.43625" width="357.12" height="266.112"/>
  </clipPath>
 </defs>
</svg>
