<?xml version="1.0" encoding="utf-8" standalone="no"?>
<!DOCTYPE svg PUBLIC "-//W3C//DTD SVG 1.1//EN"
  "http://www.w3.org/Graphics/SVG/1.1/DTD/svg11.dtd">
<svg xmlns:xlink="http://www.w3.org/1999/xlink" width="420.96375pt" height="349.665437pt" viewBox="0 0 420.96375 349.665437" xmlns="http://www.w3.org/2000/svg" version="1.1">
 <defs>
  <style type="text/css">*{stroke-linejoin: round; stroke-linecap: butt}</style>
 </defs>
 <g id="figure_1">
  <g id="patch_1">
   <path d="M 0 349.665437 
L 420.96375 349.665437 
L 420.96375 0 
L 0 0 
L 0 349.665437 
z
" style="fill: none"/>
  </g>
  <g id="axes_1">
   <g id="patch_2">
    <path d="M 56.64375 297.54825 
L 413.76375 297.54825 
L 413.76375 31.43625 
L 56.64375 31.43625 
L 56.64375 297.54825 
z
" style="fill: none"/>
   </g>
   <g id="matplotlib.axis_1">
    <g id="xtick_1">
     <g id="line2d_1">
      <path d="M 88.57406 297.54825 
L 88.57406 31.43625 
" clip-path="url(#p14a84bfd63)" style="fill: none; stroke: #b0b0b0; stroke-width: 0.8; stroke-linecap: square"/>
     </g>
     <g id="line2d_2">
      <defs>
       <path id="md39032bed2" d="M 0 0 
L 0 3.5 
" style="stroke: #000000; stroke-width: 0.8"/>
      </defs>
      <g>
       <use xlink:href="#md39032bed2" x="88.57406" y="297.54825" style="stroke: #000000; stroke-width: 0.8"/>
      </g>
     </g>
     <g id="text_1">
      <!-- −3000 -->
      <g transform="translate(63.201794 315.945906)scale(0.15 -0.15)">
       <defs>
        <path id="DejaVuSans-2212" d="M 678 2272 
L 4684 2272 
L 4684 1741 
L 678 1741 
L 678 2272 
z
" transform="scale(0.015625)"/>
        <path id="DejaVuSans-33" d="M 2597 2516 
Q 3050 2419 3304 2112 
Q 3559 1806 3559 1356 
Q 3559 666 3084 287 
Q 2609 -91 1734 -91 
Q 1441 -91 1130 -33 
Q 819 25 488 141 
L 488 750 
Q 750 597 1062 519 
Q 1375 441 1716 441 
Q 2309 441 2620 675 
Q 2931 909 2931 1356 
Q 2931 1769 2642 2001 
Q 2353 2234 1838 2234 
L 1294 2234 
L 1294 2753 
L 1863 2753 
Q 2328 2753 2575 2939 
Q 2822 3125 2822 3475 
Q 2822 3834 2567 4026 
Q 2313 4219 1838 4219 
Q 1578 4219 1281 4162 
Q 984 4106 628 3988 
L 628 4550 
Q 988 4650 1302 4700 
Q 1616 4750 1894 4750 
Q 2613 4750 3031 4423 
Q 3450 4097 3450 3541 
Q 3450 3153 3228 2886 
Q 3006 2619 2597 2516 
z
" transform="scale(0.015625)"/>
        <path id="DejaVuSans-30" d="M 2034 4250 
Q 1547 4250 1301 3770 
Q 1056 3291 1056 2328 
Q 1056 1369 1301 889 
Q 1547 409 2034 409 
Q 2525 409 2770 889 
Q 3016 1369 3016 2328 
Q 3016 3291 2770 3770 
Q 2525 4250 2034 4250 
z
M 2034 4750 
Q 2819 4750 3233 4129 
Q 3647 3509 3647 2328 
Q 3647 1150 3233 529 
Q 2819 -91 2034 -91 
Q 1250 -91 836 529 
Q 422 1150 422 2328 
Q 422 3509 836 4129 
Q 1250 4750 2034 4750 
z
" transform="scale(0.015625)"/>
       </defs>
       <use xlink:href="#DejaVuSans-2212"/>
       <use xlink:href="#DejaVuSans-33" x="83.789062"/>
       <use xlink:href="#DejaVuSans-30" x="147.412109"/>
       <use xlink:href="#DejaVuSans-30" x="211.035156"/>
       <use xlink:href="#DejaVuSans-30" x="274.658203"/>
      </g>
     </g>
    </g>
    <g id="xtick_2">
     <g id="line2d_3">
      <path d="M 159.926707 297.54825 
L 159.926707 31.43625 
" clip-path="url(#p14a84bfd63)" style="fill: none; stroke: #b0b0b0; stroke-width: 0.8; stroke-linecap: square"/>
     </g>
     <g id="line2d_4">
      <g>
       <use xlink:href="#md39032bed2" x="159.926707" y="297.54825" style="stroke: #000000; stroke-width: 0.8"/>
      </g>
     </g>
     <g id="text_2">
      <!-- −2000 -->
      <g transform="translate(134.554441 315.945906)scale(0.15 -0.15)">
       <defs>
        <path id="DejaVuSans-32" d="M 1228 531 
L 3431 531 
L 3431 0 
L 469 0 
L 469 531 
Q 828 903 1448 1529 
Q 2069 2156 2228 2338 
Q 2531 2678 2651 2914 
Q 2772 3150 2772 3378 
Q 2772 3750 2511 3984 
Q 2250 4219 1831 4219 
Q 1534 4219 1204 4116 
Q 875 4013 500 3803 
L 500 4441 
Q 881 4594 1212 4672 
Q 1544 4750 1819 4750 
Q 2544 4750 2975 4387 
Q 3406 4025 3406 3419 
Q 3406 3131 3298 2873 
Q 3191 2616 2906 2266 
Q 2828 2175 2409 1742 
Q 1991 1309 1228 531 
z
" transform="scale(0.015625)"/>
       </defs>
       <use xlink:href="#DejaVuSans-2212"/>
       <use xlink:href="#DejaVuSans-32" x="83.789062"/>
       <use xlink:href="#DejaVuSans-30" x="147.412109"/>
       <use xlink:href="#DejaVuSans-30" x="211.035156"/>
       <use xlink:href="#DejaVuSans-30" x="274.658203"/>
      </g>
     </g>
    </g>
    <g id="xtick_3">
     <g id="line2d_5">
      <path d="M 231.279354 297.54825 
L 231.279354 31.43625 
" clip-path="url(#p14a84bfd63)" style="fill: none; stroke: #b0b0b0; stroke-width: 0.8; stroke-linecap: square"/>
     </g>
     <g id="line2d_6">
      <g>
       <use xlink:href="#md39032bed2" x="231.279354" y="297.54825" style="stroke: #000000; stroke-width: 0.8"/>
      </g>
     </g>
     <g id="text_3">
      <!-- −1000 -->
      <g transform="translate(205.907089 315.945906)scale(0.15 -0.15)">
       <defs>
        <path id="DejaVuSans-31" d="M 794 531 
L 1825 531 
L 1825 4091 
L 703 3866 
L 703 4441 
L 1819 4666 
L 2450 4666 
L 2450 531 
L 3481 531 
L 3481 0 
L 794 0 
L 794 531 
z
" transform="scale(0.015625)"/>
       </defs>
       <use xlink:href="#DejaVuSans-2212"/>
       <use xlink:href="#DejaVuSans-31" x="83.789062"/>
       <use xlink:href="#DejaVuSans-30" x="147.412109"/>
       <use xlink:href="#DejaVuSans-30" x="211.035156"/>
       <use xlink:href="#DejaVuSans-30" x="274.658203"/>
      </g>
     </g>
    </g>
    <g id="xtick_4">
     <g id="line2d_7">
      <path d="M 302.632002 297.54825 
L 302.632002 31.43625 
" clip-path="url(#p14a84bfd63)" style="fill: none; stroke: #b0b0b0; stroke-width: 0.8; stroke-linecap: square"/>
     </g>
     <g id="line2d_8">
      <g>
       <use xlink:href="#md39032bed2" x="302.632002" y="297.54825" style="stroke: #000000; stroke-width: 0.8"/>
      </g>
     </g>
     <g id="text_4">
      <!-- 0 -->
      <g transform="translate(297.860127 315.945906)scale(0.15 -0.15)">
       <use xlink:href="#DejaVuSans-30"/>
      </g>
     </g>
    </g>
    <g id="xtick_5">
     <g id="line2d_9">
      <path d="M 373.984649 297.54825 
L 373.984649 31.43625 
" clip-path="url(#p14a84bfd63)" style="fill: none; stroke: #b0b0b0; stroke-width: 0.8; stroke-linecap: square"/>
     </g>
     <g id="line2d_10">
      <g>
       <use xlink:href="#md39032bed2" x="373.984649" y="297.54825" style="stroke: #000000; stroke-width: 0.8"/>
      </g>
     </g>
     <g id="text_5">
      <!-- 1000 -->
      <g transform="translate(354.897149 315.945906)scale(0.15 -0.15)">
       <use xlink:href="#DejaVuSans-31"/>
       <use xlink:href="#DejaVuSans-30" x="63.623047"/>
       <use xlink:href="#DejaVuSans-30" x="127.246094"/>
       <use xlink:href="#DejaVuSans-30" x="190.869141"/>
      </g>
     </g>
    </g>
    <g id="text_6">
     <!-- X ($\mu m$) -->
     <g transform="translate(201.20375 338.265437)scale(0.2 -0.2)">
      <defs>
       <path id="DejaVuSans-58" d="M 403 4666 
L 1081 4666 
L 2241 2931 
L 3406 4666 
L 4084 4666 
L 2584 2425 
L 4184 0 
L 3506 0 
L 2194 1984 
L 872 0 
L 191 0 
L 1856 2491 
L 403 4666 
z
" transform="scale(0.015625)"/>
       <path id="DejaVuSans-20" transform="scale(0.015625)"/>
       <path id="DejaVuSans-28" d="M 1984 4856 
Q 1566 4138 1362 3434 
Q 1159 2731 1159 2009 
Q 1159 1288 1364 580 
Q 1569 -128 1984 -844 
L 1484 -844 
Q 1016 -109 783 600 
Q 550 1309 550 2009 
Q 550 2706 781 3412 
Q 1013 4119 1484 4856 
L 1984 4856 
z
" transform="scale(0.015625)"/>
       <path id="DejaVuSans-Oblique-3bc" d="M -84 -1331 
L 856 3500 
L 1434 3500 
L 1009 1322 
Q 997 1256 987 1175 
Q 978 1094 978 1013 
Q 978 722 1161 565 
Q 1344 409 1684 409 
Q 2147 409 2431 671 
Q 2716 934 2816 1459 
L 3213 3500 
L 3788 3500 
L 3266 809 
Q 3253 750 3248 706 
Q 3244 663 3244 628 
Q 3244 531 3283 486 
Q 3322 441 3406 441 
Q 3438 441 3492 456 
Q 3547 472 3647 513 
L 3559 50 
Q 3422 -19 3297 -55 
Q 3172 -91 3053 -91 
Q 2847 -91 2730 40 
Q 2613 172 2613 403 
Q 2438 153 2195 31 
Q 1953 -91 1625 -91 
Q 1334 -91 1117 43 
Q 900 178 831 397 
L 494 -1331 
L -84 -1331 
z
" transform="scale(0.015625)"/>
       <path id="DejaVuSans-Oblique-6d" d="M 5747 2113 
L 5338 0 
L 4763 0 
L 5166 2094 
Q 5191 2228 5203 2325 
Q 5216 2422 5216 2491 
Q 5216 2772 5059 2928 
Q 4903 3084 4622 3084 
Q 4203 3084 3875 2770 
Q 3547 2456 3450 1953 
L 3066 0 
L 2491 0 
L 2900 2094 
Q 2925 2209 2937 2307 
Q 2950 2406 2950 2484 
Q 2950 2769 2794 2926 
Q 2638 3084 2363 3084 
Q 1938 3084 1609 2770 
Q 1281 2456 1184 1953 
L 800 0 
L 225 0 
L 909 3500 
L 1484 3500 
L 1375 2956 
Q 1609 3263 1923 3423 
Q 2238 3584 2597 3584 
Q 2978 3584 3223 3384 
Q 3469 3184 3519 2828 
Q 3781 3197 4126 3390 
Q 4472 3584 4856 3584 
Q 5306 3584 5551 3325 
Q 5797 3066 5797 2591 
Q 5797 2488 5784 2364 
Q 5772 2241 5747 2113 
z
" transform="scale(0.015625)"/>
       <path id="DejaVuSans-29" d="M 513 4856 
L 1013 4856 
Q 1481 4119 1714 3412 
Q 1947 2706 1947 2009 
Q 1947 1309 1714 600 
Q 1481 -109 1013 -844 
L 513 -844 
Q 928 -128 1133 580 
Q 1338 1288 1338 2009 
Q 1338 2731 1133 3434 
Q 928 4138 513 4856 
z
" transform="scale(0.015625)"/>
      </defs>
      <use xlink:href="#DejaVuSans-58" transform="translate(0 0.125)"/>
      <use xlink:href="#DejaVuSans-20" transform="translate(68.505859 0.125)"/>
      <use xlink:href="#DejaVuSans-28" transform="translate(100.292969 0.125)"/>
      <use xlink:href="#DejaVuSans-Oblique-3bc" transform="translate(139.306641 0.125)"/>
      <use xlink:href="#DejaVuSans-Oblique-6d" transform="translate(202.929688 0.125)"/>
      <use xlink:href="#DejaVuSans-29" transform="translate(300.341797 0.125)"/>
     </g>
    </g>
   </g>
   <g id="matplotlib.axis_2">
    <g id="ytick_1">
     <g id="line2d_11">
      <path d="M 56.64375 247.856159 
L 413.76375 247.856159 
" clip-path="url(#p14a84bfd63)" style="fill: none; stroke: #b0b0b0; stroke-width: 0.8; stroke-linecap: square"/>
     </g>
     <g id="line2d_12">
      <defs>
       <path id="m6f3f5b6aff" d="M 0 0 
L -3.5 0 
" style="stroke: #000000; stroke-width: 0.8"/>
      </defs>
      <g>
       <use xlink:href="#m6f3f5b6aff" x="56.64375" y="247.856159" style="stroke: #000000; stroke-width: 0.8"/>
      </g>
     </g>
     <g id="text_7">
      <!-- 23 -->
      <g transform="translate(30.55625 253.554987)scale(0.15 -0.15)">
       <use xlink:href="#DejaVuSans-32"/>
       <use xlink:href="#DejaVuSans-33" x="63.623047"/>
      </g>
     </g>
    </g>
    <g id="ytick_2">
     <g id="line2d_13">
      <path d="M 56.64375 191.216172 
L 413.76375 191.216172 
" clip-path="url(#p14a84bfd63)" style="fill: none; stroke: #b0b0b0; stroke-width: 0.8; stroke-linecap: square"/>
     </g>
     <g id="line2d_14">
      <g>
       <use xlink:href="#m6f3f5b6aff" x="56.64375" y="191.216172" style="stroke: #000000; stroke-width: 0.8"/>
      </g>
     </g>
     <g id="text_8">
      <!-- 24 -->
      <g transform="translate(30.55625 196.915)scale(0.15 -0.15)">
       <defs>
        <path id="DejaVuSans-34" d="M 2419 4116 
L 825 1625 
L 2419 1625 
L 2419 4116 
z
M 2253 4666 
L 3047 4666 
L 3047 1625 
L 3713 1625 
L 3713 1100 
L 3047 1100 
L 3047 0 
L 2419 0 
L 2419 1100 
L 313 1100 
L 313 1709 
L 2253 4666 
z
" transform="scale(0.015625)"/>
       </defs>
       <use xlink:href="#DejaVuSans-32"/>
       <use xlink:href="#DejaVuSans-34" x="63.623047"/>
      </g>
     </g>
    </g>
    <g id="ytick_3">
     <g id="line2d_15">
      <path d="M 56.64375 134.576186 
L 413.76375 134.576186 
" clip-path="url(#p14a84bfd63)" style="fill: none; stroke: #b0b0b0; stroke-width: 0.8; stroke-linecap: square"/>
     </g>
     <g id="line2d_16">
      <g>
       <use xlink:href="#m6f3f5b6aff" x="56.64375" y="134.576186" style="stroke: #000000; stroke-width: 0.8"/>
      </g>
     </g>
     <g id="text_9">
      <!-- 25 -->
      <g transform="translate(30.55625 140.275014)scale(0.15 -0.15)">
       <defs>
        <path id="DejaVuSans-35" d="M 691 4666 
L 3169 4666 
L 3169 4134 
L 1269 4134 
L 1269 2991 
Q 1406 3038 1543 3061 
Q 1681 3084 1819 3084 
Q 2600 3084 3056 2656 
Q 3513 2228 3513 1497 
Q 3513 744 3044 326 
Q 2575 -91 1722 -91 
Q 1428 -91 1123 -41 
Q 819 9 494 109 
L 494 744 
Q 775 591 1075 516 
Q 1375 441 1709 441 
Q 2250 441 2565 725 
Q 2881 1009 2881 1497 
Q 2881 1984 2565 2268 
Q 2250 2553 1709 2553 
Q 1456 2553 1204 2497 
Q 953 2441 691 2322 
L 691 4666 
z
" transform="scale(0.015625)"/>
       </defs>
       <use xlink:href="#DejaVuSans-32"/>
       <use xlink:href="#DejaVuSans-35" x="63.623047"/>
      </g>
     </g>
    </g>
    <g id="ytick_4">
     <g id="line2d_17">
      <path d="M 56.64375 77.936199 
L 413.76375 77.936199 
" clip-path="url(#p14a84bfd63)" style="fill: none; stroke: #b0b0b0; stroke-width: 0.8; stroke-linecap: square"/>
     </g>
     <g id="line2d_18">
      <g>
       <use xlink:href="#m6f3f5b6aff" x="56.64375" y="77.936199" style="stroke: #000000; stroke-width: 0.8"/>
      </g>
     </g>
     <g id="text_10">
      <!-- 26 -->
      <g transform="translate(30.55625 83.635027)scale(0.15 -0.15)">
       <defs>
        <path id="DejaVuSans-36" d="M 2113 2584 
Q 1688 2584 1439 2293 
Q 1191 2003 1191 1497 
Q 1191 994 1439 701 
Q 1688 409 2113 409 
Q 2538 409 2786 701 
Q 3034 994 3034 1497 
Q 3034 2003 2786 2293 
Q 2538 2584 2113 2584 
z
M 3366 4563 
L 3366 3988 
Q 3128 4100 2886 4159 
Q 2644 4219 2406 4219 
Q 1781 4219 1451 3797 
Q 1122 3375 1075 2522 
Q 1259 2794 1537 2939 
Q 1816 3084 2150 3084 
Q 2853 3084 3261 2657 
Q 3669 2231 3669 1497 
Q 3669 778 3244 343 
Q 2819 -91 2113 -91 
Q 1303 -91 875 529 
Q 447 1150 447 2328 
Q 447 3434 972 4092 
Q 1497 4750 2381 4750 
Q 2619 4750 2861 4703 
Q 3103 4656 3366 4563 
z
" transform="scale(0.015625)"/>
       </defs>
       <use xlink:href="#DejaVuSans-32"/>
       <use xlink:href="#DejaVuSans-36" x="63.623047"/>
      </g>
     </g>
    </g>
    <g id="text_11">
     <!-- $mm^{-2}$ -->
     <g transform="translate(22.396875 195.09225)rotate(-90)scale(0.2 -0.2)">
      <use xlink:href="#DejaVuSans-Oblique-6d" transform="translate(0 0.765625)"/>
      <use xlink:href="#DejaVuSans-Oblique-6d" transform="translate(97.412109 0.765625)"/>
      <use xlink:href="#DejaVuSans-2212" transform="translate(199.474115 39.046875)scale(0.7)"/>
      <use xlink:href="#DejaVuSans-32" transform="translate(258.126458 39.046875)scale(0.7)"/>
     </g>
    </g>
   </g>
   <g id="line2d_19">
    <path d="M 72.876477 214.791456 
L 73.447298 213.193101 
L 73.661356 212.911153 
L 74.01812 212.26216 
L 75.231115 211.876069 
L 75.587878 211.990735 
L 76.230052 212.177074 
L 76.586815 212.310082 
L 76.872226 212.437774 
L 78.727394 212.452177 
L 79.15551 212.265752 
L 79.726331 212.017576 
L 80.083095 211.742158 
L 80.582563 211.262702 
L 81.367442 210.762582 
L 81.866911 210.346973 
L 82.65179 209.934812 
L 83.293964 209.82371 
L 83.650727 209.891957 
L 85.149133 210.383282 
L 86.861596 211.644929 
L 87.432417 212.195417 
L 87.646475 212.416317 
L 89.144881 214.747654 
L 91.28546 218.903053 
L 92.997924 221.38477 
L 95.209856 223.213074 
L 96.422851 223.438415 
L 98.56343 223.36134 
L 100.632657 223.047002 
L 101.774299 222.649755 
L 103.486763 222.140329 
L 104.414347 221.999493 
L 104.771111 221.946294 
L 105.056521 221.850433 
L 105.341932 221.870951 
L 106.483574 221.803464 
L 107.553864 222.075326 
L 108.481448 222.947858 
L 109.194975 224.134227 
L 109.908501 225.872975 
L 110.550675 228.082811 
L 111.406907 231.943562 
L 112.691254 239.582233 
L 114.903187 253.091385 
L 115.616713 256.203213 
L 116.401592 258.656393 
L 117.043766 260.036752 
L 117.68594 260.777773 
L 118.114056 261.076669 
L 118.827582 261.064717 
L 119.327051 260.858018 
L 120.11193 260.112906 
L 121.110867 258.647989 
L 122.680625 255.940398 
L 123.465504 254.774332 
L 124.892557 253.273518 
L 125.534731 252.810311 
L 127.175842 252.007476 
L 127.818016 251.887979 
L 130.672122 251.672317 
L 131.314295 251.530883 
L 132.099175 251.375244 
L 132.812701 251.243469 
L 135.024633 251.19094 
L 135.952218 251.222236 
L 136.594391 251.233883 
L 138.092797 251.363102 
L 138.877676 251.527527 
L 139.305792 251.603977 
L 139.876613 251.767679 
L 141.731782 251.837262 
L 142.659366 251.789908 
L 147.368641 251.238191 
L 147.796757 251.183685 
L 148.15352 251.166728 
L 149.723278 251.17464 
L 149.937336 251.159259 
L 152.506032 250.615401 
L 153.219558 250.35992 
L 157.714775 248.601697 
L 158.499654 248.293352 
L 160.069412 247.828297 
L 160.925644 247.428607 
L 162.852166 246.197523 
L 166.134387 243.358088 
L 168.560377 240.984431 
L 170.058783 239.901122 
L 172.41342 238.844994 
L 172.912889 238.878526 
L 173.697768 239.190656 
L 174.268589 239.73847 
L 174.910763 240.620654 
L 175.695642 242.238963 
L 176.337816 244.059973 
L 177.550811 248.430355 
L 179.40598 257.177458 
L 184.043902 280.61288 
L 184.757428 283.113287 
L 185.542307 284.968599 
L 185.970423 285.393482 
L 186.255834 285.438969 
L 186.612597 285.223228 
L 187.254771 283.828197 
L 187.682887 282.236084 
L 188.253708 279.227431 
L 188.895882 274.597397 
L 189.823466 265.960837 
L 190.893756 253.310285 
L 194.746799 203.986637 
L 195.745736 195.019099 
L 196.38791 190.96048 
L 196.958731 188.32373 
L 197.74361 186.669739 
L 197.957668 186.690494 
L 198.314431 186.908084 
L 198.671195 187.559559 
L 199.313368 189.199547 
L 201.168537 194.466473 
L 201.810711 195.54185 
L 202.452885 196.182399 
L 202.881001 196.353111 
L 203.808585 196.254444 
L 204.73617 195.635164 
L 206.519986 194.347486 
L 207.090807 194.255188 
L 207.518923 194.360897 
L 208.089744 194.765412 
L 208.731918 195.531931 
L 209.659502 197.059779 
L 211.514671 200.36861 
L 212.941724 202.470107 
L 213.583898 203.280506 
L 214.72554 204.57388 
L 215.510419 205.14726 
L 216.223946 205.393782 
L 217.008825 205.415103 
L 217.579646 205.290476 
L 218.364525 205.136109 
L 218.792641 205.050688 
L 219.220757 204.989739 
L 220.505105 204.998584 
L 221.7181 205.096517 
L 223.573268 205.613821 
L 231.493412 208.767881 
L 233.277229 209.274276 
L 234.13346 209.556918 
L 236.27404 209.838457 
L 238.557324 208.926787 
L 240.341141 207.039101 
L 242.196309 203.783633 
L 243.623362 201.318387 
L 244.265536 200.456455 
L 245.978 198.53976 
L 246.334763 198.275077 
L 247.190995 197.711804 
L 247.833169 197.437853 
L 248.189932 197.34881 
L 248.475342 197.32015 
L 252.18568 197.177145 
L 253.041912 197.397989 
L 254.61167 198.669579 
L 255.539254 199.879818 
L 259.17824 205.051087 
L 259.891766 205.567227 
L 261.461524 205.911138 
L 262.817225 205.789388 
L 263.887514 205.773059 
L 265.742683 205.513054 
L 268.668142 204.804327 
L 270.451958 204.627719 
L 272.307127 204.103154 
L 273.805532 203.751834 
L 275.018527 203.498768 
L 275.660701 203.357606 
L 277.230459 202.837675 
L 278.086691 202.579095 
L 279.014275 202.270436 
L 279.94186 201.809618 
L 281.868381 200.158518 
L 284.151666 198.082517 
L 285.07925 197.684099 
L 285.86413 197.648065 
L 286.363598 197.729835 
L 286.934419 197.95462 
L 287.790651 198.403754 
L 288.789588 199.150644 
L 290.858815 200.996214 
L 292.499926 202.900257 
L 294.783211 205.65083 
L 296.424321 206.463355 
L 299.991954 207.301847 
L 300.990891 207.328671 
L 302.061181 207.183598 
L 304.487171 206.625463 
L 305.200697 206.158804 
L 305.842871 205.477656 
L 306.485045 204.434484 
L 307.055866 203.16486 
L 307.69804 201.213005 
L 308.482919 197.968291 
L 309.267798 193.545088 
L 310.12403 187.420832 
L 312.764078 167.088604 
L 313.548957 163.10334 
L 314.262483 160.574991 
L 314.904657 159.007944 
L 315.832242 157.614153 
L 316.474415 157.05155 
L 317.187942 156.686268 
L 317.901468 156.581117 
L 318.900405 156.713739 
L 321.112337 156.874451 
L 324.465912 156.37294 
L 326.963254 155.309749 
L 328.033544 154.799926 
L 329.960066 154.300905 
L 332.100645 153.910891 
L 333.384993 153.776955 
L 334.883398 153.496838 
L 335.311514 153.33263 
L 345.300885 147.706232 
L 347.298759 146.213482 
L 347.58417 146.044455 
L 348.93987 145.267277 
L 349.439338 144.963097 
L 350.580981 144.090126 
L 355.076198 138.980803 
L 357.002719 138.054293 
L 358.144361 137.964269 
L 359.071946 137.8348 
L 359.928178 137.540736 
L 361.141173 136.738221 
L 362.496873 135.637871 
L 363.995278 134.542448 
L 365.422331 133.226243 
L 366.99209 131.311028 
L 368.419143 129.717732 
L 370.916485 127.156149 
L 371.415954 126.556564 
L 372.058128 125.655557 
L 373.128417 124.17979 
L 375.126291 121.39535 
L 376.053876 119.967298 
L 376.910108 118.542685 
L 382.975083 107.780754 
L 383.97402 106.116632 
L 385.187015 103.712965 
L 386.828126 99.377137 
L 388.397884 94.2908 
L 389.896289 88.549731 
L 391.323342 81.406991 
L 391.751458 78.950049 
L 393.035806 71.007034 
L 396.532086 48.276316 
L 397.316965 44.301841 
L 397.45967 43.825426 
L 397.531023 43.53225 
L 397.531023 43.53225 
" clip-path="url(#p14a84bfd63)" style="fill: none; stroke: #1f77b4; stroke-width: 1.5; stroke-linecap: square"/>
   </g>
   <g id="line2d_20">
    <path d="M 72.876477 231.786581 
L 73.946767 226.306769 
L 75.088409 221.891567 
L 75.659231 220.091902 
L 77.585752 216.550243 
L 78.656042 215.489957 
L 79.583626 215.075523 
L 82.723143 215.452605 
L 85.291838 215.262413 
L 85.791306 215.445698 
L 87.218359 216.318713 
L 87.860533 216.738704 
L 88.716765 217.150259 
L 89.572997 217.353944 
L 90.643286 217.487227 
L 92.569808 218.391308 
L 93.996861 219.419474 
L 95.281209 220.333839 
L 97.921256 221.932594 
L 99.919131 222.271868 
L 100.204541 222.305962 
L 102.05971 222.749738 
L 102.773237 222.965081 
L 103.986232 223.264074 
L 104.771111 223.540939 
L 106.412222 224.859297 
L 107.482511 226.344028 
L 108.909564 228.995092 
L 110.265264 232.42908 
L 113.11937 241.073915 
L 116.33024 249.53731 
L 117.471882 251.885915 
L 118.185408 252.891156 
L 119.112993 253.692445 
L 119.897872 253.993341 
L 121.18222 254.172851 
L 121.895746 254.133107 
L 122.751978 253.929168 
L 124.678499 252.860724 
L 125.24932 252.564722 
L 126.176905 252.174543 
L 127.67531 251.729881 
L 127.960721 251.680621 
L 128.46019 251.503655 
L 131.242943 250.931235 
L 133.098112 250.914176 
L 133.668933 250.845087 
L 136.737097 250.791563 
L 137.165213 250.826613 
L 137.664681 250.85546 
L 138.592265 250.828123 
L 141.089608 250.724748 
L 141.803135 250.827171 
L 143.943714 250.748452 
L 146.012941 250.581311 
L 148.724341 250.444516 
L 149.366515 250.279053 
L 150.151394 250.114684 
L 150.436805 250.068402 
L 154.004437 249.562209 
L 156.002311 249.047935 
L 158.142891 248.594124 
L 159.855354 247.896099 
L 160.354823 247.679327 
L 161.995934 247.146261 
L 163.066224 246.731643 
L 163.494339 246.517187 
L 166.847914 244.846483 
L 168.417672 244.136706 
L 170.201488 243.32141 
L 172.270715 243.229256 
L 172.984242 243.382114 
L 173.412357 243.530199 
L 174.482647 244.036178 
L 175.838347 245.265808 
L 177.122695 246.924407 
L 177.836222 247.992653 
L 181.974675 254.043245 
L 182.616849 254.453606 
L 183.116317 254.520201 
L 183.544433 254.379493 
L 184.25796 253.617805 
L 184.900134 252.484803 
L 185.542307 250.910463 
L 186.469892 248.052367 
L 188.111003 241.769393 
L 191.321872 226.494993 
L 193.676509 214.794068 
L 194.960857 209.533288 
L 195.745736 207.063357 
L 196.744673 205.028303 
L 196.887378 204.852149 
L 197.74361 203.90011 
L 198.457137 203.460654 
L 199.09931 203.31338 
L 199.670132 203.441589 
L 200.240953 203.844304 
L 201.5253 205.422435 
L 203.095059 207.522858 
L 204.022643 208.387772 
L 204.950228 208.962114 
L 206.37728 209.400168 
L 207.44757 209.321167 
L 208.874623 208.620697 
L 210.373029 207.781913 
L 211.22926 207.522941 
L 212.870371 207.371059 
L 214.511482 207.091418 
L 215.867183 206.978253 
L 219.363462 206.932281 
L 219.934283 206.835561 
L 220.64781 206.781201 
L 222.074863 206.863482 
L 223.501916 206.926076 
L 225.143027 206.946999 
L 227.069548 207.36105 
L 228.425249 207.556158 
L 229.352833 207.595281 
L 231.564765 207.883495 
L 232.492349 208.01165 
L 232.920465 208.007377 
L 233.990755 207.883747 
L 234.276166 207.807573 
L 234.989692 207.663244 
L 235.560513 207.53558 
L 237.701093 206.977553 
L 239.056793 206.066482 
L 243.694715 202.073598 
L 245.050415 200.89206 
L 246.620174 200.058031 
L 250.045101 198.869733 
L 250.758627 198.907724 
L 251.329448 199.047907 
L 253.969496 200.125691 
L 255.325197 200.830444 
L 256.75225 201.807035 
L 258.179302 202.678992 
L 262.317756 204.63688 
L 264.743746 204.531448 
L 265.314567 204.445359 
L 265.67133 204.427756 
L 266.670267 204.395109 
L 267.81191 204.289893 
L 270.023842 203.757014 
L 270.880074 203.63693 
L 272.021716 203.582545 
L 273.591474 203.236229 
L 275.517996 202.517236 
L 276.088817 202.367103 
L 277.872633 201.775508 
L 279.727802 200.775197 
L 280.798092 200.318846 
L 281.511618 200.082378 
L 282.724613 199.734843 
L 284.151666 199.312848 
L 285.221956 199.157384 
L 286.078188 199.207424 
L 287.433888 199.4901 
L 289.074999 199.980962 
L 290.502052 200.667387 
L 292.000457 201.592032 
L 293.284805 202.20902 
L 294.640505 202.757055 
L 295.8535 203.344695 
L 297.351906 203.993238 
L 299.34978 203.813366 
L 300.063306 203.611899 
L 300.70548 203.418777 
L 302.489296 202.605209 
L 303.987702 200.956758 
L 304.915286 199.465616 
L 306.270987 196.603985 
L 307.127219 194.264213 
L 308.482919 189.635002 
L 312.264609 175.980756 
L 315.475478 165.194687 
L 316.33171 163.363282 
L 317.187942 161.957962 
L 318.971758 159.709487 
L 319.899342 158.871699 
L 320.541516 158.45027 
L 322.039922 157.833852 
L 322.610743 157.626915 
L 326.606491 155.900722 
L 327.248665 155.740542 
L 328.033544 155.460932 
L 329.032481 155.001198 
L 330.388182 154.441237 
L 332.742819 153.75604 
L 336.667215 152.26112 
L 336.881272 152.202325 
L 337.452094 152.013448 
L 339.021852 151.137299 
L 341.091079 149.940679 
L 341.447842 149.841688 
L 343.517069 148.66215 
L 344.444653 148.001772 
L 344.872769 147.719672 
L 345.586295 147.300688 
L 345.871706 147.15894 
L 346.371175 146.914797 
L 348.154991 145.777362 
L 351.294507 143.125063 
L 355.218903 140.222506 
L 355.361608 140.161108 
L 358.001656 138.441991 
L 359.286004 137.461239 
L 360.356293 136.801238 
L 360.570351 136.716474 
L 360.855762 136.486269 
L 361.355231 136.291841 
L 362.211462 135.793268 
L 365.636389 132.751613 
L 365.707742 132.739763 
L 365.9218 132.54024 
L 366.563974 132.058325 
L 366.920737 131.805858 
L 367.562911 131.247738 
L 368.34779 130.479339 
L 368.633201 130.090026 
L 368.918611 129.77336 
L 372.343538 125.973619 
L 372.557596 125.791994 
L 373.19977 125.003012 
L 373.485181 124.613426 
L 376.69605 120.377038 
L 377.052813 119.878801 
L 377.409576 119.386561 
L 383.331846 110.269417 
L 383.545904 109.782351 
L 383.617256 109.730377 
L 383.97402 108.943475 
L 385.187015 106.492039 
L 385.258367 106.438756 
L 385.686483 105.540222 
L 387.327594 102.143682 
L 387.613005 101.495418 
L 388.112473 100.15486 
L 389.468174 96.37101 
L 390.752521 92.699479 
L 391.394695 90.917507 
L 391.466048 90.23902 
L 391.5374 90.635683 
L 391.965516 89.337412 
L 394.819622 82.233691 
L 394.962327 82.036391 
L 395.247738 81.608459 
L 395.390443 81.615568 
L 395.533149 81.21431 
L 395.604501 81.181739 
L 395.675854 80.860297 
L 395.747207 80.927075 
L 395.818559 81.03005 
L 395.961264 80.790891 
L 396.032617 80.81848 
L 396.175322 80.628873 
L 396.603438 80.592076 
L 396.817496 80.400156 
L 396.888849 80.681125 
L 396.960202 80.520031 
L 397.174259 80.704671 
L 397.388317 80.758655 
L 397.531023 80.954704 
L 397.531023 80.954704 
" clip-path="url(#p14a84bfd63)" style="fill: none; stroke: #ff7f0e; stroke-width: 1.5; stroke-linecap: square"/>
   </g>
   <g id="patch_3">
    <path d="M 56.64375 297.54825 
L 56.64375 31.43625 
" style="fill: none; stroke: #000000; stroke-width: 0.8; stroke-linejoin: miter; stroke-linecap: square"/>
   </g>
   <g id="patch_4">
    <path d="M 413.76375 297.54825 
L 413.76375 31.43625 
" style="fill: none; stroke: #000000; stroke-width: 0.8; stroke-linejoin: miter; stroke-linecap: square"/>
   </g>
   <g id="patch_5">
    <path d="M 56.64375 297.54825 
L 413.76375 297.54825 
" style="fill: none; stroke: #000000; stroke-width: 0.8; stroke-linejoin: miter; stroke-linecap: square"/>
   </g>
   <g id="patch_6">
    <path d="M 56.64375 31.43625 
L 413.76375 31.43625 
" style="fill: none; stroke: #000000; stroke-width: 0.8; stroke-linejoin: miter; stroke-linecap: square"/>
   </g>
   <g id="text_12">
    <!-- RF Field Curvature -->
    <g transform="translate(124.905 25.43625)scale(0.24 -0.24)">
     <defs>
      <path id="DejaVuSans-52" d="M 2841 2188 
Q 3044 2119 3236 1894 
Q 3428 1669 3622 1275 
L 4263 0 
L 3584 0 
L 2988 1197 
Q 2756 1666 2539 1819 
Q 2322 1972 1947 1972 
L 1259 1972 
L 1259 0 
L 628 0 
L 628 4666 
L 2053 4666 
Q 2853 4666 3247 4331 
Q 3641 3997 3641 3322 
Q 3641 2881 3436 2590 
Q 3231 2300 2841 2188 
z
M 1259 4147 
L 1259 2491 
L 2053 2491 
Q 2509 2491 2742 2702 
Q 2975 2913 2975 3322 
Q 2975 3731 2742 3939 
Q 2509 4147 2053 4147 
L 1259 4147 
z
" transform="scale(0.015625)"/>
      <path id="DejaVuSans-46" d="M 628 4666 
L 3309 4666 
L 3309 4134 
L 1259 4134 
L 1259 2759 
L 3109 2759 
L 3109 2228 
L 1259 2228 
L 1259 0 
L 628 0 
L 628 4666 
z
" transform="scale(0.015625)"/>
      <path id="DejaVuSans-69" d="M 603 3500 
L 1178 3500 
L 1178 0 
L 603 0 
L 603 3500 
z
M 603 4863 
L 1178 4863 
L 1178 4134 
L 603 4134 
L 603 4863 
z
" transform="scale(0.015625)"/>
      <path id="DejaVuSans-65" d="M 3597 1894 
L 3597 1613 
L 953 1613 
Q 991 1019 1311 708 
Q 1631 397 2203 397 
Q 2534 397 2845 478 
Q 3156 559 3463 722 
L 3463 178 
Q 3153 47 2828 -22 
Q 2503 -91 2169 -91 
Q 1331 -91 842 396 
Q 353 884 353 1716 
Q 353 2575 817 3079 
Q 1281 3584 2069 3584 
Q 2775 3584 3186 3129 
Q 3597 2675 3597 1894 
z
M 3022 2063 
Q 3016 2534 2758 2815 
Q 2500 3097 2075 3097 
Q 1594 3097 1305 2825 
Q 1016 2553 972 2059 
L 3022 2063 
z
" transform="scale(0.015625)"/>
      <path id="DejaVuSans-6c" d="M 603 4863 
L 1178 4863 
L 1178 0 
L 603 0 
L 603 4863 
z
" transform="scale(0.015625)"/>
      <path id="DejaVuSans-64" d="M 2906 2969 
L 2906 4863 
L 3481 4863 
L 3481 0 
L 2906 0 
L 2906 525 
Q 2725 213 2448 61 
Q 2172 -91 1784 -91 
Q 1150 -91 751 415 
Q 353 922 353 1747 
Q 353 2572 751 3078 
Q 1150 3584 1784 3584 
Q 2172 3584 2448 3432 
Q 2725 3281 2906 2969 
z
M 947 1747 
Q 947 1113 1208 752 
Q 1469 391 1925 391 
Q 2381 391 2643 752 
Q 2906 1113 2906 1747 
Q 2906 2381 2643 2742 
Q 2381 3103 1925 3103 
Q 1469 3103 1208 2742 
Q 947 2381 947 1747 
z
" transform="scale(0.015625)"/>
      <path id="DejaVuSans-43" d="M 4122 4306 
L 4122 3641 
Q 3803 3938 3442 4084 
Q 3081 4231 2675 4231 
Q 1875 4231 1450 3742 
Q 1025 3253 1025 2328 
Q 1025 1406 1450 917 
Q 1875 428 2675 428 
Q 3081 428 3442 575 
Q 3803 722 4122 1019 
L 4122 359 
Q 3791 134 3420 21 
Q 3050 -91 2638 -91 
Q 1578 -91 968 557 
Q 359 1206 359 2328 
Q 359 3453 968 4101 
Q 1578 4750 2638 4750 
Q 3056 4750 3426 4639 
Q 3797 4528 4122 4306 
z
" transform="scale(0.015625)"/>
      <path id="DejaVuSans-75" d="M 544 1381 
L 544 3500 
L 1119 3500 
L 1119 1403 
Q 1119 906 1312 657 
Q 1506 409 1894 409 
Q 2359 409 2629 706 
Q 2900 1003 2900 1516 
L 2900 3500 
L 3475 3500 
L 3475 0 
L 2900 0 
L 2900 538 
Q 2691 219 2414 64 
Q 2138 -91 1772 -91 
Q 1169 -91 856 284 
Q 544 659 544 1381 
z
M 1991 3584 
L 1991 3584 
z
" transform="scale(0.015625)"/>
      <path id="DejaVuSans-72" d="M 2631 2963 
Q 2534 3019 2420 3045 
Q 2306 3072 2169 3072 
Q 1681 3072 1420 2755 
Q 1159 2438 1159 1844 
L 1159 0 
L 581 0 
L 581 3500 
L 1159 3500 
L 1159 2956 
Q 1341 3275 1631 3429 
Q 1922 3584 2338 3584 
Q 2397 3584 2469 3576 
Q 2541 3569 2628 3553 
L 2631 2963 
z
" transform="scale(0.015625)"/>
      <path id="DejaVuSans-76" d="M 191 3500 
L 800 3500 
L 1894 563 
L 2988 3500 
L 3597 3500 
L 2284 0 
L 1503 0 
L 191 3500 
z
" transform="scale(0.015625)"/>
      <path id="DejaVuSans-61" d="M 2194 1759 
Q 1497 1759 1228 1600 
Q 959 1441 959 1056 
Q 959 750 1161 570 
Q 1363 391 1709 391 
Q 2188 391 2477 730 
Q 2766 1069 2766 1631 
L 2766 1759 
L 2194 1759 
z
M 3341 1997 
L 3341 0 
L 2766 0 
L 2766 531 
Q 2569 213 2275 61 
Q 1981 -91 1556 -91 
Q 1019 -91 701 211 
Q 384 513 384 1019 
Q 384 1609 779 1909 
Q 1175 2209 1959 2209 
L 2766 2209 
L 2766 2266 
Q 2766 2663 2505 2880 
Q 2244 3097 1772 3097 
Q 1472 3097 1187 3025 
Q 903 2953 641 2809 
L 641 3341 
Q 956 3463 1253 3523 
Q 1550 3584 1831 3584 
Q 2591 3584 2966 3190 
Q 3341 2797 3341 1997 
z
" transform="scale(0.015625)"/>
      <path id="DejaVuSans-74" d="M 1172 4494 
L 1172 3500 
L 2356 3500 
L 2356 3053 
L 1172 3053 
L 1172 1153 
Q 1172 725 1289 603 
Q 1406 481 1766 481 
L 2356 481 
L 2356 0 
L 1766 0 
Q 1100 0 847 248 
Q 594 497 594 1153 
L 594 3053 
L 172 3053 
L 172 3500 
L 594 3500 
L 594 4494 
L 1172 4494 
z
" transform="scale(0.015625)"/>
     </defs>
     <use xlink:href="#DejaVuSans-52"/>
     <use xlink:href="#DejaVuSans-46" x="69.482422"/>
     <use xlink:href="#DejaVuSans-20" x="127.001953"/>
     <use xlink:href="#DejaVuSans-46" x="158.789062"/>
     <use xlink:href="#DejaVuSans-69" x="209.058594"/>
     <use xlink:href="#DejaVuSans-65" x="236.841797"/>
     <use xlink:href="#DejaVuSans-6c" x="298.365234"/>
     <use xlink:href="#DejaVuSans-64" x="326.148438"/>
     <use xlink:href="#DejaVuSans-20" x="389.625"/>
     <use xlink:href="#DejaVuSans-43" x="421.412109"/>
     <use xlink:href="#DejaVuSans-75" x="491.236328"/>
     <use xlink:href="#DejaVuSans-72" x="554.615234"/>
     <use xlink:href="#DejaVuSans-76" x="595.728516"/>
     <use xlink:href="#DejaVuSans-61" x="654.908203"/>
     <use xlink:href="#DejaVuSans-74" x="716.1875"/>
     <use xlink:href="#DejaVuSans-75" x="755.396484"/>
     <use xlink:href="#DejaVuSans-72" x="818.775391"/>
     <use xlink:href="#DejaVuSans-65" x="857.638672"/>
    </g>
   </g>
   <g id="legend_1">
    <g id="patch_7">
     <path d="M 70.64375 109.1925 
L 172.44375 109.1925 
Q 176.44375 109.1925 176.44375 105.1925 
L 176.44375 45.43625 
Q 176.44375 41.43625 172.44375 41.43625 
L 70.64375 41.43625 
Q 66.64375 41.43625 66.64375 45.43625 
L 66.64375 105.1925 
Q 66.64375 109.1925 70.64375 109.1925 
z
" style="fill: #ffffff; opacity: 0.8; stroke: #cccccc; stroke-linejoin: miter"/>
    </g>
    <g id="line2d_21">
     <path d="M 74.64375 60.63625 
L 94.64375 60.63625 
L 114.64375 60.63625 
" style="fill: none; stroke: #1f77b4; stroke-width: 1.5; stroke-linecap: square"/>
    </g>
    <g id="text_13">
     <!-- $y^2$ -->
     <g transform="translate(130.64375 67.63625)scale(0.2 -0.2)">
      <defs>
       <path id="DejaVuSans-Oblique-79" d="M 1588 -325 
Q 1188 -997 936 -1164 
Q 684 -1331 294 -1331 
L -159 -1331 
L -63 -850 
L 269 -850 
Q 509 -850 678 -719 
Q 847 -588 1056 -206 
L 1234 128 
L 459 3500 
L 1069 3500 
L 1650 819 
L 3256 3500 
L 3859 3500 
L 1588 -325 
z
" transform="scale(0.015625)"/>
      </defs>
      <use xlink:href="#DejaVuSans-Oblique-79" transform="translate(0 0.765625)"/>
      <use xlink:href="#DejaVuSans-32" transform="translate(63.645833 39.046875)scale(0.7)"/>
     </g>
    </g>
    <g id="line2d_22">
     <path d="M 74.64375 90.033125 
L 94.64375 90.033125 
L 114.64375 90.033125 
" style="fill: none; stroke: #ff7f0e; stroke-width: 1.5; stroke-linecap: square"/>
    </g>
    <g id="text_14">
     <!-- $-z^2$ -->
     <g transform="translate(130.64375 97.033125)scale(0.2 -0.2)">
      <defs>
       <path id="DejaVuSans-Oblique-7a" d="M 744 3500 
L 3475 3500 
L 3372 2975 
L 738 459 
L 2913 459 
L 2822 0 
L -19 0 
L 84 525 
L 2719 3041 
L 653 3041 
L 744 3500 
z
" transform="scale(0.015625)"/>
      </defs>
      <use xlink:href="#DejaVuSans-2212" transform="translate(0 0.765625)"/>
      <use xlink:href="#DejaVuSans-Oblique-7a" transform="translate(83.789062 0.765625)"/>
      <use xlink:href="#DejaVuSans-32" transform="translate(140.745443 39.046875)scale(0.7)"/>
     </g>
    </g>
   </g>
  </g>
 </g>
 <defs>
  <clipPath id="p14a84bfd63">
   <rect x="56.64375" y="31.43625" width="357.12" height="266.112"/>
  </clipPath>
 </defs>
</svg>
