<?xml version="1.0" encoding="utf-8" standalone="no"?>
<!DOCTYPE svg PUBLIC "-//W3C//DTD SVG 1.1//EN"
  "http://www.w3.org/Graphics/SVG/1.1/DTD/svg11.dtd">
<svg xmlns:xlink="http://www.w3.org/1999/xlink" width="435.274687pt" height="349.665437pt" viewBox="0 0 435.274687 349.665437" xmlns="http://www.w3.org/2000/svg" version="1.1">
 <defs>
  <style type="text/css">*{stroke-linejoin: round; stroke-linecap: butt}</style>
 </defs>
 <g id="figure_1">
  <g id="patch_1">
   <path d="M 0 349.665437 
L 435.274687 349.665437 
L 435.274687 0 
L 0 0 
L 0 349.665437 
z
" style="fill: none"/>
  </g>
  <g id="axes_1">
   <g id="patch_2">
    <path d="M 70.954688 297.54825 
L 428.074687 297.54825 
L 428.074687 31.43625 
L 70.954688 31.43625 
L 70.954688 297.54825 
z
" style="fill: none"/>
   </g>
   <g id="matplotlib.axis_1">
    <g id="xtick_1">
     <g id="line2d_1">
      <path d="M 102.884997 297.54825 
L 102.884997 31.43625 
" clip-path="url(#p17a5bf9d1e)" style="fill: none; stroke: #b0b0b0; stroke-width: 0.8; stroke-linecap: square"/>
     </g>
     <g id="line2d_2">
      <defs>
       <path id="md39032bed2" d="M 0 0 
L 0 3.5 
" style="stroke: #000000; stroke-width: 0.8"/>
      </defs>
      <g>
       <use xlink:href="#md39032bed2" x="102.884997" y="297.54825" style="stroke: #000000; stroke-width: 0.8"/>
      </g>
     </g>
     <g id="text_1">
      <!-- −3000 -->
      <g transform="translate(77.512732 315.945906)scale(0.15 -0.15)">
       <defs>
        <path id="DejaVuSans-2212" d="M 678 2272 
L 4684 2272 
L 4684 1741 
L 678 1741 
L 678 2272 
z
" transform="scale(0.015625)"/>
        <path id="DejaVuSans-33" d="M 2597 2516 
Q 3050 2419 3304 2112 
Q 3559 1806 3559 1356 
Q 3559 666 3084 287 
Q 2609 -91 1734 -91 
Q 1441 -91 1130 -33 
Q 819 25 488 141 
L 488 750 
Q 750 597 1062 519 
Q 1375 441 1716 441 
Q 2309 441 2620 675 
Q 2931 909 2931 1356 
Q 2931 1769 2642 2001 
Q 2353 2234 1838 2234 
L 1294 2234 
L 1294 2753 
L 1863 2753 
Q 2328 2753 2575 2939 
Q 2822 3125 2822 3475 
Q 2822 3834 2567 4026 
Q 2313 4219 1838 4219 
Q 1578 4219 1281 4162 
Q 984 4106 628 3988 
L 628 4550 
Q 988 4650 1302 4700 
Q 1616 4750 1894 4750 
Q 2613 4750 3031 4423 
Q 3450 4097 3450 3541 
Q 3450 3153 3228 2886 
Q 3006 2619 2597 2516 
z
" transform="scale(0.015625)"/>
        <path id="DejaVuSans-30" d="M 2034 4250 
Q 1547 4250 1301 3770 
Q 1056 3291 1056 2328 
Q 1056 1369 1301 889 
Q 1547 409 2034 409 
Q 2525 409 2770 889 
Q 3016 1369 3016 2328 
Q 3016 3291 2770 3770 
Q 2525 4250 2034 4250 
z
M 2034 4750 
Q 2819 4750 3233 4129 
Q 3647 3509 3647 2328 
Q 3647 1150 3233 529 
Q 2819 -91 2034 -91 
Q 1250 -91 836 529 
Q 422 1150 422 2328 
Q 422 3509 836 4129 
Q 1250 4750 2034 4750 
z
" transform="scale(0.015625)"/>
       </defs>
       <use xlink:href="#DejaVuSans-2212"/>
       <use xlink:href="#DejaVuSans-33" x="83.789062"/>
       <use xlink:href="#DejaVuSans-30" x="147.412109"/>
       <use xlink:href="#DejaVuSans-30" x="211.035156"/>
       <use xlink:href="#DejaVuSans-30" x="274.658203"/>
      </g>
     </g>
    </g>
    <g id="xtick_2">
     <g id="line2d_3">
      <path d="M 174.237645 297.54825 
L 174.237645 31.43625 
" clip-path="url(#p17a5bf9d1e)" style="fill: none; stroke: #b0b0b0; stroke-width: 0.8; stroke-linecap: square"/>
     </g>
     <g id="line2d_4">
      <g>
       <use xlink:href="#md39032bed2" x="174.237645" y="297.54825" style="stroke: #000000; stroke-width: 0.8"/>
      </g>
     </g>
     <g id="text_2">
      <!-- −2000 -->
      <g transform="translate(148.865379 315.945906)scale(0.15 -0.15)">
       <defs>
        <path id="DejaVuSans-32" d="M 1228 531 
L 3431 531 
L 3431 0 
L 469 0 
L 469 531 
Q 828 903 1448 1529 
Q 2069 2156 2228 2338 
Q 2531 2678 2651 2914 
Q 2772 3150 2772 3378 
Q 2772 3750 2511 3984 
Q 2250 4219 1831 4219 
Q 1534 4219 1204 4116 
Q 875 4013 500 3803 
L 500 4441 
Q 881 4594 1212 4672 
Q 1544 4750 1819 4750 
Q 2544 4750 2975 4387 
Q 3406 4025 3406 3419 
Q 3406 3131 3298 2873 
Q 3191 2616 2906 2266 
Q 2828 2175 2409 1742 
Q 1991 1309 1228 531 
z
" transform="scale(0.015625)"/>
       </defs>
       <use xlink:href="#DejaVuSans-2212"/>
       <use xlink:href="#DejaVuSans-32" x="83.789062"/>
       <use xlink:href="#DejaVuSans-30" x="147.412109"/>
       <use xlink:href="#DejaVuSans-30" x="211.035156"/>
       <use xlink:href="#DejaVuSans-30" x="274.658203"/>
      </g>
     </g>
    </g>
    <g id="xtick_3">
     <g id="line2d_5">
      <path d="M 245.590292 297.54825 
L 245.590292 31.43625 
" clip-path="url(#p17a5bf9d1e)" style="fill: none; stroke: #b0b0b0; stroke-width: 0.8; stroke-linecap: square"/>
     </g>
     <g id="line2d_6">
      <g>
       <use xlink:href="#md39032bed2" x="245.590292" y="297.54825" style="stroke: #000000; stroke-width: 0.8"/>
      </g>
     </g>
     <g id="text_3">
      <!-- −1000 -->
      <g transform="translate(220.218026 315.945906)scale(0.15 -0.15)">
       <defs>
        <path id="DejaVuSans-31" d="M 794 531 
L 1825 531 
L 1825 4091 
L 703 3866 
L 703 4441 
L 1819 4666 
L 2450 4666 
L 2450 531 
L 3481 531 
L 3481 0 
L 794 0 
L 794 531 
z
" transform="scale(0.015625)"/>
       </defs>
       <use xlink:href="#DejaVuSans-2212"/>
       <use xlink:href="#DejaVuSans-31" x="83.789062"/>
       <use xlink:href="#DejaVuSans-30" x="147.412109"/>
       <use xlink:href="#DejaVuSans-30" x="211.035156"/>
       <use xlink:href="#DejaVuSans-30" x="274.658203"/>
      </g>
     </g>
    </g>
    <g id="xtick_4">
     <g id="line2d_7">
      <path d="M 316.942939 297.54825 
L 316.942939 31.43625 
" clip-path="url(#p17a5bf9d1e)" style="fill: none; stroke: #b0b0b0; stroke-width: 0.8; stroke-linecap: square"/>
     </g>
     <g id="line2d_8">
      <g>
       <use xlink:href="#md39032bed2" x="316.942939" y="297.54825" style="stroke: #000000; stroke-width: 0.8"/>
      </g>
     </g>
     <g id="text_4">
      <!-- 0 -->
      <g transform="translate(312.171064 315.945906)scale(0.15 -0.15)">
       <use xlink:href="#DejaVuSans-30"/>
      </g>
     </g>
    </g>
    <g id="xtick_5">
     <g id="line2d_9">
      <path d="M 388.295587 297.54825 
L 388.295587 31.43625 
" clip-path="url(#p17a5bf9d1e)" style="fill: none; stroke: #b0b0b0; stroke-width: 0.8; stroke-linecap: square"/>
     </g>
     <g id="line2d_10">
      <g>
       <use xlink:href="#md39032bed2" x="388.295587" y="297.54825" style="stroke: #000000; stroke-width: 0.8"/>
      </g>
     </g>
     <g id="text_5">
      <!-- 1000 -->
      <g transform="translate(369.208087 315.945906)scale(0.15 -0.15)">
       <use xlink:href="#DejaVuSans-31"/>
       <use xlink:href="#DejaVuSans-30" x="63.623047"/>
       <use xlink:href="#DejaVuSans-30" x="127.246094"/>
       <use xlink:href="#DejaVuSans-30" x="190.869141"/>
      </g>
     </g>
    </g>
    <g id="text_6">
     <!-- X ($\mu m$) -->
     <g transform="translate(215.514688 338.265437)scale(0.2 -0.2)">
      <defs>
       <path id="DejaVuSans-58" d="M 403 4666 
L 1081 4666 
L 2241 2931 
L 3406 4666 
L 4084 4666 
L 2584 2425 
L 4184 0 
L 3506 0 
L 2194 1984 
L 872 0 
L 191 0 
L 1856 2491 
L 403 4666 
z
" transform="scale(0.015625)"/>
       <path id="DejaVuSans-20" transform="scale(0.015625)"/>
       <path id="DejaVuSans-28" d="M 1984 4856 
Q 1566 4138 1362 3434 
Q 1159 2731 1159 2009 
Q 1159 1288 1364 580 
Q 1569 -128 1984 -844 
L 1484 -844 
Q 1016 -109 783 600 
Q 550 1309 550 2009 
Q 550 2706 781 3412 
Q 1013 4119 1484 4856 
L 1984 4856 
z
" transform="scale(0.015625)"/>
       <path id="DejaVuSans-Oblique-3bc" d="M -84 -1331 
L 856 3500 
L 1434 3500 
L 1009 1322 
Q 997 1256 987 1175 
Q 978 1094 978 1013 
Q 978 722 1161 565 
Q 1344 409 1684 409 
Q 2147 409 2431 671 
Q 2716 934 2816 1459 
L 3213 3500 
L 3788 3500 
L 3266 809 
Q 3253 750 3248 706 
Q 3244 663 3244 628 
Q 3244 531 3283 486 
Q 3322 441 3406 441 
Q 3438 441 3492 456 
Q 3547 472 3647 513 
L 3559 50 
Q 3422 -19 3297 -55 
Q 3172 -91 3053 -91 
Q 2847 -91 2730 40 
Q 2613 172 2613 403 
Q 2438 153 2195 31 
Q 1953 -91 1625 -91 
Q 1334 -91 1117 43 
Q 900 178 831 397 
L 494 -1331 
L -84 -1331 
z
" transform="scale(0.015625)"/>
       <path id="DejaVuSans-Oblique-6d" d="M 5747 2113 
L 5338 0 
L 4763 0 
L 5166 2094 
Q 5191 2228 5203 2325 
Q 5216 2422 5216 2491 
Q 5216 2772 5059 2928 
Q 4903 3084 4622 3084 
Q 4203 3084 3875 2770 
Q 3547 2456 3450 1953 
L 3066 0 
L 2491 0 
L 2900 2094 
Q 2925 2209 2937 2307 
Q 2950 2406 2950 2484 
Q 2950 2769 2794 2926 
Q 2638 3084 2363 3084 
Q 1938 3084 1609 2770 
Q 1281 2456 1184 1953 
L 800 0 
L 225 0 
L 909 3500 
L 1484 3500 
L 1375 2956 
Q 1609 3263 1923 3423 
Q 2238 3584 2597 3584 
Q 2978 3584 3223 3384 
Q 3469 3184 3519 2828 
Q 3781 3197 4126 3390 
Q 4472 3584 4856 3584 
Q 5306 3584 5551 3325 
Q 5797 3066 5797 2591 
Q 5797 2488 5784 2364 
Q 5772 2241 5747 2113 
z
" transform="scale(0.015625)"/>
       <path id="DejaVuSans-29" d="M 513 4856 
L 1013 4856 
Q 1481 4119 1714 3412 
Q 1947 2706 1947 2009 
Q 1947 1309 1714 600 
Q 1481 -109 1013 -844 
L 513 -844 
Q 928 -128 1133 580 
Q 1338 1288 1338 2009 
Q 1338 2731 1133 3434 
Q 928 4138 513 4856 
z
" transform="scale(0.015625)"/>
      </defs>
      <use xlink:href="#DejaVuSans-58" transform="translate(0 0.125)"/>
      <use xlink:href="#DejaVuSans-20" transform="translate(68.505859 0.125)"/>
      <use xlink:href="#DejaVuSans-28" transform="translate(100.292969 0.125)"/>
      <use xlink:href="#DejaVuSans-Oblique-3bc" transform="translate(139.306641 0.125)"/>
      <use xlink:href="#DejaVuSans-Oblique-6d" transform="translate(202.929688 0.125)"/>
      <use xlink:href="#DejaVuSans-29" transform="translate(300.341797 0.125)"/>
     </g>
    </g>
   </g>
   <g id="matplotlib.axis_2">
    <g id="ytick_1">
     <g id="line2d_11">
      <path d="M 70.954688 255.888122 
L 428.074687 255.888122 
" clip-path="url(#p17a5bf9d1e)" style="fill: none; stroke: #b0b0b0; stroke-width: 0.8; stroke-linecap: square"/>
     </g>
     <g id="line2d_12">
      <defs>
       <path id="m6f3f5b6aff" d="M 0 0 
L -3.5 0 
" style="stroke: #000000; stroke-width: 0.8"/>
      </defs>
      <g>
       <use xlink:href="#m6f3f5b6aff" x="70.954688" y="255.888122" style="stroke: #000000; stroke-width: 0.8"/>
      </g>
     </g>
     <g id="text_7">
      <!-- 10.0 -->
      <g transform="translate(30.55625 261.58695)scale(0.15 -0.15)">
       <defs>
        <path id="DejaVuSans-2e" d="M 684 794 
L 1344 794 
L 1344 0 
L 684 0 
L 684 794 
z
" transform="scale(0.015625)"/>
       </defs>
       <use xlink:href="#DejaVuSans-31"/>
       <use xlink:href="#DejaVuSans-30" x="63.623047"/>
       <use xlink:href="#DejaVuSans-2e" x="127.246094"/>
       <use xlink:href="#DejaVuSans-30" x="159.033203"/>
      </g>
     </g>
    </g>
    <g id="ytick_2">
     <g id="line2d_13">
      <path d="M 70.954688 191.194539 
L 428.074687 191.194539 
" clip-path="url(#p17a5bf9d1e)" style="fill: none; stroke: #b0b0b0; stroke-width: 0.8; stroke-linecap: square"/>
     </g>
     <g id="line2d_14">
      <g>
       <use xlink:href="#m6f3f5b6aff" x="70.954688" y="191.194539" style="stroke: #000000; stroke-width: 0.8"/>
      </g>
     </g>
     <g id="text_8">
      <!-- 10.5 -->
      <g transform="translate(30.55625 196.893367)scale(0.15 -0.15)">
       <defs>
        <path id="DejaVuSans-35" d="M 691 4666 
L 3169 4666 
L 3169 4134 
L 1269 4134 
L 1269 2991 
Q 1406 3038 1543 3061 
Q 1681 3084 1819 3084 
Q 2600 3084 3056 2656 
Q 3513 2228 3513 1497 
Q 3513 744 3044 326 
Q 2575 -91 1722 -91 
Q 1428 -91 1123 -41 
Q 819 9 494 109 
L 494 744 
Q 775 591 1075 516 
Q 1375 441 1709 441 
Q 2250 441 2565 725 
Q 2881 1009 2881 1497 
Q 2881 1984 2565 2268 
Q 2250 2553 1709 2553 
Q 1456 2553 1204 2497 
Q 953 2441 691 2322 
L 691 4666 
z
" transform="scale(0.015625)"/>
       </defs>
       <use xlink:href="#DejaVuSans-31"/>
       <use xlink:href="#DejaVuSans-30" x="63.623047"/>
       <use xlink:href="#DejaVuSans-2e" x="127.246094"/>
       <use xlink:href="#DejaVuSans-35" x="159.033203"/>
      </g>
     </g>
    </g>
    <g id="ytick_3">
     <g id="line2d_15">
      <path d="M 70.954688 126.500956 
L 428.074687 126.500956 
" clip-path="url(#p17a5bf9d1e)" style="fill: none; stroke: #b0b0b0; stroke-width: 0.8; stroke-linecap: square"/>
     </g>
     <g id="line2d_16">
      <g>
       <use xlink:href="#m6f3f5b6aff" x="70.954688" y="126.500956" style="stroke: #000000; stroke-width: 0.8"/>
      </g>
     </g>
     <g id="text_9">
      <!-- 11.0 -->
      <g transform="translate(30.55625 132.199784)scale(0.15 -0.15)">
       <use xlink:href="#DejaVuSans-31"/>
       <use xlink:href="#DejaVuSans-31" x="63.623047"/>
       <use xlink:href="#DejaVuSans-2e" x="127.246094"/>
       <use xlink:href="#DejaVuSans-30" x="159.033203"/>
      </g>
     </g>
    </g>
    <g id="ytick_4">
     <g id="line2d_17">
      <path d="M 70.954688 61.807372 
L 428.074687 61.807372 
" clip-path="url(#p17a5bf9d1e)" style="fill: none; stroke: #b0b0b0; stroke-width: 0.8; stroke-linecap: square"/>
     </g>
     <g id="line2d_18">
      <g>
       <use xlink:href="#m6f3f5b6aff" x="70.954688" y="61.807372" style="stroke: #000000; stroke-width: 0.8"/>
      </g>
     </g>
     <g id="text_10">
      <!-- 11.5 -->
      <g transform="translate(30.55625 67.506201)scale(0.15 -0.15)">
       <use xlink:href="#DejaVuSans-31"/>
       <use xlink:href="#DejaVuSans-31" x="63.623047"/>
       <use xlink:href="#DejaVuSans-2e" x="127.246094"/>
       <use xlink:href="#DejaVuSans-35" x="159.033203"/>
      </g>
     </g>
    </g>
    <g id="text_11">
     <!-- $kHz/V$ -->
     <g transform="translate(22.396875 193.29225)rotate(-90)scale(0.2 -0.2)">
      <defs>
       <path id="DejaVuSans-Oblique-6b" d="M 1172 4863 
L 1747 4863 
L 1197 2028 
L 3169 3500 
L 3916 3500 
L 1716 1825 
L 3322 0 
L 2625 0 
L 1131 1709 
L 800 0 
L 225 0 
L 1172 4863 
z
" transform="scale(0.015625)"/>
       <path id="DejaVuSans-Oblique-48" d="M 1081 4666 
L 1716 4666 
L 1344 2753 
L 3634 2753 
L 4006 4666 
L 4641 4666 
L 3731 0 
L 3097 0 
L 3531 2222 
L 1241 2222 
L 806 0 
L 172 0 
L 1081 4666 
z
" transform="scale(0.015625)"/>
       <path id="DejaVuSans-Oblique-7a" d="M 744 3500 
L 3475 3500 
L 3372 2975 
L 738 459 
L 2913 459 
L 2822 0 
L -19 0 
L 84 525 
L 2719 3041 
L 653 3041 
L 744 3500 
z
" transform="scale(0.015625)"/>
       <path id="DejaVuSans-2f" d="M 1625 4666 
L 2156 4666 
L 531 -594 
L 0 -594 
L 1625 4666 
z
" transform="scale(0.015625)"/>
       <path id="DejaVuSans-Oblique-56" d="M 1319 0 
L 500 4666 
L 1119 4666 
L 1797 653 
L 4063 4666 
L 4750 4666 
L 2053 0 
L 1319 0 
z
" transform="scale(0.015625)"/>
      </defs>
      <use xlink:href="#DejaVuSans-Oblique-6b" transform="translate(0 0.015625)"/>
      <use xlink:href="#DejaVuSans-Oblique-48" transform="translate(57.910156 0.015625)"/>
      <use xlink:href="#DejaVuSans-Oblique-7a" transform="translate(133.105469 0.015625)"/>
      <use xlink:href="#DejaVuSans-2f" transform="translate(185.595703 0.015625)"/>
      <use xlink:href="#DejaVuSans-Oblique-56" transform="translate(219.287109 0.015625)"/>
     </g>
    </g>
   </g>
   <g id="line2d_19">
    <path d="M 87.187415 233.105481 
L 88.828526 225.280176 
L 89.898815 221.729411 
L 90.112873 221.19262 
L 90.326931 220.628578 
L 90.612342 220.038504 
L 90.683694 220.186978 
L 90.897752 219.479796 
L 91.468574 218.442622 
L 92.110747 217.744328 
L 92.396158 217.335565 
L 93.109685 216.794352 
L 93.823211 216.292635 
L 93.894564 216.537076 
L 93.965916 216.433813 
L 94.037269 216.513792 
L 94.179974 216.349291 
L 94.251327 216.343929 
L 94.32268 216.498975 
L 94.394032 216.428566 
L 94.465385 216.37684 
L 94.679443 216.528697 
L 94.893501 216.55372 
L 95.107559 216.371057 
L 95.250264 216.620411 
L 95.392969 216.568523 
L 95.535675 216.655303 
L 95.607027 216.542416 
L 95.821085 216.696532 
L 95.96379 216.730094 
L 96.891375 216.859 
L 96.962727 216.701245 
L 97.03408 216.747619 
L 97.390843 216.86791 
L 97.533549 216.605109 
L 99.317365 216.474266 
L 99.46007 216.565088 
L 99.674128 216.55839 
L 99.745481 216.555434 
L 99.959539 216.762001 
L 100.102244 216.682668 
L 100.387655 216.862169 
L 100.459007 216.814052 
L 100.601712 217.074967 
L 100.744418 217.060659 
L 100.887123 217.192795 
L 101.386592 217.495001 
L 101.457944 217.630503 
L 101.529297 217.590515 
L 101.743355 217.764871 
L 101.957413 218.066553 
L 102.100118 217.961647 
L 102.314176 218.175521 
L 102.599587 218.322013 
L 102.742292 218.307652 
L 103.384466 218.633617 
L 103.527171 218.654118 
L 103.741229 218.814568 
L 104.02664 218.60222 
L 104.169345 218.764559 
L 104.454755 218.737032 
L 104.668813 218.852605 
L 105.025577 219.009891 
L 105.168282 218.813143 
L 107.736977 222.352755 
L 108.236446 222.772365 
L 108.307798 222.7121 
L 108.521856 222.978866 
L 108.664562 222.99237 
L 108.807267 223.298997 
L 108.87862 223.104647 
L 109.092678 223.454827 
L 109.16403 223.47295 
L 109.378088 223.666827 
L 109.520793 223.652745 
L 111.161904 223.875755 
L 111.30461 224.076503 
L 111.375962 224.061472 
L 111.518668 223.793042 
L 111.875431 223.948801 
L 112.089489 223.852191 
L 112.303547 223.878334 
L 112.731663 223.825902 
L 113.017073 223.812665 
L 113.231131 223.749187 
L 113.373836 223.805868 
L 113.7306 223.707166 
L 113.873305 223.868845 
L 114.087363 223.627873 
L 114.301421 223.652662 
L 114.444126 223.634547 
L 114.586831 223.737443 
L 114.658184 223.63479 
L 114.729537 223.719869 
L 114.800889 223.770111 
L 114.872242 223.656781 
L 114.943595 223.744889 
L 115.014947 223.845907 
L 115.0863 223.746173 
L 115.157653 223.804396 
L 115.728474 223.990664 
L 115.942532 224.070481 
L 116.085237 224.007495 
L 116.227942 224.073477 
L 116.299295 224.052022 
L 116.513353 224.314239 
L 116.584705 224.171902 
L 116.656058 224.238781 
L 117.084174 224.337495 
L 118.297169 224.663904 
L 118.439874 224.666368 
L 118.939343 224.714189 
L 119.082048 224.994195 
L 119.224753 225.000337 
L 119.367459 225.108027 
L 119.438811 225.040794 
L 119.795575 225.336649 
L 120.009633 225.513229 
L 120.080985 225.659122 
L 120.152338 225.600639 
L 121.436686 227.238402 
L 121.508038 227.008652 
L 121.650743 227.484728 
L 121.793449 227.650152 
L 122.007507 228.079544 
L 122.078859 228.08536 
L 123.577265 231.125881 
L 124.79026 234.317163 
L 127.287603 241.838188 
L 129.285477 253.864901 
L 130.213061 257.59472 
L 130.71253 259.111873 
L 131.426056 260.588471 
L 131.782819 260.792446 
L 131.996877 261.175061 
L 132.424993 261.454892 
L 132.567698 261.355249 
L 132.995814 261.346817 
L 133.352578 261.322992 
L 133.495283 261.361355 
L 134.49422 260.349036 
L 134.708278 259.988517 
L 134.779631 259.96489 
L 135.207746 259.308552 
L 137.205621 255.927589 
L 137.419679 255.512752 
L 137.562384 255.397837 
L 137.919147 254.86437 
L 138.061852 254.780458 
L 138.418616 254.37485 
L 138.704026 254.301607 
L 139.203495 253.939372 
L 142.200306 252.907897 
L 142.414364 252.888243 
L 142.557069 252.733594 
L 142.699774 252.867881 
L 142.84248 252.675086 
L 143.912769 252.297737 
L 144.055475 252.340305 
L 144.412238 252.208177 
L 144.554943 252.199083 
L 144.840354 252.195812 
L 145.26847 252.198412 
L 145.339822 252.23969 
L 145.482528 252.133457 
L 145.625233 252.264803 
L 145.767938 252.071545 
L 145.910644 252.167541 
L 147.551754 252.132114 
L 147.908518 252.041362 
L 148.051223 252.091248 
L 148.265281 252.031659 
L 148.407986 252.055282 
L 148.622044 251.959636 
L 149.05016 251.889248 
L 149.620981 251.869887 
L 150.548566 251.901398 
L 150.691271 251.987653 
L 150.905329 251.947511 
L 151.333445 252.016097 
L 151.47615 251.941323 
L 151.547503 251.951512 
L 151.761561 252.183205 
L 151.975619 251.981258 
L 152.046971 252.103801 
L 152.118324 252.054547 
L 152.689145 252.074081 
L 152.903203 252.033324 
L 154.116198 251.980055 
L 154.544314 252.087544 
L 154.687019 252.344331 
L 154.901077 252.239938 
L 155.115135 252.121939 
L 155.329193 252.191314 
L 155.614604 252.130168 
L 156.827599 252.110976 
L 156.970304 252.195829 
L 157.39842 252.003028 
L 157.612478 251.999206 
L 157.897888 252.055205 
L 158.040594 251.991111 
L 161.822284 251.68578 
L 161.893637 251.881263 
L 161.964989 251.642347 
L 162.036342 251.681769 
L 162.179047 251.634364 
L 162.321752 251.809365 
L 162.464458 251.701246 
L 162.678516 251.635689 
L 162.821221 251.659098 
L 162.963926 251.567765 
L 163.035279 251.641135 
L 163.106632 251.57167 
L 164.248274 251.455967 
L 164.319627 251.61741 
L 164.533685 251.395156 
L 164.67639 251.419628 
L 164.819095 251.45746 
L 165.033153 251.358203 
L 165.175858 251.231991 
L 166.03209 251.195174 
L 166.174795 251.100556 
L 166.246148 251.057011 
L 166.388853 251.142275 
L 166.745617 251.063796 
L 166.816969 251.098029 
L 166.888322 250.980711 
L 167.031027 251.0442 
L 167.245085 250.872272 
L 167.38779 251.03658 
L 167.459143 251.07544 
L 167.673201 250.887381 
L 169.385665 250.310295 
L 169.457017 250.166466 
L 169.52837 250.383737 
L 169.599722 250.144563 
L 169.671075 250.285549 
L 169.81378 250.334252 
L 170.099191 250.21529 
L 170.241896 250.281854 
L 170.455954 250.13355 
L 170.741365 250.120052 
L 171.597597 250.022568 
L 171.740302 249.896024 
L 171.95436 249.880809 
L 172.025712 249.760397 
L 172.097065 249.96006 
L 172.168418 249.648027 
L 172.23977 249.696799 
L 172.382476 249.64367 
L 172.525181 249.78013 
L 174.38035 248.932651 
L 174.523055 248.663074 
L 174.594408 248.85092 
L 174.66576 248.6526 
L 174.737113 248.725784 
L 174.879818 248.720444 
L 176.306871 248.271638 
L 176.449577 248.171815 
L 176.592282 248.193024 
L 176.949045 248.024494 
L 177.020398 248.004931 
L 177.09175 247.859985 
L 177.163103 248.046726 
L 177.234456 247.729615 
L 177.305808 247.761682 
L 177.448514 247.679781 
L 177.591219 247.785896 
L 179.446388 246.72712 
L 179.660446 246.376488 
L 179.731798 246.538522 
L 179.803151 246.459789 
L 180.017209 246.400558 
L 182.157788 245.381439 
L 182.229141 245.53264 
L 182.443199 245.22287 
L 182.585904 245.139478 
L 182.72861 245.219178 
L 184.512426 244.371695 
L 184.655131 244.21839 
L 184.726484 244.103512 
L 184.869189 244.220018 
L 185.868126 244.169171 
L 186.724358 244.264198 
L 186.867063 244.347806 
L 187.009768 244.316449 
L 187.295179 244.386061 
L 187.366532 244.361372 
L 187.437884 244.53628 
L 187.509237 244.435136 
L 187.794648 244.498878 
L 187.866 244.525127 
L 188.008705 244.746381 
L 189.2217 245.34215 
L 189.435758 245.631162 
L 189.507111 245.541614 
L 189.578464 245.617499 
L 189.863874 245.865934 
L 189.935227 246.126235 
L 190.00658 246.090036 
L 190.434695 246.811583 
L 190.506048 246.541471 
L 190.720106 246.965204 
L 191.933101 248.712182 
L 193.645565 256.892969 
L 198.497545 281.184188 
L 199.639187 284.74703 
L 199.71054 284.67855 
L 200.210008 285.368838 
L 200.994887 285.294702 
L 201.137593 284.66009 
L 201.208945 284.73264 
L 201.423003 284.247303 
L 201.922472 282.579922 
L 202.493293 279.561201 
L 204.063051 266.957914 
L 204.419814 262.784513 
L 208.130152 215.331019 
L 209.200442 210.994627 
L 209.271794 211.041205 
L 210.056674 208.423767 
L 210.7702 206.587951 
L 210.841553 206.645125 
L 210.984258 206.095959 
L 211.055611 206.286798 
L 211.697784 205.159357 
L 211.769137 205.40842 
L 211.84049 205.327805 
L 211.911842 204.995892 
L 212.054548 205.427453 
L 212.197253 205.226883 
L 212.411311 204.759606 
L 212.625369 204.817441 
L 212.839427 204.683144 
L 213.552953 204.573184 
L 213.767011 204.644723 
L 214.337832 204.786352 
L 214.480538 205.055089 
L 214.694596 205.214219 
L 215.265417 205.84381 
L 217.049233 208.245752 
L 217.263291 208.585414 
L 219.189812 210.166452 
L 219.760634 210.401644 
L 220.046044 210.677169 
L 220.117397 210.368925 
L 220.188749 210.536981 
L 221.54445 210.569205 
L 222.686092 210.087961 
L 225.183435 208.746085 
L 226.39643 208.576353 
L 226.539135 208.658034 
L 226.610488 208.499576 
L 226.68184 208.539212 
L 227.395367 208.492 
L 230.677589 208.151968 
L 232.746815 208.214244 
L 235.529569 207.947728 
L 236.742564 208.037218 
L 237.741501 208.082167 
L 238.240969 208.049435 
L 238.597732 208.054459 
L 240.381549 208.249369 
L 240.666959 208.329626 
L 244.44865 208.929872 
L 244.591355 209.091736 
L 244.948118 209.162352 
L 250.085509 210.515542 
L 250.299567 210.418935 
L 250.727683 210.535737 
L 250.870388 210.286018 
L 250.94174 210.349409 
L 251.227151 210.313704 
L 251.940678 210.011419 
L 252.154735 209.904866 
L 252.368793 209.818383 
L 252.868262 209.495671 
L 253.08232 209.442551 
L 253.225025 209.127376 
L 253.36773 209.146883 
L 254.580725 207.777885 
L 255.080194 207.002585 
L 256.5786 204.574301 
L 258.362416 202.932176 
L 259.575411 201.925289 
L 259.718116 201.940532 
L 259.932174 201.728635 
L 260.146232 201.567017 
L 260.217585 201.657483 
L 260.431643 201.487263 
L 262.072753 200.822836 
L 262.215459 200.760634 
L 262.500869 200.607642 
L 262.572222 200.662086 
L 262.78628 200.537386 
L 263.571159 200.24209 
L 264.641449 200.071503 
L 267.709613 201.091016 
L 269.136666 201.743102 
L 269.422076 201.885533 
L 269.707487 202.096871 
L 269.850192 202.150597 
L 270.206955 202.399001 
L 271.776713 203.484177 
L 272.704298 204.873017 
L 272.918356 205.070751 
L 273.346472 205.563598 
L 274.202703 206.220574 
L 274.91623 206.483567 
L 275.415698 206.553573 
L 276.700046 206.533194 
L 276.914104 206.415617 
L 277.128162 206.450486 
L 277.270867 206.397645 
L 277.556278 206.468439 
L 277.841688 206.426237 
L 278.483862 206.406062 
L 278.69792 206.386936 
L 279.126036 206.426187 
L 279.340094 206.259559 
L 279.554152 206.272727 
L 279.76821 206.208757 
L 279.910915 206.241713 
L 281.409321 205.756532 
L 281.623379 205.670009 
L 281.766084 205.593635 
L 282.051495 205.526064 
L 282.1942 205.55191 
L 282.408258 205.536102 
L 282.622316 205.480022 
L 282.907726 205.47698 
L 283.407195 205.42618 
L 283.763958 205.417813 
L 284.120721 205.363943 
L 284.762895 205.308296 
L 284.976953 205.250366 
L 285.833185 204.984448 
L 286.189948 204.854685 
L 286.689417 204.78732 
L 286.974827 204.659295 
L 287.474296 204.592738 
L 287.759706 204.485154 
L 288.972701 204.270817 
L 289.115407 204.29308 
L 289.400817 204.13056 
L 289.614875 204.059466 
L 289.757581 204.081632 
L 289.971639 204.024566 
L 290.471107 203.841653 
L 291.612749 203.485211 
L 291.826807 203.372829 
L 291.969513 203.333965 
L 292.183571 203.315541 
L 292.397629 203.253049 
L 292.825744 203.10354 
L 294.752266 202.16436 
L 295.109029 201.875067 
L 296.036614 201.235577 
L 299.604246 200.38665 
L 300.24642 200.414722 
L 301.388062 200.588262 
L 301.673473 200.733309 
L 302.030236 200.750588 
L 302.244294 200.84817 
L 302.743762 200.99389 
L 303.314584 201.170578 
L 304.242168 201.524994 
L 304.384873 201.593159 
L 305.669221 202.389996 
L 306.240042 202.843134 
L 306.810863 203.592863 
L 307.167627 204.03013 
L 307.738448 204.795008 
L 309.308206 206.433759 
L 309.522264 206.533026 
L 309.736322 206.692806 
L 309.95038 206.804071 
L 310.23579 206.91293 
L 311.234727 207.196474 
L 311.734196 207.304259 
L 311.876901 207.207151 
L 312.162312 207.370906 
L 312.37637 207.427699 
L 312.66178 207.52266 
L 312.875838 207.53966 
L 313.232602 207.679522 
L 315.301828 207.91523 
L 315.515886 207.904261 
L 318.369992 207.33905 
L 319.297577 206.895435 
L 319.797045 206.405243 
L 320.581924 205.35041 
L 321.224098 204.08421 
L 321.652214 202.923748 
L 322.651151 199.147233 
L 323.43603 194.964802 
L 325.505257 180.975875 
L 327.289073 174.549665 
L 329.429653 167.211097 
L 330.42859 164.849093 
L 331.356174 163.219614 
L 332.640522 161.440167 
L 333.068638 160.955396 
L 333.853517 160.179317 
L 335.137864 159.307895 
L 338.206028 157.975895 
L 339.918492 157.165953 
L 341.060134 156.835211 
L 341.416897 156.729844 
L 343.129361 156.055614 
L 344.913177 155.310269 
L 349.622452 153.800229 
L 349.907862 153.658157 
L 350.478684 153.394858 
L 351.19221 153.133144 
L 351.548973 153.009414 
L 352.690616 152.433673 
L 353.047379 152.211984 
L 356.04419 150.529037 
L 356.543659 150.29678 
L 358.184769 149.245234 
L 359.54047 148.319414 
L 360.967523 147.572107 
L 361.538344 147.216553 
L 361.823754 147.058058 
L 362.109165 146.878583 
L 363.036749 146.058575 
L 364.107039 145.249913 
L 364.321097 145.143728 
L 366.390324 143.276494 
L 366.533029 143.240579 
L 368.031435 142.007003 
L 371.313657 139.756042 
L 371.385009 139.784063 
L 371.456362 139.534551 
L 371.527714 139.612432 
L 371.95583 139.296361 
L 372.169888 139.126434 
L 372.241241 139.1625 
L 372.312594 138.915791 
L 372.383946 138.96845 
L 373.454236 138.36 
L 374.738584 137.762764 
L 374.881289 137.588388 
L 374.952642 137.801426 
L 375.023994 137.685233 
L 375.238052 137.376231 
L 375.45211 137.425012 
L 375.666168 137.052882 
L 375.880226 136.923366 
L 377.235926 135.921705 
L 377.307279 135.90971 
L 377.449984 135.526507 
L 377.521337 135.590132 
L 377.592689 135.75525 
L 377.949453 135.364722 
L 378.662979 134.81469 
L 379.733269 133.763839 
L 380.161385 133.222333 
L 380.232737 133.34907 
L 380.518148 132.766196 
L 380.946264 132.422009 
L 381.945201 131.48264 
L 382.016554 131.616688 
L 382.087906 131.239566 
L 382.159259 131.407456 
L 382.230612 131.185268 
L 382.301964 131.209606 
L 382.73008 130.616454 
L 382.801433 130.757032 
L 382.872785 130.345798 
L 382.944138 130.47607 
L 383.514959 129.723658 
L 384.299838 128.773916 
L 384.656602 128.453723 
L 384.727954 128.463313 
L 384.799307 128.171693 
L 384.87066 128.192903 
L 385.869597 126.926775 
L 385.940949 127.155216 
L 386.012302 126.816484 
L 386.083655 126.886087 
L 386.369065 126.48762 
L 386.583123 126.291876 
L 387.011239 125.801966 
L 387.796118 124.847321 
L 387.867471 124.590572 
L 387.938823 124.678755 
L 388.295587 124.114162 
L 389.651287 122.225101 
L 389.72264 122.185889 
L 389.865345 121.796029 
L 389.936697 121.941098 
L 390.00805 121.86203 
L 390.079403 121.481751 
L 390.150755 121.604328 
L 390.364813 121.264199 
L 390.436166 121.177363 
L 390.507519 120.901326 
L 390.578871 121.058355 
L 390.935635 120.485495 
L 392.505393 117.965436 
L 392.576745 118.272952 
L 392.648098 118.113419 
L 392.719451 117.525344 
L 392.790803 117.791466 
L 393.076214 117.188225 
L 393.147567 116.806739 
L 393.218919 117.201718 
L 393.432977 116.617038 
L 393.861093 115.912484 
L 394.146504 115.455925 
L 394.57462 114.881625 
L 394.788678 114.433144 
L 395.002735 114.231341 
L 395.145441 113.874252 
L 395.216793 114.08784 
L 395.288146 113.918998 
L 395.359499 113.338474 
L 395.430851 113.648084 
L 395.502204 113.722679 
L 395.644909 113.210708 
L 396.501141 112.027166 
L 396.572494 111.535456 
L 396.643846 111.761825 
L 396.929257 111.14135 
L 397.00061 111.18805 
L 397.071962 110.792388 
L 397.143315 110.810717 
L 397.500078 110.118769 
L 397.785489 109.379775 
L 397.856841 109.683385 
L 398.213605 108.604564 
L 398.284957 108.611132 
L 398.427663 108.122174 
L 398.499015 108.267634 
L 398.713073 107.628107 
L 398.998484 107.064322 
L 399.069836 107.118092 
L 399.283894 106.49504 
L 399.355247 106.51631 
L 399.497952 105.895398 
L 399.569305 105.92749 
L 399.926068 105.054649 
L 399.997421 105.162553 
L 400.068773 104.698875 
L 400.140126 104.790688 
L 400.425537 103.893393 
L 400.496889 104.336398 
L 400.639595 103.135334 
L 400.710947 103.936231 
L 400.853653 103.085641 
L 400.925005 103.153838 
L 401.139063 102.5716 
L 401.353121 102.078184 
L 401.567179 101.469173 
L 401.638532 101.482908 
L 401.781237 101.217196 
L 401.85259 100.531778 
L 401.923942 100.824952 
L 401.995295 100.710206 
L 402.138 99.617358 
L 402.209353 99.94536 
L 403.065585 97.142197 
L 403.136937 97.773402 
L 403.279643 96.393595 
L 403.350995 97.021698 
L 403.707758 95.292108 
L 403.779111 95.6042 
L 403.993169 94.787621 
L 404.27858 93.864175 
L 404.349932 93.87414 
L 404.421285 93.690661 
L 404.492638 92.827831 
L 404.56399 93.160997 
L 404.635343 93.092883 
L 404.778048 92.197006 
L 404.849401 92.19446 
L 405.705633 89.302366 
L 405.776985 90.227752 
L 405.91969 88.383755 
L 405.991043 89.146339 
L 406.062396 88.96022 
L 406.133748 88.074504 
L 406.205101 88.174453 
L 406.490512 86.830574 
L 406.561864 87.11686 
L 406.775922 86.397727 
L 406.847275 86.788986 
L 406.918628 86.011857 
L 406.98998 86.105312 
L 407.061333 85.939122 
L 407.132686 84.949364 
L 407.204038 85.362736 
L 407.275391 85.345747 
L 407.632154 83.909756 
L 407.988917 82.589775 
L 408.06027 84.087439 
L 408.131623 82.489131 
L 408.202975 82.511516 
L 408.345681 81.786212 
L 408.417033 81.957845 
L 408.488386 82.047509 
L 408.559738 80.642607 
L 408.631091 81.840454 
L 408.702444 81.737048 
L 408.773796 78.338292 
L 408.845149 80.185203 
L 408.987854 80.799271 
L 409.13056 80.257231 
L 409.201912 80.471523 
L 409.273265 81.822717 
L 409.41597 79.700736 
L 409.558676 79.66572 
L 409.630028 78.498946 
L 409.701381 80.232287 
L 409.844086 78.234743 
L 409.986791 80.704697 
L 410.129497 78.071426 
L 410.343555 79.606237 
L 410.414907 78.177343 
L 410.48626 79.806578 
L 410.557613 78.459137 
L 410.628965 79.054545 
L 410.700318 77.987125 
L 410.771671 78.091733 
L 410.914376 78.808966 
L 410.985728 80.06099 
L 411.057081 78.156216 
L 411.128434 78.428622 
L 411.199786 79.462159 
L 411.413844 78.062984 
L 411.55655 78.324172 
L 411.627902 78.742754 
L 411.770608 78.047764 
L 411.84196 79.800095 
L 411.84196 79.800095 
" clip-path="url(#p17a5bf9d1e)" style="fill: none; stroke: #1f77b4; stroke-width: 1.5; stroke-linecap: square"/>
   </g>
   <g id="line2d_20">
    <path d="M 87.187415 215.464443 
L 87.472825 214.431943 
L 87.544178 214.364538 
L 87.900941 213.466984 
L 87.972294 213.443194 
L 88.186352 212.987678 
L 88.543115 212.685415 
L 88.614468 212.63663 
L 88.68582 212.763922 
L 88.899878 212.434773 
L 89.042584 212.381813 
L 89.327994 212.272756 
L 89.613405 212.649668 
L 89.684757 212.478254 
L 89.75611 212.57115 
L 89.898815 212.546547 
L 89.970168 212.392883 
L 90.184226 212.631533 
L 90.255579 212.512428 
L 90.469637 212.804093 
L 90.683694 212.648741 
L 90.969105 212.944719 
L 91.896689 213.096267 
L 91.968042 213.048598 
L 92.039395 213.192205 
L 92.110747 213.034913 
L 92.1821 213.105015 
L 92.538863 213.141615 
L 92.824274 213.114698 
L 92.966979 213.071805 
L 93.323742 212.839214 
L 93.466448 212.865386 
L 93.751858 212.675944 
L 93.823211 212.77054 
L 93.965916 212.420752 
L 94.037269 212.472604 
L 94.179974 212.553006 
L 94.394032 212.396706 
L 94.679443 211.954679 
L 95.392969 211.609512 
L 96.035143 210.964599 
L 97.390843 210.218363 
L 97.604901 210.457371 
L 97.818959 210.470887 
L 98.817896 210.63959 
L 98.889249 210.876645 
L 98.960602 210.763728 
L 99.602775 210.951689 
L 99.888186 211.138901 
L 99.959539 211.091621 
L 100.173597 211.434501 
L 100.459007 211.710074 
L 100.601712 211.640501 
L 101.029828 211.952991 
L 101.172534 212.220533 
L 101.386592 212.493381 
L 101.457944 212.4492 
L 101.743355 212.750453 
L 101.88606 212.772804 
L 103.741229 215.71817 
L 104.597461 217.451667 
L 104.740166 217.636882 
L 105.096929 218.525531 
L 105.310987 219.00717 
L 105.453692 218.963341 
L 106.167219 219.389518 
L 106.309924 219.368644 
L 106.595335 219.5394 
L 107.80833 220.401147 
L 107.951035 220.510809 
L 108.022388 220.498954 
L 108.236446 220.748647 
L 108.664562 221.118762 
L 108.807267 221.146263 
L 108.87862 221.452471 
L 108.949972 221.128867 
L 109.021325 221.249171 
L 110.23432 222.198075 
L 111.375962 222.801144 
L 111.447315 223.087912 
L 111.518668 222.969216 
L 111.732725 223.155903 
L 111.875431 223.15343 
L 112.232194 223.377679 
L 112.374899 223.303584 
L 112.731663 223.434014 
L 113.801952 223.572967 
L 113.873305 223.457488 
L 114.01601 223.570033 
L 114.800889 223.568036 
L 115.0863 223.436379 
L 115.514416 223.271828 
L 115.657121 223.310407 
L 115.871179 223.074655 
L 116.442 223.087708 
L 116.584705 222.787122 
L 116.727411 222.821425 
L 116.798763 222.772705 
L 116.941469 222.876262 
L 117.084174 222.750091 
L 117.226879 222.645592 
L 117.440937 222.691923 
L 117.583643 222.658519 
L 117.726348 222.558427 
L 118.011758 222.518657 
L 118.511227 222.468677 
L 118.653932 222.383166 
L 118.796638 222.406745 
L 118.939343 222.589444 
L 119.153401 222.185634 
L 119.510164 222.365738 
L 119.724222 222.255477 
L 120.865864 222.178643 
L 121.079922 222.245931 
L 121.222628 222.240418 
L 121.365333 222.135785 
L 121.508038 222.583909 
L 121.650743 222.348812 
L 121.722096 222.310041 
L 121.936154 222.487347 
L 122.792386 223.209075 
L 123.006444 223.723119 
L 123.291854 223.973 
L 123.505912 224.500785 
L 124.076733 225.903016 
L 124.148086 225.852966 
L 124.290791 226.485221 
L 124.79026 228.137723 
L 125.717844 232.368369 
L 126.574076 237.242414 
L 127.501661 242.435218 
L 127.787071 243.330995 
L 128.643303 245.604357 
L 130.855235 251.325093 
L 130.99794 251.560439 
L 131.211998 251.987525 
L 132.353641 253.914094 
L 133.209872 254.790304 
L 134.137457 255.194002 
L 134.208809 255.122404 
L 134.422867 255.323734 
L 134.850983 255.373293 
L 134.922336 255.433004 
L 135.065041 255.34578 
L 135.493157 255.477971 
L 135.635862 255.357493 
L 135.778568 255.473896 
L 136.420741 255.297337 
L 136.634799 255.27973 
L 136.777505 255.184802 
L 136.848857 255.282737 
L 136.92021 255.228243 
L 137.062915 255.062634 
L 137.348326 255.086874 
L 139.560258 253.411029 
L 139.845669 253.019376 
L 139.917021 253.098095 
L 139.988374 253.025188 
L 140.131079 252.940545 
L 140.273784 252.828367 
L 140.773253 252.622398 
L 140.915958 252.62824 
L 141.058664 252.725427 
L 141.130016 252.697149 
L 141.344074 252.387645 
L 141.558132 252.411441 
L 141.700837 252.443747 
L 142.128953 252.349698 
L 142.271659 252.187697 
L 142.557069 252.166006 
L 142.771127 252.030026 
L 142.985185 252.213111 
L 143.199243 252.110048 
L 143.484654 252.10093 
L 143.627359 252.23778 
L 144.055475 252.166814 
L 144.19818 252.156618 
L 145.197117 251.94229 
L 145.411175 251.748419 
L 145.482528 251.685502 
L 145.55388 251.766789 
L 145.625233 251.745 
L 145.839291 251.911403 
L 145.910644 251.904436 
L 145.981996 251.777159 
L 146.124701 251.88118 
L 146.552817 251.797604 
L 146.695523 251.674576 
L 146.838228 251.724832 
L 147.052286 251.631757 
L 147.266344 251.67752 
L 147.409049 251.529227 
L 148.407986 251.42276 
L 148.693397 251.620252 
L 150.263155 251.524397 
L 150.40586 251.469166 
L 151.119387 251.65868 
L 151.333445 251.763315 
L 151.761561 251.591821 
L 151.904266 251.70369 
L 152.403734 251.540992 
L 152.689145 251.8424 
L 152.974556 251.773746 
L 153.331319 251.936978 
L 153.474024 251.887874 
L 153.688082 251.876747 
L 153.759435 251.761838 
L 153.973493 251.926698 
L 154.401609 251.850407 
L 154.544314 252.031431 
L 154.687019 251.778469 
L 154.901077 251.930463 
L 155.971367 252.021893 
L 156.185425 252.016169 
L 156.827599 252.091437 
L 156.898951 251.887115 
L 156.970304 251.984399 
L 161.964989 251.440462 
L 162.107694 251.628682 
L 162.53581 251.330357 
L 162.678516 251.332034 
L 162.821221 251.445935 
L 163.463395 251.427209 
L 163.748805 251.393163 
L 163.962863 251.316754 
L 164.248274 251.373193 
L 164.390979 251.151993 
L 164.462332 251.310153 
L 164.533685 251.116703 
L 164.67639 251.288603 
L 165.247211 251.217898 
L 165.389916 251.141791 
L 165.603974 251.128364 
L 166.745617 250.920843 
L 166.816969 251.02498 
L 166.888322 250.952699 
L 167.031027 250.731513 
L 167.245085 250.783732 
L 167.459143 250.498803 
L 167.601848 250.504147 
L 168.814843 250.095354 
L 168.886196 249.973769 
L 168.957549 250.038087 
L 169.242959 249.959697 
L 169.314312 249.925432 
L 169.385665 250.137519 
L 169.457017 250.082408 
L 169.599722 249.955446 
L 169.671075 250.006404 
L 169.885133 249.785192 
L 170.027838 249.778928 
L 170.241896 249.469979 
L 170.455954 249.549604 
L 170.812717 249.286856 
L 171.597597 248.812386 
L 171.668949 248.976818 
L 172.025712 248.941261 
L 172.097065 248.762469 
L 172.168418 248.822177 
L 172.311123 248.838112 
L 172.382476 248.793524 
L 172.525181 248.548493 
L 172.667886 248.48397 
L 172.881944 248.331825 
L 173.167355 248.452533 
L 173.452765 248.313349 
L 174.023587 248.036682 
L 174.237645 247.949105 
L 174.523055 248.153224 
L 174.594408 247.92909 
L 174.66576 247.952048 
L 176.949045 246.596258 
L 177.09175 246.562821 
L 177.234456 246.416874 
L 177.377161 246.36159 
L 177.448514 246.299167 
L 177.662572 245.973032 
L 177.947982 245.687154 
L 178.090688 245.657484 
L 178.946919 244.957618 
L 179.23233 244.624201 
L 179.375035 244.557573 
L 179.446388 244.478378 
L 179.51774 244.633482 
L 179.589093 244.522803 
L 179.660446 244.480571 
L 179.874504 244.216894 
L 180.445325 243.487115 
L 182.015083 241.973205 
L 182.157788 241.909419 
L 182.300494 241.726071 
L 182.371846 241.776981 
L 183.085373 240.894464 
L 183.299431 240.829894 
L 184.08431 240.227396 
L 184.298368 240.00761 
L 184.441073 240.011156 
L 184.583778 239.905572 
L 184.726484 240.011262 
L 185.011894 239.711887 
L 185.654068 239.330441 
L 186.438947 239.024617 
L 186.724358 238.970194 
L 186.867063 238.883856 
L 187.223826 239.168519 
L 187.58059 239.241788 
L 187.866 239.282583 
L 187.937353 239.167289 
L 188.008705 239.216058 
L 188.294116 239.527206 
L 188.579527 239.901651 
L 189.2217 240.649638 
L 189.435758 241.0683 
L 189.792522 242.122193 
L 190.00658 242.396331 
L 191.005517 245.229614 
L 191.719043 248.008278 
L 191.933101 248.710894 
L 192.361217 249.264954 
L 192.860686 249.967533 
L 192.932038 250.299155 
L 193.003391 250.050354 
L 193.146096 250.578722 
L 193.217449 250.58264 
L 194.002328 251.834493 
L 195.001265 253.383754 
L 195.215323 253.773445 
L 195.643439 254.283848 
L 196.285613 255.00283 
L 196.856434 255.407442 
L 197.213197 255.47304 
L 197.427255 255.52121 
L 197.855371 255.413301 
L 197.998076 255.165741 
L 198.069429 255.357217 
L 198.212134 254.844279 
L 198.283487 254.937841 
L 198.354839 254.851221 
L 198.497545 254.742142 
L 199.211071 253.364351 
L 199.853245 251.889049 
L 200.709477 249.277792 
L 201.993824 244.446224 
L 203.064114 239.95977 
L 203.349525 238.56657 
L 203.991698 235.409786 
L 208.058799 215.670757 
L 208.629621 209.401553 
L 209.057736 204.342889 
L 209.557205 199.762258 
L 210.484789 192.514245 
L 211.269669 188.789297 
L 211.341021 188.736915 
L 211.412374 188.515508 
L 211.483726 188.722405 
L 211.769137 187.515517 
L 211.911842 187.392818 
L 211.983195 186.937378 
L 212.054548 187.001472 
L 212.268606 187.042599 
L 212.625369 187.573299 
L 213.267543 188.670356 
L 215.764885 195.659051 
L 216.478412 196.601112 
L 217.049233 196.985989 
L 217.191938 196.938306 
L 217.477349 197.026171 
L 218.04817 196.884533 
L 219.047107 196.227484 
L 219.261165 196.074382 
L 219.760634 195.652803 
L 219.974691 195.286796 
L 220.046044 195.210418 
L 220.117397 195.489129 
L 220.188749 195.470075 
L 220.331455 195.378015 
L 220.545513 195.049108 
L 220.973629 194.899627 
L 221.401744 194.867302 
L 221.901213 195.028263 
L 222.472034 195.447833 
L 222.828797 195.835404 
L 223.470971 196.790323 
L 224.184498 198.07318 
L 224.398556 198.441846 
L 226.111019 201.43695 
L 226.68184 202.372119 
L 227.109956 202.873221 
L 228.465657 204.601112 
L 228.608362 204.623992 
L 229.678652 205.686426 
L 230.534883 205.997536 
L 231.391115 205.996121 
L 233.246284 205.641212 
L 233.388989 205.511998 
L 233.6744 205.605104 
L 234.102516 205.540475 
L 234.387926 205.606481 
L 235.101453 205.609856 
L 237.384737 205.953947 
L 237.598795 206.098664 
L 237.884206 206.245218 
L 242.165365 207.939023 
L 242.379423 208.061418 
L 242.736186 208.243214 
L 242.950244 208.333516 
L 243.092949 208.366982 
L 243.449712 208.58647 
L 244.44865 208.818989 
L 244.591355 208.821289 
L 245.447587 208.952366 
L 246.589229 209.147606 
L 247.659519 209.117537 
L 248.373045 208.93062 
L 248.51575 208.999193 
L 248.872514 208.903919 
L 250.727683 208.462147 
L 250.870388 208.527718 
L 251.369856 208.37295 
L 251.940678 208.152053 
L 252.368793 207.936006 
L 254.652078 206.107837 
L 255.008841 205.864236 
L 255.436957 205.465807 
L 255.50831 205.507426 
L 255.722368 205.260976 
L 256.435894 204.558029 
L 258.148358 201.725868 
L 259.00459 200.600775 
L 259.575411 199.938024 
L 259.789469 199.75174 
L 259.932174 199.704998 
L 260.288937 199.179913 
L 260.36029 199.255003 
L 260.859758 198.797529 
L 262.215459 198.118198 
L 262.286811 198.190946 
L 262.358164 198.116071 
L 262.500869 198.024962 
L 262.857633 198.002283 
L 264.14198 197.962892 
L 264.284686 197.888252 
L 264.855507 197.916887 
L 265.783091 197.838681 
L 266.211207 197.818558 
L 266.782028 197.889853 
L 266.996086 197.911401 
L 267.138791 197.969967 
L 268.280434 198.698936 
L 269.136666 199.581962 
L 272.133477 203.703202 
L 272.276182 203.724432 
L 272.847003 204.045959 
L 274.059998 204.585104 
L 274.416761 204.787521 
L 274.773525 204.950019 
L 275.130288 205.165017 
L 275.272993 205.205555 
L 275.629756 205.398879 
L 277.128162 205.860959 
L 277.484925 205.869742 
L 278.69792 205.743259 
L 278.983331 205.68212 
L 282.836374 205.264446 
L 283.621253 205.054311 
L 285.119659 204.800475 
L 288.045117 204.354782 
L 291.041928 203.365169 
L 292.754392 202.699823 
L 293.610624 202.188988 
L 295.251734 201.463855 
L 295.893908 201.129815 
L 296.678787 200.348563 
L 297.106903 199.859742 
L 297.749077 199.29792 
L 298.890719 198.561049 
L 299.675599 198.346207 
L 300.317772 198.339942 
L 300.745888 198.431925 
L 301.887531 198.924429 
L 302.601057 199.508744 
L 302.815115 199.599657 
L 303.956757 200.542404 
L 306.810863 203.05096 
L 307.167627 203.194953 
L 307.453037 203.348044 
L 307.595742 203.359592 
L 308.166564 203.608429 
L 308.951443 203.888203 
L 309.236853 204.031366 
L 309.807675 204.309493 
L 310.307143 204.566846 
L 311.662843 205.124068 
L 311.876901 205.180532 
L 313.375307 205.043623 
L 316.015355 204.188164 
L 316.657529 203.8183 
L 317.085645 203.50608 
L 317.51376 203.059623 
L 318.155934 202.290073 
L 318.655403 201.562013 
L 319.868398 199.397125 
L 320.653277 197.593415 
L 321.580861 195.004238 
L 322.936562 190.328871 
L 325.219846 181.597833 
L 326.860957 169.045733 
L 327.645836 164.617544 
L 328.644773 160.969508 
L 329.3583 159.311802 
L 330.642648 157.672392 
L 331.356174 157.261389 
L 332.569169 157.127004 
L 332.783227 157.15044 
L 332.997285 157.225379 
L 334.995159 157.427973 
L 335.137864 157.401936 
L 335.351922 157.390576 
L 335.780038 157.319187 
L 336.065449 157.337092 
L 336.350859 157.253438 
L 336.707623 157.145245 
L 336.993033 157.149042 
L 338.776849 156.870515 
L 339.06226 156.775414 
L 339.847139 156.50288 
L 342.059071 155.43494 
L 342.415834 155.262567 
L 342.772598 155.161091 
L 343.129361 155.048021 
L 344.128298 154.829283 
L 344.413708 154.813093 
L 344.699119 154.700313 
L 345.055882 154.683013 
L 345.198588 154.58226 
L 345.341293 154.620569 
L 346.054819 154.489176 
L 346.34023 154.442041 
L 346.625641 154.367758 
L 346.982404 154.393801 
L 347.053756 154.425877 
L 347.196462 154.340784 
L 347.481872 154.265018 
L 348.409457 154.074148 
L 349.622452 153.588707 
L 350.264626 153.376141 
L 351.19221 152.901671 
L 351.334915 152.792457 
L 351.477621 152.794121 
L 351.834384 152.557963 
L 352.119794 152.359088 
L 352.405205 152.244182 
L 352.476558 152.271876 
L 352.690616 152.098657 
L 352.833321 151.982429 
L 352.976026 151.983414 
L 356.615011 149.85555 
L 356.757716 149.819743 
L 356.900422 149.811362 
L 357.11448 149.590973 
L 357.613948 149.36728 
L 358.327475 148.999685 
L 358.755591 148.734094 
L 359.041001 148.561847 
L 359.897233 147.991514 
L 361.538344 146.766577 
L 361.609696 146.850581 
L 361.895107 146.566456 
L 362.037812 146.490538 
L 362.394576 146.23388 
L 362.608634 146.169463 
L 363.678923 145.456741 
L 364.463802 144.72368 
L 364.749213 144.49504 
L 364.820566 144.368704 
L 364.891918 144.416844 
L 365.890855 143.525044 
L 369.101724 139.757837 
L 369.601193 139.353612 
L 369.672546 139.474506 
L 370.029309 139.058691 
L 370.814188 138.748307 
L 371.385009 138.478218 
L 371.456362 138.68771 
L 371.527714 138.645306 
L 372.098536 138.483026 
L 372.241241 138.380404 
L 372.312594 138.625328 
L 372.383946 138.574043 
L 372.526652 138.484088 
L 373.382883 138.177723 
L 374.310468 137.532199 
L 374.738584 137.314932 
L 374.952642 137.04605 
L 375.095347 137.117928 
L 375.309405 137.042415 
L 375.380757 137.007538 
L 375.45211 136.774974 
L 375.523463 136.95671 
L 375.594815 136.842142 
L 376.5224 136.280989 
L 377.307279 135.579258 
L 377.378632 135.662998 
L 377.592689 135.254925 
L 377.664042 135.337387 
L 377.735395 135.266036 
L 378.448921 134.525443 
L 379.947327 133.076575 
L 380.01868 133.21663 
L 380.090032 132.986125 
L 380.161385 133.142599 
L 380.232737 132.791581 
L 380.30409 132.919915 
L 380.660853 132.66769 
L 380.732206 132.397854 
L 380.803559 132.453005 
L 381.445732 131.686699 
L 382.658727 130.286655 
L 382.73008 130.094106 
L 382.801433 130.162525 
L 382.872785 130.314591 
L 383.158196 129.848191 
L 383.943075 129.096118 
L 385.298775 127.541772 
L 385.512833 127.204621 
L 385.584186 127.359122 
L 385.798244 126.974236 
L 386.51177 126.042066 
L 387.724765 124.335875 
L 387.867471 124.280458 
L 388.081529 123.903956 
L 388.723702 123.052447 
L 389.009113 122.469686 
L 389.793992 121.318243 
L 390.00805 121.061411 
L 390.079403 121.17771 
L 390.364813 120.462727 
L 390.507519 120.475896 
L 390.721577 119.910584 
L 391.36375 118.954517 
L 391.720514 118.182509 
L 392.648098 116.678511 
L 392.719451 116.728812 
L 393.004861 115.999205 
L 393.076214 116.057421 
L 394.645972 113.066886 
L 395.002735 112.360816 
L 395.288146 111.878919 
L 395.359499 111.914586 
L 395.644909 111.090103 
L 395.716262 111.142055 
L 396.929257 108.914488 
L 397.214668 108.519673 
L 397.928194 107.365747 
L 397.999547 107.365651 
L 398.499015 106.265435 
L 398.855778 105.680341 
L 400.639595 101.514256 
L 401.353121 99.360011 
L 402.780174 94.708816 
L 403.921816 90.362888 
L 405.491575 82.84319 
L 405.705633 81.537025 
L 405.776985 81.689069 
L 406.276454 78.288227 
L 407.418096 71.234795 
L 407.632154 69.844296 
L 408.702444 62.750489 
L 408.773796 59.826282 
L 408.845149 61.443465 
L 409.558676 56.841723 
L 409.630028 55.602281 
L 409.701381 56.237262 
L 409.915439 54.667418 
L 409.986791 55.146969 
L 410.200849 52.651318 
L 410.557613 50.83805 
L 410.628965 51.175439 
L 410.843023 48.640241 
L 410.985728 50.206421 
L 411.057081 47.895621 
L 411.128434 48.270649 
L 411.199786 48.783317 
L 411.342492 46.264271 
L 411.699255 44.933434 
L 411.770608 43.53225 
L 411.84196 45.47294 
L 411.84196 45.47294 
" clip-path="url(#p17a5bf9d1e)" style="fill: none; stroke: #ff7f0e; stroke-width: 1.5; stroke-linecap: square"/>
   </g>
   <g id="patch_3">
    <path d="M 70.954688 297.54825 
L 70.954688 31.43625 
" style="fill: none; stroke: #000000; stroke-width: 0.8; stroke-linejoin: miter; stroke-linecap: square"/>
   </g>
   <g id="patch_4">
    <path d="M 428.074687 297.54825 
L 428.074687 31.43625 
" style="fill: none; stroke: #000000; stroke-width: 0.8; stroke-linejoin: miter; stroke-linecap: square"/>
   </g>
   <g id="patch_5">
    <path d="M 70.954688 297.54825 
L 428.074687 297.54825 
" style="fill: none; stroke: #000000; stroke-width: 0.8; stroke-linejoin: miter; stroke-linecap: square"/>
   </g>
   <g id="patch_6">
    <path d="M 70.954688 31.43625 
L 428.074687 31.43625 
" style="fill: none; stroke: #000000; stroke-width: 0.8; stroke-linejoin: miter; stroke-linecap: square"/>
   </g>
   <g id="text_12">
    <!-- Secular Frequency -->
    <g transform="translate(138.884063 25.43625)scale(0.24 -0.24)">
     <defs>
      <path id="DejaVuSans-53" d="M 3425 4513 
L 3425 3897 
Q 3066 4069 2747 4153 
Q 2428 4238 2131 4238 
Q 1616 4238 1336 4038 
Q 1056 3838 1056 3469 
Q 1056 3159 1242 3001 
Q 1428 2844 1947 2747 
L 2328 2669 
Q 3034 2534 3370 2195 
Q 3706 1856 3706 1288 
Q 3706 609 3251 259 
Q 2797 -91 1919 -91 
Q 1588 -91 1214 -16 
Q 841 59 441 206 
L 441 856 
Q 825 641 1194 531 
Q 1563 422 1919 422 
Q 2459 422 2753 634 
Q 3047 847 3047 1241 
Q 3047 1584 2836 1778 
Q 2625 1972 2144 2069 
L 1759 2144 
Q 1053 2284 737 2584 
Q 422 2884 422 3419 
Q 422 4038 858 4394 
Q 1294 4750 2059 4750 
Q 2388 4750 2728 4690 
Q 3069 4631 3425 4513 
z
" transform="scale(0.015625)"/>
      <path id="DejaVuSans-65" d="M 3597 1894 
L 3597 1613 
L 953 1613 
Q 991 1019 1311 708 
Q 1631 397 2203 397 
Q 2534 397 2845 478 
Q 3156 559 3463 722 
L 3463 178 
Q 3153 47 2828 -22 
Q 2503 -91 2169 -91 
Q 1331 -91 842 396 
Q 353 884 353 1716 
Q 353 2575 817 3079 
Q 1281 3584 2069 3584 
Q 2775 3584 3186 3129 
Q 3597 2675 3597 1894 
z
M 3022 2063 
Q 3016 2534 2758 2815 
Q 2500 3097 2075 3097 
Q 1594 3097 1305 2825 
Q 1016 2553 972 2059 
L 3022 2063 
z
" transform="scale(0.015625)"/>
      <path id="DejaVuSans-63" d="M 3122 3366 
L 3122 2828 
Q 2878 2963 2633 3030 
Q 2388 3097 2138 3097 
Q 1578 3097 1268 2742 
Q 959 2388 959 1747 
Q 959 1106 1268 751 
Q 1578 397 2138 397 
Q 2388 397 2633 464 
Q 2878 531 3122 666 
L 3122 134 
Q 2881 22 2623 -34 
Q 2366 -91 2075 -91 
Q 1284 -91 818 406 
Q 353 903 353 1747 
Q 353 2603 823 3093 
Q 1294 3584 2113 3584 
Q 2378 3584 2631 3529 
Q 2884 3475 3122 3366 
z
" transform="scale(0.015625)"/>
      <path id="DejaVuSans-75" d="M 544 1381 
L 544 3500 
L 1119 3500 
L 1119 1403 
Q 1119 906 1312 657 
Q 1506 409 1894 409 
Q 2359 409 2629 706 
Q 2900 1003 2900 1516 
L 2900 3500 
L 3475 3500 
L 3475 0 
L 2900 0 
L 2900 538 
Q 2691 219 2414 64 
Q 2138 -91 1772 -91 
Q 1169 -91 856 284 
Q 544 659 544 1381 
z
M 1991 3584 
L 1991 3584 
z
" transform="scale(0.015625)"/>
      <path id="DejaVuSans-6c" d="M 603 4863 
L 1178 4863 
L 1178 0 
L 603 0 
L 603 4863 
z
" transform="scale(0.015625)"/>
      <path id="DejaVuSans-61" d="M 2194 1759 
Q 1497 1759 1228 1600 
Q 959 1441 959 1056 
Q 959 750 1161 570 
Q 1363 391 1709 391 
Q 2188 391 2477 730 
Q 2766 1069 2766 1631 
L 2766 1759 
L 2194 1759 
z
M 3341 1997 
L 3341 0 
L 2766 0 
L 2766 531 
Q 2569 213 2275 61 
Q 1981 -91 1556 -91 
Q 1019 -91 701 211 
Q 384 513 384 1019 
Q 384 1609 779 1909 
Q 1175 2209 1959 2209 
L 2766 2209 
L 2766 2266 
Q 2766 2663 2505 2880 
Q 2244 3097 1772 3097 
Q 1472 3097 1187 3025 
Q 903 2953 641 2809 
L 641 3341 
Q 956 3463 1253 3523 
Q 1550 3584 1831 3584 
Q 2591 3584 2966 3190 
Q 3341 2797 3341 1997 
z
" transform="scale(0.015625)"/>
      <path id="DejaVuSans-72" d="M 2631 2963 
Q 2534 3019 2420 3045 
Q 2306 3072 2169 3072 
Q 1681 3072 1420 2755 
Q 1159 2438 1159 1844 
L 1159 0 
L 581 0 
L 581 3500 
L 1159 3500 
L 1159 2956 
Q 1341 3275 1631 3429 
Q 1922 3584 2338 3584 
Q 2397 3584 2469 3576 
Q 2541 3569 2628 3553 
L 2631 2963 
z
" transform="scale(0.015625)"/>
      <path id="DejaVuSans-46" d="M 628 4666 
L 3309 4666 
L 3309 4134 
L 1259 4134 
L 1259 2759 
L 3109 2759 
L 3109 2228 
L 1259 2228 
L 1259 0 
L 628 0 
L 628 4666 
z
" transform="scale(0.015625)"/>
      <path id="DejaVuSans-71" d="M 947 1747 
Q 947 1113 1208 752 
Q 1469 391 1925 391 
Q 2381 391 2643 752 
Q 2906 1113 2906 1747 
Q 2906 2381 2643 2742 
Q 2381 3103 1925 3103 
Q 1469 3103 1208 2742 
Q 947 2381 947 1747 
z
M 2906 525 
Q 2725 213 2448 61 
Q 2172 -91 1784 -91 
Q 1150 -91 751 415 
Q 353 922 353 1747 
Q 353 2572 751 3078 
Q 1150 3584 1784 3584 
Q 2172 3584 2448 3432 
Q 2725 3281 2906 2969 
L 2906 3500 
L 3481 3500 
L 3481 -1331 
L 2906 -1331 
L 2906 525 
z
" transform="scale(0.015625)"/>
      <path id="DejaVuSans-6e" d="M 3513 2113 
L 3513 0 
L 2938 0 
L 2938 2094 
Q 2938 2591 2744 2837 
Q 2550 3084 2163 3084 
Q 1697 3084 1428 2787 
Q 1159 2491 1159 1978 
L 1159 0 
L 581 0 
L 581 3500 
L 1159 3500 
L 1159 2956 
Q 1366 3272 1645 3428 
Q 1925 3584 2291 3584 
Q 2894 3584 3203 3211 
Q 3513 2838 3513 2113 
z
" transform="scale(0.015625)"/>
      <path id="DejaVuSans-79" d="M 2059 -325 
Q 1816 -950 1584 -1140 
Q 1353 -1331 966 -1331 
L 506 -1331 
L 506 -850 
L 844 -850 
Q 1081 -850 1212 -737 
Q 1344 -625 1503 -206 
L 1606 56 
L 191 3500 
L 800 3500 
L 1894 763 
L 2988 3500 
L 3597 3500 
L 2059 -325 
z
" transform="scale(0.015625)"/>
     </defs>
     <use xlink:href="#DejaVuSans-53"/>
     <use xlink:href="#DejaVuSans-65" x="63.476562"/>
     <use xlink:href="#DejaVuSans-63" x="125"/>
     <use xlink:href="#DejaVuSans-75" x="179.980469"/>
     <use xlink:href="#DejaVuSans-6c" x="243.359375"/>
     <use xlink:href="#DejaVuSans-61" x="271.142578"/>
     <use xlink:href="#DejaVuSans-72" x="332.421875"/>
     <use xlink:href="#DejaVuSans-20" x="373.535156"/>
     <use xlink:href="#DejaVuSans-46" x="405.322266"/>
     <use xlink:href="#DejaVuSans-72" x="455.591797"/>
     <use xlink:href="#DejaVuSans-65" x="494.455078"/>
     <use xlink:href="#DejaVuSans-71" x="555.978516"/>
     <use xlink:href="#DejaVuSans-75" x="619.455078"/>
     <use xlink:href="#DejaVuSans-65" x="682.833984"/>
     <use xlink:href="#DejaVuSans-6e" x="744.357422"/>
     <use xlink:href="#DejaVuSans-63" x="807.736328"/>
     <use xlink:href="#DejaVuSans-79" x="862.716797"/>
    </g>
   </g>
   <g id="legend_1">
    <g id="patch_7">
     <path d="M 84.954688 106.14875 
L 207.126563 106.14875 
Q 211.126563 106.14875 211.126563 102.14875 
L 211.126563 45.43625 
Q 211.126563 41.43625 207.126563 41.43625 
L 84.954688 41.43625 
Q 80.954688 41.43625 80.954688 45.43625 
L 80.954688 102.14875 
Q 80.954688 106.14875 84.954688 106.14875 
z
" style="fill: #ffffff; opacity: 0.8; stroke: #cccccc; stroke-linejoin: miter"/>
    </g>
    <g id="line2d_21">
     <path d="M 88.954688 57.633125 
L 108.954688 57.633125 
L 128.954688 57.633125 
" style="fill: none; stroke: #1f77b4; stroke-width: 1.5; stroke-linecap: square"/>
    </g>
    <g id="text_13">
     <!-- minor -->
     <g transform="translate(144.954688 64.633125)scale(0.2 -0.2)">
      <defs>
       <path id="DejaVuSans-6d" d="M 3328 2828 
Q 3544 3216 3844 3400 
Q 4144 3584 4550 3584 
Q 5097 3584 5394 3201 
Q 5691 2819 5691 2113 
L 5691 0 
L 5113 0 
L 5113 2094 
Q 5113 2597 4934 2840 
Q 4756 3084 4391 3084 
Q 3944 3084 3684 2787 
Q 3425 2491 3425 1978 
L 3425 0 
L 2847 0 
L 2847 2094 
Q 2847 2600 2669 2842 
Q 2491 3084 2119 3084 
Q 1678 3084 1418 2786 
Q 1159 2488 1159 1978 
L 1159 0 
L 581 0 
L 581 3500 
L 1159 3500 
L 1159 2956 
Q 1356 3278 1631 3431 
Q 1906 3584 2284 3584 
Q 2666 3584 2933 3390 
Q 3200 3197 3328 2828 
z
" transform="scale(0.015625)"/>
       <path id="DejaVuSans-69" d="M 603 3500 
L 1178 3500 
L 1178 0 
L 603 0 
L 603 3500 
z
M 603 4863 
L 1178 4863 
L 1178 4134 
L 603 4134 
L 603 4863 
z
" transform="scale(0.015625)"/>
       <path id="DejaVuSans-6f" d="M 1959 3097 
Q 1497 3097 1228 2736 
Q 959 2375 959 1747 
Q 959 1119 1226 758 
Q 1494 397 1959 397 
Q 2419 397 2687 759 
Q 2956 1122 2956 1747 
Q 2956 2369 2687 2733 
Q 2419 3097 1959 3097 
z
M 1959 3584 
Q 2709 3584 3137 3096 
Q 3566 2609 3566 1747 
Q 3566 888 3137 398 
Q 2709 -91 1959 -91 
Q 1206 -91 779 398 
Q 353 888 353 1747 
Q 353 2609 779 3096 
Q 1206 3584 1959 3584 
z
" transform="scale(0.015625)"/>
      </defs>
      <use xlink:href="#DejaVuSans-6d"/>
      <use xlink:href="#DejaVuSans-69" x="97.412109"/>
      <use xlink:href="#DejaVuSans-6e" x="125.195312"/>
      <use xlink:href="#DejaVuSans-6f" x="188.574219"/>
      <use xlink:href="#DejaVuSans-72" x="249.755859"/>
     </g>
    </g>
    <g id="line2d_22">
     <path d="M 88.954688 86.989375 
L 108.954688 86.989375 
L 128.954688 86.989375 
" style="fill: none; stroke: #ff7f0e; stroke-width: 1.5; stroke-linecap: square"/>
    </g>
    <g id="text_14">
     <!-- major -->
     <g transform="translate(144.954688 93.989375)scale(0.2 -0.2)">
      <defs>
       <path id="DejaVuSans-6a" d="M 603 3500 
L 1178 3500 
L 1178 -63 
Q 1178 -731 923 -1031 
Q 669 -1331 103 -1331 
L -116 -1331 
L -116 -844 
L 38 -844 
Q 366 -844 484 -692 
Q 603 -541 603 -63 
L 603 3500 
z
M 603 4863 
L 1178 4863 
L 1178 4134 
L 603 4134 
L 603 4863 
z
" transform="scale(0.015625)"/>
      </defs>
      <use xlink:href="#DejaVuSans-6d"/>
      <use xlink:href="#DejaVuSans-61" x="97.412109"/>
      <use xlink:href="#DejaVuSans-6a" x="158.691406"/>
      <use xlink:href="#DejaVuSans-6f" x="186.474609"/>
      <use xlink:href="#DejaVuSans-72" x="247.65625"/>
     </g>
    </g>
   </g>
  </g>
 </g>
 <defs>
  <clipPath id="p17a5bf9d1e">
   <rect x="70.954688" y="31.43625" width="357.12" height="266.112"/>
  </clipPath>
 </defs>
</svg>
