<?xml version="1.0" encoding="utf-8" standalone="no"?>
<!DOCTYPE svg PUBLIC "-//W3C//DTD SVG 1.1//EN"
  "http://www.w3.org/Graphics/SVG/1.1/DTD/svg11.dtd">
<svg xmlns:xlink="http://www.w3.org/1999/xlink" width="438.300469pt" height="349.665437pt" viewBox="0 0 438.300469 349.665437" xmlns="http://www.w3.org/2000/svg" version="1.1">
 <defs>
  <style type="text/css">*{stroke-linejoin: round; stroke-linecap: butt}</style>
 </defs>
 <g id="figure_1">
  <g id="patch_1">
   <path d="M -0 349.665437 
L 438.300469 349.665437 
L 438.300469 0 
L -0 0 
L -0 349.665437 
z
" style="fill: none"/>
  </g>
  <g id="axes_1">
   <g id="patch_2">
    <path d="M 73.980469 297.54825 
L 431.100469 297.54825 
L 431.100469 31.43625 
L 73.980469 31.43625 
L 73.980469 297.54825 
z
" style="fill: none"/>
   </g>
   <g id="matplotlib.axis_1">
    <g id="xtick_1">
     <g id="line2d_1">
      <path d="M 105.910778 297.54825 
L 105.910778 31.43625 
" clip-path="url(#p8e7a7c8e22)" style="fill: none; stroke: #b0b0b0; stroke-width: 0.8; stroke-linecap: square"/>
     </g>
     <g id="line2d_2">
      <defs>
       <path id="md39032bed2" d="M 0 0 
L 0 3.5 
" style="stroke: #000000; stroke-width: 0.8"/>
      </defs>
      <g>
       <use xlink:href="#md39032bed2" x="105.910778" y="297.54825" style="stroke: #000000; stroke-width: 0.8"/>
      </g>
     </g>
     <g id="text_1">
      <!-- −3000 -->
      <g transform="translate(80.538513 315.945906)scale(0.15 -0.15)">
       <defs>
        <path id="DejaVuSans-2212" d="M 678 2272 
L 4684 2272 
L 4684 1741 
L 678 1741 
L 678 2272 
z
" transform="scale(0.015625)"/>
        <path id="DejaVuSans-33" d="M 2597 2516 
Q 3050 2419 3304 2112 
Q 3559 1806 3559 1356 
Q 3559 666 3084 287 
Q 2609 -91 1734 -91 
Q 1441 -91 1130 -33 
Q 819 25 488 141 
L 488 750 
Q 750 597 1062 519 
Q 1375 441 1716 441 
Q 2309 441 2620 675 
Q 2931 909 2931 1356 
Q 2931 1769 2642 2001 
Q 2353 2234 1838 2234 
L 1294 2234 
L 1294 2753 
L 1863 2753 
Q 2328 2753 2575 2939 
Q 2822 3125 2822 3475 
Q 2822 3834 2567 4026 
Q 2313 4219 1838 4219 
Q 1578 4219 1281 4162 
Q 984 4106 628 3988 
L 628 4550 
Q 988 4650 1302 4700 
Q 1616 4750 1894 4750 
Q 2613 4750 3031 4423 
Q 3450 4097 3450 3541 
Q 3450 3153 3228 2886 
Q 3006 2619 2597 2516 
z
" transform="scale(0.015625)"/>
        <path id="DejaVuSans-30" d="M 2034 4250 
Q 1547 4250 1301 3770 
Q 1056 3291 1056 2328 
Q 1056 1369 1301 889 
Q 1547 409 2034 409 
Q 2525 409 2770 889 
Q 3016 1369 3016 2328 
Q 3016 3291 2770 3770 
Q 2525 4250 2034 4250 
z
M 2034 4750 
Q 2819 4750 3233 4129 
Q 3647 3509 3647 2328 
Q 3647 1150 3233 529 
Q 2819 -91 2034 -91 
Q 1250 -91 836 529 
Q 422 1150 422 2328 
Q 422 3509 836 4129 
Q 1250 4750 2034 4750 
z
" transform="scale(0.015625)"/>
       </defs>
       <use xlink:href="#DejaVuSans-2212"/>
       <use xlink:href="#DejaVuSans-33" x="83.789062"/>
       <use xlink:href="#DejaVuSans-30" x="147.412109"/>
       <use xlink:href="#DejaVuSans-30" x="211.035156"/>
       <use xlink:href="#DejaVuSans-30" x="274.658203"/>
      </g>
     </g>
    </g>
    <g id="xtick_2">
     <g id="line2d_3">
      <path d="M 177.263426 297.54825 
L 177.263426 31.43625 
" clip-path="url(#p8e7a7c8e22)" style="fill: none; stroke: #b0b0b0; stroke-width: 0.8; stroke-linecap: square"/>
     </g>
     <g id="line2d_4">
      <g>
       <use xlink:href="#md39032bed2" x="177.263426" y="297.54825" style="stroke: #000000; stroke-width: 0.8"/>
      </g>
     </g>
     <g id="text_2">
      <!-- −2000 -->
      <g transform="translate(151.89116 315.945906)scale(0.15 -0.15)">
       <defs>
        <path id="DejaVuSans-32" d="M 1228 531 
L 3431 531 
L 3431 0 
L 469 0 
L 469 531 
Q 828 903 1448 1529 
Q 2069 2156 2228 2338 
Q 2531 2678 2651 2914 
Q 2772 3150 2772 3378 
Q 2772 3750 2511 3984 
Q 2250 4219 1831 4219 
Q 1534 4219 1204 4116 
Q 875 4013 500 3803 
L 500 4441 
Q 881 4594 1212 4672 
Q 1544 4750 1819 4750 
Q 2544 4750 2975 4387 
Q 3406 4025 3406 3419 
Q 3406 3131 3298 2873 
Q 3191 2616 2906 2266 
Q 2828 2175 2409 1742 
Q 1991 1309 1228 531 
z
" transform="scale(0.015625)"/>
       </defs>
       <use xlink:href="#DejaVuSans-2212"/>
       <use xlink:href="#DejaVuSans-32" x="83.789062"/>
       <use xlink:href="#DejaVuSans-30" x="147.412109"/>
       <use xlink:href="#DejaVuSans-30" x="211.035156"/>
       <use xlink:href="#DejaVuSans-30" x="274.658203"/>
      </g>
     </g>
    </g>
    <g id="xtick_3">
     <g id="line2d_5">
      <path d="M 248.616073 297.54825 
L 248.616073 31.43625 
" clip-path="url(#p8e7a7c8e22)" style="fill: none; stroke: #b0b0b0; stroke-width: 0.8; stroke-linecap: square"/>
     </g>
     <g id="line2d_6">
      <g>
       <use xlink:href="#md39032bed2" x="248.616073" y="297.54825" style="stroke: #000000; stroke-width: 0.8"/>
      </g>
     </g>
     <g id="text_3">
      <!-- −1000 -->
      <g transform="translate(223.243808 315.945906)scale(0.15 -0.15)">
       <defs>
        <path id="DejaVuSans-31" d="M 794 531 
L 1825 531 
L 1825 4091 
L 703 3866 
L 703 4441 
L 1819 4666 
L 2450 4666 
L 2450 531 
L 3481 531 
L 3481 0 
L 794 0 
L 794 531 
z
" transform="scale(0.015625)"/>
       </defs>
       <use xlink:href="#DejaVuSans-2212"/>
       <use xlink:href="#DejaVuSans-31" x="83.789062"/>
       <use xlink:href="#DejaVuSans-30" x="147.412109"/>
       <use xlink:href="#DejaVuSans-30" x="211.035156"/>
       <use xlink:href="#DejaVuSans-30" x="274.658203"/>
      </g>
     </g>
    </g>
    <g id="xtick_4">
     <g id="line2d_7">
      <path d="M 319.96872 297.54825 
L 319.96872 31.43625 
" clip-path="url(#p8e7a7c8e22)" style="fill: none; stroke: #b0b0b0; stroke-width: 0.8; stroke-linecap: square"/>
     </g>
     <g id="line2d_8">
      <g>
       <use xlink:href="#md39032bed2" x="319.96872" y="297.54825" style="stroke: #000000; stroke-width: 0.8"/>
      </g>
     </g>
     <g id="text_4">
      <!-- 0 -->
      <g transform="translate(315.196845 315.945906)scale(0.15 -0.15)">
       <use xlink:href="#DejaVuSans-30"/>
      </g>
     </g>
    </g>
    <g id="xtick_5">
     <g id="line2d_9">
      <path d="M 391.321368 297.54825 
L 391.321368 31.43625 
" clip-path="url(#p8e7a7c8e22)" style="fill: none; stroke: #b0b0b0; stroke-width: 0.8; stroke-linecap: square"/>
     </g>
     <g id="line2d_10">
      <g>
       <use xlink:href="#md39032bed2" x="391.321368" y="297.54825" style="stroke: #000000; stroke-width: 0.8"/>
      </g>
     </g>
     <g id="text_5">
      <!-- 1000 -->
      <g transform="translate(372.233868 315.945906)scale(0.15 -0.15)">
       <use xlink:href="#DejaVuSans-31"/>
       <use xlink:href="#DejaVuSans-30" x="63.623047"/>
       <use xlink:href="#DejaVuSans-30" x="127.246094"/>
       <use xlink:href="#DejaVuSans-30" x="190.869141"/>
      </g>
     </g>
    </g>
    <g id="text_6">
     <!-- X ($\mu m$) -->
     <g transform="translate(218.540469 338.265437)scale(0.2 -0.2)">
      <defs>
       <path id="DejaVuSans-58" d="M 403 4666 
L 1081 4666 
L 2241 2931 
L 3406 4666 
L 4084 4666 
L 2584 2425 
L 4184 0 
L 3506 0 
L 2194 1984 
L 872 0 
L 191 0 
L 1856 2491 
L 403 4666 
z
" transform="scale(0.015625)"/>
       <path id="DejaVuSans-20" transform="scale(0.015625)"/>
       <path id="DejaVuSans-28" d="M 1984 4856 
Q 1566 4138 1362 3434 
Q 1159 2731 1159 2009 
Q 1159 1288 1364 580 
Q 1569 -128 1984 -844 
L 1484 -844 
Q 1016 -109 783 600 
Q 550 1309 550 2009 
Q 550 2706 781 3412 
Q 1013 4119 1484 4856 
L 1984 4856 
z
" transform="scale(0.015625)"/>
       <path id="DejaVuSans-Oblique-3bc" d="M -84 -1331 
L 856 3500 
L 1434 3500 
L 1009 1322 
Q 997 1256 987 1175 
Q 978 1094 978 1013 
Q 978 722 1161 565 
Q 1344 409 1684 409 
Q 2147 409 2431 671 
Q 2716 934 2816 1459 
L 3213 3500 
L 3788 3500 
L 3266 809 
Q 3253 750 3248 706 
Q 3244 663 3244 628 
Q 3244 531 3283 486 
Q 3322 441 3406 441 
Q 3438 441 3492 456 
Q 3547 472 3647 513 
L 3559 50 
Q 3422 -19 3297 -55 
Q 3172 -91 3053 -91 
Q 2847 -91 2730 40 
Q 2613 172 2613 403 
Q 2438 153 2195 31 
Q 1953 -91 1625 -91 
Q 1334 -91 1117 43 
Q 900 178 831 397 
L 494 -1331 
L -84 -1331 
z
" transform="scale(0.015625)"/>
       <path id="DejaVuSans-Oblique-6d" d="M 5747 2113 
L 5338 0 
L 4763 0 
L 5166 2094 
Q 5191 2228 5203 2325 
Q 5216 2422 5216 2491 
Q 5216 2772 5059 2928 
Q 4903 3084 4622 3084 
Q 4203 3084 3875 2770 
Q 3547 2456 3450 1953 
L 3066 0 
L 2491 0 
L 2900 2094 
Q 2925 2209 2937 2307 
Q 2950 2406 2950 2484 
Q 2950 2769 2794 2926 
Q 2638 3084 2363 3084 
Q 1938 3084 1609 2770 
Q 1281 2456 1184 1953 
L 800 0 
L 225 0 
L 909 3500 
L 1484 3500 
L 1375 2956 
Q 1609 3263 1923 3423 
Q 2238 3584 2597 3584 
Q 2978 3584 3223 3384 
Q 3469 3184 3519 2828 
Q 3781 3197 4126 3390 
Q 4472 3584 4856 3584 
Q 5306 3584 5551 3325 
Q 5797 3066 5797 2591 
Q 5797 2488 5784 2364 
Q 5772 2241 5747 2113 
z
" transform="scale(0.015625)"/>
       <path id="DejaVuSans-29" d="M 513 4856 
L 1013 4856 
Q 1481 4119 1714 3412 
Q 1947 2706 1947 2009 
Q 1947 1309 1714 600 
Q 1481 -109 1013 -844 
L 513 -844 
Q 928 -128 1133 580 
Q 1338 1288 1338 2009 
Q 1338 2731 1133 3434 
Q 928 4138 513 4856 
z
" transform="scale(0.015625)"/>
      </defs>
      <use xlink:href="#DejaVuSans-58" transform="translate(0 0.125)"/>
      <use xlink:href="#DejaVuSans-20" transform="translate(68.505859 0.125)"/>
      <use xlink:href="#DejaVuSans-28" transform="translate(100.292969 0.125)"/>
      <use xlink:href="#DejaVuSans-Oblique-3bc" transform="translate(139.306641 0.125)"/>
      <use xlink:href="#DejaVuSans-Oblique-6d" transform="translate(202.929688 0.125)"/>
      <use xlink:href="#DejaVuSans-29" transform="translate(300.341797 0.125)"/>
     </g>
    </g>
   </g>
   <g id="matplotlib.axis_2">
    <g id="ytick_1">
     <g id="line2d_11">
      <path d="M 73.980469 274.522727 
L 431.100469 274.522727 
" clip-path="url(#p8e7a7c8e22)" style="fill: none; stroke: #b0b0b0; stroke-width: 0.8; stroke-linecap: square"/>
     </g>
     <g id="line2d_12">
      <defs>
       <path id="m6f3f5b6aff" d="M 0 0 
L -3.5 0 
" style="stroke: #000000; stroke-width: 0.8"/>
      </defs>
      <g>
       <use xlink:href="#m6f3f5b6aff" x="73.980469" y="274.522727" style="stroke: #000000; stroke-width: 0.8"/>
      </g>
     </g>
     <g id="text_7">
      <!-- −0.6 -->
      <g transform="translate(30.55625 280.221555)scale(0.15 -0.15)">
       <defs>
        <path id="DejaVuSans-2e" d="M 684 794 
L 1344 794 
L 1344 0 
L 684 0 
L 684 794 
z
" transform="scale(0.015625)"/>
        <path id="DejaVuSans-36" d="M 2113 2584 
Q 1688 2584 1439 2293 
Q 1191 2003 1191 1497 
Q 1191 994 1439 701 
Q 1688 409 2113 409 
Q 2538 409 2786 701 
Q 3034 994 3034 1497 
Q 3034 2003 2786 2293 
Q 2538 2584 2113 2584 
z
M 3366 4563 
L 3366 3988 
Q 3128 4100 2886 4159 
Q 2644 4219 2406 4219 
Q 1781 4219 1451 3797 
Q 1122 3375 1075 2522 
Q 1259 2794 1537 2939 
Q 1816 3084 2150 3084 
Q 2853 3084 3261 2657 
Q 3669 2231 3669 1497 
Q 3669 778 3244 343 
Q 2819 -91 2113 -91 
Q 1303 -91 875 529 
Q 447 1150 447 2328 
Q 447 3434 972 4092 
Q 1497 4750 2381 4750 
Q 2619 4750 2861 4703 
Q 3103 4656 3366 4563 
z
" transform="scale(0.015625)"/>
       </defs>
       <use xlink:href="#DejaVuSans-2212"/>
       <use xlink:href="#DejaVuSans-30" x="83.789062"/>
       <use xlink:href="#DejaVuSans-2e" x="147.412109"/>
       <use xlink:href="#DejaVuSans-36" x="179.199219"/>
      </g>
     </g>
    </g>
    <g id="ytick_2">
     <g id="line2d_13">
      <path d="M 73.980469 238.515467 
L 431.100469 238.515467 
" clip-path="url(#p8e7a7c8e22)" style="fill: none; stroke: #b0b0b0; stroke-width: 0.8; stroke-linecap: square"/>
     </g>
     <g id="line2d_14">
      <g>
       <use xlink:href="#m6f3f5b6aff" x="73.980469" y="238.515467" style="stroke: #000000; stroke-width: 0.8"/>
      </g>
     </g>
     <g id="text_8">
      <!-- −0.4 -->
      <g transform="translate(30.55625 244.214295)scale(0.15 -0.15)">
       <defs>
        <path id="DejaVuSans-34" d="M 2419 4116 
L 825 1625 
L 2419 1625 
L 2419 4116 
z
M 2253 4666 
L 3047 4666 
L 3047 1625 
L 3713 1625 
L 3713 1100 
L 3047 1100 
L 3047 0 
L 2419 0 
L 2419 1100 
L 313 1100 
L 313 1709 
L 2253 4666 
z
" transform="scale(0.015625)"/>
       </defs>
       <use xlink:href="#DejaVuSans-2212"/>
       <use xlink:href="#DejaVuSans-30" x="83.789062"/>
       <use xlink:href="#DejaVuSans-2e" x="147.412109"/>
       <use xlink:href="#DejaVuSans-34" x="179.199219"/>
      </g>
     </g>
    </g>
    <g id="ytick_3">
     <g id="line2d_15">
      <path d="M 73.980469 202.508207 
L 431.100469 202.508207 
" clip-path="url(#p8e7a7c8e22)" style="fill: none; stroke: #b0b0b0; stroke-width: 0.8; stroke-linecap: square"/>
     </g>
     <g id="line2d_16">
      <g>
       <use xlink:href="#m6f3f5b6aff" x="73.980469" y="202.508207" style="stroke: #000000; stroke-width: 0.8"/>
      </g>
     </g>
     <g id="text_9">
      <!-- −0.2 -->
      <g transform="translate(30.55625 208.207036)scale(0.15 -0.15)">
       <use xlink:href="#DejaVuSans-2212"/>
       <use xlink:href="#DejaVuSans-30" x="83.789062"/>
       <use xlink:href="#DejaVuSans-2e" x="147.412109"/>
       <use xlink:href="#DejaVuSans-32" x="179.199219"/>
      </g>
     </g>
    </g>
    <g id="ytick_4">
     <g id="line2d_17">
      <path d="M 73.980469 166.500947 
L 431.100469 166.500947 
" clip-path="url(#p8e7a7c8e22)" style="fill: none; stroke: #b0b0b0; stroke-width: 0.8; stroke-linecap: square"/>
     </g>
     <g id="line2d_18">
      <g>
       <use xlink:href="#m6f3f5b6aff" x="73.980469" y="166.500947" style="stroke: #000000; stroke-width: 0.8"/>
      </g>
     </g>
     <g id="text_10">
      <!-- 0.0 -->
      <g transform="translate(43.125781 172.199776)scale(0.15 -0.15)">
       <use xlink:href="#DejaVuSans-30"/>
       <use xlink:href="#DejaVuSans-2e" x="63.623047"/>
       <use xlink:href="#DejaVuSans-30" x="95.410156"/>
      </g>
     </g>
    </g>
    <g id="ytick_5">
     <g id="line2d_19">
      <path d="M 73.980469 130.493687 
L 431.100469 130.493687 
" clip-path="url(#p8e7a7c8e22)" style="fill: none; stroke: #b0b0b0; stroke-width: 0.8; stroke-linecap: square"/>
     </g>
     <g id="line2d_20">
      <g>
       <use xlink:href="#m6f3f5b6aff" x="73.980469" y="130.493687" style="stroke: #000000; stroke-width: 0.8"/>
      </g>
     </g>
     <g id="text_11">
      <!-- 0.2 -->
      <g transform="translate(43.125781 136.192516)scale(0.15 -0.15)">
       <use xlink:href="#DejaVuSans-30"/>
       <use xlink:href="#DejaVuSans-2e" x="63.623047"/>
       <use xlink:href="#DejaVuSans-32" x="95.410156"/>
      </g>
     </g>
    </g>
    <g id="ytick_6">
     <g id="line2d_21">
      <path d="M 73.980469 94.486428 
L 431.100469 94.486428 
" clip-path="url(#p8e7a7c8e22)" style="fill: none; stroke: #b0b0b0; stroke-width: 0.8; stroke-linecap: square"/>
     </g>
     <g id="line2d_22">
      <g>
       <use xlink:href="#m6f3f5b6aff" x="73.980469" y="94.486428" style="stroke: #000000; stroke-width: 0.8"/>
      </g>
     </g>
     <g id="text_12">
      <!-- 0.4 -->
      <g transform="translate(43.125781 100.185256)scale(0.15 -0.15)">
       <use xlink:href="#DejaVuSans-30"/>
       <use xlink:href="#DejaVuSans-2e" x="63.623047"/>
       <use xlink:href="#DejaVuSans-34" x="95.410156"/>
      </g>
     </g>
    </g>
    <g id="ytick_7">
     <g id="line2d_23">
      <path d="M 73.980469 58.479168 
L 431.100469 58.479168 
" clip-path="url(#p8e7a7c8e22)" style="fill: none; stroke: #b0b0b0; stroke-width: 0.8; stroke-linecap: square"/>
     </g>
     <g id="line2d_24">
      <g>
       <use xlink:href="#m6f3f5b6aff" x="73.980469" y="58.479168" style="stroke: #000000; stroke-width: 0.8"/>
      </g>
     </g>
     <g id="text_13">
      <!-- 0.6 -->
      <g transform="translate(43.125781 64.177996)scale(0.15 -0.15)">
       <use xlink:href="#DejaVuSans-30"/>
       <use xlink:href="#DejaVuSans-2e" x="63.623047"/>
       <use xlink:href="#DejaVuSans-36" x="95.410156"/>
      </g>
     </g>
    </g>
    <g id="text_14">
     <!-- $mm^{-2}$ -->
     <g transform="translate(22.396875 195.09225)rotate(-90)scale(0.2 -0.2)">
      <use xlink:href="#DejaVuSans-Oblique-6d" transform="translate(0 0.765625)"/>
      <use xlink:href="#DejaVuSans-Oblique-6d" transform="translate(97.412109 0.765625)"/>
      <use xlink:href="#DejaVuSans-2212" transform="translate(199.474115 39.046875)scale(0.7)"/>
      <use xlink:href="#DejaVuSans-32" transform="translate(258.126458 39.046875)scale(0.7)"/>
     </g>
    </g>
   </g>
   <g id="line2d_25">
    <path d="M 90.213196 220.521782 
L 90.498607 218.045681 
L 90.641312 216.816037 
L 90.784017 215.839785 
L 91.14078 212.027465 
L 92.425128 198.555549 
L 92.853244 193.424551 
L 92.924597 193.162171 
L 93.210007 190.281225 
L 94.779765 179.768103 
L 95.850055 176.175493 
L 95.921408 176.26297 
L 95.99276 175.959313 
L 96.064113 176.035549 
L 96.135466 176.126964 
L 96.206818 176.069936 
L 96.77764 175.865808 
L 96.848992 175.55973 
L 97.205755 176.550239 
L 97.348461 176.825844 
L 98.13334 179.326156 
L 98.204693 179.369551 
L 99.631745 183.664778 
L 99.703098 183.671683 
L 99.917156 184.005319 
L 100.416625 184.45184 
L 100.84474 183.917989 
L 100.916093 183.927097 
L 101.344209 183.241181 
L 101.558267 183.188257 
L 101.700972 182.924826 
L 101.772325 182.960827 
L 101.843678 182.823038 
L 101.91503 182.308276 
L 101.986383 182.529724 
L 102.842615 181.340908 
L 102.98532 181.398084 
L 103.056673 181.146224 
L 103.199378 181.370011 
L 103.413436 181.024577 
L 103.556141 180.982971 
L 103.627494 181.024831 
L 103.770199 180.821718 
L 103.912904 180.758094 
L 104.05561 180.752707 
L 104.412373 180.242487 
L 104.626431 180.287775 
L 104.697783 180.280341 
L 104.911841 180.02223 
L 105.054547 179.717099 
L 105.268605 179.01204 
L 105.482663 178.46238 
L 106.338894 175.246241 
L 107.409184 168.951874 
L 107.694595 167.6394 
L 108.90759 161.511886 
L 109.193 160.850172 
L 109.621116 159.305031 
L 110.26329 157.982374 
L 110.620053 157.737061 
L 110.905464 157.157192 
L 111.833048 156.95006 
L 112.047106 157.377395 
L 112.118459 157.337283 
L 112.189811 157.405706 
L 112.332517 156.961604 
L 112.546575 157.175581 
L 113.75957 159.24541 
L 114.187686 160.033958 
L 114.330391 160.226665 
L 114.615801 161.007483 
L 114.758507 161.234717 
L 114.972565 161.36207 
L 115.329328 161.870576 
L 115.828796 162.398599 
L 116.756381 162.99078 
L 116.899086 163.042447 
L 117.255849 163.63922 
L 117.327202 163.573396 
L 117.826671 164.240375 
L 117.969376 164.342135 
L 119.182371 166.759792 
L 119.253723 166.770594 
L 119.824545 168.242554 
L 119.895897 168.199913 
L 119.96725 168.231036 
L 120.324013 168.925415 
L 120.609424 169.244833 
L 120.966187 169.917942 
L 121.679714 170.880982 
L 121.965124 171.13104 
L 122.321887 172.307102 
L 122.607298 172.682315 
L 123.249472 174.511424 
L 124.319761 178.324525 
L 124.605172 179.253214 
L 124.890583 180.456733 
L 125.318699 181.623322 
L 125.818167 182.910217 
L 126.531694 184.018291 
L 126.817104 184.14628 
L 126.959809 184.159727 
L 127.387925 184.138254 
L 127.530631 183.840508 
L 127.816041 183.148633 
L 128.030099 182.506826 
L 128.957684 177.607473 
L 129.457152 173.361354 
L 129.956621 168.225958 
L 132.168553 144.0107 
L 132.810726 140.035513 
L 133.595606 138.159063 
L 134.023721 137.896218 
L 134.166427 137.797909 
L 134.309132 137.935451 
L 134.451837 138.138657 
L 134.808601 138.981714 
L 135.59348 140.618797 
L 137.163238 145.731452 
L 137.591354 147.985411 
L 138.447586 152.243825 
L 139.232465 156.582166 
L 139.803286 159.292038 
L 140.017344 160.165678 
L 140.516812 161.991398 
L 140.944928 163.04341 
L 141.087634 163.234693 
L 141.587102 164.346032 
L 141.872513 164.54012 
L 142.015218 164.599812 
L 142.086571 164.593794 
L 142.371981 164.960205 
L 142.443334 164.969509 
L 142.657392 165.141642 
L 143.584976 165.627156 
L 144.726619 166.084338 
L 145.083382 165.962981 
L 145.226087 165.871887 
L 145.368792 165.762085 
L 145.511498 165.812573 
L 146.082319 165.214551 
L 146.439082 164.865314 
L 146.65314 164.673562 
L 146.795845 164.516096 
L 147.152609 164.403118 
L 147.72343 164.061586 
L 148.365604 164.644817 
L 148.651014 164.606044 
L 148.936425 164.688735 
L 149.150483 164.808455 
L 149.221835 164.804087 
L 149.578599 165.32804 
L 151.005652 165.517818 
L 151.50512 165.277045 
L 152.075941 164.987388 
L 152.218647 164.940521 
L 152.504057 164.757803 
L 153.360289 164.895887 
L 153.574347 164.969697 
L 153.717052 164.949059 
L 153.859757 164.954363 
L 154.145168 165.15708 
L 154.430579 165.082805 
L 154.930047 165.121315 
L 155.144105 165.069445 
L 155.358163 165.016412 
L 156.214395 164.242004 
L 156.428453 164.196708 
L 156.927921 163.434687 
L 157.641448 162.834775 
L 157.784153 162.93404 
L 157.998211 162.824072 
L 158.069564 162.844963 
L 158.212269 162.730633 
L 158.640385 162.868389 
L 158.997148 163.155848 
L 159.282559 163.411386 
L 159.496617 163.449806 
L 159.924732 163.574182 
L 160.13879 163.480588 
L 160.424201 163.847103 
L 160.995022 163.938132 
L 161.137727 163.71648 
L 161.20908 163.719613 
L 161.351785 163.595844 
L 161.494491 163.654491 
L 161.779901 163.54982 
L 161.922607 163.580515 
L 161.993959 163.566658 
L 162.136665 163.394293 
L 162.350722 163.562852 
L 162.493428 163.47607 
L 162.707486 163.316406 
L 164.562655 164.384743 
L 164.70536 164.452755 
L 164.99077 164.645683 
L 165.133476 164.588502 
L 165.204828 164.430676 
L 165.276181 164.49651 
L 165.632944 164.397837 
L 165.77565 164.379815 
L 166.275118 164.178234 
L 166.417823 164.050251 
L 166.489176 164.045752 
L 166.845939 163.482383 
L 167.059997 163.423801 
L 167.202703 163.170819 
L 167.345408 163.310427 
L 167.702171 163.22262 
L 167.844876 163.122981 
L 168.130287 163.197428 
L 168.344345 163.178836 
L 168.629755 163.364395 
L 168.915166 163.60198 
L 169.343282 163.911378 
L 169.414635 163.907727 
L 169.55734 164.030372 
L 169.84275 164.208826 
L 170.199514 164.556082 
L 170.342219 164.604394 
L 171.840625 164.88685 
L 172.054683 164.847504 
L 172.126035 164.844599 
L 172.26874 164.616115 
L 173.33903 165.545535 
L 173.838499 165.926361 
L 174.552025 166.722348 
L 174.766083 166.780552 
L 174.908788 166.807871 
L 175.194199 167.041832 
L 175.47961 166.989448 
L 175.76502 167.093475 
L 176.264489 166.93873 
L 176.407194 166.733518 
L 176.549899 166.7278 
L 176.83531 166.680251 
L 177.263426 166.453821 
L 177.477484 166.313553 
L 177.691542 166.43584 
L 178.119658 166.608897 
L 178.761831 167.006022 
L 178.904537 167.042438 
L 179.760768 168.076224 
L 179.903474 168.106442 
L 180.260237 168.61949 
L 180.474295 168.614364 
L 180.831058 169.074587 
L 182.186758 170.199982 
L 182.472169 170.427535 
L 182.614874 170.667575 
L 183.328401 171.893887 
L 185.040864 175.168728 
L 186.039801 176.463891 
L 186.111154 176.450927 
L 186.467917 176.811875 
L 186.681975 176.925844 
L 187.110091 177.336476 
L 187.181444 177.356814 
L 187.324149 177.602804 
L 187.395502 177.555849 
L 187.538207 177.61391 
L 187.966323 178.332511 
L 188.822555 179.376494 
L 189.964197 180.756336 
L 190.749076 180.828519 
L 191.248545 180.39468 
L 192.176129 178.606831 
L 193.603182 172.59022 
L 194.530766 166.88813 
L 195.601056 157.379275 
L 196.171877 151.278694 
L 196.671346 145.785132 
L 199.311394 113.516809 
L 200.881152 90.15973 
L 201.951442 72.362725 
L 202.522263 63.216387 
L 203.235789 53.839486 
L 203.877963 47.162137 
L 204.662842 43.705515 
L 204.8769 43.559137 
L 205.019606 43.673026 
L 205.162311 43.916836 
L 205.94719 47.467661 
L 206.589364 55.718766 
L 207.374243 68.948967 
L 209.015354 108.582738 
L 209.871586 131.601716 
L 212.012165 185.304608 
L 212.868397 201.230641 
L 213.581923 211.444783 
L 214.224097 218.375511 
L 214.723566 220.641389 
L 214.866271 220.763376 
L 215.008976 221.219107 
L 215.080329 221.269539 
L 215.151682 221.177533 
L 215.508445 219.687186 
L 215.65115 219.32348 
L 216.150619 215.613983 
L 217.506319 204.494566 
L 218.219845 200.547795 
L 218.719314 199.264661 
L 219.004724 199.177481 
L 219.218782 199.341624 
L 219.718251 200.002941 
L 220.003662 200.465825 
L 221.787478 207.316369 
L 223.357236 213.307731 
L 223.571294 213.721899 
L 223.856705 214.369421 
L 224.213468 214.642713 
L 224.498878 214.552532 
L 224.641584 214.382529 
L 225.0697 213.403867 
L 225.569168 211.247969 
L 226.139989 207.915617 
L 227.138926 200.587033 
L 228.351921 192.074525 
L 229.065448 187.970518 
L 229.636269 185.126267 
L 230.064385 182.924193 
L 230.706559 180.15606 
L 232.204964 173.911201 
L 233.203901 171.819497 
L 233.560665 171.604363 
L 233.846075 171.627082 
L 234.630954 172.031746 
L 235.130423 172.472677 
L 235.344481 172.394893 
L 235.558539 172.693892 
L 235.843949 172.595894 
L 236.058007 172.820247 
L 236.12936 172.748526 
L 236.200713 172.831937 
L 236.700181 172.712722 
L 236.842886 172.597095 
L 237.056944 172.531303 
L 238.698055 172.009746 
L 238.769408 172.099369 
L 238.84076 171.98999 
L 238.983466 172.071446 
L 240.267813 171.426942 
L 240.624577 171.004741 
L 240.838635 170.772235 
L 241.908924 169.306425 
L 243.121919 168.06283 
L 243.264625 168.073756 
L 243.40733 168.024379 
L 243.621388 167.958383 
L 243.978151 167.810977 
L 245.119793 167.08187 
L 245.405204 166.603083 
L 245.690615 166.271497 
L 246.832257 164.733285 
L 247.046315 164.481258 
L 247.403078 164.178743 
L 247.474431 164.178078 
L 247.688489 163.90901 
L 247.831194 163.857042 
L 248.116605 163.740281 
L 248.473368 163.686359 
L 248.830131 163.64666 
L 249.61501 163.477089 
L 250.6853 162.247984 
L 251.184768 161.347645 
L 251.470179 161.016538 
L 251.75559 160.545758 
L 252.469116 159.420975 
L 252.611821 159.383889 
L 252.968585 159.001028 
L 253.11129 158.939146 
L 253.468053 158.854763 
L 253.610758 158.769532 
L 253.682111 158.872503 
L 253.753464 158.754229 
L 253.824816 158.819839 
L 254.038874 158.895342 
L 254.609696 158.820982 
L 254.681048 158.903372 
L 254.752401 158.832394 
L 254.895106 158.842054 
L 255.180517 158.824259 
L 255.394575 158.726324 
L 255.965396 158.672994 
L 256.036748 158.801077 
L 256.108101 158.676273 
L 256.179454 158.85702 
L 256.250806 158.774034 
L 257.035686 159.019857 
L 257.606507 159.700895 
L 258.105975 160.970436 
L 258.248681 161.037922 
L 258.605444 162.467297 
L 259.176265 164.283722 
L 260.317907 167.707198 
L 260.817376 168.795733 
L 261.031434 169.148446 
L 262.030371 170.48687 
L 262.244429 170.590551 
L 262.601192 171.208544 
L 262.886603 171.408482 
L 262.957955 171.391228 
L 263.314719 172.232091 
L 263.457424 172.26732 
L 264.17095 173.026662 
L 264.670419 173.330417 
L 265.169887 173.33457 
L 265.455298 173.034092 
L 265.598003 173.186428 
L 265.669356 173.12345 
L 265.883414 172.747141 
L 266.168824 172.530742 
L 267.096409 171.672204 
L 267.453172 171.635067 
L 267.738583 171.657857 
L 267.952641 171.77138 
L 268.238051 171.946099 
L 269.665104 173.618084 
L 269.736457 173.620164 
L 270.021867 173.959462 
L 270.307278 174.011165 
L 270.592689 173.84301 
L 271.092157 173.472002 
L 271.44892 173.012909 
L 272.019741 171.950764 
L 273.018679 169.617288 
L 273.518147 168.325843 
L 274.160321 166.525342 
L 274.802495 164.679723 
L 275.016553 164.127188 
L 275.587374 162.339899 
L 276.158195 161.146198 
L 276.729016 160.291703 
L 277.157132 160.014715 
L 277.299837 160.065049 
L 277.37119 160.162455 
L 277.442543 160.109317 
L 277.585248 160.06606 
L 277.799306 160.197821 
L 280.225296 163.022801 
L 280.368001 163.02681 
L 280.439354 162.981609 
L 280.582059 163.045401 
L 281.795054 162.781771 
L 282.009112 162.661097 
L 282.437228 162.848922 
L 282.508581 162.965741 
L 282.579933 162.889642 
L 282.793991 162.847203 
L 283.150754 163.085677 
L 283.57887 163.526738 
L 283.792928 163.638994 
L 284.006986 163.905143 
L 284.221044 164.082011 
L 284.435102 164.204082 
L 284.720513 164.467027 
L 284.791865 164.439879 
L 285.005923 164.589472 
L 285.291334 164.454549 
L 285.434039 164.453734 
L 285.790802 164.274312 
L 287.146503 163.504153 
L 288.216792 163.611214 
L 288.716261 163.994754 
L 289.643845 164.768078 
L 289.786551 164.81041 
L 290.143314 165.008322 
L 290.357372 164.938837 
L 290.642782 164.793916 
L 291.070898 164.65347 
L 292.141188 163.935753 
L 292.283893 163.944594 
L 292.426599 163.969414 
L 292.569304 163.962347 
L 292.783362 163.771981 
L 292.99742 163.729286 
L 293.140125 163.743308 
L 293.568241 163.872548 
L 294.281767 163.922469 
L 294.424473 163.944986 
L 294.923941 164.012261 
L 296.279642 163.041614 
L 297.064521 162.692371 
L 297.421284 163.027061 
L 297.563989 163.058445 
L 297.706695 163.130539 
L 298.13481 163.700601 
L 298.277516 163.915634 
L 301.131622 169.95602 
L 301.702443 170.612495 
L 302.130559 170.950627 
L 302.344617 171.167767 
L 302.772732 171.273369 
L 302.844085 171.193993 
L 303.058143 171.31802 
L 303.343554 171.40599 
L 303.914375 171.255869 
L 304.485196 170.850827 
L 304.627901 170.725301 
L 304.770607 170.657391 
L 306.054954 168.934323 
L 306.982539 167.598187 
L 307.196597 167.440237 
L 308.266886 166.027737 
L 308.980413 165.084146 
L 310.336113 161.796872 
L 310.621524 160.877558 
L 311.834519 157.963067 
L 312.191282 157.467316 
L 313.047514 157.07221 
L 313.689688 157.449824 
L 314.474567 157.917936 
L 314.617272 157.949828 
L 314.759977 158.0326 
L 315.11674 157.935018 
L 315.402151 157.632495 
L 315.830267 157.168834 
L 317.471378 154.584815 
L 317.614083 154.377557 
L 317.970846 154.047306 
L 318.32761 153.768331 
L 318.755725 153.416038 
L 319.183841 153.043788 
L 320.254131 151.350706 
L 320.896305 149.410718 
L 323.536353 140.568621 
L 324.107174 139.362434 
L 324.749348 138.548996 
L 325.106111 138.675384 
L 325.462874 139.063997 
L 325.819638 140.01269 
L 326.247753 142.118846 
L 326.675869 145.280232 
L 327.103985 149.674644 
L 327.674806 157.057983 
L 329.886738 187.240275 
L 330.386207 190.823005 
L 330.885676 192.408649 
L 331.171086 192.716787 
L 331.456497 192.606102 
L 331.741907 192.209635 
L 332.098671 191.472373 
L 332.526786 190.088343 
L 335.737656 178.392213 
L 336.593887 174.838172 
L 337.521472 172.058724 
L 337.949588 171.294015 
L 338.306351 170.807233 
L 338.520409 170.615527 
L 339.09123 170.098239 
L 339.233935 170.051184 
L 339.590699 169.895327 
L 339.947462 169.593373 
L 340.589636 169.036082 
L 340.946399 168.501794 
L 341.588573 167.74556 
L 342.088041 167.288302 
L 342.159394 167.293811 
L 342.444804 167.036787 
L 342.801568 167.06837 
L 343.657799 167.477363 
L 344.799442 168.375705 
L 345.084852 168.517784 
L 345.227558 168.556154 
L 345.727026 168.512281 
L 346.654611 167.908385 
L 346.725963 167.929609 
L 346.797316 167.802351 
L 346.868669 167.858922 
L 346.940021 167.855146 
L 347.154079 167.496498 
L 347.296784 167.445469 
L 348.081664 167.003673 
L 348.153016 167.079148 
L 348.224369 167.004331 
L 349.151953 166.786077 
L 349.366011 166.680559 
L 349.508717 166.683379 
L 350.15089 166.164492 
L 350.436301 165.966896 
L 351.506591 164.659003 
L 351.649296 164.596579 
L 351.863354 164.483953 
L 352.077412 164.333774 
L 352.148764 164.368936 
L 352.362822 164.172794 
L 352.719586 164.345025 
L 353.147702 164.558179 
L 354.574754 166.124668 
L 354.71746 166.160163 
L 354.931518 166.356181 
L 355.074223 166.43284 
L 355.145576 166.527926 
L 355.216928 166.465923 
L 355.359634 166.512118 
L 355.430986 166.528349 
L 355.502339 166.41348 
L 355.573692 166.570698 
L 355.645044 166.481575 
L 355.716397 166.574697 
L 356.001807 166.23646 
L 356.643981 165.925415 
L 356.715334 165.954926 
L 356.929392 165.822407 
L 357.14345 165.698932 
L 357.357508 165.821859 
L 357.500213 165.643085 
L 358.142387 165.916099 
L 358.285092 165.727465 
L 358.49915 166.02701 
L 358.641855 166.179869 
L 358.855913 166.38614 
L 358.998619 166.246726 
L 359.498087 166.610609 
L 359.926203 166.512418 
L 360.068908 166.654702 
L 360.140261 166.528798 
L 360.211614 166.595064 
L 360.282966 166.721294 
L 360.639729 166.34856 
L 361.281903 165.959795 
L 361.495961 165.890008 
L 361.567314 165.923459 
L 361.781372 165.742594 
L 361.852724 165.821878 
L 362.066782 165.635711 
L 362.209488 165.663156 
L 362.352193 165.654745 
L 362.566251 165.662374 
L 363.35113 166.104566 
L 363.422483 166.121473 
L 363.707893 166.536539 
L 363.921951 166.654518 
L 364.136009 166.812719 
L 364.492772 167.043336 
L 364.70683 166.948041 
L 364.920888 167.124443 
L 365.206299 167.038041 
L 365.563062 166.679345 
L 366.276589 165.952641 
L 366.561999 165.482529 
L 366.990115 165.200679 
L 367.418231 164.940326 
L 367.489584 165.072443 
L 367.560936 165.030715 
L 367.632289 164.860619 
L 367.703642 164.893259 
L 367.9177 165.092038 
L 368.345815 165.535007 
L 368.488521 165.668551 
L 369.059342 166.587745 
L 369.130695 166.836714 
L 369.2734 166.663219 
L 369.344752 167.155485 
L 369.416105 167.073201 
L 369.55881 167.527057 
L 369.844221 168.23221 
L 369.915574 168.084042 
L 369.986926 168.378505 
L 370.058279 168.284707 
L 370.200984 168.521164 
L 370.914511 169.602361 
L 371.770742 170.380768 
L 371.9848 170.624274 
L 372.484269 170.957034 
L 372.555622 170.637515 
L 372.626974 170.897245 
L 372.698327 170.779086 
L 372.76968 170.789507 
L 372.841032 170.912885 
L 372.912385 170.829721 
L 372.983737 170.933249 
L 373.05509 170.88197 
L 373.126443 170.902533 
L 373.340501 170.77071 
L 373.483206 170.737563 
L 373.768617 170.564494 
L 373.982675 170.421544 
L 374.624848 169.504738 
L 374.767554 168.992712 
L 374.838906 169.029761 
L 374.981612 168.923879 
L 375.124317 168.75842 
L 375.338375 167.998382 
L 375.695138 167.254492 
L 376.765428 165.317542 
L 377.193544 164.912229 
L 377.62166 164.832787 
L 377.764365 165.143335 
L 377.835718 164.911165 
L 377.90707 165.115668 
L 377.978423 165.000126 
L 378.121128 165.140706 
L 378.192481 164.89543 
L 378.549244 165.544136 
L 378.620597 165.533589 
L 378.834655 165.761792 
L 379.334123 166.13886 
L 379.548181 166.300946 
L 379.690886 166.34981 
L 379.762239 166.577742 
L 379.833592 166.237307 
L 379.904944 166.325064 
L 380.119002 166.250767 
L 380.190355 166.393508 
L 380.261708 166.178141 
L 380.33306 166.387211 
L 380.404413 166.346486 
L 380.475765 166.053062 
L 380.547118 166.212255 
L 380.689823 165.845229 
L 380.761176 165.917717 
L 380.903881 165.766047 
L 380.975234 165.81376 
L 381.331997 165.44568 
L 381.546055 165.309503 
L 381.831466 165.169872 
L 382.259582 165.184859 
L 382.75905 165.487549 
L 383.401224 166.566697 
L 383.472577 166.249294 
L 383.972045 167.403974 
L 384.471514 168.092637 
L 385.042335 168.832112 
L 385.113688 168.508445 
L 385.18504 168.60478 
L 385.399098 168.394431 
L 385.470451 168.736498 
L 385.541803 168.577537 
L 385.684509 168.739596 
L 385.755861 168.415909 
L 385.827214 168.582117 
L 386.183977 168.199494 
L 386.326683 168.167961 
L 386.683446 167.84666 
L 387.32562 167.437214 
L 387.61103 167.39296 
L 387.682383 167.240635 
L 387.753735 167.526152 
L 387.825088 167.493165 
L 388.039146 167.601683 
L 388.181851 167.333111 
L 388.324557 167.714886 
L 388.395909 167.27482 
L 388.538615 167.615041 
L 388.609967 167.574014 
L 388.68132 167.84901 
L 388.824025 167.508005 
L 389.252141 168.344357 
L 389.394846 168.355642 
L 389.608904 168.700974 
L 390.03702 169.028983 
L 390.108373 168.922958 
L 390.179725 169.295205 
L 390.251078 169.270719 
L 390.393783 169.418279 
L 390.536489 169.41437 
L 390.607841 169.530367 
L 390.821899 169.344534 
L 390.893252 169.336967 
L 390.964605 169.532007 
L 391.035957 169.374757 
L 391.10731 169.576254 
L 391.178663 169.54788 
L 391.39272 169.448645 
L 391.535426 169.339031 
L 391.606778 169.55141 
L 391.678131 169.498323 
L 392.534363 169.804649 
L 392.748421 170.082899 
L 392.819773 169.782247 
L 392.891126 169.88015 
L 392.962479 169.935587 
L 393.105184 170.15966 
L 393.247889 170.199287 
L 393.390595 170.497512 
L 393.461947 170.375532 
L 394.032768 171.158239 
L 394.104121 171.047547 
L 394.175474 171.178159 
L 394.246826 171.542176 
L 394.318179 171.413737 
L 394.746295 171.951172 
L 395.174411 172.184935 
L 395.388469 172.52739 
L 395.459821 172.102703 
L 395.531174 172.176298 
L 395.673879 172.578581 
L 395.816585 172.211481 
L 395.95929 172.479949 
L 396.030643 172.37227 
L 396.244701 172.77733 
L 396.316053 172.693267 
L 396.387406 172.756504 
L 396.530111 172.9049 
L 396.672816 172.921807 
L 396.815522 173.192511 
L 396.886874 173.015126 
L 397.02958 173.296221 
L 397.100932 173.24298 
L 397.457696 173.70713 
L 397.529048 173.735991 
L 397.743106 174.255094 
L 398.028517 174.925649 
L 398.099869 174.607697 
L 398.171222 174.744602 
L 398.742043 175.75848 
L 398.813396 175.490763 
L 399.098806 176.292922 
L 399.241512 176.243154 
L 399.384217 176.376013 
L 399.526922 176.238943 
L 399.669628 176.558174 
L 399.74098 176.29294 
L 399.812333 176.373934 
L 399.955038 176.713026 
L 400.311801 176.194033 
L 400.668565 176.316532 
L 400.81127 175.780157 
L 400.882623 175.791676 
L 400.953975 176.013224 
L 401.168033 175.457904 
L 401.239386 175.644523 
L 401.382091 175.406629 
L 401.596149 175.407691 
L 401.667502 175.425425 
L 401.88156 175.053783 
L 401.952912 175.120909 
L 402.024265 175.383346 
L 402.16697 175.13014 
L 402.309676 175.543758 
L 402.381028 175.260331 
L 402.452381 175.323649 
L 402.523733 175.334535 
L 402.666439 175.723888 
L 402.809144 175.858535 
L 402.880497 175.890428 
L 403.308613 176.799963 
L 403.379965 176.523084 
L 403.522671 177.113415 
L 403.594023 177.546885 
L 403.665376 177.424003 
L 403.736728 177.473704 
L 404.093492 178.4999 
L 404.664313 180.14729 
L 404.735666 179.971187 
L 404.807018 180.07519 
L 405.092429 180.952 
L 405.163781 180.970397 
L 405.306487 181.68456 
L 406.73354 185.341662 
L 407.803829 190.598408 
L 408.160593 193.262751 
L 409.088177 201.298149 
L 409.44494 205.110408 
L 409.587646 206.57925 
L 411.228756 226.610155 
L 412.584457 247.062906 
L 414.867741 285.45225 
L 414.867741 285.45225 
" clip-path="url(#p8e7a7c8e22)" style="fill: none; stroke: #1f77b4; stroke-width: 1.5; stroke-linecap: square"/>
   </g>
   <g id="patch_3">
    <path d="M 73.980469 297.54825 
L 73.980469 31.43625 
" style="fill: none; stroke: #000000; stroke-width: 0.8; stroke-linejoin: miter; stroke-linecap: square"/>
   </g>
   <g id="patch_4">
    <path d="M 431.100469 297.54825 
L 431.100469 31.43625 
" style="fill: none; stroke: #000000; stroke-width: 0.8; stroke-linejoin: miter; stroke-linecap: square"/>
   </g>
   <g id="patch_5">
    <path d="M 73.980469 297.54825 
L 431.100469 297.54825 
" style="fill: none; stroke: #000000; stroke-width: 0.8; stroke-linejoin: miter; stroke-linecap: square"/>
   </g>
   <g id="patch_6">
    <path d="M 73.980469 31.43625 
L 431.100469 31.43625 
" style="fill: none; stroke: #000000; stroke-width: 0.8; stroke-linejoin: miter; stroke-linecap: square"/>
   </g>
   <g id="text_15">
    <!-- RF Field Axial Curvature -->
    <g transform="translate(109.095469 25.43625)scale(0.24 -0.24)">
     <defs>
      <path id="DejaVuSans-52" d="M 2841 2188 
Q 3044 2119 3236 1894 
Q 3428 1669 3622 1275 
L 4263 0 
L 3584 0 
L 2988 1197 
Q 2756 1666 2539 1819 
Q 2322 1972 1947 1972 
L 1259 1972 
L 1259 0 
L 628 0 
L 628 4666 
L 2053 4666 
Q 2853 4666 3247 4331 
Q 3641 3997 3641 3322 
Q 3641 2881 3436 2590 
Q 3231 2300 2841 2188 
z
M 1259 4147 
L 1259 2491 
L 2053 2491 
Q 2509 2491 2742 2702 
Q 2975 2913 2975 3322 
Q 2975 3731 2742 3939 
Q 2509 4147 2053 4147 
L 1259 4147 
z
" transform="scale(0.015625)"/>
      <path id="DejaVuSans-46" d="M 628 4666 
L 3309 4666 
L 3309 4134 
L 1259 4134 
L 1259 2759 
L 3109 2759 
L 3109 2228 
L 1259 2228 
L 1259 0 
L 628 0 
L 628 4666 
z
" transform="scale(0.015625)"/>
      <path id="DejaVuSans-69" d="M 603 3500 
L 1178 3500 
L 1178 0 
L 603 0 
L 603 3500 
z
M 603 4863 
L 1178 4863 
L 1178 4134 
L 603 4134 
L 603 4863 
z
" transform="scale(0.015625)"/>
      <path id="DejaVuSans-65" d="M 3597 1894 
L 3597 1613 
L 953 1613 
Q 991 1019 1311 708 
Q 1631 397 2203 397 
Q 2534 397 2845 478 
Q 3156 559 3463 722 
L 3463 178 
Q 3153 47 2828 -22 
Q 2503 -91 2169 -91 
Q 1331 -91 842 396 
Q 353 884 353 1716 
Q 353 2575 817 3079 
Q 1281 3584 2069 3584 
Q 2775 3584 3186 3129 
Q 3597 2675 3597 1894 
z
M 3022 2063 
Q 3016 2534 2758 2815 
Q 2500 3097 2075 3097 
Q 1594 3097 1305 2825 
Q 1016 2553 972 2059 
L 3022 2063 
z
" transform="scale(0.015625)"/>
      <path id="DejaVuSans-6c" d="M 603 4863 
L 1178 4863 
L 1178 0 
L 603 0 
L 603 4863 
z
" transform="scale(0.015625)"/>
      <path id="DejaVuSans-64" d="M 2906 2969 
L 2906 4863 
L 3481 4863 
L 3481 0 
L 2906 0 
L 2906 525 
Q 2725 213 2448 61 
Q 2172 -91 1784 -91 
Q 1150 -91 751 415 
Q 353 922 353 1747 
Q 353 2572 751 3078 
Q 1150 3584 1784 3584 
Q 2172 3584 2448 3432 
Q 2725 3281 2906 2969 
z
M 947 1747 
Q 947 1113 1208 752 
Q 1469 391 1925 391 
Q 2381 391 2643 752 
Q 2906 1113 2906 1747 
Q 2906 2381 2643 2742 
Q 2381 3103 1925 3103 
Q 1469 3103 1208 2742 
Q 947 2381 947 1747 
z
" transform="scale(0.015625)"/>
      <path id="DejaVuSans-41" d="M 2188 4044 
L 1331 1722 
L 3047 1722 
L 2188 4044 
z
M 1831 4666 
L 2547 4666 
L 4325 0 
L 3669 0 
L 3244 1197 
L 1141 1197 
L 716 0 
L 50 0 
L 1831 4666 
z
" transform="scale(0.015625)"/>
      <path id="DejaVuSans-78" d="M 3513 3500 
L 2247 1797 
L 3578 0 
L 2900 0 
L 1881 1375 
L 863 0 
L 184 0 
L 1544 1831 
L 300 3500 
L 978 3500 
L 1906 2253 
L 2834 3500 
L 3513 3500 
z
" transform="scale(0.015625)"/>
      <path id="DejaVuSans-61" d="M 2194 1759 
Q 1497 1759 1228 1600 
Q 959 1441 959 1056 
Q 959 750 1161 570 
Q 1363 391 1709 391 
Q 2188 391 2477 730 
Q 2766 1069 2766 1631 
L 2766 1759 
L 2194 1759 
z
M 3341 1997 
L 3341 0 
L 2766 0 
L 2766 531 
Q 2569 213 2275 61 
Q 1981 -91 1556 -91 
Q 1019 -91 701 211 
Q 384 513 384 1019 
Q 384 1609 779 1909 
Q 1175 2209 1959 2209 
L 2766 2209 
L 2766 2266 
Q 2766 2663 2505 2880 
Q 2244 3097 1772 3097 
Q 1472 3097 1187 3025 
Q 903 2953 641 2809 
L 641 3341 
Q 956 3463 1253 3523 
Q 1550 3584 1831 3584 
Q 2591 3584 2966 3190 
Q 3341 2797 3341 1997 
z
" transform="scale(0.015625)"/>
      <path id="DejaVuSans-43" d="M 4122 4306 
L 4122 3641 
Q 3803 3938 3442 4084 
Q 3081 4231 2675 4231 
Q 1875 4231 1450 3742 
Q 1025 3253 1025 2328 
Q 1025 1406 1450 917 
Q 1875 428 2675 428 
Q 3081 428 3442 575 
Q 3803 722 4122 1019 
L 4122 359 
Q 3791 134 3420 21 
Q 3050 -91 2638 -91 
Q 1578 -91 968 557 
Q 359 1206 359 2328 
Q 359 3453 968 4101 
Q 1578 4750 2638 4750 
Q 3056 4750 3426 4639 
Q 3797 4528 4122 4306 
z
" transform="scale(0.015625)"/>
      <path id="DejaVuSans-75" d="M 544 1381 
L 544 3500 
L 1119 3500 
L 1119 1403 
Q 1119 906 1312 657 
Q 1506 409 1894 409 
Q 2359 409 2629 706 
Q 2900 1003 2900 1516 
L 2900 3500 
L 3475 3500 
L 3475 0 
L 2900 0 
L 2900 538 
Q 2691 219 2414 64 
Q 2138 -91 1772 -91 
Q 1169 -91 856 284 
Q 544 659 544 1381 
z
M 1991 3584 
L 1991 3584 
z
" transform="scale(0.015625)"/>
      <path id="DejaVuSans-72" d="M 2631 2963 
Q 2534 3019 2420 3045 
Q 2306 3072 2169 3072 
Q 1681 3072 1420 2755 
Q 1159 2438 1159 1844 
L 1159 0 
L 581 0 
L 581 3500 
L 1159 3500 
L 1159 2956 
Q 1341 3275 1631 3429 
Q 1922 3584 2338 3584 
Q 2397 3584 2469 3576 
Q 2541 3569 2628 3553 
L 2631 2963 
z
" transform="scale(0.015625)"/>
      <path id="DejaVuSans-76" d="M 191 3500 
L 800 3500 
L 1894 563 
L 2988 3500 
L 3597 3500 
L 2284 0 
L 1503 0 
L 191 3500 
z
" transform="scale(0.015625)"/>
      <path id="DejaVuSans-74" d="M 1172 4494 
L 1172 3500 
L 2356 3500 
L 2356 3053 
L 1172 3053 
L 1172 1153 
Q 1172 725 1289 603 
Q 1406 481 1766 481 
L 2356 481 
L 2356 0 
L 1766 0 
Q 1100 0 847 248 
Q 594 497 594 1153 
L 594 3053 
L 172 3053 
L 172 3500 
L 594 3500 
L 594 4494 
L 1172 4494 
z
" transform="scale(0.015625)"/>
     </defs>
     <use xlink:href="#DejaVuSans-52"/>
     <use xlink:href="#DejaVuSans-46" x="69.482422"/>
     <use xlink:href="#DejaVuSans-20" x="127.001953"/>
     <use xlink:href="#DejaVuSans-46" x="158.789062"/>
     <use xlink:href="#DejaVuSans-69" x="209.058594"/>
     <use xlink:href="#DejaVuSans-65" x="236.841797"/>
     <use xlink:href="#DejaVuSans-6c" x="298.365234"/>
     <use xlink:href="#DejaVuSans-64" x="326.148438"/>
     <use xlink:href="#DejaVuSans-20" x="389.625"/>
     <use xlink:href="#DejaVuSans-41" x="421.412109"/>
     <use xlink:href="#DejaVuSans-78" x="489.820312"/>
     <use xlink:href="#DejaVuSans-69" x="549"/>
     <use xlink:href="#DejaVuSans-61" x="576.783203"/>
     <use xlink:href="#DejaVuSans-6c" x="638.0625"/>
     <use xlink:href="#DejaVuSans-20" x="665.845703"/>
     <use xlink:href="#DejaVuSans-43" x="697.632812"/>
     <use xlink:href="#DejaVuSans-75" x="767.457031"/>
     <use xlink:href="#DejaVuSans-72" x="830.835938"/>
     <use xlink:href="#DejaVuSans-76" x="871.949219"/>
     <use xlink:href="#DejaVuSans-61" x="931.128906"/>
     <use xlink:href="#DejaVuSans-74" x="992.408203"/>
     <use xlink:href="#DejaVuSans-75" x="1031.617188"/>
     <use xlink:href="#DejaVuSans-72" x="1094.996094"/>
     <use xlink:href="#DejaVuSans-65" x="1133.859375"/>
    </g>
   </g>
   <g id="legend_1">
    <g id="patch_7">
     <path d="M 330.900469 76.7925 
L 417.100469 76.7925 
Q 421.100469 76.7925 421.100469 72.7925 
L 421.100469 45.43625 
Q 421.100469 41.43625 417.100469 41.43625 
L 330.900469 41.43625 
Q 326.900469 41.43625 326.900469 45.43625 
L 326.900469 72.7925 
Q 326.900469 76.7925 330.900469 76.7925 
z
" style="fill: #ffffff; opacity: 0.8; stroke: #cccccc; stroke-linejoin: miter"/>
    </g>
    <g id="line2d_26">
     <path d="M 334.900469 57.633125 
L 354.900469 57.633125 
L 374.900469 57.633125 
" style="fill: none; stroke: #1f77b4; stroke-width: 1.5; stroke-linecap: square"/>
    </g>
    <g id="text_16">
     <!-- $x^2$ -->
     <g transform="translate(390.900469 64.633125)scale(0.2 -0.2)">
      <defs>
       <path id="DejaVuSans-Oblique-78" d="M 3841 3500 
L 2234 1784 
L 3219 0 
L 2559 0 
L 1819 1388 
L 531 0 
L -166 0 
L 1556 1844 
L 641 3500 
L 1300 3500 
L 1972 2234 
L 3144 3500 
L 3841 3500 
z
" transform="scale(0.015625)"/>
      </defs>
      <use xlink:href="#DejaVuSans-Oblique-78" transform="translate(0 0.765625)"/>
      <use xlink:href="#DejaVuSans-32" transform="translate(63.645833 39.046875)scale(0.7)"/>
     </g>
    </g>
   </g>
  </g>
 </g>
 <defs>
  <clipPath id="p8e7a7c8e22">
   <rect x="73.980469" y="31.43625" width="357.12" height="266.112"/>
  </clipPath>
 </defs>
</svg>
