<?xml version="1.0" encoding="utf-8" standalone="no"?>
<!DOCTYPE svg PUBLIC "-//W3C//DTD SVG 1.1//EN"
  "http://www.w3.org/Graphics/SVG/1.1/DTD/svg11.dtd">
<svg xmlns:xlink="http://www.w3.org/1999/xlink" width="447.844219pt" height="349.665437pt" viewBox="0 0 447.844219 349.665437" xmlns="http://www.w3.org/2000/svg" version="1.1">
 <defs>
  <style type="text/css">*{stroke-linejoin: round; stroke-linecap: butt}</style>
 </defs>
 <g id="figure_1">
  <g id="patch_1">
   <path d="M 0 349.665437 
L 447.844219 349.665437 
L 447.844219 0 
L 0 0 
L 0 349.665437 
z
" style="fill: none"/>
  </g>
  <g id="axes_1">
   <g id="patch_2">
    <path d="M 83.524219 297.54825 
L 440.644219 297.54825 
L 440.644219 31.43625 
L 83.524219 31.43625 
L 83.524219 297.54825 
z
" style="fill: none"/>
   </g>
   <g id="matplotlib.axis_1">
    <g id="xtick_1">
     <g id="line2d_1">
      <path d="M 123.933348 297.54825 
L 123.933348 31.43625 
" clip-path="url(#p2592da7fbd)" style="fill: none; stroke: #b0b0b0; stroke-width: 0.8; stroke-linecap: square"/>
     </g>
     <g id="line2d_2">
      <defs>
       <path id="md39032bed2" d="M 0 0 
L 0 3.5 
" style="stroke: #000000; stroke-width: 0.8"/>
      </defs>
      <g>
       <use xlink:href="#md39032bed2" x="123.933348" y="297.54825" style="stroke: #000000; stroke-width: 0.8"/>
      </g>
     </g>
     <g id="text_1">
      <!-- −2000 -->
      <g transform="translate(98.561083 315.945906)scale(0.15 -0.15)">
       <defs>
        <path id="DejaVuSans-2212" d="M 678 2272 
L 4684 2272 
L 4684 1741 
L 678 1741 
L 678 2272 
z
" transform="scale(0.015625)"/>
        <path id="DejaVuSans-32" d="M 1228 531 
L 3431 531 
L 3431 0 
L 469 0 
L 469 531 
Q 828 903 1448 1529 
Q 2069 2156 2228 2338 
Q 2531 2678 2651 2914 
Q 2772 3150 2772 3378 
Q 2772 3750 2511 3984 
Q 2250 4219 1831 4219 
Q 1534 4219 1204 4116 
Q 875 4013 500 3803 
L 500 4441 
Q 881 4594 1212 4672 
Q 1544 4750 1819 4750 
Q 2544 4750 2975 4387 
Q 3406 4025 3406 3419 
Q 3406 3131 3298 2873 
Q 3191 2616 2906 2266 
Q 2828 2175 2409 1742 
Q 1991 1309 1228 531 
z
" transform="scale(0.015625)"/>
        <path id="DejaVuSans-30" d="M 2034 4250 
Q 1547 4250 1301 3770 
Q 1056 3291 1056 2328 
Q 1056 1369 1301 889 
Q 1547 409 2034 409 
Q 2525 409 2770 889 
Q 3016 1369 3016 2328 
Q 3016 3291 2770 3770 
Q 2525 4250 2034 4250 
z
M 2034 4750 
Q 2819 4750 3233 4129 
Q 3647 3509 3647 2328 
Q 3647 1150 3233 529 
Q 2819 -91 2034 -91 
Q 1250 -91 836 529 
Q 422 1150 422 2328 
Q 422 3509 836 4129 
Q 1250 4750 2034 4750 
z
" transform="scale(0.015625)"/>
       </defs>
       <use xlink:href="#DejaVuSans-2212"/>
       <use xlink:href="#DejaVuSans-32" x="83.789062"/>
       <use xlink:href="#DejaVuSans-30" x="147.412109"/>
       <use xlink:href="#DejaVuSans-30" x="211.035156"/>
       <use xlink:href="#DejaVuSans-30" x="274.658203"/>
      </g>
     </g>
    </g>
    <g id="xtick_2">
     <g id="line2d_3">
      <path d="M 193.008784 297.54825 
L 193.008784 31.43625 
" clip-path="url(#p2592da7fbd)" style="fill: none; stroke: #b0b0b0; stroke-width: 0.8; stroke-linecap: square"/>
     </g>
     <g id="line2d_4">
      <g>
       <use xlink:href="#md39032bed2" x="193.008784" y="297.54825" style="stroke: #000000; stroke-width: 0.8"/>
      </g>
     </g>
     <g id="text_2">
      <!-- −1000 -->
      <g transform="translate(167.636518 315.945906)scale(0.15 -0.15)">
       <defs>
        <path id="DejaVuSans-31" d="M 794 531 
L 1825 531 
L 1825 4091 
L 703 3866 
L 703 4441 
L 1819 4666 
L 2450 4666 
L 2450 531 
L 3481 531 
L 3481 0 
L 794 0 
L 794 531 
z
" transform="scale(0.015625)"/>
       </defs>
       <use xlink:href="#DejaVuSans-2212"/>
       <use xlink:href="#DejaVuSans-31" x="83.789062"/>
       <use xlink:href="#DejaVuSans-30" x="147.412109"/>
       <use xlink:href="#DejaVuSans-30" x="211.035156"/>
       <use xlink:href="#DejaVuSans-30" x="274.658203"/>
      </g>
     </g>
    </g>
    <g id="xtick_3">
     <g id="line2d_5">
      <path d="M 262.084219 297.54825 
L 262.084219 31.43625 
" clip-path="url(#p2592da7fbd)" style="fill: none; stroke: #b0b0b0; stroke-width: 0.8; stroke-linecap: square"/>
     </g>
     <g id="line2d_6">
      <g>
       <use xlink:href="#md39032bed2" x="262.084219" y="297.54825" style="stroke: #000000; stroke-width: 0.8"/>
      </g>
     </g>
     <g id="text_3">
      <!-- 0 -->
      <g transform="translate(257.312344 315.945906)scale(0.15 -0.15)">
       <use xlink:href="#DejaVuSans-30"/>
      </g>
     </g>
    </g>
    <g id="xtick_4">
     <g id="line2d_7">
      <path d="M 331.159654 297.54825 
L 331.159654 31.43625 
" clip-path="url(#p2592da7fbd)" style="fill: none; stroke: #b0b0b0; stroke-width: 0.8; stroke-linecap: square"/>
     </g>
     <g id="line2d_8">
      <g>
       <use xlink:href="#md39032bed2" x="331.159654" y="297.54825" style="stroke: #000000; stroke-width: 0.8"/>
      </g>
     </g>
     <g id="text_4">
      <!-- 1000 -->
      <g transform="translate(312.072154 315.945906)scale(0.15 -0.15)">
       <use xlink:href="#DejaVuSans-31"/>
       <use xlink:href="#DejaVuSans-30" x="63.623047"/>
       <use xlink:href="#DejaVuSans-30" x="127.246094"/>
       <use xlink:href="#DejaVuSans-30" x="190.869141"/>
      </g>
     </g>
    </g>
    <g id="xtick_5">
     <g id="line2d_9">
      <path d="M 400.235089 297.54825 
L 400.235089 31.43625 
" clip-path="url(#p2592da7fbd)" style="fill: none; stroke: #b0b0b0; stroke-width: 0.8; stroke-linecap: square"/>
     </g>
     <g id="line2d_10">
      <g>
       <use xlink:href="#md39032bed2" x="400.235089" y="297.54825" style="stroke: #000000; stroke-width: 0.8"/>
      </g>
     </g>
     <g id="text_5">
      <!-- 2000 -->
      <g transform="translate(381.147589 315.945906)scale(0.15 -0.15)">
       <use xlink:href="#DejaVuSans-32"/>
       <use xlink:href="#DejaVuSans-30" x="63.623047"/>
       <use xlink:href="#DejaVuSans-30" x="127.246094"/>
       <use xlink:href="#DejaVuSans-30" x="190.869141"/>
      </g>
     </g>
    </g>
    <g id="text_6">
     <!-- X ($\mu m$) -->
     <g transform="translate(228.084219 338.265437)scale(0.2 -0.2)">
      <defs>
       <path id="DejaVuSans-58" d="M 403 4666 
L 1081 4666 
L 2241 2931 
L 3406 4666 
L 4084 4666 
L 2584 2425 
L 4184 0 
L 3506 0 
L 2194 1984 
L 872 0 
L 191 0 
L 1856 2491 
L 403 4666 
z
" transform="scale(0.015625)"/>
       <path id="DejaVuSans-20" transform="scale(0.015625)"/>
       <path id="DejaVuSans-28" d="M 1984 4856 
Q 1566 4138 1362 3434 
Q 1159 2731 1159 2009 
Q 1159 1288 1364 580 
Q 1569 -128 1984 -844 
L 1484 -844 
Q 1016 -109 783 600 
Q 550 1309 550 2009 
Q 550 2706 781 3412 
Q 1013 4119 1484 4856 
L 1984 4856 
z
" transform="scale(0.015625)"/>
       <path id="DejaVuSans-Oblique-3bc" d="M -84 -1331 
L 856 3500 
L 1434 3500 
L 1009 1322 
Q 997 1256 987 1175 
Q 978 1094 978 1013 
Q 978 722 1161 565 
Q 1344 409 1684 409 
Q 2147 409 2431 671 
Q 2716 934 2816 1459 
L 3213 3500 
L 3788 3500 
L 3266 809 
Q 3253 750 3248 706 
Q 3244 663 3244 628 
Q 3244 531 3283 486 
Q 3322 441 3406 441 
Q 3438 441 3492 456 
Q 3547 472 3647 513 
L 3559 50 
Q 3422 -19 3297 -55 
Q 3172 -91 3053 -91 
Q 2847 -91 2730 40 
Q 2613 172 2613 403 
Q 2438 153 2195 31 
Q 1953 -91 1625 -91 
Q 1334 -91 1117 43 
Q 900 178 831 397 
L 494 -1331 
L -84 -1331 
z
" transform="scale(0.015625)"/>
       <path id="DejaVuSans-Oblique-6d" d="M 5747 2113 
L 5338 0 
L 4763 0 
L 5166 2094 
Q 5191 2228 5203 2325 
Q 5216 2422 5216 2491 
Q 5216 2772 5059 2928 
Q 4903 3084 4622 3084 
Q 4203 3084 3875 2770 
Q 3547 2456 3450 1953 
L 3066 0 
L 2491 0 
L 2900 2094 
Q 2925 2209 2937 2307 
Q 2950 2406 2950 2484 
Q 2950 2769 2794 2926 
Q 2638 3084 2363 3084 
Q 1938 3084 1609 2770 
Q 1281 2456 1184 1953 
L 800 0 
L 225 0 
L 909 3500 
L 1484 3500 
L 1375 2956 
Q 1609 3263 1923 3423 
Q 2238 3584 2597 3584 
Q 2978 3584 3223 3384 
Q 3469 3184 3519 2828 
Q 3781 3197 4126 3390 
Q 4472 3584 4856 3584 
Q 5306 3584 5551 3325 
Q 5797 3066 5797 2591 
Q 5797 2488 5784 2364 
Q 5772 2241 5747 2113 
z
" transform="scale(0.015625)"/>
       <path id="DejaVuSans-29" d="M 513 4856 
L 1013 4856 
Q 1481 4119 1714 3412 
Q 1947 2706 1947 2009 
Q 1947 1309 1714 600 
Q 1481 -109 1013 -844 
L 513 -844 
Q 928 -128 1133 580 
Q 1338 1288 1338 2009 
Q 1338 2731 1133 3434 
Q 928 4138 513 4856 
z
" transform="scale(0.015625)"/>
      </defs>
      <use xlink:href="#DejaVuSans-58" transform="translate(0 0.125)"/>
      <use xlink:href="#DejaVuSans-20" transform="translate(68.505859 0.125)"/>
      <use xlink:href="#DejaVuSans-28" transform="translate(100.292969 0.125)"/>
      <use xlink:href="#DejaVuSans-Oblique-3bc" transform="translate(139.306641 0.125)"/>
      <use xlink:href="#DejaVuSans-Oblique-6d" transform="translate(202.929688 0.125)"/>
      <use xlink:href="#DejaVuSans-29" transform="translate(300.341797 0.125)"/>
     </g>
    </g>
   </g>
   <g id="matplotlib.axis_2">
    <g id="ytick_1">
     <g id="line2d_11">
      <path d="M 83.524219 297.54825 
L 440.644219 297.54825 
" clip-path="url(#p2592da7fbd)" style="fill: none; stroke: #b0b0b0; stroke-width: 0.8; stroke-linecap: square"/>
     </g>
     <g id="line2d_12">
      <defs>
       <path id="m6f3f5b6aff" d="M 0 0 
L -3.5 0 
" style="stroke: #000000; stroke-width: 0.8"/>
      </defs>
      <g>
       <use xlink:href="#m6f3f5b6aff" x="83.524219" y="297.54825" style="stroke: #000000; stroke-width: 0.8"/>
      </g>
     </g>
     <g id="text_7">
      <!-- −0.20 -->
      <g transform="translate(30.55625 303.247078)scale(0.15 -0.15)">
       <defs>
        <path id="DejaVuSans-2e" d="M 684 794 
L 1344 794 
L 1344 0 
L 684 0 
L 684 794 
z
" transform="scale(0.015625)"/>
       </defs>
       <use xlink:href="#DejaVuSans-2212"/>
       <use xlink:href="#DejaVuSans-30" x="83.789062"/>
       <use xlink:href="#DejaVuSans-2e" x="147.412109"/>
       <use xlink:href="#DejaVuSans-32" x="179.199219"/>
       <use xlink:href="#DejaVuSans-30" x="242.822266"/>
      </g>
     </g>
    </g>
    <g id="ytick_2">
     <g id="line2d_13">
      <path d="M 83.524219 264.28425 
L 440.644219 264.28425 
" clip-path="url(#p2592da7fbd)" style="fill: none; stroke: #b0b0b0; stroke-width: 0.8; stroke-linecap: square"/>
     </g>
     <g id="line2d_14">
      <g>
       <use xlink:href="#m6f3f5b6aff" x="83.524219" y="264.28425" style="stroke: #000000; stroke-width: 0.8"/>
      </g>
     </g>
     <g id="text_8">
      <!-- −0.15 -->
      <g transform="translate(30.55625 269.983078)scale(0.15 -0.15)">
       <defs>
        <path id="DejaVuSans-35" d="M 691 4666 
L 3169 4666 
L 3169 4134 
L 1269 4134 
L 1269 2991 
Q 1406 3038 1543 3061 
Q 1681 3084 1819 3084 
Q 2600 3084 3056 2656 
Q 3513 2228 3513 1497 
Q 3513 744 3044 326 
Q 2575 -91 1722 -91 
Q 1428 -91 1123 -41 
Q 819 9 494 109 
L 494 744 
Q 775 591 1075 516 
Q 1375 441 1709 441 
Q 2250 441 2565 725 
Q 2881 1009 2881 1497 
Q 2881 1984 2565 2268 
Q 2250 2553 1709 2553 
Q 1456 2553 1204 2497 
Q 953 2441 691 2322 
L 691 4666 
z
" transform="scale(0.015625)"/>
       </defs>
       <use xlink:href="#DejaVuSans-2212"/>
       <use xlink:href="#DejaVuSans-30" x="83.789062"/>
       <use xlink:href="#DejaVuSans-2e" x="147.412109"/>
       <use xlink:href="#DejaVuSans-31" x="179.199219"/>
       <use xlink:href="#DejaVuSans-35" x="242.822266"/>
      </g>
     </g>
    </g>
    <g id="ytick_3">
     <g id="line2d_15">
      <path d="M 83.524219 231.02025 
L 440.644219 231.02025 
" clip-path="url(#p2592da7fbd)" style="fill: none; stroke: #b0b0b0; stroke-width: 0.8; stroke-linecap: square"/>
     </g>
     <g id="line2d_16">
      <g>
       <use xlink:href="#m6f3f5b6aff" x="83.524219" y="231.02025" style="stroke: #000000; stroke-width: 0.8"/>
      </g>
     </g>
     <g id="text_9">
      <!-- −0.10 -->
      <g transform="translate(30.55625 236.719078)scale(0.15 -0.15)">
       <use xlink:href="#DejaVuSans-2212"/>
       <use xlink:href="#DejaVuSans-30" x="83.789062"/>
       <use xlink:href="#DejaVuSans-2e" x="147.412109"/>
       <use xlink:href="#DejaVuSans-31" x="179.199219"/>
       <use xlink:href="#DejaVuSans-30" x="242.822266"/>
      </g>
     </g>
    </g>
    <g id="ytick_4">
     <g id="line2d_17">
      <path d="M 83.524219 197.75625 
L 440.644219 197.75625 
" clip-path="url(#p2592da7fbd)" style="fill: none; stroke: #b0b0b0; stroke-width: 0.8; stroke-linecap: square"/>
     </g>
     <g id="line2d_18">
      <g>
       <use xlink:href="#m6f3f5b6aff" x="83.524219" y="197.75625" style="stroke: #000000; stroke-width: 0.8"/>
      </g>
     </g>
     <g id="text_10">
      <!-- −0.05 -->
      <g transform="translate(30.55625 203.455078)scale(0.15 -0.15)">
       <use xlink:href="#DejaVuSans-2212"/>
       <use xlink:href="#DejaVuSans-30" x="83.789062"/>
       <use xlink:href="#DejaVuSans-2e" x="147.412109"/>
       <use xlink:href="#DejaVuSans-30" x="179.199219"/>
       <use xlink:href="#DejaVuSans-35" x="242.822266"/>
      </g>
     </g>
    </g>
    <g id="ytick_5">
     <g id="line2d_19">
      <path d="M 83.524219 164.49225 
L 440.644219 164.49225 
" clip-path="url(#p2592da7fbd)" style="fill: none; stroke: #b0b0b0; stroke-width: 0.8; stroke-linecap: square"/>
     </g>
     <g id="line2d_20">
      <g>
       <use xlink:href="#m6f3f5b6aff" x="83.524219" y="164.49225" style="stroke: #000000; stroke-width: 0.8"/>
      </g>
     </g>
     <g id="text_11">
      <!-- 0.00 -->
      <g transform="translate(43.125781 170.191078)scale(0.15 -0.15)">
       <use xlink:href="#DejaVuSans-30"/>
       <use xlink:href="#DejaVuSans-2e" x="63.623047"/>
       <use xlink:href="#DejaVuSans-30" x="95.410156"/>
       <use xlink:href="#DejaVuSans-30" x="159.033203"/>
      </g>
     </g>
    </g>
    <g id="ytick_6">
     <g id="line2d_21">
      <path d="M 83.524219 131.22825 
L 440.644219 131.22825 
" clip-path="url(#p2592da7fbd)" style="fill: none; stroke: #b0b0b0; stroke-width: 0.8; stroke-linecap: square"/>
     </g>
     <g id="line2d_22">
      <g>
       <use xlink:href="#m6f3f5b6aff" x="83.524219" y="131.22825" style="stroke: #000000; stroke-width: 0.8"/>
      </g>
     </g>
     <g id="text_12">
      <!-- 0.05 -->
      <g transform="translate(43.125781 136.927078)scale(0.15 -0.15)">
       <use xlink:href="#DejaVuSans-30"/>
       <use xlink:href="#DejaVuSans-2e" x="63.623047"/>
       <use xlink:href="#DejaVuSans-30" x="95.410156"/>
       <use xlink:href="#DejaVuSans-35" x="159.033203"/>
      </g>
     </g>
    </g>
    <g id="ytick_7">
     <g id="line2d_23">
      <path d="M 83.524219 97.96425 
L 440.644219 97.96425 
" clip-path="url(#p2592da7fbd)" style="fill: none; stroke: #b0b0b0; stroke-width: 0.8; stroke-linecap: square"/>
     </g>
     <g id="line2d_24">
      <g>
       <use xlink:href="#m6f3f5b6aff" x="83.524219" y="97.96425" style="stroke: #000000; stroke-width: 0.8"/>
      </g>
     </g>
     <g id="text_13">
      <!-- 0.10 -->
      <g transform="translate(43.125781 103.663078)scale(0.15 -0.15)">
       <use xlink:href="#DejaVuSans-30"/>
       <use xlink:href="#DejaVuSans-2e" x="63.623047"/>
       <use xlink:href="#DejaVuSans-31" x="95.410156"/>
       <use xlink:href="#DejaVuSans-30" x="159.033203"/>
      </g>
     </g>
    </g>
    <g id="ytick_8">
     <g id="line2d_25">
      <path d="M 83.524219 64.70025 
L 440.644219 64.70025 
" clip-path="url(#p2592da7fbd)" style="fill: none; stroke: #b0b0b0; stroke-width: 0.8; stroke-linecap: square"/>
     </g>
     <g id="line2d_26">
      <g>
       <use xlink:href="#m6f3f5b6aff" x="83.524219" y="64.70025" style="stroke: #000000; stroke-width: 0.8"/>
      </g>
     </g>
     <g id="text_14">
      <!-- 0.15 -->
      <g transform="translate(43.125781 70.399078)scale(0.15 -0.15)">
       <use xlink:href="#DejaVuSans-30"/>
       <use xlink:href="#DejaVuSans-2e" x="63.623047"/>
       <use xlink:href="#DejaVuSans-31" x="95.410156"/>
       <use xlink:href="#DejaVuSans-35" x="159.033203"/>
      </g>
     </g>
    </g>
    <g id="ytick_9">
     <g id="line2d_27">
      <path d="M 83.524219 31.43625 
L 440.644219 31.43625 
" clip-path="url(#p2592da7fbd)" style="fill: none; stroke: #b0b0b0; stroke-width: 0.8; stroke-linecap: square"/>
     </g>
     <g id="line2d_28">
      <g>
       <use xlink:href="#m6f3f5b6aff" x="83.524219" y="31.43625" style="stroke: #000000; stroke-width: 0.8"/>
      </g>
     </g>
     <g id="text_15">
      <!-- 0.20 -->
      <g transform="translate(43.125781 37.135078)scale(0.15 -0.15)">
       <use xlink:href="#DejaVuSans-30"/>
       <use xlink:href="#DejaVuSans-2e" x="63.623047"/>
       <use xlink:href="#DejaVuSans-32" x="95.410156"/>
       <use xlink:href="#DejaVuSans-30" x="159.033203"/>
      </g>
     </g>
    </g>
    <g id="text_16">
     <!-- $mm^{-2}$ -->
     <g transform="translate(22.396875 195.09225)rotate(-90)scale(0.2 -0.2)">
      <use xlink:href="#DejaVuSans-Oblique-6d" transform="translate(0 0.765625)"/>
      <use xlink:href="#DejaVuSans-Oblique-6d" transform="translate(97.412109 0.765625)"/>
      <use xlink:href="#DejaVuSans-2212" transform="translate(199.474115 39.046875)scale(0.7)"/>
      <use xlink:href="#DejaVuSans-32" transform="translate(258.126458 39.046875)scale(0.7)"/>
     </g>
    </g>
   </g>
   <g id="line2d_29">
    <path d="M 103.677297 -1 
L 103.807088 350.665437 
M 106.730205 350.665437 
L 107.36187 -1 
M 109.455219 -1 
L 110.463638 259.239809 
L 110.977869 350.665437 
M 112.502521 350.665437 
L 112.535902 347.096991 
L 113.226656 239.935119 
L 113.91741 129.097428 
L 114.262787 88.204956 
L 114.608165 63.966032 
L 114.953542 59.311023 
L 115.298919 74.699681 
L 115.644296 108.078849 
L 117.025805 295.14937 
L 117.716559 329.229036 
L 118.061936 303.239912 
L 118.752691 198.250407 
L 119.443445 78.553035 
L 119.788822 36.33987 
L 120.134199 15.480061 
L 120.479577 20.041998 
L 120.824954 47.96135 
L 121.515708 154.617363 
L 122.206462 265.614063 
L 122.55184 296.74674 
L 122.897217 304.140619 
L 123.242594 285.983753 
L 123.933348 196.304081 
L 124.624103 102.184384 
L 124.96948 77.637063 
L 125.314857 76.54962 
L 125.660234 99.43393 
L 126.005611 142.414608 
L 127.041743 314.625287 
L 127.380441 350.665437 
M 128.040539 350.665437 
L 128.077874 349.044735 
L 128.423252 310.223534 
L 129.80476 86.656074 
L 130.150138 62.649729 
L 130.495515 60.619585 
L 130.840892 79.019433 
L 131.531646 158.705736 
L 132.222401 213.607251 
L 132.567778 219.059389 
L 132.913155 206.213599 
L 133.258532 175.759111 
L 133.949286 76.436115 
L 134.430563 -1 
M 142.036811 -1 
L 142.583716 18.892116 
L 144.310602 90.317139 
L 145.001356 111.005374 
L 145.69211 125.78737 
L 146.382865 138.073451 
L 147.073619 158.403216 
L 147.764373 193.153317 
L 148.455128 242.300498 
L 149.716266 350.665437 
M 154.895776 350.665437 
L 155.708049 319.194043 
L 156.74418 286.573952 
L 157.780312 261.498032 
L 159.507197 227.509205 
L 160.197952 216.630447 
L 160.888706 208.62054 
L 161.579461 203.517965 
L 162.270215 199.368753 
L 162.960969 195.801044 
L 164.687855 183.477058 
L 165.723987 178.796607 
L 166.069364 178.29835 
L 166.414741 178.222788 
L 166.760118 177.769723 
L 167.105495 177.861186 
L 167.450873 177.71269 
L 167.79625 177.228995 
L 168.487004 175.640337 
L 169.177758 172.742366 
L 170.21389 169.417356 
L 170.559267 169.442343 
L 170.904644 168.945789 
L 171.250021 169.043695 
L 171.595399 169.420605 
L 171.940776 169.53076 
L 172.286153 169.180529 
L 172.63153 169.056848 
L 173.322285 167.580592 
L 173.667662 166.791912 
L 174.013039 165.682951 
L 174.358416 164.992869 
L 174.703793 164.923025 
L 175.04917 165.377947 
L 175.394548 165.553931 
L 175.739925 166.388245 
L 176.776056 169.776504 
L 177.121433 170.663585 
L 177.812188 170.097268 
L 178.502942 168.194582 
L 178.848319 167.268911 
L 179.193697 165.900397 
L 179.539074 165.033965 
L 180.229828 164.249769 
L 180.575205 164.54196 
L 180.920582 165.068232 
L 181.26596 165.84166 
L 181.611337 165.890817 
L 181.956714 166.462377 
L 182.647468 165.858565 
L 184.028977 163.758955 
L 184.374354 163.46036 
L 185.065108 164.083442 
L 185.410486 164.61179 
L 186.10124 166.218772 
L 186.446617 166.892681 
L 186.791994 167.319745 
L 187.828126 166.752569 
L 188.173503 166.045553 
L 188.51888 164.884596 
L 188.864257 164.222139 
L 189.209635 163.841069 
L 189.555012 162.854466 
L 189.900389 162.983891 
L 190.245766 163.50298 
L 190.591143 164.467917 
L 190.93652 164.971464 
L 191.627275 166.797771 
L 191.972652 166.976996 
L 192.663406 166.691782 
L 193.354161 165.367273 
L 193.699538 164.036468 
L 194.044915 163.274552 
L 194.390292 162.994459 
L 194.735669 162.977717 
L 195.426424 163.720075 
L 195.771801 164.62556 
L 196.462555 165.715139 
L 196.807932 166.018505 
L 197.15331 166.085832 
L 198.534818 163.314446 
L 198.880196 162.289351 
L 199.225573 162.279662 
L 199.57095 162.38201 
L 200.261704 163.651603 
L 200.952459 165.593236 
L 201.297836 166.383425 
L 201.643213 166.613399 
L 201.98859 166.371781 
L 202.333967 166.317352 
L 202.679344 165.670707 
L 203.715476 163.039862 
L 204.060853 162.650501 
L 204.40623 162.780786 
L 205.096985 164.088466 
L 205.442362 164.696735 
L 205.787739 165.750119 
L 206.478493 166.716809 
L 206.823871 166.448373 
L 207.169248 166.35583 
L 207.514625 165.21638 
L 207.860002 164.507912 
L 208.205379 163.465509 
L 208.550756 162.941991 
L 208.896134 162.65482 
L 209.586888 163.046935 
L 210.62302 165.701505 
L 210.968397 166.106591 
L 211.313774 166.690182 
L 211.659151 166.54415 
L 212.004528 166.00809 
L 212.349905 164.994925 
L 213.04066 163.602741 
L 213.731414 162.415806 
L 214.076791 162.641689 
L 214.422168 163.589198 
L 214.767546 164.108407 
L 215.803677 166.496142 
L 216.149054 166.43336 
L 216.494432 166.646077 
L 216.839809 165.914318 
L 217.185186 165.580761 
L 217.530563 164.203645 
L 217.87594 163.683187 
L 218.221317 162.903075 
L 218.566695 162.562538 
L 218.912072 162.830005 
L 219.602826 164.0897 
L 219.948203 165.390472 
L 220.29358 165.907723 
L 220.638958 166.63542 
L 220.984335 167.041304 
L 221.329712 166.932361 
L 221.675089 166.432163 
L 222.711221 164.095314 
L 223.056598 163.363698 
L 223.401975 163.230528 
L 223.747352 163.268216 
L 224.092729 163.531146 
L 225.128861 166.279211 
L 225.474238 166.991747 
L 225.819615 166.915894 
L 226.164992 167.136826 
L 226.51037 166.526976 
L 227.546501 163.378801 
L 227.891878 162.898832 
L 228.237256 161.918828 
L 229.273387 163.109621 
L 229.618764 163.261759 
L 230.309519 164.783576 
L 230.654896 165.139592 
L 231.34565 164.861557 
L 232.381782 162.300954 
L 232.727159 162.041822 
L 233.072536 162.056632 
L 233.417913 162.236745 
L 234.108667 163.758698 
L 234.454045 165.217743 
L 235.490176 167.128989 
L 235.835553 166.980893 
L 236.180931 166.242516 
L 236.526308 165.838265 
L 237.217062 164.270389 
L 237.562439 163.22662 
L 237.907816 163.013246 
L 238.253194 163.172176 
L 239.980079 167.04954 
L 240.325457 166.961961 
L 240.670834 167.048796 
L 241.016211 166.939769 
L 241.706965 164.774523 
L 242.39772 163.353324 
L 243.088474 163.569905 
L 243.433851 163.903216 
L 245.160737 167.608706 
L 245.506114 167.360821 
L 245.851491 166.903807 
L 247.233 163.795392 
L 247.578377 163.498623 
L 248.269132 164.322625 
L 249.305263 167.177769 
L 249.65064 167.378383 
L 249.996018 167.807136 
L 250.686772 167.494357 
L 252.413658 162.790062 
L 253.104412 163.242005 
L 253.449789 163.902976 
L 253.795167 164.164275 
L 254.140544 165.301112 
L 254.485921 165.670194 
L 255.176675 165.686368 
L 255.522052 165.053534 
L 256.903561 161.508665 
L 257.594315 160.843131 
L 258.28507 162.045367 
L 258.630447 162.979091 
L 259.321201 164.102893 
L 260.011956 164.088359 
L 260.357333 163.624876 
L 261.393464 161.771224 
L 261.738842 161.267562 
L 262.084219 161.348338 
L 262.429596 161.771262 
L 263.811105 165.21886 
L 264.156482 165.735352 
L 264.501859 165.913721 
L 264.847236 166.253534 
L 265.537991 164.937008 
L 265.883368 164.017896 
L 266.228745 163.668458 
L 266.919499 163.399602 
L 267.610254 164.415828 
L 267.955631 165.536569 
L 268.646385 166.677493 
L 268.991762 167.351342 
L 269.337139 166.990766 
L 270.027894 165.849252 
L 271.064025 163.728379 
L 271.409403 163.401776 
L 271.75478 163.338708 
L 272.445534 164.250873 
L 273.136288 166.336081 
L 273.481666 166.989411 
L 273.827043 167.097582 
L 274.517797 166.79353 
L 275.208551 164.974733 
L 276.244683 162.440685 
L 276.59006 162.542007 
L 276.935437 162.918711 
L 277.626192 164.034307 
L 277.971569 164.89877 
L 278.662323 166.005765 
L 279.0077 165.785648 
L 279.353078 165.712899 
L 280.043832 164.077371 
L 280.734586 162.603778 
L 281.079963 162.647552 
L 281.770718 162.930997 
L 282.116095 164.372888 
L 282.806849 166.211584 
L 283.497604 167.731727 
L 283.842981 167.820474 
L 284.533735 166.739723 
L 284.879112 165.910992 
L 285.22449 164.672838 
L 285.569867 164.092889 
L 285.915244 163.02258 
L 286.260621 163.019026 
L 286.951375 163.233188 
L 287.296753 164.298461 
L 287.64213 164.61795 
L 287.987507 165.851248 
L 288.678261 165.90027 
L 289.023638 166.077156 
L 290.05977 163.653307 
L 290.405147 162.961635 
L 290.750524 162.770068 
L 291.095902 162.755501 
L 291.441279 163.53515 
L 291.786656 163.895154 
L 292.822787 166.682091 
L 293.168165 167.285969 
L 293.513542 167.388351 
L 293.858919 166.632253 
L 294.204296 166.308174 
L 295.240428 163.716826 
L 295.585805 163.120671 
L 295.931182 162.939738 
L 296.276559 162.985552 
L 296.621936 163.870231 
L 296.967314 164.411619 
L 297.658068 166.188737 
L 298.348822 167.24795 
L 298.694199 166.916823 
L 299.039577 165.845526 
L 299.384954 165.45456 
L 300.421085 162.741459 
L 300.766462 162.334422 
L 301.11184 163.155692 
L 301.457217 163.529943 
L 302.838726 166.725279 
L 303.184103 166.908988 
L 303.52948 166.756021 
L 304.910989 163.202947 
L 305.601743 162.249172 
L 305.94712 162.439323 
L 306.292497 163.156378 
L 306.637874 164.521153 
L 307.328629 165.891301 
L 308.019383 166.347334 
L 308.36476 166.114689 
L 308.710138 165.662258 
L 309.055515 165.019594 
L 309.400892 163.837982 
L 309.746269 163.12837 
L 310.091646 162.758076 
L 310.437023 163.077295 
L 310.782401 163.185476 
L 311.127778 163.646979 
L 311.473155 165.361505 
L 311.818532 165.82686 
L 312.163909 166.717535 
L 312.509286 166.621832 
L 313.200041 166.943499 
L 313.545418 166.266018 
L 313.890795 165.304232 
L 314.236172 163.904377 
L 314.58155 163.728447 
L 314.926927 163.011498 
L 315.617681 163.177331 
L 315.963058 163.468874 
L 316.653813 164.967271 
L 316.99919 166.172608 
L 317.344567 166.507612 
L 318.035321 166.003038 
L 318.380698 165.368202 
L 318.726076 165.012159 
L 319.41683 162.989804 
L 319.762207 162.284524 
L 320.107584 162.364814 
L 320.452961 162.636888 
L 321.83447 166.187632 
L 322.525225 167.383922 
L 323.215979 166.220985 
L 323.561356 165.818711 
L 323.906733 164.647118 
L 324.25211 163.999733 
L 324.597488 163.00464 
L 324.942865 163.138137 
L 325.633619 164.163267 
L 326.324373 165.610014 
L 326.669751 166.985179 
L 327.015128 167.114286 
L 327.360505 167.560596 
L 328.051259 166.102164 
L 328.742014 164.048022 
L 329.087391 163.698895 
L 329.432768 162.96743 
L 329.778145 162.528446 
L 330.123522 162.957944 
L 330.4689 163.697076 
L 330.814277 164.926251 
L 331.850408 166.537937 
L 332.195785 166.681253 
L 332.88654 166.060363 
L 333.577294 164.399357 
L 333.922671 163.697271 
L 334.268049 163.373659 
L 334.613426 163.854359 
L 334.958803 163.856314 
L 336.340312 167.459469 
L 336.685689 167.432703 
L 337.031066 167.695417 
L 337.376443 167.490485 
L 338.067197 165.91296 
L 338.412575 164.563436 
L 338.757952 164.108778 
L 339.103329 163.152734 
L 339.448706 163.384047 
L 339.794083 163.056458 
L 340.830215 164.801487 
L 341.175592 165.881805 
L 341.520969 166.375418 
L 342.211724 166.332814 
L 343.247855 164.901418 
L 343.593232 164.065829 
L 343.938609 163.710456 
L 344.283987 164.000282 
L 344.629364 164.622575 
L 344.974741 165.85866 
L 345.320118 165.977162 
L 346.010873 168.223384 
L 346.701627 169.28328 
L 347.047004 168.579829 
L 347.392381 168.409405 
L 347.737758 167.401023 
L 348.77389 165.610758 
L 349.464644 166.25575 
L 350.500776 169.191749 
L 350.846153 170.672659 
L 351.19153 171.257832 
L 351.536907 171.581233 
L 351.882285 171.229984 
L 352.227662 171.130536 
L 353.263793 169.652757 
L 353.60917 169.519122 
L 353.954548 169.871309 
L 354.645302 171.769887 
L 355.336056 174.519758 
L 356.372188 177.649952 
L 356.717565 178.096362 
L 357.062942 178.234849 
L 357.408319 177.795553 
L 357.753697 177.982954 
L 358.099074 178.021223 
L 358.444451 178.573877 
L 359.135205 181.029926 
L 361.898223 199.357712 
L 362.588977 203.142645 
L 363.625108 212.973422 
L 364.315863 222.935475 
L 365.351994 242.427848 
L 367.07888 281.374335 
L 367.769635 300.361521 
L 368.805766 336.318342 
L 369.164937 350.665437 
M 374.352645 350.665437 
L 376.058687 212.802396 
L 376.404064 183.156431 
L 377.094818 150.68781 
L 377.785573 134.243158 
L 379.167081 116.335013 
L 379.512459 108.215836 
L 380.203213 84.57796 
L 382.102244 -1 
M 389.743504 -1 
L 390.909905 178.344269 
L 391.255283 209.817997 
L 391.60066 222.592943 
L 391.946037 215.539684 
L 392.291414 191.335017 
L 393.327546 84.166982 
L 393.672923 67.050392 
L 394.0183 71.214138 
L 394.363677 99.129114 
L 395.054432 214.234634 
L 395.780147 350.665437 
M 396.957697 350.665437 
L 397.126695 330.976798 
L 398.508203 91.643011 
L 398.85358 65.11147 
L 399.198958 64.355606 
L 399.544335 89.667816 
L 400.235089 191.578884 
L 400.925844 291.608855 
L 401.271221 313.435073 
L 401.616598 307.911609 
L 401.961975 275.621178 
L 402.652729 157.723023 
L 403.343484 42.08968 
L 403.688861 10.917198 
L 404.034238 5.399288 
L 404.379615 26.877322 
L 404.724992 71.361144 
L 406.106501 314.909187 
L 406.451878 343.678606 
L 406.797256 346.483693 
L 407.142633 324.234053 
L 407.833387 226.312539 
L 408.869519 59.172449 
L 409.214896 39.689107 
L 409.560273 42.702797 
L 409.90565 66.998021 
L 410.596404 165.503392 
L 411.681809 350.665437 
M 413.187522 350.665437 
L 413.359422 324.449088 
L 414.050176 154.938237 
L 414.55697 -1 
M 417.017762 -1 
L 417.158571 73.078358 
L 417.535516 350.665437 
M 420.451403 350.665437 
L 420.568094 -1 
L 420.568094 -1 
" clip-path="url(#p2592da7fbd)" style="fill: none; stroke: #1f77b4; stroke-width: 1.5; stroke-linecap: square"/>
   </g>
   <g id="patch_3">
    <path d="M 83.524219 297.54825 
L 83.524219 31.43625 
" style="fill: none; stroke: #000000; stroke-width: 0.8; stroke-linejoin: miter; stroke-linecap: square"/>
   </g>
   <g id="patch_4">
    <path d="M 440.644219 297.54825 
L 440.644219 31.43625 
" style="fill: none; stroke: #000000; stroke-width: 0.8; stroke-linejoin: miter; stroke-linecap: square"/>
   </g>
   <g id="patch_5">
    <path d="M 83.524219 297.54825 
L 440.644219 297.54825 
" style="fill: none; stroke: #000000; stroke-width: 0.8; stroke-linejoin: miter; stroke-linecap: square"/>
   </g>
   <g id="patch_6">
    <path d="M 83.524219 31.43625 
L 440.644219 31.43625 
" style="fill: none; stroke: #000000; stroke-width: 0.8; stroke-linejoin: miter; stroke-linecap: square"/>
   </g>
   <g id="text_17">
    <!-- RF Field Axial Curvature -->
    <g transform="translate(118.639219 25.43625)scale(0.24 -0.24)">
     <defs>
      <path id="DejaVuSans-52" d="M 2841 2188 
Q 3044 2119 3236 1894 
Q 3428 1669 3622 1275 
L 4263 0 
L 3584 0 
L 2988 1197 
Q 2756 1666 2539 1819 
Q 2322 1972 1947 1972 
L 1259 1972 
L 1259 0 
L 628 0 
L 628 4666 
L 2053 4666 
Q 2853 4666 3247 4331 
Q 3641 3997 3641 3322 
Q 3641 2881 3436 2590 
Q 3231 2300 2841 2188 
z
M 1259 4147 
L 1259 2491 
L 2053 2491 
Q 2509 2491 2742 2702 
Q 2975 2913 2975 3322 
Q 2975 3731 2742 3939 
Q 2509 4147 2053 4147 
L 1259 4147 
z
" transform="scale(0.015625)"/>
      <path id="DejaVuSans-46" d="M 628 4666 
L 3309 4666 
L 3309 4134 
L 1259 4134 
L 1259 2759 
L 3109 2759 
L 3109 2228 
L 1259 2228 
L 1259 0 
L 628 0 
L 628 4666 
z
" transform="scale(0.015625)"/>
      <path id="DejaVuSans-69" d="M 603 3500 
L 1178 3500 
L 1178 0 
L 603 0 
L 603 3500 
z
M 603 4863 
L 1178 4863 
L 1178 4134 
L 603 4134 
L 603 4863 
z
" transform="scale(0.015625)"/>
      <path id="DejaVuSans-65" d="M 3597 1894 
L 3597 1613 
L 953 1613 
Q 991 1019 1311 708 
Q 1631 397 2203 397 
Q 2534 397 2845 478 
Q 3156 559 3463 722 
L 3463 178 
Q 3153 47 2828 -22 
Q 2503 -91 2169 -91 
Q 1331 -91 842 396 
Q 353 884 353 1716 
Q 353 2575 817 3079 
Q 1281 3584 2069 3584 
Q 2775 3584 3186 3129 
Q 3597 2675 3597 1894 
z
M 3022 2063 
Q 3016 2534 2758 2815 
Q 2500 3097 2075 3097 
Q 1594 3097 1305 2825 
Q 1016 2553 972 2059 
L 3022 2063 
z
" transform="scale(0.015625)"/>
      <path id="DejaVuSans-6c" d="M 603 4863 
L 1178 4863 
L 1178 0 
L 603 0 
L 603 4863 
z
" transform="scale(0.015625)"/>
      <path id="DejaVuSans-64" d="M 2906 2969 
L 2906 4863 
L 3481 4863 
L 3481 0 
L 2906 0 
L 2906 525 
Q 2725 213 2448 61 
Q 2172 -91 1784 -91 
Q 1150 -91 751 415 
Q 353 922 353 1747 
Q 353 2572 751 3078 
Q 1150 3584 1784 3584 
Q 2172 3584 2448 3432 
Q 2725 3281 2906 2969 
z
M 947 1747 
Q 947 1113 1208 752 
Q 1469 391 1925 391 
Q 2381 391 2643 752 
Q 2906 1113 2906 1747 
Q 2906 2381 2643 2742 
Q 2381 3103 1925 3103 
Q 1469 3103 1208 2742 
Q 947 2381 947 1747 
z
" transform="scale(0.015625)"/>
      <path id="DejaVuSans-41" d="M 2188 4044 
L 1331 1722 
L 3047 1722 
L 2188 4044 
z
M 1831 4666 
L 2547 4666 
L 4325 0 
L 3669 0 
L 3244 1197 
L 1141 1197 
L 716 0 
L 50 0 
L 1831 4666 
z
" transform="scale(0.015625)"/>
      <path id="DejaVuSans-78" d="M 3513 3500 
L 2247 1797 
L 3578 0 
L 2900 0 
L 1881 1375 
L 863 0 
L 184 0 
L 1544 1831 
L 300 3500 
L 978 3500 
L 1906 2253 
L 2834 3500 
L 3513 3500 
z
" transform="scale(0.015625)"/>
      <path id="DejaVuSans-61" d="M 2194 1759 
Q 1497 1759 1228 1600 
Q 959 1441 959 1056 
Q 959 750 1161 570 
Q 1363 391 1709 391 
Q 2188 391 2477 730 
Q 2766 1069 2766 1631 
L 2766 1759 
L 2194 1759 
z
M 3341 1997 
L 3341 0 
L 2766 0 
L 2766 531 
Q 2569 213 2275 61 
Q 1981 -91 1556 -91 
Q 1019 -91 701 211 
Q 384 513 384 1019 
Q 384 1609 779 1909 
Q 1175 2209 1959 2209 
L 2766 2209 
L 2766 2266 
Q 2766 2663 2505 2880 
Q 2244 3097 1772 3097 
Q 1472 3097 1187 3025 
Q 903 2953 641 2809 
L 641 3341 
Q 956 3463 1253 3523 
Q 1550 3584 1831 3584 
Q 2591 3584 2966 3190 
Q 3341 2797 3341 1997 
z
" transform="scale(0.015625)"/>
      <path id="DejaVuSans-43" d="M 4122 4306 
L 4122 3641 
Q 3803 3938 3442 4084 
Q 3081 4231 2675 4231 
Q 1875 4231 1450 3742 
Q 1025 3253 1025 2328 
Q 1025 1406 1450 917 
Q 1875 428 2675 428 
Q 3081 428 3442 575 
Q 3803 722 4122 1019 
L 4122 359 
Q 3791 134 3420 21 
Q 3050 -91 2638 -91 
Q 1578 -91 968 557 
Q 359 1206 359 2328 
Q 359 3453 968 4101 
Q 1578 4750 2638 4750 
Q 3056 4750 3426 4639 
Q 3797 4528 4122 4306 
z
" transform="scale(0.015625)"/>
      <path id="DejaVuSans-75" d="M 544 1381 
L 544 3500 
L 1119 3500 
L 1119 1403 
Q 1119 906 1312 657 
Q 1506 409 1894 409 
Q 2359 409 2629 706 
Q 2900 1003 2900 1516 
L 2900 3500 
L 3475 3500 
L 3475 0 
L 2900 0 
L 2900 538 
Q 2691 219 2414 64 
Q 2138 -91 1772 -91 
Q 1169 -91 856 284 
Q 544 659 544 1381 
z
M 1991 3584 
L 1991 3584 
z
" transform="scale(0.015625)"/>
      <path id="DejaVuSans-72" d="M 2631 2963 
Q 2534 3019 2420 3045 
Q 2306 3072 2169 3072 
Q 1681 3072 1420 2755 
Q 1159 2438 1159 1844 
L 1159 0 
L 581 0 
L 581 3500 
L 1159 3500 
L 1159 2956 
Q 1341 3275 1631 3429 
Q 1922 3584 2338 3584 
Q 2397 3584 2469 3576 
Q 2541 3569 2628 3553 
L 2631 2963 
z
" transform="scale(0.015625)"/>
      <path id="DejaVuSans-76" d="M 191 3500 
L 800 3500 
L 1894 563 
L 2988 3500 
L 3597 3500 
L 2284 0 
L 1503 0 
L 191 3500 
z
" transform="scale(0.015625)"/>
      <path id="DejaVuSans-74" d="M 1172 4494 
L 1172 3500 
L 2356 3500 
L 2356 3053 
L 1172 3053 
L 1172 1153 
Q 1172 725 1289 603 
Q 1406 481 1766 481 
L 2356 481 
L 2356 0 
L 1766 0 
Q 1100 0 847 248 
Q 594 497 594 1153 
L 594 3053 
L 172 3053 
L 172 3500 
L 594 3500 
L 594 4494 
L 1172 4494 
z
" transform="scale(0.015625)"/>
     </defs>
     <use xlink:href="#DejaVuSans-52"/>
     <use xlink:href="#DejaVuSans-46" x="69.482422"/>
     <use xlink:href="#DejaVuSans-20" x="127.001953"/>
     <use xlink:href="#DejaVuSans-46" x="158.789062"/>
     <use xlink:href="#DejaVuSans-69" x="209.058594"/>
     <use xlink:href="#DejaVuSans-65" x="236.841797"/>
     <use xlink:href="#DejaVuSans-6c" x="298.365234"/>
     <use xlink:href="#DejaVuSans-64" x="326.148438"/>
     <use xlink:href="#DejaVuSans-20" x="389.625"/>
     <use xlink:href="#DejaVuSans-41" x="421.412109"/>
     <use xlink:href="#DejaVuSans-78" x="489.820312"/>
     <use xlink:href="#DejaVuSans-69" x="549"/>
     <use xlink:href="#DejaVuSans-61" x="576.783203"/>
     <use xlink:href="#DejaVuSans-6c" x="638.0625"/>
     <use xlink:href="#DejaVuSans-20" x="665.845703"/>
     <use xlink:href="#DejaVuSans-43" x="697.632812"/>
     <use xlink:href="#DejaVuSans-75" x="767.457031"/>
     <use xlink:href="#DejaVuSans-72" x="830.835938"/>
     <use xlink:href="#DejaVuSans-76" x="871.949219"/>
     <use xlink:href="#DejaVuSans-61" x="931.128906"/>
     <use xlink:href="#DejaVuSans-74" x="992.408203"/>
     <use xlink:href="#DejaVuSans-75" x="1031.617188"/>
     <use xlink:href="#DejaVuSans-72" x="1094.996094"/>
     <use xlink:href="#DejaVuSans-65" x="1133.859375"/>
    </g>
   </g>
   <g id="legend_1">
    <g id="patch_7">
     <path d="M 218.984219 287.54825 
L 305.184219 287.54825 
Q 309.184219 287.54825 309.184219 283.54825 
L 309.184219 256.192 
Q 309.184219 252.192 305.184219 252.192 
L 218.984219 252.192 
Q 214.984219 252.192 214.984219 256.192 
L 214.984219 283.54825 
Q 214.984219 287.54825 218.984219 287.54825 
z
" style="fill: #ffffff; opacity: 0.8; stroke: #cccccc; stroke-linejoin: miter"/>
    </g>
    <g id="line2d_30">
     <path d="M 222.984219 268.388875 
L 242.984219 268.388875 
L 262.984219 268.388875 
" style="fill: none; stroke: #1f77b4; stroke-width: 1.5; stroke-linecap: square"/>
    </g>
    <g id="text_18">
     <!-- $x^2$ -->
     <g transform="translate(278.984219 275.388875)scale(0.2 -0.2)">
      <defs>
       <path id="DejaVuSans-Oblique-78" d="M 3841 3500 
L 2234 1784 
L 3219 0 
L 2559 0 
L 1819 1388 
L 531 0 
L -166 0 
L 1556 1844 
L 641 3500 
L 1300 3500 
L 1972 2234 
L 3144 3500 
L 3841 3500 
z
" transform="scale(0.015625)"/>
      </defs>
      <use xlink:href="#DejaVuSans-Oblique-78" transform="translate(0 0.765625)"/>
      <use xlink:href="#DejaVuSans-32" transform="translate(63.645833 39.046875)scale(0.7)"/>
     </g>
    </g>
   </g>
  </g>
 </g>
 <defs>
  <clipPath id="p2592da7fbd">
   <rect x="83.524219" y="31.43625" width="357.12" height="266.112"/>
  </clipPath>
 </defs>
</svg>
