<?xml version="1.0" encoding="utf-8" standalone="no"?>
<!DOCTYPE svg PUBLIC "-//W3C//DTD SVG 1.1//EN"
  "http://www.w3.org/Graphics/SVG/1.1/DTD/svg11.dtd">
<svg xmlns:xlink="http://www.w3.org/1999/xlink" width="431.35125pt" height="349.665437pt" viewBox="0 0 431.35125 349.665437" xmlns="http://www.w3.org/2000/svg" version="1.1">
 <defs>
  <style type="text/css">*{stroke-linejoin: round; stroke-linecap: butt}</style>
 </defs>
 <g id="figure_1">
  <g id="patch_1">
   <path d="M 0 349.665437 
L 431.35125 349.665437 
L 431.35125 0 
L 0 0 
L 0 349.665437 
z
" style="fill: none"/>
  </g>
  <g id="axes_1">
   <g id="patch_2">
    <path d="M 67.03125 297.54825 
L 424.15125 297.54825 
L 424.15125 31.43625 
L 67.03125 31.43625 
L 67.03125 297.54825 
z
" style="fill: none"/>
   </g>
   <g id="matplotlib.axis_1">
    <g id="xtick_1">
     <g id="line2d_1">
      <path d="M 98.96156 297.54825 
L 98.96156 31.43625 
" clip-path="url(#p16dad856f7)" style="fill: none; stroke: #b0b0b0; stroke-width: 0.8; stroke-linecap: square"/>
     </g>
     <g id="line2d_2">
      <defs>
       <path id="md39032bed2" d="M 0 0 
L 0 3.5 
" style="stroke: #000000; stroke-width: 0.8"/>
      </defs>
      <g>
       <use xlink:href="#md39032bed2" x="98.96156" y="297.54825" style="stroke: #000000; stroke-width: 0.8"/>
      </g>
     </g>
     <g id="text_1">
      <!-- −3000 -->
      <g transform="translate(73.589294 315.945906)scale(0.15 -0.15)">
       <defs>
        <path id="DejaVuSans-2212" d="M 678 2272 
L 4684 2272 
L 4684 1741 
L 678 1741 
L 678 2272 
z
" transform="scale(0.015625)"/>
        <path id="DejaVuSans-33" d="M 2597 2516 
Q 3050 2419 3304 2112 
Q 3559 1806 3559 1356 
Q 3559 666 3084 287 
Q 2609 -91 1734 -91 
Q 1441 -91 1130 -33 
Q 819 25 488 141 
L 488 750 
Q 750 597 1062 519 
Q 1375 441 1716 441 
Q 2309 441 2620 675 
Q 2931 909 2931 1356 
Q 2931 1769 2642 2001 
Q 2353 2234 1838 2234 
L 1294 2234 
L 1294 2753 
L 1863 2753 
Q 2328 2753 2575 2939 
Q 2822 3125 2822 3475 
Q 2822 3834 2567 4026 
Q 2313 4219 1838 4219 
Q 1578 4219 1281 4162 
Q 984 4106 628 3988 
L 628 4550 
Q 988 4650 1302 4700 
Q 1616 4750 1894 4750 
Q 2613 4750 3031 4423 
Q 3450 4097 3450 3541 
Q 3450 3153 3228 2886 
Q 3006 2619 2597 2516 
z
" transform="scale(0.015625)"/>
        <path id="DejaVuSans-30" d="M 2034 4250 
Q 1547 4250 1301 3770 
Q 1056 3291 1056 2328 
Q 1056 1369 1301 889 
Q 1547 409 2034 409 
Q 2525 409 2770 889 
Q 3016 1369 3016 2328 
Q 3016 3291 2770 3770 
Q 2525 4250 2034 4250 
z
M 2034 4750 
Q 2819 4750 3233 4129 
Q 3647 3509 3647 2328 
Q 3647 1150 3233 529 
Q 2819 -91 2034 -91 
Q 1250 -91 836 529 
Q 422 1150 422 2328 
Q 422 3509 836 4129 
Q 1250 4750 2034 4750 
z
" transform="scale(0.015625)"/>
       </defs>
       <use xlink:href="#DejaVuSans-2212"/>
       <use xlink:href="#DejaVuSans-33" x="83.789062"/>
       <use xlink:href="#DejaVuSans-30" x="147.412109"/>
       <use xlink:href="#DejaVuSans-30" x="211.035156"/>
       <use xlink:href="#DejaVuSans-30" x="274.658203"/>
      </g>
     </g>
    </g>
    <g id="xtick_2">
     <g id="line2d_3">
      <path d="M 170.314207 297.54825 
L 170.314207 31.43625 
" clip-path="url(#p16dad856f7)" style="fill: none; stroke: #b0b0b0; stroke-width: 0.8; stroke-linecap: square"/>
     </g>
     <g id="line2d_4">
      <g>
       <use xlink:href="#md39032bed2" x="170.314207" y="297.54825" style="stroke: #000000; stroke-width: 0.8"/>
      </g>
     </g>
     <g id="text_2">
      <!-- −2000 -->
      <g transform="translate(144.941941 315.945906)scale(0.15 -0.15)">
       <defs>
        <path id="DejaVuSans-32" d="M 1228 531 
L 3431 531 
L 3431 0 
L 469 0 
L 469 531 
Q 828 903 1448 1529 
Q 2069 2156 2228 2338 
Q 2531 2678 2651 2914 
Q 2772 3150 2772 3378 
Q 2772 3750 2511 3984 
Q 2250 4219 1831 4219 
Q 1534 4219 1204 4116 
Q 875 4013 500 3803 
L 500 4441 
Q 881 4594 1212 4672 
Q 1544 4750 1819 4750 
Q 2544 4750 2975 4387 
Q 3406 4025 3406 3419 
Q 3406 3131 3298 2873 
Q 3191 2616 2906 2266 
Q 2828 2175 2409 1742 
Q 1991 1309 1228 531 
z
" transform="scale(0.015625)"/>
       </defs>
       <use xlink:href="#DejaVuSans-2212"/>
       <use xlink:href="#DejaVuSans-32" x="83.789062"/>
       <use xlink:href="#DejaVuSans-30" x="147.412109"/>
       <use xlink:href="#DejaVuSans-30" x="211.035156"/>
       <use xlink:href="#DejaVuSans-30" x="274.658203"/>
      </g>
     </g>
    </g>
    <g id="xtick_3">
     <g id="line2d_5">
      <path d="M 241.666854 297.54825 
L 241.666854 31.43625 
" clip-path="url(#p16dad856f7)" style="fill: none; stroke: #b0b0b0; stroke-width: 0.8; stroke-linecap: square"/>
     </g>
     <g id="line2d_6">
      <g>
       <use xlink:href="#md39032bed2" x="241.666854" y="297.54825" style="stroke: #000000; stroke-width: 0.8"/>
      </g>
     </g>
     <g id="text_3">
      <!-- −1000 -->
      <g transform="translate(216.294589 315.945906)scale(0.15 -0.15)">
       <defs>
        <path id="DejaVuSans-31" d="M 794 531 
L 1825 531 
L 1825 4091 
L 703 3866 
L 703 4441 
L 1819 4666 
L 2450 4666 
L 2450 531 
L 3481 531 
L 3481 0 
L 794 0 
L 794 531 
z
" transform="scale(0.015625)"/>
       </defs>
       <use xlink:href="#DejaVuSans-2212"/>
       <use xlink:href="#DejaVuSans-31" x="83.789062"/>
       <use xlink:href="#DejaVuSans-30" x="147.412109"/>
       <use xlink:href="#DejaVuSans-30" x="211.035156"/>
       <use xlink:href="#DejaVuSans-30" x="274.658203"/>
      </g>
     </g>
    </g>
    <g id="xtick_4">
     <g id="line2d_7">
      <path d="M 313.019502 297.54825 
L 313.019502 31.43625 
" clip-path="url(#p16dad856f7)" style="fill: none; stroke: #b0b0b0; stroke-width: 0.8; stroke-linecap: square"/>
     </g>
     <g id="line2d_8">
      <g>
       <use xlink:href="#md39032bed2" x="313.019502" y="297.54825" style="stroke: #000000; stroke-width: 0.8"/>
      </g>
     </g>
     <g id="text_4">
      <!-- 0 -->
      <g transform="translate(308.247627 315.945906)scale(0.15 -0.15)">
       <use xlink:href="#DejaVuSans-30"/>
      </g>
     </g>
    </g>
    <g id="xtick_5">
     <g id="line2d_9">
      <path d="M 384.372149 297.54825 
L 384.372149 31.43625 
" clip-path="url(#p16dad856f7)" style="fill: none; stroke: #b0b0b0; stroke-width: 0.8; stroke-linecap: square"/>
     </g>
     <g id="line2d_10">
      <g>
       <use xlink:href="#md39032bed2" x="384.372149" y="297.54825" style="stroke: #000000; stroke-width: 0.8"/>
      </g>
     </g>
     <g id="text_5">
      <!-- 1000 -->
      <g transform="translate(365.284649 315.945906)scale(0.15 -0.15)">
       <use xlink:href="#DejaVuSans-31"/>
       <use xlink:href="#DejaVuSans-30" x="63.623047"/>
       <use xlink:href="#DejaVuSans-30" x="127.246094"/>
       <use xlink:href="#DejaVuSans-30" x="190.869141"/>
      </g>
     </g>
    </g>
    <g id="text_6">
     <!-- X ($\mu m$) -->
     <g transform="translate(211.59125 338.265437)scale(0.2 -0.2)">
      <defs>
       <path id="DejaVuSans-58" d="M 403 4666 
L 1081 4666 
L 2241 2931 
L 3406 4666 
L 4084 4666 
L 2584 2425 
L 4184 0 
L 3506 0 
L 2194 1984 
L 872 0 
L 191 0 
L 1856 2491 
L 403 4666 
z
" transform="scale(0.015625)"/>
       <path id="DejaVuSans-20" transform="scale(0.015625)"/>
       <path id="DejaVuSans-28" d="M 1984 4856 
Q 1566 4138 1362 3434 
Q 1159 2731 1159 2009 
Q 1159 1288 1364 580 
Q 1569 -128 1984 -844 
L 1484 -844 
Q 1016 -109 783 600 
Q 550 1309 550 2009 
Q 550 2706 781 3412 
Q 1013 4119 1484 4856 
L 1984 4856 
z
" transform="scale(0.015625)"/>
       <path id="DejaVuSans-Oblique-3bc" d="M -84 -1331 
L 856 3500 
L 1434 3500 
L 1009 1322 
Q 997 1256 987 1175 
Q 978 1094 978 1013 
Q 978 722 1161 565 
Q 1344 409 1684 409 
Q 2147 409 2431 671 
Q 2716 934 2816 1459 
L 3213 3500 
L 3788 3500 
L 3266 809 
Q 3253 750 3248 706 
Q 3244 663 3244 628 
Q 3244 531 3283 486 
Q 3322 441 3406 441 
Q 3438 441 3492 456 
Q 3547 472 3647 513 
L 3559 50 
Q 3422 -19 3297 -55 
Q 3172 -91 3053 -91 
Q 2847 -91 2730 40 
Q 2613 172 2613 403 
Q 2438 153 2195 31 
Q 1953 -91 1625 -91 
Q 1334 -91 1117 43 
Q 900 178 831 397 
L 494 -1331 
L -84 -1331 
z
" transform="scale(0.015625)"/>
       <path id="DejaVuSans-Oblique-6d" d="M 5747 2113 
L 5338 0 
L 4763 0 
L 5166 2094 
Q 5191 2228 5203 2325 
Q 5216 2422 5216 2491 
Q 5216 2772 5059 2928 
Q 4903 3084 4622 3084 
Q 4203 3084 3875 2770 
Q 3547 2456 3450 1953 
L 3066 0 
L 2491 0 
L 2900 2094 
Q 2925 2209 2937 2307 
Q 2950 2406 2950 2484 
Q 2950 2769 2794 2926 
Q 2638 3084 2363 3084 
Q 1938 3084 1609 2770 
Q 1281 2456 1184 1953 
L 800 0 
L 225 0 
L 909 3500 
L 1484 3500 
L 1375 2956 
Q 1609 3263 1923 3423 
Q 2238 3584 2597 3584 
Q 2978 3584 3223 3384 
Q 3469 3184 3519 2828 
Q 3781 3197 4126 3390 
Q 4472 3584 4856 3584 
Q 5306 3584 5551 3325 
Q 5797 3066 5797 2591 
Q 5797 2488 5784 2364 
Q 5772 2241 5747 2113 
z
" transform="scale(0.015625)"/>
       <path id="DejaVuSans-29" d="M 513 4856 
L 1013 4856 
Q 1481 4119 1714 3412 
Q 1947 2706 1947 2009 
Q 1947 1309 1714 600 
Q 1481 -109 1013 -844 
L 513 -844 
Q 928 -128 1133 580 
Q 1338 1288 1338 2009 
Q 1338 2731 1133 3434 
Q 928 4138 513 4856 
z
" transform="scale(0.015625)"/>
      </defs>
      <use xlink:href="#DejaVuSans-58" transform="translate(0 0.125)"/>
      <use xlink:href="#DejaVuSans-20" transform="translate(68.505859 0.125)"/>
      <use xlink:href="#DejaVuSans-28" transform="translate(100.292969 0.125)"/>
      <use xlink:href="#DejaVuSans-Oblique-3bc" transform="translate(139.306641 0.125)"/>
      <use xlink:href="#DejaVuSans-Oblique-6d" transform="translate(202.929688 0.125)"/>
      <use xlink:href="#DejaVuSans-29" transform="translate(300.341797 0.125)"/>
     </g>
    </g>
   </g>
   <g id="matplotlib.axis_2">
    <g id="ytick_1">
     <g id="line2d_11">
      <path d="M 67.03125 291.057713 
L 424.15125 291.057713 
" clip-path="url(#p16dad856f7)" style="fill: none; stroke: #b0b0b0; stroke-width: 0.8; stroke-linecap: square"/>
     </g>
     <g id="line2d_12">
      <defs>
       <path id="m6f3f5b6aff" d="M 0 0 
L -3.5 0 
" style="stroke: #000000; stroke-width: 0.8"/>
      </defs>
      <g>
       <use xlink:href="#m6f3f5b6aff" x="67.03125" y="291.057713" style="stroke: #000000; stroke-width: 0.8"/>
      </g>
     </g>
     <g id="text_7">
      <!-- 0 -->
      <g transform="translate(50.4875 296.756542)scale(0.15 -0.15)">
       <use xlink:href="#DejaVuSans-30"/>
      </g>
     </g>
    </g>
    <g id="ytick_2">
     <g id="line2d_13">
      <path d="M 67.03125 247.78747 
L 424.15125 247.78747 
" clip-path="url(#p16dad856f7)" style="fill: none; stroke: #b0b0b0; stroke-width: 0.8; stroke-linecap: square"/>
     </g>
     <g id="line2d_14">
      <g>
       <use xlink:href="#m6f3f5b6aff" x="67.03125" y="247.78747" style="stroke: #000000; stroke-width: 0.8"/>
      </g>
     </g>
     <g id="text_8">
      <!-- 20 -->
      <g transform="translate(40.94375 253.486298)scale(0.15 -0.15)">
       <use xlink:href="#DejaVuSans-32"/>
       <use xlink:href="#DejaVuSans-30" x="63.623047"/>
      </g>
     </g>
    </g>
    <g id="ytick_3">
     <g id="line2d_15">
      <path d="M 67.03125 204.517226 
L 424.15125 204.517226 
" clip-path="url(#p16dad856f7)" style="fill: none; stroke: #b0b0b0; stroke-width: 0.8; stroke-linecap: square"/>
     </g>
     <g id="line2d_16">
      <g>
       <use xlink:href="#m6f3f5b6aff" x="67.03125" y="204.517226" style="stroke: #000000; stroke-width: 0.8"/>
      </g>
     </g>
     <g id="text_9">
      <!-- 40 -->
      <g transform="translate(40.94375 210.216054)scale(0.15 -0.15)">
       <defs>
        <path id="DejaVuSans-34" d="M 2419 4116 
L 825 1625 
L 2419 1625 
L 2419 4116 
z
M 2253 4666 
L 3047 4666 
L 3047 1625 
L 3713 1625 
L 3713 1100 
L 3047 1100 
L 3047 0 
L 2419 0 
L 2419 1100 
L 313 1100 
L 313 1709 
L 2253 4666 
z
" transform="scale(0.015625)"/>
       </defs>
       <use xlink:href="#DejaVuSans-34"/>
       <use xlink:href="#DejaVuSans-30" x="63.623047"/>
      </g>
     </g>
    </g>
    <g id="ytick_4">
     <g id="line2d_17">
      <path d="M 67.03125 161.246982 
L 424.15125 161.246982 
" clip-path="url(#p16dad856f7)" style="fill: none; stroke: #b0b0b0; stroke-width: 0.8; stroke-linecap: square"/>
     </g>
     <g id="line2d_18">
      <g>
       <use xlink:href="#m6f3f5b6aff" x="67.03125" y="161.246982" style="stroke: #000000; stroke-width: 0.8"/>
      </g>
     </g>
     <g id="text_10">
      <!-- 60 -->
      <g transform="translate(40.94375 166.94581)scale(0.15 -0.15)">
       <defs>
        <path id="DejaVuSans-36" d="M 2113 2584 
Q 1688 2584 1439 2293 
Q 1191 2003 1191 1497 
Q 1191 994 1439 701 
Q 1688 409 2113 409 
Q 2538 409 2786 701 
Q 3034 994 3034 1497 
Q 3034 2003 2786 2293 
Q 2538 2584 2113 2584 
z
M 3366 4563 
L 3366 3988 
Q 3128 4100 2886 4159 
Q 2644 4219 2406 4219 
Q 1781 4219 1451 3797 
Q 1122 3375 1075 2522 
Q 1259 2794 1537 2939 
Q 1816 3084 2150 3084 
Q 2853 3084 3261 2657 
Q 3669 2231 3669 1497 
Q 3669 778 3244 343 
Q 2819 -91 2113 -91 
Q 1303 -91 875 529 
Q 447 1150 447 2328 
Q 447 3434 972 4092 
Q 1497 4750 2381 4750 
Q 2619 4750 2861 4703 
Q 3103 4656 3366 4563 
z
" transform="scale(0.015625)"/>
       </defs>
       <use xlink:href="#DejaVuSans-36"/>
       <use xlink:href="#DejaVuSans-30" x="63.623047"/>
      </g>
     </g>
    </g>
    <g id="ytick_5">
     <g id="line2d_19">
      <path d="M 67.03125 117.976738 
L 424.15125 117.976738 
" clip-path="url(#p16dad856f7)" style="fill: none; stroke: #b0b0b0; stroke-width: 0.8; stroke-linecap: square"/>
     </g>
     <g id="line2d_20">
      <g>
       <use xlink:href="#m6f3f5b6aff" x="67.03125" y="117.976738" style="stroke: #000000; stroke-width: 0.8"/>
      </g>
     </g>
     <g id="text_11">
      <!-- 80 -->
      <g transform="translate(40.94375 123.675566)scale(0.15 -0.15)">
       <defs>
        <path id="DejaVuSans-38" d="M 2034 2216 
Q 1584 2216 1326 1975 
Q 1069 1734 1069 1313 
Q 1069 891 1326 650 
Q 1584 409 2034 409 
Q 2484 409 2743 651 
Q 3003 894 3003 1313 
Q 3003 1734 2745 1975 
Q 2488 2216 2034 2216 
z
M 1403 2484 
Q 997 2584 770 2862 
Q 544 3141 544 3541 
Q 544 4100 942 4425 
Q 1341 4750 2034 4750 
Q 2731 4750 3128 4425 
Q 3525 4100 3525 3541 
Q 3525 3141 3298 2862 
Q 3072 2584 2669 2484 
Q 3125 2378 3379 2068 
Q 3634 1759 3634 1313 
Q 3634 634 3220 271 
Q 2806 -91 2034 -91 
Q 1263 -91 848 271 
Q 434 634 434 1313 
Q 434 1759 690 2068 
Q 947 2378 1403 2484 
z
M 1172 3481 
Q 1172 3119 1398 2916 
Q 1625 2713 2034 2713 
Q 2441 2713 2670 2916 
Q 2900 3119 2900 3481 
Q 2900 3844 2670 4047 
Q 2441 4250 2034 4250 
Q 1625 4250 1398 4047 
Q 1172 3844 1172 3481 
z
" transform="scale(0.015625)"/>
       </defs>
       <use xlink:href="#DejaVuSans-38"/>
       <use xlink:href="#DejaVuSans-30" x="63.623047"/>
      </g>
     </g>
    </g>
    <g id="ytick_6">
     <g id="line2d_21">
      <path d="M 67.03125 74.706494 
L 424.15125 74.706494 
" clip-path="url(#p16dad856f7)" style="fill: none; stroke: #b0b0b0; stroke-width: 0.8; stroke-linecap: square"/>
     </g>
     <g id="line2d_22">
      <g>
       <use xlink:href="#m6f3f5b6aff" x="67.03125" y="74.706494" style="stroke: #000000; stroke-width: 0.8"/>
      </g>
     </g>
     <g id="text_12">
      <!-- 100 -->
      <g transform="translate(31.4 80.405322)scale(0.15 -0.15)">
       <use xlink:href="#DejaVuSans-31"/>
       <use xlink:href="#DejaVuSans-30" x="63.623047"/>
       <use xlink:href="#DejaVuSans-30" x="127.246094"/>
      </g>
     </g>
    </g>
    <g id="ytick_7">
     <g id="line2d_23">
      <path d="M 67.03125 31.43625 
L 424.15125 31.43625 
" clip-path="url(#p16dad856f7)" style="fill: none; stroke: #b0b0b0; stroke-width: 0.8; stroke-linecap: square"/>
     </g>
     <g id="line2d_24">
      <g>
       <use xlink:href="#m6f3f5b6aff" x="67.03125" y="31.43625" style="stroke: #000000; stroke-width: 0.8"/>
      </g>
     </g>
     <g id="text_13">
      <!-- 120 -->
      <g transform="translate(31.4 37.135078)scale(0.15 -0.15)">
       <use xlink:href="#DejaVuSans-31"/>
       <use xlink:href="#DejaVuSans-32" x="63.623047"/>
       <use xlink:href="#DejaVuSans-30" x="127.246094"/>
      </g>
     </g>
    </g>
    <g id="text_14">
     <!-- $kHz^2/V^2$ -->
     <g transform="translate(23.240625 203.89225)rotate(-90)scale(0.2 -0.2)">
      <defs>
       <path id="DejaVuSans-Oblique-6b" d="M 1172 4863 
L 1747 4863 
L 1197 2028 
L 3169 3500 
L 3916 3500 
L 1716 1825 
L 3322 0 
L 2625 0 
L 1131 1709 
L 800 0 
L 225 0 
L 1172 4863 
z
" transform="scale(0.015625)"/>
       <path id="DejaVuSans-Oblique-48" d="M 1081 4666 
L 1716 4666 
L 1344 2753 
L 3634 2753 
L 4006 4666 
L 4641 4666 
L 3731 0 
L 3097 0 
L 3531 2222 
L 1241 2222 
L 806 0 
L 172 0 
L 1081 4666 
z
" transform="scale(0.015625)"/>
       <path id="DejaVuSans-Oblique-7a" d="M 744 3500 
L 3475 3500 
L 3372 2975 
L 738 459 
L 2913 459 
L 2822 0 
L -19 0 
L 84 525 
L 2719 3041 
L 653 3041 
L 744 3500 
z
" transform="scale(0.015625)"/>
       <path id="DejaVuSans-2f" d="M 1625 4666 
L 2156 4666 
L 531 -594 
L 0 -594 
L 1625 4666 
z
" transform="scale(0.015625)"/>
       <path id="DejaVuSans-Oblique-56" d="M 1319 0 
L 500 4666 
L 1119 4666 
L 1797 653 
L 4063 4666 
L 4750 4666 
L 2053 0 
L 1319 0 
z
" transform="scale(0.015625)"/>
      </defs>
      <use xlink:href="#DejaVuSans-Oblique-6b" transform="translate(0 0.765625)"/>
      <use xlink:href="#DejaVuSans-Oblique-48" transform="translate(57.910156 0.765625)"/>
      <use xlink:href="#DejaVuSans-Oblique-7a" transform="translate(133.105469 0.765625)"/>
      <use xlink:href="#DejaVuSans-32" transform="translate(190.061849 39.046875)scale(0.7)"/>
      <use xlink:href="#DejaVuSans-2f" transform="translate(237.332357 0.765625)"/>
      <use xlink:href="#DejaVuSans-Oblique-56" transform="translate(271.023763 0.765625)"/>
      <use xlink:href="#DejaVuSans-32" transform="translate(346.448737 39.046875)scale(0.7)"/>
     </g>
    </g>
   </g>
   <g id="line2d_25">
    <path d="M 83.263977 77.81776 
L 84.476972 77.634269 
L 85.975378 77.376602 
L 86.974315 76.962821 
L 88.330015 76.139976 
L 89.54301 75.213982 
L 90.6133 74.146539 
L 92.967937 71.68945 
L 93.752816 71.246369 
L 94.751753 70.971268 
L 96.392864 70.76398 
L 97.677212 70.731302 
L 98.390739 70.919335 
L 99.175618 71.377726 
L 100.245907 72.317443 
L 101.958371 73.858451 
L 103.242719 74.693447 
L 104.527066 75.294787 
L 105.454651 75.51737 
L 106.453588 75.51593 
L 109.307694 75.259585 
L 111.020157 75.233015 
L 112.518563 74.956799 
L 113.660205 74.84535 
L 116.514311 74.757037 
L 118.868948 74.415892 
L 121.437644 74.292846 
L 123.292812 73.981525 
L 127.359913 73.815245 
L 128.715614 73.724247 
L 130.998898 73.848862 
L 134.566531 73.744685 
L 135.922231 73.815997 
L 139.561216 73.662319 
L 141.059622 73.737976 
L 144.199138 73.63733 
L 145.911602 73.743675 
L 147.410007 73.530784 
L 148.908413 73.386057 
L 150.335466 73.299101 
L 151.619813 72.979387 
L 153.189572 72.555445 
L 154.473919 72.513184 
L 156.329088 72.478845 
L 158.612373 72.293043 
L 161.680537 72.399569 
L 163.678411 72.251954 
L 166.675222 72.334297 
L 168.530391 72.219796 
L 171.812613 72.323223 
L 173.881839 72.206 
L 176.521887 72.239321 
L 178.591114 72.05776 
L 181.231162 72.198138 
L 184.227973 72.035523 
L 186.011789 72.061391 
L 189.151306 71.854189 
L 190.863769 71.977681 
L 192.21947 71.845822 
L 193.57517 71.806992 
L 196.00116 72.000746 
L 198.284445 71.841371 
L 201.852077 71.968795 
L 203.421835 71.80049 
L 206.704057 71.702156 
L 207.917052 71.530658 
L 209.130047 71.554022 
L 210.913863 71.659006 
L 212.911738 71.400956 
L 214.05338 71.40249 
L 215.979901 71.443699 
L 219.048065 71.281344 
L 221.259997 71.481081 
L 224.328161 71.467802 
L 225.683861 71.562083 
L 226.682798 71.462788 
L 228.395262 71.297175 
L 232.176952 71.295104 
L 233.532653 71.250088 
L 236.743522 71.360833 
L 238.384633 71.289101 
L 239.597628 71.465379 
L 241.167386 71.632576 
L 243.307965 71.786213 
L 246.304776 72.315436 
L 249.515646 72.172988 
L 250.799993 72.13806 
L 254.010862 71.656285 
L 256.579558 71.629878 
L 258.506079 71.532194 
L 261.146127 71.682283 
L 264.428349 71.509498 
L 265.998107 71.527675 
L 268.994918 71.343706 
L 270.778735 71.425964 
L 272.491198 71.18368 
L 273.704193 71.140966 
L 276.415594 71.209582 
L 278.48482 71.076058 
L 280.696752 71.241929 
L 284.264385 71.01758 
L 285.834143 71.073199 
L 289.758539 70.913238 
L 290.828828 70.875172 
L 294.11105 70.537974 
L 296.037572 70.577882 
L 299.034383 70.440761 
L 300.818199 70.531727 
L 302.316605 70.291744 
L 303.600952 70.163101 
L 306.455058 70.097686 
L 308.452932 69.933187 
L 311.378391 69.942992 
L 314.660613 69.306228 
L 316.230371 68.972217 
L 318.156892 68.550749 
L 319.298535 68.566984 
L 320.725588 68.553662 
L 322.438051 68.219784 
L 323.722399 68.093249 
L 326.005684 67.955766 
L 328.717084 67.548509 
L 330.786311 67.538837 
L 334.996117 67.007639 
L 336.066407 66.806602 
L 339.063218 65.999913 
L 341.346503 65.598215 
L 343.487082 65.063165 
L 346.840657 64.534505 
L 348.26771 64.198409 
L 351.478579 63.661305 
L 353.4051 63.066585 
L 356.401911 62.462777 
L 358.25708 61.92798 
L 361.967418 61.524107 
L 363.751234 61.200502 
L 365.463698 60.944916 
L 366.60534 60.512788 
L 368.389156 59.836477 
L 372.384904 58.705021 
L 374.026015 58.263788 
L 375.23901 57.862829 
L 376.3093 57.215572 
L 380.875869 53.761973 
L 386.798139 47.592961 
L 389.010071 44.930302 
L 390.86524 42.710075 
L 394.290167 38.169806 
L 396.216689 35.770573 
L 398.285915 32.620872 
L 399.2135 30.889503 
L 399.855674 29.190857 
L 400.426495 27.043189 
L 400.997316 23.978222 
L 401.568137 19.620827 
L 402.138958 13.423129 
L 402.709779 4.637603 
L 402.992715 -1 
L 402.992715 -1 
" clip-path="url(#p16dad856f7)" style="fill: none; stroke: #1f77b4; stroke-width: 1.5; stroke-linecap: square"/>
   </g>
   <g id="line2d_26">
    <path d="M 83.263977 291.058734 
L 404.707654 290.951262 
L 404.921712 290.923754 
L 405.135769 291.162628 
L 405.563885 290.85835 
L 405.777943 290.934224 
L 405.992001 291.112507 
L 406.206059 290.951292 
L 406.277412 290.769951 
L 406.348764 290.857049 
L 406.562822 291.209669 
L 406.634175 291.123185 
L 406.705528 291.291929 
L 406.77688 290.925506 
L 406.848233 291.002373 
L 406.919586 291.043367 
L 407.133644 290.539577 
L 407.204996 292.531827 
L 407.276349 290.210653 
L 407.347702 294.957818 
L 407.419054 294.368438 
L 407.490407 291.494577 
L 407.704465 300.638477 
L 407.775817 285.175843 
L 407.838771 350.665437 
M 407.860279 350.665437 
L 407.918523 311.845457 
L 407.918523 311.845457 
" clip-path="url(#p16dad856f7)" style="fill: none; stroke: #ff7f0e; stroke-width: 1.5; stroke-linecap: square"/>
   </g>
   <g id="line2d_27">
    <path d="M 83.263977 76.811019 
L 84.334267 76.401929 
L 90.399242 73.663714 
L 91.68359 73.43594 
L 92.967937 73.103911 
L 94.39499 72.432945 
L 95.46528 72.037786 
L 96.321512 71.987918 
L 97.249096 72.17857 
L 99.104265 72.606038 
L 100.745376 72.605055 
L 101.744313 72.732675 
L 103.028661 73.169122 
L 104.669771 73.662101 
L 108.380109 74.562599 
L 109.807162 74.45267 
L 111.234215 74.387825 
L 113.80291 74.436322 
L 116.942427 74.153456 
L 118.298127 74.170139 
L 119.653827 73.938631 
L 121.294938 73.76831 
L 123.649576 73.78557 
L 126.503682 73.495065 
L 129.072377 73.509466 
L 130.78484 73.311101 
L 131.926483 73.38208 
L 133.282183 73.470499 
L 134.851941 73.29201 
L 136.136289 73.234957 
L 139.347158 73.294479 
L 140.988269 73.160455 
L 143.913728 73.275981 
L 145.768896 73.044928 
L 148.908413 72.975855 
L 151.191698 72.573554 
L 154.045803 72.390755 
L 155.758267 72.095999 
L 157.042615 72.144622 
L 158.755078 72.149337 
L 161.395126 71.954262 
L 163.963821 72.045313 
L 165.890343 71.873205 
L 167.531454 72.035736 
L 169.029859 72.002486 
L 171.170439 71.852444 
L 173.810487 71.967471 
L 176.307829 71.772298 
L 178.876525 71.854606 
L 181.373867 71.67658 
L 183.799857 71.759325 
L 186.083142 71.538373 
L 189.508069 71.551649 
L 190.935122 71.454471 
L 194.574107 71.525575 
L 195.573044 71.450842 
L 197.927682 71.677158 
L 202.066135 71.537949 
L 202.922367 71.612641 
L 203.707246 71.554203 
L 206.418647 71.318186 
L 207.488936 71.41483 
L 209.2014 71.316304 
L 209.986279 71.184421 
L 211.127921 71.13707 
L 213.910675 71.198978 
L 216.051254 70.999709 
L 219.832944 71.003292 
L 221.117292 70.981031 
L 223.971398 71.135101 
L 226.18333 70.99246 
L 228.60932 71.125043 
L 231.178015 70.931371 
L 233.960768 71.040425 
L 235.88729 70.899904 
L 239.954391 71.058476 
L 241.167386 71.133684 
L 243.807434 71.476163 
L 246.233424 71.479747 
L 248.374003 71.692972 
L 251.442167 71.441025 
L 253.582747 71.475243 
L 256.151442 71.227533 
L 259.433664 71.24507 
L 261.003422 71.149529 
L 263.857528 71.227609 
L 265.712697 71.014172 
L 266.640281 71.059978 
L 268.281392 71.141074 
L 269.708445 70.951707 
L 270.92144 70.87031 
L 274.346367 70.85499 
L 275.844772 70.731173 
L 277.057767 70.83458 
L 278.342115 70.88002 
L 279.55511 70.732153 
L 280.768105 70.64198 
L 284.478443 70.612163 
L 285.834143 70.495562 
L 287.403901 70.610116 
L 288.688249 70.556649 
L 291.613708 70.327004 
L 293.397524 70.353461 
L 296.53704 70.09112 
L 298.392209 70.167858 
L 300.03332 69.933219 
L 300.889552 69.883577 
L 304.100421 69.822647 
L 306.383706 69.624517 
L 308.38158 69.652206 
L 309.808633 69.390622 
L 310.80757 69.267987 
L 314.018439 68.981483 
L 315.730902 68.598321 
L 317.372013 68.543746 
L 318.513656 68.411637 
L 321.296409 67.96332 
L 323.508341 67.877057 
L 326.219742 67.443705 
L 328.645732 67.329663 
L 330.857664 66.921384 
L 333.854475 66.676941 
L 336.779933 66.136651 
L 338.349692 65.94717 
L 341.845971 65.176277 
L 343.201672 65.017746 
L 346.769304 64.273678 
L 348.481767 64.042362 
L 351.835342 63.302229 
L 353.191042 63.10367 
L 354.832153 62.561874 
L 356.045148 62.300482 
L 358.899254 61.90115 
L 360.754423 61.425283 
L 363.679881 61.030238 
L 366.248577 60.290999 
L 368.246451 59.923097 
L 369.602151 59.358788 
L 370.957851 58.904083 
L 373.597899 58.106916 
L 378.449879 55.512253 
L 383.944033 50.702205 
L 388.867366 44.791521 
L 391.293356 40.728265 
L 392.577704 38.303456 
L 393.576641 35.849899 
L 394.575578 32.749131 
L 395.574515 28.904077 
L 396.502099 24.460631 
L 397.286978 19.601377 
L 398.000505 13.789388 
L 398.714031 6.108548 
L 399.231187 -1 
L 399.231187 -1 
" clip-path="url(#p16dad856f7)" style="fill: none; stroke: #2ca02c; stroke-width: 1.5; stroke-linecap: square"/>
   </g>
   <g id="patch_3">
    <path d="M 67.03125 297.54825 
L 67.03125 31.43625 
" style="fill: none; stroke: #000000; stroke-width: 0.8; stroke-linejoin: miter; stroke-linecap: square"/>
   </g>
   <g id="patch_4">
    <path d="M 424.15125 297.54825 
L 424.15125 31.43625 
" style="fill: none; stroke: #000000; stroke-width: 0.8; stroke-linejoin: miter; stroke-linecap: square"/>
   </g>
   <g id="patch_5">
    <path d="M 67.03125 297.54825 
L 424.15125 297.54825 
" style="fill: none; stroke: #000000; stroke-width: 0.8; stroke-linejoin: miter; stroke-linecap: square"/>
   </g>
   <g id="patch_6">
    <path d="M 67.03125 31.43625 
L 424.15125 31.43625 
" style="fill: none; stroke: #000000; stroke-width: 0.8; stroke-linejoin: miter; stroke-linecap: square"/>
   </g>
   <g id="text_15">
    <!-- Ion Trap Potential Curvature -->
    <g transform="translate(77.90625 25.43625)scale(0.24 -0.24)">
     <defs>
      <path id="DejaVuSans-49" d="M 628 4666 
L 1259 4666 
L 1259 0 
L 628 0 
L 628 4666 
z
" transform="scale(0.015625)"/>
      <path id="DejaVuSans-6f" d="M 1959 3097 
Q 1497 3097 1228 2736 
Q 959 2375 959 1747 
Q 959 1119 1226 758 
Q 1494 397 1959 397 
Q 2419 397 2687 759 
Q 2956 1122 2956 1747 
Q 2956 2369 2687 2733 
Q 2419 3097 1959 3097 
z
M 1959 3584 
Q 2709 3584 3137 3096 
Q 3566 2609 3566 1747 
Q 3566 888 3137 398 
Q 2709 -91 1959 -91 
Q 1206 -91 779 398 
Q 353 888 353 1747 
Q 353 2609 779 3096 
Q 1206 3584 1959 3584 
z
" transform="scale(0.015625)"/>
      <path id="DejaVuSans-6e" d="M 3513 2113 
L 3513 0 
L 2938 0 
L 2938 2094 
Q 2938 2591 2744 2837 
Q 2550 3084 2163 3084 
Q 1697 3084 1428 2787 
Q 1159 2491 1159 1978 
L 1159 0 
L 581 0 
L 581 3500 
L 1159 3500 
L 1159 2956 
Q 1366 3272 1645 3428 
Q 1925 3584 2291 3584 
Q 2894 3584 3203 3211 
Q 3513 2838 3513 2113 
z
" transform="scale(0.015625)"/>
      <path id="DejaVuSans-54" d="M -19 4666 
L 3928 4666 
L 3928 4134 
L 2272 4134 
L 2272 0 
L 1638 0 
L 1638 4134 
L -19 4134 
L -19 4666 
z
" transform="scale(0.015625)"/>
      <path id="DejaVuSans-72" d="M 2631 2963 
Q 2534 3019 2420 3045 
Q 2306 3072 2169 3072 
Q 1681 3072 1420 2755 
Q 1159 2438 1159 1844 
L 1159 0 
L 581 0 
L 581 3500 
L 1159 3500 
L 1159 2956 
Q 1341 3275 1631 3429 
Q 1922 3584 2338 3584 
Q 2397 3584 2469 3576 
Q 2541 3569 2628 3553 
L 2631 2963 
z
" transform="scale(0.015625)"/>
      <path id="DejaVuSans-61" d="M 2194 1759 
Q 1497 1759 1228 1600 
Q 959 1441 959 1056 
Q 959 750 1161 570 
Q 1363 391 1709 391 
Q 2188 391 2477 730 
Q 2766 1069 2766 1631 
L 2766 1759 
L 2194 1759 
z
M 3341 1997 
L 3341 0 
L 2766 0 
L 2766 531 
Q 2569 213 2275 61 
Q 1981 -91 1556 -91 
Q 1019 -91 701 211 
Q 384 513 384 1019 
Q 384 1609 779 1909 
Q 1175 2209 1959 2209 
L 2766 2209 
L 2766 2266 
Q 2766 2663 2505 2880 
Q 2244 3097 1772 3097 
Q 1472 3097 1187 3025 
Q 903 2953 641 2809 
L 641 3341 
Q 956 3463 1253 3523 
Q 1550 3584 1831 3584 
Q 2591 3584 2966 3190 
Q 3341 2797 3341 1997 
z
" transform="scale(0.015625)"/>
      <path id="DejaVuSans-70" d="M 1159 525 
L 1159 -1331 
L 581 -1331 
L 581 3500 
L 1159 3500 
L 1159 2969 
Q 1341 3281 1617 3432 
Q 1894 3584 2278 3584 
Q 2916 3584 3314 3078 
Q 3713 2572 3713 1747 
Q 3713 922 3314 415 
Q 2916 -91 2278 -91 
Q 1894 -91 1617 61 
Q 1341 213 1159 525 
z
M 3116 1747 
Q 3116 2381 2855 2742 
Q 2594 3103 2138 3103 
Q 1681 3103 1420 2742 
Q 1159 2381 1159 1747 
Q 1159 1113 1420 752 
Q 1681 391 2138 391 
Q 2594 391 2855 752 
Q 3116 1113 3116 1747 
z
" transform="scale(0.015625)"/>
      <path id="DejaVuSans-50" d="M 1259 4147 
L 1259 2394 
L 2053 2394 
Q 2494 2394 2734 2622 
Q 2975 2850 2975 3272 
Q 2975 3691 2734 3919 
Q 2494 4147 2053 4147 
L 1259 4147 
z
M 628 4666 
L 2053 4666 
Q 2838 4666 3239 4311 
Q 3641 3956 3641 3272 
Q 3641 2581 3239 2228 
Q 2838 1875 2053 1875 
L 1259 1875 
L 1259 0 
L 628 0 
L 628 4666 
z
" transform="scale(0.015625)"/>
      <path id="DejaVuSans-74" d="M 1172 4494 
L 1172 3500 
L 2356 3500 
L 2356 3053 
L 1172 3053 
L 1172 1153 
Q 1172 725 1289 603 
Q 1406 481 1766 481 
L 2356 481 
L 2356 0 
L 1766 0 
Q 1100 0 847 248 
Q 594 497 594 1153 
L 594 3053 
L 172 3053 
L 172 3500 
L 594 3500 
L 594 4494 
L 1172 4494 
z
" transform="scale(0.015625)"/>
      <path id="DejaVuSans-65" d="M 3597 1894 
L 3597 1613 
L 953 1613 
Q 991 1019 1311 708 
Q 1631 397 2203 397 
Q 2534 397 2845 478 
Q 3156 559 3463 722 
L 3463 178 
Q 3153 47 2828 -22 
Q 2503 -91 2169 -91 
Q 1331 -91 842 396 
Q 353 884 353 1716 
Q 353 2575 817 3079 
Q 1281 3584 2069 3584 
Q 2775 3584 3186 3129 
Q 3597 2675 3597 1894 
z
M 3022 2063 
Q 3016 2534 2758 2815 
Q 2500 3097 2075 3097 
Q 1594 3097 1305 2825 
Q 1016 2553 972 2059 
L 3022 2063 
z
" transform="scale(0.015625)"/>
      <path id="DejaVuSans-69" d="M 603 3500 
L 1178 3500 
L 1178 0 
L 603 0 
L 603 3500 
z
M 603 4863 
L 1178 4863 
L 1178 4134 
L 603 4134 
L 603 4863 
z
" transform="scale(0.015625)"/>
      <path id="DejaVuSans-6c" d="M 603 4863 
L 1178 4863 
L 1178 0 
L 603 0 
L 603 4863 
z
" transform="scale(0.015625)"/>
      <path id="DejaVuSans-43" d="M 4122 4306 
L 4122 3641 
Q 3803 3938 3442 4084 
Q 3081 4231 2675 4231 
Q 1875 4231 1450 3742 
Q 1025 3253 1025 2328 
Q 1025 1406 1450 917 
Q 1875 428 2675 428 
Q 3081 428 3442 575 
Q 3803 722 4122 1019 
L 4122 359 
Q 3791 134 3420 21 
Q 3050 -91 2638 -91 
Q 1578 -91 968 557 
Q 359 1206 359 2328 
Q 359 3453 968 4101 
Q 1578 4750 2638 4750 
Q 3056 4750 3426 4639 
Q 3797 4528 4122 4306 
z
" transform="scale(0.015625)"/>
      <path id="DejaVuSans-75" d="M 544 1381 
L 544 3500 
L 1119 3500 
L 1119 1403 
Q 1119 906 1312 657 
Q 1506 409 1894 409 
Q 2359 409 2629 706 
Q 2900 1003 2900 1516 
L 2900 3500 
L 3475 3500 
L 3475 0 
L 2900 0 
L 2900 538 
Q 2691 219 2414 64 
Q 2138 -91 1772 -91 
Q 1169 -91 856 284 
Q 544 659 544 1381 
z
M 1991 3584 
L 1991 3584 
z
" transform="scale(0.015625)"/>
      <path id="DejaVuSans-76" d="M 191 3500 
L 800 3500 
L 1894 563 
L 2988 3500 
L 3597 3500 
L 2284 0 
L 1503 0 
L 191 3500 
z
" transform="scale(0.015625)"/>
     </defs>
     <use xlink:href="#DejaVuSans-49"/>
     <use xlink:href="#DejaVuSans-6f" x="29.492188"/>
     <use xlink:href="#DejaVuSans-6e" x="90.673828"/>
     <use xlink:href="#DejaVuSans-20" x="154.052734"/>
     <use xlink:href="#DejaVuSans-54" x="185.839844"/>
     <use xlink:href="#DejaVuSans-72" x="232.173828"/>
     <use xlink:href="#DejaVuSans-61" x="273.287109"/>
     <use xlink:href="#DejaVuSans-70" x="334.566406"/>
     <use xlink:href="#DejaVuSans-20" x="398.042969"/>
     <use xlink:href="#DejaVuSans-50" x="429.830078"/>
     <use xlink:href="#DejaVuSans-6f" x="486.507812"/>
     <use xlink:href="#DejaVuSans-74" x="547.689453"/>
     <use xlink:href="#DejaVuSans-65" x="586.898438"/>
     <use xlink:href="#DejaVuSans-6e" x="648.421875"/>
     <use xlink:href="#DejaVuSans-74" x="711.800781"/>
     <use xlink:href="#DejaVuSans-69" x="751.009766"/>
     <use xlink:href="#DejaVuSans-61" x="778.792969"/>
     <use xlink:href="#DejaVuSans-6c" x="840.072266"/>
     <use xlink:href="#DejaVuSans-20" x="867.855469"/>
     <use xlink:href="#DejaVuSans-43" x="899.642578"/>
     <use xlink:href="#DejaVuSans-75" x="969.466797"/>
     <use xlink:href="#DejaVuSans-72" x="1032.845703"/>
     <use xlink:href="#DejaVuSans-76" x="1073.958984"/>
     <use xlink:href="#DejaVuSans-61" x="1133.138672"/>
     <use xlink:href="#DejaVuSans-74" x="1194.417969"/>
     <use xlink:href="#DejaVuSans-75" x="1233.626953"/>
     <use xlink:href="#DejaVuSans-72" x="1297.005859"/>
     <use xlink:href="#DejaVuSans-65" x="1335.869141"/>
    </g>
   </g>
   <g id="legend_1">
    <g id="patch_7">
     <path d="M 81.03125 287.54825 
L 180.23125 287.54825 
Q 184.23125 287.54825 184.23125 283.54825 
L 184.23125 194.395125 
Q 184.23125 190.395125 180.23125 190.395125 
L 81.03125 190.395125 
Q 77.03125 190.395125 77.03125 194.395125 
L 77.03125 283.54825 
Q 77.03125 287.54825 81.03125 287.54825 
z
" style="fill: #ffffff; opacity: 0.8; stroke: #cccccc; stroke-linejoin: miter"/>
    </g>
    <g id="line2d_28">
     <path d="M 85.03125 209.595125 
L 105.03125 209.595125 
L 125.03125 209.595125 
" style="fill: none; stroke: #1f77b4; stroke-width: 1.5; stroke-linecap: square"/>
    </g>
    <g id="text_16">
     <!-- $y^2$ -->
     <g transform="translate(141.03125 216.595125)scale(0.2 -0.2)">
      <defs>
       <path id="DejaVuSans-Oblique-79" d="M 1588 -325 
Q 1188 -997 936 -1164 
Q 684 -1331 294 -1331 
L -159 -1331 
L -63 -850 
L 269 -850 
Q 509 -850 678 -719 
Q 847 -588 1056 -206 
L 1234 128 
L 459 3500 
L 1069 3500 
L 1650 819 
L 3256 3500 
L 3859 3500 
L 1588 -325 
z
" transform="scale(0.015625)"/>
      </defs>
      <use xlink:href="#DejaVuSans-Oblique-79" transform="translate(0 0.765625)"/>
      <use xlink:href="#DejaVuSans-32" transform="translate(63.645833 39.046875)scale(0.7)"/>
     </g>
    </g>
    <g id="line2d_29">
     <path d="M 85.03125 238.992 
L 105.03125 238.992 
L 125.03125 238.992 
" style="fill: none; stroke: #ff7f0e; stroke-width: 1.5; stroke-linecap: square"/>
    </g>
    <g id="text_17">
     <!-- $2yz$ -->
     <g transform="translate(141.03125 245.992)scale(0.2 -0.2)">
      <use xlink:href="#DejaVuSans-32" transform="translate(0 0.78125)"/>
      <use xlink:href="#DejaVuSans-Oblique-79" transform="translate(63.623047 0.78125)"/>
      <use xlink:href="#DejaVuSans-Oblique-7a" transform="translate(122.802734 0.78125)"/>
     </g>
    </g>
    <g id="line2d_30">
     <path d="M 85.03125 268.388875 
L 105.03125 268.388875 
L 125.03125 268.388875 
" style="fill: none; stroke: #2ca02c; stroke-width: 1.5; stroke-linecap: square"/>
    </g>
    <g id="text_18">
     <!-- $z^2$ -->
     <g transform="translate(141.03125 275.388875)scale(0.2 -0.2)">
      <use xlink:href="#DejaVuSans-Oblique-7a" transform="translate(0 0.765625)"/>
      <use xlink:href="#DejaVuSans-32" transform="translate(56.95638 39.046875)scale(0.7)"/>
     </g>
    </g>
   </g>
  </g>
 </g>
 <defs>
  <clipPath id="p16dad856f7">
   <rect x="67.03125" y="31.43625" width="357.12" height="266.112"/>
  </clipPath>
 </defs>
</svg>
