<?xml version="1.0" encoding="utf-8" standalone="no"?>
<!DOCTYPE svg PUBLIC "-//W3C//DTD SVG 1.1//EN"
  "http://www.w3.org/Graphics/SVG/1.1/DTD/svg11.dtd">
<svg xmlns:xlink="http://www.w3.org/1999/xlink" width="420.96375pt" height="349.665437pt" viewBox="0 0 420.96375 349.665437" xmlns="http://www.w3.org/2000/svg" version="1.1">
 <defs>
  <style type="text/css">*{stroke-linejoin: round; stroke-linecap: butt}</style>
 </defs>
 <g id="figure_1">
  <g id="patch_1">
   <path d="M 0 349.665437 
L 420.96375 349.665437 
L 420.96375 0 
L 0 0 
L 0 349.665437 
z
" style="fill: none"/>
  </g>
  <g id="axes_1">
   <g id="patch_2">
    <path d="M 56.64375 297.54825 
L 413.76375 297.54825 
L 413.76375 31.43625 
L 56.64375 31.43625 
L 56.64375 297.54825 
z
" style="fill: none"/>
   </g>
   <g id="matplotlib.axis_1">
    <g id="xtick_1">
     <g id="line2d_1">
      <path d="M 88.57406 297.54825 
L 88.57406 31.43625 
" clip-path="url(#p14a84bfd63)" style="fill: none; stroke: #b0b0b0; stroke-width: 0.8; stroke-linecap: square"/>
     </g>
     <g id="line2d_2">
      <defs>
       <path id="md39032bed2" d="M 0 0 
L 0 3.5 
" style="stroke: #000000; stroke-width: 0.8"/>
      </defs>
      <g>
       <use xlink:href="#md39032bed2" x="88.57406" y="297.54825" style="stroke: #000000; stroke-width: 0.8"/>
      </g>
     </g>
     <g id="text_1">
      <!-- −3000 -->
      <g transform="translate(63.201794 315.945906)scale(0.15 -0.15)">
       <defs>
        <path id="DejaVuSans-2212" d="M 678 2272 
L 4684 2272 
L 4684 1741 
L 678 1741 
L 678 2272 
z
" transform="scale(0.015625)"/>
        <path id="DejaVuSans-33" d="M 2597 2516 
Q 3050 2419 3304 2112 
Q 3559 1806 3559 1356 
Q 3559 666 3084 287 
Q 2609 -91 1734 -91 
Q 1441 -91 1130 -33 
Q 819 25 488 141 
L 488 750 
Q 750 597 1062 519 
Q 1375 441 1716 441 
Q 2309 441 2620 675 
Q 2931 909 2931 1356 
Q 2931 1769 2642 2001 
Q 2353 2234 1838 2234 
L 1294 2234 
L 1294 2753 
L 1863 2753 
Q 2328 2753 2575 2939 
Q 2822 3125 2822 3475 
Q 2822 3834 2567 4026 
Q 2313 4219 1838 4219 
Q 1578 4219 1281 4162 
Q 984 4106 628 3988 
L 628 4550 
Q 988 4650 1302 4700 
Q 1616 4750 1894 4750 
Q 2613 4750 3031 4423 
Q 3450 4097 3450 3541 
Q 3450 3153 3228 2886 
Q 3006 2619 2597 2516 
z
" transform="scale(0.015625)"/>
        <path id="DejaVuSans-30" d="M 2034 4250 
Q 1547 4250 1301 3770 
Q 1056 3291 1056 2328 
Q 1056 1369 1301 889 
Q 1547 409 2034 409 
Q 2525 409 2770 889 
Q 3016 1369 3016 2328 
Q 3016 3291 2770 3770 
Q 2525 4250 2034 4250 
z
M 2034 4750 
Q 2819 4750 3233 4129 
Q 3647 3509 3647 2328 
Q 3647 1150 3233 529 
Q 2819 -91 2034 -91 
Q 1250 -91 836 529 
Q 422 1150 422 2328 
Q 422 3509 836 4129 
Q 1250 4750 2034 4750 
z
" transform="scale(0.015625)"/>
       </defs>
       <use xlink:href="#DejaVuSans-2212"/>
       <use xlink:href="#DejaVuSans-33" x="83.789062"/>
       <use xlink:href="#DejaVuSans-30" x="147.412109"/>
       <use xlink:href="#DejaVuSans-30" x="211.035156"/>
       <use xlink:href="#DejaVuSans-30" x="274.658203"/>
      </g>
     </g>
    </g>
    <g id="xtick_2">
     <g id="line2d_3">
      <path d="M 159.926707 297.54825 
L 159.926707 31.43625 
" clip-path="url(#p14a84bfd63)" style="fill: none; stroke: #b0b0b0; stroke-width: 0.8; stroke-linecap: square"/>
     </g>
     <g id="line2d_4">
      <g>
       <use xlink:href="#md39032bed2" x="159.926707" y="297.54825" style="stroke: #000000; stroke-width: 0.8"/>
      </g>
     </g>
     <g id="text_2">
      <!-- −2000 -->
      <g transform="translate(134.554441 315.945906)scale(0.15 -0.15)">
       <defs>
        <path id="DejaVuSans-32" d="M 1228 531 
L 3431 531 
L 3431 0 
L 469 0 
L 469 531 
Q 828 903 1448 1529 
Q 2069 2156 2228 2338 
Q 2531 2678 2651 2914 
Q 2772 3150 2772 3378 
Q 2772 3750 2511 3984 
Q 2250 4219 1831 4219 
Q 1534 4219 1204 4116 
Q 875 4013 500 3803 
L 500 4441 
Q 881 4594 1212 4672 
Q 1544 4750 1819 4750 
Q 2544 4750 2975 4387 
Q 3406 4025 3406 3419 
Q 3406 3131 3298 2873 
Q 3191 2616 2906 2266 
Q 2828 2175 2409 1742 
Q 1991 1309 1228 531 
z
" transform="scale(0.015625)"/>
       </defs>
       <use xlink:href="#DejaVuSans-2212"/>
       <use xlink:href="#DejaVuSans-32" x="83.789062"/>
       <use xlink:href="#DejaVuSans-30" x="147.412109"/>
       <use xlink:href="#DejaVuSans-30" x="211.035156"/>
       <use xlink:href="#DejaVuSans-30" x="274.658203"/>
      </g>
     </g>
    </g>
    <g id="xtick_3">
     <g id="line2d_5">
      <path d="M 231.279354 297.54825 
L 231.279354 31.43625 
" clip-path="url(#p14a84bfd63)" style="fill: none; stroke: #b0b0b0; stroke-width: 0.8; stroke-linecap: square"/>
     </g>
     <g id="line2d_6">
      <g>
       <use xlink:href="#md39032bed2" x="231.279354" y="297.54825" style="stroke: #000000; stroke-width: 0.8"/>
      </g>
     </g>
     <g id="text_3">
      <!-- −1000 -->
      <g transform="translate(205.907089 315.945906)scale(0.15 -0.15)">
       <defs>
        <path id="DejaVuSans-31" d="M 794 531 
L 1825 531 
L 1825 4091 
L 703 3866 
L 703 4441 
L 1819 4666 
L 2450 4666 
L 2450 531 
L 3481 531 
L 3481 0 
L 794 0 
L 794 531 
z
" transform="scale(0.015625)"/>
       </defs>
       <use xlink:href="#DejaVuSans-2212"/>
       <use xlink:href="#DejaVuSans-31" x="83.789062"/>
       <use xlink:href="#DejaVuSans-30" x="147.412109"/>
       <use xlink:href="#DejaVuSans-30" x="211.035156"/>
       <use xlink:href="#DejaVuSans-30" x="274.658203"/>
      </g>
     </g>
    </g>
    <g id="xtick_4">
     <g id="line2d_7">
      <path d="M 302.632002 297.54825 
L 302.632002 31.43625 
" clip-path="url(#p14a84bfd63)" style="fill: none; stroke: #b0b0b0; stroke-width: 0.8; stroke-linecap: square"/>
     </g>
     <g id="line2d_8">
      <g>
       <use xlink:href="#md39032bed2" x="302.632002" y="297.54825" style="stroke: #000000; stroke-width: 0.8"/>
      </g>
     </g>
     <g id="text_4">
      <!-- 0 -->
      <g transform="translate(297.860127 315.945906)scale(0.15 -0.15)">
       <use xlink:href="#DejaVuSans-30"/>
      </g>
     </g>
    </g>
    <g id="xtick_5">
     <g id="line2d_9">
      <path d="M 373.984649 297.54825 
L 373.984649 31.43625 
" clip-path="url(#p14a84bfd63)" style="fill: none; stroke: #b0b0b0; stroke-width: 0.8; stroke-linecap: square"/>
     </g>
     <g id="line2d_10">
      <g>
       <use xlink:href="#md39032bed2" x="373.984649" y="297.54825" style="stroke: #000000; stroke-width: 0.8"/>
      </g>
     </g>
     <g id="text_5">
      <!-- 1000 -->
      <g transform="translate(354.897149 315.945906)scale(0.15 -0.15)">
       <use xlink:href="#DejaVuSans-31"/>
       <use xlink:href="#DejaVuSans-30" x="63.623047"/>
       <use xlink:href="#DejaVuSans-30" x="127.246094"/>
       <use xlink:href="#DejaVuSans-30" x="190.869141"/>
      </g>
     </g>
    </g>
    <g id="text_6">
     <!-- X ($\mu m$) -->
     <g transform="translate(201.20375 338.265437)scale(0.2 -0.2)">
      <defs>
       <path id="DejaVuSans-58" d="M 403 4666 
L 1081 4666 
L 2241 2931 
L 3406 4666 
L 4084 4666 
L 2584 2425 
L 4184 0 
L 3506 0 
L 2194 1984 
L 872 0 
L 191 0 
L 1856 2491 
L 403 4666 
z
" transform="scale(0.015625)"/>
       <path id="DejaVuSans-20" transform="scale(0.015625)"/>
       <path id="DejaVuSans-28" d="M 1984 4856 
Q 1566 4138 1362 3434 
Q 1159 2731 1159 2009 
Q 1159 1288 1364 580 
Q 1569 -128 1984 -844 
L 1484 -844 
Q 1016 -109 783 600 
Q 550 1309 550 2009 
Q 550 2706 781 3412 
Q 1013 4119 1484 4856 
L 1984 4856 
z
" transform="scale(0.015625)"/>
       <path id="DejaVuSans-Oblique-3bc" d="M -84 -1331 
L 856 3500 
L 1434 3500 
L 1009 1322 
Q 997 1256 987 1175 
Q 978 1094 978 1013 
Q 978 722 1161 565 
Q 1344 409 1684 409 
Q 2147 409 2431 671 
Q 2716 934 2816 1459 
L 3213 3500 
L 3788 3500 
L 3266 809 
Q 3253 750 3248 706 
Q 3244 663 3244 628 
Q 3244 531 3283 486 
Q 3322 441 3406 441 
Q 3438 441 3492 456 
Q 3547 472 3647 513 
L 3559 50 
Q 3422 -19 3297 -55 
Q 3172 -91 3053 -91 
Q 2847 -91 2730 40 
Q 2613 172 2613 403 
Q 2438 153 2195 31 
Q 1953 -91 1625 -91 
Q 1334 -91 1117 43 
Q 900 178 831 397 
L 494 -1331 
L -84 -1331 
z
" transform="scale(0.015625)"/>
       <path id="DejaVuSans-Oblique-6d" d="M 5747 2113 
L 5338 0 
L 4763 0 
L 5166 2094 
Q 5191 2228 5203 2325 
Q 5216 2422 5216 2491 
Q 5216 2772 5059 2928 
Q 4903 3084 4622 3084 
Q 4203 3084 3875 2770 
Q 3547 2456 3450 1953 
L 3066 0 
L 2491 0 
L 2900 2094 
Q 2925 2209 2937 2307 
Q 2950 2406 2950 2484 
Q 2950 2769 2794 2926 
Q 2638 3084 2363 3084 
Q 1938 3084 1609 2770 
Q 1281 2456 1184 1953 
L 800 0 
L 225 0 
L 909 3500 
L 1484 3500 
L 1375 2956 
Q 1609 3263 1923 3423 
Q 2238 3584 2597 3584 
Q 2978 3584 3223 3384 
Q 3469 3184 3519 2828 
Q 3781 3197 4126 3390 
Q 4472 3584 4856 3584 
Q 5306 3584 5551 3325 
Q 5797 3066 5797 2591 
Q 5797 2488 5784 2364 
Q 5772 2241 5747 2113 
z
" transform="scale(0.015625)"/>
       <path id="DejaVuSans-29" d="M 513 4856 
L 1013 4856 
Q 1481 4119 1714 3412 
Q 1947 2706 1947 2009 
Q 1947 1309 1714 600 
Q 1481 -109 1013 -844 
L 513 -844 
Q 928 -128 1133 580 
Q 1338 1288 1338 2009 
Q 1338 2731 1133 3434 
Q 928 4138 513 4856 
z
" transform="scale(0.015625)"/>
      </defs>
      <use xlink:href="#DejaVuSans-58" transform="translate(0 0.125)"/>
      <use xlink:href="#DejaVuSans-20" transform="translate(68.505859 0.125)"/>
      <use xlink:href="#DejaVuSans-28" transform="translate(100.292969 0.125)"/>
      <use xlink:href="#DejaVuSans-Oblique-3bc" transform="translate(139.306641 0.125)"/>
      <use xlink:href="#DejaVuSans-Oblique-6d" transform="translate(202.929688 0.125)"/>
      <use xlink:href="#DejaVuSans-29" transform="translate(300.341797 0.125)"/>
     </g>
    </g>
   </g>
   <g id="matplotlib.axis_2">
    <g id="ytick_1">
     <g id="line2d_11">
      <path d="M 56.64375 248.381663 
L 413.76375 248.381663 
" clip-path="url(#p14a84bfd63)" style="fill: none; stroke: #b0b0b0; stroke-width: 0.8; stroke-linecap: square"/>
     </g>
     <g id="line2d_12">
      <defs>
       <path id="m6f3f5b6aff" d="M 0 0 
L -3.5 0 
" style="stroke: #000000; stroke-width: 0.8"/>
      </defs>
      <g>
       <use xlink:href="#m6f3f5b6aff" x="56.64375" y="248.381663" style="stroke: #000000; stroke-width: 0.8"/>
      </g>
     </g>
     <g id="text_7">
      <!-- 23 -->
      <g transform="translate(30.55625 254.080491)scale(0.15 -0.15)">
       <use xlink:href="#DejaVuSans-32"/>
       <use xlink:href="#DejaVuSans-33" x="63.623047"/>
      </g>
     </g>
    </g>
    <g id="ytick_2">
     <g id="line2d_13">
      <path d="M 56.64375 191.882143 
L 413.76375 191.882143 
" clip-path="url(#p14a84bfd63)" style="fill: none; stroke: #b0b0b0; stroke-width: 0.8; stroke-linecap: square"/>
     </g>
     <g id="line2d_14">
      <g>
       <use xlink:href="#m6f3f5b6aff" x="56.64375" y="191.882143" style="stroke: #000000; stroke-width: 0.8"/>
      </g>
     </g>
     <g id="text_8">
      <!-- 24 -->
      <g transform="translate(30.55625 197.580971)scale(0.15 -0.15)">
       <defs>
        <path id="DejaVuSans-34" d="M 2419 4116 
L 825 1625 
L 2419 1625 
L 2419 4116 
z
M 2253 4666 
L 3047 4666 
L 3047 1625 
L 3713 1625 
L 3713 1100 
L 3047 1100 
L 3047 0 
L 2419 0 
L 2419 1100 
L 313 1100 
L 313 1709 
L 2253 4666 
z
" transform="scale(0.015625)"/>
       </defs>
       <use xlink:href="#DejaVuSans-32"/>
       <use xlink:href="#DejaVuSans-34" x="63.623047"/>
      </g>
     </g>
    </g>
    <g id="ytick_3">
     <g id="line2d_15">
      <path d="M 56.64375 135.382624 
L 413.76375 135.382624 
" clip-path="url(#p14a84bfd63)" style="fill: none; stroke: #b0b0b0; stroke-width: 0.8; stroke-linecap: square"/>
     </g>
     <g id="line2d_16">
      <g>
       <use xlink:href="#m6f3f5b6aff" x="56.64375" y="135.382624" style="stroke: #000000; stroke-width: 0.8"/>
      </g>
     </g>
     <g id="text_9">
      <!-- 25 -->
      <g transform="translate(30.55625 141.081452)scale(0.15 -0.15)">
       <defs>
        <path id="DejaVuSans-35" d="M 691 4666 
L 3169 4666 
L 3169 4134 
L 1269 4134 
L 1269 2991 
Q 1406 3038 1543 3061 
Q 1681 3084 1819 3084 
Q 2600 3084 3056 2656 
Q 3513 2228 3513 1497 
Q 3513 744 3044 326 
Q 2575 -91 1722 -91 
Q 1428 -91 1123 -41 
Q 819 9 494 109 
L 494 744 
Q 775 591 1075 516 
Q 1375 441 1709 441 
Q 2250 441 2565 725 
Q 2881 1009 2881 1497 
Q 2881 1984 2565 2268 
Q 2250 2553 1709 2553 
Q 1456 2553 1204 2497 
Q 953 2441 691 2322 
L 691 4666 
z
" transform="scale(0.015625)"/>
       </defs>
       <use xlink:href="#DejaVuSans-32"/>
       <use xlink:href="#DejaVuSans-35" x="63.623047"/>
      </g>
     </g>
    </g>
    <g id="ytick_4">
     <g id="line2d_17">
      <path d="M 56.64375 78.883104 
L 413.76375 78.883104 
" clip-path="url(#p14a84bfd63)" style="fill: none; stroke: #b0b0b0; stroke-width: 0.8; stroke-linecap: square"/>
     </g>
     <g id="line2d_18">
      <g>
       <use xlink:href="#m6f3f5b6aff" x="56.64375" y="78.883104" style="stroke: #000000; stroke-width: 0.8"/>
      </g>
     </g>
     <g id="text_10">
      <!-- 26 -->
      <g transform="translate(30.55625 84.581932)scale(0.15 -0.15)">
       <defs>
        <path id="DejaVuSans-36" d="M 2113 2584 
Q 1688 2584 1439 2293 
Q 1191 2003 1191 1497 
Q 1191 994 1439 701 
Q 1688 409 2113 409 
Q 2538 409 2786 701 
Q 3034 994 3034 1497 
Q 3034 2003 2786 2293 
Q 2538 2584 2113 2584 
z
M 3366 4563 
L 3366 3988 
Q 3128 4100 2886 4159 
Q 2644 4219 2406 4219 
Q 1781 4219 1451 3797 
Q 1122 3375 1075 2522 
Q 1259 2794 1537 2939 
Q 1816 3084 2150 3084 
Q 2853 3084 3261 2657 
Q 3669 2231 3669 1497 
Q 3669 778 3244 343 
Q 2819 -91 2113 -91 
Q 1303 -91 875 529 
Q 447 1150 447 2328 
Q 447 3434 972 4092 
Q 1497 4750 2381 4750 
Q 2619 4750 2861 4703 
Q 3103 4656 3366 4563 
z
" transform="scale(0.015625)"/>
       </defs>
       <use xlink:href="#DejaVuSans-32"/>
       <use xlink:href="#DejaVuSans-36" x="63.623047"/>
      </g>
     </g>
    </g>
    <g id="text_11">
     <!-- $mm^{-2}$ -->
     <g transform="translate(22.396875 195.09225)rotate(-90)scale(0.2 -0.2)">
      <use xlink:href="#DejaVuSans-Oblique-6d" transform="translate(0 0.765625)"/>
      <use xlink:href="#DejaVuSans-Oblique-6d" transform="translate(97.412109 0.765625)"/>
      <use xlink:href="#DejaVuSans-2212" transform="translate(199.474115 39.046875)scale(0.7)"/>
      <use xlink:href="#DejaVuSans-32" transform="translate(258.126458 39.046875)scale(0.7)"/>
     </g>
    </g>
   </g>
   <g id="line2d_19">
    <path d="M 72.876477 215.192672 
L 73.161888 214.161336 
L 73.233241 214.094461 
L 73.590004 213.196947 
L 73.661356 213.172916 
L 73.875414 212.71788 
L 74.232178 212.415019 
L 74.30353 212.365709 
L 74.374883 212.494088 
L 74.588941 212.164371 
L 74.731646 212.110857 
L 75.017057 212.001202 
L 75.302467 212.377625 
L 75.37382 212.206096 
L 75.445173 212.299289 
L 75.587878 212.274692 
L 75.659231 212.119765 
L 75.873288 212.359467 
L 75.944641 212.240297 
L 76.158699 212.530994 
L 76.372757 212.376509 
L 76.658168 212.671129 
L 77.585752 212.822092 
L 77.657105 212.774637 
L 77.728457 212.918123 
L 77.79981 212.7614 
L 77.871163 212.830821 
L 78.227926 212.867138 
L 78.513336 212.839626 
L 78.656042 212.797384 
L 79.012805 212.564895 
L 79.15551 212.590607 
L 79.440921 212.400989 
L 79.512273 212.49627 
L 79.654979 212.14567 
L 79.726331 212.198285 
L 79.869037 212.278589 
L 80.083095 212.122877 
L 80.368505 211.680657 
L 81.082032 211.336485 
L 81.724206 210.691978 
L 83.079906 209.946566 
L 83.293964 210.184787 
L 83.508022 210.199031 
L 84.506959 210.367677 
L 84.578311 210.604476 
L 84.649664 210.491669 
L 85.291838 210.679549 
L 85.577249 210.866962 
L 85.648601 210.819913 
L 85.862659 211.16138 
L 86.14807 211.437224 
L 86.290775 211.368184 
L 86.718891 211.680065 
L 86.861596 211.947643 
L 87.075654 212.219611 
L 87.147007 212.175801 
L 87.432417 212.47658 
L 87.575123 212.499104 
L 89.430291 215.441363 
L 90.286523 217.173541 
L 90.429229 217.3586 
L 90.785992 218.245667 
L 91.00005 218.727581 
L 91.856281 219.842773 
L 92.070339 220.344459 
L 93.140629 221.739809 
L 93.925508 222.488261 
L 93.996861 222.42808 
L 94.210919 222.694469 
L 94.353624 222.707993 
L 94.496329 223.013829 
L 94.567682 222.819493 
L 94.78174 223.170091 
L 94.853093 223.188444 
L 95.067151 223.381744 
L 95.209856 223.367843 
L 96.850967 223.590579 
L 96.993672 223.790898 
L 97.065025 223.775889 
L 97.20773 223.508389 
L 97.564493 223.663742 
L 97.778551 223.567699 
L 97.992609 223.593285 
L 98.420725 223.541368 
L 98.706136 223.528286 
L 98.920194 223.464766 
L 99.062899 223.522254 
L 99.419662 223.423226 
L 99.562367 223.584622 
L 99.705073 223.286666 
L 99.919131 223.363105 
L 100.133189 223.293391 
L 100.275894 223.229962 
L 100.489952 223.285888 
L 100.775362 223.153939 
L 101.203478 222.990164 
L 101.346184 223.028705 
L 101.560242 222.793596 
L 102.131063 222.80696 
L 102.273768 222.507672 
L 102.416473 222.541785 
L 102.487826 222.493415 
L 102.630531 222.596998 
L 102.773237 222.471198 
L 102.915942 222.367038 
L 103.272705 222.380935 
L 103.41541 222.280744 
L 103.700821 222.241775 
L 104.200289 222.192997 
L 104.342995 222.107848 
L 104.4857 222.131814 
L 104.628405 222.314913 
L 104.842463 221.91228 
L 105.199227 222.093179 
L 105.413284 221.983779 
L 106.340869 221.906476 
L 106.483574 221.945544 
L 106.626279 221.9768 
L 107.054395 221.871588 
L 107.197101 222.320059 
L 107.339806 222.086962 
L 107.411159 222.048625 
L 107.625217 222.226634 
L 108.481448 222.953518 
L 108.695506 223.46924 
L 108.909564 223.63456 
L 109.123622 224.04152 
L 109.765796 225.654826 
L 109.837149 225.605135 
L 109.979854 226.239173 
L 110.479322 227.891904 
L 111.406907 232.122742 
L 112.263139 236.99152 
L 115.402655 255.593605 
L 116.972413 260.099365 
L 117.400529 260.509336 
L 117.471882 260.530628 
L 117.68594 260.913824 
L 118.114056 261.196609 
L 118.256761 261.098625 
L 118.684877 261.092992 
L 119.04164 261.071835 
L 119.184345 261.111409 
L 120.183282 260.106406 
L 120.39734 259.747633 
L 120.468693 259.724801 
L 120.896809 259.071503 
L 122.894683 255.703275 
L 123.108741 255.289538 
L 123.251446 255.175402 
L 123.60821 254.643141 
L 123.750915 254.559382 
L 124.321736 253.898755 
L 124.678499 253.705233 
L 125.106615 253.289009 
L 125.24932 253.19282 
L 125.534731 252.799727 
L 125.606084 252.878216 
L 125.677436 252.805387 
L 125.820142 252.721703 
L 125.962847 252.609066 
L 126.31961 252.453034 
L 126.605021 252.409198 
L 126.747726 252.505529 
L 126.819079 252.476562 
L 127.033137 252.168643 
L 127.247195 252.191655 
L 127.3899 252.223472 
L 127.818016 252.12875 
L 127.960721 251.967903 
L 128.246132 251.945627 
L 128.46019 251.808631 
L 128.674248 251.991763 
L 128.888305 251.889367 
L 129.173716 251.879495 
L 129.316421 252.016699 
L 129.744537 251.945049 
L 129.887243 251.934855 
L 130.88618 251.721234 
L 131.100238 251.528237 
L 131.242943 251.545512 
L 131.314295 251.523488 
L 131.528353 251.690577 
L 131.599706 251.683606 
L 131.671059 251.556655 
L 131.813764 251.660313 
L 132.24188 251.577 
L 132.384585 251.454407 
L 132.52729 251.504993 
L 132.741348 251.411913 
L 132.955406 251.458263 
L 133.098112 251.310388 
L 134.097049 251.204597 
L 134.382459 251.403141 
L 135.952218 251.30897 
L 136.094923 251.254352 
L 136.808449 251.444745 
L 137.022507 251.549733 
L 137.450623 251.379301 
L 137.593328 251.489918 
L 138.092797 251.3289 
L 138.378208 251.630398 
L 138.663618 251.562484 
L 139.020381 251.725995 
L 139.163087 251.67618 
L 139.377145 251.666011 
L 139.448497 251.551375 
L 139.662555 251.717756 
L 139.876613 251.796872 
L 140.233376 251.878541 
L 140.376082 252.134623 
L 140.59014 252.032334 
L 140.804198 251.915596 
L 141.018255 251.983709 
L 141.303666 251.923568 
L 142.516661 251.907722 
L 142.659366 251.991628 
L 142.802072 251.923838 
L 142.873424 251.75512 
L 142.944777 251.79643 
L 143.158835 251.726891 
L 143.30154 251.642408 
L 144.37183 251.713935 
L 144.657241 251.544349 
L 144.942651 251.794467 
L 145.085356 251.608085 
L 145.228062 251.758311 
L 145.513472 251.680018 
L 145.656178 251.599517 
L 145.870236 251.503676 
L 146.084293 251.446998 
L 146.869173 251.369591 
L 147.083231 251.265444 
L 147.225936 251.43094 
L 147.368641 251.343026 
L 147.439994 251.417397 
L 147.654052 251.250156 
L 147.725404 251.491263 
L 147.796757 251.437723 
L 148.224873 251.140798 
L 148.367578 251.143574 
L 148.510283 251.256878 
L 149.152457 251.240538 
L 149.437868 251.206501 
L 149.651926 251.131191 
L 149.937336 251.270644 
L 150.008689 251.433191 
L 150.151394 251.126999 
L 150.222747 251.211722 
L 150.365452 251.235873 
L 150.508158 251.274845 
L 150.722216 251.177005 
L 150.864921 251.050716 
L 152.434679 250.745255 
L 152.577384 250.805958 
L 152.72009 250.556486 
L 152.934148 250.609086 
L 153.148206 250.326244 
L 153.290911 250.331315 
L 154.503906 249.926515 
L 154.575258 249.805934 
L 154.646611 249.870202 
L 154.932022 249.793666 
L 155.003374 249.759306 
L 155.074727 249.971301 
L 155.14608 249.917549 
L 155.288785 249.790398 
L 155.360138 249.841717 
L 155.574196 249.621515 
L 155.716901 249.615893 
L 155.930959 249.307682 
L 156.145017 249.387999 
L 156.50178 249.126432 
L 157.286659 248.654654 
L 157.358012 248.819407 
L 157.714775 248.784255 
L 157.786128 248.606304 
L 157.85748 248.665928 
L 158.000186 248.681887 
L 158.071538 248.637717 
L 158.214244 248.393817 
L 158.356949 248.329062 
L 158.571007 248.177245 
L 158.856417 248.298944 
L 159.141828 248.160494 
L 159.712649 247.884855 
L 159.926707 247.798279 
L 160.212118 248.002861 
L 160.354823 247.801875 
L 162.638108 246.452087 
L 162.780813 246.419367 
L 162.923518 246.273211 
L 163.066224 246.218008 
L 163.137576 246.155886 
L 163.351634 245.831082 
L 163.637045 245.545664 
L 163.77975 245.515555 
L 164.635982 244.818733 
L 164.921392 244.487454 
L 165.064098 244.421629 
L 165.13545 244.34241 
L 165.206803 244.496891 
L 165.278156 244.387228 
L 165.349508 244.345125 
L 165.563566 244.082454 
L 166.134387 243.355193 
L 167.704146 241.848776 
L 167.846851 241.785631 
L 167.989556 241.602118 
L 168.060909 241.654109 
L 168.774435 240.774484 
L 168.988493 240.710975 
L 169.773372 240.11171 
L 169.98743 239.894256 
L 170.130136 239.898676 
L 170.272841 239.793971 
L 170.415546 239.900045 
L 170.700957 239.603532 
L 171.343131 239.22545 
L 172.12801 238.924918 
L 172.41342 238.873288 
L 172.556126 238.788177 
L 172.912889 239.076628 
L 173.055594 239.088603 
L 173.126947 238.946947 
L 173.198299 239.039841 
L 173.341005 239.163409 
L 173.48371 239.152297 
L 173.555063 239.195562 
L 173.626415 239.081154 
L 173.697768 239.130634 
L 173.983179 239.443324 
L 174.268589 239.821402 
L 174.910763 240.575982 
L 175.124821 240.995912 
L 175.481584 242.052492 
L 175.695642 242.329952 
L 176.694579 245.168932 
L 177.408106 247.950412 
L 177.693516 248.976819 
L 179.049217 255.308517 
L 184.043902 280.846913 
L 184.115254 280.905131 
L 184.828781 283.332153 
L 184.971486 283.605382 
L 185.042839 283.779366 
L 185.256897 284.602484 
L 185.470955 284.791121 
L 185.899071 285.369969 
L 186.68395 285.289707 
L 186.826655 284.655564 
L 186.898008 284.726472 
L 187.112066 284.24001 
L 187.611534 282.56762 
L 188.182355 279.545684 
L 189.823466 266.246454 
L 190.893756 253.52852 
L 191.250519 248.724004 
L 194.889504 202.514816 
L 195.31762 198.952069 
L 196.245205 191.94055 
L 196.887378 188.7975 
L 197.101436 188.305448 
L 197.172789 188.511044 
L 197.4582 187.299347 
L 197.600905 187.177426 
L 197.672257 186.722884 
L 197.74361 186.784293 
L 197.957668 186.823003 
L 198.314431 187.350772 
L 198.956605 188.441229 
L 201.453948 195.409116 
L 202.167474 196.345928 
L 202.738295 196.726415 
L 202.881001 196.678698 
L 203.166411 196.764351 
L 203.737233 196.619632 
L 204.73617 195.957977 
L 204.950228 195.804029 
L 205.449696 195.380927 
L 205.663754 195.014439 
L 205.735107 194.937968 
L 205.806459 195.216142 
L 205.877812 195.196816 
L 206.020517 195.1043 
L 206.234575 194.775254 
L 206.662691 194.624873 
L 207.090807 194.591756 
L 207.590275 194.751809 
L 208.161097 195.17034 
L 208.51786 195.557237 
L 209.160034 196.510769 
L 209.87356 197.791967 
L 210.087618 198.160219 
L 211.800082 201.151842 
L 212.370903 202.086012 
L 212.799019 202.586589 
L 214.154719 204.312546 
L 214.297424 204.335326 
L 215.367714 205.396294 
L 216.223946 205.706837 
L 217.080178 205.705323 
L 218.935346 205.350878 
L 219.078052 205.221833 
L 219.363462 205.314848 
L 219.791578 205.250309 
L 220.076989 205.31624 
L 220.790515 205.319616 
L 223.0738 205.663256 
L 223.287858 205.807808 
L 223.573268 205.954172 
L 227.854427 207.646047 
L 228.068485 207.768324 
L 228.425249 207.94994 
L 228.639306 208.040167 
L 228.782012 208.073596 
L 229.138775 208.292877 
L 230.137712 208.636026 
L 230.280417 208.797701 
L 230.637181 208.868299 
L 235.774571 210.221495 
L 235.988629 210.125074 
L 236.416745 210.242 
L 236.55945 209.99264 
L 236.630803 210.055972 
L 236.916214 210.020508 
L 237.62974 209.718957 
L 237.843798 209.612655 
L 238.057856 209.526563 
L 238.557324 209.204507 
L 238.771382 209.151586 
L 238.914088 208.836873 
L 239.056793 208.856449 
L 240.269788 207.489643 
L 240.769256 206.715388 
L 244.265536 200.859282 
L 245.978 198.903408 
L 246.049352 198.978399 
L 246.548821 198.521773 
L 247.904521 197.843804 
L 247.975874 197.916656 
L 248.047227 197.842189 
L 248.189932 197.750706 
L 248.546695 197.728437 
L 249.831043 197.689552 
L 249.973748 197.614923 
L 250.544569 197.643599 
L 251.472154 197.565563 
L 251.900269 197.545451 
L 252.471091 197.616429 
L 252.685149 197.638182 
L 252.827854 197.696675 
L 253.969496 198.42464 
L 254.825728 199.306706 
L 257.822539 203.732264 
L 258.10795 204.19957 
L 259.392297 205.602021 
L 260.105824 205.998044 
L 260.747998 206.247608 
L 262.032345 206.256881 
L 262.603167 206.132317 
L 262.817225 206.167227 
L 262.95993 206.114204 
L 263.24534 206.184828 
L 263.530751 206.142451 
L 264.172925 206.121919 
L 264.386983 206.102639 
L 264.815099 206.141732 
L 265.029157 205.975065 
L 265.243215 205.988336 
L 265.457272 205.924066 
L 265.599978 205.957043 
L 267.526499 205.311429 
L 267.669205 205.282998 
L 267.883262 205.267183 
L 268.09732 205.251509 
L 268.311378 205.195398 
L 268.596789 205.192243 
L 269.096257 205.141296 
L 269.453021 205.132804 
L 269.809784 205.078918 
L 270.451958 205.023037 
L 270.666016 204.965144 
L 271.522248 204.699202 
L 271.879011 204.569514 
L 272.378479 204.50211 
L 272.66389 204.343319 
L 272.806595 204.30848 
L 273.020653 204.297725 
L 273.234711 204.25324 
L 273.73418 204.134643 
L 274.875822 203.939813 
L 275.018527 203.81767 
L 275.232585 203.803272 
L 275.446643 203.796713 
L 275.660701 203.739889 
L 276.16017 203.557151 
L 277.301812 203.201133 
L 277.51587 203.089097 
L 277.658575 203.050315 
L 277.872633 203.031765 
L 278.086691 202.969571 
L 278.514807 202.820233 
L 280.441328 201.882504 
L 280.798092 201.593629 
L 281.797029 200.621247 
L 283.866255 198.684426 
L 284.79384 198.172823 
L 285.07925 198.107601 
L 285.293308 198.050762 
L 285.792777 198.089225 
L 286.078188 198.062357 
L 287.291183 198.517091 
L 287.790651 198.849407 
L 288.076062 199.050062 
L 288.646883 199.427676 
L 291.286931 201.783198 
L 292.07181 202.769513 
L 294.925916 206.131856 
L 295.282679 206.341866 
L 295.496737 206.425325 
L 295.639442 206.522043 
L 295.924853 206.631024 
L 296.92379 206.915573 
L 297.423258 207.024042 
L 297.565964 206.927237 
L 297.851374 207.091076 
L 298.065432 207.148472 
L 298.350843 207.243777 
L 298.564901 207.261099 
L 298.921664 207.401425 
L 300.990891 207.641133 
L 301.204949 207.630627 
L 304.059055 207.07633 
L 304.986639 206.638924 
L 305.486108 206.152769 
L 306.270987 205.105632 
L 306.913161 203.846809 
L 307.341276 202.691151 
L 308.340214 198.926625 
L 309.125093 194.752105 
L 310.837556 182.005346 
L 312.264609 170.698378 
L 313.049488 165.854686 
L 314.048425 161.633057 
L 314.833304 159.517758 
L 315.903594 157.955391 
L 316.403063 157.472396 
L 317.830116 156.960006 
L 318.186879 157.005825 
L 318.614995 157.071051 
L 319.043111 157.135886 
L 320.042048 157.298727 
L 320.256106 157.281002 
L 321.469101 157.208443 
L 321.754511 157.227409 
L 322.039922 157.143957 
L 322.396685 157.037123 
L 322.682096 157.041169 
L 324.465912 156.766142 
L 324.751322 156.67138 
L 325.536202 156.39988 
L 327.748134 155.33503 
L 328.104897 155.163207 
L 328.46166 155.062466 
L 328.818423 154.949432 
L 329.81736 154.730633 
L 330.102771 154.714472 
L 330.388182 154.601723 
L 330.744945 154.583697 
L 330.88765 154.482662 
L 331.030355 154.520418 
L 331.743882 154.388911 
L 332.029292 154.340937 
L 332.314703 154.266368 
L 332.671466 154.291159 
L 332.742819 154.324192 
L 332.885524 154.239092 
L 333.170935 154.162939 
L 334.954751 153.901193 
L 336.595862 153.089138 
L 336.667215 153.085009 
L 336.952625 152.705549 
L 337.452094 152.520724 
L 337.951562 152.164382 
L 338.16562 152.171491 
L 338.379678 151.997639 
L 338.522383 151.883127 
L 338.665089 151.883811 
L 342.018663 149.985423 
L 342.232721 149.803126 
L 342.518132 149.752086 
L 342.874895 149.444406 
L 343.231658 149.256892 
L 343.445716 149.210259 
L 345.300885 148.162918 
L 345.657648 147.844417 
L 345.800353 147.799647 
L 346.014411 147.661758 
L 346.157117 147.529218 
L 346.442527 147.275795 
L 347.227406 146.675181 
L 347.298759 146.758393 
L 347.58417 146.476772 
L 347.726875 146.40006 
L 348.083638 146.143551 
L 348.297696 146.079442 
L 350.152865 144.924198 
L 350.438275 144.668626 
L 350.509628 144.691161 
L 350.795039 144.288201 
L 351.223155 143.837599 
L 351.793976 143.084475 
L 351.865328 143.20276 
L 353.79185 140.694422 
L 354.86214 139.627953 
L 355.290255 139.279349 
L 355.361608 139.39997 
L 355.718371 138.985089 
L 356.50325 138.674726 
L 357.074072 138.404004 
L 357.145424 138.612667 
L 357.216777 138.571085 
L 357.787598 138.408224 
L 357.930303 138.305154 
L 358.001656 138.549175 
L 358.073009 138.498374 
L 358.215714 138.408427 
L 360.213588 137.840023 
L 360.570351 137.513686 
L 360.641704 137.726065 
L 360.713057 137.610888 
L 360.927115 137.303383 
L 361.141173 137.350576 
L 361.355231 136.979547 
L 361.569288 136.850814 
L 362.924989 135.851716 
L 362.996341 135.839329 
L 363.139047 135.458374 
L 363.210399 135.520039 
L 363.281752 135.684937 
L 363.638515 135.295882 
L 364.352042 134.74682 
L 365.422331 133.698286 
L 365.850447 133.157144 
L 365.9218 133.283915 
L 366.207211 132.703553 
L 366.421268 132.671581 
L 366.635326 132.182571 
L 367.063442 131.723511 
L 367.705616 130.880047 
L 367.776969 131.022832 
L 367.991027 130.647487 
L 368.34779 130.228611 
L 368.419143 130.037148 
L 368.490495 130.103891 
L 368.561848 130.255972 
L 368.847258 129.790749 
L 369.560785 129.112269 
L 370.131606 128.549197 
L 370.202959 128.629368 
L 370.631075 127.994657 
L 371.130543 127.329724 
L 371.201896 127.509442 
L 371.487306 126.921481 
L 372.200833 125.990955 
L 373.413828 124.290122 
L 373.556533 124.234952 
L 373.770591 123.860072 
L 374.412765 123.010662 
L 374.698176 122.428744 
L 375.483055 121.280074 
L 375.697113 121.022595 
L 375.768465 121.140317 
L 376.053876 120.427331 
L 376.196581 120.44082 
L 376.410639 119.876814 
L 377.052813 118.923797 
L 377.409576 118.153662 
L 378.337161 116.652682 
L 378.408513 116.705041 
L 378.693924 115.976238 
L 378.765276 116.035275 
L 380.263682 113.269625 
L 380.549093 112.663267 
L 381.262619 111.259745 
L 381.476677 111.007589 
L 382.332909 109.437689 
L 382.689672 108.736988 
L 382.975083 108.377713 
L 383.617256 107.352665 
L 383.688609 107.355742 
L 384.188078 106.254838 
L 384.544841 105.67052 
L 386.40001 101.250809 
L 387.327594 98.486402 
L 388.540589 94.456417 
L 388.968705 92.991389 
L 389.182763 92.057879 
L 389.682232 90.043332 
L 390.395758 86.827309 
L 391.25199 82.309226 
L 392.108222 77.538977 
L 392.464985 75.211216 
L 392.536337 75.503468 
L 392.821748 72.955936 
L 392.893101 72.843842 
L 393.67798 67.297671 
L 393.749332 67.557083 
L 393.96339 65.247939 
L 394.034743 65.12923 
L 394.248801 63.381879 
L 394.320154 63.524961 
L 394.391506 62.748308 
L 394.462859 59.854479 
L 394.534212 61.454547 
L 395.247738 56.844629 
L 395.319091 55.599798 
L 395.390443 56.246092 
L 395.604501 54.667976 
L 395.675854 55.138822 
L 395.889912 52.649874 
L 396.246675 50.832382 
L 396.318028 51.172919 
L 396.532086 48.638468 
L 396.674791 50.194899 
L 396.746144 47.88694 
L 396.817496 48.259271 
L 396.888849 48.759256 
L 397.031554 46.262462 
L 397.388317 44.920828 
L 397.45967 43.53225 
L 397.531023 45.449809 
L 397.531023 45.449809 
" clip-path="url(#p14a84bfd63)" style="fill: none; stroke: #1f77b4; stroke-width: 1.5; stroke-linecap: square"/>
   </g>
   <g id="line2d_20">
    <path d="M 72.876477 232.812726 
L 74.588941 224.735924 
L 75.302467 222.089321 
L 75.37382 222.172212 
L 75.730583 221.176242 
L 76.087346 220.191915 
L 76.301404 219.7573 
L 76.372757 219.90578 
L 76.586815 219.198617 
L 77.157636 218.161808 
L 77.79981 217.465214 
L 78.085221 217.055907 
L 78.798747 216.515192 
L 79.512273 216.014176 
L 79.583626 216.258114 
L 79.654979 216.153957 
L 79.726331 216.234665 
L 79.869037 216.070358 
L 79.940389 216.064964 
L 80.011742 216.219914 
L 80.083095 216.149942 
L 80.154447 216.098312 
L 80.368505 216.249235 
L 80.582563 216.274287 
L 80.796621 216.091802 
L 80.939326 216.341256 
L 81.082032 216.289598 
L 81.224737 216.375744 
L 81.29609 216.262586 
L 81.510148 216.417994 
L 81.652853 216.450564 
L 82.580437 216.579241 
L 82.65179 216.421282 
L 82.723143 216.468174 
L 83.079906 216.588204 
L 83.222611 216.325213 
L 85.006427 216.19578 
L 85.149133 216.286235 
L 85.363191 216.279349 
L 85.434543 216.276393 
L 85.648601 216.483548 
L 85.719954 216.361773 
L 85.791306 216.403597 
L 86.076717 216.583083 
L 86.14807 216.535132 
L 86.290775 216.796186 
L 86.43348 216.781713 
L 86.576186 216.913754 
L 87.075654 217.215282 
L 87.147007 217.350941 
L 87.218359 217.311341 
L 87.432417 217.485033 
L 87.646475 217.786798 
L 87.789181 217.682111 
L 88.003239 217.895332 
L 88.288649 218.042083 
L 88.431354 218.027463 
L 89.073528 218.353685 
L 89.216234 218.374016 
L 89.430291 218.534078 
L 89.715702 218.322044 
L 89.858407 218.484853 
L 90.143818 218.457366 
L 90.357876 218.572709 
L 90.714639 218.729799 
L 90.857344 218.532908 
L 90.928697 218.555674 
L 91.00005 218.744796 
L 91.071402 218.662932 
L 91.428166 218.872066 
L 91.856281 219.109443 
L 91.998987 219.088616 
L 92.284397 219.259014 
L 93.497392 220.120182 
L 93.640098 220.229404 
L 93.71145 220.217279 
L 93.925508 220.46695 
L 94.353624 220.836614 
L 94.496329 220.863656 
L 94.567682 221.169283 
L 94.639035 220.846724 
L 94.710387 220.966848 
L 95.923382 221.914828 
L 97.065025 222.517059 
L 97.136377 222.803297 
L 97.20773 222.685544 
L 97.421788 222.871792 
L 97.564493 222.869317 
L 97.921256 223.093088 
L 98.063962 223.019393 
L 98.420725 223.149946 
L 99.491015 223.289325 
L 99.562367 223.173754 
L 99.63372 223.438857 
L 99.705073 223.31649 
L 99.919131 223.356511 
L 100.133189 223.351525 
L 100.275894 223.45424 
L 100.347247 223.351692 
L 100.418599 223.437327 
L 100.489952 223.487722 
L 100.561304 223.374106 
L 100.632657 223.46171 
L 100.70401 223.562649 
L 100.775362 223.463365 
L 100.846715 223.521684 
L 101.417536 223.708138 
L 101.631594 223.78842 
L 101.774299 223.725818 
L 101.917005 223.79186 
L 101.988357 223.7701 
L 102.202415 224.032108 
L 102.273768 223.890805 
L 102.345121 223.957757 
L 102.773237 224.056714 
L 103.986232 224.385041 
L 104.128937 224.387904 
L 104.628405 224.437131 
L 104.771111 224.716468 
L 104.913816 224.724057 
L 105.056521 224.831742 
L 105.127874 224.764926 
L 105.484637 225.061434 
L 105.698695 225.238359 
L 105.770048 225.384242 
L 105.8414 225.326505 
L 107.125748 226.968543 
L 107.197101 226.739538 
L 107.339806 227.216769 
L 107.482511 227.382889 
L 107.696569 227.81239 
L 107.767922 227.818741 
L 109.266327 230.86718 
L 110.479322 234.063995 
L 115.402655 248.136763 
L 116.829708 251.744166 
L 116.901061 251.730805 
L 118.042703 253.664348 
L 118.898935 254.545801 
L 119.826519 254.956048 
L 119.897872 254.884251 
L 120.11193 255.086534 
L 120.540046 255.139773 
L 120.611398 255.199286 
L 120.754104 255.112829 
L 121.18222 255.247807 
L 121.324925 255.127894 
L 121.46763 255.244806 
L 122.109804 255.07163 
L 122.323862 255.055167 
L 122.466567 254.961365 
L 122.53792 255.058714 
L 122.609272 255.004432 
L 122.751978 254.838173 
L 123.037388 254.863809 
L 123.89362 254.293366 
L 123.964973 254.384891 
L 124.036325 254.303315 
L 124.179031 254.159068 
L 124.393089 254.08182 
L 124.892557 253.719816 
L 127.889368 252.68637 
L 128.103426 252.667259 
L 128.246132 252.51254 
L 128.388837 252.645936 
L 128.531542 252.453003 
L 129.601832 252.075709 
L 129.744537 252.118334 
L 130.1013 251.986309 
L 130.244006 251.975172 
L 130.672122 251.935909 
L 131.028885 252.018274 
L 131.17159 251.912722 
L 131.314295 252.042672 
L 131.457001 251.849341 
L 131.599706 251.946398 
L 133.240817 251.911911 
L 133.59758 251.821957 
L 133.740285 251.871935 
L 133.954343 251.81278 
L 134.097049 251.836368 
L 134.311107 251.741713 
L 134.739223 251.671892 
L 135.310044 251.653296 
L 136.237628 251.68579 
L 136.380333 251.772242 
L 136.594391 251.733281 
L 137.022507 251.802214 
L 137.165213 251.727201 
L 137.236565 251.737043 
L 137.450623 251.969981 
L 137.664681 251.767646 
L 137.736034 251.890545 
L 137.807386 251.84142 
L 138.378208 251.861804 
L 138.592265 251.821568 
L 140.090671 251.642292 
L 140.233376 251.822495 
L 140.376082 251.569434 
L 140.59014 251.723227 
L 141.660429 251.81654 
L 141.731782 251.770321 
L 141.874487 251.867615 
L 142.088545 251.79722 
L 142.159898 251.880815 
L 142.23125 251.814919 
L 142.516661 251.888205 
L 142.588014 251.684033 
L 142.659366 251.78045 
L 142.802072 251.741333 
L 142.944777 251.93942 
L 143.01613 251.939677 
L 143.158835 251.774023 
L 143.30154 251.796756 
L 143.586951 251.854056 
L 143.729656 251.790576 
L 144.37183 251.713611 
L 144.514535 251.593783 
L 144.728593 251.688422 
L 144.871298 251.74763 
L 144.942651 251.45582 
L 145.014004 251.563064 
L 145.156709 251.462975 
L 145.299414 251.545742 
L 145.72753 251.601693 
L 145.941588 251.59302 
L 146.869173 251.543866 
L 147.011878 251.616941 
L 147.511346 251.494661 
L 147.582699 251.690528 
L 147.725404 251.426628 
L 148.15352 251.511505 
L 148.367578 251.446867 
L 148.510283 251.469787 
L 148.652989 251.379549 
L 148.724341 251.453173 
L 148.795694 251.383732 
L 149.937336 251.187969 
L 150.080042 250.968536 
L 150.151394 251.187094 
L 150.222747 250.9336 
L 150.2941 251.077967 
L 150.436805 251.105868 
L 150.57951 251.010736 
L 151.007626 250.973166 
L 151.364389 250.933355 
L 151.507095 251.02183 
L 151.6498 250.948649 
L 151.792505 251.016677 
L 151.935211 250.871099 
L 152.077916 250.965465 
L 152.434679 250.888039 
L 152.506032 250.921793 
L 152.577384 250.777979 
L 152.648737 250.914395 
L 152.72009 250.8688 
L 152.934148 250.69752 
L 153.076853 250.862873 
L 153.148206 250.902195 
L 153.362263 250.714335 
L 155.074727 250.143871 
L 155.14608 250.001506 
L 155.217432 250.218712 
L 155.288785 249.979291 
L 155.360138 250.120529 
L 155.502843 250.169239 
L 155.788253 250.051816 
L 155.930959 250.118591 
L 156.145017 249.97125 
L 156.430427 249.958228 
L 157.286659 249.863396 
L 157.429364 249.738022 
L 157.643422 249.723939 
L 157.714775 249.602417 
L 157.786128 249.802471 
L 157.85748 249.490795 
L 157.928833 249.539483 
L 158.071538 249.486851 
L 158.214244 249.623989 
L 160.069412 248.780436 
L 160.212118 248.512105 
L 160.28347 248.700349 
L 160.354823 248.501594 
L 160.426176 248.574725 
L 160.568881 248.569908 
L 161.995934 248.123371 
L 162.138639 248.024413 
L 162.281344 248.045998 
L 162.638108 247.878624 
L 162.70946 247.858815 
L 162.780813 247.714988 
L 162.852166 247.901138 
L 162.923518 247.58439 
L 162.994871 247.616507 
L 163.137576 247.534857 
L 163.280281 247.641638 
L 165.13545 246.588477 
L 165.349508 246.238786 
L 165.420861 246.401152 
L 165.492214 246.322424 
L 165.706271 246.264575 
L 167.846851 245.253522 
L 167.918204 245.404067 
L 168.132261 245.095567 
L 168.274967 245.012574 
L 168.417672 245.09289 
L 170.201488 244.254279 
L 170.344194 244.101323 
L 170.415546 243.987428 
L 170.558251 244.104526 
L 171.557189 244.059343 
L 172.41342 244.160995 
L 172.556126 244.245627 
L 172.698831 244.217274 
L 172.984242 244.288775 
L 173.055594 244.263565 
L 173.126947 244.439001 
L 173.198299 244.339976 
L 173.48371 244.404896 
L 173.555063 244.43187 
L 173.697768 244.654379 
L 174.910763 245.262912 
L 175.124821 245.553346 
L 175.196174 245.46471 
L 175.267526 245.541157 
L 175.552937 245.792213 
L 175.624289 246.053289 
L 175.695642 246.019264 
L 176.123758 246.743205 
L 176.195111 246.473144 
L 176.409169 246.899293 
L 179.548685 251.577363 
L 180.618975 253.325041 
L 180.690327 253.365819 
L 180.904385 253.757377 
L 181.332501 254.275616 
L 181.974675 255.004492 
L 182.545496 255.417944 
L 182.902259 255.487732 
L 183.116317 255.538105 
L 183.544433 255.437371 
L 183.687139 255.19447 
L 183.758491 255.381985 
L 183.901197 254.870978 
L 183.972549 254.9672 
L 184.043902 254.880798 
L 184.186607 254.771606 
L 184.900134 253.404538 
L 185.542307 251.930378 
L 186.398539 249.318751 
L 187.682887 244.47765 
L 188.753177 239.973119 
L 189.038587 238.572732 
L 189.680761 235.398422 
L 194.889504 210.811736 
L 194.960857 210.856305 
L 195.745736 208.217155 
L 196.459262 206.367604 
L 196.530615 206.421279 
L 196.67332 205.872491 
L 196.744673 206.06378 
L 197.386847 204.921085 
L 197.4582 205.170968 
L 197.529552 205.089504 
L 197.600905 204.759562 
L 197.74361 205.188357 
L 197.886315 204.985899 
L 198.100373 204.519241 
L 198.314431 204.574403 
L 198.528489 204.437708 
L 199.242016 204.323749 
L 199.456074 204.394125 
L 200.026895 204.532582 
L 200.1696 204.801506 
L 200.383658 204.958521 
L 200.954479 205.584677 
L 202.738295 207.972786 
L 202.952353 208.311193 
L 204.878875 209.879647 
L 205.449696 210.112225 
L 205.735107 210.386322 
L 205.806459 210.07824 
L 205.877812 210.245801 
L 207.233512 210.27475 
L 208.375155 209.792916 
L 210.872497 208.452185 
L 212.085492 208.282842 
L 212.228198 208.364415 
L 212.29955 208.206175 
L 212.370903 208.245769 
L 213.084429 208.19873 
L 216.366651 207.858681 
L 218.435878 207.920833 
L 221.218631 207.654701 
L 222.431626 207.744065 
L 223.430563 207.788935 
L 223.930032 207.75623 
L 224.286795 207.761249 
L 226.070611 207.955935 
L 226.356022 208.03611 
L 229.780949 208.474348 
L 233.633992 208.789564 
L 233.990755 208.751973 
L 234.062108 208.63775 
L 234.204813 208.706294 
L 234.561576 208.611272 
L 236.416745 208.170877 
L 236.55945 208.236431 
L 237.058919 208.082127 
L 237.62974 207.861803 
L 238.057856 207.646425 
L 240.341141 205.821714 
L 240.697904 205.578439 
L 241.12602 205.180539 
L 241.197372 205.222101 
L 241.41143 204.975968 
L 243.409304 203.294211 
L 243.623362 203.051529 
L 244.265536 202.457267 
L 244.979063 201.856726 
L 245.835294 201.287263 
L 245.906647 201.377886 
L 246.120705 201.208044 
L 247.761816 200.545345 
L 247.904521 200.483097 
L 248.40399 200.28128 
L 250.330511 199.795593 
L 253.470028 200.851962 
L 254.468965 201.289906 
L 254.754375 201.449447 
L 255.111139 201.607672 
L 255.396549 201.818726 
L 255.539254 201.872546 
L 255.896018 202.120788 
L 259.035534 203.987313 
L 260.462587 204.669703 
L 260.81935 204.88429 
L 260.962056 204.924656 
L 261.318819 205.11756 
L 262.817225 205.578402 
L 263.173988 205.586844 
L 264.386983 205.459727 
L 264.672393 205.398661 
L 268.525436 204.979937 
L 269.310315 204.769822 
L 270.808721 204.515764 
L 272.449832 204.374209 
L 272.592537 204.372164 
L 272.9493 204.360071 
L 273.163358 204.262093 
L 274.875822 203.607118 
L 275.018527 203.570249 
L 277.230459 202.917104 
L 277.729928 202.723351 
L 277.80128 202.746355 
L 278.015338 202.609673 
L 281.01215 201.158761 
L 284.151666 200.248994 
L 286.14954 200.160413 
L 287.719298 200.472283 
L 287.933356 200.570006 
L 288.432825 200.71603 
L 289.003646 200.893206 
L 289.931231 201.247967 
L 290.073936 201.316036 
L 291.286931 202.05321 
L 291.929105 202.453859 
L 297.351906 204.846334 
L 297.565964 204.903029 
L 299.064369 204.768959 
L 301.77577 203.891712 
L 302.774707 203.242413 
L 303.202823 202.798158 
L 303.844997 202.032326 
L 304.344465 201.307929 
L 305.55746 199.153565 
L 306.342339 197.358477 
L 307.269924 194.779948 
L 308.554271 190.385145 
L 313.90572 170.928507 
L 315.047362 167.256493 
L 315.689536 165.610673 
L 316.617121 163.753601 
L 317.972821 161.771808 
L 319.114463 160.45264 
L 320.612869 159.291976 
L 321.754511 158.811632 
L 322.468038 158.567734 
L 322.824801 158.391756 
L 323.181564 158.246001 
L 323.895091 157.869527 
L 325.607554 157.062215 
L 326.749197 156.73274 
L 327.10596 156.627625 
L 328.747071 155.989316 
L 330.744945 155.144683 
L 330.959003 155.081457 
L 331.387119 154.99392 
L 333.099582 154.445943 
L 336.310451 153.160212 
L 337.309388 152.865116 
L 341.162431 150.738519 
L 343.0176 149.754124 
L 343.303011 149.543022 
L 345.44359 148.108908 
L 347.798228 146.787668 
L 348.725812 145.967923 
L 350.29557 144.521261 
L 350.509628 144.279518 
L 350.652333 144.275086 
L 351.294507 143.759519 
L 353.577792 142.049364 
L 354.434024 141.337508 
L 354.576729 141.266417 
L 356.146487 140.213983 
L 360.570351 137.226432 
L 360.641704 136.971587 
L 360.713057 137.077604 
L 361.06982 136.934319 
L 361.141173 136.701312 
L 361.212525 136.883476 
L 361.283878 136.769433 
L 362.211462 136.209725 
L 362.354168 136.074934 
L 362.42552 136.187773 
L 362.496873 135.879394 
L 362.568226 135.996005 
L 362.782283 135.765072 
L 366.278563 132.628955 
L 366.349916 132.660996 
L 366.421268 132.334441 
L 366.492621 132.5581 
L 366.706679 132.289396 
L 367.491558 131.612104 
L 367.634263 131.422294 
L 367.705616 131.555519 
L 367.776969 131.179018 
L 367.848321 131.348724 
L 367.919674 131.126352 
L 367.991027 131.149796 
L 368.419143 130.558875 
L 368.490495 130.69769 
L 368.561848 130.287142 
L 368.633201 130.417835 
L 369.204022 129.666621 
L 369.988901 128.718558 
L 370.345664 128.18915 
L 370.417017 128.409211 
L 370.488369 128.028455 
L 370.559722 128.138167 
L 371.059191 127.418389 
L 371.130543 127.610302 
L 371.201896 127.150798 
L 371.273249 127.32736 
L 371.558659 126.874346 
L 371.630012 127.102847 
L 371.701364 126.699791 
L 371.772717 126.833052 
L 372.058128 126.43558 
L 372.272186 126.240592 
L 372.700301 125.753188 
L 373.485181 124.801171 
L 373.556533 124.544697 
L 373.627886 124.632589 
L 373.984649 124.069804 
L 375.340349 122.185565 
L 375.411702 122.147712 
L 375.554407 121.75769 
L 375.62576 121.901451 
L 375.697113 121.822261 
L 375.768465 121.443996 
L 375.839818 121.567559 
L 376.053876 121.22785 
L 376.125229 121.14129 
L 376.196581 120.865744 
L 376.267934 121.022309 
L 376.624697 120.451603 
L 378.194455 117.939143 
L 378.265808 118.245025 
L 378.337161 118.085884 
L 378.408513 117.500625 
L 378.479866 117.766303 
L 378.765276 117.164733 
L 378.836629 116.78473 
L 378.907982 117.177805 
L 379.12204 116.595226 
L 379.550156 115.891641 
L 379.835566 115.437085 
L 380.263682 114.864454 
L 380.47774 114.416623 
L 380.691798 114.216763 
L 380.834503 113.857617 
L 380.905856 114.070489 
L 380.977209 113.901476 
L 381.048561 113.323748 
L 381.119914 113.632435 
L 381.191266 113.706167 
L 381.333972 113.196268 
L 382.190204 112.012235 
L 382.261556 111.521848 
L 382.332909 111.745928 
L 382.618319 111.128817 
L 382.689672 111.173357 
L 382.761025 110.779062 
L 382.832377 110.797143 
L 383.189141 110.105181 
L 383.474551 109.365177 
L 383.545904 109.668472 
L 383.902667 108.59184 
L 383.97402 108.598484 
L 384.116725 108.110246 
L 384.188078 108.254655 
L 384.402136 107.615202 
L 384.687546 107.053744 
L 384.758899 107.106707 
L 384.972957 106.482749 
L 385.044309 106.504198 
L 385.187015 105.883646 
L 385.258367 105.918911 
L 385.615131 105.045494 
L 385.686483 105.151927 
L 385.757836 104.689955 
L 385.829189 104.782248 
L 386.114599 103.881335 
L 386.185952 104.326968 
L 386.328657 103.129508 
L 386.40001 103.924961 
L 386.542715 103.076978 
L 386.614068 103.146153 
L 386.828126 102.563498 
L 387.042184 102.070175 
L 387.256242 101.46223 
L 387.327594 101.476691 
L 387.470299 101.208389 
L 387.541652 100.525254 
L 387.613005 100.815505 
L 387.684357 100.701491 
L 387.827063 99.6041 
L 387.898415 99.940344 
L 388.754647 97.132235 
L 388.826 97.76609 
L 388.968705 96.389362 
L 389.040058 97.011613 
L 389.396821 95.286086 
L 389.468174 95.5957 
L 389.682232 94.781313 
L 389.967642 93.856447 
L 390.038995 93.863736 
L 390.110347 93.680422 
L 390.1817 92.822093 
L 390.253053 93.149381 
L 390.324405 93.083496 
L 390.467111 92.185291 
L 390.538463 92.187584 
L 391.394695 89.289738 
L 391.466048 90.190159 
L 391.608753 88.377679 
L 391.680106 89.132851 
L 391.751458 88.946506 
L 391.822811 88.065181 
L 391.894164 88.165014 
L 392.179574 86.819118 
L 392.250927 87.105702 
L 392.464985 86.385392 
L 392.536337 86.780987 
L 392.60769 86.001118 
L 392.679043 86.090171 
L 392.750395 85.924409 
L 392.821748 84.941261 
L 392.893101 85.346299 
L 392.964453 85.33248 
L 393.321217 83.894743 
L 393.67798 82.576688 
L 393.749332 84.072771 
L 393.820685 82.474179 
L 393.892038 82.500862 
L 394.034743 81.763248 
L 394.106096 81.945299 
L 394.177448 82.025364 
L 394.248801 80.631121 
L 394.320154 81.819313 
L 394.391506 81.712283 
L 394.462859 78.34447 
L 394.534212 80.173992 
L 394.676917 80.7774 
L 394.819622 80.233201 
L 394.890975 80.447082 
L 394.962327 81.775568 
L 395.105033 79.675796 
L 395.247738 79.641477 
L 395.319091 78.469228 
L 395.390443 80.212576 
L 395.533149 78.205811 
L 395.675854 80.666149 
L 395.818559 78.043746 
L 396.032617 79.573426 
L 396.10397 78.128853 
L 396.175322 79.759579 
L 396.246675 78.420615 
L 396.318028 79.018864 
L 396.38938 77.95252 
L 396.460733 78.055969 
L 396.603438 78.765422 
L 396.674791 80.013957 
L 396.746144 78.111542 
L 396.817496 78.381373 
L 396.888849 79.401606 
L 397.102907 78.016657 
L 397.245612 78.271836 
L 397.316965 78.687662 
L 397.45967 78.006709 
L 397.531023 79.736134 
L 397.531023 79.736134 
" clip-path="url(#p14a84bfd63)" style="fill: none; stroke: #ff7f0e; stroke-width: 1.5; stroke-linecap: square"/>
   </g>
   <g id="patch_3">
    <path d="M 56.64375 297.54825 
L 56.64375 31.43625 
" style="fill: none; stroke: #000000; stroke-width: 0.8; stroke-linejoin: miter; stroke-linecap: square"/>
   </g>
   <g id="patch_4">
    <path d="M 413.76375 297.54825 
L 413.76375 31.43625 
" style="fill: none; stroke: #000000; stroke-width: 0.8; stroke-linejoin: miter; stroke-linecap: square"/>
   </g>
   <g id="patch_5">
    <path d="M 56.64375 297.54825 
L 413.76375 297.54825 
" style="fill: none; stroke: #000000; stroke-width: 0.8; stroke-linejoin: miter; stroke-linecap: square"/>
   </g>
   <g id="patch_6">
    <path d="M 56.64375 31.43625 
L 413.76375 31.43625 
" style="fill: none; stroke: #000000; stroke-width: 0.8; stroke-linejoin: miter; stroke-linecap: square"/>
   </g>
   <g id="text_12">
    <!-- RF Field Curvature -->
    <g transform="translate(124.905 25.43625)scale(0.24 -0.24)">
     <defs>
      <path id="DejaVuSans-52" d="M 2841 2188 
Q 3044 2119 3236 1894 
Q 3428 1669 3622 1275 
L 4263 0 
L 3584 0 
L 2988 1197 
Q 2756 1666 2539 1819 
Q 2322 1972 1947 1972 
L 1259 1972 
L 1259 0 
L 628 0 
L 628 4666 
L 2053 4666 
Q 2853 4666 3247 4331 
Q 3641 3997 3641 3322 
Q 3641 2881 3436 2590 
Q 3231 2300 2841 2188 
z
M 1259 4147 
L 1259 2491 
L 2053 2491 
Q 2509 2491 2742 2702 
Q 2975 2913 2975 3322 
Q 2975 3731 2742 3939 
Q 2509 4147 2053 4147 
L 1259 4147 
z
" transform="scale(0.015625)"/>
      <path id="DejaVuSans-46" d="M 628 4666 
L 3309 4666 
L 3309 4134 
L 1259 4134 
L 1259 2759 
L 3109 2759 
L 3109 2228 
L 1259 2228 
L 1259 0 
L 628 0 
L 628 4666 
z
" transform="scale(0.015625)"/>
      <path id="DejaVuSans-69" d="M 603 3500 
L 1178 3500 
L 1178 0 
L 603 0 
L 603 3500 
z
M 603 4863 
L 1178 4863 
L 1178 4134 
L 603 4134 
L 603 4863 
z
" transform="scale(0.015625)"/>
      <path id="DejaVuSans-65" d="M 3597 1894 
L 3597 1613 
L 953 1613 
Q 991 1019 1311 708 
Q 1631 397 2203 397 
Q 2534 397 2845 478 
Q 3156 559 3463 722 
L 3463 178 
Q 3153 47 2828 -22 
Q 2503 -91 2169 -91 
Q 1331 -91 842 396 
Q 353 884 353 1716 
Q 353 2575 817 3079 
Q 1281 3584 2069 3584 
Q 2775 3584 3186 3129 
Q 3597 2675 3597 1894 
z
M 3022 2063 
Q 3016 2534 2758 2815 
Q 2500 3097 2075 3097 
Q 1594 3097 1305 2825 
Q 1016 2553 972 2059 
L 3022 2063 
z
" transform="scale(0.015625)"/>
      <path id="DejaVuSans-6c" d="M 603 4863 
L 1178 4863 
L 1178 0 
L 603 0 
L 603 4863 
z
" transform="scale(0.015625)"/>
      <path id="DejaVuSans-64" d="M 2906 2969 
L 2906 4863 
L 3481 4863 
L 3481 0 
L 2906 0 
L 2906 525 
Q 2725 213 2448 61 
Q 2172 -91 1784 -91 
Q 1150 -91 751 415 
Q 353 922 353 1747 
Q 353 2572 751 3078 
Q 1150 3584 1784 3584 
Q 2172 3584 2448 3432 
Q 2725 3281 2906 2969 
z
M 947 1747 
Q 947 1113 1208 752 
Q 1469 391 1925 391 
Q 2381 391 2643 752 
Q 2906 1113 2906 1747 
Q 2906 2381 2643 2742 
Q 2381 3103 1925 3103 
Q 1469 3103 1208 2742 
Q 947 2381 947 1747 
z
" transform="scale(0.015625)"/>
      <path id="DejaVuSans-43" d="M 4122 4306 
L 4122 3641 
Q 3803 3938 3442 4084 
Q 3081 4231 2675 4231 
Q 1875 4231 1450 3742 
Q 1025 3253 1025 2328 
Q 1025 1406 1450 917 
Q 1875 428 2675 428 
Q 3081 428 3442 575 
Q 3803 722 4122 1019 
L 4122 359 
Q 3791 134 3420 21 
Q 3050 -91 2638 -91 
Q 1578 -91 968 557 
Q 359 1206 359 2328 
Q 359 3453 968 4101 
Q 1578 4750 2638 4750 
Q 3056 4750 3426 4639 
Q 3797 4528 4122 4306 
z
" transform="scale(0.015625)"/>
      <path id="DejaVuSans-75" d="M 544 1381 
L 544 3500 
L 1119 3500 
L 1119 1403 
Q 1119 906 1312 657 
Q 1506 409 1894 409 
Q 2359 409 2629 706 
Q 2900 1003 2900 1516 
L 2900 3500 
L 3475 3500 
L 3475 0 
L 2900 0 
L 2900 538 
Q 2691 219 2414 64 
Q 2138 -91 1772 -91 
Q 1169 -91 856 284 
Q 544 659 544 1381 
z
M 1991 3584 
L 1991 3584 
z
" transform="scale(0.015625)"/>
      <path id="DejaVuSans-72" d="M 2631 2963 
Q 2534 3019 2420 3045 
Q 2306 3072 2169 3072 
Q 1681 3072 1420 2755 
Q 1159 2438 1159 1844 
L 1159 0 
L 581 0 
L 581 3500 
L 1159 3500 
L 1159 2956 
Q 1341 3275 1631 3429 
Q 1922 3584 2338 3584 
Q 2397 3584 2469 3576 
Q 2541 3569 2628 3553 
L 2631 2963 
z
" transform="scale(0.015625)"/>
      <path id="DejaVuSans-76" d="M 191 3500 
L 800 3500 
L 1894 563 
L 2988 3500 
L 3597 3500 
L 2284 0 
L 1503 0 
L 191 3500 
z
" transform="scale(0.015625)"/>
      <path id="DejaVuSans-61" d="M 2194 1759 
Q 1497 1759 1228 1600 
Q 959 1441 959 1056 
Q 959 750 1161 570 
Q 1363 391 1709 391 
Q 2188 391 2477 730 
Q 2766 1069 2766 1631 
L 2766 1759 
L 2194 1759 
z
M 3341 1997 
L 3341 0 
L 2766 0 
L 2766 531 
Q 2569 213 2275 61 
Q 1981 -91 1556 -91 
Q 1019 -91 701 211 
Q 384 513 384 1019 
Q 384 1609 779 1909 
Q 1175 2209 1959 2209 
L 2766 2209 
L 2766 2266 
Q 2766 2663 2505 2880 
Q 2244 3097 1772 3097 
Q 1472 3097 1187 3025 
Q 903 2953 641 2809 
L 641 3341 
Q 956 3463 1253 3523 
Q 1550 3584 1831 3584 
Q 2591 3584 2966 3190 
Q 3341 2797 3341 1997 
z
" transform="scale(0.015625)"/>
      <path id="DejaVuSans-74" d="M 1172 4494 
L 1172 3500 
L 2356 3500 
L 2356 3053 
L 1172 3053 
L 1172 1153 
Q 1172 725 1289 603 
Q 1406 481 1766 481 
L 2356 481 
L 2356 0 
L 1766 0 
Q 1100 0 847 248 
Q 594 497 594 1153 
L 594 3053 
L 172 3053 
L 172 3500 
L 594 3500 
L 594 4494 
L 1172 4494 
z
" transform="scale(0.015625)"/>
     </defs>
     <use xlink:href="#DejaVuSans-52"/>
     <use xlink:href="#DejaVuSans-46" x="69.482422"/>
     <use xlink:href="#DejaVuSans-20" x="127.001953"/>
     <use xlink:href="#DejaVuSans-46" x="158.789062"/>
     <use xlink:href="#DejaVuSans-69" x="209.058594"/>
     <use xlink:href="#DejaVuSans-65" x="236.841797"/>
     <use xlink:href="#DejaVuSans-6c" x="298.365234"/>
     <use xlink:href="#DejaVuSans-64" x="326.148438"/>
     <use xlink:href="#DejaVuSans-20" x="389.625"/>
     <use xlink:href="#DejaVuSans-43" x="421.412109"/>
     <use xlink:href="#DejaVuSans-75" x="491.236328"/>
     <use xlink:href="#DejaVuSans-72" x="554.615234"/>
     <use xlink:href="#DejaVuSans-76" x="595.728516"/>
     <use xlink:href="#DejaVuSans-61" x="654.908203"/>
     <use xlink:href="#DejaVuSans-74" x="716.1875"/>
     <use xlink:href="#DejaVuSans-75" x="755.396484"/>
     <use xlink:href="#DejaVuSans-72" x="818.775391"/>
     <use xlink:href="#DejaVuSans-65" x="857.638672"/>
    </g>
   </g>
   <g id="legend_1">
    <g id="patch_7">
     <path d="M 70.64375 109.1925 
L 172.44375 109.1925 
Q 176.44375 109.1925 176.44375 105.1925 
L 176.44375 45.43625 
Q 176.44375 41.43625 172.44375 41.43625 
L 70.64375 41.43625 
Q 66.64375 41.43625 66.64375 45.43625 
L 66.64375 105.1925 
Q 66.64375 109.1925 70.64375 109.1925 
z
" style="fill: #ffffff; opacity: 0.8; stroke: #cccccc; stroke-linejoin: miter"/>
    </g>
    <g id="line2d_21">
     <path d="M 74.64375 60.63625 
L 94.64375 60.63625 
L 114.64375 60.63625 
" style="fill: none; stroke: #1f77b4; stroke-width: 1.5; stroke-linecap: square"/>
    </g>
    <g id="text_13">
     <!-- $y^2$ -->
     <g transform="translate(130.64375 67.63625)scale(0.2 -0.2)">
      <defs>
       <path id="DejaVuSans-Oblique-79" d="M 1588 -325 
Q 1188 -997 936 -1164 
Q 684 -1331 294 -1331 
L -159 -1331 
L -63 -850 
L 269 -850 
Q 509 -850 678 -719 
Q 847 -588 1056 -206 
L 1234 128 
L 459 3500 
L 1069 3500 
L 1650 819 
L 3256 3500 
L 3859 3500 
L 1588 -325 
z
" transform="scale(0.015625)"/>
      </defs>
      <use xlink:href="#DejaVuSans-Oblique-79" transform="translate(0 0.765625)"/>
      <use xlink:href="#DejaVuSans-32" transform="translate(63.645833 39.046875)scale(0.7)"/>
     </g>
    </g>
    <g id="line2d_22">
     <path d="M 74.64375 90.033125 
L 94.64375 90.033125 
L 114.64375 90.033125 
" style="fill: none; stroke: #ff7f0e; stroke-width: 1.5; stroke-linecap: square"/>
    </g>
    <g id="text_14">
     <!-- $-z^2$ -->
     <g transform="translate(130.64375 97.033125)scale(0.2 -0.2)">
      <defs>
       <path id="DejaVuSans-Oblique-7a" d="M 744 3500 
L 3475 3500 
L 3372 2975 
L 738 459 
L 2913 459 
L 2822 0 
L -19 0 
L 84 525 
L 2719 3041 
L 653 3041 
L 744 3500 
z
" transform="scale(0.015625)"/>
      </defs>
      <use xlink:href="#DejaVuSans-2212" transform="translate(0 0.765625)"/>
      <use xlink:href="#DejaVuSans-Oblique-7a" transform="translate(83.789062 0.765625)"/>
      <use xlink:href="#DejaVuSans-32" transform="translate(140.745443 39.046875)scale(0.7)"/>
     </g>
    </g>
   </g>
  </g>
 </g>
 <defs>
  <clipPath id="p14a84bfd63">
   <rect x="56.64375" y="31.43625" width="357.12" height="266.112"/>
  </clipPath>
 </defs>
</svg>
