<?xml version="1.0" encoding="utf-8" standalone="no"?>
<!DOCTYPE svg PUBLIC "-//W3C//DTD SVG 1.1//EN"
  "http://www.w3.org/Graphics/SVG/1.1/DTD/svg11.dtd">
<svg xmlns:xlink="http://www.w3.org/1999/xlink" width="431.35125pt" height="349.665437pt" viewBox="0 0 431.35125 349.665437" xmlns="http://www.w3.org/2000/svg" version="1.1">
 <defs>
  <style type="text/css">*{stroke-linejoin: round; stroke-linecap: butt}</style>
 </defs>
 <g id="figure_1">
  <g id="patch_1">
   <path d="M 0 349.665437 
L 431.35125 349.665437 
L 431.35125 0 
L 0 0 
L 0 349.665437 
z
" style="fill: none"/>
  </g>
  <g id="axes_1">
   <g id="patch_2">
    <path d="M 67.03125 297.54825 
L 424.15125 297.54825 
L 424.15125 31.43625 
L 67.03125 31.43625 
L 67.03125 297.54825 
z
" style="fill: none"/>
   </g>
   <g id="matplotlib.axis_1">
    <g id="xtick_1">
     <g id="line2d_1">
      <path d="M 98.96156 297.54825 
L 98.96156 31.43625 
" clip-path="url(#p16dad856f7)" style="fill: none; stroke: #b0b0b0; stroke-width: 0.8; stroke-linecap: square"/>
     </g>
     <g id="line2d_2">
      <defs>
       <path id="md39032bed2" d="M 0 0 
L 0 3.5 
" style="stroke: #000000; stroke-width: 0.8"/>
      </defs>
      <g>
       <use xlink:href="#md39032bed2" x="98.96156" y="297.54825" style="stroke: #000000; stroke-width: 0.8"/>
      </g>
     </g>
     <g id="text_1">
      <!-- −3000 -->
      <g transform="translate(73.589294 315.945906)scale(0.15 -0.15)">
       <defs>
        <path id="DejaVuSans-2212" d="M 678 2272 
L 4684 2272 
L 4684 1741 
L 678 1741 
L 678 2272 
z
" transform="scale(0.015625)"/>
        <path id="DejaVuSans-33" d="M 2597 2516 
Q 3050 2419 3304 2112 
Q 3559 1806 3559 1356 
Q 3559 666 3084 287 
Q 2609 -91 1734 -91 
Q 1441 -91 1130 -33 
Q 819 25 488 141 
L 488 750 
Q 750 597 1062 519 
Q 1375 441 1716 441 
Q 2309 441 2620 675 
Q 2931 909 2931 1356 
Q 2931 1769 2642 2001 
Q 2353 2234 1838 2234 
L 1294 2234 
L 1294 2753 
L 1863 2753 
Q 2328 2753 2575 2939 
Q 2822 3125 2822 3475 
Q 2822 3834 2567 4026 
Q 2313 4219 1838 4219 
Q 1578 4219 1281 4162 
Q 984 4106 628 3988 
L 628 4550 
Q 988 4650 1302 4700 
Q 1616 4750 1894 4750 
Q 2613 4750 3031 4423 
Q 3450 4097 3450 3541 
Q 3450 3153 3228 2886 
Q 3006 2619 2597 2516 
z
" transform="scale(0.015625)"/>
        <path id="DejaVuSans-30" d="M 2034 4250 
Q 1547 4250 1301 3770 
Q 1056 3291 1056 2328 
Q 1056 1369 1301 889 
Q 1547 409 2034 409 
Q 2525 409 2770 889 
Q 3016 1369 3016 2328 
Q 3016 3291 2770 3770 
Q 2525 4250 2034 4250 
z
M 2034 4750 
Q 2819 4750 3233 4129 
Q 3647 3509 3647 2328 
Q 3647 1150 3233 529 
Q 2819 -91 2034 -91 
Q 1250 -91 836 529 
Q 422 1150 422 2328 
Q 422 3509 836 4129 
Q 1250 4750 2034 4750 
z
" transform="scale(0.015625)"/>
       </defs>
       <use xlink:href="#DejaVuSans-2212"/>
       <use xlink:href="#DejaVuSans-33" x="83.789062"/>
       <use xlink:href="#DejaVuSans-30" x="147.412109"/>
       <use xlink:href="#DejaVuSans-30" x="211.035156"/>
       <use xlink:href="#DejaVuSans-30" x="274.658203"/>
      </g>
     </g>
    </g>
    <g id="xtick_2">
     <g id="line2d_3">
      <path d="M 170.314207 297.54825 
L 170.314207 31.43625 
" clip-path="url(#p16dad856f7)" style="fill: none; stroke: #b0b0b0; stroke-width: 0.8; stroke-linecap: square"/>
     </g>
     <g id="line2d_4">
      <g>
       <use xlink:href="#md39032bed2" x="170.314207" y="297.54825" style="stroke: #000000; stroke-width: 0.8"/>
      </g>
     </g>
     <g id="text_2">
      <!-- −2000 -->
      <g transform="translate(144.941941 315.945906)scale(0.15 -0.15)">
       <defs>
        <path id="DejaVuSans-32" d="M 1228 531 
L 3431 531 
L 3431 0 
L 469 0 
L 469 531 
Q 828 903 1448 1529 
Q 2069 2156 2228 2338 
Q 2531 2678 2651 2914 
Q 2772 3150 2772 3378 
Q 2772 3750 2511 3984 
Q 2250 4219 1831 4219 
Q 1534 4219 1204 4116 
Q 875 4013 500 3803 
L 500 4441 
Q 881 4594 1212 4672 
Q 1544 4750 1819 4750 
Q 2544 4750 2975 4387 
Q 3406 4025 3406 3419 
Q 3406 3131 3298 2873 
Q 3191 2616 2906 2266 
Q 2828 2175 2409 1742 
Q 1991 1309 1228 531 
z
" transform="scale(0.015625)"/>
       </defs>
       <use xlink:href="#DejaVuSans-2212"/>
       <use xlink:href="#DejaVuSans-32" x="83.789062"/>
       <use xlink:href="#DejaVuSans-30" x="147.412109"/>
       <use xlink:href="#DejaVuSans-30" x="211.035156"/>
       <use xlink:href="#DejaVuSans-30" x="274.658203"/>
      </g>
     </g>
    </g>
    <g id="xtick_3">
     <g id="line2d_5">
      <path d="M 241.666854 297.54825 
L 241.666854 31.43625 
" clip-path="url(#p16dad856f7)" style="fill: none; stroke: #b0b0b0; stroke-width: 0.8; stroke-linecap: square"/>
     </g>
     <g id="line2d_6">
      <g>
       <use xlink:href="#md39032bed2" x="241.666854" y="297.54825" style="stroke: #000000; stroke-width: 0.8"/>
      </g>
     </g>
     <g id="text_3">
      <!-- −1000 -->
      <g transform="translate(216.294589 315.945906)scale(0.15 -0.15)">
       <defs>
        <path id="DejaVuSans-31" d="M 794 531 
L 1825 531 
L 1825 4091 
L 703 3866 
L 703 4441 
L 1819 4666 
L 2450 4666 
L 2450 531 
L 3481 531 
L 3481 0 
L 794 0 
L 794 531 
z
" transform="scale(0.015625)"/>
       </defs>
       <use xlink:href="#DejaVuSans-2212"/>
       <use xlink:href="#DejaVuSans-31" x="83.789062"/>
       <use xlink:href="#DejaVuSans-30" x="147.412109"/>
       <use xlink:href="#DejaVuSans-30" x="211.035156"/>
       <use xlink:href="#DejaVuSans-30" x="274.658203"/>
      </g>
     </g>
    </g>
    <g id="xtick_4">
     <g id="line2d_7">
      <path d="M 313.019502 297.54825 
L 313.019502 31.43625 
" clip-path="url(#p16dad856f7)" style="fill: none; stroke: #b0b0b0; stroke-width: 0.8; stroke-linecap: square"/>
     </g>
     <g id="line2d_8">
      <g>
       <use xlink:href="#md39032bed2" x="313.019502" y="297.54825" style="stroke: #000000; stroke-width: 0.8"/>
      </g>
     </g>
     <g id="text_4">
      <!-- 0 -->
      <g transform="translate(308.247627 315.945906)scale(0.15 -0.15)">
       <use xlink:href="#DejaVuSans-30"/>
      </g>
     </g>
    </g>
    <g id="xtick_5">
     <g id="line2d_9">
      <path d="M 384.372149 297.54825 
L 384.372149 31.43625 
" clip-path="url(#p16dad856f7)" style="fill: none; stroke: #b0b0b0; stroke-width: 0.8; stroke-linecap: square"/>
     </g>
     <g id="line2d_10">
      <g>
       <use xlink:href="#md39032bed2" x="384.372149" y="297.54825" style="stroke: #000000; stroke-width: 0.8"/>
      </g>
     </g>
     <g id="text_5">
      <!-- 1000 -->
      <g transform="translate(365.284649 315.945906)scale(0.15 -0.15)">
       <use xlink:href="#DejaVuSans-31"/>
       <use xlink:href="#DejaVuSans-30" x="63.623047"/>
       <use xlink:href="#DejaVuSans-30" x="127.246094"/>
       <use xlink:href="#DejaVuSans-30" x="190.869141"/>
      </g>
     </g>
    </g>
    <g id="text_6">
     <!-- X ($\mu m$) -->
     <g transform="translate(211.59125 338.265437)scale(0.2 -0.2)">
      <defs>
       <path id="DejaVuSans-58" d="M 403 4666 
L 1081 4666 
L 2241 2931 
L 3406 4666 
L 4084 4666 
L 2584 2425 
L 4184 0 
L 3506 0 
L 2194 1984 
L 872 0 
L 191 0 
L 1856 2491 
L 403 4666 
z
" transform="scale(0.015625)"/>
       <path id="DejaVuSans-20" transform="scale(0.015625)"/>
       <path id="DejaVuSans-28" d="M 1984 4856 
Q 1566 4138 1362 3434 
Q 1159 2731 1159 2009 
Q 1159 1288 1364 580 
Q 1569 -128 1984 -844 
L 1484 -844 
Q 1016 -109 783 600 
Q 550 1309 550 2009 
Q 550 2706 781 3412 
Q 1013 4119 1484 4856 
L 1984 4856 
z
" transform="scale(0.015625)"/>
       <path id="DejaVuSans-Oblique-3bc" d="M -84 -1331 
L 856 3500 
L 1434 3500 
L 1009 1322 
Q 997 1256 987 1175 
Q 978 1094 978 1013 
Q 978 722 1161 565 
Q 1344 409 1684 409 
Q 2147 409 2431 671 
Q 2716 934 2816 1459 
L 3213 3500 
L 3788 3500 
L 3266 809 
Q 3253 750 3248 706 
Q 3244 663 3244 628 
Q 3244 531 3283 486 
Q 3322 441 3406 441 
Q 3438 441 3492 456 
Q 3547 472 3647 513 
L 3559 50 
Q 3422 -19 3297 -55 
Q 3172 -91 3053 -91 
Q 2847 -91 2730 40 
Q 2613 172 2613 403 
Q 2438 153 2195 31 
Q 1953 -91 1625 -91 
Q 1334 -91 1117 43 
Q 900 178 831 397 
L 494 -1331 
L -84 -1331 
z
" transform="scale(0.015625)"/>
       <path id="DejaVuSans-Oblique-6d" d="M 5747 2113 
L 5338 0 
L 4763 0 
L 5166 2094 
Q 5191 2228 5203 2325 
Q 5216 2422 5216 2491 
Q 5216 2772 5059 2928 
Q 4903 3084 4622 3084 
Q 4203 3084 3875 2770 
Q 3547 2456 3450 1953 
L 3066 0 
L 2491 0 
L 2900 2094 
Q 2925 2209 2937 2307 
Q 2950 2406 2950 2484 
Q 2950 2769 2794 2926 
Q 2638 3084 2363 3084 
Q 1938 3084 1609 2770 
Q 1281 2456 1184 1953 
L 800 0 
L 225 0 
L 909 3500 
L 1484 3500 
L 1375 2956 
Q 1609 3263 1923 3423 
Q 2238 3584 2597 3584 
Q 2978 3584 3223 3384 
Q 3469 3184 3519 2828 
Q 3781 3197 4126 3390 
Q 4472 3584 4856 3584 
Q 5306 3584 5551 3325 
Q 5797 3066 5797 2591 
Q 5797 2488 5784 2364 
Q 5772 2241 5747 2113 
z
" transform="scale(0.015625)"/>
       <path id="DejaVuSans-29" d="M 513 4856 
L 1013 4856 
Q 1481 4119 1714 3412 
Q 1947 2706 1947 2009 
Q 1947 1309 1714 600 
Q 1481 -109 1013 -844 
L 513 -844 
Q 928 -128 1133 580 
Q 1338 1288 1338 2009 
Q 1338 2731 1133 3434 
Q 928 4138 513 4856 
z
" transform="scale(0.015625)"/>
      </defs>
      <use xlink:href="#DejaVuSans-58" transform="translate(0 0.125)"/>
      <use xlink:href="#DejaVuSans-20" transform="translate(68.505859 0.125)"/>
      <use xlink:href="#DejaVuSans-28" transform="translate(100.292969 0.125)"/>
      <use xlink:href="#DejaVuSans-Oblique-3bc" transform="translate(139.306641 0.125)"/>
      <use xlink:href="#DejaVuSans-Oblique-6d" transform="translate(202.929688 0.125)"/>
      <use xlink:href="#DejaVuSans-29" transform="translate(300.341797 0.125)"/>
     </g>
    </g>
   </g>
   <g id="matplotlib.axis_2">
    <g id="ytick_1">
     <g id="line2d_11">
      <path d="M 67.03125 285.427951 
L 424.15125 285.427951 
" clip-path="url(#p16dad856f7)" style="fill: none; stroke: #b0b0b0; stroke-width: 0.8; stroke-linecap: square"/>
     </g>
     <g id="line2d_12">
      <defs>
       <path id="m6f3f5b6aff" d="M 0 0 
L -3.5 0 
" style="stroke: #000000; stroke-width: 0.8"/>
      </defs>
      <g>
       <use xlink:href="#m6f3f5b6aff" x="67.03125" y="285.427951" style="stroke: #000000; stroke-width: 0.8"/>
      </g>
     </g>
     <g id="text_7">
      <!-- 0 -->
      <g transform="translate(50.4875 291.126779)scale(0.15 -0.15)">
       <use xlink:href="#DejaVuSans-30"/>
      </g>
     </g>
    </g>
    <g id="ytick_2">
     <g id="line2d_13">
      <path d="M 67.03125 249.728624 
L 424.15125 249.728624 
" clip-path="url(#p16dad856f7)" style="fill: none; stroke: #b0b0b0; stroke-width: 0.8; stroke-linecap: square"/>
     </g>
     <g id="line2d_14">
      <g>
       <use xlink:href="#m6f3f5b6aff" x="67.03125" y="249.728624" style="stroke: #000000; stroke-width: 0.8"/>
      </g>
     </g>
     <g id="text_8">
      <!-- 20 -->
      <g transform="translate(40.94375 255.427452)scale(0.15 -0.15)">
       <use xlink:href="#DejaVuSans-32"/>
       <use xlink:href="#DejaVuSans-30" x="63.623047"/>
      </g>
     </g>
    </g>
    <g id="ytick_3">
     <g id="line2d_15">
      <path d="M 67.03125 214.029297 
L 424.15125 214.029297 
" clip-path="url(#p16dad856f7)" style="fill: none; stroke: #b0b0b0; stroke-width: 0.8; stroke-linecap: square"/>
     </g>
     <g id="line2d_16">
      <g>
       <use xlink:href="#m6f3f5b6aff" x="67.03125" y="214.029297" style="stroke: #000000; stroke-width: 0.8"/>
      </g>
     </g>
     <g id="text_9">
      <!-- 40 -->
      <g transform="translate(40.94375 219.728125)scale(0.15 -0.15)">
       <defs>
        <path id="DejaVuSans-34" d="M 2419 4116 
L 825 1625 
L 2419 1625 
L 2419 4116 
z
M 2253 4666 
L 3047 4666 
L 3047 1625 
L 3713 1625 
L 3713 1100 
L 3047 1100 
L 3047 0 
L 2419 0 
L 2419 1100 
L 313 1100 
L 313 1709 
L 2253 4666 
z
" transform="scale(0.015625)"/>
       </defs>
       <use xlink:href="#DejaVuSans-34"/>
       <use xlink:href="#DejaVuSans-30" x="63.623047"/>
      </g>
     </g>
    </g>
    <g id="ytick_4">
     <g id="line2d_17">
      <path d="M 67.03125 178.32997 
L 424.15125 178.32997 
" clip-path="url(#p16dad856f7)" style="fill: none; stroke: #b0b0b0; stroke-width: 0.8; stroke-linecap: square"/>
     </g>
     <g id="line2d_18">
      <g>
       <use xlink:href="#m6f3f5b6aff" x="67.03125" y="178.32997" style="stroke: #000000; stroke-width: 0.8"/>
      </g>
     </g>
     <g id="text_10">
      <!-- 60 -->
      <g transform="translate(40.94375 184.028798)scale(0.15 -0.15)">
       <defs>
        <path id="DejaVuSans-36" d="M 2113 2584 
Q 1688 2584 1439 2293 
Q 1191 2003 1191 1497 
Q 1191 994 1439 701 
Q 1688 409 2113 409 
Q 2538 409 2786 701 
Q 3034 994 3034 1497 
Q 3034 2003 2786 2293 
Q 2538 2584 2113 2584 
z
M 3366 4563 
L 3366 3988 
Q 3128 4100 2886 4159 
Q 2644 4219 2406 4219 
Q 1781 4219 1451 3797 
Q 1122 3375 1075 2522 
Q 1259 2794 1537 2939 
Q 1816 3084 2150 3084 
Q 2853 3084 3261 2657 
Q 3669 2231 3669 1497 
Q 3669 778 3244 343 
Q 2819 -91 2113 -91 
Q 1303 -91 875 529 
Q 447 1150 447 2328 
Q 447 3434 972 4092 
Q 1497 4750 2381 4750 
Q 2619 4750 2861 4703 
Q 3103 4656 3366 4563 
z
" transform="scale(0.015625)"/>
       </defs>
       <use xlink:href="#DejaVuSans-36"/>
       <use xlink:href="#DejaVuSans-30" x="63.623047"/>
      </g>
     </g>
    </g>
    <g id="ytick_5">
     <g id="line2d_19">
      <path d="M 67.03125 142.630643 
L 424.15125 142.630643 
" clip-path="url(#p16dad856f7)" style="fill: none; stroke: #b0b0b0; stroke-width: 0.8; stroke-linecap: square"/>
     </g>
     <g id="line2d_20">
      <g>
       <use xlink:href="#m6f3f5b6aff" x="67.03125" y="142.630643" style="stroke: #000000; stroke-width: 0.8"/>
      </g>
     </g>
     <g id="text_11">
      <!-- 80 -->
      <g transform="translate(40.94375 148.329471)scale(0.15 -0.15)">
       <defs>
        <path id="DejaVuSans-38" d="M 2034 2216 
Q 1584 2216 1326 1975 
Q 1069 1734 1069 1313 
Q 1069 891 1326 650 
Q 1584 409 2034 409 
Q 2484 409 2743 651 
Q 3003 894 3003 1313 
Q 3003 1734 2745 1975 
Q 2488 2216 2034 2216 
z
M 1403 2484 
Q 997 2584 770 2862 
Q 544 3141 544 3541 
Q 544 4100 942 4425 
Q 1341 4750 2034 4750 
Q 2731 4750 3128 4425 
Q 3525 4100 3525 3541 
Q 3525 3141 3298 2862 
Q 3072 2584 2669 2484 
Q 3125 2378 3379 2068 
Q 3634 1759 3634 1313 
Q 3634 634 3220 271 
Q 2806 -91 2034 -91 
Q 1263 -91 848 271 
Q 434 634 434 1313 
Q 434 1759 690 2068 
Q 947 2378 1403 2484 
z
M 1172 3481 
Q 1172 3119 1398 2916 
Q 1625 2713 2034 2713 
Q 2441 2713 2670 2916 
Q 2900 3119 2900 3481 
Q 2900 3844 2670 4047 
Q 2441 4250 2034 4250 
Q 1625 4250 1398 4047 
Q 1172 3844 1172 3481 
z
" transform="scale(0.015625)"/>
       </defs>
       <use xlink:href="#DejaVuSans-38"/>
       <use xlink:href="#DejaVuSans-30" x="63.623047"/>
      </g>
     </g>
    </g>
    <g id="ytick_6">
     <g id="line2d_21">
      <path d="M 67.03125 106.931316 
L 424.15125 106.931316 
" clip-path="url(#p16dad856f7)" style="fill: none; stroke: #b0b0b0; stroke-width: 0.8; stroke-linecap: square"/>
     </g>
     <g id="line2d_22">
      <g>
       <use xlink:href="#m6f3f5b6aff" x="67.03125" y="106.931316" style="stroke: #000000; stroke-width: 0.8"/>
      </g>
     </g>
     <g id="text_12">
      <!-- 100 -->
      <g transform="translate(31.4 112.630144)scale(0.15 -0.15)">
       <use xlink:href="#DejaVuSans-31"/>
       <use xlink:href="#DejaVuSans-30" x="63.623047"/>
       <use xlink:href="#DejaVuSans-30" x="127.246094"/>
      </g>
     </g>
    </g>
    <g id="ytick_7">
     <g id="line2d_23">
      <path d="M 67.03125 71.231989 
L 424.15125 71.231989 
" clip-path="url(#p16dad856f7)" style="fill: none; stroke: #b0b0b0; stroke-width: 0.8; stroke-linecap: square"/>
     </g>
     <g id="line2d_24">
      <g>
       <use xlink:href="#m6f3f5b6aff" x="67.03125" y="71.231989" style="stroke: #000000; stroke-width: 0.8"/>
      </g>
     </g>
     <g id="text_13">
      <!-- 120 -->
      <g transform="translate(31.4 76.930817)scale(0.15 -0.15)">
       <use xlink:href="#DejaVuSans-31"/>
       <use xlink:href="#DejaVuSans-32" x="63.623047"/>
       <use xlink:href="#DejaVuSans-30" x="127.246094"/>
      </g>
     </g>
    </g>
    <g id="ytick_8">
     <g id="line2d_25">
      <path d="M 67.03125 35.532662 
L 424.15125 35.532662 
" clip-path="url(#p16dad856f7)" style="fill: none; stroke: #b0b0b0; stroke-width: 0.8; stroke-linecap: square"/>
     </g>
     <g id="line2d_26">
      <g>
       <use xlink:href="#m6f3f5b6aff" x="67.03125" y="35.532662" style="stroke: #000000; stroke-width: 0.8"/>
      </g>
     </g>
     <g id="text_14">
      <!-- 140 -->
      <g transform="translate(31.4 41.23149)scale(0.15 -0.15)">
       <use xlink:href="#DejaVuSans-31"/>
       <use xlink:href="#DejaVuSans-34" x="63.623047"/>
       <use xlink:href="#DejaVuSans-30" x="127.246094"/>
      </g>
     </g>
    </g>
    <g id="text_15">
     <!-- $kHz^2/V^2$ -->
     <g transform="translate(23.240625 203.89225)rotate(-90)scale(0.2 -0.2)">
      <defs>
       <path id="DejaVuSans-Oblique-6b" d="M 1172 4863 
L 1747 4863 
L 1197 2028 
L 3169 3500 
L 3916 3500 
L 1716 1825 
L 3322 0 
L 2625 0 
L 1131 1709 
L 800 0 
L 225 0 
L 1172 4863 
z
" transform="scale(0.015625)"/>
       <path id="DejaVuSans-Oblique-48" d="M 1081 4666 
L 1716 4666 
L 1344 2753 
L 3634 2753 
L 4006 4666 
L 4641 4666 
L 3731 0 
L 3097 0 
L 3531 2222 
L 1241 2222 
L 806 0 
L 172 0 
L 1081 4666 
z
" transform="scale(0.015625)"/>
       <path id="DejaVuSans-Oblique-7a" d="M 744 3500 
L 3475 3500 
L 3372 2975 
L 738 459 
L 2913 459 
L 2822 0 
L -19 0 
L 84 525 
L 2719 3041 
L 653 3041 
L 744 3500 
z
" transform="scale(0.015625)"/>
       <path id="DejaVuSans-2f" d="M 1625 4666 
L 2156 4666 
L 531 -594 
L 0 -594 
L 1625 4666 
z
" transform="scale(0.015625)"/>
       <path id="DejaVuSans-Oblique-56" d="M 1319 0 
L 500 4666 
L 1119 4666 
L 1797 653 
L 4063 4666 
L 4750 4666 
L 2053 0 
L 1319 0 
z
" transform="scale(0.015625)"/>
      </defs>
      <use xlink:href="#DejaVuSans-Oblique-6b" transform="translate(0 0.765625)"/>
      <use xlink:href="#DejaVuSans-Oblique-48" transform="translate(57.910156 0.765625)"/>
      <use xlink:href="#DejaVuSans-Oblique-7a" transform="translate(133.105469 0.765625)"/>
      <use xlink:href="#DejaVuSans-32" transform="translate(190.061849 39.046875)scale(0.7)"/>
      <use xlink:href="#DejaVuSans-2f" transform="translate(237.332357 0.765625)"/>
      <use xlink:href="#DejaVuSans-Oblique-56" transform="translate(271.023763 0.765625)"/>
      <use xlink:href="#DejaVuSans-32" transform="translate(346.448737 39.046875)scale(0.7)"/>
     </g>
    </g>
   </g>
   <g id="line2d_27">
    <path d="M 83.263977 95.603812 
L 83.549388 95.309918 
L 83.692093 95.227521 
L 83.834798 95.070591 
L 83.906151 95.126347 
L 84.191562 94.931083 
L 84.69103 94.798341 
L 84.833736 94.778366 
L 85.261851 94.689405 
L 85.975378 94.772641 
L 86.118083 94.767839 
L 86.688904 94.839403 
L 86.83161 94.838412 
L 87.259726 94.887498 
L 89.899773 94.836491 
L 90.113831 94.75154 
L 90.327889 94.762392 
L 93.681464 94.17643 
L 94.39499 94.19954 
L 97.177744 94.622475 
L 97.463154 94.757467 
L 97.748565 94.803625 
L 99.889144 95.72252 
L 100.245907 95.99646 
L 101.173492 96.473731 
L 101.458902 96.635687 
L 102.172429 96.906819 
L 102.529192 97.099738 
L 102.814603 97.197548 
L 104.09895 97.667064 
L 104.455714 97.709904 
L 105.526003 97.943305 
L 105.882766 97.946664 
L 106.881704 98.002438 
L 109.807162 97.94182 
L 109.949867 97.987535 
L 110.163925 97.919398 
L 110.592041 97.891709 
L 117.441895 97.497237 
L 117.655953 97.554228 
L 118.440832 97.69441 
L 119.72518 98.256384 
L 120.866822 99.192618 
L 122.008465 100.659197 
L 125.147981 106.073784 
L 126.075566 107.219281 
L 126.860445 107.865123 
L 127.645324 108.258712 
L 127.930735 108.336212 
L 129.001024 108.470556 
L 129.286435 108.440812 
L 130.356725 108.278302 
L 130.78484 108.060811 
L 131.212956 107.912667 
L 132.92542 107.095365 
L 133.21083 106.965812 
L 135.993584 106.160694 
L 136.849815 106.029139 
L 138.919042 105.890379 
L 143.057496 105.761411 
L 144.627254 105.71793 
L 144.841312 105.751687 
L 148.55165 105.762293 
L 148.83706 105.803613 
L 149.193823 105.815532 
L 149.693292 105.837665 
L 150.19276 105.836598 
L 150.834934 105.926936 
L 153.189572 105.892115 
L 153.40363 105.855804 
L 154.045803 105.838907 
L 155.401504 105.80391 
L 161.751889 105.629411 
L 162.108653 105.592184 
L 163.178942 105.508199 
L 163.321648 105.520183 
L 163.535706 105.441258 
L 163.892469 105.437477 
L 170.456912 104.745073 
L 170.599618 104.790805 
L 170.813676 104.722583 
L 171.170439 104.680855 
L 173.168313 104.349119 
L 173.453724 104.293194 
L 177.66353 103.157441 
L 179.732756 102.678369 
L 182.658215 102.251806 
L 183.371742 102.286696 
L 184.584737 102.475696 
L 185.512321 102.819075 
L 185.940437 103.133339 
L 186.154495 103.240343 
L 187.153432 104.046615 
L 188.295074 105.301875 
L 188.937248 106.14897 
L 189.008601 106.158634 
L 189.222659 106.481926 
L 191.434591 109.6736 
L 193.717875 112.8464 
L 195.073576 114.314851 
L 195.929807 114.846931 
L 196.571981 114.988077 
L 197.07145 114.951201 
L 197.285508 114.799618 
L 197.642271 114.557065 
L 198.284445 113.837207 
L 198.997971 112.750985 
L 199.426087 111.755181 
L 200.353672 109.320219 
L 200.924493 107.467947 
L 202.066135 103.337829 
L 204.563478 94.297194 
L 204.777536 93.558399 
L 205.134299 92.426231 
L 205.633767 91.109816 
L 206.561352 89.017675 
L 207.346231 87.938094 
L 207.631642 87.804479 
L 208.059757 87.400257 
L 209.130047 87.793796 
L 209.48681 88.0424 
L 212.198211 90.08024 
L 213.054443 90.321852 
L 213.839322 90.291503 
L 214.196085 90.268507 
L 215.837196 89.92489 
L 216.122607 89.797127 
L 216.265312 89.87212 
L 217.763718 89.694913 
L 219.262123 90.121589 
L 221.117292 91.069503 
L 222.472992 91.686762 
L 224.399514 92.455675 
L 224.613572 92.485967 
L 226.326035 92.883956 
L 227.681736 92.895032 
L 229.893668 92.776535 
L 230.963957 92.785654 
L 233.818063 92.93933 
L 234.959706 93.080564 
L 238.241927 93.456501 
L 238.741396 93.526603 
L 239.954391 93.700343 
L 246.304776 94.16431 
L 247.803182 94.093054 
L 249.08753 93.896759 
L 249.943761 93.661877 
L 251.299462 93.129016 
L 252.726515 92.375732 
L 254.367626 91.612358 
L 256.3655 90.942028 
L 256.579558 90.915186 
L 258.292021 90.63613 
L 258.577432 90.609256 
L 260.075837 90.594823 
L 264.071586 90.732455 
L 265.998107 91.362516 
L 267.068397 91.841473 
L 268.852213 92.588361 
L 270.136561 92.947487 
L 274.560425 93.017615 
L 275.77342 92.948702 
L 276.272888 92.932795 
L 278.270762 92.772855 
L 278.984289 92.751376 
L 280.6254 92.692497 
L 281.053516 92.686409 
L 286.404964 92.297962 
L 291.970471 91.5032 
L 295.680808 90.696759 
L 298.534914 91.003038 
L 303.5296 92.440438 
L 304.029068 92.631126 
L 305.741532 93.099954 
L 306.883174 93.207357 
L 309.665927 93.411518 
L 310.165396 93.444179 
L 312.305975 93.411603 
L 313.661676 93.347662 
L 315.017376 93.225654 
L 316.729839 92.67996 
L 317.657424 92.076318 
L 318.299598 91.451683 
L 319.655298 89.465912 
L 320.51153 87.71239 
L 323.579694 81.065577 
L 324.364573 80.099271 
L 325.220804 79.400911 
L 326.576505 78.837076 
L 327.7895 78.675334 
L 329.002495 78.662645 
L 330.5009 78.737413 
L 335.923702 78.456703 
L 340.918387 77.920818 
L 341.489208 77.890287 
L 345.484956 77.706056 
L 345.84172 77.637607 
L 357.472201 75.586395 
L 359.256017 75.26097 
L 360.611718 74.995509 
L 361.396597 74.778553 
L 366.391282 73.22026 
L 368.032393 73.082265 
L 368.888625 73.06092 
L 371.171909 72.776236 
L 376.023889 71.596123 
L 376.237947 71.482156 
L 376.380653 71.462643 
L 376.666063 71.332337 
L 377.593648 70.995289 
L 378.877995 70.556896 
L 379.020701 70.551497 
L 379.306111 70.444862 
L 380.162343 70.18832 
L 381.375338 69.7628 
L 381.518043 69.714979 
L 381.660749 69.707399 
L 381.946159 69.5669 
L 382.445628 69.364948 
L 383.301859 69.020916 
L 383.515917 68.914791 
L 384.372149 68.572917 
L 385.656497 67.960644 
L 390.009008 65.7595 
L 390.579829 65.449517 
L 391.150651 65.078738 
L 392.363646 64.410697 
L 392.720409 64.241323 
L 393.148525 64.006351 
L 393.433935 63.873647 
L 396.359394 62.052922 
L 398.14321 60.418077 
L 399.427558 59.094784 
L 399.784321 58.620686 
L 400.069732 58.240629 
L 400.854611 57.135462 
L 403.351953 52.690375 
L 403.637364 52.033079 
L 404.06548 51.103594 
L 404.136832 51.185646 
L 404.35089 50.454204 
L 404.422243 50.420204 
L 404.636301 49.862844 
L 404.707654 49.910857 
L 404.779006 49.665544 
L 404.850359 48.737424 
L 404.921712 49.25093 
L 405.635238 47.788217 
L 405.706591 47.393453 
L 405.777943 47.595772 
L 405.992001 47.095522 
L 406.063354 47.248374 
L 406.277412 46.452317 
L 406.634175 45.873079 
L 406.705528 45.980923 
L 406.919586 45.17009 
L 407.062291 45.671148 
L 407.133644 44.931656 
L 407.204996 45.05174 
L 407.276349 45.215826 
L 407.419054 44.408944 
L 407.775817 43.982044 
L 407.84717 43.53225 
L 407.918523 44.155109 
L 407.918523 44.155109 
" clip-path="url(#p16dad856f7)" style="fill: none; stroke: #1f77b4; stroke-width: 1.5; stroke-linecap: square"/>
   </g>
   <g id="line2d_28">
    <path d="M 83.263977 285.444819 
L 125.576097 285.417192 
L 145.768896 285.428503 
L 190.863769 285.397721 
L 199.854203 285.326303 
L 210.628453 285.441249 
L 226.968209 285.428041 
L 407.918523 285.372623 
L 407.918523 285.372623 
" clip-path="url(#p16dad856f7)" style="fill: none; stroke: #ff7f0e; stroke-width: 1.5; stroke-linecap: square"/>
   </g>
   <g id="line2d_29">
    <path d="M 83.263977 100.589938 
L 85.119146 98.145947 
L 85.547262 97.744875 
L 85.975378 97.382121 
L 88.615426 96.101345 
L 90.042479 95.87946 
L 90.399242 95.897986 
L 90.756005 95.906436 
L 94.39499 95.908919 
L 96.82098 96.057642 
L 97.106391 96.119495 
L 101.102139 96.611202 
L 101.316197 96.561828 
L 101.530255 96.597995 
L 108.594167 97.85027 
L 112.518563 98.046013 
L 112.661268 98.073208 
L 113.303442 98.133583 
L 116.585664 98.600402 
L 118.65489 99.440977 
L 120.581412 100.699355 
L 121.723054 101.649695 
L 127.217208 105.85738 
L 127.431266 105.948159 
L 128.144792 106.286117 
L 128.644261 106.481003 
L 129.001024 106.558745 
L 129.286435 106.628361 
L 130.998898 106.805775 
L 131.355662 106.781637 
L 131.641072 106.80262 
L 132.069188 106.798956 
L 134.138415 106.589584 
L 134.709236 106.495287 
L 135.494115 106.376276 
L 135.850878 106.329605 
L 136.278994 106.282122 
L 136.70711 106.233171 
L 139.917979 105.949872 
L 140.916916 105.911111 
L 143.271554 105.886392 
L 144.127785 105.882171 
L 144.984017 105.835829 
L 146.41107 105.837639 
L 148.337592 105.874124 
L 151.048992 105.840812 
L 151.833871 105.852469 
L 155.258798 105.842058 
L 155.401504 105.790497 
L 156.186383 105.789113 
L 164.962758 105.460338 
L 165.248169 105.44435 
L 168.173628 105.291929 
L 168.316333 105.218959 
L 170.242854 105.024414 
L 170.456912 105.007048 
L 170.813676 104.949663 
L 171.313144 104.916821 
L 175.665656 104.337934 
L 175.879714 104.32041 
L 176.521887 104.254967 
L 182.301452 103.691489 
L 184.584737 103.874691 
L 186.368553 104.307415 
L 187.510195 104.733754 
L 189.864832 105.715055 
L 191.720001 106.488881 
L 192.790291 106.781292 
L 193.931933 106.801205 
L 194.288697 106.644209 
L 194.502754 106.643364 
L 195.287634 106.235543 
L 196.215218 105.60214 
L 197.000097 104.913929 
L 197.285508 104.605858 
L 198.42715 103.386676 
L 198.641208 103.165941 
L 201.352609 99.602018 
L 201.709372 99.053693 
L 203.635893 96.32243 
L 205.41971 94.264742 
L 206.561352 93.263262 
L 207.346231 92.853567 
L 207.631642 92.742601 
L 207.8457 92.731622 
L 208.773284 92.533698 
L 209.2014 92.509911 
L 209.629516 92.492143 
L 210.200337 92.556524 
L 210.985216 92.736802 
L 212.626327 93.365178 
L 214.481496 93.960638 
L 216.122607 94.239174 
L 216.265312 94.199142 
L 218.191833 94.153578 
L 220.26106 93.813684 
L 220.546471 93.76593 
L 222.258934 93.644943 
L 223.614635 93.609139 
L 227.753088 93.544879 
L 230.036373 93.479441 
L 232.747773 93.484583 
L 237.100285 93.593517 
L 239.954391 93.69021 
L 246.447482 93.647736 
L 248.659414 93.41886 
L 251.014051 92.873119 
L 252.369751 92.560691 
L 257.507142 91.485416 
L 258.720137 91.343888 
L 261.574243 91.243125 
L 263.072649 91.404442 
L 263.572117 91.474295 
L 264.285644 91.552206 
L 266.925692 91.992869 
L 268.709508 92.308806 
L 269.56574 92.422264 
L 273.418782 92.86841 
L 273.846898 92.85829 
L 285.049264 92.330446 
L 286.048201 92.228677 
L 289.045012 91.917098 
L 294.539166 91.330532 
L 297.464625 91.347423 
L 298.249504 91.413278 
L 309.023753 92.650818 
L 312.662739 92.294834 
L 314.731965 91.627494 
L 316.373076 90.731151 
L 317.800129 89.606938 
L 319.512593 87.842801 
L 320.654235 86.614969 
L 325.220804 81.872494 
L 326.433799 80.96875 
L 328.07491 80.167652 
L 329.787374 79.585649 
L 330.5009 79.4063 
L 334.139885 78.917218 
L 336.993991 78.565016 
L 338.991865 78.352093 
L 351.193168 76.814997 
L 352.120752 76.678031 
L 353.4051 76.475215 
L 354.118627 76.324534 
L 356.972733 75.804995 
L 358.756549 75.440138 
L 361.539302 74.710355 
L 365.463698 73.827325 
L 366.034519 73.702075 
L 366.60534 73.596662 
L 370.458383 72.774015 
L 371.029204 72.635634 
L 371.243262 72.635926 
L 372.741668 72.364348 
L 372.81302 72.398537 
L 373.027078 72.299075 
L 373.455194 72.218771 
L 373.740605 72.120576 
L 376.808768 71.23304 
L 376.951474 71.256856 
L 378.592585 70.800111 
L 378.806643 70.694271 
L 378.877995 70.73681 
L 379.020701 70.651788 
L 379.948285 70.295618 
L 385.870555 68.052596 
L 386.584081 67.744174 
L 386.726786 67.742974 
L 387.08355 67.584642 
L 387.654371 67.347618 
L 387.939781 67.191953 
L 388.43925 66.99744 
L 388.581955 66.848689 
L 388.724661 66.893863 
L 388.796013 66.714303 
L 388.867366 66.795565 
L 389.152776 66.611324 
L 389.224129 66.494773 
L 389.295482 66.615438 
L 389.50954 66.436796 
L 390.651182 65.90611 
L 390.86524 65.768861 
L 391.150651 65.630086 
L 393.719346 64.376039 
L 393.862051 64.219423 
L 393.933404 64.312663 
L 394.004756 64.226898 
L 394.076109 64.026266 
L 394.147462 64.156789 
L 395.075046 63.507658 
L 395.146399 63.524196 
L 395.360457 63.332486 
L 395.431809 63.339029 
L 395.645867 63.157774 
L 396.002631 62.888956 
L 396.073983 62.922192 
L 396.288041 62.73242 
L 396.430747 62.589836 
L 396.502099 62.531056 
L 396.573452 62.667615 
L 396.716157 62.297272 
L 396.78751 62.54425 
L 396.858862 62.393524 
L 397.07292 62.203915 
L 398.14321 61.366073 
L 398.214563 61.210694 
L 398.285915 61.3121 
L 399.142147 60.444623 
L 399.2135 60.640092 
L 399.356205 60.212675 
L 399.427558 60.407284 
L 399.998379 59.731126 
L 400.141084 59.620271 
L 400.5692 59.106187 
L 400.640553 59.209679 
L 400.711905 59.188516 
L 400.854611 58.91015 
L 400.997316 58.834307 
L 401.568137 58.306806 
L 401.782195 58.009525 
L 401.853548 58.297641 
L 401.996253 57.72334 
L 402.067606 57.960914 
L 402.138958 57.902934 
L 402.210311 57.626944 
L 402.281664 57.658094 
L 402.781132 57.156653 
L 402.852485 57.103974 
L 402.923837 57.226044 
L 402.99519 56.983539 
L 403.066543 57.012706 
L 403.137895 56.96083 
L 403.209248 56.651768 
L 403.280601 56.780875 
L 403.351953 56.775558 
L 403.708717 56.3269 
L 404.06548 55.914091 
L 404.136832 56.382402 
L 404.279538 55.889583 
L 404.493596 55.716307 
L 404.564948 55.74439 
L 404.636301 55.304458 
L 404.707654 55.679569 
L 404.779006 55.647198 
L 404.850359 54.581947 
L 404.921712 55.16112 
L 405.064417 55.353513 
L 405.207122 55.183697 
L 405.278475 55.25084 
L 405.349827 55.674026 
L 405.492533 55.009264 
L 405.635238 54.998273 
L 405.706591 54.632373 
L 405.777943 55.175824 
L 405.920649 54.549468 
L 406.063354 55.323868 
L 406.206059 54.498193 
L 406.420117 54.979594 
L 406.49147 54.531477 
L 406.562822 55.042426 
L 406.634175 54.619854 
L 406.705528 54.80661 
L 406.77688 54.471723 
L 406.848233 54.504544 
L 406.990938 54.729592 
L 407.062291 55.122153 
L 407.133644 54.524796 
L 407.204996 54.610281 
L 407.276349 54.934477 
L 407.490407 54.495526 
L 407.633112 54.577499 
L 407.704465 54.708823 
L 407.775817 54.628333 
L 407.84717 54.490706 
L 407.918523 55.040398 
L 407.918523 55.040398 
" clip-path="url(#p16dad856f7)" style="fill: none; stroke: #2ca02c; stroke-width: 1.5; stroke-linecap: square"/>
   </g>
   <g id="patch_3">
    <path d="M 67.03125 297.54825 
L 67.03125 31.43625 
" style="fill: none; stroke: #000000; stroke-width: 0.8; stroke-linejoin: miter; stroke-linecap: square"/>
   </g>
   <g id="patch_4">
    <path d="M 424.15125 297.54825 
L 424.15125 31.43625 
" style="fill: none; stroke: #000000; stroke-width: 0.8; stroke-linejoin: miter; stroke-linecap: square"/>
   </g>
   <g id="patch_5">
    <path d="M 67.03125 297.54825 
L 424.15125 297.54825 
" style="fill: none; stroke: #000000; stroke-width: 0.8; stroke-linejoin: miter; stroke-linecap: square"/>
   </g>
   <g id="patch_6">
    <path d="M 67.03125 31.43625 
L 424.15125 31.43625 
" style="fill: none; stroke: #000000; stroke-width: 0.8; stroke-linejoin: miter; stroke-linecap: square"/>
   </g>
   <g id="text_16">
    <!-- Ion Trap Potential Curvature -->
    <g transform="translate(77.90625 25.43625)scale(0.24 -0.24)">
     <defs>
      <path id="DejaVuSans-49" d="M 628 4666 
L 1259 4666 
L 1259 0 
L 628 0 
L 628 4666 
z
" transform="scale(0.015625)"/>
      <path id="DejaVuSans-6f" d="M 1959 3097 
Q 1497 3097 1228 2736 
Q 959 2375 959 1747 
Q 959 1119 1226 758 
Q 1494 397 1959 397 
Q 2419 397 2687 759 
Q 2956 1122 2956 1747 
Q 2956 2369 2687 2733 
Q 2419 3097 1959 3097 
z
M 1959 3584 
Q 2709 3584 3137 3096 
Q 3566 2609 3566 1747 
Q 3566 888 3137 398 
Q 2709 -91 1959 -91 
Q 1206 -91 779 398 
Q 353 888 353 1747 
Q 353 2609 779 3096 
Q 1206 3584 1959 3584 
z
" transform="scale(0.015625)"/>
      <path id="DejaVuSans-6e" d="M 3513 2113 
L 3513 0 
L 2938 0 
L 2938 2094 
Q 2938 2591 2744 2837 
Q 2550 3084 2163 3084 
Q 1697 3084 1428 2787 
Q 1159 2491 1159 1978 
L 1159 0 
L 581 0 
L 581 3500 
L 1159 3500 
L 1159 2956 
Q 1366 3272 1645 3428 
Q 1925 3584 2291 3584 
Q 2894 3584 3203 3211 
Q 3513 2838 3513 2113 
z
" transform="scale(0.015625)"/>
      <path id="DejaVuSans-54" d="M -19 4666 
L 3928 4666 
L 3928 4134 
L 2272 4134 
L 2272 0 
L 1638 0 
L 1638 4134 
L -19 4134 
L -19 4666 
z
" transform="scale(0.015625)"/>
      <path id="DejaVuSans-72" d="M 2631 2963 
Q 2534 3019 2420 3045 
Q 2306 3072 2169 3072 
Q 1681 3072 1420 2755 
Q 1159 2438 1159 1844 
L 1159 0 
L 581 0 
L 581 3500 
L 1159 3500 
L 1159 2956 
Q 1341 3275 1631 3429 
Q 1922 3584 2338 3584 
Q 2397 3584 2469 3576 
Q 2541 3569 2628 3553 
L 2631 2963 
z
" transform="scale(0.015625)"/>
      <path id="DejaVuSans-61" d="M 2194 1759 
Q 1497 1759 1228 1600 
Q 959 1441 959 1056 
Q 959 750 1161 570 
Q 1363 391 1709 391 
Q 2188 391 2477 730 
Q 2766 1069 2766 1631 
L 2766 1759 
L 2194 1759 
z
M 3341 1997 
L 3341 0 
L 2766 0 
L 2766 531 
Q 2569 213 2275 61 
Q 1981 -91 1556 -91 
Q 1019 -91 701 211 
Q 384 513 384 1019 
Q 384 1609 779 1909 
Q 1175 2209 1959 2209 
L 2766 2209 
L 2766 2266 
Q 2766 2663 2505 2880 
Q 2244 3097 1772 3097 
Q 1472 3097 1187 3025 
Q 903 2953 641 2809 
L 641 3341 
Q 956 3463 1253 3523 
Q 1550 3584 1831 3584 
Q 2591 3584 2966 3190 
Q 3341 2797 3341 1997 
z
" transform="scale(0.015625)"/>
      <path id="DejaVuSans-70" d="M 1159 525 
L 1159 -1331 
L 581 -1331 
L 581 3500 
L 1159 3500 
L 1159 2969 
Q 1341 3281 1617 3432 
Q 1894 3584 2278 3584 
Q 2916 3584 3314 3078 
Q 3713 2572 3713 1747 
Q 3713 922 3314 415 
Q 2916 -91 2278 -91 
Q 1894 -91 1617 61 
Q 1341 213 1159 525 
z
M 3116 1747 
Q 3116 2381 2855 2742 
Q 2594 3103 2138 3103 
Q 1681 3103 1420 2742 
Q 1159 2381 1159 1747 
Q 1159 1113 1420 752 
Q 1681 391 2138 391 
Q 2594 391 2855 752 
Q 3116 1113 3116 1747 
z
" transform="scale(0.015625)"/>
      <path id="DejaVuSans-50" d="M 1259 4147 
L 1259 2394 
L 2053 2394 
Q 2494 2394 2734 2622 
Q 2975 2850 2975 3272 
Q 2975 3691 2734 3919 
Q 2494 4147 2053 4147 
L 1259 4147 
z
M 628 4666 
L 2053 4666 
Q 2838 4666 3239 4311 
Q 3641 3956 3641 3272 
Q 3641 2581 3239 2228 
Q 2838 1875 2053 1875 
L 1259 1875 
L 1259 0 
L 628 0 
L 628 4666 
z
" transform="scale(0.015625)"/>
      <path id="DejaVuSans-74" d="M 1172 4494 
L 1172 3500 
L 2356 3500 
L 2356 3053 
L 1172 3053 
L 1172 1153 
Q 1172 725 1289 603 
Q 1406 481 1766 481 
L 2356 481 
L 2356 0 
L 1766 0 
Q 1100 0 847 248 
Q 594 497 594 1153 
L 594 3053 
L 172 3053 
L 172 3500 
L 594 3500 
L 594 4494 
L 1172 4494 
z
" transform="scale(0.015625)"/>
      <path id="DejaVuSans-65" d="M 3597 1894 
L 3597 1613 
L 953 1613 
Q 991 1019 1311 708 
Q 1631 397 2203 397 
Q 2534 397 2845 478 
Q 3156 559 3463 722 
L 3463 178 
Q 3153 47 2828 -22 
Q 2503 -91 2169 -91 
Q 1331 -91 842 396 
Q 353 884 353 1716 
Q 353 2575 817 3079 
Q 1281 3584 2069 3584 
Q 2775 3584 3186 3129 
Q 3597 2675 3597 1894 
z
M 3022 2063 
Q 3016 2534 2758 2815 
Q 2500 3097 2075 3097 
Q 1594 3097 1305 2825 
Q 1016 2553 972 2059 
L 3022 2063 
z
" transform="scale(0.015625)"/>
      <path id="DejaVuSans-69" d="M 603 3500 
L 1178 3500 
L 1178 0 
L 603 0 
L 603 3500 
z
M 603 4863 
L 1178 4863 
L 1178 4134 
L 603 4134 
L 603 4863 
z
" transform="scale(0.015625)"/>
      <path id="DejaVuSans-6c" d="M 603 4863 
L 1178 4863 
L 1178 0 
L 603 0 
L 603 4863 
z
" transform="scale(0.015625)"/>
      <path id="DejaVuSans-43" d="M 4122 4306 
L 4122 3641 
Q 3803 3938 3442 4084 
Q 3081 4231 2675 4231 
Q 1875 4231 1450 3742 
Q 1025 3253 1025 2328 
Q 1025 1406 1450 917 
Q 1875 428 2675 428 
Q 3081 428 3442 575 
Q 3803 722 4122 1019 
L 4122 359 
Q 3791 134 3420 21 
Q 3050 -91 2638 -91 
Q 1578 -91 968 557 
Q 359 1206 359 2328 
Q 359 3453 968 4101 
Q 1578 4750 2638 4750 
Q 3056 4750 3426 4639 
Q 3797 4528 4122 4306 
z
" transform="scale(0.015625)"/>
      <path id="DejaVuSans-75" d="M 544 1381 
L 544 3500 
L 1119 3500 
L 1119 1403 
Q 1119 906 1312 657 
Q 1506 409 1894 409 
Q 2359 409 2629 706 
Q 2900 1003 2900 1516 
L 2900 3500 
L 3475 3500 
L 3475 0 
L 2900 0 
L 2900 538 
Q 2691 219 2414 64 
Q 2138 -91 1772 -91 
Q 1169 -91 856 284 
Q 544 659 544 1381 
z
M 1991 3584 
L 1991 3584 
z
" transform="scale(0.015625)"/>
      <path id="DejaVuSans-76" d="M 191 3500 
L 800 3500 
L 1894 563 
L 2988 3500 
L 3597 3500 
L 2284 0 
L 1503 0 
L 191 3500 
z
" transform="scale(0.015625)"/>
     </defs>
     <use xlink:href="#DejaVuSans-49"/>
     <use xlink:href="#DejaVuSans-6f" x="29.492188"/>
     <use xlink:href="#DejaVuSans-6e" x="90.673828"/>
     <use xlink:href="#DejaVuSans-20" x="154.052734"/>
     <use xlink:href="#DejaVuSans-54" x="185.839844"/>
     <use xlink:href="#DejaVuSans-72" x="232.173828"/>
     <use xlink:href="#DejaVuSans-61" x="273.287109"/>
     <use xlink:href="#DejaVuSans-70" x="334.566406"/>
     <use xlink:href="#DejaVuSans-20" x="398.042969"/>
     <use xlink:href="#DejaVuSans-50" x="429.830078"/>
     <use xlink:href="#DejaVuSans-6f" x="486.507812"/>
     <use xlink:href="#DejaVuSans-74" x="547.689453"/>
     <use xlink:href="#DejaVuSans-65" x="586.898438"/>
     <use xlink:href="#DejaVuSans-6e" x="648.421875"/>
     <use xlink:href="#DejaVuSans-74" x="711.800781"/>
     <use xlink:href="#DejaVuSans-69" x="751.009766"/>
     <use xlink:href="#DejaVuSans-61" x="778.792969"/>
     <use xlink:href="#DejaVuSans-6c" x="840.072266"/>
     <use xlink:href="#DejaVuSans-20" x="867.855469"/>
     <use xlink:href="#DejaVuSans-43" x="899.642578"/>
     <use xlink:href="#DejaVuSans-75" x="969.466797"/>
     <use xlink:href="#DejaVuSans-72" x="1032.845703"/>
     <use xlink:href="#DejaVuSans-76" x="1073.958984"/>
     <use xlink:href="#DejaVuSans-61" x="1133.138672"/>
     <use xlink:href="#DejaVuSans-74" x="1194.417969"/>
     <use xlink:href="#DejaVuSans-75" x="1233.626953"/>
     <use xlink:href="#DejaVuSans-72" x="1297.005859"/>
     <use xlink:href="#DejaVuSans-65" x="1335.869141"/>
    </g>
   </g>
   <g id="legend_1">
    <g id="patch_7">
     <path d="M 310.95125 213.068812 
L 410.15125 213.068812 
Q 414.15125 213.068812 414.15125 209.068812 
L 414.15125 119.915687 
Q 414.15125 115.915687 410.15125 115.915687 
L 310.95125 115.915687 
Q 306.95125 115.915687 306.95125 119.915687 
L 306.95125 209.068812 
Q 306.95125 213.068812 310.95125 213.068812 
z
" style="fill: #ffffff; opacity: 0.8; stroke: #cccccc; stroke-linejoin: miter"/>
    </g>
    <g id="line2d_30">
     <path d="M 314.95125 135.115687 
L 334.95125 135.115687 
L 354.95125 135.115687 
" style="fill: none; stroke: #1f77b4; stroke-width: 1.5; stroke-linecap: square"/>
    </g>
    <g id="text_17">
     <!-- $y^2$ -->
     <g transform="translate(370.95125 142.115687)scale(0.2 -0.2)">
      <defs>
       <path id="DejaVuSans-Oblique-79" d="M 1588 -325 
Q 1188 -997 936 -1164 
Q 684 -1331 294 -1331 
L -159 -1331 
L -63 -850 
L 269 -850 
Q 509 -850 678 -719 
Q 847 -588 1056 -206 
L 1234 128 
L 459 3500 
L 1069 3500 
L 1650 819 
L 3256 3500 
L 3859 3500 
L 1588 -325 
z
" transform="scale(0.015625)"/>
      </defs>
      <use xlink:href="#DejaVuSans-Oblique-79" transform="translate(0 0.765625)"/>
      <use xlink:href="#DejaVuSans-32" transform="translate(63.645833 39.046875)scale(0.7)"/>
     </g>
    </g>
    <g id="line2d_31">
     <path d="M 314.95125 164.512562 
L 334.95125 164.512562 
L 354.95125 164.512562 
" style="fill: none; stroke: #ff7f0e; stroke-width: 1.5; stroke-linecap: square"/>
    </g>
    <g id="text_18">
     <!-- $2yz$ -->
     <g transform="translate(370.95125 171.512562)scale(0.2 -0.2)">
      <use xlink:href="#DejaVuSans-32" transform="translate(0 0.78125)"/>
      <use xlink:href="#DejaVuSans-Oblique-79" transform="translate(63.623047 0.78125)"/>
      <use xlink:href="#DejaVuSans-Oblique-7a" transform="translate(122.802734 0.78125)"/>
     </g>
    </g>
    <g id="line2d_32">
     <path d="M 314.95125 193.909437 
L 334.95125 193.909437 
L 354.95125 193.909437 
" style="fill: none; stroke: #2ca02c; stroke-width: 1.5; stroke-linecap: square"/>
    </g>
    <g id="text_19">
     <!-- $z^2$ -->
     <g transform="translate(370.95125 200.909437)scale(0.2 -0.2)">
      <use xlink:href="#DejaVuSans-Oblique-7a" transform="translate(0 0.765625)"/>
      <use xlink:href="#DejaVuSans-32" transform="translate(56.95638 39.046875)scale(0.7)"/>
     </g>
    </g>
   </g>
  </g>
 </g>
 <defs>
  <clipPath id="p16dad856f7">
   <rect x="67.03125" y="31.43625" width="357.12" height="266.112"/>
  </clipPath>
 </defs>
</svg>
