<?xml version="1.0" encoding="utf-8" standalone="no"?>
<!DOCTYPE svg PUBLIC "-//W3C//DTD SVG 1.1//EN"
  "http://www.w3.org/Graphics/SVG/1.1/DTD/svg11.dtd">
<svg xmlns:xlink="http://www.w3.org/1999/xlink" width="444.818437pt" height="349.665437pt" viewBox="0 0 444.818437 349.665437" xmlns="http://www.w3.org/2000/svg" version="1.1">
 <defs>
  <style type="text/css">*{stroke-linejoin: round; stroke-linecap: butt}</style>
 </defs>
 <g id="figure_1">
  <g id="patch_1">
   <path d="M 0 349.665437 
L 444.818437 349.665437 
L 444.818437 0 
L 0 0 
L 0 349.665437 
z
" style="fill: none"/>
  </g>
  <g id="axes_1">
   <g id="patch_2">
    <path d="M 80.498437 297.54825 
L 437.618438 297.54825 
L 437.618438 31.43625 
L 80.498437 31.43625 
L 80.498437 297.54825 
z
" style="fill: none"/>
   </g>
   <g id="matplotlib.axis_1">
    <g id="xtick_1">
     <g id="line2d_1">
      <path d="M 112.428747 297.54825 
L 112.428747 31.43625 
" clip-path="url(#p4657dec8a1)" style="fill: none; stroke: #b0b0b0; stroke-width: 0.8; stroke-linecap: square"/>
     </g>
     <g id="line2d_2">
      <defs>
       <path id="md39032bed2" d="M 0 0 
L 0 3.5 
" style="stroke: #000000; stroke-width: 0.8"/>
      </defs>
      <g>
       <use xlink:href="#md39032bed2" x="112.428747" y="297.54825" style="stroke: #000000; stroke-width: 0.8"/>
      </g>
     </g>
     <g id="text_1">
      <!-- −3000 -->
      <g transform="translate(87.056482 315.945906)scale(0.15 -0.15)">
       <defs>
        <path id="DejaVuSans-2212" d="M 678 2272 
L 4684 2272 
L 4684 1741 
L 678 1741 
L 678 2272 
z
" transform="scale(0.015625)"/>
        <path id="DejaVuSans-33" d="M 2597 2516 
Q 3050 2419 3304 2112 
Q 3559 1806 3559 1356 
Q 3559 666 3084 287 
Q 2609 -91 1734 -91 
Q 1441 -91 1130 -33 
Q 819 25 488 141 
L 488 750 
Q 750 597 1062 519 
Q 1375 441 1716 441 
Q 2309 441 2620 675 
Q 2931 909 2931 1356 
Q 2931 1769 2642 2001 
Q 2353 2234 1838 2234 
L 1294 2234 
L 1294 2753 
L 1863 2753 
Q 2328 2753 2575 2939 
Q 2822 3125 2822 3475 
Q 2822 3834 2567 4026 
Q 2313 4219 1838 4219 
Q 1578 4219 1281 4162 
Q 984 4106 628 3988 
L 628 4550 
Q 988 4650 1302 4700 
Q 1616 4750 1894 4750 
Q 2613 4750 3031 4423 
Q 3450 4097 3450 3541 
Q 3450 3153 3228 2886 
Q 3006 2619 2597 2516 
z
" transform="scale(0.015625)"/>
        <path id="DejaVuSans-30" d="M 2034 4250 
Q 1547 4250 1301 3770 
Q 1056 3291 1056 2328 
Q 1056 1369 1301 889 
Q 1547 409 2034 409 
Q 2525 409 2770 889 
Q 3016 1369 3016 2328 
Q 3016 3291 2770 3770 
Q 2525 4250 2034 4250 
z
M 2034 4750 
Q 2819 4750 3233 4129 
Q 3647 3509 3647 2328 
Q 3647 1150 3233 529 
Q 2819 -91 2034 -91 
Q 1250 -91 836 529 
Q 422 1150 422 2328 
Q 422 3509 836 4129 
Q 1250 4750 2034 4750 
z
" transform="scale(0.015625)"/>
       </defs>
       <use xlink:href="#DejaVuSans-2212"/>
       <use xlink:href="#DejaVuSans-33" x="83.789062"/>
       <use xlink:href="#DejaVuSans-30" x="147.412109"/>
       <use xlink:href="#DejaVuSans-30" x="211.035156"/>
       <use xlink:href="#DejaVuSans-30" x="274.658203"/>
      </g>
     </g>
    </g>
    <g id="xtick_2">
     <g id="line2d_3">
      <path d="M 183.781395 297.54825 
L 183.781395 31.43625 
" clip-path="url(#p4657dec8a1)" style="fill: none; stroke: #b0b0b0; stroke-width: 0.8; stroke-linecap: square"/>
     </g>
     <g id="line2d_4">
      <g>
       <use xlink:href="#md39032bed2" x="183.781395" y="297.54825" style="stroke: #000000; stroke-width: 0.8"/>
      </g>
     </g>
     <g id="text_2">
      <!-- −2000 -->
      <g transform="translate(158.409129 315.945906)scale(0.15 -0.15)">
       <defs>
        <path id="DejaVuSans-32" d="M 1228 531 
L 3431 531 
L 3431 0 
L 469 0 
L 469 531 
Q 828 903 1448 1529 
Q 2069 2156 2228 2338 
Q 2531 2678 2651 2914 
Q 2772 3150 2772 3378 
Q 2772 3750 2511 3984 
Q 2250 4219 1831 4219 
Q 1534 4219 1204 4116 
Q 875 4013 500 3803 
L 500 4441 
Q 881 4594 1212 4672 
Q 1544 4750 1819 4750 
Q 2544 4750 2975 4387 
Q 3406 4025 3406 3419 
Q 3406 3131 3298 2873 
Q 3191 2616 2906 2266 
Q 2828 2175 2409 1742 
Q 1991 1309 1228 531 
z
" transform="scale(0.015625)"/>
       </defs>
       <use xlink:href="#DejaVuSans-2212"/>
       <use xlink:href="#DejaVuSans-32" x="83.789062"/>
       <use xlink:href="#DejaVuSans-30" x="147.412109"/>
       <use xlink:href="#DejaVuSans-30" x="211.035156"/>
       <use xlink:href="#DejaVuSans-30" x="274.658203"/>
      </g>
     </g>
    </g>
    <g id="xtick_3">
     <g id="line2d_5">
      <path d="M 255.134042 297.54825 
L 255.134042 31.43625 
" clip-path="url(#p4657dec8a1)" style="fill: none; stroke: #b0b0b0; stroke-width: 0.8; stroke-linecap: square"/>
     </g>
     <g id="line2d_6">
      <g>
       <use xlink:href="#md39032bed2" x="255.134042" y="297.54825" style="stroke: #000000; stroke-width: 0.8"/>
      </g>
     </g>
     <g id="text_3">
      <!-- −1000 -->
      <g transform="translate(229.761776 315.945906)scale(0.15 -0.15)">
       <defs>
        <path id="DejaVuSans-31" d="M 794 531 
L 1825 531 
L 1825 4091 
L 703 3866 
L 703 4441 
L 1819 4666 
L 2450 4666 
L 2450 531 
L 3481 531 
L 3481 0 
L 794 0 
L 794 531 
z
" transform="scale(0.015625)"/>
       </defs>
       <use xlink:href="#DejaVuSans-2212"/>
       <use xlink:href="#DejaVuSans-31" x="83.789062"/>
       <use xlink:href="#DejaVuSans-30" x="147.412109"/>
       <use xlink:href="#DejaVuSans-30" x="211.035156"/>
       <use xlink:href="#DejaVuSans-30" x="274.658203"/>
      </g>
     </g>
    </g>
    <g id="xtick_4">
     <g id="line2d_7">
      <path d="M 326.486689 297.54825 
L 326.486689 31.43625 
" clip-path="url(#p4657dec8a1)" style="fill: none; stroke: #b0b0b0; stroke-width: 0.8; stroke-linecap: square"/>
     </g>
     <g id="line2d_8">
      <g>
       <use xlink:href="#md39032bed2" x="326.486689" y="297.54825" style="stroke: #000000; stroke-width: 0.8"/>
      </g>
     </g>
     <g id="text_4">
      <!-- 0 -->
      <g transform="translate(321.714814 315.945906)scale(0.15 -0.15)">
       <use xlink:href="#DejaVuSans-30"/>
      </g>
     </g>
    </g>
    <g id="xtick_5">
     <g id="line2d_9">
      <path d="M 397.839337 297.54825 
L 397.839337 31.43625 
" clip-path="url(#p4657dec8a1)" style="fill: none; stroke: #b0b0b0; stroke-width: 0.8; stroke-linecap: square"/>
     </g>
     <g id="line2d_10">
      <g>
       <use xlink:href="#md39032bed2" x="397.839337" y="297.54825" style="stroke: #000000; stroke-width: 0.8"/>
      </g>
     </g>
     <g id="text_5">
      <!-- 1000 -->
      <g transform="translate(378.751837 315.945906)scale(0.15 -0.15)">
       <use xlink:href="#DejaVuSans-31"/>
       <use xlink:href="#DejaVuSans-30" x="63.623047"/>
       <use xlink:href="#DejaVuSans-30" x="127.246094"/>
       <use xlink:href="#DejaVuSans-30" x="190.869141"/>
      </g>
     </g>
    </g>
    <g id="text_6">
     <!-- X ($\mu m$) -->
     <g transform="translate(225.058437 338.265437)scale(0.2 -0.2)">
      <defs>
       <path id="DejaVuSans-58" d="M 403 4666 
L 1081 4666 
L 2241 2931 
L 3406 4666 
L 4084 4666 
L 2584 2425 
L 4184 0 
L 3506 0 
L 2194 1984 
L 872 0 
L 191 0 
L 1856 2491 
L 403 4666 
z
" transform="scale(0.015625)"/>
       <path id="DejaVuSans-20" transform="scale(0.015625)"/>
       <path id="DejaVuSans-28" d="M 1984 4856 
Q 1566 4138 1362 3434 
Q 1159 2731 1159 2009 
Q 1159 1288 1364 580 
Q 1569 -128 1984 -844 
L 1484 -844 
Q 1016 -109 783 600 
Q 550 1309 550 2009 
Q 550 2706 781 3412 
Q 1013 4119 1484 4856 
L 1984 4856 
z
" transform="scale(0.015625)"/>
       <path id="DejaVuSans-Oblique-3bc" d="M -84 -1331 
L 856 3500 
L 1434 3500 
L 1009 1322 
Q 997 1256 987 1175 
Q 978 1094 978 1013 
Q 978 722 1161 565 
Q 1344 409 1684 409 
Q 2147 409 2431 671 
Q 2716 934 2816 1459 
L 3213 3500 
L 3788 3500 
L 3266 809 
Q 3253 750 3248 706 
Q 3244 663 3244 628 
Q 3244 531 3283 486 
Q 3322 441 3406 441 
Q 3438 441 3492 456 
Q 3547 472 3647 513 
L 3559 50 
Q 3422 -19 3297 -55 
Q 3172 -91 3053 -91 
Q 2847 -91 2730 40 
Q 2613 172 2613 403 
Q 2438 153 2195 31 
Q 1953 -91 1625 -91 
Q 1334 -91 1117 43 
Q 900 178 831 397 
L 494 -1331 
L -84 -1331 
z
" transform="scale(0.015625)"/>
       <path id="DejaVuSans-Oblique-6d" d="M 5747 2113 
L 5338 0 
L 4763 0 
L 5166 2094 
Q 5191 2228 5203 2325 
Q 5216 2422 5216 2491 
Q 5216 2772 5059 2928 
Q 4903 3084 4622 3084 
Q 4203 3084 3875 2770 
Q 3547 2456 3450 1953 
L 3066 0 
L 2491 0 
L 2900 2094 
Q 2925 2209 2937 2307 
Q 2950 2406 2950 2484 
Q 2950 2769 2794 2926 
Q 2638 3084 2363 3084 
Q 1938 3084 1609 2770 
Q 1281 2456 1184 1953 
L 800 0 
L 225 0 
L 909 3500 
L 1484 3500 
L 1375 2956 
Q 1609 3263 1923 3423 
Q 2238 3584 2597 3584 
Q 2978 3584 3223 3384 
Q 3469 3184 3519 2828 
Q 3781 3197 4126 3390 
Q 4472 3584 4856 3584 
Q 5306 3584 5551 3325 
Q 5797 3066 5797 2591 
Q 5797 2488 5784 2364 
Q 5772 2241 5747 2113 
z
" transform="scale(0.015625)"/>
       <path id="DejaVuSans-29" d="M 513 4856 
L 1013 4856 
Q 1481 4119 1714 3412 
Q 1947 2706 1947 2009 
Q 1947 1309 1714 600 
Q 1481 -109 1013 -844 
L 513 -844 
Q 928 -128 1133 580 
Q 1338 1288 1338 2009 
Q 1338 2731 1133 3434 
Q 928 4138 513 4856 
z
" transform="scale(0.015625)"/>
      </defs>
      <use xlink:href="#DejaVuSans-58" transform="translate(0 0.125)"/>
      <use xlink:href="#DejaVuSans-20" transform="translate(68.505859 0.125)"/>
      <use xlink:href="#DejaVuSans-28" transform="translate(100.292969 0.125)"/>
      <use xlink:href="#DejaVuSans-Oblique-3bc" transform="translate(139.306641 0.125)"/>
      <use xlink:href="#DejaVuSans-Oblique-6d" transform="translate(202.929688 0.125)"/>
      <use xlink:href="#DejaVuSans-29" transform="translate(300.341797 0.125)"/>
     </g>
    </g>
   </g>
   <g id="matplotlib.axis_2">
    <g id="ytick_1">
     <g id="line2d_11">
      <path d="M 80.498437 297.54825 
L 437.618438 297.54825 
" clip-path="url(#p4657dec8a1)" style="fill: none; stroke: #b0b0b0; stroke-width: 0.8; stroke-linecap: square"/>
     </g>
     <g id="line2d_12">
      <defs>
       <path id="m6f3f5b6aff" d="M 0 0 
L -3.5 0 
" style="stroke: #000000; stroke-width: 0.8"/>
      </defs>
      <g>
       <use xlink:href="#m6f3f5b6aff" x="80.498437" y="297.54825" style="stroke: #000000; stroke-width: 0.8"/>
      </g>
     </g>
     <g id="text_7">
      <!-- 22.50 -->
      <g transform="translate(30.55625 303.247078)scale(0.15 -0.15)">
       <defs>
        <path id="DejaVuSans-2e" d="M 684 794 
L 1344 794 
L 1344 0 
L 684 0 
L 684 794 
z
" transform="scale(0.015625)"/>
        <path id="DejaVuSans-35" d="M 691 4666 
L 3169 4666 
L 3169 4134 
L 1269 4134 
L 1269 2991 
Q 1406 3038 1543 3061 
Q 1681 3084 1819 3084 
Q 2600 3084 3056 2656 
Q 3513 2228 3513 1497 
Q 3513 744 3044 326 
Q 2575 -91 1722 -91 
Q 1428 -91 1123 -41 
Q 819 9 494 109 
L 494 744 
Q 775 591 1075 516 
Q 1375 441 1709 441 
Q 2250 441 2565 725 
Q 2881 1009 2881 1497 
Q 2881 1984 2565 2268 
Q 2250 2553 1709 2553 
Q 1456 2553 1204 2497 
Q 953 2441 691 2322 
L 691 4666 
z
" transform="scale(0.015625)"/>
       </defs>
       <use xlink:href="#DejaVuSans-32"/>
       <use xlink:href="#DejaVuSans-32" x="63.623047"/>
       <use xlink:href="#DejaVuSans-2e" x="127.246094"/>
       <use xlink:href="#DejaVuSans-35" x="159.033203"/>
       <use xlink:href="#DejaVuSans-30" x="222.65625"/>
      </g>
     </g>
    </g>
    <g id="ytick_2">
     <g id="line2d_13">
      <path d="M 80.498437 264.28425 
L 437.618438 264.28425 
" clip-path="url(#p4657dec8a1)" style="fill: none; stroke: #b0b0b0; stroke-width: 0.8; stroke-linecap: square"/>
     </g>
     <g id="line2d_14">
      <g>
       <use xlink:href="#m6f3f5b6aff" x="80.498437" y="264.28425" style="stroke: #000000; stroke-width: 0.8"/>
      </g>
     </g>
     <g id="text_8">
      <!-- 22.75 -->
      <g transform="translate(30.55625 269.983078)scale(0.15 -0.15)">
       <defs>
        <path id="DejaVuSans-37" d="M 525 4666 
L 3525 4666 
L 3525 4397 
L 1831 0 
L 1172 0 
L 2766 4134 
L 525 4134 
L 525 4666 
z
" transform="scale(0.015625)"/>
       </defs>
       <use xlink:href="#DejaVuSans-32"/>
       <use xlink:href="#DejaVuSans-32" x="63.623047"/>
       <use xlink:href="#DejaVuSans-2e" x="127.246094"/>
       <use xlink:href="#DejaVuSans-37" x="159.033203"/>
       <use xlink:href="#DejaVuSans-35" x="222.65625"/>
      </g>
     </g>
    </g>
    <g id="ytick_3">
     <g id="line2d_15">
      <path d="M 80.498437 231.02025 
L 437.618438 231.02025 
" clip-path="url(#p4657dec8a1)" style="fill: none; stroke: #b0b0b0; stroke-width: 0.8; stroke-linecap: square"/>
     </g>
     <g id="line2d_16">
      <g>
       <use xlink:href="#m6f3f5b6aff" x="80.498437" y="231.02025" style="stroke: #000000; stroke-width: 0.8"/>
      </g>
     </g>
     <g id="text_9">
      <!-- 23.00 -->
      <g transform="translate(30.55625 236.719078)scale(0.15 -0.15)">
       <use xlink:href="#DejaVuSans-32"/>
       <use xlink:href="#DejaVuSans-33" x="63.623047"/>
       <use xlink:href="#DejaVuSans-2e" x="127.246094"/>
       <use xlink:href="#DejaVuSans-30" x="159.033203"/>
       <use xlink:href="#DejaVuSans-30" x="222.65625"/>
      </g>
     </g>
    </g>
    <g id="ytick_4">
     <g id="line2d_17">
      <path d="M 80.498437 197.75625 
L 437.618438 197.75625 
" clip-path="url(#p4657dec8a1)" style="fill: none; stroke: #b0b0b0; stroke-width: 0.8; stroke-linecap: square"/>
     </g>
     <g id="line2d_18">
      <g>
       <use xlink:href="#m6f3f5b6aff" x="80.498437" y="197.75625" style="stroke: #000000; stroke-width: 0.8"/>
      </g>
     </g>
     <g id="text_10">
      <!-- 23.25 -->
      <g transform="translate(30.55625 203.455078)scale(0.15 -0.15)">
       <use xlink:href="#DejaVuSans-32"/>
       <use xlink:href="#DejaVuSans-33" x="63.623047"/>
       <use xlink:href="#DejaVuSans-2e" x="127.246094"/>
       <use xlink:href="#DejaVuSans-32" x="159.033203"/>
       <use xlink:href="#DejaVuSans-35" x="222.65625"/>
      </g>
     </g>
    </g>
    <g id="ytick_5">
     <g id="line2d_19">
      <path d="M 80.498437 164.49225 
L 437.618438 164.49225 
" clip-path="url(#p4657dec8a1)" style="fill: none; stroke: #b0b0b0; stroke-width: 0.8; stroke-linecap: square"/>
     </g>
     <g id="line2d_20">
      <g>
       <use xlink:href="#m6f3f5b6aff" x="80.498437" y="164.49225" style="stroke: #000000; stroke-width: 0.8"/>
      </g>
     </g>
     <g id="text_11">
      <!-- 23.50 -->
      <g transform="translate(30.55625 170.191078)scale(0.15 -0.15)">
       <use xlink:href="#DejaVuSans-32"/>
       <use xlink:href="#DejaVuSans-33" x="63.623047"/>
       <use xlink:href="#DejaVuSans-2e" x="127.246094"/>
       <use xlink:href="#DejaVuSans-35" x="159.033203"/>
       <use xlink:href="#DejaVuSans-30" x="222.65625"/>
      </g>
     </g>
    </g>
    <g id="ytick_6">
     <g id="line2d_21">
      <path d="M 80.498437 131.22825 
L 437.618438 131.22825 
" clip-path="url(#p4657dec8a1)" style="fill: none; stroke: #b0b0b0; stroke-width: 0.8; stroke-linecap: square"/>
     </g>
     <g id="line2d_22">
      <g>
       <use xlink:href="#m6f3f5b6aff" x="80.498437" y="131.22825" style="stroke: #000000; stroke-width: 0.8"/>
      </g>
     </g>
     <g id="text_12">
      <!-- 23.75 -->
      <g transform="translate(30.55625 136.927078)scale(0.15 -0.15)">
       <use xlink:href="#DejaVuSans-32"/>
       <use xlink:href="#DejaVuSans-33" x="63.623047"/>
       <use xlink:href="#DejaVuSans-2e" x="127.246094"/>
       <use xlink:href="#DejaVuSans-37" x="159.033203"/>
       <use xlink:href="#DejaVuSans-35" x="222.65625"/>
      </g>
     </g>
    </g>
    <g id="ytick_7">
     <g id="line2d_23">
      <path d="M 80.498437 97.96425 
L 437.618438 97.96425 
" clip-path="url(#p4657dec8a1)" style="fill: none; stroke: #b0b0b0; stroke-width: 0.8; stroke-linecap: square"/>
     </g>
     <g id="line2d_24">
      <g>
       <use xlink:href="#m6f3f5b6aff" x="80.498437" y="97.96425" style="stroke: #000000; stroke-width: 0.8"/>
      </g>
     </g>
     <g id="text_13">
      <!-- 24.00 -->
      <g transform="translate(30.55625 103.663078)scale(0.15 -0.15)">
       <defs>
        <path id="DejaVuSans-34" d="M 2419 4116 
L 825 1625 
L 2419 1625 
L 2419 4116 
z
M 2253 4666 
L 3047 4666 
L 3047 1625 
L 3713 1625 
L 3713 1100 
L 3047 1100 
L 3047 0 
L 2419 0 
L 2419 1100 
L 313 1100 
L 313 1709 
L 2253 4666 
z
" transform="scale(0.015625)"/>
       </defs>
       <use xlink:href="#DejaVuSans-32"/>
       <use xlink:href="#DejaVuSans-34" x="63.623047"/>
       <use xlink:href="#DejaVuSans-2e" x="127.246094"/>
       <use xlink:href="#DejaVuSans-30" x="159.033203"/>
       <use xlink:href="#DejaVuSans-30" x="222.65625"/>
      </g>
     </g>
    </g>
    <g id="ytick_8">
     <g id="line2d_25">
      <path d="M 80.498437 64.70025 
L 437.618438 64.70025 
" clip-path="url(#p4657dec8a1)" style="fill: none; stroke: #b0b0b0; stroke-width: 0.8; stroke-linecap: square"/>
     </g>
     <g id="line2d_26">
      <g>
       <use xlink:href="#m6f3f5b6aff" x="80.498437" y="64.70025" style="stroke: #000000; stroke-width: 0.8"/>
      </g>
     </g>
     <g id="text_14">
      <!-- 24.25 -->
      <g transform="translate(30.55625 70.399078)scale(0.15 -0.15)">
       <use xlink:href="#DejaVuSans-32"/>
       <use xlink:href="#DejaVuSans-34" x="63.623047"/>
       <use xlink:href="#DejaVuSans-2e" x="127.246094"/>
       <use xlink:href="#DejaVuSans-32" x="159.033203"/>
       <use xlink:href="#DejaVuSans-35" x="222.65625"/>
      </g>
     </g>
    </g>
    <g id="ytick_9">
     <g id="line2d_27">
      <path d="M 80.498437 31.43625 
L 437.618438 31.43625 
" clip-path="url(#p4657dec8a1)" style="fill: none; stroke: #b0b0b0; stroke-width: 0.8; stroke-linecap: square"/>
     </g>
     <g id="line2d_28">
      <g>
       <use xlink:href="#m6f3f5b6aff" x="80.498437" y="31.43625" style="stroke: #000000; stroke-width: 0.8"/>
      </g>
     </g>
     <g id="text_15">
      <!-- 24.50 -->
      <g transform="translate(30.55625 37.135078)scale(0.15 -0.15)">
       <use xlink:href="#DejaVuSans-32"/>
       <use xlink:href="#DejaVuSans-34" x="63.623047"/>
       <use xlink:href="#DejaVuSans-2e" x="127.246094"/>
       <use xlink:href="#DejaVuSans-35" x="159.033203"/>
       <use xlink:href="#DejaVuSans-30" x="222.65625"/>
      </g>
     </g>
    </g>
    <g id="text_16">
     <!-- $mm^{-2}$ -->
     <g transform="translate(22.396875 195.09225)rotate(-90)scale(0.2 -0.2)">
      <use xlink:href="#DejaVuSans-Oblique-6d" transform="translate(0 0.765625)"/>
      <use xlink:href="#DejaVuSans-Oblique-6d" transform="translate(97.412109 0.765625)"/>
      <use xlink:href="#DejaVuSans-2212" transform="translate(199.474115 39.046875)scale(0.7)"/>
      <use xlink:href="#DejaVuSans-32" transform="translate(258.126458 39.046875)scale(0.7)"/>
     </g>
    </g>
   </g>
   <g id="line2d_29">
    <path d="M 96.731165 268.339266 
L 97.016575 267.93249 
L 97.087928 267.930034 
L 97.373339 267.188841 
L 97.444691 267.473304 
L 97.516044 267.428937 
L 97.730102 267.215688 
L 98.086865 266.977686 
L 98.158218 266.410202 
L 98.22957 266.794694 
L 98.300923 266.767842 
L 98.372276 266.847686 
L 98.514981 266.656511 
L 98.729039 266.146744 
L 98.800392 266.475001 
L 98.871744 266.404294 
L 99.29986 265.486491 
L 99.513918 265.10804 
L 100.298797 262.867921 
L 101.583145 257.506905 
L 102.653435 252.09276 
L 103.652372 245.748856 
L 105.650246 230.106962 
L 106.363772 225.63157 
L 107.077299 222.524569 
L 107.576767 221.275072 
L 108.076236 220.465101 
L 108.290294 220.223679 
L 108.504352 219.836773 
L 108.575704 220.136185 
L 108.647057 220.06555 
L 108.861115 219.574212 
L 109.217878 219.388267 
L 109.431936 219.161014 
L 109.503289 219.165785 
L 109.860052 218.783733 
L 110.288168 218.495586 
L 110.716284 218.342528 
L 111.358457 218.819012 
L 111.857926 219.827924 
L 112.571452 222.73165 
L 113.641742 229.180128 
L 115.068795 238.459828 
L 115.925027 242.978483 
L 116.852611 246.814487 
L 117.922901 250.377067 
L 118.850485 252.097404 
L 118.993191 252.12834 
L 119.278601 252.325878 
L 119.920775 252.15293 
L 120.206186 251.807373 
L 120.491596 251.518891 
L 120.705654 251.20161 
L 120.84836 251.11456 
L 121.561886 250.386237 
L 121.704591 250.363752 
L 121.847297 250.276423 
L 122.48947 250.182024 
L 122.703528 250.279823 
L 123.773818 250.539423 
L 124.201934 250.43029 
L 124.415992 250.193894 
L 124.63005 250.042257 
L 126.485219 247.601805 
L 126.913335 247.398782 
L 127.05604 247.421964 
L 127.34145 247.354409 
L 128.197682 247.580353 
L 128.41174 247.650123 
L 129.053914 247.603125 
L 129.48203 247.269402 
L 130.266909 246.333427 
L 131.836667 244.516134 
L 132.407488 244.344717 
L 133.26372 244.462236 
L 133.477778 244.508879 
L 134.619421 243.862198 
L 135.261594 242.977324 
L 136.117826 241.816811 
L 136.76 241.260066 
L 137.330821 241.198326 
L 138.900579 241.75284 
L 139.685458 241.356312 
L 140.969806 239.994653 
L 141.183864 239.784557 
L 141.326569 239.638639 
L 141.897391 239.485197 
L 142.396859 239.586163 
L 142.96768 239.955447 
L 143.110386 240.031187 
L 143.467149 240.279953 
L 144.109323 240.488615 
L 144.180675 240.374525 
L 144.252028 240.423229 
L 144.466086 240.37322 
L 145.179612 239.880159 
L 145.679081 239.383727 
L 145.821786 239.309974 
L 146.249902 238.994051 
L 146.535313 238.887137 
L 146.820723 238.913196 
L 147.034781 239.031428 
L 147.106134 238.935807 
L 147.177486 239.014419 
L 147.962366 239.558254 
L 148.033718 239.580899 
L 148.247776 239.795064 
L 148.675892 240.117915 
L 148.88995 240.078853 
L 149.175361 240.198597 
L 149.389419 240.110088 
L 150.174298 239.651262 
L 151.173235 238.649264 
L 151.31594 238.625986 
L 151.601351 238.460319 
L 151.672703 238.547556 
L 151.744056 238.477122 
L 152.38623 238.602824 
L 153.242461 239.192709 
L 154.027341 239.636514 
L 154.241399 239.622251 
L 154.669514 239.533816 
L 155.09763 239.213675 
L 155.454394 238.914334 
L 156.16792 238.444522 
L 156.453331 238.481327 
L 156.596036 238.378079 
L 156.810094 238.362526 
L 157.095504 238.476978 
L 157.594973 238.807756 
L 157.809031 238.972909 
L 158.237147 239.377267 
L 158.522557 239.525847 
L 158.879321 239.648187 
L 159.307437 239.642148 
L 160.163668 238.972339 
L 161.590721 237.44622 
L 161.947484 237.319442 
L 162.09019 237.086116 
L 162.3756 237.172504 
L 162.875069 236.983865 
L 163.588595 236.702498 
L 164.088064 236.179376 
L 164.80159 234.898546 
L 165.657822 232.956068 
L 166.228643 231.834365 
L 166.585407 231.392863 
L 167.084875 230.930409 
L 167.22758 230.9266 
L 167.512991 230.860176 
L 167.727049 231.05853 
L 168.440575 231.268245 
L 168.583281 231.097308 
L 168.797339 231.094596 
L 168.940044 231.234872 
L 169.011397 231.114771 
L 169.082749 231.190625 
L 169.439512 231.026007 
L 169.65357 230.906256 
L 170.795213 229.735732 
L 171.294681 229.462726 
L 171.437387 229.382608 
L 171.508739 229.274903 
L 171.580092 229.350866 
L 171.651444 229.515945 
L 171.722797 229.440593 
L 171.865502 229.372779 
L 172.293618 229.564704 
L 173.221203 230.402988 
L 173.720671 230.67391 
L 174.006082 230.774107 
L 175.005019 230.3931 
L 175.504487 229.880665 
L 176.360719 229.083047 
L 176.503425 229.264703 
L 176.717482 229.113395 
L 176.788835 229.126652 
L 176.93154 229.016126 
L 177.002893 229.026702 
L 177.216951 229.282401 
L 177.431009 229.355688 
L 178.00183 229.737941 
L 178.858062 230.237809 
L 179.286178 230.278754 
L 179.428883 230.197791 
L 179.642941 230.145343 
L 180.641878 229.399686 
L 180.713231 229.413341 
L 180.855936 229.056101 
L 180.927289 229.09753 
L 181.069994 229.093635 
L 181.284052 228.964076 
L 181.926226 228.954106 
L 182.497047 229.287447 
L 183.353279 230.041255 
L 184.280863 230.334882 
L 184.637626 230.264007 
L 184.923037 230.011842 
L 185.993327 229.023974 
L 186.136032 228.888024 
L 186.421442 228.797963 
L 186.564148 228.786962 
L 186.706853 228.742742 
L 186.849558 228.620031 
L 186.992264 228.774653 
L 187.206322 228.80337 
L 187.777143 229.087209 
L 188.062553 229.282168 
L 188.205259 229.287483 
L 188.490669 229.594769 
L 188.633375 229.571124 
L 188.847433 229.659407 
L 189.489606 229.435058 
L 190.203133 228.880545 
L 190.417191 228.55514 
L 190.559896 228.463261 
L 191.416128 227.875092 
L 191.915596 227.838436 
L 192.486418 228.09832 
L 192.700475 228.272564 
L 192.771828 228.269748 
L 192.985886 228.469232 
L 193.342649 228.750787 
L 193.770765 229.033709 
L 194.056176 228.993158 
L 194.198881 229.042536 
L 194.341586 229.013472 
L 194.69835 228.802295 
L 195.197818 228.406057 
L 195.483229 228.149647 
L 195.625934 228.122944 
L 195.697287 227.866598 
L 195.768639 227.933204 
L 195.839992 228.042471 
L 196.125403 227.617729 
L 196.482166 227.494349 
L 197.552455 227.561059 
L 197.837866 227.761185 
L 197.909219 227.664852 
L 198.051924 228.000092 
L 198.123277 227.89517 
L 198.337335 228.516652 
L 198.408687 228.526149 
L 198.622745 227.64017 
L 198.694098 227.698894 
L 198.836803 228.019221 
L 199.407624 227.92671 
L 200.049798 227.260841 
L 200.121151 227.029594 
L 200.192503 227.209996 
L 200.263856 227.045285 
L 200.335209 227.214927 
L 200.406561 227.090441 
L 200.477914 227.294841 
L 200.549267 227.234255 
L 200.691972 226.551858 
L 200.763325 226.479136 
L 200.90603 226.095119 
L 200.977383 226.238345 
L 201.048735 226.140396 
L 201.904967 226.069083 
L 201.97632 226.202757 
L 202.047672 226.116031 
L 202.119025 226.134586 
L 202.26173 225.931957 
L 202.404436 226.340036 
L 202.475788 226.283833 
L 202.689846 227.018226 
L 202.761199 227.044945 
L 202.975257 226.1357 
L 203.046609 226.204073 
L 203.33202 227.395256 
L 203.403373 227.367756 
L 203.546078 227.204425 
L 203.688783 227.22335 
L 203.902841 227.345872 
L 204.259604 227.31476 
L 204.40231 227.37156 
L 204.473662 227.138554 
L 204.545015 227.172355 
L 204.759073 227.333908 
L 204.830426 227.588572 
L 204.901778 227.48736 
L 205.044483 226.774156 
L 205.115836 226.637658 
L 205.258541 226.189497 
L 205.329894 226.584639 
L 205.401247 226.521243 
L 205.543952 226.741108 
L 205.829363 226.261998 
L 206.614242 225.783531 
L 206.756947 226.088134 
L 206.8283 225.990752 
L 207.042358 226.572438 
L 207.11371 226.483619 
L 207.327768 225.655992 
L 207.399121 225.741279 
L 207.613179 226.425152 
L 207.684531 226.755089 
L 207.755884 226.662904 
L 207.898589 227.064413 
L 207.969942 226.837521 
L 208.041295 226.904153 
L 208.683468 227.441108 
L 208.826174 227.222713 
L 209.182937 227.981755 
L 209.25429 227.950457 
L 209.396995 227.318263 
L 209.468348 227.300439 
L 209.611053 226.814972 
L 209.825111 227.509067 
L 209.896463 227.545034 
L 210.181874 226.982463 
L 210.467285 226.847517 
L 210.895401 226.463538 
L 211.180811 226.299048 
L 211.394869 226.914766 
L 211.466222 226.723859 
L 211.68028 225.614249 
L 211.751632 225.634891 
L 211.894338 226.188192 
L 211.96569 226.226369 
L 212.108396 226.787099 
L 212.322453 226.647425 
L 213.03598 227.38456 
L 213.178685 227.318944 
L 213.535448 228.362644 
L 213.606801 228.376505 
L 213.678154 227.706707 
L 213.749506 227.758434 
L 213.820859 227.767307 
L 213.892212 227.221805 
L 213.963564 227.243259 
L 214.177622 228.030457 
L 214.248975 228.185058 
L 214.534386 227.79647 
L 214.748443 227.735701 
L 215.033854 227.437133 
L 215.176559 227.234856 
L 215.247912 227.274229 
L 215.319265 227.023446 
L 215.390617 227.149341 
L 215.46197 227.225554 
L 215.533323 227.007667 
L 215.604675 227.087413 
L 215.747381 227.090106 
L 215.818733 226.886909 
L 216.032791 225.723072 
L 216.104144 225.777923 
L 216.175496 226.355617 
L 216.246849 226.138438 
L 216.318202 225.751175 
L 216.460907 226.453286 
L 216.674965 226.015241 
L 216.889023 225.990145 
L 217.174434 226.051079 
L 217.531197 225.982229 
L 217.602549 226.349992 
L 217.673902 226.211234 
L 217.745255 226.230017 
L 217.88796 226.844545 
L 217.959313 226.827983 
L 218.030665 226.170948 
L 218.102018 226.218215 
L 218.173371 226.221919 
L 218.244723 225.703333 
L 218.316076 225.723519 
L 218.530134 226.581011 
L 218.601486 226.716888 
L 218.815544 226.389864 
L 219.172308 226.33942 
L 219.457718 226.173594 
L 219.600424 226.018009 
L 219.885834 225.675258 
L 219.957187 225.887898 
L 220.028539 225.766415 
L 220.099892 225.879245 
L 220.171245 225.710914 
L 220.385303 224.38579 
L 220.456655 224.314041 
L 220.528008 224.390474 
L 220.742066 224.947251 
L 220.884771 224.735923 
L 221.312887 224.133199 
L 221.883708 223.787655 
L 222.240471 224.728514 
L 222.311824 224.67818 
L 222.383177 224.068149 
L 222.454529 224.11824 
L 222.525882 224.165401 
L 222.597235 223.659457 
L 222.668587 223.744676 
L 222.882645 224.723264 
L 222.953998 224.975604 
L 223.025351 224.892773 
L 223.096703 224.943664 
L 223.168056 224.81814 
L 223.239409 224.860078 
L 223.524819 225.014614 
L 223.881582 225.109466 
L 224.024288 225.139539 
L 224.238346 224.99295 
L 224.452404 225.490315 
L 224.523756 225.311924 
L 224.737814 224.013747 
L 224.880519 223.912934 
L 225.094577 224.696132 
L 225.16593 224.611407 
L 225.379988 224.00812 
L 226.307572 223.105088 
L 226.378925 223.054924 
L 226.592983 223.645424 
L 226.664336 223.614973 
L 226.807041 222.822075 
L 226.878394 222.861826 
L 226.949746 222.257695 
L 227.021099 222.287796 
L 227.235157 223.240802 
L 227.306509 223.447785 
L 227.377862 223.337941 
L 227.449215 223.385299 
L 227.59192 223.282116 
L 228.162741 223.557922 
L 228.590857 223.704829 
L 228.804915 224.325139 
L 228.876268 224.246497 
L 229.090326 222.99773 
L 229.233031 222.999714 
L 229.447089 223.876389 
L 229.661147 223.560634 
L 229.875205 223.260189 
L 231.230905 221.905803 
L 231.37361 221.650549 
L 231.659021 222.152664 
L 231.873079 221.909034 
L 232.657958 222.537758 
L 233.228779 223.173294 
L 233.300132 223.108505 
L 233.371484 223.19663 
L 233.442837 223.108569 
L 233.728248 223.568747 
L 233.870953 223.944033 
L 234.085011 223.760688 
L 234.513127 223.837524 
L 235.083948 223.630068 
L 235.369359 223.421106 
L 235.440711 223.440038 
L 235.583417 223.334007 
L 236.082885 223.049066 
L 236.582354 222.992881 
L 237.224527 223.255398 
L 237.509938 223.469386 
L 238.223464 224.111701 
L 238.508875 224.26382 
L 238.722933 224.327215 
L 239.008344 224.379168 
L 239.436459 224.283907 
L 241.220276 222.698253 
L 241.648392 222.505135 
L 241.791097 222.553306 
L 242.005155 222.547468 
L 242.433271 222.698518 
L 242.718681 222.947954 
L 242.861387 223.037332 
L 243.860324 223.580751 
L 244.359792 223.513663 
L 244.57385 223.330063 
L 244.716555 223.306478 
L 246.214961 222.143025 
L 246.71443 222.10179 
L 247.499309 222.450419 
L 247.784719 222.749816 
L 248.35554 223.238761 
L 248.926362 223.469678 
L 249.283125 223.477563 
L 250.139357 223.037111 
L 250.49612 222.75387 
L 251.066941 222.396474 
L 251.56641 222.338875 
L 252.422641 222.78925 
L 252.636699 223.29265 
L 254.135105 224.685094 
L 254.777279 224.893563 
L 255.918921 225.091174 
L 256.347037 225.386884 
L 256.917858 226.147093 
L 257.631385 227.529695 
L 258.487616 229.021982 
L 258.84438 229.485853 
L 258.915732 229.413782 
L 259.343848 229.738798 
L 259.557906 229.664021 
L 259.843317 229.573784 
L 260.20008 229.361042 
L 260.556843 229.014761 
L 261.056312 228.611432 
L 261.413075 228.410584 
L 261.55578 228.40284 
L 261.698485 228.292311 
L 262.768775 228.528653 
L 263.196891 228.714656 
L 263.268244 228.593299 
L 263.339596 228.649164 
L 263.69636 228.722643 
L 263.839065 228.594316 
L 263.98177 228.571071 
L 265.123413 227.241818 
L 265.694234 226.253525 
L 266.764523 225.057428 
L 267.192639 224.901635 
L 267.406697 225.051747 
L 268.405634 225.286279 
L 268.54834 225.387049 
L 268.762398 225.393314 
L 269.404571 225.257347 
L 269.761335 225.021217 
L 269.90404 224.909415 
L 271.117035 224.111957 
L 271.830561 224.089695 
L 272.258677 224.413385 
L 272.900851 224.924345 
L 273.114909 225.044068 
L 273.40032 225.350065 
L 273.899788 225.44442 
L 274.399257 225.310709 
L 275.469546 224.316874 
L 276.183073 223.616205 
L 276.325778 223.738171 
L 276.468483 223.682406 
L 276.611189 223.403468 
L 277.110657 223.447603 
L 277.18201 223.478987 
L 277.396068 223.728592 
L 278.109594 224.087786 
L 278.323652 224.214261 
L 278.466358 224.153955 
L 278.680416 224.341645 
L 279.393942 224.232654 
L 279.608 223.934909 
L 280.250174 223.422785 
L 281.177758 222.621484 
L 281.605874 222.532129 
L 281.891285 222.549578 
L 282.105343 222.558916 
L 282.390753 222.804399 
L 282.961574 223.168161 
L 283.10428 223.344748 
L 283.175632 223.294567 
L 283.38969 223.404977 
L 283.746453 223.507743 
L 284.317275 223.373025 
L 286.386501 221.439804 
L 287.100028 221.315976 
L 287.314086 221.473031 
L 287.528144 221.628393 
L 287.95626 221.855268 
L 288.313023 222.118436 
L 288.455728 222.093172 
L 288.812491 222.278218 
L 289.383313 222.2015 
L 289.668723 221.952291 
L 289.811429 221.983396 
L 290.096839 221.721651 
L 290.596308 221.347573 
L 290.810366 221.149807 
L 291.024424 220.96456 
L 291.238481 220.952367 
L 291.523892 220.894754 
L 292.094713 220.99013 
L 292.308771 221.275978 
L 292.522829 221.369954 
L 292.950945 221.728763 
L 293.307708 221.975458 
L 293.735824 222.134443 
L 294.734761 221.725038 
L 295.162877 221.335132 
L 296.304519 220.212621 
L 297.232104 220.182302 
L 297.517514 220.315471 
L 297.731572 220.598873 
L 298.159688 221.015938 
L 298.231041 220.83124 
L 298.373746 220.743554 
L 299.087273 220.990963 
L 299.372683 220.923133 
L 300.300268 220.095726 
L 301.013794 219.473425 
L 301.156499 219.410386 
L 301.227852 219.277403 
L 301.370557 219.363267 
L 301.941379 219.209334 
L 302.084084 219.201128 
L 302.369494 219.431938 
L 302.726258 219.584143 
L 303.083021 219.834503 
L 303.225726 219.815782 
L 303.582489 219.855179 
L 304.153311 219.667804 
L 304.795484 219.004156 
L 306.079832 217.348643 
L 306.222537 217.248897 
L 306.436595 217.070913 
L 307.007417 216.92298 
L 307.150122 216.938422 
L 307.36418 217.1354 
L 308.291764 217.587803 
L 308.434469 217.584079 
L 308.791233 217.706512 
L 309.290701 217.62207 
L 310.289638 216.85147 
L 310.432344 216.671961 
L 311.359928 216.106385 
L 312.073454 216.144008 
L 312.287512 216.440708 
L 312.358865 216.398525 
L 312.430218 216.507897 
L 312.50157 216.456381 
L 312.858334 216.818612 
L 313.357802 217.169396 
L 313.57186 217.201367 
L 313.928623 217.319242 
L 314.071329 217.254079 
L 314.214034 217.204292 
L 314.356739 217.138284 
L 316.497319 214.814805 
L 316.782729 214.752422 
L 316.996787 214.604855 
L 317.139492 214.490972 
L 317.35355 214.635232 
L 317.496256 214.693953 
L 317.710314 214.700416 
L 318.13843 214.879402 
L 318.42384 214.869466 
L 318.994661 214.853076 
L 319.137367 214.700026 
L 319.280072 214.710166 
L 319.351425 214.733848 
L 319.708188 214.339255 
L 319.922246 214.213608 
L 320.207656 213.807163 
L 321.063888 213.009551 
L 321.420651 213.026949 
L 321.706062 212.97734 
L 322.348236 213.199111 
L 323.561231 213.947406 
L 323.703936 213.946338 
L 324.417462 213.594676 
L 325.202342 212.442865 
L 325.630457 211.717733 
L 325.70181 211.70707 
L 326.343984 210.494108 
L 326.558042 210.150648 
L 326.7721 209.829576 
L 327.771037 208.931563 
L 328.199153 208.618281 
L 328.698621 208.000282 
L 329.055385 207.531887 
L 329.982969 205.773223 
L 330.482438 204.817897 
L 330.625143 204.618889 
L 331.124611 203.836376 
L 331.695433 203.402301 
L 332.123548 203.352416 
L 332.480312 203.406531 
L 333.479249 203.659136 
L 334.264128 203.368838 
L 335.833886 201.252495 
L 336.047944 200.902196 
L 336.190649 200.775768 
L 336.690118 200.38102 
L 337.046881 200.2688 
L 337.118234 200.179405 
L 337.260939 200.2563 
L 338.473934 200.201566 
L 338.687992 200.038365 
L 338.830697 199.990052 
L 339.544224 199.173928 
L 339.900987 198.716455 
L 341.113982 196.870786 
L 341.756156 196.486039 
L 342.184272 196.520095 
L 342.39833 196.523344 
L 342.68374 196.619156 
L 342.969151 196.719629 
L 343.183209 196.837293 
L 343.397267 196.813939 
L 344.253498 196.425828 
L 344.681614 195.965022 
L 345.038378 195.380764 
L 345.751904 194.266652 
L 346.394078 193.422816 
L 347.036252 192.986495 
L 348.249247 192.890197 
L 348.463305 192.695007 
L 349.034126 192.198637 
L 349.462242 191.439799 
L 351.888232 186.326559 
L 352.3877 185.797495 
L 352.530406 185.810681 
L 352.958521 185.486863 
L 353.243932 185.216008 
L 353.45799 185.2683 
L 353.672048 184.897721 
L 354.028811 184.353425 
L 354.670985 183.210179 
L 354.956396 182.648025 
L 355.027748 182.690469 
L 355.241806 182.155855 
L 355.598569 181.274204 
L 355.812627 180.908718 
L 356.026685 180.388534 
L 356.240743 180.057906 
L 356.526154 179.645328 
L 356.668859 179.618232 
L 356.882917 179.401572 
L 357.096975 179.106538 
L 357.23968 179.141852 
L 357.453738 179.005351 
L 358.024559 178.699687 
L 358.238617 178.854389 
L 358.452675 178.586754 
L 358.666733 178.382533 
L 359.237554 177.692156 
L 359.451612 177.2892 
L 359.808376 176.644876 
L 360.022434 176.279913 
L 361.306781 173.882942 
L 361.948955 173.032048 
L 362.234366 173.04635 
L 362.519776 172.818807 
L 362.805187 172.747333 
L 363.019245 172.586804 
L 363.16195 172.55686 
L 364.089534 171.484704 
L 364.731708 170.187429 
L 366.729582 165.776589 
L 367.300404 165.173636 
L 368.227988 164.198154 
L 368.370693 163.892639 
L 368.442046 164.266582 
L 368.513399 164.189495 
L 368.727456 163.715609 
L 369.226925 162.894905 
L 369.583688 162.06067 
L 369.726394 161.830446 
L 371.224799 158.478255 
L 371.367504 158.291343 
L 371.581562 157.74908 
L 371.652915 158.090045 
L 371.724268 158.003006 
L 371.938326 157.560635 
L 372.437794 157.359007 
L 372.580499 157.305189 
L 373.151321 157.385557 
L 373.294026 157.317242 
L 373.436731 157.318037 
L 373.722142 157.211894 
L 374.22161 156.879649 
L 374.435668 156.574859 
L 374.578374 156.456818 
L 374.792432 155.858933 
L 374.863784 156.152998 
L 374.935137 156.048729 
L 375.149195 155.497265 
L 375.862721 154.252626 
L 376.36219 153.600547 
L 377.075716 152.913529 
L 377.789243 152.508863 
L 378.003301 152.04703 
L 378.146006 152.4783 
L 378.431417 151.761504 
L 378.645474 151.588716 
L 379.144943 150.636386 
L 379.858469 148.81189 
L 381.428228 144.311368 
L 381.570933 144.1007 
L 382.355812 142.667882 
L 383.92557 140.555209 
L 384.425039 139.464816 
L 386.922382 133.707869 
L 387.279145 133.170067 
L 387.849966 132.130834 
L 388.563492 130.566152 
L 389.776487 125.713121 
L 394.128999 103.822389 
L 395.199289 96.407557 
L 396.198226 89.053393 
L 397.482573 80.933419 
L 398.124747 77.234774 
L 398.980979 71.637779 
L 400.265327 61.311429 
L 402.334553 44.657748 
L 403.547548 35.702695 
L 404.760543 25.059737 
L 405.973538 13.629406 
L 407.757355 -0.711048 
L 407.80206 -1 
M 420.228106 -1 
L 420.230725 350.665437 
M 420.26758 350.665437 
L 420.272196 -1 
M 420.568781 -1 
L 420.569092 350.665437 
M 420.737245 350.665437 
L 420.737599 -1 
M 420.749544 -1 
L 420.749903 350.665437 
M 420.83322 350.665437 
L 420.833321 -1 
M 421.230869 -1 
L 421.230975 350.665437 
M 421.270458 350.665437 
L 421.270701 -1 
L 421.270701 -1 
" clip-path="url(#p4657dec8a1)" style="fill: none; stroke: #1f77b4; stroke-width: 1.5; stroke-linecap: square"/>
   </g>
   <g id="line2d_30">
    <path d="M 96.731165 264.102083 
L 97.301986 262.694793 
L 97.373339 262.888322 
L 97.587397 261.875098 
L 98.086865 260.155957 
L 98.158218 260.538982 
L 98.372276 259.216659 
L 99.228507 256.244548 
L 101.654497 248.583916 
L 102.938845 243.887662 
L 103.795077 241.803849 
L 104.294545 241.110989 
L 104.865367 240.566502 
L 105.293482 240.287505 
L 105.364835 239.853947 
L 105.436188 239.958564 
L 105.721598 239.538536 
L 106.363772 238.239453 
L 107.505415 234.588968 
L 108.361646 231.806965 
L 108.432999 231.828241 
L 108.504352 231.66731 
L 108.575704 231.0589 
L 108.647057 231.147019 
L 109.217878 230.298834 
L 109.717347 230.237685 
L 110.002757 230.431406 
L 110.644931 231.458444 
L 111.287105 232.799894 
L 112.286042 234.360383 
L 112.78551 234.615772 
L 113.284979 234.63771 
L 114.426621 234.457987 
L 114.92609 234.79618 
L 115.2115 235.207738 
L 115.425558 235.621401 
L 116.353143 237.705392 
L 116.923964 239.191104 
L 117.780196 240.968333 
L 118.42237 242.145002 
L 119.421307 244.043469 
L 120.491596 246.30734 
L 120.562949 246.692005 
L 120.634302 246.557369 
L 120.991065 247.204055 
L 121.561886 247.862716 
L 122.061355 247.990753 
L 122.20406 247.938143 
L 122.346765 247.973295 
L 123.060292 247.402322 
L 123.987876 246.720717 
L 125.058166 246.896857 
L 125.343576 247.040379 
L 126.485219 247.541019 
L 126.913335 247.386376 
L 128.054977 246.11777 
L 128.483093 245.583524 
L 129.125267 244.982827 
L 130.266909 245.016366 
L 131.123141 245.328444 
L 131.551257 245.249695 
L 132.193431 244.785361 
L 132.764252 244.069836 
L 133.335073 243.207757 
L 133.763189 242.754349 
L 134.619421 242.316012 
L 134.904831 242.314341 
L 135.047536 242.415494 
L 135.190242 242.410601 
L 135.475652 242.556865 
L 136.617295 242.72244 
L 137.045411 242.543147 
L 138.900579 240.436164 
L 139.685458 240.322469 
L 141.183864 241.051637 
L 141.326569 241.104094 
L 141.61198 241.081421 
L 142.539564 240.464129 
L 142.610917 240.291723 
L 142.68227 240.347829 
L 143.752559 239.246999 
L 144.466086 239.059414 
L 145.39367 239.576804 
L 146.749371 240.207867 
L 147.391544 239.821479 
L 147.81966 239.452607 
L 148.533187 238.754115 
L 148.88995 238.579534 
L 149.96024 238.665906 
L 150.673766 239.268638 
L 151.173235 239.612153 
L 151.31594 239.646221 
L 151.815409 239.643067 
L 152.457582 239.289762 
L 153.955988 238.024398 
L 154.883572 238.164679 
L 155.09763 238.395208 
L 156.025215 239.068283 
L 156.667389 239.238954 
L 157.380915 238.854859 
L 157.594973 238.640939 
L 158.736615 237.4652 
L 159.378789 237.21027 
L 159.878258 237.275933 
L 160.449079 237.494684 
L 160.805842 237.624484 
L 161.091253 237.687949 
L 161.519369 237.607638 
L 161.947484 237.157019 
L 162.018837 237.244389 
L 162.3756 236.704381 
L 164.230769 234.138898 
L 164.658885 233.946946 
L 165.301059 233.898101 
L 165.515117 234.013158 
L 165.657822 233.957054 
L 166.014585 233.97694 
L 166.799464 233.547133 
L 166.870817 233.457134 
L 166.94217 233.534611 
L 167.156228 233.236607 
L 167.798402 232.197465 
L 168.440575 231.230809 
L 168.511928 231.355097 
L 168.583281 231.276667 
L 168.940044 230.936119 
L 169.011397 230.944341 
L 169.154102 230.662748 
L 169.439512 230.608867 
L 169.724923 230.626647 
L 170.224392 230.824565 
L 171.366034 231.391497 
L 172.293618 230.980729 
L 172.864439 230.418053 
L 173.934729 229.500744 
L 174.434198 229.494528 
L 175.361782 230.040823 
L 176.360719 230.770808 
L 176.503425 230.686556 
L 176.717482 230.700452 
L 177.573714 230.230142 
L 177.930477 229.846863 
L 178.929415 229.099704 
L 179.571588 229.163667 
L 181.355405 230.425767 
L 182.140284 230.272101 
L 182.711105 229.820551 
L 183.353279 229.226852 
L 184.20951 228.828411 
L 184.637626 228.946891 
L 185.351153 229.413971 
L 185.493858 229.523182 
L 186.278737 230.053296 
L 186.849558 230.121308 
L 187.063616 229.88235 
L 187.349027 229.706388 
L 187.848495 229.233341 
L 188.704727 228.396697 
L 189.418254 228.230209 
L 189.560959 228.512249 
L 189.84637 228.484631 
L 190.702601 229.059412 
L 190.916659 229.30699 
L 191.059365 229.323395 
L 191.273423 229.285436 
L 191.48748 229.415646 
L 192.27236 229.033823 
L 193.984823 227.648526 
L 194.270234 227.510682 
L 194.412939 227.627002 
L 194.626997 227.646741 
L 195.340523 228.066889 
L 195.483229 228.222568 
L 195.625934 228.238152 
L 196.268108 228.643362 
L 196.553518 228.634569 
L 197.40975 228.287319 
L 198.265982 227.31809 
L 198.408687 226.855476 
L 198.48004 227.413404 
L 198.551393 227.34229 
L 198.694098 226.99626 
L 198.76545 226.996928 
L 198.908156 226.815175 
L 199.050861 226.83783 
L 199.336272 226.777384 
L 199.907093 226.972101 
L 200.049798 227.050237 
L 200.121151 227.269209 
L 200.192503 227.219452 
L 200.406561 227.395372 
L 200.477914 227.060045 
L 200.549267 227.099408 
L 200.691972 227.740586 
L 200.763325 227.774134 
L 200.834677 227.620944 
L 200.90603 227.668202 
L 201.120088 227.804165 
L 201.762262 227.826944 
L 202.119025 227.631715 
L 202.26173 227.683784 
L 202.333083 227.384262 
L 202.404436 227.444308 
L 202.618493 227.292974 
L 202.761199 226.71488 
L 202.832551 227.182248 
L 202.903904 227.170868 
L 203.046609 226.865615 
L 203.117962 226.951248 
L 203.260667 226.781662 
L 203.33202 226.322531 
L 203.403373 226.334734 
L 203.474725 226.562897 
L 203.546078 226.495791 
L 203.760136 226.238228 
L 204.40231 226.105119 
L 204.473662 226.390463 
L 204.545015 226.275039 
L 204.616368 226.261372 
L 204.759073 226.424462 
L 204.830426 226.100044 
L 204.901778 226.196704 
L 205.044483 226.858057 
L 205.115836 226.916319 
L 205.187189 226.753357 
L 205.258541 226.789807 
L 205.401247 227.018664 
L 205.472599 226.795844 
L 205.543952 226.905904 
L 205.75801 227.252571 
L 206.257478 227.532659 
L 206.614242 227.718942 
L 206.685594 227.485335 
L 206.756947 227.582943 
L 206.971005 227.6017 
L 207.042358 227.184718 
L 207.11371 227.198517 
L 207.185063 227.6786 
L 207.256416 227.628502 
L 207.399121 227.357887 
L 207.470473 227.427793 
L 207.613179 227.2377 
L 207.684531 226.822994 
L 207.755884 226.962202 
L 207.969942 226.822446 
L 208.469411 226.403765 
L 208.612116 226.418057 
L 208.754821 226.356661 
L 208.826174 226.480738 
L 208.897526 226.276116 
L 208.968879 226.318183 
L 209.111584 226.392992 
L 209.25429 226.032251 
L 209.396995 226.613451 
L 209.468348 226.674921 
L 209.5397 226.464461 
L 209.611053 226.507209 
L 209.682406 226.599955 
L 209.825111 226.262529 
L 209.896463 226.317866 
L 210.110521 226.732133 
L 210.895401 227.401847 
L 211.038106 227.613647 
L 211.109458 227.521267 
L 211.323516 227.830473 
L 211.394869 227.448287 
L 211.466222 227.513406 
L 211.608927 228.071114 
L 211.751632 227.911202 
L 211.822985 227.987315 
L 211.894338 227.901472 
L 211.96569 227.867451 
L 212.108396 227.500319 
L 212.179748 227.645783 
L 212.251101 227.590416 
L 213.107333 226.686 
L 213.178685 226.792708 
L 213.321391 226.506807 
L 213.464096 226.482298 
L 213.606801 225.915902 
L 213.678154 226.549922 
L 213.749506 226.486645 
L 213.820859 226.48222 
L 213.963564 226.269826 
L 214.10627 226.251118 
L 214.248975 225.975131 
L 214.39168 226.186511 
L 214.677091 226.24758 
L 215.033854 226.435497 
L 215.319265 226.803366 
L 215.390617 226.619918 
L 215.46197 226.739351 
L 215.676028 226.932339 
L 215.747381 226.693995 
L 215.818733 226.783694 
L 215.890086 227.4032 
L 215.961438 227.305627 
L 216.104144 227.212228 
L 216.175496 227.31686 
L 216.246849 227.16369 
L 216.318202 227.525899 
L 216.460907 227.006243 
L 216.603612 227.224904 
L 217.531197 226.705342 
L 217.673902 226.270396 
L 217.745255 226.487051 
L 217.959313 225.671878 
L 218.030665 226.23673 
L 218.102018 226.127545 
L 218.173371 226.088914 
L 218.387429 225.723784 
L 218.458781 225.651239 
L 218.601486 225.250269 
L 218.672839 225.426037 
L 218.744192 225.37163 
L 219.029602 225.154043 
L 219.529071 225.111187 
L 219.743129 225.258524 
L 219.957187 225.356782 
L 220.028539 225.416863 
L 220.099892 225.111863 
L 220.171245 225.138353 
L 220.31395 225.780017 
L 220.456655 225.762428 
L 220.528008 225.928423 
L 220.599361 225.892744 
L 220.670713 225.94106 
L 220.742066 225.628526 
L 220.813419 225.672744 
L 220.956124 225.945295 
L 221.098829 225.971978 
L 221.312887 226.063661 
L 221.741003 225.97764 
L 221.812356 225.947407 
L 221.883708 226.070614 
L 221.955061 225.777188 
L 222.026414 225.794658 
L 222.169119 225.720063 
L 222.240471 225.205226 
L 222.311824 225.220799 
L 222.383177 225.750169 
L 222.454529 225.673855 
L 222.668587 225.308531 
L 222.811293 225.127811 
L 222.953998 224.657028 
L 223.025351 224.774652 
L 223.096703 224.694418 
L 223.453466 224.338395 
L 224.024288 223.966898 
L 224.381051 224.030846 
L 224.452404 223.583652 
L 224.523756 223.64235 
L 224.666461 224.262492 
L 224.809167 224.209758 
L 225.023225 224.325652 
L 225.094577 224.033089 
L 225.16593 224.084632 
L 225.308635 224.470548 
L 225.594046 224.612112 
L 226.307572 224.90526 
L 226.52163 225.00458 
L 226.664336 224.441239 
L 226.735688 225.161517 
L 226.807041 225.108643 
L 226.878394 225.072259 
L 227.092451 224.792837 
L 227.163804 224.735285 
L 227.306509 224.265323 
L 227.377862 224.42303 
L 227.449215 224.347822 
L 227.805978 223.947663 
L 228.733562 223.152971 
L 228.804915 222.668443 
L 228.876268 222.68279 
L 228.94762 223.23696 
L 229.018973 223.206403 
L 229.161678 223.083306 
L 229.375736 223.070867 
L 229.447089 222.788773 
L 229.518441 222.818771 
L 229.661147 223.100741 
L 229.875205 223.183734 
L 230.517379 223.690145 
L 231.302258 224.236293 
L 231.516316 224.358108 
L 231.659021 224.033438 
L 231.730374 224.25952 
L 231.801726 224.23362 
L 232.229842 223.996102 
L 232.872016 223.444309 
L 233.371484 223.079386 
L 233.728248 222.973769 
L 233.870953 222.619358 
L 234.013658 222.821224 
L 234.227716 222.799869 
L 234.655832 222.988464 
L 235.440711 223.625636 
L 235.583417 223.811713 
L 236.368296 224.345035 
L 236.796412 224.362336 
L 237.438585 224.024291 
L 238.65158 223.057995 
L 238.794286 222.969413 
L 239.151049 222.907043 
L 240.078633 223.385051 
L 241.148923 224.096606 
L 241.648392 224.191701 
L 242.290565 223.798731 
L 242.575976 223.558005 
L 243.717618 222.592933 
L 244.288439 222.447958 
L 244.431145 222.573766 
L 245.144671 222.963727 
L 246.214961 223.733596 
L 246.643077 223.810035 
L 247.142545 223.591801 
L 247.356603 223.499577 
L 247.856072 223.008843 
L 248.212835 222.678061 
L 249.14042 222.363372 
L 249.568535 222.531506 
L 249.996651 222.848162 
L 251.352352 224.074118 
L 252.065878 224.285735 
L 252.422641 224.113216 
L 252.565347 223.808224 
L 253.350226 223.441737 
L 253.492931 223.636171 
L 253.635636 223.498706 
L 253.921047 223.585006 
L 254.135105 223.615007 
L 254.634573 224.049865 
L 256.347037 226.234461 
L 256.846505 226.458006 
L 257.488679 226.414545 
L 258.273558 226.010777 
L 258.84438 225.907438 
L 258.987085 226.032055 
L 259.12979 225.97349 
L 259.557906 226.301288 
L 259.914669 226.646213 
L 261.127664 227.838295 
L 261.627133 227.999497 
L 261.769838 227.913172 
L 261.912543 227.908525 
L 262.126601 227.708202 
L 262.340659 227.565447 
L 263.410949 226.513889 
L 263.625007 226.250971 
L 264.552591 226.003235 
L 265.194765 226.309028 
L 266.12235 226.742997 
L 266.693171 226.652301 
L 267.049934 226.398957 
L 268.976455 224.594219 
L 269.261866 224.559093 
L 269.761335 224.670726 
L 270.046745 224.929329 
L 270.118098 224.901263 
L 270.403508 225.164223 
L 270.831624 225.458701 
L 271.117035 225.570587 
L 271.616503 225.689156 
L 271.830561 225.623712 
L 272.401383 225.218568 
L 273.043556 224.646389 
L 273.328967 224.364114 
L 273.614378 224.190084 
L 274.185199 224.033703 
L 274.75602 224.275692 
L 275.184136 224.510427 
L 275.82631 225.049466 
L 275.897662 225.0667 
L 276.040368 225.168949 
L 276.183073 225.251681 
L 276.397131 225.037867 
L 276.468483 225.007471 
L 276.611189 225.255259 
L 276.967952 225.054891 
L 277.18201 224.976361 
L 277.324715 224.569026 
L 277.752831 224.201429 
L 277.966889 223.878814 
L 278.109594 223.785023 
L 278.680416 223.272285 
L 278.965826 223.174514 
L 279.251237 223.153379 
L 279.393942 223.089015 
L 279.679353 223.293561 
L 279.822058 223.303927 
L 280.67829 223.913947 
L 280.820995 223.958607 
L 281.035053 224.096392 
L 281.534521 224.149299 
L 281.819932 224.044757 
L 282.390753 223.591051 
L 283.603748 222.37743 
L 284.031864 222.216344 
L 284.45998 222.198588 
L 284.816743 222.337945 
L 285.887033 222.982599 
L 286.029738 223.088564 
L 286.671912 223.08921 
L 287.171381 222.82409 
L 287.385438 222.548095 
L 288.24167 221.639505 
L 288.527081 221.405644 
L 288.883844 221.225446 
L 289.240607 221.194009 
L 290.310897 221.776119 
L 290.881718 222.258197 
L 291.024424 222.274147 
L 291.523892 222.371546 
L 291.880655 222.259509 
L 292.522829 221.747745 
L 293.735824 220.687416 
L 294.092587 220.606905 
L 294.877466 220.850834 
L 295.805051 221.516597 
L 295.876404 221.519379 
L 295.947756 221.64893 
L 296.019109 221.609545 
L 296.375872 221.705041 
L 296.58993 221.608248 
L 297.160751 221.378072 
L 297.374809 221.150061 
L 297.517514 221.01817 
L 297.731572 220.620481 
L 298.159688 220.078119 
L 298.302394 220.18749 
L 298.445099 220.122113 
L 298.659157 219.923011 
L 299.087273 219.605641 
L 299.943504 219.84877 
L 301.227852 220.563843 
L 301.44191 220.454393 
L 301.798673 220.406615 
L 302.726258 219.435234 
L 303.083021 218.885334 
L 303.154374 218.909478 
L 303.582489 218.478544 
L 304.438721 218.18546 
L 304.652779 218.205709 
L 304.795484 218.318514 
L 305.865774 218.823681 
L 305.937127 218.943986 
L 306.008479 218.863147 
L 306.222537 218.859594 
L 306.365243 218.916106 
L 306.864711 218.640214 
L 307.506885 217.990058 
L 308.006354 217.356047 
L 308.71988 216.703014 
L 309.219349 216.518176 
L 310.07558 216.886268 
L 310.717754 217.314854 
L 310.789107 217.321664 
L 310.860459 217.464791 
L 310.931812 217.393022 
L 311.288575 217.53983 
L 312.073454 217.283958 
L 312.287512 217.021261 
L 312.50157 216.872931 
L 313.928623 215.422828 
L 314.071329 215.490826 
L 314.356739 215.369885 
L 314.92756 215.565655 
L 315.355676 215.72994 
L 315.498382 215.977623 
L 315.855145 215.938285 
L 315.99785 216.024033 
L 316.497319 215.997567 
L 317.139492 215.625244 
L 317.424903 215.17812 
L 317.781666 214.704408 
L 318.13843 214.276431 
L 318.352487 214.070563 
L 318.780603 213.623476 
L 319.137367 213.562981 
L 319.422777 213.404381 
L 319.49413 213.407276 
L 319.636835 213.73397 
L 319.77954 213.705373 
L 319.922246 213.679827 
L 320.279009 213.938731 
L 320.493067 213.984662 
L 320.56442 213.96909 
L 320.707125 214.192595 
L 320.778477 213.993709 
L 320.84983 214.166794 
L 320.921183 214.11206 
L 321.063888 214.199219 
L 321.349299 214.031183 
L 321.492004 214.001532 
L 321.92012 213.736217 
L 322.847704 212.530712 
L 323.703936 211.533522 
L 323.989347 211.405576 
L 324.132052 211.168593 
L 324.916931 211.015049 
L 324.988284 211.104884 
L 325.059636 210.98274 
L 325.130989 211.077821 
L 325.487752 211.161008 
L 325.844515 210.955915 
L 325.915868 211.04373 
L 326.129926 210.920524 
L 326.7721 210.439199 
L 327.128863 209.888334 
L 327.414274 209.349018 
L 328.769974 206.982698 
L 328.912679 206.889072 
L 329.126737 206.590575 
L 329.340795 206.433865 
L 329.4835 206.459234 
L 330.197027 206.266797 
L 330.55379 206.229865 
L 330.696495 206.179978 
L 330.910553 206.138486 
L 331.053259 206.195523 
L 331.267317 206.014688 
L 331.766785 205.566987 
L 332.408959 204.627788 
L 333.621954 202.759571 
L 334.264128 202.278419 
L 334.834949 202.1847 
L 335.40577 202.36181 
L 335.548475 202.279732 
L 335.762533 202.366968 
L 335.833886 202.318699 
L 335.905239 202.422723 
L 335.976591 202.347152 
L 336.333355 202.230864 
L 336.904176 201.767645 
L 337.189586 201.255527 
L 337.689055 200.519891 
L 338.259876 199.60816 
L 338.331229 199.603694 
L 338.473934 199.264841 
L 338.545287 199.331201 
L 339.330166 198.793209 
L 339.401518 198.777486 
L 339.544224 198.621857 
L 339.758282 198.637526 
L 340.471808 198.722502 
L 340.685866 198.735793 
L 340.757219 198.728626 
L 340.828571 198.838962 
L 340.899924 198.76836 
L 341.399393 198.669995 
L 341.61345 198.444684 
L 341.827508 198.2486 
L 343.611325 195.584543 
L 344.110793 195.136279 
L 344.396204 195.002588 
L 344.467556 195.071524 
L 344.752967 194.882348 
L 345.038378 194.953254 
L 345.466493 194.964171 
L 346.108667 194.903661 
L 346.822194 194.210079 
L 347.53572 192.970275 
L 348.249247 191.480712 
L 348.391952 191.332361 
L 348.677363 190.807657 
L 349.319536 190.074283 
L 349.819005 189.781106 
L 350.033063 189.756 
L 350.247121 189.626794 
L 350.960647 189.37952 
L 351.674174 188.627302 
L 351.959584 188.07875 
L 352.030937 188.018182 
L 352.244995 187.600862 
L 352.673111 186.52612 
L 353.672048 184.589478 
L 354.171516 183.86889 
L 354.742338 183.392544 
L 354.885043 183.403806 
L 355.099101 182.983622 
L 355.170453 183.050012 
L 355.384511 183.083779 
L 356.169391 182.58243 
L 356.597506 182.13682 
L 356.811564 181.669249 
L 356.95427 181.509388 
L 358.167265 178.961518 
L 358.30997 178.633035 
L 359.38026 177.206506 
L 360.236491 176.818757 
L 360.379197 176.961674 
L 360.878665 176.699864 
L 361.021371 176.340917 
L 361.449486 175.918347 
L 361.520839 175.814622 
L 361.592192 175.898475 
L 361.734897 175.734938 
L 362.448424 174.28404 
L 363.233303 172.552702 
L 363.732771 171.579153 
L 364.374945 170.766299 
L 364.660356 170.562696 
L 364.874414 170.401441 
L 366.158761 169.606689 
L 367.086346 168.021919 
L 367.443109 167.159165 
L 368.227988 165.209821 
L 368.299341 165.389344 
L 368.370693 165.24172 
L 368.513399 164.466768 
L 368.584751 164.537332 
L 369.226925 163.570786 
L 369.36963 163.47796 
L 369.655041 163.164019 
L 369.797746 163.127593 
L 370.653978 162.715917 
L 370.796683 162.743041 
L 370.939389 162.718546 
L 371.082094 162.511126 
L 371.438857 162.071168 
L 371.51021 162.204368 
L 371.581562 162.128961 
L 371.724268 161.526501 
L 371.79562 161.607897 
L 372.723205 159.888585 
L 373.151321 158.901638 
L 373.294026 158.685067 
L 373.508084 158.269233 
L 374.22161 157.286833 
L 374.364316 157.257693 
L 374.578374 157.057991 
L 374.649726 157.005423 
L 374.792432 157.172057 
L 374.935137 156.714126 
L 375.006489 156.897205 
L 375.077842 156.845057 
L 375.648663 156.632916 
L 376.076779 156.328174 
L 376.576248 155.702443 
L 377.218422 154.445372 
L 378.78818 150.792989 
L 379.501706 149.747898 
L 380.357938 148.951722 
L 380.928759 148.303271 
L 381.570933 147.24711 
L 382.284459 145.541884 
L 384.068276 140.665675 
L 384.567744 139.769465 
L 384.924507 139.261144 
L 386.137502 137.23574 
L 386.922382 135.028357 
L 389.134314 126.72267 
L 391.20354 120.142245 
L 391.774362 117.555977 
L 394.69982 101.215271 
L 396.340931 92.454892 
L 397.268515 85.989932 
L 397.982042 80.38953 
L 399.5518 68.451687 
L 399.694505 67.514336 
L 401.549674 53.593544 
L 402.834022 40.466946 
L 406.321555 -1 
L 406.321555 -1 
" clip-path="url(#p4657dec8a1)" style="fill: none; stroke: #ff7f0e; stroke-width: 1.5; stroke-linecap: square"/>
   </g>
   <g id="patch_3">
    <path d="M 80.498437 297.54825 
L 80.498437 31.43625 
" style="fill: none; stroke: #000000; stroke-width: 0.8; stroke-linejoin: miter; stroke-linecap: square"/>
   </g>
   <g id="patch_4">
    <path d="M 437.618438 297.54825 
L 437.618438 31.43625 
" style="fill: none; stroke: #000000; stroke-width: 0.8; stroke-linejoin: miter; stroke-linecap: square"/>
   </g>
   <g id="patch_5">
    <path d="M 80.498438 297.54825 
L 437.618437 297.54825 
" style="fill: none; stroke: #000000; stroke-width: 0.8; stroke-linejoin: miter; stroke-linecap: square"/>
   </g>
   <g id="patch_6">
    <path d="M 80.498438 31.43625 
L 437.618437 31.43625 
" style="fill: none; stroke: #000000; stroke-width: 0.8; stroke-linejoin: miter; stroke-linecap: square"/>
   </g>
   <g id="text_17">
    <!-- RF Field Curvature -->
    <g transform="translate(148.759687 25.43625)scale(0.24 -0.24)">
     <defs>
      <path id="DejaVuSans-52" d="M 2841 2188 
Q 3044 2119 3236 1894 
Q 3428 1669 3622 1275 
L 4263 0 
L 3584 0 
L 2988 1197 
Q 2756 1666 2539 1819 
Q 2322 1972 1947 1972 
L 1259 1972 
L 1259 0 
L 628 0 
L 628 4666 
L 2053 4666 
Q 2853 4666 3247 4331 
Q 3641 3997 3641 3322 
Q 3641 2881 3436 2590 
Q 3231 2300 2841 2188 
z
M 1259 4147 
L 1259 2491 
L 2053 2491 
Q 2509 2491 2742 2702 
Q 2975 2913 2975 3322 
Q 2975 3731 2742 3939 
Q 2509 4147 2053 4147 
L 1259 4147 
z
" transform="scale(0.015625)"/>
      <path id="DejaVuSans-46" d="M 628 4666 
L 3309 4666 
L 3309 4134 
L 1259 4134 
L 1259 2759 
L 3109 2759 
L 3109 2228 
L 1259 2228 
L 1259 0 
L 628 0 
L 628 4666 
z
" transform="scale(0.015625)"/>
      <path id="DejaVuSans-69" d="M 603 3500 
L 1178 3500 
L 1178 0 
L 603 0 
L 603 3500 
z
M 603 4863 
L 1178 4863 
L 1178 4134 
L 603 4134 
L 603 4863 
z
" transform="scale(0.015625)"/>
      <path id="DejaVuSans-65" d="M 3597 1894 
L 3597 1613 
L 953 1613 
Q 991 1019 1311 708 
Q 1631 397 2203 397 
Q 2534 397 2845 478 
Q 3156 559 3463 722 
L 3463 178 
Q 3153 47 2828 -22 
Q 2503 -91 2169 -91 
Q 1331 -91 842 396 
Q 353 884 353 1716 
Q 353 2575 817 3079 
Q 1281 3584 2069 3584 
Q 2775 3584 3186 3129 
Q 3597 2675 3597 1894 
z
M 3022 2063 
Q 3016 2534 2758 2815 
Q 2500 3097 2075 3097 
Q 1594 3097 1305 2825 
Q 1016 2553 972 2059 
L 3022 2063 
z
" transform="scale(0.015625)"/>
      <path id="DejaVuSans-6c" d="M 603 4863 
L 1178 4863 
L 1178 0 
L 603 0 
L 603 4863 
z
" transform="scale(0.015625)"/>
      <path id="DejaVuSans-64" d="M 2906 2969 
L 2906 4863 
L 3481 4863 
L 3481 0 
L 2906 0 
L 2906 525 
Q 2725 213 2448 61 
Q 2172 -91 1784 -91 
Q 1150 -91 751 415 
Q 353 922 353 1747 
Q 353 2572 751 3078 
Q 1150 3584 1784 3584 
Q 2172 3584 2448 3432 
Q 2725 3281 2906 2969 
z
M 947 1747 
Q 947 1113 1208 752 
Q 1469 391 1925 391 
Q 2381 391 2643 752 
Q 2906 1113 2906 1747 
Q 2906 2381 2643 2742 
Q 2381 3103 1925 3103 
Q 1469 3103 1208 2742 
Q 947 2381 947 1747 
z
" transform="scale(0.015625)"/>
      <path id="DejaVuSans-43" d="M 4122 4306 
L 4122 3641 
Q 3803 3938 3442 4084 
Q 3081 4231 2675 4231 
Q 1875 4231 1450 3742 
Q 1025 3253 1025 2328 
Q 1025 1406 1450 917 
Q 1875 428 2675 428 
Q 3081 428 3442 575 
Q 3803 722 4122 1019 
L 4122 359 
Q 3791 134 3420 21 
Q 3050 -91 2638 -91 
Q 1578 -91 968 557 
Q 359 1206 359 2328 
Q 359 3453 968 4101 
Q 1578 4750 2638 4750 
Q 3056 4750 3426 4639 
Q 3797 4528 4122 4306 
z
" transform="scale(0.015625)"/>
      <path id="DejaVuSans-75" d="M 544 1381 
L 544 3500 
L 1119 3500 
L 1119 1403 
Q 1119 906 1312 657 
Q 1506 409 1894 409 
Q 2359 409 2629 706 
Q 2900 1003 2900 1516 
L 2900 3500 
L 3475 3500 
L 3475 0 
L 2900 0 
L 2900 538 
Q 2691 219 2414 64 
Q 2138 -91 1772 -91 
Q 1169 -91 856 284 
Q 544 659 544 1381 
z
M 1991 3584 
L 1991 3584 
z
" transform="scale(0.015625)"/>
      <path id="DejaVuSans-72" d="M 2631 2963 
Q 2534 3019 2420 3045 
Q 2306 3072 2169 3072 
Q 1681 3072 1420 2755 
Q 1159 2438 1159 1844 
L 1159 0 
L 581 0 
L 581 3500 
L 1159 3500 
L 1159 2956 
Q 1341 3275 1631 3429 
Q 1922 3584 2338 3584 
Q 2397 3584 2469 3576 
Q 2541 3569 2628 3553 
L 2631 2963 
z
" transform="scale(0.015625)"/>
      <path id="DejaVuSans-76" d="M 191 3500 
L 800 3500 
L 1894 563 
L 2988 3500 
L 3597 3500 
L 2284 0 
L 1503 0 
L 191 3500 
z
" transform="scale(0.015625)"/>
      <path id="DejaVuSans-61" d="M 2194 1759 
Q 1497 1759 1228 1600 
Q 959 1441 959 1056 
Q 959 750 1161 570 
Q 1363 391 1709 391 
Q 2188 391 2477 730 
Q 2766 1069 2766 1631 
L 2766 1759 
L 2194 1759 
z
M 3341 1997 
L 3341 0 
L 2766 0 
L 2766 531 
Q 2569 213 2275 61 
Q 1981 -91 1556 -91 
Q 1019 -91 701 211 
Q 384 513 384 1019 
Q 384 1609 779 1909 
Q 1175 2209 1959 2209 
L 2766 2209 
L 2766 2266 
Q 2766 2663 2505 2880 
Q 2244 3097 1772 3097 
Q 1472 3097 1187 3025 
Q 903 2953 641 2809 
L 641 3341 
Q 956 3463 1253 3523 
Q 1550 3584 1831 3584 
Q 2591 3584 2966 3190 
Q 3341 2797 3341 1997 
z
" transform="scale(0.015625)"/>
      <path id="DejaVuSans-74" d="M 1172 4494 
L 1172 3500 
L 2356 3500 
L 2356 3053 
L 1172 3053 
L 1172 1153 
Q 1172 725 1289 603 
Q 1406 481 1766 481 
L 2356 481 
L 2356 0 
L 1766 0 
Q 1100 0 847 248 
Q 594 497 594 1153 
L 594 3053 
L 172 3053 
L 172 3500 
L 594 3500 
L 594 4494 
L 1172 4494 
z
" transform="scale(0.015625)"/>
     </defs>
     <use xlink:href="#DejaVuSans-52"/>
     <use xlink:href="#DejaVuSans-46" x="69.482422"/>
     <use xlink:href="#DejaVuSans-20" x="127.001953"/>
     <use xlink:href="#DejaVuSans-46" x="158.789062"/>
     <use xlink:href="#DejaVuSans-69" x="209.058594"/>
     <use xlink:href="#DejaVuSans-65" x="236.841797"/>
     <use xlink:href="#DejaVuSans-6c" x="298.365234"/>
     <use xlink:href="#DejaVuSans-64" x="326.148438"/>
     <use xlink:href="#DejaVuSans-20" x="389.625"/>
     <use xlink:href="#DejaVuSans-43" x="421.412109"/>
     <use xlink:href="#DejaVuSans-75" x="491.236328"/>
     <use xlink:href="#DejaVuSans-72" x="554.615234"/>
     <use xlink:href="#DejaVuSans-76" x="595.728516"/>
     <use xlink:href="#DejaVuSans-61" x="654.908203"/>
     <use xlink:href="#DejaVuSans-74" x="716.1875"/>
     <use xlink:href="#DejaVuSans-75" x="755.396484"/>
     <use xlink:href="#DejaVuSans-72" x="818.775391"/>
     <use xlink:href="#DejaVuSans-65" x="857.638672"/>
    </g>
   </g>
   <g id="legend_1">
    <g id="patch_7">
     <path d="M 94.498437 109.1925 
L 196.298438 109.1925 
Q 200.298438 109.1925 200.298438 105.1925 
L 200.298438 45.43625 
Q 200.298438 41.43625 196.298438 41.43625 
L 94.498437 41.43625 
Q 90.498437 41.43625 90.498437 45.43625 
L 90.498437 105.1925 
Q 90.498437 109.1925 94.498437 109.1925 
z
" style="fill: #ffffff; opacity: 0.8; stroke: #cccccc; stroke-linejoin: miter"/>
    </g>
    <g id="line2d_31">
     <path d="M 98.498437 60.63625 
L 118.498437 60.63625 
L 138.498437 60.63625 
" style="fill: none; stroke: #1f77b4; stroke-width: 1.5; stroke-linecap: square"/>
    </g>
    <g id="text_18">
     <!-- $y^2$ -->
     <g transform="translate(154.498437 67.63625)scale(0.2 -0.2)">
      <defs>
       <path id="DejaVuSans-Oblique-79" d="M 1588 -325 
Q 1188 -997 936 -1164 
Q 684 -1331 294 -1331 
L -159 -1331 
L -63 -850 
L 269 -850 
Q 509 -850 678 -719 
Q 847 -588 1056 -206 
L 1234 128 
L 459 3500 
L 1069 3500 
L 1650 819 
L 3256 3500 
L 3859 3500 
L 1588 -325 
z
" transform="scale(0.015625)"/>
      </defs>
      <use xlink:href="#DejaVuSans-Oblique-79" transform="translate(0 0.765625)"/>
      <use xlink:href="#DejaVuSans-32" transform="translate(63.645833 39.046875)scale(0.7)"/>
     </g>
    </g>
    <g id="line2d_32">
     <path d="M 98.498437 90.033125 
L 118.498437 90.033125 
L 138.498437 90.033125 
" style="fill: none; stroke: #ff7f0e; stroke-width: 1.5; stroke-linecap: square"/>
    </g>
    <g id="text_19">
     <!-- $-z^2$ -->
     <g transform="translate(154.498437 97.033125)scale(0.2 -0.2)">
      <defs>
       <path id="DejaVuSans-Oblique-7a" d="M 744 3500 
L 3475 3500 
L 3372 2975 
L 738 459 
L 2913 459 
L 2822 0 
L -19 0 
L 84 525 
L 2719 3041 
L 653 3041 
L 744 3500 
z
" transform="scale(0.015625)"/>
      </defs>
      <use xlink:href="#DejaVuSans-2212" transform="translate(0 0.765625)"/>
      <use xlink:href="#DejaVuSans-Oblique-7a" transform="translate(83.789062 0.765625)"/>
      <use xlink:href="#DejaVuSans-32" transform="translate(140.745443 39.046875)scale(0.7)"/>
     </g>
    </g>
   </g>
  </g>
 </g>
 <defs>
  <clipPath id="p4657dec8a1">
   <rect x="80.498437" y="31.43625" width="357.12" height="266.112"/>
  </clipPath>
 </defs>
</svg>
