<?xml version="1.0" encoding="utf-8" standalone="no"?>
<!DOCTYPE svg PUBLIC "-//W3C//DTD SVG 1.1//EN"
  "http://www.w3.org/Graphics/SVG/1.1/DTD/svg11.dtd">
<svg xmlns:xlink="http://www.w3.org/1999/xlink" width="447.844219pt" height="349.665437pt" viewBox="0 0 447.844219 349.665437" xmlns="http://www.w3.org/2000/svg" version="1.1">
 <defs>
  <style type="text/css">*{stroke-linejoin: round; stroke-linecap: butt}</style>
 </defs>
 <g id="figure_1">
  <g id="patch_1">
   <path d="M 0 349.665437 
L 447.844219 349.665437 
L 447.844219 0 
L 0 0 
L 0 349.665437 
z
" style="fill: none"/>
  </g>
  <g id="axes_1">
   <g id="patch_2">
    <path d="M 83.524219 297.54825 
L 440.644219 297.54825 
L 440.644219 31.43625 
L 83.524219 31.43625 
L 83.524219 297.54825 
z
" style="fill: none"/>
   </g>
   <g id="matplotlib.axis_1">
    <g id="xtick_1">
     <g id="line2d_1">
      <path d="M 115.454528 297.54825 
L 115.454528 31.43625 
" clip-path="url(#p2592da7fbd)" style="fill: none; stroke: #b0b0b0; stroke-width: 0.8; stroke-linecap: square"/>
     </g>
     <g id="line2d_2">
      <defs>
       <path id="md39032bed2" d="M 0 0 
L 0 3.5 
" style="stroke: #000000; stroke-width: 0.8"/>
      </defs>
      <g>
       <use xlink:href="#md39032bed2" x="115.454528" y="297.54825" style="stroke: #000000; stroke-width: 0.8"/>
      </g>
     </g>
     <g id="text_1">
      <!-- −3000 -->
      <g transform="translate(90.082263 315.945906)scale(0.15 -0.15)">
       <defs>
        <path id="DejaVuSans-2212" d="M 678 2272 
L 4684 2272 
L 4684 1741 
L 678 1741 
L 678 2272 
z
" transform="scale(0.015625)"/>
        <path id="DejaVuSans-33" d="M 2597 2516 
Q 3050 2419 3304 2112 
Q 3559 1806 3559 1356 
Q 3559 666 3084 287 
Q 2609 -91 1734 -91 
Q 1441 -91 1130 -33 
Q 819 25 488 141 
L 488 750 
Q 750 597 1062 519 
Q 1375 441 1716 441 
Q 2309 441 2620 675 
Q 2931 909 2931 1356 
Q 2931 1769 2642 2001 
Q 2353 2234 1838 2234 
L 1294 2234 
L 1294 2753 
L 1863 2753 
Q 2328 2753 2575 2939 
Q 2822 3125 2822 3475 
Q 2822 3834 2567 4026 
Q 2313 4219 1838 4219 
Q 1578 4219 1281 4162 
Q 984 4106 628 3988 
L 628 4550 
Q 988 4650 1302 4700 
Q 1616 4750 1894 4750 
Q 2613 4750 3031 4423 
Q 3450 4097 3450 3541 
Q 3450 3153 3228 2886 
Q 3006 2619 2597 2516 
z
" transform="scale(0.015625)"/>
        <path id="DejaVuSans-30" d="M 2034 4250 
Q 1547 4250 1301 3770 
Q 1056 3291 1056 2328 
Q 1056 1369 1301 889 
Q 1547 409 2034 409 
Q 2525 409 2770 889 
Q 3016 1369 3016 2328 
Q 3016 3291 2770 3770 
Q 2525 4250 2034 4250 
z
M 2034 4750 
Q 2819 4750 3233 4129 
Q 3647 3509 3647 2328 
Q 3647 1150 3233 529 
Q 2819 -91 2034 -91 
Q 1250 -91 836 529 
Q 422 1150 422 2328 
Q 422 3509 836 4129 
Q 1250 4750 2034 4750 
z
" transform="scale(0.015625)"/>
       </defs>
       <use xlink:href="#DejaVuSans-2212"/>
       <use xlink:href="#DejaVuSans-33" x="83.789062"/>
       <use xlink:href="#DejaVuSans-30" x="147.412109"/>
       <use xlink:href="#DejaVuSans-30" x="211.035156"/>
       <use xlink:href="#DejaVuSans-30" x="274.658203"/>
      </g>
     </g>
    </g>
    <g id="xtick_2">
     <g id="line2d_3">
      <path d="M 186.807176 297.54825 
L 186.807176 31.43625 
" clip-path="url(#p2592da7fbd)" style="fill: none; stroke: #b0b0b0; stroke-width: 0.8; stroke-linecap: square"/>
     </g>
     <g id="line2d_4">
      <g>
       <use xlink:href="#md39032bed2" x="186.807176" y="297.54825" style="stroke: #000000; stroke-width: 0.8"/>
      </g>
     </g>
     <g id="text_2">
      <!-- −2000 -->
      <g transform="translate(161.43491 315.945906)scale(0.15 -0.15)">
       <defs>
        <path id="DejaVuSans-32" d="M 1228 531 
L 3431 531 
L 3431 0 
L 469 0 
L 469 531 
Q 828 903 1448 1529 
Q 2069 2156 2228 2338 
Q 2531 2678 2651 2914 
Q 2772 3150 2772 3378 
Q 2772 3750 2511 3984 
Q 2250 4219 1831 4219 
Q 1534 4219 1204 4116 
Q 875 4013 500 3803 
L 500 4441 
Q 881 4594 1212 4672 
Q 1544 4750 1819 4750 
Q 2544 4750 2975 4387 
Q 3406 4025 3406 3419 
Q 3406 3131 3298 2873 
Q 3191 2616 2906 2266 
Q 2828 2175 2409 1742 
Q 1991 1309 1228 531 
z
" transform="scale(0.015625)"/>
       </defs>
       <use xlink:href="#DejaVuSans-2212"/>
       <use xlink:href="#DejaVuSans-32" x="83.789062"/>
       <use xlink:href="#DejaVuSans-30" x="147.412109"/>
       <use xlink:href="#DejaVuSans-30" x="211.035156"/>
       <use xlink:href="#DejaVuSans-30" x="274.658203"/>
      </g>
     </g>
    </g>
    <g id="xtick_3">
     <g id="line2d_5">
      <path d="M 258.159823 297.54825 
L 258.159823 31.43625 
" clip-path="url(#p2592da7fbd)" style="fill: none; stroke: #b0b0b0; stroke-width: 0.8; stroke-linecap: square"/>
     </g>
     <g id="line2d_6">
      <g>
       <use xlink:href="#md39032bed2" x="258.159823" y="297.54825" style="stroke: #000000; stroke-width: 0.8"/>
      </g>
     </g>
     <g id="text_3">
      <!-- −1000 -->
      <g transform="translate(232.787558 315.945906)scale(0.15 -0.15)">
       <defs>
        <path id="DejaVuSans-31" d="M 794 531 
L 1825 531 
L 1825 4091 
L 703 3866 
L 703 4441 
L 1819 4666 
L 2450 4666 
L 2450 531 
L 3481 531 
L 3481 0 
L 794 0 
L 794 531 
z
" transform="scale(0.015625)"/>
       </defs>
       <use xlink:href="#DejaVuSans-2212"/>
       <use xlink:href="#DejaVuSans-31" x="83.789062"/>
       <use xlink:href="#DejaVuSans-30" x="147.412109"/>
       <use xlink:href="#DejaVuSans-30" x="211.035156"/>
       <use xlink:href="#DejaVuSans-30" x="274.658203"/>
      </g>
     </g>
    </g>
    <g id="xtick_4">
     <g id="line2d_7">
      <path d="M 329.51247 297.54825 
L 329.51247 31.43625 
" clip-path="url(#p2592da7fbd)" style="fill: none; stroke: #b0b0b0; stroke-width: 0.8; stroke-linecap: square"/>
     </g>
     <g id="line2d_8">
      <g>
       <use xlink:href="#md39032bed2" x="329.51247" y="297.54825" style="stroke: #000000; stroke-width: 0.8"/>
      </g>
     </g>
     <g id="text_4">
      <!-- 0 -->
      <g transform="translate(324.740595 315.945906)scale(0.15 -0.15)">
       <use xlink:href="#DejaVuSans-30"/>
      </g>
     </g>
    </g>
    <g id="xtick_5">
     <g id="line2d_9">
      <path d="M 400.865118 297.54825 
L 400.865118 31.43625 
" clip-path="url(#p2592da7fbd)" style="fill: none; stroke: #b0b0b0; stroke-width: 0.8; stroke-linecap: square"/>
     </g>
     <g id="line2d_10">
      <g>
       <use xlink:href="#md39032bed2" x="400.865118" y="297.54825" style="stroke: #000000; stroke-width: 0.8"/>
      </g>
     </g>
     <g id="text_5">
      <!-- 1000 -->
      <g transform="translate(381.777618 315.945906)scale(0.15 -0.15)">
       <use xlink:href="#DejaVuSans-31"/>
       <use xlink:href="#DejaVuSans-30" x="63.623047"/>
       <use xlink:href="#DejaVuSans-30" x="127.246094"/>
       <use xlink:href="#DejaVuSans-30" x="190.869141"/>
      </g>
     </g>
    </g>
    <g id="text_6">
     <!-- X ($\mu m$) -->
     <g transform="translate(228.084219 338.265437)scale(0.2 -0.2)">
      <defs>
       <path id="DejaVuSans-58" d="M 403 4666 
L 1081 4666 
L 2241 2931 
L 3406 4666 
L 4084 4666 
L 2584 2425 
L 4184 0 
L 3506 0 
L 2194 1984 
L 872 0 
L 191 0 
L 1856 2491 
L 403 4666 
z
" transform="scale(0.015625)"/>
       <path id="DejaVuSans-20" transform="scale(0.015625)"/>
       <path id="DejaVuSans-28" d="M 1984 4856 
Q 1566 4138 1362 3434 
Q 1159 2731 1159 2009 
Q 1159 1288 1364 580 
Q 1569 -128 1984 -844 
L 1484 -844 
Q 1016 -109 783 600 
Q 550 1309 550 2009 
Q 550 2706 781 3412 
Q 1013 4119 1484 4856 
L 1984 4856 
z
" transform="scale(0.015625)"/>
       <path id="DejaVuSans-Oblique-3bc" d="M -84 -1331 
L 856 3500 
L 1434 3500 
L 1009 1322 
Q 997 1256 987 1175 
Q 978 1094 978 1013 
Q 978 722 1161 565 
Q 1344 409 1684 409 
Q 2147 409 2431 671 
Q 2716 934 2816 1459 
L 3213 3500 
L 3788 3500 
L 3266 809 
Q 3253 750 3248 706 
Q 3244 663 3244 628 
Q 3244 531 3283 486 
Q 3322 441 3406 441 
Q 3438 441 3492 456 
Q 3547 472 3647 513 
L 3559 50 
Q 3422 -19 3297 -55 
Q 3172 -91 3053 -91 
Q 2847 -91 2730 40 
Q 2613 172 2613 403 
Q 2438 153 2195 31 
Q 1953 -91 1625 -91 
Q 1334 -91 1117 43 
Q 900 178 831 397 
L 494 -1331 
L -84 -1331 
z
" transform="scale(0.015625)"/>
       <path id="DejaVuSans-Oblique-6d" d="M 5747 2113 
L 5338 0 
L 4763 0 
L 5166 2094 
Q 5191 2228 5203 2325 
Q 5216 2422 5216 2491 
Q 5216 2772 5059 2928 
Q 4903 3084 4622 3084 
Q 4203 3084 3875 2770 
Q 3547 2456 3450 1953 
L 3066 0 
L 2491 0 
L 2900 2094 
Q 2925 2209 2937 2307 
Q 2950 2406 2950 2484 
Q 2950 2769 2794 2926 
Q 2638 3084 2363 3084 
Q 1938 3084 1609 2770 
Q 1281 2456 1184 1953 
L 800 0 
L 225 0 
L 909 3500 
L 1484 3500 
L 1375 2956 
Q 1609 3263 1923 3423 
Q 2238 3584 2597 3584 
Q 2978 3584 3223 3384 
Q 3469 3184 3519 2828 
Q 3781 3197 4126 3390 
Q 4472 3584 4856 3584 
Q 5306 3584 5551 3325 
Q 5797 3066 5797 2591 
Q 5797 2488 5784 2364 
Q 5772 2241 5747 2113 
z
" transform="scale(0.015625)"/>
       <path id="DejaVuSans-29" d="M 513 4856 
L 1013 4856 
Q 1481 4119 1714 3412 
Q 1947 2706 1947 2009 
Q 1947 1309 1714 600 
Q 1481 -109 1013 -844 
L 513 -844 
Q 928 -128 1133 580 
Q 1338 1288 1338 2009 
Q 1338 2731 1133 3434 
Q 928 4138 513 4856 
z
" transform="scale(0.015625)"/>
      </defs>
      <use xlink:href="#DejaVuSans-58" transform="translate(0 0.125)"/>
      <use xlink:href="#DejaVuSans-20" transform="translate(68.505859 0.125)"/>
      <use xlink:href="#DejaVuSans-28" transform="translate(100.292969 0.125)"/>
      <use xlink:href="#DejaVuSans-Oblique-3bc" transform="translate(139.306641 0.125)"/>
      <use xlink:href="#DejaVuSans-Oblique-6d" transform="translate(202.929688 0.125)"/>
      <use xlink:href="#DejaVuSans-29" transform="translate(300.341797 0.125)"/>
     </g>
    </g>
   </g>
   <g id="matplotlib.axis_2">
    <g id="ytick_1">
     <g id="line2d_11">
      <path d="M 83.524219 297.54825 
L 440.644219 297.54825 
" clip-path="url(#p2592da7fbd)" style="fill: none; stroke: #b0b0b0; stroke-width: 0.8; stroke-linecap: square"/>
     </g>
     <g id="line2d_12">
      <defs>
       <path id="m6f3f5b6aff" d="M 0 0 
L -3.5 0 
" style="stroke: #000000; stroke-width: 0.8"/>
      </defs>
      <g>
       <use xlink:href="#m6f3f5b6aff" x="83.524219" y="297.54825" style="stroke: #000000; stroke-width: 0.8"/>
      </g>
     </g>
     <g id="text_7">
      <!-- −0.20 -->
      <g transform="translate(30.55625 303.247078)scale(0.15 -0.15)">
       <defs>
        <path id="DejaVuSans-2e" d="M 684 794 
L 1344 794 
L 1344 0 
L 684 0 
L 684 794 
z
" transform="scale(0.015625)"/>
       </defs>
       <use xlink:href="#DejaVuSans-2212"/>
       <use xlink:href="#DejaVuSans-30" x="83.789062"/>
       <use xlink:href="#DejaVuSans-2e" x="147.412109"/>
       <use xlink:href="#DejaVuSans-32" x="179.199219"/>
       <use xlink:href="#DejaVuSans-30" x="242.822266"/>
      </g>
     </g>
    </g>
    <g id="ytick_2">
     <g id="line2d_13">
      <path d="M 83.524219 264.28425 
L 440.644219 264.28425 
" clip-path="url(#p2592da7fbd)" style="fill: none; stroke: #b0b0b0; stroke-width: 0.8; stroke-linecap: square"/>
     </g>
     <g id="line2d_14">
      <g>
       <use xlink:href="#m6f3f5b6aff" x="83.524219" y="264.28425" style="stroke: #000000; stroke-width: 0.8"/>
      </g>
     </g>
     <g id="text_8">
      <!-- −0.15 -->
      <g transform="translate(30.55625 269.983078)scale(0.15 -0.15)">
       <defs>
        <path id="DejaVuSans-35" d="M 691 4666 
L 3169 4666 
L 3169 4134 
L 1269 4134 
L 1269 2991 
Q 1406 3038 1543 3061 
Q 1681 3084 1819 3084 
Q 2600 3084 3056 2656 
Q 3513 2228 3513 1497 
Q 3513 744 3044 326 
Q 2575 -91 1722 -91 
Q 1428 -91 1123 -41 
Q 819 9 494 109 
L 494 744 
Q 775 591 1075 516 
Q 1375 441 1709 441 
Q 2250 441 2565 725 
Q 2881 1009 2881 1497 
Q 2881 1984 2565 2268 
Q 2250 2553 1709 2553 
Q 1456 2553 1204 2497 
Q 953 2441 691 2322 
L 691 4666 
z
" transform="scale(0.015625)"/>
       </defs>
       <use xlink:href="#DejaVuSans-2212"/>
       <use xlink:href="#DejaVuSans-30" x="83.789062"/>
       <use xlink:href="#DejaVuSans-2e" x="147.412109"/>
       <use xlink:href="#DejaVuSans-31" x="179.199219"/>
       <use xlink:href="#DejaVuSans-35" x="242.822266"/>
      </g>
     </g>
    </g>
    <g id="ytick_3">
     <g id="line2d_15">
      <path d="M 83.524219 231.02025 
L 440.644219 231.02025 
" clip-path="url(#p2592da7fbd)" style="fill: none; stroke: #b0b0b0; stroke-width: 0.8; stroke-linecap: square"/>
     </g>
     <g id="line2d_16">
      <g>
       <use xlink:href="#m6f3f5b6aff" x="83.524219" y="231.02025" style="stroke: #000000; stroke-width: 0.8"/>
      </g>
     </g>
     <g id="text_9">
      <!-- −0.10 -->
      <g transform="translate(30.55625 236.719078)scale(0.15 -0.15)">
       <use xlink:href="#DejaVuSans-2212"/>
       <use xlink:href="#DejaVuSans-30" x="83.789062"/>
       <use xlink:href="#DejaVuSans-2e" x="147.412109"/>
       <use xlink:href="#DejaVuSans-31" x="179.199219"/>
       <use xlink:href="#DejaVuSans-30" x="242.822266"/>
      </g>
     </g>
    </g>
    <g id="ytick_4">
     <g id="line2d_17">
      <path d="M 83.524219 197.75625 
L 440.644219 197.75625 
" clip-path="url(#p2592da7fbd)" style="fill: none; stroke: #b0b0b0; stroke-width: 0.8; stroke-linecap: square"/>
     </g>
     <g id="line2d_18">
      <g>
       <use xlink:href="#m6f3f5b6aff" x="83.524219" y="197.75625" style="stroke: #000000; stroke-width: 0.8"/>
      </g>
     </g>
     <g id="text_10">
      <!-- −0.05 -->
      <g transform="translate(30.55625 203.455078)scale(0.15 -0.15)">
       <use xlink:href="#DejaVuSans-2212"/>
       <use xlink:href="#DejaVuSans-30" x="83.789062"/>
       <use xlink:href="#DejaVuSans-2e" x="147.412109"/>
       <use xlink:href="#DejaVuSans-30" x="179.199219"/>
       <use xlink:href="#DejaVuSans-35" x="242.822266"/>
      </g>
     </g>
    </g>
    <g id="ytick_5">
     <g id="line2d_19">
      <path d="M 83.524219 164.49225 
L 440.644219 164.49225 
" clip-path="url(#p2592da7fbd)" style="fill: none; stroke: #b0b0b0; stroke-width: 0.8; stroke-linecap: square"/>
     </g>
     <g id="line2d_20">
      <g>
       <use xlink:href="#m6f3f5b6aff" x="83.524219" y="164.49225" style="stroke: #000000; stroke-width: 0.8"/>
      </g>
     </g>
     <g id="text_11">
      <!-- 0.00 -->
      <g transform="translate(43.125781 170.191078)scale(0.15 -0.15)">
       <use xlink:href="#DejaVuSans-30"/>
       <use xlink:href="#DejaVuSans-2e" x="63.623047"/>
       <use xlink:href="#DejaVuSans-30" x="95.410156"/>
       <use xlink:href="#DejaVuSans-30" x="159.033203"/>
      </g>
     </g>
    </g>
    <g id="ytick_6">
     <g id="line2d_21">
      <path d="M 83.524219 131.22825 
L 440.644219 131.22825 
" clip-path="url(#p2592da7fbd)" style="fill: none; stroke: #b0b0b0; stroke-width: 0.8; stroke-linecap: square"/>
     </g>
     <g id="line2d_22">
      <g>
       <use xlink:href="#m6f3f5b6aff" x="83.524219" y="131.22825" style="stroke: #000000; stroke-width: 0.8"/>
      </g>
     </g>
     <g id="text_12">
      <!-- 0.05 -->
      <g transform="translate(43.125781 136.927078)scale(0.15 -0.15)">
       <use xlink:href="#DejaVuSans-30"/>
       <use xlink:href="#DejaVuSans-2e" x="63.623047"/>
       <use xlink:href="#DejaVuSans-30" x="95.410156"/>
       <use xlink:href="#DejaVuSans-35" x="159.033203"/>
      </g>
     </g>
    </g>
    <g id="ytick_7">
     <g id="line2d_23">
      <path d="M 83.524219 97.96425 
L 440.644219 97.96425 
" clip-path="url(#p2592da7fbd)" style="fill: none; stroke: #b0b0b0; stroke-width: 0.8; stroke-linecap: square"/>
     </g>
     <g id="line2d_24">
      <g>
       <use xlink:href="#m6f3f5b6aff" x="83.524219" y="97.96425" style="stroke: #000000; stroke-width: 0.8"/>
      </g>
     </g>
     <g id="text_13">
      <!-- 0.10 -->
      <g transform="translate(43.125781 103.663078)scale(0.15 -0.15)">
       <use xlink:href="#DejaVuSans-30"/>
       <use xlink:href="#DejaVuSans-2e" x="63.623047"/>
       <use xlink:href="#DejaVuSans-31" x="95.410156"/>
       <use xlink:href="#DejaVuSans-30" x="159.033203"/>
      </g>
     </g>
    </g>
    <g id="ytick_8">
     <g id="line2d_25">
      <path d="M 83.524219 64.70025 
L 440.644219 64.70025 
" clip-path="url(#p2592da7fbd)" style="fill: none; stroke: #b0b0b0; stroke-width: 0.8; stroke-linecap: square"/>
     </g>
     <g id="line2d_26">
      <g>
       <use xlink:href="#m6f3f5b6aff" x="83.524219" y="64.70025" style="stroke: #000000; stroke-width: 0.8"/>
      </g>
     </g>
     <g id="text_14">
      <!-- 0.15 -->
      <g transform="translate(43.125781 70.399078)scale(0.15 -0.15)">
       <use xlink:href="#DejaVuSans-30"/>
       <use xlink:href="#DejaVuSans-2e" x="63.623047"/>
       <use xlink:href="#DejaVuSans-31" x="95.410156"/>
       <use xlink:href="#DejaVuSans-35" x="159.033203"/>
      </g>
     </g>
    </g>
    <g id="ytick_9">
     <g id="line2d_27">
      <path d="M 83.524219 31.43625 
L 440.644219 31.43625 
" clip-path="url(#p2592da7fbd)" style="fill: none; stroke: #b0b0b0; stroke-width: 0.8; stroke-linecap: square"/>
     </g>
     <g id="line2d_28">
      <g>
       <use xlink:href="#m6f3f5b6aff" x="83.524219" y="31.43625" style="stroke: #000000; stroke-width: 0.8"/>
      </g>
     </g>
     <g id="text_15">
      <!-- 0.20 -->
      <g transform="translate(43.125781 37.135078)scale(0.15 -0.15)">
       <use xlink:href="#DejaVuSans-30"/>
       <use xlink:href="#DejaVuSans-2e" x="63.623047"/>
       <use xlink:href="#DejaVuSans-32" x="95.410156"/>
       <use xlink:href="#DejaVuSans-30" x="159.033203"/>
      </g>
     </g>
    </g>
    <g id="text_16">
     <!-- $mm^{-2}$ -->
     <g transform="translate(22.396875 195.09225)rotate(-90)scale(0.2 -0.2)">
      <use xlink:href="#DejaVuSans-Oblique-6d" transform="translate(0 0.765625)"/>
      <use xlink:href="#DejaVuSans-Oblique-6d" transform="translate(97.412109 0.765625)"/>
      <use xlink:href="#DejaVuSans-2212" transform="translate(199.474115 39.046875)scale(0.7)"/>
      <use xlink:href="#DejaVuSans-32" transform="translate(258.126458 39.046875)scale(0.7)"/>
     </g>
    </g>
   </g>
   <g id="line2d_29">
    <path d="M 99.756946 128.871973 
L 99.899651 128.583886 
L 100.042357 128.080438 
L 100.541825 124.354989 
L 100.613178 121.898558 
L 100.68453 122.185313 
L 102.325641 103.030706 
L 102.611052 101.540978 
L 102.682405 101.770828 
L 102.82511 101.062905 
L 102.967815 100.989642 
L 103.181873 101.128719 
L 103.253226 101.203027 
L 103.8954 103.728666 
L 103.966752 104.748067 
L 104.038105 104.536298 
L 104.394868 106.156479 
L 104.822984 109.058747 
L 105.037042 109.838755 
L 105.2511 111.451299 
L 105.393805 112.588428 
L 106.107332 122.05144 
L 106.820858 137.342972 
L 107.605737 162.309881 
L 108.604674 195.858282 
L 109.175495 209.70279 
L 109.603611 215.480283 
L 109.889022 217.223456 
L 110.10308 217.477437 
L 110.317138 216.850723 
L 110.602548 215.409346 
L 111.387428 208.727606 
L 111.815543 205.44916 
L 112.029601 204.624447 
L 112.100954 204.771329 
L 112.243659 204.631028 
L 112.386365 204.828508 
L 112.457717 205.035331 
L 112.52907 206.541274 
L 112.600423 205.626436 
L 112.671775 206.007892 
L 113.099891 209.391423 
L 114.384239 220.520236 
L 114.598297 220.747279 
L 114.883707 219.654369 
L 115.169118 216.898627 
L 115.525881 210.757229 
L 116.02535 198.101441 
L 116.881581 169.819203 
L 117.880518 138.808947 
L 118.522692 125.903899 
L 119.022161 119.345057 
L 119.450277 115.787974 
L 120.948682 106.075782 
L 121.234093 105.342343 
L 121.519503 105.034839 
L 121.733561 105.358202 
L 121.876267 105.776813 
L 122.447088 110.134059 
L 122.875204 115.404203 
L 124.230904 135.448752 
L 124.65902 139.114659 
L 124.944431 140.257563 
L 125.087136 140.356663 
L 125.158488 140.321811 
L 125.229841 140.463153 
L 125.372546 140.185108 
L 126.942305 133.108347 
L 127.156363 133.15279 
L 127.513126 134.494077 
L 127.727184 135.727669 
L 128.44071 142.257302 
L 129.082884 148.699292 
L 129.511 151.029582 
L 129.796411 151.656071 
L 130.010469 151.364242 
L 130.224526 150.560154 
L 130.58129 148.659426 
L 130.938053 145.616374 
L 131.580227 140.69574 
L 131.93699 139.241988 
L 132.151048 138.87224 
L 132.436459 139.368074 
L 132.793222 140.902861 
L 133.29269 144.975642 
L 134.291627 153.721969 
L 134.648391 154.874592 
L 134.862449 154.96117 
L 135.076506 154.546905 
L 135.361917 153.226024 
L 135.861386 149.617838 
L 136.860323 143.173788 
L 137.074381 142.933494 
L 137.217086 142.852603 
L 137.431144 143.321082 
L 137.787907 145.084861 
L 139.429018 158.602258 
L 139.571723 158.990115 
L 139.643076 158.950981 
L 139.928486 158.836558 
L 140.071192 158.378513 
L 140.784718 153.670964 
L 141.498245 147.80875 
L 141.997713 145.208575 
L 142.211771 144.989881 
L 142.497182 145.654434 
L 142.71124 146.439815 
L 143.139356 149.347731 
L 143.995587 156.881436 
L 144.637761 159.737462 
L 144.780467 159.797242 
L 144.994524 159.48089 
L 145.208582 158.617082 
L 145.922109 152.997448 
L 146.564283 147.481378 
L 146.992399 145.467945 
L 147.277809 145.295449 
L 147.420514 145.398407 
L 147.705925 146.349473 
L 148.490804 152.24569 
L 149.347036 158.110775 
L 149.632447 158.735662 
L 149.703799 158.706755 
L 150.131915 157.551751 
L 150.560031 154.533886 
L 151.844379 144.393662 
L 151.915731 144.359236 
L 152.201142 143.854682 
L 152.4152 144.111575 
L 152.629258 144.59909 
L 153.057374 147.125682 
L 154.413074 157.69536 
L 154.627132 158.231816 
L 154.912542 158.102508 
L 155.1266 157.45719 
L 155.554716 154.850574 
L 156.910417 144.618273 
L 157.195827 144.022502 
L 157.26718 143.982024 
L 157.623943 144.616065 
L 158.337469 149.028288 
L 158.836938 153.089102 
L 159.336407 155.841841 
L 159.479112 156.071479 
L 159.621817 156.295383 
L 159.69317 156.318694 
L 159.97858 155.471312 
L 160.263991 153.859401 
L 160.692107 150.406158 
L 161.476986 143.106398 
L 161.905102 140.314825 
L 162.190512 139.78906 
L 162.333218 139.771761 
L 162.547276 140.18693 
L 162.761334 141.216679 
L 163.47486 146.177834 
L 164.259739 151.832624 
L 164.54515 152.406168 
L 164.759208 152.507066 
L 164.973266 152.066717 
L 165.258676 151.146175 
L 166.328966 143.781042 
L 166.685729 142.384273 
L 166.899787 142.183532 
L 167.25655 142.889031 
L 167.684666 145.698376 
L 168.32684 152.701824 
L 168.826309 158.411878 
L 169.468482 163.121789 
L 169.68254 163.659049 
L 169.753893 163.607478 
L 169.896598 163.758816 
L 170.039304 163.657726 
L 170.538772 160.599688 
L 171.82312 150.472418 
L 172.251236 149.356739 
L 172.322588 149.344019 
L 172.536646 149.721597 
L 172.89341 151.397725 
L 173.392878 155.086159 
L 173.892347 159.023339 
L 174.53452 161.534866 
L 174.891284 160.875861 
L 175.105342 159.96354 
L 175.390752 158.141359 
L 176.746453 146.443326 
L 177.031863 145.420238 
L 177.245921 145.230602 
L 177.388626 145.437652 
L 177.602684 146.086916 
L 178.0308 148.688931 
L 179.315148 158.853779 
L 179.671911 159.571339 
L 179.885969 159.548545 
L 180.314085 157.528772 
L 181.098964 151.23559 
L 181.669785 147.158194 
L 182.026548 145.884863 
L 182.311959 145.892891 
L 182.59737 146.741223 
L 182.88278 148.363961 
L 183.596307 153.951953 
L 184.024423 157.553489 
L 184.595244 159.437278 
L 184.737949 159.376651 
L 184.952007 158.874393 
L 185.237418 157.466498 
L 185.950944 151.442187 
L 186.807176 145.056478 
L 187.092586 144.200689 
L 187.306644 144.301193 
L 187.520702 144.834876 
L 187.806113 146.288107 
L 188.091523 148.385184 
L 189.161813 157.060822 
L 189.375871 157.878967 
L 189.732634 158.654843 
L 190.018045 157.91183 
L 191.016982 150.943439 
L 191.801861 145.517366 
L 192.015919 144.946732 
L 192.158624 144.91235 
L 192.229977 144.838591 
L 192.444035 145.254769 
L 194.299204 158.665907 
L 194.72732 159.385061 
L 194.798672 159.326034 
L 195.01273 158.711108 
L 195.369493 156.661191 
L 195.654904 154.242601 
L 196.08302 150.200714 
L 196.867899 145.03377 
L 197.081957 144.63212 
L 197.296015 144.240001 
L 197.724131 145.902054 
L 198.152247 148.815192 
L 198.794421 153.992845 
L 199.507947 157.517703 
L 199.650652 157.56483 
L 199.793358 157.590597 
L 199.86471 157.615458 
L 200.221473 156.218163 
L 200.506884 154.415432 
L 201.577174 146.103083 
L 201.648526 146.327569 
L 201.933937 145.432563 
L 202.00529 146.168142 
L 202.076642 146.155414 
L 202.147995 146.243672 
L 202.219348 145.67071 
L 202.2907 145.811592 
L 202.362053 146.103017 
L 202.433406 145.982754 
L 202.576111 146.469433 
L 202.790169 147.869248 
L 203.432343 153.111172 
L 204.003164 158.719977 
L 204.288574 160.828471 
L 204.359927 160.776031 
L 204.43128 160.637757 
L 204.573985 160.824646 
L 204.645338 160.444199 
L 204.71669 160.522603 
L 204.930748 159.987904 
L 205.144806 159.150319 
L 205.216159 158.996024 
L 205.929685 152.730678 
L 206.001038 152.562377 
L 206.785917 146.17024 
L 207.071328 145.650085 
L 207.428091 146.264023 
L 207.499444 146.270962 
L 207.570796 146.44848 
L 207.642149 146.302264 
L 207.784854 147.767884 
L 208.284323 151.982097 
L 208.498381 153.498322 
L 208.712439 155.719394 
L 208.855144 156.532141 
L 209.140554 158.306368 
L 209.497318 159.623857 
L 209.56867 159.833469 
L 209.854081 158.786718 
L 209.996786 159.00078 
L 210.068139 158.726482 
L 210.282197 157.292392 
L 210.353549 157.249883 
L 210.853018 153.063653 
L 211.138429 149.507445 
L 211.352486 148.162593 
L 211.637897 146.488302 
L 211.780602 146.058208 
L 212.066013 144.595501 
L 212.280071 145.543695 
L 212.351424 145.555335 
L 212.494129 146.11913 
L 214.42065 158.719298 
L 214.492003 158.510586 
L 214.706061 159.019012 
L 214.848766 158.598174 
L 215.49094 153.946327 
L 216.275819 146.323489 
L 216.418524 144.911929 
L 216.489877 144.888918 
L 216.56123 144.742229 
L 216.84664 143.377282 
L 216.917993 143.524123 
L 216.989346 143.40248 
L 217.132051 142.764942 
L 217.203404 142.719426 
L 217.274756 143.233445 
L 217.346109 143.201358 
L 217.417462 143.35401 
L 217.488814 142.984521 
L 217.91693 145.38022 
L 219.27263 156.686855 
L 219.343983 156.967411 
L 219.486688 158.132118 
L 219.843452 156.933392 
L 219.914804 156.877214 
L 220.200215 155.822195 
L 220.485625 154.038854 
L 220.771036 151.460572 
L 220.842389 151.666185 
L 221.341857 148.514602 
L 221.555915 146.804551 
L 221.627268 146.890856 
L 222.055384 145.259419 
L 222.340794 145.95502 
L 222.697557 147.572077 
L 223.910552 158.794501 
L 224.053258 159.201215 
L 224.410021 160.946217 
L 224.552726 161.334188 
L 224.624079 161.303948 
L 224.695432 161.23391 
L 224.766784 161.406262 
L 224.909489 160.528903 
L 224.980842 160.209116 
L 225.123547 158.841438 
L 225.1949 159.006051 
L 225.266253 158.854569 
L 225.979779 152.935502 
L 226.5506 147.542962 
L 226.836011 146.216457 
L 227.192774 145.190713 
L 227.264127 145.241155 
L 227.62089 147.293767 
L 227.834948 149.226785 
L 229.333354 159.786043 
L 229.404706 159.58392 
L 229.761469 161.044826 
L 229.904175 160.446191 
L 229.975527 160.908881 
L 230.04688 160.591162 
L 230.260938 158.876556 
L 230.332291 158.647109 
L 231.40258 149.445524 
L 231.473933 149.205567 
L 231.616638 147.909999 
L 231.687991 148.07459 
L 231.759344 147.903876 
L 231.830696 148.118249 
L 232.044754 147.634155 
L 232.18746 148.32803 
L 232.258812 148.468077 
L 232.330165 148.157392 
L 232.401517 148.348601 
L 232.615575 149.457878 
L 232.686928 149.513496 
L 232.972339 151.489458 
L 233.971276 160.88923 
L 234.399392 162.916916 
L 234.470744 162.782629 
L 234.61345 162.903335 
L 234.684802 162.845458 
L 235.398329 159.430564 
L 236.968087 146.391124 
L 237.182145 145.845742 
L 237.824319 147.83857 
L 238.109729 149.72339 
L 239.037314 156.527266 
L 239.394077 157.941292 
L 239.536782 158.085 
L 239.822193 157.70797 
L 240.321661 155.416204 
L 241.035188 149.188329 
L 241.463304 146.001194 
L 241.820067 144.458965 
L 242.034125 144.02703 
L 242.17683 144.006586 
L 242.462241 144.848976 
L 242.747651 146.260009 
L 243.24712 150.590587 
L 244.103352 157.719103 
L 244.531468 159.542448 
L 244.745525 159.485512 
L 245.030936 158.650403 
L 245.387699 156.600153 
L 246.600694 147.227851 
L 247.02881 145.863476 
L 247.171515 145.813416 
L 247.314221 146.125344 
L 247.528279 146.998298 
L 247.813689 148.504935 
L 248.527216 154.284511 
L 249.240742 159.113418 
L 249.526153 159.756422 
L 249.668858 159.678972 
L 249.811563 159.357878 
L 250.096974 158.171977 
L 250.8105 152.706169 
L 251.524027 147.013013 
L 251.88079 145.623871 
L 252.094848 145.38826 
L 252.308906 145.684673 
L 252.522964 146.495688 
L 252.95108 149.298219 
L 253.664606 155.529795 
L 254.164075 158.897201 
L 254.520838 159.930804 
L 254.663543 160.039482 
L 254.948954 159.590452 
L 255.234365 157.906483 
L 255.66248 154.613498 
L 256.304654 149.131194 
L 256.946828 145.977019 
L 257.160886 145.786072 
L 257.374944 145.964153 
L 257.660355 147.080549 
L 258.159823 150.171517 
L 259.087408 155.092495 
L 259.301466 155.314864 
L 259.444171 155.155461 
L 259.729581 154.093535 
L 260.014992 152.104128 
L 260.585813 146.069181 
L 261.227987 138.404931 
L 261.727456 134.348186 
L 262.084219 133.298462 
L 262.226924 133.150852 
L 262.369629 133.376289 
L 262.726393 135.148124 
L 263.225861 139.467844 
L 264.082093 147.048791 
L 264.438856 148.803652 
L 264.724267 149.467402 
L 264.866972 149.347034 
L 265.152383 148.311686 
L 265.865909 143.678314 
L 266.579436 139.350335 
L 266.793493 138.790534 
L 266.936199 138.822792 
L 267.078904 138.974372 
L 267.435667 140.207713 
L 267.863783 143.623856 
L 269.433541 158.207251 
L 269.718952 158.82933 
L 269.861657 158.804924 
L 270.004363 158.5934 
L 270.361126 156.970734 
L 271.645473 148.235302 
L 271.930884 147.447448 
L 272.073589 147.307487 
L 272.216295 147.412202 
L 272.501705 148.23941 
L 272.929821 150.695988 
L 273.215232 152.650779 
L 273.857406 157.557096 
L 274.285521 159.495279 
L 274.499579 159.818404 
L 274.856343 159.059175 
L 275.141753 157.535858 
L 276.640159 145.173163 
L 276.925569 144.352381 
L 277.068275 144.221866 
L 277.139627 144.262384 
L 277.496391 145.441142 
L 277.995859 148.530038 
L 279.066149 157.964728 
L 279.280207 158.864965 
L 279.422912 158.997348 
L 279.708323 159.30257 
L 279.922381 158.922445 
L 280.207791 157.591347 
L 281.349434 148.158043 
L 281.848902 145.969812 
L 282.06296 145.657949 
L 282.205665 145.726721 
L 282.348371 146.027064 
L 282.705134 147.764599 
L 283.061897 150.220827 
L 284.060834 158.150442 
L 284.346245 159.09976 
L 284.560303 159.305545 
L 284.774361 158.997021 
L 284.917066 158.532512 
L 285.202476 156.900863 
L 286.629529 145.682892 
L 286.91494 144.815566 
L 287.057645 144.664196 
L 287.271703 145.048466 
L 287.557114 146.223437 
L 287.913877 148.612314 
L 288.413346 153.079081 
L 289.055519 158.265409 
L 289.34093 159.566564 
L 289.626341 159.870743 
L 289.769046 159.676361 
L 289.983104 159.058314 
L 290.482572 155.74566 
L 291.552862 147.237251 
L 291.909625 145.831216 
L 292.123683 145.697986 
L 292.266389 145.905463 
L 292.623152 147.212459 
L 293.265326 151.756747 
L 294.121557 157.800649 
L 294.406968 158.422951 
L 294.549673 158.4566 
L 294.763731 158.118742 
L 294.906437 157.625467 
L 295.2632 155.237064 
L 295.691316 151.62242 
L 296.476195 145.223862 
L 296.904311 143.597466 
L 297.047016 143.446183 
L 297.189721 143.63302 
L 297.475132 144.585449 
L 297.9746 147.807393 
L 299.04489 156.912427 
L 299.330301 158.079193 
L 299.544359 158.313154 
L 299.687064 158.259545 
L 299.901122 157.779288 
L 300.043827 157.172153 
L 300.543296 153.557638 
L 301.185469 147.806788 
L 301.613585 145.351728 
L 302.113054 143.977619 
L 302.255759 144.135741 
L 302.612522 145.421873 
L 303.183344 149.513589 
L 304.039575 155.867525 
L 304.324986 156.71046 
L 304.539044 156.905583 
L 304.610397 156.950077 
L 304.895807 156.307464 
L 305.181218 154.644015 
L 306.536918 144.401964 
L 306.822329 143.551245 
L 306.965034 143.420203 
L 307.179092 143.664566 
L 307.464502 144.810358 
L 307.821266 147.377786 
L 309.248319 159.370484 
L 309.462377 159.858586 
L 309.676435 159.909328 
L 309.890492 159.436873 
L 310.175903 157.810739 
L 310.675372 153.563194 
L 311.602956 146.393779 
L 312.031072 145.150274 
L 312.173777 145.211388 
L 312.316482 145.593743 
L 312.601893 146.696132 
L 313.244067 151.303066 
L 313.743535 155.330096 
L 314.243004 157.886903 
L 314.528415 157.985803 
L 314.813825 157.460415 
L 315.170588 155.176314 
L 316.383583 144.225467 
L 316.883052 141.81845 
L 317.025757 141.748001 
L 317.239815 141.812065 
L 317.453873 142.456934 
L 317.953342 145.5973 
L 319.094984 155.271695 
L 319.451747 156.64272 
L 319.665805 156.710061 
L 320.022568 156.142112 
L 320.379332 154.014541 
L 321.735032 144.750172 
L 321.94909 144.219047 
L 322.020443 144.272305 
L 322.305853 144.864041 
L 322.591264 146.011764 
L 323.590201 153.165403 
L 323.946964 155.36746 
L 324.232375 156.301578 
L 324.446433 156.230922 
L 324.66049 155.688447 
L 324.803196 155.241659 
L 325.231312 152.27247 
L 325.588075 148.790105 
L 326.515659 139.770722 
L 326.943775 137.827977 
L 327.157833 137.591685 
L 327.585949 138.723351 
L 327.87136 140.486515 
L 329.51247 152.656323 
L 329.655176 152.939702 
L 329.726528 152.846913 
L 330.154644 152.104348 
L 330.511408 150.414154 
L 331.224934 146.873389 
L 331.65305 145.952243 
L 331.867108 145.866609 
L 332.152518 146.451976 
L 332.72334 150.286058 
L 334.221745 162.022358 
L 334.507156 162.138538 
L 334.721214 161.715527 
L 334.935272 160.659653 
L 335.506093 155.666326 
L 336.647735 145.646393 
L 337.075851 144.37221 
L 337.361262 144.940966 
L 337.789378 147.119975 
L 338.288846 151.405161 
L 339.216431 157.807181 
L 339.501841 158.198004 
L 339.715899 158.036211 
L 339.929957 157.276901 
L 340.643483 152.07736 
L 341.499715 145.940365 
L 341.785126 145.089671 
L 341.999184 145.001862 
L 342.141889 145.276668 
L 342.498652 146.84953 
L 342.926768 149.8751 
L 344.068411 159.222698 
L 344.282469 159.761556 
L 344.425174 159.943069 
L 344.85329 158.910043 
L 345.210053 156.346278 
L 345.780874 150.981245 
L 346.423048 145.126399 
L 346.851164 143.1618 
L 347.065222 142.91872 
L 347.207927 143.097462 
L 347.56469 144.398072 
L 347.921454 146.63635 
L 348.991743 155.198886 
L 349.277154 156.189745 
L 349.491212 156.281115 
L 349.633917 156.092221 
L 349.847975 155.443128 
L 350.276091 152.449194 
L 351.417733 142.336234 
L 351.845849 140.632272 
L 351.988554 140.535219 
L 352.13126 140.72018 
L 352.41667 141.851488 
L 352.916139 145.734579 
L 354.414544 159.175584 
L 354.699955 159.561389 
L 354.84266 159.406893 
L 355.056718 158.692728 
L 355.484834 155.899883 
L 356.626476 147.881759 
L 356.911887 147.200941 
L 357.054592 147.233694 
L 357.26865 147.787979 
L 357.839471 151.159237 
L 359.266524 161.985523 
L 359.551935 162.033766 
L 359.69464 161.736614 
L 359.908698 160.891888 
L 360.622225 155.685401 
L 361.549809 148.127208 
L 361.906572 147.185341 
L 362.12063 147.329956 
L 362.406041 148.32462 
L 362.905509 151.404385 
L 363.690389 158.374468 
L 364.189857 161.186793 
L 364.403915 161.552573 
L 364.475268 161.486319 
L 364.689326 161.256649 
L 365.117442 159.201527 
L 365.61691 154.966898 
L 366.330437 149.08473 
L 366.6872 147.448059 
L 366.901258 147.100205 
L 367.043963 147.18543 
L 367.329374 148.162172 
L 367.757489 151.014938 
L 369.255895 164.016367 
L 369.469953 164.380166 
L 369.612658 164.338944 
L 369.826716 164.03026 
L 370.112127 162.621102 
L 370.754301 157.808388 
L 371.325122 153.815569 
L 371.753238 151.925217 
L 371.895943 152.145243 
L 372.110001 152.470818 
L 372.538117 154.849661 
L 373.037585 159.295037 
L 373.679759 166.012104 
L 374.107875 169.294304 
L 374.393286 170.331966 
L 374.464638 170.17302 
L 374.535991 170.169705 
L 374.750049 169.527386 
L 375.03546 168.031941 
L 375.249517 166.512038 
L 375.963044 159.653665 
L 376.462512 154.957743 
L 376.961981 152.288337 
L 377.176039 152.069408 
L 377.247392 152.065317 
L 378.032271 154.851528 
L 378.460387 158.187525 
L 379.10256 161.566154 
L 379.316618 161.840368 
L 379.459324 161.759673 
L 379.673382 161.298918 
L 379.958792 159.920967 
L 380.458261 156.063076 
L 381.599903 147.655157 
L 381.885314 147.047374 
L 382.099372 147.455905 
L 382.31343 148.36745 
L 382.59884 150.447792 
L 383.455072 159.295588 
L 383.95454 163.74022 
L 384.311304 165.658436 
L 384.525362 166.101135 
L 384.596714 166.427346 
L 384.668067 166.339624 
L 384.953477 165.309382 
L 385.167535 164.166688 
L 385.952415 157.3864 
L 386.665941 152.924511 
L 386.951352 152.273003 
L 387.236762 152.30842 
L 387.379468 152.631302 
L 387.736231 154.400715 
L 389.020578 160.801851 
L 389.234636 160.974348 
L 389.377342 160.730345 
L 389.662752 159.354192 
L 390.090868 155.803619 
L 390.875747 147.54433 
L 391.375216 142.964143 
L 391.731979 141.538259 
L 391.803332 141.558506 
L 391.946037 141.39518 
L 392.231448 142.269456 
L 392.944974 148.27904 
L 394.086616 160.269978 
L 394.372027 161.603046 
L 394.586085 161.985248 
L 394.657438 161.938695 
L 394.72879 161.896646 
L 394.942848 161.024713 
L 396.583959 151.051498 
L 396.798017 150.875462 
L 396.940722 151.129283 
L 397.368838 153.144852 
L 398.082365 160.365042 
L 398.938596 169.713599 
L 399.29536 171.808743 
L 399.509418 172.170674 
L 399.652123 172.047988 
L 399.866181 171.372931 
L 400.080239 170.175355 
L 400.508355 166.421857 
L 401.507292 156.938529 
L 401.864055 155.145749 
L 402.149466 154.881175 
L 402.363523 155.30159 
L 402.577581 156.195965 
L 403.505166 162.584436 
L 403.861929 164.86103 
L 404.075987 165.208813 
L 404.218692 165.377843 
L 404.361398 165.14833 
L 404.932219 160.913534 
L 405.431687 153.59542 
L 407.429561 122.639046 
L 408.642556 109.361963 
L 408.99932 102.35096 
L 409.427436 89.984583 
L 410.069609 62.565121 
L 410.854488 15.322564 
L 411.075084 -1 
M 423.396329 -1 
L 423.410346 350.665437 
L 423.410346 350.665437 
" clip-path="url(#p2592da7fbd)" style="fill: none; stroke: #1f77b4; stroke-width: 1.5; stroke-linecap: square"/>
   </g>
   <g id="patch_3">
    <path d="M 83.524219 297.54825 
L 83.524219 31.43625 
" style="fill: none; stroke: #000000; stroke-width: 0.8; stroke-linejoin: miter; stroke-linecap: square"/>
   </g>
   <g id="patch_4">
    <path d="M 440.644219 297.54825 
L 440.644219 31.43625 
" style="fill: none; stroke: #000000; stroke-width: 0.8; stroke-linejoin: miter; stroke-linecap: square"/>
   </g>
   <g id="patch_5">
    <path d="M 83.524219 297.54825 
L 440.644219 297.54825 
" style="fill: none; stroke: #000000; stroke-width: 0.8; stroke-linejoin: miter; stroke-linecap: square"/>
   </g>
   <g id="patch_6">
    <path d="M 83.524219 31.43625 
L 440.644219 31.43625 
" style="fill: none; stroke: #000000; stroke-width: 0.8; stroke-linejoin: miter; stroke-linecap: square"/>
   </g>
   <g id="text_17">
    <!-- RF Field Axial Curvature -->
    <g transform="translate(118.639219 25.43625)scale(0.24 -0.24)">
     <defs>
      <path id="DejaVuSans-52" d="M 2841 2188 
Q 3044 2119 3236 1894 
Q 3428 1669 3622 1275 
L 4263 0 
L 3584 0 
L 2988 1197 
Q 2756 1666 2539 1819 
Q 2322 1972 1947 1972 
L 1259 1972 
L 1259 0 
L 628 0 
L 628 4666 
L 2053 4666 
Q 2853 4666 3247 4331 
Q 3641 3997 3641 3322 
Q 3641 2881 3436 2590 
Q 3231 2300 2841 2188 
z
M 1259 4147 
L 1259 2491 
L 2053 2491 
Q 2509 2491 2742 2702 
Q 2975 2913 2975 3322 
Q 2975 3731 2742 3939 
Q 2509 4147 2053 4147 
L 1259 4147 
z
" transform="scale(0.015625)"/>
      <path id="DejaVuSans-46" d="M 628 4666 
L 3309 4666 
L 3309 4134 
L 1259 4134 
L 1259 2759 
L 3109 2759 
L 3109 2228 
L 1259 2228 
L 1259 0 
L 628 0 
L 628 4666 
z
" transform="scale(0.015625)"/>
      <path id="DejaVuSans-69" d="M 603 3500 
L 1178 3500 
L 1178 0 
L 603 0 
L 603 3500 
z
M 603 4863 
L 1178 4863 
L 1178 4134 
L 603 4134 
L 603 4863 
z
" transform="scale(0.015625)"/>
      <path id="DejaVuSans-65" d="M 3597 1894 
L 3597 1613 
L 953 1613 
Q 991 1019 1311 708 
Q 1631 397 2203 397 
Q 2534 397 2845 478 
Q 3156 559 3463 722 
L 3463 178 
Q 3153 47 2828 -22 
Q 2503 -91 2169 -91 
Q 1331 -91 842 396 
Q 353 884 353 1716 
Q 353 2575 817 3079 
Q 1281 3584 2069 3584 
Q 2775 3584 3186 3129 
Q 3597 2675 3597 1894 
z
M 3022 2063 
Q 3016 2534 2758 2815 
Q 2500 3097 2075 3097 
Q 1594 3097 1305 2825 
Q 1016 2553 972 2059 
L 3022 2063 
z
" transform="scale(0.015625)"/>
      <path id="DejaVuSans-6c" d="M 603 4863 
L 1178 4863 
L 1178 0 
L 603 0 
L 603 4863 
z
" transform="scale(0.015625)"/>
      <path id="DejaVuSans-64" d="M 2906 2969 
L 2906 4863 
L 3481 4863 
L 3481 0 
L 2906 0 
L 2906 525 
Q 2725 213 2448 61 
Q 2172 -91 1784 -91 
Q 1150 -91 751 415 
Q 353 922 353 1747 
Q 353 2572 751 3078 
Q 1150 3584 1784 3584 
Q 2172 3584 2448 3432 
Q 2725 3281 2906 2969 
z
M 947 1747 
Q 947 1113 1208 752 
Q 1469 391 1925 391 
Q 2381 391 2643 752 
Q 2906 1113 2906 1747 
Q 2906 2381 2643 2742 
Q 2381 3103 1925 3103 
Q 1469 3103 1208 2742 
Q 947 2381 947 1747 
z
" transform="scale(0.015625)"/>
      <path id="DejaVuSans-41" d="M 2188 4044 
L 1331 1722 
L 3047 1722 
L 2188 4044 
z
M 1831 4666 
L 2547 4666 
L 4325 0 
L 3669 0 
L 3244 1197 
L 1141 1197 
L 716 0 
L 50 0 
L 1831 4666 
z
" transform="scale(0.015625)"/>
      <path id="DejaVuSans-78" d="M 3513 3500 
L 2247 1797 
L 3578 0 
L 2900 0 
L 1881 1375 
L 863 0 
L 184 0 
L 1544 1831 
L 300 3500 
L 978 3500 
L 1906 2253 
L 2834 3500 
L 3513 3500 
z
" transform="scale(0.015625)"/>
      <path id="DejaVuSans-61" d="M 2194 1759 
Q 1497 1759 1228 1600 
Q 959 1441 959 1056 
Q 959 750 1161 570 
Q 1363 391 1709 391 
Q 2188 391 2477 730 
Q 2766 1069 2766 1631 
L 2766 1759 
L 2194 1759 
z
M 3341 1997 
L 3341 0 
L 2766 0 
L 2766 531 
Q 2569 213 2275 61 
Q 1981 -91 1556 -91 
Q 1019 -91 701 211 
Q 384 513 384 1019 
Q 384 1609 779 1909 
Q 1175 2209 1959 2209 
L 2766 2209 
L 2766 2266 
Q 2766 2663 2505 2880 
Q 2244 3097 1772 3097 
Q 1472 3097 1187 3025 
Q 903 2953 641 2809 
L 641 3341 
Q 956 3463 1253 3523 
Q 1550 3584 1831 3584 
Q 2591 3584 2966 3190 
Q 3341 2797 3341 1997 
z
" transform="scale(0.015625)"/>
      <path id="DejaVuSans-43" d="M 4122 4306 
L 4122 3641 
Q 3803 3938 3442 4084 
Q 3081 4231 2675 4231 
Q 1875 4231 1450 3742 
Q 1025 3253 1025 2328 
Q 1025 1406 1450 917 
Q 1875 428 2675 428 
Q 3081 428 3442 575 
Q 3803 722 4122 1019 
L 4122 359 
Q 3791 134 3420 21 
Q 3050 -91 2638 -91 
Q 1578 -91 968 557 
Q 359 1206 359 2328 
Q 359 3453 968 4101 
Q 1578 4750 2638 4750 
Q 3056 4750 3426 4639 
Q 3797 4528 4122 4306 
z
" transform="scale(0.015625)"/>
      <path id="DejaVuSans-75" d="M 544 1381 
L 544 3500 
L 1119 3500 
L 1119 1403 
Q 1119 906 1312 657 
Q 1506 409 1894 409 
Q 2359 409 2629 706 
Q 2900 1003 2900 1516 
L 2900 3500 
L 3475 3500 
L 3475 0 
L 2900 0 
L 2900 538 
Q 2691 219 2414 64 
Q 2138 -91 1772 -91 
Q 1169 -91 856 284 
Q 544 659 544 1381 
z
M 1991 3584 
L 1991 3584 
z
" transform="scale(0.015625)"/>
      <path id="DejaVuSans-72" d="M 2631 2963 
Q 2534 3019 2420 3045 
Q 2306 3072 2169 3072 
Q 1681 3072 1420 2755 
Q 1159 2438 1159 1844 
L 1159 0 
L 581 0 
L 581 3500 
L 1159 3500 
L 1159 2956 
Q 1341 3275 1631 3429 
Q 1922 3584 2338 3584 
Q 2397 3584 2469 3576 
Q 2541 3569 2628 3553 
L 2631 2963 
z
" transform="scale(0.015625)"/>
      <path id="DejaVuSans-76" d="M 191 3500 
L 800 3500 
L 1894 563 
L 2988 3500 
L 3597 3500 
L 2284 0 
L 1503 0 
L 191 3500 
z
" transform="scale(0.015625)"/>
      <path id="DejaVuSans-74" d="M 1172 4494 
L 1172 3500 
L 2356 3500 
L 2356 3053 
L 1172 3053 
L 1172 1153 
Q 1172 725 1289 603 
Q 1406 481 1766 481 
L 2356 481 
L 2356 0 
L 1766 0 
Q 1100 0 847 248 
Q 594 497 594 1153 
L 594 3053 
L 172 3053 
L 172 3500 
L 594 3500 
L 594 4494 
L 1172 4494 
z
" transform="scale(0.015625)"/>
     </defs>
     <use xlink:href="#DejaVuSans-52"/>
     <use xlink:href="#DejaVuSans-46" x="69.482422"/>
     <use xlink:href="#DejaVuSans-20" x="127.001953"/>
     <use xlink:href="#DejaVuSans-46" x="158.789062"/>
     <use xlink:href="#DejaVuSans-69" x="209.058594"/>
     <use xlink:href="#DejaVuSans-65" x="236.841797"/>
     <use xlink:href="#DejaVuSans-6c" x="298.365234"/>
     <use xlink:href="#DejaVuSans-64" x="326.148438"/>
     <use xlink:href="#DejaVuSans-20" x="389.625"/>
     <use xlink:href="#DejaVuSans-41" x="421.412109"/>
     <use xlink:href="#DejaVuSans-78" x="489.820312"/>
     <use xlink:href="#DejaVuSans-69" x="549"/>
     <use xlink:href="#DejaVuSans-61" x="576.783203"/>
     <use xlink:href="#DejaVuSans-6c" x="638.0625"/>
     <use xlink:href="#DejaVuSans-20" x="665.845703"/>
     <use xlink:href="#DejaVuSans-43" x="697.632812"/>
     <use xlink:href="#DejaVuSans-75" x="767.457031"/>
     <use xlink:href="#DejaVuSans-72" x="830.835938"/>
     <use xlink:href="#DejaVuSans-76" x="871.949219"/>
     <use xlink:href="#DejaVuSans-61" x="931.128906"/>
     <use xlink:href="#DejaVuSans-74" x="992.408203"/>
     <use xlink:href="#DejaVuSans-75" x="1031.617188"/>
     <use xlink:href="#DejaVuSans-72" x="1094.996094"/>
     <use xlink:href="#DejaVuSans-65" x="1133.859375"/>
    </g>
   </g>
   <g id="legend_1">
    <g id="patch_7">
     <path d="M 97.524219 76.7925 
L 183.724219 76.7925 
Q 187.724219 76.7925 187.724219 72.7925 
L 187.724219 45.43625 
Q 187.724219 41.43625 183.724219 41.43625 
L 97.524219 41.43625 
Q 93.524219 41.43625 93.524219 45.43625 
L 93.524219 72.7925 
Q 93.524219 76.7925 97.524219 76.7925 
z
" style="fill: #ffffff; opacity: 0.8; stroke: #cccccc; stroke-linejoin: miter"/>
    </g>
    <g id="line2d_30">
     <path d="M 101.524219 57.633125 
L 121.524219 57.633125 
L 141.524219 57.633125 
" style="fill: none; stroke: #1f77b4; stroke-width: 1.5; stroke-linecap: square"/>
    </g>
    <g id="text_18">
     <!-- $x^2$ -->
     <g transform="translate(157.524219 64.633125)scale(0.2 -0.2)">
      <defs>
       <path id="DejaVuSans-Oblique-78" d="M 3841 3500 
L 2234 1784 
L 3219 0 
L 2559 0 
L 1819 1388 
L 531 0 
L -166 0 
L 1556 1844 
L 641 3500 
L 1300 3500 
L 1972 2234 
L 3144 3500 
L 3841 3500 
z
" transform="scale(0.015625)"/>
      </defs>
      <use xlink:href="#DejaVuSans-Oblique-78" transform="translate(0 0.765625)"/>
      <use xlink:href="#DejaVuSans-32" transform="translate(63.645833 39.046875)scale(0.7)"/>
     </g>
    </g>
   </g>
  </g>
 </g>
 <defs>
  <clipPath id="p2592da7fbd">
   <rect x="83.524219" y="31.43625" width="357.12" height="266.112"/>
  </clipPath>
 </defs>
</svg>
