<?xml version="1.0" encoding="utf-8" standalone="no"?>
<!DOCTYPE svg PUBLIC "-//W3C//DTD SVG 1.1//EN"
  "http://www.w3.org/Graphics/SVG/1.1/DTD/svg11.dtd">
<svg xmlns:xlink="http://www.w3.org/1999/xlink" width="431.35125pt" height="349.665437pt" viewBox="0 0 431.35125 349.665437" xmlns="http://www.w3.org/2000/svg" version="1.1">
 <defs>
  <style type="text/css">*{stroke-linejoin: round; stroke-linecap: butt}</style>
 </defs>
 <g id="figure_1">
  <g id="patch_1">
   <path d="M 0 349.665437 
L 431.35125 349.665437 
L 431.35125 0 
L 0 0 
L 0 349.665437 
z
" style="fill: none"/>
  </g>
  <g id="axes_1">
   <g id="patch_2">
    <path d="M 67.03125 297.54825 
L 424.15125 297.54825 
L 424.15125 31.43625 
L 67.03125 31.43625 
L 67.03125 297.54825 
z
" style="fill: none"/>
   </g>
   <g id="matplotlib.axis_1">
    <g id="xtick_1">
     <g id="line2d_1">
      <path d="M 107.44038 297.54825 
L 107.44038 31.43625 
" clip-path="url(#p16dad856f7)" style="fill: none; stroke: #b0b0b0; stroke-width: 0.8; stroke-linecap: square"/>
     </g>
     <g id="line2d_2">
      <defs>
       <path id="md39032bed2" d="M 0 0 
L 0 3.5 
" style="stroke: #000000; stroke-width: 0.8"/>
      </defs>
      <g>
       <use xlink:href="#md39032bed2" x="107.44038" y="297.54825" style="stroke: #000000; stroke-width: 0.8"/>
      </g>
     </g>
     <g id="text_1">
      <!-- −2000 -->
      <g transform="translate(82.068114 315.945906)scale(0.15 -0.15)">
       <defs>
        <path id="DejaVuSans-2212" d="M 678 2272 
L 4684 2272 
L 4684 1741 
L 678 1741 
L 678 2272 
z
" transform="scale(0.015625)"/>
        <path id="DejaVuSans-32" d="M 1228 531 
L 3431 531 
L 3431 0 
L 469 0 
L 469 531 
Q 828 903 1448 1529 
Q 2069 2156 2228 2338 
Q 2531 2678 2651 2914 
Q 2772 3150 2772 3378 
Q 2772 3750 2511 3984 
Q 2250 4219 1831 4219 
Q 1534 4219 1204 4116 
Q 875 4013 500 3803 
L 500 4441 
Q 881 4594 1212 4672 
Q 1544 4750 1819 4750 
Q 2544 4750 2975 4387 
Q 3406 4025 3406 3419 
Q 3406 3131 3298 2873 
Q 3191 2616 2906 2266 
Q 2828 2175 2409 1742 
Q 1991 1309 1228 531 
z
" transform="scale(0.015625)"/>
        <path id="DejaVuSans-30" d="M 2034 4250 
Q 1547 4250 1301 3770 
Q 1056 3291 1056 2328 
Q 1056 1369 1301 889 
Q 1547 409 2034 409 
Q 2525 409 2770 889 
Q 3016 1369 3016 2328 
Q 3016 3291 2770 3770 
Q 2525 4250 2034 4250 
z
M 2034 4750 
Q 2819 4750 3233 4129 
Q 3647 3509 3647 2328 
Q 3647 1150 3233 529 
Q 2819 -91 2034 -91 
Q 1250 -91 836 529 
Q 422 1150 422 2328 
Q 422 3509 836 4129 
Q 1250 4750 2034 4750 
z
" transform="scale(0.015625)"/>
       </defs>
       <use xlink:href="#DejaVuSans-2212"/>
       <use xlink:href="#DejaVuSans-32" x="83.789062"/>
       <use xlink:href="#DejaVuSans-30" x="147.412109"/>
       <use xlink:href="#DejaVuSans-30" x="211.035156"/>
       <use xlink:href="#DejaVuSans-30" x="274.658203"/>
      </g>
     </g>
    </g>
    <g id="xtick_2">
     <g id="line2d_3">
      <path d="M 176.515815 297.54825 
L 176.515815 31.43625 
" clip-path="url(#p16dad856f7)" style="fill: none; stroke: #b0b0b0; stroke-width: 0.8; stroke-linecap: square"/>
     </g>
     <g id="line2d_4">
      <g>
       <use xlink:href="#md39032bed2" x="176.515815" y="297.54825" style="stroke: #000000; stroke-width: 0.8"/>
      </g>
     </g>
     <g id="text_2">
      <!-- −1000 -->
      <g transform="translate(151.143549 315.945906)scale(0.15 -0.15)">
       <defs>
        <path id="DejaVuSans-31" d="M 794 531 
L 1825 531 
L 1825 4091 
L 703 3866 
L 703 4441 
L 1819 4666 
L 2450 4666 
L 2450 531 
L 3481 531 
L 3481 0 
L 794 0 
L 794 531 
z
" transform="scale(0.015625)"/>
       </defs>
       <use xlink:href="#DejaVuSans-2212"/>
       <use xlink:href="#DejaVuSans-31" x="83.789062"/>
       <use xlink:href="#DejaVuSans-30" x="147.412109"/>
       <use xlink:href="#DejaVuSans-30" x="211.035156"/>
       <use xlink:href="#DejaVuSans-30" x="274.658203"/>
      </g>
     </g>
    </g>
    <g id="xtick_3">
     <g id="line2d_5">
      <path d="M 245.59125 297.54825 
L 245.59125 31.43625 
" clip-path="url(#p16dad856f7)" style="fill: none; stroke: #b0b0b0; stroke-width: 0.8; stroke-linecap: square"/>
     </g>
     <g id="line2d_6">
      <g>
       <use xlink:href="#md39032bed2" x="245.59125" y="297.54825" style="stroke: #000000; stroke-width: 0.8"/>
      </g>
     </g>
     <g id="text_3">
      <!-- 0 -->
      <g transform="translate(240.819375 315.945906)scale(0.15 -0.15)">
       <use xlink:href="#DejaVuSans-30"/>
      </g>
     </g>
    </g>
    <g id="xtick_4">
     <g id="line2d_7">
      <path d="M 314.666685 297.54825 
L 314.666685 31.43625 
" clip-path="url(#p16dad856f7)" style="fill: none; stroke: #b0b0b0; stroke-width: 0.8; stroke-linecap: square"/>
     </g>
     <g id="line2d_8">
      <g>
       <use xlink:href="#md39032bed2" x="314.666685" y="297.54825" style="stroke: #000000; stroke-width: 0.8"/>
      </g>
     </g>
     <g id="text_4">
      <!-- 1000 -->
      <g transform="translate(295.579185 315.945906)scale(0.15 -0.15)">
       <use xlink:href="#DejaVuSans-31"/>
       <use xlink:href="#DejaVuSans-30" x="63.623047"/>
       <use xlink:href="#DejaVuSans-30" x="127.246094"/>
       <use xlink:href="#DejaVuSans-30" x="190.869141"/>
      </g>
     </g>
    </g>
    <g id="xtick_5">
     <g id="line2d_9">
      <path d="M 383.74212 297.54825 
L 383.74212 31.43625 
" clip-path="url(#p16dad856f7)" style="fill: none; stroke: #b0b0b0; stroke-width: 0.8; stroke-linecap: square"/>
     </g>
     <g id="line2d_10">
      <g>
       <use xlink:href="#md39032bed2" x="383.74212" y="297.54825" style="stroke: #000000; stroke-width: 0.8"/>
      </g>
     </g>
     <g id="text_5">
      <!-- 2000 -->
      <g transform="translate(364.65462 315.945906)scale(0.15 -0.15)">
       <use xlink:href="#DejaVuSans-32"/>
       <use xlink:href="#DejaVuSans-30" x="63.623047"/>
       <use xlink:href="#DejaVuSans-30" x="127.246094"/>
       <use xlink:href="#DejaVuSans-30" x="190.869141"/>
      </g>
     </g>
    </g>
    <g id="text_6">
     <!-- X ($\mu m$) -->
     <g transform="translate(211.59125 338.265437)scale(0.2 -0.2)">
      <defs>
       <path id="DejaVuSans-58" d="M 403 4666 
L 1081 4666 
L 2241 2931 
L 3406 4666 
L 4084 4666 
L 2584 2425 
L 4184 0 
L 3506 0 
L 2194 1984 
L 872 0 
L 191 0 
L 1856 2491 
L 403 4666 
z
" transform="scale(0.015625)"/>
       <path id="DejaVuSans-20" transform="scale(0.015625)"/>
       <path id="DejaVuSans-28" d="M 1984 4856 
Q 1566 4138 1362 3434 
Q 1159 2731 1159 2009 
Q 1159 1288 1364 580 
Q 1569 -128 1984 -844 
L 1484 -844 
Q 1016 -109 783 600 
Q 550 1309 550 2009 
Q 550 2706 781 3412 
Q 1013 4119 1484 4856 
L 1984 4856 
z
" transform="scale(0.015625)"/>
       <path id="DejaVuSans-Oblique-3bc" d="M -84 -1331 
L 856 3500 
L 1434 3500 
L 1009 1322 
Q 997 1256 987 1175 
Q 978 1094 978 1013 
Q 978 722 1161 565 
Q 1344 409 1684 409 
Q 2147 409 2431 671 
Q 2716 934 2816 1459 
L 3213 3500 
L 3788 3500 
L 3266 809 
Q 3253 750 3248 706 
Q 3244 663 3244 628 
Q 3244 531 3283 486 
Q 3322 441 3406 441 
Q 3438 441 3492 456 
Q 3547 472 3647 513 
L 3559 50 
Q 3422 -19 3297 -55 
Q 3172 -91 3053 -91 
Q 2847 -91 2730 40 
Q 2613 172 2613 403 
Q 2438 153 2195 31 
Q 1953 -91 1625 -91 
Q 1334 -91 1117 43 
Q 900 178 831 397 
L 494 -1331 
L -84 -1331 
z
" transform="scale(0.015625)"/>
       <path id="DejaVuSans-Oblique-6d" d="M 5747 2113 
L 5338 0 
L 4763 0 
L 5166 2094 
Q 5191 2228 5203 2325 
Q 5216 2422 5216 2491 
Q 5216 2772 5059 2928 
Q 4903 3084 4622 3084 
Q 4203 3084 3875 2770 
Q 3547 2456 3450 1953 
L 3066 0 
L 2491 0 
L 2900 2094 
Q 2925 2209 2937 2307 
Q 2950 2406 2950 2484 
Q 2950 2769 2794 2926 
Q 2638 3084 2363 3084 
Q 1938 3084 1609 2770 
Q 1281 2456 1184 1953 
L 800 0 
L 225 0 
L 909 3500 
L 1484 3500 
L 1375 2956 
Q 1609 3263 1923 3423 
Q 2238 3584 2597 3584 
Q 2978 3584 3223 3384 
Q 3469 3184 3519 2828 
Q 3781 3197 4126 3390 
Q 4472 3584 4856 3584 
Q 5306 3584 5551 3325 
Q 5797 3066 5797 2591 
Q 5797 2488 5784 2364 
Q 5772 2241 5747 2113 
z
" transform="scale(0.015625)"/>
       <path id="DejaVuSans-29" d="M 513 4856 
L 1013 4856 
Q 1481 4119 1714 3412 
Q 1947 2706 1947 2009 
Q 1947 1309 1714 600 
Q 1481 -109 1013 -844 
L 513 -844 
Q 928 -128 1133 580 
Q 1338 1288 1338 2009 
Q 1338 2731 1133 3434 
Q 928 4138 513 4856 
z
" transform="scale(0.015625)"/>
      </defs>
      <use xlink:href="#DejaVuSans-58" transform="translate(0 0.125)"/>
      <use xlink:href="#DejaVuSans-20" transform="translate(68.505859 0.125)"/>
      <use xlink:href="#DejaVuSans-28" transform="translate(100.292969 0.125)"/>
      <use xlink:href="#DejaVuSans-Oblique-3bc" transform="translate(139.306641 0.125)"/>
      <use xlink:href="#DejaVuSans-Oblique-6d" transform="translate(202.929688 0.125)"/>
      <use xlink:href="#DejaVuSans-29" transform="translate(300.341797 0.125)"/>
     </g>
    </g>
   </g>
   <g id="matplotlib.axis_2">
    <g id="ytick_1">
     <g id="line2d_11">
      <path d="M 67.03125 291.057713 
L 424.15125 291.057713 
" clip-path="url(#p16dad856f7)" style="fill: none; stroke: #b0b0b0; stroke-width: 0.8; stroke-linecap: square"/>
     </g>
     <g id="line2d_12">
      <defs>
       <path id="m6f3f5b6aff" d="M 0 0 
L -3.5 0 
" style="stroke: #000000; stroke-width: 0.8"/>
      </defs>
      <g>
       <use xlink:href="#m6f3f5b6aff" x="67.03125" y="291.057713" style="stroke: #000000; stroke-width: 0.8"/>
      </g>
     </g>
     <g id="text_7">
      <!-- 0 -->
      <g transform="translate(50.4875 296.756542)scale(0.15 -0.15)">
       <use xlink:href="#DejaVuSans-30"/>
      </g>
     </g>
    </g>
    <g id="ytick_2">
     <g id="line2d_13">
      <path d="M 67.03125 247.78747 
L 424.15125 247.78747 
" clip-path="url(#p16dad856f7)" style="fill: none; stroke: #b0b0b0; stroke-width: 0.8; stroke-linecap: square"/>
     </g>
     <g id="line2d_14">
      <g>
       <use xlink:href="#m6f3f5b6aff" x="67.03125" y="247.78747" style="stroke: #000000; stroke-width: 0.8"/>
      </g>
     </g>
     <g id="text_8">
      <!-- 20 -->
      <g transform="translate(40.94375 253.486298)scale(0.15 -0.15)">
       <use xlink:href="#DejaVuSans-32"/>
       <use xlink:href="#DejaVuSans-30" x="63.623047"/>
      </g>
     </g>
    </g>
    <g id="ytick_3">
     <g id="line2d_15">
      <path d="M 67.03125 204.517226 
L 424.15125 204.517226 
" clip-path="url(#p16dad856f7)" style="fill: none; stroke: #b0b0b0; stroke-width: 0.8; stroke-linecap: square"/>
     </g>
     <g id="line2d_16">
      <g>
       <use xlink:href="#m6f3f5b6aff" x="67.03125" y="204.517226" style="stroke: #000000; stroke-width: 0.8"/>
      </g>
     </g>
     <g id="text_9">
      <!-- 40 -->
      <g transform="translate(40.94375 210.216054)scale(0.15 -0.15)">
       <defs>
        <path id="DejaVuSans-34" d="M 2419 4116 
L 825 1625 
L 2419 1625 
L 2419 4116 
z
M 2253 4666 
L 3047 4666 
L 3047 1625 
L 3713 1625 
L 3713 1100 
L 3047 1100 
L 3047 0 
L 2419 0 
L 2419 1100 
L 313 1100 
L 313 1709 
L 2253 4666 
z
" transform="scale(0.015625)"/>
       </defs>
       <use xlink:href="#DejaVuSans-34"/>
       <use xlink:href="#DejaVuSans-30" x="63.623047"/>
      </g>
     </g>
    </g>
    <g id="ytick_4">
     <g id="line2d_17">
      <path d="M 67.03125 161.246982 
L 424.15125 161.246982 
" clip-path="url(#p16dad856f7)" style="fill: none; stroke: #b0b0b0; stroke-width: 0.8; stroke-linecap: square"/>
     </g>
     <g id="line2d_18">
      <g>
       <use xlink:href="#m6f3f5b6aff" x="67.03125" y="161.246982" style="stroke: #000000; stroke-width: 0.8"/>
      </g>
     </g>
     <g id="text_10">
      <!-- 60 -->
      <g transform="translate(40.94375 166.94581)scale(0.15 -0.15)">
       <defs>
        <path id="DejaVuSans-36" d="M 2113 2584 
Q 1688 2584 1439 2293 
Q 1191 2003 1191 1497 
Q 1191 994 1439 701 
Q 1688 409 2113 409 
Q 2538 409 2786 701 
Q 3034 994 3034 1497 
Q 3034 2003 2786 2293 
Q 2538 2584 2113 2584 
z
M 3366 4563 
L 3366 3988 
Q 3128 4100 2886 4159 
Q 2644 4219 2406 4219 
Q 1781 4219 1451 3797 
Q 1122 3375 1075 2522 
Q 1259 2794 1537 2939 
Q 1816 3084 2150 3084 
Q 2853 3084 3261 2657 
Q 3669 2231 3669 1497 
Q 3669 778 3244 343 
Q 2819 -91 2113 -91 
Q 1303 -91 875 529 
Q 447 1150 447 2328 
Q 447 3434 972 4092 
Q 1497 4750 2381 4750 
Q 2619 4750 2861 4703 
Q 3103 4656 3366 4563 
z
" transform="scale(0.015625)"/>
       </defs>
       <use xlink:href="#DejaVuSans-36"/>
       <use xlink:href="#DejaVuSans-30" x="63.623047"/>
      </g>
     </g>
    </g>
    <g id="ytick_5">
     <g id="line2d_19">
      <path d="M 67.03125 117.976738 
L 424.15125 117.976738 
" clip-path="url(#p16dad856f7)" style="fill: none; stroke: #b0b0b0; stroke-width: 0.8; stroke-linecap: square"/>
     </g>
     <g id="line2d_20">
      <g>
       <use xlink:href="#m6f3f5b6aff" x="67.03125" y="117.976738" style="stroke: #000000; stroke-width: 0.8"/>
      </g>
     </g>
     <g id="text_11">
      <!-- 80 -->
      <g transform="translate(40.94375 123.675566)scale(0.15 -0.15)">
       <defs>
        <path id="DejaVuSans-38" d="M 2034 2216 
Q 1584 2216 1326 1975 
Q 1069 1734 1069 1313 
Q 1069 891 1326 650 
Q 1584 409 2034 409 
Q 2484 409 2743 651 
Q 3003 894 3003 1313 
Q 3003 1734 2745 1975 
Q 2488 2216 2034 2216 
z
M 1403 2484 
Q 997 2584 770 2862 
Q 544 3141 544 3541 
Q 544 4100 942 4425 
Q 1341 4750 2034 4750 
Q 2731 4750 3128 4425 
Q 3525 4100 3525 3541 
Q 3525 3141 3298 2862 
Q 3072 2584 2669 2484 
Q 3125 2378 3379 2068 
Q 3634 1759 3634 1313 
Q 3634 634 3220 271 
Q 2806 -91 2034 -91 
Q 1263 -91 848 271 
Q 434 634 434 1313 
Q 434 1759 690 2068 
Q 947 2378 1403 2484 
z
M 1172 3481 
Q 1172 3119 1398 2916 
Q 1625 2713 2034 2713 
Q 2441 2713 2670 2916 
Q 2900 3119 2900 3481 
Q 2900 3844 2670 4047 
Q 2441 4250 2034 4250 
Q 1625 4250 1398 4047 
Q 1172 3844 1172 3481 
z
" transform="scale(0.015625)"/>
       </defs>
       <use xlink:href="#DejaVuSans-38"/>
       <use xlink:href="#DejaVuSans-30" x="63.623047"/>
      </g>
     </g>
    </g>
    <g id="ytick_6">
     <g id="line2d_21">
      <path d="M 67.03125 74.706494 
L 424.15125 74.706494 
" clip-path="url(#p16dad856f7)" style="fill: none; stroke: #b0b0b0; stroke-width: 0.8; stroke-linecap: square"/>
     </g>
     <g id="line2d_22">
      <g>
       <use xlink:href="#m6f3f5b6aff" x="67.03125" y="74.706494" style="stroke: #000000; stroke-width: 0.8"/>
      </g>
     </g>
     <g id="text_12">
      <!-- 100 -->
      <g transform="translate(31.4 80.405322)scale(0.15 -0.15)">
       <use xlink:href="#DejaVuSans-31"/>
       <use xlink:href="#DejaVuSans-30" x="63.623047"/>
       <use xlink:href="#DejaVuSans-30" x="127.246094"/>
      </g>
     </g>
    </g>
    <g id="ytick_7">
     <g id="line2d_23">
      <path d="M 67.03125 31.43625 
L 424.15125 31.43625 
" clip-path="url(#p16dad856f7)" style="fill: none; stroke: #b0b0b0; stroke-width: 0.8; stroke-linecap: square"/>
     </g>
     <g id="line2d_24">
      <g>
       <use xlink:href="#m6f3f5b6aff" x="67.03125" y="31.43625" style="stroke: #000000; stroke-width: 0.8"/>
      </g>
     </g>
     <g id="text_13">
      <!-- 120 -->
      <g transform="translate(31.4 37.135078)scale(0.15 -0.15)">
       <use xlink:href="#DejaVuSans-31"/>
       <use xlink:href="#DejaVuSans-32" x="63.623047"/>
       <use xlink:href="#DejaVuSans-30" x="127.246094"/>
      </g>
     </g>
    </g>
    <g id="text_14">
     <!-- $kHz^2/V^2$ -->
     <g transform="translate(23.240625 203.89225)rotate(-90)scale(0.2 -0.2)">
      <defs>
       <path id="DejaVuSans-Oblique-6b" d="M 1172 4863 
L 1747 4863 
L 1197 2028 
L 3169 3500 
L 3916 3500 
L 1716 1825 
L 3322 0 
L 2625 0 
L 1131 1709 
L 800 0 
L 225 0 
L 1172 4863 
z
" transform="scale(0.015625)"/>
       <path id="DejaVuSans-Oblique-48" d="M 1081 4666 
L 1716 4666 
L 1344 2753 
L 3634 2753 
L 4006 4666 
L 4641 4666 
L 3731 0 
L 3097 0 
L 3531 2222 
L 1241 2222 
L 806 0 
L 172 0 
L 1081 4666 
z
" transform="scale(0.015625)"/>
       <path id="DejaVuSans-Oblique-7a" d="M 744 3500 
L 3475 3500 
L 3372 2975 
L 738 459 
L 2913 459 
L 2822 0 
L -19 0 
L 84 525 
L 2719 3041 
L 653 3041 
L 744 3500 
z
" transform="scale(0.015625)"/>
       <path id="DejaVuSans-2f" d="M 1625 4666 
L 2156 4666 
L 531 -594 
L 0 -594 
L 1625 4666 
z
" transform="scale(0.015625)"/>
       <path id="DejaVuSans-Oblique-56" d="M 1319 0 
L 500 4666 
L 1119 4666 
L 1797 653 
L 4063 4666 
L 4750 4666 
L 2053 0 
L 1319 0 
z
" transform="scale(0.015625)"/>
      </defs>
      <use xlink:href="#DejaVuSans-Oblique-6b" transform="translate(0 0.765625)"/>
      <use xlink:href="#DejaVuSans-Oblique-48" transform="translate(57.910156 0.765625)"/>
      <use xlink:href="#DejaVuSans-Oblique-7a" transform="translate(133.105469 0.765625)"/>
      <use xlink:href="#DejaVuSans-32" transform="translate(190.061849 39.046875)scale(0.7)"/>
      <use xlink:href="#DejaVuSans-2f" transform="translate(237.332357 0.765625)"/>
      <use xlink:href="#DejaVuSans-Oblique-56" transform="translate(271.023763 0.765625)"/>
      <use xlink:href="#DejaVuSans-32" transform="translate(346.448737 39.046875)scale(0.7)"/>
     </g>
    </g>
   </g>
   <g id="line2d_25">
    <path d="M 83.263977 216.57315 
L 83.609354 175.471633 
L 83.954732 115.906199 
L 84.300109 242.682526 
L 84.645486 281.393945 
L 84.990863 289.994675 
L 85.33624 290.79509 
L 85.681618 287.650565 
L 86.026995 281.412332 
L 86.372372 272.135416 
L 87.063126 245.070493 
L 88.099258 200.871735 
L 88.444635 191.000867 
L 88.790012 184.357216 
L 89.135389 179.950032 
L 89.480766 177.221467 
L 90.171521 174.390244 
L 90.516898 173.699363 
L 91.207652 171.406938 
L 91.898407 167.859059 
L 92.589161 162.924705 
L 95.006801 143.449484 
L 95.697556 140.049045 
L 96.38831 137.82268 
L 97.079064 135.806742 
L 97.769819 133.840138 
L 98.460573 130.910385 
L 99.151327 126.759798 
L 101.22359 112.790044 
L 101.914345 110.189269 
L 103.295853 106.590284 
L 103.986608 103.614492 
L 104.677362 99.34848 
L 106.058871 90.106561 
L 106.749625 87.247182 
L 107.095002 85.901753 
L 108.476511 83.337228 
L 109.167265 80.945015 
L 110.548774 74.983921 
L 110.894151 74.202093 
L 111.239529 74.041685 
L 111.584906 74.595219 
L 111.930283 75.835952 
L 112.621037 80.04605 
L 118.147072 121.71565 
L 118.837826 124.406845 
L 119.183204 125.232804 
L 119.528581 125.749078 
L 119.873958 126.005067 
L 120.219335 126.049234 
L 120.910089 125.734651 
L 122.982353 123.977652 
L 123.673107 123.17636 
L 124.363861 121.990069 
L 125.054616 120.234032 
L 126.090747 116.073629 
L 127.126879 110.440472 
L 130.58065 89.129308 
L 131.616782 84.770294 
L 132.652913 81.361167 
L 133.689045 78.646965 
L 134.725176 76.564301 
L 135.415931 75.525646 
L 136.106685 74.784938 
L 136.79744 74.320914 
L 137.488194 74.093151 
L 138.524325 74.063864 
L 140.251211 74.36988 
L 146.122623 75.602936 
L 149.921772 75.949821 
L 155.447807 75.955716 
L 158.901579 75.779619 
L 162.009973 75.490735 
L 165.463745 75.287726 
L 169.608271 74.943585 
L 172.025912 74.777341 
L 175.134306 74.52591 
L 181.005718 74.146749 
L 184.45949 73.89843 
L 186.87713 73.750638 
L 189.640147 73.532431 
L 192.748542 73.38191 
L 206.563629 72.600013 
L 234.884558 71.421993 
L 237.647575 71.39901 
L 240.75597 71.433256 
L 243.518987 71.341216 
L 247.318136 71.156251 
L 253.189548 70.855536 
L 261.823977 70.640365 
L 268.386144 70.438112 
L 271.149161 70.40709 
L 273.221424 70.364318 
L 275.984441 70.275755 
L 278.056705 70.237419 
L 280.819722 70.191906 
L 283.582739 70.173025 
L 285.655002 70.12273 
L 288.41802 70.119914 
L 294.289432 70.0378 
L 298.433958 70.002345 
L 322.264983 69.879531 
L 324.337246 69.878567 
L 326.754886 69.847256 
L 328.827149 69.785715 
L 331.24479 69.70806 
L 334.007807 69.593567 
L 336.425447 69.466237 
L 338.49771 69.288986 
L 344.023745 68.458697 
L 347.13214 67.632326 
L 349.204403 66.794382 
L 351.622043 65.902247 
L 353.003552 65.575059 
L 353.694306 65.579295 
L 354.38506 65.774779 
L 355.075815 66.217739 
L 355.766569 66.949097 
L 356.457324 67.957653 
L 357.493455 69.9728 
L 358.529587 72.548566 
L 359.565718 75.772998 
L 360.60185 79.91547 
L 361.637981 85.30952 
L 363.01949 94.236963 
L 364.400999 103.212856 
L 365.43713 108.43054 
L 366.127884 110.898302 
L 366.818639 112.58541 
L 367.509393 113.614994 
L 368.200147 114.195182 
L 369.236279 114.752274 
L 369.581656 115.149281 
L 370.617788 115.706949 
L 370.963165 115.78412 
L 371.308542 115.701886 
L 371.653919 115.41795 
L 371.999296 114.851907 
L 372.344674 113.956252 
L 373.035428 111.054948 
L 373.726182 106.676538 
L 374.762314 98.209044 
L 379.252217 59.572981 
L 379.597594 58.04142 
L 379.942971 57.297585 
L 380.288349 57.351969 
L 380.633726 58.109467 
L 381.32448 61.010417 
L 382.360612 65.68769 
L 383.051366 67.460404 
L 384.432875 69.564239 
L 384.778252 70.695887 
L 385.469006 74.319937 
L 386.505138 81.786281 
L 387.195892 86.693392 
L 387.886647 89.649914 
L 388.577401 91.36149 
L 389.268155 92.845453 
L 389.613532 93.903154 
L 390.304287 97.171029 
L 390.995041 101.951946 
L 392.37655 112.28832 
L 393.067304 115.910038 
L 393.758059 118.179686 
L 395.139567 121.273406 
L 395.830322 123.910852 
L 396.521076 128.120914 
L 397.21183 133.844376 
L 398.593339 147.197305 
L 399.284093 152.53308 
L 399.629471 154.564173 
L 400.320225 156.942984 
L 401.010979 158.255926 
L 401.356356 158.858079 
L 401.701734 159.886454 
L 402.047111 161.639785 
L 402.392488 165.532094 
L 402.737865 172.210699 
L 403.083242 182.617842 
L 403.773997 215.186953 
L 404.810128 268.752984 
L 405.155505 280.308077 
L 405.500882 287.806916 
L 405.84626 290.967186 
L 406.191637 288.248221 
L 406.537014 271.593271 
L 406.882391 156.357205 
L 407.227768 121.277159 
L 407.573146 178.715122 
L 407.918523 215.716608 
L 407.918523 215.716608 
" clip-path="url(#p16dad856f7)" style="fill: none; stroke: #1f77b4; stroke-width: 1.5; stroke-linecap: square"/>
   </g>
   <g id="line2d_26">
    <path d="M 83.263977 287.691697 
L 83.609354 292.010042 
L 84.300109 290.504494 
L 85.33624 290.854632 
L 86.026995 290.859568 
L 88.099258 291.129744 
L 90.862275 291.050694 
L 98.80595 291.05541 
L 141.287343 291.058169 
L 405.500882 290.971605 
L 405.84626 289.668042 
L 406.191637 291.310155 
L 406.882391 291.07071 
L 407.573146 291.094906 
L 407.918523 291.082566 
L 407.918523 291.082566 
" clip-path="url(#p16dad856f7)" style="fill: none; stroke: #ff7f0e; stroke-width: 1.5; stroke-linecap: square"/>
   </g>
   <g id="line2d_27">
    <path d="M 83.263977 290.905524 
L 83.609354 291.027452 
L 83.954732 290.996787 
L 84.645486 252.345842 
L 84.990863 245.293602 
L 85.33624 242.021295 
L 85.681618 240.681707 
L 86.026995 240.165783 
L 86.372372 240.056201 
L 86.717749 239.656353 
L 87.063126 238.368085 
L 87.408503 235.659056 
L 87.753881 231.218269 
L 88.444635 217.704639 
L 90.171521 179.112947 
L 90.862275 169.2062 
L 91.553029 162.543525 
L 92.243784 158.594968 
L 92.934538 156.20332 
L 93.97067 153.171713 
L 94.661424 150.536056 
L 95.697556 145.219098 
L 96.733687 138.768521 
L 97.424441 134.050654 
L 98.460573 128.326854 
L 99.496705 124.068482 
L 100.532836 120.091624 
L 101.568968 114.906445 
L 103.641231 101.330646 
L 104.331985 98.511355 
L 105.368117 95.80764 
L 106.058871 93.714574 
L 106.749625 90.586397 
L 107.44038 86.157777 
L 108.131134 82.393062 
L 108.821888 79.810634 
L 109.167265 79.117986 
L 109.512643 78.791145 
L 109.85802 78.775609 
L 110.548774 79.229175 
L 111.239529 79.687278 
L 111.930283 79.949166 
L 112.27566 80.213167 
L 112.621037 80.770639 
L 112.966414 81.776604 
L 113.311792 83.346608 
L 114.002546 88.298728 
L 115.038677 99.013349 
L 116.074809 108.634301 
L 116.765563 112.942898 
L 117.456318 115.437227 
L 118.147072 116.702185 
L 118.837826 117.374243 
L 121.255467 119.178688 
L 121.946221 119.351888 
L 122.636975 119.163525 
L 123.32773 118.608614 
L 124.018484 117.71591 
L 124.709238 116.454765 
L 125.054616 115.665734 
L 126.436124 110.981547 
L 127.472256 105.98116 
L 130.58065 88.962001 
L 131.271405 86.893056 
L 131.962159 85.707513 
L 132.652913 85.137088 
L 132.998291 85.105442 
L 134.034422 84.561858 
L 134.725176 83.995715 
L 135.761308 82.79508 
L 138.524325 79.189402 
L 139.560457 78.268376 
L 140.596588 77.653139 
L 141.978097 77.128102 
L 143.704983 76.716598 
L 145.431869 76.567785 
L 153.030167 76.197278 
L 160.283088 75.750378 
L 162.355351 75.559719 
L 164.427614 75.392553 
L 166.845254 75.208904 
L 170.644403 74.925982 
L 184.114113 73.942875 
L 186.87713 73.728385 
L 189.29477 73.597144 
L 192.057788 73.380361 
L 198.274577 73.026271 
L 201.037594 72.871901 
L 203.800612 72.748738 
L 206.218252 72.594838 
L 208.290515 72.520665 
L 210.708155 72.413245 
L 213.125795 72.307544 
L 215.198059 72.224357 
L 217.961076 72.089076 
L 220.724093 71.932686 
L 222.450979 71.858392 
L 225.559374 71.715803 
L 227.631637 71.659717 
L 230.740031 71.524114 
L 233.503049 71.512523 
L 254.225679 70.843461 
L 256.297942 70.794902 
L 259.06096 70.710635 
L 261.823977 70.667072 
L 263.89624 70.579587 
L 265.968503 70.530089 
L 268.386144 70.478848 
L 270.458407 70.401682 
L 272.876047 70.383004 
L 275.984441 70.307298 
L 278.056705 70.263983 
L 280.819722 70.215811 
L 283.237362 70.168508 
L 285.655002 70.145572 
L 288.072643 70.09407 
L 291.526414 70.091757 
L 299.815467 69.970708 
L 302.578484 69.946723 
L 304.996124 69.948433 
L 307.413765 69.916299 
L 309.831405 69.914818 
L 311.558291 69.923184 
L 313.975931 69.882876 
L 316.393571 69.91172 
L 319.156588 69.88675 
L 321.574229 69.893567 
L 323.646492 69.867667 
L 327.100264 69.839987 
L 329.172527 69.837669 
L 331.24479 69.791713 
L 334.007807 69.728747 
L 335.734693 69.680998 
L 339.533842 69.513137 
L 342.296859 69.278127 
L 347.477517 69.035248 
L 349.204403 69.256604 
L 350.585912 69.627582 
L 351.622043 70.14627 
L 352.658175 70.984776 
L 353.694306 72.150281 
L 356.111946 75.146985 
L 356.802701 75.709297 
L 357.493455 76.0354 
L 358.874964 76.455225 
L 359.220341 76.71744 
L 359.911095 77.558849 
L 360.60185 79.527515 
L 361.292604 82.520247 
L 362.328735 88.436198 
L 364.055621 98.573088 
L 365.091753 103.091664 
L 365.782507 105.260775 
L 366.473262 106.854628 
L 367.164016 107.995709 
L 367.85477 108.783762 
L 368.545525 109.216303 
L 369.581656 109.356247 
L 370.272411 108.874818 
L 372.344674 106.696001 
L 373.035428 105.852666 
L 373.380805 105.233614 
L 373.726182 104.378412 
L 374.071559 103.187452 
L 374.762314 99.423952 
L 375.453068 93.564653 
L 377.870708 68.938018 
L 378.216086 67.150427 
L 378.561463 65.970058 
L 378.90684 65.270626 
L 379.597594 64.644272 
L 379.942971 63.759982 
L 380.633726 62.995808 
L 381.32448 62.185452 
L 381.669857 62.032268 
L 382.015235 62.202767 
L 382.360612 62.794258 
L 382.705989 63.826531 
L 383.396743 67.100896 
L 384.778252 74.949444 
L 385.469006 77.471186 
L 386.505138 79.809267 
L 387.886647 85.856678 
L 388.922778 93.029515 
L 389.95891 100.143018 
L 390.649664 103.6589 
L 391.685795 107.46147 
L 392.721927 111.06331 
L 393.412681 114.696814 
L 395.139567 125.786685 
L 396.175699 131.719726 
L 396.866453 134.711505 
L 397.902585 137.996032 
L 398.593339 139.673815 
L 398.938716 140.792996 
L 399.284093 142.311561 
L 399.974848 146.939774 
L 400.665602 155.653624 
L 401.356356 169.37516 
L 402.392488 196.036359 
L 403.083242 214.646293 
L 403.773997 227.167027 
L 404.119374 230.365189 
L 404.464751 231.810098 
L 404.810128 232.182464 
L 405.155505 232.298095 
L 405.500882 232.973112 
L 405.84626 234.929263 
L 406.191637 240.278604 
L 406.537014 251.447841 
L 406.882391 282.525441 
L 407.227768 291.004604 
L 407.918523 291.042369 
L 407.918523 291.042369 
" clip-path="url(#p16dad856f7)" style="fill: none; stroke: #2ca02c; stroke-width: 1.5; stroke-linecap: square"/>
   </g>
   <g id="patch_3">
    <path d="M 67.03125 297.54825 
L 67.03125 31.43625 
" style="fill: none; stroke: #000000; stroke-width: 0.8; stroke-linejoin: miter; stroke-linecap: square"/>
   </g>
   <g id="patch_4">
    <path d="M 424.15125 297.54825 
L 424.15125 31.43625 
" style="fill: none; stroke: #000000; stroke-width: 0.8; stroke-linejoin: miter; stroke-linecap: square"/>
   </g>
   <g id="patch_5">
    <path d="M 67.03125 297.54825 
L 424.15125 297.54825 
" style="fill: none; stroke: #000000; stroke-width: 0.8; stroke-linejoin: miter; stroke-linecap: square"/>
   </g>
   <g id="patch_6">
    <path d="M 67.03125 31.43625 
L 424.15125 31.43625 
" style="fill: none; stroke: #000000; stroke-width: 0.8; stroke-linejoin: miter; stroke-linecap: square"/>
   </g>
   <g id="text_15">
    <!-- Ion Trap Potential Curvature -->
    <g transform="translate(77.90625 25.43625)scale(0.24 -0.24)">
     <defs>
      <path id="DejaVuSans-49" d="M 628 4666 
L 1259 4666 
L 1259 0 
L 628 0 
L 628 4666 
z
" transform="scale(0.015625)"/>
      <path id="DejaVuSans-6f" d="M 1959 3097 
Q 1497 3097 1228 2736 
Q 959 2375 959 1747 
Q 959 1119 1226 758 
Q 1494 397 1959 397 
Q 2419 397 2687 759 
Q 2956 1122 2956 1747 
Q 2956 2369 2687 2733 
Q 2419 3097 1959 3097 
z
M 1959 3584 
Q 2709 3584 3137 3096 
Q 3566 2609 3566 1747 
Q 3566 888 3137 398 
Q 2709 -91 1959 -91 
Q 1206 -91 779 398 
Q 353 888 353 1747 
Q 353 2609 779 3096 
Q 1206 3584 1959 3584 
z
" transform="scale(0.015625)"/>
      <path id="DejaVuSans-6e" d="M 3513 2113 
L 3513 0 
L 2938 0 
L 2938 2094 
Q 2938 2591 2744 2837 
Q 2550 3084 2163 3084 
Q 1697 3084 1428 2787 
Q 1159 2491 1159 1978 
L 1159 0 
L 581 0 
L 581 3500 
L 1159 3500 
L 1159 2956 
Q 1366 3272 1645 3428 
Q 1925 3584 2291 3584 
Q 2894 3584 3203 3211 
Q 3513 2838 3513 2113 
z
" transform="scale(0.015625)"/>
      <path id="DejaVuSans-54" d="M -19 4666 
L 3928 4666 
L 3928 4134 
L 2272 4134 
L 2272 0 
L 1638 0 
L 1638 4134 
L -19 4134 
L -19 4666 
z
" transform="scale(0.015625)"/>
      <path id="DejaVuSans-72" d="M 2631 2963 
Q 2534 3019 2420 3045 
Q 2306 3072 2169 3072 
Q 1681 3072 1420 2755 
Q 1159 2438 1159 1844 
L 1159 0 
L 581 0 
L 581 3500 
L 1159 3500 
L 1159 2956 
Q 1341 3275 1631 3429 
Q 1922 3584 2338 3584 
Q 2397 3584 2469 3576 
Q 2541 3569 2628 3553 
L 2631 2963 
z
" transform="scale(0.015625)"/>
      <path id="DejaVuSans-61" d="M 2194 1759 
Q 1497 1759 1228 1600 
Q 959 1441 959 1056 
Q 959 750 1161 570 
Q 1363 391 1709 391 
Q 2188 391 2477 730 
Q 2766 1069 2766 1631 
L 2766 1759 
L 2194 1759 
z
M 3341 1997 
L 3341 0 
L 2766 0 
L 2766 531 
Q 2569 213 2275 61 
Q 1981 -91 1556 -91 
Q 1019 -91 701 211 
Q 384 513 384 1019 
Q 384 1609 779 1909 
Q 1175 2209 1959 2209 
L 2766 2209 
L 2766 2266 
Q 2766 2663 2505 2880 
Q 2244 3097 1772 3097 
Q 1472 3097 1187 3025 
Q 903 2953 641 2809 
L 641 3341 
Q 956 3463 1253 3523 
Q 1550 3584 1831 3584 
Q 2591 3584 2966 3190 
Q 3341 2797 3341 1997 
z
" transform="scale(0.015625)"/>
      <path id="DejaVuSans-70" d="M 1159 525 
L 1159 -1331 
L 581 -1331 
L 581 3500 
L 1159 3500 
L 1159 2969 
Q 1341 3281 1617 3432 
Q 1894 3584 2278 3584 
Q 2916 3584 3314 3078 
Q 3713 2572 3713 1747 
Q 3713 922 3314 415 
Q 2916 -91 2278 -91 
Q 1894 -91 1617 61 
Q 1341 213 1159 525 
z
M 3116 1747 
Q 3116 2381 2855 2742 
Q 2594 3103 2138 3103 
Q 1681 3103 1420 2742 
Q 1159 2381 1159 1747 
Q 1159 1113 1420 752 
Q 1681 391 2138 391 
Q 2594 391 2855 752 
Q 3116 1113 3116 1747 
z
" transform="scale(0.015625)"/>
      <path id="DejaVuSans-50" d="M 1259 4147 
L 1259 2394 
L 2053 2394 
Q 2494 2394 2734 2622 
Q 2975 2850 2975 3272 
Q 2975 3691 2734 3919 
Q 2494 4147 2053 4147 
L 1259 4147 
z
M 628 4666 
L 2053 4666 
Q 2838 4666 3239 4311 
Q 3641 3956 3641 3272 
Q 3641 2581 3239 2228 
Q 2838 1875 2053 1875 
L 1259 1875 
L 1259 0 
L 628 0 
L 628 4666 
z
" transform="scale(0.015625)"/>
      <path id="DejaVuSans-74" d="M 1172 4494 
L 1172 3500 
L 2356 3500 
L 2356 3053 
L 1172 3053 
L 1172 1153 
Q 1172 725 1289 603 
Q 1406 481 1766 481 
L 2356 481 
L 2356 0 
L 1766 0 
Q 1100 0 847 248 
Q 594 497 594 1153 
L 594 3053 
L 172 3053 
L 172 3500 
L 594 3500 
L 594 4494 
L 1172 4494 
z
" transform="scale(0.015625)"/>
      <path id="DejaVuSans-65" d="M 3597 1894 
L 3597 1613 
L 953 1613 
Q 991 1019 1311 708 
Q 1631 397 2203 397 
Q 2534 397 2845 478 
Q 3156 559 3463 722 
L 3463 178 
Q 3153 47 2828 -22 
Q 2503 -91 2169 -91 
Q 1331 -91 842 396 
Q 353 884 353 1716 
Q 353 2575 817 3079 
Q 1281 3584 2069 3584 
Q 2775 3584 3186 3129 
Q 3597 2675 3597 1894 
z
M 3022 2063 
Q 3016 2534 2758 2815 
Q 2500 3097 2075 3097 
Q 1594 3097 1305 2825 
Q 1016 2553 972 2059 
L 3022 2063 
z
" transform="scale(0.015625)"/>
      <path id="DejaVuSans-69" d="M 603 3500 
L 1178 3500 
L 1178 0 
L 603 0 
L 603 3500 
z
M 603 4863 
L 1178 4863 
L 1178 4134 
L 603 4134 
L 603 4863 
z
" transform="scale(0.015625)"/>
      <path id="DejaVuSans-6c" d="M 603 4863 
L 1178 4863 
L 1178 0 
L 603 0 
L 603 4863 
z
" transform="scale(0.015625)"/>
      <path id="DejaVuSans-43" d="M 4122 4306 
L 4122 3641 
Q 3803 3938 3442 4084 
Q 3081 4231 2675 4231 
Q 1875 4231 1450 3742 
Q 1025 3253 1025 2328 
Q 1025 1406 1450 917 
Q 1875 428 2675 428 
Q 3081 428 3442 575 
Q 3803 722 4122 1019 
L 4122 359 
Q 3791 134 3420 21 
Q 3050 -91 2638 -91 
Q 1578 -91 968 557 
Q 359 1206 359 2328 
Q 359 3453 968 4101 
Q 1578 4750 2638 4750 
Q 3056 4750 3426 4639 
Q 3797 4528 4122 4306 
z
" transform="scale(0.015625)"/>
      <path id="DejaVuSans-75" d="M 544 1381 
L 544 3500 
L 1119 3500 
L 1119 1403 
Q 1119 906 1312 657 
Q 1506 409 1894 409 
Q 2359 409 2629 706 
Q 2900 1003 2900 1516 
L 2900 3500 
L 3475 3500 
L 3475 0 
L 2900 0 
L 2900 538 
Q 2691 219 2414 64 
Q 2138 -91 1772 -91 
Q 1169 -91 856 284 
Q 544 659 544 1381 
z
M 1991 3584 
L 1991 3584 
z
" transform="scale(0.015625)"/>
      <path id="DejaVuSans-76" d="M 191 3500 
L 800 3500 
L 1894 563 
L 2988 3500 
L 3597 3500 
L 2284 0 
L 1503 0 
L 191 3500 
z
" transform="scale(0.015625)"/>
     </defs>
     <use xlink:href="#DejaVuSans-49"/>
     <use xlink:href="#DejaVuSans-6f" x="29.492188"/>
     <use xlink:href="#DejaVuSans-6e" x="90.673828"/>
     <use xlink:href="#DejaVuSans-20" x="154.052734"/>
     <use xlink:href="#DejaVuSans-54" x="185.839844"/>
     <use xlink:href="#DejaVuSans-72" x="232.173828"/>
     <use xlink:href="#DejaVuSans-61" x="273.287109"/>
     <use xlink:href="#DejaVuSans-70" x="334.566406"/>
     <use xlink:href="#DejaVuSans-20" x="398.042969"/>
     <use xlink:href="#DejaVuSans-50" x="429.830078"/>
     <use xlink:href="#DejaVuSans-6f" x="486.507812"/>
     <use xlink:href="#DejaVuSans-74" x="547.689453"/>
     <use xlink:href="#DejaVuSans-65" x="586.898438"/>
     <use xlink:href="#DejaVuSans-6e" x="648.421875"/>
     <use xlink:href="#DejaVuSans-74" x="711.800781"/>
     <use xlink:href="#DejaVuSans-69" x="751.009766"/>
     <use xlink:href="#DejaVuSans-61" x="778.792969"/>
     <use xlink:href="#DejaVuSans-6c" x="840.072266"/>
     <use xlink:href="#DejaVuSans-20" x="867.855469"/>
     <use xlink:href="#DejaVuSans-43" x="899.642578"/>
     <use xlink:href="#DejaVuSans-75" x="969.466797"/>
     <use xlink:href="#DejaVuSans-72" x="1032.845703"/>
     <use xlink:href="#DejaVuSans-76" x="1073.958984"/>
     <use xlink:href="#DejaVuSans-61" x="1133.138672"/>
     <use xlink:href="#DejaVuSans-74" x="1194.417969"/>
     <use xlink:href="#DejaVuSans-75" x="1233.626953"/>
     <use xlink:href="#DejaVuSans-72" x="1297.005859"/>
     <use xlink:href="#DejaVuSans-65" x="1335.869141"/>
    </g>
   </g>
   <g id="legend_1">
    <g id="patch_7">
     <path d="M 195.99125 287.54825 
L 295.19125 287.54825 
Q 299.19125 287.54825 299.19125 283.54825 
L 299.19125 194.395125 
Q 299.19125 190.395125 295.19125 190.395125 
L 195.99125 190.395125 
Q 191.99125 190.395125 191.99125 194.395125 
L 191.99125 283.54825 
Q 191.99125 287.54825 195.99125 287.54825 
z
" style="fill: #ffffff; opacity: 0.8; stroke: #cccccc; stroke-linejoin: miter"/>
    </g>
    <g id="line2d_28">
     <path d="M 199.99125 209.595125 
L 219.99125 209.595125 
L 239.99125 209.595125 
" style="fill: none; stroke: #1f77b4; stroke-width: 1.5; stroke-linecap: square"/>
    </g>
    <g id="text_16">
     <!-- $y^2$ -->
     <g transform="translate(255.99125 216.595125)scale(0.2 -0.2)">
      <defs>
       <path id="DejaVuSans-Oblique-79" d="M 1588 -325 
Q 1188 -997 936 -1164 
Q 684 -1331 294 -1331 
L -159 -1331 
L -63 -850 
L 269 -850 
Q 509 -850 678 -719 
Q 847 -588 1056 -206 
L 1234 128 
L 459 3500 
L 1069 3500 
L 1650 819 
L 3256 3500 
L 3859 3500 
L 1588 -325 
z
" transform="scale(0.015625)"/>
      </defs>
      <use xlink:href="#DejaVuSans-Oblique-79" transform="translate(0 0.765625)"/>
      <use xlink:href="#DejaVuSans-32" transform="translate(63.645833 39.046875)scale(0.7)"/>
     </g>
    </g>
    <g id="line2d_29">
     <path d="M 199.99125 238.992 
L 219.99125 238.992 
L 239.99125 238.992 
" style="fill: none; stroke: #ff7f0e; stroke-width: 1.5; stroke-linecap: square"/>
    </g>
    <g id="text_17">
     <!-- $2yz$ -->
     <g transform="translate(255.99125 245.992)scale(0.2 -0.2)">
      <use xlink:href="#DejaVuSans-32" transform="translate(0 0.78125)"/>
      <use xlink:href="#DejaVuSans-Oblique-79" transform="translate(63.623047 0.78125)"/>
      <use xlink:href="#DejaVuSans-Oblique-7a" transform="translate(122.802734 0.78125)"/>
     </g>
    </g>
    <g id="line2d_30">
     <path d="M 199.99125 268.388875 
L 219.99125 268.388875 
L 239.99125 268.388875 
" style="fill: none; stroke: #2ca02c; stroke-width: 1.5; stroke-linecap: square"/>
    </g>
    <g id="text_18">
     <!-- $z^2$ -->
     <g transform="translate(255.99125 275.388875)scale(0.2 -0.2)">
      <use xlink:href="#DejaVuSans-Oblique-7a" transform="translate(0 0.765625)"/>
      <use xlink:href="#DejaVuSans-32" transform="translate(56.95638 39.046875)scale(0.7)"/>
     </g>
    </g>
   </g>
  </g>
 </g>
 <defs>
  <clipPath id="p16dad856f7">
   <rect x="67.03125" y="31.43625" width="357.12" height="266.112"/>
  </clipPath>
 </defs>
</svg>
