<?xml version="1.0" encoding="utf-8" standalone="no"?>
<!DOCTYPE svg PUBLIC "-//W3C//DTD SVG 1.1//EN"
  "http://www.w3.org/Graphics/SVG/1.1/DTD/svg11.dtd">
<svg xmlns:xlink="http://www.w3.org/1999/xlink" width="444.818437pt" height="349.665437pt" viewBox="0 0 444.818437 349.665437" xmlns="http://www.w3.org/2000/svg" version="1.1">
 <defs>
  <style type="text/css">*{stroke-linejoin: round; stroke-linecap: butt}</style>
 </defs>
 <g id="figure_1">
  <g id="patch_1">
   <path d="M 0 349.665437 
L 444.818437 349.665437 
L 444.818437 0 
L 0 0 
L 0 349.665437 
z
" style="fill: none"/>
  </g>
  <g id="axes_1">
   <g id="patch_2">
    <path d="M 80.498437 297.54825 
L 437.618438 297.54825 
L 437.618438 31.43625 
L 80.498437 31.43625 
L 80.498437 297.54825 
z
" style="fill: none"/>
   </g>
   <g id="matplotlib.axis_1">
    <g id="xtick_1">
     <g id="line2d_1">
      <path d="M 112.428747 297.54825 
L 112.428747 31.43625 
" clip-path="url(#p4657dec8a1)" style="fill: none; stroke: #b0b0b0; stroke-width: 0.8; stroke-linecap: square"/>
     </g>
     <g id="line2d_2">
      <defs>
       <path id="md39032bed2" d="M 0 0 
L 0 3.5 
" style="stroke: #000000; stroke-width: 0.8"/>
      </defs>
      <g>
       <use xlink:href="#md39032bed2" x="112.428747" y="297.54825" style="stroke: #000000; stroke-width: 0.8"/>
      </g>
     </g>
     <g id="text_1">
      <!-- −3000 -->
      <g transform="translate(87.056482 315.945906)scale(0.15 -0.15)">
       <defs>
        <path id="DejaVuSans-2212" d="M 678 2272 
L 4684 2272 
L 4684 1741 
L 678 1741 
L 678 2272 
z
" transform="scale(0.015625)"/>
        <path id="DejaVuSans-33" d="M 2597 2516 
Q 3050 2419 3304 2112 
Q 3559 1806 3559 1356 
Q 3559 666 3084 287 
Q 2609 -91 1734 -91 
Q 1441 -91 1130 -33 
Q 819 25 488 141 
L 488 750 
Q 750 597 1062 519 
Q 1375 441 1716 441 
Q 2309 441 2620 675 
Q 2931 909 2931 1356 
Q 2931 1769 2642 2001 
Q 2353 2234 1838 2234 
L 1294 2234 
L 1294 2753 
L 1863 2753 
Q 2328 2753 2575 2939 
Q 2822 3125 2822 3475 
Q 2822 3834 2567 4026 
Q 2313 4219 1838 4219 
Q 1578 4219 1281 4162 
Q 984 4106 628 3988 
L 628 4550 
Q 988 4650 1302 4700 
Q 1616 4750 1894 4750 
Q 2613 4750 3031 4423 
Q 3450 4097 3450 3541 
Q 3450 3153 3228 2886 
Q 3006 2619 2597 2516 
z
" transform="scale(0.015625)"/>
        <path id="DejaVuSans-30" d="M 2034 4250 
Q 1547 4250 1301 3770 
Q 1056 3291 1056 2328 
Q 1056 1369 1301 889 
Q 1547 409 2034 409 
Q 2525 409 2770 889 
Q 3016 1369 3016 2328 
Q 3016 3291 2770 3770 
Q 2525 4250 2034 4250 
z
M 2034 4750 
Q 2819 4750 3233 4129 
Q 3647 3509 3647 2328 
Q 3647 1150 3233 529 
Q 2819 -91 2034 -91 
Q 1250 -91 836 529 
Q 422 1150 422 2328 
Q 422 3509 836 4129 
Q 1250 4750 2034 4750 
z
" transform="scale(0.015625)"/>
       </defs>
       <use xlink:href="#DejaVuSans-2212"/>
       <use xlink:href="#DejaVuSans-33" x="83.789062"/>
       <use xlink:href="#DejaVuSans-30" x="147.412109"/>
       <use xlink:href="#DejaVuSans-30" x="211.035156"/>
       <use xlink:href="#DejaVuSans-30" x="274.658203"/>
      </g>
     </g>
    </g>
    <g id="xtick_2">
     <g id="line2d_3">
      <path d="M 183.781395 297.54825 
L 183.781395 31.43625 
" clip-path="url(#p4657dec8a1)" style="fill: none; stroke: #b0b0b0; stroke-width: 0.8; stroke-linecap: square"/>
     </g>
     <g id="line2d_4">
      <g>
       <use xlink:href="#md39032bed2" x="183.781395" y="297.54825" style="stroke: #000000; stroke-width: 0.8"/>
      </g>
     </g>
     <g id="text_2">
      <!-- −2000 -->
      <g transform="translate(158.409129 315.945906)scale(0.15 -0.15)">
       <defs>
        <path id="DejaVuSans-32" d="M 1228 531 
L 3431 531 
L 3431 0 
L 469 0 
L 469 531 
Q 828 903 1448 1529 
Q 2069 2156 2228 2338 
Q 2531 2678 2651 2914 
Q 2772 3150 2772 3378 
Q 2772 3750 2511 3984 
Q 2250 4219 1831 4219 
Q 1534 4219 1204 4116 
Q 875 4013 500 3803 
L 500 4441 
Q 881 4594 1212 4672 
Q 1544 4750 1819 4750 
Q 2544 4750 2975 4387 
Q 3406 4025 3406 3419 
Q 3406 3131 3298 2873 
Q 3191 2616 2906 2266 
Q 2828 2175 2409 1742 
Q 1991 1309 1228 531 
z
" transform="scale(0.015625)"/>
       </defs>
       <use xlink:href="#DejaVuSans-2212"/>
       <use xlink:href="#DejaVuSans-32" x="83.789062"/>
       <use xlink:href="#DejaVuSans-30" x="147.412109"/>
       <use xlink:href="#DejaVuSans-30" x="211.035156"/>
       <use xlink:href="#DejaVuSans-30" x="274.658203"/>
      </g>
     </g>
    </g>
    <g id="xtick_3">
     <g id="line2d_5">
      <path d="M 255.134042 297.54825 
L 255.134042 31.43625 
" clip-path="url(#p4657dec8a1)" style="fill: none; stroke: #b0b0b0; stroke-width: 0.8; stroke-linecap: square"/>
     </g>
     <g id="line2d_6">
      <g>
       <use xlink:href="#md39032bed2" x="255.134042" y="297.54825" style="stroke: #000000; stroke-width: 0.8"/>
      </g>
     </g>
     <g id="text_3">
      <!-- −1000 -->
      <g transform="translate(229.761776 315.945906)scale(0.15 -0.15)">
       <defs>
        <path id="DejaVuSans-31" d="M 794 531 
L 1825 531 
L 1825 4091 
L 703 3866 
L 703 4441 
L 1819 4666 
L 2450 4666 
L 2450 531 
L 3481 531 
L 3481 0 
L 794 0 
L 794 531 
z
" transform="scale(0.015625)"/>
       </defs>
       <use xlink:href="#DejaVuSans-2212"/>
       <use xlink:href="#DejaVuSans-31" x="83.789062"/>
       <use xlink:href="#DejaVuSans-30" x="147.412109"/>
       <use xlink:href="#DejaVuSans-30" x="211.035156"/>
       <use xlink:href="#DejaVuSans-30" x="274.658203"/>
      </g>
     </g>
    </g>
    <g id="xtick_4">
     <g id="line2d_7">
      <path d="M 326.486689 297.54825 
L 326.486689 31.43625 
" clip-path="url(#p4657dec8a1)" style="fill: none; stroke: #b0b0b0; stroke-width: 0.8; stroke-linecap: square"/>
     </g>
     <g id="line2d_8">
      <g>
       <use xlink:href="#md39032bed2" x="326.486689" y="297.54825" style="stroke: #000000; stroke-width: 0.8"/>
      </g>
     </g>
     <g id="text_4">
      <!-- 0 -->
      <g transform="translate(321.714814 315.945906)scale(0.15 -0.15)">
       <use xlink:href="#DejaVuSans-30"/>
      </g>
     </g>
    </g>
    <g id="xtick_5">
     <g id="line2d_9">
      <path d="M 397.839337 297.54825 
L 397.839337 31.43625 
" clip-path="url(#p4657dec8a1)" style="fill: none; stroke: #b0b0b0; stroke-width: 0.8; stroke-linecap: square"/>
     </g>
     <g id="line2d_10">
      <g>
       <use xlink:href="#md39032bed2" x="397.839337" y="297.54825" style="stroke: #000000; stroke-width: 0.8"/>
      </g>
     </g>
     <g id="text_5">
      <!-- 1000 -->
      <g transform="translate(378.751837 315.945906)scale(0.15 -0.15)">
       <use xlink:href="#DejaVuSans-31"/>
       <use xlink:href="#DejaVuSans-30" x="63.623047"/>
       <use xlink:href="#DejaVuSans-30" x="127.246094"/>
       <use xlink:href="#DejaVuSans-30" x="190.869141"/>
      </g>
     </g>
    </g>
    <g id="text_6">
     <!-- X ($\mu m$) -->
     <g transform="translate(225.058437 338.265437)scale(0.2 -0.2)">
      <defs>
       <path id="DejaVuSans-58" d="M 403 4666 
L 1081 4666 
L 2241 2931 
L 3406 4666 
L 4084 4666 
L 2584 2425 
L 4184 0 
L 3506 0 
L 2194 1984 
L 872 0 
L 191 0 
L 1856 2491 
L 403 4666 
z
" transform="scale(0.015625)"/>
       <path id="DejaVuSans-20" transform="scale(0.015625)"/>
       <path id="DejaVuSans-28" d="M 1984 4856 
Q 1566 4138 1362 3434 
Q 1159 2731 1159 2009 
Q 1159 1288 1364 580 
Q 1569 -128 1984 -844 
L 1484 -844 
Q 1016 -109 783 600 
Q 550 1309 550 2009 
Q 550 2706 781 3412 
Q 1013 4119 1484 4856 
L 1984 4856 
z
" transform="scale(0.015625)"/>
       <path id="DejaVuSans-Oblique-3bc" d="M -84 -1331 
L 856 3500 
L 1434 3500 
L 1009 1322 
Q 997 1256 987 1175 
Q 978 1094 978 1013 
Q 978 722 1161 565 
Q 1344 409 1684 409 
Q 2147 409 2431 671 
Q 2716 934 2816 1459 
L 3213 3500 
L 3788 3500 
L 3266 809 
Q 3253 750 3248 706 
Q 3244 663 3244 628 
Q 3244 531 3283 486 
Q 3322 441 3406 441 
Q 3438 441 3492 456 
Q 3547 472 3647 513 
L 3559 50 
Q 3422 -19 3297 -55 
Q 3172 -91 3053 -91 
Q 2847 -91 2730 40 
Q 2613 172 2613 403 
Q 2438 153 2195 31 
Q 1953 -91 1625 -91 
Q 1334 -91 1117 43 
Q 900 178 831 397 
L 494 -1331 
L -84 -1331 
z
" transform="scale(0.015625)"/>
       <path id="DejaVuSans-Oblique-6d" d="M 5747 2113 
L 5338 0 
L 4763 0 
L 5166 2094 
Q 5191 2228 5203 2325 
Q 5216 2422 5216 2491 
Q 5216 2772 5059 2928 
Q 4903 3084 4622 3084 
Q 4203 3084 3875 2770 
Q 3547 2456 3450 1953 
L 3066 0 
L 2491 0 
L 2900 2094 
Q 2925 2209 2937 2307 
Q 2950 2406 2950 2484 
Q 2950 2769 2794 2926 
Q 2638 3084 2363 3084 
Q 1938 3084 1609 2770 
Q 1281 2456 1184 1953 
L 800 0 
L 225 0 
L 909 3500 
L 1484 3500 
L 1375 2956 
Q 1609 3263 1923 3423 
Q 2238 3584 2597 3584 
Q 2978 3584 3223 3384 
Q 3469 3184 3519 2828 
Q 3781 3197 4126 3390 
Q 4472 3584 4856 3584 
Q 5306 3584 5551 3325 
Q 5797 3066 5797 2591 
Q 5797 2488 5784 2364 
Q 5772 2241 5747 2113 
z
" transform="scale(0.015625)"/>
       <path id="DejaVuSans-29" d="M 513 4856 
L 1013 4856 
Q 1481 4119 1714 3412 
Q 1947 2706 1947 2009 
Q 1947 1309 1714 600 
Q 1481 -109 1013 -844 
L 513 -844 
Q 928 -128 1133 580 
Q 1338 1288 1338 2009 
Q 1338 2731 1133 3434 
Q 928 4138 513 4856 
z
" transform="scale(0.015625)"/>
      </defs>
      <use xlink:href="#DejaVuSans-58" transform="translate(0 0.125)"/>
      <use xlink:href="#DejaVuSans-20" transform="translate(68.505859 0.125)"/>
      <use xlink:href="#DejaVuSans-28" transform="translate(100.292969 0.125)"/>
      <use xlink:href="#DejaVuSans-Oblique-3bc" transform="translate(139.306641 0.125)"/>
      <use xlink:href="#DejaVuSans-Oblique-6d" transform="translate(202.929688 0.125)"/>
      <use xlink:href="#DejaVuSans-29" transform="translate(300.341797 0.125)"/>
     </g>
    </g>
   </g>
   <g id="matplotlib.axis_2">
    <g id="ytick_1">
     <g id="line2d_11">
      <path d="M 80.498437 297.54825 
L 437.618438 297.54825 
" clip-path="url(#p4657dec8a1)" style="fill: none; stroke: #b0b0b0; stroke-width: 0.8; stroke-linecap: square"/>
     </g>
     <g id="line2d_12">
      <defs>
       <path id="m6f3f5b6aff" d="M 0 0 
L -3.5 0 
" style="stroke: #000000; stroke-width: 0.8"/>
      </defs>
      <g>
       <use xlink:href="#m6f3f5b6aff" x="80.498437" y="297.54825" style="stroke: #000000; stroke-width: 0.8"/>
      </g>
     </g>
     <g id="text_7">
      <!-- 22.50 -->
      <g transform="translate(30.55625 303.247078)scale(0.15 -0.15)">
       <defs>
        <path id="DejaVuSans-2e" d="M 684 794 
L 1344 794 
L 1344 0 
L 684 0 
L 684 794 
z
" transform="scale(0.015625)"/>
        <path id="DejaVuSans-35" d="M 691 4666 
L 3169 4666 
L 3169 4134 
L 1269 4134 
L 1269 2991 
Q 1406 3038 1543 3061 
Q 1681 3084 1819 3084 
Q 2600 3084 3056 2656 
Q 3513 2228 3513 1497 
Q 3513 744 3044 326 
Q 2575 -91 1722 -91 
Q 1428 -91 1123 -41 
Q 819 9 494 109 
L 494 744 
Q 775 591 1075 516 
Q 1375 441 1709 441 
Q 2250 441 2565 725 
Q 2881 1009 2881 1497 
Q 2881 1984 2565 2268 
Q 2250 2553 1709 2553 
Q 1456 2553 1204 2497 
Q 953 2441 691 2322 
L 691 4666 
z
" transform="scale(0.015625)"/>
       </defs>
       <use xlink:href="#DejaVuSans-32"/>
       <use xlink:href="#DejaVuSans-32" x="63.623047"/>
       <use xlink:href="#DejaVuSans-2e" x="127.246094"/>
       <use xlink:href="#DejaVuSans-35" x="159.033203"/>
       <use xlink:href="#DejaVuSans-30" x="222.65625"/>
      </g>
     </g>
    </g>
    <g id="ytick_2">
     <g id="line2d_13">
      <path d="M 80.498437 264.28425 
L 437.618438 264.28425 
" clip-path="url(#p4657dec8a1)" style="fill: none; stroke: #b0b0b0; stroke-width: 0.8; stroke-linecap: square"/>
     </g>
     <g id="line2d_14">
      <g>
       <use xlink:href="#m6f3f5b6aff" x="80.498437" y="264.28425" style="stroke: #000000; stroke-width: 0.8"/>
      </g>
     </g>
     <g id="text_8">
      <!-- 22.75 -->
      <g transform="translate(30.55625 269.983078)scale(0.15 -0.15)">
       <defs>
        <path id="DejaVuSans-37" d="M 525 4666 
L 3525 4666 
L 3525 4397 
L 1831 0 
L 1172 0 
L 2766 4134 
L 525 4134 
L 525 4666 
z
" transform="scale(0.015625)"/>
       </defs>
       <use xlink:href="#DejaVuSans-32"/>
       <use xlink:href="#DejaVuSans-32" x="63.623047"/>
       <use xlink:href="#DejaVuSans-2e" x="127.246094"/>
       <use xlink:href="#DejaVuSans-37" x="159.033203"/>
       <use xlink:href="#DejaVuSans-35" x="222.65625"/>
      </g>
     </g>
    </g>
    <g id="ytick_3">
     <g id="line2d_15">
      <path d="M 80.498437 231.02025 
L 437.618438 231.02025 
" clip-path="url(#p4657dec8a1)" style="fill: none; stroke: #b0b0b0; stroke-width: 0.8; stroke-linecap: square"/>
     </g>
     <g id="line2d_16">
      <g>
       <use xlink:href="#m6f3f5b6aff" x="80.498437" y="231.02025" style="stroke: #000000; stroke-width: 0.8"/>
      </g>
     </g>
     <g id="text_9">
      <!-- 23.00 -->
      <g transform="translate(30.55625 236.719078)scale(0.15 -0.15)">
       <use xlink:href="#DejaVuSans-32"/>
       <use xlink:href="#DejaVuSans-33" x="63.623047"/>
       <use xlink:href="#DejaVuSans-2e" x="127.246094"/>
       <use xlink:href="#DejaVuSans-30" x="159.033203"/>
       <use xlink:href="#DejaVuSans-30" x="222.65625"/>
      </g>
     </g>
    </g>
    <g id="ytick_4">
     <g id="line2d_17">
      <path d="M 80.498437 197.75625 
L 437.618438 197.75625 
" clip-path="url(#p4657dec8a1)" style="fill: none; stroke: #b0b0b0; stroke-width: 0.8; stroke-linecap: square"/>
     </g>
     <g id="line2d_18">
      <g>
       <use xlink:href="#m6f3f5b6aff" x="80.498437" y="197.75625" style="stroke: #000000; stroke-width: 0.8"/>
      </g>
     </g>
     <g id="text_10">
      <!-- 23.25 -->
      <g transform="translate(30.55625 203.455078)scale(0.15 -0.15)">
       <use xlink:href="#DejaVuSans-32"/>
       <use xlink:href="#DejaVuSans-33" x="63.623047"/>
       <use xlink:href="#DejaVuSans-2e" x="127.246094"/>
       <use xlink:href="#DejaVuSans-32" x="159.033203"/>
       <use xlink:href="#DejaVuSans-35" x="222.65625"/>
      </g>
     </g>
    </g>
    <g id="ytick_5">
     <g id="line2d_19">
      <path d="M 80.498437 164.49225 
L 437.618438 164.49225 
" clip-path="url(#p4657dec8a1)" style="fill: none; stroke: #b0b0b0; stroke-width: 0.8; stroke-linecap: square"/>
     </g>
     <g id="line2d_20">
      <g>
       <use xlink:href="#m6f3f5b6aff" x="80.498437" y="164.49225" style="stroke: #000000; stroke-width: 0.8"/>
      </g>
     </g>
     <g id="text_11">
      <!-- 23.50 -->
      <g transform="translate(30.55625 170.191078)scale(0.15 -0.15)">
       <use xlink:href="#DejaVuSans-32"/>
       <use xlink:href="#DejaVuSans-33" x="63.623047"/>
       <use xlink:href="#DejaVuSans-2e" x="127.246094"/>
       <use xlink:href="#DejaVuSans-35" x="159.033203"/>
       <use xlink:href="#DejaVuSans-30" x="222.65625"/>
      </g>
     </g>
    </g>
    <g id="ytick_6">
     <g id="line2d_21">
      <path d="M 80.498437 131.22825 
L 437.618438 131.22825 
" clip-path="url(#p4657dec8a1)" style="fill: none; stroke: #b0b0b0; stroke-width: 0.8; stroke-linecap: square"/>
     </g>
     <g id="line2d_22">
      <g>
       <use xlink:href="#m6f3f5b6aff" x="80.498437" y="131.22825" style="stroke: #000000; stroke-width: 0.8"/>
      </g>
     </g>
     <g id="text_12">
      <!-- 23.75 -->
      <g transform="translate(30.55625 136.927078)scale(0.15 -0.15)">
       <use xlink:href="#DejaVuSans-32"/>
       <use xlink:href="#DejaVuSans-33" x="63.623047"/>
       <use xlink:href="#DejaVuSans-2e" x="127.246094"/>
       <use xlink:href="#DejaVuSans-37" x="159.033203"/>
       <use xlink:href="#DejaVuSans-35" x="222.65625"/>
      </g>
     </g>
    </g>
    <g id="ytick_7">
     <g id="line2d_23">
      <path d="M 80.498437 97.96425 
L 437.618438 97.96425 
" clip-path="url(#p4657dec8a1)" style="fill: none; stroke: #b0b0b0; stroke-width: 0.8; stroke-linecap: square"/>
     </g>
     <g id="line2d_24">
      <g>
       <use xlink:href="#m6f3f5b6aff" x="80.498437" y="97.96425" style="stroke: #000000; stroke-width: 0.8"/>
      </g>
     </g>
     <g id="text_13">
      <!-- 24.00 -->
      <g transform="translate(30.55625 103.663078)scale(0.15 -0.15)">
       <defs>
        <path id="DejaVuSans-34" d="M 2419 4116 
L 825 1625 
L 2419 1625 
L 2419 4116 
z
M 2253 4666 
L 3047 4666 
L 3047 1625 
L 3713 1625 
L 3713 1100 
L 3047 1100 
L 3047 0 
L 2419 0 
L 2419 1100 
L 313 1100 
L 313 1709 
L 2253 4666 
z
" transform="scale(0.015625)"/>
       </defs>
       <use xlink:href="#DejaVuSans-32"/>
       <use xlink:href="#DejaVuSans-34" x="63.623047"/>
       <use xlink:href="#DejaVuSans-2e" x="127.246094"/>
       <use xlink:href="#DejaVuSans-30" x="159.033203"/>
       <use xlink:href="#DejaVuSans-30" x="222.65625"/>
      </g>
     </g>
    </g>
    <g id="ytick_8">
     <g id="line2d_25">
      <path d="M 80.498437 64.70025 
L 437.618438 64.70025 
" clip-path="url(#p4657dec8a1)" style="fill: none; stroke: #b0b0b0; stroke-width: 0.8; stroke-linecap: square"/>
     </g>
     <g id="line2d_26">
      <g>
       <use xlink:href="#m6f3f5b6aff" x="80.498437" y="64.70025" style="stroke: #000000; stroke-width: 0.8"/>
      </g>
     </g>
     <g id="text_14">
      <!-- 24.25 -->
      <g transform="translate(30.55625 70.399078)scale(0.15 -0.15)">
       <use xlink:href="#DejaVuSans-32"/>
       <use xlink:href="#DejaVuSans-34" x="63.623047"/>
       <use xlink:href="#DejaVuSans-2e" x="127.246094"/>
       <use xlink:href="#DejaVuSans-32" x="159.033203"/>
       <use xlink:href="#DejaVuSans-35" x="222.65625"/>
      </g>
     </g>
    </g>
    <g id="ytick_9">
     <g id="line2d_27">
      <path d="M 80.498437 31.43625 
L 437.618438 31.43625 
" clip-path="url(#p4657dec8a1)" style="fill: none; stroke: #b0b0b0; stroke-width: 0.8; stroke-linecap: square"/>
     </g>
     <g id="line2d_28">
      <g>
       <use xlink:href="#m6f3f5b6aff" x="80.498437" y="31.43625" style="stroke: #000000; stroke-width: 0.8"/>
      </g>
     </g>
     <g id="text_15">
      <!-- 24.50 -->
      <g transform="translate(30.55625 37.135078)scale(0.15 -0.15)">
       <use xlink:href="#DejaVuSans-32"/>
       <use xlink:href="#DejaVuSans-34" x="63.623047"/>
       <use xlink:href="#DejaVuSans-2e" x="127.246094"/>
       <use xlink:href="#DejaVuSans-35" x="159.033203"/>
       <use xlink:href="#DejaVuSans-30" x="222.65625"/>
      </g>
     </g>
    </g>
    <g id="text_16">
     <!-- $mm^{-2}$ -->
     <g transform="translate(22.396875 195.09225)rotate(-90)scale(0.2 -0.2)">
      <use xlink:href="#DejaVuSans-Oblique-6d" transform="translate(0 0.765625)"/>
      <use xlink:href="#DejaVuSans-Oblique-6d" transform="translate(97.412109 0.765625)"/>
      <use xlink:href="#DejaVuSans-2212" transform="translate(199.474115 39.046875)scale(0.7)"/>
      <use xlink:href="#DejaVuSans-32" transform="translate(258.126458 39.046875)scale(0.7)"/>
     </g>
    </g>
   </g>
   <g id="line2d_29">
    <path d="M 96.731165 269.842019 
L 97.373339 268.943332 
L 97.730102 268.694894 
L 98.943097 267.639737 
L 99.727976 266.038653 
L 100.441502 263.78868 
L 101.369087 260.007466 
L 102.867492 252.320088 
L 103.723724 246.642931 
L 106.649183 225.701172 
L 107.220004 223.633592 
L 107.790825 222.336855 
L 108.432999 221.511537 
L 109.431936 220.633451 
L 109.503289 220.33403 
L 109.574641 220.508259 
L 110.430873 219.896402 
L 110.858989 219.869987 
L 111.215752 220.108039 
L 111.572515 220.646736 
L 112.071984 222.03989 
L 112.571452 224.184915 
L 113.356332 228.761721 
L 115.568264 242.669274 
L 116.567201 247.210902 
L 117.494785 250.5838 
L 118.208312 252.502131 
L 118.779133 253.456575 
L 119.207249 253.75028 
L 119.564012 253.768194 
L 119.920775 253.57376 
L 120.705654 252.727868 
L 121.490533 251.925341 
L 122.061355 251.689194 
L 122.632176 251.720946 
L 123.27435 251.919174 
L 124.273287 251.756158 
L 124.986813 251.053146 
L 126.342513 249.243899 
L 126.841982 248.894767 
L 127.412803 248.830376 
L 127.769566 248.921924 
L 128.269035 249.093099 
L 129.053914 249.061501 
L 129.48203 248.781983 
L 130.124204 248.041253 
L 131.551257 246.150172 
L 132.122078 245.874454 
L 132.478841 245.835852 
L 132.906957 245.885093 
L 134.191305 245.713991 
L 134.762126 245.166769 
L 136.545942 242.87529 
L 137.116763 242.711758 
L 137.616232 242.806066 
L 138.829227 243.206449 
L 139.328695 243.119316 
L 140.113574 242.45493 
L 141.326569 241.149093 
L 141.826038 240.972203 
L 142.396859 241.086058 
L 144.180675 241.899701 
L 144.394733 241.897993 
L 145.679081 240.889161 
L 146.392607 240.425582 
L 147.248839 240.530233 
L 148.176424 241.246851 
L 148.818597 241.612283 
L 149.603476 241.521169 
L 150.317003 240.948817 
L 151.244587 240.110308 
L 151.672703 239.969764 
L 152.243524 240.022303 
L 152.885698 240.428282 
L 153.884635 241.062939 
L 154.883572 240.895815 
L 156.16792 239.968674 
L 157.095504 240.010299 
L 157.452268 240.213568 
L 159.093379 241.152668 
L 159.450142 241.074392 
L 159.878258 240.75852 
L 160.663137 239.88679 
L 161.305311 239.161724 
L 162.161542 238.629752 
L 163.659948 238.128559 
L 164.159417 237.548693 
L 164.730238 236.521218 
L 165.657822 234.423603 
L 166.299996 233.22217 
L 166.94217 232.531526 
L 167.298933 232.411947 
L 167.869754 232.468127 
L 168.940044 232.659564 
L 169.796276 232.247639 
L 171.437387 230.87256 
L 172.07956 230.948664 
L 172.650382 231.325698 
L 173.792024 232.188363 
L 174.22014 232.233005 
L 174.648256 232.085223 
L 175.219077 231.631962 
L 176.503425 230.635506 
L 177.002893 230.574598 
L 178.501299 231.574931 
L 179.07212 231.719381 
L 179.714294 231.554103 
L 180.641878 230.832621 
L 181.069994 230.508158 
L 181.997578 230.440502 
L 182.497047 230.774506 
L 183.852747 231.794962 
L 184.708979 231.640443 
L 185.493858 230.983589 
L 186.35009 230.296449 
L 187.42038 230.369085 
L 188.918785 231.111147 
L 189.418254 231.019784 
L 191.558833 229.301705 
L 192.058302 229.308855 
L 193.984823 230.463431 
L 194.412939 230.442318 
L 195.126465 229.963164 
L 195.911345 229.285901 
L 196.624871 228.901832 
L 197.195692 228.93127 
L 197.766513 229.194322 
L 197.980571 229.366357 
L 198.194629 229.545378 
L 198.836803 229.538935 
L 199.264919 229.403045 
L 200.335209 228.582405 
L 201.048735 227.685701 
L 201.548204 227.473535 
L 201.833614 227.521814 
L 202.404436 227.793657 
L 203.260667 228.430719 
L 203.474725 228.558296 
L 203.760136 228.784724 
L 204.330957 228.758573 
L 204.759073 228.620901 
L 205.401247 228.068814 
L 206.400184 227.46432 
L 206.685594 227.447095 
L 206.899652 227.533513 
L 207.185063 227.640486 
L 208.041295 228.393603 
L 208.326705 228.639341 
L 209.040232 229.051309 
L 209.611053 228.825418 
L 210.181874 228.510488 
L 210.824048 228.030454 
L 211.394869 227.803839 
L 212.179748 228.018655 
L 212.679217 228.518334 
L 213.820859 229.373221 
L 214.034917 229.378263 
L 214.463033 229.358535 
L 215.105207 228.891082 
L 216.389554 227.543848 
L 216.53226 227.50448 
L 216.81767 227.528255 
L 217.174434 227.518628 
L 217.602549 227.669177 
L 217.745255 227.760887 
L 217.959313 227.7685 
L 219.100955 227.857966 
L 219.671776 227.462033 
L 220.670713 226.158917 
L 221.312887 225.651169 
L 221.812356 225.500443 
L 222.097766 225.691284 
L 222.383177 225.705529 
L 223.81023 226.601542 
L 224.309698 226.564539 
L 224.809167 226.079415 
L 226.378925 224.711852 
L 227.021099 224.4196 
L 228.162741 225.084186 
L 228.804915 225.233822 
L 229.090326 225.136825 
L 229.803852 224.795519 
L 230.517379 224.041008 
L 231.230905 223.433294 
L 231.587668 223.385395 
L 232.015784 223.509962 
L 232.586605 223.94969 
L 233.942306 225.247687 
L 234.370422 225.324594 
L 234.86989 225.236181 
L 236.511001 224.48811 
L 237.153175 224.684801 
L 238.794286 225.818401 
L 239.079696 225.864709 
L 239.72187 225.562092 
L 240.578102 224.701395 
L 241.291628 224.11794 
L 241.648392 223.993061 
L 242.290565 224.107126 
L 243.21815 224.737384 
L 244.145734 225.025454 
L 244.645203 224.802054 
L 245.216024 224.367373 
L 246.143608 223.647738 
L 246.571724 223.545557 
L 247.642014 224.092209 
L 248.498246 224.802541 
L 249.069067 224.975782 
L 249.568535 224.855523 
L 250.068004 224.550448 
L 250.995588 223.909382 
L 251.495057 223.822374 
L 251.85182 223.932762 
L 252.137231 224.141965 
L 252.92211 224.984495 
L 253.849694 225.983022 
L 254.634573 226.329463 
L 256.061626 226.638301 
L 256.561095 227.114128 
L 257.131916 228.002297 
L 258.773027 230.85003 
L 259.272495 231.176462 
L 259.700611 231.13065 
L 260.20008 230.812261 
L 261.484428 229.876967 
L 261.912543 229.759816 
L 262.554717 229.953035 
L 263.69636 230.181249 
L 264.481239 229.611803 
L 265.266118 228.462655 
L 266.265055 226.961115 
L 266.835876 226.516191 
L 267.335345 226.464017 
L 269.047808 226.83189 
L 269.832687 226.458958 
L 271.25974 225.524042 
L 271.759209 225.546959 
L 272.115972 225.724486 
L 273.899788 226.929396 
L 274.399257 226.81004 
L 275.041431 226.308602 
L 276.254426 225.1167 
L 277.110657 224.977583 
L 278.395005 225.701765 
L 279.393942 225.639808 
L 280.036116 225.138577 
L 281.106406 224.141813 
L 281.534521 224.004326 
L 282.248048 224.180164 
L 283.889159 224.993205 
L 284.174569 224.949311 
L 285.672975 223.491637 
L 286.315149 222.935412 
L 286.957323 222.803254 
L 288.527081 223.679492 
L 289.454665 223.634344 
L 290.168192 223.145375 
L 291.167129 222.418267 
L 291.666597 222.388856 
L 291.952008 222.444678 
L 293.307708 223.461082 
L 293.735824 223.600863 
L 294.306645 223.522547 
L 294.877466 223.099395 
L 295.805051 222.099759 
L 296.304519 221.723466 
L 297.303456 221.776461 
L 298.659157 222.466462 
L 299.372683 222.390821 
L 299.800799 222.108843 
L 301.370557 220.802559 
L 301.941379 220.742824 
L 302.654905 221.079424 
L 303.511137 221.353131 
L 303.939253 221.269378 
L 304.438721 220.909007 
L 305.009542 220.206255 
L 306.008479 218.882375 
L 306.507948 218.518658 
L 307.150122 218.461359 
L 308.434469 219.118552 
L 308.862585 219.21785 
L 309.362054 219.057687 
L 310.004228 218.596431 
L 311.217223 217.60316 
L 311.859397 217.593026 
L 312.786981 218.251733 
L 313.357802 218.650219 
L 314.356739 218.605739 
L 314.998913 217.997192 
L 316.711377 216.198576 
L 317.210845 216.084099 
L 317.424903 216.122165 
L 317.924372 216.278628 
L 318.495193 216.368183 
L 318.851956 216.382361 
L 319.351425 216.116454 
L 320.064951 215.480771 
L 321.063888 214.545816 
L 321.349299 214.450595 
L 322.276883 214.638864 
L 322.847704 215.086963 
L 323.418525 215.394639 
L 324.060699 215.341762 
L 324.560168 214.917362 
L 324.988284 214.318059 
L 327.200216 210.918906 
L 328.555916 209.653761 
L 329.269442 208.609536 
L 330.981906 205.45299 
L 331.552727 204.918063 
L 331.980843 204.790206 
L 332.623017 204.941058 
L 333.693307 205.135696 
L 334.192775 204.903355 
L 334.834949 204.191165 
L 336.618765 201.899155 
L 337.046881 201.730007 
L 338.687992 201.523589 
L 339.044755 201.271897 
L 339.758282 200.359264 
L 341.113982 198.327508 
L 341.61345 197.997819 
L 342.39833 198.008089 
L 342.826445 198.151466 
L 343.397267 198.283137 
L 343.825383 198.192357 
L 344.182146 197.95123 
L 344.895672 197.085058 
L 346.322725 194.967877 
L 346.893546 194.555587 
L 347.464368 194.454338 
L 347.821131 194.441494 
L 348.677363 194.047682 
L 349.105478 193.566092 
L 349.747652 192.369007 
L 350.817942 189.782243 
L 351.531468 188.333196 
L 352.173642 187.52673 
L 352.887169 187.010323 
L 353.886106 186.12675 
L 354.52828 185.041981 
L 356.597506 181.106803 
L 357.168328 180.645194 
L 357.953207 180.317552 
L 358.524028 180.021675 
L 359.166202 179.288343 
L 360.093786 177.605865 
L 361.306781 175.323317 
L 361.877602 174.718583 
L 362.662481 174.301094 
L 363.376008 173.880813 
L 363.946829 173.232931 
L 364.51765 172.146307 
L 365.516587 169.72474 
L 366.372819 167.823422 
L 367.086346 166.845262 
L 368.870162 165.022677 
L 369.512336 163.760209 
L 371.581562 159.40925 
L 372.366441 158.934545 
L 373.9362 158.594753 
L 374.364316 158.158279 
L 376.861658 154.583175 
L 378.574122 153.149819 
L 379.144943 152.132516 
L 379.858469 150.269721 
L 381.570933 145.544143 
L 382.284459 144.387685 
L 384.068276 141.792488 
L 384.781802 140.10465 
L 386.565618 135.844349 
L 388.563492 132.061795 
L 389.205666 129.82502 
L 390.275956 124.687647 
L 392.059772 115.786702 
L 393.772236 107.514725 
L 394.69982 101.49391 
L 397.268515 83.786801 
L 398.766921 74.616729 
L 399.765858 67.005307 
L 402.691317 43.630431 
L 403.904312 34.305387 
L 405.188659 22.571979 
L 406.901123 7.344019 
L 408.019737 -1 
L 408.019737 -1 
" clip-path="url(#p4657dec8a1)" style="fill: none; stroke: #1f77b4; stroke-width: 1.5; stroke-linecap: square"/>
   </g>
   <g id="line2d_30">
    <path d="M 96.731165 262.717964 
L 97.301986 261.359113 
L 100.584208 250.830934 
L 101.939908 246.325461 
L 103.224256 242.109506 
L 103.86643 240.54949 
L 104.437251 239.702413 
L 106.007009 237.640211 
L 106.57783 236.226782 
L 107.505415 233.170631 
L 108.504352 230.031161 
L 108.861115 229.268474 
L 109.289231 228.800726 
L 109.574641 228.735096 
L 109.931405 228.917594 
L 110.430873 229.60373 
L 111.287105 231.331314 
L 112.000631 232.590743 
L 112.5001 233.091282 
L 112.928216 233.253889 
L 113.641742 233.18365 
L 114.355269 233.162749 
L 114.640679 233.31693 
L 115.068795 233.812445 
L 115.639616 234.870788 
L 116.495848 237.079777 
L 117.423433 239.196965 
L 118.279664 240.792129 
L 119.349954 242.764222 
L 121.205123 246.371757 
L 121.704591 246.80231 
L 121.990002 246.868967 
L 122.48947 246.713701 
L 122.774881 246.510817 
L 124.059229 245.609266 
L 124.558697 245.591241 
L 125.129518 245.82434 
L 126.199808 246.40673 
L 126.627924 246.402011 
L 127.05604 246.181535 
L 127.555508 245.667273 
L 128.697151 244.234897 
L 129.410677 243.817735 
L 129.910146 243.81008 
L 131.408551 244.254534 
L 131.979373 243.976542 
L 134.33401 241.322779 
L 134.904831 241.320201 
L 135.547005 241.575893 
L 136.617295 241.734508 
L 137.188116 241.33623 
L 138.971932 239.369541 
L 139.614106 239.244504 
L 140.327632 239.544222 
L 140.969806 239.947855 
L 141.826038 240.01798 
L 142.254154 239.752146 
L 143.609854 238.319428 
L 144.608791 238.099979 
L 145.036907 238.322053 
L 146.535313 239.221216 
L 146.820723 239.17187 
L 147.391544 238.85383 
L 149.032655 237.521162 
L 149.746182 237.601332 
L 150.602414 238.215478 
L 151.31594 238.665633 
L 151.886761 238.657433 
L 152.67164 238.107309 
L 153.74193 237.149221 
L 154.241399 237.008913 
L 154.81222 237.16399 
L 155.311688 237.497376 
L 156.025215 238.043343 
L 156.381978 238.213563 
L 156.738741 238.203603 
L 157.309562 237.886926 
L 157.880384 237.320378 
L 158.522557 236.632045 
L 159.378789 236.183953 
L 160.020963 236.317421 
L 161.162605 236.68969 
L 161.448016 236.628553 
L 162.018837 236.184932 
L 162.661011 235.30187 
L 163.874006 233.448547 
L 164.51618 232.965856 
L 165.087001 232.85642 
L 166.442701 232.755647 
L 166.94217 232.385715 
L 167.441638 231.73287 
L 168.940044 229.763885 
L 169.724923 229.527449 
L 170.295744 229.762939 
L 171.151976 230.206324 
L 171.651444 230.242354 
L 172.222266 229.94372 
L 172.935792 229.240144 
L 173.720671 228.54431 
L 174.22014 228.380675 
L 174.719608 228.501934 
L 175.361782 228.945627 
L 176.218014 229.550147 
L 176.503425 229.594473 
L 176.788835 229.588463 
L 177.359656 229.27927 
L 179.000767 228.015065 
L 179.35753 228.01699 
L 179.856999 228.232513 
L 180.784583 228.986879 
L 181.284052 229.301222 
L 181.569462 229.343266 
L 182.140284 229.190126 
L 182.782457 228.663665 
L 183.495984 228.03684 
L 184.20951 227.749793 
L 184.637626 227.872492 
L 185.636563 228.581021 
L 186.278737 228.963251 
L 186.849558 228.983668 
L 189.06149 227.193797 
L 189.489606 227.220325 
L 190.345838 227.702264 
L 190.988012 228.161419 
L 191.344775 228.235034 
L 191.772891 228.240043 
L 192.343712 227.889071 
L 192.985886 227.236176 
L 193.62806 226.655501 
L 194.484292 226.503321 
L 195.055113 226.774198 
L 196.196755 227.50605 
L 196.838929 227.486106 
L 197.552455 226.945565 
L 198.908156 225.718361 
L 199.050861 225.769765 
L 199.693035 225.737858 
L 201.476851 226.736381 
L 201.762262 226.696841 
L 202.047672 226.5498 
L 202.333083 226.373029 
L 202.547141 226.18687 
L 202.689846 226.072714 
L 202.903904 225.802695 
L 203.117962 225.663545 
L 203.33202 225.482548 
L 204.045546 225.053999 
L 204.68772 225.164831 
L 204.973131 225.406749 
L 205.543952 225.958347 
L 206.114773 226.332677 
L 206.542889 226.495402 
L 206.899652 226.434671 
L 207.042358 226.409076 
L 207.256416 226.253102 
L 207.470473 226.154432 
L 207.684531 226.000883 
L 208.326705 225.373409 
L 208.754821 225.180471 
L 209.111584 225.1432 
L 209.825111 225.397183 
L 210.039169 225.612927 
L 210.181874 225.67669 
L 210.824048 226.283249 
L 211.323516 226.616317 
L 211.68028 226.682932 
L 212.179748 226.498569 
L 212.536511 226.148839 
L 213.820859 225.150228 
L 214.748443 225.185032 
L 215.176559 225.457961 
L 215.390617 225.616357 
L 215.533323 225.672724 
L 215.818733 225.933601 
L 216.246849 226.102447 
L 216.746318 226.04115 
L 217.174434 225.784617 
L 218.030665 224.918773 
L 218.387429 224.492832 
L 218.886897 224.105878 
L 219.671776 224.077998 
L 220.31395 224.446712 
L 220.528008 224.606081 
L 221.598298 224.897689 
L 221.955061 224.709618 
L 222.169119 224.573103 
L 222.597235 224.202732 
L 223.81023 222.946383 
L 224.381051 222.835532 
L 224.880519 223.065045 
L 225.023225 223.072431 
L 225.237283 223.263715 
L 225.451341 223.362797 
L 225.879456 223.639804 
L 226.307572 223.744351 
L 226.664336 223.771614 
L 226.807041 223.696451 
L 227.377862 223.302476 
L 228.94762 221.854212 
L 229.375736 221.818058 
L 229.589794 221.927847 
L 229.803852 221.975949 
L 230.660084 222.655319 
L 231.37361 223.061256 
L 232.229842 222.832675 
L 234.013658 221.621626 
L 234.299069 221.657584 
L 235.083948 222.164174 
L 236.296943 223.152577 
L 236.725059 223.201429 
L 237.29588 222.976051 
L 238.294817 222.101378 
L 238.65158 221.86744 
L 239.579165 221.847755 
L 239.935928 222.06138 
L 241.362981 222.982808 
L 241.791097 222.980501 
L 242.290565 222.624852 
L 242.647329 222.307212 
L 243.717618 221.405548 
L 244.217087 221.292633 
L 244.787908 221.514776 
L 245.715492 222.243484 
L 246.072256 222.487071 
L 246.643077 222.612882 
L 247.570661 222.074342 
L 248.712304 221.2091 
L 249.14042 221.162971 
L 249.568535 221.330899 
L 250.068004 221.740225 
L 251.209646 222.7788 
L 251.780467 222.974928 
L 252.351289 222.833136 
L 253.635636 222.281305 
L 253.9924 222.350256 
L 254.491868 222.699405 
L 255.062689 223.418961 
L 256.489742 225.121635 
L 256.917858 225.271697 
L 257.488679 225.170775 
L 258.773027 224.765519 
L 259.272495 224.918194 
L 259.771964 225.333961 
L 261.27037 226.74056 
L 261.841191 226.750995 
L 263.125538 225.590234 
L 263.839065 224.949953 
L 264.267181 224.865464 
L 264.552591 224.859001 
L 265.194765 225.137925 
L 266.193702 225.569716 
L 266.621818 225.503735 
L 267.121287 225.163189 
L 267.76346 224.466207 
L 268.54834 223.64393 
L 269.119161 223.373707 
L 269.975393 223.681558 
L 270.403508 224.005807 
L 271.25974 224.524648 
L 271.545151 224.53667 
L 272.258677 224.193522 
L 272.61544 223.892141 
L 273.614378 223.022338 
L 274.185199 222.878239 
L 275.041431 223.25431 
L 276.11172 223.978012 
L 276.611189 223.977917 
L 277.039305 223.757557 
L 278.323652 222.409164 
L 278.965826 222.043462 
L 279.608 222.053263 
L 281.320463 222.976405 
L 281.748579 222.898231 
L 282.105343 222.683916 
L 282.961574 221.791813 
L 283.889159 221.057869 
L 284.45998 221.022803 
L 285.244859 221.442292 
L 286.172443 221.938026 
L 286.600559 221.911479 
L 286.957323 221.716467 
L 287.314086 221.431279 
L 288.669786 220.143744 
L 288.955197 220.014755 
L 289.454665 220.050674 
L 290.025486 220.363083 
L 291.238481 221.173157 
L 292.094713 220.929352 
L 294.021235 219.407393 
L 294.663409 219.53598 
L 295.376935 220.010882 
L 296.019109 220.384211 
L 296.375872 220.461746 
L 297.374809 219.85482 
L 297.802925 219.377444 
L 298.587804 218.644906 
L 299.087273 218.403493 
L 299.943504 218.635215 
L 301.44191 219.261835 
L 301.727321 219.196595 
L 302.654905 218.274635 
L 303.582489 217.273465 
L 304.296016 216.972628 
L 304.724132 217.050042 
L 306.365243 217.640687 
L 306.793359 217.454846 
L 307.221474 217.069487 
L 307.935001 216.192747 
L 308.648527 215.50947 
L 309.076643 215.318466 
L 310.146933 215.678025 
L 310.717754 216.081543 
L 311.431281 216.29495 
L 312.144807 215.871834 
L 312.786981 215.214867 
L 313.57186 214.394596 
L 314.285387 214.14173 
L 314.713502 214.21462 
L 316.283261 214.794557 
L 316.782729 214.600906 
L 317.06814 214.344093 
L 317.781666 213.464869 
L 318.281135 212.836346 
L 319.137367 212.254057 
L 319.636835 212.279373 
L 320.136304 212.47244 
L 321.206593 212.841878 
L 321.706062 212.639033 
L 322.20553 212.183239 
L 323.703936 210.246472 
L 324.63152 209.75135 
L 326.058573 209.65718 
L 326.486689 209.375481 
L 326.986158 208.742816 
L 329.269442 205.161261 
L 330.125674 204.902241 
L 331.053259 204.778433 
L 331.552727 204.430326 
L 332.123548 203.707288 
L 333.907365 201.107881 
L 334.33548 200.861648 
L 334.906302 200.820931 
L 335.619828 200.956859 
L 336.119297 200.928662 
L 336.547413 200.686011 
L 336.975528 200.216033 
L 337.974465 198.649713 
L 338.759345 197.609783 
L 339.330166 197.268533 
L 339.900987 197.214458 
L 341.185335 197.301215 
L 341.684803 196.977634 
L 342.969151 195.065227 
L 343.397267 194.409967 
L 344.110793 193.712134 
L 344.681614 193.516341 
L 346.251373 193.373974 
L 346.750841 192.869026 
L 347.25031 192.08376 
L 348.249247 190.08032 
L 349.105478 188.811678 
L 349.6763 188.394646 
L 350.603884 188.071586 
L 351.032 187.848652 
L 351.460116 187.41902 
L 352.030937 186.500281 
L 354.171516 182.308368 
L 354.670985 181.893657 
L 356.454801 180.789109 
L 356.95427 179.980358 
L 357.525091 178.833394 
L 358.738086 176.41852 
L 359.308907 175.775407 
L 359.808376 175.478153 
L 360.236491 175.360274 
L 361.306781 174.716976 
L 361.80625 174.01727 
L 362.377071 172.910567 
L 363.661419 170.191763 
L 364.303592 169.313488 
L 365.017119 168.825407 
L 365.944703 168.276522 
L 366.444172 167.683557 
L 367.014993 166.632079 
L 369.012867 162.343706 
L 369.583688 161.780543 
L 370.083157 161.543088 
L 370.796683 161.233073 
L 371.224799 160.936832 
L 371.724268 160.29261 
L 373.008615 157.742947 
L 373.864847 156.245803 
L 374.364316 155.757806 
L 375.149195 155.345436 
L 375.862721 155.048283 
L 376.290837 154.64982 
L 376.790306 153.888678 
L 377.503832 152.326281 
L 378.930885 149.104852 
L 379.573059 148.259841 
L 381.21417 146.548946 
L 381.856344 145.273752 
L 383.782865 139.945663 
L 384.496392 138.562175 
L 386.137502 135.974901 
L 386.636971 134.687206 
L 387.493203 131.68936 
L 389.419724 124.73816 
L 391.274893 118.843922 
L 392.059772 114.955517 
L 393.415472 106.864679 
L 394.771173 99.528644 
L 396.198226 91.989824 
L 397.12581 85.666614 
L 401.906438 48.615647 
L 403.190785 34.96624 
L 405.902186 3.740333 
L 406.238267 -1 
L 406.238267 -1 
" clip-path="url(#p4657dec8a1)" style="fill: none; stroke: #ff7f0e; stroke-width: 1.5; stroke-linecap: square"/>
   </g>
   <g id="patch_3">
    <path d="M 80.498437 297.54825 
L 80.498437 31.43625 
" style="fill: none; stroke: #000000; stroke-width: 0.8; stroke-linejoin: miter; stroke-linecap: square"/>
   </g>
   <g id="patch_4">
    <path d="M 437.618438 297.54825 
L 437.618438 31.43625 
" style="fill: none; stroke: #000000; stroke-width: 0.8; stroke-linejoin: miter; stroke-linecap: square"/>
   </g>
   <g id="patch_5">
    <path d="M 80.498438 297.54825 
L 437.618437 297.54825 
" style="fill: none; stroke: #000000; stroke-width: 0.8; stroke-linejoin: miter; stroke-linecap: square"/>
   </g>
   <g id="patch_6">
    <path d="M 80.498438 31.43625 
L 437.618437 31.43625 
" style="fill: none; stroke: #000000; stroke-width: 0.8; stroke-linejoin: miter; stroke-linecap: square"/>
   </g>
   <g id="text_17">
    <!-- RF Field Curvature -->
    <g transform="translate(148.759687 25.43625)scale(0.24 -0.24)">
     <defs>
      <path id="DejaVuSans-52" d="M 2841 2188 
Q 3044 2119 3236 1894 
Q 3428 1669 3622 1275 
L 4263 0 
L 3584 0 
L 2988 1197 
Q 2756 1666 2539 1819 
Q 2322 1972 1947 1972 
L 1259 1972 
L 1259 0 
L 628 0 
L 628 4666 
L 2053 4666 
Q 2853 4666 3247 4331 
Q 3641 3997 3641 3322 
Q 3641 2881 3436 2590 
Q 3231 2300 2841 2188 
z
M 1259 4147 
L 1259 2491 
L 2053 2491 
Q 2509 2491 2742 2702 
Q 2975 2913 2975 3322 
Q 2975 3731 2742 3939 
Q 2509 4147 2053 4147 
L 1259 4147 
z
" transform="scale(0.015625)"/>
      <path id="DejaVuSans-46" d="M 628 4666 
L 3309 4666 
L 3309 4134 
L 1259 4134 
L 1259 2759 
L 3109 2759 
L 3109 2228 
L 1259 2228 
L 1259 0 
L 628 0 
L 628 4666 
z
" transform="scale(0.015625)"/>
      <path id="DejaVuSans-69" d="M 603 3500 
L 1178 3500 
L 1178 0 
L 603 0 
L 603 3500 
z
M 603 4863 
L 1178 4863 
L 1178 4134 
L 603 4134 
L 603 4863 
z
" transform="scale(0.015625)"/>
      <path id="DejaVuSans-65" d="M 3597 1894 
L 3597 1613 
L 953 1613 
Q 991 1019 1311 708 
Q 1631 397 2203 397 
Q 2534 397 2845 478 
Q 3156 559 3463 722 
L 3463 178 
Q 3153 47 2828 -22 
Q 2503 -91 2169 -91 
Q 1331 -91 842 396 
Q 353 884 353 1716 
Q 353 2575 817 3079 
Q 1281 3584 2069 3584 
Q 2775 3584 3186 3129 
Q 3597 2675 3597 1894 
z
M 3022 2063 
Q 3016 2534 2758 2815 
Q 2500 3097 2075 3097 
Q 1594 3097 1305 2825 
Q 1016 2553 972 2059 
L 3022 2063 
z
" transform="scale(0.015625)"/>
      <path id="DejaVuSans-6c" d="M 603 4863 
L 1178 4863 
L 1178 0 
L 603 0 
L 603 4863 
z
" transform="scale(0.015625)"/>
      <path id="DejaVuSans-64" d="M 2906 2969 
L 2906 4863 
L 3481 4863 
L 3481 0 
L 2906 0 
L 2906 525 
Q 2725 213 2448 61 
Q 2172 -91 1784 -91 
Q 1150 -91 751 415 
Q 353 922 353 1747 
Q 353 2572 751 3078 
Q 1150 3584 1784 3584 
Q 2172 3584 2448 3432 
Q 2725 3281 2906 2969 
z
M 947 1747 
Q 947 1113 1208 752 
Q 1469 391 1925 391 
Q 2381 391 2643 752 
Q 2906 1113 2906 1747 
Q 2906 2381 2643 2742 
Q 2381 3103 1925 3103 
Q 1469 3103 1208 2742 
Q 947 2381 947 1747 
z
" transform="scale(0.015625)"/>
      <path id="DejaVuSans-43" d="M 4122 4306 
L 4122 3641 
Q 3803 3938 3442 4084 
Q 3081 4231 2675 4231 
Q 1875 4231 1450 3742 
Q 1025 3253 1025 2328 
Q 1025 1406 1450 917 
Q 1875 428 2675 428 
Q 3081 428 3442 575 
Q 3803 722 4122 1019 
L 4122 359 
Q 3791 134 3420 21 
Q 3050 -91 2638 -91 
Q 1578 -91 968 557 
Q 359 1206 359 2328 
Q 359 3453 968 4101 
Q 1578 4750 2638 4750 
Q 3056 4750 3426 4639 
Q 3797 4528 4122 4306 
z
" transform="scale(0.015625)"/>
      <path id="DejaVuSans-75" d="M 544 1381 
L 544 3500 
L 1119 3500 
L 1119 1403 
Q 1119 906 1312 657 
Q 1506 409 1894 409 
Q 2359 409 2629 706 
Q 2900 1003 2900 1516 
L 2900 3500 
L 3475 3500 
L 3475 0 
L 2900 0 
L 2900 538 
Q 2691 219 2414 64 
Q 2138 -91 1772 -91 
Q 1169 -91 856 284 
Q 544 659 544 1381 
z
M 1991 3584 
L 1991 3584 
z
" transform="scale(0.015625)"/>
      <path id="DejaVuSans-72" d="M 2631 2963 
Q 2534 3019 2420 3045 
Q 2306 3072 2169 3072 
Q 1681 3072 1420 2755 
Q 1159 2438 1159 1844 
L 1159 0 
L 581 0 
L 581 3500 
L 1159 3500 
L 1159 2956 
Q 1341 3275 1631 3429 
Q 1922 3584 2338 3584 
Q 2397 3584 2469 3576 
Q 2541 3569 2628 3553 
L 2631 2963 
z
" transform="scale(0.015625)"/>
      <path id="DejaVuSans-76" d="M 191 3500 
L 800 3500 
L 1894 563 
L 2988 3500 
L 3597 3500 
L 2284 0 
L 1503 0 
L 191 3500 
z
" transform="scale(0.015625)"/>
      <path id="DejaVuSans-61" d="M 2194 1759 
Q 1497 1759 1228 1600 
Q 959 1441 959 1056 
Q 959 750 1161 570 
Q 1363 391 1709 391 
Q 2188 391 2477 730 
Q 2766 1069 2766 1631 
L 2766 1759 
L 2194 1759 
z
M 3341 1997 
L 3341 0 
L 2766 0 
L 2766 531 
Q 2569 213 2275 61 
Q 1981 -91 1556 -91 
Q 1019 -91 701 211 
Q 384 513 384 1019 
Q 384 1609 779 1909 
Q 1175 2209 1959 2209 
L 2766 2209 
L 2766 2266 
Q 2766 2663 2505 2880 
Q 2244 3097 1772 3097 
Q 1472 3097 1187 3025 
Q 903 2953 641 2809 
L 641 3341 
Q 956 3463 1253 3523 
Q 1550 3584 1831 3584 
Q 2591 3584 2966 3190 
Q 3341 2797 3341 1997 
z
" transform="scale(0.015625)"/>
      <path id="DejaVuSans-74" d="M 1172 4494 
L 1172 3500 
L 2356 3500 
L 2356 3053 
L 1172 3053 
L 1172 1153 
Q 1172 725 1289 603 
Q 1406 481 1766 481 
L 2356 481 
L 2356 0 
L 1766 0 
Q 1100 0 847 248 
Q 594 497 594 1153 
L 594 3053 
L 172 3053 
L 172 3500 
L 594 3500 
L 594 4494 
L 1172 4494 
z
" transform="scale(0.015625)"/>
     </defs>
     <use xlink:href="#DejaVuSans-52"/>
     <use xlink:href="#DejaVuSans-46" x="69.482422"/>
     <use xlink:href="#DejaVuSans-20" x="127.001953"/>
     <use xlink:href="#DejaVuSans-46" x="158.789062"/>
     <use xlink:href="#DejaVuSans-69" x="209.058594"/>
     <use xlink:href="#DejaVuSans-65" x="236.841797"/>
     <use xlink:href="#DejaVuSans-6c" x="298.365234"/>
     <use xlink:href="#DejaVuSans-64" x="326.148438"/>
     <use xlink:href="#DejaVuSans-20" x="389.625"/>
     <use xlink:href="#DejaVuSans-43" x="421.412109"/>
     <use xlink:href="#DejaVuSans-75" x="491.236328"/>
     <use xlink:href="#DejaVuSans-72" x="554.615234"/>
     <use xlink:href="#DejaVuSans-76" x="595.728516"/>
     <use xlink:href="#DejaVuSans-61" x="654.908203"/>
     <use xlink:href="#DejaVuSans-74" x="716.1875"/>
     <use xlink:href="#DejaVuSans-75" x="755.396484"/>
     <use xlink:href="#DejaVuSans-72" x="818.775391"/>
     <use xlink:href="#DejaVuSans-65" x="857.638672"/>
    </g>
   </g>
   <g id="legend_1">
    <g id="patch_7">
     <path d="M 94.498437 109.1925 
L 196.298438 109.1925 
Q 200.298438 109.1925 200.298438 105.1925 
L 200.298438 45.43625 
Q 200.298438 41.43625 196.298438 41.43625 
L 94.498437 41.43625 
Q 90.498437 41.43625 90.498437 45.43625 
L 90.498437 105.1925 
Q 90.498437 109.1925 94.498437 109.1925 
z
" style="fill: #ffffff; opacity: 0.8; stroke: #cccccc; stroke-linejoin: miter"/>
    </g>
    <g id="line2d_31">
     <path d="M 98.498437 60.63625 
L 118.498437 60.63625 
L 138.498437 60.63625 
" style="fill: none; stroke: #1f77b4; stroke-width: 1.5; stroke-linecap: square"/>
    </g>
    <g id="text_18">
     <!-- $y^2$ -->
     <g transform="translate(154.498437 67.63625)scale(0.2 -0.2)">
      <defs>
       <path id="DejaVuSans-Oblique-79" d="M 1588 -325 
Q 1188 -997 936 -1164 
Q 684 -1331 294 -1331 
L -159 -1331 
L -63 -850 
L 269 -850 
Q 509 -850 678 -719 
Q 847 -588 1056 -206 
L 1234 128 
L 459 3500 
L 1069 3500 
L 1650 819 
L 3256 3500 
L 3859 3500 
L 1588 -325 
z
" transform="scale(0.015625)"/>
      </defs>
      <use xlink:href="#DejaVuSans-Oblique-79" transform="translate(0 0.765625)"/>
      <use xlink:href="#DejaVuSans-32" transform="translate(63.645833 39.046875)scale(0.7)"/>
     </g>
    </g>
    <g id="line2d_32">
     <path d="M 98.498437 90.033125 
L 118.498437 90.033125 
L 138.498437 90.033125 
" style="fill: none; stroke: #ff7f0e; stroke-width: 1.5; stroke-linecap: square"/>
    </g>
    <g id="text_19">
     <!-- $-z^2$ -->
     <g transform="translate(154.498437 97.033125)scale(0.2 -0.2)">
      <defs>
       <path id="DejaVuSans-Oblique-7a" d="M 744 3500 
L 3475 3500 
L 3372 2975 
L 738 459 
L 2913 459 
L 2822 0 
L -19 0 
L 84 525 
L 2719 3041 
L 653 3041 
L 744 3500 
z
" transform="scale(0.015625)"/>
      </defs>
      <use xlink:href="#DejaVuSans-2212" transform="translate(0 0.765625)"/>
      <use xlink:href="#DejaVuSans-Oblique-7a" transform="translate(83.789062 0.765625)"/>
      <use xlink:href="#DejaVuSans-32" transform="translate(140.745443 39.046875)scale(0.7)"/>
     </g>
    </g>
   </g>
  </g>
 </g>
 <defs>
  <clipPath id="p4657dec8a1">
   <rect x="80.498437" y="31.43625" width="357.12" height="266.112"/>
  </clipPath>
 </defs>
</svg>
