<?xml version="1.0" encoding="utf-8" standalone="no"?>
<!DOCTYPE svg PUBLIC "-//W3C//DTD SVG 1.1//EN"
  "http://www.w3.org/Graphics/SVG/1.1/DTD/svg11.dtd">
<svg xmlns:xlink="http://www.w3.org/1999/xlink" width="438.300469pt" height="349.665437pt" viewBox="0 0 438.300469 349.665437" xmlns="http://www.w3.org/2000/svg" version="1.1">
 <defs>
  <style type="text/css">*{stroke-linejoin: round; stroke-linecap: butt}</style>
 </defs>
 <g id="figure_1">
  <g id="patch_1">
   <path d="M -0 349.665437 
L 438.300469 349.665437 
L 438.300469 0 
L -0 0 
L -0 349.665437 
z
" style="fill: none"/>
  </g>
  <g id="axes_1">
   <g id="patch_2">
    <path d="M 73.980469 297.54825 
L 431.100469 297.54825 
L 431.100469 31.43625 
L 73.980469 31.43625 
L 73.980469 297.54825 
z
" style="fill: none"/>
   </g>
   <g id="matplotlib.axis_1">
    <g id="xtick_1">
     <g id="line2d_1">
      <path d="M 105.910778 297.54825 
L 105.910778 31.43625 
" clip-path="url(#p8e7a7c8e22)" style="fill: none; stroke: #b0b0b0; stroke-width: 0.8; stroke-linecap: square"/>
     </g>
     <g id="line2d_2">
      <defs>
       <path id="md39032bed2" d="M 0 0 
L 0 3.5 
" style="stroke: #000000; stroke-width: 0.8"/>
      </defs>
      <g>
       <use xlink:href="#md39032bed2" x="105.910778" y="297.54825" style="stroke: #000000; stroke-width: 0.8"/>
      </g>
     </g>
     <g id="text_1">
      <!-- −3000 -->
      <g transform="translate(80.538513 315.945906)scale(0.15 -0.15)">
       <defs>
        <path id="DejaVuSans-2212" d="M 678 2272 
L 4684 2272 
L 4684 1741 
L 678 1741 
L 678 2272 
z
" transform="scale(0.015625)"/>
        <path id="DejaVuSans-33" d="M 2597 2516 
Q 3050 2419 3304 2112 
Q 3559 1806 3559 1356 
Q 3559 666 3084 287 
Q 2609 -91 1734 -91 
Q 1441 -91 1130 -33 
Q 819 25 488 141 
L 488 750 
Q 750 597 1062 519 
Q 1375 441 1716 441 
Q 2309 441 2620 675 
Q 2931 909 2931 1356 
Q 2931 1769 2642 2001 
Q 2353 2234 1838 2234 
L 1294 2234 
L 1294 2753 
L 1863 2753 
Q 2328 2753 2575 2939 
Q 2822 3125 2822 3475 
Q 2822 3834 2567 4026 
Q 2313 4219 1838 4219 
Q 1578 4219 1281 4162 
Q 984 4106 628 3988 
L 628 4550 
Q 988 4650 1302 4700 
Q 1616 4750 1894 4750 
Q 2613 4750 3031 4423 
Q 3450 4097 3450 3541 
Q 3450 3153 3228 2886 
Q 3006 2619 2597 2516 
z
" transform="scale(0.015625)"/>
        <path id="DejaVuSans-30" d="M 2034 4250 
Q 1547 4250 1301 3770 
Q 1056 3291 1056 2328 
Q 1056 1369 1301 889 
Q 1547 409 2034 409 
Q 2525 409 2770 889 
Q 3016 1369 3016 2328 
Q 3016 3291 2770 3770 
Q 2525 4250 2034 4250 
z
M 2034 4750 
Q 2819 4750 3233 4129 
Q 3647 3509 3647 2328 
Q 3647 1150 3233 529 
Q 2819 -91 2034 -91 
Q 1250 -91 836 529 
Q 422 1150 422 2328 
Q 422 3509 836 4129 
Q 1250 4750 2034 4750 
z
" transform="scale(0.015625)"/>
       </defs>
       <use xlink:href="#DejaVuSans-2212"/>
       <use xlink:href="#DejaVuSans-33" x="83.789062"/>
       <use xlink:href="#DejaVuSans-30" x="147.412109"/>
       <use xlink:href="#DejaVuSans-30" x="211.035156"/>
       <use xlink:href="#DejaVuSans-30" x="274.658203"/>
      </g>
     </g>
    </g>
    <g id="xtick_2">
     <g id="line2d_3">
      <path d="M 177.263426 297.54825 
L 177.263426 31.43625 
" clip-path="url(#p8e7a7c8e22)" style="fill: none; stroke: #b0b0b0; stroke-width: 0.8; stroke-linecap: square"/>
     </g>
     <g id="line2d_4">
      <g>
       <use xlink:href="#md39032bed2" x="177.263426" y="297.54825" style="stroke: #000000; stroke-width: 0.8"/>
      </g>
     </g>
     <g id="text_2">
      <!-- −2000 -->
      <g transform="translate(151.89116 315.945906)scale(0.15 -0.15)">
       <defs>
        <path id="DejaVuSans-32" d="M 1228 531 
L 3431 531 
L 3431 0 
L 469 0 
L 469 531 
Q 828 903 1448 1529 
Q 2069 2156 2228 2338 
Q 2531 2678 2651 2914 
Q 2772 3150 2772 3378 
Q 2772 3750 2511 3984 
Q 2250 4219 1831 4219 
Q 1534 4219 1204 4116 
Q 875 4013 500 3803 
L 500 4441 
Q 881 4594 1212 4672 
Q 1544 4750 1819 4750 
Q 2544 4750 2975 4387 
Q 3406 4025 3406 3419 
Q 3406 3131 3298 2873 
Q 3191 2616 2906 2266 
Q 2828 2175 2409 1742 
Q 1991 1309 1228 531 
z
" transform="scale(0.015625)"/>
       </defs>
       <use xlink:href="#DejaVuSans-2212"/>
       <use xlink:href="#DejaVuSans-32" x="83.789062"/>
       <use xlink:href="#DejaVuSans-30" x="147.412109"/>
       <use xlink:href="#DejaVuSans-30" x="211.035156"/>
       <use xlink:href="#DejaVuSans-30" x="274.658203"/>
      </g>
     </g>
    </g>
    <g id="xtick_3">
     <g id="line2d_5">
      <path d="M 248.616073 297.54825 
L 248.616073 31.43625 
" clip-path="url(#p8e7a7c8e22)" style="fill: none; stroke: #b0b0b0; stroke-width: 0.8; stroke-linecap: square"/>
     </g>
     <g id="line2d_6">
      <g>
       <use xlink:href="#md39032bed2" x="248.616073" y="297.54825" style="stroke: #000000; stroke-width: 0.8"/>
      </g>
     </g>
     <g id="text_3">
      <!-- −1000 -->
      <g transform="translate(223.243808 315.945906)scale(0.15 -0.15)">
       <defs>
        <path id="DejaVuSans-31" d="M 794 531 
L 1825 531 
L 1825 4091 
L 703 3866 
L 703 4441 
L 1819 4666 
L 2450 4666 
L 2450 531 
L 3481 531 
L 3481 0 
L 794 0 
L 794 531 
z
" transform="scale(0.015625)"/>
       </defs>
       <use xlink:href="#DejaVuSans-2212"/>
       <use xlink:href="#DejaVuSans-31" x="83.789062"/>
       <use xlink:href="#DejaVuSans-30" x="147.412109"/>
       <use xlink:href="#DejaVuSans-30" x="211.035156"/>
       <use xlink:href="#DejaVuSans-30" x="274.658203"/>
      </g>
     </g>
    </g>
    <g id="xtick_4">
     <g id="line2d_7">
      <path d="M 319.96872 297.54825 
L 319.96872 31.43625 
" clip-path="url(#p8e7a7c8e22)" style="fill: none; stroke: #b0b0b0; stroke-width: 0.8; stroke-linecap: square"/>
     </g>
     <g id="line2d_8">
      <g>
       <use xlink:href="#md39032bed2" x="319.96872" y="297.54825" style="stroke: #000000; stroke-width: 0.8"/>
      </g>
     </g>
     <g id="text_4">
      <!-- 0 -->
      <g transform="translate(315.196845 315.945906)scale(0.15 -0.15)">
       <use xlink:href="#DejaVuSans-30"/>
      </g>
     </g>
    </g>
    <g id="xtick_5">
     <g id="line2d_9">
      <path d="M 391.321368 297.54825 
L 391.321368 31.43625 
" clip-path="url(#p8e7a7c8e22)" style="fill: none; stroke: #b0b0b0; stroke-width: 0.8; stroke-linecap: square"/>
     </g>
     <g id="line2d_10">
      <g>
       <use xlink:href="#md39032bed2" x="391.321368" y="297.54825" style="stroke: #000000; stroke-width: 0.8"/>
      </g>
     </g>
     <g id="text_5">
      <!-- 1000 -->
      <g transform="translate(372.233868 315.945906)scale(0.15 -0.15)">
       <use xlink:href="#DejaVuSans-31"/>
       <use xlink:href="#DejaVuSans-30" x="63.623047"/>
       <use xlink:href="#DejaVuSans-30" x="127.246094"/>
       <use xlink:href="#DejaVuSans-30" x="190.869141"/>
      </g>
     </g>
    </g>
    <g id="text_6">
     <!-- X ($\mu m$) -->
     <g transform="translate(218.540469 338.265437)scale(0.2 -0.2)">
      <defs>
       <path id="DejaVuSans-58" d="M 403 4666 
L 1081 4666 
L 2241 2931 
L 3406 4666 
L 4084 4666 
L 2584 2425 
L 4184 0 
L 3506 0 
L 2194 1984 
L 872 0 
L 191 0 
L 1856 2491 
L 403 4666 
z
" transform="scale(0.015625)"/>
       <path id="DejaVuSans-20" transform="scale(0.015625)"/>
       <path id="DejaVuSans-28" d="M 1984 4856 
Q 1566 4138 1362 3434 
Q 1159 2731 1159 2009 
Q 1159 1288 1364 580 
Q 1569 -128 1984 -844 
L 1484 -844 
Q 1016 -109 783 600 
Q 550 1309 550 2009 
Q 550 2706 781 3412 
Q 1013 4119 1484 4856 
L 1984 4856 
z
" transform="scale(0.015625)"/>
       <path id="DejaVuSans-Oblique-3bc" d="M -84 -1331 
L 856 3500 
L 1434 3500 
L 1009 1322 
Q 997 1256 987 1175 
Q 978 1094 978 1013 
Q 978 722 1161 565 
Q 1344 409 1684 409 
Q 2147 409 2431 671 
Q 2716 934 2816 1459 
L 3213 3500 
L 3788 3500 
L 3266 809 
Q 3253 750 3248 706 
Q 3244 663 3244 628 
Q 3244 531 3283 486 
Q 3322 441 3406 441 
Q 3438 441 3492 456 
Q 3547 472 3647 513 
L 3559 50 
Q 3422 -19 3297 -55 
Q 3172 -91 3053 -91 
Q 2847 -91 2730 40 
Q 2613 172 2613 403 
Q 2438 153 2195 31 
Q 1953 -91 1625 -91 
Q 1334 -91 1117 43 
Q 900 178 831 397 
L 494 -1331 
L -84 -1331 
z
" transform="scale(0.015625)"/>
       <path id="DejaVuSans-Oblique-6d" d="M 5747 2113 
L 5338 0 
L 4763 0 
L 5166 2094 
Q 5191 2228 5203 2325 
Q 5216 2422 5216 2491 
Q 5216 2772 5059 2928 
Q 4903 3084 4622 3084 
Q 4203 3084 3875 2770 
Q 3547 2456 3450 1953 
L 3066 0 
L 2491 0 
L 2900 2094 
Q 2925 2209 2937 2307 
Q 2950 2406 2950 2484 
Q 2950 2769 2794 2926 
Q 2638 3084 2363 3084 
Q 1938 3084 1609 2770 
Q 1281 2456 1184 1953 
L 800 0 
L 225 0 
L 909 3500 
L 1484 3500 
L 1375 2956 
Q 1609 3263 1923 3423 
Q 2238 3584 2597 3584 
Q 2978 3584 3223 3384 
Q 3469 3184 3519 2828 
Q 3781 3197 4126 3390 
Q 4472 3584 4856 3584 
Q 5306 3584 5551 3325 
Q 5797 3066 5797 2591 
Q 5797 2488 5784 2364 
Q 5772 2241 5747 2113 
z
" transform="scale(0.015625)"/>
       <path id="DejaVuSans-29" d="M 513 4856 
L 1013 4856 
Q 1481 4119 1714 3412 
Q 1947 2706 1947 2009 
Q 1947 1309 1714 600 
Q 1481 -109 1013 -844 
L 513 -844 
Q 928 -128 1133 580 
Q 1338 1288 1338 2009 
Q 1338 2731 1133 3434 
Q 928 4138 513 4856 
z
" transform="scale(0.015625)"/>
      </defs>
      <use xlink:href="#DejaVuSans-58" transform="translate(0 0.125)"/>
      <use xlink:href="#DejaVuSans-20" transform="translate(68.505859 0.125)"/>
      <use xlink:href="#DejaVuSans-28" transform="translate(100.292969 0.125)"/>
      <use xlink:href="#DejaVuSans-Oblique-3bc" transform="translate(139.306641 0.125)"/>
      <use xlink:href="#DejaVuSans-Oblique-6d" transform="translate(202.929688 0.125)"/>
      <use xlink:href="#DejaVuSans-29" transform="translate(300.341797 0.125)"/>
     </g>
    </g>
   </g>
   <g id="matplotlib.axis_2">
    <g id="ytick_1">
     <g id="line2d_11">
      <path d="M 73.980469 283.528512 
L 431.100469 283.528512 
" clip-path="url(#p8e7a7c8e22)" style="fill: none; stroke: #b0b0b0; stroke-width: 0.8; stroke-linecap: square"/>
     </g>
     <g id="line2d_12">
      <defs>
       <path id="m6f3f5b6aff" d="M 0 0 
L -3.5 0 
" style="stroke: #000000; stroke-width: 0.8"/>
      </defs>
      <g>
       <use xlink:href="#m6f3f5b6aff" x="73.980469" y="283.528512" style="stroke: #000000; stroke-width: 0.8"/>
      </g>
     </g>
     <g id="text_7">
      <!-- −0.6 -->
      <g transform="translate(30.55625 289.22734)scale(0.15 -0.15)">
       <defs>
        <path id="DejaVuSans-2e" d="M 684 794 
L 1344 794 
L 1344 0 
L 684 0 
L 684 794 
z
" transform="scale(0.015625)"/>
        <path id="DejaVuSans-36" d="M 2113 2584 
Q 1688 2584 1439 2293 
Q 1191 2003 1191 1497 
Q 1191 994 1439 701 
Q 1688 409 2113 409 
Q 2538 409 2786 701 
Q 3034 994 3034 1497 
Q 3034 2003 2786 2293 
Q 2538 2584 2113 2584 
z
M 3366 4563 
L 3366 3988 
Q 3128 4100 2886 4159 
Q 2644 4219 2406 4219 
Q 1781 4219 1451 3797 
Q 1122 3375 1075 2522 
Q 1259 2794 1537 2939 
Q 1816 3084 2150 3084 
Q 2853 3084 3261 2657 
Q 3669 2231 3669 1497 
Q 3669 778 3244 343 
Q 2819 -91 2113 -91 
Q 1303 -91 875 529 
Q 447 1150 447 2328 
Q 447 3434 972 4092 
Q 1497 4750 2381 4750 
Q 2619 4750 2861 4703 
Q 3103 4656 3366 4563 
z
" transform="scale(0.015625)"/>
       </defs>
       <use xlink:href="#DejaVuSans-2212"/>
       <use xlink:href="#DejaVuSans-30" x="83.789062"/>
       <use xlink:href="#DejaVuSans-2e" x="147.412109"/>
       <use xlink:href="#DejaVuSans-36" x="179.199219"/>
      </g>
     </g>
    </g>
    <g id="ytick_2">
     <g id="line2d_13">
      <path d="M 73.980469 245.706549 
L 431.100469 245.706549 
" clip-path="url(#p8e7a7c8e22)" style="fill: none; stroke: #b0b0b0; stroke-width: 0.8; stroke-linecap: square"/>
     </g>
     <g id="line2d_14">
      <g>
       <use xlink:href="#m6f3f5b6aff" x="73.980469" y="245.706549" style="stroke: #000000; stroke-width: 0.8"/>
      </g>
     </g>
     <g id="text_8">
      <!-- −0.4 -->
      <g transform="translate(30.55625 251.405377)scale(0.15 -0.15)">
       <defs>
        <path id="DejaVuSans-34" d="M 2419 4116 
L 825 1625 
L 2419 1625 
L 2419 4116 
z
M 2253 4666 
L 3047 4666 
L 3047 1625 
L 3713 1625 
L 3713 1100 
L 3047 1100 
L 3047 0 
L 2419 0 
L 2419 1100 
L 313 1100 
L 313 1709 
L 2253 4666 
z
" transform="scale(0.015625)"/>
       </defs>
       <use xlink:href="#DejaVuSans-2212"/>
       <use xlink:href="#DejaVuSans-30" x="83.789062"/>
       <use xlink:href="#DejaVuSans-2e" x="147.412109"/>
       <use xlink:href="#DejaVuSans-34" x="179.199219"/>
      </g>
     </g>
    </g>
    <g id="ytick_3">
     <g id="line2d_15">
      <path d="M 73.980469 207.884586 
L 431.100469 207.884586 
" clip-path="url(#p8e7a7c8e22)" style="fill: none; stroke: #b0b0b0; stroke-width: 0.8; stroke-linecap: square"/>
     </g>
     <g id="line2d_16">
      <g>
       <use xlink:href="#m6f3f5b6aff" x="73.980469" y="207.884586" style="stroke: #000000; stroke-width: 0.8"/>
      </g>
     </g>
     <g id="text_9">
      <!-- −0.2 -->
      <g transform="translate(30.55625 213.583414)scale(0.15 -0.15)">
       <use xlink:href="#DejaVuSans-2212"/>
       <use xlink:href="#DejaVuSans-30" x="83.789062"/>
       <use xlink:href="#DejaVuSans-2e" x="147.412109"/>
       <use xlink:href="#DejaVuSans-32" x="179.199219"/>
      </g>
     </g>
    </g>
    <g id="ytick_4">
     <g id="line2d_17">
      <path d="M 73.980469 170.062624 
L 431.100469 170.062624 
" clip-path="url(#p8e7a7c8e22)" style="fill: none; stroke: #b0b0b0; stroke-width: 0.8; stroke-linecap: square"/>
     </g>
     <g id="line2d_18">
      <g>
       <use xlink:href="#m6f3f5b6aff" x="73.980469" y="170.062624" style="stroke: #000000; stroke-width: 0.8"/>
      </g>
     </g>
     <g id="text_10">
      <!-- 0.0 -->
      <g transform="translate(43.125781 175.761452)scale(0.15 -0.15)">
       <use xlink:href="#DejaVuSans-30"/>
       <use xlink:href="#DejaVuSans-2e" x="63.623047"/>
       <use xlink:href="#DejaVuSans-30" x="95.410156"/>
      </g>
     </g>
    </g>
    <g id="ytick_5">
     <g id="line2d_19">
      <path d="M 73.980469 132.240661 
L 431.100469 132.240661 
" clip-path="url(#p8e7a7c8e22)" style="fill: none; stroke: #b0b0b0; stroke-width: 0.8; stroke-linecap: square"/>
     </g>
     <g id="line2d_20">
      <g>
       <use xlink:href="#m6f3f5b6aff" x="73.980469" y="132.240661" style="stroke: #000000; stroke-width: 0.8"/>
      </g>
     </g>
     <g id="text_11">
      <!-- 0.2 -->
      <g transform="translate(43.125781 137.939489)scale(0.15 -0.15)">
       <use xlink:href="#DejaVuSans-30"/>
       <use xlink:href="#DejaVuSans-2e" x="63.623047"/>
       <use xlink:href="#DejaVuSans-32" x="95.410156"/>
      </g>
     </g>
    </g>
    <g id="ytick_6">
     <g id="line2d_21">
      <path d="M 73.980469 94.418698 
L 431.100469 94.418698 
" clip-path="url(#p8e7a7c8e22)" style="fill: none; stroke: #b0b0b0; stroke-width: 0.8; stroke-linecap: square"/>
     </g>
     <g id="line2d_22">
      <g>
       <use xlink:href="#m6f3f5b6aff" x="73.980469" y="94.418698" style="stroke: #000000; stroke-width: 0.8"/>
      </g>
     </g>
     <g id="text_12">
      <!-- 0.4 -->
      <g transform="translate(43.125781 100.117527)scale(0.15 -0.15)">
       <use xlink:href="#DejaVuSans-30"/>
       <use xlink:href="#DejaVuSans-2e" x="63.623047"/>
       <use xlink:href="#DejaVuSans-34" x="95.410156"/>
      </g>
     </g>
    </g>
    <g id="ytick_7">
     <g id="line2d_23">
      <path d="M 73.980469 56.596736 
L 431.100469 56.596736 
" clip-path="url(#p8e7a7c8e22)" style="fill: none; stroke: #b0b0b0; stroke-width: 0.8; stroke-linecap: square"/>
     </g>
     <g id="line2d_24">
      <g>
       <use xlink:href="#m6f3f5b6aff" x="73.980469" y="56.596736" style="stroke: #000000; stroke-width: 0.8"/>
      </g>
     </g>
     <g id="text_13">
      <!-- 0.6 -->
      <g transform="translate(43.125781 62.295564)scale(0.15 -0.15)">
       <use xlink:href="#DejaVuSans-30"/>
       <use xlink:href="#DejaVuSans-2e" x="63.623047"/>
       <use xlink:href="#DejaVuSans-36" x="95.410156"/>
      </g>
     </g>
    </g>
    <g id="text_14">
     <!-- $mm^{-2}$ -->
     <g transform="translate(22.396875 195.09225)rotate(-90)scale(0.2 -0.2)">
      <use xlink:href="#DejaVuSans-Oblique-6d" transform="translate(0 0.765625)"/>
      <use xlink:href="#DejaVuSans-Oblique-6d" transform="translate(97.412109 0.765625)"/>
      <use xlink:href="#DejaVuSans-2212" transform="translate(199.474115 39.046875)scale(0.7)"/>
      <use xlink:href="#DejaVuSans-32" transform="translate(258.126458 39.046875)scale(0.7)"/>
     </g>
    </g>
   </g>
   <g id="line2d_25">
    <path d="M 90.213196 229.038792 
L 90.284549 229.046976 
L 90.641312 226.252513 
L 90.712665 227.100103 
L 90.998075 222.262392 
L 91.069428 222.300213 
L 91.426191 218.030145 
L 91.854307 212.890021 
L 92.496481 205.515928 
L 92.853244 201.011807 
L 93.067302 199.913905 
L 93.352713 196.791398 
L 93.638123 194.326314 
L 93.709476 195.263884 
L 93.923534 192.058389 
L 94.208944 190.259396 
L 94.423002 188.802659 
L 94.565708 187.823379 
L 94.63706 187.849816 
L 94.922471 186.229345 
L 94.993823 186.128351 
L 95.207881 185.020363 
L 95.564645 183.678571 
L 95.778703 183.370331 
L 95.921408 182.636775 
L 95.99276 182.894169 
L 96.064113 182.816796 
L 96.278171 183.085862 
L 96.492229 182.63182 
L 96.634934 183.059597 
L 96.706287 182.270053 
L 96.77764 182.874702 
L 96.848992 181.837424 
L 96.991698 183.478782 
L 97.06305 183.572814 
L 97.134403 182.633533 
L 97.205755 182.754072 
L 97.277108 182.877714 
L 97.562519 184.603171 
L 97.919282 186.028403 
L 97.990635 185.270335 
L 98.061987 185.579233 
L 98.13334 185.208787 
L 98.276045 186.593493 
L 98.347398 186.239396 
L 98.846866 188.630741 
L 98.918219 188.582387 
L 99.060924 189.361584 
L 99.132277 189.438599 
L 99.20363 189.264752 
L 99.274982 189.507855 
L 99.346335 190.406505 
L 99.417688 189.98258 
L 99.703098 190.522933 
L 99.917156 191.633477 
L 99.988509 191.129112 
L 100.059861 191.267174 
L 100.273919 192.047855 
L 100.416625 192.292882 
L 100.55933 190.604216 
L 100.773388 190.642536 
L 100.916093 190.783743 
L 101.058798 190.378971 
L 101.130151 190.598157 
L 101.415562 190.035369 
L 101.486914 190.099132 
L 101.558267 190.426347 
L 101.700972 189.612084 
L 101.772325 190.083757 
L 101.91503 188.772372 
L 102.057735 189.105968 
L 102.271793 188.917942 
L 102.343146 188.741696 
L 102.485851 189.308089 
L 102.699909 188.522756 
L 102.771262 188.547848 
L 102.842615 188.771381 
L 102.913967 188.568133 
L 102.98532 189.019404 
L 103.128025 187.821495 
L 103.199378 187.846121 
L 103.484788 187.125854 
L 103.627494 188.230716 
L 103.770199 187.908944 
L 103.841552 188.329849 
L 104.05561 187.865865 
L 104.126962 187.763515 
L 104.34102 186.697818 
L 104.412373 186.783658 
L 104.483725 187.384362 
L 104.555078 186.846635 
L 104.626431 186.866693 
L 104.697783 187.005832 
L 104.769136 186.826442 
L 104.911841 187.344465 
L 104.983194 187.403163 
L 105.125899 186.265917 
L 105.197252 186.450996 
L 105.268605 185.857583 
L 105.339957 185.966566 
L 105.41131 185.925947 
L 105.554015 184.95172 
L 106.76701 180.414264 
L 107.266479 176.085688 
L 107.337831 176.060203 
L 107.694595 174.567679 
L 108.051358 173.082869 
L 108.265416 169.793078 
L 108.336768 170.120242 
L 108.550826 168.895815 
L 108.622179 169.122362 
L 108.764884 168.51011 
L 108.836237 168.587471 
L 108.90759 167.954922 
L 108.978942 168.166549 
L 109.193 167.608092 
L 109.407058 166.145873 
L 109.478411 165.962899 
L 109.692469 164.873869 
L 109.763821 165.400449 
L 109.835174 165.293649 
L 110.120585 164.004081 
L 110.26329 164.432354 
L 110.405995 164.000033 
L 110.620053 163.758571 
L 110.834111 163.270923 
L 110.905464 163.433299 
L 111.048169 162.584254 
L 111.190874 163.455757 
L 111.262227 163.297085 
L 111.33358 163.791574 
L 111.476285 163.031014 
L 111.547638 163.212135 
L 111.61899 163.816873 
L 111.690343 163.798923 
L 111.833048 162.865768 
L 111.904401 164.539196 
L 111.975753 162.731842 
L 112.047106 162.854323 
L 112.118459 162.902664 
L 112.189811 163.411064 
L 112.261164 162.75774 
L 112.332517 163.261112 
L 112.475222 162.684007 
L 112.68928 163.858215 
L 112.831985 163.915588 
L 112.974691 164.056861 
L 113.616864 165.235121 
L 114.187686 166.536632 
L 114.330391 165.664404 
L 114.401743 165.84919 
L 114.473096 167.604852 
L 114.544449 167.308474 
L 114.758507 167.756556 
L 114.829859 167.303498 
L 114.901212 167.403601 
L 115.11527 168.071902 
L 115.186623 167.950177 
L 115.257975 168.638193 
L 115.329328 168.195857 
L 115.400681 168.218278 
L 115.472033 168.240371 
L 115.686091 168.629636 
L 115.900149 168.815193 
L 116.042854 168.935748 
L 116.256912 169.42108 
L 116.328265 168.895865 
L 116.47097 169.240348 
L 116.542323 169.023764 
L 116.613676 169.834679 
L 116.685028 169.430474 
L 116.756381 169.582483 
L 116.899086 168.687405 
L 116.970439 170.484385 
L 117.041791 170.162447 
L 117.184497 169.76128 
L 117.255849 170.040553 
L 117.327202 169.975106 
L 117.398555 169.95637 
L 117.612613 170.813306 
L 117.683965 170.260892 
L 117.826671 170.738183 
L 117.898023 170.577536 
L 118.040728 171.577186 
L 118.183434 171.436679 
L 118.397492 171.770345 
L 118.540197 172.200636 
L 118.682902 171.937869 
L 118.89696 173.228722 
L 118.968313 173.344077 
L 119.039666 172.911822 
L 119.111018 173.004729 
L 119.253723 173.498798 
L 119.325076 172.922165 
L 119.539134 175.168954 
L 119.610487 174.692114 
L 119.681839 174.712399 
L 119.753192 174.797206 
L 119.824545 175.23478 
L 119.895897 174.635162 
L 119.96725 174.801096 
L 120.038603 174.900591 
L 120.252661 175.879383 
L 120.324013 175.890037 
L 120.395366 175.510563 
L 120.466719 175.647038 
L 120.538071 176.140261 
L 120.609424 176.074227 
L 120.680776 175.94132 
L 120.823482 176.846749 
L 120.966187 176.614204 
L 121.180245 177.059605 
L 121.32295 177.432822 
L 121.394303 177.10179 
L 121.751066 178.224835 
L 121.965124 177.16591 
L 122.107829 179.042966 
L 122.321887 179.665861 
L 122.39324 179.612794 
L 122.464593 179.010274 
L 122.535945 179.31195 
L 122.750003 180.189558 
L 123.035414 180.921469 
L 123.106766 181.762118 
L 123.178119 181.339084 
L 123.606235 183.56407 
L 123.677588 183.17039 
L 123.74894 183.216961 
L 124.034351 184.554361 
L 124.248409 185.40293 
L 124.391114 186.8764 
L 124.462467 186.457282 
L 124.533819 184.855085 
L 124.676525 187.232626 
L 124.81923 187.524769 
L 124.890583 188.597627 
L 124.961935 188.145614 
L 125.033288 188.549154 
L 125.104641 187.896533 
L 125.390051 189.492857 
L 125.532756 189.750998 
L 125.675462 190.618526 
L 125.818167 191.207111 
L 125.88952 190.124614 
L 125.960872 190.177976 
L 126.246283 191.695963 
L 126.460341 191.897421 
L 126.603046 191.542909 
L 126.674399 191.720508 
L 126.817104 191.458226 
L 127.031162 191.8078 
L 127.102515 191.107089 
L 127.173867 192.978492 
L 127.24522 192.601206 
L 127.316573 191.438362 
L 127.387925 191.602399 
L 127.459278 191.572651 
L 128.244157 188.821579 
L 128.31551 187.63585 
L 128.386862 189.077706 
L 128.458215 188.763906 
L 128.529568 188.470042 
L 128.814978 185.366134 
L 128.886331 185.567541 
L 129.385799 181.041569 
L 129.742563 176.895174 
L 129.813915 176.526298 
L 130.099326 173.293434 
L 131.883142 151.626075 
L 132.668021 145.4992 
L 132.953432 144.491149 
L 133.096137 143.977943 
L 133.16749 143.630739 
L 133.238842 143.892401 
L 133.381548 143.200712 
L 133.4529 143.298638 
L 133.666958 143.233262 
L 133.738311 142.777764 
L 133.809664 142.819616 
L 133.881016 142.917344 
L 133.952369 142.834638 
L 134.023721 142.849596 
L 134.166427 143.495455 
L 134.237779 142.465241 
L 134.309132 142.505059 
L 134.52319 143.219126 
L 134.594543 143.350765 
L 134.808601 144.573864 
L 134.879953 144.060187 
L 134.951306 144.522711 
L 135.022659 144.122064 
L 135.165364 144.825798 
L 135.236717 144.739107 
L 135.308069 144.685645 
L 135.450774 145.134203 
L 135.59348 146.33156 
L 135.664832 146.290878 
L 135.950243 146.85794 
L 136.092948 148.041191 
L 136.307006 148.249378 
L 136.378359 148.536173 
L 136.449712 148.28185 
L 137.091885 151.205522 
L 137.234591 150.881738 
L 137.734059 154.679952 
L 137.805412 154.579532 
L 137.948117 155.738895 
L 138.01947 155.715108 
L 138.090822 155.897902 
L 138.590291 159.254943 
L 138.661644 159.425326 
L 138.875702 161.293802 
L 138.947054 161.043993 
L 139.803286 165.309265 
L 139.874639 166.050368 
L 139.945991 165.927609 
L 140.017344 165.301121 
L 140.374107 168.285775 
L 140.44546 168.464516 
L 140.516812 168.183825 
L 140.588165 168.346104 
L 140.802223 169.267457 
L 140.944928 169.639249 
L 141.016281 169.522836 
L 141.230339 169.770613 
L 141.301692 170.600019 
L 141.373044 170.578299 
L 141.444397 170.281768 
L 141.515749 170.365566 
L 141.80116 170.70031 
L 141.872513 170.27604 
L 141.943865 170.350986 
L 142.086571 170.63516 
L 142.157923 170.637671 
L 142.443334 171.301526 
L 142.514687 170.941294 
L 142.586039 171.117134 
L 142.87145 172.471531 
L 142.942802 171.704239 
L 143.014155 171.813705 
L 143.085508 171.829808 
L 143.228213 172.544085 
L 143.299566 172.13619 
L 143.370918 172.224919 
L 143.584976 172.281007 
L 143.870387 172.444393 
L 144.155797 171.402173 
L 144.298503 172.657389 
L 144.441208 172.418264 
L 144.583913 172.438236 
L 144.655266 171.941623 
L 144.726619 171.976345 
L 144.940677 172.158763 
L 145.012029 171.871288 
L 145.083382 171.938627 
L 145.154734 171.956076 
L 145.29744 172.492142 
L 145.58285 171.96014 
L 145.725556 173.007065 
L 145.939614 171.825063 
L 146.010966 171.346289 
L 146.153672 171.674931 
L 146.510435 171.401963 
L 146.65314 170.612168 
L 146.867198 170.326064 
L 146.938551 170.222865 
L 147.009903 170.69924 
L 147.081256 170.642627 
L 147.223961 170.556424 
L 147.295314 170.531644 
L 147.366667 170.091723 
L 147.438019 170.24929 
L 147.509372 170.221932 
L 147.580724 170.053513 
L 147.652077 170.090624 
L 147.72343 170.191244 
L 147.794782 170.74177 
L 147.866135 170.703278 
L 148.151546 170.554247 
L 148.294251 171.344995 
L 148.365604 171.696014 
L 148.436956 171.280297 
L 148.651014 171.800389 
L 148.793719 170.606248 
L 149.007777 171.37429 
L 149.150483 170.920521 
L 149.293188 170.899492 
L 149.435893 171.162827 
L 149.578599 171.099483 
L 149.721304 171.755595 
L 149.792657 171.255892 
L 149.864009 171.406639 
L 150.078067 171.85432 
L 150.14942 171.428301 
L 150.220772 171.487142 
L 150.292125 171.604565 
L 150.43483 172.060714 
L 150.577536 172.089597 
L 150.720241 171.862441 
L 150.791594 172.180867 
L 150.862946 172.112647 
L 150.934299 172.033317 
L 151.005652 172.38668 
L 151.077004 172.355414 
L 151.21971 171.868674 
L 151.291062 172.037867 
L 151.362415 172.215357 
L 151.433767 172.177225 
L 151.647825 171.114162 
L 151.861883 171.0553 
L 151.933236 171.157967 
L 152.075941 171.025482 
L 152.218647 171.339242 
L 152.289999 170.605113 
L 152.361352 170.807633 
L 152.432705 170.906595 
L 152.504057 170.837385 
L 152.57541 170.836274 
L 152.789468 171.224344 
L 152.86082 171.104321 
L 153.003526 171.392939 
L 153.146231 171.356198 
L 153.288936 171.283492 
L 153.360289 171.686501 
L 153.431642 171.667866 
L 153.574347 171.454656 
L 153.6457 172.093672 
L 153.717052 171.738152 
L 153.93111 171.336943 
L 154.073815 171.902973 
L 154.216521 170.818588 
L 154.287873 170.85543 
L 154.359226 170.907704 
L 154.501931 170.800445 
L 154.573284 170.752639 
L 154.715989 171.966751 
L 154.787342 172.039693 
L 154.930047 171.118273 
L 155.0014 171.08004 
L 155.072752 171.709568 
L 155.144105 171.472024 
L 155.358163 171.404122 
L 155.429516 172.110746 
L 155.572221 170.79532 
L 155.714926 170.837162 
L 155.786279 170.753517 
L 155.857632 171.067748 
L 155.928984 170.994502 
L 156.000337 170.903702 
L 156.285747 170.23009 
L 156.3571 170.066068 
L 156.428453 170.587599 
L 156.499805 170.569974 
L 156.642511 170.184745 
L 156.785216 170.834324 
L 156.856569 170.258756 
L 156.927921 170.357672 
L 157.070627 170.318793 
L 157.141979 170.241549 
L 157.284685 169.497457 
L 157.356037 169.816914 
L 157.42739 169.156705 
L 157.570095 169.875032 
L 157.641448 168.155095 
L 157.7128 168.170877 
L 157.855506 168.971696 
L 157.998211 169.21974 
L 158.140916 169.47552 
L 158.212269 169.020751 
L 158.283622 169.197419 
L 158.354974 169.17602 
L 158.569032 169.58319 
L 158.78309 169.588372 
L 158.997148 169.624043 
L 159.068501 169.519404 
L 159.211206 170.252924 
L 159.425264 169.570534 
L 159.496617 169.932214 
L 159.567969 169.468318 
L 159.639322 169.584318 
L 159.710675 169.582319 
L 159.85338 169.9973 
L 159.924732 168.911918 
L 159.996085 169.355786 
L 160.13879 169.451759 
L 160.210143 170.646165 
L 160.281496 170.541227 
L 160.352848 170.549148 
L 160.495554 170.220378 
L 160.566906 170.836003 
L 160.638259 170.579244 
L 160.709612 170.671869 
L 160.780964 170.44715 
L 160.852317 170.4837 
L 160.92367 170.639758 
L 160.995022 170.162496 
L 161.066375 170.203375 
L 161.137727 170.177264 
L 161.20908 169.97472 
L 161.280433 170.058465 
L 161.637196 170.047244 
L 161.779901 169.963178 
L 161.851254 169.932789 
L 161.993959 170.588833 
L 162.136665 170.258057 
L 162.208017 170.430979 
L 162.27937 168.929136 
L 162.350722 169.900593 
L 162.422075 169.794271 
L 162.493428 169.222901 
L 162.56478 169.4883 
L 162.921544 169.500894 
L 163.064249 170.342636 
L 163.135602 170.267007 
L 163.206954 170.225552 
L 163.278307 170.535276 
L 163.34966 170.514637 
L 163.492365 170.470345 
L 163.63507 170.892537 
L 163.777775 170.293228 
L 163.849128 170.83219 
L 163.920481 170.682898 
L 164.063186 170.777577 
L 164.134539 170.58964 
L 164.205891 170.645941 
L 164.348597 171.250486 
L 164.419949 171.213941 
L 164.562655 170.397899 
L 164.634007 171.110013 
L 164.70536 170.900159 
L 164.776713 170.544563 
L 164.848065 170.611008 
L 164.919418 171.716221 
L 165.062123 169.846285 
L 165.133476 170.136535 
L 165.204828 170.307155 
L 165.347534 171.583847 
L 165.418886 171.590081 
L 165.561592 171.168986 
L 165.632944 171.189547 
L 165.989708 170.577908 
L 166.06106 171.080635 
L 166.275118 170.597891 
L 166.417823 170.802547 
L 166.489176 170.169174 
L 166.560529 170.201294 
L 166.917292 170.282873 
L 167.059997 170.151305 
L 167.13135 170.224834 
L 167.274055 169.785902 
L 167.345408 168.617308 
L 167.41676 168.993898 
L 167.488113 170.263768 
L 167.559466 169.131721 
L 167.630818 169.351864 
L 167.773524 169.766933 
L 167.844876 169.172985 
L 167.916229 169.223353 
L 167.987582 169.265954 
L 168.272992 170.0682 
L 168.415698 169.690988 
L 168.48705 169.901014 
L 168.558403 169.851758 
L 168.701108 169.846232 
L 168.843813 170.562192 
L 168.915166 170.311102 
L 168.986519 170.35695 
L 169.129224 170.698269 
L 169.271929 170.036224 
L 169.414635 170.852611 
L 169.485987 170.852081 
L 169.628693 170.413349 
L 169.771398 170.540534 
L 169.914103 169.968976 
L 169.985456 171.149145 
L 170.056808 171.107973 
L 170.199514 170.278323 
L 170.270866 170.358622 
L 170.413572 171.695679 
L 170.484924 171.990392 
L 170.62763 171.308061 
L 170.770335 171.424797 
L 170.841688 171.314617 
L 170.91304 171.364914 
L 170.984393 171.374793 
L 171.269803 171.070509 
L 171.341156 171.054149 
L 171.483861 171.712428 
L 171.626567 171.437835 
L 171.769272 171.464446 
L 171.911977 172.048371 
L 171.98333 171.485675 
L 172.054683 171.512544 
L 172.126035 171.542083 
L 172.26874 171.869801 
L 172.340093 171.832084 
L 172.482798 170.343638 
L 172.554151 171.564403 
L 172.625504 170.694868 
L 172.696856 170.995837 
L 172.839562 171.856912 
L 173.05362 171.509018 
L 173.267678 172.776822 
L 173.410383 171.951661 
L 173.481735 172.014828 
L 173.695793 172.653143 
L 174.195262 173.078709 
L 174.40932 172.96709 
L 174.552025 174.001711 
L 174.623378 174.10841 
L 174.766083 173.101986 
L 174.837436 173.181824 
L 174.908788 173.113553 
L 175.051494 172.801097 
L 175.122846 174.066321 
L 175.265552 172.766153 
L 175.408257 172.904765 
L 175.47961 174.224614 
L 175.550962 174.180137 
L 175.836373 174.059009 
L 175.907725 174.272552 
L 176.193136 173.353938 
L 176.335841 173.429653 
L 176.692605 173.309938 
L 176.763957 173.218369 
L 176.83531 173.284186 
L 176.906663 173.285897 
L 177.12072 173.644414 
L 177.192073 173.542068 
L 177.263426 173.844687 
L 177.548836 171.767118 
L 177.620189 173.144415 
L 177.691542 172.404654 
L 177.762894 172.798468 
L 177.834247 172.776975 
L 178.048305 173.012503 
L 178.19101 173.035474 
L 178.333716 173.57465 
L 178.405068 173.647666 
L 178.476421 173.500681 
L 178.619126 173.942023 
L 178.690479 173.504747 
L 178.761831 173.544933 
L 179.047242 174.130845 
L 179.332653 174.357001 
L 179.404005 174.189515 
L 179.475358 174.269385 
L 179.618063 174.948868 
L 179.689416 175.003735 
L 179.832121 174.682304 
L 179.974826 174.837392 
L 180.117532 174.399204 
L 180.188884 175.579103 
L 180.260237 174.451278 
L 180.33159 174.494988 
L 180.474295 174.678185 
L 180.617 175.958807 
L 180.973763 176.152422 
L 181.116469 176.029517 
L 181.829995 176.499886 
L 182.044053 177.022434 
L 182.329464 177.393125 
L 182.472169 177.580447 
L 182.543522 176.470398 
L 182.614874 176.748948 
L 182.686227 176.400907 
L 182.75758 177.568051 
L 182.828932 177.529562 
L 182.971638 177.851245 
L 183.257048 178.382462 
L 183.471106 179.213631 
L 183.542459 179.365219 
L 183.613811 179.168188 
L 183.899222 180.027962 
L 184.398691 180.976392 
L 184.541396 181.000572 
L 184.684101 181.812574 
L 184.826806 182.090985 
L 184.898159 181.765568 
L 184.969512 181.87211 
L 185.040864 182.003062 
L 185.112217 181.960687 
L 185.18357 181.670016 
L 185.254922 182.621749 
L 185.326275 182.204004 
L 185.397628 181.694439 
L 185.46898 181.919705 
L 185.611686 182.03395 
L 185.754391 183.255419 
L 185.825743 183.309431 
L 186.039801 183.736467 
L 186.396565 183.562032 
L 187.110091 184.281184 
L 187.324149 184.809849 
L 187.395502 184.612279 
L 187.466854 184.71865 
L 187.60956 184.895867 
L 187.752265 183.743522 
L 187.89497 184.868034 
L 187.966323 184.865629 
L 188.465791 186.2026 
L 188.537144 186.019245 
L 189.464728 187.455525 
L 189.678786 187.59666 
L 189.750139 187.761136 
L 189.892844 188.329283 
L 190.03555 187.843554 
L 190.106902 187.952409 
L 190.392313 187.383763 
L 190.463666 188.445104 
L 190.606371 187.589678 
L 190.891781 187.589094 
L 190.963134 188.620974 
L 191.034487 188.551177 
L 191.105839 188.487409 
L 191.319897 187.543198 
L 191.605308 186.784595 
L 191.676661 186.811081 
L 191.819366 186.2802 
L 191.890719 185.894123 
L 192.033424 186.397068 
L 192.247482 185.750271 
L 192.318834 186.034509 
L 192.889656 182.335102 
L 192.961008 183.185263 
L 193.175066 181.821698 
L 193.317771 180.873667 
L 193.460477 182.092396 
L 193.603182 178.920484 
L 193.674535 179.045829 
L 193.745887 178.917019 
L 194.174003 176.168552 
L 194.530766 173.190604 
L 194.602119 173.26163 
L 194.673472 173.701188 
L 194.816177 170.188241 
L 194.958882 170.066929 
L 195.458351 164.241513 
L 195.529704 164.663878 
L 195.886467 159.737256 
L 195.957819 160.729168 
L 196.029172 157.553431 
L 196.100525 157.977955 
L 196.171877 157.75288 
L 196.671346 151.262637 
L 198.66922 126.22914 
L 199.810862 110.111831 
L 201.09521 90.05101 
L 201.309268 84.444436 
L 202.1655 70.774512 
L 203.449847 52.26086 
L 203.949316 47.272336 
L 204.020669 45.7475 
L 204.092021 47.304096 
L 204.163374 46.830878 
L 204.377432 44.822929 
L 204.734195 43.852956 
L 204.805548 43.99597 
L 204.948253 43.53225 
L 205.233664 44.374318 
L 205.519074 45.414646 
L 205.661779 47.879629 
L 205.733132 45.683168 
L 205.804485 46.186418 
L 205.94719 47.420035 
L 206.232601 53.221279 
L 206.375306 53.289608 
L 207.30289 68.220876 
L 207.516948 74.402986 
L 208.872649 106.764715 
L 209.086707 114.895244 
L 209.372117 123.295732 
L 211.013228 167.677111 
L 212.440281 203.28774 
L 212.511634 201.435914 
L 213.581923 220.079073 
L 213.867334 223.48385 
L 213.938687 222.82056 
L 214.010039 223.440021 
L 214.152744 227.310304 
L 214.224097 226.690406 
L 214.438155 227.670254 
L 214.509508 226.363434 
L 214.652213 227.743191 
L 214.723566 227.658578 
L 214.794918 229.880809 
L 214.866271 229.871297 
L 214.937624 228.911876 
L 215.080329 231.662953 
L 215.151682 231.522158 
L 216.436029 221.712074 
L 217.363614 212.579503 
L 217.434966 213.259117 
L 217.577672 212.519956 
L 217.791729 210.262054 
L 218.433903 207.220068 
L 218.719314 206.306829 
L 219.076077 206.178115 
L 219.43284 206.410338 
L 219.932309 207.536055 
L 220.003662 207.360696 
L 220.075014 207.705404 
L 220.146367 208.705423 
L 220.217719 208.547971 
L 221.359362 213.043163 
L 221.716125 214.889412 
L 222.501004 218.299332 
L 222.786415 219.369821 
L 223.071825 221.769884 
L 223.143178 219.807621 
L 223.214531 220.433153 
L 223.357236 220.90409 
L 223.571294 222.058308 
L 223.713999 222.244853 
L 223.99941 222.636773 
L 224.213468 222.757816 
L 224.427526 222.631945 
L 224.641584 222.479128 
L 224.712936 222.455356 
L 225.35511 220.564464 
L 225.569168 218.848197 
L 225.711873 218.299005 
L 226.4254 213.45989 
L 228.209216 199.659175 
L 228.708685 196.507436 
L 229.279506 193.277101 
L 229.350858 193.385363 
L 229.850327 190.059072 
L 230.20709 188.61697 
L 231.491438 182.291602 
L 231.56279 182.83961 
L 231.919554 180.530972 
L 233.203901 177.432606 
L 233.489312 177.234006 
L 233.70337 177.1352 
L 233.846075 177.185958 
L 233.917428 177.218649 
L 233.98878 177.409014 
L 234.060133 177.374291 
L 234.131486 177.372278 
L 234.202838 177.024024 
L 234.274191 177.103091 
L 234.416896 177.48858 
L 234.916365 177.913584 
L 234.987718 177.81794 
L 235.05907 178.301568 
L 235.201775 177.77088 
L 235.415833 178.2827 
L 235.701244 178.433588 
L 236.12936 178.182832 
L 236.200713 178.350876 
L 236.272065 178.304321 
L 236.343418 179.110385 
L 236.41477 178.721049 
L 236.486123 178.613705 
L 236.628828 178.081726 
L 236.700181 178.380959 
L 236.771534 178.327887 
L 236.842886 178.359683 
L 236.985592 178.240698 
L 237.128297 178.373078 
L 237.271002 178.057425 
L 237.48506 177.954489 
L 238.055881 177.83418 
L 238.55535 177.692638 
L 238.698055 177.369791 
L 238.769408 177.995881 
L 238.84076 177.823884 
L 238.983466 177.644803 
L 239.054818 177.93128 
L 239.197524 177.656821 
L 239.62564 177.48553 
L 239.91105 177.373345 
L 240.125108 177.194771 
L 240.267813 176.946975 
L 240.339166 177.072527 
L 240.410519 177.317258 
L 240.553224 176.595546 
L 240.695929 176.609208 
L 240.767282 176.579577 
L 241.052693 175.965063 
L 241.124045 176.089217 
L 241.26675 175.775507 
L 241.338103 175.785997 
L 241.837572 174.851207 
L 241.980277 174.799114 
L 242.622451 173.953667 
L 242.765156 174.264429 
L 242.907861 173.630546 
L 243.193272 173.568773 
L 243.335977 173.342709 
L 243.478683 173.615336 
L 243.550035 173.433508 
L 243.835446 173.352543 
L 244.406267 172.997605 
L 244.47762 172.953311 
L 244.548972 173.057206 
L 244.834383 172.69691 
L 244.905735 172.564965 
L 244.977088 172.609443 
L 245.048441 172.803427 
L 245.119793 172.706378 
L 245.405204 172.082677 
L 245.619262 172.035699 
L 245.83332 171.180846 
L 245.904673 171.473798 
L 246.11873 171.270278 
L 246.404141 170.631627 
L 246.618199 170.38422 
L 246.974962 169.876972 
L 247.331725 169.613907 
L 247.403078 169.740584 
L 247.474431 169.691927 
L 247.545783 169.03414 
L 247.617136 169.158484 
L 247.759841 169.299282 
L 247.902547 169.270536 
L 248.045252 168.997936 
L 248.187957 169.070304 
L 248.473368 168.993778 
L 248.54472 168.944536 
L 248.616073 169.033731 
L 248.687426 168.954343 
L 248.972836 168.895419 
L 249.472305 168.771353 
L 249.543658 168.653016 
L 249.61501 168.776098 
L 249.686363 168.73221 
L 249.829068 168.61766 
L 249.900421 168.118496 
L 249.971773 168.274484 
L 250.471242 168.0529 
L 250.6853 167.376264 
L 251.042063 166.922848 
L 251.327474 166.227306 
L 251.398826 165.675886 
L 251.541532 166.51308 
L 251.75559 165.599191 
L 252.041 165.259715 
L 252.112353 165.378658 
L 252.255058 164.439572 
L 252.397763 164.482385 
L 252.540469 164.57053 
L 253.11129 163.759387 
L 253.253995 164.145196 
L 253.325348 164.096862 
L 253.539406 163.753157 
L 253.682111 163.614252 
L 253.753464 163.130357 
L 253.896169 164.184409 
L 254.038874 163.791914 
L 254.18158 163.798396 
L 254.324285 163.752007 
L 254.395638 163.795733 
L 254.46699 163.993171 
L 254.538343 163.918494 
L 254.609696 163.449291 
L 254.681048 163.677247 
L 254.823753 163.716948 
L 255.037811 164.016929 
L 255.251869 163.658537 
L 255.323222 163.739135 
L 255.608633 163.828085 
L 255.751338 163.644147 
L 255.894043 163.681571 
L 256.036748 163.470415 
L 256.108101 163.093485 
L 256.250806 164.06802 
L 256.393512 163.571473 
L 256.964333 163.861362 
L 257.035686 163.880028 
L 257.249743 164.161679 
L 257.321096 164.165928 
L 257.606507 164.687952 
L 257.820565 165.103599 
L 258.105975 165.988199 
L 258.462738 166.712354 
L 258.534091 167.908339 
L 258.605444 167.783323 
L 259.03356 168.980636 
L 260.317907 173.427872 
L 260.38926 173.130901 
L 260.460613 173.21679 
L 260.746023 173.96305 
L 260.817376 173.973194 
L 260.888728 174.964652 
L 260.960081 174.749625 
L 261.031434 174.399894 
L 261.316844 175.0536 
L 262.601192 176.706298 
L 262.743897 177.451471 
L 262.886603 176.815421 
L 263.029308 176.93643 
L 263.243366 178.244785 
L 263.314719 177.994382 
L 263.386071 177.575885 
L 263.457424 177.817918 
L 263.814187 178.374508 
L 264.242303 178.744066 
L 264.670419 179.013684 
L 264.741771 178.936912 
L 264.955829 179.255665 
L 265.027182 178.939538 
L 265.098535 178.990575 
L 265.169887 179.081173 
L 265.312593 178.49898 
L 265.383945 178.632471 
L 265.455298 179.183606 
L 265.526651 178.696841 
L 265.598003 178.826659 
L 265.740709 178.522971 
L 265.812061 178.540401 
L 266.097472 178.236389 
L 266.168824 178.259146 
L 266.953704 177.282687 
L 267.096409 177.232307 
L 267.167761 177.181724 
L 267.239114 177.56526 
L 267.310467 177.425318 
L 267.381819 177.39334 
L 267.453172 177.085801 
L 267.524525 177.173244 
L 268.095346 177.680847 
L 268.166699 177.466407 
L 268.238051 177.524701 
L 268.808872 178.351282 
L 268.951578 178.418801 
L 269.308341 179.116196 
L 269.379694 178.968796 
L 269.451046 179.022438 
L 269.807809 179.441066 
L 270.09322 179.983145 
L 270.164573 179.664907 
L 270.235925 179.705442 
L 270.307278 179.696798 
L 270.378631 179.537359 
L 270.449983 179.601413 
L 270.521336 179.755643 
L 270.735394 179.400625 
L 270.878099 179.575808 
L 271.306215 178.864198 
L 271.805684 178.014892 
L 272.019741 177.469233 
L 272.091094 177.568416 
L 272.447857 176.569876 
L 272.51921 176.714929 
L 272.804621 175.530106 
L 273.161384 174.6574 
L 275.159258 169.032736 
L 275.373316 167.936901 
L 275.516021 167.692877 
L 275.730079 166.932399 
L 275.801432 167.105523 
L 276.3009 165.785054 
L 276.514958 165.492555 
L 276.943074 164.852762 
L 277.085779 164.793265 
L 277.157132 164.96731 
L 277.228485 164.936568 
L 277.299837 164.855412 
L 277.442543 165.074271 
L 277.513895 164.985989 
L 277.585248 165.02271 
L 277.656601 164.722753 
L 277.870659 165.211551 
L 277.942011 165.176069 
L 278.156069 165.480476 
L 278.227422 165.388008 
L 279.654475 167.616478 
L 279.725827 167.462795 
L 279.868533 168.136206 
L 280.082591 167.90752 
L 280.296649 168.320689 
L 280.368001 168.214877 
L 280.439354 167.717619 
L 280.510707 167.951958 
L 280.724764 168.116293 
L 281.010175 168.074314 
L 281.580996 167.975418 
L 281.652349 168.007759 
L 282.009112 167.705211 
L 282.080465 167.619759 
L 282.151817 167.35686 
L 282.294523 167.85155 
L 282.437228 167.913908 
L 282.508581 167.776745 
L 282.579933 167.837953 
L 282.722639 168.23468 
L 282.793991 168.09917 
L 282.865344 167.694037 
L 282.936697 167.836269 
L 283.079402 168.023845 
L 283.364812 168.53075 
L 283.436165 168.437594 
L 283.507518 168.56413 
L 283.650223 168.49371 
L 283.721576 168.535179 
L 283.935634 168.901476 
L 284.363749 169.296625 
L 284.435102 169.212103 
L 284.506455 169.273852 
L 284.577807 169.274442 
L 284.64916 169.404236 
L 284.720513 169.88975 
L 284.791865 169.652458 
L 285.005923 169.647495 
L 285.077276 169.721135 
L 285.148629 170.024878 
L 285.291334 169.409857 
L 285.576744 169.601065 
L 285.648097 169.562236 
L 285.790802 169.310619 
L 286.076213 169.268189 
L 286.361624 169.031386 
L 286.718387 168.836274 
L 287.003797 168.457679 
L 287.07515 168.466828 
L 287.146503 168.689572 
L 287.217855 168.616797 
L 287.360561 168.636672 
L 287.574619 168.765153 
L 287.645971 168.417231 
L 287.717324 168.455967 
L 287.788677 168.445851 
L 287.860029 168.720216 
L 287.931382 168.623618 
L 288.074087 168.67046 
L 288.288145 168.795369 
L 288.502203 169.122639 
L 288.787614 169.150321 
L 288.930319 169.545455 
L 289.001672 169.458297 
L 289.215729 169.794928 
L 289.358435 169.703188 
L 289.50114 169.75634 
L 289.786551 169.831173 
L 289.857903 170.34954 
L 289.929256 170.159838 
L 290.214667 170.225242 
L 290.286019 170.44993 
L 290.428724 169.87658 
L 290.785488 169.927307 
L 291.142251 169.775732 
L 291.356309 169.61347 
L 291.784425 169.289245 
L 291.855777 169.124754 
L 291.92713 169.212494 
L 291.998483 169.188636 
L 292.141188 168.76464 
L 292.283893 169.415659 
L 292.355246 169.23448 
L 292.497951 168.984891 
L 292.712009 169.282411 
L 292.854715 168.695578 
L 293.782299 169.056936 
L 293.925004 169.024363 
L 294.139062 169.087716 
L 294.35312 169.11375 
L 294.638531 168.960317 
L 294.709883 169.443313 
L 294.781236 169.20885 
L 295.066647 169.093621 
L 295.137999 169.282646 
L 295.280705 168.6558 
L 295.42341 168.732558 
L 295.566115 168.799567 
L 295.780173 168.696427 
L 295.994231 168.462589 
L 296.350994 168.222257 
L 296.707757 167.961812 
L 296.77911 168.049029 
L 296.850463 167.96454 
L 296.993168 167.638947 
L 297.064521 167.706014 
L 297.135873 167.950481 
L 297.207226 167.880123 
L 297.278579 167.837391 
L 297.563989 168.378064 
L 297.635342 168.020002 
L 297.8494 168.615932 
L 297.920752 168.499609 
L 297.992105 168.580173 
L 298.634279 169.782622 
L 298.991042 170.622425 
L 299.347805 171.668414 
L 299.775921 172.618472 
L 299.847274 173.236953 
L 299.918627 173.209235 
L 300.204037 173.745108 
L 300.27539 174.112612 
L 300.346742 173.779979 
L 300.418095 173.925062 
L 300.917564 175.095606 
L 301.559737 176.10307 
L 301.773795 176.086354 
L 301.987853 176.412987 
L 302.059206 176.740263 
L 302.130559 176.63129 
L 302.273264 176.460839 
L 302.415969 176.629071 
L 302.487322 177.008256 
L 302.558675 176.926516 
L 302.70138 176.93413 
L 302.772732 176.821501 
L 302.844085 176.911697 
L 302.915438 177.035567 
L 303.058143 176.853931 
L 303.129496 176.847607 
L 303.272201 177.051681 
L 303.843022 176.896936 
L 304.199785 176.724971 
L 304.413843 176.336652 
L 304.485196 176.55769 
L 304.556549 176.442395 
L 304.841959 176.038575 
L 304.913312 176.288565 
L 305.056017 175.749552 
L 305.12737 175.785436 
L 305.626838 174.765853 
L 305.698191 174.988999 
L 305.769544 174.90241 
L 306.19766 174.158939 
L 306.340365 174.035328 
L 306.911186 173.090315 
L 307.125244 172.802519 
L 307.196597 173.014481 
L 307.267949 172.758229 
L 307.339302 173.043929 
L 307.482007 172.296628 
L 307.910123 171.929388 
L 308.195534 171.14201 
L 308.266886 171.284727 
L 308.338239 171.191127 
L 308.480944 171.288403 
L 308.90906 170.431333 
L 309.479881 169.092018 
L 309.97935 167.948216 
L 310.050703 168.090066 
L 310.26476 167.062155 
L 310.978287 164.91291 
L 311.905871 162.596928 
L 311.977224 162.529922 
L 312.048577 162.691343 
L 312.262635 162.097055 
L 312.40534 162.141797 
L 312.476693 162.459531 
L 312.69075 161.86312 
L 312.904808 162.196747 
L 313.118866 161.747079 
L 313.404277 162.195323 
L 313.76104 162.386253 
L 313.975098 162.607482 
L 314.260509 162.685785 
L 314.331861 162.583682 
L 314.474567 162.961902 
L 314.759977 162.714779 
L 314.902683 163.287388 
L 315.045388 162.581115 
L 315.11674 162.710636 
L 315.259446 162.78823 
L 315.330798 162.769616 
L 315.687562 162.213516 
L 315.758914 162.327921 
L 316.615146 160.705939 
L 316.829204 160.187885 
L 316.900557 160.519857 
L 317.043262 159.839242 
L 317.114615 159.937179 
L 317.185967 159.74609 
L 317.25732 159.988851 
L 317.328673 159.965747 
L 317.400025 159.799529 
L 317.54273 159.26448 
L 317.685436 159.066983 
L 317.756788 159.093749 
L 318.184904 158.417375 
L 318.256257 158.47129 
L 318.398962 158.587567 
L 318.898431 158.076523 
L 319.326547 157.582435 
L 319.469252 157.101741 
L 319.611957 157.410383 
L 319.897368 156.551507 
L 319.96872 156.806903 
L 320.040073 156.741677 
L 320.682247 154.533562 
L 320.967658 153.887169 
L 321.324421 152.203102 
L 321.395773 152.2157 
L 322.180653 148.962763 
L 322.252005 148.476341 
L 322.323358 148.601423 
L 322.394711 148.417488 
L 322.466063 148.629984 
L 322.680121 147.365482 
L 322.894179 146.909685 
L 323.108237 145.962244 
L 323.393648 145.2693 
L 324.249879 143.229138 
L 324.321232 143.413823 
L 324.392585 143.28742 
L 324.463937 143.639816 
L 324.53529 142.721325 
L 324.606643 142.916264 
L 324.820701 142.617447 
L 324.892053 143.094632 
L 324.963406 142.694329 
L 325.034758 142.733331 
L 325.106111 142.743623 
L 325.248816 142.988093 
L 325.320169 143.538993 
L 325.391522 143.305901 
L 325.60558 143.801543 
L 326.247753 146.847448 
L 326.889927 151.917246 
L 327.246691 156.34932 
L 327.674806 162.362939 
L 329.958091 194.456038 
L 330.528912 198.218484 
L 330.814323 199.094384 
L 331.242439 199.580991 
L 331.456497 199.4169 
L 331.741907 198.77099 
L 331.81326 198.925919 
L 331.884613 198.878202 
L 332.598139 196.229193 
L 332.669492 196.241101 
L 332.812197 195.840792 
L 335.452245 185.621928 
L 335.809008 183.904749 
L 336.094419 182.497818 
L 337.450119 177.601024 
L 337.664177 177.327927 
L 338.02094 176.559444 
L 338.092293 176.659184 
L 338.306351 176.07235 
L 338.449056 176.163744 
L 338.591761 176.020164 
L 338.734467 175.949664 
L 339.233935 175.149987 
L 339.376641 175.337086 
L 339.519346 175.404948 
L 339.662051 175.290751 
L 339.733404 175.308838 
L 339.876109 174.876997 
L 339.947462 174.932835 
L 340.16152 174.587031 
L 340.232872 174.675346 
L 340.304225 174.742183 
L 340.518283 174.485765 
L 340.589636 174.423575 
L 340.875046 173.824253 
L 341.089104 173.622592 
L 341.731278 172.592799 
L 341.802631 172.74014 
L 341.873983 172.844629 
L 342.302099 172.159946 
L 342.373452 172.250634 
L 342.516157 172.075992 
L 342.58751 172.078218 
L 342.730215 172.431341 
L 342.87292 172.362459 
L 343.015626 172.408959 
L 343.158331 172.18692 
L 343.372389 172.442322 
L 343.729152 172.733937 
L 343.800505 172.745216 
L 343.94321 172.90582 
L 344.085915 172.954246 
L 344.157268 172.956946 
L 344.371326 173.442087 
L 344.514031 173.454611 
L 344.585384 173.595352 
L 344.728089 173.355272 
L 344.942147 173.587304 
L 345.0135 173.529524 
L 345.227558 173.815621 
L 345.370263 173.881748 
L 346.511905 173.034704 
L 346.583258 172.791027 
L 346.725963 173.210884 
L 346.868669 172.86714 
L 346.940021 173.071094 
L 347.011374 172.982813 
L 347.296784 172.488248 
L 347.43949 172.240253 
L 347.582195 172.512241 
L 347.938958 171.9906 
L 348.010311 172.059332 
L 348.081664 171.940305 
L 348.224369 172.315077 
L 348.295721 171.8648 
L 348.367074 171.952418 
L 348.581132 171.968202 
L 348.937895 171.850145 
L 349.151953 171.702278 
L 349.223306 171.575615 
L 349.437364 171.810965 
L 349.722774 171.656798 
L 349.86548 171.164921 
L 349.936832 171.320184 
L 350.079538 170.890298 
L 350.15089 171.291121 
L 350.222243 171.023854 
L 350.293596 171.142074 
L 350.507654 170.906052 
L 350.579006 170.861297 
L 350.793064 170.365743 
L 351.363885 169.753551 
L 351.506591 169.534931 
L 351.720649 169.189428 
L 352.006059 169.302292 
L 352.29147 168.927252 
L 352.362822 169.06547 
L 352.505528 168.618591 
L 352.719586 169.56203 
L 352.790938 169.241648 
L 352.862291 169.340026 
L 353.004996 169.459565 
L 353.147702 169.226442 
L 353.504465 169.761378 
L 353.789875 170.112901 
L 353.861228 170.176799 
L 354.003933 169.923583 
L 354.217991 170.836467 
L 354.289344 171.122254 
L 354.360697 171.038165 
L 354.432049 170.683415 
L 354.503402 170.71314 
L 354.646107 171.019311 
L 354.71746 170.911789 
L 354.860165 171.155527 
L 354.931518 171.100981 
L 355.00287 171.06637 
L 355.288281 171.424154 
L 355.502339 170.889349 
L 355.645044 171.387735 
L 355.716397 171.182624 
L 355.787749 171.456717 
L 355.859102 171.327965 
L 355.930455 170.876928 
L 356.001807 170.983917 
L 356.07316 170.958228 
L 356.144513 171.093381 
L 356.215865 171.053176 
L 356.429923 170.829072 
L 356.786687 170.532791 
L 356.858039 170.34477 
L 356.929392 170.461104 
L 357.000744 170.380912 
L 357.14345 170.656896 
L 357.214802 170.346348 
L 357.286155 170.41771 
L 357.42886 170.237911 
L 357.785624 170.469281 
L 357.856976 170.5059 
L 357.928329 170.417196 
L 358.142387 170.694862 
L 358.427797 170.123029 
L 358.49915 171.158203 
L 358.570503 171.145619 
L 358.641855 171.291482 
L 358.713208 170.887091 
L 358.784561 171.068522 
L 358.998619 170.967961 
L 359.212677 170.961051 
L 359.56944 171.391942 
L 359.712145 171.514589 
L 359.926203 170.934794 
L 359.997556 171.478368 
L 360.068908 171.356346 
L 360.211614 171.37169 
L 360.282966 171.531237 
L 360.354319 171.402906 
L 360.425672 171.000677 
L 360.497024 171.078697 
L 360.568377 171.277136 
L 360.711082 170.878453 
L 360.996493 170.834389 
L 361.638667 170.27955 
L 361.852724 170.675711 
L 361.924077 170.090167 
L 361.99543 170.234008 
L 362.138135 170.355539 
L 362.28084 170.10033 
L 362.423546 170.22921 
L 362.566251 170.100857 
L 362.637604 170.12901 
L 362.851662 170.523342 
L 362.923014 170.514919 
L 362.994367 170.638882 
L 363.065719 170.394794 
L 363.137072 170.428762 
L 363.279777 170.856308 
L 363.422483 170.383085 
L 363.636541 170.999954 
L 364.207362 171.288439 
L 364.278715 171.614743 
L 364.350067 171.591113 
L 364.564125 171.566947 
L 364.635478 171.056452 
L 364.70683 171.315167 
L 364.778183 171.943845 
L 364.849536 171.626265 
L 364.920888 171.634421 
L 364.992241 171.336935 
L 365.063594 171.449388 
L 365.134946 171.647553 
L 365.206299 171.522688 
L 365.420357 171.413465 
L 365.563062 171.006584 
L 366.276589 170.478605 
L 366.347941 169.864661 
L 366.419294 169.882805 
L 366.490647 170.010038 
L 366.561999 169.959367 
L 366.84741 169.478421 
L 366.918762 169.798825 
L 366.990115 169.67039 
L 367.204173 169.227371 
L 367.275526 169.345588 
L 367.418231 169.112175 
L 367.489584 169.094227 
L 367.632289 169.426642 
L 367.774994 169.184195 
L 367.846347 168.684813 
L 368.060405 169.848954 
L 368.20311 169.559147 
L 368.559873 169.985782 
L 368.987989 170.569887 
L 369.130695 171.413815 
L 369.202047 170.307103 
L 369.2734 170.452123 
L 369.344752 170.615449 
L 369.55881 172.20995 
L 369.701516 171.917087 
L 369.844221 172.251115 
L 369.986926 173.078419 
L 370.058279 171.792598 
L 370.129632 172.17878 
L 370.272337 173.071966 
L 370.34369 173.031553 
L 370.771805 173.664964 
L 370.914511 173.757198 
L 371.057216 173.885146 
L 371.342627 174.203114 
L 371.69939 174.408251 
L 371.770742 174.307854 
L 371.913448 174.801187 
L 371.9848 174.858286 
L 372.056153 174.706049 
L 372.127506 174.796209 
L 372.270211 174.90337 
L 372.412916 175.102597 
L 372.484269 174.638324 
L 372.555622 174.862113 
L 372.626974 175.178758 
L 372.698327 174.117566 
L 372.76968 174.678654 
L 372.841032 175.303487 
L 372.912385 175.136713 
L 372.983737 175.082498 
L 373.126443 175.151709 
L 373.197795 174.555613 
L 373.269148 174.751898 
L 373.411853 174.656616 
L 373.483206 174.853084 
L 373.554559 174.750393 
L 373.839969 174.459775 
L 374.12538 174.040269 
L 374.196732 173.798891 
L 374.41079 174.428224 
L 374.482143 172.893719 
L 374.553496 173.295845 
L 374.838906 173.04103 
L 375.052964 172.269824 
L 375.267022 172.677268 
L 375.338375 171.033676 
L 375.409727 171.381176 
L 375.48108 171.641425 
L 375.695138 170.915948 
L 377.050838 168.525739 
L 377.193544 168.46645 
L 377.478954 168.105154 
L 377.693012 168.520443 
L 377.764365 168.565465 
L 377.90707 169.101154 
L 377.978423 167.537308 
L 378.049775 168.277668 
L 378.121128 168.742169 
L 378.192481 168.68217 
L 378.406539 168.971122 
L 378.477891 167.889466 
L 378.549244 169.303091 
L 378.620597 169.113151 
L 378.691949 169.242192 
L 378.834655 169.085931 
L 379.048713 169.368686 
L 379.334123 169.628365 
L 379.548181 169.523577 
L 379.762239 170.547608 
L 379.833592 168.954088 
L 379.904944 169.780977 
L 379.976297 169.629982 
L 380.04765 169.754867 
L 380.33306 168.957881 
L 380.475765 169.872167 
L 380.547118 170.030253 
L 380.618471 168.389974 
L 380.689823 169.066947 
L 380.761176 169.416705 
L 380.975234 168.958679 
L 381.046587 168.969915 
L 381.117939 168.7787 
L 381.189292 168.826718 
L 381.331997 168.713104 
L 381.474703 168.564185 
L 381.546055 168.551855 
L 381.68876 168.38101 
L 382.045524 168.305503 
L 382.259582 168.28729 
L 382.47364 168.375342 
L 382.544992 168.364919 
L 382.830403 168.811971 
L 382.901755 168.717707 
L 382.973108 168.313769 
L 383.044461 169.498877 
L 383.115813 169.359872 
L 383.187166 169.796061 
L 383.258519 168.198866 
L 383.401224 169.735834 
L 383.472577 169.611722 
L 383.686635 170.250151 
L 383.757987 168.934183 
L 383.82934 170.62541 
L 383.900693 170.493185 
L 383.972045 170.653845 
L 384.043398 170.606362 
L 384.186103 170.72756 
L 384.471514 171.121207 
L 384.828277 171.305604 
L 384.89963 171.664018 
L 384.970982 171.411748 
L 385.042335 172.323499 
L 385.113688 170.585394 
L 385.18504 171.845143 
L 385.256393 171.552386 
L 385.327745 171.743903 
L 385.399098 171.628574 
L 385.470451 171.806464 
L 385.613156 170.97124 
L 385.684509 172.072138 
L 385.755861 171.808898 
L 385.827214 172.050131 
L 385.898567 170.166953 
L 385.969919 171.170418 
L 386.041272 171.39905 
L 386.112625 171.087601 
L 386.183977 171.167318 
L 386.398035 170.641516 
L 386.469388 170.859771 
L 386.54074 170.728179 
L 386.612093 170.837119 
L 386.826151 170.538406 
L 387.182914 170.317438 
L 387.254267 170.103169 
L 387.32562 170.204673 
L 387.468325 170.140097 
L 387.539678 169.446513 
L 387.61103 169.777123 
L 387.682383 169.357426 
L 387.753735 171.115398 
L 387.825088 169.768804 
L 387.896441 170.235232 
L 387.967793 170.25093 
L 388.039146 170.008408 
L 388.110499 170.265736 
L 388.181851 170.229163 
L 388.253204 169.666349 
L 388.324557 170.725603 
L 388.395909 170.431609 
L 388.467262 171.001749 
L 388.538615 168.862205 
L 388.68132 170.642705 
L 388.752673 170.250039 
L 388.824025 170.317596 
L 388.895378 170.16555 
L 388.96673 171.425539 
L 389.038083 169.848696 
L 389.109436 171.083915 
L 389.180788 170.886479 
L 389.466199 171.01463 
L 389.822962 171.560482 
L 389.894315 171.556316 
L 389.965668 171.749902 
L 390.03702 171.507344 
L 390.108373 171.583147 
L 390.179725 171.76809 
L 390.251078 171.10565 
L 390.322431 172.612099 
L 390.393783 171.922463 
L 390.465136 171.717111 
L 390.607841 171.904749 
L 390.679194 171.776915 
L 390.750547 171.948824 
L 390.821899 171.861409 
L 390.893252 171.099372 
L 390.964605 172.091568 
L 391.035957 171.877705 
L 391.535426 171.510025 
L 391.678131 171.600614 
L 391.749484 171.105194 
L 391.820836 172.357434 
L 391.892189 171.66715 
L 391.963542 171.565879 
L 392.106247 172.417719 
L 392.1776 172.2487 
L 392.248952 172.279879 
L 392.46301 172.38696 
L 392.605716 172.627046 
L 392.677068 172.487964 
L 392.748421 172.776 
L 392.891126 172.032684 
L 393.033831 172.739191 
L 393.105184 171.07907 
L 393.319242 173.131996 
L 393.5333 171.484889 
L 393.604653 173.016423 
L 393.676005 172.888934 
L 393.747358 172.744465 
L 393.961416 173.055259 
L 394.104121 173.22102 
L 394.175474 173.113101 
L 394.318179 173.594627 
L 394.389532 172.605076 
L 394.532237 173.899635 
L 394.674942 173.363146 
L 394.817648 174.538689 
L 394.889 173.692024 
L 394.960353 173.808868 
L 395.031706 173.979098 
L 395.103058 173.912918 
L 395.174411 173.941305 
L 395.388469 174.450013 
L 395.531174 173.706538 
L 395.602527 174.953023 
L 395.673879 174.8597 
L 395.745232 172.725529 
L 395.887937 174.566789 
L 395.95929 174.371058 
L 396.030643 174.603545 
L 396.173348 172.990342 
L 396.244701 175.432305 
L 396.316053 174.358514 
L 396.387406 174.154693 
L 396.458758 174.286662 
L 396.530111 174.54327 
L 396.601464 174.421792 
L 396.886874 174.702622 
L 396.958227 174.495649 
L 397.02958 175.481525 
L 397.100932 174.580516 
L 397.172285 174.588755 
L 397.386343 175.317331 
L 397.529048 175.084154 
L 397.600401 175.400685 
L 397.671753 175.123728 
L 397.743106 176.400375 
L 397.814459 175.538729 
L 397.885811 175.814407 
L 397.957164 175.839495 
L 398.028517 176.316018 
L 398.099869 176.079774 
L 398.171222 176.221174 
L 398.242575 176.956115 
L 398.313927 176.88286 
L 398.38528 174.822857 
L 398.527985 177.840307 
L 398.599338 176.614714 
L 398.670691 177.152069 
L 398.884748 176.195293 
L 398.956101 177.351592 
L 399.027454 177.217034 
L 399.170159 177.505252 
L 399.312864 177.530529 
L 399.384217 177.132445 
L 399.45557 177.827382 
L 399.526922 177.74268 
L 399.598275 176.291659 
L 399.74098 177.812808 
L 399.812333 177.441184 
L 399.883686 177.621144 
L 399.955038 177.5073 
L 400.026391 178.217407 
L 400.097743 177.104489 
L 400.169096 177.299087 
L 400.240449 177.377958 
L 400.311801 177.050564 
L 400.383154 177.1211 
L 400.454507 177.210948 
L 400.525859 177.134123 
L 400.597212 177.062781 
L 400.668565 177.270652 
L 400.81127 176.450004 
L 400.882623 177.427155 
L 400.953975 176.877144 
L 401.025328 174.694088 
L 401.168033 176.885978 
L 401.239386 175.870994 
L 401.310738 176.613947 
L 401.453444 175.555291 
L 401.524796 176.756221 
L 401.596149 175.550013 
L 401.667502 175.935043 
L 401.88156 175.479035 
L 401.952912 175.609183 
L 402.024265 175.507918 
L 402.095618 176.239175 
L 402.238323 175.125487 
L 402.381028 176.093542 
L 402.523733 175.570566 
L 402.595086 176.167679 
L 402.666439 175.923897 
L 402.737791 176.118028 
L 402.951849 175.896754 
L 403.023202 177.054858 
L 403.094555 176.061856 
L 403.308613 177.181344 
L 403.451318 176.446989 
L 403.522671 178.085061 
L 403.594023 177.199664 
L 403.665376 175.482085 
L 403.736728 179.013293 
L 403.808081 178.196981 
L 403.879434 177.577995 
L 403.950786 178.60555 
L 404.022139 178.184933 
L 404.093492 178.275701 
L 404.236197 178.991455 
L 404.30755 178.910635 
L 404.378902 179.149811 
L 404.450255 178.836418 
L 404.521608 180.187154 
L 404.59296 179.536412 
L 404.807018 180.367324 
L 404.878371 178.873669 
L 405.021076 181.025197 
L 405.163781 179.342613 
L 405.235134 181.26309 
L 405.306487 181.189487 
L 405.805955 182.337809 
L 405.877308 182.11657 
L 406.020013 182.973347 
L 406.091366 181.935959 
L 406.162719 184.019402 
L 406.234071 183.077893 
L 406.305424 181.435996 
L 406.448129 184.562257 
L 406.519482 183.615669 
L 406.662187 184.693448 
L 406.73354 183.524033 
L 406.804892 185.223748 
L 406.876245 184.740321 
L 406.947598 185.032496 
L 407.01895 185.92114 
L 407.090303 185.838802 
L 407.304361 186.74916 
L 407.447066 188.044072 
L 407.518419 186.54319 
L 407.661124 189.268622 
L 407.732477 188.665407 
L 407.803829 189.115654 
L 408.017887 190.996567 
L 408.374651 193.699981 
L 408.660061 196.730623 
L 408.731414 196.02312 
L 408.802766 198.608494 
L 408.874119 197.945403 
L 408.945472 196.755422 
L 409.088177 201.406646 
L 409.15953 200.453725 
L 409.944409 208.66737 
L 410.087114 211.026792 
L 410.158467 210.178761 
L 410.372525 214.732114 
L 410.443877 213.807247 
L 410.586583 216.640332 
L 410.729288 217.935141 
L 410.943346 221.161013 
L 411.014699 221.203096 
L 411.086051 225.342361 
L 411.157404 223.960568 
L 411.300109 226.895203 
L 411.371462 225.738426 
L 411.442814 228.920111 
L 411.514167 228.552529 
L 411.58552 227.797644 
L 411.728225 233.537035 
L 411.799578 231.950559 
L 411.87093 232.718569 
L 412.013636 238.438684 
L 412.084988 237.560238 
L 412.227694 238.945217 
L 412.299046 245.022567 
L 412.370399 242.401505 
L 412.513104 243.478064 
L 412.727162 250.280956 
L 412.798515 246.650747 
L 412.869867 248.02111 
L 413.012573 255.505264 
L 413.083925 251.81446 
L 413.369336 261.534603 
L 413.440689 257.881737 
L 413.512041 265.571793 
L 413.583394 262.40333 
L 413.726099 263.860153 
L 413.868804 269.315458 
L 413.940157 268.764219 
L 414.225568 272.625782 
L 414.368273 277.384385 
L 414.439626 277.2717 
L 414.582331 280.034949 
L 414.796389 285.45225 
L 414.867741 284.822544 
L 414.867741 284.822544 
" clip-path="url(#p8e7a7c8e22)" style="fill: none; stroke: #1f77b4; stroke-width: 1.5; stroke-linecap: square"/>
   </g>
   <g id="patch_3">
    <path d="M 73.980469 297.54825 
L 73.980469 31.43625 
" style="fill: none; stroke: #000000; stroke-width: 0.8; stroke-linejoin: miter; stroke-linecap: square"/>
   </g>
   <g id="patch_4">
    <path d="M 431.100469 297.54825 
L 431.100469 31.43625 
" style="fill: none; stroke: #000000; stroke-width: 0.8; stroke-linejoin: miter; stroke-linecap: square"/>
   </g>
   <g id="patch_5">
    <path d="M 73.980469 297.54825 
L 431.100469 297.54825 
" style="fill: none; stroke: #000000; stroke-width: 0.8; stroke-linejoin: miter; stroke-linecap: square"/>
   </g>
   <g id="patch_6">
    <path d="M 73.980469 31.43625 
L 431.100469 31.43625 
" style="fill: none; stroke: #000000; stroke-width: 0.8; stroke-linejoin: miter; stroke-linecap: square"/>
   </g>
   <g id="text_15">
    <!-- RF Field Axial Curvature -->
    <g transform="translate(109.095469 25.43625)scale(0.24 -0.24)">
     <defs>
      <path id="DejaVuSans-52" d="M 2841 2188 
Q 3044 2119 3236 1894 
Q 3428 1669 3622 1275 
L 4263 0 
L 3584 0 
L 2988 1197 
Q 2756 1666 2539 1819 
Q 2322 1972 1947 1972 
L 1259 1972 
L 1259 0 
L 628 0 
L 628 4666 
L 2053 4666 
Q 2853 4666 3247 4331 
Q 3641 3997 3641 3322 
Q 3641 2881 3436 2590 
Q 3231 2300 2841 2188 
z
M 1259 4147 
L 1259 2491 
L 2053 2491 
Q 2509 2491 2742 2702 
Q 2975 2913 2975 3322 
Q 2975 3731 2742 3939 
Q 2509 4147 2053 4147 
L 1259 4147 
z
" transform="scale(0.015625)"/>
      <path id="DejaVuSans-46" d="M 628 4666 
L 3309 4666 
L 3309 4134 
L 1259 4134 
L 1259 2759 
L 3109 2759 
L 3109 2228 
L 1259 2228 
L 1259 0 
L 628 0 
L 628 4666 
z
" transform="scale(0.015625)"/>
      <path id="DejaVuSans-69" d="M 603 3500 
L 1178 3500 
L 1178 0 
L 603 0 
L 603 3500 
z
M 603 4863 
L 1178 4863 
L 1178 4134 
L 603 4134 
L 603 4863 
z
" transform="scale(0.015625)"/>
      <path id="DejaVuSans-65" d="M 3597 1894 
L 3597 1613 
L 953 1613 
Q 991 1019 1311 708 
Q 1631 397 2203 397 
Q 2534 397 2845 478 
Q 3156 559 3463 722 
L 3463 178 
Q 3153 47 2828 -22 
Q 2503 -91 2169 -91 
Q 1331 -91 842 396 
Q 353 884 353 1716 
Q 353 2575 817 3079 
Q 1281 3584 2069 3584 
Q 2775 3584 3186 3129 
Q 3597 2675 3597 1894 
z
M 3022 2063 
Q 3016 2534 2758 2815 
Q 2500 3097 2075 3097 
Q 1594 3097 1305 2825 
Q 1016 2553 972 2059 
L 3022 2063 
z
" transform="scale(0.015625)"/>
      <path id="DejaVuSans-6c" d="M 603 4863 
L 1178 4863 
L 1178 0 
L 603 0 
L 603 4863 
z
" transform="scale(0.015625)"/>
      <path id="DejaVuSans-64" d="M 2906 2969 
L 2906 4863 
L 3481 4863 
L 3481 0 
L 2906 0 
L 2906 525 
Q 2725 213 2448 61 
Q 2172 -91 1784 -91 
Q 1150 -91 751 415 
Q 353 922 353 1747 
Q 353 2572 751 3078 
Q 1150 3584 1784 3584 
Q 2172 3584 2448 3432 
Q 2725 3281 2906 2969 
z
M 947 1747 
Q 947 1113 1208 752 
Q 1469 391 1925 391 
Q 2381 391 2643 752 
Q 2906 1113 2906 1747 
Q 2906 2381 2643 2742 
Q 2381 3103 1925 3103 
Q 1469 3103 1208 2742 
Q 947 2381 947 1747 
z
" transform="scale(0.015625)"/>
      <path id="DejaVuSans-41" d="M 2188 4044 
L 1331 1722 
L 3047 1722 
L 2188 4044 
z
M 1831 4666 
L 2547 4666 
L 4325 0 
L 3669 0 
L 3244 1197 
L 1141 1197 
L 716 0 
L 50 0 
L 1831 4666 
z
" transform="scale(0.015625)"/>
      <path id="DejaVuSans-78" d="M 3513 3500 
L 2247 1797 
L 3578 0 
L 2900 0 
L 1881 1375 
L 863 0 
L 184 0 
L 1544 1831 
L 300 3500 
L 978 3500 
L 1906 2253 
L 2834 3500 
L 3513 3500 
z
" transform="scale(0.015625)"/>
      <path id="DejaVuSans-61" d="M 2194 1759 
Q 1497 1759 1228 1600 
Q 959 1441 959 1056 
Q 959 750 1161 570 
Q 1363 391 1709 391 
Q 2188 391 2477 730 
Q 2766 1069 2766 1631 
L 2766 1759 
L 2194 1759 
z
M 3341 1997 
L 3341 0 
L 2766 0 
L 2766 531 
Q 2569 213 2275 61 
Q 1981 -91 1556 -91 
Q 1019 -91 701 211 
Q 384 513 384 1019 
Q 384 1609 779 1909 
Q 1175 2209 1959 2209 
L 2766 2209 
L 2766 2266 
Q 2766 2663 2505 2880 
Q 2244 3097 1772 3097 
Q 1472 3097 1187 3025 
Q 903 2953 641 2809 
L 641 3341 
Q 956 3463 1253 3523 
Q 1550 3584 1831 3584 
Q 2591 3584 2966 3190 
Q 3341 2797 3341 1997 
z
" transform="scale(0.015625)"/>
      <path id="DejaVuSans-43" d="M 4122 4306 
L 4122 3641 
Q 3803 3938 3442 4084 
Q 3081 4231 2675 4231 
Q 1875 4231 1450 3742 
Q 1025 3253 1025 2328 
Q 1025 1406 1450 917 
Q 1875 428 2675 428 
Q 3081 428 3442 575 
Q 3803 722 4122 1019 
L 4122 359 
Q 3791 134 3420 21 
Q 3050 -91 2638 -91 
Q 1578 -91 968 557 
Q 359 1206 359 2328 
Q 359 3453 968 4101 
Q 1578 4750 2638 4750 
Q 3056 4750 3426 4639 
Q 3797 4528 4122 4306 
z
" transform="scale(0.015625)"/>
      <path id="DejaVuSans-75" d="M 544 1381 
L 544 3500 
L 1119 3500 
L 1119 1403 
Q 1119 906 1312 657 
Q 1506 409 1894 409 
Q 2359 409 2629 706 
Q 2900 1003 2900 1516 
L 2900 3500 
L 3475 3500 
L 3475 0 
L 2900 0 
L 2900 538 
Q 2691 219 2414 64 
Q 2138 -91 1772 -91 
Q 1169 -91 856 284 
Q 544 659 544 1381 
z
M 1991 3584 
L 1991 3584 
z
" transform="scale(0.015625)"/>
      <path id="DejaVuSans-72" d="M 2631 2963 
Q 2534 3019 2420 3045 
Q 2306 3072 2169 3072 
Q 1681 3072 1420 2755 
Q 1159 2438 1159 1844 
L 1159 0 
L 581 0 
L 581 3500 
L 1159 3500 
L 1159 2956 
Q 1341 3275 1631 3429 
Q 1922 3584 2338 3584 
Q 2397 3584 2469 3576 
Q 2541 3569 2628 3553 
L 2631 2963 
z
" transform="scale(0.015625)"/>
      <path id="DejaVuSans-76" d="M 191 3500 
L 800 3500 
L 1894 563 
L 2988 3500 
L 3597 3500 
L 2284 0 
L 1503 0 
L 191 3500 
z
" transform="scale(0.015625)"/>
      <path id="DejaVuSans-74" d="M 1172 4494 
L 1172 3500 
L 2356 3500 
L 2356 3053 
L 1172 3053 
L 1172 1153 
Q 1172 725 1289 603 
Q 1406 481 1766 481 
L 2356 481 
L 2356 0 
L 1766 0 
Q 1100 0 847 248 
Q 594 497 594 1153 
L 594 3053 
L 172 3053 
L 172 3500 
L 594 3500 
L 594 4494 
L 1172 4494 
z
" transform="scale(0.015625)"/>
     </defs>
     <use xlink:href="#DejaVuSans-52"/>
     <use xlink:href="#DejaVuSans-46" x="69.482422"/>
     <use xlink:href="#DejaVuSans-20" x="127.001953"/>
     <use xlink:href="#DejaVuSans-46" x="158.789062"/>
     <use xlink:href="#DejaVuSans-69" x="209.058594"/>
     <use xlink:href="#DejaVuSans-65" x="236.841797"/>
     <use xlink:href="#DejaVuSans-6c" x="298.365234"/>
     <use xlink:href="#DejaVuSans-64" x="326.148438"/>
     <use xlink:href="#DejaVuSans-20" x="389.625"/>
     <use xlink:href="#DejaVuSans-41" x="421.412109"/>
     <use xlink:href="#DejaVuSans-78" x="489.820312"/>
     <use xlink:href="#DejaVuSans-69" x="549"/>
     <use xlink:href="#DejaVuSans-61" x="576.783203"/>
     <use xlink:href="#DejaVuSans-6c" x="638.0625"/>
     <use xlink:href="#DejaVuSans-20" x="665.845703"/>
     <use xlink:href="#DejaVuSans-43" x="697.632812"/>
     <use xlink:href="#DejaVuSans-75" x="767.457031"/>
     <use xlink:href="#DejaVuSans-72" x="830.835938"/>
     <use xlink:href="#DejaVuSans-76" x="871.949219"/>
     <use xlink:href="#DejaVuSans-61" x="931.128906"/>
     <use xlink:href="#DejaVuSans-74" x="992.408203"/>
     <use xlink:href="#DejaVuSans-75" x="1031.617188"/>
     <use xlink:href="#DejaVuSans-72" x="1094.996094"/>
     <use xlink:href="#DejaVuSans-65" x="1133.859375"/>
    </g>
   </g>
   <g id="legend_1">
    <g id="patch_7">
     <path d="M 330.900469 76.7925 
L 417.100469 76.7925 
Q 421.100469 76.7925 421.100469 72.7925 
L 421.100469 45.43625 
Q 421.100469 41.43625 417.100469 41.43625 
L 330.900469 41.43625 
Q 326.900469 41.43625 326.900469 45.43625 
L 326.900469 72.7925 
Q 326.900469 76.7925 330.900469 76.7925 
z
" style="fill: #ffffff; opacity: 0.8; stroke: #cccccc; stroke-linejoin: miter"/>
    </g>
    <g id="line2d_26">
     <path d="M 334.900469 57.633125 
L 354.900469 57.633125 
L 374.900469 57.633125 
" style="fill: none; stroke: #1f77b4; stroke-width: 1.5; stroke-linecap: square"/>
    </g>
    <g id="text_16">
     <!-- $x^2$ -->
     <g transform="translate(390.900469 64.633125)scale(0.2 -0.2)">
      <defs>
       <path id="DejaVuSans-Oblique-78" d="M 3841 3500 
L 2234 1784 
L 3219 0 
L 2559 0 
L 1819 1388 
L 531 0 
L -166 0 
L 1556 1844 
L 641 3500 
L 1300 3500 
L 1972 2234 
L 3144 3500 
L 3841 3500 
z
" transform="scale(0.015625)"/>
      </defs>
      <use xlink:href="#DejaVuSans-Oblique-78" transform="translate(0 0.765625)"/>
      <use xlink:href="#DejaVuSans-32" transform="translate(63.645833 39.046875)scale(0.7)"/>
     </g>
    </g>
   </g>
  </g>
 </g>
 <defs>
  <clipPath id="p8e7a7c8e22">
   <rect x="73.980469" y="31.43625" width="357.12" height="266.112"/>
  </clipPath>
 </defs>
</svg>
