<?xml version="1.0" encoding="utf-8" standalone="no"?>
<!DOCTYPE svg PUBLIC "-//W3C//DTD SVG 1.1//EN"
  "http://www.w3.org/Graphics/SVG/1.1/DTD/svg11.dtd">
<svg xmlns:xlink="http://www.w3.org/1999/xlink" width="435.274687pt" height="349.665437pt" viewBox="0 0 435.274687 349.665437" xmlns="http://www.w3.org/2000/svg" version="1.1">
 <defs>
  <style type="text/css">*{stroke-linejoin: round; stroke-linecap: butt}</style>
 </defs>
 <g id="figure_1">
  <g id="patch_1">
   <path d="M 0 349.665437 
L 435.274687 349.665437 
L 435.274687 0 
L 0 0 
L 0 349.665437 
z
" style="fill: none"/>
  </g>
  <g id="axes_1">
   <g id="patch_2">
    <path d="M 70.954688 297.54825 
L 428.074687 297.54825 
L 428.074687 31.43625 
L 70.954688 31.43625 
L 70.954688 297.54825 
z
" style="fill: none"/>
   </g>
   <g id="matplotlib.axis_1">
    <g id="xtick_1">
     <g id="line2d_1">
      <path d="M 102.884997 297.54825 
L 102.884997 31.43625 
" clip-path="url(#p17a5bf9d1e)" style="fill: none; stroke: #b0b0b0; stroke-width: 0.8; stroke-linecap: square"/>
     </g>
     <g id="line2d_2">
      <defs>
       <path id="md39032bed2" d="M 0 0 
L 0 3.5 
" style="stroke: #000000; stroke-width: 0.8"/>
      </defs>
      <g>
       <use xlink:href="#md39032bed2" x="102.884997" y="297.54825" style="stroke: #000000; stroke-width: 0.8"/>
      </g>
     </g>
     <g id="text_1">
      <!-- −3000 -->
      <g transform="translate(77.512732 315.945906)scale(0.15 -0.15)">
       <defs>
        <path id="DejaVuSans-2212" d="M 678 2272 
L 4684 2272 
L 4684 1741 
L 678 1741 
L 678 2272 
z
" transform="scale(0.015625)"/>
        <path id="DejaVuSans-33" d="M 2597 2516 
Q 3050 2419 3304 2112 
Q 3559 1806 3559 1356 
Q 3559 666 3084 287 
Q 2609 -91 1734 -91 
Q 1441 -91 1130 -33 
Q 819 25 488 141 
L 488 750 
Q 750 597 1062 519 
Q 1375 441 1716 441 
Q 2309 441 2620 675 
Q 2931 909 2931 1356 
Q 2931 1769 2642 2001 
Q 2353 2234 1838 2234 
L 1294 2234 
L 1294 2753 
L 1863 2753 
Q 2328 2753 2575 2939 
Q 2822 3125 2822 3475 
Q 2822 3834 2567 4026 
Q 2313 4219 1838 4219 
Q 1578 4219 1281 4162 
Q 984 4106 628 3988 
L 628 4550 
Q 988 4650 1302 4700 
Q 1616 4750 1894 4750 
Q 2613 4750 3031 4423 
Q 3450 4097 3450 3541 
Q 3450 3153 3228 2886 
Q 3006 2619 2597 2516 
z
" transform="scale(0.015625)"/>
        <path id="DejaVuSans-30" d="M 2034 4250 
Q 1547 4250 1301 3770 
Q 1056 3291 1056 2328 
Q 1056 1369 1301 889 
Q 1547 409 2034 409 
Q 2525 409 2770 889 
Q 3016 1369 3016 2328 
Q 3016 3291 2770 3770 
Q 2525 4250 2034 4250 
z
M 2034 4750 
Q 2819 4750 3233 4129 
Q 3647 3509 3647 2328 
Q 3647 1150 3233 529 
Q 2819 -91 2034 -91 
Q 1250 -91 836 529 
Q 422 1150 422 2328 
Q 422 3509 836 4129 
Q 1250 4750 2034 4750 
z
" transform="scale(0.015625)"/>
       </defs>
       <use xlink:href="#DejaVuSans-2212"/>
       <use xlink:href="#DejaVuSans-33" x="83.789062"/>
       <use xlink:href="#DejaVuSans-30" x="147.412109"/>
       <use xlink:href="#DejaVuSans-30" x="211.035156"/>
       <use xlink:href="#DejaVuSans-30" x="274.658203"/>
      </g>
     </g>
    </g>
    <g id="xtick_2">
     <g id="line2d_3">
      <path d="M 174.237645 297.54825 
L 174.237645 31.43625 
" clip-path="url(#p17a5bf9d1e)" style="fill: none; stroke: #b0b0b0; stroke-width: 0.8; stroke-linecap: square"/>
     </g>
     <g id="line2d_4">
      <g>
       <use xlink:href="#md39032bed2" x="174.237645" y="297.54825" style="stroke: #000000; stroke-width: 0.8"/>
      </g>
     </g>
     <g id="text_2">
      <!-- −2000 -->
      <g transform="translate(148.865379 315.945906)scale(0.15 -0.15)">
       <defs>
        <path id="DejaVuSans-32" d="M 1228 531 
L 3431 531 
L 3431 0 
L 469 0 
L 469 531 
Q 828 903 1448 1529 
Q 2069 2156 2228 2338 
Q 2531 2678 2651 2914 
Q 2772 3150 2772 3378 
Q 2772 3750 2511 3984 
Q 2250 4219 1831 4219 
Q 1534 4219 1204 4116 
Q 875 4013 500 3803 
L 500 4441 
Q 881 4594 1212 4672 
Q 1544 4750 1819 4750 
Q 2544 4750 2975 4387 
Q 3406 4025 3406 3419 
Q 3406 3131 3298 2873 
Q 3191 2616 2906 2266 
Q 2828 2175 2409 1742 
Q 1991 1309 1228 531 
z
" transform="scale(0.015625)"/>
       </defs>
       <use xlink:href="#DejaVuSans-2212"/>
       <use xlink:href="#DejaVuSans-32" x="83.789062"/>
       <use xlink:href="#DejaVuSans-30" x="147.412109"/>
       <use xlink:href="#DejaVuSans-30" x="211.035156"/>
       <use xlink:href="#DejaVuSans-30" x="274.658203"/>
      </g>
     </g>
    </g>
    <g id="xtick_3">
     <g id="line2d_5">
      <path d="M 245.590292 297.54825 
L 245.590292 31.43625 
" clip-path="url(#p17a5bf9d1e)" style="fill: none; stroke: #b0b0b0; stroke-width: 0.8; stroke-linecap: square"/>
     </g>
     <g id="line2d_6">
      <g>
       <use xlink:href="#md39032bed2" x="245.590292" y="297.54825" style="stroke: #000000; stroke-width: 0.8"/>
      </g>
     </g>
     <g id="text_3">
      <!-- −1000 -->
      <g transform="translate(220.218026 315.945906)scale(0.15 -0.15)">
       <defs>
        <path id="DejaVuSans-31" d="M 794 531 
L 1825 531 
L 1825 4091 
L 703 3866 
L 703 4441 
L 1819 4666 
L 2450 4666 
L 2450 531 
L 3481 531 
L 3481 0 
L 794 0 
L 794 531 
z
" transform="scale(0.015625)"/>
       </defs>
       <use xlink:href="#DejaVuSans-2212"/>
       <use xlink:href="#DejaVuSans-31" x="83.789062"/>
       <use xlink:href="#DejaVuSans-30" x="147.412109"/>
       <use xlink:href="#DejaVuSans-30" x="211.035156"/>
       <use xlink:href="#DejaVuSans-30" x="274.658203"/>
      </g>
     </g>
    </g>
    <g id="xtick_4">
     <g id="line2d_7">
      <path d="M 316.942939 297.54825 
L 316.942939 31.43625 
" clip-path="url(#p17a5bf9d1e)" style="fill: none; stroke: #b0b0b0; stroke-width: 0.8; stroke-linecap: square"/>
     </g>
     <g id="line2d_8">
      <g>
       <use xlink:href="#md39032bed2" x="316.942939" y="297.54825" style="stroke: #000000; stroke-width: 0.8"/>
      </g>
     </g>
     <g id="text_4">
      <!-- 0 -->
      <g transform="translate(312.171064 315.945906)scale(0.15 -0.15)">
       <use xlink:href="#DejaVuSans-30"/>
      </g>
     </g>
    </g>
    <g id="xtick_5">
     <g id="line2d_9">
      <path d="M 388.295587 297.54825 
L 388.295587 31.43625 
" clip-path="url(#p17a5bf9d1e)" style="fill: none; stroke: #b0b0b0; stroke-width: 0.8; stroke-linecap: square"/>
     </g>
     <g id="line2d_10">
      <g>
       <use xlink:href="#md39032bed2" x="388.295587" y="297.54825" style="stroke: #000000; stroke-width: 0.8"/>
      </g>
     </g>
     <g id="text_5">
      <!-- 1000 -->
      <g transform="translate(369.208087 315.945906)scale(0.15 -0.15)">
       <use xlink:href="#DejaVuSans-31"/>
       <use xlink:href="#DejaVuSans-30" x="63.623047"/>
       <use xlink:href="#DejaVuSans-30" x="127.246094"/>
       <use xlink:href="#DejaVuSans-30" x="190.869141"/>
      </g>
     </g>
    </g>
    <g id="text_6">
     <!-- X ($\mu m$) -->
     <g transform="translate(215.514688 338.265437)scale(0.2 -0.2)">
      <defs>
       <path id="DejaVuSans-58" d="M 403 4666 
L 1081 4666 
L 2241 2931 
L 3406 4666 
L 4084 4666 
L 2584 2425 
L 4184 0 
L 3506 0 
L 2194 1984 
L 872 0 
L 191 0 
L 1856 2491 
L 403 4666 
z
" transform="scale(0.015625)"/>
       <path id="DejaVuSans-20" transform="scale(0.015625)"/>
       <path id="DejaVuSans-28" d="M 1984 4856 
Q 1566 4138 1362 3434 
Q 1159 2731 1159 2009 
Q 1159 1288 1364 580 
Q 1569 -128 1984 -844 
L 1484 -844 
Q 1016 -109 783 600 
Q 550 1309 550 2009 
Q 550 2706 781 3412 
Q 1013 4119 1484 4856 
L 1984 4856 
z
" transform="scale(0.015625)"/>
       <path id="DejaVuSans-Oblique-3bc" d="M -84 -1331 
L 856 3500 
L 1434 3500 
L 1009 1322 
Q 997 1256 987 1175 
Q 978 1094 978 1013 
Q 978 722 1161 565 
Q 1344 409 1684 409 
Q 2147 409 2431 671 
Q 2716 934 2816 1459 
L 3213 3500 
L 3788 3500 
L 3266 809 
Q 3253 750 3248 706 
Q 3244 663 3244 628 
Q 3244 531 3283 486 
Q 3322 441 3406 441 
Q 3438 441 3492 456 
Q 3547 472 3647 513 
L 3559 50 
Q 3422 -19 3297 -55 
Q 3172 -91 3053 -91 
Q 2847 -91 2730 40 
Q 2613 172 2613 403 
Q 2438 153 2195 31 
Q 1953 -91 1625 -91 
Q 1334 -91 1117 43 
Q 900 178 831 397 
L 494 -1331 
L -84 -1331 
z
" transform="scale(0.015625)"/>
       <path id="DejaVuSans-Oblique-6d" d="M 5747 2113 
L 5338 0 
L 4763 0 
L 5166 2094 
Q 5191 2228 5203 2325 
Q 5216 2422 5216 2491 
Q 5216 2772 5059 2928 
Q 4903 3084 4622 3084 
Q 4203 3084 3875 2770 
Q 3547 2456 3450 1953 
L 3066 0 
L 2491 0 
L 2900 2094 
Q 2925 2209 2937 2307 
Q 2950 2406 2950 2484 
Q 2950 2769 2794 2926 
Q 2638 3084 2363 3084 
Q 1938 3084 1609 2770 
Q 1281 2456 1184 1953 
L 800 0 
L 225 0 
L 909 3500 
L 1484 3500 
L 1375 2956 
Q 1609 3263 1923 3423 
Q 2238 3584 2597 3584 
Q 2978 3584 3223 3384 
Q 3469 3184 3519 2828 
Q 3781 3197 4126 3390 
Q 4472 3584 4856 3584 
Q 5306 3584 5551 3325 
Q 5797 3066 5797 2591 
Q 5797 2488 5784 2364 
Q 5772 2241 5747 2113 
z
" transform="scale(0.015625)"/>
       <path id="DejaVuSans-29" d="M 513 4856 
L 1013 4856 
Q 1481 4119 1714 3412 
Q 1947 2706 1947 2009 
Q 1947 1309 1714 600 
Q 1481 -109 1013 -844 
L 513 -844 
Q 928 -128 1133 580 
Q 1338 1288 1338 2009 
Q 1338 2731 1133 3434 
Q 928 4138 513 4856 
z
" transform="scale(0.015625)"/>
      </defs>
      <use xlink:href="#DejaVuSans-58" transform="translate(0 0.125)"/>
      <use xlink:href="#DejaVuSans-20" transform="translate(68.505859 0.125)"/>
      <use xlink:href="#DejaVuSans-28" transform="translate(100.292969 0.125)"/>
      <use xlink:href="#DejaVuSans-Oblique-3bc" transform="translate(139.306641 0.125)"/>
      <use xlink:href="#DejaVuSans-Oblique-6d" transform="translate(202.929688 0.125)"/>
      <use xlink:href="#DejaVuSans-29" transform="translate(300.341797 0.125)"/>
     </g>
    </g>
   </g>
   <g id="matplotlib.axis_2">
    <g id="ytick_1">
     <g id="line2d_11">
      <path d="M 70.954688 297.54825 
L 428.074687 297.54825 
" clip-path="url(#p17a5bf9d1e)" style="fill: none; stroke: #b0b0b0; stroke-width: 0.8; stroke-linecap: square"/>
     </g>
     <g id="line2d_12">
      <defs>
       <path id="m6f3f5b6aff" d="M 0 0 
L -3.5 0 
" style="stroke: #000000; stroke-width: 0.8"/>
      </defs>
      <g>
       <use xlink:href="#m6f3f5b6aff" x="70.954688" y="297.54825" style="stroke: #000000; stroke-width: 0.8"/>
      </g>
     </g>
     <g id="text_7">
      <!-- 9.8 -->
      <g transform="translate(40.1 303.247078)scale(0.15 -0.15)">
       <defs>
        <path id="DejaVuSans-39" d="M 703 97 
L 703 672 
Q 941 559 1184 500 
Q 1428 441 1663 441 
Q 2288 441 2617 861 
Q 2947 1281 2994 2138 
Q 2813 1869 2534 1725 
Q 2256 1581 1919 1581 
Q 1219 1581 811 2004 
Q 403 2428 403 3163 
Q 403 3881 828 4315 
Q 1253 4750 1959 4750 
Q 2769 4750 3195 4129 
Q 3622 3509 3622 2328 
Q 3622 1225 3098 567 
Q 2575 -91 1691 -91 
Q 1453 -91 1209 -44 
Q 966 3 703 97 
z
M 1959 2075 
Q 2384 2075 2632 2365 
Q 2881 2656 2881 3163 
Q 2881 3666 2632 3958 
Q 2384 4250 1959 4250 
Q 1534 4250 1286 3958 
Q 1038 3666 1038 3163 
Q 1038 2656 1286 2365 
Q 1534 2075 1959 2075 
z
" transform="scale(0.015625)"/>
        <path id="DejaVuSans-2e" d="M 684 794 
L 1344 794 
L 1344 0 
L 684 0 
L 684 794 
z
" transform="scale(0.015625)"/>
        <path id="DejaVuSans-38" d="M 2034 2216 
Q 1584 2216 1326 1975 
Q 1069 1734 1069 1313 
Q 1069 891 1326 650 
Q 1584 409 2034 409 
Q 2484 409 2743 651 
Q 3003 894 3003 1313 
Q 3003 1734 2745 1975 
Q 2488 2216 2034 2216 
z
M 1403 2484 
Q 997 2584 770 2862 
Q 544 3141 544 3541 
Q 544 4100 942 4425 
Q 1341 4750 2034 4750 
Q 2731 4750 3128 4425 
Q 3525 4100 3525 3541 
Q 3525 3141 3298 2862 
Q 3072 2584 2669 2484 
Q 3125 2378 3379 2068 
Q 3634 1759 3634 1313 
Q 3634 634 3220 271 
Q 2806 -91 2034 -91 
Q 1263 -91 848 271 
Q 434 634 434 1313 
Q 434 1759 690 2068 
Q 947 2378 1403 2484 
z
M 1172 3481 
Q 1172 3119 1398 2916 
Q 1625 2713 2034 2713 
Q 2441 2713 2670 2916 
Q 2900 3119 2900 3481 
Q 2900 3844 2670 4047 
Q 2441 4250 2034 4250 
Q 1625 4250 1398 4047 
Q 1172 3844 1172 3481 
z
" transform="scale(0.015625)"/>
       </defs>
       <use xlink:href="#DejaVuSans-39"/>
       <use xlink:href="#DejaVuSans-2e" x="63.623047"/>
       <use xlink:href="#DejaVuSans-38" x="95.410156"/>
      </g>
     </g>
    </g>
    <g id="ytick_2">
     <g id="line2d_13">
      <path d="M 70.954688 238.41225 
L 428.074687 238.41225 
" clip-path="url(#p17a5bf9d1e)" style="fill: none; stroke: #b0b0b0; stroke-width: 0.8; stroke-linecap: square"/>
     </g>
     <g id="line2d_14">
      <g>
       <use xlink:href="#m6f3f5b6aff" x="70.954688" y="238.41225" style="stroke: #000000; stroke-width: 0.8"/>
      </g>
     </g>
     <g id="text_8">
      <!-- 10.0 -->
      <g transform="translate(30.55625 244.111078)scale(0.15 -0.15)">
       <use xlink:href="#DejaVuSans-31"/>
       <use xlink:href="#DejaVuSans-30" x="63.623047"/>
       <use xlink:href="#DejaVuSans-2e" x="127.246094"/>
       <use xlink:href="#DejaVuSans-30" x="159.033203"/>
      </g>
     </g>
    </g>
    <g id="ytick_3">
     <g id="line2d_15">
      <path d="M 70.954688 179.27625 
L 428.074687 179.27625 
" clip-path="url(#p17a5bf9d1e)" style="fill: none; stroke: #b0b0b0; stroke-width: 0.8; stroke-linecap: square"/>
     </g>
     <g id="line2d_16">
      <g>
       <use xlink:href="#m6f3f5b6aff" x="70.954688" y="179.27625" style="stroke: #000000; stroke-width: 0.8"/>
      </g>
     </g>
     <g id="text_9">
      <!-- 10.2 -->
      <g transform="translate(30.55625 184.975078)scale(0.15 -0.15)">
       <use xlink:href="#DejaVuSans-31"/>
       <use xlink:href="#DejaVuSans-30" x="63.623047"/>
       <use xlink:href="#DejaVuSans-2e" x="127.246094"/>
       <use xlink:href="#DejaVuSans-32" x="159.033203"/>
      </g>
     </g>
    </g>
    <g id="ytick_4">
     <g id="line2d_17">
      <path d="M 70.954688 120.14025 
L 428.074687 120.14025 
" clip-path="url(#p17a5bf9d1e)" style="fill: none; stroke: #b0b0b0; stroke-width: 0.8; stroke-linecap: square"/>
     </g>
     <g id="line2d_18">
      <g>
       <use xlink:href="#m6f3f5b6aff" x="70.954688" y="120.14025" style="stroke: #000000; stroke-width: 0.8"/>
      </g>
     </g>
     <g id="text_10">
      <!-- 10.4 -->
      <g transform="translate(30.55625 125.839078)scale(0.15 -0.15)">
       <defs>
        <path id="DejaVuSans-34" d="M 2419 4116 
L 825 1625 
L 2419 1625 
L 2419 4116 
z
M 2253 4666 
L 3047 4666 
L 3047 1625 
L 3713 1625 
L 3713 1100 
L 3047 1100 
L 3047 0 
L 2419 0 
L 2419 1100 
L 313 1100 
L 313 1709 
L 2253 4666 
z
" transform="scale(0.015625)"/>
       </defs>
       <use xlink:href="#DejaVuSans-31"/>
       <use xlink:href="#DejaVuSans-30" x="63.623047"/>
       <use xlink:href="#DejaVuSans-2e" x="127.246094"/>
       <use xlink:href="#DejaVuSans-34" x="159.033203"/>
      </g>
     </g>
    </g>
    <g id="ytick_5">
     <g id="line2d_19">
      <path d="M 70.954688 61.00425 
L 428.074687 61.00425 
" clip-path="url(#p17a5bf9d1e)" style="fill: none; stroke: #b0b0b0; stroke-width: 0.8; stroke-linecap: square"/>
     </g>
     <g id="line2d_20">
      <g>
       <use xlink:href="#m6f3f5b6aff" x="70.954688" y="61.00425" style="stroke: #000000; stroke-width: 0.8"/>
      </g>
     </g>
     <g id="text_11">
      <!-- 10.6 -->
      <g transform="translate(30.55625 66.703078)scale(0.15 -0.15)">
       <defs>
        <path id="DejaVuSans-36" d="M 2113 2584 
Q 1688 2584 1439 2293 
Q 1191 2003 1191 1497 
Q 1191 994 1439 701 
Q 1688 409 2113 409 
Q 2538 409 2786 701 
Q 3034 994 3034 1497 
Q 3034 2003 2786 2293 
Q 2538 2584 2113 2584 
z
M 3366 4563 
L 3366 3988 
Q 3128 4100 2886 4159 
Q 2644 4219 2406 4219 
Q 1781 4219 1451 3797 
Q 1122 3375 1075 2522 
Q 1259 2794 1537 2939 
Q 1816 3084 2150 3084 
Q 2853 3084 3261 2657 
Q 3669 2231 3669 1497 
Q 3669 778 3244 343 
Q 2819 -91 2113 -91 
Q 1303 -91 875 529 
Q 447 1150 447 2328 
Q 447 3434 972 4092 
Q 1497 4750 2381 4750 
Q 2619 4750 2861 4703 
Q 3103 4656 3366 4563 
z
" transform="scale(0.015625)"/>
       </defs>
       <use xlink:href="#DejaVuSans-31"/>
       <use xlink:href="#DejaVuSans-30" x="63.623047"/>
       <use xlink:href="#DejaVuSans-2e" x="127.246094"/>
       <use xlink:href="#DejaVuSans-36" x="159.033203"/>
      </g>
     </g>
    </g>
    <g id="text_12">
     <!-- $kHz/V$ -->
     <g transform="translate(22.396875 193.29225)rotate(-90)scale(0.2 -0.2)">
      <defs>
       <path id="DejaVuSans-Oblique-6b" d="M 1172 4863 
L 1747 4863 
L 1197 2028 
L 3169 3500 
L 3916 3500 
L 1716 1825 
L 3322 0 
L 2625 0 
L 1131 1709 
L 800 0 
L 225 0 
L 1172 4863 
z
" transform="scale(0.015625)"/>
       <path id="DejaVuSans-Oblique-48" d="M 1081 4666 
L 1716 4666 
L 1344 2753 
L 3634 2753 
L 4006 4666 
L 4641 4666 
L 3731 0 
L 3097 0 
L 3531 2222 
L 1241 2222 
L 806 0 
L 172 0 
L 1081 4666 
z
" transform="scale(0.015625)"/>
       <path id="DejaVuSans-Oblique-7a" d="M 744 3500 
L 3475 3500 
L 3372 2975 
L 738 459 
L 2913 459 
L 2822 0 
L -19 0 
L 84 525 
L 2719 3041 
L 653 3041 
L 744 3500 
z
" transform="scale(0.015625)"/>
       <path id="DejaVuSans-2f" d="M 1625 4666 
L 2156 4666 
L 531 -594 
L 0 -594 
L 1625 4666 
z
" transform="scale(0.015625)"/>
       <path id="DejaVuSans-Oblique-56" d="M 1319 0 
L 500 4666 
L 1119 4666 
L 1797 653 
L 4063 4666 
L 4750 4666 
L 2053 0 
L 1319 0 
z
" transform="scale(0.015625)"/>
      </defs>
      <use xlink:href="#DejaVuSans-Oblique-6b" transform="translate(0 0.015625)"/>
      <use xlink:href="#DejaVuSans-Oblique-48" transform="translate(57.910156 0.015625)"/>
      <use xlink:href="#DejaVuSans-Oblique-7a" transform="translate(133.105469 0.015625)"/>
      <use xlink:href="#DejaVuSans-2f" transform="translate(185.595703 0.015625)"/>
      <use xlink:href="#DejaVuSans-Oblique-56" transform="translate(219.287109 0.015625)"/>
     </g>
    </g>
   </g>
   <g id="line2d_21">
    <path d="M 87.187415 258.289565 
L 87.472825 257.89453 
L 87.544178 257.892206 
L 87.829589 257.172388 
L 87.900941 257.448665 
L 87.972294 257.40561 
L 88.186352 257.19853 
L 88.543115 256.967678 
L 88.614468 256.416498 
L 88.68582 256.789828 
L 88.757173 256.763804 
L 88.828526 256.841436 
L 88.971231 256.655803 
L 89.185289 256.160656 
L 89.256642 256.479502 
L 89.327994 256.410853 
L 89.75611 255.519585 
L 89.970168 255.152098 
L 90.755047 252.976259 
L 92.039395 247.7687 
L 93.109685 242.509261 
L 94.108622 236.346409 
L 94.750795 231.840844 
L 95.321617 231.312059 
L 95.749732 231.041148 
L 95.821085 230.619882 
L 95.892438 230.721552 
L 96.177848 230.313655 
L 96.820022 229.051728 
L 97.961665 225.505448 
L 98.817896 222.802843 
L 98.889249 222.82352 
L 98.960602 222.667158 
L 99.031954 222.076032 
L 99.103307 222.161662 
L 99.674128 221.337752 
L 100.173597 221.278418 
L 100.459007 221.466664 
L 101.101181 222.464541 
L 101.743355 223.767871 
L 102.742292 225.283988 
L 103.24176 225.532111 
L 103.812582 225.53792 
L 104.740166 225.369256 
L 104.882871 225.415854 
L 106.024514 231.958443 
L 107.237509 237.165659 
L 108.87862 241.913788 
L 109.663499 242.717941 
L 109.948909 242.708887 
L 110.377025 242.568207 
L 110.662436 242.232295 
L 110.947846 241.951863 
L 111.161904 241.643499 
L 111.30461 241.558817 
L 112.018136 240.850793 
L 112.160841 240.828876 
L 112.303547 240.743946 
L 112.94572 240.651825 
L 113.159778 240.746724 
L 114.230068 240.998454 
L 114.729537 240.7489 
L 115.37171 240.192373 
L 116.085237 239.158261 
L 117.226879 238.004583 
L 117.726348 237.873148 
L 117.940406 237.850862 
L 118.083111 237.957461 
L 118.225816 238.047394 
L 118.439874 238.021087 
L 119.296106 238.243686 
L 120.22369 237.576034 
L 121.579391 235.935053 
L 122.078859 235.820089 
L 122.578328 235.470432 
L 123.220502 235.034288 
L 124.148086 235.101499 
L 124.79026 234.798011 
L 125.218376 234.345136 
L 125.361081 234.235751 
L 125.503786 233.924687 
L 125.646492 233.782578 
L 126.003255 233.260684 
L 126.360018 233.400599 
L 126.716781 233.419857 
L 127.287603 233.395393 
L 127.644366 233.075547 
L 127.858424 232.838491 
L 128.357892 232.235566 
L 128.57195 232.23622 
L 129.071419 232.386598 
L 129.285477 232.428832 
L 129.428182 232.437631 
L 129.570887 232.468927 
L 129.713593 232.434593 
L 130.070356 232.126366 
L 130.641177 231.635315 
L 130.855235 231.374346 
L 131.211998 231.555169 
L 131.711467 231.876066 
L 131.996877 231.827647 
L 132.567698 231.593687 
L 133.566636 230.791285 
L 133.923399 231.032937 
L 134.565573 231.235723 
L 134.636925 231.124906 
L 134.708278 231.172172 
L 134.922336 231.123617 
L 135.635862 230.644664 
L 135.921273 230.396343 
L 136.063978 230.549771 
L 136.706152 230.897737 
L 137.348326 230.868571 
L 138.27591 230.229401 
L 139.060789 230.843015 
L 139.274847 230.857136 
L 139.417553 230.902343 
L 139.560258 230.961035 
L 139.988374 230.835945 
L 140.273784 230.614464 
L 140.345137 230.705154 
L 140.7019 230.342801 
L 141.130016 230.050813 
L 141.629485 230.384556 
L 141.77219 230.417675 
L 142.271659 230.414634 
L 142.985185 230.009072 
L 143.341948 229.741064 
L 144.126827 230.26952 
L 144.554943 230.374019 
L 144.911706 230.358521 
L 144.983059 230.404622 
L 145.26847 230.187595 
L 145.339822 230.217676 
L 145.55388 229.997706 
L 145.910644 229.706893 
L 146.124701 229.644008 
L 146.695523 229.990693 
L 147.480402 229.885509 
L 148.051223 229.60346 
L 148.265281 229.763958 
L 148.693397 230.156841 
L 148.978807 230.301201 
L 149.335571 230.420025 
L 149.763687 230.4142 
L 150.619918 229.763404 
L 151.904266 228.467347 
L 152.189677 228.256671 
L 152.617792 227.980839 
L 154.044845 227.55804 
L 154.544314 227.049809 
L 155.25784 225.805415 
L 155.757309 224.83348 
L 155.828662 224.932834 
L 156.470835 224.909977 
L 157.255714 224.492312 
L 157.327067 224.404847 
L 157.39842 224.480127 
L 157.612478 224.190529 
L 158.254652 223.180763 
L 158.896825 222.277814 
L 158.968178 222.362144 
L 159.039531 222.285939 
L 159.253589 222.108963 
L 159.396294 222.245311 
L 159.467647 222.128609 
L 159.538999 222.202238 
L 159.895762 222.042258 
L 160.10982 221.925798 
L 160.395231 221.709593 
L 161.322815 222.221918 
L 161.465521 222.21585 
L 162.036342 222.432142 
L 162.107694 222.258022 
L 162.179047 222.346704 
L 162.607163 222.113508 
L 163.534747 221.290388 
L 164.462332 221.795599 
L 165.461269 221.424926 
L 165.818032 221.0825 
L 166.816969 221.79118 
L 166.959675 221.70924 
L 167.173732 221.722708 
L 168.029964 221.265269 
L 168.386727 220.892744 
L 168.529433 220.835875 
L 169.028901 221.215891 
L 169.171607 221.203305 
L 169.457017 221.328183 
L 169.599722 221.265658 
L 169.742428 221.311807 
L 169.885133 221.233027 
L 170.099191 221.182064 
L 170.741365 220.70944 
L 171.169481 220.973416 
L 171.312186 221.193998 
L 171.526244 221.299669 
L 171.740302 221.420132 
L 172.025712 221.464424 
L 172.596534 221.304746 
L 173.167355 220.866067 
L 173.381413 220.695967 
L 173.666823 220.957891 
L 174.166292 221.288818 
L 175.165229 221.188173 
L 175.379287 221.051915 
L 176.021461 220.635643 
L 176.663635 221.098937 
L 177.09175 221.096637 
L 177.305808 221.158222 
L 177.519866 220.926233 
L 177.805277 220.755192 
L 178.590156 220.301662 
L 178.732861 220.477158 
L 178.946919 220.646698 
L 179.089625 220.623569 
L 179.303683 220.7093 
L 179.945856 220.491257 
L 180.873441 219.904492 
L 181.087499 220.103288 
L 181.158851 220.126065 
L 181.372909 220.366502 
L 181.515615 220.382147 
L 181.729673 220.345279 
L 181.94373 220.471653 
L 182.72861 220.100277 
L 183.442136 219.55128 
L 183.798899 219.824549 
L 184.227015 220.099128 
L 184.512426 220.059383 
L 184.655131 220.107389 
L 184.797836 220.079023 
L 185.1546 219.873483 
L 185.654068 219.487926 
L 185.939479 219.30935 
L 186.082184 219.324525 
L 186.724358 219.717374 
L 187.009768 219.708689 
L 187.866 219.369849 
L 188.365469 218.866322 
L 188.508174 219.090088 
L 188.579527 218.987809 
L 188.793585 219.591541 
L 188.864937 219.600664 
L 189.078995 218.739705 
L 189.150348 218.796633 
L 189.293053 219.108484 
L 189.863874 219.017015 
L 190.720106 218.371757 
L 190.862811 218.499311 
L 191.005517 218.343109 
L 191.148222 218.834571 
L 191.219575 218.867312 
L 191.290927 218.718656 
L 191.36228 218.76452 
L 191.576338 218.897122 
L 192.218512 218.918358 
L 192.575275 218.728468 
L 192.71798 218.779152 
L 192.789333 218.488079 
L 192.860686 218.546122 
L 193.074743 218.398639 
L 193.146096 218.132234 
L 193.217449 218.158951 
L 193.360154 218.280793 
L 193.502859 217.98428 
L 193.574212 218.067991 
L 193.716917 217.990305 
L 193.78827 218.498777 
L 193.859623 218.471915 
L 194.002328 218.312964 
L 194.145033 218.331911 
L 194.359091 218.45108 
L 194.715854 218.420669 
L 194.85856 218.476466 
L 194.929912 218.249805 
L 195.001265 218.282799 
L 195.215323 218.439519 
L 195.286676 218.687515 
L 195.358028 218.589236 
L 195.429381 217.960128 
L 195.500733 217.978082 
L 195.572086 218.034892 
L 195.643439 217.8766 
L 195.714791 217.912108 
L 195.857497 218.13511 
L 195.928849 217.918762 
L 196.000202 218.024945 
L 196.21426 218.361933 
L 196.713728 218.635019 
L 197.070492 218.816653 
L 197.141844 218.589869 
L 197.213197 218.684599 
L 197.427255 218.702626 
L 197.498608 218.298138 
L 197.56996 218.312073 
L 197.641313 218.778391 
L 197.712666 218.729789 
L 197.855371 218.467094 
L 197.926723 218.535604 
L 198.069429 218.351173 
L 198.140781 217.947454 
L 198.212134 218.083146 
L 198.283487 217.970707 
L 198.354839 218.182441 
L 198.426192 217.962545 
L 198.497545 218.027502 
L 199.139718 218.549917 
L 199.282424 218.337968 
L 199.639187 219.075937 
L 199.71054 219.045598 
L 199.853245 218.43173 
L 199.924598 218.414507 
L 200.067303 217.942984 
L 200.281361 218.618066 
L 200.352713 218.652441 
L 200.638124 218.106159 
L 200.923535 218.187137 
L 201.779766 218.930681 
L 201.851119 218.559896 
L 201.922472 218.623677 
L 202.065177 219.165677 
L 202.207882 219.010194 
L 202.279235 219.084597 
L 202.350588 219.001235 
L 202.42194 218.968243 
L 202.564646 218.611178 
L 202.635998 218.752369 
L 202.707351 218.698637 
L 203.206819 218.221995 
L 203.563583 218.453484 
L 203.634935 218.436268 
L 203.991698 219.450629 
L 204.063051 219.464192 
L 204.134404 218.813804 
L 204.205756 218.864098 
L 204.277109 218.872781 
L 204.348462 218.342733 
L 204.419814 218.363658 
L 204.633872 219.129054 
L 204.705225 219.278911 
L 204.990636 218.901721 
L 205.204693 218.842926 
L 205.490104 218.553146 
L 205.632809 218.356711 
L 205.704162 218.395125 
L 205.775515 218.151726 
L 205.846867 218.273986 
L 205.91822 218.347942 
L 205.989573 218.136212 
L 206.060925 218.213507 
L 206.203631 218.216686 
L 206.274983 218.019525 
L 206.346336 218.521062 
L 206.417688 218.426292 
L 206.560394 218.335834 
L 206.631746 218.437687 
L 206.703099 218.288915 
L 206.774452 218.640872 
L 206.917157 218.1358 
L 207.059862 218.348193 
L 207.987447 217.844465 
L 208.130152 217.421725 
L 208.415563 217.963748 
L 208.558268 217.371577 
L 208.629621 217.37522 
L 208.772326 216.942022 
L 208.986384 217.724381 
L 209.057736 217.856231 
L 209.271794 217.53859 
L 209.628558 217.489833 
L 209.913968 217.328867 
L 210.056674 217.177801 
L 210.342084 216.84493 
L 210.413437 217.051382 
L 210.484789 216.933408 
L 210.556142 217.043246 
L 210.698847 216.886573 
L 211.055611 217.056685 
L 211.126963 217.103652 
L 211.198316 216.799905 
L 211.269669 216.842891 
L 211.412374 217.107628 
L 211.555079 217.133685 
L 211.769137 217.22287 
L 212.197253 217.139446 
L 212.268606 217.110132 
L 212.339958 217.22982 
L 212.482664 216.961681 
L 212.625369 216.889169 
L 212.696721 216.389131 
L 212.768074 216.404275 
L 212.839427 216.918657 
L 212.910779 216.844519 
L 213.124837 216.489602 
L 213.267543 216.314105 
L 213.338895 215.954031 
L 213.410248 216.166193 
L 213.481601 216.085694 
L 213.552953 216.135152 
L 213.695659 216.053998 
L 213.981069 216.204185 
L 214.623243 216.210068 
L 214.694596 216.183194 
L 214.908654 216.666415 
L 214.980006 216.493109 
L 215.194064 215.382058 
L 215.479475 215.534898 
L 215.550827 215.894844 
L 215.62218 215.81253 
L 215.693533 215.623888 
L 215.764885 215.67568 
L 216.050296 215.813186 
L 216.763822 216.097916 
L 216.97788 216.194443 
L 217.120586 215.647059 
L 217.191938 216.346745 
L 217.263291 216.295371 
L 217.334644 216.260001 
L 217.548701 215.988475 
L 217.620054 215.932544 
L 217.762759 215.476017 
L 217.834112 215.629272 
L 217.905465 215.556189 
L 218.262228 215.167271 
L 218.690344 214.829095 
L 219.047107 214.931147 
L 219.261165 215.533697 
L 219.332518 215.457253 
L 219.546576 214.328448 
L 219.689281 214.314881 
L 219.903339 215.097472 
L 220.117397 214.790751 
L 220.331455 214.498657 
L 220.47416 214.514862 
L 221.972566 215.564365 
L 222.115271 215.248862 
L 222.186624 215.468645 
L 222.257976 215.443408 
L 222.686092 215.21221 
L 223.328266 214.67569 
L 223.756382 214.364274 
L 223.97044 214.428391 
L 224.041792 214.477711 
L 224.327203 215.160454 
L 224.541261 214.982218 
L 224.969377 215.05656 
L 225.540198 214.854682 
L 225.754256 214.757098 
L 225.896961 214.850209 
L 226.039667 215.030868 
L 226.824546 215.54857 
L 227.324014 215.541318 
L 227.466719 215.427689 
L 227.609425 215.476625 
L 228.322951 214.977456 
L 229.036478 215.461436 
L 229.179183 215.530234 
L 229.464594 215.580612 
L 229.892709 215.487954 
L 230.748941 214.76329 
L 231.105704 215.017826 
L 231.676526 215.331778 
L 232.175994 215.368694 
L 232.532757 215.180046 
L 233.174931 214.648686 
L 233.460342 214.411766 
L 233.531694 214.387317 
L 233.745752 214.530425 
L 234.031163 214.667476 
L 234.816042 214.740252 
L 235.0301 214.561885 
L 235.172805 214.539097 
L 235.600921 214.206325 
L 236.671211 214.954878 
L 237.099327 215.029333 
L 237.598795 214.817706 
L 237.812853 214.728134 
L 238.312322 214.2517 
L 238.455027 214.166555 
L 238.597732 214.254706 
L 238.81179 214.475409 
L 239.453964 214.715721 
L 239.810727 214.680983 
L 240.238843 214.510314 
L 240.666959 214.302746 
L 241.879954 215.315902 
L 242.593481 215.454014 
L 242.878891 215.327144 
L 243.021597 215.030915 
L 243.449712 214.89999 
L 243.806476 215.331315 
L 243.877828 215.195982 
L 243.949181 215.274069 
L 244.163239 215.543503 
L 244.591355 215.883516 
L 245.233529 216.086234 
L 245.80435 216.213717 
L 246.446524 217.034446 
L 247.017345 217.536428 
L 247.231403 217.595469 
L 247.588166 217.661198 
L 249.30063 220.548222 
L 249.443335 220.550418 
L 249.657393 220.738625 
L 249.871451 220.72942 
L 250.370919 220.605945 
L 250.799035 220.244582 
L 251.013093 220.090481 
L 251.512562 219.698602 
L 251.869325 219.503453 
L 252.01203 219.495912 
L 252.154735 219.388516 
L 253.225025 219.618063 
L 253.653141 219.798745 
L 253.724494 219.680827 
L 253.795846 219.735092 
L 254.15261 219.806497 
L 254.295315 219.681796 
L 254.43802 219.659221 
L 255.579663 218.367794 
L 256.007778 217.660623 
L 256.507247 217.863791 
L 256.935363 217.866041 
L 257.220773 217.763396 
L 258.790532 216.44201 
L 259.361353 216.543219 
L 259.860821 216.439891 
L 260.217585 216.210501 
L 260.717053 216.237418 
L 261.002464 216.431829 
L 261.71599 216.832705 
L 262.286811 216.795933 
L 262.857633 216.402337 
L 263.285748 216.040881 
L 263.85657 216.530113 
L 264.356038 216.621783 
L 264.855507 216.491886 
L 265.783091 215.842498 
L 266.353912 216.254821 
L 266.496618 216.354159 
L 266.639323 216.434542 
L 266.853381 216.226818 
L 266.924733 216.197288 
L 267.067439 216.438018 
L 267.424202 216.243352 
L 267.63826 216.167071 
L 267.780965 215.77133 
L 268.209081 215.414199 
L 268.351786 215.223059 
L 268.565844 215.303792 
L 268.779902 215.426667 
L 268.922608 215.368078 
L 269.136666 215.550428 
L 269.850192 215.444543 
L 270.06425 215.155271 
L 270.706424 214.839248 
L 271.562656 215.335189 
L 272.062124 215.359684 
L 272.347535 215.219622 
L 273.417824 214.410355 
L 273.56053 214.581916 
L 273.703235 214.617134 
L 274.416761 214.754744 
L 274.630819 214.681649 
L 275.772462 213.928682 
L 276.557341 214.344632 
L 276.985457 214.387181 
L 277.698983 213.912158 
L 278.555215 213.262085 
L 278.769273 213.390521 
L 278.911978 213.365976 
L 279.268741 213.545755 
L 279.839563 213.471222 
L 280.124973 213.229107 
L 280.267679 213.259326 
L 280.767147 213.057952 
L 281.337968 213.526307 
L 281.480674 213.541802 
L 281.980142 213.63643 
L 282.336905 213.527581 
L 283.050432 212.961103 
L 283.26449 212.904373 
L 284.263427 213.385351 
L 284.762895 213.32427 
L 285.761832 212.47167 
L 286.189948 212.768926 
L 286.832122 212.988893 
L 287.04618 212.894854 
L 287.617001 212.671227 
L 287.831059 212.449707 
L 287.973764 212.32157 
L 288.187822 211.9352 
L 288.473233 212.166603 
L 288.615938 212.319396 
L 288.829996 212.054766 
L 289.543523 212.295136 
L 289.900286 212.177056 
L 290.471107 211.729591 
L 290.82787 211.487101 
L 291.398691 211.733982 
L 291.755455 211.785398 
L 292.326276 211.66071 
L 293.182508 210.928358 
L 293.539271 211.171591 
L 293.753329 211.18335 
L 294.32415 211.158198 
L 294.752266 210.88279 
L 295.67985 209.911594 
L 296.464729 210.227899 
L 296.678787 210.224447 
L 296.821493 210.279352 
L 297.320961 210.011314 
L 297.963135 209.379666 
L 298.391251 208.847036 
L 298.533956 208.900376 
L 298.676662 209.013142 
L 298.962072 209.032595 
L 299.675599 209.090848 
L 300.175067 208.752134 
L 300.389125 208.600744 
L 300.674536 208.375451 
L 301.316709 208.869353 
L 301.459415 208.842052 
L 301.60212 208.985942 
L 301.816178 208.922399 
L 302.030236 208.933693 
L 302.529704 208.693664 
L 302.743762 208.438446 
L 302.95782 208.294335 
L 303.171878 208.139241 
L 303.814052 208.582362 
L 304.02811 208.613423 
L 304.384873 208.727944 
L 304.527579 208.664635 
L 304.741637 208.612067 
L 305.740574 207.636459 
L 306.025984 207.409887 
L 306.240042 207.399442 
L 306.311395 207.3863 
L 306.4541 207.469607 
L 306.953569 207.443895 
L 307.595742 207.082172 
L 307.881153 206.647775 
L 308.380622 206.271173 
L 309.379559 206.330464 
L 309.450911 206.331983 
L 309.593617 206.183291 
L 309.736322 206.193142 
L 309.807675 206.216148 
L 310.164438 205.832784 
L 310.378496 205.710716 
L 310.592554 205.360005 
L 310.949317 205.488281 
L 311.02067 205.473153 
L 311.163375 205.690298 
L 311.234727 205.497069 
L 311.30608 205.665224 
L 311.377433 205.612048 
L 311.520138 205.696721 
L 311.805549 205.533469 
L 311.948254 205.504658 
L 312.37637 205.246891 
L 312.947191 204.747714 
L 313.303954 205.158793 
L 313.803423 205.39297 
L 314.231539 205.424798 
L 315.08777 204.926885 
L 315.658592 203.990203 
L 316.086707 203.285641 
L 316.15806 203.275287 
L 316.586176 202.511086 
L 317.22835 202.043392 
L 317.585113 201.508132 
L 317.870524 200.984136 
L 318.155934 200.642367 
L 319.226224 199.605942 
L 319.511635 199.218471 
L 320.367866 198.004801 
L 321.01004 197.953143 
L 321.152745 197.904626 
L 321.366803 197.864279 
L 321.509509 197.919662 
L 321.723567 197.743858 
L 322.223035 197.308688 
L 322.865209 196.395924 
L 323.578735 195.439338 
L 323.864146 195.499043 
L 324.078204 195.464006 
L 324.292262 195.443204 
L 324.434967 195.329312 
L 324.577673 195.331468 
L 324.934436 194.931896 
L 325.291199 194.546058 
L 325.719315 194.122712 
L 325.86202 194.192649 
L 326.004725 194.112884 
L 326.218783 194.197459 
L 326.290136 194.150533 
L 326.361489 194.251549 
L 326.432841 194.178084 
L 326.789605 194.064868 
L 327.360426 193.614472 
L 327.645836 193.116772 
L 328.145305 192.401686 
L 328.359363 192.118876 
L 328.644773 192.160289 
L 328.858831 192.080116 
L 328.930184 192.091887 
L 329.144242 191.933117 
L 329.286947 191.886076 
L 330.000474 191.092539 
L 330.357237 190.647945 
L 330.42859 190.530202 
L 330.499942 190.579759 
L 331.427527 190.698839 
L 331.855643 190.601553 
L 332.0697 190.38256 
L 332.283758 190.191952 
L 333.354048 188.650414 
L 333.639459 188.820052 
L 333.853517 188.797116 
L 334.709748 188.41953 
L 335.137864 187.971685 
L 335.494628 187.403839 
L 335.780038 187.074267 
L 336.208154 187.033773 
L 336.279507 186.973395 
L 336.350859 187.065159 
L 336.422212 186.982439 
L 336.993033 186.608383 
L 337.563854 185.911625 
L 337.777912 185.452573 
L 338.134676 185.051387 
L 338.491439 185.006502 
L 338.634144 185.023564 
L 339.276318 184.559767 
L 339.775786 183.884364 
L 340.13255 183.244842 
L 340.988781 181.77521 
L 341.773661 181.25582 
L 342.273129 180.55006 
L 343.486124 178.064255 
L 343.771535 177.545749 
L 344.128298 177.219117 
L 344.485061 176.690546 
L 345.198588 175.757898 
L 345.341293 175.769162 
L 345.555351 175.361222 
L 345.626703 175.425794 
L 345.840761 175.458783 
L 346.625641 174.972485 
L 347.053756 174.540125 
L 347.267814 174.086185 
L 347.41052 173.931044 
L 348.980278 170.943764 
L 349.122983 170.895175 
L 349.693804 170.225005 
L 349.907862 169.833737 
L 350.193273 169.577109 
L 350.264626 169.598834 
L 350.478684 169.368637 
L 350.621389 169.403019 
L 350.692741 169.377619 
L 350.835447 169.516571 
L 351.334915 169.262599 
L 351.477621 168.913995 
L 351.905736 168.503829 
L 351.977089 168.403136 
L 352.048442 168.484641 
L 352.191147 168.325876 
L 352.904674 166.916724 
L 353.689553 165.235098 
L 353.974963 164.925355 
L 354.545784 164.197818 
L 355.259311 163.155539 
L 355.616074 163.002459 
L 356.04419 162.783992 
L 356.615011 162.373586 
L 357.542596 160.833905 
L 357.899359 159.995679 
L 358.684238 158.101741 
L 358.755591 158.276142 
L 358.826943 158.132685 
L 358.969649 157.37974 
L 359.041001 157.448276 
L 359.683175 156.509131 
L 359.82588 156.418917 
L 360.111291 156.11383 
L 360.253996 156.078401 
L 361.110228 155.678165 
L 361.252933 155.70449 
L 361.395639 155.680648 
L 361.538344 155.479056 
L 361.895107 155.051542 
L 361.96646 155.180929 
L 362.037812 155.10757 
L 362.180518 154.522168 
L 362.25187 154.601201 
L 363.179455 152.93063 
L 363.607571 151.97158 
L 363.750276 151.761155 
L 363.964334 151.3571 
L 364.67786 150.40243 
L 364.820566 150.374129 
L 365.034624 150.180128 
L 365.105976 150.129086 
L 365.248682 150.290827 
L 365.391387 149.845848 
L 365.462739 150.023671 
L 365.534092 149.973003 
L 366.104913 149.766863 
L 366.533029 149.470701 
L 367.032498 148.862667 
L 367.674672 147.641218 
L 368.530903 145.723502 
L 368.602256 145.729825 
L 368.887667 145.033459 
L 369.101724 144.865498 
L 369.601193 143.940205 
L 370.243367 142.788082 
L 370.60013 142.482885 
L 371.313657 141.790202 
L 372.526652 139.61786 
L 372.954767 138.378348 
L 374.38182 134.548679 
L 375.095347 133.309481 
L 376.80781 130.511918 
L 378.377569 125.831285 
L 378.591627 125.474372 
L 379.305153 123.517423 
L 379.733269 121.922442 
L 381.65979 114.316777 
L 382.230612 111.804289 
L 385.15607 95.929012 
L 386.797181 87.417965 
L 387.724765 81.136981 
L 388.438292 75.695964 
L 390.00805 64.097833 
L 390.150755 63.187172 
L 392.005924 49.662577 
L 393.932446 32.871358 
L 395.858967 16.021457 
L 396.786552 7.821535 
L 397.9329 -1 
M 410.678934 -1 
L 410.682552 350.665437 
M 410.723645 350.665437 
L 410.728395 -1 
L 410.728395 -1 
" clip-path="url(#p17a5bf9d1e)" style="fill: none; stroke: #1f77b4; stroke-width: 1.5; stroke-linecap: square"/>
   </g>
   <g id="line2d_22">
    <path d="M 87.187415 254.172998 
L 87.758236 252.806068 
L 87.829589 252.994288 
L 88.043647 252.009847 
L 88.543115 250.340138 
L 88.614468 250.712409 
L 88.828526 249.427636 
L 89.684757 246.540718 
L 92.110747 239.099758 
L 93.395095 234.537868 
L 94.251327 232.513796 
L 94.750795 231.538011 
L 96.605964 217.972203 
L 97.248138 214.853385 
L 97.890312 212.910336 
L 98.247075 212.185768 
L 98.746544 211.549281 
L 98.960602 211.173392 
L 99.031954 211.464245 
L 99.103307 211.39564 
L 99.317365 210.918374 
L 99.674128 210.737767 
L 99.888186 210.517017 
L 99.959539 210.521685 
L 100.316302 210.150537 
L 100.744418 209.870646 
L 101.172534 209.721988 
L 101.814707 210.18497 
L 102.314176 211.165197 
L 103.027702 213.986285 
L 104.097992 220.251156 
L 104.954224 225.421076 
L 105.310987 225.644934 
L 105.525045 225.945989 
L 106.095866 226.825344 
L 107.380214 229.976576 
L 108.236446 231.702987 
L 108.949972 232.962785 
L 110.162967 235.307554 
L 111.518668 237.857853 
L 112.018136 238.399107 
L 112.517605 238.523243 
L 112.66031 238.472051 
L 112.803015 238.506045 
L 113.587894 237.891348 
L 114.515479 237.292927 
L 115.0863 237.263164 
L 115.942532 237.734386 
L 116.442 238.009478 
L 117.084174 238.05967 
L 118.011758 237.382727 
L 118.297169 236.923932 
L 118.368522 236.933066 
L 118.86799 236.22842 
L 119.224753 235.903886 
L 119.581517 235.598855 
L 120.723159 235.631789 
L 121.436686 235.867815 
L 122.150212 235.219238 
L 122.935091 234.982024 
L 123.077796 234.893545 
L 124.290791 233.389034 
L 124.861613 233.044863 
L 125.361081 233.008049 
L 125.503786 233.106278 
L 125.646492 233.101638 
L 125.931902 233.243773 
L 126.074608 233.211574 
L 126.502723 232.600265 
L 127.21625 231.98427 
L 127.787071 231.924282 
L 128.429245 232.144168 
L 128.857361 231.659605 
L 129.142771 231.370447 
L 129.64224 231.03668 
L 130.99794 231.237305 
L 131.996877 230.31853 
L 132.139583 230.305507 
L 132.639051 230.253755 
L 133.42393 230.717635 
L 133.566636 230.612641 
L 133.923399 230.251406 
L 134.351515 229.938899 
L 134.922336 229.847209 
L 135.84992 230.349911 
L 135.992626 230.348877 
L 136.206684 230.165491 
L 136.706152 229.783827 
L 136.991563 229.679967 
L 137.276973 229.705275 
L 137.491031 229.820216 
L 137.562384 229.727311 
L 137.633736 229.803646 
L 138.27591 230.228969 
L 138.989437 229.550799 
L 139.3462 229.381225 
L 140.41649 229.465146 
L 141.130016 229.872108 
L 141.629485 229.449077 
L 141.77219 229.426483 
L 142.057601 229.265537 
L 142.128953 229.350299 
L 142.200306 229.281878 
L 142.84248 229.404066 
L 143.413301 229.598892 
L 144.269533 228.924669 
L 144.840354 228.842342 
L 145.767938 229.324843 
L 146.124701 229.617139 
L 146.338759 229.426892 
L 146.838228 229.187598 
L 146.909581 229.286198 
L 147.052286 229.185981 
L 147.266344 229.170893 
L 147.551754 229.282115 
L 147.908518 229.501164 
L 148.051223 229.441392 
L 149.192865 228.299175 
L 149.835039 228.051542 
L 150.40586 228.131646 
L 151.690208 228.501884 
L 151.904266 228.364659 
L 152.903203 227.458267 
L 154.044845 225.717815 
L 154.687019 225.067412 
L 155.115135 224.88092 
L 155.757309 224.703518 
L 156.185425 223.751906 
L 156.470835 223.240598 
L 157.041657 222.399344 
L 157.541125 221.950026 
L 157.68383 221.946228 
L 157.969241 221.881618 
L 158.183299 222.074305 
L 158.896825 222.241443 
L 159.039531 222.111685 
L 159.324941 222.055829 
L 159.753057 221.636309 
L 160.038468 221.622126 
L 160.466584 221.606225 
L 161.750931 220.522747 
L 161.893637 220.444959 
L 161.964989 220.340233 
L 162.036342 220.413945 
L 162.107694 220.574358 
L 162.179047 220.501014 
L 162.321752 220.435144 
L 162.749868 220.621378 
L 163.463395 221.208105 
L 163.6061 221.155772 
L 164.176921 220.685986 
L 164.67639 220.531 
L 165.175858 220.657286 
L 165.960737 220.926821 
L 166.816969 220.151464 
L 166.959675 220.327862 
L 167.173732 220.180829 
L 167.245085 220.193558 
L 167.38779 220.086189 
L 167.459143 220.096408 
L 167.673201 220.344686 
L 167.887259 220.415834 
L 168.45808 220.786881 
L 168.672138 220.627355 
L 169.385665 220.166405 
L 170.027838 220.228319 
L 170.741365 220.70052 
L 171.240833 220.273969 
L 171.312186 220.123509 
L 171.383539 220.163646 
L 171.526244 220.159951 
L 171.740302 220.034045 
L 172.382476 220.02428 
L 172.953297 220.348104 
L 173.381413 220.645712 
L 173.666823 220.392514 
L 174.308997 220.006572 
L 174.594408 219.902376 
L 174.951171 219.975496 
L 175.664697 220.45565 
L 175.950108 220.577334 
L 176.235519 220.287893 
L 176.734987 219.915711 
L 177.020398 219.862031 
L 177.163103 219.818977 
L 177.305808 219.699681 
L 177.448514 219.850057 
L 177.662572 219.877877 
L 178.233393 220.153599 
L 178.376098 220.218996 
L 179.23233 219.462083 
L 179.589093 219.323888 
L 179.945856 219.52243 
L 180.088562 219.565573 
L 180.231267 219.528447 
L 180.730735 219.758674 
L 182.086436 218.93043 
L 182.371846 218.939173 
L 182.942668 219.191309 
L 183.156725 219.360468 
L 183.228078 219.357718 
L 183.370783 219.497404 
L 184.36972 218.713597 
L 184.512426 218.716361 
L 184.655131 218.652764 
L 184.726484 218.619162 
L 184.869189 218.731815 
L 185.083247 218.750896 
L 185.796773 219.158315 
L 185.868126 219.287979 
L 185.939479 219.238504 
L 186.082184 219.212596 
L 186.153537 218.963659 
L 186.224889 219.028165 
L 186.296242 219.134127 
L 186.581653 218.72113 
L 186.938416 218.600923 
L 188.008705 218.664148 
L 188.365469 218.764722 
L 188.436821 218.569457 
L 188.508174 218.601159 
L 188.722232 218.426785 
L 188.864937 217.977549 
L 188.93629 218.519199 
L 189.007643 218.449961 
L 189.150348 218.114 
L 189.2217 218.11528 
L 189.364406 217.938597 
L 189.507111 217.959436 
L 189.792522 217.900396 
L 190.363343 218.088937 
L 190.577401 218.144695 
L 190.648753 218.31974 
L 190.720106 218.159418 
L 190.791459 218.324038 
L 190.934164 218.173903 
L 191.005517 218.212101 
L 191.148222 217.679682 
L 191.219575 217.609177 
L 191.36228 217.236217 
L 191.433633 217.375987 
L 191.504985 217.280823 
L 192.361217 217.210151 
L 192.43257 217.340398 
L 192.503922 217.256018 
L 192.575275 217.273957 
L 192.71798 217.077193 
L 192.860686 217.473284 
L 192.932038 217.418372 
L 193.146096 217.991119 
L 193.431507 217.275122 
L 193.502859 217.34157 
L 193.645565 217.918295 
L 193.716917 217.903254 
L 193.78827 217.456589 
L 193.859623 217.468299 
L 193.930975 217.689762 
L 194.002328 217.624502 
L 194.216386 217.37497 
L 194.85856 217.246076 
L 194.929912 217.523009 
L 195.001265 217.411025 
L 195.072618 217.397552 
L 195.215323 217.555962 
L 195.286676 217.24136 
L 195.358028 217.33532 
L 195.429381 217.919947 
L 195.500733 217.89657 
L 195.572086 217.764163 
L 195.714791 217.328887 
L 195.786144 217.713352 
L 195.857497 217.651849 
L 196.000202 217.86484 
L 196.285613 217.399628 
L 197.070492 216.936336 
L 197.213197 217.232341 
L 197.28455 217.137566 
L 197.498608 217.703287 
L 197.56996 217.617526 
L 197.784018 216.813491 
L 197.855371 216.896505 
L 198.069429 217.561755 
L 198.140781 217.881482 
L 198.212134 217.792367 
L 198.354839 217.992285 
L 198.568897 217.743489 
L 198.925661 217.541795 
L 199.068366 217.555848 
L 199.211071 217.49661 
L 199.282424 217.617114 
L 199.353776 217.418399 
L 199.425129 217.459093 
L 199.567834 217.531812 
L 199.71054 217.181996 
L 199.853245 217.746982 
L 199.924598 217.806795 
L 199.99595 217.60241 
L 200.067303 217.643982 
L 200.138656 217.734636 
L 200.281361 217.407012 
L 200.352713 217.460206 
L 200.566771 217.862881 
L 200.852182 218.0183 
L 201.208945 217.740054 
L 201.494356 217.461504 
L 201.637061 217.443147 
L 201.851119 218.041563 
L 201.922472 217.856604 
L 202.13653 216.778559 
L 202.207882 216.798681 
L 202.350588 217.336726 
L 202.42194 217.373876 
L 202.564646 217.91826 
L 202.778703 217.782758 
L 203.206819 218.154873 
L 203.563583 217.821315 
L 203.634935 217.925012 
L 203.777641 217.647172 
L 203.920346 217.623258 
L 204.063051 217.073633 
L 204.134404 217.689947 
L 204.205756 217.628513 
L 204.277109 217.624275 
L 204.419814 217.417935 
L 204.56252 217.400276 
L 204.705225 217.131893 
L 204.84793 217.337251 
L 205.133341 217.397139 
L 205.490104 217.580022 
L 205.775515 217.93791 
L 205.846867 217.759634 
L 205.91822 217.875579 
L 206.132278 218.062945 
L 206.489041 216.888798 
L 206.560394 216.942358 
L 206.631746 217.503808 
L 206.703099 217.292848 
L 206.774452 216.916668 
L 206.917157 217.598584 
L 207.131215 217.173151 
L 207.345273 217.148986 
L 207.630684 217.208364 
L 207.987447 217.141936 
L 208.058799 217.499138 
L 208.130152 217.364246 
L 208.272857 217.372068 
L 208.415563 216.840552 
L 208.486915 217.325645 
L 208.558268 217.283488 
L 208.629621 217.246002 
L 208.700973 216.871312 
L 208.772326 216.890988 
L 208.915031 216.821033 
L 209.057736 216.43136 
L 209.129089 216.602034 
L 209.200442 216.549222 
L 209.485852 216.338111 
L 209.985321 216.296741 
L 210.199379 216.440008 
L 210.413437 216.535385 
L 210.484789 216.593806 
L 210.556142 216.297709 
L 210.627495 216.323577 
L 210.7702 216.189817 
L 210.912905 215.522736 
L 210.984258 215.597039 
L 211.198316 216.138023 
L 211.341021 215.93266 
L 211.769137 215.347361 
L 212.339958 215.011848 
L 212.696721 215.925989 
L 212.768074 215.877102 
L 212.839427 215.284518 
L 212.910779 215.333187 
L 212.982132 215.379024 
L 213.053485 214.887456 
L 213.124837 214.970264 
L 213.338895 215.921084 
L 213.410248 215.856685 
L 213.481601 215.970937 
L 213.552953 215.893001 
L 213.909716 215.547205 
L 214.480538 215.186344 
L 214.837301 215.248456 
L 214.908654 214.814028 
L 214.980006 214.871061 
L 215.122711 215.47355 
L 215.336769 215.133943 
L 215.408122 215.508118 
L 215.479475 215.472242 
L 215.550827 215.250676 
L 215.62218 215.30075 
L 215.693533 215.525527 
L 215.764885 215.427675 
L 215.978943 215.095231 
L 216.478412 214.594684 
L 216.835175 214.30025 
L 217.049233 214.873908 
L 217.120586 214.844313 
L 217.263291 214.073893 
L 217.334644 214.112491 
L 217.405996 213.5256 
L 217.477349 213.554829 
L 217.691407 214.480592 
L 217.762759 214.681751 
L 217.834112 214.575072 
L 217.905465 214.621066 
L 218.04817 214.520748 
L 218.618991 214.788549 
L 218.904402 214.535313 
L 219.189812 214.395088 
L 219.261165 213.924161 
L 219.332518 213.938059 
L 219.40387 214.476327 
L 219.475223 214.446626 
L 219.617928 214.246875 
L 219.831986 214.314751 
L 219.903339 214.040816 
L 219.974691 214.069936 
L 220.117397 214.343949 
L 220.616865 214.207329 
L 221.401744 213.471761 
L 221.54445 213.34136 
L 221.82986 212.933997 
L 222.115271 213.421626 
L 222.329329 213.184847 
L 223.114208 213.795096 
L 223.685029 214.37265 
L 224.184498 214.217877 
L 224.327203 213.873488 
L 224.469908 214.069713 
L 224.683966 214.048628 
L 225.112082 214.23159 
L 225.896961 214.669893 
L 226.039667 214.56676 
L 226.539135 214.28964 
L 227.038604 214.234793 
L 227.680777 214.489455 
L 227.966188 214.697305 
L 228.251599 214.914103 
L 228.394304 214.826389 
L 228.608362 214.589967 
L 229.393241 214.168777 
L 229.892709 214.191856 
L 230.891647 214.610329 
L 231.53382 214.020046 
L 231.890584 213.836826 
L 232.033289 213.767787 
L 232.532757 213.816531 
L 232.818168 213.9325 
L 233.032226 214.077775 
L 233.531694 214.362443 
L 233.817105 214.050938 
L 234.173868 213.845403 
L 234.744689 213.704851 
L 234.958747 213.855761 
L 235.743627 214.08035 
L 236.314448 213.530644 
L 236.528506 213.505045 
L 236.956622 213.32358 
L 238.169617 213.943938 
L 238.455027 214.146987 
L 238.883143 213.803827 
L 239.382612 213.630502 
L 239.810727 213.681719 
L 240.381549 214.026621 
L 240.666959 214.195575 
L 240.881017 214.053365 
L 241.737249 213.609763 
L 242.165365 213.651858 
L 242.522128 213.845219 
L 242.593481 213.787635 
L 243.449712 214.835719 
L 243.806476 214.675241 
L 243.949181 214.864226 
L 244.091886 214.7307 
L 244.377297 214.814673 
L 244.591355 214.84389 
L 245.090823 215.266528 
L 245.80435 216.110498 
L 246.161113 216.167306 
L 246.731934 216.493963 
L 247.302755 217.1851 
L 247.659519 217.590803 
L 249.371982 217.177598 
L 249.942803 217.393299 
L 250.727683 218.172129 
L 251.013093 218.456408 
L 251.869325 219.046131 
L 252.368793 219.015639 
L 252.582851 218.821007 
L 252.796909 218.682309 
L 253.867199 217.660607 
L 254.081257 217.405196 
L 255.008841 217.164465 
L 255.651015 217.461545 
L 256.007778 217.634949 
L 256.649952 216.730854 
L 257.149421 216.301577 
L 257.506184 216.148411 
L 257.720242 216.180184 
L 258.21971 216.247132 
L 258.576474 216.392315 
L 259.575411 215.744787 
L 260.6457 215.897145 
L 261.145169 215.528767 
L 261.573285 215.327196 
L 262.286811 215.305584 
L 262.714927 215.620071 
L 263.285748 216.02629 
L 264.427391 215.237591 
L 264.712801 215.267269 
L 265.783091 215.697551 
L 266.496618 214.876536 
L 266.924733 214.909943 
L 267.067439 214.63894 
L 267.566907 214.68183 
L 267.63826 214.712322 
L 267.852318 214.954816 
L 268.494492 215.082971 
L 269.208018 214.466569 
L 269.850192 214.333459 
L 270.135603 214.53218 
L 270.278308 214.54225 
L 270.635071 214.705676 
L 271.277245 214.15255 
L 271.491303 213.918965 
L 271.705361 213.846644 
L 272.062124 213.792427 
L 272.418887 213.779694 
L 272.561593 213.818453 
L 272.847003 214.056948 
L 273.417824 214.231673 
L 274.202703 213.554369 
L 274.702172 213.444663 
L 275.130288 213.535794 
L 275.629756 213.830442 
L 276.628693 212.847142 
L 277.199515 212.631237 
L 277.770336 212.763486 
L 277.984394 212.914425 
L 278.555215 213.068853 
L 279.197389 212.569079 
L 279.839563 212.5234 
L 280.267679 212.700562 
L 280.624442 212.933853 
L 281.409321 212.287758 
L 282.051495 212.209595 
L 282.550963 212.294337 
L 282.765021 212.572048 
L 282.979079 212.663348 
L 283.26449 212.746051 
L 284.192074 212.000239 
L 284.548837 211.922021 
L 285.476422 212.219225 
L 285.761832 212.423275 
L 286.118596 212.062687 
L 286.261301 211.956426 
L 286.618064 211.629726 
L 286.974827 211.526328 
L 287.759706 211.539003 
L 287.902412 211.662403 
L 287.973764 211.638874 
L 288.187822 211.914207 
L 288.758644 211.514529 
L 288.901349 211.451014 
L 289.115407 211.257585 
L 289.543523 210.949249 
L 290.399754 211.185453 
L 290.82787 211.355874 
L 291.684102 210.630345 
L 291.826807 210.713764 
L 292.397629 210.564222 
L 292.611687 210.661285 
L 292.825744 210.780485 
L 293.182508 210.783688 
L 293.539271 210.249441 
L 293.681976 210.180509 
L 293.824682 210.054458 
L 294.110092 209.822269 
L 294.538208 209.620051 
L 295.037677 209.537299 
L 295.608498 209.852699 
L 296.536082 208.756505 
L 296.678787 208.659599 
L 296.892845 208.486684 
L 297.463667 208.342963 
L 297.606372 208.357966 
L 297.82043 208.549336 
L 298.391251 208.813625 
L 298.676662 208.516166 
L 298.890719 208.345646 
L 299.318835 208.073589 
L 299.889657 208.006325 
L 300.389125 208.212484 
L 300.674536 208.329343 
L 301.816178 207.549615 
L 302.529704 207.586164 
L 302.743762 207.87442 
L 302.815115 207.833437 
L 302.886468 207.939694 
L 302.95782 207.889643 
L 303.171878 207.972292 
L 303.885405 207.199353 
L 303.956757 207.213487 
L 304.242168 206.978837 
L 304.384873 206.885514 
L 304.527579 206.951575 
L 304.812989 206.834077 
L 305.455163 207.058887 
L 305.954632 207.189162 
L 306.311395 206.921927 
L 306.525453 206.610395 
L 306.739511 206.461329 
L 307.167627 206.220272 
L 307.310332 206.218996 
L 307.595742 205.980188 
L 307.8098 206.120341 
L 307.952506 206.177391 
L 308.166564 206.18367 
L 308.237916 206.187549 
L 308.59468 205.771754 
L 308.808737 205.571746 
L 309.236853 205.137386 
L 309.593617 205.078613 
L 309.879027 204.924526 
L 309.95038 204.927338 
L 310.093085 205.244729 
L 310.23579 205.216946 
L 310.378496 205.192129 
L 310.592554 205.349369 
L 311.02067 205.106652 
L 311.30608 204.634685 
L 311.662843 204.528372 
L 311.805549 204.562399 
L 312.519075 204.542397 
L 312.733133 204.728545 
L 313.018544 204.612652 
L 313.518012 203.784819 
L 314.302891 203.027257 
L 314.445597 202.982512 
L 314.588302 202.752269 
L 315.373181 202.603048 
L 315.444534 202.69031 
L 315.515886 202.571663 
L 315.587239 202.664025 
L 315.944002 202.744774 
L 316.300765 202.545501 
L 316.372118 202.630807 
L 317.585113 201.073141 
L 317.727818 201.047192 
L 317.941876 200.822134 
L 318.512697 199.780201 
L 319.083519 198.896169 
L 319.65434 198.247014 
L 319.93975 198.176293 
L 320.225161 197.945232 
L 320.367866 197.663823 
L 321.01004 196.525309 
L 321.580861 195.62762 
L 322.151683 195.205658 
L 322.579798 195.157013 
L 322.936562 195.209401 
L 323.507383 195.349759 
L 323.935499 194.767407 
L 324.577673 194.121145 
L 324.79173 194.086666 
L 325.291199 194.020954 
L 325.57661 194.10268 
L 326.860957 192.462901 
L 327.360426 192.159261 
L 327.503131 192.158225 
L 327.574484 192.071305 
L 327.717189 192.145918 
L 328.359363 192.045601 
L 328.930184 191.181827 
L 329.072889 191.187726 
L 329.429653 190.885471 
L 330.000474 190.556183 
L 330.285884 190.570411 
L 331.855643 188.566048 
L 331.998348 188.580174 
L 332.212406 188.47958 
L 332.640522 188.512416 
L 332.85458 188.51537 
L 333.13999 188.608254 
L 333.425401 188.521381 
L 333.639459 188.072897 
L 333.710811 188.075962 
L 334.138927 187.51717 
L 334.852454 187.036714 
L 334.923806 187.103633 
L 334.995159 187.018796 
L 335.137864 186.978438 
L 335.28057 186.965819 
L 335.708686 187.021448 
L 336.63627 185.728413 
L 337.278444 185.214809 
L 337.777912 185.137384 
L 337.99197 185.061091 
L 338.705497 183.613843 
L 338.848202 183.469681 
L 339.133613 182.959849 
L 339.775786 182.247244 
L 340.275255 181.962277 
L 340.489313 181.937943 
L 341.060134 181.090979 
L 341.845013 179.363424 
L 342.130424 178.860379 
L 342.273129 178.746552 
L 342.487187 178.427089 
L 342.629892 178.372804 
L 342.84395 178.092479 
L 342.986656 178.105252 
L 343.414771 177.790833 
L 344.056945 176.956043 
L 344.199651 176.793928 
L 344.841824 175.919152 
L 344.98453 175.783228 
L 345.055882 175.761869 
L 345.412646 175.035006 
L 345.483998 175.076316 
L 345.698056 174.557113 
L 346.054819 173.700866 
L 346.268877 173.346081 
L 346.482935 172.840874 
L 346.696993 172.519904 
L 346.982404 172.119419 
L 347.125109 172.093324 
L 347.339167 171.883153 
L 347.553225 171.596697 
L 347.69593 171.631159 
L 347.909988 171.498805 
L 348.480809 171.202479 
L 348.623515 171.270109 
L 349.051631 170.684849 
L 349.622452 169.941414 
L 350.478684 168.853819 
L 351.763031 166.526223 
L 352.405205 165.700048 
L 352.690616 165.714149 
L 352.976026 165.493247 
L 353.261437 165.423983 
L 353.475495 165.268104 
L 353.6182 165.239096 
L 353.903611 164.82333 
L 354.260374 164.180266 
L 354.759842 163.567906 
L 355.045253 163.23022 
L 356.258248 160.38452 
L 356.543659 159.66864 
L 357.185832 158.652511 
L 357.756654 158.066684 
L 358.684238 157.118872 
L 358.826943 156.822007 
L 358.898296 157.185289 
L 358.969649 157.11036 
L 359.183706 156.649949 
L 359.683175 155.85249 
L 360.039938 155.041917 
L 360.182644 154.818199 
L 361.681049 151.560924 
L 361.823754 151.379326 
L 362.037812 150.852367 
L 362.109165 151.183554 
L 362.180518 151.098973 
L 362.394576 150.669179 
L 362.894044 150.473129 
L 363.036749 150.420813 
L 363.607571 150.498657 
L 363.750276 150.432267 
L 363.892981 150.432996 
L 364.249744 150.293192 
L 364.67786 150.006837 
L 364.891918 149.710718 
L 365.034624 149.596068 
L 365.248682 149.015082 
L 365.320034 149.300698 
L 365.391387 149.199392 
L 365.605445 148.66366 
L 366.318971 147.454292 
L 366.81844 146.820655 
L 367.531966 146.153017 
L 368.245493 145.759759 
L 368.459551 145.31093 
L 368.530903 145.419107 
L 369.030372 144.503762 
L 369.743898 143.323556 
L 370.100662 142.725729 
L 372.169888 137.28554 
L 373.097473 135.868635 
L 374.167762 134.497463 
L 376.022931 130.270642 
L 376.665105 128.771381 
L 377.307279 127.608056 
L 378.092158 126.154025 
L 379.661916 120.499775 
L 379.875974 119.868254 
L 380.803559 116.891385 
L 383.015491 106.385846 
L 384.014428 101.698305 
L 384.942012 96.127106 
L 387.082592 81.356407 
L 388.509645 73.0466 
L 389.579934 66.185669 
L 390.650224 57.798934 
L 392.005924 46.619002 
L 393.50433 34.562573 
L 396.287083 3.447409 
L 396.616898 -1 
L 396.616898 -1 
" clip-path="url(#p17a5bf9d1e)" style="fill: none; stroke: #ff7f0e; stroke-width: 1.5; stroke-linecap: square"/>
   </g>
   <g id="patch_3">
    <path d="M 70.954688 297.54825 
L 70.954688 31.43625 
" style="fill: none; stroke: #000000; stroke-width: 0.8; stroke-linejoin: miter; stroke-linecap: square"/>
   </g>
   <g id="patch_4">
    <path d="M 428.074687 297.54825 
L 428.074687 31.43625 
" style="fill: none; stroke: #000000; stroke-width: 0.8; stroke-linejoin: miter; stroke-linecap: square"/>
   </g>
   <g id="patch_5">
    <path d="M 70.954688 297.54825 
L 428.074687 297.54825 
" style="fill: none; stroke: #000000; stroke-width: 0.8; stroke-linejoin: miter; stroke-linecap: square"/>
   </g>
   <g id="patch_6">
    <path d="M 70.954688 31.43625 
L 428.074687 31.43625 
" style="fill: none; stroke: #000000; stroke-width: 0.8; stroke-linejoin: miter; stroke-linecap: square"/>
   </g>
   <g id="text_13">
    <!-- Secular Frequency -->
    <g transform="translate(138.884063 25.43625)scale(0.24 -0.24)">
     <defs>
      <path id="DejaVuSans-53" d="M 3425 4513 
L 3425 3897 
Q 3066 4069 2747 4153 
Q 2428 4238 2131 4238 
Q 1616 4238 1336 4038 
Q 1056 3838 1056 3469 
Q 1056 3159 1242 3001 
Q 1428 2844 1947 2747 
L 2328 2669 
Q 3034 2534 3370 2195 
Q 3706 1856 3706 1288 
Q 3706 609 3251 259 
Q 2797 -91 1919 -91 
Q 1588 -91 1214 -16 
Q 841 59 441 206 
L 441 856 
Q 825 641 1194 531 
Q 1563 422 1919 422 
Q 2459 422 2753 634 
Q 3047 847 3047 1241 
Q 3047 1584 2836 1778 
Q 2625 1972 2144 2069 
L 1759 2144 
Q 1053 2284 737 2584 
Q 422 2884 422 3419 
Q 422 4038 858 4394 
Q 1294 4750 2059 4750 
Q 2388 4750 2728 4690 
Q 3069 4631 3425 4513 
z
" transform="scale(0.015625)"/>
      <path id="DejaVuSans-65" d="M 3597 1894 
L 3597 1613 
L 953 1613 
Q 991 1019 1311 708 
Q 1631 397 2203 397 
Q 2534 397 2845 478 
Q 3156 559 3463 722 
L 3463 178 
Q 3153 47 2828 -22 
Q 2503 -91 2169 -91 
Q 1331 -91 842 396 
Q 353 884 353 1716 
Q 353 2575 817 3079 
Q 1281 3584 2069 3584 
Q 2775 3584 3186 3129 
Q 3597 2675 3597 1894 
z
M 3022 2063 
Q 3016 2534 2758 2815 
Q 2500 3097 2075 3097 
Q 1594 3097 1305 2825 
Q 1016 2553 972 2059 
L 3022 2063 
z
" transform="scale(0.015625)"/>
      <path id="DejaVuSans-63" d="M 3122 3366 
L 3122 2828 
Q 2878 2963 2633 3030 
Q 2388 3097 2138 3097 
Q 1578 3097 1268 2742 
Q 959 2388 959 1747 
Q 959 1106 1268 751 
Q 1578 397 2138 397 
Q 2388 397 2633 464 
Q 2878 531 3122 666 
L 3122 134 
Q 2881 22 2623 -34 
Q 2366 -91 2075 -91 
Q 1284 -91 818 406 
Q 353 903 353 1747 
Q 353 2603 823 3093 
Q 1294 3584 2113 3584 
Q 2378 3584 2631 3529 
Q 2884 3475 3122 3366 
z
" transform="scale(0.015625)"/>
      <path id="DejaVuSans-75" d="M 544 1381 
L 544 3500 
L 1119 3500 
L 1119 1403 
Q 1119 906 1312 657 
Q 1506 409 1894 409 
Q 2359 409 2629 706 
Q 2900 1003 2900 1516 
L 2900 3500 
L 3475 3500 
L 3475 0 
L 2900 0 
L 2900 538 
Q 2691 219 2414 64 
Q 2138 -91 1772 -91 
Q 1169 -91 856 284 
Q 544 659 544 1381 
z
M 1991 3584 
L 1991 3584 
z
" transform="scale(0.015625)"/>
      <path id="DejaVuSans-6c" d="M 603 4863 
L 1178 4863 
L 1178 0 
L 603 0 
L 603 4863 
z
" transform="scale(0.015625)"/>
      <path id="DejaVuSans-61" d="M 2194 1759 
Q 1497 1759 1228 1600 
Q 959 1441 959 1056 
Q 959 750 1161 570 
Q 1363 391 1709 391 
Q 2188 391 2477 730 
Q 2766 1069 2766 1631 
L 2766 1759 
L 2194 1759 
z
M 3341 1997 
L 3341 0 
L 2766 0 
L 2766 531 
Q 2569 213 2275 61 
Q 1981 -91 1556 -91 
Q 1019 -91 701 211 
Q 384 513 384 1019 
Q 384 1609 779 1909 
Q 1175 2209 1959 2209 
L 2766 2209 
L 2766 2266 
Q 2766 2663 2505 2880 
Q 2244 3097 1772 3097 
Q 1472 3097 1187 3025 
Q 903 2953 641 2809 
L 641 3341 
Q 956 3463 1253 3523 
Q 1550 3584 1831 3584 
Q 2591 3584 2966 3190 
Q 3341 2797 3341 1997 
z
" transform="scale(0.015625)"/>
      <path id="DejaVuSans-72" d="M 2631 2963 
Q 2534 3019 2420 3045 
Q 2306 3072 2169 3072 
Q 1681 3072 1420 2755 
Q 1159 2438 1159 1844 
L 1159 0 
L 581 0 
L 581 3500 
L 1159 3500 
L 1159 2956 
Q 1341 3275 1631 3429 
Q 1922 3584 2338 3584 
Q 2397 3584 2469 3576 
Q 2541 3569 2628 3553 
L 2631 2963 
z
" transform="scale(0.015625)"/>
      <path id="DejaVuSans-46" d="M 628 4666 
L 3309 4666 
L 3309 4134 
L 1259 4134 
L 1259 2759 
L 3109 2759 
L 3109 2228 
L 1259 2228 
L 1259 0 
L 628 0 
L 628 4666 
z
" transform="scale(0.015625)"/>
      <path id="DejaVuSans-71" d="M 947 1747 
Q 947 1113 1208 752 
Q 1469 391 1925 391 
Q 2381 391 2643 752 
Q 2906 1113 2906 1747 
Q 2906 2381 2643 2742 
Q 2381 3103 1925 3103 
Q 1469 3103 1208 2742 
Q 947 2381 947 1747 
z
M 2906 525 
Q 2725 213 2448 61 
Q 2172 -91 1784 -91 
Q 1150 -91 751 415 
Q 353 922 353 1747 
Q 353 2572 751 3078 
Q 1150 3584 1784 3584 
Q 2172 3584 2448 3432 
Q 2725 3281 2906 2969 
L 2906 3500 
L 3481 3500 
L 3481 -1331 
L 2906 -1331 
L 2906 525 
z
" transform="scale(0.015625)"/>
      <path id="DejaVuSans-6e" d="M 3513 2113 
L 3513 0 
L 2938 0 
L 2938 2094 
Q 2938 2591 2744 2837 
Q 2550 3084 2163 3084 
Q 1697 3084 1428 2787 
Q 1159 2491 1159 1978 
L 1159 0 
L 581 0 
L 581 3500 
L 1159 3500 
L 1159 2956 
Q 1366 3272 1645 3428 
Q 1925 3584 2291 3584 
Q 2894 3584 3203 3211 
Q 3513 2838 3513 2113 
z
" transform="scale(0.015625)"/>
      <path id="DejaVuSans-79" d="M 2059 -325 
Q 1816 -950 1584 -1140 
Q 1353 -1331 966 -1331 
L 506 -1331 
L 506 -850 
L 844 -850 
Q 1081 -850 1212 -737 
Q 1344 -625 1503 -206 
L 1606 56 
L 191 3500 
L 800 3500 
L 1894 763 
L 2988 3500 
L 3597 3500 
L 2059 -325 
z
" transform="scale(0.015625)"/>
     </defs>
     <use xlink:href="#DejaVuSans-53"/>
     <use xlink:href="#DejaVuSans-65" x="63.476562"/>
     <use xlink:href="#DejaVuSans-63" x="125"/>
     <use xlink:href="#DejaVuSans-75" x="179.980469"/>
     <use xlink:href="#DejaVuSans-6c" x="243.359375"/>
     <use xlink:href="#DejaVuSans-61" x="271.142578"/>
     <use xlink:href="#DejaVuSans-72" x="332.421875"/>
     <use xlink:href="#DejaVuSans-20" x="373.535156"/>
     <use xlink:href="#DejaVuSans-46" x="405.322266"/>
     <use xlink:href="#DejaVuSans-72" x="455.591797"/>
     <use xlink:href="#DejaVuSans-65" x="494.455078"/>
     <use xlink:href="#DejaVuSans-71" x="555.978516"/>
     <use xlink:href="#DejaVuSans-75" x="619.455078"/>
     <use xlink:href="#DejaVuSans-65" x="682.833984"/>
     <use xlink:href="#DejaVuSans-6e" x="744.357422"/>
     <use xlink:href="#DejaVuSans-63" x="807.736328"/>
     <use xlink:href="#DejaVuSans-79" x="862.716797"/>
    </g>
   </g>
   <g id="legend_1">
    <g id="patch_7">
     <path d="M 84.954688 106.14875 
L 207.126563 106.14875 
Q 211.126563 106.14875 211.126563 102.14875 
L 211.126563 45.43625 
Q 211.126563 41.43625 207.126563 41.43625 
L 84.954688 41.43625 
Q 80.954688 41.43625 80.954688 45.43625 
L 80.954688 102.14875 
Q 80.954688 106.14875 84.954688 106.14875 
z
" style="fill: #ffffff; opacity: 0.8; stroke: #cccccc; stroke-linejoin: miter"/>
    </g>
    <g id="line2d_23">
     <path d="M 88.954688 57.633125 
L 108.954688 57.633125 
L 128.954688 57.633125 
" style="fill: none; stroke: #1f77b4; stroke-width: 1.5; stroke-linecap: square"/>
    </g>
    <g id="text_14">
     <!-- minor -->
     <g transform="translate(144.954688 64.633125)scale(0.2 -0.2)">
      <defs>
       <path id="DejaVuSans-6d" d="M 3328 2828 
Q 3544 3216 3844 3400 
Q 4144 3584 4550 3584 
Q 5097 3584 5394 3201 
Q 5691 2819 5691 2113 
L 5691 0 
L 5113 0 
L 5113 2094 
Q 5113 2597 4934 2840 
Q 4756 3084 4391 3084 
Q 3944 3084 3684 2787 
Q 3425 2491 3425 1978 
L 3425 0 
L 2847 0 
L 2847 2094 
Q 2847 2600 2669 2842 
Q 2491 3084 2119 3084 
Q 1678 3084 1418 2786 
Q 1159 2488 1159 1978 
L 1159 0 
L 581 0 
L 581 3500 
L 1159 3500 
L 1159 2956 
Q 1356 3278 1631 3431 
Q 1906 3584 2284 3584 
Q 2666 3584 2933 3390 
Q 3200 3197 3328 2828 
z
" transform="scale(0.015625)"/>
       <path id="DejaVuSans-69" d="M 603 3500 
L 1178 3500 
L 1178 0 
L 603 0 
L 603 3500 
z
M 603 4863 
L 1178 4863 
L 1178 4134 
L 603 4134 
L 603 4863 
z
" transform="scale(0.015625)"/>
       <path id="DejaVuSans-6f" d="M 1959 3097 
Q 1497 3097 1228 2736 
Q 959 2375 959 1747 
Q 959 1119 1226 758 
Q 1494 397 1959 397 
Q 2419 397 2687 759 
Q 2956 1122 2956 1747 
Q 2956 2369 2687 2733 
Q 2419 3097 1959 3097 
z
M 1959 3584 
Q 2709 3584 3137 3096 
Q 3566 2609 3566 1747 
Q 3566 888 3137 398 
Q 2709 -91 1959 -91 
Q 1206 -91 779 398 
Q 353 888 353 1747 
Q 353 2609 779 3096 
Q 1206 3584 1959 3584 
z
" transform="scale(0.015625)"/>
      </defs>
      <use xlink:href="#DejaVuSans-6d"/>
      <use xlink:href="#DejaVuSans-69" x="97.412109"/>
      <use xlink:href="#DejaVuSans-6e" x="125.195312"/>
      <use xlink:href="#DejaVuSans-6f" x="188.574219"/>
      <use xlink:href="#DejaVuSans-72" x="249.755859"/>
     </g>
    </g>
    <g id="line2d_24">
     <path d="M 88.954688 86.989375 
L 108.954688 86.989375 
L 128.954688 86.989375 
" style="fill: none; stroke: #ff7f0e; stroke-width: 1.5; stroke-linecap: square"/>
    </g>
    <g id="text_15">
     <!-- major -->
     <g transform="translate(144.954688 93.989375)scale(0.2 -0.2)">
      <defs>
       <path id="DejaVuSans-6a" d="M 603 3500 
L 1178 3500 
L 1178 -63 
Q 1178 -731 923 -1031 
Q 669 -1331 103 -1331 
L -116 -1331 
L -116 -844 
L 38 -844 
Q 366 -844 484 -692 
Q 603 -541 603 -63 
L 603 3500 
z
M 603 4863 
L 1178 4863 
L 1178 4134 
L 603 4134 
L 603 4863 
z
" transform="scale(0.015625)"/>
      </defs>
      <use xlink:href="#DejaVuSans-6d"/>
      <use xlink:href="#DejaVuSans-61" x="97.412109"/>
      <use xlink:href="#DejaVuSans-6a" x="158.691406"/>
      <use xlink:href="#DejaVuSans-6f" x="186.474609"/>
      <use xlink:href="#DejaVuSans-72" x="247.65625"/>
     </g>
    </g>
   </g>
  </g>
 </g>
 <defs>
  <clipPath id="p17a5bf9d1e">
   <rect x="70.954688" y="31.43625" width="357.12" height="266.112"/>
  </clipPath>
 </defs>
</svg>
