<?xml version="1.0" encoding="utf-8" standalone="no"?>
<!DOCTYPE svg PUBLIC "-//W3C//DTD SVG 1.1//EN"
  "http://www.w3.org/Graphics/SVG/1.1/DTD/svg11.dtd">
<svg xmlns:xlink="http://www.w3.org/1999/xlink" width="435.274687pt" height="349.665437pt" viewBox="0 0 435.274687 349.665437" xmlns="http://www.w3.org/2000/svg" version="1.1">
 <defs>
  <style type="text/css">*{stroke-linejoin: round; stroke-linecap: butt}</style>
 </defs>
 <g id="figure_1">
  <g id="patch_1">
   <path d="M 0 349.665437 
L 435.274687 349.665437 
L 435.274687 0 
L 0 0 
L 0 349.665437 
z
" style="fill: none"/>
  </g>
  <g id="axes_1">
   <g id="patch_2">
    <path d="M 70.954688 297.54825 
L 428.074687 297.54825 
L 428.074687 31.43625 
L 70.954688 31.43625 
L 70.954688 297.54825 
z
" style="fill: none"/>
   </g>
   <g id="matplotlib.axis_1">
    <g id="xtick_1">
     <g id="line2d_1">
      <path d="M 102.884997 297.54825 
L 102.884997 31.43625 
" clip-path="url(#p17a5bf9d1e)" style="fill: none; stroke: #b0b0b0; stroke-width: 0.8; stroke-linecap: square"/>
     </g>
     <g id="line2d_2">
      <defs>
       <path id="md39032bed2" d="M 0 0 
L 0 3.5 
" style="stroke: #000000; stroke-width: 0.8"/>
      </defs>
      <g>
       <use xlink:href="#md39032bed2" x="102.884997" y="297.54825" style="stroke: #000000; stroke-width: 0.8"/>
      </g>
     </g>
     <g id="text_1">
      <!-- −3000 -->
      <g transform="translate(77.512732 315.945906)scale(0.15 -0.15)">
       <defs>
        <path id="DejaVuSans-2212" d="M 678 2272 
L 4684 2272 
L 4684 1741 
L 678 1741 
L 678 2272 
z
" transform="scale(0.015625)"/>
        <path id="DejaVuSans-33" d="M 2597 2516 
Q 3050 2419 3304 2112 
Q 3559 1806 3559 1356 
Q 3559 666 3084 287 
Q 2609 -91 1734 -91 
Q 1441 -91 1130 -33 
Q 819 25 488 141 
L 488 750 
Q 750 597 1062 519 
Q 1375 441 1716 441 
Q 2309 441 2620 675 
Q 2931 909 2931 1356 
Q 2931 1769 2642 2001 
Q 2353 2234 1838 2234 
L 1294 2234 
L 1294 2753 
L 1863 2753 
Q 2328 2753 2575 2939 
Q 2822 3125 2822 3475 
Q 2822 3834 2567 4026 
Q 2313 4219 1838 4219 
Q 1578 4219 1281 4162 
Q 984 4106 628 3988 
L 628 4550 
Q 988 4650 1302 4700 
Q 1616 4750 1894 4750 
Q 2613 4750 3031 4423 
Q 3450 4097 3450 3541 
Q 3450 3153 3228 2886 
Q 3006 2619 2597 2516 
z
" transform="scale(0.015625)"/>
        <path id="DejaVuSans-30" d="M 2034 4250 
Q 1547 4250 1301 3770 
Q 1056 3291 1056 2328 
Q 1056 1369 1301 889 
Q 1547 409 2034 409 
Q 2525 409 2770 889 
Q 3016 1369 3016 2328 
Q 3016 3291 2770 3770 
Q 2525 4250 2034 4250 
z
M 2034 4750 
Q 2819 4750 3233 4129 
Q 3647 3509 3647 2328 
Q 3647 1150 3233 529 
Q 2819 -91 2034 -91 
Q 1250 -91 836 529 
Q 422 1150 422 2328 
Q 422 3509 836 4129 
Q 1250 4750 2034 4750 
z
" transform="scale(0.015625)"/>
       </defs>
       <use xlink:href="#DejaVuSans-2212"/>
       <use xlink:href="#DejaVuSans-33" x="83.789062"/>
       <use xlink:href="#DejaVuSans-30" x="147.412109"/>
       <use xlink:href="#DejaVuSans-30" x="211.035156"/>
       <use xlink:href="#DejaVuSans-30" x="274.658203"/>
      </g>
     </g>
    </g>
    <g id="xtick_2">
     <g id="line2d_3">
      <path d="M 174.237645 297.54825 
L 174.237645 31.43625 
" clip-path="url(#p17a5bf9d1e)" style="fill: none; stroke: #b0b0b0; stroke-width: 0.8; stroke-linecap: square"/>
     </g>
     <g id="line2d_4">
      <g>
       <use xlink:href="#md39032bed2" x="174.237645" y="297.54825" style="stroke: #000000; stroke-width: 0.8"/>
      </g>
     </g>
     <g id="text_2">
      <!-- −2000 -->
      <g transform="translate(148.865379 315.945906)scale(0.15 -0.15)">
       <defs>
        <path id="DejaVuSans-32" d="M 1228 531 
L 3431 531 
L 3431 0 
L 469 0 
L 469 531 
Q 828 903 1448 1529 
Q 2069 2156 2228 2338 
Q 2531 2678 2651 2914 
Q 2772 3150 2772 3378 
Q 2772 3750 2511 3984 
Q 2250 4219 1831 4219 
Q 1534 4219 1204 4116 
Q 875 4013 500 3803 
L 500 4441 
Q 881 4594 1212 4672 
Q 1544 4750 1819 4750 
Q 2544 4750 2975 4387 
Q 3406 4025 3406 3419 
Q 3406 3131 3298 2873 
Q 3191 2616 2906 2266 
Q 2828 2175 2409 1742 
Q 1991 1309 1228 531 
z
" transform="scale(0.015625)"/>
       </defs>
       <use xlink:href="#DejaVuSans-2212"/>
       <use xlink:href="#DejaVuSans-32" x="83.789062"/>
       <use xlink:href="#DejaVuSans-30" x="147.412109"/>
       <use xlink:href="#DejaVuSans-30" x="211.035156"/>
       <use xlink:href="#DejaVuSans-30" x="274.658203"/>
      </g>
     </g>
    </g>
    <g id="xtick_3">
     <g id="line2d_5">
      <path d="M 245.590292 297.54825 
L 245.590292 31.43625 
" clip-path="url(#p17a5bf9d1e)" style="fill: none; stroke: #b0b0b0; stroke-width: 0.8; stroke-linecap: square"/>
     </g>
     <g id="line2d_6">
      <g>
       <use xlink:href="#md39032bed2" x="245.590292" y="297.54825" style="stroke: #000000; stroke-width: 0.8"/>
      </g>
     </g>
     <g id="text_3">
      <!-- −1000 -->
      <g transform="translate(220.218026 315.945906)scale(0.15 -0.15)">
       <defs>
        <path id="DejaVuSans-31" d="M 794 531 
L 1825 531 
L 1825 4091 
L 703 3866 
L 703 4441 
L 1819 4666 
L 2450 4666 
L 2450 531 
L 3481 531 
L 3481 0 
L 794 0 
L 794 531 
z
" transform="scale(0.015625)"/>
       </defs>
       <use xlink:href="#DejaVuSans-2212"/>
       <use xlink:href="#DejaVuSans-31" x="83.789062"/>
       <use xlink:href="#DejaVuSans-30" x="147.412109"/>
       <use xlink:href="#DejaVuSans-30" x="211.035156"/>
       <use xlink:href="#DejaVuSans-30" x="274.658203"/>
      </g>
     </g>
    </g>
    <g id="xtick_4">
     <g id="line2d_7">
      <path d="M 316.942939 297.54825 
L 316.942939 31.43625 
" clip-path="url(#p17a5bf9d1e)" style="fill: none; stroke: #b0b0b0; stroke-width: 0.8; stroke-linecap: square"/>
     </g>
     <g id="line2d_8">
      <g>
       <use xlink:href="#md39032bed2" x="316.942939" y="297.54825" style="stroke: #000000; stroke-width: 0.8"/>
      </g>
     </g>
     <g id="text_4">
      <!-- 0 -->
      <g transform="translate(312.171064 315.945906)scale(0.15 -0.15)">
       <use xlink:href="#DejaVuSans-30"/>
      </g>
     </g>
    </g>
    <g id="xtick_5">
     <g id="line2d_9">
      <path d="M 388.295587 297.54825 
L 388.295587 31.43625 
" clip-path="url(#p17a5bf9d1e)" style="fill: none; stroke: #b0b0b0; stroke-width: 0.8; stroke-linecap: square"/>
     </g>
     <g id="line2d_10">
      <g>
       <use xlink:href="#md39032bed2" x="388.295587" y="297.54825" style="stroke: #000000; stroke-width: 0.8"/>
      </g>
     </g>
     <g id="text_5">
      <!-- 1000 -->
      <g transform="translate(369.208087 315.945906)scale(0.15 -0.15)">
       <use xlink:href="#DejaVuSans-31"/>
       <use xlink:href="#DejaVuSans-30" x="63.623047"/>
       <use xlink:href="#DejaVuSans-30" x="127.246094"/>
       <use xlink:href="#DejaVuSans-30" x="190.869141"/>
      </g>
     </g>
    </g>
    <g id="text_6">
     <!-- X ($\mu m$) -->
     <g transform="translate(215.514688 338.265437)scale(0.2 -0.2)">
      <defs>
       <path id="DejaVuSans-58" d="M 403 4666 
L 1081 4666 
L 2241 2931 
L 3406 4666 
L 4084 4666 
L 2584 2425 
L 4184 0 
L 3506 0 
L 2194 1984 
L 872 0 
L 191 0 
L 1856 2491 
L 403 4666 
z
" transform="scale(0.015625)"/>
       <path id="DejaVuSans-20" transform="scale(0.015625)"/>
       <path id="DejaVuSans-28" d="M 1984 4856 
Q 1566 4138 1362 3434 
Q 1159 2731 1159 2009 
Q 1159 1288 1364 580 
Q 1569 -128 1984 -844 
L 1484 -844 
Q 1016 -109 783 600 
Q 550 1309 550 2009 
Q 550 2706 781 3412 
Q 1013 4119 1484 4856 
L 1984 4856 
z
" transform="scale(0.015625)"/>
       <path id="DejaVuSans-Oblique-3bc" d="M -84 -1331 
L 856 3500 
L 1434 3500 
L 1009 1322 
Q 997 1256 987 1175 
Q 978 1094 978 1013 
Q 978 722 1161 565 
Q 1344 409 1684 409 
Q 2147 409 2431 671 
Q 2716 934 2816 1459 
L 3213 3500 
L 3788 3500 
L 3266 809 
Q 3253 750 3248 706 
Q 3244 663 3244 628 
Q 3244 531 3283 486 
Q 3322 441 3406 441 
Q 3438 441 3492 456 
Q 3547 472 3647 513 
L 3559 50 
Q 3422 -19 3297 -55 
Q 3172 -91 3053 -91 
Q 2847 -91 2730 40 
Q 2613 172 2613 403 
Q 2438 153 2195 31 
Q 1953 -91 1625 -91 
Q 1334 -91 1117 43 
Q 900 178 831 397 
L 494 -1331 
L -84 -1331 
z
" transform="scale(0.015625)"/>
       <path id="DejaVuSans-Oblique-6d" d="M 5747 2113 
L 5338 0 
L 4763 0 
L 5166 2094 
Q 5191 2228 5203 2325 
Q 5216 2422 5216 2491 
Q 5216 2772 5059 2928 
Q 4903 3084 4622 3084 
Q 4203 3084 3875 2770 
Q 3547 2456 3450 1953 
L 3066 0 
L 2491 0 
L 2900 2094 
Q 2925 2209 2937 2307 
Q 2950 2406 2950 2484 
Q 2950 2769 2794 2926 
Q 2638 3084 2363 3084 
Q 1938 3084 1609 2770 
Q 1281 2456 1184 1953 
L 800 0 
L 225 0 
L 909 3500 
L 1484 3500 
L 1375 2956 
Q 1609 3263 1923 3423 
Q 2238 3584 2597 3584 
Q 2978 3584 3223 3384 
Q 3469 3184 3519 2828 
Q 3781 3197 4126 3390 
Q 4472 3584 4856 3584 
Q 5306 3584 5551 3325 
Q 5797 3066 5797 2591 
Q 5797 2488 5784 2364 
Q 5772 2241 5747 2113 
z
" transform="scale(0.015625)"/>
       <path id="DejaVuSans-29" d="M 513 4856 
L 1013 4856 
Q 1481 4119 1714 3412 
Q 1947 2706 1947 2009 
Q 1947 1309 1714 600 
Q 1481 -109 1013 -844 
L 513 -844 
Q 928 -128 1133 580 
Q 1338 1288 1338 2009 
Q 1338 2731 1133 3434 
Q 928 4138 513 4856 
z
" transform="scale(0.015625)"/>
      </defs>
      <use xlink:href="#DejaVuSans-58" transform="translate(0 0.125)"/>
      <use xlink:href="#DejaVuSans-20" transform="translate(68.505859 0.125)"/>
      <use xlink:href="#DejaVuSans-28" transform="translate(100.292969 0.125)"/>
      <use xlink:href="#DejaVuSans-Oblique-3bc" transform="translate(139.306641 0.125)"/>
      <use xlink:href="#DejaVuSans-Oblique-6d" transform="translate(202.929688 0.125)"/>
      <use xlink:href="#DejaVuSans-29" transform="translate(300.341797 0.125)"/>
     </g>
    </g>
   </g>
   <g id="matplotlib.axis_2">
    <g id="ytick_1">
     <g id="line2d_11">
      <path d="M 70.954688 297.54825 
L 428.074687 297.54825 
" clip-path="url(#p17a5bf9d1e)" style="fill: none; stroke: #b0b0b0; stroke-width: 0.8; stroke-linecap: square"/>
     </g>
     <g id="line2d_12">
      <defs>
       <path id="m6f3f5b6aff" d="M 0 0 
L -3.5 0 
" style="stroke: #000000; stroke-width: 0.8"/>
      </defs>
      <g>
       <use xlink:href="#m6f3f5b6aff" x="70.954688" y="297.54825" style="stroke: #000000; stroke-width: 0.8"/>
      </g>
     </g>
     <g id="text_7">
      <!-- 9.8 -->
      <g transform="translate(40.1 303.247078)scale(0.15 -0.15)">
       <defs>
        <path id="DejaVuSans-39" d="M 703 97 
L 703 672 
Q 941 559 1184 500 
Q 1428 441 1663 441 
Q 2288 441 2617 861 
Q 2947 1281 2994 2138 
Q 2813 1869 2534 1725 
Q 2256 1581 1919 1581 
Q 1219 1581 811 2004 
Q 403 2428 403 3163 
Q 403 3881 828 4315 
Q 1253 4750 1959 4750 
Q 2769 4750 3195 4129 
Q 3622 3509 3622 2328 
Q 3622 1225 3098 567 
Q 2575 -91 1691 -91 
Q 1453 -91 1209 -44 
Q 966 3 703 97 
z
M 1959 2075 
Q 2384 2075 2632 2365 
Q 2881 2656 2881 3163 
Q 2881 3666 2632 3958 
Q 2384 4250 1959 4250 
Q 1534 4250 1286 3958 
Q 1038 3666 1038 3163 
Q 1038 2656 1286 2365 
Q 1534 2075 1959 2075 
z
" transform="scale(0.015625)"/>
        <path id="DejaVuSans-2e" d="M 684 794 
L 1344 794 
L 1344 0 
L 684 0 
L 684 794 
z
" transform="scale(0.015625)"/>
        <path id="DejaVuSans-38" d="M 2034 2216 
Q 1584 2216 1326 1975 
Q 1069 1734 1069 1313 
Q 1069 891 1326 650 
Q 1584 409 2034 409 
Q 2484 409 2743 651 
Q 3003 894 3003 1313 
Q 3003 1734 2745 1975 
Q 2488 2216 2034 2216 
z
M 1403 2484 
Q 997 2584 770 2862 
Q 544 3141 544 3541 
Q 544 4100 942 4425 
Q 1341 4750 2034 4750 
Q 2731 4750 3128 4425 
Q 3525 4100 3525 3541 
Q 3525 3141 3298 2862 
Q 3072 2584 2669 2484 
Q 3125 2378 3379 2068 
Q 3634 1759 3634 1313 
Q 3634 634 3220 271 
Q 2806 -91 2034 -91 
Q 1263 -91 848 271 
Q 434 634 434 1313 
Q 434 1759 690 2068 
Q 947 2378 1403 2484 
z
M 1172 3481 
Q 1172 3119 1398 2916 
Q 1625 2713 2034 2713 
Q 2441 2713 2670 2916 
Q 2900 3119 2900 3481 
Q 2900 3844 2670 4047 
Q 2441 4250 2034 4250 
Q 1625 4250 1398 4047 
Q 1172 3844 1172 3481 
z
" transform="scale(0.015625)"/>
       </defs>
       <use xlink:href="#DejaVuSans-39"/>
       <use xlink:href="#DejaVuSans-2e" x="63.623047"/>
       <use xlink:href="#DejaVuSans-38" x="95.410156"/>
      </g>
     </g>
    </g>
    <g id="ytick_2">
     <g id="line2d_13">
      <path d="M 70.954688 238.41225 
L 428.074687 238.41225 
" clip-path="url(#p17a5bf9d1e)" style="fill: none; stroke: #b0b0b0; stroke-width: 0.8; stroke-linecap: square"/>
     </g>
     <g id="line2d_14">
      <g>
       <use xlink:href="#m6f3f5b6aff" x="70.954688" y="238.41225" style="stroke: #000000; stroke-width: 0.8"/>
      </g>
     </g>
     <g id="text_8">
      <!-- 10.0 -->
      <g transform="translate(30.55625 244.111078)scale(0.15 -0.15)">
       <use xlink:href="#DejaVuSans-31"/>
       <use xlink:href="#DejaVuSans-30" x="63.623047"/>
       <use xlink:href="#DejaVuSans-2e" x="127.246094"/>
       <use xlink:href="#DejaVuSans-30" x="159.033203"/>
      </g>
     </g>
    </g>
    <g id="ytick_3">
     <g id="line2d_15">
      <path d="M 70.954688 179.27625 
L 428.074687 179.27625 
" clip-path="url(#p17a5bf9d1e)" style="fill: none; stroke: #b0b0b0; stroke-width: 0.8; stroke-linecap: square"/>
     </g>
     <g id="line2d_16">
      <g>
       <use xlink:href="#m6f3f5b6aff" x="70.954688" y="179.27625" style="stroke: #000000; stroke-width: 0.8"/>
      </g>
     </g>
     <g id="text_9">
      <!-- 10.2 -->
      <g transform="translate(30.55625 184.975078)scale(0.15 -0.15)">
       <use xlink:href="#DejaVuSans-31"/>
       <use xlink:href="#DejaVuSans-30" x="63.623047"/>
       <use xlink:href="#DejaVuSans-2e" x="127.246094"/>
       <use xlink:href="#DejaVuSans-32" x="159.033203"/>
      </g>
     </g>
    </g>
    <g id="ytick_4">
     <g id="line2d_17">
      <path d="M 70.954688 120.14025 
L 428.074687 120.14025 
" clip-path="url(#p17a5bf9d1e)" style="fill: none; stroke: #b0b0b0; stroke-width: 0.8; stroke-linecap: square"/>
     </g>
     <g id="line2d_18">
      <g>
       <use xlink:href="#m6f3f5b6aff" x="70.954688" y="120.14025" style="stroke: #000000; stroke-width: 0.8"/>
      </g>
     </g>
     <g id="text_10">
      <!-- 10.4 -->
      <g transform="translate(30.55625 125.839078)scale(0.15 -0.15)">
       <defs>
        <path id="DejaVuSans-34" d="M 2419 4116 
L 825 1625 
L 2419 1625 
L 2419 4116 
z
M 2253 4666 
L 3047 4666 
L 3047 1625 
L 3713 1625 
L 3713 1100 
L 3047 1100 
L 3047 0 
L 2419 0 
L 2419 1100 
L 313 1100 
L 313 1709 
L 2253 4666 
z
" transform="scale(0.015625)"/>
       </defs>
       <use xlink:href="#DejaVuSans-31"/>
       <use xlink:href="#DejaVuSans-30" x="63.623047"/>
       <use xlink:href="#DejaVuSans-2e" x="127.246094"/>
       <use xlink:href="#DejaVuSans-34" x="159.033203"/>
      </g>
     </g>
    </g>
    <g id="ytick_5">
     <g id="line2d_19">
      <path d="M 70.954688 61.00425 
L 428.074687 61.00425 
" clip-path="url(#p17a5bf9d1e)" style="fill: none; stroke: #b0b0b0; stroke-width: 0.8; stroke-linecap: square"/>
     </g>
     <g id="line2d_20">
      <g>
       <use xlink:href="#m6f3f5b6aff" x="70.954688" y="61.00425" style="stroke: #000000; stroke-width: 0.8"/>
      </g>
     </g>
     <g id="text_11">
      <!-- 10.6 -->
      <g transform="translate(30.55625 66.703078)scale(0.15 -0.15)">
       <defs>
        <path id="DejaVuSans-36" d="M 2113 2584 
Q 1688 2584 1439 2293 
Q 1191 2003 1191 1497 
Q 1191 994 1439 701 
Q 1688 409 2113 409 
Q 2538 409 2786 701 
Q 3034 994 3034 1497 
Q 3034 2003 2786 2293 
Q 2538 2584 2113 2584 
z
M 3366 4563 
L 3366 3988 
Q 3128 4100 2886 4159 
Q 2644 4219 2406 4219 
Q 1781 4219 1451 3797 
Q 1122 3375 1075 2522 
Q 1259 2794 1537 2939 
Q 1816 3084 2150 3084 
Q 2853 3084 3261 2657 
Q 3669 2231 3669 1497 
Q 3669 778 3244 343 
Q 2819 -91 2113 -91 
Q 1303 -91 875 529 
Q 447 1150 447 2328 
Q 447 3434 972 4092 
Q 1497 4750 2381 4750 
Q 2619 4750 2861 4703 
Q 3103 4656 3366 4563 
z
" transform="scale(0.015625)"/>
       </defs>
       <use xlink:href="#DejaVuSans-31"/>
       <use xlink:href="#DejaVuSans-30" x="63.623047"/>
       <use xlink:href="#DejaVuSans-2e" x="127.246094"/>
       <use xlink:href="#DejaVuSans-36" x="159.033203"/>
      </g>
     </g>
    </g>
    <g id="text_12">
     <!-- $kHz/V$ -->
     <g transform="translate(22.396875 193.29225)rotate(-90)scale(0.2 -0.2)">
      <defs>
       <path id="DejaVuSans-Oblique-6b" d="M 1172 4863 
L 1747 4863 
L 1197 2028 
L 3169 3500 
L 3916 3500 
L 1716 1825 
L 3322 0 
L 2625 0 
L 1131 1709 
L 800 0 
L 225 0 
L 1172 4863 
z
" transform="scale(0.015625)"/>
       <path id="DejaVuSans-Oblique-48" d="M 1081 4666 
L 1716 4666 
L 1344 2753 
L 3634 2753 
L 4006 4666 
L 4641 4666 
L 3731 0 
L 3097 0 
L 3531 2222 
L 1241 2222 
L 806 0 
L 172 0 
L 1081 4666 
z
" transform="scale(0.015625)"/>
       <path id="DejaVuSans-Oblique-7a" d="M 744 3500 
L 3475 3500 
L 3372 2975 
L 738 459 
L 2913 459 
L 2822 0 
L -19 0 
L 84 525 
L 2719 3041 
L 653 3041 
L 744 3500 
z
" transform="scale(0.015625)"/>
       <path id="DejaVuSans-2f" d="M 1625 4666 
L 2156 4666 
L 531 -594 
L 0 -594 
L 1625 4666 
z
" transform="scale(0.015625)"/>
       <path id="DejaVuSans-Oblique-56" d="M 1319 0 
L 500 4666 
L 1119 4666 
L 1797 653 
L 4063 4666 
L 4750 4666 
L 2053 0 
L 1319 0 
z
" transform="scale(0.015625)"/>
      </defs>
      <use xlink:href="#DejaVuSans-Oblique-6b" transform="translate(0 0.015625)"/>
      <use xlink:href="#DejaVuSans-Oblique-48" transform="translate(57.910156 0.015625)"/>
      <use xlink:href="#DejaVuSans-Oblique-7a" transform="translate(133.105469 0.015625)"/>
      <use xlink:href="#DejaVuSans-2f" transform="translate(185.595703 0.015625)"/>
      <use xlink:href="#DejaVuSans-Oblique-56" transform="translate(219.287109 0.015625)"/>
     </g>
    </g>
   </g>
   <g id="line2d_21">
    <path d="M 87.187415 259.749566 
L 87.829589 258.876722 
L 88.186352 258.635651 
L 89.399347 257.611131 
L 90.184226 256.056326 
L 90.897752 253.8709 
L 91.825337 250.197899 
L 93.323742 242.730197 
L 94.179974 237.215051 
L 95.250264 230.119671 
L 95.821085 229.447228 
L 96.320554 228.739122 
L 96.891375 227.481472 
L 97.604901 225.319776 
L 99.17466 220.581706 
L 99.674128 219.929485 
L 100.030891 219.818583 
L 100.387655 219.995933 
L 100.887123 220.662601 
L 101.743355 222.341096 
L 102.456881 223.564712 
L 102.95635 224.051017 
L 103.384466 224.208993 
L 104.097992 224.140714 
L 104.454755 224.097455 
L 106.880745 237.204154 
L 108.022388 241.266277 
L 108.735914 243.048319 
L 109.306735 243.908357 
L 109.806204 244.15259 
L 110.23432 244.048956 
L 110.662436 243.691189 
L 112.303547 242.1422 
L 113.159778 242.178628 
L 114.372773 242.37556 
L 115.0863 241.896244 
L 115.728474 241.108444 
L 117.012821 239.564609 
L 117.440937 239.382677 
L 117.7977 239.335243 
L 118.225816 239.425836 
L 118.725285 239.592071 
L 119.510164 239.561481 
L 119.93828 239.289959 
L 120.580454 238.570507 
L 122.007507 236.733596 
L 122.578328 236.465902 
L 122.935091 236.428528 
L 123.363207 236.476496 
L 124.647555 236.310655 
L 125.218376 235.779247 
L 127.002192 233.553426 
L 127.573013 233.394655 
L 128.072482 233.486412 
L 129.285477 233.875563 
L 129.784945 233.790994 
L 130.569824 233.145645 
L 131.782819 231.877181 
L 132.282288 231.705318 
L 132.853109 231.815988 
L 134.636925 232.606639 
L 134.922336 232.557565 
L 135.421804 232.255734 
L 136.991563 231.133845 
L 137.705089 231.276328 
L 138.632674 231.972605 
L 139.274847 232.327637 
L 140.059726 232.239164 
L 140.773253 231.683111 
L 141.700837 230.868541 
L 142.128953 230.732032 
L 142.699774 230.783119 
L 143.341948 231.177592 
L 144.340885 231.794241 
L 145.339822 231.631913 
L 146.62417 230.731274 
L 147.551754 230.771797 
L 147.908518 230.969267 
L 149.549629 231.881702 
L 149.906392 231.805667 
L 150.334508 231.498774 
L 151.119387 230.651847 
L 151.761561 229.947379 
L 152.617792 229.430484 
L 154.116198 228.94351 
L 154.615667 228.380164 
L 155.186488 227.381905 
L 156.114072 225.343985 
L 156.756246 224.176661 
L 157.39842 223.505556 
L 157.755183 223.389309 
L 158.326004 223.443745 
L 159.396294 223.629378 
L 160.323878 223.166885 
L 161.893637 221.892466 
L 162.53581 221.966073 
L 163.106632 222.332124 
L 164.248274 223.169699 
L 164.67639 223.212909 
L 165.104506 223.069079 
L 165.675327 222.628392 
L 166.959675 221.659705 
L 167.459143 221.600248 
L 169.028901 222.600814 
L 169.671075 222.725389 
L 170.170544 222.550688 
L 171.098128 221.849575 
L 171.526244 221.534236 
L 172.525181 221.498871 
L 173.096002 221.909805 
L 174.094939 222.681596 
L 174.523055 222.814749 
L 175.236582 222.58703 
L 175.807403 222.118774 
L 176.663635 221.377786 
L 177.305808 221.213881 
L 177.87663 221.399017 
L 179.375035 222.119731 
L 179.874504 222.031063 
L 182.015083 220.360941 
L 182.514552 220.36763 
L 184.441073 221.487863 
L 184.869189 221.467028 
L 185.582715 221.000867 
L 186.367595 220.341977 
L 187.081121 219.968152 
L 187.651942 219.995922 
L 188.294116 220.288146 
L 188.650879 220.590858 
L 189.293053 220.584433 
L 189.721169 220.451471 
L 190.791459 219.652664 
L 191.504985 218.781692 
L 192.004454 218.575048 
L 192.289864 218.621834 
L 192.860686 218.885213 
L 193.716917 219.505018 
L 193.930975 219.628458 
L 194.216386 219.848981 
L 194.787207 219.823802 
L 195.215323 219.690056 
L 195.857497 219.155061 
L 196.856434 218.568747 
L 197.141844 218.552732 
L 197.355902 218.636484 
L 197.641313 218.741414 
L 198.497545 219.474367 
L 198.782955 219.713578 
L 199.496482 220.114431 
L 200.067303 219.896385 
L 200.638124 219.590649 
L 201.280298 219.124913 
L 201.851119 218.905468 
L 202.635998 219.114809 
L 203.135467 219.600928 
L 204.277109 220.43284 
L 204.491167 220.438129 
L 204.990636 220.380446 
L 206.417688 219.068918 
L 206.774452 218.726576 
L 206.98851 218.619885 
L 207.27392 218.643248 
L 207.630684 218.634142 
L 208.058799 218.780641 
L 208.201505 218.869767 
L 208.415563 218.877479 
L 209.557205 218.965091 
L 210.128026 218.580788 
L 211.126963 217.315233 
L 211.769137 216.822124 
L 212.268606 216.675867 
L 212.554016 216.86125 
L 212.839427 216.875242 
L 214.337832 217.756301 
L 214.837301 217.660568 
L 215.336769 217.171884 
L 215.693533 216.845865 
L 216.050296 216.515135 
L 216.549764 216.018417 
L 217.120586 215.722498 
L 217.405996 215.612683 
L 217.762759 215.754217 
L 218.833049 216.400691 
L 219.831986 216.234508 
L 220.402807 215.874685 
L 221.259039 214.963383 
L 221.615802 214.703028 
L 221.972566 214.614123 
L 222.472034 214.740047 
L 223.042855 215.166887 
L 224.398556 216.427069 
L 224.826672 216.501417 
L 225.32614 216.415212 
L 226.967251 215.687537 
L 227.609425 215.878204 
L 229.250536 216.978964 
L 229.535946 217.023883 
L 230.17812 216.729735 
L 231.034352 215.893386 
L 231.747878 215.326552 
L 232.104642 215.205178 
L 232.746815 215.316105 
L 233.6744 215.928656 
L 234.601984 216.208917 
L 235.101453 215.99205 
L 235.672274 215.570059 
L 236.599858 214.871443 
L 237.027974 214.7724 
L 238.098264 215.304116 
L 238.954496 215.99475 
L 239.525317 216.163393 
L 240.024785 216.046838 
L 240.595607 215.694333 
L 241.523191 215.100321 
L 242.02266 215.04557 
L 242.450775 215.225042 
L 243.092949 215.83632 
L 244.234592 217.088674 
L 244.805413 217.416785 
L 245.447587 217.517281 
L 246.161113 217.613291 
L 246.660582 217.883731 
L 247.16005 218.427353 
L 247.730871 219.363496 
L 249.157924 221.807821 
L 249.728745 222.190704 
L 250.156861 222.146185 
L 250.65633 221.836832 
L 251.940678 220.928084 
L 252.368793 220.814232 
L 253.010967 221.001909 
L 254.15261 221.223585 
L 254.937489 220.670325 
L 255.722368 219.553866 
L 256.721305 218.095063 
L 257.292126 217.662806 
L 257.791595 217.612134 
L 259.504058 217.969598 
L 260.288937 217.607317 
L 261.71599 216.69909 
L 262.215459 216.721362 
L 262.572222 216.893837 
L 264.356038 218.064488 
L 264.855507 217.948536 
L 265.497681 217.46138 
L 266.710676 216.303408 
L 267.566907 216.16825 
L 268.851255 216.871826 
L 269.850192 216.811642 
L 270.492366 216.324676 
L 271.562656 215.356288 
L 271.990771 215.222716 
L 272.775651 215.432775 
L 274.131351 216.171741 
L 274.630819 216.140806 
L 276.200578 214.649782 
L 276.842751 214.157746 
L 277.34222 214.055898 
L 277.627631 214.147373 
L 278.41251 214.61661 
L 279.054684 214.909809 
L 279.411447 214.989896 
L 279.839563 214.889955 
L 280.410384 214.558867 
L 281.766084 213.656277 
L 282.550963 213.806928 
L 284.263427 214.833162 
L 284.691543 214.786351 
L 285.191011 214.472488 
L 286.118596 213.514316 
L 286.760769 213.006793 
L 287.759706 213.058278 
L 289.115407 213.72863 
L 289.828933 213.655144 
L 290.328402 213.317407 
L 291.826807 212.112088 
L 292.397629 212.05406 
L 293.111155 212.381075 
L 293.967387 212.646996 
L 294.395503 212.565628 
L 294.894971 212.215517 
L 295.465792 211.532774 
L 296.464729 210.24658 
L 296.964198 209.893218 
L 297.606372 209.83755 
L 298.890719 210.476037 
L 299.318835 210.572509 
L 299.818304 210.416906 
L 300.460478 209.96878 
L 301.673473 209.003781 
L 302.315647 208.993935 
L 303.243231 209.63389 
L 303.814052 210.021031 
L 304.812989 209.977818 
L 305.455163 209.386596 
L 307.167627 207.639183 
L 307.667095 207.527965 
L 307.881153 207.564947 
L 308.380622 207.716956 
L 308.951443 207.803962 
L 309.308206 207.817736 
L 309.807675 207.559397 
L 310.521201 206.941807 
L 311.520138 206.033451 
L 311.876901 205.951213 
L 312.162312 205.925923 
L 312.590428 206.04874 
L 313.375307 206.61263 
L 313.874775 206.858057 
L 314.516949 206.80665 
L 315.016418 206.394299 
L 315.515886 205.699622 
L 317.22835 202.955971 
L 317.799171 202.400253 
L 319.297577 200.928247 
L 320.011103 199.742002 
L 321.438156 197.198284 
L 322.008977 196.678324 
L 322.437093 196.553925 
L 323.15062 196.717891 
L 323.792793 196.920454 
L 324.363615 196.829054 
L 324.720378 196.599693 
L 325.362552 195.875448 
L 326.718252 194.013275 
L 327.431778 193.597915 
L 327.931247 193.54815 
L 328.430715 193.569721 
L 329.3583 193.255232 
L 329.929121 192.636617 
L 330.714 191.469876 
L 331.570232 190.269058 
L 332.0697 189.948433 
L 332.85458 189.957869 
L 333.354048 190.127489 
L 333.924869 190.224126 
L 334.49569 190.017652 
L 335.066512 189.443121 
L 335.56598 188.713837 
L 336.63627 187.136368 
L 337.278444 186.62988 
L 337.777912 186.517488 
L 338.420086 186.480226 
L 339.419023 185.83079 
L 339.918492 185.043842 
L 340.560666 183.678934 
L 341.916366 180.671475 
L 342.55854 179.833598 
L 343.557477 179.120289 
L 343.91424 178.851945 
L 344.485061 178.21603 
L 345.198588 176.953268 
L 347.053756 173.539445 
L 347.624578 173.091632 
L 348.409457 172.774186 
L 348.980278 172.487502 
L 349.622452 171.775688 
L 350.550036 170.142195 
L 351.763031 167.925594 
L 352.333852 167.338555 
L 353.118731 166.933436 
L 353.832258 166.525466 
L 354.403079 165.896236 
L 354.9739 164.840705 
L 355.972837 162.48824 
L 356.829069 160.641085 
L 357.542596 159.690743 
L 359.326412 157.919776 
L 359.968586 156.693094 
L 361.181581 154.283084 
L 361.895107 153.715761 
L 362.323223 153.089339 
L 363.036749 151.95742 
L 364.39245 151.673215 
L 364.891918 151.145212 
L 365.534092 150.280581 
L 367.175203 147.895995 
L 367.960082 147.333047 
L 368.744961 146.758441 
L 369.24443 146.073183 
L 369.743898 145.075353 
L 370.528777 142.962555 
L 371.599067 140.068165 
L 372.098536 139.216267 
L 372.954767 137.597031 
L 374.167762 136.000771 
L 374.881289 134.583383 
L 376.165637 131.362134 
L 376.950516 129.695969 
L 379.019742 125.896036 
L 379.661916 123.723232 
L 380.732206 118.732497 
L 382.516022 110.085407 
L 384.228486 102.049124 
L 385.15607 96.19972 
L 386.297712 88.969029 
L 387.153944 83.822055 
L 390.578871 59.782319 
L 392.719451 43.003871 
L 394.360562 30.923432 
L 395.644909 19.524019 
L 397.357373 4.729463 
L 398.140497 -1 
L 398.140497 -1 
" clip-path="url(#p17a5bf9d1e)" style="fill: none; stroke: #1f77b4; stroke-width: 1.5; stroke-linecap: square"/>
   </g>
   <g id="line2d_22">
    <path d="M 87.187415 252.828305 
L 87.758236 251.5084 
L 91.040458 241.282098 
L 92.396158 236.905757 
L 93.680506 232.810483 
L 94.32268 231.295151 
L 94.893501 230.472406 
L 95.107559 230.143348 
L 96.249201 221.59129 
L 97.03408 217.189087 
L 97.604901 215.053427 
L 98.247075 213.602164 
L 98.889249 212.800503 
L 99.888186 211.94754 
L 99.959539 211.656666 
L 100.030891 211.825932 
L 100.887123 211.231604 
L 101.315239 211.205981 
L 101.672002 211.437298 
L 102.028765 211.960682 
L 102.528234 213.314205 
L 103.027702 215.398182 
L 103.812582 219.844684 
L 104.526108 224.093304 
L 104.882871 224.13927 
L 105.310987 224.476205 
L 105.810456 225.209161 
L 106.45263 226.617062 
L 108.022388 230.264322 
L 111.732725 237.032745 
L 112.232194 237.407523 
L 112.588957 237.411968 
L 112.803015 237.372779 
L 114.586831 236.19273 
L 115.157653 236.235474 
L 116.15659 236.767417 
L 116.727411 236.996804 
L 117.226879 236.935902 
L 117.869053 236.432291 
L 119.724222 234.505038 
L 120.22369 234.433348 
L 120.865864 234.635564 
L 121.436686 234.870242 
L 121.793449 234.900917 
L 122.221565 234.749424 
L 122.721033 234.32231 
L 124.79026 232.044505 
L 125.361081 232.042174 
L 126.003255 232.290746 
L 127.073545 232.445154 
L 127.644366 232.058289 
L 129.428182 230.147943 
L 130.070356 230.026597 
L 130.783882 230.317818 
L 131.426056 230.710042 
L 132.282288 230.778258 
L 132.710404 230.520028 
L 134.066104 229.128233 
L 135.065041 228.915104 
L 135.493157 229.130897 
L 136.991563 230.004535 
L 137.276973 229.956602 
L 137.847794 229.647634 
L 139.560258 228.353821 
L 140.059726 228.373789 
L 140.630548 228.683488 
L 141.914895 229.507862 
L 142.628422 229.318792 
L 143.341948 228.70935 
L 144.412238 227.886533 
L 145.26847 228.006324 
L 145.767938 228.330262 
L 146.481465 228.860723 
L 146.838228 229.026103 
L 147.194991 229.016487 
L 147.765812 228.708855 
L 148.407986 228.067358 
L 149.192865 227.285069 
L 150.12045 227.064738 
L 151.761561 227.533836 
L 152.189677 227.324211 
L 153.188614 226.079005 
L 154.330256 224.396726 
L 154.97243 223.927768 
L 155.543251 223.821407 
L 156.970304 223.687051 
L 157.612478 223.116371 
L 158.468709 221.875148 
L 159.182236 220.991402 
L 159.753057 220.604436 
L 160.323878 220.622531 
L 161.037405 220.987567 
L 161.822284 221.328796 
L 163.106632 220.60236 
L 164.176921 219.629414 
L 164.67639 219.47024 
L 165.175858 219.587754 
L 165.818032 220.018471 
L 166.674264 220.605288 
L 166.959675 220.648307 
L 167.245085 220.642231 
L 167.815906 220.341617 
L 169.457017 219.11264 
L 169.81378 219.114412 
L 170.313249 219.323605 
L 171.240833 220.056291 
L 171.740302 220.361604 
L 172.025712 220.402405 
L 172.596534 220.253577 
L 173.238707 219.74215 
L 173.952234 219.133129 
L 174.66576 218.854239 
L 175.093876 218.973468 
L 176.092813 219.6619 
L 176.734987 220.03326 
L 177.305808 220.052991 
L 179.51774 218.313858 
L 179.945856 218.339691 
L 180.802088 218.807472 
L 181.444262 219.253439 
L 181.801025 219.324754 
L 182.229141 219.329396 
L 182.799962 218.98815 
L 183.442136 218.353352 
L 184.08431 217.788784 
L 184.940542 217.640085 
L 185.511363 217.902794 
L 186.653005 218.612559 
L 187.295179 218.592349 
L 188.008705 218.066229 
L 189.364406 216.872538 
L 189.507111 216.921858 
L 190.149285 216.890132 
L 192.004454 217.862408 
L 193.074743 217.296607 
L 193.716917 216.650965 
L 193.930975 216.532955 
L 194.145033 216.313089 
L 194.644502 216.222166 
L 195.001265 216.297937 
L 195.14397 216.332251 
L 195.429381 216.568015 
L 196.000202 217.104491 
L 196.571023 217.468954 
L 197.070492 217.595299 
L 197.427255 217.573995 
L 197.926723 217.298287 
L 198.140781 217.148979 
L 198.854308 216.487694 
L 199.639187 216.334691 
L 200.210008 216.512656 
L 202.13653 217.816972 
L 202.635998 217.637993 
L 202.992761 217.29875 
L 204.277109 216.330059 
L 205.204693 216.364878 
L 205.632809 216.630397 
L 205.846867 216.78464 
L 205.989573 216.839222 
L 206.274983 217.093206 
L 206.703099 217.257701 
L 207.202568 217.198311 
L 207.630684 216.949491 
L 208.486915 216.10898 
L 208.843679 215.695462 
L 209.343147 215.319637 
L 210.270731 215.311264 
L 210.7702 215.651604 
L 210.984258 215.806598 
L 212.054548 216.090181 
L 212.411311 215.907491 
L 212.625369 215.774922 
L 213.053485 215.415311 
L 214.26648 214.194857 
L 214.837301 214.087186 
L 216.621117 214.983333 
L 217.405996 214.91641 
L 217.905465 214.471095 
L 218.190875 214.126285 
L 219.189812 213.243179 
L 220.188749 213.213281 
L 220.830923 213.672007 
L 221.615802 214.207027 
L 222.115271 214.302839 
L 222.686092 214.081906 
L 224.469908 212.904178 
L 224.755319 212.938813 
L 225.540198 213.430539 
L 226.753193 214.390117 
L 227.181309 214.437332 
L 227.75213 214.21812 
L 229.535946 213.036988 
L 229.892709 213.075502 
L 230.320825 213.275773 
L 231.747878 214.195093 
L 232.104642 214.231367 
L 232.318699 214.154605 
L 232.818168 213.838695 
L 233.246284 213.428079 
L 234.102516 212.708775 
L 234.816042 212.609049 
L 236.029037 213.386039 
L 236.528506 213.74373 
L 237.17068 213.83398 
L 237.527443 213.690983 
L 239.382612 212.45653 
L 239.810727 212.513973 
L 240.310196 212.824299 
L 241.737249 214.068646 
L 242.30807 214.216364 
L 242.593481 214.163398 
L 243.307007 213.797398 
L 243.877828 213.588335 
L 244.44865 213.615092 
L 244.948118 213.954458 
L 245.518939 214.653703 
L 246.945992 216.308113 
L 247.374108 216.453943 
L 247.944929 216.355938 
L 249.229277 215.962258 
L 249.728745 216.110586 
L 250.299567 216.585412 
L 251.583914 217.807101 
L 252.01203 217.927749 
L 252.297441 217.89106 
L 253.653141 216.692036 
L 254.43802 216.117964 
L 254.937489 216.041194 
L 255.436957 216.213046 
L 256.5786 216.740129 
L 257.078068 216.679174 
L 257.577537 216.348331 
L 258.21971 215.671202 
L 259.00459 214.872371 
L 259.575411 214.609858 
L 260.431643 214.908989 
L 260.859758 215.224031 
L 261.71599 215.728145 
L 262.001401 215.73982 
L 262.714927 215.40647 
L 263.07169 215.113674 
L 264.070628 214.268646 
L 264.641449 214.128653 
L 265.497681 214.494033 
L 266.56797 215.197134 
L 267.067439 215.197046 
L 267.495555 214.982953 
L 268.779902 213.672952 
L 269.422076 213.317667 
L 270.06425 213.327189 
L 271.776713 214.224056 
L 272.204829 214.148108 
L 272.561593 213.939895 
L 273.417824 213.073187 
L 274.345409 212.360138 
L 274.91623 212.326072 
L 275.701109 212.73362 
L 276.628693 213.215244 
L 277.056809 213.189452 
L 277.413573 212.999991 
L 277.770336 212.722922 
L 279.197389 211.416868 
L 279.76821 211.371205 
L 280.124973 211.476269 
L 280.624442 211.80077 
L 281.694731 212.472154 
L 282.622316 212.175488 
L 284.334779 210.779273 
L 284.762895 210.776975 
L 285.262364 210.958813 
L 286.832122 211.78099 
L 287.831059 211.191339 
L 288.330528 210.650033 
L 288.972701 210.043165 
L 289.900286 209.787476 
L 290.54246 210.086213 
L 291.327339 210.551595 
L 291.969513 210.623626 
L 292.611687 210.189668 
L 293.039802 209.746503 
L 293.967387 208.743318 
L 294.466855 208.44632 
L 294.894971 208.391192 
L 295.465792 208.600526 
L 296.607435 209.052313 
L 297.035551 209.005894 
L 298.177193 207.896668 
L 299.033425 207.000086 
L 299.818304 206.786056 
L 300.317772 206.972096 
L 300.817241 207.307353 
L 301.673473 207.720317 
L 302.244294 207.610351 
L 303.029173 206.935451 
L 304.099463 205.851574 
L 304.456226 205.715394 
L 304.812989 205.637297 
L 305.38381 205.800815 
L 306.311395 206.231365 
L 306.668158 206.286787 
L 307.238979 206.086992 
L 307.52439 205.83749 
L 308.237916 204.983294 
L 308.737385 204.372663 
L 309.593617 203.806948 
L 310.164438 203.843179 
L 310.877964 204.132116 
L 311.30608 204.34042 
L 311.876901 204.345981 
L 312.804486 203.573293 
L 314.374244 201.703909 
L 314.659655 201.513863 
L 315.159123 201.375139 
L 315.658592 201.396751 
L 316.300765 201.358914 
L 316.657529 201.218976 
L 317.22835 200.671592 
L 317.656466 200.050827 
L 319.297577 197.309159 
L 319.868398 196.846464 
L 320.510572 196.662211 
L 321.366803 196.583379 
L 321.794919 196.379943 
L 322.36574 195.809088 
L 324.50632 192.861032 
L 325.005788 192.692085 
L 325.505257 192.7327 
L 326.290136 192.839641 
L 326.646899 192.779144 
L 327.146368 192.443371 
L 327.645836 191.812493 
L 328.430715 190.584559 
L 329.286947 189.515442 
L 329.715063 189.263757 
L 330.285884 189.191991 
L 330.856705 189.274758 
L 331.427527 189.324186 
L 331.78429 189.20609 
L 332.283758 188.805218 
L 333.425401 187.098359 
L 333.853517 186.461569 
L 334.567043 185.783188 
L 335.137864 185.592696 
L 336.707623 185.453675 
L 337.207091 184.96295 
L 337.70656 184.199889 
L 338.705497 182.253303 
L 339.561728 181.020624 
L 340.13255 180.615347 
L 341.845013 179.756051 
L 342.415834 178.904327 
L 343.129361 177.418846 
L 344.056945 175.493733 
L 344.627766 174.703902 
L 345.127235 174.301551 
L 346.911051 173.230568 
L 347.41052 172.445548 
L 347.981341 171.331843 
L 349.194336 168.987104 
L 349.765157 168.362898 
L 350.264626 168.074652 
L 350.764094 167.925904 
L 351.334915 167.693282 
L 352.119794 166.892738 
L 352.976026 165.271388 
L 354.117669 162.941535 
L 354.759842 162.088479 
L 355.473369 161.614447 
L 356.400953 161.081276 
L 356.900422 160.505201 
L 357.471243 159.483634 
L 359.469117 155.317029 
L 360.039938 154.769764 
L 360.539407 154.538916 
L 360.967523 154.323493 
L 361.895107 152.611949 
L 362.465928 152.140982 
L 362.822691 152.003847 
L 362.965397 151.881284 
L 364.39245 149.301912 
L 364.891918 148.871166 
L 365.605445 148.516155 
L 366.318971 148.227297 
L 366.747087 147.840078 
L 367.246556 147.100479 
L 367.960082 145.58234 
L 369.387135 142.452315 
L 370.029309 141.631245 
L 371.527714 140.131202 
L 372.312594 138.488896 
L 372.740709 137.568553 
L 374.524526 132.957323 
L 375.309405 131.717174 
L 376.379694 130.132282 
L 377.164574 128.230227 
L 377.949453 125.533767 
L 379.875974 118.781235 
L 381.731143 113.055435 
L 382.516022 109.277882 
L 383.871722 101.417559 
L 385.227423 94.290397 
L 386.012302 90.089548 
L 387.368002 81.079443 
L 388.509645 73.736332 
L 390.364813 60.37038 
L 391.649161 50.96643 
L 392.505393 43.45817 
L 394.503267 22.345151 
L 396.287083 2.176184 
L 396.52446 -1 
L 396.52446 -1 
" clip-path="url(#p17a5bf9d1e)" style="fill: none; stroke: #ff7f0e; stroke-width: 1.5; stroke-linecap: square"/>
   </g>
   <g id="patch_3">
    <path d="M 70.954688 297.54825 
L 70.954688 31.43625 
" style="fill: none; stroke: #000000; stroke-width: 0.8; stroke-linejoin: miter; stroke-linecap: square"/>
   </g>
   <g id="patch_4">
    <path d="M 428.074687 297.54825 
L 428.074687 31.43625 
" style="fill: none; stroke: #000000; stroke-width: 0.8; stroke-linejoin: miter; stroke-linecap: square"/>
   </g>
   <g id="patch_5">
    <path d="M 70.954688 297.54825 
L 428.074687 297.54825 
" style="fill: none; stroke: #000000; stroke-width: 0.8; stroke-linejoin: miter; stroke-linecap: square"/>
   </g>
   <g id="patch_6">
    <path d="M 70.954688 31.43625 
L 428.074687 31.43625 
" style="fill: none; stroke: #000000; stroke-width: 0.8; stroke-linejoin: miter; stroke-linecap: square"/>
   </g>
   <g id="text_13">
    <!-- Secular Frequency -->
    <g transform="translate(138.884063 25.43625)scale(0.24 -0.24)">
     <defs>
      <path id="DejaVuSans-53" d="M 3425 4513 
L 3425 3897 
Q 3066 4069 2747 4153 
Q 2428 4238 2131 4238 
Q 1616 4238 1336 4038 
Q 1056 3838 1056 3469 
Q 1056 3159 1242 3001 
Q 1428 2844 1947 2747 
L 2328 2669 
Q 3034 2534 3370 2195 
Q 3706 1856 3706 1288 
Q 3706 609 3251 259 
Q 2797 -91 1919 -91 
Q 1588 -91 1214 -16 
Q 841 59 441 206 
L 441 856 
Q 825 641 1194 531 
Q 1563 422 1919 422 
Q 2459 422 2753 634 
Q 3047 847 3047 1241 
Q 3047 1584 2836 1778 
Q 2625 1972 2144 2069 
L 1759 2144 
Q 1053 2284 737 2584 
Q 422 2884 422 3419 
Q 422 4038 858 4394 
Q 1294 4750 2059 4750 
Q 2388 4750 2728 4690 
Q 3069 4631 3425 4513 
z
" transform="scale(0.015625)"/>
      <path id="DejaVuSans-65" d="M 3597 1894 
L 3597 1613 
L 953 1613 
Q 991 1019 1311 708 
Q 1631 397 2203 397 
Q 2534 397 2845 478 
Q 3156 559 3463 722 
L 3463 178 
Q 3153 47 2828 -22 
Q 2503 -91 2169 -91 
Q 1331 -91 842 396 
Q 353 884 353 1716 
Q 353 2575 817 3079 
Q 1281 3584 2069 3584 
Q 2775 3584 3186 3129 
Q 3597 2675 3597 1894 
z
M 3022 2063 
Q 3016 2534 2758 2815 
Q 2500 3097 2075 3097 
Q 1594 3097 1305 2825 
Q 1016 2553 972 2059 
L 3022 2063 
z
" transform="scale(0.015625)"/>
      <path id="DejaVuSans-63" d="M 3122 3366 
L 3122 2828 
Q 2878 2963 2633 3030 
Q 2388 3097 2138 3097 
Q 1578 3097 1268 2742 
Q 959 2388 959 1747 
Q 959 1106 1268 751 
Q 1578 397 2138 397 
Q 2388 397 2633 464 
Q 2878 531 3122 666 
L 3122 134 
Q 2881 22 2623 -34 
Q 2366 -91 2075 -91 
Q 1284 -91 818 406 
Q 353 903 353 1747 
Q 353 2603 823 3093 
Q 1294 3584 2113 3584 
Q 2378 3584 2631 3529 
Q 2884 3475 3122 3366 
z
" transform="scale(0.015625)"/>
      <path id="DejaVuSans-75" d="M 544 1381 
L 544 3500 
L 1119 3500 
L 1119 1403 
Q 1119 906 1312 657 
Q 1506 409 1894 409 
Q 2359 409 2629 706 
Q 2900 1003 2900 1516 
L 2900 3500 
L 3475 3500 
L 3475 0 
L 2900 0 
L 2900 538 
Q 2691 219 2414 64 
Q 2138 -91 1772 -91 
Q 1169 -91 856 284 
Q 544 659 544 1381 
z
M 1991 3584 
L 1991 3584 
z
" transform="scale(0.015625)"/>
      <path id="DejaVuSans-6c" d="M 603 4863 
L 1178 4863 
L 1178 0 
L 603 0 
L 603 4863 
z
" transform="scale(0.015625)"/>
      <path id="DejaVuSans-61" d="M 2194 1759 
Q 1497 1759 1228 1600 
Q 959 1441 959 1056 
Q 959 750 1161 570 
Q 1363 391 1709 391 
Q 2188 391 2477 730 
Q 2766 1069 2766 1631 
L 2766 1759 
L 2194 1759 
z
M 3341 1997 
L 3341 0 
L 2766 0 
L 2766 531 
Q 2569 213 2275 61 
Q 1981 -91 1556 -91 
Q 1019 -91 701 211 
Q 384 513 384 1019 
Q 384 1609 779 1909 
Q 1175 2209 1959 2209 
L 2766 2209 
L 2766 2266 
Q 2766 2663 2505 2880 
Q 2244 3097 1772 3097 
Q 1472 3097 1187 3025 
Q 903 2953 641 2809 
L 641 3341 
Q 956 3463 1253 3523 
Q 1550 3584 1831 3584 
Q 2591 3584 2966 3190 
Q 3341 2797 3341 1997 
z
" transform="scale(0.015625)"/>
      <path id="DejaVuSans-72" d="M 2631 2963 
Q 2534 3019 2420 3045 
Q 2306 3072 2169 3072 
Q 1681 3072 1420 2755 
Q 1159 2438 1159 1844 
L 1159 0 
L 581 0 
L 581 3500 
L 1159 3500 
L 1159 2956 
Q 1341 3275 1631 3429 
Q 1922 3584 2338 3584 
Q 2397 3584 2469 3576 
Q 2541 3569 2628 3553 
L 2631 2963 
z
" transform="scale(0.015625)"/>
      <path id="DejaVuSans-46" d="M 628 4666 
L 3309 4666 
L 3309 4134 
L 1259 4134 
L 1259 2759 
L 3109 2759 
L 3109 2228 
L 1259 2228 
L 1259 0 
L 628 0 
L 628 4666 
z
" transform="scale(0.015625)"/>
      <path id="DejaVuSans-71" d="M 947 1747 
Q 947 1113 1208 752 
Q 1469 391 1925 391 
Q 2381 391 2643 752 
Q 2906 1113 2906 1747 
Q 2906 2381 2643 2742 
Q 2381 3103 1925 3103 
Q 1469 3103 1208 2742 
Q 947 2381 947 1747 
z
M 2906 525 
Q 2725 213 2448 61 
Q 2172 -91 1784 -91 
Q 1150 -91 751 415 
Q 353 922 353 1747 
Q 353 2572 751 3078 
Q 1150 3584 1784 3584 
Q 2172 3584 2448 3432 
Q 2725 3281 2906 2969 
L 2906 3500 
L 3481 3500 
L 3481 -1331 
L 2906 -1331 
L 2906 525 
z
" transform="scale(0.015625)"/>
      <path id="DejaVuSans-6e" d="M 3513 2113 
L 3513 0 
L 2938 0 
L 2938 2094 
Q 2938 2591 2744 2837 
Q 2550 3084 2163 3084 
Q 1697 3084 1428 2787 
Q 1159 2491 1159 1978 
L 1159 0 
L 581 0 
L 581 3500 
L 1159 3500 
L 1159 2956 
Q 1366 3272 1645 3428 
Q 1925 3584 2291 3584 
Q 2894 3584 3203 3211 
Q 3513 2838 3513 2113 
z
" transform="scale(0.015625)"/>
      <path id="DejaVuSans-79" d="M 2059 -325 
Q 1816 -950 1584 -1140 
Q 1353 -1331 966 -1331 
L 506 -1331 
L 506 -850 
L 844 -850 
Q 1081 -850 1212 -737 
Q 1344 -625 1503 -206 
L 1606 56 
L 191 3500 
L 800 3500 
L 1894 763 
L 2988 3500 
L 3597 3500 
L 2059 -325 
z
" transform="scale(0.015625)"/>
     </defs>
     <use xlink:href="#DejaVuSans-53"/>
     <use xlink:href="#DejaVuSans-65" x="63.476562"/>
     <use xlink:href="#DejaVuSans-63" x="125"/>
     <use xlink:href="#DejaVuSans-75" x="179.980469"/>
     <use xlink:href="#DejaVuSans-6c" x="243.359375"/>
     <use xlink:href="#DejaVuSans-61" x="271.142578"/>
     <use xlink:href="#DejaVuSans-72" x="332.421875"/>
     <use xlink:href="#DejaVuSans-20" x="373.535156"/>
     <use xlink:href="#DejaVuSans-46" x="405.322266"/>
     <use xlink:href="#DejaVuSans-72" x="455.591797"/>
     <use xlink:href="#DejaVuSans-65" x="494.455078"/>
     <use xlink:href="#DejaVuSans-71" x="555.978516"/>
     <use xlink:href="#DejaVuSans-75" x="619.455078"/>
     <use xlink:href="#DejaVuSans-65" x="682.833984"/>
     <use xlink:href="#DejaVuSans-6e" x="744.357422"/>
     <use xlink:href="#DejaVuSans-63" x="807.736328"/>
     <use xlink:href="#DejaVuSans-79" x="862.716797"/>
    </g>
   </g>
   <g id="legend_1">
    <g id="patch_7">
     <path d="M 84.954688 106.14875 
L 207.126563 106.14875 
Q 211.126563 106.14875 211.126563 102.14875 
L 211.126563 45.43625 
Q 211.126563 41.43625 207.126563 41.43625 
L 84.954688 41.43625 
Q 80.954688 41.43625 80.954688 45.43625 
L 80.954688 102.14875 
Q 80.954688 106.14875 84.954688 106.14875 
z
" style="fill: #ffffff; opacity: 0.8; stroke: #cccccc; stroke-linejoin: miter"/>
    </g>
    <g id="line2d_23">
     <path d="M 88.954688 57.633125 
L 108.954688 57.633125 
L 128.954688 57.633125 
" style="fill: none; stroke: #1f77b4; stroke-width: 1.5; stroke-linecap: square"/>
    </g>
    <g id="text_14">
     <!-- minor -->
     <g transform="translate(144.954688 64.633125)scale(0.2 -0.2)">
      <defs>
       <path id="DejaVuSans-6d" d="M 3328 2828 
Q 3544 3216 3844 3400 
Q 4144 3584 4550 3584 
Q 5097 3584 5394 3201 
Q 5691 2819 5691 2113 
L 5691 0 
L 5113 0 
L 5113 2094 
Q 5113 2597 4934 2840 
Q 4756 3084 4391 3084 
Q 3944 3084 3684 2787 
Q 3425 2491 3425 1978 
L 3425 0 
L 2847 0 
L 2847 2094 
Q 2847 2600 2669 2842 
Q 2491 3084 2119 3084 
Q 1678 3084 1418 2786 
Q 1159 2488 1159 1978 
L 1159 0 
L 581 0 
L 581 3500 
L 1159 3500 
L 1159 2956 
Q 1356 3278 1631 3431 
Q 1906 3584 2284 3584 
Q 2666 3584 2933 3390 
Q 3200 3197 3328 2828 
z
" transform="scale(0.015625)"/>
       <path id="DejaVuSans-69" d="M 603 3500 
L 1178 3500 
L 1178 0 
L 603 0 
L 603 3500 
z
M 603 4863 
L 1178 4863 
L 1178 4134 
L 603 4134 
L 603 4863 
z
" transform="scale(0.015625)"/>
       <path id="DejaVuSans-6f" d="M 1959 3097 
Q 1497 3097 1228 2736 
Q 959 2375 959 1747 
Q 959 1119 1226 758 
Q 1494 397 1959 397 
Q 2419 397 2687 759 
Q 2956 1122 2956 1747 
Q 2956 2369 2687 2733 
Q 2419 3097 1959 3097 
z
M 1959 3584 
Q 2709 3584 3137 3096 
Q 3566 2609 3566 1747 
Q 3566 888 3137 398 
Q 2709 -91 1959 -91 
Q 1206 -91 779 398 
Q 353 888 353 1747 
Q 353 2609 779 3096 
Q 1206 3584 1959 3584 
z
" transform="scale(0.015625)"/>
      </defs>
      <use xlink:href="#DejaVuSans-6d"/>
      <use xlink:href="#DejaVuSans-69" x="97.412109"/>
      <use xlink:href="#DejaVuSans-6e" x="125.195312"/>
      <use xlink:href="#DejaVuSans-6f" x="188.574219"/>
      <use xlink:href="#DejaVuSans-72" x="249.755859"/>
     </g>
    </g>
    <g id="line2d_24">
     <path d="M 88.954688 86.989375 
L 108.954688 86.989375 
L 128.954688 86.989375 
" style="fill: none; stroke: #ff7f0e; stroke-width: 1.5; stroke-linecap: square"/>
    </g>
    <g id="text_15">
     <!-- major -->
     <g transform="translate(144.954688 93.989375)scale(0.2 -0.2)">
      <defs>
       <path id="DejaVuSans-6a" d="M 603 3500 
L 1178 3500 
L 1178 -63 
Q 1178 -731 923 -1031 
Q 669 -1331 103 -1331 
L -116 -1331 
L -116 -844 
L 38 -844 
Q 366 -844 484 -692 
Q 603 -541 603 -63 
L 603 3500 
z
M 603 4863 
L 1178 4863 
L 1178 4134 
L 603 4134 
L 603 4863 
z
" transform="scale(0.015625)"/>
      </defs>
      <use xlink:href="#DejaVuSans-6d"/>
      <use xlink:href="#DejaVuSans-61" x="97.412109"/>
      <use xlink:href="#DejaVuSans-6a" x="158.691406"/>
      <use xlink:href="#DejaVuSans-6f" x="186.474609"/>
      <use xlink:href="#DejaVuSans-72" x="247.65625"/>
     </g>
    </g>
   </g>
  </g>
 </g>
 <defs>
  <clipPath id="p17a5bf9d1e">
   <rect x="70.954688" y="31.43625" width="357.12" height="266.112"/>
  </clipPath>
 </defs>
</svg>
