<?xml version="1.0" encoding="utf-8" standalone="no"?>
<!DOCTYPE svg PUBLIC "-//W3C//DTD SVG 1.1//EN"
  "http://www.w3.org/Graphics/SVG/1.1/DTD/svg11.dtd">
<svg xmlns:xlink="http://www.w3.org/1999/xlink" width="444.818437pt" height="349.665437pt" viewBox="0 0 444.818437 349.665437" xmlns="http://www.w3.org/2000/svg" version="1.1">
 <defs>
  <style type="text/css">*{stroke-linejoin: round; stroke-linecap: butt}</style>
 </defs>
 <g id="figure_1">
  <g id="patch_1">
   <path d="M 0 349.665437 
L 444.818437 349.665437 
L 444.818437 0 
L 0 0 
L 0 349.665437 
z
" style="fill: none"/>
  </g>
  <g id="axes_1">
   <g id="patch_2">
    <path d="M 80.498437 297.54825 
L 437.618438 297.54825 
L 437.618438 31.43625 
L 80.498437 31.43625 
L 80.498437 297.54825 
z
" style="fill: none"/>
   </g>
   <g id="matplotlib.axis_1">
    <g id="xtick_1">
     <g id="line2d_1">
      <path d="M 120.907567 297.54825 
L 120.907567 31.43625 
" clip-path="url(#p4657dec8a1)" style="fill: none; stroke: #b0b0b0; stroke-width: 0.8; stroke-linecap: square"/>
     </g>
     <g id="line2d_2">
      <defs>
       <path id="md39032bed2" d="M 0 0 
L 0 3.5 
" style="stroke: #000000; stroke-width: 0.8"/>
      </defs>
      <g>
       <use xlink:href="#md39032bed2" x="120.907567" y="297.54825" style="stroke: #000000; stroke-width: 0.8"/>
      </g>
     </g>
     <g id="text_1">
      <!-- −2000 -->
      <g transform="translate(95.535301 315.945906)scale(0.15 -0.15)">
       <defs>
        <path id="DejaVuSans-2212" d="M 678 2272 
L 4684 2272 
L 4684 1741 
L 678 1741 
L 678 2272 
z
" transform="scale(0.015625)"/>
        <path id="DejaVuSans-32" d="M 1228 531 
L 3431 531 
L 3431 0 
L 469 0 
L 469 531 
Q 828 903 1448 1529 
Q 2069 2156 2228 2338 
Q 2531 2678 2651 2914 
Q 2772 3150 2772 3378 
Q 2772 3750 2511 3984 
Q 2250 4219 1831 4219 
Q 1534 4219 1204 4116 
Q 875 4013 500 3803 
L 500 4441 
Q 881 4594 1212 4672 
Q 1544 4750 1819 4750 
Q 2544 4750 2975 4387 
Q 3406 4025 3406 3419 
Q 3406 3131 3298 2873 
Q 3191 2616 2906 2266 
Q 2828 2175 2409 1742 
Q 1991 1309 1228 531 
z
" transform="scale(0.015625)"/>
        <path id="DejaVuSans-30" d="M 2034 4250 
Q 1547 4250 1301 3770 
Q 1056 3291 1056 2328 
Q 1056 1369 1301 889 
Q 1547 409 2034 409 
Q 2525 409 2770 889 
Q 3016 1369 3016 2328 
Q 3016 3291 2770 3770 
Q 2525 4250 2034 4250 
z
M 2034 4750 
Q 2819 4750 3233 4129 
Q 3647 3509 3647 2328 
Q 3647 1150 3233 529 
Q 2819 -91 2034 -91 
Q 1250 -91 836 529 
Q 422 1150 422 2328 
Q 422 3509 836 4129 
Q 1250 4750 2034 4750 
z
" transform="scale(0.015625)"/>
       </defs>
       <use xlink:href="#DejaVuSans-2212"/>
       <use xlink:href="#DejaVuSans-32" x="83.789062"/>
       <use xlink:href="#DejaVuSans-30" x="147.412109"/>
       <use xlink:href="#DejaVuSans-30" x="211.035156"/>
       <use xlink:href="#DejaVuSans-30" x="274.658203"/>
      </g>
     </g>
    </g>
    <g id="xtick_2">
     <g id="line2d_3">
      <path d="M 189.983002 297.54825 
L 189.983002 31.43625 
" clip-path="url(#p4657dec8a1)" style="fill: none; stroke: #b0b0b0; stroke-width: 0.8; stroke-linecap: square"/>
     </g>
     <g id="line2d_4">
      <g>
       <use xlink:href="#md39032bed2" x="189.983002" y="297.54825" style="stroke: #000000; stroke-width: 0.8"/>
      </g>
     </g>
     <g id="text_2">
      <!-- −1000 -->
      <g transform="translate(164.610737 315.945906)scale(0.15 -0.15)">
       <defs>
        <path id="DejaVuSans-31" d="M 794 531 
L 1825 531 
L 1825 4091 
L 703 3866 
L 703 4441 
L 1819 4666 
L 2450 4666 
L 2450 531 
L 3481 531 
L 3481 0 
L 794 0 
L 794 531 
z
" transform="scale(0.015625)"/>
       </defs>
       <use xlink:href="#DejaVuSans-2212"/>
       <use xlink:href="#DejaVuSans-31" x="83.789062"/>
       <use xlink:href="#DejaVuSans-30" x="147.412109"/>
       <use xlink:href="#DejaVuSans-30" x="211.035156"/>
       <use xlink:href="#DejaVuSans-30" x="274.658203"/>
      </g>
     </g>
    </g>
    <g id="xtick_3">
     <g id="line2d_5">
      <path d="M 259.058437 297.54825 
L 259.058437 31.43625 
" clip-path="url(#p4657dec8a1)" style="fill: none; stroke: #b0b0b0; stroke-width: 0.8; stroke-linecap: square"/>
     </g>
     <g id="line2d_6">
      <g>
       <use xlink:href="#md39032bed2" x="259.058437" y="297.54825" style="stroke: #000000; stroke-width: 0.8"/>
      </g>
     </g>
     <g id="text_3">
      <!-- 0 -->
      <g transform="translate(254.286562 315.945906)scale(0.15 -0.15)">
       <use xlink:href="#DejaVuSans-30"/>
      </g>
     </g>
    </g>
    <g id="xtick_4">
     <g id="line2d_7">
      <path d="M 328.133873 297.54825 
L 328.133873 31.43625 
" clip-path="url(#p4657dec8a1)" style="fill: none; stroke: #b0b0b0; stroke-width: 0.8; stroke-linecap: square"/>
     </g>
     <g id="line2d_8">
      <g>
       <use xlink:href="#md39032bed2" x="328.133873" y="297.54825" style="stroke: #000000; stroke-width: 0.8"/>
      </g>
     </g>
     <g id="text_4">
      <!-- 1000 -->
      <g transform="translate(309.046373 315.945906)scale(0.15 -0.15)">
       <use xlink:href="#DejaVuSans-31"/>
       <use xlink:href="#DejaVuSans-30" x="63.623047"/>
       <use xlink:href="#DejaVuSans-30" x="127.246094"/>
       <use xlink:href="#DejaVuSans-30" x="190.869141"/>
      </g>
     </g>
    </g>
    <g id="xtick_5">
     <g id="line2d_9">
      <path d="M 397.209308 297.54825 
L 397.209308 31.43625 
" clip-path="url(#p4657dec8a1)" style="fill: none; stroke: #b0b0b0; stroke-width: 0.8; stroke-linecap: square"/>
     </g>
     <g id="line2d_10">
      <g>
       <use xlink:href="#md39032bed2" x="397.209308" y="297.54825" style="stroke: #000000; stroke-width: 0.8"/>
      </g>
     </g>
     <g id="text_5">
      <!-- 2000 -->
      <g transform="translate(378.121808 315.945906)scale(0.15 -0.15)">
       <use xlink:href="#DejaVuSans-32"/>
       <use xlink:href="#DejaVuSans-30" x="63.623047"/>
       <use xlink:href="#DejaVuSans-30" x="127.246094"/>
       <use xlink:href="#DejaVuSans-30" x="190.869141"/>
      </g>
     </g>
    </g>
    <g id="text_6">
     <!-- X ($\mu m$) -->
     <g transform="translate(225.058437 338.265437)scale(0.2 -0.2)">
      <defs>
       <path id="DejaVuSans-58" d="M 403 4666 
L 1081 4666 
L 2241 2931 
L 3406 4666 
L 4084 4666 
L 2584 2425 
L 4184 0 
L 3506 0 
L 2194 1984 
L 872 0 
L 191 0 
L 1856 2491 
L 403 4666 
z
" transform="scale(0.015625)"/>
       <path id="DejaVuSans-20" transform="scale(0.015625)"/>
       <path id="DejaVuSans-28" d="M 1984 4856 
Q 1566 4138 1362 3434 
Q 1159 2731 1159 2009 
Q 1159 1288 1364 580 
Q 1569 -128 1984 -844 
L 1484 -844 
Q 1016 -109 783 600 
Q 550 1309 550 2009 
Q 550 2706 781 3412 
Q 1013 4119 1484 4856 
L 1984 4856 
z
" transform="scale(0.015625)"/>
       <path id="DejaVuSans-Oblique-3bc" d="M -84 -1331 
L 856 3500 
L 1434 3500 
L 1009 1322 
Q 997 1256 987 1175 
Q 978 1094 978 1013 
Q 978 722 1161 565 
Q 1344 409 1684 409 
Q 2147 409 2431 671 
Q 2716 934 2816 1459 
L 3213 3500 
L 3788 3500 
L 3266 809 
Q 3253 750 3248 706 
Q 3244 663 3244 628 
Q 3244 531 3283 486 
Q 3322 441 3406 441 
Q 3438 441 3492 456 
Q 3547 472 3647 513 
L 3559 50 
Q 3422 -19 3297 -55 
Q 3172 -91 3053 -91 
Q 2847 -91 2730 40 
Q 2613 172 2613 403 
Q 2438 153 2195 31 
Q 1953 -91 1625 -91 
Q 1334 -91 1117 43 
Q 900 178 831 397 
L 494 -1331 
L -84 -1331 
z
" transform="scale(0.015625)"/>
       <path id="DejaVuSans-Oblique-6d" d="M 5747 2113 
L 5338 0 
L 4763 0 
L 5166 2094 
Q 5191 2228 5203 2325 
Q 5216 2422 5216 2491 
Q 5216 2772 5059 2928 
Q 4903 3084 4622 3084 
Q 4203 3084 3875 2770 
Q 3547 2456 3450 1953 
L 3066 0 
L 2491 0 
L 2900 2094 
Q 2925 2209 2937 2307 
Q 2950 2406 2950 2484 
Q 2950 2769 2794 2926 
Q 2638 3084 2363 3084 
Q 1938 3084 1609 2770 
Q 1281 2456 1184 1953 
L 800 0 
L 225 0 
L 909 3500 
L 1484 3500 
L 1375 2956 
Q 1609 3263 1923 3423 
Q 2238 3584 2597 3584 
Q 2978 3584 3223 3384 
Q 3469 3184 3519 2828 
Q 3781 3197 4126 3390 
Q 4472 3584 4856 3584 
Q 5306 3584 5551 3325 
Q 5797 3066 5797 2591 
Q 5797 2488 5784 2364 
Q 5772 2241 5747 2113 
z
" transform="scale(0.015625)"/>
       <path id="DejaVuSans-29" d="M 513 4856 
L 1013 4856 
Q 1481 4119 1714 3412 
Q 1947 2706 1947 2009 
Q 1947 1309 1714 600 
Q 1481 -109 1013 -844 
L 513 -844 
Q 928 -128 1133 580 
Q 1338 1288 1338 2009 
Q 1338 2731 1133 3434 
Q 928 4138 513 4856 
z
" transform="scale(0.015625)"/>
      </defs>
      <use xlink:href="#DejaVuSans-58" transform="translate(0 0.125)"/>
      <use xlink:href="#DejaVuSans-20" transform="translate(68.505859 0.125)"/>
      <use xlink:href="#DejaVuSans-28" transform="translate(100.292969 0.125)"/>
      <use xlink:href="#DejaVuSans-Oblique-3bc" transform="translate(139.306641 0.125)"/>
      <use xlink:href="#DejaVuSans-Oblique-6d" transform="translate(202.929688 0.125)"/>
      <use xlink:href="#DejaVuSans-29" transform="translate(300.341797 0.125)"/>
     </g>
    </g>
   </g>
   <g id="matplotlib.axis_2">
    <g id="ytick_1">
     <g id="line2d_11">
      <path d="M 80.498437 297.54825 
L 437.618438 297.54825 
" clip-path="url(#p4657dec8a1)" style="fill: none; stroke: #b0b0b0; stroke-width: 0.8; stroke-linecap: square"/>
     </g>
     <g id="line2d_12">
      <defs>
       <path id="m6f3f5b6aff" d="M 0 0 
L -3.5 0 
" style="stroke: #000000; stroke-width: 0.8"/>
      </defs>
      <g>
       <use xlink:href="#m6f3f5b6aff" x="80.498437" y="297.54825" style="stroke: #000000; stroke-width: 0.8"/>
      </g>
     </g>
     <g id="text_7">
      <!-- 22.50 -->
      <g transform="translate(30.55625 303.247078)scale(0.15 -0.15)">
       <defs>
        <path id="DejaVuSans-2e" d="M 684 794 
L 1344 794 
L 1344 0 
L 684 0 
L 684 794 
z
" transform="scale(0.015625)"/>
        <path id="DejaVuSans-35" d="M 691 4666 
L 3169 4666 
L 3169 4134 
L 1269 4134 
L 1269 2991 
Q 1406 3038 1543 3061 
Q 1681 3084 1819 3084 
Q 2600 3084 3056 2656 
Q 3513 2228 3513 1497 
Q 3513 744 3044 326 
Q 2575 -91 1722 -91 
Q 1428 -91 1123 -41 
Q 819 9 494 109 
L 494 744 
Q 775 591 1075 516 
Q 1375 441 1709 441 
Q 2250 441 2565 725 
Q 2881 1009 2881 1497 
Q 2881 1984 2565 2268 
Q 2250 2553 1709 2553 
Q 1456 2553 1204 2497 
Q 953 2441 691 2322 
L 691 4666 
z
" transform="scale(0.015625)"/>
       </defs>
       <use xlink:href="#DejaVuSans-32"/>
       <use xlink:href="#DejaVuSans-32" x="63.623047"/>
       <use xlink:href="#DejaVuSans-2e" x="127.246094"/>
       <use xlink:href="#DejaVuSans-35" x="159.033203"/>
       <use xlink:href="#DejaVuSans-30" x="222.65625"/>
      </g>
     </g>
    </g>
    <g id="ytick_2">
     <g id="line2d_13">
      <path d="M 80.498437 264.28425 
L 437.618438 264.28425 
" clip-path="url(#p4657dec8a1)" style="fill: none; stroke: #b0b0b0; stroke-width: 0.8; stroke-linecap: square"/>
     </g>
     <g id="line2d_14">
      <g>
       <use xlink:href="#m6f3f5b6aff" x="80.498437" y="264.28425" style="stroke: #000000; stroke-width: 0.8"/>
      </g>
     </g>
     <g id="text_8">
      <!-- 22.75 -->
      <g transform="translate(30.55625 269.983078)scale(0.15 -0.15)">
       <defs>
        <path id="DejaVuSans-37" d="M 525 4666 
L 3525 4666 
L 3525 4397 
L 1831 0 
L 1172 0 
L 2766 4134 
L 525 4134 
L 525 4666 
z
" transform="scale(0.015625)"/>
       </defs>
       <use xlink:href="#DejaVuSans-32"/>
       <use xlink:href="#DejaVuSans-32" x="63.623047"/>
       <use xlink:href="#DejaVuSans-2e" x="127.246094"/>
       <use xlink:href="#DejaVuSans-37" x="159.033203"/>
       <use xlink:href="#DejaVuSans-35" x="222.65625"/>
      </g>
     </g>
    </g>
    <g id="ytick_3">
     <g id="line2d_15">
      <path d="M 80.498437 231.02025 
L 437.618438 231.02025 
" clip-path="url(#p4657dec8a1)" style="fill: none; stroke: #b0b0b0; stroke-width: 0.8; stroke-linecap: square"/>
     </g>
     <g id="line2d_16">
      <g>
       <use xlink:href="#m6f3f5b6aff" x="80.498437" y="231.02025" style="stroke: #000000; stroke-width: 0.8"/>
      </g>
     </g>
     <g id="text_9">
      <!-- 23.00 -->
      <g transform="translate(30.55625 236.719078)scale(0.15 -0.15)">
       <defs>
        <path id="DejaVuSans-33" d="M 2597 2516 
Q 3050 2419 3304 2112 
Q 3559 1806 3559 1356 
Q 3559 666 3084 287 
Q 2609 -91 1734 -91 
Q 1441 -91 1130 -33 
Q 819 25 488 141 
L 488 750 
Q 750 597 1062 519 
Q 1375 441 1716 441 
Q 2309 441 2620 675 
Q 2931 909 2931 1356 
Q 2931 1769 2642 2001 
Q 2353 2234 1838 2234 
L 1294 2234 
L 1294 2753 
L 1863 2753 
Q 2328 2753 2575 2939 
Q 2822 3125 2822 3475 
Q 2822 3834 2567 4026 
Q 2313 4219 1838 4219 
Q 1578 4219 1281 4162 
Q 984 4106 628 3988 
L 628 4550 
Q 988 4650 1302 4700 
Q 1616 4750 1894 4750 
Q 2613 4750 3031 4423 
Q 3450 4097 3450 3541 
Q 3450 3153 3228 2886 
Q 3006 2619 2597 2516 
z
" transform="scale(0.015625)"/>
       </defs>
       <use xlink:href="#DejaVuSans-32"/>
       <use xlink:href="#DejaVuSans-33" x="63.623047"/>
       <use xlink:href="#DejaVuSans-2e" x="127.246094"/>
       <use xlink:href="#DejaVuSans-30" x="159.033203"/>
       <use xlink:href="#DejaVuSans-30" x="222.65625"/>
      </g>
     </g>
    </g>
    <g id="ytick_4">
     <g id="line2d_17">
      <path d="M 80.498437 197.75625 
L 437.618438 197.75625 
" clip-path="url(#p4657dec8a1)" style="fill: none; stroke: #b0b0b0; stroke-width: 0.8; stroke-linecap: square"/>
     </g>
     <g id="line2d_18">
      <g>
       <use xlink:href="#m6f3f5b6aff" x="80.498437" y="197.75625" style="stroke: #000000; stroke-width: 0.8"/>
      </g>
     </g>
     <g id="text_10">
      <!-- 23.25 -->
      <g transform="translate(30.55625 203.455078)scale(0.15 -0.15)">
       <use xlink:href="#DejaVuSans-32"/>
       <use xlink:href="#DejaVuSans-33" x="63.623047"/>
       <use xlink:href="#DejaVuSans-2e" x="127.246094"/>
       <use xlink:href="#DejaVuSans-32" x="159.033203"/>
       <use xlink:href="#DejaVuSans-35" x="222.65625"/>
      </g>
     </g>
    </g>
    <g id="ytick_5">
     <g id="line2d_19">
      <path d="M 80.498437 164.49225 
L 437.618438 164.49225 
" clip-path="url(#p4657dec8a1)" style="fill: none; stroke: #b0b0b0; stroke-width: 0.8; stroke-linecap: square"/>
     </g>
     <g id="line2d_20">
      <g>
       <use xlink:href="#m6f3f5b6aff" x="80.498437" y="164.49225" style="stroke: #000000; stroke-width: 0.8"/>
      </g>
     </g>
     <g id="text_11">
      <!-- 23.50 -->
      <g transform="translate(30.55625 170.191078)scale(0.15 -0.15)">
       <use xlink:href="#DejaVuSans-32"/>
       <use xlink:href="#DejaVuSans-33" x="63.623047"/>
       <use xlink:href="#DejaVuSans-2e" x="127.246094"/>
       <use xlink:href="#DejaVuSans-35" x="159.033203"/>
       <use xlink:href="#DejaVuSans-30" x="222.65625"/>
      </g>
     </g>
    </g>
    <g id="ytick_6">
     <g id="line2d_21">
      <path d="M 80.498437 131.22825 
L 437.618438 131.22825 
" clip-path="url(#p4657dec8a1)" style="fill: none; stroke: #b0b0b0; stroke-width: 0.8; stroke-linecap: square"/>
     </g>
     <g id="line2d_22">
      <g>
       <use xlink:href="#m6f3f5b6aff" x="80.498437" y="131.22825" style="stroke: #000000; stroke-width: 0.8"/>
      </g>
     </g>
     <g id="text_12">
      <!-- 23.75 -->
      <g transform="translate(30.55625 136.927078)scale(0.15 -0.15)">
       <use xlink:href="#DejaVuSans-32"/>
       <use xlink:href="#DejaVuSans-33" x="63.623047"/>
       <use xlink:href="#DejaVuSans-2e" x="127.246094"/>
       <use xlink:href="#DejaVuSans-37" x="159.033203"/>
       <use xlink:href="#DejaVuSans-35" x="222.65625"/>
      </g>
     </g>
    </g>
    <g id="ytick_7">
     <g id="line2d_23">
      <path d="M 80.498437 97.96425 
L 437.618438 97.96425 
" clip-path="url(#p4657dec8a1)" style="fill: none; stroke: #b0b0b0; stroke-width: 0.8; stroke-linecap: square"/>
     </g>
     <g id="line2d_24">
      <g>
       <use xlink:href="#m6f3f5b6aff" x="80.498437" y="97.96425" style="stroke: #000000; stroke-width: 0.8"/>
      </g>
     </g>
     <g id="text_13">
      <!-- 24.00 -->
      <g transform="translate(30.55625 103.663078)scale(0.15 -0.15)">
       <defs>
        <path id="DejaVuSans-34" d="M 2419 4116 
L 825 1625 
L 2419 1625 
L 2419 4116 
z
M 2253 4666 
L 3047 4666 
L 3047 1625 
L 3713 1625 
L 3713 1100 
L 3047 1100 
L 3047 0 
L 2419 0 
L 2419 1100 
L 313 1100 
L 313 1709 
L 2253 4666 
z
" transform="scale(0.015625)"/>
       </defs>
       <use xlink:href="#DejaVuSans-32"/>
       <use xlink:href="#DejaVuSans-34" x="63.623047"/>
       <use xlink:href="#DejaVuSans-2e" x="127.246094"/>
       <use xlink:href="#DejaVuSans-30" x="159.033203"/>
       <use xlink:href="#DejaVuSans-30" x="222.65625"/>
      </g>
     </g>
    </g>
    <g id="ytick_8">
     <g id="line2d_25">
      <path d="M 80.498437 64.70025 
L 437.618438 64.70025 
" clip-path="url(#p4657dec8a1)" style="fill: none; stroke: #b0b0b0; stroke-width: 0.8; stroke-linecap: square"/>
     </g>
     <g id="line2d_26">
      <g>
       <use xlink:href="#m6f3f5b6aff" x="80.498437" y="64.70025" style="stroke: #000000; stroke-width: 0.8"/>
      </g>
     </g>
     <g id="text_14">
      <!-- 24.25 -->
      <g transform="translate(30.55625 70.399078)scale(0.15 -0.15)">
       <use xlink:href="#DejaVuSans-32"/>
       <use xlink:href="#DejaVuSans-34" x="63.623047"/>
       <use xlink:href="#DejaVuSans-2e" x="127.246094"/>
       <use xlink:href="#DejaVuSans-32" x="159.033203"/>
       <use xlink:href="#DejaVuSans-35" x="222.65625"/>
      </g>
     </g>
    </g>
    <g id="ytick_9">
     <g id="line2d_27">
      <path d="M 80.498437 31.43625 
L 437.618438 31.43625 
" clip-path="url(#p4657dec8a1)" style="fill: none; stroke: #b0b0b0; stroke-width: 0.8; stroke-linecap: square"/>
     </g>
     <g id="line2d_28">
      <g>
       <use xlink:href="#m6f3f5b6aff" x="80.498437" y="31.43625" style="stroke: #000000; stroke-width: 0.8"/>
      </g>
     </g>
     <g id="text_15">
      <!-- 24.50 -->
      <g transform="translate(30.55625 37.135078)scale(0.15 -0.15)">
       <use xlink:href="#DejaVuSans-32"/>
       <use xlink:href="#DejaVuSans-34" x="63.623047"/>
       <use xlink:href="#DejaVuSans-2e" x="127.246094"/>
       <use xlink:href="#DejaVuSans-35" x="159.033203"/>
       <use xlink:href="#DejaVuSans-30" x="222.65625"/>
      </g>
     </g>
    </g>
    <g id="text_16">
     <!-- $mm^{-2}$ -->
     <g transform="translate(22.396875 195.09225)rotate(-90)scale(0.2 -0.2)">
      <use xlink:href="#DejaVuSans-Oblique-6d" transform="translate(0 0.765625)"/>
      <use xlink:href="#DejaVuSans-Oblique-6d" transform="translate(97.412109 0.765625)"/>
      <use xlink:href="#DejaVuSans-2212" transform="translate(199.474115 39.046875)scale(0.7)"/>
      <use xlink:href="#DejaVuSans-32" transform="translate(258.126458 39.046875)scale(0.7)"/>
     </g>
    </g>
   </g>
   <g id="line2d_29">
    <path d="M 119.743744 350.665437 
L 120.216813 337.399228 
L 120.56219 327.665028 
L 121.943699 309.198221 
L 122.634453 292.075245 
L 124.015962 249.826713 
L 124.361339 244.329021 
L 124.706716 243.202183 
L 125.052093 247.091909 
L 125.39747 255.828879 
L 126.088225 285.664864 
L 127.213713 350.665437 
M 144.0599 350.665437 
L 145.083969 319.50077 
L 146.120101 295.045155 
L 147.156232 275.716404 
L 148.192364 260.968674 
L 148.883118 253.64053 
L 149.573873 248.425323 
L 150.264627 245.162758 
L 150.610004 244.134828 
L 150.955381 243.56262 
L 151.300759 243.233229 
L 151.646136 243.191295 
L 152.33689 243.645513 
L 153.027644 244.481147 
L 155.099908 247.802938 
L 156.826793 251.066205 
L 157.862925 252.601758 
L 158.899056 253.661416 
L 160.97132 255.379246 
L 161.662074 255.986087 
L 162.698205 256.545176 
L 163.734337 256.676399 
L 165.115846 256.687695 
L 166.842732 256.988145 
L 167.533486 256.968156 
L 168.22424 256.878178 
L 169.605749 256.522353 
L 171.332635 256.118643 
L 172.368766 255.430566 
L 174.441029 253.708297 
L 175.131784 253.465149 
L 177.204047 252.965018 
L 182.039327 250.350054 
L 184.11159 248.881812 
L 185.147722 248.451878 
L 186.529231 248.026087 
L 187.565362 247.360677 
L 189.637625 246.065604 
L 192.400643 245.056319 
L 193.782151 244.215499 
L 194.472906 243.938968 
L 196.199791 243.365087 
L 197.235923 242.742048 
L 198.617432 241.754919 
L 199.99894 241.243994 
L 201.035072 240.929148 
L 202.071203 240.310811 
L 204.143467 239.152785 
L 205.524975 238.870356 
L 206.561107 238.415634 
L 208.287993 237.338303 
L 209.324124 237.068606 
L 211.05101 236.567708 
L 212.777896 235.526836 
L 214.159405 235.060646 
L 214.850159 234.958652 
L 215.540913 234.803488 
L 216.577045 234.280879 
L 217.613176 233.653351 
L 218.303931 233.379622 
L 219.340062 233.177832 
L 220.376194 232.985185 
L 221.066948 232.756556 
L 222.448457 232.018541 
L 223.484588 231.761344 
L 225.211474 231.769996 
L 229.010623 230.515808 
L 229.701378 230.350764 
L 230.737509 229.84953 
L 232.809772 228.707944 
L 235.227412 228.239406 
L 237.299675 227.246289 
L 237.99043 227.038568 
L 239.371938 226.963165 
L 240.753447 226.481959 
L 242.134956 225.844094 
L 243.516465 225.704071 
L 244.552596 225.665483 
L 247.660991 224.761456 
L 249.733254 224.995539 
L 250.769385 224.827584 
L 251.46014 224.643824 
L 252.496271 224.653033 
L 254.223157 224.937615 
L 254.913911 224.869467 
L 257.676929 224.218739 
L 259.058437 223.929052 
L 260.094569 223.374177 
L 262.166832 222.470283 
L 263.548341 222.133402 
L 264.584472 221.671758 
L 265.620604 221.149794 
L 266.311358 220.933652 
L 268.728998 220.689825 
L 269.76513 220.282937 
L 270.801261 219.956661 
L 271.837393 219.909321 
L 273.218902 220.022757 
L 274.255033 219.753526 
L 276.327296 219.203059 
L 277.708805 219.180901 
L 278.744937 218.876491 
L 279.781068 218.338131 
L 280.471822 218.04099 
L 281.507954 217.969461 
L 283.580217 218.045329 
L 284.270971 217.85711 
L 286.343234 217.477219 
L 287.724743 217.433282 
L 288.760875 217.143564 
L 290.142383 216.610848 
L 290.833138 216.585356 
L 291.523892 216.600703 
L 292.560024 216.690208 
L 293.250778 216.622914 
L 294.977664 216.08947 
L 295.668418 215.993078 
L 297.395304 216.207386 
L 298.086058 216.104917 
L 300.503699 215.552729 
L 301.885207 215.782706 
L 302.921339 215.751324 
L 305.338979 215.196149 
L 308.101996 215.128699 
L 308.792751 214.876563 
L 309.483505 214.757526 
L 310.17426 214.683332 
L 312.5919 214.918963 
L 313.628031 214.722809 
L 314.318786 214.546237 
L 315.700294 214.620749 
L 316.736426 214.818166 
L 317.772557 214.621782 
L 319.84482 214.197357 
L 321.226329 214.37324 
L 321.917084 214.404844 
L 323.298592 214.131963 
L 323.643969 214.000075 
L 325.025478 214.09173 
L 326.06161 214.310184 
L 326.752364 214.417179 
L 329.860759 214.020334 
L 331.242267 214.194947 
L 334.005285 213.724346 
L 334.696039 213.834152 
L 336.422925 214.202111 
L 337.113679 214.203829 
L 337.804434 214.103313 
L 338.495188 213.936014 
L 340.222074 213.885493 
L 340.912828 213.886328 
L 341.603583 213.695889 
L 342.639714 213.276511 
L 343.675846 212.92293 
L 345.748109 212.877024 
L 346.78424 212.488471 
L 348.511126 211.59822 
L 350.583389 211.007935 
L 351.619521 210.306777 
L 354.037161 208.320919 
L 354.727915 207.866502 
L 355.41867 207.276016 
L 356.454801 205.935517 
L 358.181687 203.07523 
L 359.563196 200.732495 
L 360.944704 197.674909 
L 364.743853 187.350706 
L 365.779985 185.211905 
L 366.470739 184.310683 
L 366.816116 184.175277 
L 367.161494 184.339856 
L 367.506871 184.820914 
L 367.852248 185.686969 
L 368.197625 186.982457 
L 368.888379 191.028434 
L 369.579134 197.017948 
L 370.269888 204.961864 
L 371.30602 220.31566 
L 372.342151 239.701025 
L 373.378283 264.2693 
L 374.414414 296.493428 
L 375.450546 338.442399 
L 375.714026 350.665437 
M 389.280357 350.665437 
L 392.719405 143.230058 
L 393.064782 132.833011 
L 393.410159 127.795815 
L 393.755536 128.163855 
L 394.100913 133.294247 
L 394.791668 153.019513 
L 395.827799 185.08682 
L 396.518554 197.327351 
L 397.900062 211.917408 
L 398.245439 219.794045 
L 398.936194 245.155666 
L 399.972325 298.083556 
L 400.66308 333.385122 
L 401.198714 350.665437 
L 401.198714 350.665437 
" clip-path="url(#p4657dec8a1)" style="fill: none; stroke: #1f77b4; stroke-width: 1.5; stroke-linecap: square"/>
   </g>
   <g id="line2d_30">
    <path d="M 120.434763 350.665437 
L 120.907567 329.51456 
L 121.598321 302.428716 
L 122.289076 283.990012 
L 122.634453 279.063581 
L 122.97983 276.74167 
L 123.325207 276.631219 
L 123.670585 277.946689 
L 124.706716 283.111169 
L 125.39747 284.975136 
L 125.742848 286.855403 
L 126.088225 290.829818 
L 126.433602 298.015143 
L 126.778979 309.263891 
L 127.469733 345.026255 
L 127.552017 350.665437 
M 144.020197 350.665437 
L 144.393215 341.455876 
L 145.083969 329.837394 
L 145.774724 323.802008 
L 146.120101 322.143956 
L 146.465478 321.9158 
L 147.156232 319.529755 
L 147.846987 316.149511 
L 148.537741 311.338542 
L 149.573873 301.975324 
L 151.646136 282.309025 
L 152.682267 274.958239 
L 153.373022 271.334334 
L 154.063776 268.669914 
L 155.099908 265.767172 
L 155.790662 264.229324 
L 156.826793 262.462502 
L 157.517548 261.713365 
L 158.208302 261.243496 
L 160.625942 260.403844 
L 162.698205 259.406047 
L 165.115846 259.08798 
L 165.8066 258.747678 
L 167.188109 258.017743 
L 169.260372 257.55577 
L 169.951126 257.243456 
L 172.714143 255.509819 
L 174.095652 255.109025 
L 175.477161 254.134788 
L 177.204047 252.916522 
L 179.27631 252.150747 
L 179.967064 251.681384 
L 181.69395 250.442608 
L 182.730082 250.004755 
L 184.11159 249.417528 
L 185.147722 248.762538 
L 185.838476 248.205153 
L 187.219985 247.42701 
L 188.601494 247.064608 
L 189.637625 246.505511 
L 191.709888 245.124658 
L 194.127528 244.351351 
L 196.545169 242.764983 
L 198.962809 241.976725 
L 199.653563 241.555148 
L 201.035072 240.560798 
L 202.071203 240.230055 
L 203.452712 239.868912 
L 204.834221 239.014151 
L 205.870352 238.380542 
L 206.906484 238.079019 
L 207.942615 237.871767 
L 208.63337 237.627278 
L 211.05101 236.197596 
L 212.777896 235.927614 
L 214.159405 235.278349 
L 214.850159 234.79684 
L 215.540913 234.417546 
L 216.577045 234.200369 
L 217.267799 234.134548 
L 218.303931 233.867644 
L 220.721571 232.642335 
L 221.412325 232.566659 
L 223.139211 232.322885 
L 224.175343 231.786379 
L 225.211474 231.255312 
L 227.629114 230.942783 
L 228.665246 230.465087 
L 230.046755 229.72988 
L 231.082886 229.500113 
L 231.773641 229.465306 
L 232.464395 229.333537 
L 233.155149 228.993848 
L 235.227412 227.975391 
L 237.299675 227.740232 
L 237.99043 227.528072 
L 239.371938 226.73538 
L 240.40807 226.509377 
L 242.134956 226.467386 
L 243.171087 226.042429 
L 244.552596 225.466757 
L 245.934105 225.492927 
L 246.624859 225.50826 
L 247.660991 225.361877 
L 249.387877 224.703915 
L 250.769385 224.761989 
L 251.46014 224.879413 
L 252.496271 224.765289 
L 254.223157 224.284844 
L 254.913911 224.245849 
L 256.29542 224.364134 
L 257.331552 224.074544 
L 259.058437 223.30027 
L 260.439946 223.149109 
L 261.130701 223.089863 
L 262.166832 222.711035 
L 263.548341 221.936329 
L 264.239095 221.734753 
L 264.929849 221.662937 
L 266.311358 221.433355 
L 269.074376 220.435849 
L 269.76513 220.484509 
L 270.801261 220.477728 
L 271.837393 220.208362 
L 273.218902 219.612444 
L 274.255033 219.549066 
L 275.981919 219.522182 
L 276.672673 219.275853 
L 278.399559 218.653669 
L 278.744937 218.56424 
L 279.781068 218.681998 
L 280.8172 218.656985 
L 283.23484 217.796266 
L 284.616349 217.807339 
L 284.961726 217.898644 
L 285.997857 217.769573 
L 287.724743 217.088846 
L 288.415497 217.041896 
L 289.451629 217.087248 
L 290.142383 217.169591 
L 290.833138 217.013357 
L 291.869269 216.656867 
L 292.905401 216.360516 
L 293.596155 216.373648 
L 295.668418 216.477993 
L 296.70455 216.120958 
L 297.740681 215.778465 
L 299.812944 216.064931 
L 300.503699 216.005483 
L 302.921339 215.340738 
L 304.993602 215.586728 
L 306.029733 215.322482 
L 306.720488 215.051746 
L 307.411242 214.971444 
L 308.101996 214.959645 
L 308.447374 215.118186 
L 310.17426 215.173582 
L 312.246523 214.659411 
L 313.282654 214.744368 
L 314.318786 214.94931 
L 315.700294 214.724731 
L 316.736426 214.376621 
L 317.42718 214.3712 
L 319.499443 214.730813 
L 321.917084 214.134021 
L 323.298592 214.355515 
L 323.989347 214.522706 
L 324.334724 214.570227 
L 327.097741 214.056224 
L 329.170004 214.427197 
L 330.206136 214.218752 
L 331.242267 213.971228 
L 332.623776 214.160234 
L 333.31453 214.337274 
L 334.696039 214.272172 
L 336.768302 213.963036 
L 338.840565 214.294145 
L 339.876697 214.069595 
L 341.258205 213.705145 
L 344.021223 213.750185 
L 344.711977 213.499168 
L 346.093486 213.062953 
L 346.78424 213.028632 
L 348.511126 213.016017 
L 351.619521 211.762304 
L 352.655652 211.630666 
L 353.346407 211.453836 
L 354.037161 211.069439 
L 355.41867 210.092341 
L 356.454801 209.711631 
L 358.527064 209.075209 
L 360.25395 208.23533 
L 360.944704 208.242404 
L 361.635459 208.652622 
L 362.326213 209.320172 
L 363.362345 210.858758 
L 364.053099 212.357796 
L 364.743853 214.524561 
L 365.434608 217.648526 
L 366.125362 221.808065 
L 367.161494 229.946872 
L 369.579134 250.973097 
L 370.269888 254.934768 
L 370.960643 257.234638 
L 371.996774 259.101613 
L 372.342151 260.198114 
L 372.687528 262.050493 
L 373.378283 268.002137 
L 374.069037 281.973299 
L 374.759791 303.337156 
L 375.898701 350.665437 
M 389.341789 350.665437 
L 390.647142 246.206077 
L 391.337896 207.567347 
L 391.683273 195.183453 
L 392.02865 187.033308 
L 392.374027 182.213994 
L 392.719405 179.582058 
L 393.064782 177.904573 
L 393.410159 171.830607 
L 394.100913 166.591157 
L 394.791668 161.044644 
L 395.137045 159.997268 
L 395.482422 161.163034 
L 395.827799 165.210664 
L 396.173176 172.287219 
L 396.863931 194.841033 
L 398.245439 249.58261 
L 398.936194 267.381451 
L 399.972325 283.978103 
L 401.353834 327.336114 
L 401.84366 350.665437 
L 401.84366 350.665437 
" clip-path="url(#p4657dec8a1)" style="fill: none; stroke: #ff7f0e; stroke-width: 1.5; stroke-linecap: square"/>
   </g>
   <g id="patch_3">
    <path d="M 80.498437 297.54825 
L 80.498437 31.43625 
" style="fill: none; stroke: #000000; stroke-width: 0.8; stroke-linejoin: miter; stroke-linecap: square"/>
   </g>
   <g id="patch_4">
    <path d="M 437.618438 297.54825 
L 437.618438 31.43625 
" style="fill: none; stroke: #000000; stroke-width: 0.8; stroke-linejoin: miter; stroke-linecap: square"/>
   </g>
   <g id="patch_5">
    <path d="M 80.498437 297.54825 
L 437.618437 297.54825 
" style="fill: none; stroke: #000000; stroke-width: 0.8; stroke-linejoin: miter; stroke-linecap: square"/>
   </g>
   <g id="patch_6">
    <path d="M 80.498437 31.43625 
L 437.618437 31.43625 
" style="fill: none; stroke: #000000; stroke-width: 0.8; stroke-linejoin: miter; stroke-linecap: square"/>
   </g>
   <g id="text_17">
    <!-- RF Field Curvature -->
    <g transform="translate(148.759687 25.43625)scale(0.24 -0.24)">
     <defs>
      <path id="DejaVuSans-52" d="M 2841 2188 
Q 3044 2119 3236 1894 
Q 3428 1669 3622 1275 
L 4263 0 
L 3584 0 
L 2988 1197 
Q 2756 1666 2539 1819 
Q 2322 1972 1947 1972 
L 1259 1972 
L 1259 0 
L 628 0 
L 628 4666 
L 2053 4666 
Q 2853 4666 3247 4331 
Q 3641 3997 3641 3322 
Q 3641 2881 3436 2590 
Q 3231 2300 2841 2188 
z
M 1259 4147 
L 1259 2491 
L 2053 2491 
Q 2509 2491 2742 2702 
Q 2975 2913 2975 3322 
Q 2975 3731 2742 3939 
Q 2509 4147 2053 4147 
L 1259 4147 
z
" transform="scale(0.015625)"/>
      <path id="DejaVuSans-46" d="M 628 4666 
L 3309 4666 
L 3309 4134 
L 1259 4134 
L 1259 2759 
L 3109 2759 
L 3109 2228 
L 1259 2228 
L 1259 0 
L 628 0 
L 628 4666 
z
" transform="scale(0.015625)"/>
      <path id="DejaVuSans-69" d="M 603 3500 
L 1178 3500 
L 1178 0 
L 603 0 
L 603 3500 
z
M 603 4863 
L 1178 4863 
L 1178 4134 
L 603 4134 
L 603 4863 
z
" transform="scale(0.015625)"/>
      <path id="DejaVuSans-65" d="M 3597 1894 
L 3597 1613 
L 953 1613 
Q 991 1019 1311 708 
Q 1631 397 2203 397 
Q 2534 397 2845 478 
Q 3156 559 3463 722 
L 3463 178 
Q 3153 47 2828 -22 
Q 2503 -91 2169 -91 
Q 1331 -91 842 396 
Q 353 884 353 1716 
Q 353 2575 817 3079 
Q 1281 3584 2069 3584 
Q 2775 3584 3186 3129 
Q 3597 2675 3597 1894 
z
M 3022 2063 
Q 3016 2534 2758 2815 
Q 2500 3097 2075 3097 
Q 1594 3097 1305 2825 
Q 1016 2553 972 2059 
L 3022 2063 
z
" transform="scale(0.015625)"/>
      <path id="DejaVuSans-6c" d="M 603 4863 
L 1178 4863 
L 1178 0 
L 603 0 
L 603 4863 
z
" transform="scale(0.015625)"/>
      <path id="DejaVuSans-64" d="M 2906 2969 
L 2906 4863 
L 3481 4863 
L 3481 0 
L 2906 0 
L 2906 525 
Q 2725 213 2448 61 
Q 2172 -91 1784 -91 
Q 1150 -91 751 415 
Q 353 922 353 1747 
Q 353 2572 751 3078 
Q 1150 3584 1784 3584 
Q 2172 3584 2448 3432 
Q 2725 3281 2906 2969 
z
M 947 1747 
Q 947 1113 1208 752 
Q 1469 391 1925 391 
Q 2381 391 2643 752 
Q 2906 1113 2906 1747 
Q 2906 2381 2643 2742 
Q 2381 3103 1925 3103 
Q 1469 3103 1208 2742 
Q 947 2381 947 1747 
z
" transform="scale(0.015625)"/>
      <path id="DejaVuSans-43" d="M 4122 4306 
L 4122 3641 
Q 3803 3938 3442 4084 
Q 3081 4231 2675 4231 
Q 1875 4231 1450 3742 
Q 1025 3253 1025 2328 
Q 1025 1406 1450 917 
Q 1875 428 2675 428 
Q 3081 428 3442 575 
Q 3803 722 4122 1019 
L 4122 359 
Q 3791 134 3420 21 
Q 3050 -91 2638 -91 
Q 1578 -91 968 557 
Q 359 1206 359 2328 
Q 359 3453 968 4101 
Q 1578 4750 2638 4750 
Q 3056 4750 3426 4639 
Q 3797 4528 4122 4306 
z
" transform="scale(0.015625)"/>
      <path id="DejaVuSans-75" d="M 544 1381 
L 544 3500 
L 1119 3500 
L 1119 1403 
Q 1119 906 1312 657 
Q 1506 409 1894 409 
Q 2359 409 2629 706 
Q 2900 1003 2900 1516 
L 2900 3500 
L 3475 3500 
L 3475 0 
L 2900 0 
L 2900 538 
Q 2691 219 2414 64 
Q 2138 -91 1772 -91 
Q 1169 -91 856 284 
Q 544 659 544 1381 
z
M 1991 3584 
L 1991 3584 
z
" transform="scale(0.015625)"/>
      <path id="DejaVuSans-72" d="M 2631 2963 
Q 2534 3019 2420 3045 
Q 2306 3072 2169 3072 
Q 1681 3072 1420 2755 
Q 1159 2438 1159 1844 
L 1159 0 
L 581 0 
L 581 3500 
L 1159 3500 
L 1159 2956 
Q 1341 3275 1631 3429 
Q 1922 3584 2338 3584 
Q 2397 3584 2469 3576 
Q 2541 3569 2628 3553 
L 2631 2963 
z
" transform="scale(0.015625)"/>
      <path id="DejaVuSans-76" d="M 191 3500 
L 800 3500 
L 1894 563 
L 2988 3500 
L 3597 3500 
L 2284 0 
L 1503 0 
L 191 3500 
z
" transform="scale(0.015625)"/>
      <path id="DejaVuSans-61" d="M 2194 1759 
Q 1497 1759 1228 1600 
Q 959 1441 959 1056 
Q 959 750 1161 570 
Q 1363 391 1709 391 
Q 2188 391 2477 730 
Q 2766 1069 2766 1631 
L 2766 1759 
L 2194 1759 
z
M 3341 1997 
L 3341 0 
L 2766 0 
L 2766 531 
Q 2569 213 2275 61 
Q 1981 -91 1556 -91 
Q 1019 -91 701 211 
Q 384 513 384 1019 
Q 384 1609 779 1909 
Q 1175 2209 1959 2209 
L 2766 2209 
L 2766 2266 
Q 2766 2663 2505 2880 
Q 2244 3097 1772 3097 
Q 1472 3097 1187 3025 
Q 903 2953 641 2809 
L 641 3341 
Q 956 3463 1253 3523 
Q 1550 3584 1831 3584 
Q 2591 3584 2966 3190 
Q 3341 2797 3341 1997 
z
" transform="scale(0.015625)"/>
      <path id="DejaVuSans-74" d="M 1172 4494 
L 1172 3500 
L 2356 3500 
L 2356 3053 
L 1172 3053 
L 1172 1153 
Q 1172 725 1289 603 
Q 1406 481 1766 481 
L 2356 481 
L 2356 0 
L 1766 0 
Q 1100 0 847 248 
Q 594 497 594 1153 
L 594 3053 
L 172 3053 
L 172 3500 
L 594 3500 
L 594 4494 
L 1172 4494 
z
" transform="scale(0.015625)"/>
     </defs>
     <use xlink:href="#DejaVuSans-52"/>
     <use xlink:href="#DejaVuSans-46" x="69.482422"/>
     <use xlink:href="#DejaVuSans-20" x="127.001953"/>
     <use xlink:href="#DejaVuSans-46" x="158.789062"/>
     <use xlink:href="#DejaVuSans-69" x="209.058594"/>
     <use xlink:href="#DejaVuSans-65" x="236.841797"/>
     <use xlink:href="#DejaVuSans-6c" x="298.365234"/>
     <use xlink:href="#DejaVuSans-64" x="326.148438"/>
     <use xlink:href="#DejaVuSans-20" x="389.625"/>
     <use xlink:href="#DejaVuSans-43" x="421.412109"/>
     <use xlink:href="#DejaVuSans-75" x="491.236328"/>
     <use xlink:href="#DejaVuSans-72" x="554.615234"/>
     <use xlink:href="#DejaVuSans-76" x="595.728516"/>
     <use xlink:href="#DejaVuSans-61" x="654.908203"/>
     <use xlink:href="#DejaVuSans-74" x="716.1875"/>
     <use xlink:href="#DejaVuSans-75" x="755.396484"/>
     <use xlink:href="#DejaVuSans-72" x="818.775391"/>
     <use xlink:href="#DejaVuSans-65" x="857.638672"/>
    </g>
   </g>
   <g id="legend_1">
    <g id="patch_7">
     <path d="M 321.818437 109.1925 
L 423.618437 109.1925 
Q 427.618437 109.1925 427.618437 105.1925 
L 427.618437 45.43625 
Q 427.618437 41.43625 423.618437 41.43625 
L 321.818437 41.43625 
Q 317.818437 41.43625 317.818437 45.43625 
L 317.818437 105.1925 
Q 317.818437 109.1925 321.818437 109.1925 
z
" style="fill: #ffffff; opacity: 0.8; stroke: #cccccc; stroke-linejoin: miter"/>
    </g>
    <g id="line2d_31">
     <path d="M 325.818437 60.63625 
L 345.818437 60.63625 
L 365.818437 60.63625 
" style="fill: none; stroke: #1f77b4; stroke-width: 1.5; stroke-linecap: square"/>
    </g>
    <g id="text_18">
     <!-- $y^2$ -->
     <g transform="translate(381.818437 67.63625)scale(0.2 -0.2)">
      <defs>
       <path id="DejaVuSans-Oblique-79" d="M 1588 -325 
Q 1188 -997 936 -1164 
Q 684 -1331 294 -1331 
L -159 -1331 
L -63 -850 
L 269 -850 
Q 509 -850 678 -719 
Q 847 -588 1056 -206 
L 1234 128 
L 459 3500 
L 1069 3500 
L 1650 819 
L 3256 3500 
L 3859 3500 
L 1588 -325 
z
" transform="scale(0.015625)"/>
      </defs>
      <use xlink:href="#DejaVuSans-Oblique-79" transform="translate(0 0.765625)"/>
      <use xlink:href="#DejaVuSans-32" transform="translate(63.645833 39.046875)scale(0.7)"/>
     </g>
    </g>
    <g id="line2d_32">
     <path d="M 325.818437 90.033125 
L 345.818437 90.033125 
L 365.818437 90.033125 
" style="fill: none; stroke: #ff7f0e; stroke-width: 1.5; stroke-linecap: square"/>
    </g>
    <g id="text_19">
     <!-- $-z^2$ -->
     <g transform="translate(381.818437 97.033125)scale(0.2 -0.2)">
      <defs>
       <path id="DejaVuSans-Oblique-7a" d="M 744 3500 
L 3475 3500 
L 3372 2975 
L 738 459 
L 2913 459 
L 2822 0 
L -19 0 
L 84 525 
L 2719 3041 
L 653 3041 
L 744 3500 
z
" transform="scale(0.015625)"/>
      </defs>
      <use xlink:href="#DejaVuSans-2212" transform="translate(0 0.765625)"/>
      <use xlink:href="#DejaVuSans-Oblique-7a" transform="translate(83.789062 0.765625)"/>
      <use xlink:href="#DejaVuSans-32" transform="translate(140.745443 39.046875)scale(0.7)"/>
     </g>
    </g>
   </g>
  </g>
 </g>
 <defs>
  <clipPath id="p4657dec8a1">
   <rect x="80.498437" y="31.43625" width="357.12" height="266.112"/>
  </clipPath>
 </defs>
</svg>
