<?xml version="1.0" encoding="utf-8" standalone="no"?>
<!DOCTYPE svg PUBLIC "-//W3C//DTD SVG 1.1//EN"
  "http://www.w3.org/Graphics/SVG/1.1/DTD/svg11.dtd">
<svg xmlns:xlink="http://www.w3.org/1999/xlink" width="431.35125pt" height="349.665437pt" viewBox="0 0 431.35125 349.665437" xmlns="http://www.w3.org/2000/svg" version="1.1">
 <defs>
  <style type="text/css">*{stroke-linejoin: round; stroke-linecap: butt}</style>
 </defs>
 <g id="figure_1">
  <g id="patch_1">
   <path d="M 0 349.665437 
L 431.35125 349.665437 
L 431.35125 0 
L 0 0 
L 0 349.665437 
z
" style="fill: none"/>
  </g>
  <g id="axes_1">
   <g id="patch_2">
    <path d="M 67.03125 297.54825 
L 424.15125 297.54825 
L 424.15125 31.43625 
L 67.03125 31.43625 
L 67.03125 297.54825 
z
" style="fill: none"/>
   </g>
   <g id="matplotlib.axis_1">
    <g id="xtick_1">
     <g id="line2d_1">
      <path d="M 98.96156 297.54825 
L 98.96156 31.43625 
" clip-path="url(#p16dad856f7)" style="fill: none; stroke: #b0b0b0; stroke-width: 0.8; stroke-linecap: square"/>
     </g>
     <g id="line2d_2">
      <defs>
       <path id="md39032bed2" d="M 0 0 
L 0 3.5 
" style="stroke: #000000; stroke-width: 0.8"/>
      </defs>
      <g>
       <use xlink:href="#md39032bed2" x="98.96156" y="297.54825" style="stroke: #000000; stroke-width: 0.8"/>
      </g>
     </g>
     <g id="text_1">
      <!-- −3000 -->
      <g transform="translate(73.589294 315.945906)scale(0.15 -0.15)">
       <defs>
        <path id="DejaVuSans-2212" d="M 678 2272 
L 4684 2272 
L 4684 1741 
L 678 1741 
L 678 2272 
z
" transform="scale(0.015625)"/>
        <path id="DejaVuSans-33" d="M 2597 2516 
Q 3050 2419 3304 2112 
Q 3559 1806 3559 1356 
Q 3559 666 3084 287 
Q 2609 -91 1734 -91 
Q 1441 -91 1130 -33 
Q 819 25 488 141 
L 488 750 
Q 750 597 1062 519 
Q 1375 441 1716 441 
Q 2309 441 2620 675 
Q 2931 909 2931 1356 
Q 2931 1769 2642 2001 
Q 2353 2234 1838 2234 
L 1294 2234 
L 1294 2753 
L 1863 2753 
Q 2328 2753 2575 2939 
Q 2822 3125 2822 3475 
Q 2822 3834 2567 4026 
Q 2313 4219 1838 4219 
Q 1578 4219 1281 4162 
Q 984 4106 628 3988 
L 628 4550 
Q 988 4650 1302 4700 
Q 1616 4750 1894 4750 
Q 2613 4750 3031 4423 
Q 3450 4097 3450 3541 
Q 3450 3153 3228 2886 
Q 3006 2619 2597 2516 
z
" transform="scale(0.015625)"/>
        <path id="DejaVuSans-30" d="M 2034 4250 
Q 1547 4250 1301 3770 
Q 1056 3291 1056 2328 
Q 1056 1369 1301 889 
Q 1547 409 2034 409 
Q 2525 409 2770 889 
Q 3016 1369 3016 2328 
Q 3016 3291 2770 3770 
Q 2525 4250 2034 4250 
z
M 2034 4750 
Q 2819 4750 3233 4129 
Q 3647 3509 3647 2328 
Q 3647 1150 3233 529 
Q 2819 -91 2034 -91 
Q 1250 -91 836 529 
Q 422 1150 422 2328 
Q 422 3509 836 4129 
Q 1250 4750 2034 4750 
z
" transform="scale(0.015625)"/>
       </defs>
       <use xlink:href="#DejaVuSans-2212"/>
       <use xlink:href="#DejaVuSans-33" x="83.789062"/>
       <use xlink:href="#DejaVuSans-30" x="147.412109"/>
       <use xlink:href="#DejaVuSans-30" x="211.035156"/>
       <use xlink:href="#DejaVuSans-30" x="274.658203"/>
      </g>
     </g>
    </g>
    <g id="xtick_2">
     <g id="line2d_3">
      <path d="M 170.314207 297.54825 
L 170.314207 31.43625 
" clip-path="url(#p16dad856f7)" style="fill: none; stroke: #b0b0b0; stroke-width: 0.8; stroke-linecap: square"/>
     </g>
     <g id="line2d_4">
      <g>
       <use xlink:href="#md39032bed2" x="170.314207" y="297.54825" style="stroke: #000000; stroke-width: 0.8"/>
      </g>
     </g>
     <g id="text_2">
      <!-- −2000 -->
      <g transform="translate(144.941941 315.945906)scale(0.15 -0.15)">
       <defs>
        <path id="DejaVuSans-32" d="M 1228 531 
L 3431 531 
L 3431 0 
L 469 0 
L 469 531 
Q 828 903 1448 1529 
Q 2069 2156 2228 2338 
Q 2531 2678 2651 2914 
Q 2772 3150 2772 3378 
Q 2772 3750 2511 3984 
Q 2250 4219 1831 4219 
Q 1534 4219 1204 4116 
Q 875 4013 500 3803 
L 500 4441 
Q 881 4594 1212 4672 
Q 1544 4750 1819 4750 
Q 2544 4750 2975 4387 
Q 3406 4025 3406 3419 
Q 3406 3131 3298 2873 
Q 3191 2616 2906 2266 
Q 2828 2175 2409 1742 
Q 1991 1309 1228 531 
z
" transform="scale(0.015625)"/>
       </defs>
       <use xlink:href="#DejaVuSans-2212"/>
       <use xlink:href="#DejaVuSans-32" x="83.789062"/>
       <use xlink:href="#DejaVuSans-30" x="147.412109"/>
       <use xlink:href="#DejaVuSans-30" x="211.035156"/>
       <use xlink:href="#DejaVuSans-30" x="274.658203"/>
      </g>
     </g>
    </g>
    <g id="xtick_3">
     <g id="line2d_5">
      <path d="M 241.666854 297.54825 
L 241.666854 31.43625 
" clip-path="url(#p16dad856f7)" style="fill: none; stroke: #b0b0b0; stroke-width: 0.8; stroke-linecap: square"/>
     </g>
     <g id="line2d_6">
      <g>
       <use xlink:href="#md39032bed2" x="241.666854" y="297.54825" style="stroke: #000000; stroke-width: 0.8"/>
      </g>
     </g>
     <g id="text_3">
      <!-- −1000 -->
      <g transform="translate(216.294589 315.945906)scale(0.15 -0.15)">
       <defs>
        <path id="DejaVuSans-31" d="M 794 531 
L 1825 531 
L 1825 4091 
L 703 3866 
L 703 4441 
L 1819 4666 
L 2450 4666 
L 2450 531 
L 3481 531 
L 3481 0 
L 794 0 
L 794 531 
z
" transform="scale(0.015625)"/>
       </defs>
       <use xlink:href="#DejaVuSans-2212"/>
       <use xlink:href="#DejaVuSans-31" x="83.789062"/>
       <use xlink:href="#DejaVuSans-30" x="147.412109"/>
       <use xlink:href="#DejaVuSans-30" x="211.035156"/>
       <use xlink:href="#DejaVuSans-30" x="274.658203"/>
      </g>
     </g>
    </g>
    <g id="xtick_4">
     <g id="line2d_7">
      <path d="M 313.019502 297.54825 
L 313.019502 31.43625 
" clip-path="url(#p16dad856f7)" style="fill: none; stroke: #b0b0b0; stroke-width: 0.8; stroke-linecap: square"/>
     </g>
     <g id="line2d_8">
      <g>
       <use xlink:href="#md39032bed2" x="313.019502" y="297.54825" style="stroke: #000000; stroke-width: 0.8"/>
      </g>
     </g>
     <g id="text_4">
      <!-- 0 -->
      <g transform="translate(308.247627 315.945906)scale(0.15 -0.15)">
       <use xlink:href="#DejaVuSans-30"/>
      </g>
     </g>
    </g>
    <g id="xtick_5">
     <g id="line2d_9">
      <path d="M 384.372149 297.54825 
L 384.372149 31.43625 
" clip-path="url(#p16dad856f7)" style="fill: none; stroke: #b0b0b0; stroke-width: 0.8; stroke-linecap: square"/>
     </g>
     <g id="line2d_10">
      <g>
       <use xlink:href="#md39032bed2" x="384.372149" y="297.54825" style="stroke: #000000; stroke-width: 0.8"/>
      </g>
     </g>
     <g id="text_5">
      <!-- 1000 -->
      <g transform="translate(365.284649 315.945906)scale(0.15 -0.15)">
       <use xlink:href="#DejaVuSans-31"/>
       <use xlink:href="#DejaVuSans-30" x="63.623047"/>
       <use xlink:href="#DejaVuSans-30" x="127.246094"/>
       <use xlink:href="#DejaVuSans-30" x="190.869141"/>
      </g>
     </g>
    </g>
    <g id="text_6">
     <!-- X ($\mu m$) -->
     <g transform="translate(211.59125 338.265437)scale(0.2 -0.2)">
      <defs>
       <path id="DejaVuSans-58" d="M 403 4666 
L 1081 4666 
L 2241 2931 
L 3406 4666 
L 4084 4666 
L 2584 2425 
L 4184 0 
L 3506 0 
L 2194 1984 
L 872 0 
L 191 0 
L 1856 2491 
L 403 4666 
z
" transform="scale(0.015625)"/>
       <path id="DejaVuSans-20" transform="scale(0.015625)"/>
       <path id="DejaVuSans-28" d="M 1984 4856 
Q 1566 4138 1362 3434 
Q 1159 2731 1159 2009 
Q 1159 1288 1364 580 
Q 1569 -128 1984 -844 
L 1484 -844 
Q 1016 -109 783 600 
Q 550 1309 550 2009 
Q 550 2706 781 3412 
Q 1013 4119 1484 4856 
L 1984 4856 
z
" transform="scale(0.015625)"/>
       <path id="DejaVuSans-Oblique-3bc" d="M -84 -1331 
L 856 3500 
L 1434 3500 
L 1009 1322 
Q 997 1256 987 1175 
Q 978 1094 978 1013 
Q 978 722 1161 565 
Q 1344 409 1684 409 
Q 2147 409 2431 671 
Q 2716 934 2816 1459 
L 3213 3500 
L 3788 3500 
L 3266 809 
Q 3253 750 3248 706 
Q 3244 663 3244 628 
Q 3244 531 3283 486 
Q 3322 441 3406 441 
Q 3438 441 3492 456 
Q 3547 472 3647 513 
L 3559 50 
Q 3422 -19 3297 -55 
Q 3172 -91 3053 -91 
Q 2847 -91 2730 40 
Q 2613 172 2613 403 
Q 2438 153 2195 31 
Q 1953 -91 1625 -91 
Q 1334 -91 1117 43 
Q 900 178 831 397 
L 494 -1331 
L -84 -1331 
z
" transform="scale(0.015625)"/>
       <path id="DejaVuSans-Oblique-6d" d="M 5747 2113 
L 5338 0 
L 4763 0 
L 5166 2094 
Q 5191 2228 5203 2325 
Q 5216 2422 5216 2491 
Q 5216 2772 5059 2928 
Q 4903 3084 4622 3084 
Q 4203 3084 3875 2770 
Q 3547 2456 3450 1953 
L 3066 0 
L 2491 0 
L 2900 2094 
Q 2925 2209 2937 2307 
Q 2950 2406 2950 2484 
Q 2950 2769 2794 2926 
Q 2638 3084 2363 3084 
Q 1938 3084 1609 2770 
Q 1281 2456 1184 1953 
L 800 0 
L 225 0 
L 909 3500 
L 1484 3500 
L 1375 2956 
Q 1609 3263 1923 3423 
Q 2238 3584 2597 3584 
Q 2978 3584 3223 3384 
Q 3469 3184 3519 2828 
Q 3781 3197 4126 3390 
Q 4472 3584 4856 3584 
Q 5306 3584 5551 3325 
Q 5797 3066 5797 2591 
Q 5797 2488 5784 2364 
Q 5772 2241 5747 2113 
z
" transform="scale(0.015625)"/>
       <path id="DejaVuSans-29" d="M 513 4856 
L 1013 4856 
Q 1481 4119 1714 3412 
Q 1947 2706 1947 2009 
Q 1947 1309 1714 600 
Q 1481 -109 1013 -844 
L 513 -844 
Q 928 -128 1133 580 
Q 1338 1288 1338 2009 
Q 1338 2731 1133 3434 
Q 928 4138 513 4856 
z
" transform="scale(0.015625)"/>
      </defs>
      <use xlink:href="#DejaVuSans-58" transform="translate(0 0.125)"/>
      <use xlink:href="#DejaVuSans-20" transform="translate(68.505859 0.125)"/>
      <use xlink:href="#DejaVuSans-28" transform="translate(100.292969 0.125)"/>
      <use xlink:href="#DejaVuSans-Oblique-3bc" transform="translate(139.306641 0.125)"/>
      <use xlink:href="#DejaVuSans-Oblique-6d" transform="translate(202.929688 0.125)"/>
      <use xlink:href="#DejaVuSans-29" transform="translate(300.341797 0.125)"/>
     </g>
    </g>
   </g>
   <g id="matplotlib.axis_2">
    <g id="ytick_1">
     <g id="line2d_11">
      <path d="M 67.03125 285.429312 
L 424.15125 285.429312 
" clip-path="url(#p16dad856f7)" style="fill: none; stroke: #b0b0b0; stroke-width: 0.8; stroke-linecap: square"/>
     </g>
     <g id="line2d_12">
      <defs>
       <path id="m6f3f5b6aff" d="M 0 0 
L -3.5 0 
" style="stroke: #000000; stroke-width: 0.8"/>
      </defs>
      <g>
       <use xlink:href="#m6f3f5b6aff" x="67.03125" y="285.429312" style="stroke: #000000; stroke-width: 0.8"/>
      </g>
     </g>
     <g id="text_7">
      <!-- 0 -->
      <g transform="translate(50.4875 291.12814)scale(0.15 -0.15)">
       <use xlink:href="#DejaVuSans-30"/>
      </g>
     </g>
    </g>
    <g id="ytick_2">
     <g id="line2d_13">
      <path d="M 67.03125 249.680312 
L 424.15125 249.680312 
" clip-path="url(#p16dad856f7)" style="fill: none; stroke: #b0b0b0; stroke-width: 0.8; stroke-linecap: square"/>
     </g>
     <g id="line2d_14">
      <g>
       <use xlink:href="#m6f3f5b6aff" x="67.03125" y="249.680312" style="stroke: #000000; stroke-width: 0.8"/>
      </g>
     </g>
     <g id="text_8">
      <!-- 20 -->
      <g transform="translate(40.94375 255.37914)scale(0.15 -0.15)">
       <use xlink:href="#DejaVuSans-32"/>
       <use xlink:href="#DejaVuSans-30" x="63.623047"/>
      </g>
     </g>
    </g>
    <g id="ytick_3">
     <g id="line2d_15">
      <path d="M 67.03125 213.931312 
L 424.15125 213.931312 
" clip-path="url(#p16dad856f7)" style="fill: none; stroke: #b0b0b0; stroke-width: 0.8; stroke-linecap: square"/>
     </g>
     <g id="line2d_16">
      <g>
       <use xlink:href="#m6f3f5b6aff" x="67.03125" y="213.931312" style="stroke: #000000; stroke-width: 0.8"/>
      </g>
     </g>
     <g id="text_9">
      <!-- 40 -->
      <g transform="translate(40.94375 219.63014)scale(0.15 -0.15)">
       <defs>
        <path id="DejaVuSans-34" d="M 2419 4116 
L 825 1625 
L 2419 1625 
L 2419 4116 
z
M 2253 4666 
L 3047 4666 
L 3047 1625 
L 3713 1625 
L 3713 1100 
L 3047 1100 
L 3047 0 
L 2419 0 
L 2419 1100 
L 313 1100 
L 313 1709 
L 2253 4666 
z
" transform="scale(0.015625)"/>
       </defs>
       <use xlink:href="#DejaVuSans-34"/>
       <use xlink:href="#DejaVuSans-30" x="63.623047"/>
      </g>
     </g>
    </g>
    <g id="ytick_4">
     <g id="line2d_17">
      <path d="M 67.03125 178.182312 
L 424.15125 178.182312 
" clip-path="url(#p16dad856f7)" style="fill: none; stroke: #b0b0b0; stroke-width: 0.8; stroke-linecap: square"/>
     </g>
     <g id="line2d_18">
      <g>
       <use xlink:href="#m6f3f5b6aff" x="67.03125" y="178.182312" style="stroke: #000000; stroke-width: 0.8"/>
      </g>
     </g>
     <g id="text_10">
      <!-- 60 -->
      <g transform="translate(40.94375 183.88114)scale(0.15 -0.15)">
       <defs>
        <path id="DejaVuSans-36" d="M 2113 2584 
Q 1688 2584 1439 2293 
Q 1191 2003 1191 1497 
Q 1191 994 1439 701 
Q 1688 409 2113 409 
Q 2538 409 2786 701 
Q 3034 994 3034 1497 
Q 3034 2003 2786 2293 
Q 2538 2584 2113 2584 
z
M 3366 4563 
L 3366 3988 
Q 3128 4100 2886 4159 
Q 2644 4219 2406 4219 
Q 1781 4219 1451 3797 
Q 1122 3375 1075 2522 
Q 1259 2794 1537 2939 
Q 1816 3084 2150 3084 
Q 2853 3084 3261 2657 
Q 3669 2231 3669 1497 
Q 3669 778 3244 343 
Q 2819 -91 2113 -91 
Q 1303 -91 875 529 
Q 447 1150 447 2328 
Q 447 3434 972 4092 
Q 1497 4750 2381 4750 
Q 2619 4750 2861 4703 
Q 3103 4656 3366 4563 
z
" transform="scale(0.015625)"/>
       </defs>
       <use xlink:href="#DejaVuSans-36"/>
       <use xlink:href="#DejaVuSans-30" x="63.623047"/>
      </g>
     </g>
    </g>
    <g id="ytick_5">
     <g id="line2d_19">
      <path d="M 67.03125 142.433312 
L 424.15125 142.433312 
" clip-path="url(#p16dad856f7)" style="fill: none; stroke: #b0b0b0; stroke-width: 0.8; stroke-linecap: square"/>
     </g>
     <g id="line2d_20">
      <g>
       <use xlink:href="#m6f3f5b6aff" x="67.03125" y="142.433312" style="stroke: #000000; stroke-width: 0.8"/>
      </g>
     </g>
     <g id="text_11">
      <!-- 80 -->
      <g transform="translate(40.94375 148.13214)scale(0.15 -0.15)">
       <defs>
        <path id="DejaVuSans-38" d="M 2034 2216 
Q 1584 2216 1326 1975 
Q 1069 1734 1069 1313 
Q 1069 891 1326 650 
Q 1584 409 2034 409 
Q 2484 409 2743 651 
Q 3003 894 3003 1313 
Q 3003 1734 2745 1975 
Q 2488 2216 2034 2216 
z
M 1403 2484 
Q 997 2584 770 2862 
Q 544 3141 544 3541 
Q 544 4100 942 4425 
Q 1341 4750 2034 4750 
Q 2731 4750 3128 4425 
Q 3525 4100 3525 3541 
Q 3525 3141 3298 2862 
Q 3072 2584 2669 2484 
Q 3125 2378 3379 2068 
Q 3634 1759 3634 1313 
Q 3634 634 3220 271 
Q 2806 -91 2034 -91 
Q 1263 -91 848 271 
Q 434 634 434 1313 
Q 434 1759 690 2068 
Q 947 2378 1403 2484 
z
M 1172 3481 
Q 1172 3119 1398 2916 
Q 1625 2713 2034 2713 
Q 2441 2713 2670 2916 
Q 2900 3119 2900 3481 
Q 2900 3844 2670 4047 
Q 2441 4250 2034 4250 
Q 1625 4250 1398 4047 
Q 1172 3844 1172 3481 
z
" transform="scale(0.015625)"/>
       </defs>
       <use xlink:href="#DejaVuSans-38"/>
       <use xlink:href="#DejaVuSans-30" x="63.623047"/>
      </g>
     </g>
    </g>
    <g id="ytick_6">
     <g id="line2d_21">
      <path d="M 67.03125 106.684311 
L 424.15125 106.684311 
" clip-path="url(#p16dad856f7)" style="fill: none; stroke: #b0b0b0; stroke-width: 0.8; stroke-linecap: square"/>
     </g>
     <g id="line2d_22">
      <g>
       <use xlink:href="#m6f3f5b6aff" x="67.03125" y="106.684311" style="stroke: #000000; stroke-width: 0.8"/>
      </g>
     </g>
     <g id="text_12">
      <!-- 100 -->
      <g transform="translate(31.4 112.38314)scale(0.15 -0.15)">
       <use xlink:href="#DejaVuSans-31"/>
       <use xlink:href="#DejaVuSans-30" x="63.623047"/>
       <use xlink:href="#DejaVuSans-30" x="127.246094"/>
      </g>
     </g>
    </g>
    <g id="ytick_7">
     <g id="line2d_23">
      <path d="M 67.03125 70.935311 
L 424.15125 70.935311 
" clip-path="url(#p16dad856f7)" style="fill: none; stroke: #b0b0b0; stroke-width: 0.8; stroke-linecap: square"/>
     </g>
     <g id="line2d_24">
      <g>
       <use xlink:href="#m6f3f5b6aff" x="67.03125" y="70.935311" style="stroke: #000000; stroke-width: 0.8"/>
      </g>
     </g>
     <g id="text_13">
      <!-- 120 -->
      <g transform="translate(31.4 76.634139)scale(0.15 -0.15)">
       <use xlink:href="#DejaVuSans-31"/>
       <use xlink:href="#DejaVuSans-32" x="63.623047"/>
       <use xlink:href="#DejaVuSans-30" x="127.246094"/>
      </g>
     </g>
    </g>
    <g id="ytick_8">
     <g id="line2d_25">
      <path d="M 67.03125 35.186311 
L 424.15125 35.186311 
" clip-path="url(#p16dad856f7)" style="fill: none; stroke: #b0b0b0; stroke-width: 0.8; stroke-linecap: square"/>
     </g>
     <g id="line2d_26">
      <g>
       <use xlink:href="#m6f3f5b6aff" x="67.03125" y="35.186311" style="stroke: #000000; stroke-width: 0.8"/>
      </g>
     </g>
     <g id="text_14">
      <!-- 140 -->
      <g transform="translate(31.4 40.885139)scale(0.15 -0.15)">
       <use xlink:href="#DejaVuSans-31"/>
       <use xlink:href="#DejaVuSans-34" x="63.623047"/>
       <use xlink:href="#DejaVuSans-30" x="127.246094"/>
      </g>
     </g>
    </g>
    <g id="text_15">
     <!-- $kHz^2/V^2$ -->
     <g transform="translate(23.240625 203.89225)rotate(-90)scale(0.2 -0.2)">
      <defs>
       <path id="DejaVuSans-Oblique-6b" d="M 1172 4863 
L 1747 4863 
L 1197 2028 
L 3169 3500 
L 3916 3500 
L 1716 1825 
L 3322 0 
L 2625 0 
L 1131 1709 
L 800 0 
L 225 0 
L 1172 4863 
z
" transform="scale(0.015625)"/>
       <path id="DejaVuSans-Oblique-48" d="M 1081 4666 
L 1716 4666 
L 1344 2753 
L 3634 2753 
L 4006 4666 
L 4641 4666 
L 3731 0 
L 3097 0 
L 3531 2222 
L 1241 2222 
L 806 0 
L 172 0 
L 1081 4666 
z
" transform="scale(0.015625)"/>
       <path id="DejaVuSans-Oblique-7a" d="M 744 3500 
L 3475 3500 
L 3372 2975 
L 738 459 
L 2913 459 
L 2822 0 
L -19 0 
L 84 525 
L 2719 3041 
L 653 3041 
L 744 3500 
z
" transform="scale(0.015625)"/>
       <path id="DejaVuSans-2f" d="M 1625 4666 
L 2156 4666 
L 531 -594 
L 0 -594 
L 1625 4666 
z
" transform="scale(0.015625)"/>
       <path id="DejaVuSans-Oblique-56" d="M 1319 0 
L 500 4666 
L 1119 4666 
L 1797 653 
L 4063 4666 
L 4750 4666 
L 2053 0 
L 1319 0 
z
" transform="scale(0.015625)"/>
      </defs>
      <use xlink:href="#DejaVuSans-Oblique-6b" transform="translate(0 0.765625)"/>
      <use xlink:href="#DejaVuSans-Oblique-48" transform="translate(57.910156 0.765625)"/>
      <use xlink:href="#DejaVuSans-Oblique-7a" transform="translate(133.105469 0.765625)"/>
      <use xlink:href="#DejaVuSans-32" transform="translate(190.061849 39.046875)scale(0.7)"/>
      <use xlink:href="#DejaVuSans-2f" transform="translate(237.332357 0.765625)"/>
      <use xlink:href="#DejaVuSans-Oblique-56" transform="translate(271.023763 0.765625)"/>
      <use xlink:href="#DejaVuSans-32" transform="translate(346.448737 39.046875)scale(0.7)"/>
     </g>
    </g>
   </g>
   <g id="line2d_27">
    <path d="M 83.263977 95.399759 
L 83.906151 94.92788 
L 84.476972 94.672239 
L 86.83161 94.676521 
L 88.401368 94.772653 
L 89.186247 94.721196 
L 90.756005 94.443761 
L 93.110643 94.011587 
L 94.10958 94.01019 
L 96.53557 94.341201 
L 97.748565 94.636177 
L 99.532381 95.388687 
L 102.029724 96.722342 
L 104.741124 97.635916 
L 105.526003 97.783605 
L 107.59523 97.846147 
L 116.942427 97.389283 
L 118.226774 97.5236 
L 119.225712 97.852447 
L 120.153296 98.426246 
L 120.938175 99.150855 
L 121.865759 100.345477 
L 123.22146 102.633208 
L 125.076629 105.827315 
L 126.075566 107.05658 
L 126.860445 107.708477 
L 127.716677 108.132584 
L 128.644261 108.329645 
L 129.714551 108.259108 
L 130.927546 107.892919 
L 131.997835 107.395839 
L 134.352473 106.411927 
L 135.779526 106.063485 
L 138.276868 105.780732 
L 139.775274 105.75891 
L 144.769959 105.589287 
L 149.90735 105.719828 
L 151.548461 105.786461 
L 154.045803 105.704514 
L 155.187446 105.696836 
L 156.757204 105.639039 
L 159.61131 105.56431 
L 161.680537 105.519327 
L 165.462227 105.180576 
L 166.88928 105.005065 
L 169.386623 104.730245 
L 171.669907 104.476166 
L 173.525076 104.131393 
L 181.587925 102.236028 
L 183.157684 102.128586 
L 184.227973 102.248655 
L 185.298263 102.613958 
L 186.368553 103.261689 
L 187.36749 104.153445 
L 188.651837 105.62862 
L 189.936185 107.395141 
L 194.217344 113.329183 
L 195.216281 114.295352 
L 195.787102 114.685507 
L 196.429276 114.869738 
L 197.000097 114.813538 
L 197.784976 114.316521 
L 198.355797 113.609353 
L 199.140677 112.275689 
L 200.353672 109.180159 
L 201.709372 104.606655 
L 205.491062 91.287259 
L 206.418647 89.14018 
L 207.132173 88.003174 
L 207.560289 87.621394 
L 208.059757 87.333273 
L 208.416521 87.324259 
L 209.058695 87.569353 
L 209.914926 88.232869 
L 211.270627 89.385906 
L 212.198211 89.88467 
L 213.197148 90.12216 
L 214.838259 89.977155 
L 217.621012 89.52368 
L 218.619949 89.710976 
L 219.832944 90.217523 
L 223.257871 91.85911 
L 225.327098 92.540738 
L 226.682798 92.728616 
L 228.038499 92.688761 
L 229.96502 92.604774 
L 232.533716 92.664623 
L 234.817 92.892147 
L 245.59125 93.99668 
L 247.945887 93.883248 
L 250.086467 93.433422 
L 251.51352 92.827476 
L 253.297336 91.893467 
L 255.081152 91.151806 
L 257.935258 90.464 
L 259.647722 90.389803 
L 263.786175 90.480046 
L 264.856465 90.745169 
L 266.568928 91.413475 
L 269.637092 92.642427 
L 270.850087 92.839941 
L 272.776609 92.85125 
L 288.759602 91.892003 
L 291.613708 91.40868 
L 295.324045 90.519729 
L 296.608393 90.511229 
L 298.106798 90.701103 
L 301.10361 91.417312 
L 304.100421 92.471452 
L 305.598826 92.877017 
L 307.168585 93.052826 
L 311.449744 93.273159 
L 313.733028 93.164499 
L 315.65955 92.915866 
L 316.729839 92.512636 
L 317.657424 91.902432 
L 318.442303 91.121636 
L 319.227182 90.036246 
L 320.154766 88.301157 
L 321.296409 85.648945 
L 322.93752 81.967026 
L 323.793751 80.582923 
L 324.649983 79.651531 
L 325.506215 79.07182 
L 326.505152 78.682282 
L 327.646794 78.48268 
L 329.573316 78.510006 
L 331.428485 78.538739 
L 335.138822 78.363886 
L 337.921576 77.990138 
L 340.062155 77.780976 
L 345.627662 77.495404 
L 360.897128 74.742039 
L 362.609592 74.151515 
L 363.893939 73.667522 
L 365.891813 73.105229 
L 367.318866 72.914428 
L 369.102683 72.862021 
L 370.601088 72.706308 
L 373.312489 72.084239 
L 373.88331 71.962875 
L 375.952537 71.403349 
L 376.737416 71.116366 
L 379.591522 70.16072 
L 381.874806 69.407 
L 385.299734 67.956926 
L 387.868429 66.688661 
L 391.293356 64.816248 
L 393.29123 63.725899 
L 394.932341 62.870063 
L 397.144273 61.167439 
L 398.642679 59.697467 
L 399.998379 58.121908 
L 401.068669 56.57432 
L 402.781132 53.539337 
L 404.707654 49.5654 
L 405.064417 48.787401 
L 407.204996 44.549284 
L 407.918523 43.53225 
L 407.918523 43.53225 
" clip-path="url(#p16dad856f7)" style="fill: none; stroke: #1f77b4; stroke-width: 1.5; stroke-linecap: square"/>
   </g>
   <g id="line2d_28">
    <path d="M 83.263977 285.445684 
L 135.850878 285.428508 
L 192.861644 285.368066 
L 200.924493 285.350336 
L 209.558163 285.445427 
L 242.879849 285.42948 
L 407.918523 285.364571 
L 407.918523 285.364571 
" clip-path="url(#p16dad856f7)" style="fill: none; stroke: #ff7f0e; stroke-width: 1.5; stroke-linecap: square"/>
   </g>
   <g id="line2d_29">
    <path d="M 83.263977 100.204253 
L 84.476972 98.481359 
L 85.333204 97.536156 
L 86.688904 96.503074 
L 88.330015 95.781905 
L 89.328952 95.560816 
L 90.541947 95.488082 
L 96.464217 95.621554 
L 99.889144 96.124585 
L 103.100013 96.449374 
L 108.023346 97.395078 
L 109.807162 97.501469 
L 111.519626 97.585447 
L 115.729432 97.972065 
L 117.013779 98.322825 
L 118.583538 99.012213 
L 119.939238 99.832135 
L 122.079817 101.604772 
L 123.792281 103.005503 
L 126.646387 105.092605 
L 127.788029 105.754586 
L 128.786966 106.126688 
L 129.714551 106.309358 
L 130.856193 106.403951 
L 134.067062 106.216044 
L 136.493052 105.866332 
L 141.630443 105.517072 
L 144.984017 105.455512 
L 148.123534 105.495628 
L 150.264113 105.454844 
L 153.332277 105.490227 
L 160.182131 105.292896 
L 170.456912 104.627458 
L 171.955318 104.484524 
L 174.381308 104.197488 
L 175.808361 103.973233 
L 176.807298 103.853843 
L 182.729568 103.349666 
L 185.512321 103.70621 
L 186.653963 104.037337 
L 192.790291 106.399726 
L 193.717875 106.426139 
L 194.288697 106.31412 
L 195.358986 105.833844 
L 196.786039 104.720469 
L 198.712561 102.632853 
L 201.067198 99.569611 
L 202.20884 97.965111 
L 204.848888 94.43966 
L 206.061883 93.232928 
L 206.918115 92.69534 
L 209.344105 92.115 
L 210.485748 92.233459 
L 211.841448 92.695051 
L 213.910675 93.455754 
L 215.551785 93.770724 
L 217.121544 93.874348 
L 218.619949 93.754651 
L 223.043813 93.290941 
L 231.962894 93.136508 
L 236.814874 93.242259 
L 239.526275 93.35179 
L 245.377192 93.374511 
L 247.161008 93.272307 
L 249.08753 93.002402 
L 250.086467 92.759752 
L 256.722263 91.225393 
L 260.860717 90.850617 
L 262.57318 90.99391 
L 267.710571 91.803747 
L 269.637092 92.097956 
L 273.846898 92.526245 
L 284.335738 92.064765 
L 296.394335 90.945285 
L 299.177088 91.140441 
L 301.460373 91.466149 
L 304.314479 91.881999 
L 309.523222 92.288099 
L 313.304912 91.816058 
L 315.231434 91.048823 
L 316.515781 90.284646 
L 317.657424 89.381027 
L 319.084477 87.934224 
L 324.507278 82.204033 
L 325.791626 81.067579 
L 326.861915 80.391707 
L 328.360321 79.732858 
L 330.429548 79.098125 
L 331.642543 78.909076 
L 333.497712 78.693639 
L 336.494523 78.284752 
L 339.134571 78.020122 
L 342.488145 77.675311 
L 349.694762 76.771841 
L 353.619158 76.145847 
L 356.259206 75.640632 
L 357.543554 75.43977 
L 361.824713 74.401852 
L 364.46476 73.81979 
L 366.105871 73.477747 
L 368.175098 73.089707 
L 368.531861 72.995681 
L 369.958914 72.670894 
L 372.028141 72.33052 
L 373.455194 72.031752 
L 373.88331 71.894799 
L 378.378527 70.720073 
L 379.80558 70.221733 
L 382.731038 69.254628 
L 383.230507 69.097517 
L 386.584081 67.740254 
L 387.08355 67.549963 
L 387.868429 67.214398 
L 389.010071 66.67932 
L 389.723598 66.32867 
L 390.508477 65.969569 
L 391.293356 65.625803 
L 391.578766 65.496544 
L 392.22094 65.216464 
L 394.432872 64.0033 
L 396.002631 63.054369 
L 399.427558 60.545946 
L 401.568137 58.676293 
L 401.782195 58.486801 
L 401.853548 58.276359 
L 401.9249 58.399107 
L 402.424369 57.938134 
L 405.706591 55.577405 
L 405.777943 55.593604 
L 406.063354 55.359292 
L 406.348764 55.338321 
L 406.634175 55.292192 
L 406.919586 55.277782 
L 407.918523 55.395145 
L 407.918523 55.395145 
" clip-path="url(#p16dad856f7)" style="fill: none; stroke: #2ca02c; stroke-width: 1.5; stroke-linecap: square"/>
   </g>
   <g id="patch_3">
    <path d="M 67.03125 297.54825 
L 67.03125 31.43625 
" style="fill: none; stroke: #000000; stroke-width: 0.8; stroke-linejoin: miter; stroke-linecap: square"/>
   </g>
   <g id="patch_4">
    <path d="M 424.15125 297.54825 
L 424.15125 31.43625 
" style="fill: none; stroke: #000000; stroke-width: 0.8; stroke-linejoin: miter; stroke-linecap: square"/>
   </g>
   <g id="patch_5">
    <path d="M 67.03125 297.54825 
L 424.15125 297.54825 
" style="fill: none; stroke: #000000; stroke-width: 0.8; stroke-linejoin: miter; stroke-linecap: square"/>
   </g>
   <g id="patch_6">
    <path d="M 67.03125 31.43625 
L 424.15125 31.43625 
" style="fill: none; stroke: #000000; stroke-width: 0.8; stroke-linejoin: miter; stroke-linecap: square"/>
   </g>
   <g id="text_16">
    <!-- Ion Trap Potential Curvature -->
    <g transform="translate(77.90625 25.43625)scale(0.24 -0.24)">
     <defs>
      <path id="DejaVuSans-49" d="M 628 4666 
L 1259 4666 
L 1259 0 
L 628 0 
L 628 4666 
z
" transform="scale(0.015625)"/>
      <path id="DejaVuSans-6f" d="M 1959 3097 
Q 1497 3097 1228 2736 
Q 959 2375 959 1747 
Q 959 1119 1226 758 
Q 1494 397 1959 397 
Q 2419 397 2687 759 
Q 2956 1122 2956 1747 
Q 2956 2369 2687 2733 
Q 2419 3097 1959 3097 
z
M 1959 3584 
Q 2709 3584 3137 3096 
Q 3566 2609 3566 1747 
Q 3566 888 3137 398 
Q 2709 -91 1959 -91 
Q 1206 -91 779 398 
Q 353 888 353 1747 
Q 353 2609 779 3096 
Q 1206 3584 1959 3584 
z
" transform="scale(0.015625)"/>
      <path id="DejaVuSans-6e" d="M 3513 2113 
L 3513 0 
L 2938 0 
L 2938 2094 
Q 2938 2591 2744 2837 
Q 2550 3084 2163 3084 
Q 1697 3084 1428 2787 
Q 1159 2491 1159 1978 
L 1159 0 
L 581 0 
L 581 3500 
L 1159 3500 
L 1159 2956 
Q 1366 3272 1645 3428 
Q 1925 3584 2291 3584 
Q 2894 3584 3203 3211 
Q 3513 2838 3513 2113 
z
" transform="scale(0.015625)"/>
      <path id="DejaVuSans-54" d="M -19 4666 
L 3928 4666 
L 3928 4134 
L 2272 4134 
L 2272 0 
L 1638 0 
L 1638 4134 
L -19 4134 
L -19 4666 
z
" transform="scale(0.015625)"/>
      <path id="DejaVuSans-72" d="M 2631 2963 
Q 2534 3019 2420 3045 
Q 2306 3072 2169 3072 
Q 1681 3072 1420 2755 
Q 1159 2438 1159 1844 
L 1159 0 
L 581 0 
L 581 3500 
L 1159 3500 
L 1159 2956 
Q 1341 3275 1631 3429 
Q 1922 3584 2338 3584 
Q 2397 3584 2469 3576 
Q 2541 3569 2628 3553 
L 2631 2963 
z
" transform="scale(0.015625)"/>
      <path id="DejaVuSans-61" d="M 2194 1759 
Q 1497 1759 1228 1600 
Q 959 1441 959 1056 
Q 959 750 1161 570 
Q 1363 391 1709 391 
Q 2188 391 2477 730 
Q 2766 1069 2766 1631 
L 2766 1759 
L 2194 1759 
z
M 3341 1997 
L 3341 0 
L 2766 0 
L 2766 531 
Q 2569 213 2275 61 
Q 1981 -91 1556 -91 
Q 1019 -91 701 211 
Q 384 513 384 1019 
Q 384 1609 779 1909 
Q 1175 2209 1959 2209 
L 2766 2209 
L 2766 2266 
Q 2766 2663 2505 2880 
Q 2244 3097 1772 3097 
Q 1472 3097 1187 3025 
Q 903 2953 641 2809 
L 641 3341 
Q 956 3463 1253 3523 
Q 1550 3584 1831 3584 
Q 2591 3584 2966 3190 
Q 3341 2797 3341 1997 
z
" transform="scale(0.015625)"/>
      <path id="DejaVuSans-70" d="M 1159 525 
L 1159 -1331 
L 581 -1331 
L 581 3500 
L 1159 3500 
L 1159 2969 
Q 1341 3281 1617 3432 
Q 1894 3584 2278 3584 
Q 2916 3584 3314 3078 
Q 3713 2572 3713 1747 
Q 3713 922 3314 415 
Q 2916 -91 2278 -91 
Q 1894 -91 1617 61 
Q 1341 213 1159 525 
z
M 3116 1747 
Q 3116 2381 2855 2742 
Q 2594 3103 2138 3103 
Q 1681 3103 1420 2742 
Q 1159 2381 1159 1747 
Q 1159 1113 1420 752 
Q 1681 391 2138 391 
Q 2594 391 2855 752 
Q 3116 1113 3116 1747 
z
" transform="scale(0.015625)"/>
      <path id="DejaVuSans-50" d="M 1259 4147 
L 1259 2394 
L 2053 2394 
Q 2494 2394 2734 2622 
Q 2975 2850 2975 3272 
Q 2975 3691 2734 3919 
Q 2494 4147 2053 4147 
L 1259 4147 
z
M 628 4666 
L 2053 4666 
Q 2838 4666 3239 4311 
Q 3641 3956 3641 3272 
Q 3641 2581 3239 2228 
Q 2838 1875 2053 1875 
L 1259 1875 
L 1259 0 
L 628 0 
L 628 4666 
z
" transform="scale(0.015625)"/>
      <path id="DejaVuSans-74" d="M 1172 4494 
L 1172 3500 
L 2356 3500 
L 2356 3053 
L 1172 3053 
L 1172 1153 
Q 1172 725 1289 603 
Q 1406 481 1766 481 
L 2356 481 
L 2356 0 
L 1766 0 
Q 1100 0 847 248 
Q 594 497 594 1153 
L 594 3053 
L 172 3053 
L 172 3500 
L 594 3500 
L 594 4494 
L 1172 4494 
z
" transform="scale(0.015625)"/>
      <path id="DejaVuSans-65" d="M 3597 1894 
L 3597 1613 
L 953 1613 
Q 991 1019 1311 708 
Q 1631 397 2203 397 
Q 2534 397 2845 478 
Q 3156 559 3463 722 
L 3463 178 
Q 3153 47 2828 -22 
Q 2503 -91 2169 -91 
Q 1331 -91 842 396 
Q 353 884 353 1716 
Q 353 2575 817 3079 
Q 1281 3584 2069 3584 
Q 2775 3584 3186 3129 
Q 3597 2675 3597 1894 
z
M 3022 2063 
Q 3016 2534 2758 2815 
Q 2500 3097 2075 3097 
Q 1594 3097 1305 2825 
Q 1016 2553 972 2059 
L 3022 2063 
z
" transform="scale(0.015625)"/>
      <path id="DejaVuSans-69" d="M 603 3500 
L 1178 3500 
L 1178 0 
L 603 0 
L 603 3500 
z
M 603 4863 
L 1178 4863 
L 1178 4134 
L 603 4134 
L 603 4863 
z
" transform="scale(0.015625)"/>
      <path id="DejaVuSans-6c" d="M 603 4863 
L 1178 4863 
L 1178 0 
L 603 0 
L 603 4863 
z
" transform="scale(0.015625)"/>
      <path id="DejaVuSans-43" d="M 4122 4306 
L 4122 3641 
Q 3803 3938 3442 4084 
Q 3081 4231 2675 4231 
Q 1875 4231 1450 3742 
Q 1025 3253 1025 2328 
Q 1025 1406 1450 917 
Q 1875 428 2675 428 
Q 3081 428 3442 575 
Q 3803 722 4122 1019 
L 4122 359 
Q 3791 134 3420 21 
Q 3050 -91 2638 -91 
Q 1578 -91 968 557 
Q 359 1206 359 2328 
Q 359 3453 968 4101 
Q 1578 4750 2638 4750 
Q 3056 4750 3426 4639 
Q 3797 4528 4122 4306 
z
" transform="scale(0.015625)"/>
      <path id="DejaVuSans-75" d="M 544 1381 
L 544 3500 
L 1119 3500 
L 1119 1403 
Q 1119 906 1312 657 
Q 1506 409 1894 409 
Q 2359 409 2629 706 
Q 2900 1003 2900 1516 
L 2900 3500 
L 3475 3500 
L 3475 0 
L 2900 0 
L 2900 538 
Q 2691 219 2414 64 
Q 2138 -91 1772 -91 
Q 1169 -91 856 284 
Q 544 659 544 1381 
z
M 1991 3584 
L 1991 3584 
z
" transform="scale(0.015625)"/>
      <path id="DejaVuSans-76" d="M 191 3500 
L 800 3500 
L 1894 563 
L 2988 3500 
L 3597 3500 
L 2284 0 
L 1503 0 
L 191 3500 
z
" transform="scale(0.015625)"/>
     </defs>
     <use xlink:href="#DejaVuSans-49"/>
     <use xlink:href="#DejaVuSans-6f" x="29.492188"/>
     <use xlink:href="#DejaVuSans-6e" x="90.673828"/>
     <use xlink:href="#DejaVuSans-20" x="154.052734"/>
     <use xlink:href="#DejaVuSans-54" x="185.839844"/>
     <use xlink:href="#DejaVuSans-72" x="232.173828"/>
     <use xlink:href="#DejaVuSans-61" x="273.287109"/>
     <use xlink:href="#DejaVuSans-70" x="334.566406"/>
     <use xlink:href="#DejaVuSans-20" x="398.042969"/>
     <use xlink:href="#DejaVuSans-50" x="429.830078"/>
     <use xlink:href="#DejaVuSans-6f" x="486.507812"/>
     <use xlink:href="#DejaVuSans-74" x="547.689453"/>
     <use xlink:href="#DejaVuSans-65" x="586.898438"/>
     <use xlink:href="#DejaVuSans-6e" x="648.421875"/>
     <use xlink:href="#DejaVuSans-74" x="711.800781"/>
     <use xlink:href="#DejaVuSans-69" x="751.009766"/>
     <use xlink:href="#DejaVuSans-61" x="778.792969"/>
     <use xlink:href="#DejaVuSans-6c" x="840.072266"/>
     <use xlink:href="#DejaVuSans-20" x="867.855469"/>
     <use xlink:href="#DejaVuSans-43" x="899.642578"/>
     <use xlink:href="#DejaVuSans-75" x="969.466797"/>
     <use xlink:href="#DejaVuSans-72" x="1032.845703"/>
     <use xlink:href="#DejaVuSans-76" x="1073.958984"/>
     <use xlink:href="#DejaVuSans-61" x="1133.138672"/>
     <use xlink:href="#DejaVuSans-74" x="1194.417969"/>
     <use xlink:href="#DejaVuSans-75" x="1233.626953"/>
     <use xlink:href="#DejaVuSans-72" x="1297.005859"/>
     <use xlink:href="#DejaVuSans-65" x="1335.869141"/>
    </g>
   </g>
   <g id="legend_1">
    <g id="patch_7">
     <path d="M 310.95125 213.068812 
L 410.15125 213.068812 
Q 414.15125 213.068812 414.15125 209.068812 
L 414.15125 119.915687 
Q 414.15125 115.915687 410.15125 115.915687 
L 310.95125 115.915687 
Q 306.95125 115.915687 306.95125 119.915687 
L 306.95125 209.068812 
Q 306.95125 213.068812 310.95125 213.068812 
z
" style="fill: #ffffff; opacity: 0.8; stroke: #cccccc; stroke-linejoin: miter"/>
    </g>
    <g id="line2d_30">
     <path d="M 314.95125 135.115687 
L 334.95125 135.115687 
L 354.95125 135.115687 
" style="fill: none; stroke: #1f77b4; stroke-width: 1.5; stroke-linecap: square"/>
    </g>
    <g id="text_17">
     <!-- $y^2$ -->
     <g transform="translate(370.95125 142.115687)scale(0.2 -0.2)">
      <defs>
       <path id="DejaVuSans-Oblique-79" d="M 1588 -325 
Q 1188 -997 936 -1164 
Q 684 -1331 294 -1331 
L -159 -1331 
L -63 -850 
L 269 -850 
Q 509 -850 678 -719 
Q 847 -588 1056 -206 
L 1234 128 
L 459 3500 
L 1069 3500 
L 1650 819 
L 3256 3500 
L 3859 3500 
L 1588 -325 
z
" transform="scale(0.015625)"/>
      </defs>
      <use xlink:href="#DejaVuSans-Oblique-79" transform="translate(0 0.765625)"/>
      <use xlink:href="#DejaVuSans-32" transform="translate(63.645833 39.046875)scale(0.7)"/>
     </g>
    </g>
    <g id="line2d_31">
     <path d="M 314.95125 164.512562 
L 334.95125 164.512562 
L 354.95125 164.512562 
" style="fill: none; stroke: #ff7f0e; stroke-width: 1.5; stroke-linecap: square"/>
    </g>
    <g id="text_18">
     <!-- $2yz$ -->
     <g transform="translate(370.95125 171.512562)scale(0.2 -0.2)">
      <use xlink:href="#DejaVuSans-32" transform="translate(0 0.78125)"/>
      <use xlink:href="#DejaVuSans-Oblique-79" transform="translate(63.623047 0.78125)"/>
      <use xlink:href="#DejaVuSans-Oblique-7a" transform="translate(122.802734 0.78125)"/>
     </g>
    </g>
    <g id="line2d_32">
     <path d="M 314.95125 193.909437 
L 334.95125 193.909437 
L 354.95125 193.909437 
" style="fill: none; stroke: #2ca02c; stroke-width: 1.5; stroke-linecap: square"/>
    </g>
    <g id="text_19">
     <!-- $z^2$ -->
     <g transform="translate(370.95125 200.909437)scale(0.2 -0.2)">
      <use xlink:href="#DejaVuSans-Oblique-7a" transform="translate(0 0.765625)"/>
      <use xlink:href="#DejaVuSans-32" transform="translate(56.95638 39.046875)scale(0.7)"/>
     </g>
    </g>
   </g>
  </g>
 </g>
 <defs>
  <clipPath id="p16dad856f7">
   <rect x="67.03125" y="31.43625" width="357.12" height="266.112"/>
  </clipPath>
 </defs>
</svg>
