<?xml version="1.0" encoding="utf-8" standalone="no"?>
<!DOCTYPE svg PUBLIC "-//W3C//DTD SVG 1.1//EN"
  "http://www.w3.org/Graphics/SVG/1.1/DTD/svg11.dtd">
<svg xmlns:xlink="http://www.w3.org/1999/xlink" width="435.274687pt" height="349.665437pt" viewBox="0 0 435.274687 349.665437" xmlns="http://www.w3.org/2000/svg" version="1.1">
 <defs>
  <style type="text/css">*{stroke-linejoin: round; stroke-linecap: butt}</style>
 </defs>
 <g id="figure_1">
  <g id="patch_1">
   <path d="M 0 349.665437 
L 435.274687 349.665437 
L 435.274687 0 
L 0 0 
L 0 349.665437 
z
" style="fill: none"/>
  </g>
  <g id="axes_1">
   <g id="patch_2">
    <path d="M 70.954688 297.54825 
L 428.074687 297.54825 
L 428.074687 31.43625 
L 70.954688 31.43625 
L 70.954688 297.54825 
z
" style="fill: none"/>
   </g>
   <g id="matplotlib.axis_1">
    <g id="xtick_1">
     <g id="line2d_1">
      <path d="M 111.363817 297.54825 
L 111.363817 31.43625 
" clip-path="url(#p17a5bf9d1e)" style="fill: none; stroke: #b0b0b0; stroke-width: 0.8; stroke-linecap: square"/>
     </g>
     <g id="line2d_2">
      <defs>
       <path id="md39032bed2" d="M 0 0 
L 0 3.5 
" style="stroke: #000000; stroke-width: 0.8"/>
      </defs>
      <g>
       <use xlink:href="#md39032bed2" x="111.363817" y="297.54825" style="stroke: #000000; stroke-width: 0.8"/>
      </g>
     </g>
     <g id="text_1">
      <!-- −2000 -->
      <g transform="translate(85.991551 315.945906)scale(0.15 -0.15)">
       <defs>
        <path id="DejaVuSans-2212" d="M 678 2272 
L 4684 2272 
L 4684 1741 
L 678 1741 
L 678 2272 
z
" transform="scale(0.015625)"/>
        <path id="DejaVuSans-32" d="M 1228 531 
L 3431 531 
L 3431 0 
L 469 0 
L 469 531 
Q 828 903 1448 1529 
Q 2069 2156 2228 2338 
Q 2531 2678 2651 2914 
Q 2772 3150 2772 3378 
Q 2772 3750 2511 3984 
Q 2250 4219 1831 4219 
Q 1534 4219 1204 4116 
Q 875 4013 500 3803 
L 500 4441 
Q 881 4594 1212 4672 
Q 1544 4750 1819 4750 
Q 2544 4750 2975 4387 
Q 3406 4025 3406 3419 
Q 3406 3131 3298 2873 
Q 3191 2616 2906 2266 
Q 2828 2175 2409 1742 
Q 1991 1309 1228 531 
z
" transform="scale(0.015625)"/>
        <path id="DejaVuSans-30" d="M 2034 4250 
Q 1547 4250 1301 3770 
Q 1056 3291 1056 2328 
Q 1056 1369 1301 889 
Q 1547 409 2034 409 
Q 2525 409 2770 889 
Q 3016 1369 3016 2328 
Q 3016 3291 2770 3770 
Q 2525 4250 2034 4250 
z
M 2034 4750 
Q 2819 4750 3233 4129 
Q 3647 3509 3647 2328 
Q 3647 1150 3233 529 
Q 2819 -91 2034 -91 
Q 1250 -91 836 529 
Q 422 1150 422 2328 
Q 422 3509 836 4129 
Q 1250 4750 2034 4750 
z
" transform="scale(0.015625)"/>
       </defs>
       <use xlink:href="#DejaVuSans-2212"/>
       <use xlink:href="#DejaVuSans-32" x="83.789062"/>
       <use xlink:href="#DejaVuSans-30" x="147.412109"/>
       <use xlink:href="#DejaVuSans-30" x="211.035156"/>
       <use xlink:href="#DejaVuSans-30" x="274.658203"/>
      </g>
     </g>
    </g>
    <g id="xtick_2">
     <g id="line2d_3">
      <path d="M 180.439252 297.54825 
L 180.439252 31.43625 
" clip-path="url(#p17a5bf9d1e)" style="fill: none; stroke: #b0b0b0; stroke-width: 0.8; stroke-linecap: square"/>
     </g>
     <g id="line2d_4">
      <g>
       <use xlink:href="#md39032bed2" x="180.439252" y="297.54825" style="stroke: #000000; stroke-width: 0.8"/>
      </g>
     </g>
     <g id="text_2">
      <!-- −1000 -->
      <g transform="translate(155.066987 315.945906)scale(0.15 -0.15)">
       <defs>
        <path id="DejaVuSans-31" d="M 794 531 
L 1825 531 
L 1825 4091 
L 703 3866 
L 703 4441 
L 1819 4666 
L 2450 4666 
L 2450 531 
L 3481 531 
L 3481 0 
L 794 0 
L 794 531 
z
" transform="scale(0.015625)"/>
       </defs>
       <use xlink:href="#DejaVuSans-2212"/>
       <use xlink:href="#DejaVuSans-31" x="83.789062"/>
       <use xlink:href="#DejaVuSans-30" x="147.412109"/>
       <use xlink:href="#DejaVuSans-30" x="211.035156"/>
       <use xlink:href="#DejaVuSans-30" x="274.658203"/>
      </g>
     </g>
    </g>
    <g id="xtick_3">
     <g id="line2d_5">
      <path d="M 249.514688 297.54825 
L 249.514688 31.43625 
" clip-path="url(#p17a5bf9d1e)" style="fill: none; stroke: #b0b0b0; stroke-width: 0.8; stroke-linecap: square"/>
     </g>
     <g id="line2d_6">
      <g>
       <use xlink:href="#md39032bed2" x="249.514688" y="297.54825" style="stroke: #000000; stroke-width: 0.8"/>
      </g>
     </g>
     <g id="text_3">
      <!-- 0 -->
      <g transform="translate(244.742813 315.945906)scale(0.15 -0.15)">
       <use xlink:href="#DejaVuSans-30"/>
      </g>
     </g>
    </g>
    <g id="xtick_4">
     <g id="line2d_7">
      <path d="M 318.590123 297.54825 
L 318.590123 31.43625 
" clip-path="url(#p17a5bf9d1e)" style="fill: none; stroke: #b0b0b0; stroke-width: 0.8; stroke-linecap: square"/>
     </g>
     <g id="line2d_8">
      <g>
       <use xlink:href="#md39032bed2" x="318.590123" y="297.54825" style="stroke: #000000; stroke-width: 0.8"/>
      </g>
     </g>
     <g id="text_4">
      <!-- 1000 -->
      <g transform="translate(299.502623 315.945906)scale(0.15 -0.15)">
       <use xlink:href="#DejaVuSans-31"/>
       <use xlink:href="#DejaVuSans-30" x="63.623047"/>
       <use xlink:href="#DejaVuSans-30" x="127.246094"/>
       <use xlink:href="#DejaVuSans-30" x="190.869141"/>
      </g>
     </g>
    </g>
    <g id="xtick_5">
     <g id="line2d_9">
      <path d="M 387.665558 297.54825 
L 387.665558 31.43625 
" clip-path="url(#p17a5bf9d1e)" style="fill: none; stroke: #b0b0b0; stroke-width: 0.8; stroke-linecap: square"/>
     </g>
     <g id="line2d_10">
      <g>
       <use xlink:href="#md39032bed2" x="387.665558" y="297.54825" style="stroke: #000000; stroke-width: 0.8"/>
      </g>
     </g>
     <g id="text_5">
      <!-- 2000 -->
      <g transform="translate(368.578058 315.945906)scale(0.15 -0.15)">
       <use xlink:href="#DejaVuSans-32"/>
       <use xlink:href="#DejaVuSans-30" x="63.623047"/>
       <use xlink:href="#DejaVuSans-30" x="127.246094"/>
       <use xlink:href="#DejaVuSans-30" x="190.869141"/>
      </g>
     </g>
    </g>
    <g id="text_6">
     <!-- X ($\mu m$) -->
     <g transform="translate(215.514688 338.265437)scale(0.2 -0.2)">
      <defs>
       <path id="DejaVuSans-58" d="M 403 4666 
L 1081 4666 
L 2241 2931 
L 3406 4666 
L 4084 4666 
L 2584 2425 
L 4184 0 
L 3506 0 
L 2194 1984 
L 872 0 
L 191 0 
L 1856 2491 
L 403 4666 
z
" transform="scale(0.015625)"/>
       <path id="DejaVuSans-20" transform="scale(0.015625)"/>
       <path id="DejaVuSans-28" d="M 1984 4856 
Q 1566 4138 1362 3434 
Q 1159 2731 1159 2009 
Q 1159 1288 1364 580 
Q 1569 -128 1984 -844 
L 1484 -844 
Q 1016 -109 783 600 
Q 550 1309 550 2009 
Q 550 2706 781 3412 
Q 1013 4119 1484 4856 
L 1984 4856 
z
" transform="scale(0.015625)"/>
       <path id="DejaVuSans-Oblique-3bc" d="M -84 -1331 
L 856 3500 
L 1434 3500 
L 1009 1322 
Q 997 1256 987 1175 
Q 978 1094 978 1013 
Q 978 722 1161 565 
Q 1344 409 1684 409 
Q 2147 409 2431 671 
Q 2716 934 2816 1459 
L 3213 3500 
L 3788 3500 
L 3266 809 
Q 3253 750 3248 706 
Q 3244 663 3244 628 
Q 3244 531 3283 486 
Q 3322 441 3406 441 
Q 3438 441 3492 456 
Q 3547 472 3647 513 
L 3559 50 
Q 3422 -19 3297 -55 
Q 3172 -91 3053 -91 
Q 2847 -91 2730 40 
Q 2613 172 2613 403 
Q 2438 153 2195 31 
Q 1953 -91 1625 -91 
Q 1334 -91 1117 43 
Q 900 178 831 397 
L 494 -1331 
L -84 -1331 
z
" transform="scale(0.015625)"/>
       <path id="DejaVuSans-Oblique-6d" d="M 5747 2113 
L 5338 0 
L 4763 0 
L 5166 2094 
Q 5191 2228 5203 2325 
Q 5216 2422 5216 2491 
Q 5216 2772 5059 2928 
Q 4903 3084 4622 3084 
Q 4203 3084 3875 2770 
Q 3547 2456 3450 1953 
L 3066 0 
L 2491 0 
L 2900 2094 
Q 2925 2209 2937 2307 
Q 2950 2406 2950 2484 
Q 2950 2769 2794 2926 
Q 2638 3084 2363 3084 
Q 1938 3084 1609 2770 
Q 1281 2456 1184 1953 
L 800 0 
L 225 0 
L 909 3500 
L 1484 3500 
L 1375 2956 
Q 1609 3263 1923 3423 
Q 2238 3584 2597 3584 
Q 2978 3584 3223 3384 
Q 3469 3184 3519 2828 
Q 3781 3197 4126 3390 
Q 4472 3584 4856 3584 
Q 5306 3584 5551 3325 
Q 5797 3066 5797 2591 
Q 5797 2488 5784 2364 
Q 5772 2241 5747 2113 
z
" transform="scale(0.015625)"/>
       <path id="DejaVuSans-29" d="M 513 4856 
L 1013 4856 
Q 1481 4119 1714 3412 
Q 1947 2706 1947 2009 
Q 1947 1309 1714 600 
Q 1481 -109 1013 -844 
L 513 -844 
Q 928 -128 1133 580 
Q 1338 1288 1338 2009 
Q 1338 2731 1133 3434 
Q 928 4138 513 4856 
z
" transform="scale(0.015625)"/>
      </defs>
      <use xlink:href="#DejaVuSans-58" transform="translate(0 0.125)"/>
      <use xlink:href="#DejaVuSans-20" transform="translate(68.505859 0.125)"/>
      <use xlink:href="#DejaVuSans-28" transform="translate(100.292969 0.125)"/>
      <use xlink:href="#DejaVuSans-Oblique-3bc" transform="translate(139.306641 0.125)"/>
      <use xlink:href="#DejaVuSans-Oblique-6d" transform="translate(202.929688 0.125)"/>
      <use xlink:href="#DejaVuSans-29" transform="translate(300.341797 0.125)"/>
     </g>
    </g>
   </g>
   <g id="matplotlib.axis_2">
    <g id="ytick_1">
     <g id="line2d_11">
      <path d="M 70.954688 297.54825 
L 428.074687 297.54825 
" clip-path="url(#p17a5bf9d1e)" style="fill: none; stroke: #b0b0b0; stroke-width: 0.8; stroke-linecap: square"/>
     </g>
     <g id="line2d_12">
      <defs>
       <path id="m6f3f5b6aff" d="M 0 0 
L -3.5 0 
" style="stroke: #000000; stroke-width: 0.8"/>
      </defs>
      <g>
       <use xlink:href="#m6f3f5b6aff" x="70.954688" y="297.54825" style="stroke: #000000; stroke-width: 0.8"/>
      </g>
     </g>
     <g id="text_7">
      <!-- 9.8 -->
      <g transform="translate(40.1 303.247078)scale(0.15 -0.15)">
       <defs>
        <path id="DejaVuSans-39" d="M 703 97 
L 703 672 
Q 941 559 1184 500 
Q 1428 441 1663 441 
Q 2288 441 2617 861 
Q 2947 1281 2994 2138 
Q 2813 1869 2534 1725 
Q 2256 1581 1919 1581 
Q 1219 1581 811 2004 
Q 403 2428 403 3163 
Q 403 3881 828 4315 
Q 1253 4750 1959 4750 
Q 2769 4750 3195 4129 
Q 3622 3509 3622 2328 
Q 3622 1225 3098 567 
Q 2575 -91 1691 -91 
Q 1453 -91 1209 -44 
Q 966 3 703 97 
z
M 1959 2075 
Q 2384 2075 2632 2365 
Q 2881 2656 2881 3163 
Q 2881 3666 2632 3958 
Q 2384 4250 1959 4250 
Q 1534 4250 1286 3958 
Q 1038 3666 1038 3163 
Q 1038 2656 1286 2365 
Q 1534 2075 1959 2075 
z
" transform="scale(0.015625)"/>
        <path id="DejaVuSans-2e" d="M 684 794 
L 1344 794 
L 1344 0 
L 684 0 
L 684 794 
z
" transform="scale(0.015625)"/>
        <path id="DejaVuSans-38" d="M 2034 2216 
Q 1584 2216 1326 1975 
Q 1069 1734 1069 1313 
Q 1069 891 1326 650 
Q 1584 409 2034 409 
Q 2484 409 2743 651 
Q 3003 894 3003 1313 
Q 3003 1734 2745 1975 
Q 2488 2216 2034 2216 
z
M 1403 2484 
Q 997 2584 770 2862 
Q 544 3141 544 3541 
Q 544 4100 942 4425 
Q 1341 4750 2034 4750 
Q 2731 4750 3128 4425 
Q 3525 4100 3525 3541 
Q 3525 3141 3298 2862 
Q 3072 2584 2669 2484 
Q 3125 2378 3379 2068 
Q 3634 1759 3634 1313 
Q 3634 634 3220 271 
Q 2806 -91 2034 -91 
Q 1263 -91 848 271 
Q 434 634 434 1313 
Q 434 1759 690 2068 
Q 947 2378 1403 2484 
z
M 1172 3481 
Q 1172 3119 1398 2916 
Q 1625 2713 2034 2713 
Q 2441 2713 2670 2916 
Q 2900 3119 2900 3481 
Q 2900 3844 2670 4047 
Q 2441 4250 2034 4250 
Q 1625 4250 1398 4047 
Q 1172 3844 1172 3481 
z
" transform="scale(0.015625)"/>
       </defs>
       <use xlink:href="#DejaVuSans-39"/>
       <use xlink:href="#DejaVuSans-2e" x="63.623047"/>
       <use xlink:href="#DejaVuSans-38" x="95.410156"/>
      </g>
     </g>
    </g>
    <g id="ytick_2">
     <g id="line2d_13">
      <path d="M 70.954688 238.41225 
L 428.074687 238.41225 
" clip-path="url(#p17a5bf9d1e)" style="fill: none; stroke: #b0b0b0; stroke-width: 0.8; stroke-linecap: square"/>
     </g>
     <g id="line2d_14">
      <g>
       <use xlink:href="#m6f3f5b6aff" x="70.954688" y="238.41225" style="stroke: #000000; stroke-width: 0.8"/>
      </g>
     </g>
     <g id="text_8">
      <!-- 10.0 -->
      <g transform="translate(30.55625 244.111078)scale(0.15 -0.15)">
       <use xlink:href="#DejaVuSans-31"/>
       <use xlink:href="#DejaVuSans-30" x="63.623047"/>
       <use xlink:href="#DejaVuSans-2e" x="127.246094"/>
       <use xlink:href="#DejaVuSans-30" x="159.033203"/>
      </g>
     </g>
    </g>
    <g id="ytick_3">
     <g id="line2d_15">
      <path d="M 70.954688 179.27625 
L 428.074687 179.27625 
" clip-path="url(#p17a5bf9d1e)" style="fill: none; stroke: #b0b0b0; stroke-width: 0.8; stroke-linecap: square"/>
     </g>
     <g id="line2d_16">
      <g>
       <use xlink:href="#m6f3f5b6aff" x="70.954688" y="179.27625" style="stroke: #000000; stroke-width: 0.8"/>
      </g>
     </g>
     <g id="text_9">
      <!-- 10.2 -->
      <g transform="translate(30.55625 184.975078)scale(0.15 -0.15)">
       <use xlink:href="#DejaVuSans-31"/>
       <use xlink:href="#DejaVuSans-30" x="63.623047"/>
       <use xlink:href="#DejaVuSans-2e" x="127.246094"/>
       <use xlink:href="#DejaVuSans-32" x="159.033203"/>
      </g>
     </g>
    </g>
    <g id="ytick_4">
     <g id="line2d_17">
      <path d="M 70.954688 120.14025 
L 428.074687 120.14025 
" clip-path="url(#p17a5bf9d1e)" style="fill: none; stroke: #b0b0b0; stroke-width: 0.8; stroke-linecap: square"/>
     </g>
     <g id="line2d_18">
      <g>
       <use xlink:href="#m6f3f5b6aff" x="70.954688" y="120.14025" style="stroke: #000000; stroke-width: 0.8"/>
      </g>
     </g>
     <g id="text_10">
      <!-- 10.4 -->
      <g transform="translate(30.55625 125.839078)scale(0.15 -0.15)">
       <defs>
        <path id="DejaVuSans-34" d="M 2419 4116 
L 825 1625 
L 2419 1625 
L 2419 4116 
z
M 2253 4666 
L 3047 4666 
L 3047 1625 
L 3713 1625 
L 3713 1100 
L 3047 1100 
L 3047 0 
L 2419 0 
L 2419 1100 
L 313 1100 
L 313 1709 
L 2253 4666 
z
" transform="scale(0.015625)"/>
       </defs>
       <use xlink:href="#DejaVuSans-31"/>
       <use xlink:href="#DejaVuSans-30" x="63.623047"/>
       <use xlink:href="#DejaVuSans-2e" x="127.246094"/>
       <use xlink:href="#DejaVuSans-34" x="159.033203"/>
      </g>
     </g>
    </g>
    <g id="ytick_5">
     <g id="line2d_19">
      <path d="M 70.954688 61.00425 
L 428.074687 61.00425 
" clip-path="url(#p17a5bf9d1e)" style="fill: none; stroke: #b0b0b0; stroke-width: 0.8; stroke-linecap: square"/>
     </g>
     <g id="line2d_20">
      <g>
       <use xlink:href="#m6f3f5b6aff" x="70.954688" y="61.00425" style="stroke: #000000; stroke-width: 0.8"/>
      </g>
     </g>
     <g id="text_11">
      <!-- 10.6 -->
      <g transform="translate(30.55625 66.703078)scale(0.15 -0.15)">
       <defs>
        <path id="DejaVuSans-36" d="M 2113 2584 
Q 1688 2584 1439 2293 
Q 1191 2003 1191 1497 
Q 1191 994 1439 701 
Q 1688 409 2113 409 
Q 2538 409 2786 701 
Q 3034 994 3034 1497 
Q 3034 2003 2786 2293 
Q 2538 2584 2113 2584 
z
M 3366 4563 
L 3366 3988 
Q 3128 4100 2886 4159 
Q 2644 4219 2406 4219 
Q 1781 4219 1451 3797 
Q 1122 3375 1075 2522 
Q 1259 2794 1537 2939 
Q 1816 3084 2150 3084 
Q 2853 3084 3261 2657 
Q 3669 2231 3669 1497 
Q 3669 778 3244 343 
Q 2819 -91 2113 -91 
Q 1303 -91 875 529 
Q 447 1150 447 2328 
Q 447 3434 972 4092 
Q 1497 4750 2381 4750 
Q 2619 4750 2861 4703 
Q 3103 4656 3366 4563 
z
" transform="scale(0.015625)"/>
       </defs>
       <use xlink:href="#DejaVuSans-31"/>
       <use xlink:href="#DejaVuSans-30" x="63.623047"/>
       <use xlink:href="#DejaVuSans-2e" x="127.246094"/>
       <use xlink:href="#DejaVuSans-36" x="159.033203"/>
      </g>
     </g>
    </g>
    <g id="text_12">
     <!-- $kHz/V$ -->
     <g transform="translate(22.396875 193.29225)rotate(-90)scale(0.2 -0.2)">
      <defs>
       <path id="DejaVuSans-Oblique-6b" d="M 1172 4863 
L 1747 4863 
L 1197 2028 
L 3169 3500 
L 3916 3500 
L 1716 1825 
L 3322 0 
L 2625 0 
L 1131 1709 
L 800 0 
L 225 0 
L 1172 4863 
z
" transform="scale(0.015625)"/>
       <path id="DejaVuSans-Oblique-48" d="M 1081 4666 
L 1716 4666 
L 1344 2753 
L 3634 2753 
L 4006 4666 
L 4641 4666 
L 3731 0 
L 3097 0 
L 3531 2222 
L 1241 2222 
L 806 0 
L 172 0 
L 1081 4666 
z
" transform="scale(0.015625)"/>
       <path id="DejaVuSans-Oblique-7a" d="M 744 3500 
L 3475 3500 
L 3372 2975 
L 738 459 
L 2913 459 
L 2822 0 
L -19 0 
L 84 525 
L 2719 3041 
L 653 3041 
L 744 3500 
z
" transform="scale(0.015625)"/>
       <path id="DejaVuSans-2f" d="M 1625 4666 
L 2156 4666 
L 531 -594 
L 0 -594 
L 1625 4666 
z
" transform="scale(0.015625)"/>
       <path id="DejaVuSans-Oblique-56" d="M 1319 0 
L 500 4666 
L 1119 4666 
L 1797 653 
L 4063 4666 
L 4750 4666 
L 2053 0 
L 1319 0 
z
" transform="scale(0.015625)"/>
      </defs>
      <use xlink:href="#DejaVuSans-Oblique-6b" transform="translate(0 0.015625)"/>
      <use xlink:href="#DejaVuSans-Oblique-48" transform="translate(57.910156 0.015625)"/>
      <use xlink:href="#DejaVuSans-Oblique-7a" transform="translate(133.105469 0.015625)"/>
      <use xlink:href="#DejaVuSans-2f" transform="translate(185.595703 0.015625)"/>
      <use xlink:href="#DejaVuSans-Oblique-56" transform="translate(219.287109 0.015625)"/>
     </g>
    </g>
   </g>
   <g id="line2d_21">
    <path d="M 110.625418 350.665437 
L 110.673063 348.992721 
L 111.363817 317.726466 
L 111.709194 307.766481 
L 112.399949 297.989148 
L 113.090703 281.353969 
L 113.43608 270.746864 
L 113.781457 266.349858 
L 114.126835 267.62801 
L 115.162966 272.645793 
L 115.85372 274.456881 
L 116.199098 276.28372 
L 116.544475 280.145088 
L 116.889852 293.565328 
L 117.885647 350.665437 
M 134.162693 350.665437 
L 134.849465 329.330591 
L 135.540219 318.042809 
L 136.230974 312.179244 
L 136.576351 310.568407 
L 136.921728 310.346761 
L 137.612482 308.028686 
L 138.303237 304.744685 
L 138.993991 300.070664 
L 140.030123 290.97397 
L 142.102386 271.867494 
L 143.138517 264.725975 
L 143.829272 261.205248 
L 144.520026 258.616692 
L 145.556158 255.796601 
L 146.246912 254.302543 
L 147.283043 252.586029 
L 147.973798 251.858234 
L 148.664552 251.401744 
L 151.082192 250.586024 
L 153.154455 249.616657 
L 155.572096 249.307673 
L 156.26285 248.977066 
L 157.644359 248.267915 
L 159.716622 247.819094 
L 160.407376 247.51567 
L 163.170393 245.831377 
L 164.551902 245.441983 
L 166.278788 244.24838 
L 166.969542 243.693189 
L 168.005674 243.194477 
L 169.387183 242.769481 
L 172.1502 241.05963 
L 172.840954 240.591419 
L 174.222463 240.119894 
L 178.021612 237.914145 
L 180.093875 237.083305 
L 181.130007 236.399656 
L 182.166138 236.036036 
L 183.893024 235.268838 
L 184.583778 234.990454 
L 185.61991 234.386818 
L 187.001419 233.859247 
L 188.382927 233.109558 
L 189.073682 232.880044 
L 191.145945 231.788815 
L 191.836699 231.502637 
L 192.872831 230.903377 
L 193.908962 230.635557 
L 195.981225 229.665414 
L 197.017357 229.223636 
L 197.708111 228.863556 
L 198.744243 228.604039 
L 199.434997 228.261209 
L 200.125751 227.828797 
L 201.161883 227.587899 
L 202.888769 226.861809 
L 203.579523 226.660166 
L 204.270277 226.349481 
L 205.306409 225.865037 
L 205.997163 225.714291 
L 207.724049 225.064379 
L 208.760181 224.805074 
L 210.141689 224.094768 
L 210.832444 223.947721 
L 211.523198 223.725593 
L 211.868575 223.541104 
L 213.595461 223.304258 
L 214.97697 222.790805 
L 216.358479 222.54125 
L 219.121496 221.599653 
L 220.157628 221.388279 
L 221.193759 220.901305 
L 221.884513 220.580331 
L 223.266022 220.275764 
L 224.647531 219.56137 
L 225.338285 219.457818 
L 227.065171 218.959612 
L 227.410548 218.963623 
L 228.792057 218.428012 
L 229.482811 218.121731 
L 230.173566 217.993925 
L 231.555074 217.665394 
L 232.936583 217.508101 
L 234.663469 216.880777 
L 236.735732 216.710453 
L 238.117241 216.541331 
L 239.153372 216.125085 
L 239.844127 216.232824 
L 241.571012 216.054005 
L 242.607144 216.036985 
L 243.297898 215.927598 
L 244.33403 216.120127 
L 245.370161 216.062883 
L 248.133179 215.430689 
L 249.514688 215.149243 
L 250.550819 214.610153 
L 251.241573 214.392161 
L 252.277705 214.149045 
L 253.659214 213.52253 
L 255.731477 212.90876 
L 256.767608 212.724611 
L 258.494494 212.127767 
L 259.530626 211.898292 
L 259.876003 211.782158 
L 261.257511 211.796209 
L 262.293643 211.534549 
L 262.984397 211.318794 
L 264.020529 211.293096 
L 265.747415 210.937182 
L 266.438169 210.867942 
L 269.201187 210.240608 
L 269.546564 210.02722 
L 271.964204 209.796087 
L 273.000335 209.470288 
L 273.69109 209.477414 
L 276.799484 209.014544 
L 277.144862 208.888117 
L 278.180993 208.838544 
L 279.907879 208.502356 
L 280.598633 208.582359 
L 281.289388 208.430572 
L 282.670896 208.101587 
L 283.707028 208.05125 
L 284.397782 207.849428 
L 286.124668 207.910475 
L 287.1608 207.574742 
L 288.542308 207.548032 
L 289.57844 207.408495 
L 290.614571 207.502969 
L 291.305326 207.350781 
L 291.99608 207.217898 
L 293.377589 207.204503 
L 294.41372 207.007937 
L 295.449852 207.044596 
L 297.176738 206.789855 
L 297.867492 206.721762 
L 299.249001 206.61397 
L 299.939755 206.652793 
L 300.975887 206.554012 
L 301.666641 206.396284 
L 307.88343 206.224185 
L 308.574185 206.021402 
L 309.955693 206.213058 
L 311.682579 205.86566 
L 312.373334 205.896371 
L 313.409465 205.788529 
L 315.136351 205.987223 
L 316.172482 205.779902 
L 317.553991 205.855812 
L 318.244746 205.754852 
L 319.626254 205.918098 
L 320.662386 205.715591 
L 321.007763 205.640567 
L 321.698517 205.692461 
L 322.734649 205.565724 
L 324.116158 205.830262 
L 324.806912 205.840537 
L 326.188421 205.609953 
L 326.879175 205.699437 
L 327.569929 205.701102 
L 328.260684 205.66353 
L 328.951438 205.806817 
L 329.98757 205.658919 
L 332.059833 205.232961 
L 333.441341 205.391889 
L 334.477473 205.260387 
L 335.168227 205.016509 
L 336.549736 204.59272 
L 337.24049 204.559375 
L 338.967376 204.547129 
L 342.075771 203.329117 
L 343.111902 203.201225 
L 343.802657 203.029426 
L 344.493411 202.655969 
L 345.87492 201.706681 
L 346.911051 201.33681 
L 348.983314 200.718506 
L 350.7102 199.902545 
L 351.400954 199.909421 
L 352.091709 200.307967 
L 352.782463 200.956515 
L 353.818595 202.45131 
L 354.509349 203.907676 
L 355.200103 206.012764 
L 355.890858 209.047804 
L 356.581612 213.088949 
L 357.617744 220.996088 
L 360.035384 241.423803 
L 360.726138 245.2727 
L 361.416893 247.507096 
L 362.453024 249.320892 
L 362.798401 250.386159 
L 363.143778 252.185797 
L 363.834533 257.96801 
L 364.17991 263.847439 
L 365.216041 298.174835 
L 366.252173 341.969411 
L 366.436333 350.665437 
M 379.637852 350.665437 
L 380.412637 297.758588 
L 382.4849 179.304076 
L 382.830277 174.621929 
L 383.175655 172.064893 
L 383.521032 170.435137 
L 383.866409 164.534039 
L 384.557163 159.44375 
L 385.247918 154.055143 
L 385.593295 157.61631 
L 386.284049 177.412971 
L 386.974804 189.305091 
L 387.320181 192.627426 
L 387.665558 200.57921 
L 388.701689 240.072878 
L 389.392444 257.365056 
L 390.083198 269.593449 
L 391.11933 321.489844 
L 391.810084 342.352524 
L 392.251778 350.665437 
L 392.251778 350.665437 
" clip-path="url(#p17a5bf9d1e)" style="fill: none; stroke: #1f77b4; stroke-width: 1.5; stroke-linecap: square"/>
   </g>
   <g id="line2d_22">
    <path d="M 109.860045 350.665437 
L 110.327686 333.983762 
L 111.01844 315.929294 
L 111.363817 311.545212 
L 111.709194 303.878088 
L 112.399949 281.112597 
L 112.745326 273.498711 
L 113.090703 268.712697 
L 113.43608 266.457029 
L 113.781457 259.501427 
L 114.472212 240.308601 
L 114.817589 234.96751 
L 115.162966 233.872863 
L 115.508343 237.651962 
L 115.85372 246.140307 
L 117.580606 313.356766 
L 118.194318 350.665437 
M 134.060637 350.665437 
L 134.849465 327.50674 
L 135.885597 299.447916 
L 136.921728 277.511296 
L 137.95786 260.20033 
L 138.993991 247.333699 
L 139.684746 241.247109 
L 140.3755 237.12652 
L 141.066254 234.779954 
L 141.411631 234.224037 
L 141.757009 233.90403 
L 142.102386 233.863297 
L 142.79314 234.304596 
L 143.483894 235.116459 
L 145.556158 238.34374 
L 147.283043 241.51414 
L 148.319175 243.006001 
L 149.355306 244.035506 
L 151.42757 245.704461 
L 152.118324 246.294034 
L 153.154455 246.837224 
L 154.190587 246.964725 
L 155.572096 246.975715 
L 158.335113 247.235783 
L 161.788885 246.422878 
L 162.825016 245.754384 
L 164.897279 244.081129 
L 165.588034 243.844905 
L 167.31492 243.463714 
L 169.041805 242.605394 
L 169.73256 242.247457 
L 171.114069 241.603523 
L 172.1502 240.908367 
L 173.186332 240.286206 
L 174.56784 239.391999 
L 175.603972 238.974291 
L 176.294726 238.734589 
L 177.676235 237.97859 
L 178.021612 237.909417 
L 180.093875 236.655921 
L 181.130007 236.311094 
L 181.820761 235.892497 
L 182.856893 235.525322 
L 183.20227 235.449133 
L 184.583778 234.68081 
L 185.274533 234.492676 
L 187.001419 233.449214 
L 188.03755 233.155532 
L 189.073682 232.46789 
L 193.218208 230.596972 
L 194.254339 230.075216 
L 194.945094 229.894312 
L 195.290471 229.802079 
L 196.326602 229.189547 
L 198.398865 228.381571 
L 199.08962 228.059011 
L 200.471129 227.586512 
L 201.50726 227.068723 
L 202.198014 226.952934 
L 202.888769 226.604169 
L 203.9249 226.130116 
L 204.961032 225.902331 
L 206.34254 225.244567 
L 207.378672 224.961494 
L 208.760181 224.330944 
L 212.213952 223.3558 
L 213.250084 222.906945 
L 213.940838 222.758703 
L 214.631593 222.763922 
L 215.667724 222.267077 
L 217.739987 221.971351 
L 219.81225 221.069043 
L 220.848382 220.673896 
L 221.884513 220.439363 
L 223.266022 219.792204 
L 224.647531 219.51826 
L 225.338285 219.170438 
L 227.065171 218.666372 
L 227.755925 218.372163 
L 228.44668 218.17036 
L 229.137434 218.161988 
L 230.86432 217.65623 
L 231.209697 217.629587 
L 232.591206 217.009884 
L 233.972715 216.873831 
L 234.318092 216.872677 
L 235.008846 216.643259 
L 236.044978 216.488467 
L 237.081109 216.122753 
L 237.771864 215.980309 
L 238.462618 216.001252 
L 239.153372 216.115859 
L 239.844127 215.902078 
L 243.297898 215.849037 
L 244.33403 215.540397 
L 245.370161 215.457017 
L 246.75167 215.571949 
L 247.787802 215.290594 
L 249.514688 214.53836 
L 251.586951 214.09238 
L 254.695345 213.017391 
L 255.040722 212.941341 
L 256.076854 212.449102 
L 256.767608 212.239133 
L 258.149117 212.13165 
L 259.185248 211.778105 
L 260.22138 211.606942 
L 261.257511 211.289975 
L 262.293643 211.244021 
L 262.984397 211.232142 
L 264.020529 210.914151 
L 265.747415 210.75637 
L 266.438169 210.616626 
L 267.819678 210.34493 
L 268.510432 210.0909 
L 269.201187 209.937246 
L 269.546564 210.004027 
L 271.27345 209.38064 
L 272.309581 209.387428 
L 272.654958 209.449235 
L 274.727221 209.212639 
L 275.072599 209.177515 
L 275.763353 208.980549 
L 277.835616 208.587044 
L 278.52637 208.434899 
L 279.562502 208.417701 
L 280.944011 207.983637 
L 282.325519 208.081484 
L 283.361651 207.79632 
L 284.052405 207.809082 
L 284.397782 207.833761 
L 285.779291 207.443963 
L 286.815423 207.508135 
L 287.1608 207.563605 
L 288.196931 207.230867 
L 289.233063 207.358136 
L 290.614571 207.033381 
L 291.305326 207.091673 
L 291.650703 207.132014 
L 293.377589 206.805605 
L 294.41372 206.873355 
L 295.449852 206.68414 
L 297.176738 206.524844 
L 298.212869 206.425868 
L 299.249001 206.354646 
L 299.939755 206.239001 
L 300.63051 206.166926 
L 302.012018 206.240119 
L 302.702773 206.143687 
L 306.501922 206.064096 
L 307.538053 205.850537 
L 309.264939 205.808449 
L 309.955693 205.651186 
L 311.682579 205.769961 
L 312.373334 205.633258 
L 313.409465 205.701407 
L 314.790974 205.460851 
L 316.172482 205.693586 
L 317.553991 205.557686 
L 318.244746 205.670523 
L 319.626254 205.49276 
L 321.35314 205.532396 
L 322.043894 205.502365 
L 323.425403 205.339736 
L 324.116158 205.258912 
L 324.806912 205.257959 
L 326.188421 205.535442 
L 326.533798 205.450781 
L 328.260684 205.603444 
L 328.951438 205.440905 
L 332.059833 205.207638 
L 333.095964 204.800204 
L 334.132096 204.456679 
L 336.204359 204.412082 
L 337.24049 204.03459 
L 338.967376 203.169691 
L 341.039639 202.596217 
L 342.075771 201.915023 
L 344.493411 199.98569 
L 345.184165 199.544211 
L 345.87492 198.970525 
L 346.911051 197.668187 
L 348.637937 194.889326 
L 350.019446 192.613285 
L 351.400954 189.642742 
L 355.200103 179.612445 
L 356.236235 177.534536 
L 356.926989 176.658978 
L 357.272366 176.527433 
L 357.617744 176.68733 
L 357.963121 177.154699 
L 358.308498 177.996106 
L 358.653875 179.254721 
L 359.344629 183.185531 
L 360.035384 189.004551 
L 360.726138 196.722334 
L 361.76227 211.639054 
L 362.798401 230.472544 
L 363.834533 254.341433 
L 365.216041 292.297232 
L 366.252173 333.76954 
L 366.637267 350.665437 
M 379.533899 350.665437 
L 380.06726 316.707892 
L 381.103392 236.792485 
L 381.794146 199.253631 
L 382.139523 187.222241 
L 383.175655 136.747695 
L 383.521032 126.64659 
L 383.866409 121.752748 
L 384.211786 122.11029 
L 384.557163 127.094676 
L 385.593295 153.037592 
L 385.938672 154.170188 
L 386.284049 158.102614 
L 386.629426 164.977741 
L 387.665558 195.316094 
L 388.010935 198.550414 
L 388.356312 203.479857 
L 388.701689 211.13228 
L 389.392444 235.771953 
L 390.083198 268.278142 
L 390.428575 273.489259 
L 391.810084 315.613013 
L 392.574792 350.665437 
L 392.574792 350.665437 
" clip-path="url(#p17a5bf9d1e)" style="fill: none; stroke: #ff7f0e; stroke-width: 1.5; stroke-linecap: square"/>
   </g>
   <g id="patch_3">
    <path d="M 70.954688 297.54825 
L 70.954688 31.43625 
" style="fill: none; stroke: #000000; stroke-width: 0.8; stroke-linejoin: miter; stroke-linecap: square"/>
   </g>
   <g id="patch_4">
    <path d="M 428.074687 297.54825 
L 428.074687 31.43625 
" style="fill: none; stroke: #000000; stroke-width: 0.8; stroke-linejoin: miter; stroke-linecap: square"/>
   </g>
   <g id="patch_5">
    <path d="M 70.954688 297.54825 
L 428.074687 297.54825 
" style="fill: none; stroke: #000000; stroke-width: 0.8; stroke-linejoin: miter; stroke-linecap: square"/>
   </g>
   <g id="patch_6">
    <path d="M 70.954688 31.43625 
L 428.074687 31.43625 
" style="fill: none; stroke: #000000; stroke-width: 0.8; stroke-linejoin: miter; stroke-linecap: square"/>
   </g>
   <g id="text_13">
    <!-- Secular Frequency -->
    <g transform="translate(138.884063 25.43625)scale(0.24 -0.24)">
     <defs>
      <path id="DejaVuSans-53" d="M 3425 4513 
L 3425 3897 
Q 3066 4069 2747 4153 
Q 2428 4238 2131 4238 
Q 1616 4238 1336 4038 
Q 1056 3838 1056 3469 
Q 1056 3159 1242 3001 
Q 1428 2844 1947 2747 
L 2328 2669 
Q 3034 2534 3370 2195 
Q 3706 1856 3706 1288 
Q 3706 609 3251 259 
Q 2797 -91 1919 -91 
Q 1588 -91 1214 -16 
Q 841 59 441 206 
L 441 856 
Q 825 641 1194 531 
Q 1563 422 1919 422 
Q 2459 422 2753 634 
Q 3047 847 3047 1241 
Q 3047 1584 2836 1778 
Q 2625 1972 2144 2069 
L 1759 2144 
Q 1053 2284 737 2584 
Q 422 2884 422 3419 
Q 422 4038 858 4394 
Q 1294 4750 2059 4750 
Q 2388 4750 2728 4690 
Q 3069 4631 3425 4513 
z
" transform="scale(0.015625)"/>
      <path id="DejaVuSans-65" d="M 3597 1894 
L 3597 1613 
L 953 1613 
Q 991 1019 1311 708 
Q 1631 397 2203 397 
Q 2534 397 2845 478 
Q 3156 559 3463 722 
L 3463 178 
Q 3153 47 2828 -22 
Q 2503 -91 2169 -91 
Q 1331 -91 842 396 
Q 353 884 353 1716 
Q 353 2575 817 3079 
Q 1281 3584 2069 3584 
Q 2775 3584 3186 3129 
Q 3597 2675 3597 1894 
z
M 3022 2063 
Q 3016 2534 2758 2815 
Q 2500 3097 2075 3097 
Q 1594 3097 1305 2825 
Q 1016 2553 972 2059 
L 3022 2063 
z
" transform="scale(0.015625)"/>
      <path id="DejaVuSans-63" d="M 3122 3366 
L 3122 2828 
Q 2878 2963 2633 3030 
Q 2388 3097 2138 3097 
Q 1578 3097 1268 2742 
Q 959 2388 959 1747 
Q 959 1106 1268 751 
Q 1578 397 2138 397 
Q 2388 397 2633 464 
Q 2878 531 3122 666 
L 3122 134 
Q 2881 22 2623 -34 
Q 2366 -91 2075 -91 
Q 1284 -91 818 406 
Q 353 903 353 1747 
Q 353 2603 823 3093 
Q 1294 3584 2113 3584 
Q 2378 3584 2631 3529 
Q 2884 3475 3122 3366 
z
" transform="scale(0.015625)"/>
      <path id="DejaVuSans-75" d="M 544 1381 
L 544 3500 
L 1119 3500 
L 1119 1403 
Q 1119 906 1312 657 
Q 1506 409 1894 409 
Q 2359 409 2629 706 
Q 2900 1003 2900 1516 
L 2900 3500 
L 3475 3500 
L 3475 0 
L 2900 0 
L 2900 538 
Q 2691 219 2414 64 
Q 2138 -91 1772 -91 
Q 1169 -91 856 284 
Q 544 659 544 1381 
z
M 1991 3584 
L 1991 3584 
z
" transform="scale(0.015625)"/>
      <path id="DejaVuSans-6c" d="M 603 4863 
L 1178 4863 
L 1178 0 
L 603 0 
L 603 4863 
z
" transform="scale(0.015625)"/>
      <path id="DejaVuSans-61" d="M 2194 1759 
Q 1497 1759 1228 1600 
Q 959 1441 959 1056 
Q 959 750 1161 570 
Q 1363 391 1709 391 
Q 2188 391 2477 730 
Q 2766 1069 2766 1631 
L 2766 1759 
L 2194 1759 
z
M 3341 1997 
L 3341 0 
L 2766 0 
L 2766 531 
Q 2569 213 2275 61 
Q 1981 -91 1556 -91 
Q 1019 -91 701 211 
Q 384 513 384 1019 
Q 384 1609 779 1909 
Q 1175 2209 1959 2209 
L 2766 2209 
L 2766 2266 
Q 2766 2663 2505 2880 
Q 2244 3097 1772 3097 
Q 1472 3097 1187 3025 
Q 903 2953 641 2809 
L 641 3341 
Q 956 3463 1253 3523 
Q 1550 3584 1831 3584 
Q 2591 3584 2966 3190 
Q 3341 2797 3341 1997 
z
" transform="scale(0.015625)"/>
      <path id="DejaVuSans-72" d="M 2631 2963 
Q 2534 3019 2420 3045 
Q 2306 3072 2169 3072 
Q 1681 3072 1420 2755 
Q 1159 2438 1159 1844 
L 1159 0 
L 581 0 
L 581 3500 
L 1159 3500 
L 1159 2956 
Q 1341 3275 1631 3429 
Q 1922 3584 2338 3584 
Q 2397 3584 2469 3576 
Q 2541 3569 2628 3553 
L 2631 2963 
z
" transform="scale(0.015625)"/>
      <path id="DejaVuSans-46" d="M 628 4666 
L 3309 4666 
L 3309 4134 
L 1259 4134 
L 1259 2759 
L 3109 2759 
L 3109 2228 
L 1259 2228 
L 1259 0 
L 628 0 
L 628 4666 
z
" transform="scale(0.015625)"/>
      <path id="DejaVuSans-71" d="M 947 1747 
Q 947 1113 1208 752 
Q 1469 391 1925 391 
Q 2381 391 2643 752 
Q 2906 1113 2906 1747 
Q 2906 2381 2643 2742 
Q 2381 3103 1925 3103 
Q 1469 3103 1208 2742 
Q 947 2381 947 1747 
z
M 2906 525 
Q 2725 213 2448 61 
Q 2172 -91 1784 -91 
Q 1150 -91 751 415 
Q 353 922 353 1747 
Q 353 2572 751 3078 
Q 1150 3584 1784 3584 
Q 2172 3584 2448 3432 
Q 2725 3281 2906 2969 
L 2906 3500 
L 3481 3500 
L 3481 -1331 
L 2906 -1331 
L 2906 525 
z
" transform="scale(0.015625)"/>
      <path id="DejaVuSans-6e" d="M 3513 2113 
L 3513 0 
L 2938 0 
L 2938 2094 
Q 2938 2591 2744 2837 
Q 2550 3084 2163 3084 
Q 1697 3084 1428 2787 
Q 1159 2491 1159 1978 
L 1159 0 
L 581 0 
L 581 3500 
L 1159 3500 
L 1159 2956 
Q 1366 3272 1645 3428 
Q 1925 3584 2291 3584 
Q 2894 3584 3203 3211 
Q 3513 2838 3513 2113 
z
" transform="scale(0.015625)"/>
      <path id="DejaVuSans-79" d="M 2059 -325 
Q 1816 -950 1584 -1140 
Q 1353 -1331 966 -1331 
L 506 -1331 
L 506 -850 
L 844 -850 
Q 1081 -850 1212 -737 
Q 1344 -625 1503 -206 
L 1606 56 
L 191 3500 
L 800 3500 
L 1894 763 
L 2988 3500 
L 3597 3500 
L 2059 -325 
z
" transform="scale(0.015625)"/>
     </defs>
     <use xlink:href="#DejaVuSans-53"/>
     <use xlink:href="#DejaVuSans-65" x="63.476562"/>
     <use xlink:href="#DejaVuSans-63" x="125"/>
     <use xlink:href="#DejaVuSans-75" x="179.980469"/>
     <use xlink:href="#DejaVuSans-6c" x="243.359375"/>
     <use xlink:href="#DejaVuSans-61" x="271.142578"/>
     <use xlink:href="#DejaVuSans-72" x="332.421875"/>
     <use xlink:href="#DejaVuSans-20" x="373.535156"/>
     <use xlink:href="#DejaVuSans-46" x="405.322266"/>
     <use xlink:href="#DejaVuSans-72" x="455.591797"/>
     <use xlink:href="#DejaVuSans-65" x="494.455078"/>
     <use xlink:href="#DejaVuSans-71" x="555.978516"/>
     <use xlink:href="#DejaVuSans-75" x="619.455078"/>
     <use xlink:href="#DejaVuSans-65" x="682.833984"/>
     <use xlink:href="#DejaVuSans-6e" x="744.357422"/>
     <use xlink:href="#DejaVuSans-63" x="807.736328"/>
     <use xlink:href="#DejaVuSans-79" x="862.716797"/>
    </g>
   </g>
   <g id="legend_1">
    <g id="patch_7">
     <path d="M 291.902812 106.14875 
L 414.074687 106.14875 
Q 418.074687 106.14875 418.074687 102.14875 
L 418.074687 45.43625 
Q 418.074687 41.43625 414.074687 41.43625 
L 291.902812 41.43625 
Q 287.902812 41.43625 287.902812 45.43625 
L 287.902812 102.14875 
Q 287.902812 106.14875 291.902812 106.14875 
z
" style="fill: #ffffff; opacity: 0.8; stroke: #cccccc; stroke-linejoin: miter"/>
    </g>
    <g id="line2d_23">
     <path d="M 295.902812 57.633125 
L 315.902812 57.633125 
L 335.902812 57.633125 
" style="fill: none; stroke: #1f77b4; stroke-width: 1.5; stroke-linecap: square"/>
    </g>
    <g id="text_14">
     <!-- minor -->
     <g transform="translate(351.902812 64.633125)scale(0.2 -0.2)">
      <defs>
       <path id="DejaVuSans-6d" d="M 3328 2828 
Q 3544 3216 3844 3400 
Q 4144 3584 4550 3584 
Q 5097 3584 5394 3201 
Q 5691 2819 5691 2113 
L 5691 0 
L 5113 0 
L 5113 2094 
Q 5113 2597 4934 2840 
Q 4756 3084 4391 3084 
Q 3944 3084 3684 2787 
Q 3425 2491 3425 1978 
L 3425 0 
L 2847 0 
L 2847 2094 
Q 2847 2600 2669 2842 
Q 2491 3084 2119 3084 
Q 1678 3084 1418 2786 
Q 1159 2488 1159 1978 
L 1159 0 
L 581 0 
L 581 3500 
L 1159 3500 
L 1159 2956 
Q 1356 3278 1631 3431 
Q 1906 3584 2284 3584 
Q 2666 3584 2933 3390 
Q 3200 3197 3328 2828 
z
" transform="scale(0.015625)"/>
       <path id="DejaVuSans-69" d="M 603 3500 
L 1178 3500 
L 1178 0 
L 603 0 
L 603 3500 
z
M 603 4863 
L 1178 4863 
L 1178 4134 
L 603 4134 
L 603 4863 
z
" transform="scale(0.015625)"/>
       <path id="DejaVuSans-6f" d="M 1959 3097 
Q 1497 3097 1228 2736 
Q 959 2375 959 1747 
Q 959 1119 1226 758 
Q 1494 397 1959 397 
Q 2419 397 2687 759 
Q 2956 1122 2956 1747 
Q 2956 2369 2687 2733 
Q 2419 3097 1959 3097 
z
M 1959 3584 
Q 2709 3584 3137 3096 
Q 3566 2609 3566 1747 
Q 3566 888 3137 398 
Q 2709 -91 1959 -91 
Q 1206 -91 779 398 
Q 353 888 353 1747 
Q 353 2609 779 3096 
Q 1206 3584 1959 3584 
z
" transform="scale(0.015625)"/>
      </defs>
      <use xlink:href="#DejaVuSans-6d"/>
      <use xlink:href="#DejaVuSans-69" x="97.412109"/>
      <use xlink:href="#DejaVuSans-6e" x="125.195312"/>
      <use xlink:href="#DejaVuSans-6f" x="188.574219"/>
      <use xlink:href="#DejaVuSans-72" x="249.755859"/>
     </g>
    </g>
    <g id="line2d_24">
     <path d="M 295.902812 86.989375 
L 315.902812 86.989375 
L 335.902812 86.989375 
" style="fill: none; stroke: #ff7f0e; stroke-width: 1.5; stroke-linecap: square"/>
    </g>
    <g id="text_15">
     <!-- major -->
     <g transform="translate(351.902812 93.989375)scale(0.2 -0.2)">
      <defs>
       <path id="DejaVuSans-6a" d="M 603 3500 
L 1178 3500 
L 1178 -63 
Q 1178 -731 923 -1031 
Q 669 -1331 103 -1331 
L -116 -1331 
L -116 -844 
L 38 -844 
Q 366 -844 484 -692 
Q 603 -541 603 -63 
L 603 3500 
z
M 603 4863 
L 1178 4863 
L 1178 4134 
L 603 4134 
L 603 4863 
z
" transform="scale(0.015625)"/>
      </defs>
      <use xlink:href="#DejaVuSans-6d"/>
      <use xlink:href="#DejaVuSans-61" x="97.412109"/>
      <use xlink:href="#DejaVuSans-6a" x="158.691406"/>
      <use xlink:href="#DejaVuSans-6f" x="186.474609"/>
      <use xlink:href="#DejaVuSans-72" x="247.65625"/>
     </g>
    </g>
   </g>
  </g>
 </g>
 <defs>
  <clipPath id="p17a5bf9d1e">
   <rect x="70.954688" y="31.43625" width="357.12" height="266.112"/>
  </clipPath>
 </defs>
</svg>
