<?xml version="1.0" encoding="utf-8" standalone="no"?>
<!DOCTYPE svg PUBLIC "-//W3C//DTD SVG 1.1//EN"
  "http://www.w3.org/Graphics/SVG/1.1/DTD/svg11.dtd">
<svg xmlns:xlink="http://www.w3.org/1999/xlink" width="433.533281pt" height="349.665437pt" viewBox="0 0 433.533281 349.665437" xmlns="http://www.w3.org/2000/svg" version="1.1">
 <defs>
  <style type="text/css">*{stroke-linejoin: round; stroke-linecap: butt}</style>
 </defs>
 <g id="figure_1">
  <g id="patch_1">
   <path d="M 0 349.665437 
L 433.533281 349.665437 
L 433.533281 0 
L 0 0 
L 0 349.665437 
z
" style="fill: none"/>
  </g>
  <g id="axes_1">
   <g id="patch_2">
    <path d="M 69.213281 297.54825 
L 426.333281 297.54825 
L 426.333281 31.43625 
L 69.213281 31.43625 
L 69.213281 297.54825 
z
" style="fill: none"/>
   </g>
   <g id="matplotlib.axis_1">
    <g id="xtick_1">
     <g id="line2d_1">
      <path d="M 109.622411 297.54825 
L 109.622411 31.43625 
" clip-path="url(#p909abbc071)" style="fill: none; stroke: #b0b0b0; stroke-width: 0.8; stroke-linecap: square"/>
     </g>
     <g id="line2d_2">
      <defs>
       <path id="md39032bed2" d="M 0 0 
L 0 3.5 
" style="stroke: #000000; stroke-width: 0.8"/>
      </defs>
      <g>
       <use xlink:href="#md39032bed2" x="109.622411" y="297.54825" style="stroke: #000000; stroke-width: 0.8"/>
      </g>
     </g>
     <g id="text_1">
      <!-- −2000 -->
      <g transform="translate(84.250145 315.945906)scale(0.15 -0.15)">
       <defs>
        <path id="DejaVuSans-2212" d="M 678 2272 
L 4684 2272 
L 4684 1741 
L 678 1741 
L 678 2272 
z
" transform="scale(0.015625)"/>
        <path id="DejaVuSans-32" d="M 1228 531 
L 3431 531 
L 3431 0 
L 469 0 
L 469 531 
Q 828 903 1448 1529 
Q 2069 2156 2228 2338 
Q 2531 2678 2651 2914 
Q 2772 3150 2772 3378 
Q 2772 3750 2511 3984 
Q 2250 4219 1831 4219 
Q 1534 4219 1204 4116 
Q 875 4013 500 3803 
L 500 4441 
Q 881 4594 1212 4672 
Q 1544 4750 1819 4750 
Q 2544 4750 2975 4387 
Q 3406 4025 3406 3419 
Q 3406 3131 3298 2873 
Q 3191 2616 2906 2266 
Q 2828 2175 2409 1742 
Q 1991 1309 1228 531 
z
" transform="scale(0.015625)"/>
        <path id="DejaVuSans-30" d="M 2034 4250 
Q 1547 4250 1301 3770 
Q 1056 3291 1056 2328 
Q 1056 1369 1301 889 
Q 1547 409 2034 409 
Q 2525 409 2770 889 
Q 3016 1369 3016 2328 
Q 3016 3291 2770 3770 
Q 2525 4250 2034 4250 
z
M 2034 4750 
Q 2819 4750 3233 4129 
Q 3647 3509 3647 2328 
Q 3647 1150 3233 529 
Q 2819 -91 2034 -91 
Q 1250 -91 836 529 
Q 422 1150 422 2328 
Q 422 3509 836 4129 
Q 1250 4750 2034 4750 
z
" transform="scale(0.015625)"/>
       </defs>
       <use xlink:href="#DejaVuSans-2212"/>
       <use xlink:href="#DejaVuSans-32" x="83.789062"/>
       <use xlink:href="#DejaVuSans-30" x="147.412109"/>
       <use xlink:href="#DejaVuSans-30" x="211.035156"/>
       <use xlink:href="#DejaVuSans-30" x="274.658203"/>
      </g>
     </g>
    </g>
    <g id="xtick_2">
     <g id="line2d_3">
      <path d="M 178.697846 297.54825 
L 178.697846 31.43625 
" clip-path="url(#p909abbc071)" style="fill: none; stroke: #b0b0b0; stroke-width: 0.8; stroke-linecap: square"/>
     </g>
     <g id="line2d_4">
      <g>
       <use xlink:href="#md39032bed2" x="178.697846" y="297.54825" style="stroke: #000000; stroke-width: 0.8"/>
      </g>
     </g>
     <g id="text_2">
      <!-- −1000 -->
      <g transform="translate(153.32558 315.945906)scale(0.15 -0.15)">
       <defs>
        <path id="DejaVuSans-31" d="M 794 531 
L 1825 531 
L 1825 4091 
L 703 3866 
L 703 4441 
L 1819 4666 
L 2450 4666 
L 2450 531 
L 3481 531 
L 3481 0 
L 794 0 
L 794 531 
z
" transform="scale(0.015625)"/>
       </defs>
       <use xlink:href="#DejaVuSans-2212"/>
       <use xlink:href="#DejaVuSans-31" x="83.789062"/>
       <use xlink:href="#DejaVuSans-30" x="147.412109"/>
       <use xlink:href="#DejaVuSans-30" x="211.035156"/>
       <use xlink:href="#DejaVuSans-30" x="274.658203"/>
      </g>
     </g>
    </g>
    <g id="xtick_3">
     <g id="line2d_5">
      <path d="M 247.773281 297.54825 
L 247.773281 31.43625 
" clip-path="url(#p909abbc071)" style="fill: none; stroke: #b0b0b0; stroke-width: 0.8; stroke-linecap: square"/>
     </g>
     <g id="line2d_6">
      <g>
       <use xlink:href="#md39032bed2" x="247.773281" y="297.54825" style="stroke: #000000; stroke-width: 0.8"/>
      </g>
     </g>
     <g id="text_3">
      <!-- 0 -->
      <g transform="translate(243.001406 315.945906)scale(0.15 -0.15)">
       <use xlink:href="#DejaVuSans-30"/>
      </g>
     </g>
    </g>
    <g id="xtick_4">
     <g id="line2d_7">
      <path d="M 316.848716 297.54825 
L 316.848716 31.43625 
" clip-path="url(#p909abbc071)" style="fill: none; stroke: #b0b0b0; stroke-width: 0.8; stroke-linecap: square"/>
     </g>
     <g id="line2d_8">
      <g>
       <use xlink:href="#md39032bed2" x="316.848716" y="297.54825" style="stroke: #000000; stroke-width: 0.8"/>
      </g>
     </g>
     <g id="text_4">
      <!-- 1000 -->
      <g transform="translate(297.761216 315.945906)scale(0.15 -0.15)">
       <use xlink:href="#DejaVuSans-31"/>
       <use xlink:href="#DejaVuSans-30" x="63.623047"/>
       <use xlink:href="#DejaVuSans-30" x="127.246094"/>
       <use xlink:href="#DejaVuSans-30" x="190.869141"/>
      </g>
     </g>
    </g>
    <g id="xtick_5">
     <g id="line2d_9">
      <path d="M 385.924152 297.54825 
L 385.924152 31.43625 
" clip-path="url(#p909abbc071)" style="fill: none; stroke: #b0b0b0; stroke-width: 0.8; stroke-linecap: square"/>
     </g>
     <g id="line2d_10">
      <g>
       <use xlink:href="#md39032bed2" x="385.924152" y="297.54825" style="stroke: #000000; stroke-width: 0.8"/>
      </g>
     </g>
     <g id="text_5">
      <!-- 2000 -->
      <g transform="translate(366.836652 315.945906)scale(0.15 -0.15)">
       <use xlink:href="#DejaVuSans-32"/>
       <use xlink:href="#DejaVuSans-30" x="63.623047"/>
       <use xlink:href="#DejaVuSans-30" x="127.246094"/>
       <use xlink:href="#DejaVuSans-30" x="190.869141"/>
      </g>
     </g>
    </g>
    <g id="text_6">
     <!-- X ($\mu m$) -->
     <g transform="translate(213.773281 338.265437)scale(0.2 -0.2)">
      <defs>
       <path id="DejaVuSans-58" d="M 403 4666 
L 1081 4666 
L 2241 2931 
L 3406 4666 
L 4084 4666 
L 2584 2425 
L 4184 0 
L 3506 0 
L 2194 1984 
L 872 0 
L 191 0 
L 1856 2491 
L 403 4666 
z
" transform="scale(0.015625)"/>
       <path id="DejaVuSans-20" transform="scale(0.015625)"/>
       <path id="DejaVuSans-28" d="M 1984 4856 
Q 1566 4138 1362 3434 
Q 1159 2731 1159 2009 
Q 1159 1288 1364 580 
Q 1569 -128 1984 -844 
L 1484 -844 
Q 1016 -109 783 600 
Q 550 1309 550 2009 
Q 550 2706 781 3412 
Q 1013 4119 1484 4856 
L 1984 4856 
z
" transform="scale(0.015625)"/>
       <path id="DejaVuSans-Oblique-3bc" d="M -84 -1331 
L 856 3500 
L 1434 3500 
L 1009 1322 
Q 997 1256 987 1175 
Q 978 1094 978 1013 
Q 978 722 1161 565 
Q 1344 409 1684 409 
Q 2147 409 2431 671 
Q 2716 934 2816 1459 
L 3213 3500 
L 3788 3500 
L 3266 809 
Q 3253 750 3248 706 
Q 3244 663 3244 628 
Q 3244 531 3283 486 
Q 3322 441 3406 441 
Q 3438 441 3492 456 
Q 3547 472 3647 513 
L 3559 50 
Q 3422 -19 3297 -55 
Q 3172 -91 3053 -91 
Q 2847 -91 2730 40 
Q 2613 172 2613 403 
Q 2438 153 2195 31 
Q 1953 -91 1625 -91 
Q 1334 -91 1117 43 
Q 900 178 831 397 
L 494 -1331 
L -84 -1331 
z
" transform="scale(0.015625)"/>
       <path id="DejaVuSans-Oblique-6d" d="M 5747 2113 
L 5338 0 
L 4763 0 
L 5166 2094 
Q 5191 2228 5203 2325 
Q 5216 2422 5216 2491 
Q 5216 2772 5059 2928 
Q 4903 3084 4622 3084 
Q 4203 3084 3875 2770 
Q 3547 2456 3450 1953 
L 3066 0 
L 2491 0 
L 2900 2094 
Q 2925 2209 2937 2307 
Q 2950 2406 2950 2484 
Q 2950 2769 2794 2926 
Q 2638 3084 2363 3084 
Q 1938 3084 1609 2770 
Q 1281 2456 1184 1953 
L 800 0 
L 225 0 
L 909 3500 
L 1484 3500 
L 1375 2956 
Q 1609 3263 1923 3423 
Q 2238 3584 2597 3584 
Q 2978 3584 3223 3384 
Q 3469 3184 3519 2828 
Q 3781 3197 4126 3390 
Q 4472 3584 4856 3584 
Q 5306 3584 5551 3325 
Q 5797 3066 5797 2591 
Q 5797 2488 5784 2364 
Q 5772 2241 5747 2113 
z
" transform="scale(0.015625)"/>
       <path id="DejaVuSans-29" d="M 513 4856 
L 1013 4856 
Q 1481 4119 1714 3412 
Q 1947 2706 1947 2009 
Q 1947 1309 1714 600 
Q 1481 -109 1013 -844 
L 513 -844 
Q 928 -128 1133 580 
Q 1338 1288 1338 2009 
Q 1338 2731 1133 3434 
Q 928 4138 513 4856 
z
" transform="scale(0.015625)"/>
      </defs>
      <use xlink:href="#DejaVuSans-58" transform="translate(0 0.125)"/>
      <use xlink:href="#DejaVuSans-20" transform="translate(68.505859 0.125)"/>
      <use xlink:href="#DejaVuSans-28" transform="translate(100.292969 0.125)"/>
      <use xlink:href="#DejaVuSans-Oblique-3bc" transform="translate(139.306641 0.125)"/>
      <use xlink:href="#DejaVuSans-Oblique-6d" transform="translate(202.929688 0.125)"/>
      <use xlink:href="#DejaVuSans-29" transform="translate(300.341797 0.125)"/>
     </g>
    </g>
   </g>
   <g id="matplotlib.axis_2">
    <g id="ytick_1">
     <g id="line2d_11">
      <path d="M 69.213281 270.93705 
L 426.333281 270.93705 
" clip-path="url(#p909abbc071)" style="fill: none; stroke: #b0b0b0; stroke-width: 0.8; stroke-linecap: square"/>
     </g>
     <g id="line2d_12">
      <defs>
       <path id="m6f3f5b6aff" d="M 0 0 
L -3.5 0 
" style="stroke: #000000; stroke-width: 0.8"/>
      </defs>
      <g>
       <use xlink:href="#m6f3f5b6aff" x="69.213281" y="270.93705" style="stroke: #000000; stroke-width: 0.8"/>
      </g>
     </g>
     <g id="text_7">
      <!-- −20 -->
      <g transform="translate(30.55625 276.635878)scale(0.15 -0.15)">
       <use xlink:href="#DejaVuSans-2212"/>
       <use xlink:href="#DejaVuSans-32" x="83.789062"/>
       <use xlink:href="#DejaVuSans-30" x="147.412109"/>
      </g>
     </g>
    </g>
    <g id="ytick_2">
     <g id="line2d_13">
      <path d="M 69.213281 217.71465 
L 426.333281 217.71465 
" clip-path="url(#p909abbc071)" style="fill: none; stroke: #b0b0b0; stroke-width: 0.8; stroke-linecap: square"/>
     </g>
     <g id="line2d_14">
      <g>
       <use xlink:href="#m6f3f5b6aff" x="69.213281" y="217.71465" style="stroke: #000000; stroke-width: 0.8"/>
      </g>
     </g>
     <g id="text_8">
      <!-- −10 -->
      <g transform="translate(30.55625 223.413478)scale(0.15 -0.15)">
       <use xlink:href="#DejaVuSans-2212"/>
       <use xlink:href="#DejaVuSans-31" x="83.789062"/>
       <use xlink:href="#DejaVuSans-30" x="147.412109"/>
      </g>
     </g>
    </g>
    <g id="ytick_3">
     <g id="line2d_15">
      <path d="M 69.213281 164.49225 
L 426.333281 164.49225 
" clip-path="url(#p909abbc071)" style="fill: none; stroke: #b0b0b0; stroke-width: 0.8; stroke-linecap: square"/>
     </g>
     <g id="line2d_16">
      <g>
       <use xlink:href="#m6f3f5b6aff" x="69.213281" y="164.49225" style="stroke: #000000; stroke-width: 0.8"/>
      </g>
     </g>
     <g id="text_9">
      <!-- 0 -->
      <g transform="translate(52.669531 170.191078)scale(0.15 -0.15)">
       <use xlink:href="#DejaVuSans-30"/>
      </g>
     </g>
    </g>
    <g id="ytick_4">
     <g id="line2d_17">
      <path d="M 69.213281 111.26985 
L 426.333281 111.26985 
" clip-path="url(#p909abbc071)" style="fill: none; stroke: #b0b0b0; stroke-width: 0.8; stroke-linecap: square"/>
     </g>
     <g id="line2d_18">
      <g>
       <use xlink:href="#m6f3f5b6aff" x="69.213281" y="111.26985" style="stroke: #000000; stroke-width: 0.8"/>
      </g>
     </g>
     <g id="text_10">
      <!-- 10 -->
      <g transform="translate(43.125781 116.968678)scale(0.15 -0.15)">
       <use xlink:href="#DejaVuSans-31"/>
       <use xlink:href="#DejaVuSans-30" x="63.623047"/>
      </g>
     </g>
    </g>
    <g id="ytick_5">
     <g id="line2d_19">
      <path d="M 69.213281 58.04745 
L 426.333281 58.04745 
" clip-path="url(#p909abbc071)" style="fill: none; stroke: #b0b0b0; stroke-width: 0.8; stroke-linecap: square"/>
     </g>
     <g id="line2d_20">
      <g>
       <use xlink:href="#m6f3f5b6aff" x="69.213281" y="58.04745" style="stroke: #000000; stroke-width: 0.8"/>
      </g>
     </g>
     <g id="text_11">
      <!-- 20 -->
      <g transform="translate(43.125781 63.746278)scale(0.15 -0.15)">
       <use xlink:href="#DejaVuSans-32"/>
       <use xlink:href="#DejaVuSans-30" x="63.623047"/>
      </g>
     </g>
    </g>
    <g id="text_12">
     <!-- $mm^{-2}$ -->
     <g transform="translate(22.396875 195.09225)rotate(-90)scale(0.2 -0.2)">
      <use xlink:href="#DejaVuSans-Oblique-6d" transform="translate(0 0.765625)"/>
      <use xlink:href="#DejaVuSans-Oblique-6d" transform="translate(97.412109 0.765625)"/>
      <use xlink:href="#DejaVuSans-2212" transform="translate(199.474115 39.046875)scale(0.7)"/>
      <use xlink:href="#DejaVuSans-32" transform="translate(258.126458 39.046875)scale(0.7)"/>
     </g>
    </g>
   </g>
   <g id="line2d_21">
    <path d="M 85.446009 235.848755 
L 86.136763 274.026673 
L 86.48214 222.055522 
L 86.827517 190.218048 
L 87.518272 160.258743 
L 89.245157 108.368023 
L 89.935912 91.766529 
L 90.626666 81.705323 
L 90.972043 79.000942 
L 91.317421 77.253182 
L 91.662798 76.188404 
L 92.353552 75.096884 
L 93.044306 74.438619 
L 93.735061 73.359637 
L 94.425815 71.770909 
L 95.807324 67.594679 
L 96.843455 64.696887 
L 97.53421 63.304084 
L 98.224964 62.374711 
L 100.297227 60.283665 
L 100.987981 59.125488 
L 102.024113 56.800806 
L 103.060244 54.55346 
L 103.750999 53.535701 
L 104.441753 52.906212 
L 105.477885 52.082715 
L 106.168639 51.179639 
L 107.204771 49.169786 
L 108.240902 47.167689 
L 108.931656 46.335889 
L 109.277034 45.946521 
L 110.658542 45.207849 
L 111.349297 44.52293 
L 112.730805 42.832989 
L 113.076183 42.613081 
L 113.42156 42.568007 
L 113.766937 42.723596 
L 114.112314 43.073075 
L 114.803068 44.266515 
L 117.220709 49.843393 
L 120.329103 56.789513 
L 121.019858 57.648749 
L 121.710612 58.079887 
L 122.401366 58.176541 
L 123.437498 57.988568 
L 125.855138 57.255037 
L 126.89127 56.62354 
L 127.582024 55.902823 
L 128.618156 54.476428 
L 129.654287 52.594428 
L 132.071927 47.927161 
L 133.108059 46.423063 
L 134.14419 45.267827 
L 135.525699 44.107039 
L 136.907208 43.278667 
L 137.943339 42.871578 
L 139.324848 42.605313 
L 141.051734 42.585741 
L 145.887014 42.904598 
L 150.722295 43.087804 
L 156.24833 43.118646 
L 162.465119 43.006622 
L 169.027285 42.894862 
L 223.251502 41.978108 
L 275.403455 41.539293 
L 296.81684 41.445068 
L 303.033629 41.421769 
L 334.80833 41.350736 
L 344.133513 41.130961 
L 349.314171 40.780603 
L 355.876337 40.213514 
L 357.257846 40.389586 
L 358.293978 40.720638 
L 359.675486 41.430271 
L 361.056995 42.427961 
L 362.093127 43.410692 
L 363.129258 44.699657 
L 364.16539 46.377616 
L 367.619161 52.644555 
L 368.309916 53.4028 
L 369.00067 53.924173 
L 370.036802 54.345728 
L 372.799819 54.895375 
L 373.490573 54.893794 
L 374.181328 54.628495 
L 374.872082 53.960325 
L 375.562836 52.83073 
L 376.598968 50.447468 
L 381.088871 39.172702 
L 381.779626 38.15324 
L 382.125003 37.951753 
L 382.47038 37.966474 
L 382.815757 38.17169 
L 383.506511 38.960701 
L 384.542643 40.243393 
L 385.233397 40.733014 
L 386.614906 41.316616 
L 387.30566 42.076357 
L 387.996415 43.315923 
L 389.377923 46.175325 
L 390.068678 47.034284 
L 391.104809 47.736708 
L 391.795564 48.281117 
L 392.486318 49.248255 
L 393.177072 50.677985 
L 394.558581 53.832191 
L 395.249335 54.958865 
L 395.94009 55.670871 
L 397.666976 57.013335 
L 398.35773 58.099188 
L 399.048484 59.725067 
L 400.084616 63.020304 
L 401.120747 66.214021 
L 401.811502 67.798058 
L 402.502256 68.644355 
L 403.883765 69.701996 
L 404.229142 70.337646 
L 404.574519 71.764328 
L 404.919896 74.264842 
L 405.265274 78.305831 
L 405.610651 84.309435 
L 406.301405 102.404933 
L 407.682914 149.570331 
L 408.373668 178.362833 
L 408.719045 201.006624 
L 409.064422 260.549236 
L 409.4098 272.334339 
L 410.100554 236.331256 
L 410.100554 236.331256 
" clip-path="url(#p909abbc071)" style="fill: none; stroke: #1f77b4; stroke-width: 1.5; stroke-linecap: square"/>
   </g>
   <g id="line2d_22">
    <path d="M 85.446009 167.720178 
L 85.791386 163.769217 
L 86.48214 164.886727 
L 89.245157 164.918871 
L 93.389684 164.84913 
L 103.060244 164.676622 
L 108.586279 164.687847 
L 118.947595 164.543287 
L 126.89127 164.539299 
L 159.011347 164.496547 
L 255.716956 164.435115 
L 399.739239 164.505042 
L 407.337537 164.528914 
L 407.682914 164.614737 
L 408.028291 166.077061 
L 408.373668 164.254876 
L 409.064422 164.484845 
L 410.100554 164.46821 
L 410.100554 164.46821 
" clip-path="url(#p909abbc071)" style="fill: none; stroke: #ff7f0e; stroke-width: 1.5; stroke-linecap: square"/>
   </g>
   <g id="line2d_23">
    <path d="M 85.446009 164.565815 
L 86.136763 166.526151 
L 86.48214 202.993887 
L 86.827517 215.985968 
L 87.172894 220.480498 
L 87.518272 222.44838 
L 87.863649 223.233946 
L 88.209026 223.533899 
L 88.554403 223.597364 
L 88.89978 223.828566 
L 89.245157 224.567552 
L 89.590535 226.092634 
L 90.281289 231.704158 
L 92.008175 249.458955 
L 92.698929 254.104014 
L 93.389684 257.243687 
L 94.080438 259.13179 
L 94.771192 260.219449 
L 96.843455 262.602396 
L 97.879587 264.441343 
L 100.987981 270.577353 
L 103.750999 274.338818 
L 105.823262 278.493078 
L 106.514016 279.336983 
L 108.586279 281.177427 
L 108.931656 281.676679 
L 109.967788 283.534174 
L 110.658542 284.471493 
L 111.349297 284.982037 
L 112.040051 285.079331 
L 114.457691 284.670364 
L 114.803068 284.511387 
L 115.148446 284.223974 
L 115.8392 283.144005 
L 116.529954 281.396737 
L 117.911463 277.149143 
L 118.602217 275.541211 
L 119.292972 274.500783 
L 119.983726 273.940617 
L 121.019858 273.566833 
L 123.782875 272.958464 
L 124.819007 273.003528 
L 125.855138 273.306101 
L 126.89127 273.855168 
L 127.582024 274.444486 
L 128.618156 275.556025 
L 129.654287 277.087487 
L 132.417304 281.742491 
L 133.108059 282.486345 
L 133.798813 282.951084 
L 134.489568 283.1925 
L 137.943339 283.932302 
L 141.397111 285.14625 
L 143.123997 285.440473 
L 145.887014 285.662797 
L 151.413049 285.768338 
L 160.738233 285.910922 
L 196.657459 286.629709 
L 287.491656 287.508201 
L 299.579858 287.545861 
L 306.142024 287.569732 
L 318.92098 287.57583 
L 330.318426 287.595702 
L 338.262101 287.642357 
L 350.350303 287.798475 
L 353.11332 287.610688 
L 354.840206 287.272257 
L 356.912469 286.569107 
L 358.639355 286.019163 
L 360.020863 285.829652 
L 361.402372 285.66256 
L 362.093127 285.424495 
L 362.783881 284.865648 
L 363.474635 284.011094 
L 364.510767 282.303597 
L 366.237653 279.318813 
L 367.273784 277.963032 
L 368.309916 277.045267 
L 369.346047 276.473019 
L 370.382179 276.151312 
L 371.41831 276.082278 
L 372.109065 276.116413 
L 373.83595 276.6533 
L 375.217459 277.126569 
L 375.908214 277.573974 
L 376.598968 278.426216 
L 377.289722 279.859611 
L 378.325854 283.006058 
L 379.361985 286.296337 
L 380.05274 287.841886 
L 380.743494 288.663248 
L 381.434248 288.961298 
L 381.779626 289.028397 
L 382.125003 289.271356 
L 383.851889 289.744689 
L 384.197266 289.698059 
L 384.88802 289.253091 
L 385.578774 288.350939 
L 386.960283 286.161276 
L 387.651038 285.449322 
L 389.032546 284.381338 
L 389.723301 283.596449 
L 390.414055 282.414063 
L 392.486318 278.280314 
L 393.52245 276.994753 
L 394.903958 275.530809 
L 395.94009 273.75225 
L 398.703107 268.43742 
L 399.739239 267.165207 
L 401.120747 265.947109 
L 401.466125 265.433159 
L 402.156879 263.850369 
L 402.847633 260.799777 
L 403.538388 255.789669 
L 404.229142 249.152136 
L 405.610651 233.310994 
L 405.956028 230.647317 
L 406.301405 228.970307 
L 406.646782 228.198168 
L 406.992159 227.997659 
L 407.337537 227.935256 
L 407.682914 227.569686 
L 408.028291 226.478301 
L 408.373668 223.469343 
L 408.719045 216.581168 
L 409.4098 166.399243 
L 409.755177 165.551823 
L 410.100554 163.467306 
L 410.100554 163.467306 
" clip-path="url(#p909abbc071)" style="fill: none; stroke: #2ca02c; stroke-width: 1.5; stroke-linecap: square"/>
   </g>
   <g id="patch_3">
    <path d="M 69.213281 297.54825 
L 69.213281 31.43625 
" style="fill: none; stroke: #000000; stroke-width: 0.8; stroke-linejoin: miter; stroke-linecap: square"/>
   </g>
   <g id="patch_4">
    <path d="M 426.333281 297.54825 
L 426.333281 31.43625 
" style="fill: none; stroke: #000000; stroke-width: 0.8; stroke-linejoin: miter; stroke-linecap: square"/>
   </g>
   <g id="patch_5">
    <path d="M 69.213281 297.54825 
L 426.333281 297.54825 
" style="fill: none; stroke: #000000; stroke-width: 0.8; stroke-linejoin: miter; stroke-linecap: square"/>
   </g>
   <g id="patch_6">
    <path d="M 69.213281 31.43625 
L 426.333281 31.43625 
" style="fill: none; stroke: #000000; stroke-width: 0.8; stroke-linejoin: miter; stroke-linecap: square"/>
   </g>
   <g id="text_13">
    <!-- RF Field Curvature -->
    <g transform="translate(137.474531 25.43625)scale(0.24 -0.24)">
     <defs>
      <path id="DejaVuSans-52" d="M 2841 2188 
Q 3044 2119 3236 1894 
Q 3428 1669 3622 1275 
L 4263 0 
L 3584 0 
L 2988 1197 
Q 2756 1666 2539 1819 
Q 2322 1972 1947 1972 
L 1259 1972 
L 1259 0 
L 628 0 
L 628 4666 
L 2053 4666 
Q 2853 4666 3247 4331 
Q 3641 3997 3641 3322 
Q 3641 2881 3436 2590 
Q 3231 2300 2841 2188 
z
M 1259 4147 
L 1259 2491 
L 2053 2491 
Q 2509 2491 2742 2702 
Q 2975 2913 2975 3322 
Q 2975 3731 2742 3939 
Q 2509 4147 2053 4147 
L 1259 4147 
z
" transform="scale(0.015625)"/>
      <path id="DejaVuSans-46" d="M 628 4666 
L 3309 4666 
L 3309 4134 
L 1259 4134 
L 1259 2759 
L 3109 2759 
L 3109 2228 
L 1259 2228 
L 1259 0 
L 628 0 
L 628 4666 
z
" transform="scale(0.015625)"/>
      <path id="DejaVuSans-69" d="M 603 3500 
L 1178 3500 
L 1178 0 
L 603 0 
L 603 3500 
z
M 603 4863 
L 1178 4863 
L 1178 4134 
L 603 4134 
L 603 4863 
z
" transform="scale(0.015625)"/>
      <path id="DejaVuSans-65" d="M 3597 1894 
L 3597 1613 
L 953 1613 
Q 991 1019 1311 708 
Q 1631 397 2203 397 
Q 2534 397 2845 478 
Q 3156 559 3463 722 
L 3463 178 
Q 3153 47 2828 -22 
Q 2503 -91 2169 -91 
Q 1331 -91 842 396 
Q 353 884 353 1716 
Q 353 2575 817 3079 
Q 1281 3584 2069 3584 
Q 2775 3584 3186 3129 
Q 3597 2675 3597 1894 
z
M 3022 2063 
Q 3016 2534 2758 2815 
Q 2500 3097 2075 3097 
Q 1594 3097 1305 2825 
Q 1016 2553 972 2059 
L 3022 2063 
z
" transform="scale(0.015625)"/>
      <path id="DejaVuSans-6c" d="M 603 4863 
L 1178 4863 
L 1178 0 
L 603 0 
L 603 4863 
z
" transform="scale(0.015625)"/>
      <path id="DejaVuSans-64" d="M 2906 2969 
L 2906 4863 
L 3481 4863 
L 3481 0 
L 2906 0 
L 2906 525 
Q 2725 213 2448 61 
Q 2172 -91 1784 -91 
Q 1150 -91 751 415 
Q 353 922 353 1747 
Q 353 2572 751 3078 
Q 1150 3584 1784 3584 
Q 2172 3584 2448 3432 
Q 2725 3281 2906 2969 
z
M 947 1747 
Q 947 1113 1208 752 
Q 1469 391 1925 391 
Q 2381 391 2643 752 
Q 2906 1113 2906 1747 
Q 2906 2381 2643 2742 
Q 2381 3103 1925 3103 
Q 1469 3103 1208 2742 
Q 947 2381 947 1747 
z
" transform="scale(0.015625)"/>
      <path id="DejaVuSans-43" d="M 4122 4306 
L 4122 3641 
Q 3803 3938 3442 4084 
Q 3081 4231 2675 4231 
Q 1875 4231 1450 3742 
Q 1025 3253 1025 2328 
Q 1025 1406 1450 917 
Q 1875 428 2675 428 
Q 3081 428 3442 575 
Q 3803 722 4122 1019 
L 4122 359 
Q 3791 134 3420 21 
Q 3050 -91 2638 -91 
Q 1578 -91 968 557 
Q 359 1206 359 2328 
Q 359 3453 968 4101 
Q 1578 4750 2638 4750 
Q 3056 4750 3426 4639 
Q 3797 4528 4122 4306 
z
" transform="scale(0.015625)"/>
      <path id="DejaVuSans-75" d="M 544 1381 
L 544 3500 
L 1119 3500 
L 1119 1403 
Q 1119 906 1312 657 
Q 1506 409 1894 409 
Q 2359 409 2629 706 
Q 2900 1003 2900 1516 
L 2900 3500 
L 3475 3500 
L 3475 0 
L 2900 0 
L 2900 538 
Q 2691 219 2414 64 
Q 2138 -91 1772 -91 
Q 1169 -91 856 284 
Q 544 659 544 1381 
z
M 1991 3584 
L 1991 3584 
z
" transform="scale(0.015625)"/>
      <path id="DejaVuSans-72" d="M 2631 2963 
Q 2534 3019 2420 3045 
Q 2306 3072 2169 3072 
Q 1681 3072 1420 2755 
Q 1159 2438 1159 1844 
L 1159 0 
L 581 0 
L 581 3500 
L 1159 3500 
L 1159 2956 
Q 1341 3275 1631 3429 
Q 1922 3584 2338 3584 
Q 2397 3584 2469 3576 
Q 2541 3569 2628 3553 
L 2631 2963 
z
" transform="scale(0.015625)"/>
      <path id="DejaVuSans-76" d="M 191 3500 
L 800 3500 
L 1894 563 
L 2988 3500 
L 3597 3500 
L 2284 0 
L 1503 0 
L 191 3500 
z
" transform="scale(0.015625)"/>
      <path id="DejaVuSans-61" d="M 2194 1759 
Q 1497 1759 1228 1600 
Q 959 1441 959 1056 
Q 959 750 1161 570 
Q 1363 391 1709 391 
Q 2188 391 2477 730 
Q 2766 1069 2766 1631 
L 2766 1759 
L 2194 1759 
z
M 3341 1997 
L 3341 0 
L 2766 0 
L 2766 531 
Q 2569 213 2275 61 
Q 1981 -91 1556 -91 
Q 1019 -91 701 211 
Q 384 513 384 1019 
Q 384 1609 779 1909 
Q 1175 2209 1959 2209 
L 2766 2209 
L 2766 2266 
Q 2766 2663 2505 2880 
Q 2244 3097 1772 3097 
Q 1472 3097 1187 3025 
Q 903 2953 641 2809 
L 641 3341 
Q 956 3463 1253 3523 
Q 1550 3584 1831 3584 
Q 2591 3584 2966 3190 
Q 3341 2797 3341 1997 
z
" transform="scale(0.015625)"/>
      <path id="DejaVuSans-74" d="M 1172 4494 
L 1172 3500 
L 2356 3500 
L 2356 3053 
L 1172 3053 
L 1172 1153 
Q 1172 725 1289 603 
Q 1406 481 1766 481 
L 2356 481 
L 2356 0 
L 1766 0 
Q 1100 0 847 248 
Q 594 497 594 1153 
L 594 3053 
L 172 3053 
L 172 3500 
L 594 3500 
L 594 4494 
L 1172 4494 
z
" transform="scale(0.015625)"/>
     </defs>
     <use xlink:href="#DejaVuSans-52"/>
     <use xlink:href="#DejaVuSans-46" x="69.482422"/>
     <use xlink:href="#DejaVuSans-20" x="127.001953"/>
     <use xlink:href="#DejaVuSans-46" x="158.789062"/>
     <use xlink:href="#DejaVuSans-69" x="209.058594"/>
     <use xlink:href="#DejaVuSans-65" x="236.841797"/>
     <use xlink:href="#DejaVuSans-6c" x="298.365234"/>
     <use xlink:href="#DejaVuSans-64" x="326.148438"/>
     <use xlink:href="#DejaVuSans-20" x="389.625"/>
     <use xlink:href="#DejaVuSans-43" x="421.412109"/>
     <use xlink:href="#DejaVuSans-75" x="491.236328"/>
     <use xlink:href="#DejaVuSans-72" x="554.615234"/>
     <use xlink:href="#DejaVuSans-76" x="595.728516"/>
     <use xlink:href="#DejaVuSans-61" x="654.908203"/>
     <use xlink:href="#DejaVuSans-74" x="716.1875"/>
     <use xlink:href="#DejaVuSans-75" x="755.396484"/>
     <use xlink:href="#DejaVuSans-72" x="818.775391"/>
     <use xlink:href="#DejaVuSans-65" x="857.638672"/>
    </g>
   </g>
   <g id="legend_1">
    <g id="patch_7">
     <path d="M 313.133281 138.589375 
L 412.333281 138.589375 
Q 416.333281 138.589375 416.333281 134.589375 
L 416.333281 45.43625 
Q 416.333281 41.43625 412.333281 41.43625 
L 313.133281 41.43625 
Q 309.133281 41.43625 309.133281 45.43625 
L 309.133281 134.589375 
Q 309.133281 138.589375 313.133281 138.589375 
z
" style="fill: #ffffff; opacity: 0.8; stroke: #cccccc; stroke-linejoin: miter"/>
    </g>
    <g id="line2d_24">
     <path d="M 317.133281 60.63625 
L 337.133281 60.63625 
L 357.133281 60.63625 
" style="fill: none; stroke: #1f77b4; stroke-width: 1.5; stroke-linecap: square"/>
    </g>
    <g id="text_14">
     <!-- $y^2$ -->
     <g transform="translate(373.133281 67.63625)scale(0.2 -0.2)">
      <defs>
       <path id="DejaVuSans-Oblique-79" d="M 1588 -325 
Q 1188 -997 936 -1164 
Q 684 -1331 294 -1331 
L -159 -1331 
L -63 -850 
L 269 -850 
Q 509 -850 678 -719 
Q 847 -588 1056 -206 
L 1234 128 
L 459 3500 
L 1069 3500 
L 1650 819 
L 3256 3500 
L 3859 3500 
L 1588 -325 
z
" transform="scale(0.015625)"/>
      </defs>
      <use xlink:href="#DejaVuSans-Oblique-79" transform="translate(0 0.765625)"/>
      <use xlink:href="#DejaVuSans-32" transform="translate(63.645833 39.046875)scale(0.7)"/>
     </g>
    </g>
    <g id="line2d_25">
     <path d="M 317.133281 90.033125 
L 337.133281 90.033125 
L 357.133281 90.033125 
" style="fill: none; stroke: #ff7f0e; stroke-width: 1.5; stroke-linecap: square"/>
    </g>
    <g id="text_15">
     <!-- $2yz$ -->
     <g transform="translate(373.133281 97.033125)scale(0.2 -0.2)">
      <defs>
       <path id="DejaVuSans-Oblique-7a" d="M 744 3500 
L 3475 3500 
L 3372 2975 
L 738 459 
L 2913 459 
L 2822 0 
L -19 0 
L 84 525 
L 2719 3041 
L 653 3041 
L 744 3500 
z
" transform="scale(0.015625)"/>
      </defs>
      <use xlink:href="#DejaVuSans-32" transform="translate(0 0.78125)"/>
      <use xlink:href="#DejaVuSans-Oblique-79" transform="translate(63.623047 0.78125)"/>
      <use xlink:href="#DejaVuSans-Oblique-7a" transform="translate(122.802734 0.78125)"/>
     </g>
    </g>
    <g id="line2d_26">
     <path d="M 317.133281 119.43 
L 337.133281 119.43 
L 357.133281 119.43 
" style="fill: none; stroke: #2ca02c; stroke-width: 1.5; stroke-linecap: square"/>
    </g>
    <g id="text_16">
     <!-- $z^2$ -->
     <g transform="translate(373.133281 126.43)scale(0.2 -0.2)">
      <use xlink:href="#DejaVuSans-Oblique-7a" transform="translate(0 0.765625)"/>
      <use xlink:href="#DejaVuSans-32" transform="translate(56.95638 39.046875)scale(0.7)"/>
     </g>
    </g>
   </g>
  </g>
 </g>
 <defs>
  <clipPath id="p909abbc071">
   <rect x="69.213281" y="31.43625" width="357.12" height="266.112"/>
  </clipPath>
 </defs>
</svg>
