<?xml version="1.0" encoding="utf-8" standalone="no"?>
<!DOCTYPE svg PUBLIC "-//W3C//DTD SVG 1.1//EN"
  "http://www.w3.org/Graphics/SVG/1.1/DTD/svg11.dtd">
<svg xmlns:xlink="http://www.w3.org/1999/xlink" width="388.06375pt" height="331.084266pt" viewBox="0 0 388.06375 331.084266" xmlns="http://www.w3.org/2000/svg" version="1.1">
 <defs>
  <style type="text/css">*{stroke-linejoin: round; stroke-linecap: butt}</style>
 </defs>
 <g id="figure_1">
  <g id="patch_1">
   <path d="M 0 331.084266 
L 388.06375 331.084266 
L 388.06375 0 
L 0 0 
L 0 331.084266 
z
" style="fill: none"/>
  </g>
  <g id="axes_1">
   <g id="patch_2">
    <path d="M 23.74375 279.010828 
L 380.86375 279.010828 
L 380.86375 12.898828 
L 23.74375 12.898828 
L 23.74375 279.010828 
z
" style="fill: none"/>
   </g>
   <g id="matplotlib.axis_1">
    <g id="xtick_1">
     <g id="line2d_1">
      <path d="M 55.67406 279.010828 
L 55.67406 12.898828 
" clip-path="url(#p7109abde4b)" style="fill: none; stroke: #b0b0b0; stroke-width: 0.8; stroke-linecap: square"/>
     </g>
     <g id="line2d_2">
      <defs>
       <path id="md39032bed2" d="M 0 0 
L 0 3.5 
" style="stroke: #000000; stroke-width: 0.8"/>
      </defs>
      <g>
       <use xlink:href="#md39032bed2" x="55.67406" y="279.010828" style="stroke: #000000; stroke-width: 0.8"/>
      </g>
     </g>
     <g id="text_1">
      <!-- −3000 -->
      <g transform="translate(30.301794 297.408484)scale(0.15 -0.15)">
       <defs>
        <path id="DejaVuSans-2212" d="M 678 2272 
L 4684 2272 
L 4684 1741 
L 678 1741 
L 678 2272 
z
" transform="scale(0.015625)"/>
        <path id="DejaVuSans-33" d="M 2597 2516 
Q 3050 2419 3304 2112 
Q 3559 1806 3559 1356 
Q 3559 666 3084 287 
Q 2609 -91 1734 -91 
Q 1441 -91 1130 -33 
Q 819 25 488 141 
L 488 750 
Q 750 597 1062 519 
Q 1375 441 1716 441 
Q 2309 441 2620 675 
Q 2931 909 2931 1356 
Q 2931 1769 2642 2001 
Q 2353 2234 1838 2234 
L 1294 2234 
L 1294 2753 
L 1863 2753 
Q 2328 2753 2575 2939 
Q 2822 3125 2822 3475 
Q 2822 3834 2567 4026 
Q 2313 4219 1838 4219 
Q 1578 4219 1281 4162 
Q 984 4106 628 3988 
L 628 4550 
Q 988 4650 1302 4700 
Q 1616 4750 1894 4750 
Q 2613 4750 3031 4423 
Q 3450 4097 3450 3541 
Q 3450 3153 3228 2886 
Q 3006 2619 2597 2516 
z
" transform="scale(0.015625)"/>
        <path id="DejaVuSans-30" d="M 2034 4250 
Q 1547 4250 1301 3770 
Q 1056 3291 1056 2328 
Q 1056 1369 1301 889 
Q 1547 409 2034 409 
Q 2525 409 2770 889 
Q 3016 1369 3016 2328 
Q 3016 3291 2770 3770 
Q 2525 4250 2034 4250 
z
M 2034 4750 
Q 2819 4750 3233 4129 
Q 3647 3509 3647 2328 
Q 3647 1150 3233 529 
Q 2819 -91 2034 -91 
Q 1250 -91 836 529 
Q 422 1150 422 2328 
Q 422 3509 836 4129 
Q 1250 4750 2034 4750 
z
" transform="scale(0.015625)"/>
       </defs>
       <use xlink:href="#DejaVuSans-2212"/>
       <use xlink:href="#DejaVuSans-33" x="83.789062"/>
       <use xlink:href="#DejaVuSans-30" x="147.412109"/>
       <use xlink:href="#DejaVuSans-30" x="211.035156"/>
       <use xlink:href="#DejaVuSans-30" x="274.658203"/>
      </g>
     </g>
    </g>
    <g id="xtick_2">
     <g id="line2d_3">
      <path d="M 127.026707 279.010828 
L 127.026707 12.898828 
" clip-path="url(#p7109abde4b)" style="fill: none; stroke: #b0b0b0; stroke-width: 0.8; stroke-linecap: square"/>
     </g>
     <g id="line2d_4">
      <g>
       <use xlink:href="#md39032bed2" x="127.026707" y="279.010828" style="stroke: #000000; stroke-width: 0.8"/>
      </g>
     </g>
     <g id="text_2">
      <!-- −2000 -->
      <g transform="translate(101.654441 297.408484)scale(0.15 -0.15)">
       <defs>
        <path id="DejaVuSans-32" d="M 1228 531 
L 3431 531 
L 3431 0 
L 469 0 
L 469 531 
Q 828 903 1448 1529 
Q 2069 2156 2228 2338 
Q 2531 2678 2651 2914 
Q 2772 3150 2772 3378 
Q 2772 3750 2511 3984 
Q 2250 4219 1831 4219 
Q 1534 4219 1204 4116 
Q 875 4013 500 3803 
L 500 4441 
Q 881 4594 1212 4672 
Q 1544 4750 1819 4750 
Q 2544 4750 2975 4387 
Q 3406 4025 3406 3419 
Q 3406 3131 3298 2873 
Q 3191 2616 2906 2266 
Q 2828 2175 2409 1742 
Q 1991 1309 1228 531 
z
" transform="scale(0.015625)"/>
       </defs>
       <use xlink:href="#DejaVuSans-2212"/>
       <use xlink:href="#DejaVuSans-32" x="83.789062"/>
       <use xlink:href="#DejaVuSans-30" x="147.412109"/>
       <use xlink:href="#DejaVuSans-30" x="211.035156"/>
       <use xlink:href="#DejaVuSans-30" x="274.658203"/>
      </g>
     </g>
    </g>
    <g id="xtick_3">
     <g id="line2d_5">
      <path d="M 198.379354 279.010828 
L 198.379354 12.898828 
" clip-path="url(#p7109abde4b)" style="fill: none; stroke: #b0b0b0; stroke-width: 0.8; stroke-linecap: square"/>
     </g>
     <g id="line2d_6">
      <g>
       <use xlink:href="#md39032bed2" x="198.379354" y="279.010828" style="stroke: #000000; stroke-width: 0.8"/>
      </g>
     </g>
     <g id="text_3">
      <!-- −1000 -->
      <g transform="translate(173.007089 297.408484)scale(0.15 -0.15)">
       <defs>
        <path id="DejaVuSans-31" d="M 794 531 
L 1825 531 
L 1825 4091 
L 703 3866 
L 703 4441 
L 1819 4666 
L 2450 4666 
L 2450 531 
L 3481 531 
L 3481 0 
L 794 0 
L 794 531 
z
" transform="scale(0.015625)"/>
       </defs>
       <use xlink:href="#DejaVuSans-2212"/>
       <use xlink:href="#DejaVuSans-31" x="83.789062"/>
       <use xlink:href="#DejaVuSans-30" x="147.412109"/>
       <use xlink:href="#DejaVuSans-30" x="211.035156"/>
       <use xlink:href="#DejaVuSans-30" x="274.658203"/>
      </g>
     </g>
    </g>
    <g id="xtick_4">
     <g id="line2d_7">
      <path d="M 269.732002 279.010828 
L 269.732002 12.898828 
" clip-path="url(#p7109abde4b)" style="fill: none; stroke: #b0b0b0; stroke-width: 0.8; stroke-linecap: square"/>
     </g>
     <g id="line2d_8">
      <g>
       <use xlink:href="#md39032bed2" x="269.732002" y="279.010828" style="stroke: #000000; stroke-width: 0.8"/>
      </g>
     </g>
     <g id="text_4">
      <!-- 0 -->
      <g transform="translate(264.960127 297.408484)scale(0.15 -0.15)">
       <use xlink:href="#DejaVuSans-30"/>
      </g>
     </g>
    </g>
    <g id="xtick_5">
     <g id="line2d_9">
      <path d="M 341.084649 279.010828 
L 341.084649 12.898828 
" clip-path="url(#p7109abde4b)" style="fill: none; stroke: #b0b0b0; stroke-width: 0.8; stroke-linecap: square"/>
     </g>
     <g id="line2d_10">
      <g>
       <use xlink:href="#md39032bed2" x="341.084649" y="279.010828" style="stroke: #000000; stroke-width: 0.8"/>
      </g>
     </g>
     <g id="text_5">
      <!-- 1000 -->
      <g transform="translate(321.997149 297.408484)scale(0.15 -0.15)">
       <use xlink:href="#DejaVuSans-31"/>
       <use xlink:href="#DejaVuSans-30" x="63.623047"/>
       <use xlink:href="#DejaVuSans-30" x="127.246094"/>
       <use xlink:href="#DejaVuSans-30" x="190.869141"/>
      </g>
     </g>
    </g>
    <g id="text_6">
     <!-- Max (V) -->
     <g transform="translate(163.806875 319.724891)scale(0.2 -0.2)">
      <defs>
       <path id="DejaVuSans-4d" d="M 628 4666 
L 1569 4666 
L 2759 1491 
L 3956 4666 
L 4897 4666 
L 4897 0 
L 4281 0 
L 4281 4097 
L 3078 897 
L 2444 897 
L 1241 4097 
L 1241 0 
L 628 0 
L 628 4666 
z
" transform="scale(0.015625)"/>
       <path id="DejaVuSans-61" d="M 2194 1759 
Q 1497 1759 1228 1600 
Q 959 1441 959 1056 
Q 959 750 1161 570 
Q 1363 391 1709 391 
Q 2188 391 2477 730 
Q 2766 1069 2766 1631 
L 2766 1759 
L 2194 1759 
z
M 3341 1997 
L 3341 0 
L 2766 0 
L 2766 531 
Q 2569 213 2275 61 
Q 1981 -91 1556 -91 
Q 1019 -91 701 211 
Q 384 513 384 1019 
Q 384 1609 779 1909 
Q 1175 2209 1959 2209 
L 2766 2209 
L 2766 2266 
Q 2766 2663 2505 2880 
Q 2244 3097 1772 3097 
Q 1472 3097 1187 3025 
Q 903 2953 641 2809 
L 641 3341 
Q 956 3463 1253 3523 
Q 1550 3584 1831 3584 
Q 2591 3584 2966 3190 
Q 3341 2797 3341 1997 
z
" transform="scale(0.015625)"/>
       <path id="DejaVuSans-78" d="M 3513 3500 
L 2247 1797 
L 3578 0 
L 2900 0 
L 1881 1375 
L 863 0 
L 184 0 
L 1544 1831 
L 300 3500 
L 978 3500 
L 1906 2253 
L 2834 3500 
L 3513 3500 
z
" transform="scale(0.015625)"/>
       <path id="DejaVuSans-20" transform="scale(0.015625)"/>
       <path id="DejaVuSans-28" d="M 1984 4856 
Q 1566 4138 1362 3434 
Q 1159 2731 1159 2009 
Q 1159 1288 1364 580 
Q 1569 -128 1984 -844 
L 1484 -844 
Q 1016 -109 783 600 
Q 550 1309 550 2009 
Q 550 2706 781 3412 
Q 1013 4119 1484 4856 
L 1984 4856 
z
" transform="scale(0.015625)"/>
       <path id="DejaVuSans-56" d="M 1831 0 
L 50 4666 
L 709 4666 
L 2188 738 
L 3669 4666 
L 4325 4666 
L 2547 0 
L 1831 0 
z
" transform="scale(0.015625)"/>
       <path id="DejaVuSans-29" d="M 513 4856 
L 1013 4856 
Q 1481 4119 1714 3412 
Q 1947 2706 1947 2009 
Q 1947 1309 1714 600 
Q 1481 -109 1013 -844 
L 513 -844 
Q 928 -128 1133 580 
Q 1338 1288 1338 2009 
Q 1338 2731 1133 3434 
Q 928 4138 513 4856 
z
" transform="scale(0.015625)"/>
      </defs>
      <use xlink:href="#DejaVuSans-4d"/>
      <use xlink:href="#DejaVuSans-61" x="86.279297"/>
      <use xlink:href="#DejaVuSans-78" x="147.558594"/>
      <use xlink:href="#DejaVuSans-20" x="206.738281"/>
      <use xlink:href="#DejaVuSans-28" x="238.525391"/>
      <use xlink:href="#DejaVuSans-56" x="277.539062"/>
      <use xlink:href="#DejaVuSans-29" x="345.947266"/>
     </g>
    </g>
   </g>
   <g id="matplotlib.axis_2">
    <g id="ytick_1">
     <g id="line2d_11">
      <path d="M 23.74375 279.010828 
L 380.86375 279.010828 
" clip-path="url(#p7109abde4b)" style="fill: none; stroke: #b0b0b0; stroke-width: 0.8; stroke-linecap: square"/>
     </g>
     <g id="line2d_12">
      <defs>
       <path id="m6f3f5b6aff" d="M 0 0 
L -3.5 0 
" style="stroke: #000000; stroke-width: 0.8"/>
      </defs>
      <g>
       <use xlink:href="#m6f3f5b6aff" x="23.74375" y="279.010828" style="stroke: #000000; stroke-width: 0.8"/>
      </g>
     </g>
     <g id="text_7">
      <!-- 4 -->
      <g transform="translate(7.2 284.709656)scale(0.15 -0.15)">
       <defs>
        <path id="DejaVuSans-34" d="M 2419 4116 
L 825 1625 
L 2419 1625 
L 2419 4116 
z
M 2253 4666 
L 3047 4666 
L 3047 1625 
L 3713 1625 
L 3713 1100 
L 3047 1100 
L 3047 0 
L 2419 0 
L 2419 1100 
L 313 1100 
L 313 1709 
L 2253 4666 
z
" transform="scale(0.015625)"/>
       </defs>
       <use xlink:href="#DejaVuSans-34"/>
      </g>
     </g>
    </g>
    <g id="ytick_2">
     <g id="line2d_13">
      <path d="M 23.74375 225.788428 
L 380.86375 225.788428 
" clip-path="url(#p7109abde4b)" style="fill: none; stroke: #b0b0b0; stroke-width: 0.8; stroke-linecap: square"/>
     </g>
     <g id="line2d_14">
      <g>
       <use xlink:href="#m6f3f5b6aff" x="23.74375" y="225.788428" style="stroke: #000000; stroke-width: 0.8"/>
      </g>
     </g>
     <g id="text_8">
      <!-- 5 -->
      <g transform="translate(7.2 231.487256)scale(0.15 -0.15)">
       <defs>
        <path id="DejaVuSans-35" d="M 691 4666 
L 3169 4666 
L 3169 4134 
L 1269 4134 
L 1269 2991 
Q 1406 3038 1543 3061 
Q 1681 3084 1819 3084 
Q 2600 3084 3056 2656 
Q 3513 2228 3513 1497 
Q 3513 744 3044 326 
Q 2575 -91 1722 -91 
Q 1428 -91 1123 -41 
Q 819 9 494 109 
L 494 744 
Q 775 591 1075 516 
Q 1375 441 1709 441 
Q 2250 441 2565 725 
Q 2881 1009 2881 1497 
Q 2881 1984 2565 2268 
Q 2250 2553 1709 2553 
Q 1456 2553 1204 2497 
Q 953 2441 691 2322 
L 691 4666 
z
" transform="scale(0.015625)"/>
       </defs>
       <use xlink:href="#DejaVuSans-35"/>
      </g>
     </g>
    </g>
    <g id="ytick_3">
     <g id="line2d_15">
      <path d="M 23.74375 172.566028 
L 380.86375 172.566028 
" clip-path="url(#p7109abde4b)" style="fill: none; stroke: #b0b0b0; stroke-width: 0.8; stroke-linecap: square"/>
     </g>
     <g id="line2d_16">
      <g>
       <use xlink:href="#m6f3f5b6aff" x="23.74375" y="172.566028" style="stroke: #000000; stroke-width: 0.8"/>
      </g>
     </g>
     <g id="text_9">
      <!-- 6 -->
      <g transform="translate(7.2 178.264856)scale(0.15 -0.15)">
       <defs>
        <path id="DejaVuSans-36" d="M 2113 2584 
Q 1688 2584 1439 2293 
Q 1191 2003 1191 1497 
Q 1191 994 1439 701 
Q 1688 409 2113 409 
Q 2538 409 2786 701 
Q 3034 994 3034 1497 
Q 3034 2003 2786 2293 
Q 2538 2584 2113 2584 
z
M 3366 4563 
L 3366 3988 
Q 3128 4100 2886 4159 
Q 2644 4219 2406 4219 
Q 1781 4219 1451 3797 
Q 1122 3375 1075 2522 
Q 1259 2794 1537 2939 
Q 1816 3084 2150 3084 
Q 2853 3084 3261 2657 
Q 3669 2231 3669 1497 
Q 3669 778 3244 343 
Q 2819 -91 2113 -91 
Q 1303 -91 875 529 
Q 447 1150 447 2328 
Q 447 3434 972 4092 
Q 1497 4750 2381 4750 
Q 2619 4750 2861 4703 
Q 3103 4656 3366 4563 
z
" transform="scale(0.015625)"/>
       </defs>
       <use xlink:href="#DejaVuSans-36"/>
      </g>
     </g>
    </g>
    <g id="ytick_4">
     <g id="line2d_17">
      <path d="M 23.74375 119.343628 
L 380.86375 119.343628 
" clip-path="url(#p7109abde4b)" style="fill: none; stroke: #b0b0b0; stroke-width: 0.8; stroke-linecap: square"/>
     </g>
     <g id="line2d_18">
      <g>
       <use xlink:href="#m6f3f5b6aff" x="23.74375" y="119.343628" style="stroke: #000000; stroke-width: 0.8"/>
      </g>
     </g>
     <g id="text_10">
      <!-- 7 -->
      <g transform="translate(7.2 125.042456)scale(0.15 -0.15)">
       <defs>
        <path id="DejaVuSans-37" d="M 525 4666 
L 3525 4666 
L 3525 4397 
L 1831 0 
L 1172 0 
L 2766 4134 
L 525 4134 
L 525 4666 
z
" transform="scale(0.015625)"/>
       </defs>
       <use xlink:href="#DejaVuSans-37"/>
      </g>
     </g>
    </g>
    <g id="ytick_5">
     <g id="line2d_19">
      <path d="M 23.74375 66.121228 
L 380.86375 66.121228 
" clip-path="url(#p7109abde4b)" style="fill: none; stroke: #b0b0b0; stroke-width: 0.8; stroke-linecap: square"/>
     </g>
     <g id="line2d_20">
      <g>
       <use xlink:href="#m6f3f5b6aff" x="23.74375" y="66.121228" style="stroke: #000000; stroke-width: 0.8"/>
      </g>
     </g>
     <g id="text_11">
      <!-- 8 -->
      <g transform="translate(7.2 71.820056)scale(0.15 -0.15)">
       <defs>
        <path id="DejaVuSans-38" d="M 2034 2216 
Q 1584 2216 1326 1975 
Q 1069 1734 1069 1313 
Q 1069 891 1326 650 
Q 1584 409 2034 409 
Q 2484 409 2743 651 
Q 3003 894 3003 1313 
Q 3003 1734 2745 1975 
Q 2488 2216 2034 2216 
z
M 1403 2484 
Q 997 2584 770 2862 
Q 544 3141 544 3541 
Q 544 4100 942 4425 
Q 1341 4750 2034 4750 
Q 2731 4750 3128 4425 
Q 3525 4100 3525 3541 
Q 3525 3141 3298 2862 
Q 3072 2584 2669 2484 
Q 3125 2378 3379 2068 
Q 3634 1759 3634 1313 
Q 3634 634 3220 271 
Q 2806 -91 2034 -91 
Q 1263 -91 848 271 
Q 434 634 434 1313 
Q 434 1759 690 2068 
Q 947 2378 1403 2484 
z
M 1172 3481 
Q 1172 3119 1398 2916 
Q 1625 2713 2034 2713 
Q 2441 2713 2670 2916 
Q 2900 3119 2900 3481 
Q 2900 3844 2670 4047 
Q 2441 4250 2034 4250 
Q 1625 4250 1398 4047 
Q 1172 3844 1172 3481 
z
" transform="scale(0.015625)"/>
       </defs>
       <use xlink:href="#DejaVuSans-38"/>
      </g>
     </g>
    </g>
    <g id="ytick_6">
     <g id="line2d_21">
      <path d="M 23.74375 12.898828 
L 380.86375 12.898828 
" clip-path="url(#p7109abde4b)" style="fill: none; stroke: #b0b0b0; stroke-width: 0.8; stroke-linecap: square"/>
     </g>
     <g id="line2d_22">
      <g>
       <use xlink:href="#m6f3f5b6aff" x="23.74375" y="12.898828" style="stroke: #000000; stroke-width: 0.8"/>
      </g>
     </g>
     <g id="text_12">
      <!-- 9 -->
      <g transform="translate(7.2 18.597656)scale(0.15 -0.15)">
       <defs>
        <path id="DejaVuSans-39" d="M 703 97 
L 703 672 
Q 941 559 1184 500 
Q 1428 441 1663 441 
Q 2288 441 2617 861 
Q 2947 1281 2994 2138 
Q 2813 1869 2534 1725 
Q 2256 1581 1919 1581 
Q 1219 1581 811 2004 
Q 403 2428 403 3163 
Q 403 3881 828 4315 
Q 1253 4750 1959 4750 
Q 2769 4750 3195 4129 
Q 3622 3509 3622 2328 
Q 3622 1225 3098 567 
Q 2575 -91 1691 -91 
Q 1453 -91 1209 -44 
Q 966 3 703 97 
z
M 1959 2075 
Q 2384 2075 2632 2365 
Q 2881 2656 2881 3163 
Q 2881 3666 2632 3958 
Q 2384 4250 1959 4250 
Q 1534 4250 1286 3958 
Q 1038 3666 1038 3163 
Q 1038 2656 1286 2365 
Q 1534 2075 1959 2075 
z
" transform="scale(0.015625)"/>
       </defs>
       <use xlink:href="#DejaVuSans-39"/>
      </g>
     </g>
    </g>
   </g>
   <g id="line2d_23">
    <path d="M 49.871828 -1 
L 50.179906 122.901694 
L 50.536669 185.264943 
L 50.893432 210.31323 
L 51.178843 220.498993 
L 51.250196 220.610019 
L 52.748601 157.224848 
L 53.176717 147.42996 
L 53.390775 146.18192 
L 53.53348 147.088075 
L 53.747538 151.428459 
L 54.032949 163.260079 
L 54.532417 196.960807 
L 54.60377 202.152481 
L 54.675123 200.614651 
L 55.816765 158.456975 
L 56.887055 124.894974 
L 57.315171 116.60272 
L 57.386523 115.731675 
L 58.528166 62.19743 
L 58.599518 62.173322 
L 58.742224 64.172213 
L 58.956281 72.839195 
L 59.241692 95.397306 
L 60.52604 217.439623 
L 60.882803 224.48491 
L 61.596329 234.424293 
L 62.024445 243.307686 
L 62.595266 232.956907 
L 63.166088 218.073231 
L 63.451498 214.647471 
L 63.594204 214.303199 
L 63.736909 214.984053 
L 63.950967 217.992013 
L 64.30773 227.679536 
L 64.878551 244.121091 
L 65.092609 245.934436 
L 65.163962 245.82461 
L 65.306667 244.687076 
L 65.734783 237.647357 
L 66.091546 233.373348 
L 66.234251 232.929518 
L 66.305604 233.014213 
L 66.448309 233.788197 
L 66.662367 236.361458 
L 67.019131 243.778392 
L 67.304541 251.779035 
L 67.375894 251.676385 
L 68.08942 232.324739 
L 68.446184 227.910089 
L 68.588889 227.587197 
L 68.731594 228.192992 
L 68.945652 230.8668 
L 69.302415 239.17373 
L 69.801884 250.571983 
L 69.944589 251.508998 
L 70.015942 251.419805 
L 70.158647 250.160782 
L 70.444058 244.400272 
L 71.014879 232.068306 
L 71.228937 230.343935 
L 71.300289 230.231332 
L 71.371642 230.347895 
L 71.514347 231.230609 
L 71.799758 235.332189 
L 72.227874 245.952282 
L 72.441932 252.624571 
L 73.155458 234.403014 
L 73.440869 230.995314 
L 73.583574 230.481934 
L 73.654927 230.549729 
L 73.797632 231.349443 
L 74.01169 234.153295 
L 74.867922 249.708604 
L 74.939274 249.651877 
L 75.08198 248.418834 
L 75.36739 242.258344 
L 76.009564 226.603484 
L 76.223622 225.004559 
L 76.294975 225.008525 
L 76.43768 225.795328 
L 76.651738 228.769222 
L 76.937149 236.474489 
L 77.436617 252.804398 
L 77.50797 252.150431 
L 78.078791 237.272352 
L 78.435554 232.368846 
L 78.649612 231.669 
L 78.792317 232.228733 
L 79.006375 234.544814 
L 79.862607 246.769978 
L 80.005312 245.845002 
L 80.21937 242.084409 
L 81.075602 222.979079 
L 81.218307 222.439826 
L 81.28966 222.566448 
L 81.432365 223.580366 
L 81.717776 228.35566 
L 82.074539 238.964569 
L 82.502655 252.807145 
L 82.716713 243.692636 
L 83.216182 232.15701 
L 83.501592 228.850796 
L 83.644297 228.313469 
L 83.71565 228.338259 
L 83.858355 228.970355 
L 84.143766 232.26867 
L 84.714587 240.333392 
L 84.78594 240.611133 
L 84.857292 240.588422 
L 84.999998 239.591521 
L 85.214056 235.858008 
L 86.070287 217.446618 
L 86.212993 217.116044 
L 86.355698 217.809403 
L 86.569756 220.634885 
L 86.926519 229.311621 
L 87.49734 249.717167 
L 87.568693 248.715962 
L 88.139514 231.43372 
L 88.496277 225.643465 
L 88.710335 224.659195 
L 88.781688 224.774359 
L 88.924393 225.651853 
L 89.209804 229.560164 
L 89.780625 237.837881 
L 89.851978 237.981899 
L 89.92333 237.809017 
L 90.066036 236.501152 
L 90.351446 230.768057 
L 90.922267 218.545238 
L 91.136325 217.151755 
L 91.207678 217.187153 
L 91.350383 218.000993 
L 91.564441 220.959934 
L 91.921205 229.767775 
L 92.492026 248.448187 
L 93.1342 228.41232 
L 93.490963 222.742114 
L 93.705021 221.917292 
L 93.847726 222.51205 
L 94.061784 224.987262 
L 94.846663 236.950907 
L 94.918016 236.876653 
L 95.060721 235.74417 
L 95.346132 230.296655 
L 95.916953 218.382595 
L 96.131011 217.065651 
L 96.202363 217.123732 
L 96.345069 217.978907 
L 96.559127 220.994662 
L 96.91589 229.873029 
L 97.415358 247.584401 
L 97.486711 246.563877 
L 98.128885 226.46602 
L 98.485648 220.875725 
L 98.699706 220.149934 
L 98.842411 220.836388 
L 99.056469 223.486754 
L 99.841348 236.278798 
L 99.912701 236.273881 
L 100.055406 235.275473 
L 100.340817 230.05075 
L 100.911638 218.480108 
L 101.125696 217.220192 
L 101.197049 217.292305 
L 101.339754 218.170329 
L 101.553812 221.206818 
L 101.910575 230.100608 
L 102.410044 247.246517 
L 102.481396 245.545275 
L 103.12357 225.498844 
L 103.480333 219.99714 
L 103.623039 219.328712 
L 103.694391 219.347849 
L 103.837097 220.093369 
L 104.051155 222.842344 
L 104.836034 236.059762 
L 104.907386 236.092394 
L 105.050092 235.164694 
L 105.335502 230.062905 
L 105.906323 218.585712 
L 106.120381 217.374806 
L 106.191734 217.460634 
L 106.334439 218.359478 
L 106.548497 221.416552 
L 106.90526 230.33213 
L 107.404729 247.518641 
L 107.476082 245.814826 
L 108.118255 225.753945 
L 108.475019 220.233633 
L 108.617724 219.557038 
L 108.689077 219.572822 
L 108.831782 220.311475 
L 109.04584 223.057784 
L 109.830719 236.318785 
L 109.902072 236.35424 
L 110.044777 235.432505 
L 110.330188 230.340489 
L 110.901009 218.818486 
L 111.115067 217.607015 
L 111.186419 217.692576 
L 111.329125 218.591814 
L 111.543183 221.647969 
L 111.899946 230.557876 
L 112.399414 247.800978 
L 112.470767 246.139535 
L 113.112941 226.105882 
L 113.469704 220.609856 
L 113.612409 219.948808 
L 113.683762 219.97378 
L 113.826467 220.733311 
L 114.040525 223.513527 
L 114.825404 236.831753 
L 114.896757 236.864513 
L 115.039462 235.931141 
L 115.324873 230.78833 
L 115.895694 218.960796 
L 116.109752 217.717172 
L 116.181105 217.793892 
L 116.32381 218.677966 
L 116.537868 221.71676 
L 116.894631 230.608358 
L 117.3941 247.979426 
L 117.465452 246.40783 
L 118.107626 226.362708 
L 118.464389 220.889144 
L 118.607095 220.241573 
L 118.678447 220.274332 
L 118.821153 221.051318 
L 119.035211 223.860884 
L 119.82009 237.292434 
L 119.891442 237.327166 
L 120.034148 236.385575 
L 120.319558 231.191285 
L 120.961732 218.408392 
L 121.104437 217.801117 
L 121.17579 217.870661 
L 121.318495 218.743797 
L 121.532553 221.775066 
L 121.889316 230.665117 
L 122.388785 248.070004 
L 122.460138 246.465975 
L 123.102311 226.534531 
L 123.459075 221.166587 
L 123.60178 220.569468 
L 123.673133 220.629023 
L 123.815838 221.462349 
L 124.101249 225.688397 
L 124.814775 238.015864 
L 124.886128 238.055651 
L 125.028833 237.107912 
L 125.314244 231.855406 
L 125.956417 218.878987 
L 126.099123 218.233196 
L 126.170475 218.285891 
L 126.313181 219.130219 
L 126.527239 222.130242 
L 126.884002 230.990484 
L 127.38347 248.325736 
L 127.454823 246.680228 
L 128.096997 226.799849 
L 128.45376 221.469835 
L 128.596465 220.892911 
L 128.667818 220.964503 
L 128.810523 221.826478 
L 129.095934 226.128666 
L 129.80946 238.709881 
L 129.880813 238.770273 
L 130.023518 237.862905 
L 130.308929 232.653802 
L 130.951103 219.513271 
L 131.093808 218.857705 
L 131.165161 218.905265 
L 131.307866 219.73966 
L 131.521924 222.724266 
L 131.878687 231.559038 
L 132.378156 248.835016 
L 132.449508 246.999767 
L 133.091682 227.265243 
L 133.448445 222.091808 
L 133.591151 221.600522 
L 133.876561 223.833297 
L 134.233324 230.796922 
L 134.732793 240.436025 
L 134.875498 240.985899 
L 135.018204 240.13234 
L 135.232261 236.545464 
L 136.017141 220.828293 
L 136.159846 220.561992 
L 136.302551 221.283508 
L 136.516609 224.095573 
L 136.873372 232.638163 
L 137.372841 249.703298 
L 137.444194 247.798367 
L 138.015015 230.205389 
L 138.371778 224.025394 
L 138.585836 222.87827 
L 138.657189 222.963009 
L 138.799894 223.83441 
L 139.085304 228.050552 
L 139.727478 239.13314 
L 139.798831 239.317685 
L 139.870184 239.14763 
L 140.012889 237.738446 
L 140.298299 231.454983 
L 140.940473 216.032642 
L 141.154531 214.474284 
L 141.225884 214.624181 
L 141.368589 215.70965 
L 141.654 220.598491 
L 142.082116 233.13103 
L 142.510232 246.84373 
L 143.081053 229.858685 
L 143.437816 224.405639 
L 143.651874 223.610415 
L 143.794579 224.136072 
L 144.008637 226.277701 
L 144.579458 233.155913 
L 144.650811 233.183487 
L 144.793516 232.129167 
L 145.007574 227.554957 
L 145.43569 210.776215 
L 145.935159 193.529643 
L 146.220569 190.041663 
L 146.291922 189.973798 
L 146.434627 190.739631 
L 146.648685 194.148518 
L 147.005448 204.550226 
L 147.647622 230.942852 
L 147.86168 237.861435 
L 148.361149 226.323273 
L 148.646559 223.389477 
L 148.860617 222.875454 
L 149.003322 223.094595 
L 149.288733 223.630689 
L 149.431438 223.140211 
L 149.574144 221.539868 
L 149.788202 216.25153 
L 150.144965 199.375526 
L 150.929844 159.23992 
L 151.215254 154.401662 
L 151.286607 154.170677 
L 151.35796 154.303172 
L 151.500665 155.58278 
L 151.786076 161.623567 
L 152.214192 177.248718 
L 152.999071 215.507122 
L 153.284481 228.564193 
L 153.641245 222.277639 
L 154.497476 211.175816 
L 154.782887 200.078452 
L 155.13965 178.21805 
L 155.781824 139.09972 
L 156.067235 131.478086 
L 156.20994 130.368387 
L 156.281292 130.436897 
L 156.423998 131.710844 
L 156.709408 138.432947 
L 157.137524 155.256227 
L 157.922403 196.677959 
L 158.63593 236.544283 
L 158.707282 236.254816 
L 159.278104 229.273282 
L 159.563514 220.967481 
L 159.848925 206.206963 
L 161.06192 130.351111 
L 161.275978 128.310817 
L 161.418683 129.202385 
L 161.846799 140.24575 
L 162.346267 162.165915 
L 163.844673 243.54374 
L 163.987378 242.03655 
L 164.201436 238.054727 
L 164.272789 240.633911 
L 164.5582 229.679263 
L 164.914963 205.478886 
L 165.842547 132.630122 
L 166.127958 124.595013 
L 166.270663 123.677962 
L 166.342016 123.908408 
L 166.484721 125.604813 
L 166.770132 133.123547 
L 167.198248 151.818517 
L 168.553948 229.054765 
L 168.696653 227.134164 
L 169.053416 221.650052 
L 169.124769 224.584215 
L 169.196122 223.62893 
L 169.481532 215.821917 
L 169.838295 198.077454 
L 170.908585 135.201981 
L 171.122643 132.62769 
L 171.193996 132.665502 
L 171.336701 133.947058 
L 171.550759 138.508711 
L 171.907522 151.497004 
L 172.621049 188.392173 
L 173.049165 212.784306 
L 173.120517 211.337189 
L 173.619986 199.760632 
L 173.976749 195.755435 
L 174.404865 191.550378 
L 174.690275 185.263386 
L 175.047039 171.080932 
L 175.760565 140.991762 
L 176.045976 137.293293 
L 176.117328 137.324879 
L 176.260034 138.46318 
L 176.474092 142.59889 
L 176.830855 154.658003 
L 177.473029 186.25602 
L 177.687087 198.403455 
L 177.758439 197.577974 
L 178.32926 177.786722 
L 178.686024 171.501671 
L 178.900082 170.228861 
L 179.042787 170.205774 
L 179.470903 171.004528 
L 179.613608 170.399319 
L 179.827666 167.694977 
L 180.184429 158.683371 
L 180.75525 144.699562 
L 180.969308 143.416361 
L 181.112014 144.114222 
L 181.326072 147.400962 
L 181.682835 158.008224 
L 182.039598 173.069577 
L 182.396361 189.812844 
L 183.109888 157.551318 
L 183.538004 147.228266 
L 183.752062 145.491629 
L 183.823414 145.488 
L 183.894767 145.749615 
L 184.822351 157.614891 
L 184.893704 157.693088 
L 185.036409 157.186282 
L 185.32182 154.395059 
L 185.678583 151.273419 
L 185.749936 151.104906 
L 185.821288 151.151259 
L 185.963994 151.957041 
L 186.178052 155.013309 
L 186.534815 164.767393 
L 187.034283 185.911059 
L 187.105636 189.40846 
L 187.74781 156.669858 
L 188.175926 140.002923 
L 188.461336 134.367581 
L 188.604042 133.45612 
L 188.675394 133.501962 
L 188.8181 134.608278 
L 189.032158 138.632428 
L 189.531626 154.645548 
L 189.959742 165.376354 
L 190.245153 167.917491 
L 190.744621 169.695211 
L 190.958679 172.028187 
L 191.24409 177.750232 
L 191.672206 191.739906 
L 191.814911 197.5119 
L 191.957616 192.096977 
L 193.241964 134.127255 
L 193.527374 130.865347 
L 193.67008 131.765368 
L 193.884138 135.913872 
L 194.240901 149.380719 
L 194.954427 178.952726 
L 195.311191 185.13497 
L 196.024717 192.648765 
L 196.167422 203.776575 
L 196.452833 210.780333 
L 196.524186 209.681826 
L 198.236649 134.491636 
L 198.52206 128.155965 
L 198.736118 132.201292 
L 199.021528 143.521471 
L 200.305876 207.215482 
L 201.019402 221.567757 
L 201.090755 221.748201 
L 201.875634 191.878991 
L 201.946987 162.801175 
L 202.018339 165.942454 
L 202.30375 177.731736 
L 203.159982 140.419232 
L 203.516745 134.07972 
L 203.65945 133.672786 
L 203.802156 134.542508 
L 204.016214 138.08546 
L 205.015151 160.418088 
L 205.086503 160.532494 
L 205.229209 160.139626 
L 205.80003 156.906493 
L 205.871382 156.929384 
L 206.014088 157.522807 
L 206.156793 172.484474 
L 206.442204 177.92432 
L 206.870319 190.905346 
L 207.15573 198.715522 
L 207.940609 171.860744 
L 208.297372 166.045511 
L 208.440078 165.322344 
L 208.51143 165.356813 
L 208.654136 166.338639 
L 208.868194 170.174089 
L 209.224957 182.201012 
L 209.938483 207.961596 
L 210.223894 211.143459 
L 210.366599 211.294705 
L 210.580657 210.662762 
L 210.866068 209.8251 
L 211.008773 209.890833 
L 211.151478 210.460577 
L 211.365536 212.404312 
L 211.722299 218.573649 
L 212.00771 225.983417 
L 212.079063 225.894743 
L 212.863942 200.098507 
L 213.220705 192.774684 
L 213.292058 194.614033 
L 213.36341 193.943027 
L 213.577468 193.276179 
L 213.720174 194.027255 
L 213.934232 196.9807 
L 214.290995 205.90313 
L 214.790463 217.998065 
L 215.004521 219.522418 
L 215.075874 219.535744 
L 215.218579 219.022312 
L 216.003458 214.403798 
L 216.074811 214.350026 
L 216.217516 215.186792 
L 216.502927 218.788932 
L 216.931043 228.324643 
L 217.287806 238.581702 
L 218.001332 218.416393 
L 218.429448 211.834682 
L 218.714859 210.228343 
L 218.928917 210.01804 
L 219.28568 210.229302 
L 219.428385 209.781124 
L 219.642443 207.408322 
L 219.927854 201.341241 
L 220.855438 178.338123 
L 221.069496 177.472443 
L 221.212202 178.041058 
L 221.426259 180.423648 
L 221.71167 186.162539 
L 222.211139 202.075015 
L 222.710607 221.629455 
L 222.78196 220.234593 
L 223.138723 207.567839 
L 223.923602 188.663803 
L 224.280365 178.782401 
L 224.637129 160.709175 
L 225.136597 123.009314 
L 225.636066 90.239224 
L 225.992829 80.489134 
L 226.064182 85.477357 
L 226.135534 85.429009 
L 226.27824 86.34761 
L 226.492297 90.005721 
L 226.849061 100.803024 
L 227.277177 119.163369 
L 227.705292 143.459598 
L 228.775582 180.319935 
L 228.98964 181.762687 
L 230.34534 195.263985 
L 230.630751 196.224942 
L 230.916162 197.066113 
L 231.13022 198.558676 
L 231.41563 202.349422 
L 231.843746 212.11679 
L 232.129157 218.817895 
L 232.200509 219.356741 
L 232.628625 207.140816 
L 233.056741 199.851345 
L 233.270799 196.957589 
L 233.627562 189.496639 
L 233.984325 180.925226 
L 234.198383 178.984875 
L 234.269736 178.923449 
L 234.412441 179.603901 
L 234.697852 183.34286 
L 235.125968 189.396806 
L 235.19732 189.573734 
L 235.268673 189.507975 
L 235.482731 189.352318 
L 235.625436 189.582935 
L 235.839494 190.879123 
L 235.9822 192.572249 
L 236.338963 201.292891 
L 236.767079 216.103845 
L 236.981137 222.475241 
L 237.052489 223.047793 
L 237.266547 219.883105 
L 237.694663 213.227947 
L 238.479542 207.469356 
L 238.550895 203.885033 
L 238.622248 203.977958 
L 238.836305 204.811227 
L 239.977948 212.204639 
L 240.691474 220.772121 
L 242.118527 244.025521 
L 242.261233 246.093189 
L 242.332585 245.332943 
L 242.903406 231.759359 
L 243.26017 227.07336 
L 243.474228 225.909539 
L 243.616933 225.814616 
L 243.759638 226.209198 
L 244.045049 228.081181 
L 244.544517 231.68295 
L 244.61587 231.780798 
L 244.687223 231.669815 
L 244.90128 230.256885 
L 245.68616 222.562371 
L 245.828865 222.775677 
L 245.900218 222.853939 
L 245.97157 222.749149 
L 246.042923 223.509245 
L 246.114275 222.801792 
L 247.969444 159.317954 
L 248.254855 156.470349 
L 248.326208 156.372935 
L 248.468913 157.079129 
L 248.540265 150.252293 
L 248.611618 151.610524 
L 248.897029 160.428045 
L 249.396497 185.469672 
L 249.967318 211.443334 
L 250.324082 218.452823 
L 251.323019 230.389018 
L 251.751135 239.344441 
L 252.036545 247.246765 
L 252.892777 223.419652 
L 253.24954 219.016812 
L 253.463598 218.442438 
L 253.606303 218.754322 
L 253.820361 220.40318 
L 254.248477 226.759945 
L 254.605241 231.091201 
L 254.747946 231.646371 
L 254.819298 231.6154 
L 254.962004 231.906355 
L 255.104709 231.652029 
L 255.746883 228.982401 
L 255.818236 229.047838 
L 255.960941 229.561202 
L 256.174999 232.260482 
L 256.531762 237.163951 
L 256.959878 247.013406 
L 257.173936 252.006121 
L 257.245288 251.985938 
L 257.316641 251.272769 
L 257.958815 235.719785 
L 258.315578 231.243951 
L 258.458283 230.365414 
L 258.600989 228.174926 
L 258.672341 228.128919 
L 258.815047 228.463997 
L 259.100457 230.460531 
L 259.885336 237.067864 
L 260.028042 236.546686 
L 260.384805 233.395276 
L 260.741568 230.579607 
L 260.955626 230.215665 
L 261.098331 230.691671 
L 261.312389 232.543203 
L 261.669153 238.537286 
L 262.168621 251.820864 
L 262.239974 254.620088 
L 263.024853 235.775735 
L 263.381616 232.024325 
L 263.452969 231.70858 
L 263.595674 229.746297 
L 263.738379 230.143766 
L 264.02379 232.26749 
L 264.451906 235.89166 
L 264.594611 236.228125 
L 264.737316 235.785508 
L 264.951374 233.689808 
L 265.308138 230.09312 
L 265.664901 227.346994 
L 265.807606 227.006559 
L 265.878959 227.05632 
L 265.950311 227.259437 
L 266.164369 229.356083 
L 266.44978 232.841238 
L 266.877896 242.115105 
L 267.306012 251.710031 
L 267.377364 251.030323 
L 268.019538 236.368951 
L 268.376301 232.31556 
L 268.447654 231.876209 
L 268.590359 230.405574 
L 268.733065 230.248001 
L 268.87577 230.574896 
L 269.232533 232.568559 
L 269.446591 234.141363 
L 269.732002 235.899108 
L 269.803354 235.973958 
L 269.94606 235.508942 
L 270.588234 230.275608 
L 270.873644 228.461771 
L 271.016349 228.371661 
L 271.159055 228.988543 
L 271.373113 231.196447 
L 271.729876 237.811068 
L 272.300697 253.584626 
L 272.37205 251.504543 
L 272.942871 237.872453 
L 273.299634 233.204448 
L 273.513692 232.087644 
L 273.656397 232.069618 
L 273.799103 232.560836 
L 274.084513 234.655732 
L 274.369924 236.549661 
L 274.441276 236.682672 
L 274.512629 236.620302 
L 274.726687 235.537092 
L 275.154803 230.388588 
L 275.654271 225.520456 
L 275.796977 225.112985 
L 275.868329 225.150688 
L 275.939682 225.35718 
L 276.15374 227.63317 
L 276.439151 231.449718 
L 276.867266 241.235478 
L 277.366735 252.957897 
L 278.294319 236.041037 
L 278.437025 235.346433 
L 278.508377 235.982845 
L 278.57973 235.912632 
L 278.722435 236.185859 
L 278.936493 237.511542 
L 279.435962 242.96895 
L 279.721372 245.05222 
L 279.792725 245.082972 
L 279.93543 244.412608 
L 280.149488 241.807222 
L 280.863015 231.555506 
L 281.077073 230.929639 
L 281.219778 231.373467 
L 281.433836 233.467668 
L 281.790599 240.469475 
L 282.290068 255.227991 
L 282.36142 253.293522 
L 282.932242 240.078258 
L 283.289005 235.76187 
L 283.503063 235.186968 
L 283.645768 235.682301 
L 283.859826 237.626261 
L 284.430647 244.391696 
L 284.502 244.525321 
L 284.573352 244.397872 
L 284.716058 243.390694 
L 285.001468 239.040077 
L 285.8577 227.611212 
L 285.929053 227.64588 
L 286.642579 237.074316 
L 287.356106 253.111599 
L 287.998279 238.496741 
L 288.355043 234.549697 
L 288.426395 234.253316 
L 288.569101 232.829965 
L 288.711806 233.158609 
L 288.925864 234.686249 
L 289.710743 241.457835 
L 289.782096 241.356468 
L 289.996154 239.907771 
L 290.424269 233.635744 
L 290.781033 230.084105 
L 290.995091 229.351151 
L 291.066443 229.395199 
L 291.209149 229.951214 
L 291.423207 232.131366 
L 291.708617 237.462013 
L 292.279438 252.885517 
L 292.350791 250.785652 
L 292.921612 237.241754 
L 293.278375 232.775093 
L 293.492433 232.206489 
L 293.635139 232.74527 
L 293.849197 234.754057 
L 294.49137 242.025312 
L 294.562723 241.931261 
L 294.705428 240.843887 
L 295.133544 233.73501 
L 295.775718 223.620346 
L 295.918423 223.352215 
L 296.132481 226.888082 
L 296.417892 231.085044 
L 296.846008 241.306045 
L 297.274124 251.31311 
L 297.345476 251.495493 
L 297.416829 251.349636 
L 298.130355 235.096046 
L 298.558471 229.848655 
L 298.629824 229.90502 
L 298.772529 230.485137 
L 299.129292 233.714731 
L 299.557408 237.028076 
L 299.700114 237.33678 
L 299.771466 237.353548 
L 299.842819 237.249963 
L 299.985524 236.234244 
L 300.270935 231.71699 
L 300.556345 227.956297 
L 300.841756 226.399241 
L 300.913109 226.31171 
L 300.984461 226.382297 
L 301.127167 227.022235 
L 301.341225 229.236484 
L 301.626635 234.515307 
L 302.126104 248.631242 
L 302.268809 251.9674 
L 302.910983 236.50424 
L 303.267746 231.592817 
L 303.481804 230.884453 
L 303.624509 231.537678 
L 303.838567 234.141718 
L 304.480741 243.145614 
L 304.623446 243.417406 
L 304.766152 242.562944 
L 305.194267 236.466844 
L 305.907794 223.373485 
L 306.121852 222.31299 
L 306.193205 222.491145 
L 306.407262 224.776234 
L 306.764026 231.951084 
L 307.334847 249.284723 
L 307.4062 248.507203 
L 307.977021 235.516941 
L 308.262431 232.236432 
L 308.405137 231.669408 
L 308.476489 228.900667 
L 308.547842 229.015758 
L 308.690547 229.794607 
L 308.975958 233.049412 
L 309.475426 238.621515 
L 309.546779 238.774481 
L 309.618132 238.608903 
L 309.760837 237.260477 
L 310.046248 230.380277 
L 310.831127 208.180421 
L 311.116537 205.457054 
L 311.18789 205.442956 
L 311.330595 206.160684 
L 311.544653 208.940174 
L 311.901416 217.498239 
L 312.400885 236.078419 
L 312.472238 235.813816 
L 312.971706 224.352 
L 313.257117 221.274561 
L 313.399822 220.763107 
L 313.471175 220.821015 
L 313.756585 224.068414 
L 314.398759 232.534434 
L 314.470112 232.525919 
L 314.612817 231.448064 
L 314.826875 227.100884 
L 315.254991 211.96152 
L 315.825812 193.420495 
L 316.111223 189.980619 
L 316.182575 189.826932 
L 316.253928 189.964808 
L 316.396633 191.058968 
L 316.682044 196.105943 
L 317.11016 209.020671 
L 317.466923 221.674275 
L 318.037744 207.072866 
L 318.323155 203.820468 
L 318.394507 203.876625 
L 318.46586 200.650971 
L 318.537213 201.102386 
L 318.822623 204.630747 
L 319.393444 212.561428 
L 319.464797 212.676478 
L 319.607502 211.822422 
L 319.82156 207.714073 
L 320.178323 195.188555 
L 320.749145 175.584142 
L 321.034555 171.777347 
L 321.105908 171.584673 
L 321.17726 171.643717 
L 321.319966 172.569773 
L 321.534024 175.950858 
L 321.890787 185.821601 
L 322.176198 197.0739 
L 322.390255 205.712737 
L 323.032429 186.813044 
L 323.246487 184.458846 
L 323.31784 184.509491 
L 323.460545 185.315454 
L 323.674603 188.150669 
L 324.459482 201.972642 
L 324.530835 201.95518 
L 324.67354 200.651617 
L 324.958951 193.479762 
L 325.957888 161.424736 
L 326.100593 160.635321 
L 326.171946 160.702334 
L 326.314651 161.709517 
L 326.528709 165.137631 
L 326.885472 175.642264 
L 327.313588 192.878962 
L 327.955762 169.401948 
L 328.16982 166.439736 
L 328.312525 166.171209 
L 328.383878 166.439712 
L 328.455231 166.243211 
L 328.669288 169.273385 
L 329.52552 185.693307 
L 329.596873 185.502562 
L 329.739578 183.819891 
L 330.024989 175.912098 
L 330.809868 149.158638 
L 331.023926 146.710662 
L 331.095278 146.534464 
L 331.166631 146.669145 
L 331.309336 147.832324 
L 331.594747 153.34756 
L 331.880158 163.381915 
L 332.236921 180.03184 
L 332.879095 151.440549 
L 333.164505 147.092137 
L 333.307211 146.647978 
L 333.449916 147.383983 
L 333.663974 150.573976 
L 334.163442 163.746728 
L 334.448853 169.32374 
L 334.591558 169.966891 
L 334.734263 168.873714 
L 334.948321 164.103625 
L 335.875906 136.926875 
L 336.018611 136.370384 
L 336.161316 137.186092 
L 336.304022 139.405883 
L 336.660785 152.212426 
L 337.231606 176.405961 
L 337.87378 147.457567 
L 338.159191 142.810211 
L 338.301896 142.44934 
L 338.515954 143.656644 
L 338.801364 149.873689 
L 339.514891 168.106635 
L 339.586244 168.423706 
L 339.657596 168.27436 
L 339.800301 166.593279 
L 340.085712 158.684895 
L 340.727886 138.185023 
L 340.941944 135.781159 
L 341.013296 135.666762 
L 341.156002 136.460523 
L 341.37006 140.187652 
L 341.798176 155.971397 
L 342.226291 176.122171 
L 343.225229 139.33065 
L 343.296581 139.255044 
L 343.439286 140.039236 
L 343.653344 143.358517 
L 344.509576 161.973151 
L 344.580929 161.789499 
L 344.723634 160.010308 
L 345.009045 151.47909 
L 345.793924 122.939654 
L 346.007982 120.242983 
L 346.079334 120.019855 
L 346.150687 120.137355 
L 346.293392 121.315171 
L 346.578803 127.093682 
L 346.864214 137.146805 
L 347.292329 159.002845 
L 348.077209 117.047101 
L 348.362619 112.630987 
L 348.505324 112.122778 
L 348.64803 112.574192 
L 348.862088 114.461736 
L 348.93344 114.163304 
L 349.432909 94.627526 
L 349.932377 64.939687 
L 350.645904 22.902412 
L 350.931314 15.012258 
L 351.145372 13.588333 
L 351.288078 14.674262 
L 351.502136 19.063067 
L 351.787546 33.434003 
L 352.287015 60.908123 
L 352.709316 -1 
L 352.709316 -1 
" clip-path="url(#p7109abde4b)" style="fill: none; stroke: #1f77b4; stroke-width: 1.5; stroke-linecap: square"/>
   </g>
   <g id="line2d_24">
    <path d="M 49.871829 -1 
L 50.179906 122.901218 
L 50.536669 185.264466 
L 50.893432 210.312752 
L 51.178843 220.498516 
L 51.250196 220.606942 
L 52.748601 157.224474 
L 53.176717 147.379935 
L 53.390775 146.112147 
L 53.53348 147.014636 
L 53.747538 151.371458 
L 54.032949 163.259585 
L 54.532417 196.960344 
L 54.60377 202.152036 
L 54.675123 200.614132 
L 55.816765 158.456458 
L 56.887055 124.894461 
L 57.529229 108.058836 
L 58.456813 62.847773 
L 58.599518 62.163496 
L 58.742224 64.1717 
L 58.956281 72.838686 
L 59.241692 95.396808 
L 60.52604 217.439074 
L 60.882803 224.48435 
L 61.596329 234.423725 
L 62.024445 243.307113 
L 62.595266 232.949641 
L 63.166088 218.035576 
L 63.451498 214.59986 
L 63.594204 214.255743 
L 63.736909 214.942596 
L 63.950967 217.97548 
L 64.30773 227.678994 
L 64.878551 244.120629 
L 65.092609 245.933957 
L 65.163962 245.824164 
L 65.306667 244.679077 
L 65.734783 237.575689 
L 66.091546 233.240931 
L 66.234251 232.757271 
L 66.305604 232.822351 
L 66.448309 233.558279 
L 66.662367 236.079834 
L 67.019131 243.433896 
L 67.304541 251.403105 
L 67.375894 251.023254 
L 68.232126 229.87622 
L 68.517536 227.604663 
L 68.588889 227.552021 
L 68.731594 228.140245 
L 68.945652 230.838182 
L 69.302415 239.16959 
L 69.801884 250.571322 
L 69.944589 251.508596 
L 70.015942 251.419293 
L 70.158647 250.153505 
L 70.444058 244.347752 
L 71.014879 231.911715 
L 71.228937 230.189266 
L 71.300289 230.080296 
L 71.371642 230.185364 
L 71.514347 231.033522 
L 71.799758 235.07396 
L 72.227874 245.603554 
L 72.441932 252.253776 
L 73.226811 233.16644 
L 73.512222 230.614028 
L 73.583574 230.463434 
L 73.654927 230.51782 
L 73.797632 231.319627 
L 74.01169 234.151701 
L 74.867922 249.708291 
L 74.939274 249.651517 
L 75.08198 248.418431 
L 75.36739 242.257899 
L 76.009564 226.491374 
L 76.223622 224.897422 
L 76.294975 224.910454 
L 76.43768 225.72017 
L 76.723091 230.013189 
L 77.079854 240.207295 
L 77.436617 252.097078 
L 77.50797 251.966255 
L 78.078791 237.090135 
L 78.435554 232.241036 
L 78.649612 231.568697 
L 78.792317 232.102087 
L 79.006375 234.393041 
L 79.862607 246.623097 
L 80.005312 245.772684 
L 80.21937 242.084029 
L 81.075602 222.851036 
L 81.218307 222.307426 
L 81.28966 222.45047 
L 81.432365 223.499121 
L 81.717776 228.331621 
L 82.145892 240.603221 
L 82.502655 252.739936 
L 82.716713 243.37255 
L 83.216182 232.099856 
L 83.572945 228.465582 
L 83.71565 228.317659 
L 83.858355 228.940314 
L 84.072413 231.217068 
L 84.78594 240.610802 
L 84.857292 240.586703 
L 84.999998 239.576754 
L 85.214056 235.804361 
L 86.070287 217.103425 
L 86.212993 216.614251 
L 86.355698 217.180252 
L 86.569756 219.881208 
L 86.926519 228.360622 
L 87.49734 248.883516 
L 87.568693 248.358266 
L 88.139514 231.313234 
L 88.496277 225.628988 
L 88.710335 224.635661 
L 88.781688 224.74777 
L 88.924393 225.611226 
L 89.209804 229.534522 
L 89.780625 237.799173 
L 89.851978 237.926569 
L 89.92333 237.739676 
L 90.066036 236.413775 
L 90.351446 230.692311 
L 90.922267 218.208134 
L 91.136325 216.594954 
L 91.207678 216.570568 
L 91.350383 217.288137 
L 91.564441 220.17299 
L 91.921205 228.796047 
L 92.492026 248.067756 
L 92.563378 245.443779 
L 93.1342 228.316905 
L 93.490963 222.725188 
L 93.705021 221.892694 
L 93.847726 222.472463 
L 94.061784 224.957993 
L 94.846663 236.9123 
L 94.918016 236.822303 
L 95.060721 235.668042 
L 95.346132 230.223921 
L 95.916953 218.056396 
L 96.131011 216.515851 
L 96.202363 216.512902 
L 96.345069 217.269751 
L 96.559127 220.203147 
L 96.91589 228.865206 
L 97.415358 246.638947 
L 97.486711 246.192851 
L 98.128885 226.371805 
L 98.485648 220.858966 
L 98.699706 220.12647 
L 98.842411 220.799458 
L 99.056469 223.460742 
L 99.841348 236.22366 
L 99.912701 236.204909 
L 100.055406 235.188974 
L 100.340817 229.977367 
L 100.911638 218.135685 
L 101.125696 216.667164 
L 101.197049 216.683338 
L 101.339754 217.472699 
L 101.553812 220.438852 
L 101.910575 229.127256 
L 102.410044 246.904396 
L 102.481396 245.144104 
L 103.12357 225.39607 
L 103.480333 219.974638 
L 103.623039 219.303153 
L 103.694391 219.320986 
L 103.837097 220.055345 
L 104.051155 222.820642 
L 104.836034 236.037884 
L 104.907386 236.051807 
L 105.050092 235.096465 
L 105.335502 229.98799 
L 105.977676 217.537447 
L 106.120381 216.81694 
L 106.191734 216.837187 
L 106.334439 217.630288 
L 106.548497 220.599828 
L 106.90526 229.325491 
L 107.404729 247.094146 
L 107.476082 245.44091 
L 108.118255 225.657044 
L 108.475019 220.212155 
L 108.617724 219.532244 
L 108.689077 219.546578 
L 108.831782 220.274128 
L 109.04584 223.03581 
L 109.830719 236.297176 
L 109.902072 236.313621 
L 110.044777 235.36327 
L 110.330188 230.261506 
L 110.972361 217.803178 
L 111.115067 217.079519 
L 111.186419 217.097356 
L 111.329125 217.885478 
L 111.543183 220.844888 
L 111.899946 229.551506 
L 112.399414 247.275724 
L 112.470767 245.773591 
L 113.112941 225.992625 
L 113.469704 220.586488 
L 113.612409 219.921131 
L 113.683762 219.944132 
L 113.826467 220.692239 
L 114.040525 223.486276 
L 114.825404 236.831384 
L 114.896757 236.864131 
L 115.039462 235.908019 
L 115.324873 230.724406 
L 115.967047 218.028237 
L 116.181105 217.250996 
L 116.32381 217.995803 
L 116.537868 220.897558 
L 116.894631 229.556548 
L 117.3941 247.246334 
L 117.465452 246.064714 
L 118.107626 226.26974 
L 118.464389 220.867459 
L 118.607095 220.216016 
L 118.678447 220.247058 
L 118.821153 221.013768 
L 119.035211 223.838994 
L 119.82009 237.292083 
L 119.891442 237.326828 
L 120.034148 236.373243 
L 120.319558 231.124356 
L 120.961732 218.199564 
L 121.17579 217.362189 
L 121.318495 218.075591 
L 121.532553 220.943812 
L 121.889316 229.61262 
L 122.388785 247.270816 
L 122.460138 246.11756 
L 123.102311 226.409621 
L 123.459075 221.143111 
L 123.60178 220.541961 
L 123.673133 220.599746 
L 123.815838 221.423506 
L 124.101249 225.675063 
L 124.743422 237.639967 
L 124.886128 238.05531 
L 125.028833 237.095321 
L 125.314244 231.788932 
L 125.956417 218.657983 
L 126.170475 217.768163 
L 126.313181 218.454664 
L 126.527239 221.29137 
L 126.884002 229.906327 
L 127.38347 247.553257 
L 127.454823 246.347295 
L 128.025644 228.327533 
L 128.382407 222.090647 
L 128.596465 220.869626 
L 128.667818 220.939933 
L 128.810523 221.793637 
L 129.095934 226.125732 
L 129.80946 238.709504 
L 129.880813 238.769956 
L 130.023518 237.849406 
L 130.308929 232.587775 
L 130.951103 219.384089 
L 131.165161 218.448662 
L 131.307866 219.104655 
L 131.521924 221.896793 
L 131.878687 230.462533 
L 132.378156 248.034829 
L 132.449508 246.71458 
L 133.020329 228.677532 
L 133.377093 222.59898 
L 133.591151 221.4379 
L 133.805209 222.748248 
L 134.090619 227.373054 
L 134.804146 240.822127 
L 134.875498 240.935233 
L 135.018204 240.089156 
L 135.232261 236.473294 
L 136.017141 220.625825 
L 136.159846 220.135978 
L 136.231199 220.275456 
L 136.373904 221.30118 
L 136.659314 226.088779 
L 137.08743 238.297601 
L 137.372841 248.71015 
L 137.444194 247.507265 
L 138.015015 230.050967 
L 138.371778 223.993218 
L 138.585836 222.841876 
L 138.657189 222.925522 
L 138.799894 223.789507 
L 139.085304 228.038742 
L 139.727478 239.132752 
L 139.798831 239.317391 
L 139.870184 239.143704 
L 140.012889 237.707828 
L 140.298299 231.336823 
L 140.940473 215.929151 
L 141.154531 214.454438 
L 141.225884 214.49942 
L 141.368589 215.367042 
L 141.582647 218.462247 
L 141.93941 227.450501 
L 142.510232 246.612869 
L 142.581584 244.077399 
L 143.152405 228.272169 
L 143.509169 223.894443 
L 143.651874 223.577523 
L 143.794579 224.092916 
L 144.008637 226.251098 
L 144.579458 233.155598 
L 144.650811 233.18309 
L 144.793516 232.128782 
L 145.007574 227.554574 
L 145.43569 210.722662 
L 145.935159 193.31377 
L 146.220569 189.888562 
L 146.291922 189.851633 
L 146.434627 190.674113 
L 146.648685 193.975207 
L 147.005448 203.895538 
L 147.647622 229.784989 
L 147.86168 237.645894 
L 148.361149 226.322732 
L 148.646559 223.389036 
L 148.860617 222.875017 
L 149.003322 223.094177 
L 149.288733 223.630264 
L 149.431438 223.139794 
L 149.574144 221.539459 
L 149.788202 216.251143 
L 150.144965 199.375131 
L 150.929844 159.21575 
L 151.215254 154.355259 
L 151.286607 154.124793 
L 151.35796 154.260262 
L 151.500665 155.550522 
L 151.786076 161.489846 
L 152.214192 176.862384 
L 152.999071 215.138937 
L 153.284481 228.462946 
L 153.712597 221.422331 
L 154.426124 212.963471 
L 154.711534 203.483698 
L 155.13965 178.21766 
L 155.781824 138.978416 
L 156.067235 131.360718 
L 156.20994 130.302585 
L 156.281292 130.391636 
L 156.423998 131.70609 
L 156.709408 138.082441 
L 157.137524 154.660739 
L 157.922403 196.448438 
L 158.63593 236.062559 
L 158.707282 235.310481 
L 159.278104 228.974584 
L 159.563514 220.922171 
L 159.920277 201.267289 
L 160.990567 131.831805 
L 161.204625 128.476384 
L 161.275978 128.269342 
L 161.34733 128.480364 
L 161.490036 130.615036 
L 161.775446 137.646857 
L 162.203562 154.795994 
L 163.131147 204.544616 
L 163.844673 243.54319 
L 163.916026 242.618917 
L 164.201436 237.905302 
L 164.272789 240.617053 
L 164.5582 229.678849 
L 164.914963 205.478504 
L 165.9139 129.51043 
L 166.19931 123.516912 
L 166.270663 123.304767 
L 166.342016 123.551422 
L 166.484721 125.300638 
L 166.770132 132.928234 
L 167.198248 151.70283 
L 168.33989 216.86515 
L 168.553948 229.019123 
L 168.6253 228.176983 
L 169.053416 221.450081 
L 169.124769 224.398356 
L 169.196122 223.447786 
L 169.481532 215.635523 
L 169.838295 197.90376 
L 170.908585 135.119794 
L 171.122643 132.509513 
L 171.193996 132.544442 
L 171.336701 133.840152 
L 171.622112 140.586642 
L 172.050228 158.041577 
L 172.977812 208.692025 
L 173.049165 212.750447 
L 173.120517 210.707868 
L 173.548633 200.212635 
L 173.905396 195.642589 
L 174.476218 189.984795 
L 174.761628 182.781903 
L 175.189744 163.958185 
L 175.760565 140.658929 
L 176.045976 136.862434 
L 176.117328 136.884784 
L 176.260034 138.00632 
L 176.474092 142.143449 
L 176.830855 154.263878 
L 177.473029 186.014053 
L 177.687087 198.277672 
L 177.758439 196.915949 
L 178.32926 177.313741 
L 178.686024 171.329528 
L 178.900082 170.181869 
L 179.042787 170.205238 
L 179.470903 171.003801 
L 179.613608 170.392914 
L 179.827666 167.675746 
L 180.184429 158.648591 
L 180.75525 144.679207 
L 180.969308 143.380232 
L 181.040661 143.560763 
L 181.183366 144.867419 
L 181.468777 150.833793 
L 181.896893 166.262803 
L 182.396361 189.231919 
L 183.109888 157.321923 
L 183.466651 148.157029 
L 183.752062 145.480051 
L 183.823414 145.481323 
L 183.894767 145.734683 
L 184.822351 157.613426 
L 184.893704 157.692589 
L 185.036409 157.182063 
L 185.32182 154.370826 
L 185.678583 151.115058 
L 185.821288 150.941775 
L 185.963994 151.710858 
L 186.178052 154.741742 
L 186.534815 164.527384 
L 187.105636 188.949537 
L 187.176989 185.631908 
L 188.104573 141.996032 
L 188.461336 134.33987 
L 188.604042 133.39612 
L 188.675394 133.432591 
L 188.8181 134.5282 
L 189.032158 138.531091 
L 189.531626 154.600237 
L 189.959742 165.376561 
L 190.245153 167.917095 
L 190.815974 170.153383 
L 191.101384 174.248616 
L 191.458148 183.686329 
L 191.814911 197.277994 
L 191.886263 194.676648 
L 193.241964 133.891559 
L 193.527374 130.562438 
L 193.67008 131.609229 
L 193.884138 135.824329 
L 194.240901 149.380307 
L 194.954427 178.952364 
L 195.311191 185.134585 
L 196.024717 192.648328 
L 196.167422 202.696537 
L 196.452833 209.886257 
L 196.524186 209.127049 
L 198.308002 131.640255 
L 198.52206 128.014019 
L 198.664765 129.755853 
L 198.950176 139.803363 
L 199.449644 168.966477 
L 200.020465 198.813506 
L 200.448581 210.310971 
L 201.090755 221.703436 
L 201.875634 191.098416 
L 201.946987 160.32851 
L 202.018339 163.60903 
L 202.30375 177.28614 
L 203.017276 144.829176 
L 203.37404 135.718465 
L 203.588098 133.667562 
L 203.65945 133.605911 
L 203.802156 134.461449 
L 204.016214 138.010288 
L 205.015151 160.417569 
L 205.086503 160.532013 
L 205.229209 160.136005 
L 205.80003 156.899287 
L 205.871382 156.923849 
L 206.014088 157.504614 
L 206.156793 172.430532 
L 206.442204 177.823911 
L 206.870319 190.752711 
L 207.084377 198.625345 
L 207.15573 197.40245 
L 207.726551 177.702096 
L 208.154667 167.61558 
L 208.440078 165.292025 
L 208.51143 165.310746 
L 208.654136 166.274133 
L 208.868194 170.132697 
L 209.224957 182.20031 
L 209.938483 207.960995 
L 210.223894 211.14281 
L 210.366599 211.293576 
L 210.580657 210.658964 
L 210.866068 209.821923 
L 211.008773 209.841624 
L 211.151478 210.32107 
L 211.365536 212.17772 
L 211.650947 216.867012 
L 212.00771 225.888317 
L 212.079063 225.461529 
L 212.792589 201.856669 
L 213.220705 192.666259 
L 213.292058 194.524608 
L 213.36341 193.848998 
L 213.577468 193.174734 
L 213.720174 193.922191 
L 213.934232 196.896363 
L 214.362347 207.817059 
L 214.790463 217.997418 
L 215.004521 219.521724 
L 215.075874 219.534822 
L 215.289932 218.382409 
L 215.860753 214.261829 
L 216.003458 214.117577 
L 216.074811 214.146561 
L 216.288869 215.697638 
L 216.574279 219.895756 
L 217.002395 230.128285 
L 217.287806 238.371062 
L 218.001332 217.959931 
L 218.429448 211.272649 
L 218.714859 209.637872 
L 218.857564 209.537108 
L 219.071622 209.933042 
L 219.28568 210.213871 
L 219.428385 209.761381 
L 219.642443 207.407519 
L 219.927854 201.340464 
L 220.855438 178.293966 
L 221.069496 177.430858 
L 221.212202 178.011005 
L 221.426259 180.217284 
L 221.71167 185.888119 
L 222.211139 201.696148 
L 222.710607 221.219166 
L 222.996018 210.806452 
L 223.566839 195.905505 
L 224.209013 180.674149 
L 224.565776 164.555768 
L 225.20795 117.14053 
L 225.636066 90.03882 
L 225.921476 81.500842 
L 225.992829 80.489129 
L 226.135534 85.416681 
L 226.27824 86.341397 
L 226.492297 90.00476 
L 226.849061 100.802075 
L 227.419882 126.870122 
L 228.062056 155.704958 
L 228.775582 180.146151 
L 228.98964 181.745155 
L 229.988577 191.371635 
L 230.05993 191.763937 
L 230.34534 195.083626 
L 230.630751 196.22398 
L 230.916162 197.063378 
L 231.13022 198.55385 
L 231.41563 202.241815 
L 231.843746 211.677594 
L 232.129157 218.29723 
L 232.200509 217.811381 
L 232.985388 200.169057 
L 233.55621 191.324836 
L 233.984325 180.445612 
L 234.198383 178.680592 
L 234.269736 178.746189 
L 234.483794 180.236726 
L 234.840557 185.40953 
L 235.125968 188.620677 
L 235.411378 188.838366 
L 235.554084 189.05798 
L 235.696789 189.571708 
L 235.910847 191.376007 
L 236.196257 196.326722 
L 236.553021 206.77018 
L 237.052489 222.535836 
L 237.409252 216.992942 
L 237.908721 210.317847 
L 238.40819 206.871746 
L 238.479542 206.546002 
L 238.550895 202.689975 
L 238.622248 203.077297 
L 240.192006 213.55996 
L 240.691474 219.822431 
L 241.975822 240.381541 
L 242.261233 245.681957 
L 242.332585 244.951649 
L 242.903406 231.722685 
L 243.26017 227.054301 
L 243.474228 225.90155 
L 243.616933 225.755233 
L 243.759638 226.06921 
L 243.973696 227.363703 
L 244.544517 231.603056 
L 244.61587 231.713359 
L 244.687223 231.665069 
L 244.90128 230.053412 
L 245.757512 221.317906 
L 245.828865 221.269034 
L 246.042923 221.681726 
L 246.114275 222.221349 
L 247.969444 159.249903 
L 248.254855 156.323294 
L 248.326208 156.222803 
L 248.468913 156.928028 
L 248.540265 149.742295 
L 248.611618 151.104762 
L 248.897029 159.883176 
L 249.325145 181.365137 
L 249.895966 209.181166 
L 250.252729 217.502632 
L 251.108961 227.192614 
L 251.465724 232.858162 
L 252.036545 246.66234 
L 252.107898 244.232782 
L 252.750072 226.08677 
L 253.178188 219.233393 
L 253.392246 218.063634 
L 253.463598 218.040241 
L 253.606303 218.50491 
L 253.891714 221.255511 
L 254.676593 230.806801 
L 254.890651 231.75583 
L 254.962004 231.833894 
L 255.104709 231.513492 
L 255.746883 228.820764 
L 255.818236 228.90854 
L 255.960941 229.479189 
L 256.888525 244.963172 
L 257.245288 251.779086 
L 257.316641 251.178738 
L 258.030168 234.490993 
L 258.529636 228.261533 
L 258.672341 228.015106 
L 258.815047 228.328692 
L 259.029105 229.600435 
L 259.885336 236.934054 
L 259.956689 236.793656 
L 260.170747 235.305877 
L 260.741568 230.384469 
L 260.955626 230.001376 
L 261.098331 230.470335 
L 261.312389 232.365056 
L 261.669153 238.401932 
L 262.168621 251.580705 
L 262.239974 253.816228 
L 263.381616 231.774405 
L 263.452969 231.405617 
L 263.595674 229.379256 
L 263.738379 229.77355 
L 264.02379 231.92777 
L 264.523258 235.918868 
L 264.594611 235.855804 
L 264.737316 235.306435 
L 264.951374 233.499759 
L 265.522196 227.891057 
L 265.807606 226.830362 
L 265.950311 227.086481 
L 266.235722 229.73439 
L 266.521133 233.848106 
L 266.949249 243.923041 
L 267.306012 251.478299 
L 267.448717 248.939582 
L 268.019538 236.122379 
L 268.376301 231.938891 
L 268.733065 229.958416 
L 268.87577 230.16957 
L 269.089828 231.175308 
L 269.517944 234.628833 
L 269.732002 235.817501 
L 269.803354 235.879944 
L 269.874707 235.763136 
L 270.088765 234.162197 
L 270.23147 232.508768 
L 270.302823 233.25634 
L 270.730939 228.933559 
L 270.944997 228.214122 
L 271.016349 228.272499 
L 271.159055 228.860891 
L 271.373113 230.987523 
L 271.729876 237.660676 
L 272.300697 253.219087 
L 272.37205 251.186485 
L 273.014224 236.578633 
L 273.370987 232.516479 
L 273.585045 231.754084 
L 273.656397 231.783992 
L 273.799103 232.217966 
L 274.155866 234.692259 
L 274.441276 236.343209 
L 274.583982 235.962027 
L 274.869392 233.635393 
L 275.725624 224.977925 
L 275.796977 224.861536 
L 275.868329 224.912014 
L 275.939682 225.105159 
L 276.225093 228.135462 
L 276.510503 232.545151 
L 276.938619 243.117644 
L 277.366735 252.729078 
L 278.151614 237.132623 
L 278.437025 234.882569 
L 278.508377 235.764048 
L 278.57973 235.699987 
L 278.722435 235.996913 
L 278.936493 237.248016 
L 279.364609 241.815932 
L 279.65002 244.524529 
L 279.792725 244.787228 
L 279.864078 244.626707 
L 280.078136 242.615559 
L 281.00572 230.729367 
L 281.077073 230.675847 
L 281.219778 231.130605 
L 281.433836 233.134123 
L 281.719247 238.468298 
L 282.290068 254.841905 
L 282.36142 252.841225 
L 282.932242 239.997244 
L 283.289005 235.67399 
L 283.503063 235.111032 
L 283.645768 235.65708 
L 283.859826 237.596228 
L 284.430647 244.121775 
L 284.502 244.116025 
L 284.644705 243.583188 
L 284.858763 241.318656 
L 285.786347 227.574991 
L 285.929053 227.298064 
L 286.428521 232.644367 
L 286.856637 242.384218 
L 287.284753 252.86777 
L 287.356106 252.713884 
L 288.140985 236.173048 
L 288.569101 232.540069 
L 288.711806 232.893013 
L 288.997217 234.957541 
L 289.63939 240.945368 
L 289.710743 240.92185 
L 289.924801 239.832859 
L 290.138859 237.677509 
L 290.781033 229.841065 
L 290.995091 229.008131 
L 291.066443 229.026124 
L 291.209149 229.617538 
L 291.423207 231.923461 
L 291.77997 239.084055 
L 292.279438 252.372428 
L 292.850259 238.42108 
L 293.207023 233.236263 
L 293.421081 232.092276 
L 293.492433 232.099864 
L 293.635139 232.700012 
L 293.920549 235.673636 
L 294.420018 241.422829 
L 294.49137 241.404203 
L 294.634076 240.807277 
L 294.848134 238.415547 
L 295.847071 223.053412 
L 295.918423 222.784407 
L 296.061129 225.954514 
L 296.275187 228.548555 
L 296.703302 237.390389 
L 297.274124 251.243833 
L 297.345476 251.441904 
L 297.488182 248.910067 
L 298.201708 234.036166 
L 298.558471 229.708166 
L 298.629824 229.760035 
L 298.772529 230.348517 
L 299.05794 232.744955 
L 299.486056 236.087059 
L 299.557408 236.237863 
L 299.628761 236.094446 
L 299.771466 235.583407 
L 299.842819 235.506534 
L 299.985524 234.722697 
L 300.270935 231.288614 
L 300.699051 226.556767 
L 300.913109 226.085845 
L 301.055814 226.415708 
L 301.269872 228.207192 
L 301.555282 232.831308 
L 301.983398 243.797272 
L 302.268809 251.752059 
L 302.982335 235.11148 
L 303.339099 231.088023 
L 303.481804 230.8516 
L 303.624509 231.420332 
L 303.838567 233.883404 
L 304.480741 242.912709 
L 304.623446 243.04092 
L 304.766152 242.345838 
L 305.051562 238.642774 
L 306.050499 222.167668 
L 306.121852 222.198 
L 306.264557 222.872813 
L 306.478615 225.661476 
L 306.835378 233.350298 
L 307.334847 249.074094 
L 307.4062 247.99848 
L 307.977021 235.144869 
L 308.262431 231.983892 
L 308.405137 231.414504 
L 308.476489 228.788753 
L 308.547842 228.911193 
L 308.690547 229.707936 
L 308.975958 233.018864 
L 309.475426 238.620616 
L 309.546779 238.723114 
L 309.689484 238.005181 
L 309.903542 234.357765 
L 311.045185 205.699309 
L 311.18789 205.441992 
L 311.330595 206.159602 
L 311.544653 208.874043 
L 311.901416 217.08292 
L 312.329532 232.347623 
L 312.472238 235.197574 
L 313.043059 222.951341 
L 313.328469 220.69786 
L 313.399822 220.600621 
L 313.542527 221.244443 
L 313.89929 226.142237 
L 314.327406 232.209079 
L 314.470112 232.486938 
L 314.612817 231.403787 
L 314.826875 227.084921 
L 315.254991 211.642067 
L 315.754459 194.655928 
L 316.03987 190.18704 
L 316.182575 189.651043 
L 316.32528 190.272332 
L 316.539338 193.007042 
L 316.896102 201.67398 
L 317.39557 220.337022 
L 317.466923 219.653094 
L 318.037744 206.258294 
L 318.323155 203.654339 
L 318.394507 203.52339 
L 318.46586 200.424995 
L 318.537213 200.83354 
L 318.75127 203.257384 
L 319.393444 212.514197 
L 319.464797 212.601966 
L 319.607502 211.74302 
L 319.82156 207.661695 
L 320.249676 192.287674 
L 320.749145 175.540463 
L 321.034555 171.719942 
L 321.105908 171.547965 
L 321.17726 171.635044 
L 321.319966 172.568885 
L 321.534024 175.949968 
L 321.890787 185.73385 
L 322.318903 203.708158 
L 322.390255 203.27968 
L 322.889724 188.527061 
L 323.175135 184.640909 
L 323.31784 184.329407 
L 323.460545 185.042302 
L 323.674603 187.858286 
L 324.530835 201.805619 
L 324.67354 200.569391 
L 324.887598 195.660603 
L 325.458419 173.510628 
L 325.886535 162.134179 
L 326.100593 160.559417 
L 326.243298 160.948899 
L 326.457356 163.517066 
L 326.742767 170.50618 
L 327.170883 186.78169 
L 327.313588 190.196076 
L 327.955762 168.592552 
L 328.241173 165.266952 
L 328.312525 165.213616 
L 328.455231 165.981611 
L 328.740641 170.545791 
L 329.454168 185.386298 
L 329.52552 185.63528 
L 329.596873 185.464798 
L 329.739578 183.805562 
L 330.024989 175.807539 
L 330.809868 149.026668 
L 331.023926 146.597446 
L 331.095278 146.448584 
L 331.237984 146.937316 
L 331.452042 149.77668 
L 331.737452 157.298976 
L 332.236921 176.268588 
L 332.807742 153.198394 
L 333.093153 147.454996 
L 333.307211 146.378433 
L 333.449916 147.274497 
L 333.663974 150.500299 
L 334.591558 169.964282 
L 334.734263 168.843769 
L 334.948321 164.034141 
L 335.875906 136.778693 
L 336.018611 136.23752 
L 336.161316 137.021424 
L 336.375374 140.95052 
L 336.732138 154.003499 
L 337.160253 173.366851 
L 337.231606 172.547956 
L 337.802427 148.979275 
L 338.159191 142.243069 
L 338.301896 141.713514 
L 338.444601 142.542811 
L 338.730012 147.898215 
L 339.514891 168.106262 
L 339.586244 168.423363 
L 339.657596 168.274006 
L 339.800301 166.592908 
L 340.085712 158.68449 
L 340.727886 138.146306 
L 340.941944 135.724318 
L 341.013296 135.616901 
L 341.156002 136.413765 
L 341.37006 140.03452 
L 341.726823 151.370017 
L 342.226291 173.73787 
L 342.939818 143.706174 
L 343.225229 139.066389 
L 343.296581 138.984824 
L 343.367934 139.159929 
L 343.510639 140.498275 
L 343.79605 146.563363 
L 344.438224 161.576146 
L 344.509576 161.887159 
L 344.580929 161.655616 
L 344.723634 159.749157 
L 345.009045 151.140261 
L 345.793924 122.786072 
L 346.007982 120.157042 
L 346.079334 119.960564 
L 346.150687 120.086389 
L 346.293392 121.009709 
L 346.50745 124.803828 
L 346.864214 136.555208 
L 347.292329 155.179222 
L 348.005856 119.07485 
L 348.291266 112.710214 
L 348.505324 111.645873 
L 348.64803 112.399711 
L 348.862088 114.431339 
L 348.93344 114.162796 
L 349.432909 94.627095 
L 349.932377 64.939236 
L 350.645904 22.901848 
L 350.931314 15.008178 
L 351.145372 13.440942 
L 351.216725 13.696676 
L 351.35943 15.497019 
L 351.644841 23.82036 
L 352.072957 46.065704 
L 352.287015 54.811267 
L 352.704343 -1 
L 352.704343 -1 
" clip-path="url(#p7109abde4b)" style="fill: none; stroke: #ff7f0e; stroke-width: 1.5; stroke-linecap: square"/>
   </g>
   <g id="line2d_25">
    <path d="M 49.871829 -1 
L 50.179906 122.901218 
L 50.536669 185.264466 
L 50.893432 210.312752 
L 51.178843 220.498516 
L 51.250196 220.607008 
L 52.819954 154.611043 
L 53.176717 147.122996 
L 53.390775 145.903279 
L 53.53348 146.799631 
L 53.747538 151.138616 
L 54.032949 163.020056 
L 54.675123 200.298854 
L 55.031886 185.486809 
L 57.315171 96.327546 
L 57.957344 60.201349 
L 58.456813 36.915281 
L 58.528166 36.593879 
L 58.599518 37.060999 
L 58.742224 40.699166 
L 58.956281 53.723882 
L 59.384397 99.587707 
L 60.169276 197.210626 
L 60.954156 224.082268 
L 61.524977 232.640774 
L 62.024445 242.84008 
L 62.880677 223.677818 
L 63.380146 215.138077 
L 63.594204 214.259898 
L 63.736909 214.945983 
L 63.950967 217.88137 
L 64.236377 225.135993 
L 64.949904 245.069878 
L 65.092609 245.881914 
L 65.163962 245.753669 
L 65.306667 244.576408 
L 65.734783 237.410631 
L 66.091546 233.038677 
L 66.234251 232.551542 
L 66.305604 232.612512 
L 66.448309 233.340636 
L 66.662367 235.857738 
L 67.019131 243.248066 
L 67.304541 251.28819 
L 67.375894 250.935394 
L 68.018068 233.05139 
L 68.374831 227.859211 
L 68.588889 227.150473 
L 68.731594 227.80168 
L 68.945652 230.573221 
L 69.302415 239.117493 
L 69.801884 250.559297 
L 69.944589 251.487634 
L 70.015942 251.387424 
L 70.158647 250.102249 
L 70.444058 244.278022 
L 71.086232 230.751474 
L 71.300289 229.59266 
L 71.371642 229.677555 
L 71.514347 230.512793 
L 71.799758 234.566658 
L 72.227874 245.215147 
L 72.441932 251.947744 
L 73.155458 233.83871 
L 73.440869 230.579283 
L 73.583574 230.102115 
L 73.654927 230.19321 
L 73.797632 231.051891 
L 74.01169 233.973103 
L 74.867922 249.708294 
L 74.939274 249.651285 
L 75.08198 248.40952 
L 75.36739 242.192663 
L 76.009564 226.178206 
L 76.223622 224.433124 
L 76.294975 224.399862 
L 76.43768 225.123822 
L 76.651738 227.971735 
L 77.008501 237.150074 
L 77.436617 251.899663 
L 77.50797 251.720278 
L 78.078791 236.764702 
L 78.435554 231.900943 
L 78.649612 231.282074 
L 78.792317 231.862189 
L 79.006375 234.239233 
L 79.862607 246.675271 
L 80.005312 245.797215 
L 80.21937 242.049982 
L 81.075602 222.485082 
L 81.218307 221.801523 
L 81.28966 221.859568 
L 81.432365 222.742348 
L 81.646423 225.825992 
L 82.003187 234.845925 
L 82.502655 252.804682 
L 82.716713 242.955204 
L 83.216182 231.624523 
L 83.501592 228.539203 
L 83.644297 228.113844 
L 83.71565 228.179525 
L 83.858355 228.909123 
L 84.072413 231.211298 
L 84.78594 240.610813 
L 84.857292 240.586721 
L 84.999998 239.576832 
L 85.214056 235.810899 
L 86.070287 217.064112 
L 86.212993 216.567208 
L 86.355698 217.141601 
L 86.569756 219.771316 
L 86.926519 228.226728 
L 87.49734 248.848965 
L 87.568693 248.303887 
L 88.139514 231.239881 
L 88.496277 225.625719 
L 88.710335 224.63011 
L 88.781688 224.741398 
L 88.924393 225.604043 
L 89.209804 229.523022 
L 89.780625 237.837496 
L 89.851978 237.981551 
L 89.92333 237.806908 
L 90.066036 236.482033 
L 90.351446 230.730063 
L 90.922267 218.172425 
L 91.136325 216.511817 
L 91.207678 216.482746 
L 91.350383 217.197334 
L 91.564441 219.948906 
L 91.921205 228.547147 
L 92.492026 247.983013 
L 92.563378 245.345452 
L 93.1342 228.20836 
L 93.490963 222.721082 
L 93.705021 221.886288 
L 93.847726 222.464892 
L 94.061784 224.947302 
L 94.846663 236.950564 
L 94.918016 236.875459 
L 95.060721 235.725939 
L 95.346132 230.2567 
L 95.916953 218.029242 
L 96.131011 216.444707 
L 96.202363 216.438052 
L 96.345069 217.194693 
L 96.559127 220.005112 
L 96.91589 228.679099 
L 97.415358 246.560633 
L 97.486711 246.109116 
L 98.128885 226.251987 
L 98.485648 220.853023 
L 98.699706 220.117338 
L 98.842411 220.788776 
L 99.056469 223.445773 
L 99.841348 236.278439 
L 99.912701 236.273298 
L 100.055406 235.248812 
L 100.340817 230.009769 
L 100.982991 217.345234 
L 101.125696 216.589699 
L 101.197049 216.601154 
L 101.339754 217.362961 
L 101.553812 220.201063 
L 101.910575 228.902951 
L 102.410044 246.797588 
L 102.481396 245.087724 
L 103.12357 225.308256 
L 103.480333 219.965982 
L 103.623039 219.292645 
L 103.694391 219.309479 
L 103.837097 220.042138 
L 104.051155 222.803855 
L 104.836034 236.059396 
L 104.907386 236.092039 
L 105.050092 235.147579 
L 105.335502 230.017909 
L 105.977676 217.502016 
L 106.120381 216.758539 
L 106.191734 216.775102 
L 106.334439 217.569698 
L 106.548497 220.413017 
L 106.90526 229.108577 
L 107.404729 246.990008 
L 107.476082 245.380933 
L 108.118255 225.561613 
L 108.475019 220.20289 
L 108.617724 219.520846 
L 108.689077 219.534026 
L 108.831782 220.259518 
L 109.04584 223.017118 
L 109.830719 236.318418 
L 109.902072 236.353896 
L 110.044777 235.423469 
L 110.330188 230.298066 
L 110.972361 217.765805 
L 111.115067 217.017236 
L 111.186419 217.030533 
L 111.329125 217.81869 
L 111.543183 220.68915 
L 111.899946 229.356565 
L 112.399414 247.186011 
L 112.470767 245.708667 
L 113.112941 225.888402 
L 113.469704 220.578832 
L 113.612409 219.911524 
L 113.683762 219.933465 
L 113.826467 220.679924 
L 114.040525 223.469908 
L 114.825404 236.831388 
L 114.896757 236.864194 
L 115.039462 235.920564 
L 115.324873 230.7428 
L 115.967047 218.011034 
L 116.181105 217.210823 
L 116.32381 217.960805 
L 116.537868 220.792007 
L 116.894631 229.404953 
L 117.3941 247.185958 
L 117.465452 246.00367 
L 118.107626 226.159879 
L 118.464389 220.855625 
L 118.607095 220.201103 
L 118.678447 220.23046 
L 118.821153 220.994075 
L 119.035211 223.813124 
L 119.82009 237.292083 
L 119.891442 237.326855 
L 120.034148 236.373352 
L 120.319558 231.137962 
L 120.961732 218.187038 
L 121.17579 217.326404 
L 121.318495 218.046295 
L 121.532553 220.846403 
L 121.889316 229.422318 
L 122.388785 247.180685 
L 122.460138 246.089067 
L 123.030959 227.952977 
L 123.387722 221.775806 
L 123.60178 220.533981 
L 123.673133 220.590887 
L 123.815838 221.413009 
L 124.101249 225.660415 
L 124.743422 237.639967 
L 124.886128 238.055339 
L 125.028833 237.095488 
L 125.314244 231.801842 
L 125.956417 218.646818 
L 126.170475 217.731812 
L 126.313181 218.424423 
L 126.527239 221.194803 
L 126.884002 229.741431 
L 127.38347 247.483493 
L 127.454823 246.303113 
L 128.025644 228.21125 
L 128.382407 222.069012 
L 128.596465 220.855257 
L 128.667818 220.923944 
L 128.810523 221.774132 
L 129.095934 226.098795 
L 129.738108 238.311379 
L 129.880813 238.76997 
L 130.023518 237.849435 
L 130.308929 232.591626 
L 130.951103 219.377868 
L 131.165161 218.417653 
L 131.307866 219.081132 
L 131.521924 221.852619 
L 131.878687 230.334053 
L 132.378156 247.986445 
L 132.449508 246.637987 
L 133.020329 228.583715 
L 133.377093 222.536734 
L 133.591151 221.484406 
L 133.662503 221.614469 
L 133.805209 222.617221 
L 134.090619 227.278225 
L 134.804146 240.708136 
L 134.875498 240.819105 
L 135.018204 239.989243 
L 135.232261 236.384707 
L 136.017141 220.556631 
L 136.159846 220.093667 
L 136.231199 220.232042 
L 136.373904 221.264229 
L 136.659314 225.954713 
L 137.08743 238.133671 
L 137.372841 248.601093 
L 137.444194 247.460765 
L 138.015015 229.932261 
L 138.371778 223.938762 
L 138.585836 222.830159 
L 138.657189 222.912893 
L 138.799894 223.774972 
L 139.085304 228.019833 
L 139.727478 239.132751 
L 139.798831 239.317392 
L 139.870184 239.147239 
L 140.012889 237.711442 
L 140.298299 231.334969 
L 140.940473 215.925183 
L 141.154531 214.412156 
L 141.225884 214.454606 
L 141.368589 215.32944 
L 141.582647 218.427399 
L 141.93941 227.331497 
L 142.510232 246.60129 
L 142.581584 244.060201 
L 143.152405 228.193208 
L 143.509169 223.883946 
L 143.651874 223.564848 
L 143.794579 224.084237 
L 144.008637 226.233605 
L 144.579458 233.155598 
L 144.650811 233.18309 
L 144.793516 232.128782 
L 145.007574 227.554613 
L 145.43569 210.690513 
L 145.935159 193.283644 
L 146.220569 189.866096 
L 146.291922 189.807865 
L 146.434627 190.623888 
L 146.648685 193.93248 
L 147.005448 203.836698 
L 147.647622 229.755127 
L 147.86168 237.669846 
L 148.361149 226.308683 
L 148.646559 223.371604 
L 148.860617 222.872238 
L 149.003322 223.094177 
L 149.288733 223.630264 
L 149.431438 223.139794 
L 149.574144 221.53946 
L 149.788202 216.232102 
L 150.144965 199.114631 
L 150.929844 158.391552 
L 151.215254 153.746363 
L 151.286607 153.570446 
L 151.35796 153.749418 
L 151.500665 155.102226 
L 151.786076 161.244058 
L 152.214192 176.786914 
L 153.070423 218.830415 
L 153.284481 228.459234 
L 153.712597 221.378356 
L 154.426124 212.782635 
L 154.711534 203.056656 
L 155.13965 176.987518 
L 155.781824 136.842548 
L 156.067235 129.527823 
L 156.20994 128.685535 
L 156.281292 128.901357 
L 156.423998 130.471013 
L 156.709408 137.235898 
L 157.137524 154.207122 
L 157.993756 200.343865 
L 158.707282 235.117582 
L 159.278104 228.770259 
L 159.563514 220.522262 
L 159.920277 199.943607 
L 160.919215 130.609435 
L 161.204625 125.704835 
L 161.275978 125.672186 
L 161.418683 126.740886 
L 161.846799 138.066849 
L 162.346267 160.642937 
L 163.844673 243.206427 
L 163.987378 241.251675 
L 164.201436 237.459649 
L 164.272789 239.939112 
L 164.5582 228.978818 
L 164.914963 204.156435 
L 165.842547 130.389698 
L 166.127958 122.843866 
L 166.270663 122.232617 
L 166.413368 123.419323 
L 166.627426 127.98387 
L 166.98419 141.302985 
L 167.697716 179.351509 
L 168.553948 228.998819 
L 168.6253 228.091332 
L 169.053416 221.346066 
L 169.124769 224.314547 
L 169.196122 223.37257 
L 169.481532 215.520414 
L 169.838295 197.80914 
L 170.908585 134.563172 
L 171.122643 131.874483 
L 171.193996 131.88892 
L 171.336701 133.145999 
L 171.550759 137.723227 
L 171.907522 150.825417 
L 172.621049 187.9769 
L 173.049165 212.576908 
L 173.120517 210.769995 
L 173.619986 199.075541 
L 173.976749 195.092869 
L 174.404865 191.127609 
L 174.690275 185.004802 
L 175.047039 170.808211 
L 175.760565 140.338872 
L 176.045976 136.539371 
L 176.117328 136.560319 
L 176.260034 137.69254 
L 176.474092 141.853348 
L 176.830855 154.026747 
L 177.473029 185.964832 
L 177.687087 198.266604 
L 177.758439 196.698211 
L 178.32926 177.052736 
L 178.686024 171.0208 
L 178.900082 169.838487 
L 179.042787 169.838137 
L 179.39955 170.669262 
L 179.470903 170.62334 
L 179.613608 169.981957 
L 179.827666 167.214905 
L 180.184429 158.016008 
L 180.75525 143.680204 
L 180.969308 142.288713 
L 181.040661 142.464908 
L 181.183366 143.761864 
L 181.468777 149.839031 
L 181.896893 165.509681 
L 182.396361 187.61979 
L 183.109888 155.811442 
L 183.466651 146.979217 
L 183.680709 144.777562 
L 183.752062 144.585607 
L 183.823414 144.655842 
L 183.894767 144.97728 
L 184.750999 156.785637 
L 184.893704 157.185126 
L 185.036409 156.690861 
L 185.32182 153.819277 
L 185.678583 150.611631 
L 185.749936 150.443914 
L 185.821288 150.496845 
L 185.963994 151.33167 
L 186.178052 154.464679 
L 186.534815 164.399288 
L 187.105636 188.578797 
L 187.176989 184.538734 
L 187.961868 146.0175 
L 188.389984 134.687567 
L 188.604042 132.940442 
L 188.675394 133.000897 
L 188.8181 134.124073 
L 189.032158 138.148873 
L 189.531626 154.167599 
L 189.959742 164.920967 
L 190.245153 167.386197 
L 190.744621 168.96804 
L 190.958679 171.289649 
L 191.24409 177.059519 
L 191.672206 191.215133 
L 191.814911 197.124907 
L 192.100321 182.322252 
L 192.956553 140.866961 
L 193.313316 131.85707 
L 193.527374 129.883102 
L 193.67008 131.019453 
L 193.884138 135.200693 
L 194.240901 148.727602 
L 194.954427 178.539443 
L 195.311191 184.496408 
L 196.024717 191.768528 
L 196.595538 205.023409 
L 197.879886 139.696232 
L 198.236649 128.736369 
L 198.450707 126.351267 
L 198.52206 126.479233 
L 198.664765 128.182806 
L 198.878823 133.969971 
L 199.306939 155.241301 
L 199.87776 180.665345 
L 200.163171 184.63382 
L 200.234523 184.705617 
L 200.377229 183.970677 
L 200.662639 179.851383 
L 201.376166 166.294271 
L 201.590224 162.018755 
L 201.732929 159.150314 
L 201.946987 145.713139 
L 202.30375 173.828125 
L 203.017276 141.611268 
L 203.37404 132.975105 
L 203.588098 131.345135 
L 203.65945 131.4654 
L 203.802156 132.467842 
L 204.016214 136.212217 
L 204.515682 151.165443 
L 204.872445 158.803882 
L 205.086503 159.878621 
L 205.229209 159.399093 
L 205.871382 155.402785 
L 206.014088 155.963232 
L 206.299498 161.368384 
L 206.656261 172.940718 
L 207.15573 193.149851 
L 207.797904 171.135388 
L 208.154667 164.606962 
L 208.368725 163.616355 
L 208.440078 163.587783 
L 208.582783 164.201878 
L 208.796841 167.321188 
L 209.082251 175.81889 
L 210.009836 209.146296 
L 210.223894 210.834874 
L 210.295247 210.908567 
L 210.437952 210.601568 
L 210.93742 208.945292 
L 211.080126 209.247992 
L 211.294184 210.807497 
L 211.579594 215.097904 
L 212.00771 225.883872 
L 212.079063 224.004894 
L 212.863942 197.860586 
L 213.220705 190.601615 
L 213.292058 193.051849 
L 213.36341 192.562446 
L 213.506116 191.956987 
L 213.577468 192.003468 
L 213.720174 192.799044 
L 213.934232 195.732735 
L 214.290995 204.069231 
L 214.861816 217.335656 
L 215.075874 218.561954 
L 215.218579 218.218717 
L 215.50399 216.153137 
L 215.860753 214.020402 
L 216.003458 213.918351 
L 216.146164 214.477886 
L 216.360222 216.447824 
L 216.716985 222.727195 
L 217.216453 236.552791 
L 217.359159 235.835363 
L 218.001332 217.874493 
L 218.429448 211.149096 
L 218.714859 209.469613 
L 218.857564 209.355193 
L 219.000269 209.572233 
L 219.28568 210.196487 
L 219.428385 209.552655 
L 219.642443 207.190838 
L 219.927854 201.097916 
L 220.855438 177.380583 
L 221.069496 176.441769 
L 221.212202 177.246218 
L 221.283554 177.759017 
L 221.783023 161.019073 
L 222.282491 150.70231 
L 224.423071 118.178773 
L 225.636066 88.996851 
L 225.992829 79.607313 
L 226.349592 79.607271 
L 226.492297 80.322165 
L 226.56365 80.577802 
L 226.635003 80.465651 
L 226.777708 80.140556 
L 227.063119 79.607274 
L 227.205824 79.700025 
L 227.348529 80.140883 
L 227.419882 80.529114 
L 227.491235 80.488012 
L 227.705292 80.580576 
L 227.776645 80.889236 
L 227.847998 79.607273 
L 228.062056 83.902614 
L 228.347466 93.871749 
L 228.775582 121.017713 
L 229.560461 176.923695 
L 230.05993 189.457006 
L 230.273988 191.139587 
L 230.416693 191.278048 
L 230.630751 191.302999 
L 230.773456 191.573342 
L 230.987514 192.736085 
L 231.272925 196.245101 
L 231.915099 207.536148 
L 231.986451 207.344271 
L 232.129157 207.315824 
L 232.271862 207.749313 
L 232.557272 196.813547 
L 233.199446 170.854733 
L 233.484857 164.271891 
L 233.55621 164.603608 
L 233.84162 162.7193 
L 233.912973 162.7864 
L 234.127031 164.449076 
L 234.412441 167.930382 
L 234.769205 176.067895 
L 234.983262 179.532456 
L 235.696789 185.120854 
L 236.196257 192.72291 
L 236.410315 196.834655 
L 236.767079 203.326137 
L 237.123842 209.45681 
L 237.195195 209.210802 
L 237.551958 208.278443 
L 237.908721 205.336303 
L 237.980074 205.05525 
L 238.40819 199.852308 
L 238.836305 195.267108 
L 239.050363 193.599259 
L 239.121716 193.593935 
L 239.264421 194.712021 
L 239.549832 201.169456 
L 239.835243 207.513562 
L 239.906595 207.997714 
L 239.977948 207.734976 
L 240.334711 206.403181 
L 240.548769 205.657471 
L 240.691474 206.190753 
L 240.905532 208.766185 
L 241.476353 221.099631 
L 242.118527 238.578844 
L 242.403938 241.369262 
L 242.47529 241.23672 
L 242.974759 230.373915 
L 243.331522 226.323251 
L 243.54558 225.566245 
L 243.616933 225.584923 
L 243.759638 225.948011 
L 243.973696 227.224018 
L 244.544517 231.287011 
L 244.61587 231.32161 
L 244.758575 230.616757 
L 245.043986 227.30362 
L 245.614807 220.511176 
L 245.828865 220.015995 
L 245.97157 220.320131 
L 246.114275 221.119066 
L 247.04186 183.259896 
L 247.826739 154.980558 
L 248.183502 148.372617 
L 248.39756 147.170785 
L 248.468913 147.229158 
L 248.540265 147.521662 
L 248.754323 152.26797 
L 249.111087 167.204821 
L 250.038671 212.675778 
L 250.395434 219.078305 
L 250.609492 220.824506 
L 250.82355 224.37474 
L 251.180313 228.112056 
L 251.537077 234.224374 
L 252.036545 245.545799 
L 252.250603 239.436008 
L 252.821424 224.378573 
L 253.178188 219.013832 
L 253.392246 217.772356 
L 253.463598 217.716587 
L 253.606303 218.157531 
L 253.820361 220.168965 
L 254.533888 228.848689 
L 254.819298 230.933049 
L 254.962004 231.168887 
L 255.104709 230.899371 
L 255.532825 228.990414 
L 255.818236 227.815573 
L 255.889588 227.809692 
L 255.960941 227.932346 
L 256.246351 230.289611 
L 256.531762 234.475424 
L 257.031231 245.983809 
L 257.173936 250.036622 
L 257.245288 249.627628 
L 257.958815 232.406513 
L 258.315578 227.576046 
L 258.600989 226.223517 
L 258.672341 226.254422 
L 258.815047 226.699119 
L 259.029105 228.226663 
L 259.885336 236.329436 
L 259.956689 236.386753 
L 260.170747 235.167292 
L 260.884273 229.709968 
L 260.955626 229.707632 
L 261.098331 230.194178 
L 261.312389 232.144281 
L 261.669153 238.248607 
L 262.168621 251.373713 
L 262.239974 253.457186 
L 262.596737 244.309425 
L 263.096206 234.471236 
L 263.595674 229.230445 
L 263.738379 229.658299 
L 264.02379 231.931553 
L 264.451906 235.371836 
L 264.523258 235.421522 
L 264.665964 235.133559 
L 264.880022 233.816187 
L 265.37949 227.988109 
L 265.664901 225.742271 
L 265.878959 225.354765 
L 265.950311 225.359045 
L 266.093017 226.165338 
L 266.378427 229.504858 
L 266.806543 238.108077 
L 267.234659 249.973103 
L 267.306012 249.58752 
L 268.019538 233.553916 
L 268.447654 228.724568 
L 268.661712 228.138173 
L 268.733065 228.122183 
L 268.87577 228.5232 
L 269.161181 230.716042 
L 269.660649 234.683247 
L 269.803354 234.963225 
L 269.874707 234.91754 
L 270.017412 234.214104 
L 270.23147 231.732703 
L 270.302823 232.617342 
L 270.730939 228.176759 
L 270.944997 227.484515 
L 271.087702 227.813517 
L 271.30176 229.61849 
L 271.658523 235.791015 
L 272.157992 249.136987 
L 272.300697 252.373899 
L 273.014224 236.065574 
L 273.370987 232.106971 
L 273.585045 231.367494 
L 273.72775 231.593073 
L 273.941808 232.797671 
L 274.369924 235.478809 
L 274.441276 235.475452 
L 274.583982 235.080028 
L 274.79804 233.691484 
L 275.226156 228.390367 
L 275.582919 224.611724 
L 275.796977 223.985489 
L 275.939682 224.201034 
L 276.15374 225.930326 
L 276.510503 231.790973 
L 277.152677 248.804341 
L 277.22403 251.027914 
L 277.295382 250.782897 
L 277.937556 236.385365 
L 278.365672 231.398019 
L 278.437025 230.682935 
L 278.57973 232.417332 
L 278.722435 232.934753 
L 278.936493 234.973943 
L 279.65002 243.617926 
L 279.792725 243.862243 
L 279.864078 243.733765 
L 280.078136 241.9909 
L 280.434899 236.593116 
L 280.863015 230.924671 
L 281.077073 230.262305 
L 281.219778 230.800393 
L 281.433836 232.998066 
L 281.790599 240.102336 
L 282.290068 253.285894 
L 282.932242 238.546095 
L 283.289005 234.595956 
L 283.503063 234.079752 
L 283.645768 234.508988 
L 283.859826 236.165819 
L 284.359294 240.697722 
L 284.502 240.702622 
L 284.644705 240.175744 
L 284.858763 238.326356 
L 285.358232 230.911761 
L 285.714995 227.165484 
L 285.929053 226.73078 
L 286.071758 227.538114 
L 286.428521 232.305168 
L 286.92799 243.744905 
L 287.2134 251.938041 
L 287.284753 250.993863 
L 287.926927 235.847792 
L 288.355043 230.278281 
L 288.569101 229.447406 
L 288.711806 229.862546 
L 288.925864 231.798303 
L 289.63939 239.84622 
L 289.710743 239.835482 
L 289.853448 239.378453 
L 290.067506 237.716745 
L 290.995091 228.709602 
L 291.066443 228.731639 
L 291.209149 229.359999 
L 291.423207 231.703046 
L 291.77997 238.951808 
L 292.208086 251.335622 
L 292.279438 251.160281 
L 292.921612 235.989735 
L 293.278375 231.780938 
L 293.492433 231.096664 
L 293.635139 231.47981 
L 293.849197 233.205021 
L 294.348665 238.017518 
L 294.49137 238.173206 
L 294.634076 237.584645 
L 294.848134 235.595277 
L 295.27625 228.736254 
L 295.704365 223.322918 
L 295.918423 222.660131 
L 296.061129 223.445137 
L 296.346539 226.973967 
L 296.703302 234.237397 
L 297.274124 250.36305 
L 297.345476 248.353641 
L 297.98765 233.291284 
L 298.487119 226.370843 
L 298.629824 226.27146 
L 298.772529 226.735655 
L 299.05794 229.418364 
L 299.557408 234.54541 
L 299.700114 234.770473 
L 299.842819 234.431195 
L 300.056877 232.988343 
L 300.913109 225.3099 
L 301.055814 225.896698 
L 301.341225 228.710513 
L 301.697988 235.756885 
L 302.268809 250.693201 
L 302.910983 235.297077 
L 303.267746 230.892759 
L 303.410451 230.297419 
L 303.481804 230.325327 
L 303.624509 230.985333 
L 303.838567 233.482034 
L 304.480741 242.531794 
L 304.623446 242.739894 
L 304.766152 242.142573 
L 304.98021 239.300231 
L 305.979147 221.796677 
L 306.050499 221.694304 
L 306.121852 221.798389 
L 306.264557 222.637569 
L 306.549968 226.605266 
L 306.978084 237.118024 
L 307.334847 247.216609 
L 307.4062 247.106934 
L 308.048373 231.580335 
L 308.333784 228.581744 
L 308.476489 228.251327 
L 308.690547 229.200828 
L 308.975958 232.390808 
L 309.475426 237.942565 
L 309.546779 237.984313 
L 309.689484 237.10631 
L 309.903542 233.388545 
L 310.331658 220.211617 
L 310.759774 208.375776 
L 311.045185 205.196579 
L 311.18789 204.977053 
L 311.330595 205.611383 
L 311.544653 208.335073 
L 311.901416 216.66673 
L 312.400885 233.823195 
L 312.472238 232.523754 
L 312.971706 222.124967 
L 313.257117 219.836438 
L 313.328469 219.767197 
L 313.471175 220.254895 
L 313.685233 222.266321 
L 314.470112 232.335745 
L 314.68417 230.217622 
L 314.96958 222.316912 
L 315.897165 190.039972 
L 316.111223 188.446507 
L 316.182575 188.512962 
L 316.32528 189.456978 
L 316.539338 192.333876 
L 316.896102 201.375782 
L 317.466923 217.568046 
L 318.109097 202.642118 
L 318.394507 199.716797 
L 318.46586 199.57485 
L 318.608565 200.487358 
L 318.893976 204.518605 
L 319.322092 210.86408 
L 319.464797 211.372281 
L 319.607502 210.529729 
L 319.82156 206.383137 
L 320.249676 189.994168 
L 320.749145 173.490001 
L 321.034555 170.157706 
L 321.105908 170.112631 
L 321.248613 170.890313 
L 321.462671 173.679601 
L 321.819434 182.727727 
L 322.390255 199.57147 
L 322.532961 196.106189 
L 322.961077 185.832415 
L 323.246487 183.282475 
L 323.31784 183.279754 
L 323.460545 184.057588 
L 323.745956 188.28781 
L 324.459482 201.53926 
L 324.530835 201.573002 
L 324.67354 200.34461 
L 324.887598 195.190259 
L 325.957888 159.723197 
L 326.100593 159.240649 
L 326.243298 159.756807 
L 326.457356 162.554158 
L 326.81412 172.093529 
L 327.242236 185.979069 
L 327.313588 185.889614 
L 327.384941 185.490367 
L 327.884409 169.246422 
L 328.16982 164.884857 
L 328.312525 164.371557 
L 328.455231 165.034645 
L 328.669288 168.052933 
L 329.168757 180.170819 
L 329.454168 184.953023 
L 329.52552 185.248166 
L 329.596873 185.090824 
L 329.739578 183.345806 
L 330.024989 174.781584 
L 330.809868 147.380347 
L 331.023926 145.340358 
L 331.095278 145.315045 
L 331.166631 145.489892 
L 331.309336 146.789039 
L 331.594747 152.766659 
L 332.022863 168.183033 
L 332.094216 171.295077 
L 332.165568 171.035794 
L 332.308273 170.909539 
L 332.522331 162.959003 
L 332.950447 149.398957 
L 333.235858 145.68349 
L 333.307211 145.535478 
L 333.449916 146.095149 
L 333.663974 148.952222 
L 334.020737 157.987834 
L 334.448853 167.964202 
L 334.591558 168.673124 
L 334.734263 167.460536 
L 334.948321 162.244749 
L 335.804553 135.462584 
L 335.947258 134.561358 
L 336.018611 134.641918 
L 336.161316 135.794637 
L 336.446727 142.07685 
L 336.874843 158.755036 
L 337.160253 168.382155 
L 337.231606 168.689468 
L 337.302959 168.265271 
L 337.87378 146.805719 
L 338.159191 141.792923 
L 338.301896 141.146961 
L 338.444601 141.742742 
L 338.658659 144.964057 
L 339.015422 155.017632 
L 339.443538 166.53925 
L 339.586244 167.700604 
L 339.657596 167.536871 
L 339.800301 165.754464 
L 340.085712 157.421361 
L 340.727886 136.546972 
L 340.941944 134.40936 
L 341.013296 134.408114 
L 341.441412 141.796048 
L 341.798176 154.456969 
L 342.226291 173.590174 
L 342.939818 143.679579 
L 343.225229 139.079759 
L 343.296581 138.984842 
L 343.367934 139.159949 
L 343.510639 140.498304 
L 343.79605 146.563374 
L 344.438224 161.576143 
L 344.509576 161.887157 
L 344.580929 161.655613 
L 344.723634 159.749154 
L 345.009045 151.140264 
L 345.793924 122.786073 
L 346.007982 120.15704 
L 346.079334 119.960562 
L 346.150687 120.086388 
L 346.293392 121.009707 
L 346.50745 124.803827 
L 346.864214 136.555206 
L 347.292329 155.17946 
L 348.005856 119.074854 
L 348.291266 112.710218 
L 348.505324 111.645881 
L 348.64803 112.399719 
L 348.862088 114.431339 
L 348.93344 114.162796 
L 349.432909 94.627095 
L 349.932377 64.939236 
L 350.645904 22.901847 
L 350.931314 15.008178 
L 351.145372 13.440941 
L 351.216725 13.696677 
L 351.35943 15.49702 
L 351.644841 23.82036 
L 352.072957 46.065677 
L 352.287015 54.811224 
L 352.704343 -1 
L 352.704343 -1 
" clip-path="url(#p7109abde4b)" style="fill: none; stroke: #2ca02c; stroke-width: 1.5; stroke-linecap: square"/>
   </g>
   <g id="patch_3">
    <path d="M 23.74375 279.010828 
L 23.74375 12.898828 
" style="fill: none; stroke: #000000; stroke-width: 0.8; stroke-linejoin: miter; stroke-linecap: square"/>
   </g>
   <g id="patch_4">
    <path d="M 380.86375 279.010828 
L 380.86375 12.898828 
" style="fill: none; stroke: #000000; stroke-width: 0.8; stroke-linejoin: miter; stroke-linecap: square"/>
   </g>
   <g id="patch_5">
    <path d="M 23.74375 279.010828 
L 380.86375 279.010828 
" style="fill: none; stroke: #000000; stroke-width: 0.8; stroke-linejoin: miter; stroke-linecap: square"/>
   </g>
   <g id="patch_6">
    <path d="M 23.74375 12.898828 
L 380.86375 12.898828 
" style="fill: none; stroke: #000000; stroke-width: 0.8; stroke-linejoin: miter; stroke-linecap: square"/>
   </g>
   <g id="legend_1">
    <g id="patch_7">
     <path d="M 30.74375 274.010828 
L 285.023438 274.010828 
Q 287.023438 274.010828 287.023438 272.010828 
L 287.023438 258.332703 
Q 287.023438 256.332703 285.023438 256.332703 
L 30.74375 256.332703 
Q 28.74375 256.332703 28.74375 258.332703 
L 28.74375 272.010828 
Q 28.74375 274.010828 30.74375 274.010828 
z
" style="fill: #ffffff; opacity: 0.8; stroke: #cccccc; stroke-linejoin: miter"/>
    </g>
    <g id="line2d_26">
     <path d="M 32.74375 264.431141 
L 42.74375 264.431141 
L 52.74375 264.431141 
" style="fill: none; stroke: #1f77b4; stroke-width: 1.5; stroke-linecap: square"/>
    </g>
    <g id="text_13">
     <!-- Individual -->
     <g transform="translate(60.74375 267.931141)scale(0.1 -0.1)">
      <defs>
       <path id="DejaVuSans-49" d="M 628 4666 
L 1259 4666 
L 1259 0 
L 628 0 
L 628 4666 
z
" transform="scale(0.015625)"/>
       <path id="DejaVuSans-6e" d="M 3513 2113 
L 3513 0 
L 2938 0 
L 2938 2094 
Q 2938 2591 2744 2837 
Q 2550 3084 2163 3084 
Q 1697 3084 1428 2787 
Q 1159 2491 1159 1978 
L 1159 0 
L 581 0 
L 581 3500 
L 1159 3500 
L 1159 2956 
Q 1366 3272 1645 3428 
Q 1925 3584 2291 3584 
Q 2894 3584 3203 3211 
Q 3513 2838 3513 2113 
z
" transform="scale(0.015625)"/>
       <path id="DejaVuSans-64" d="M 2906 2969 
L 2906 4863 
L 3481 4863 
L 3481 0 
L 2906 0 
L 2906 525 
Q 2725 213 2448 61 
Q 2172 -91 1784 -91 
Q 1150 -91 751 415 
Q 353 922 353 1747 
Q 353 2572 751 3078 
Q 1150 3584 1784 3584 
Q 2172 3584 2448 3432 
Q 2725 3281 2906 2969 
z
M 947 1747 
Q 947 1113 1208 752 
Q 1469 391 1925 391 
Q 2381 391 2643 752 
Q 2906 1113 2906 1747 
Q 2906 2381 2643 2742 
Q 2381 3103 1925 3103 
Q 1469 3103 1208 2742 
Q 947 2381 947 1747 
z
" transform="scale(0.015625)"/>
       <path id="DejaVuSans-69" d="M 603 3500 
L 1178 3500 
L 1178 0 
L 603 0 
L 603 3500 
z
M 603 4863 
L 1178 4863 
L 1178 4134 
L 603 4134 
L 603 4863 
z
" transform="scale(0.015625)"/>
       <path id="DejaVuSans-76" d="M 191 3500 
L 800 3500 
L 1894 563 
L 2988 3500 
L 3597 3500 
L 2284 0 
L 1503 0 
L 191 3500 
z
" transform="scale(0.015625)"/>
       <path id="DejaVuSans-75" d="M 544 1381 
L 544 3500 
L 1119 3500 
L 1119 1403 
Q 1119 906 1312 657 
Q 1506 409 1894 409 
Q 2359 409 2629 706 
Q 2900 1003 2900 1516 
L 2900 3500 
L 3475 3500 
L 3475 0 
L 2900 0 
L 2900 538 
Q 2691 219 2414 64 
Q 2138 -91 1772 -91 
Q 1169 -91 856 284 
Q 544 659 544 1381 
z
M 1991 3584 
L 1991 3584 
z
" transform="scale(0.015625)"/>
       <path id="DejaVuSans-6c" d="M 603 4863 
L 1178 4863 
L 1178 0 
L 603 0 
L 603 4863 
z
" transform="scale(0.015625)"/>
      </defs>
      <use xlink:href="#DejaVuSans-49"/>
      <use xlink:href="#DejaVuSans-6e" x="29.492188"/>
      <use xlink:href="#DejaVuSans-64" x="92.871094"/>
      <use xlink:href="#DejaVuSans-69" x="156.347656"/>
      <use xlink:href="#DejaVuSans-76" x="184.130859"/>
      <use xlink:href="#DejaVuSans-69" x="243.310547"/>
      <use xlink:href="#DejaVuSans-64" x="271.09375"/>
      <use xlink:href="#DejaVuSans-75" x="334.570312"/>
      <use xlink:href="#DejaVuSans-61" x="397.949219"/>
      <use xlink:href="#DejaVuSans-6c" x="459.228516"/>
     </g>
    </g>
    <g id="line2d_27">
     <path d="M 129.446875 264.431141 
L 139.446875 264.431141 
L 149.446875 264.431141 
" style="fill: none; stroke: #ff7f0e; stroke-width: 1.5; stroke-linecap: square"/>
    </g>
    <g id="text_14">
     <!-- Neighbor -->
     <g transform="translate(157.446875 267.931141)scale(0.1 -0.1)">
      <defs>
       <path id="DejaVuSans-4e" d="M 628 4666 
L 1478 4666 
L 3547 763 
L 3547 4666 
L 4159 4666 
L 4159 0 
L 3309 0 
L 1241 3903 
L 1241 0 
L 628 0 
L 628 4666 
z
" transform="scale(0.015625)"/>
       <path id="DejaVuSans-65" d="M 3597 1894 
L 3597 1613 
L 953 1613 
Q 991 1019 1311 708 
Q 1631 397 2203 397 
Q 2534 397 2845 478 
Q 3156 559 3463 722 
L 3463 178 
Q 3153 47 2828 -22 
Q 2503 -91 2169 -91 
Q 1331 -91 842 396 
Q 353 884 353 1716 
Q 353 2575 817 3079 
Q 1281 3584 2069 3584 
Q 2775 3584 3186 3129 
Q 3597 2675 3597 1894 
z
M 3022 2063 
Q 3016 2534 2758 2815 
Q 2500 3097 2075 3097 
Q 1594 3097 1305 2825 
Q 1016 2553 972 2059 
L 3022 2063 
z
" transform="scale(0.015625)"/>
       <path id="DejaVuSans-67" d="M 2906 1791 
Q 2906 2416 2648 2759 
Q 2391 3103 1925 3103 
Q 1463 3103 1205 2759 
Q 947 2416 947 1791 
Q 947 1169 1205 825 
Q 1463 481 1925 481 
Q 2391 481 2648 825 
Q 2906 1169 2906 1791 
z
M 3481 434 
Q 3481 -459 3084 -895 
Q 2688 -1331 1869 -1331 
Q 1566 -1331 1297 -1286 
Q 1028 -1241 775 -1147 
L 775 -588 
Q 1028 -725 1275 -790 
Q 1522 -856 1778 -856 
Q 2344 -856 2625 -561 
Q 2906 -266 2906 331 
L 2906 616 
Q 2728 306 2450 153 
Q 2172 0 1784 0 
Q 1141 0 747 490 
Q 353 981 353 1791 
Q 353 2603 747 3093 
Q 1141 3584 1784 3584 
Q 2172 3584 2450 3431 
Q 2728 3278 2906 2969 
L 2906 3500 
L 3481 3500 
L 3481 434 
z
" transform="scale(0.015625)"/>
       <path id="DejaVuSans-68" d="M 3513 2113 
L 3513 0 
L 2938 0 
L 2938 2094 
Q 2938 2591 2744 2837 
Q 2550 3084 2163 3084 
Q 1697 3084 1428 2787 
Q 1159 2491 1159 1978 
L 1159 0 
L 581 0 
L 581 4863 
L 1159 4863 
L 1159 2956 
Q 1366 3272 1645 3428 
Q 1925 3584 2291 3584 
Q 2894 3584 3203 3211 
Q 3513 2838 3513 2113 
z
" transform="scale(0.015625)"/>
       <path id="DejaVuSans-62" d="M 3116 1747 
Q 3116 2381 2855 2742 
Q 2594 3103 2138 3103 
Q 1681 3103 1420 2742 
Q 1159 2381 1159 1747 
Q 1159 1113 1420 752 
Q 1681 391 2138 391 
Q 2594 391 2855 752 
Q 3116 1113 3116 1747 
z
M 1159 2969 
Q 1341 3281 1617 3432 
Q 1894 3584 2278 3584 
Q 2916 3584 3314 3078 
Q 3713 2572 3713 1747 
Q 3713 922 3314 415 
Q 2916 -91 2278 -91 
Q 1894 -91 1617 61 
Q 1341 213 1159 525 
L 1159 0 
L 581 0 
L 581 4863 
L 1159 4863 
L 1159 2969 
z
" transform="scale(0.015625)"/>
       <path id="DejaVuSans-6f" d="M 1959 3097 
Q 1497 3097 1228 2736 
Q 959 2375 959 1747 
Q 959 1119 1226 758 
Q 1494 397 1959 397 
Q 2419 397 2687 759 
Q 2956 1122 2956 1747 
Q 2956 2369 2687 2733 
Q 2419 3097 1959 3097 
z
M 1959 3584 
Q 2709 3584 3137 3096 
Q 3566 2609 3566 1747 
Q 3566 888 3137 398 
Q 2709 -91 1959 -91 
Q 1206 -91 779 398 
Q 353 888 353 1747 
Q 353 2609 779 3096 
Q 1206 3584 1959 3584 
z
" transform="scale(0.015625)"/>
       <path id="DejaVuSans-72" d="M 2631 2963 
Q 2534 3019 2420 3045 
Q 2306 3072 2169 3072 
Q 1681 3072 1420 2755 
Q 1159 2438 1159 1844 
L 1159 0 
L 581 0 
L 581 3500 
L 1159 3500 
L 1159 2956 
Q 1341 3275 1631 3429 
Q 1922 3584 2338 3584 
Q 2397 3584 2469 3576 
Q 2541 3569 2628 3553 
L 2631 2963 
z
" transform="scale(0.015625)"/>
      </defs>
      <use xlink:href="#DejaVuSans-4e"/>
      <use xlink:href="#DejaVuSans-65" x="74.804688"/>
      <use xlink:href="#DejaVuSans-69" x="136.328125"/>
      <use xlink:href="#DejaVuSans-67" x="164.111328"/>
      <use xlink:href="#DejaVuSans-68" x="227.587891"/>
      <use xlink:href="#DejaVuSans-62" x="290.966797"/>
      <use xlink:href="#DejaVuSans-6f" x="354.443359"/>
      <use xlink:href="#DejaVuSans-72" x="415.625"/>
     </g>
    </g>
    <g id="line2d_28">
     <path d="M 223.123437 264.431141 
L 233.123437 264.431141 
L 243.123437 264.431141 
" style="fill: none; stroke: #2ca02c; stroke-width: 1.5; stroke-linecap: square"/>
    </g>
    <g id="text_15">
     <!-- Global -->
     <g transform="translate(251.123437 267.931141)scale(0.1 -0.1)">
      <defs>
       <path id="DejaVuSans-47" d="M 3809 666 
L 3809 1919 
L 2778 1919 
L 2778 2438 
L 4434 2438 
L 4434 434 
Q 4069 175 3628 42 
Q 3188 -91 2688 -91 
Q 1594 -91 976 548 
Q 359 1188 359 2328 
Q 359 3472 976 4111 
Q 1594 4750 2688 4750 
Q 3144 4750 3555 4637 
Q 3966 4525 4313 4306 
L 4313 3634 
Q 3963 3931 3569 4081 
Q 3175 4231 2741 4231 
Q 1884 4231 1454 3753 
Q 1025 3275 1025 2328 
Q 1025 1384 1454 906 
Q 1884 428 2741 428 
Q 3075 428 3337 486 
Q 3600 544 3809 666 
z
" transform="scale(0.015625)"/>
      </defs>
      <use xlink:href="#DejaVuSans-47"/>
      <use xlink:href="#DejaVuSans-6c" x="77.490234"/>
      <use xlink:href="#DejaVuSans-6f" x="105.273438"/>
      <use xlink:href="#DejaVuSans-62" x="166.455078"/>
      <use xlink:href="#DejaVuSans-61" x="229.931641"/>
      <use xlink:href="#DejaVuSans-6c" x="291.210938"/>
     </g>
    </g>
   </g>
  </g>
 </g>
 <defs>
  <clipPath id="p7109abde4b">
   <rect x="23.74375" y="12.898828" width="357.12" height="266.112"/>
  </clipPath>
 </defs>
</svg>
