<?xml version="1.0" encoding="utf-8" standalone="no"?>
<!DOCTYPE svg PUBLIC "-//W3C//DTD SVG 1.1//EN"
  "http://www.w3.org/Graphics/SVG/1.1/DTD/svg11.dtd">
<svg xmlns:xlink="http://www.w3.org/1999/xlink" width="388.06375pt" height="331.084266pt" viewBox="0 0 388.06375 331.084266" xmlns="http://www.w3.org/2000/svg" version="1.1">
 <defs>
  <style type="text/css">*{stroke-linejoin: round; stroke-linecap: butt}</style>
 </defs>
 <g id="figure_1">
  <g id="patch_1">
   <path d="M 0 331.084266 
L 388.06375 331.084266 
L 388.06375 0 
L 0 0 
L 0 331.084266 
z
" style="fill: none"/>
  </g>
  <g id="axes_1">
   <g id="patch_2">
    <path d="M 23.74375 279.010828 
L 380.86375 279.010828 
L 380.86375 12.898828 
L 23.74375 12.898828 
L 23.74375 279.010828 
z
" style="fill: none"/>
   </g>
   <g id="matplotlib.axis_1">
    <g id="xtick_1">
     <g id="line2d_1">
      <path d="M 55.67406 279.010828 
L 55.67406 12.898828 
" clip-path="url(#p7109abde4b)" style="fill: none; stroke: #b0b0b0; stroke-width: 0.8; stroke-linecap: square"/>
     </g>
     <g id="line2d_2">
      <defs>
       <path id="md39032bed2" d="M 0 0 
L 0 3.5 
" style="stroke: #000000; stroke-width: 0.8"/>
      </defs>
      <g>
       <use xlink:href="#md39032bed2" x="55.67406" y="279.010828" style="stroke: #000000; stroke-width: 0.8"/>
      </g>
     </g>
     <g id="text_1">
      <!-- −3000 -->
      <g transform="translate(30.301794 297.408484)scale(0.15 -0.15)">
       <defs>
        <path id="DejaVuSans-2212" d="M 678 2272 
L 4684 2272 
L 4684 1741 
L 678 1741 
L 678 2272 
z
" transform="scale(0.015625)"/>
        <path id="DejaVuSans-33" d="M 2597 2516 
Q 3050 2419 3304 2112 
Q 3559 1806 3559 1356 
Q 3559 666 3084 287 
Q 2609 -91 1734 -91 
Q 1441 -91 1130 -33 
Q 819 25 488 141 
L 488 750 
Q 750 597 1062 519 
Q 1375 441 1716 441 
Q 2309 441 2620 675 
Q 2931 909 2931 1356 
Q 2931 1769 2642 2001 
Q 2353 2234 1838 2234 
L 1294 2234 
L 1294 2753 
L 1863 2753 
Q 2328 2753 2575 2939 
Q 2822 3125 2822 3475 
Q 2822 3834 2567 4026 
Q 2313 4219 1838 4219 
Q 1578 4219 1281 4162 
Q 984 4106 628 3988 
L 628 4550 
Q 988 4650 1302 4700 
Q 1616 4750 1894 4750 
Q 2613 4750 3031 4423 
Q 3450 4097 3450 3541 
Q 3450 3153 3228 2886 
Q 3006 2619 2597 2516 
z
" transform="scale(0.015625)"/>
        <path id="DejaVuSans-30" d="M 2034 4250 
Q 1547 4250 1301 3770 
Q 1056 3291 1056 2328 
Q 1056 1369 1301 889 
Q 1547 409 2034 409 
Q 2525 409 2770 889 
Q 3016 1369 3016 2328 
Q 3016 3291 2770 3770 
Q 2525 4250 2034 4250 
z
M 2034 4750 
Q 2819 4750 3233 4129 
Q 3647 3509 3647 2328 
Q 3647 1150 3233 529 
Q 2819 -91 2034 -91 
Q 1250 -91 836 529 
Q 422 1150 422 2328 
Q 422 3509 836 4129 
Q 1250 4750 2034 4750 
z
" transform="scale(0.015625)"/>
       </defs>
       <use xlink:href="#DejaVuSans-2212"/>
       <use xlink:href="#DejaVuSans-33" x="83.789062"/>
       <use xlink:href="#DejaVuSans-30" x="147.412109"/>
       <use xlink:href="#DejaVuSans-30" x="211.035156"/>
       <use xlink:href="#DejaVuSans-30" x="274.658203"/>
      </g>
     </g>
    </g>
    <g id="xtick_2">
     <g id="line2d_3">
      <path d="M 127.026707 279.010828 
L 127.026707 12.898828 
" clip-path="url(#p7109abde4b)" style="fill: none; stroke: #b0b0b0; stroke-width: 0.8; stroke-linecap: square"/>
     </g>
     <g id="line2d_4">
      <g>
       <use xlink:href="#md39032bed2" x="127.026707" y="279.010828" style="stroke: #000000; stroke-width: 0.8"/>
      </g>
     </g>
     <g id="text_2">
      <!-- −2000 -->
      <g transform="translate(101.654441 297.408484)scale(0.15 -0.15)">
       <defs>
        <path id="DejaVuSans-32" d="M 1228 531 
L 3431 531 
L 3431 0 
L 469 0 
L 469 531 
Q 828 903 1448 1529 
Q 2069 2156 2228 2338 
Q 2531 2678 2651 2914 
Q 2772 3150 2772 3378 
Q 2772 3750 2511 3984 
Q 2250 4219 1831 4219 
Q 1534 4219 1204 4116 
Q 875 4013 500 3803 
L 500 4441 
Q 881 4594 1212 4672 
Q 1544 4750 1819 4750 
Q 2544 4750 2975 4387 
Q 3406 4025 3406 3419 
Q 3406 3131 3298 2873 
Q 3191 2616 2906 2266 
Q 2828 2175 2409 1742 
Q 1991 1309 1228 531 
z
" transform="scale(0.015625)"/>
       </defs>
       <use xlink:href="#DejaVuSans-2212"/>
       <use xlink:href="#DejaVuSans-32" x="83.789062"/>
       <use xlink:href="#DejaVuSans-30" x="147.412109"/>
       <use xlink:href="#DejaVuSans-30" x="211.035156"/>
       <use xlink:href="#DejaVuSans-30" x="274.658203"/>
      </g>
     </g>
    </g>
    <g id="xtick_3">
     <g id="line2d_5">
      <path d="M 198.379354 279.010828 
L 198.379354 12.898828 
" clip-path="url(#p7109abde4b)" style="fill: none; stroke: #b0b0b0; stroke-width: 0.8; stroke-linecap: square"/>
     </g>
     <g id="line2d_6">
      <g>
       <use xlink:href="#md39032bed2" x="198.379354" y="279.010828" style="stroke: #000000; stroke-width: 0.8"/>
      </g>
     </g>
     <g id="text_3">
      <!-- −1000 -->
      <g transform="translate(173.007089 297.408484)scale(0.15 -0.15)">
       <defs>
        <path id="DejaVuSans-31" d="M 794 531 
L 1825 531 
L 1825 4091 
L 703 3866 
L 703 4441 
L 1819 4666 
L 2450 4666 
L 2450 531 
L 3481 531 
L 3481 0 
L 794 0 
L 794 531 
z
" transform="scale(0.015625)"/>
       </defs>
       <use xlink:href="#DejaVuSans-2212"/>
       <use xlink:href="#DejaVuSans-31" x="83.789062"/>
       <use xlink:href="#DejaVuSans-30" x="147.412109"/>
       <use xlink:href="#DejaVuSans-30" x="211.035156"/>
       <use xlink:href="#DejaVuSans-30" x="274.658203"/>
      </g>
     </g>
    </g>
    <g id="xtick_4">
     <g id="line2d_7">
      <path d="M 269.732002 279.010828 
L 269.732002 12.898828 
" clip-path="url(#p7109abde4b)" style="fill: none; stroke: #b0b0b0; stroke-width: 0.8; stroke-linecap: square"/>
     </g>
     <g id="line2d_8">
      <g>
       <use xlink:href="#md39032bed2" x="269.732002" y="279.010828" style="stroke: #000000; stroke-width: 0.8"/>
      </g>
     </g>
     <g id="text_4">
      <!-- 0 -->
      <g transform="translate(264.960127 297.408484)scale(0.15 -0.15)">
       <use xlink:href="#DejaVuSans-30"/>
      </g>
     </g>
    </g>
    <g id="xtick_5">
     <g id="line2d_9">
      <path d="M 341.084649 279.010828 
L 341.084649 12.898828 
" clip-path="url(#p7109abde4b)" style="fill: none; stroke: #b0b0b0; stroke-width: 0.8; stroke-linecap: square"/>
     </g>
     <g id="line2d_10">
      <g>
       <use xlink:href="#md39032bed2" x="341.084649" y="279.010828" style="stroke: #000000; stroke-width: 0.8"/>
      </g>
     </g>
     <g id="text_5">
      <!-- 1000 -->
      <g transform="translate(321.997149 297.408484)scale(0.15 -0.15)">
       <use xlink:href="#DejaVuSans-31"/>
       <use xlink:href="#DejaVuSans-30" x="63.623047"/>
       <use xlink:href="#DejaVuSans-30" x="127.246094"/>
       <use xlink:href="#DejaVuSans-30" x="190.869141"/>
      </g>
     </g>
    </g>
    <g id="text_6">
     <!-- Max (V) -->
     <g transform="translate(163.806875 319.724891)scale(0.2 -0.2)">
      <defs>
       <path id="DejaVuSans-4d" d="M 628 4666 
L 1569 4666 
L 2759 1491 
L 3956 4666 
L 4897 4666 
L 4897 0 
L 4281 0 
L 4281 4097 
L 3078 897 
L 2444 897 
L 1241 4097 
L 1241 0 
L 628 0 
L 628 4666 
z
" transform="scale(0.015625)"/>
       <path id="DejaVuSans-61" d="M 2194 1759 
Q 1497 1759 1228 1600 
Q 959 1441 959 1056 
Q 959 750 1161 570 
Q 1363 391 1709 391 
Q 2188 391 2477 730 
Q 2766 1069 2766 1631 
L 2766 1759 
L 2194 1759 
z
M 3341 1997 
L 3341 0 
L 2766 0 
L 2766 531 
Q 2569 213 2275 61 
Q 1981 -91 1556 -91 
Q 1019 -91 701 211 
Q 384 513 384 1019 
Q 384 1609 779 1909 
Q 1175 2209 1959 2209 
L 2766 2209 
L 2766 2266 
Q 2766 2663 2505 2880 
Q 2244 3097 1772 3097 
Q 1472 3097 1187 3025 
Q 903 2953 641 2809 
L 641 3341 
Q 956 3463 1253 3523 
Q 1550 3584 1831 3584 
Q 2591 3584 2966 3190 
Q 3341 2797 3341 1997 
z
" transform="scale(0.015625)"/>
       <path id="DejaVuSans-78" d="M 3513 3500 
L 2247 1797 
L 3578 0 
L 2900 0 
L 1881 1375 
L 863 0 
L 184 0 
L 1544 1831 
L 300 3500 
L 978 3500 
L 1906 2253 
L 2834 3500 
L 3513 3500 
z
" transform="scale(0.015625)"/>
       <path id="DejaVuSans-20" transform="scale(0.015625)"/>
       <path id="DejaVuSans-28" d="M 1984 4856 
Q 1566 4138 1362 3434 
Q 1159 2731 1159 2009 
Q 1159 1288 1364 580 
Q 1569 -128 1984 -844 
L 1484 -844 
Q 1016 -109 783 600 
Q 550 1309 550 2009 
Q 550 2706 781 3412 
Q 1013 4119 1484 4856 
L 1984 4856 
z
" transform="scale(0.015625)"/>
       <path id="DejaVuSans-56" d="M 1831 0 
L 50 4666 
L 709 4666 
L 2188 738 
L 3669 4666 
L 4325 4666 
L 2547 0 
L 1831 0 
z
" transform="scale(0.015625)"/>
       <path id="DejaVuSans-29" d="M 513 4856 
L 1013 4856 
Q 1481 4119 1714 3412 
Q 1947 2706 1947 2009 
Q 1947 1309 1714 600 
Q 1481 -109 1013 -844 
L 513 -844 
Q 928 -128 1133 580 
Q 1338 1288 1338 2009 
Q 1338 2731 1133 3434 
Q 928 4138 513 4856 
z
" transform="scale(0.015625)"/>
      </defs>
      <use xlink:href="#DejaVuSans-4d"/>
      <use xlink:href="#DejaVuSans-61" x="86.279297"/>
      <use xlink:href="#DejaVuSans-78" x="147.558594"/>
      <use xlink:href="#DejaVuSans-20" x="206.738281"/>
      <use xlink:href="#DejaVuSans-28" x="238.525391"/>
      <use xlink:href="#DejaVuSans-56" x="277.539062"/>
      <use xlink:href="#DejaVuSans-29" x="345.947266"/>
     </g>
    </g>
   </g>
   <g id="matplotlib.axis_2">
    <g id="ytick_1">
     <g id="line2d_11">
      <path d="M 23.74375 279.010828 
L 380.86375 279.010828 
" clip-path="url(#p7109abde4b)" style="fill: none; stroke: #b0b0b0; stroke-width: 0.8; stroke-linecap: square"/>
     </g>
     <g id="line2d_12">
      <defs>
       <path id="m6f3f5b6aff" d="M 0 0 
L -3.5 0 
" style="stroke: #000000; stroke-width: 0.8"/>
      </defs>
      <g>
       <use xlink:href="#m6f3f5b6aff" x="23.74375" y="279.010828" style="stroke: #000000; stroke-width: 0.8"/>
      </g>
     </g>
     <g id="text_7">
      <!-- 4 -->
      <g transform="translate(7.2 284.709656)scale(0.15 -0.15)">
       <defs>
        <path id="DejaVuSans-34" d="M 2419 4116 
L 825 1625 
L 2419 1625 
L 2419 4116 
z
M 2253 4666 
L 3047 4666 
L 3047 1625 
L 3713 1625 
L 3713 1100 
L 3047 1100 
L 3047 0 
L 2419 0 
L 2419 1100 
L 313 1100 
L 313 1709 
L 2253 4666 
z
" transform="scale(0.015625)"/>
       </defs>
       <use xlink:href="#DejaVuSans-34"/>
      </g>
     </g>
    </g>
    <g id="ytick_2">
     <g id="line2d_13">
      <path d="M 23.74375 225.788428 
L 380.86375 225.788428 
" clip-path="url(#p7109abde4b)" style="fill: none; stroke: #b0b0b0; stroke-width: 0.8; stroke-linecap: square"/>
     </g>
     <g id="line2d_14">
      <g>
       <use xlink:href="#m6f3f5b6aff" x="23.74375" y="225.788428" style="stroke: #000000; stroke-width: 0.8"/>
      </g>
     </g>
     <g id="text_8">
      <!-- 5 -->
      <g transform="translate(7.2 231.487256)scale(0.15 -0.15)">
       <defs>
        <path id="DejaVuSans-35" d="M 691 4666 
L 3169 4666 
L 3169 4134 
L 1269 4134 
L 1269 2991 
Q 1406 3038 1543 3061 
Q 1681 3084 1819 3084 
Q 2600 3084 3056 2656 
Q 3513 2228 3513 1497 
Q 3513 744 3044 326 
Q 2575 -91 1722 -91 
Q 1428 -91 1123 -41 
Q 819 9 494 109 
L 494 744 
Q 775 591 1075 516 
Q 1375 441 1709 441 
Q 2250 441 2565 725 
Q 2881 1009 2881 1497 
Q 2881 1984 2565 2268 
Q 2250 2553 1709 2553 
Q 1456 2553 1204 2497 
Q 953 2441 691 2322 
L 691 4666 
z
" transform="scale(0.015625)"/>
       </defs>
       <use xlink:href="#DejaVuSans-35"/>
      </g>
     </g>
    </g>
    <g id="ytick_3">
     <g id="line2d_15">
      <path d="M 23.74375 172.566028 
L 380.86375 172.566028 
" clip-path="url(#p7109abde4b)" style="fill: none; stroke: #b0b0b0; stroke-width: 0.8; stroke-linecap: square"/>
     </g>
     <g id="line2d_16">
      <g>
       <use xlink:href="#m6f3f5b6aff" x="23.74375" y="172.566028" style="stroke: #000000; stroke-width: 0.8"/>
      </g>
     </g>
     <g id="text_9">
      <!-- 6 -->
      <g transform="translate(7.2 178.264856)scale(0.15 -0.15)">
       <defs>
        <path id="DejaVuSans-36" d="M 2113 2584 
Q 1688 2584 1439 2293 
Q 1191 2003 1191 1497 
Q 1191 994 1439 701 
Q 1688 409 2113 409 
Q 2538 409 2786 701 
Q 3034 994 3034 1497 
Q 3034 2003 2786 2293 
Q 2538 2584 2113 2584 
z
M 3366 4563 
L 3366 3988 
Q 3128 4100 2886 4159 
Q 2644 4219 2406 4219 
Q 1781 4219 1451 3797 
Q 1122 3375 1075 2522 
Q 1259 2794 1537 2939 
Q 1816 3084 2150 3084 
Q 2853 3084 3261 2657 
Q 3669 2231 3669 1497 
Q 3669 778 3244 343 
Q 2819 -91 2113 -91 
Q 1303 -91 875 529 
Q 447 1150 447 2328 
Q 447 3434 972 4092 
Q 1497 4750 2381 4750 
Q 2619 4750 2861 4703 
Q 3103 4656 3366 4563 
z
" transform="scale(0.015625)"/>
       </defs>
       <use xlink:href="#DejaVuSans-36"/>
      </g>
     </g>
    </g>
    <g id="ytick_4">
     <g id="line2d_17">
      <path d="M 23.74375 119.343628 
L 380.86375 119.343628 
" clip-path="url(#p7109abde4b)" style="fill: none; stroke: #b0b0b0; stroke-width: 0.8; stroke-linecap: square"/>
     </g>
     <g id="line2d_18">
      <g>
       <use xlink:href="#m6f3f5b6aff" x="23.74375" y="119.343628" style="stroke: #000000; stroke-width: 0.8"/>
      </g>
     </g>
     <g id="text_10">
      <!-- 7 -->
      <g transform="translate(7.2 125.042456)scale(0.15 -0.15)">
       <defs>
        <path id="DejaVuSans-37" d="M 525 4666 
L 3525 4666 
L 3525 4397 
L 1831 0 
L 1172 0 
L 2766 4134 
L 525 4134 
L 525 4666 
z
" transform="scale(0.015625)"/>
       </defs>
       <use xlink:href="#DejaVuSans-37"/>
      </g>
     </g>
    </g>
    <g id="ytick_5">
     <g id="line2d_19">
      <path d="M 23.74375 66.121228 
L 380.86375 66.121228 
" clip-path="url(#p7109abde4b)" style="fill: none; stroke: #b0b0b0; stroke-width: 0.8; stroke-linecap: square"/>
     </g>
     <g id="line2d_20">
      <g>
       <use xlink:href="#m6f3f5b6aff" x="23.74375" y="66.121228" style="stroke: #000000; stroke-width: 0.8"/>
      </g>
     </g>
     <g id="text_11">
      <!-- 8 -->
      <g transform="translate(7.2 71.820056)scale(0.15 -0.15)">
       <defs>
        <path id="DejaVuSans-38" d="M 2034 2216 
Q 1584 2216 1326 1975 
Q 1069 1734 1069 1313 
Q 1069 891 1326 650 
Q 1584 409 2034 409 
Q 2484 409 2743 651 
Q 3003 894 3003 1313 
Q 3003 1734 2745 1975 
Q 2488 2216 2034 2216 
z
M 1403 2484 
Q 997 2584 770 2862 
Q 544 3141 544 3541 
Q 544 4100 942 4425 
Q 1341 4750 2034 4750 
Q 2731 4750 3128 4425 
Q 3525 4100 3525 3541 
Q 3525 3141 3298 2862 
Q 3072 2584 2669 2484 
Q 3125 2378 3379 2068 
Q 3634 1759 3634 1313 
Q 3634 634 3220 271 
Q 2806 -91 2034 -91 
Q 1263 -91 848 271 
Q 434 634 434 1313 
Q 434 1759 690 2068 
Q 947 2378 1403 2484 
z
M 1172 3481 
Q 1172 3119 1398 2916 
Q 1625 2713 2034 2713 
Q 2441 2713 2670 2916 
Q 2900 3119 2900 3481 
Q 2900 3844 2670 4047 
Q 2441 4250 2034 4250 
Q 1625 4250 1398 4047 
Q 1172 3844 1172 3481 
z
" transform="scale(0.015625)"/>
       </defs>
       <use xlink:href="#DejaVuSans-38"/>
      </g>
     </g>
    </g>
    <g id="ytick_6">
     <g id="line2d_21">
      <path d="M 23.74375 12.898828 
L 380.86375 12.898828 
" clip-path="url(#p7109abde4b)" style="fill: none; stroke: #b0b0b0; stroke-width: 0.8; stroke-linecap: square"/>
     </g>
     <g id="line2d_22">
      <g>
       <use xlink:href="#m6f3f5b6aff" x="23.74375" y="12.898828" style="stroke: #000000; stroke-width: 0.8"/>
      </g>
     </g>
     <g id="text_12">
      <!-- 9 -->
      <g transform="translate(7.2 18.597656)scale(0.15 -0.15)">
       <defs>
        <path id="DejaVuSans-39" d="M 703 97 
L 703 672 
Q 941 559 1184 500 
Q 1428 441 1663 441 
Q 2288 441 2617 861 
Q 2947 1281 2994 2138 
Q 2813 1869 2534 1725 
Q 2256 1581 1919 1581 
Q 1219 1581 811 2004 
Q 403 2428 403 3163 
Q 403 3881 828 4315 
Q 1253 4750 1959 4750 
Q 2769 4750 3195 4129 
Q 3622 3509 3622 2328 
Q 3622 1225 3098 567 
Q 2575 -91 1691 -91 
Q 1453 -91 1209 -44 
Q 966 3 703 97 
z
M 1959 2075 
Q 2384 2075 2632 2365 
Q 2881 2656 2881 3163 
Q 2881 3666 2632 3958 
Q 2384 4250 1959 4250 
Q 1534 4250 1286 3958 
Q 1038 3666 1038 3163 
Q 1038 2656 1286 2365 
Q 1534 2075 1959 2075 
z
" transform="scale(0.015625)"/>
       </defs>
       <use xlink:href="#DejaVuSans-39"/>
      </g>
     </g>
    </g>
   </g>
   <g id="line2d_23">
    <path d="M 50.155565 -1 
L 50.536669 110.482353 
L 50.964785 173.980732 
L 51.321548 202.638966 
L 52.605896 153.87956 
L 53.390775 125.140301 
L 53.818891 116.10218 
L 54.032949 114.954877 
L 54.175654 115.830924 
L 54.389712 119.897364 
L 54.675123 130.418776 
L 55.245944 162.401857 
L 55.460002 172.363371 
L 56.530291 138.731981 
L 57.243818 121.712291 
L 57.386523 119.206419 
L 58.813576 43.571865 
L 58.956281 42.678546 
L 59.098987 44.206047 
L 59.313045 51.486069 
L 59.598455 70.406037 
L 60.097924 122.202682 
L 60.81145 184.621343 
L 61.453624 219.509626 
L 62.024445 242.760679 
L 62.381209 239.093116 
L 62.523914 235.084899 
L 63.950967 186.163961 
L 64.379083 177.594662 
L 64.593141 175.818813 
L 64.664493 175.670898 
L 64.735846 175.754827 
L 64.878551 176.618955 
L 65.092609 179.567927 
L 65.449372 188.005889 
L 66.234251 213.672569 
L 67.304541 251.274512 
L 67.375894 251.046919 
L 69.15971 192.880667 
L 69.587826 184.948204 
L 69.873237 183.10087 
L 69.944589 183.144299 
L 70.087294 183.845154 
L 70.301352 186.349481 
L 70.658116 193.693416 
L 71.300289 212.738917 
L 72.441932 252.296665 
L 72.513284 249.967062 
L 74.368453 188.334999 
L 74.796569 179.948787 
L 75.010627 178.27167 
L 75.08198 178.164122 
L 75.153332 178.290481 
L 75.296038 179.241489 
L 75.581448 183.747459 
L 76.009564 195.561837 
L 76.794443 225.306168 
L 77.436617 252.335308 
L 77.50797 251.499969 
L 79.505844 184.836359 
L 79.862607 178.36503 
L 80.076665 176.954629 
L 80.148018 176.959361 
L 80.290723 177.694426 
L 80.504781 180.531481 
L 80.861544 189.118918 
L 81.503718 211.922566 
L 82.502655 252.405898 
L 82.716713 241.91791 
L 84.500529 181.688992 
L 84.928645 173.703751 
L 85.142703 172.538261 
L 85.214056 172.635085 
L 85.356761 173.559906 
L 85.570819 176.864444 
L 85.927582 186.230213 
L 86.569756 209.960454 
L 87.49734 249.212662 
L 87.568693 247.47272 
L 89.281157 180.30584 
L 89.709272 170.055174 
L 89.994683 167.467363 
L 90.066036 167.497587 
L 90.208741 168.345752 
L 90.422799 171.467843 
L 90.779562 180.658418 
L 91.421736 204.359223 
L 92.492026 247.227944 
L 94.204489 179.316904 
L 94.632605 168.780425 
L 94.918016 165.843066 
L 94.989368 165.730222 
L 95.060721 165.871891 
L 95.203426 167.02094 
L 95.488837 172.18118 
L 95.916953 185.124517 
L 96.773185 219.403499 
L 97.415358 246.998814 
L 97.486711 245.300442 
L 99.127822 179.59292 
L 99.62729 167.27425 
L 99.912701 164.732993 
L 99.984054 164.723819 
L 100.126759 165.529375 
L 100.340817 168.67164 
L 100.69758 177.915898 
L 101.339754 201.706367 
L 102.410044 246.805924 
L 102.481396 244.193184 
L 104.122507 178.690252 
L 104.621976 166.673857 
L 104.907386 164.351732 
L 104.978739 164.397273 
L 105.121444 165.249089 
L 105.335502 168.51581 
L 105.692265 177.964586 
L 106.405792 204.851298 
L 107.404729 247.064322 
L 108.046903 220.214358 
L 109.188545 176.826751 
L 109.616661 166.992399 
L 109.902072 164.661584 
L 109.973424 164.704474 
L 110.11613 165.549499 
L 110.330188 168.814356 
L 110.686951 178.243708 
L 111.400477 205.101022 
L 112.399414 247.350806 
L 112.970236 223.619114 
L 114.111878 179.460658 
L 114.611346 167.418085 
L 114.896757 165.045918 
L 114.96811 165.075069 
L 115.110815 165.89054 
L 115.324873 169.049428 
L 115.681636 178.412257 
L 116.32381 202.271107 
L 117.3941 247.554949 
L 117.465452 245.158467 
L 119.106563 179.6566 
L 119.606032 167.610081 
L 119.891442 165.227583 
L 119.962795 165.252565 
L 120.1055 166.057823 
L 120.319558 169.142565 
L 120.676321 178.489133 
L 121.318495 202.336596 
L 122.388785 247.680876 
L 122.460138 245.237265 
L 124.101249 179.937675 
L 124.600717 167.960196 
L 124.886128 165.596044 
L 124.95748 165.62136 
L 125.100186 166.425082 
L 125.314244 169.493276 
L 125.671007 178.828626 
L 126.313181 202.658322 
L 127.38347 247.960166 
L 127.454823 245.441031 
L 129.095934 180.339663 
L 129.595402 168.484842 
L 129.880813 166.187646 
L 129.952166 166.22938 
L 130.094871 167.057919 
L 130.308929 170.123231 
L 130.665692 179.491863 
L 131.307866 203.326428 
L 132.378156 248.514577 
L 132.449508 245.848329 
L 134.019266 183.762505 
L 134.518735 171.172124 
L 134.804146 168.148034 
L 134.875498 167.982359 
L 134.946851 168.062039 
L 135.089556 168.950256 
L 135.303614 172.021419 
L 135.660377 181.315868 
L 136.373904 207.606299 
L 137.372841 249.345058 
L 137.444194 246.732148 
L 139.085304 181.934873 
L 139.584773 169.060648 
L 139.870184 165.836025 
L 139.941536 165.618521 
L 140.012889 165.64561 
L 140.155594 166.426404 
L 140.369652 169.304176 
L 140.726415 178.038626 
L 141.368589 201.271938 
L 142.438879 245.861697 
L 142.510232 245.523871 
L 144.650811 158.477352 
L 145.078927 149.150338 
L 145.292985 147.919032 
L 145.364337 148.061003 
L 145.507043 149.143533 
L 145.792453 154.175764 
L 146.220569 167.469212 
L 147.076801 203.718769 
L 147.790327 235.52811 
L 148.075738 223.759779 
L 149.21738 167.643293 
L 150.144965 122.470176 
L 150.430375 116.737069 
L 150.573081 116.075382 
L 150.644433 116.276802 
L 150.787139 117.667939 
L 151.072549 123.838934 
L 151.500665 139.228489 
L 152.42825 183.448165 
L 153.213129 221.311505 
L 154.06936 173.533214 
L 155.282355 102.17088 
L 155.567766 96.612608 
L 155.639119 96.304857 
L 155.710471 96.407274 
L 155.853177 97.755647 
L 156.138587 104.655406 
L 156.638056 124.83616 
L 157.494287 170.467692 
L 158.421872 219.900414 
L 158.493225 219.173392 
L 159.206751 176.629872 
L 160.348393 103.500049 
L 160.633804 97.347027 
L 160.705157 96.952482 
L 160.776509 96.984864 
L 160.919215 98.23508 
L 161.133272 102.666749 
L 161.490036 115.653264 
L 162.203562 150.155952 
L 163.559262 221.904383 
L 163.630615 221.591207 
L 164.486847 168.193938 
L 165.343079 107.686773 
L 165.628489 99.412934 
L 165.771195 98.249381 
L 165.842547 98.352678 
L 165.985252 99.795556 
L 166.270663 106.782905 
L 166.698779 124.547163 
L 167.911774 189.15544 
L 168.411243 215.230224 
L 169.552885 146.666995 
L 170.123706 111.765615 
L 170.409117 102.976391 
L 170.623175 101.291402 
L 170.76588 102.347739 
L 170.979938 106.702155 
L 171.336701 119.434335 
L 172.050228 155.28412 
L 172.977812 205.958764 
L 173.049165 205.731528 
L 174.333512 131.183172 
L 174.975686 99.303276 
L 175.261097 93.716084 
L 175.332449 93.365904 
L 175.403802 93.427979 
L 175.546507 94.814987 
L 175.831918 101.653904 
L 176.260034 118.978047 
L 177.187618 168.503656 
L 177.687087 196.913922 
L 179.827666 89.33649 
L 180.041724 87.373087 
L 180.113077 87.483676 
L 180.255782 88.818703 
L 180.541193 95.463968 
L 180.969308 112.591966 
L 181.896893 161.64069 
L 182.396361 187.528598 
L 184.394236 83.620506 
L 184.679646 79.495213 
L 184.750999 79.414391 
L 184.893704 80.42238 
L 185.107762 84.711931 
L 185.464525 97.823034 
L 186.178052 135.102435 
L 187.105636 187.733356 
L 187.890515 143.229917 
L 188.746747 95.163422 
L 189.174863 81.620673 
L 189.388921 79.358465 
L 189.460273 79.411062 
L 189.602979 80.776557 
L 189.817037 85.889001 
L 190.1738 101.050539 
L 191.24409 162.647303 
L 191.814911 194.452561 
L 191.957616 189.477697 
L 192.813848 145.306588 
L 193.741432 92.544957 
L 194.026843 86.51117 
L 194.169548 85.796377 
L 194.312253 86.821003 
L 194.526311 91.684404 
L 194.883075 107.410024 
L 196.024717 173.850598 
L 196.238775 194.028265 
L 196.524186 205.155631 
L 197.737181 151.530227 
L 198.950176 87.121991 
L 199.092881 88.583159 
L 199.306939 94.755161 
L 199.663702 114.695147 
L 201.090755 212.109629 
L 201.162108 211.54805 
L 201.875634 188.863988 
L 201.946987 158.486619 
L 202.018339 162.365158 
L 202.30375 174.965785 
L 204.087566 83.771909 
L 204.372977 77.941053 
L 204.515682 76.982445 
L 204.587035 77.02868 
L 204.72974 78.173832 
L 204.943798 82.373341 
L 205.300561 94.628666 
L 206.014088 128.483467 
L 206.156793 149.747426 
L 207.15573 197.10012 
L 208.582783 143.888315 
L 209.010899 134.24831 
L 209.224957 132.276914 
L 209.296309 132.131538 
L 209.367662 132.255449 
L 209.510367 133.3209 
L 209.724425 136.890039 
L 210.081189 147.109087 
L 211.080126 185.792858 
L 212.079063 224.787004 
L 213.506116 177.04014 
L 214.076937 163.348623 
L 214.362347 160.488587 
L 214.4337 160.327705 
L 214.505053 160.403992 
L 214.647758 161.275915 
L 215.004521 166.256245 
L 215.432637 176.1691 
L 216.288869 203.062792 
L 217.287806 237.113511 
L 219.856501 150.108845 
L 220.141912 147.370347 
L 220.213264 147.278888 
L 220.35597 147.796782 
L 220.570028 150.198045 
L 220.926791 157.657543 
L 221.568965 177.056973 
L 222.710607 217.284701 
L 222.78196 214.617256 
L 223.566839 172.704098 
L 224.351718 119.892025 
L 225.20795 60.30013 
L 225.49336 52.353599 
L 225.636066 51.186493 
L 225.778771 52.573524 
L 225.992829 57.400827 
L 226.27824 71.813416 
L 227.063119 111.340226 
L 228.133408 161.845597 
L 228.347466 165.225215 
L 228.418819 165.333338 
L 229.346403 136.200957 
L 229.631814 133.282832 
L 229.703167 133.536518 
L 229.988577 137.986499 
L 230.34534 147.942057 
L 231.272925 184.065441 
L 232.200509 218.310785 
L 232.77133 200.769774 
L 233.770267 170.267298 
L 234.269736 151.674611 
L 234.555147 147.912782 
L 234.626499 147.921732 
L 234.840557 149.588423 
L 235.125968 155.443525 
L 235.625436 172.228906 
L 236.981137 220.663464 
L 237.052489 221.539994 
L 237.195195 219.893117 
L 238.479542 191.194957 
L 238.6936 181.113178 
L 239.264421 169.243086 
L 239.478479 167.825598 
L 239.549832 167.688111 
L 239.621185 167.831936 
L 239.76389 168.904181 
L 239.977948 172.442394 
L 240.334711 182.72175 
L 242.047175 240.474317 
L 242.261233 244.989261 
L 242.47529 239.344132 
L 244.045049 195.103914 
L 244.473165 186.861513 
L 244.758575 184.725598 
L 244.829928 184.701403 
L 244.972633 185.259942 
L 245.186691 187.558228 
L 245.543454 194.573913 
L 245.97157 207.237489 
L 246.256981 216.178853 
L 246.399686 212.097502 
L 248.825676 126.624589 
L 248.897029 126.434766 
L 248.968381 126.532183 
L 249.111087 127.642339 
L 249.325145 131.673989 
L 249.681908 144.089599 
L 250.609492 189.245163 
L 250.894903 203.767928 
L 251.965193 243.711268 
L 252.036545 244.289549 
L 253.677656 194.331838 
L 254.177125 185.2031 
L 254.462535 182.625327 
L 254.605241 182.348213 
L 254.747946 182.786097 
L 254.962004 184.756354 
L 255.247414 190.594776 
L 255.889588 209.755388 
L 257.173936 251.270375 
L 257.245288 251.246534 
L 257.459346 245.484288 
L 259.100457 195.323792 
L 259.457221 190.051752 
L 259.671278 189.159976 
L 259.742631 189.220218 
L 259.885336 189.874061 
L 260.099394 192.11407 
L 260.456158 198.583557 
L 261.026979 214.340534 
L 262.239974 253.826497 
L 262.311326 251.415857 
L 264.237848 193.117661 
L 264.594611 188.582007 
L 264.808669 187.853205 
L 264.951374 188.278279 
L 265.165432 190.249306 
L 265.522196 197.820356 
L 266.235722 219.554764 
L 267.306012 251.050762 
L 267.591422 242.713793 
L 269.161181 194.122307 
L 269.517944 188.559893 
L 269.732002 187.382566 
L 269.803354 187.34985 
L 269.94606 187.82677 
L 270.160118 189.835233 
L 270.23147 190.820915 
L 270.445528 196.895066 
L 270.873644 207.778516 
L 271.943934 241.975375 
L 272.300697 252.468144 
L 274.155866 196.675053 
L 274.583982 190.08308 
L 274.79804 188.950235 
L 274.869392 188.944776 
L 275.012098 189.499876 
L 275.226156 191.85503 
L 275.582919 199.731406 
L 276.296445 221.920948 
L 277.295382 252.507244 
L 277.366735 251.654706 
L 279.293256 195.646237 
L 279.65002 191.721616 
L 279.792725 191.354681 
L 279.864078 191.444898 
L 280.006783 192.166766 
L 280.220841 194.710868 
L 280.648957 203.435979 
L 281.362483 224.733288 
L 282.290068 254.536595 
L 284.073884 200.673019 
L 284.573352 191.640072 
L 284.78741 190.518038 
L 284.858763 190.5258 
L 285.001468 191.119781 
L 285.215526 193.549949 
L 285.572289 201.396718 
L 286.357169 225.432343 
L 287.284753 253.007046 
L 287.427458 249.827239 
L 289.425332 189.948393 
L 289.63939 188.406335 
L 289.710743 188.286953 
L 289.782096 188.366 
L 289.924801 189.112691 
L 290.210212 192.669826 
L 290.566975 200.253354 
L 291.351854 223.699213 
L 292.279438 252.29428 
L 294.134607 195.620621 
L 294.562723 187.840805 
L 294.776781 186.578706 
L 294.848134 186.597465 
L 294.990839 187.227563 
L 295.204897 189.512707 
L 295.56166 196.925407 
L 295.989776 210.981639 
L 297.274124 251.103909 
L 297.345476 250.967705 
L 297.488182 247.535471 
L 298.415766 215.067533 
L 298.772529 201.531315 
L 299.34335 185.813863 
L 299.557408 183.231638 
L 299.700114 182.975703 
L 299.842819 183.576881 
L 300.056877 185.998924 
L 300.41364 193.332466 
L 301.055814 212.495621 
L 302.197456 251.843994 
L 302.268809 251.221167 
L 304.266683 192.133505 
L 304.623446 187.76534 
L 304.837504 186.986388 
L 304.908857 187.026041 
L 305.051562 187.511741 
L 305.26562 189.495916 
L 305.622383 196.036356 
L 306.121852 209.488157 
L 307.334847 249.45759 
L 307.4062 247.218507 
L 308.547842 205.964272 
L 309.332721 181.46706 
L 309.760837 173.878661 
L 309.974895 172.340163 
L 310.046248 172.20539 
L 310.1176 172.26142 
L 310.260305 172.926327 
L 310.474363 175.229567 
L 310.831127 182.137029 
L 311.330595 196.486114 
L 312.400885 235.390833 
L 312.472238 232.807003 
L 314.470112 163.82015 
L 314.898228 156.469256 
L 315.112285 155.424478 
L 315.183638 155.47934 
L 315.326343 156.191592 
L 315.540401 158.684548 
L 315.897165 166.03278 
L 316.396633 181.375217 
L 317.39557 221.475478 
L 317.466923 219.044778 
L 318.46586 174.763054 
L 319.322092 142.360437 
L 319.750208 132.973676 
L 319.964265 131.126036 
L 320.035618 130.976767 
L 320.106971 131.063406 
L 320.249676 131.930914 
L 320.463734 134.859444 
L 320.820497 143.343462 
L 321.391318 163.231071 
L 322.318903 206.337919 
L 322.390255 203.18293 
L 324.245424 125.844447 
L 324.67354 116.934236 
L 324.887598 115.234888 
L 324.958951 115.120718 
L 325.030303 115.237297 
L 325.173009 116.153796 
L 325.458419 120.554177 
L 325.886535 132.349719 
L 326.386004 152.311971 
L 327.242236 192.208501 
L 327.313588 191.175481 
L 329.026052 109.887899 
L 329.52552 97.409565 
L 329.810931 94.715704 
L 329.882283 94.634541 
L 330.024989 95.196066 
L 330.239047 97.78487 
L 330.59581 106.151652 
L 331.095278 123.953678 
L 331.880158 162.3901 
L 332.236921 179.413993 
L 333.949384 89.07822 
L 334.448853 74.716875 
L 334.734263 71.536739 
L 334.805616 71.43346 
L 334.948321 72.085192 
L 335.162379 75.162745 
L 335.519143 85.240065 
L 336.089964 110.417449 
L 336.589432 140.632185 
L 337.160253 175.184141 
L 337.231606 175.374358 
L 338.801364 89.743626 
L 339.300833 73.682154 
L 339.586244 69.040798 
L 339.728949 68.301233 
L 339.800301 68.352755 
L 339.943007 69.305148 
L 340.157065 72.789794 
L 340.513828 83.37378 
L 341.084649 108.962121 
L 341.798176 151.444975 
L 342.226291 175.322224 
L 343.867402 82.105908 
L 344.366871 66.095349 
L 344.652281 61.634858 
L 344.794987 60.93441 
L 344.866339 60.978146 
L 345.009045 61.842014 
L 345.223103 64.975359 
L 345.579866 74.366648 
L 346.150687 97.137714 
L 347.292329 156.893682 
L 349.076146 17.535732 
L 349.27029 -1 
M 351.459949 -1 
L 352.287015 53.102453 
L 352.635376 -1 
L 352.635376 -1 
" clip-path="url(#p7109abde4b)" style="fill: none; stroke: #1f77b4; stroke-width: 1.5; stroke-linecap: square"/>
   </g>
   <g id="line2d_24">
    <path d="M 50.155566 -1 
L 50.536669 110.481877 
L 50.964785 173.980257 
L 51.321548 202.636732 
L 52.605896 153.747956 
L 53.390775 125.079543 
L 53.818891 115.987049 
L 54.032949 114.819798 
L 54.175654 115.689102 
L 54.389712 119.760846 
L 54.675123 130.326318 
L 55.245944 162.401432 
L 55.460002 172.362863 
L 56.530291 138.693408 
L 57.315171 120.005415 
L 57.457876 115.180005 
L 58.742224 44.833486 
L 58.956281 42.649373 
L 59.098987 44.205549 
L 59.313045 51.485581 
L 59.598455 70.405579 
L 60.169276 128.959944 
L 60.81145 184.620789 
L 61.453624 219.509063 
L 62.024445 242.76012 
L 62.381209 239.092413 
L 62.523914 235.079884 
L 63.950967 186.143842 
L 64.379083 177.572254 
L 64.593141 175.768859 
L 64.664493 175.610679 
L 64.735846 175.684308 
L 64.878551 176.529266 
L 65.092609 179.458862 
L 65.449372 187.907051 
L 66.234251 213.422368 
L 67.304541 251.093907 
L 67.375894 250.832025 
L 69.15971 192.874006 
L 69.587826 184.896596 
L 69.873237 183.019463 
L 69.944589 183.051964 
L 70.087294 183.733344 
L 70.301352 186.219412 
L 70.658116 193.57293 
L 71.300289 212.570374 
L 72.441932 252.114805 
L 72.513284 249.775657 
L 74.439806 186.536867 
L 74.867922 179.069607 
L 75.08198 178.022677 
L 75.153332 178.137496 
L 75.296038 179.069945 
L 75.581448 183.565079 
L 76.009564 195.439609 
L 76.794443 225.068856 
L 77.436617 251.734051 
L 77.50797 251.443203 
L 79.505844 184.822158 
L 79.862607 178.328724 
L 80.076665 176.885583 
L 80.148018 176.87812 
L 80.290723 177.591402 
L 80.504781 180.410444 
L 80.861544 189.033068 
L 81.503718 211.864119 
L 82.502655 252.393759 
L 82.716713 241.645792 
L 84.571882 179.745877 
L 84.928645 173.536861 
L 85.142703 172.430885 
L 85.214056 172.55182 
L 85.356761 173.535614 
L 85.642172 178.259787 
L 86.070287 190.665148 
L 86.926519 224.278506 
L 87.49734 248.749154 
L 87.568693 247.264612 
L 89.352509 178.108537 
L 89.780625 168.97895 
L 89.994683 167.456382 
L 90.066036 167.469029 
L 90.208741 168.27915 
L 90.422799 171.348599 
L 90.779562 180.507153 
L 91.493089 206.999144 
L 92.492026 246.941619 
L 94.347195 175.02424 
L 94.703958 167.552887 
L 94.918016 165.769361 
L 94.989368 165.684505 
L 95.132074 166.298596 
L 95.346132 169.095724 
L 95.702895 177.917406 
L 96.345069 201.257323 
L 97.415358 246.519737 
L 97.486711 245.016631 
L 99.270527 175.156969 
L 99.698643 166.149477 
L 99.912701 164.667375 
L 99.984054 164.687859 
L 100.126759 165.510483 
L 100.340817 168.596852 
L 100.69758 177.791581 
L 101.411107 204.356397 
L 102.410044 246.780104 
L 102.481396 243.929817 
L 104.265213 174.291315 
L 104.693328 165.571248 
L 104.907386 164.241889 
L 104.978739 164.312245 
L 105.121444 165.227553 
L 105.335502 168.43045 
L 105.692265 177.752457 
L 106.405792 204.493229 
L 107.404729 246.921024 
L 107.476082 244.281414 
L 109.259898 174.604978 
L 109.688014 165.875357 
L 109.902072 164.548119 
L 109.973424 164.617991 
L 110.11613 165.531987 
L 110.330188 168.733072 
L 110.686951 178.051887 
L 111.400477 204.809347 
L 112.399414 247.151461 
L 112.470767 244.652369 
L 114.183231 177.104559 
L 114.611346 167.200406 
L 114.896757 164.897282 
L 114.96811 164.952996 
L 115.110815 165.838159 
L 115.324873 168.994624 
L 115.681636 178.247566 
L 116.32381 202.034747 
L 117.3941 247.193081 
L 117.465452 244.947667 
L 119.177916 177.312339 
L 119.606032 167.390938 
L 119.891442 165.065428 
L 119.962795 165.112692 
L 120.1055 165.978723 
L 120.319558 169.102457 
L 120.676321 178.30124 
L 121.318495 202.076851 
L 122.388785 247.221442 
L 122.460138 245.014454 
L 124.172601 177.602552 
L 124.600717 167.743327 
L 124.886128 165.427782 
L 124.95748 165.475257 
L 125.100186 166.339746 
L 125.314244 169.455588 
L 125.671007 178.631737 
L 126.313181 202.40915 
L 127.38347 247.535354 
L 127.454823 245.239979 
L 129.167286 177.994602 
L 129.595402 168.233986 
L 129.880813 165.98651 
L 129.952166 166.052045 
L 130.094871 166.946353 
L 130.308929 170.101083 
L 130.665692 179.319603 
L 131.307866 203.186923 
L 132.378156 248.249199 
L 132.449508 245.588807 
L 133.947914 185.82528 
L 134.447382 172.096523 
L 134.732793 168.198651 
L 134.875498 167.672106 
L 134.946851 167.787995 
L 135.089556 168.77489 
L 135.374967 173.50012 
L 135.803083 185.810477 
L 136.659314 219.072336 
L 137.372841 248.676099 
L 137.658251 237.521539 
L 139.656126 167.667066 
L 139.941536 165.374249 
L 140.012889 165.407539 
L 140.155594 166.215325 
L 140.369652 169.172958 
L 140.726415 177.93673 
L 141.368589 200.954864 
L 142.510232 245.473978 
L 144.650811 158.298279 
L 145.007574 149.834269 
L 145.221632 147.806807 
L 145.292985 147.673794 
L 145.364337 147.820776 
L 145.507043 148.92655 
L 145.792453 154.060619 
L 146.220569 167.243381 
L 147.005448 200.045591 
L 147.790327 234.929444 
L 147.86168 233.279225 
L 149.21738 167.642866 
L 150.144965 122.458419 
L 150.430375 116.641912 
L 150.573081 115.984438 
L 150.715786 116.758573 
L 150.929844 120.216859 
L 151.286607 130.676667 
L 151.928781 158.22285 
L 153.213129 220.840894 
L 154.06936 173.467634 
L 155.282355 101.783824 
L 155.567766 96.206183 
L 155.639119 95.916214 
L 155.710471 96.043098 
L 155.853177 97.455544 
L 156.138587 104.186367 
L 156.566703 121.020826 
L 157.494287 169.974449 
L 158.421872 219.811603 
L 158.493225 219.041853 
L 159.206751 176.629442 
L 160.348393 103.487687 
L 160.633804 97.165813 
L 160.776509 96.749035 
L 160.919215 97.974751 
L 161.133272 102.410542 
L 161.490036 115.452502 
L 162.203562 150.065977 
L 163.559262 221.672731 
L 163.630615 220.97425 
L 164.486847 168.193518 
L 165.343079 107.167227 
L 165.628489 98.900527 
L 165.771195 97.811711 
L 165.842547 97.964043 
L 165.985252 99.497346 
L 166.270663 106.654072 
L 166.770132 127.760754 
L 168.125832 200.575595 
L 168.411243 215.187235 
L 169.552885 146.617261 
L 170.123706 111.748192 
L 170.409117 102.845118 
L 170.623175 101.122113 
L 170.76588 102.188515 
L 170.979938 106.590127 
L 171.336701 119.417657 
L 172.050228 155.283685 
L 172.977812 205.843227 
L 173.049165 205.099941 
L 174.404865 126.205904 
L 174.975686 98.962004 
L 175.261097 93.336772 
L 175.332449 92.981796 
L 175.403802 93.041382 
L 175.546507 94.348823 
L 175.760565 98.949542 
L 176.117328 111.962816 
L 176.830855 148.386213 
L 177.687087 196.79591 
L 179.613608 94.2504 
L 179.899019 87.847698 
L 180.041724 86.863867 
L 180.113077 86.950474 
L 180.255782 88.251512 
L 180.46984 92.783016 
L 180.826603 105.644419 
L 181.54013 141.716032 
L 182.396361 186.959747 
L 184.180178 90.280748 
L 184.536941 80.692597 
L 184.750999 79.184837 
L 184.893704 80.125715 
L 185.107762 84.36579 
L 185.464525 97.419888 
L 186.178052 134.979882 
L 187.105636 187.658387 
L 189.032158 84.85634 
L 189.317568 79.528669 
L 189.388921 79.148869 
L 189.460273 79.183374 
L 189.602979 80.513637 
L 189.817037 85.595951 
L 190.1738 100.835589 
L 191.315442 166.55691 
L 191.814911 194.442055 
L 192.100321 182.479023 
L 192.742495 148.270185 
L 193.741432 92.077021 
L 194.026843 86.258076 
L 194.169548 85.559026 
L 194.312253 86.609096 
L 194.526311 91.529077 
L 194.883075 107.398795 
L 196.024717 173.778986 
L 196.238775 193.560191 
L 196.524186 204.695191 
L 197.665828 155.258972 
L 198.950176 86.298971 
L 199.092881 88.006173 
L 199.306939 94.328498 
L 199.663702 114.495971 
L 201.090755 211.910528 
L 201.162108 211.241424 
L 201.875634 188.356862 
L 201.946987 157.430064 
L 202.018339 161.415025 
L 202.30375 174.492502 
L 203.873508 91.006885 
L 204.301624 78.780103 
L 204.515682 76.793798 
L 204.587035 76.847262 
L 204.72974 78.020362 
L 204.943798 82.280732 
L 205.300561 94.628021 
L 206.014088 128.373393 
L 206.228146 152.495487 
L 207.084377 196.762459 
L 207.15573 196.102904 
L 208.297372 152.663724 
L 208.868194 136.608839 
L 209.153604 132.480892 
L 209.296309 131.886382 
L 209.367662 131.996285 
L 209.510367 133.048281 
L 209.724425 136.636991 
L 210.152541 149.324923 
L 211.365536 196.909297 
L 212.079063 224.085807 
L 213.220705 183.494153 
L 213.292058 183.771067 
L 213.934232 165.732418 
L 214.290995 160.553545 
L 214.4337 159.938284 
L 214.505053 159.975573 
L 214.647758 160.777153 
L 214.933169 164.657868 
L 215.361284 174.029216 
L 216.074811 195.440968 
L 217.287806 236.890531 
L 219.856501 150.035355 
L 220.141912 147.208701 
L 220.213264 147.104267 
L 220.35597 147.620806 
L 220.570028 150.059937 
L 220.926791 157.613383 
L 221.640317 179.193701 
L 222.710607 217.035573 
L 223.495486 176.380146 
L 224.280365 125.185931 
L 225.279302 57.432627 
L 225.564713 51.462701 
L 225.636066 51.186488 
L 225.707418 51.257861 
L 225.850124 52.692991 
L 225.992829 55.655284 
L 226.206887 68.407687 
L 227.134471 115.084463 
L 228.062056 159.142718 
L 228.276114 164.237364 
L 228.347466 164.968792 
L 228.418819 164.877268 
L 229.275051 136.998823 
L 229.560461 133.356681 
L 229.631814 133.177348 
L 229.703167 133.379202 
L 229.845872 134.934687 
L 230.131282 141.307785 
L 230.559398 155.391751 
L 232.129157 216.744822 
L 232.200509 216.640418 
L 233.270799 186.8065 
L 233.984325 161.027368 
L 234.341089 150.172878 
L 234.555147 147.80182 
L 234.626499 147.707022 
L 234.769205 148.66259 
L 235.054615 153.617491 
L 235.482731 166.846793 
L 237.052489 220.762293 
L 237.123842 220.419668 
L 237.766016 208.18221 
L 238.40819 191.65983 
L 239.193069 170.077753 
L 239.478479 167.540368 
L 239.549832 167.522664 
L 239.692537 168.158639 
L 239.906595 171.012048 
L 240.263358 180.086227 
L 240.83418 202.736599 
L 241.333648 219.858579 
L 242.18988 243.85314 
L 242.261233 244.602415 
L 242.546643 236.927146 
L 244.259107 190.310092 
L 244.61587 185.380753 
L 244.829928 184.688263 
L 244.972633 185.247177 
L 245.186691 187.526153 
L 245.472102 192.739325 
L 246.042923 208.502204 
L 246.256981 215.531043 
L 246.328333 214.160492 
L 247.398623 174.549715 
L 248.326208 142.897591 
L 248.468913 139.182869 
L 248.611618 128.553911 
L 248.897029 126.012325 
L 248.968381 126.086411 
L 249.111087 127.143122 
L 249.325145 131.217439 
L 249.681908 143.92792 
L 250.609492 189.231112 
L 250.894903 203.766256 
L 251.965193 243.59302 
L 252.036545 243.69701 
L 253.534951 197.576367 
L 254.105772 186.121676 
L 254.462535 182.604116 
L 254.605241 182.188447 
L 254.747946 182.562602 
L 254.962004 184.695555 
L 255.247414 190.527913 
L 255.960941 211.972845 
L 257.173936 250.994896 
L 257.245288 251.055997 
L 257.459346 245.444233 
L 259.100457 195.153448 
L 259.457221 189.866377 
L 259.671278 189.068616 
L 259.813984 189.403771 
L 260.028042 191.060342 
L 260.313452 195.497359 
L 260.812921 207.868891 
L 262.168621 250.85259 
L 262.239974 252.988485 
L 263.238911 221.618269 
L 264.309201 191.749106 
L 264.665964 188.151644 
L 264.808669 187.668367 
L 264.880022 187.701708 
L 265.022727 188.432451 
L 265.236785 191.238961 
L 265.593548 199.520975 
L 266.521133 228.551227 
L 267.234659 250.687719 
L 267.306012 250.729232 
L 267.662775 240.270934 
L 269.161181 193.925482 
L 269.517944 188.322083 
L 269.732002 187.31157 
L 269.803354 187.28172 
L 269.94606 187.673966 
L 270.160118 189.604802 
L 270.23147 190.58735 
L 270.445528 196.850685 
L 270.944997 209.734285 
L 272.300697 251.81626 
L 272.37205 249.810106 
L 274.227219 195.087116 
L 274.583982 190.037742 
L 274.79804 188.808957 
L 274.869392 188.768002 
L 275.012098 189.312278 
L 275.226156 191.736996 
L 275.582919 199.535476 
L 276.296445 221.642974 
L 277.295382 252.070402 
L 277.438088 249.393582 
L 279.221904 196.814569 
L 279.578667 191.949138 
L 279.792725 191.315651 
L 279.864078 191.379772 
L 280.006783 192.058234 
L 280.220841 194.409734 
L 280.577604 201.442551 
L 281.219778 220.041599 
L 282.290068 254.150853 
L 284.359294 194.211957 
L 284.716058 190.644411 
L 284.858763 190.355931 
L 284.930116 190.458127 
L 285.072821 191.413444 
L 285.358232 196.018937 
L 285.8577 209.410654 
L 287.284753 252.660284 
L 287.427458 249.627188 
L 289.496685 189.115221 
L 289.710743 188.063972 
L 289.853448 188.55684 
L 290.138859 191.558319 
L 290.495622 198.389006 
L 291.137796 216.669573 
L 292.279438 252.036564 
L 294.277312 191.83058 
L 294.634076 187.206203 
L 294.848134 186.533184 
L 294.990839 187.008094 
L 295.204897 189.411021 
L 295.56166 196.900339 
L 295.989776 210.386825 
L 297.202771 250.835318 
L 297.345476 250.851422 
L 297.559534 245.034694 
L 298.558471 208.644706 
L 299.34335 185.595964 
L 299.628761 182.564973 
L 299.700114 182.452943 
L 299.771466 182.592649 
L 299.914172 183.645608 
L 300.199582 188.352019 
L 300.627698 198.990711 
L 301.555282 229.27798 
L 302.197456 251.014581 
L 302.268809 250.797662 
L 304.266683 191.931685 
L 304.623446 187.442161 
L 304.837504 186.604269 
L 304.908857 186.648342 
L 305.051562 187.264603 
L 305.336973 190.278436 
L 305.693736 197.330313 
L 306.33591 215.567966 
L 307.334847 249.426692 
L 307.4062 247.166748 
L 308.619195 202.681897 
L 309.332721 181.166374 
L 309.760837 173.521413 
L 309.974895 172.096856 
L 310.046248 171.982463 
L 310.1176 172.05768 
L 310.260305 172.798368 
L 310.474363 175.192973 
L 310.831127 182.037053 
L 311.401948 198.68698 
L 312.400885 235.266159 
L 312.472238 232.734398 
L 314.541464 161.695083 
L 314.898228 156.221863 
L 315.112285 155.170495 
L 315.183638 155.203066 
L 315.326343 155.907558 
L 315.540401 158.336125 
L 315.897165 165.692694 
L 316.467986 183.948499 
L 317.39557 221.307113 
L 317.466923 218.832434 
L 318.394507 180.22662 
L 318.608565 167.587626 
L 319.393444 139.870281 
L 319.750208 132.652691 
L 319.964265 130.89629 
L 320.035618 130.755814 
L 320.106971 130.860439 
L 320.249676 131.760133 
L 320.535087 136.125403 
L 320.89185 145.188157 
L 321.462671 166.08454 
L 322.318903 205.911838 
L 322.390255 203.028108 
L 324.245424 125.294934 
L 324.67354 116.733454 
L 324.958951 114.956612 
L 325.030303 115.07405 
L 325.173009 116.025014 
L 325.458419 120.26732 
L 325.815183 129.712158 
L 326.314651 148.697505 
L 327.242236 191.980875 
L 327.313588 190.938431 
L 329.026052 109.563499 
L 329.454168 98.619216 
L 329.739578 94.994217 
L 329.882283 94.58616 
L 330.024989 95.177011 
L 330.239047 97.692017 
L 330.524457 103.778142 
L 331.023926 120.856713 
L 331.737452 154.770003 
L 332.236921 179.157508 
L 333.949384 88.705726 
L 334.3775 76.063445 
L 334.662911 71.891895 
L 334.805616 71.382843 
L 334.948321 72.059222 
L 335.162379 75.162152 
L 335.519143 85.049565 
L 336.018611 106.567864 
L 336.660785 144.462434 
L 337.160253 174.8739 
L 337.231606 175.151908 
L 338.872717 86.649003 
L 339.372186 71.994728 
L 339.657596 68.486548 
L 339.728949 68.24578 
L 339.800301 68.297023 
L 339.943007 69.27764 
L 340.157065 72.789387 
L 340.513828 83.373352 
L 341.084649 108.612437 
L 341.869528 154.622691 
L 342.226291 174.376331 
L 344.08146 73.743458 
L 344.509576 63.139768 
L 344.794987 60.826975 
L 344.866339 60.875198 
L 345.009045 61.775317 
L 345.294455 66.363219 
L 345.651219 76.36393 
L 346.22204 100.48677 
L 347.292329 156.466288 
L 348.93344 31.161319 
L 349.269819 -1 
M 351.469298 -1 
L 352.287015 52.808508 
L 352.630905 -1 
L 352.630905 -1 
" clip-path="url(#p7109abde4b)" style="fill: none; stroke: #ff7f0e; stroke-width: 1.5; stroke-linecap: square"/>
   </g>
   <g id="line2d_25">
    <path d="M 50.155565 -1 
L 50.536669 110.482179 
L 50.964785 173.980559 
L 51.321548 202.636898 
L 52.463191 158.853389 
L 53.462128 122.863517 
L 53.818891 115.798883 
L 54.032949 114.644309 
L 54.175654 115.520959 
L 54.389712 119.603457 
L 54.675123 130.168481 
L 55.245944 162.330982 
L 55.460002 172.223364 
L 57.600581 88.613095 
L 57.957344 65.327453 
L 58.670871 17.942945 
L 58.884929 14.015522 
L 58.956281 14.33532 
L 59.098987 17.642523 
L 59.313045 29.391177 
L 59.669808 64.439708 
L 60.668745 172.027857 
L 61.239566 207.212736 
L 62.024445 242.7599 
L 62.381209 234.920858 
L 62.95203 219.116615 
L 64.022319 184.343526 
L 64.593141 173.545728 
L 64.664493 173.289127 
L 64.735846 173.322332 
L 64.878551 174.224901 
L 65.092609 177.482624 
L 65.520725 188.810982 
L 66.662367 228.321798 
L 67.375894 250.714357 
L 69.088357 194.46956 
L 69.587826 184.72345 
L 69.873237 182.867841 
L 69.944589 182.893101 
L 70.087294 183.568927 
L 70.301352 186.014625 
L 70.658116 193.097945 
L 71.300289 212.114169 
L 72.441932 252.024066 
L 72.513284 249.693768 
L 74.368453 188.24886 
L 74.796569 179.693543 
L 75.010627 177.946338 
L 75.08198 177.824264 
L 75.153332 177.940871 
L 75.296038 178.854439 
L 75.510096 181.894098 
L 75.866859 190.733745 
L 76.509033 213.451192 
L 77.436617 251.707948 
L 77.50797 251.423513 
L 79.505844 184.478848 
L 79.862607 177.965024 
L 80.076665 176.540652 
L 80.148018 176.545849 
L 80.290723 177.285421 
L 80.504781 180.109634 
L 80.861544 188.693507 
L 81.503718 211.318406 
L 82.502655 252.393832 
L 82.716713 241.312129 
L 84.571882 179.50451 
L 84.928645 173.226569 
L 85.142703 172.047183 
L 85.214056 172.160047 
L 85.356761 173.145261 
L 85.642172 177.920023 
L 86.070287 190.374028 
L 86.855167 221.141511 
L 87.49734 248.731764 
L 87.568693 247.232541 
L 89.352509 177.896014 
L 89.780625 168.636899 
L 89.994683 167.067015 
L 90.066036 167.077296 
L 90.208741 167.900586 
L 90.422799 171.006345 
L 90.779562 180.15362 
L 91.421736 203.747669 
L 92.492026 246.855765 
L 94.204489 178.970353 
L 94.632605 168.342471 
L 94.918016 165.353879 
L 94.989368 165.256438 
L 95.132074 165.863702 
L 95.346132 168.687286 
L 95.702895 177.548844 
L 96.345069 200.928255 
L 97.415358 246.487822 
L 97.486711 244.970464 
L 99.199175 177.043435 
L 99.62729 166.825261 
L 99.912701 164.246308 
L 99.984054 164.256301 
L 100.126759 165.076213 
L 100.340817 168.194729 
L 100.69758 177.428665 
L 101.339754 201.129838 
L 102.410044 246.750205 
L 102.481396 243.844691 
L 104.122507 178.370389 
L 104.621976 166.192751 
L 104.907386 163.821737 
L 104.978739 163.883239 
L 105.121444 164.800414 
L 105.335502 168.044221 
L 105.692265 177.474242 
L 106.405792 204.236098 
L 107.404729 246.924464 
L 107.476082 244.192062 
L 109.117193 178.707518 
L 109.616661 166.528438 
L 109.902072 164.150942 
L 109.973424 164.209912 
L 110.11613 165.12045 
L 110.330188 168.352382 
L 110.686951 177.761364 
L 111.400477 204.502329 
L 112.399414 247.115908 
L 112.470767 244.551178 
L 114.111878 179.131274 
L 114.611346 166.955446 
L 114.896757 164.521991 
L 114.96811 164.563383 
L 115.110815 165.437242 
L 115.324873 168.61138 
L 115.681636 177.932595 
L 116.395163 204.612568 
L 117.3941 247.140325 
L 117.465452 244.853957 
L 119.106563 179.294621 
L 119.606032 167.127689 
L 119.891442 164.672726 
L 119.962795 164.707828 
L 120.1055 165.568474 
L 120.319558 168.722017 
L 120.676321 178.012645 
L 121.389848 204.673904 
L 122.388785 247.184719 
L 122.460138 244.970569 
L 124.101249 179.569466 
L 124.600717 167.466103 
L 124.886128 165.025337 
L 124.95748 165.06038 
L 125.100186 165.919642 
L 125.314244 169.067056 
L 125.671007 178.34014 
L 126.384533 204.991197 
L 127.38347 247.489492 
L 127.454823 245.190933 
L 129.095934 179.971505 
L 129.595402 167.984827 
L 129.880813 165.60521 
L 129.952166 165.655457 
L 130.094871 166.53775 
L 130.308929 169.711843 
L 130.665692 179.004849 
L 131.379219 205.688934 
L 132.378156 248.063396 
L 132.449508 245.623344 
L 134.019266 183.284684 
L 134.518735 170.454678 
L 134.804146 167.327824 
L 134.875498 167.164918 
L 134.946851 167.260557 
L 135.089556 168.220687 
L 135.303614 171.460545 
L 135.660377 180.757188 
L 136.373904 207.057389 
L 137.372841 248.506006 
L 137.444194 246.542271 
L 139.085304 181.564258 
L 139.584773 168.509873 
L 139.870184 165.236463 
L 139.941536 165.00379 
L 140.012889 165.027449 
L 140.155594 165.833608 
L 140.369652 168.825537 
L 140.726415 177.693559 
L 141.368589 200.826939 
L 142.510232 245.469845 
L 144.722164 155.829349 
L 145.078927 148.488925 
L 145.292985 147.315692 
L 145.364337 147.467809 
L 145.507043 148.602095 
L 145.792453 153.832203 
L 146.220569 167.140689 
L 147.076801 202.952087 
L 147.790327 234.766066 
L 147.86168 233.294349 
L 149.146028 171.280612 
L 150.144965 121.216013 
L 150.430375 115.524508 
L 150.573081 114.976652 
L 150.715786 115.86933 
L 150.929844 119.568402 
L 151.286607 130.289868 
L 151.928781 158.225912 
L 153.213129 220.787063 
L 154.06936 173.225537 
L 155.282355 100.349354 
L 155.567766 94.988174 
L 155.639119 94.776057 
L 155.710471 94.987297 
L 155.853177 96.579418 
L 156.138587 103.623145 
L 156.638056 124.345479 
L 157.779698 185.536322 
L 158.421872 219.804736 
L 158.493225 219.017697 
L 159.206751 176.156415 
L 160.348393 101.532474 
L 160.633804 95.447795 
L 160.705157 95.095579 
L 160.776509 95.184526 
L 160.919215 96.583295 
L 161.204625 103.430925 
L 161.632741 121.007946 
L 162.631678 172.85006 
L 163.559262 221.615037 
L 163.630615 221.32643 
L 164.486847 167.609817 
L 165.343079 106.283258 
L 165.628489 98.209365 
L 165.771195 97.16227 
L 165.842547 97.337628 
L 165.985252 98.942707 
L 166.270663 106.28093 
L 166.770132 127.597232 
L 168.197185 204.349899 
L 168.411243 215.198918 
L 169.552885 146.467691 
L 170.195059 108.034872 
L 170.480469 100.816218 
L 170.623175 100.052542 
L 170.76588 101.044405 
L 170.979938 105.371551 
L 171.336701 118.215101 
L 172.050228 154.545788 
L 172.977812 205.599298 
L 173.049165 205.17924 
L 175.189744 94.162824 
L 175.332449 93.021485 
L 175.403802 93.07649 
L 175.546507 94.374857 
L 175.760565 98.968819 
L 176.117328 111.960747 
L 176.830855 148.338814 
L 177.687087 196.506889 
L 179.613608 94.044219 
L 179.899019 87.539851 
L 180.041724 86.515635 
L 180.113077 86.585902 
L 180.255782 87.862889 
L 180.46984 92.380199 
L 180.826603 105.234879 
L 181.54013 141.429273 
L 182.396361 186.280997 
L 184.108825 92.318943 
L 184.536941 80.066941 
L 184.750999 78.621881 
L 184.893704 79.624548 
L 185.107762 83.944554 
L 185.464525 97.19759 
L 186.178052 134.965249 
L 187.105636 187.208242 
L 188.889452 88.999214 
L 189.246216 79.840729 
L 189.388921 78.692819 
L 189.460273 78.736223 
L 189.602979 80.094411 
L 189.817037 85.210189 
L 190.1738 100.376401 
L 191.172737 158.194207 
L 191.814911 193.771127 
L 191.957616 187.914738 
L 193.812785 89.303235 
L 194.098196 84.969867 
L 194.169548 84.805542 
L 194.240901 85.08225 
L 194.383606 86.991349 
L 194.669017 96.033939 
L 195.168485 123.175842 
L 196.452833 195.481508 
L 196.595538 200.860131 
L 197.237712 166.718873 
L 198.664765 90.30905 
L 198.950176 82.715772 
L 199.092881 81.864454 
L 199.235586 83.353127 
L 199.592349 93.992793 
L 200.234523 123.957438 
L 200.733992 142.457792 
L 201.162108 151.207049 
L 201.518871 154.694355 
L 201.732929 153.907784 
L 201.946987 143.865806 
L 202.232397 171.129152 
L 202.30375 172.201532 
L 203.873508 89.071244 
L 204.301624 76.675854 
L 204.515682 74.632181 
L 204.587035 74.687277 
L 204.72974 75.924845 
L 204.943798 80.470356 
L 205.371914 96.21198 
L 206.156793 135.719157 
L 207.15573 192.440133 
L 208.368725 148.323404 
L 209.010899 132.993646 
L 209.224957 130.954225 
L 209.296309 130.80539 
L 209.367662 130.936967 
L 209.510367 132.052296 
L 209.724425 135.673108 
L 210.152541 148.537224 
L 211.436889 199.728125 
L 212.079063 224.192682 
L 213.36341 180.728737 
L 214.076937 161.525899 
L 214.362347 158.128385 
L 214.4337 157.887071 
L 214.505053 157.909215 
L 214.647758 158.756102 
L 214.933169 162.728843 
L 215.361284 172.75336 
L 216.217516 200.226789 
L 217.216453 234.573896 
L 217.287806 234.418847 
L 217.359159 234.181322 
L 219.856501 149.608275 
L 220.141912 146.056509 
L 220.35597 145.361559 
L 220.926791 131.074299 
L 224.637129 66.917194 
L 225.636066 50.44744 
L 225.992829 50.447448 
L 226.706355 52.359943 
L 226.991766 52.31489 
L 227.348529 52.282983 
L 227.63394 52.695054 
L 227.705292 52.830878 
L 227.776645 52.777311 
L 227.847998 50.447445 
L 227.91935 50.835733 
L 228.276114 54.226825 
L 228.561524 58.627787 
L 228.918287 67.82782 
L 229.346403 86.35466 
L 231.13022 176.497803 
L 231.486983 188.578031 
L 232.057804 193.78201 
L 232.414567 195.994895 
L 232.557272 195.592648 
L 232.914036 179.027677 
L 233.698915 144.65718 
L 234.127031 131.569375 
L 234.555147 124.300502 
L 234.626499 124.041293 
L 234.769205 125.83394 
L 235.19732 139.820247 
L 236.26761 191.495934 
L 236.481668 195.744017 
L 236.767079 196.821451 
L 237.052489 198.694112 
L 237.3379 200.247534 
L 237.62331 201.197321 
L 237.694663 201.486032 
L 237.837368 201.015221 
L 238.122779 194.304322 
L 238.836305 173.802633 
L 238.979011 170.468294 
L 239.335774 156.488941 
L 239.549832 154.893693 
L 239.692537 155.960784 
L 240.192006 166.121922 
L 240.548769 177.720841 
L 241.761764 224.471782 
L 242.047175 226.446681 
L 242.689348 228.49127 
L 242.760701 228.61963 
L 242.832054 228.494633 
L 244.187754 190.794845 
L 244.61587 183.756096 
L 244.90128 182.041426 
L 244.972633 181.505784 
L 245.043986 181.647589 
L 245.186691 183.337701 
L 245.472102 189.998161 
L 245.97157 202.562925 
L 246.471039 208.759321 
L 247.184565 180.179771 
L 248.540265 128.051086 
L 248.825676 124.163179 
L 248.968381 123.863415 
L 249.111087 124.885919 
L 249.325145 129.016545 
L 249.681908 141.982886 
L 250.609492 188.696973 
L 250.894903 203.444811 
L 251.89384 241.066271 
L 252.036545 243.083176 
L 252.892777 215.825413 
L 253.820361 190.009258 
L 254.31983 180.611626 
L 254.605241 178.594781 
L 254.676593 178.588826 
L 254.819298 179.363894 
L 255.033356 182.3749 
L 255.39012 191.33518 
L 256.531762 228.595489 
L 257.245288 249.367375 
L 257.744757 233.924389 
L 259.17181 190.593572 
L 259.457221 186.589941 
L 259.599926 185.962994 
L 259.671278 186.025989 
L 259.885336 187.411914 
L 260.2421 192.906985 
L 260.741568 205.465546 
L 261.811858 239.208906 
L 262.239974 251.011096 
L 262.311326 250.812903 
L 263.452969 214.605886 
L 263.738379 204.088523 
L 264.380553 189.089584 
L 264.737316 185.320286 
L 264.880022 185.017137 
L 265.022727 185.719357 
L 265.236785 188.524541 
L 265.593548 196.920754 
L 266.735191 233.820699 
L 267.306012 248.947795 
L 268.162244 221.830604 
L 269.232533 189.578057 
L 269.517944 185.494359 
L 269.660649 184.846742 
L 269.803354 185.022617 
L 270.017412 186.49321 
L 270.23147 189.386883 
L 270.445528 196.209612 
L 271.087702 213.734 
L 272.300697 249.803521 
L 272.37205 249.524455 
L 274.298571 192.208556 
L 274.655334 187.043533 
L 274.869392 185.813818 
L 274.940745 185.921667 
L 275.08345 186.896048 
L 275.368861 191.545078 
L 275.868329 205.589416 
L 277.295382 250.332786 
L 277.366735 248.917052 
L 278.294319 219.740916 
L 278.936493 201.549413 
L 279.364609 192.208677 
L 279.65002 189.988073 
L 279.792725 189.826503 
L 279.93543 190.409976 
L 280.149488 192.701946 
L 280.506251 199.610189 
L 281.148425 217.478175 
L 282.290068 253.219581 
L 282.646831 242.550545 
L 284.216589 195.745493 
L 284.573352 189.961307 
L 284.858763 188.174338 
L 284.930116 188.294604 
L 285.072821 189.272173 
L 285.358232 193.934413 
L 285.8577 207.942385 
L 287.284753 251.388797 
L 288.212337 221.95915 
L 289.211274 191.261004 
L 289.568038 186.31759 
L 289.710743 186.048306 
L 289.853448 186.778878 
L 290.138859 190.588143 
L 290.638327 201.800137 
L 291.351854 223.386842 
L 292.279438 251.262133 
L 292.564849 242.730041 
L 294.20596 192.316325 
L 294.634076 185.4967 
L 294.848134 184.476287 
L 294.919486 184.514574 
L 295.062192 185.370527 
L 295.27625 188.452099 
L 295.704365 199.231619 
L 297.274124 249.051512 
L 297.488182 243.297319 
L 299.486056 181.195892 
L 299.700114 179.994046 
L 299.771466 180.123674 
L 299.914172 181.186132 
L 300.12823 184.642531 
L 300.556345 196.481991 
L 302.268809 250.674559 
L 303.410451 213.640803 
L 304.123978 193.609298 
L 304.552094 187.009532 
L 304.766152 185.621471 
L 304.837504 185.539979 
L 304.98021 185.943949 
L 305.194267 187.837147 
L 305.551031 193.891443 
L 306.121852 208.74169 
L 307.263494 246.581607 
L 307.334847 248.87164 
L 308.476489 207.364824 
L 309.404074 177.121208 
L 309.760837 170.611311 
L 309.974895 169.140863 
L 310.046248 169.097726 
L 310.188953 169.705065 
L 310.403011 171.940656 
L 310.759774 179.076746 
L 311.330595 195.913089 
L 312.400885 234.211084 
L 312.472238 231.618509 
L 314.541464 159.783364 
L 314.898228 153.816094 
L 315.112285 152.802178 
L 315.254991 153.295141 
L 315.469049 155.346642 
L 315.754459 160.780435 
L 316.253928 175.769151 
L 317.252865 214.83128 
L 317.39557 220.202952 
L 318.323155 179.460916 
L 319.179386 143.460009 
L 319.678855 129.356782 
L 319.964265 126.233775 
L 320.035618 126.142844 
L 320.178323 126.803561 
L 320.392381 129.733979 
L 320.749145 138.772211 
L 321.462671 165.606697 
L 322.318903 203.403549 
L 322.390255 200.47427 
L 324.245424 122.689762 
L 324.67354 113.333788 
L 324.887598 111.78219 
L 324.958951 111.768495 
L 325.101656 112.371279 
L 325.315714 114.928874 
L 325.672477 123.628893 
L 326.243298 144.893676 
L 327.242236 190.283525 
L 327.313588 188.922402 
L 329.026052 107.637624 
L 329.52552 93.885943 
L 329.810931 90.844024 
L 329.882283 90.769454 
L 330.024989 91.475001 
L 330.239047 94.351084 
L 330.59581 103.600408 
L 331.166631 126.339561 
L 332.236921 177.13252 
L 334.09209 81.048846 
L 334.520206 69.129395 
L 334.734263 66.73695 
L 334.805616 66.612492 
L 334.948321 67.390135 
L 335.162379 71.017351 
L 335.519143 82.362795 
L 336.089964 109.541522 
L 337.160253 173.001487 
L 337.231606 172.663556 
L 338.801364 88.059956 
L 339.300833 70.328343 
L 339.586244 65.269584 
L 339.728949 64.547322 
L 339.800301 64.666429 
L 339.943007 65.810022 
L 340.157065 69.695845 
L 340.513828 81.365061 
L 341.156002 111.954385 
L 342.226291 174.454522 
L 342.297644 170.362574 
L 344.08146 73.743265 
L 344.509576 63.139207 
L 344.794987 60.827081 
L 344.866339 60.875302 
L 345.009045 61.775445 
L 345.294455 66.363262 
L 345.651219 76.36401 
L 346.22204 100.48728 
L 347.292329 156.466369 
L 348.93344 31.162058 
L 349.269821 -1 
M 351.469298 -1 
L 352.287015 52.808759 
L 352.630908 -1 
L 352.630908 -1 
" clip-path="url(#p7109abde4b)" style="fill: none; stroke: #2ca02c; stroke-width: 1.5; stroke-linecap: square"/>
   </g>
   <g id="patch_3">
    <path d="M 23.74375 279.010828 
L 23.74375 12.898828 
" style="fill: none; stroke: #000000; stroke-width: 0.8; stroke-linejoin: miter; stroke-linecap: square"/>
   </g>
   <g id="patch_4">
    <path d="M 380.86375 279.010828 
L 380.86375 12.898828 
" style="fill: none; stroke: #000000; stroke-width: 0.8; stroke-linejoin: miter; stroke-linecap: square"/>
   </g>
   <g id="patch_5">
    <path d="M 23.74375 279.010828 
L 380.86375 279.010828 
" style="fill: none; stroke: #000000; stroke-width: 0.8; stroke-linejoin: miter; stroke-linecap: square"/>
   </g>
   <g id="patch_6">
    <path d="M 23.74375 12.898828 
L 380.86375 12.898828 
" style="fill: none; stroke: #000000; stroke-width: 0.8; stroke-linejoin: miter; stroke-linecap: square"/>
   </g>
   <g id="legend_1">
    <g id="patch_7">
     <path d="M 30.74375 274.010828 
L 285.023438 274.010828 
Q 287.023438 274.010828 287.023438 272.010828 
L 287.023438 258.332703 
Q 287.023438 256.332703 285.023438 256.332703 
L 30.74375 256.332703 
Q 28.74375 256.332703 28.74375 258.332703 
L 28.74375 272.010828 
Q 28.74375 274.010828 30.74375 274.010828 
z
" style="fill: #ffffff; opacity: 0.8; stroke: #cccccc; stroke-linejoin: miter"/>
    </g>
    <g id="line2d_26">
     <path d="M 32.74375 264.431141 
L 42.74375 264.431141 
L 52.74375 264.431141 
" style="fill: none; stroke: #1f77b4; stroke-width: 1.5; stroke-linecap: square"/>
    </g>
    <g id="text_13">
     <!-- Individual -->
     <g transform="translate(60.74375 267.931141)scale(0.1 -0.1)">
      <defs>
       <path id="DejaVuSans-49" d="M 628 4666 
L 1259 4666 
L 1259 0 
L 628 0 
L 628 4666 
z
" transform="scale(0.015625)"/>
       <path id="DejaVuSans-6e" d="M 3513 2113 
L 3513 0 
L 2938 0 
L 2938 2094 
Q 2938 2591 2744 2837 
Q 2550 3084 2163 3084 
Q 1697 3084 1428 2787 
Q 1159 2491 1159 1978 
L 1159 0 
L 581 0 
L 581 3500 
L 1159 3500 
L 1159 2956 
Q 1366 3272 1645 3428 
Q 1925 3584 2291 3584 
Q 2894 3584 3203 3211 
Q 3513 2838 3513 2113 
z
" transform="scale(0.015625)"/>
       <path id="DejaVuSans-64" d="M 2906 2969 
L 2906 4863 
L 3481 4863 
L 3481 0 
L 2906 0 
L 2906 525 
Q 2725 213 2448 61 
Q 2172 -91 1784 -91 
Q 1150 -91 751 415 
Q 353 922 353 1747 
Q 353 2572 751 3078 
Q 1150 3584 1784 3584 
Q 2172 3584 2448 3432 
Q 2725 3281 2906 2969 
z
M 947 1747 
Q 947 1113 1208 752 
Q 1469 391 1925 391 
Q 2381 391 2643 752 
Q 2906 1113 2906 1747 
Q 2906 2381 2643 2742 
Q 2381 3103 1925 3103 
Q 1469 3103 1208 2742 
Q 947 2381 947 1747 
z
" transform="scale(0.015625)"/>
       <path id="DejaVuSans-69" d="M 603 3500 
L 1178 3500 
L 1178 0 
L 603 0 
L 603 3500 
z
M 603 4863 
L 1178 4863 
L 1178 4134 
L 603 4134 
L 603 4863 
z
" transform="scale(0.015625)"/>
       <path id="DejaVuSans-76" d="M 191 3500 
L 800 3500 
L 1894 563 
L 2988 3500 
L 3597 3500 
L 2284 0 
L 1503 0 
L 191 3500 
z
" transform="scale(0.015625)"/>
       <path id="DejaVuSans-75" d="M 544 1381 
L 544 3500 
L 1119 3500 
L 1119 1403 
Q 1119 906 1312 657 
Q 1506 409 1894 409 
Q 2359 409 2629 706 
Q 2900 1003 2900 1516 
L 2900 3500 
L 3475 3500 
L 3475 0 
L 2900 0 
L 2900 538 
Q 2691 219 2414 64 
Q 2138 -91 1772 -91 
Q 1169 -91 856 284 
Q 544 659 544 1381 
z
M 1991 3584 
L 1991 3584 
z
" transform="scale(0.015625)"/>
       <path id="DejaVuSans-6c" d="M 603 4863 
L 1178 4863 
L 1178 0 
L 603 0 
L 603 4863 
z
" transform="scale(0.015625)"/>
      </defs>
      <use xlink:href="#DejaVuSans-49"/>
      <use xlink:href="#DejaVuSans-6e" x="29.492188"/>
      <use xlink:href="#DejaVuSans-64" x="92.871094"/>
      <use xlink:href="#DejaVuSans-69" x="156.347656"/>
      <use xlink:href="#DejaVuSans-76" x="184.130859"/>
      <use xlink:href="#DejaVuSans-69" x="243.310547"/>
      <use xlink:href="#DejaVuSans-64" x="271.09375"/>
      <use xlink:href="#DejaVuSans-75" x="334.570312"/>
      <use xlink:href="#DejaVuSans-61" x="397.949219"/>
      <use xlink:href="#DejaVuSans-6c" x="459.228516"/>
     </g>
    </g>
    <g id="line2d_27">
     <path d="M 129.446875 264.431141 
L 139.446875 264.431141 
L 149.446875 264.431141 
" style="fill: none; stroke: #ff7f0e; stroke-width: 1.5; stroke-linecap: square"/>
    </g>
    <g id="text_14">
     <!-- Neighbor -->
     <g transform="translate(157.446875 267.931141)scale(0.1 -0.1)">
      <defs>
       <path id="DejaVuSans-4e" d="M 628 4666 
L 1478 4666 
L 3547 763 
L 3547 4666 
L 4159 4666 
L 4159 0 
L 3309 0 
L 1241 3903 
L 1241 0 
L 628 0 
L 628 4666 
z
" transform="scale(0.015625)"/>
       <path id="DejaVuSans-65" d="M 3597 1894 
L 3597 1613 
L 953 1613 
Q 991 1019 1311 708 
Q 1631 397 2203 397 
Q 2534 397 2845 478 
Q 3156 559 3463 722 
L 3463 178 
Q 3153 47 2828 -22 
Q 2503 -91 2169 -91 
Q 1331 -91 842 396 
Q 353 884 353 1716 
Q 353 2575 817 3079 
Q 1281 3584 2069 3584 
Q 2775 3584 3186 3129 
Q 3597 2675 3597 1894 
z
M 3022 2063 
Q 3016 2534 2758 2815 
Q 2500 3097 2075 3097 
Q 1594 3097 1305 2825 
Q 1016 2553 972 2059 
L 3022 2063 
z
" transform="scale(0.015625)"/>
       <path id="DejaVuSans-67" d="M 2906 1791 
Q 2906 2416 2648 2759 
Q 2391 3103 1925 3103 
Q 1463 3103 1205 2759 
Q 947 2416 947 1791 
Q 947 1169 1205 825 
Q 1463 481 1925 481 
Q 2391 481 2648 825 
Q 2906 1169 2906 1791 
z
M 3481 434 
Q 3481 -459 3084 -895 
Q 2688 -1331 1869 -1331 
Q 1566 -1331 1297 -1286 
Q 1028 -1241 775 -1147 
L 775 -588 
Q 1028 -725 1275 -790 
Q 1522 -856 1778 -856 
Q 2344 -856 2625 -561 
Q 2906 -266 2906 331 
L 2906 616 
Q 2728 306 2450 153 
Q 2172 0 1784 0 
Q 1141 0 747 490 
Q 353 981 353 1791 
Q 353 2603 747 3093 
Q 1141 3584 1784 3584 
Q 2172 3584 2450 3431 
Q 2728 3278 2906 2969 
L 2906 3500 
L 3481 3500 
L 3481 434 
z
" transform="scale(0.015625)"/>
       <path id="DejaVuSans-68" d="M 3513 2113 
L 3513 0 
L 2938 0 
L 2938 2094 
Q 2938 2591 2744 2837 
Q 2550 3084 2163 3084 
Q 1697 3084 1428 2787 
Q 1159 2491 1159 1978 
L 1159 0 
L 581 0 
L 581 4863 
L 1159 4863 
L 1159 2956 
Q 1366 3272 1645 3428 
Q 1925 3584 2291 3584 
Q 2894 3584 3203 3211 
Q 3513 2838 3513 2113 
z
" transform="scale(0.015625)"/>
       <path id="DejaVuSans-62" d="M 3116 1747 
Q 3116 2381 2855 2742 
Q 2594 3103 2138 3103 
Q 1681 3103 1420 2742 
Q 1159 2381 1159 1747 
Q 1159 1113 1420 752 
Q 1681 391 2138 391 
Q 2594 391 2855 752 
Q 3116 1113 3116 1747 
z
M 1159 2969 
Q 1341 3281 1617 3432 
Q 1894 3584 2278 3584 
Q 2916 3584 3314 3078 
Q 3713 2572 3713 1747 
Q 3713 922 3314 415 
Q 2916 -91 2278 -91 
Q 1894 -91 1617 61 
Q 1341 213 1159 525 
L 1159 0 
L 581 0 
L 581 4863 
L 1159 4863 
L 1159 2969 
z
" transform="scale(0.015625)"/>
       <path id="DejaVuSans-6f" d="M 1959 3097 
Q 1497 3097 1228 2736 
Q 959 2375 959 1747 
Q 959 1119 1226 758 
Q 1494 397 1959 397 
Q 2419 397 2687 759 
Q 2956 1122 2956 1747 
Q 2956 2369 2687 2733 
Q 2419 3097 1959 3097 
z
M 1959 3584 
Q 2709 3584 3137 3096 
Q 3566 2609 3566 1747 
Q 3566 888 3137 398 
Q 2709 -91 1959 -91 
Q 1206 -91 779 398 
Q 353 888 353 1747 
Q 353 2609 779 3096 
Q 1206 3584 1959 3584 
z
" transform="scale(0.015625)"/>
       <path id="DejaVuSans-72" d="M 2631 2963 
Q 2534 3019 2420 3045 
Q 2306 3072 2169 3072 
Q 1681 3072 1420 2755 
Q 1159 2438 1159 1844 
L 1159 0 
L 581 0 
L 581 3500 
L 1159 3500 
L 1159 2956 
Q 1341 3275 1631 3429 
Q 1922 3584 2338 3584 
Q 2397 3584 2469 3576 
Q 2541 3569 2628 3553 
L 2631 2963 
z
" transform="scale(0.015625)"/>
      </defs>
      <use xlink:href="#DejaVuSans-4e"/>
      <use xlink:href="#DejaVuSans-65" x="74.804688"/>
      <use xlink:href="#DejaVuSans-69" x="136.328125"/>
      <use xlink:href="#DejaVuSans-67" x="164.111328"/>
      <use xlink:href="#DejaVuSans-68" x="227.587891"/>
      <use xlink:href="#DejaVuSans-62" x="290.966797"/>
      <use xlink:href="#DejaVuSans-6f" x="354.443359"/>
      <use xlink:href="#DejaVuSans-72" x="415.625"/>
     </g>
    </g>
    <g id="line2d_28">
     <path d="M 223.123437 264.431141 
L 233.123437 264.431141 
L 243.123437 264.431141 
" style="fill: none; stroke: #2ca02c; stroke-width: 1.5; stroke-linecap: square"/>
    </g>
    <g id="text_15">
     <!-- Global -->
     <g transform="translate(251.123437 267.931141)scale(0.1 -0.1)">
      <defs>
       <path id="DejaVuSans-47" d="M 3809 666 
L 3809 1919 
L 2778 1919 
L 2778 2438 
L 4434 2438 
L 4434 434 
Q 4069 175 3628 42 
Q 3188 -91 2688 -91 
Q 1594 -91 976 548 
Q 359 1188 359 2328 
Q 359 3472 976 4111 
Q 1594 4750 2688 4750 
Q 3144 4750 3555 4637 
Q 3966 4525 4313 4306 
L 4313 3634 
Q 3963 3931 3569 4081 
Q 3175 4231 2741 4231 
Q 1884 4231 1454 3753 
Q 1025 3275 1025 2328 
Q 1025 1384 1454 906 
Q 1884 428 2741 428 
Q 3075 428 3337 486 
Q 3600 544 3809 666 
z
" transform="scale(0.015625)"/>
      </defs>
      <use xlink:href="#DejaVuSans-47"/>
      <use xlink:href="#DejaVuSans-6c" x="77.490234"/>
      <use xlink:href="#DejaVuSans-6f" x="105.273438"/>
      <use xlink:href="#DejaVuSans-62" x="166.455078"/>
      <use xlink:href="#DejaVuSans-61" x="229.931641"/>
      <use xlink:href="#DejaVuSans-6c" x="291.210938"/>
     </g>
    </g>
   </g>
  </g>
 </g>
 <defs>
  <clipPath id="p7109abde4b">
   <rect x="23.74375" y="12.898828" width="357.12" height="266.112"/>
  </clipPath>
 </defs>
</svg>
