<?xml version="1.0" encoding="utf-8" standalone="no"?>
<!DOCTYPE svg PUBLIC "-//W3C//DTD SVG 1.1//EN"
  "http://www.w3.org/Graphics/SVG/1.1/DTD/svg11.dtd">
<svg xmlns:xlink="http://www.w3.org/1999/xlink" width="435.274687pt" height="325.385437pt" viewBox="0 0 435.274687 325.385437" xmlns="http://www.w3.org/2000/svg" version="1.1">
 <defs>
  <style type="text/css">*{stroke-linejoin: round; stroke-linecap: butt}</style>
 </defs>
 <g id="figure_1">
  <g id="patch_1">
   <path d="M 0 325.385437 
L 435.274687 325.385437 
L 435.274687 0 
L 0 0 
L 0 325.385437 
z
" style="fill: none"/>
  </g>
  <g id="axes_1">
   <g id="patch_2">
    <path d="M 70.954688 273.312 
L 428.074687 273.312 
L 428.074687 7.2 
L 70.954688 7.2 
L 70.954688 273.312 
z
" style="fill: none"/>
   </g>
   <g id="matplotlib.axis_1">
    <g id="xtick_1">
     <g id="line2d_1">
      <path d="M 91.985265 273.312 
L 91.985265 7.2 
" clip-path="url(#p037ef65ab7)" style="fill: none; stroke: #b0b0b0; stroke-width: 0.8; stroke-linecap: square"/>
     </g>
     <g id="line2d_2">
      <defs>
       <path id="md39032bed2" d="M 0 0 
L 0 3.5 
" style="stroke: #000000; stroke-width: 0.8"/>
      </defs>
      <g>
       <use xlink:href="#md39032bed2" x="91.985265" y="273.312" style="stroke: #000000; stroke-width: 0.8"/>
      </g>
     </g>
     <g id="text_1">
      <!-- −3000 -->
      <g transform="translate(66.613 291.709656)scale(0.15 -0.15)">
       <defs>
        <path id="DejaVuSans-2212" d="M 678 2272 
L 4684 2272 
L 4684 1741 
L 678 1741 
L 678 2272 
z
" transform="scale(0.015625)"/>
        <path id="DejaVuSans-33" d="M 2597 2516 
Q 3050 2419 3304 2112 
Q 3559 1806 3559 1356 
Q 3559 666 3084 287 
Q 2609 -91 1734 -91 
Q 1441 -91 1130 -33 
Q 819 25 488 141 
L 488 750 
Q 750 597 1062 519 
Q 1375 441 1716 441 
Q 2309 441 2620 675 
Q 2931 909 2931 1356 
Q 2931 1769 2642 2001 
Q 2353 2234 1838 2234 
L 1294 2234 
L 1294 2753 
L 1863 2753 
Q 2328 2753 2575 2939 
Q 2822 3125 2822 3475 
Q 2822 3834 2567 4026 
Q 2313 4219 1838 4219 
Q 1578 4219 1281 4162 
Q 984 4106 628 3988 
L 628 4550 
Q 988 4650 1302 4700 
Q 1616 4750 1894 4750 
Q 2613 4750 3031 4423 
Q 3450 4097 3450 3541 
Q 3450 3153 3228 2886 
Q 3006 2619 2597 2516 
z
" transform="scale(0.015625)"/>
        <path id="DejaVuSans-30" d="M 2034 4250 
Q 1547 4250 1301 3770 
Q 1056 3291 1056 2328 
Q 1056 1369 1301 889 
Q 1547 409 2034 409 
Q 2525 409 2770 889 
Q 3016 1369 3016 2328 
Q 3016 3291 2770 3770 
Q 2525 4250 2034 4250 
z
M 2034 4750 
Q 2819 4750 3233 4129 
Q 3647 3509 3647 2328 
Q 3647 1150 3233 529 
Q 2819 -91 2034 -91 
Q 1250 -91 836 529 
Q 422 1150 422 2328 
Q 422 3509 836 4129 
Q 1250 4750 2034 4750 
z
" transform="scale(0.015625)"/>
       </defs>
       <use xlink:href="#DejaVuSans-2212"/>
       <use xlink:href="#DejaVuSans-33" x="83.789062"/>
       <use xlink:href="#DejaVuSans-30" x="147.412109"/>
       <use xlink:href="#DejaVuSans-30" x="211.035156"/>
       <use xlink:href="#DejaVuSans-30" x="274.658203"/>
      </g>
     </g>
    </g>
    <g id="xtick_2">
     <g id="line2d_3">
      <path d="M 145.294714 273.312 
L 145.294714 7.2 
" clip-path="url(#p037ef65ab7)" style="fill: none; stroke: #b0b0b0; stroke-width: 0.8; stroke-linecap: square"/>
     </g>
     <g id="line2d_4">
      <g>
       <use xlink:href="#md39032bed2" x="145.294714" y="273.312" style="stroke: #000000; stroke-width: 0.8"/>
      </g>
     </g>
     <g id="text_2">
      <!-- −2500 -->
      <g transform="translate(119.922449 291.709656)scale(0.15 -0.15)">
       <defs>
        <path id="DejaVuSans-32" d="M 1228 531 
L 3431 531 
L 3431 0 
L 469 0 
L 469 531 
Q 828 903 1448 1529 
Q 2069 2156 2228 2338 
Q 2531 2678 2651 2914 
Q 2772 3150 2772 3378 
Q 2772 3750 2511 3984 
Q 2250 4219 1831 4219 
Q 1534 4219 1204 4116 
Q 875 4013 500 3803 
L 500 4441 
Q 881 4594 1212 4672 
Q 1544 4750 1819 4750 
Q 2544 4750 2975 4387 
Q 3406 4025 3406 3419 
Q 3406 3131 3298 2873 
Q 3191 2616 2906 2266 
Q 2828 2175 2409 1742 
Q 1991 1309 1228 531 
z
" transform="scale(0.015625)"/>
        <path id="DejaVuSans-35" d="M 691 4666 
L 3169 4666 
L 3169 4134 
L 1269 4134 
L 1269 2991 
Q 1406 3038 1543 3061 
Q 1681 3084 1819 3084 
Q 2600 3084 3056 2656 
Q 3513 2228 3513 1497 
Q 3513 744 3044 326 
Q 2575 -91 1722 -91 
Q 1428 -91 1123 -41 
Q 819 9 494 109 
L 494 744 
Q 775 591 1075 516 
Q 1375 441 1709 441 
Q 2250 441 2565 725 
Q 2881 1009 2881 1497 
Q 2881 1984 2565 2268 
Q 2250 2553 1709 2553 
Q 1456 2553 1204 2497 
Q 953 2441 691 2322 
L 691 4666 
z
" transform="scale(0.015625)"/>
       </defs>
       <use xlink:href="#DejaVuSans-2212"/>
       <use xlink:href="#DejaVuSans-32" x="83.789062"/>
       <use xlink:href="#DejaVuSans-35" x="147.412109"/>
       <use xlink:href="#DejaVuSans-30" x="211.035156"/>
       <use xlink:href="#DejaVuSans-30" x="274.658203"/>
      </g>
     </g>
    </g>
    <g id="xtick_3">
     <g id="line2d_5">
      <path d="M 198.604164 273.312 
L 198.604164 7.2 
" clip-path="url(#p037ef65ab7)" style="fill: none; stroke: #b0b0b0; stroke-width: 0.8; stroke-linecap: square"/>
     </g>
     <g id="line2d_6">
      <g>
       <use xlink:href="#md39032bed2" x="198.604164" y="273.312" style="stroke: #000000; stroke-width: 0.8"/>
      </g>
     </g>
     <g id="text_3">
      <!-- −2000 -->
      <g transform="translate(173.231898 291.709656)scale(0.15 -0.15)">
       <use xlink:href="#DejaVuSans-2212"/>
       <use xlink:href="#DejaVuSans-32" x="83.789062"/>
       <use xlink:href="#DejaVuSans-30" x="147.412109"/>
       <use xlink:href="#DejaVuSans-30" x="211.035156"/>
       <use xlink:href="#DejaVuSans-30" x="274.658203"/>
      </g>
     </g>
    </g>
    <g id="xtick_4">
     <g id="line2d_7">
      <path d="M 251.913613 273.312 
L 251.913613 7.2 
" clip-path="url(#p037ef65ab7)" style="fill: none; stroke: #b0b0b0; stroke-width: 0.8; stroke-linecap: square"/>
     </g>
     <g id="line2d_8">
      <g>
       <use xlink:href="#md39032bed2" x="251.913613" y="273.312" style="stroke: #000000; stroke-width: 0.8"/>
      </g>
     </g>
     <g id="text_4">
      <!-- −1500 -->
      <g transform="translate(226.541347 291.709656)scale(0.15 -0.15)">
       <defs>
        <path id="DejaVuSans-31" d="M 794 531 
L 1825 531 
L 1825 4091 
L 703 3866 
L 703 4441 
L 1819 4666 
L 2450 4666 
L 2450 531 
L 3481 531 
L 3481 0 
L 794 0 
L 794 531 
z
" transform="scale(0.015625)"/>
       </defs>
       <use xlink:href="#DejaVuSans-2212"/>
       <use xlink:href="#DejaVuSans-31" x="83.789062"/>
       <use xlink:href="#DejaVuSans-35" x="147.412109"/>
       <use xlink:href="#DejaVuSans-30" x="211.035156"/>
       <use xlink:href="#DejaVuSans-30" x="274.658203"/>
      </g>
     </g>
    </g>
    <g id="xtick_5">
     <g id="line2d_9">
      <path d="M 305.223062 273.312 
L 305.223062 7.2 
" clip-path="url(#p037ef65ab7)" style="fill: none; stroke: #b0b0b0; stroke-width: 0.8; stroke-linecap: square"/>
     </g>
     <g id="line2d_10">
      <g>
       <use xlink:href="#md39032bed2" x="305.223062" y="273.312" style="stroke: #000000; stroke-width: 0.8"/>
      </g>
     </g>
     <g id="text_5">
      <!-- −1000 -->
      <g transform="translate(279.850796 291.709656)scale(0.15 -0.15)">
       <use xlink:href="#DejaVuSans-2212"/>
       <use xlink:href="#DejaVuSans-31" x="83.789062"/>
       <use xlink:href="#DejaVuSans-30" x="147.412109"/>
       <use xlink:href="#DejaVuSans-30" x="211.035156"/>
       <use xlink:href="#DejaVuSans-30" x="274.658203"/>
      </g>
     </g>
    </g>
    <g id="xtick_6">
     <g id="line2d_11">
      <path d="M 358.532511 273.312 
L 358.532511 7.2 
" clip-path="url(#p037ef65ab7)" style="fill: none; stroke: #b0b0b0; stroke-width: 0.8; stroke-linecap: square"/>
     </g>
     <g id="line2d_12">
      <g>
       <use xlink:href="#md39032bed2" x="358.532511" y="273.312" style="stroke: #000000; stroke-width: 0.8"/>
      </g>
     </g>
     <g id="text_6">
      <!-- −500 -->
      <g transform="translate(337.93212 291.709656)scale(0.15 -0.15)">
       <use xlink:href="#DejaVuSans-2212"/>
       <use xlink:href="#DejaVuSans-35" x="83.789062"/>
       <use xlink:href="#DejaVuSans-30" x="147.412109"/>
       <use xlink:href="#DejaVuSans-30" x="211.035156"/>
      </g>
     </g>
    </g>
    <g id="xtick_7">
     <g id="line2d_13">
      <path d="M 411.84196 273.312 
L 411.84196 7.2 
" clip-path="url(#p037ef65ab7)" style="fill: none; stroke: #b0b0b0; stroke-width: 0.8; stroke-linecap: square"/>
     </g>
     <g id="line2d_14">
      <g>
       <use xlink:href="#md39032bed2" x="411.84196" y="273.312" style="stroke: #000000; stroke-width: 0.8"/>
      </g>
     </g>
     <g id="text_7">
      <!-- 0 -->
      <g transform="translate(407.070085 291.709656)scale(0.15 -0.15)">
       <use xlink:href="#DejaVuSans-30"/>
      </g>
     </g>
    </g>
    <g id="text_8">
     <!-- Position (μm) -->
     <g transform="translate(183.502187 314.026062)scale(0.2 -0.2)">
      <defs>
       <path id="DejaVuSans-50" d="M 1259 4147 
L 1259 2394 
L 2053 2394 
Q 2494 2394 2734 2622 
Q 2975 2850 2975 3272 
Q 2975 3691 2734 3919 
Q 2494 4147 2053 4147 
L 1259 4147 
z
M 628 4666 
L 2053 4666 
Q 2838 4666 3239 4311 
Q 3641 3956 3641 3272 
Q 3641 2581 3239 2228 
Q 2838 1875 2053 1875 
L 1259 1875 
L 1259 0 
L 628 0 
L 628 4666 
z
" transform="scale(0.015625)"/>
       <path id="DejaVuSans-6f" d="M 1959 3097 
Q 1497 3097 1228 2736 
Q 959 2375 959 1747 
Q 959 1119 1226 758 
Q 1494 397 1959 397 
Q 2419 397 2687 759 
Q 2956 1122 2956 1747 
Q 2956 2369 2687 2733 
Q 2419 3097 1959 3097 
z
M 1959 3584 
Q 2709 3584 3137 3096 
Q 3566 2609 3566 1747 
Q 3566 888 3137 398 
Q 2709 -91 1959 -91 
Q 1206 -91 779 398 
Q 353 888 353 1747 
Q 353 2609 779 3096 
Q 1206 3584 1959 3584 
z
" transform="scale(0.015625)"/>
       <path id="DejaVuSans-73" d="M 2834 3397 
L 2834 2853 
Q 2591 2978 2328 3040 
Q 2066 3103 1784 3103 
Q 1356 3103 1142 2972 
Q 928 2841 928 2578 
Q 928 2378 1081 2264 
Q 1234 2150 1697 2047 
L 1894 2003 
Q 2506 1872 2764 1633 
Q 3022 1394 3022 966 
Q 3022 478 2636 193 
Q 2250 -91 1575 -91 
Q 1294 -91 989 -36 
Q 684 19 347 128 
L 347 722 
Q 666 556 975 473 
Q 1284 391 1588 391 
Q 1994 391 2212 530 
Q 2431 669 2431 922 
Q 2431 1156 2273 1281 
Q 2116 1406 1581 1522 
L 1381 1569 
Q 847 1681 609 1914 
Q 372 2147 372 2553 
Q 372 3047 722 3315 
Q 1072 3584 1716 3584 
Q 2034 3584 2315 3537 
Q 2597 3491 2834 3397 
z
" transform="scale(0.015625)"/>
       <path id="DejaVuSans-69" d="M 603 3500 
L 1178 3500 
L 1178 0 
L 603 0 
L 603 3500 
z
M 603 4863 
L 1178 4863 
L 1178 4134 
L 603 4134 
L 603 4863 
z
" transform="scale(0.015625)"/>
       <path id="DejaVuSans-74" d="M 1172 4494 
L 1172 3500 
L 2356 3500 
L 2356 3053 
L 1172 3053 
L 1172 1153 
Q 1172 725 1289 603 
Q 1406 481 1766 481 
L 2356 481 
L 2356 0 
L 1766 0 
Q 1100 0 847 248 
Q 594 497 594 1153 
L 594 3053 
L 172 3053 
L 172 3500 
L 594 3500 
L 594 4494 
L 1172 4494 
z
" transform="scale(0.015625)"/>
       <path id="DejaVuSans-6e" d="M 3513 2113 
L 3513 0 
L 2938 0 
L 2938 2094 
Q 2938 2591 2744 2837 
Q 2550 3084 2163 3084 
Q 1697 3084 1428 2787 
Q 1159 2491 1159 1978 
L 1159 0 
L 581 0 
L 581 3500 
L 1159 3500 
L 1159 2956 
Q 1366 3272 1645 3428 
Q 1925 3584 2291 3584 
Q 2894 3584 3203 3211 
Q 3513 2838 3513 2113 
z
" transform="scale(0.015625)"/>
       <path id="DejaVuSans-20" transform="scale(0.015625)"/>
       <path id="DejaVuSans-28" d="M 1984 4856 
Q 1566 4138 1362 3434 
Q 1159 2731 1159 2009 
Q 1159 1288 1364 580 
Q 1569 -128 1984 -844 
L 1484 -844 
Q 1016 -109 783 600 
Q 550 1309 550 2009 
Q 550 2706 781 3412 
Q 1013 4119 1484 4856 
L 1984 4856 
z
" transform="scale(0.015625)"/>
       <path id="DejaVuSans-3bc" d="M 544 -1331 
L 544 3500 
L 1119 3500 
L 1119 1325 
Q 1119 872 1334 640 
Q 1550 409 1972 409 
Q 2434 409 2667 671 
Q 2900 934 2900 1459 
L 2900 3500 
L 3475 3500 
L 3475 806 
Q 3475 619 3529 530 
Q 3584 441 3700 441 
Q 3728 441 3778 458 
Q 3828 475 3916 513 
L 3916 50 
Q 3788 -22 3673 -56 
Q 3559 -91 3450 -91 
Q 3234 -91 3106 31 
Q 2978 153 2931 403 
Q 2775 156 2548 32 
Q 2322 -91 2016 -91 
Q 1697 -91 1473 31 
Q 1250 153 1119 397 
L 1119 -1331 
L 544 -1331 
z
" transform="scale(0.015625)"/>
       <path id="DejaVuSans-6d" d="M 3328 2828 
Q 3544 3216 3844 3400 
Q 4144 3584 4550 3584 
Q 5097 3584 5394 3201 
Q 5691 2819 5691 2113 
L 5691 0 
L 5113 0 
L 5113 2094 
Q 5113 2597 4934 2840 
Q 4756 3084 4391 3084 
Q 3944 3084 3684 2787 
Q 3425 2491 3425 1978 
L 3425 0 
L 2847 0 
L 2847 2094 
Q 2847 2600 2669 2842 
Q 2491 3084 2119 3084 
Q 1678 3084 1418 2786 
Q 1159 2488 1159 1978 
L 1159 0 
L 581 0 
L 581 3500 
L 1159 3500 
L 1159 2956 
Q 1356 3278 1631 3431 
Q 1906 3584 2284 3584 
Q 2666 3584 2933 3390 
Q 3200 3197 3328 2828 
z
" transform="scale(0.015625)"/>
       <path id="DejaVuSans-29" d="M 513 4856 
L 1013 4856 
Q 1481 4119 1714 3412 
Q 1947 2706 1947 2009 
Q 1947 1309 1714 600 
Q 1481 -109 1013 -844 
L 513 -844 
Q 928 -128 1133 580 
Q 1338 1288 1338 2009 
Q 1338 2731 1133 3434 
Q 928 4138 513 4856 
z
" transform="scale(0.015625)"/>
      </defs>
      <use xlink:href="#DejaVuSans-50"/>
      <use xlink:href="#DejaVuSans-6f" x="56.677734"/>
      <use xlink:href="#DejaVuSans-73" x="117.859375"/>
      <use xlink:href="#DejaVuSans-69" x="169.958984"/>
      <use xlink:href="#DejaVuSans-74" x="197.742188"/>
      <use xlink:href="#DejaVuSans-69" x="236.951172"/>
      <use xlink:href="#DejaVuSans-6f" x="264.734375"/>
      <use xlink:href="#DejaVuSans-6e" x="325.916016"/>
      <use xlink:href="#DejaVuSans-20" x="389.294922"/>
      <use xlink:href="#DejaVuSans-28" x="421.082031"/>
      <use xlink:href="#DejaVuSans-3bc" x="460.095703"/>
      <use xlink:href="#DejaVuSans-6d" x="523.71875"/>
      <use xlink:href="#DejaVuSans-29" x="621.130859"/>
     </g>
    </g>
   </g>
   <g id="matplotlib.axis_2">
    <g id="ytick_1">
     <g id="line2d_15">
      <path d="M 70.954688 242.8992 
L 428.074687 242.8992 
" clip-path="url(#p037ef65ab7)" style="fill: none; stroke: #b0b0b0; stroke-width: 0.8; stroke-linecap: square"/>
     </g>
     <g id="line2d_16">
      <defs>
       <path id="m6f3f5b6aff" d="M 0 0 
L -3.5 0 
" style="stroke: #000000; stroke-width: 0.8"/>
      </defs>
      <g>
       <use xlink:href="#m6f3f5b6aff" x="70.954688" y="242.8992" style="stroke: #000000; stroke-width: 0.8"/>
      </g>
     </g>
     <g id="text_9">
      <!-- 2.5 -->
      <g transform="translate(40.1 248.598028)scale(0.15 -0.15)">
       <defs>
        <path id="DejaVuSans-2e" d="M 684 794 
L 1344 794 
L 1344 0 
L 684 0 
L 684 794 
z
" transform="scale(0.015625)"/>
       </defs>
       <use xlink:href="#DejaVuSans-32"/>
       <use xlink:href="#DejaVuSans-2e" x="63.623047"/>
       <use xlink:href="#DejaVuSans-35" x="95.410156"/>
      </g>
     </g>
    </g>
    <g id="ytick_2">
     <g id="line2d_17">
      <path d="M 70.954688 204.8832 
L 428.074687 204.8832 
" clip-path="url(#p037ef65ab7)" style="fill: none; stroke: #b0b0b0; stroke-width: 0.8; stroke-linecap: square"/>
     </g>
     <g id="line2d_18">
      <g>
       <use xlink:href="#m6f3f5b6aff" x="70.954688" y="204.8832" style="stroke: #000000; stroke-width: 0.8"/>
      </g>
     </g>
     <g id="text_10">
      <!-- 5.0 -->
      <g transform="translate(40.1 210.582028)scale(0.15 -0.15)">
       <use xlink:href="#DejaVuSans-35"/>
       <use xlink:href="#DejaVuSans-2e" x="63.623047"/>
       <use xlink:href="#DejaVuSans-30" x="95.410156"/>
      </g>
     </g>
    </g>
    <g id="ytick_3">
     <g id="line2d_19">
      <path d="M 70.954688 166.8672 
L 428.074687 166.8672 
" clip-path="url(#p037ef65ab7)" style="fill: none; stroke: #b0b0b0; stroke-width: 0.8; stroke-linecap: square"/>
     </g>
     <g id="line2d_20">
      <g>
       <use xlink:href="#m6f3f5b6aff" x="70.954688" y="166.8672" style="stroke: #000000; stroke-width: 0.8"/>
      </g>
     </g>
     <g id="text_11">
      <!-- 7.5 -->
      <g transform="translate(40.1 172.566028)scale(0.15 -0.15)">
       <defs>
        <path id="DejaVuSans-37" d="M 525 4666 
L 3525 4666 
L 3525 4397 
L 1831 0 
L 1172 0 
L 2766 4134 
L 525 4134 
L 525 4666 
z
" transform="scale(0.015625)"/>
       </defs>
       <use xlink:href="#DejaVuSans-37"/>
       <use xlink:href="#DejaVuSans-2e" x="63.623047"/>
       <use xlink:href="#DejaVuSans-35" x="95.410156"/>
      </g>
     </g>
    </g>
    <g id="ytick_4">
     <g id="line2d_21">
      <path d="M 70.954688 128.8512 
L 428.074687 128.8512 
" clip-path="url(#p037ef65ab7)" style="fill: none; stroke: #b0b0b0; stroke-width: 0.8; stroke-linecap: square"/>
     </g>
     <g id="line2d_22">
      <g>
       <use xlink:href="#m6f3f5b6aff" x="70.954688" y="128.8512" style="stroke: #000000; stroke-width: 0.8"/>
      </g>
     </g>
     <g id="text_12">
      <!-- 10.0 -->
      <g transform="translate(30.55625 134.550028)scale(0.15 -0.15)">
       <use xlink:href="#DejaVuSans-31"/>
       <use xlink:href="#DejaVuSans-30" x="63.623047"/>
       <use xlink:href="#DejaVuSans-2e" x="127.246094"/>
       <use xlink:href="#DejaVuSans-30" x="159.033203"/>
      </g>
     </g>
    </g>
    <g id="ytick_5">
     <g id="line2d_23">
      <path d="M 70.954688 90.8352 
L 428.074687 90.8352 
" clip-path="url(#p037ef65ab7)" style="fill: none; stroke: #b0b0b0; stroke-width: 0.8; stroke-linecap: square"/>
     </g>
     <g id="line2d_24">
      <g>
       <use xlink:href="#m6f3f5b6aff" x="70.954688" y="90.8352" style="stroke: #000000; stroke-width: 0.8"/>
      </g>
     </g>
     <g id="text_13">
      <!-- 12.5 -->
      <g transform="translate(30.55625 96.534028)scale(0.15 -0.15)">
       <use xlink:href="#DejaVuSans-31"/>
       <use xlink:href="#DejaVuSans-32" x="63.623047"/>
       <use xlink:href="#DejaVuSans-2e" x="127.246094"/>
       <use xlink:href="#DejaVuSans-35" x="159.033203"/>
      </g>
     </g>
    </g>
    <g id="ytick_6">
     <g id="line2d_25">
      <path d="M 70.954688 52.8192 
L 428.074687 52.8192 
" clip-path="url(#p037ef65ab7)" style="fill: none; stroke: #b0b0b0; stroke-width: 0.8; stroke-linecap: square"/>
     </g>
     <g id="line2d_26">
      <g>
       <use xlink:href="#m6f3f5b6aff" x="70.954688" y="52.8192" style="stroke: #000000; stroke-width: 0.8"/>
      </g>
     </g>
     <g id="text_14">
      <!-- 15.0 -->
      <g transform="translate(30.55625 58.518028)scale(0.15 -0.15)">
       <use xlink:href="#DejaVuSans-31"/>
       <use xlink:href="#DejaVuSans-35" x="63.623047"/>
       <use xlink:href="#DejaVuSans-2e" x="127.246094"/>
       <use xlink:href="#DejaVuSans-30" x="159.033203"/>
      </g>
     </g>
    </g>
    <g id="ytick_7">
     <g id="line2d_27">
      <path d="M 70.954688 14.8032 
L 428.074687 14.8032 
" clip-path="url(#p037ef65ab7)" style="fill: none; stroke: #b0b0b0; stroke-width: 0.8; stroke-linecap: square"/>
     </g>
     <g id="line2d_28">
      <g>
       <use xlink:href="#m6f3f5b6aff" x="70.954688" y="14.8032" style="stroke: #000000; stroke-width: 0.8"/>
      </g>
     </g>
     <g id="text_15">
      <!-- 17.5 -->
      <g transform="translate(30.55625 20.502028)scale(0.15 -0.15)">
       <use xlink:href="#DejaVuSans-31"/>
       <use xlink:href="#DejaVuSans-37" x="63.623047"/>
       <use xlink:href="#DejaVuSans-2e" x="127.246094"/>
       <use xlink:href="#DejaVuSans-35" x="159.033203"/>
      </g>
     </g>
    </g>
    <g id="text_16">
     <!-- Max (V) -->
     <g transform="translate(22.396875 178.752875)rotate(-90)scale(0.2 -0.2)">
      <defs>
       <path id="DejaVuSans-4d" d="M 628 4666 
L 1569 4666 
L 2759 1491 
L 3956 4666 
L 4897 4666 
L 4897 0 
L 4281 0 
L 4281 4097 
L 3078 897 
L 2444 897 
L 1241 4097 
L 1241 0 
L 628 0 
L 628 4666 
z
" transform="scale(0.015625)"/>
       <path id="DejaVuSans-61" d="M 2194 1759 
Q 1497 1759 1228 1600 
Q 959 1441 959 1056 
Q 959 750 1161 570 
Q 1363 391 1709 391 
Q 2188 391 2477 730 
Q 2766 1069 2766 1631 
L 2766 1759 
L 2194 1759 
z
M 3341 1997 
L 3341 0 
L 2766 0 
L 2766 531 
Q 2569 213 2275 61 
Q 1981 -91 1556 -91 
Q 1019 -91 701 211 
Q 384 513 384 1019 
Q 384 1609 779 1909 
Q 1175 2209 1959 2209 
L 2766 2209 
L 2766 2266 
Q 2766 2663 2505 2880 
Q 2244 3097 1772 3097 
Q 1472 3097 1187 3025 
Q 903 2953 641 2809 
L 641 3341 
Q 956 3463 1253 3523 
Q 1550 3584 1831 3584 
Q 2591 3584 2966 3190 
Q 3341 2797 3341 1997 
z
" transform="scale(0.015625)"/>
       <path id="DejaVuSans-78" d="M 3513 3500 
L 2247 1797 
L 3578 0 
L 2900 0 
L 1881 1375 
L 863 0 
L 184 0 
L 1544 1831 
L 300 3500 
L 978 3500 
L 1906 2253 
L 2834 3500 
L 3513 3500 
z
" transform="scale(0.015625)"/>
       <path id="DejaVuSans-56" d="M 1831 0 
L 50 4666 
L 709 4666 
L 2188 738 
L 3669 4666 
L 4325 4666 
L 2547 0 
L 1831 0 
z
" transform="scale(0.015625)"/>
      </defs>
      <use xlink:href="#DejaVuSans-4d"/>
      <use xlink:href="#DejaVuSans-61" x="86.279297"/>
      <use xlink:href="#DejaVuSans-78" x="147.558594"/>
      <use xlink:href="#DejaVuSans-20" x="206.738281"/>
      <use xlink:href="#DejaVuSans-28" x="238.525391"/>
      <use xlink:href="#DejaVuSans-56" x="277.539062"/>
      <use xlink:href="#DejaVuSans-29" x="345.947266"/>
     </g>
    </g>
   </g>
   <g id="line2d_29">
    <path d="M 87.187415 180.16706 
L 87.294034 179.053649 
L 87.400653 174.827785 
L 88.040366 110.451319 
L 88.680079 86.333088 
L 89.959506 49.880777 
L 90.385982 41.064465 
L 90.59922 40.685857 
L 90.705838 40.799308 
L 90.919076 41.671224 
L 91.238933 44.67615 
L 91.665409 51.985159 
L 92.198503 66.315703 
L 92.944835 94.42085 
L 94.544119 160.342211 
L 94.650738 160.038823 
L 95.290451 154.278125 
L 96.35664 141.853017 
L 97.529448 128.550325 
L 98.062542 124.797814 
L 98.382399 123.783915 
L 98.595637 123.730316 
L 98.808875 124.221286 
L 99.128731 126.038805 
L 99.555207 130.371817 
L 100.088301 139.224932 
L 100.941253 159.012828 
L 102.114061 189.234366 
L 102.433917 186.022263 
L 104.033201 154.114577 
L 104.566295 148.571966 
L 104.886152 146.779651 
L 105.206009 146.104273 
L 105.312627 146.107072 
L 105.525865 146.478802 
L 105.845722 147.749105 
L 106.05896 143.199187 
L 106.272198 142.723225 
L 106.378816 142.667949 
L 106.592054 142.941477 
L 106.805292 143.74435 
L 107.125149 145.960933 
L 107.551624 150.76462 
L 108.084719 159.420215 
L 108.93767 177.563305 
L 109.577383 193.298398 
L 111.496524 156.338564 
L 112.029618 150.738131 
L 112.349475 148.904588 
L 112.562713 148.331051 
L 112.77595 148.263007 
L 112.989188 148.668104 
L 113.202426 149.457791 
L 113.309045 151.078025 
L 113.522283 148.465534 
L 113.842139 147.868687 
L 113.948758 147.891016 
L 114.161996 148.31188 
L 114.481853 149.911379 
L 114.908328 153.85246 
L 115.441423 161.460207 
L 116.187755 175.934109 
L 117.040706 194.791475 
L 117.68042 183.345857 
L 118.746609 164.148982 
L 119.279703 157.749246 
L 119.706179 154.732036 
L 120.026035 153.670394 
L 120.239273 153.567092 
L 120.452511 153.770361 
L 120.665749 153.394167 
L 120.772368 153.351484 
L 120.985606 149.601861 
L 121.305462 148.928726 
L 121.412081 148.94092 
L 121.625319 149.339752 
L 121.945176 150.902578 
L 122.371651 154.789571 
L 122.904746 162.322952 
L 123.651078 176.678525 
L 124.504029 195.487233 
L 125.890075 170.080732 
L 126.529788 160.81159 
L 127.062883 156.019582 
L 127.382739 154.549479 
L 127.595977 154.306007 
L 127.809215 154.266994 
L 128.129072 153.507492 
L 128.235691 153.451907 
L 128.448928 149.152257 
L 128.768785 147.94168 
L 128.982023 147.685671 
L 129.088642 147.738266 
L 129.30188 148.226327 
L 129.621736 149.966285 
L 130.048212 154.242427 
L 130.581306 162.670566 
L 131.22102 176.662238 
L 131.967352 195.320684 
L 133.566636 165.411056 
L 134.09973 158.458833 
L 134.526206 154.82844 
L 134.846062 153.371662 
L 135.699014 151.463198 
L 135.912251 151.761577 
L 136.232108 149.27941 
L 136.551965 147.229829 
L 136.765203 146.969501 
L 136.97844 147.469962 
L 137.191678 148.747908 
L 137.511535 152.114967 
L 137.93801 159.158054 
L 138.577724 174.21259 
L 139.324056 193.318532 
L 139.430675 194.216266 
L 139.537294 193.565277 
L 140.177007 182.186347 
L 141.029958 163.465242 
L 141.563053 156.608452 
L 141.88291 154.732063 
L 142.096147 154.443012 
L 142.202766 154.58282 
L 142.309385 154.907875 
L 142.735861 154.404726 
L 143.055718 153.644919 
L 143.162336 153.58064 
L 143.375574 153.895103 
L 143.695431 154.962025 
L 144.015288 153.191014 
L 144.228525 152.877241 
L 144.335144 152.994209 
L 144.548382 153.789196 
L 144.868239 156.391416 
L 145.294714 162.396389 
L 145.827809 173.440768 
L 146.787379 195.113589 
L 146.893998 195.723919 
L 147.000617 195.194114 
L 147.64033 183.359693 
L 148.386662 166.576107 
L 148.919757 158.975117 
L 149.239614 156.596404 
L 149.452851 155.967438 
L 149.55947 155.939403 
L 149.879327 156.443391 
L 149.985946 156.320198 
L 150.412421 154.682667 
L 150.625659 154.406963 
L 150.838897 154.705568 
L 151.158754 155.854722 
L 151.691848 154.140951 
L 151.798467 154.253515 
L 152.011705 155.045418 
L 152.331562 157.656057 
L 152.758037 163.688695 
L 153.291132 174.777334 
L 154.250702 195.933505 
L 154.357321 196.353277 
L 154.46394 196.03622 
L 155.210272 182.671595 
L 155.956604 166.815909 
L 156.489699 160.103601 
L 156.809555 158.294018 
L 157.022793 158.041407 
L 157.236031 158.17172 
L 157.982363 155.227726 
L 158.088982 155.133444 
L 158.30222 155.470798 
L 158.622077 156.662346 
L 158.728696 157.230483 
L 159.048552 156.029052 
L 159.155171 155.97798 
L 159.26179 156.114745 
L 159.475028 156.959958 
L 159.794885 159.659339 
L 160.22136 165.820134 
L 160.754455 177.055077 
L 161.500787 193.508339 
L 161.820644 197.258995 
L 161.927263 197.121119 
L 162.780214 181.84757 
L 163.419927 168.635347 
L 163.953022 161.924011 
L 164.272878 160.111193 
L 164.486116 159.855552 
L 164.592735 160.009929 
L 164.912592 158.192801 
L 165.339067 156.514969 
L 165.552305 156.217678 
L 165.765543 156.570479 
L 166.0854 157.781734 
L 166.405256 159.089014 
L 166.618494 158.801545 
L 166.725113 158.934695 
L 166.938351 159.766323 
L 167.258207 162.429234 
L 167.684683 168.509099 
L 168.217778 179.60125 
L 168.857491 192.7941 
L 169.283966 198.079453 
L 169.390585 198.073224 
L 170.350155 181.296328 
L 170.989869 168.994096 
L 171.416344 163.982228 
L 171.736201 162.151105 
L 172.056058 161.424896 
L 172.589152 158.230463 
L 172.909009 157.355483 
L 173.015628 157.245686 
L 173.228866 157.615651 
L 173.548722 158.848354 
L 173.975198 161.505673 
L 174.081817 161.455412 
L 174.188436 161.589419 
L 174.401674 162.417345 
L 174.72153 165.059613 
L 175.148006 171.083023 
L 175.6811 182.059333 
L 176.107576 190.343084 
L 176.64067 198.888997 
L 176.853908 198.912744 
L 177.600241 187.095808 
L 178.026716 178.728947 
L 178.559811 169.59462 
L 178.986286 165.306482 
L 180.265713 158.579683 
L 180.478951 158.252026 
L 180.692189 158.637638 
L 181.012045 159.890057 
L 181.438521 162.759623 
L 181.651759 164.162146 
L 181.864997 164.961015 
L 182.184853 167.56636 
L 182.611329 173.54708 
L 184.103993 199.697143 
L 184.317231 199.719469 
L 184.743707 193.245597 
L 186.449609 167.390817 
L 186.876085 164.386162 
L 187.409179 160.728093 
L 187.729036 159.544735 
L 187.942274 159.203018 
L 188.155512 159.606098 
L 188.475368 160.88322 
L 188.901844 163.780581 
L 189.861414 172.763073 
L 190.394508 182.171923 
L 191.567316 200.536357 
L 191.780554 200.559881 
L 191.993792 197.739347 
L 193.699694 171.416194 
L 194.765883 162.302219 
L 195.192359 160.523318 
L 195.405597 160.165782 
L 195.618834 160.585584 
L 195.938691 161.886133 
L 196.365167 164.809571 
L 196.898261 170.164023 
L 197.644593 180.111627 
L 199.137258 201.431122 
L 199.243877 201.425928 
L 199.457115 198.8253 
L 201.056398 174.688189 
L 201.80273 166.511307 
L 202.335825 162.799875 
L 202.762301 161.346821 
L 202.868919 161.207376 
L 203.082157 161.646958 
L 203.402014 162.974758 
L 203.82849 165.931024 
L 204.361584 171.320794 
L 205.107916 181.303817 
L 206.600581 202.4197 
L 206.7072 202.417045 
L 206.813819 201.734161 
L 208.519721 175.894841 
L 209.266053 167.689135 
L 209.799148 163.94999 
L 210.225623 162.472324 
L 210.332242 162.32518 
L 210.54548 162.783196 
L 210.865337 164.141124 
L 211.291812 167.135634 
L 211.824907 172.566143 
L 212.571239 182.589662 
L 214.063904 203.458809 
L 214.170523 203.455708 
L 214.277142 202.92545 
L 215.983044 176.894848 
L 216.729376 168.732711 
L 217.262471 164.994919 
L 217.688946 163.502132 
L 217.795565 163.349009 
L 218.008803 163.825675 
L 218.32866 165.20187 
L 218.755135 168.204501 
L 219.28823 173.61661 
L 220.141181 185.113012 
L 221.420608 203.59729 
L 221.633846 203.596235 
L 221.740464 203.075221 
L 223.446367 177.169966 
L 224.192699 168.805823 
L 224.725794 164.916821 
L 225.152269 163.301002 
L 225.258888 163.138962 
L 225.472126 163.584979 
L 225.791983 164.927985 
L 226.218458 167.873322 
L 226.751553 173.218965 
L 227.497885 183.059986 
L 228.883931 203.040149 
L 229.097168 202.991631 
L 229.203787 202.810702 
L 230.589833 178.063454 
L 231.122928 169.071286 
L 231.549403 164.949087 
L 231.86926 163.77935 
L 231.975879 163.420375 
L 232.508973 160.019876 
L 232.82883 159.142749 
L 232.935449 159.167682 
L 233.148687 159.610061 
L 233.468543 161.223522 
L 234.108257 166.609711 
L 234.74797 174.192606 
L 236.66711 199.63969 
L 236.773729 199.489205 
L 236.880348 198.729462 
L 237.520061 186.16866 
L 238.373013 165.188106 
L 238.906107 157.147309 
L 239.225964 154.719164 
L 239.439202 154.141906 
L 239.545821 154.162676 
L 239.759058 154.805809 
L 240.078915 156.871209 
L 240.292153 155.717291 
L 240.505391 155.509502 
L 240.718628 155.846919 
L 241.038485 157.335586 
L 241.464961 160.940712 
L 242.104674 168.818655 
L 244.343671 198.412009 
L 244.45029 199.44953 
L 244.556909 198.956471 
L 244.876765 192.682562 
L 245.836336 168.220363 
L 246.36943 159.433687 
L 246.689287 156.493251 
L 247.009143 154.878241 
L 247.115762 154.941814 
L 247.329 155.68002 
L 247.648857 158.269068 
L 247.755476 158.236245 
L 247.968713 157.77051 
L 248.075332 157.748167 
L 248.28857 158.133406 
L 248.608427 159.726621 
L 249.034902 163.519026 
L 249.674616 171.723639 
L 251.700375 199.623219 
L 251.913613 201.213873 
L 252.020232 200.733285 
L 252.553326 190.350689 
L 253.406277 169.52574 
L 253.939372 161.47316 
L 254.15261 159.125333 
L 254.259228 160.560545 
L 254.472466 159.943696 
L 254.579085 159.937846 
L 254.685704 160.13027 
L 254.792323 159.805512 
L 255.218799 157.141135 
L 255.432036 156.673928 
L 255.538655 156.665687 
L 255.751893 157.097531 
L 256.07175 158.820585 
L 256.498225 162.867209 
L 257.137939 171.519458 
L 258.737222 194.351758 
L 259.270317 193.984812 
L 259.483554 193.841683 
L 259.696792 193.127968 
L 261.722551 159.811877 
L 262.255646 154.319422 
L 262.575503 152.359846 
L 262.78874 152.068692 
L 262.895359 152.162711 
L 263.108597 152.826435 
L 263.428454 154.956639 
L 264.068167 161.737317 
L 264.707881 171.202382 
L 265.880688 189.56358 
L 266.093926 189.471959 
L 266.413783 189.121417 
L 266.73364 189.219927 
L 266.946877 189.369913 
L 267.160115 188.796337 
L 267.266734 188.213009 
L 268.65278 162.785759 
L 269.399112 153.133069 
L 269.932207 149.070842 
L 270.038825 148.719862 
L 270.145444 148.790369 
L 270.358682 149.428006 
L 270.785158 152.075604 
L 271.211633 156.345534 
L 271.851347 165.466508 
L 272.810917 183.322841 
L 273.024155 186.944663 
L 273.237392 187.2253 
L 273.45063 187.190011 
L 273.770487 186.581082 
L 273.877106 186.663194 
L 273.983725 186.773956 
L 274.196962 187.694491 
L 274.4102 187.414745 
L 274.623438 186.82581 
L 275.263151 174.37948 
L 276.222722 157.689703 
L 276.862435 149.812388 
L 277.288911 146.531743 
L 277.502148 145.550239 
L 277.715386 146.072588 
L 278.035243 147.794732 
L 278.461718 151.629023 
L 278.994813 158.614037 
L 279.741145 171.520355 
L 280.487477 185.480076 
L 280.700715 185.796559 
L 280.807334 185.833125 
L 281.020572 185.491568 
L 281.23381 185.11242 
L 281.660285 185.832597 
L 281.873523 185.674111 
L 282.086761 185.201881 
L 282.19338 184.145402 
L 283.366188 161.911976 
L 284.11252 151.214272 
L 284.645615 146.571149 
L 284.965471 145.257193 
L 285.285328 146.575565 
L 285.711803 149.89144 
L 286.244898 156.315511 
L 286.99123 168.696151 
L 288.057419 186.691327 
L 288.270657 186.888155 
L 288.697133 186.263843 
L 289.123608 186.989053 
L 289.336846 186.845559 
L 289.550084 186.396245 
L 289.656703 185.898877 
L 290.829511 164.38191 
L 291.682462 152.631044 
L 292.108937 149.224859 
L 292.428794 148.311604 
L 292.642032 149.019642 
L 292.961889 150.96556 
L 293.388364 155.009736 
L 294.028078 163.776502 
L 294.881029 179.064686 
L 295.307504 187.008906 
L 295.520742 187.452036 
L 295.73398 187.235228 
L 296.160456 186.75302 
L 296.69355 187.625331 
L 296.906788 187.426231 
L 297.120026 186.933671 
L 297.439882 181.856928 
L 298.719309 160.542558 
L 299.252404 154.529671 
L 299.57226 152.585303 
L 299.785498 152.076689 
L 299.998736 154.05009 
L 300.318593 155.60324 
L 301.064925 160.879597 
L 301.598019 168.314839 
L 302.344352 182.846173 
L 302.664208 188.144254 
L 303.090684 187.508395 
L 303.410541 187.296392 
L 303.51716 187.276247 
L 304.263492 188.892212 
L 304.47673 188.795418 
L 304.583348 188.628168 
L 304.796586 185.807691 
L 306.076013 165.199429 
L 306.609108 159.796275 
L 307.248821 155.805514 
L 307.35544 155.996354 
L 307.568678 155.704647 
L 307.675297 155.764596 
L 307.888534 156.30311 
L 308.208391 158.155972 
L 308.634867 162.494182 
L 309.167961 170.521059 
L 310.127531 188.671315 
L 310.23415 188.489506 
L 310.554007 188.184148 
L 310.767245 188.419547 
L 310.980482 188.604636 
L 311.406958 189.415711 
L 311.513577 189.656615 
L 311.726815 189.589334 
L 311.940052 189.431301 
L 312.15329 187.075732 
L 313.432717 166.394297 
L 314.07243 159.16687 
L 314.498906 156.31069 
L 314.712144 155.599996 
L 314.925382 156.460576 
L 315.138619 156.843476 
L 315.458476 158.402906 
L 315.884952 162.23256 
L 316.418046 169.417552 
L 317.590854 189.467733 
L 317.697473 189.399654 
L 318.230567 188.903877 
L 318.443805 189.052511 
L 318.763662 189.799113 
L 319.083519 190.455718 
L 319.190138 190.430391 
L 319.509994 189.503234 
L 319.723232 188.643158 
L 319.93647 185.717214 
L 321.002659 168.922357 
L 321.535753 162.374795 
L 321.962229 159.477954 
L 322.175467 158.95143 
L 322.282086 160.448694 
L 322.388705 159.079773 
L 322.708561 160.870222 
L 323.241656 165.532276 
L 323.77475 172.202603 
L 325.160796 191.438113 
L 325.267415 191.412865 
L 325.480653 191.122149 
L 325.587271 191.286795 
L 326.013747 191.135354 
L 326.440223 192.128921 
L 326.546842 191.920549 
L 326.760079 191.982232 
L 326.973317 191.753198 
L 327.293174 190.823165 
L 329.105695 165.023233 
L 329.212314 164.062132 
L 329.318933 164.105457 
L 329.532171 163.050513 
L 329.63879 162.988241 
L 329.745409 163.348786 
L 329.852027 162.705196 
L 330.171884 163.955982 
L 330.491741 166.181643 
L 331.024835 172.398542 
L 332.091024 188.785813 
L 332.304262 191.44984 
L 332.5175 192.335619 
L 333.47707 193.813266 
L 333.796927 193.38878 
L 334.223402 192.732336 
L 334.543259 191.714725 
L 334.649878 191.179054 
L 335.076353 184.413639 
L 336.249161 166.120649 
L 336.888875 158.977057 
L 337.208731 157.345079 
L 337.31535 157.145364 
L 337.528588 157.884552 
L 337.848445 159.924005 
L 338.27492 164.026948 
L 338.914634 172.656995 
L 340.087442 190.107026 
L 340.407298 190.656104 
L 340.727155 190.737618 
L 341.26025 190.468604 
L 341.580106 189.983242 
L 341.686725 189.689285 
L 342.006582 187.248496 
L 343.819103 154.56367 
L 344.245579 149.743251 
L 344.672054 146.234405 
L 344.778673 145.911858 
L 345.09853 147.369034 
L 345.525005 151.004409 
L 346.0581 157.947462 
L 346.804432 171.406182 
L 347.657383 186.726454 
L 348.083859 188.166642 
L 348.297097 188.385541 
L 348.403716 188.361692 
L 349.043429 186.366636 
L 349.150048 185.910042 
L 349.683142 178.077589 
L 351.495664 138.014715 
L 352.135377 129.013807 
L 352.348615 127.291164 
L 352.455234 127.342176 
L 352.668472 128.082862 
L 352.988328 130.239763 
L 353.414804 134.954234 
L 353.947898 143.275819 
L 354.054517 139.558633 
L 355.014087 161.322909 
L 355.333944 169.263349 
L 355.547182 178.011921 
L 355.867039 184.610468 
L 355.973657 182.984738 
L 356.186895 185.852095 
L 356.506752 185.553038 
L 356.826609 184.963182 
L 357.039846 184.243405 
L 357.146465 183.498245 
L 358.425892 164.644521 
L 358.958987 157.470227 
L 359.492081 150.661534 
L 360.451651 139.381641 
L 361.197984 130.254059 
L 361.624459 127.511719 
L 362.050935 125.64398 
L 362.264172 124.8603 
L 362.47741 124.983747 
L 362.690648 124.556754 
L 363.330361 119.975736 
L 363.43698 120.183504 
L 363.756837 123.244726 
L 364.289932 131.187731 
L 364.609788 135.995246 
L 365.142883 138.611928 
L 365.569358 142.712228 
L 368.448069 177.101382 
L 369.620876 192.490343 
L 370.047352 193.923221 
L 370.26059 194.136148 
L 370.367209 194.668363 
L 370.580447 194.528449 
L 370.793684 192.798336 
L 371.22016 183.79282 
L 372.499587 159.538453 
L 373.245919 149.615436 
L 373.672395 146.305766 
L 373.992251 145.023479 
L 374.09887 145.173667 
L 374.312108 145.079068 
L 374.418727 145.215175 
L 374.525346 145.558147 
L 374.738584 147.889599 
L 375.378297 158.025066 
L 377.084199 188.890634 
L 377.617294 191.130719 
L 378.043769 192.017105 
L 378.257007 192.158602 
L 378.363626 191.995054 
L 378.576864 192.165645 
L 378.790102 192.075305 
L 379.109958 191.438527 
L 379.323196 190.727248 
L 379.536434 189.217387 
L 381.135718 164.645035 
L 381.668812 160.240152 
L 381.988669 158.947356 
L 382.095288 158.905028 
L 382.415144 161.309968 
L 382.948239 167.462939 
L 383.694571 179.190221 
L 384.440903 190.785195 
L 384.76076 191.959306 
L 385.187236 192.885876 
L 385.293855 192.531243 
L 386.040187 196.802901 
L 386.786519 200.427661 
L 386.999757 200.914165 
L 387.532851 195.860255 
L 387.959327 192.218372 
L 388.492421 189.100666 
L 388.812278 188.163443 
L 388.918897 188.026538 
L 389.132135 188.742169 
L 389.345373 189.110895 
L 389.665229 190.263316 
L 390.091705 194.674428 
L 390.624799 202.682648 
L 391.690988 223.287781 
L 392.117464 230.51268 
L 392.863796 236.126837 
L 393.183653 237.333191 
L 393.290272 237.361865 
L 393.50351 236.869787 
L 394.356461 232.020513 
L 395.529269 222.376212 
L 396.595458 213.780115 
L 398.941074 166.897857 
L 399.367549 163.776814 
L 399.580787 163.223373 
L 399.687406 163.213991 
L 399.900644 163.742157 
L 400.113881 164.978443 
L 400.327119 168.245636 
L 401.18007 177.965108 
L 402.885973 198.643175 
L 404.1654 213.949574 
L 404.272018 213.642315 
L 404.378637 212.826684 
L 405.12497 196.798827 
L 405.764683 185.77771 
L 405.977921 184.070205 
L 406.191159 183.452434 
L 406.511015 181.871645 
L 406.617634 182.100006 
L 406.830872 184.509755 
L 407.04411 190.496652 
L 407.470585 207.301594 
L 407.790442 208.590264 
L 408.216918 211.599316 
L 409.069869 218.794976 
L 409.496344 221.918214 
L 409.92282 226.714434 
L 410.349296 234.122288 
L 410.775771 241.519329 
L 411.522104 238.920487 
L 411.84196 237.214866 
L 411.84196 237.214866 
" clip-path="url(#p037ef65ab7)" style="fill: none; stroke: #1f77b4; stroke-width: 1.5; stroke-linecap: square"/>
   </g>
   <g id="line2d_30">
    <path d="M 87.187415 86.888697 
L 87.400653 91.94689 
L 87.507271 92.002894 
L 87.720509 92.835355 
L 88.040366 85.259786 
L 88.999936 60.22049 
L 89.639649 47.676541 
L 90.172744 40.875107 
L 90.492601 38.84797 
L 90.705838 38.566267 
L 90.812457 38.572634 
L 91.025695 39.043276 
L 91.238933 40.15926 
L 91.55879 43.139336 
L 91.985265 49.873333 
L 92.411741 60.394979 
L 92.944835 80.064667 
L 93.904405 119.312061 
L 94.757357 153.577102 
L 95.183832 149.722002 
L 95.503689 149.178975 
L 95.930164 143.67547 
L 96.889735 135.178459 
L 97.742686 126.258454 
L 98.169161 123.411321 
L 98.489018 122.321683 
L 98.702256 122.196678 
L 98.808875 122.228185 
L 99.022112 122.747276 
L 99.341969 124.404054 
L 99.661826 127.572638 
L 100.514777 139.66963 
L 101.367728 157.719317 
L 102.114061 176.275716 
L 102.220679 176.37539 
L 104.672914 146.381104 
L 105.206009 144.91474 
L 105.632484 144.239895 
L 105.845722 143.372029 
L 106.272198 142.016217 
L 106.485435 141.779398 
L 106.698673 141.940494 
L 106.911911 142.672062 
L 107.231768 144.893881 
L 107.764862 150.83599 
L 108.511194 161.289767 
L 109.577383 182.752544 
L 109.684002 182.279646 
L 109.89724 179.791114 
L 111.603142 152.770325 
L 111.922999 149.719143 
L 112.349475 147.974608 
L 112.882569 147.403037 
L 113.415664 147.54275 
L 113.73552 147.403036 
L 114.161996 147.412191 
L 114.375234 147.864766 
L 114.695091 149.722215 
L 115.014947 153.105505 
L 116.507612 176.485824 
L 117.040706 185.983225 
L 117.147325 186.111507 
L 117.573801 181.556744 
L 118.63999 164.502738 
L 119.279703 156.478494 
L 119.706179 153.331186 
L 120.239273 151.191332 
L 120.772368 148.993524 
L 120.985606 148.476085 
L 121.731938 147.98124 
L 122.265032 149.444071 
L 122.47827 150.834652 
L 123.011365 156.803904 
L 123.651078 166.567038 
L 124.504029 182.211762 
L 124.823886 179.424037 
L 125.463599 170.79938 
L 126.209932 160.079729 
L 126.636407 156.510815 
L 126.956264 155.134241 
L 127.062883 154.943276 
L 127.382739 153.308953 
L 128.022453 148.665083 
L 128.34231 147.47302 
L 128.555547 147.333231 
L 128.768785 147.400519 
L 128.982023 147.561844 
L 129.195261 147.333232 
L 129.30188 147.425904 
L 129.515117 148.095287 
L 129.728355 149.503205 
L 130.474687 157.743639 
L 131.007782 166.479382 
L 131.967352 184.417928 
L 132.073971 183.912745 
L 132.287209 180.250618 
L 132.713684 175.083417 
L 133.566636 159.859935 
L 133.993111 154.284484 
L 134.419587 151.887084 
L 134.526206 151.756699 
L 134.632825 151.806359 
L 134.846062 152.383049 
L 135.0593 151.992184 
L 135.699014 148.195988 
L 136.01887 147.406834 
L 136.232108 147.371225 
L 136.338727 147.498756 
L 136.658584 146.59915 
L 136.871821 146.552947 
L 137.085059 147.031983 
L 137.298297 148.336362 
L 137.831391 154.432874 
L 138.364486 163.703916 
L 139.324056 183.570749 
L 139.537294 184.013112 
L 139.750532 182.54484 
L 139.963769 180.485671 
L 141.136577 158.169402 
L 141.669672 152.718304 
L 141.88291 152.009755 
L 141.989529 151.946402 
L 142.202766 152.290474 
L 142.309385 152.521255 
L 142.629242 151.949813 
L 142.84248 152.03823 
L 143.055718 152.116367 
L 143.162336 151.946407 
L 143.908669 153.075644 
L 144.228525 152.01708 
L 144.335144 151.946402 
L 144.441763 152.042506 
L 144.655001 152.806044 
L 144.974858 155.441653 
L 145.507952 162.030216 
L 145.934428 170.028212 
L 146.467522 180.624655 
L 146.893998 183.722004 
L 147.427092 179.271849 
L 147.64033 175.696198 
L 148.493281 160.583976 
L 149.026376 155.055564 
L 149.239614 154.208199 
L 149.346233 154.082007 
L 149.452851 154.131264 
L 149.666089 154.681336 
L 149.879327 155.32544 
L 150.412421 153.839794 
L 150.838897 152.840821 
L 151.47861 154.264068 
L 151.691848 153.682375 
L 151.798467 153.584535 
L 151.905086 153.643011 
L 152.118324 154.319077 
L 152.331562 155.869864 
L 152.971275 163.980651 
L 153.397751 172.105569 
L 153.930845 182.267617 
L 154.357321 185.710513 
L 154.677177 183.314961 
L 155.103653 179.285003 
L 156.276461 160.105191 
L 156.596318 157.60711 
L 156.809555 157.04024 
L 156.916174 157.022754 
L 157.129412 157.461831 
L 157.449269 156.420631 
L 157.555888 156.256934 
L 157.982363 153.834016 
L 158.088982 153.671394 
L 158.195601 153.821376 
L 158.835314 156.134951 
L 158.941933 156.017921 
L 159.155171 155.426861 
L 159.26179 155.356618 
L 159.368409 155.421872 
L 159.581647 156.110553 
L 159.794885 157.672828 
L 160.327979 164.567809 
L 160.861074 174.539199 
L 161.18093 180.937424 
L 161.820644 186.620979 
L 161.927263 186.675387 
L 162.566976 180.969528 
L 162.780214 177.784156 
L 163.313308 167.938745 
L 163.846403 161.306094 
L 164.166259 159.43033 
L 164.379497 159.166218 
L 164.486116 159.285238 
L 165.445686 156.300091 
L 165.552305 156.211136 
L 165.658924 156.30035 
L 165.978781 157.283659 
L 166.298637 158.298953 
L 166.405256 158.696287 
L 166.511875 158.641075 
L 166.725113 158.357189 
L 166.831732 158.444774 
L 167.04497 159.167858 
L 167.258207 160.752361 
L 167.897921 168.959406 
L 168.750872 182.373439 
L 169.283966 186.744134 
L 169.390585 186.740481 
L 169.603823 185.379949 
L 170.243537 179.24152 
L 171.203107 164.866259 
L 171.522963 162.21918 
L 171.736201 161.54095 
L 171.84282 161.473014 
L 171.949439 161.238768 
L 172.695771 157.835108 
L 173.015628 157.239613 
L 173.122247 157.338836 
L 173.442104 158.343705 
L 174.081817 161.222819 
L 174.188436 161.187523 
L 174.295055 161.303533 
L 174.508293 162.078433 
L 174.828149 164.606359 
L 175.254625 169.843504 
L 176.107576 181.889141 
L 176.747289 187.36616 
L 176.853908 187.362745 
L 177.387003 182.923321 
L 177.920097 177.360809 
L 178.453192 169.222559 
L 178.879667 165.178805 
L 179.199524 163.835826 
L 179.306143 163.677005 
L 180.372332 157.355111 
L 180.478951 157.239613 
L 180.58557 157.42427 
L 180.905426 159.347955 
L 181.651759 163.528703 
L 182.291472 168.254741 
L 183.037804 180.855659 
L 183.357661 185.202517 
L 183.890756 190.624475 
L 184.103993 190.858763 
L 184.317231 190.887961 
L 184.530469 189.464709 
L 185.38342 180.844084 
L 186.34299 167.708885 
L 187.515798 160.232403 
L 187.835655 159.275613 
L 187.942274 159.193465 
L 188.048893 159.300155 
L 188.368749 160.362615 
L 188.795225 162.930042 
L 189.754795 171.163544 
L 191.24746 189.421415 
L 191.567316 191.461846 
L 191.780554 191.495893 
L 191.993792 191.360038 
L 192.313649 188.59388 
L 193.059981 180.481191 
L 193.699694 171.069918 
L 194.765883 162.288306 
L 195.192359 160.514425 
L 195.405597 160.157096 
L 195.512215 160.242612 
L 195.725453 160.922506 
L 196.04531 162.487496 
L 196.471786 165.735061 
L 197.218118 173.55059 
L 198.284307 186.170623 
L 198.92402 192.171076 
L 199.243877 192.289462 
L 199.350496 192.243244 
L 200.096828 185.247487 
L 202.229206 163.362116 
L 202.868919 160.157097 
L 202.975538 160.296302 
L 203.188776 161.455999 
L 204.254965 170.105204 
L 205.001297 179.738851 
L 205.534392 185.955246 
L 206.280724 193.688659 
L 206.600581 193.942715 
L 206.813819 193.897603 
L 206.920438 193.639477 
L 207.66677 186.145768 
L 208.306483 178.710747 
L 209.159434 168.642307 
L 209.692529 164.517156 
L 210.119005 162.659138 
L 210.332242 162.31263 
L 210.438861 162.413707 
L 210.652099 163.137774 
L 210.971956 164.760553 
L 211.398431 168.077958 
L 212.038145 175.178347 
L 213.42419 191.885583 
L 213.744047 194.858817 
L 214.063904 195.110169 
L 214.277142 195.059688 
L 214.490379 194.836371 
L 214.810236 190.588574 
L 215.663187 180.972546 
L 216.516138 170.545229 
L 217.049233 166.068791 
L 217.475709 163.914809 
L 217.795565 163.111866 
L 218.008803 163.616986 
L 218.435279 165.73178 
L 218.861754 169.07788 
L 219.501468 176.17952 
L 220.461038 187.200477 
L 221.100751 193.727246 
L 221.313989 194.456714 
L 221.633846 194.510836 
L 221.847083 194.334949 
L 222.060321 192.759258 
L 223.12651 181.499987 
L 223.979461 170.842864 
L 224.619175 165.504328 
L 225.04565 163.432691 
L 225.258888 163.111865 
L 225.365507 163.219892 
L 225.578745 163.935599 
L 225.898602 165.533697 
L 226.325077 168.800421 
L 226.964791 175.782555 
L 228.244217 190.922724 
L 228.670693 194.329046 
L 228.883931 194.413694 
L 229.097168 194.324817 
L 229.310406 194.061602 
L 229.523644 192.357185 
L 230.269976 183.792032 
L 230.90969 171.712827 
L 231.336165 165.764151 
L 231.656022 163.850558 
L 231.762641 163.623813 
L 232.189117 161.426196 
L 232.402354 160.526107 
L 232.722211 159.240809 
L 232.935449 159.161314 
L 233.148687 159.607092 
L 233.468543 161.218144 
L 234.108257 166.573681 
L 234.854589 175.419921 
L 235.814159 187.631124 
L 236.240635 190.974928 
L 236.453872 191.341957 
L 236.66711 191.223939 
L 236.773729 191.100751 
L 236.986967 189.570304 
L 237.306824 186.258037 
L 238.58625 159.176082 
L 238.906107 155.022161 
L 239.225964 153.27262 
L 239.439202 153.166511 
L 239.652439 153.757606 
L 239.759058 154.232358 
L 240.185534 153.126373 
L 240.505391 153.895141 
L 240.718628 155.145323 
L 241.678198 163.266995 
L 242.53115 174.873653 
L 243.170863 183.119702 
L 243.917195 188.799423 
L 244.023814 188.12278 
L 244.237052 189.321664 
L 244.343671 189.228693 
L 244.663528 185.233819 
L 246.582668 153.473252 
L 246.689287 153.126375 
L 246.795906 153.190752 
L 247.222381 154.560731 
L 247.329 154.662565 
L 247.542238 154.203741 
L 247.648857 154.165423 
L 247.862095 154.486008 
L 248.28857 156.056373 
L 249.141521 164.679688 
L 250.101091 177.176808 
L 250.527567 182.485195 
L 251.273899 188.459184 
L 251.806994 191.487998 
L 251.913613 191.407812 
L 252.233469 188.139561 
L 252.766564 179.11373 
L 253.832753 160.065544 
L 254.15261 157.624403 
L 254.259228 159.698832 
L 254.365847 159.645217 
L 254.472466 159.654462 
L 255.538655 154.26834 
L 255.645274 154.316116 
L 255.858512 155.226648 
L 256.178369 158.588118 
L 257.884271 182.638107 
L 258.630603 188.673957 
L 258.95046 190.090174 
L 259.270317 189.639223 
L 259.483554 189.086053 
L 259.803411 185.766349 
L 260.762981 173.132236 
L 261.402695 162.54666 
L 261.509314 162.697967 
L 262.042408 155.884903 
L 262.468884 152.589845 
L 262.682121 151.936693 
L 262.895359 151.964027 
L 263.108597 152.667772 
L 263.428454 154.81084 
L 264.068167 161.628754 
L 265.134356 177.029631 
L 265.987307 187.681721 
L 266.307164 187.938305 
L 266.520402 187.858394 
L 266.840258 187.353359 
L 267.160115 184.010992 
L 268.226304 169.836241 
L 268.866018 159.598257 
L 269.825588 147.593324 
L 270.038825 146.217236 
L 270.145444 146.036534 
L 270.252063 146.194928 
L 270.465301 147.524014 
L 271.424871 159.045939 
L 273.45063 186.084331 
L 273.663868 186.551216 
L 273.983725 186.422974 
L 274.196962 184.979484 
L 274.303581 184.7279 
L 274.623438 181.149867 
L 275.689627 166.369995 
L 276.435959 154.491126 
L 276.969054 148.270682 
L 277.288911 146.102888 
L 277.502148 145.511162 
L 277.608767 145.511162 
L 277.822005 146.087937 
L 278.141862 148.202746 
L 278.674956 154.141451 
L 279.31467 163.6609 
L 279.847764 171.473095 
L 280.913953 184.865972 
L 281.127191 185.102081 
L 281.447048 185.033129 
L 281.660285 184.758873 
L 281.980142 181.400117 
L 283.15295 165.44828 
L 284.11252 150.956934 
L 284.538996 146.856112 
L 284.858852 145.340659 
L 284.965471 145.200603 
L 285.07209 145.256193 
L 285.285328 145.987076 
L 285.605185 148.337441 
L 286.138279 154.784745 
L 286.884611 166.431261 
L 287.417706 174.911886 
L 288.270657 185.662188 
L 288.590514 186.182855 
L 288.803752 186.238224 
L 289.123608 186.005987 
L 289.230227 185.781117 
L 290.083178 175.304782 
L 291.042748 161.063788 
L 291.789081 151.288701 
L 292.108937 148.944441 
L 292.428794 148.295917 
L 292.535413 148.295918 
L 292.748651 149.04232 
L 293.068507 151.312994 
L 293.601602 157.568758 
L 295.840599 186.496972 
L 296.053837 186.747982 
L 296.480312 186.629635 
L 296.586931 186.496049 
L 297.439882 176.852928 
L 297.866358 172.582099 
L 298.186215 168.929275 
L 299.145785 154.037978 
L 299.57226 150.645768 
L 299.785498 150.286505 
L 299.892117 150.164528 
L 299.998736 150.414581 
L 300.211974 152.025347 
L 300.745068 157.327316 
L 301.811257 168.037831 
L 302.984065 184.292057 
L 303.51716 186.787592 
L 303.623778 186.72291 
L 304.370111 183.602635 
L 304.689967 180.690038 
L 305.649537 169.528483 
L 306.39587 160.148375 
L 306.822345 156.337933 
L 307.248821 154.86955 
L 307.675297 154.958654 
L 307.888534 155.260588 
L 308.101772 156.089139 
L 308.421629 158.711568 
L 309.167961 168.039261 
L 309.701056 176.242159 
L 310.23415 184.070377 
L 310.873863 187.004421 
L 310.980482 187.09783 
L 311.19372 186.437618 
L 311.940052 182.803147 
L 313.326098 166.164824 
L 313.965812 157.855362 
L 314.392287 154.799723 
L 314.605525 154.374757 
L 315.032001 154.421483 
L 315.245238 154.957972 
L 315.565095 156.874112 
L 315.991571 161.56056 
L 317.804092 186.266756 
L 318.337186 188.365854 
L 318.657043 188.248012 
L 318.9769 186.829598 
L 319.403375 184.207575 
L 321.535753 160.464165 
L 321.962229 157.756026 
L 322.175467 157.199548 
L 322.388705 157.285536 
L 322.708561 159.05484 
L 323.135037 163.10837 
L 323.77475 171.666665 
L 324.521082 180.925546 
L 325.267415 188.026031 
L 325.800509 190.291089 
L 326.120366 190.173363 
L 326.440223 189.856426 
L 327.079936 186.146843 
L 328.999076 164.997152 
L 329.532171 158.91736 
L 329.745409 158.171999 
L 329.852027 158.256243 
L 330.065265 159.362313 
L 330.385122 163.135255 
L 330.811597 168.748642 
L 332.410881 186.750367 
L 333.050594 190.632259 
L 333.370451 191.757535 
L 333.690308 191.714771 
L 333.903546 191.579754 
L 334.223402 189.884243 
L 334.649878 185.44146 
L 335.822686 169.848641 
L 336.569018 160.302709 
L 336.995494 156.927784 
L 337.208731 156.542105 
L 337.31535 156.542107 
L 337.528588 157.244871 
L 337.848445 159.316694 
L 338.488158 165.643075 
L 340.087442 184.741487 
L 340.513917 187.54319 
L 340.833774 189.032392 
L 340.940393 189.082057 
L 341.26025 188.729974 
L 341.473487 188.329355 
L 341.580106 187.904379 
L 341.899963 183.579503 
L 342.859533 169.263727 
L 344.565435 142.34269 
L 344.778673 141.889313 
L 344.885292 142.011851 
L 345.09853 143.167451 
L 345.418387 147.309968 
L 347.444146 180.47169 
L 347.97724 185.996825 
L 348.190478 186.773057 
L 348.510335 186.476043 
L 348.830191 185.899014 
L 349.043429 185.131882 
L 349.683142 174.070629 
L 350.642713 153.472431 
L 351.708902 131.126267 
L 352.135377 124.842163 
L 352.348615 123.491277 
L 352.561853 123.309691 
L 352.775091 123.387183 
L 352.988328 124.200773 
L 353.414804 127.572158 
L 353.84128 133.120969 
L 354.267755 141.312497 
L 355.973657 177.475846 
L 356.293514 181.314577 
L 356.506752 182.77849 
L 356.71999 182.591951 
L 356.826609 182.392441 
L 357.466322 175.288404 
L 357.892798 168.793578 
L 359.385462 132.209627 
L 360.131795 121.329918 
L 360.451651 118.958605 
L 361.304602 116.009266 
L 361.51784 115.73993 
L 361.731078 115.74748 
L 361.944316 116.021801 
L 362.264172 116.595325 
L 362.584029 115.782823 
L 362.797267 115.714254 
L 363.010505 115.999631 
L 363.223743 115.714254 
L 363.330361 115.813191 
L 363.543599 116.852503 
L 363.863456 120.264451 
L 364.503169 129.046714 
L 364.609788 129.000133 
L 365.036264 129.059763 
L 365.249502 129.311699 
L 365.569358 130.117917 
L 366.42231 133.672114 
L 366.635547 135.480478 
L 367.808355 151.665274 
L 369.940733 189.249068 
L 370.367209 190.751984 
L 370.580447 189.811217 
L 370.793684 187.369036 
L 371.753254 172.007879 
L 372.819443 154.171553 
L 373.779014 142.70127 
L 373.992251 141.654029 
L 374.09887 141.486935 
L 374.205489 141.704973 
L 374.631965 144.554231 
L 374.951821 149.713886 
L 375.591535 161.260199 
L 377.084199 185.453289 
L 377.510675 187.831547 
L 378.150388 189.047715 
L 378.257007 189.008485 
L 378.790102 187.250725 
L 379.323196 184.525832 
L 379.643053 182.146205 
L 380.389385 173.10733 
L 381.668812 154.203076 
L 381.88205 153.549104 
L 381.988669 153.507899 
L 382.095288 153.652771 
L 382.308525 154.89795 
L 382.735001 159.821092 
L 383.694571 173.59165 
L 384.440903 182.139723 
L 384.76076 183.477254 
L 385.080617 183.900473 
L 385.187236 183.936537 
L 385.933568 189.145671 
L 386.466662 190.718504 
L 386.999757 191.605432 
L 387.319614 191.91372 
L 388.065946 190.469249 
L 388.172565 190.3397 
L 388.812278 187.751586 
L 389.238754 187.76579 
L 389.451992 188.395554 
L 389.878467 191.568631 
L 390.411562 197.727107 
L 391.264513 210.755782 
L 392.757177 234.165874 
L 393.077034 236.092244 
L 393.183653 236.150062 
L 393.50351 235.644152 
L 393.823366 234.351195 
L 394.036604 232.313267 
L 395.529269 215.230124 
L 397.128552 198.460925 
L 397.555028 192.711246 
L 399.154311 162.581262 
L 399.474168 160.400384 
L 400.2205 160.421112 
L 400.433738 161.057243 
L 400.753595 163.336415 
L 401.073451 167.584804 
L 401.819784 182.441325 
L 402.352878 190.269556 
L 404.058781 206.897372 
L 404.1654 206.178355 
L 405.018351 192.930314 
L 406.08454 176.470162 
L 406.297778 175.047672 
L 406.404396 174.913773 
L 406.511015 175.286206 
L 406.724253 178.037421 
L 406.937491 183.61429 
L 407.363966 205.587188 
L 408.00368 209.138323 
L 408.430155 213.320411 
L 408.750012 216.476949 
L 409.176488 218.93842 
L 409.602963 222.645917 
L 410.136058 229.597222 
L 410.562533 237.986002 
L 410.669152 240.723667 
L 411.202247 239.251373 
L 411.628722 237.475475 
L 411.84196 232.850211 
L 411.84196 232.850211 
" clip-path="url(#p037ef65ab7)" style="fill: none; stroke: #ff7f0e; stroke-width: 1.5; stroke-linecap: square"/>
   </g>
   <g id="patch_3">
    <path d="M 70.954688 273.312 
L 70.954688 7.2 
" style="fill: none; stroke: #000000; stroke-width: 0.8; stroke-linejoin: miter; stroke-linecap: square"/>
   </g>
   <g id="patch_4">
    <path d="M 428.074687 273.312 
L 428.074687 7.2 
" style="fill: none; stroke: #000000; stroke-width: 0.8; stroke-linejoin: miter; stroke-linecap: square"/>
   </g>
   <g id="patch_5">
    <path d="M 70.954687 273.312 
L 428.074687 273.312 
" style="fill: none; stroke: #000000; stroke-width: 0.8; stroke-linejoin: miter; stroke-linecap: square"/>
   </g>
   <g id="patch_6">
    <path d="M 70.954687 7.2 
L 428.074687 7.2 
" style="fill: none; stroke: #000000; stroke-width: 0.8; stroke-linejoin: miter; stroke-linecap: square"/>
   </g>
   <g id="legend_1">
    <g id="patch_7">
     <path d="M 280.590312 29.878125 
L 421.074687 29.878125 
Q 423.074687 29.878125 423.074687 27.878125 
L 423.074687 14.2 
Q 423.074687 12.2 421.074687 12.2 
L 280.590312 12.2 
Q 278.590312 12.2 278.590312 14.2 
L 278.590312 27.878125 
Q 278.590312 29.878125 280.590312 29.878125 
z
" style="fill: #ffffff; opacity: 0.8; stroke: #cccccc; stroke-linejoin: miter"/>
    </g>
    <g id="line2d_31">
     <path d="M 282.590312 20.298437 
L 292.590312 20.298437 
L 302.590312 20.298437 
" style="fill: none; stroke: #1f77b4; stroke-width: 1.5; stroke-linecap: square"/>
    </g>
    <g id="text_17">
     <!-- local -->
     <g transform="translate(310.590312 23.798437)scale(0.1 -0.1)">
      <defs>
       <path id="DejaVuSans-6c" d="M 603 4863 
L 1178 4863 
L 1178 0 
L 603 0 
L 603 4863 
z
" transform="scale(0.015625)"/>
       <path id="DejaVuSans-63" d="M 3122 3366 
L 3122 2828 
Q 2878 2963 2633 3030 
Q 2388 3097 2138 3097 
Q 1578 3097 1268 2742 
Q 959 2388 959 1747 
Q 959 1106 1268 751 
Q 1578 397 2138 397 
Q 2388 397 2633 464 
Q 2878 531 3122 666 
L 3122 134 
Q 2881 22 2623 -34 
Q 2366 -91 2075 -91 
Q 1284 -91 818 406 
Q 353 903 353 1747 
Q 353 2603 823 3093 
Q 1294 3584 2113 3584 
Q 2378 3584 2631 3529 
Q 2884 3475 3122 3366 
z
" transform="scale(0.015625)"/>
      </defs>
      <use xlink:href="#DejaVuSans-6c"/>
      <use xlink:href="#DejaVuSans-6f" x="27.783203"/>
      <use xlink:href="#DejaVuSans-63" x="88.964844"/>
      <use xlink:href="#DejaVuSans-61" x="143.945312"/>
      <use xlink:href="#DejaVuSans-6c" x="205.224609"/>
     </g>
    </g>
    <g id="line2d_32">
     <path d="M 353.891875 20.298437 
L 363.891875 20.298437 
L 373.891875 20.298437 
" style="fill: none; stroke: #ff7f0e; stroke-width: 1.5; stroke-linecap: square"/>
    </g>
    <g id="text_18">
     <!-- blk 100 -->
     <g transform="translate(381.891875 23.798437)scale(0.1 -0.1)">
      <defs>
       <path id="DejaVuSans-62" d="M 3116 1747 
Q 3116 2381 2855 2742 
Q 2594 3103 2138 3103 
Q 1681 3103 1420 2742 
Q 1159 2381 1159 1747 
Q 1159 1113 1420 752 
Q 1681 391 2138 391 
Q 2594 391 2855 752 
Q 3116 1113 3116 1747 
z
M 1159 2969 
Q 1341 3281 1617 3432 
Q 1894 3584 2278 3584 
Q 2916 3584 3314 3078 
Q 3713 2572 3713 1747 
Q 3713 922 3314 415 
Q 2916 -91 2278 -91 
Q 1894 -91 1617 61 
Q 1341 213 1159 525 
L 1159 0 
L 581 0 
L 581 4863 
L 1159 4863 
L 1159 2969 
z
" transform="scale(0.015625)"/>
       <path id="DejaVuSans-6b" d="M 581 4863 
L 1159 4863 
L 1159 1991 
L 2875 3500 
L 3609 3500 
L 1753 1863 
L 3688 0 
L 2938 0 
L 1159 1709 
L 1159 0 
L 581 0 
L 581 4863 
z
" transform="scale(0.015625)"/>
      </defs>
      <use xlink:href="#DejaVuSans-62"/>
      <use xlink:href="#DejaVuSans-6c" x="63.476562"/>
      <use xlink:href="#DejaVuSans-6b" x="91.259766"/>
      <use xlink:href="#DejaVuSans-20" x="149.169922"/>
      <use xlink:href="#DejaVuSans-31" x="180.957031"/>
      <use xlink:href="#DejaVuSans-30" x="244.580078"/>
      <use xlink:href="#DejaVuSans-30" x="308.203125"/>
     </g>
    </g>
   </g>
  </g>
 </g>
 <defs>
  <clipPath id="p037ef65ab7">
   <rect x="70.954688" y="7.2" width="357.12" height="266.112"/>
  </clipPath>
 </defs>
</svg>
