<?xml version="1.0" encoding="utf-8" standalone="no"?>
<!DOCTYPE svg PUBLIC "-//W3C//DTD SVG 1.1//EN"
  "http://www.w3.org/Graphics/SVG/1.1/DTD/svg11.dtd">
<svg xmlns:xlink="http://www.w3.org/1999/xlink" width="425.730937pt" height="331.084266pt" viewBox="0 0 425.730937 331.084266" xmlns="http://www.w3.org/2000/svg" version="1.1">
 <defs>
  <style type="text/css">*{stroke-linejoin: round; stroke-linecap: butt}</style>
 </defs>
 <g id="figure_1">
  <g id="patch_1">
   <path d="M 0 331.084266 
L 425.730937 331.084266 
L 425.730937 0 
L 0 0 
L 0 331.084266 
z
" style="fill: none"/>
  </g>
  <g id="axes_1">
   <g id="patch_2">
    <path d="M 61.410938 279.010828 
L 418.530938 279.010828 
L 418.530938 12.898828 
L 61.410938 12.898828 
L 61.410938 279.010828 
z
" style="fill: none"/>
   </g>
   <g id="matplotlib.axis_1">
    <g id="xtick_1">
     <g id="line2d_1">
      <path d="M 82.443091 279.010828 
L 82.443091 12.898828 
" clip-path="url(#pf2b7413cda)" style="fill: none; stroke: #b0b0b0; stroke-width: 0.8; stroke-linecap: square"/>
     </g>
     <g id="line2d_2">
      <defs>
       <path id="md39032bed2" d="M 0 0 
L 0 3.5 
" style="stroke: #000000; stroke-width: 0.8"/>
      </defs>
      <g>
       <use xlink:href="#md39032bed2" x="82.443091" y="279.010828" style="stroke: #000000; stroke-width: 0.8"/>
      </g>
     </g>
     <g id="text_1">
      <!-- −3000 -->
      <g transform="translate(57.070826 297.408484)scale(0.15 -0.15)">
       <defs>
        <path id="DejaVuSans-2212" d="M 678 2272 
L 4684 2272 
L 4684 1741 
L 678 1741 
L 678 2272 
z
" transform="scale(0.015625)"/>
        <path id="DejaVuSans-33" d="M 2597 2516 
Q 3050 2419 3304 2112 
Q 3559 1806 3559 1356 
Q 3559 666 3084 287 
Q 2609 -91 1734 -91 
Q 1441 -91 1130 -33 
Q 819 25 488 141 
L 488 750 
Q 750 597 1062 519 
Q 1375 441 1716 441 
Q 2309 441 2620 675 
Q 2931 909 2931 1356 
Q 2931 1769 2642 2001 
Q 2353 2234 1838 2234 
L 1294 2234 
L 1294 2753 
L 1863 2753 
Q 2328 2753 2575 2939 
Q 2822 3125 2822 3475 
Q 2822 3834 2567 4026 
Q 2313 4219 1838 4219 
Q 1578 4219 1281 4162 
Q 984 4106 628 3988 
L 628 4550 
Q 988 4650 1302 4700 
Q 1616 4750 1894 4750 
Q 2613 4750 3031 4423 
Q 3450 4097 3450 3541 
Q 3450 3153 3228 2886 
Q 3006 2619 2597 2516 
z
" transform="scale(0.015625)"/>
        <path id="DejaVuSans-30" d="M 2034 4250 
Q 1547 4250 1301 3770 
Q 1056 3291 1056 2328 
Q 1056 1369 1301 889 
Q 1547 409 2034 409 
Q 2525 409 2770 889 
Q 3016 1369 3016 2328 
Q 3016 3291 2770 3770 
Q 2525 4250 2034 4250 
z
M 2034 4750 
Q 2819 4750 3233 4129 
Q 3647 3509 3647 2328 
Q 3647 1150 3233 529 
Q 2819 -91 2034 -91 
Q 1250 -91 836 529 
Q 422 1150 422 2328 
Q 422 3509 836 4129 
Q 1250 4750 2034 4750 
z
" transform="scale(0.015625)"/>
       </defs>
       <use xlink:href="#DejaVuSans-2212"/>
       <use xlink:href="#DejaVuSans-33" x="83.789062"/>
       <use xlink:href="#DejaVuSans-30" x="147.412109"/>
       <use xlink:href="#DejaVuSans-30" x="211.035156"/>
       <use xlink:href="#DejaVuSans-30" x="274.658203"/>
      </g>
     </g>
    </g>
    <g id="xtick_2">
     <g id="line2d_3">
      <path d="M 135.770053 279.010828 
L 135.770053 12.898828 
" clip-path="url(#pf2b7413cda)" style="fill: none; stroke: #b0b0b0; stroke-width: 0.8; stroke-linecap: square"/>
     </g>
     <g id="line2d_4">
      <g>
       <use xlink:href="#md39032bed2" x="135.770053" y="279.010828" style="stroke: #000000; stroke-width: 0.8"/>
      </g>
     </g>
     <g id="text_2">
      <!-- −2500 -->
      <g transform="translate(110.397788 297.408484)scale(0.15 -0.15)">
       <defs>
        <path id="DejaVuSans-32" d="M 1228 531 
L 3431 531 
L 3431 0 
L 469 0 
L 469 531 
Q 828 903 1448 1529 
Q 2069 2156 2228 2338 
Q 2531 2678 2651 2914 
Q 2772 3150 2772 3378 
Q 2772 3750 2511 3984 
Q 2250 4219 1831 4219 
Q 1534 4219 1204 4116 
Q 875 4013 500 3803 
L 500 4441 
Q 881 4594 1212 4672 
Q 1544 4750 1819 4750 
Q 2544 4750 2975 4387 
Q 3406 4025 3406 3419 
Q 3406 3131 3298 2873 
Q 3191 2616 2906 2266 
Q 2828 2175 2409 1742 
Q 1991 1309 1228 531 
z
" transform="scale(0.015625)"/>
        <path id="DejaVuSans-35" d="M 691 4666 
L 3169 4666 
L 3169 4134 
L 1269 4134 
L 1269 2991 
Q 1406 3038 1543 3061 
Q 1681 3084 1819 3084 
Q 2600 3084 3056 2656 
Q 3513 2228 3513 1497 
Q 3513 744 3044 326 
Q 2575 -91 1722 -91 
Q 1428 -91 1123 -41 
Q 819 9 494 109 
L 494 744 
Q 775 591 1075 516 
Q 1375 441 1709 441 
Q 2250 441 2565 725 
Q 2881 1009 2881 1497 
Q 2881 1984 2565 2268 
Q 2250 2553 1709 2553 
Q 1456 2553 1204 2497 
Q 953 2441 691 2322 
L 691 4666 
z
" transform="scale(0.015625)"/>
       </defs>
       <use xlink:href="#DejaVuSans-2212"/>
       <use xlink:href="#DejaVuSans-32" x="83.789062"/>
       <use xlink:href="#DejaVuSans-35" x="147.412109"/>
       <use xlink:href="#DejaVuSans-30" x="211.035156"/>
       <use xlink:href="#DejaVuSans-30" x="274.658203"/>
      </g>
     </g>
    </g>
    <g id="xtick_3">
     <g id="line2d_5">
      <path d="M 189.097016 279.010828 
L 189.097016 12.898828 
" clip-path="url(#pf2b7413cda)" style="fill: none; stroke: #b0b0b0; stroke-width: 0.8; stroke-linecap: square"/>
     </g>
     <g id="line2d_6">
      <g>
       <use xlink:href="#md39032bed2" x="189.097016" y="279.010828" style="stroke: #000000; stroke-width: 0.8"/>
      </g>
     </g>
     <g id="text_3">
      <!-- −2000 -->
      <g transform="translate(163.72475 297.408484)scale(0.15 -0.15)">
       <use xlink:href="#DejaVuSans-2212"/>
       <use xlink:href="#DejaVuSans-32" x="83.789062"/>
       <use xlink:href="#DejaVuSans-30" x="147.412109"/>
       <use xlink:href="#DejaVuSans-30" x="211.035156"/>
       <use xlink:href="#DejaVuSans-30" x="274.658203"/>
      </g>
     </g>
    </g>
    <g id="xtick_4">
     <g id="line2d_7">
      <path d="M 242.423978 279.010828 
L 242.423978 12.898828 
" clip-path="url(#pf2b7413cda)" style="fill: none; stroke: #b0b0b0; stroke-width: 0.8; stroke-linecap: square"/>
     </g>
     <g id="line2d_8">
      <g>
       <use xlink:href="#md39032bed2" x="242.423978" y="279.010828" style="stroke: #000000; stroke-width: 0.8"/>
      </g>
     </g>
     <g id="text_4">
      <!-- −1500 -->
      <g transform="translate(217.051712 297.408484)scale(0.15 -0.15)">
       <defs>
        <path id="DejaVuSans-31" d="M 794 531 
L 1825 531 
L 1825 4091 
L 703 3866 
L 703 4441 
L 1819 4666 
L 2450 4666 
L 2450 531 
L 3481 531 
L 3481 0 
L 794 0 
L 794 531 
z
" transform="scale(0.015625)"/>
       </defs>
       <use xlink:href="#DejaVuSans-2212"/>
       <use xlink:href="#DejaVuSans-31" x="83.789062"/>
       <use xlink:href="#DejaVuSans-35" x="147.412109"/>
       <use xlink:href="#DejaVuSans-30" x="211.035156"/>
       <use xlink:href="#DejaVuSans-30" x="274.658203"/>
      </g>
     </g>
    </g>
    <g id="xtick_5">
     <g id="line2d_9">
      <path d="M 295.75094 279.010828 
L 295.75094 12.898828 
" clip-path="url(#pf2b7413cda)" style="fill: none; stroke: #b0b0b0; stroke-width: 0.8; stroke-linecap: square"/>
     </g>
     <g id="line2d_10">
      <g>
       <use xlink:href="#md39032bed2" x="295.75094" y="279.010828" style="stroke: #000000; stroke-width: 0.8"/>
      </g>
     </g>
     <g id="text_5">
      <!-- −1000 -->
      <g transform="translate(270.378674 297.408484)scale(0.15 -0.15)">
       <use xlink:href="#DejaVuSans-2212"/>
       <use xlink:href="#DejaVuSans-31" x="83.789062"/>
       <use xlink:href="#DejaVuSans-30" x="147.412109"/>
       <use xlink:href="#DejaVuSans-30" x="211.035156"/>
       <use xlink:href="#DejaVuSans-30" x="274.658203"/>
      </g>
     </g>
    </g>
    <g id="xtick_6">
     <g id="line2d_11">
      <path d="M 349.077902 279.010828 
L 349.077902 12.898828 
" clip-path="url(#pf2b7413cda)" style="fill: none; stroke: #b0b0b0; stroke-width: 0.8; stroke-linecap: square"/>
     </g>
     <g id="line2d_12">
      <g>
       <use xlink:href="#md39032bed2" x="349.077902" y="279.010828" style="stroke: #000000; stroke-width: 0.8"/>
      </g>
     </g>
     <g id="text_6">
      <!-- −500 -->
      <g transform="translate(328.477511 297.408484)scale(0.15 -0.15)">
       <use xlink:href="#DejaVuSans-2212"/>
       <use xlink:href="#DejaVuSans-35" x="83.789062"/>
       <use xlink:href="#DejaVuSans-30" x="147.412109"/>
       <use xlink:href="#DejaVuSans-30" x="211.035156"/>
      </g>
     </g>
    </g>
    <g id="xtick_7">
     <g id="line2d_13">
      <path d="M 402.404864 279.010828 
L 402.404864 12.898828 
" clip-path="url(#pf2b7413cda)" style="fill: none; stroke: #b0b0b0; stroke-width: 0.8; stroke-linecap: square"/>
     </g>
     <g id="line2d_14">
      <g>
       <use xlink:href="#md39032bed2" x="402.404864" y="279.010828" style="stroke: #000000; stroke-width: 0.8"/>
      </g>
     </g>
     <g id="text_7">
      <!-- 0 -->
      <g transform="translate(397.632989 297.408484)scale(0.15 -0.15)">
       <use xlink:href="#DejaVuSans-30"/>
      </g>
     </g>
    </g>
    <g id="text_8">
     <!-- Position (μm) -->
     <g transform="translate(173.958438 319.724891)scale(0.2 -0.2)">
      <defs>
       <path id="DejaVuSans-50" d="M 1259 4147 
L 1259 2394 
L 2053 2394 
Q 2494 2394 2734 2622 
Q 2975 2850 2975 3272 
Q 2975 3691 2734 3919 
Q 2494 4147 2053 4147 
L 1259 4147 
z
M 628 4666 
L 2053 4666 
Q 2838 4666 3239 4311 
Q 3641 3956 3641 3272 
Q 3641 2581 3239 2228 
Q 2838 1875 2053 1875 
L 1259 1875 
L 1259 0 
L 628 0 
L 628 4666 
z
" transform="scale(0.015625)"/>
       <path id="DejaVuSans-6f" d="M 1959 3097 
Q 1497 3097 1228 2736 
Q 959 2375 959 1747 
Q 959 1119 1226 758 
Q 1494 397 1959 397 
Q 2419 397 2687 759 
Q 2956 1122 2956 1747 
Q 2956 2369 2687 2733 
Q 2419 3097 1959 3097 
z
M 1959 3584 
Q 2709 3584 3137 3096 
Q 3566 2609 3566 1747 
Q 3566 888 3137 398 
Q 2709 -91 1959 -91 
Q 1206 -91 779 398 
Q 353 888 353 1747 
Q 353 2609 779 3096 
Q 1206 3584 1959 3584 
z
" transform="scale(0.015625)"/>
       <path id="DejaVuSans-73" d="M 2834 3397 
L 2834 2853 
Q 2591 2978 2328 3040 
Q 2066 3103 1784 3103 
Q 1356 3103 1142 2972 
Q 928 2841 928 2578 
Q 928 2378 1081 2264 
Q 1234 2150 1697 2047 
L 1894 2003 
Q 2506 1872 2764 1633 
Q 3022 1394 3022 966 
Q 3022 478 2636 193 
Q 2250 -91 1575 -91 
Q 1294 -91 989 -36 
Q 684 19 347 128 
L 347 722 
Q 666 556 975 473 
Q 1284 391 1588 391 
Q 1994 391 2212 530 
Q 2431 669 2431 922 
Q 2431 1156 2273 1281 
Q 2116 1406 1581 1522 
L 1381 1569 
Q 847 1681 609 1914 
Q 372 2147 372 2553 
Q 372 3047 722 3315 
Q 1072 3584 1716 3584 
Q 2034 3584 2315 3537 
Q 2597 3491 2834 3397 
z
" transform="scale(0.015625)"/>
       <path id="DejaVuSans-69" d="M 603 3500 
L 1178 3500 
L 1178 0 
L 603 0 
L 603 3500 
z
M 603 4863 
L 1178 4863 
L 1178 4134 
L 603 4134 
L 603 4863 
z
" transform="scale(0.015625)"/>
       <path id="DejaVuSans-74" d="M 1172 4494 
L 1172 3500 
L 2356 3500 
L 2356 3053 
L 1172 3053 
L 1172 1153 
Q 1172 725 1289 603 
Q 1406 481 1766 481 
L 2356 481 
L 2356 0 
L 1766 0 
Q 1100 0 847 248 
Q 594 497 594 1153 
L 594 3053 
L 172 3053 
L 172 3500 
L 594 3500 
L 594 4494 
L 1172 4494 
z
" transform="scale(0.015625)"/>
       <path id="DejaVuSans-6e" d="M 3513 2113 
L 3513 0 
L 2938 0 
L 2938 2094 
Q 2938 2591 2744 2837 
Q 2550 3084 2163 3084 
Q 1697 3084 1428 2787 
Q 1159 2491 1159 1978 
L 1159 0 
L 581 0 
L 581 3500 
L 1159 3500 
L 1159 2956 
Q 1366 3272 1645 3428 
Q 1925 3584 2291 3584 
Q 2894 3584 3203 3211 
Q 3513 2838 3513 2113 
z
" transform="scale(0.015625)"/>
       <path id="DejaVuSans-20" transform="scale(0.015625)"/>
       <path id="DejaVuSans-28" d="M 1984 4856 
Q 1566 4138 1362 3434 
Q 1159 2731 1159 2009 
Q 1159 1288 1364 580 
Q 1569 -128 1984 -844 
L 1484 -844 
Q 1016 -109 783 600 
Q 550 1309 550 2009 
Q 550 2706 781 3412 
Q 1013 4119 1484 4856 
L 1984 4856 
z
" transform="scale(0.015625)"/>
       <path id="DejaVuSans-3bc" d="M 544 -1331 
L 544 3500 
L 1119 3500 
L 1119 1325 
Q 1119 872 1334 640 
Q 1550 409 1972 409 
Q 2434 409 2667 671 
Q 2900 934 2900 1459 
L 2900 3500 
L 3475 3500 
L 3475 806 
Q 3475 619 3529 530 
Q 3584 441 3700 441 
Q 3728 441 3778 458 
Q 3828 475 3916 513 
L 3916 50 
Q 3788 -22 3673 -56 
Q 3559 -91 3450 -91 
Q 3234 -91 3106 31 
Q 2978 153 2931 403 
Q 2775 156 2548 32 
Q 2322 -91 2016 -91 
Q 1697 -91 1473 31 
Q 1250 153 1119 397 
L 1119 -1331 
L 544 -1331 
z
" transform="scale(0.015625)"/>
       <path id="DejaVuSans-6d" d="M 3328 2828 
Q 3544 3216 3844 3400 
Q 4144 3584 4550 3584 
Q 5097 3584 5394 3201 
Q 5691 2819 5691 2113 
L 5691 0 
L 5113 0 
L 5113 2094 
Q 5113 2597 4934 2840 
Q 4756 3084 4391 3084 
Q 3944 3084 3684 2787 
Q 3425 2491 3425 1978 
L 3425 0 
L 2847 0 
L 2847 2094 
Q 2847 2600 2669 2842 
Q 2491 3084 2119 3084 
Q 1678 3084 1418 2786 
Q 1159 2488 1159 1978 
L 1159 0 
L 581 0 
L 581 3500 
L 1159 3500 
L 1159 2956 
Q 1356 3278 1631 3431 
Q 1906 3584 2284 3584 
Q 2666 3584 2933 3390 
Q 3200 3197 3328 2828 
z
" transform="scale(0.015625)"/>
       <path id="DejaVuSans-29" d="M 513 4856 
L 1013 4856 
Q 1481 4119 1714 3412 
Q 1947 2706 1947 2009 
Q 1947 1309 1714 600 
Q 1481 -109 1013 -844 
L 513 -844 
Q 928 -128 1133 580 
Q 1338 1288 1338 2009 
Q 1338 2731 1133 3434 
Q 928 4138 513 4856 
z
" transform="scale(0.015625)"/>
      </defs>
      <use xlink:href="#DejaVuSans-50"/>
      <use xlink:href="#DejaVuSans-6f" x="56.677734"/>
      <use xlink:href="#DejaVuSans-73" x="117.859375"/>
      <use xlink:href="#DejaVuSans-69" x="169.958984"/>
      <use xlink:href="#DejaVuSans-74" x="197.742188"/>
      <use xlink:href="#DejaVuSans-69" x="236.951172"/>
      <use xlink:href="#DejaVuSans-6f" x="264.734375"/>
      <use xlink:href="#DejaVuSans-6e" x="325.916016"/>
      <use xlink:href="#DejaVuSans-20" x="389.294922"/>
      <use xlink:href="#DejaVuSans-28" x="421.082031"/>
      <use xlink:href="#DejaVuSans-3bc" x="460.095703"/>
      <use xlink:href="#DejaVuSans-6d" x="523.71875"/>
      <use xlink:href="#DejaVuSans-29" x="621.130859"/>
     </g>
    </g>
   </g>
   <g id="matplotlib.axis_2">
    <g id="ytick_1">
     <g id="line2d_15">
      <path d="M 61.410938 279.010828 
L 418.530938 279.010828 
" clip-path="url(#pf2b7413cda)" style="fill: none; stroke: #b0b0b0; stroke-width: 0.8; stroke-linecap: square"/>
     </g>
     <g id="line2d_16">
      <defs>
       <path id="m6f3f5b6aff" d="M 0 0 
L -3.5 0 
" style="stroke: #000000; stroke-width: 0.8"/>
      </defs>
      <g>
       <use xlink:href="#m6f3f5b6aff" x="61.410938" y="279.010828" style="stroke: #000000; stroke-width: 0.8"/>
      </g>
     </g>
     <g id="text_9">
      <!-- 0.0 -->
      <g transform="translate(30.55625 284.709656)scale(0.15 -0.15)">
       <defs>
        <path id="DejaVuSans-2e" d="M 684 794 
L 1344 794 
L 1344 0 
L 684 0 
L 684 794 
z
" transform="scale(0.015625)"/>
       </defs>
       <use xlink:href="#DejaVuSans-30"/>
       <use xlink:href="#DejaVuSans-2e" x="63.623047"/>
       <use xlink:href="#DejaVuSans-30" x="95.410156"/>
      </g>
     </g>
    </g>
    <g id="ytick_2">
     <g id="line2d_17">
      <path d="M 61.410938 225.788428 
L 418.530938 225.788428 
" clip-path="url(#pf2b7413cda)" style="fill: none; stroke: #b0b0b0; stroke-width: 0.8; stroke-linecap: square"/>
     </g>
     <g id="line2d_18">
      <g>
       <use xlink:href="#m6f3f5b6aff" x="61.410938" y="225.788428" style="stroke: #000000; stroke-width: 0.8"/>
      </g>
     </g>
     <g id="text_10">
      <!-- 0.5 -->
      <g transform="translate(30.55625 231.487256)scale(0.15 -0.15)">
       <use xlink:href="#DejaVuSans-30"/>
       <use xlink:href="#DejaVuSans-2e" x="63.623047"/>
       <use xlink:href="#DejaVuSans-35" x="95.410156"/>
      </g>
     </g>
    </g>
    <g id="ytick_3">
     <g id="line2d_19">
      <path d="M 61.410938 172.566028 
L 418.530938 172.566028 
" clip-path="url(#pf2b7413cda)" style="fill: none; stroke: #b0b0b0; stroke-width: 0.8; stroke-linecap: square"/>
     </g>
     <g id="line2d_20">
      <g>
       <use xlink:href="#m6f3f5b6aff" x="61.410938" y="172.566028" style="stroke: #000000; stroke-width: 0.8"/>
      </g>
     </g>
     <g id="text_11">
      <!-- 1.0 -->
      <g transform="translate(30.55625 178.264856)scale(0.15 -0.15)">
       <use xlink:href="#DejaVuSans-31"/>
       <use xlink:href="#DejaVuSans-2e" x="63.623047"/>
       <use xlink:href="#DejaVuSans-30" x="95.410156"/>
      </g>
     </g>
    </g>
    <g id="ytick_4">
     <g id="line2d_21">
      <path d="M 61.410938 119.343628 
L 418.530938 119.343628 
" clip-path="url(#pf2b7413cda)" style="fill: none; stroke: #b0b0b0; stroke-width: 0.8; stroke-linecap: square"/>
     </g>
     <g id="line2d_22">
      <g>
       <use xlink:href="#m6f3f5b6aff" x="61.410938" y="119.343628" style="stroke: #000000; stroke-width: 0.8"/>
      </g>
     </g>
     <g id="text_12">
      <!-- 1.5 -->
      <g transform="translate(30.55625 125.042456)scale(0.15 -0.15)">
       <use xlink:href="#DejaVuSans-31"/>
       <use xlink:href="#DejaVuSans-2e" x="63.623047"/>
       <use xlink:href="#DejaVuSans-35" x="95.410156"/>
      </g>
     </g>
    </g>
    <g id="ytick_5">
     <g id="line2d_23">
      <path d="M 61.410938 66.121228 
L 418.530938 66.121228 
" clip-path="url(#pf2b7413cda)" style="fill: none; stroke: #b0b0b0; stroke-width: 0.8; stroke-linecap: square"/>
     </g>
     <g id="line2d_24">
      <g>
       <use xlink:href="#m6f3f5b6aff" x="61.410938" y="66.121228" style="stroke: #000000; stroke-width: 0.8"/>
      </g>
     </g>
     <g id="text_13">
      <!-- 2.0 -->
      <g transform="translate(30.55625 71.820056)scale(0.15 -0.15)">
       <use xlink:href="#DejaVuSans-32"/>
       <use xlink:href="#DejaVuSans-2e" x="63.623047"/>
       <use xlink:href="#DejaVuSans-30" x="95.410156"/>
      </g>
     </g>
    </g>
    <g id="ytick_6">
     <g id="line2d_25">
      <path d="M 61.410938 12.898828 
L 418.530938 12.898828 
" clip-path="url(#pf2b7413cda)" style="fill: none; stroke: #b0b0b0; stroke-width: 0.8; stroke-linecap: square"/>
     </g>
     <g id="line2d_26">
      <g>
       <use xlink:href="#m6f3f5b6aff" x="61.410938" y="12.898828" style="stroke: #000000; stroke-width: 0.8"/>
      </g>
     </g>
     <g id="text_14">
      <!-- 2.5 -->
      <g transform="translate(30.55625 18.597656)scale(0.15 -0.15)">
       <use xlink:href="#DejaVuSans-32"/>
       <use xlink:href="#DejaVuSans-2e" x="63.623047"/>
       <use xlink:href="#DejaVuSans-35" x="95.410156"/>
      </g>
     </g>
    </g>
    <g id="text_15">
     <!-- Difference (V) -->
     <g transform="translate(22.396875 215.476703)rotate(-90)scale(0.2 -0.2)">
      <defs>
       <path id="DejaVuSans-44" d="M 1259 4147 
L 1259 519 
L 2022 519 
Q 2988 519 3436 956 
Q 3884 1394 3884 2338 
Q 3884 3275 3436 3711 
Q 2988 4147 2022 4147 
L 1259 4147 
z
M 628 4666 
L 1925 4666 
Q 3281 4666 3915 4102 
Q 4550 3538 4550 2338 
Q 4550 1131 3912 565 
Q 3275 0 1925 0 
L 628 0 
L 628 4666 
z
" transform="scale(0.015625)"/>
       <path id="DejaVuSans-66" d="M 2375 4863 
L 2375 4384 
L 1825 4384 
Q 1516 4384 1395 4259 
Q 1275 4134 1275 3809 
L 1275 3500 
L 2222 3500 
L 2222 3053 
L 1275 3053 
L 1275 0 
L 697 0 
L 697 3053 
L 147 3053 
L 147 3500 
L 697 3500 
L 697 3744 
Q 697 4328 969 4595 
Q 1241 4863 1831 4863 
L 2375 4863 
z
" transform="scale(0.015625)"/>
       <path id="DejaVuSans-65" d="M 3597 1894 
L 3597 1613 
L 953 1613 
Q 991 1019 1311 708 
Q 1631 397 2203 397 
Q 2534 397 2845 478 
Q 3156 559 3463 722 
L 3463 178 
Q 3153 47 2828 -22 
Q 2503 -91 2169 -91 
Q 1331 -91 842 396 
Q 353 884 353 1716 
Q 353 2575 817 3079 
Q 1281 3584 2069 3584 
Q 2775 3584 3186 3129 
Q 3597 2675 3597 1894 
z
M 3022 2063 
Q 3016 2534 2758 2815 
Q 2500 3097 2075 3097 
Q 1594 3097 1305 2825 
Q 1016 2553 972 2059 
L 3022 2063 
z
" transform="scale(0.015625)"/>
       <path id="DejaVuSans-72" d="M 2631 2963 
Q 2534 3019 2420 3045 
Q 2306 3072 2169 3072 
Q 1681 3072 1420 2755 
Q 1159 2438 1159 1844 
L 1159 0 
L 581 0 
L 581 3500 
L 1159 3500 
L 1159 2956 
Q 1341 3275 1631 3429 
Q 1922 3584 2338 3584 
Q 2397 3584 2469 3576 
Q 2541 3569 2628 3553 
L 2631 2963 
z
" transform="scale(0.015625)"/>
       <path id="DejaVuSans-63" d="M 3122 3366 
L 3122 2828 
Q 2878 2963 2633 3030 
Q 2388 3097 2138 3097 
Q 1578 3097 1268 2742 
Q 959 2388 959 1747 
Q 959 1106 1268 751 
Q 1578 397 2138 397 
Q 2388 397 2633 464 
Q 2878 531 3122 666 
L 3122 134 
Q 2881 22 2623 -34 
Q 2366 -91 2075 -91 
Q 1284 -91 818 406 
Q 353 903 353 1747 
Q 353 2603 823 3093 
Q 1294 3584 2113 3584 
Q 2378 3584 2631 3529 
Q 2884 3475 3122 3366 
z
" transform="scale(0.015625)"/>
       <path id="DejaVuSans-56" d="M 1831 0 
L 50 4666 
L 709 4666 
L 2188 738 
L 3669 4666 
L 4325 4666 
L 2547 0 
L 1831 0 
z
" transform="scale(0.015625)"/>
      </defs>
      <use xlink:href="#DejaVuSans-44"/>
      <use xlink:href="#DejaVuSans-69" x="77.001953"/>
      <use xlink:href="#DejaVuSans-66" x="104.785156"/>
      <use xlink:href="#DejaVuSans-66" x="139.990234"/>
      <use xlink:href="#DejaVuSans-65" x="175.195312"/>
      <use xlink:href="#DejaVuSans-72" x="236.71875"/>
      <use xlink:href="#DejaVuSans-65" x="275.582031"/>
      <use xlink:href="#DejaVuSans-6e" x="337.105469"/>
      <use xlink:href="#DejaVuSans-63" x="400.484375"/>
      <use xlink:href="#DejaVuSans-65" x="455.464844"/>
      <use xlink:href="#DejaVuSans-20" x="516.988281"/>
      <use xlink:href="#DejaVuSans-28" x="548.775391"/>
      <use xlink:href="#DejaVuSans-56" x="587.789062"/>
      <use xlink:href="#DejaVuSans-29" x="656.197266"/>
     </g>
    </g>
   </g>
   <g id="line2d_27">
    <path d="M 78.272029 -1 
L 78.390242 178.05784 
L 78.710204 204.172707 
L 79.030166 215.435952 
L 79.350128 220.860261 
L 79.424184 -1 
M 79.82149 -1 
L 79.883397 205.170395 
L 79.990051 200.676951 
L 80.096705 200.94346 
L 80.203359 202.672851 
L 80.310013 199.299805 
L 80.416667 201.826772 
L 80.423392 -1 
M 80.837009 -1 
L 80.949936 195.582011 
L 81.269898 213.840843 
L 81.483206 51.009577 
L 81.679237 -1 
M 81.816797 -1 
L 82.016476 241.003194 
L 83.722938 168.499815 
L 84.0429 161.63808 
L 84.149554 160.578246 
L 84.362862 139.34229 
L 84.469516 141.027979 
L 84.489616 -1 
M 85.726967 -1 
L 85.749363 91.064138 
L 85.856017 77.061658 
L 85.861183 -1 
M 86.061848 -1 
L 86.175979 133.810888 
L 86.282633 152.066159 
L 86.389287 193.872844 
L 86.49594 77.146975 
L 86.815902 185.144814 
L 86.826458 -1 
M 87.015865 -1 
L 87.135864 242.934294 
L 87.170135 -1 
M 87.321989 -1 
L 87.349172 175.221878 
L 87.682089 -1 
M 87.848727 -1 
L 87.989095 146.756553 
L 88.202403 125.685384 
L 88.415711 117.516401 
L 88.522365 116.582663 
L 88.629019 117.701069 
L 88.842327 125.837469 
L 89.162289 151.551708 
L 89.48225 190.768398 
L 89.695558 247.383685 
L 89.802212 252.419522 
L 90.01552 238.292771 
L 90.54879 216.806529 
L 90.762097 159.553328 
L 91.402021 82.314806 
L 91.615329 65.593788 
L 91.721983 143.422827 
L 91.839846 -1 
M 92.57355 -1 
L 92.681868 37.3339 
L 92.68566 -1 
M 93.270147 -1 
L 93.321792 158.876634 
L 93.428446 132.707065 
L 94.281677 227.687761 
L 94.494985 236.466171 
L 94.601639 235.39002 
L 95.348216 99.966697 
L 95.45487 113.104699 
L 95.493156 -1 
M 96.411972 -1 
L 96.521409 50.291967 
L 96.948025 99.157081 
L 97.267987 149.859487 
L 97.374641 216.649289 
L 97.481295 179.640802 
L 97.90791 235.857676 
L 98.547834 206.459171 
L 98.654488 209.679862 
L 98.867796 128.945862 
L 99.294411 84.685942 
L 99.371573 -1 
M 100.559473 -1 
L 100.574258 77.293393 
L 100.629486 -1 
M 100.726386 -1 
L 100.89422 109.00615 
L 101.320836 169.522681 
L 101.534144 221.287866 
L 101.640798 215.311826 
L 101.854106 231.517521 
L 101.96076 235.33641 
L 102.067413 228.922155 
L 102.174067 208.756828 
L 102.280721 210.390953 
L 102.494029 157.668297 
L 102.538169 -1 
M 102.792105 -1 
L 102.813991 97.066844 
L 102.920645 78.824148 
L 103.240607 32.132372 
L 103.347261 75.247668 
L 103.366123 -1 
M 104.180051 -1 
L 104.307146 65.803518 
L 104.840415 146.15438 
L 105.373685 239.075244 
L 105.906955 218.078964 
L 106.546878 129.586736 
L 106.86684 100.791538 
L 106.889194 -1 
M 107.180844 -1 
L 107.186802 11.3175 
L 107.188891 -1 
M 108.455155 -1 
L 108.573303 108.67442 
L 108.786611 114.504992 
L 108.893265 142.644154 
L 108.999919 139.477763 
L 109.31988 163.132856 
L 109.426534 240.114479 
L 109.639842 212.886281 
L 110.066458 148.017014 
L 110.143454 -1 
M 110.903531 -1 
L 111.026343 266.075703 
L 111.132997 259.086087 
L 111.164771 -1 
M 111.342249 -1 
L 111.452959 32.066905 
L 111.666267 54.999717 
L 111.772921 168.673525 
L 111.879574 90.053696 
L 112.519498 189.585559 
L 112.83946 239.395805 
L 113.372729 220.576783 
L 114.119307 128.182319 
L 114.225961 168.887194 
L 114.349803 -1 
M 114.52854 -1 
L 114.545923 71.728563 
L 114.652576 66.583199 
L 114.671673 -1 
M 115.134977 -1 
L 115.185846 182.312108 
L 115.266404 -1 
M 116.023391 -1 
L 116.145731 76.923279 
L 116.252385 127.610246 
L 116.359039 125.155028 
L 116.679001 156.725144 
L 116.785655 163.125003 
L 116.892309 219.330372 
L 116.998963 218.440009 
L 117.212271 175.396382 
L 117.425579 26.119802 
L 117.503271 -1 
M 117.82145 -1 
L 117.852194 31.301214 
L 117.866064 -1 
M 118.262577 -1 
L 118.385464 266.115768 
L 118.492118 266.233289 
L 118.598772 255.336218 
L 118.630248 -1 
M 118.787196 -1 
L 118.918733 187.949004 
L 119.345349 204.190874 
L 119.878619 234.835022 
L 120.091927 249.244542 
L 120.198581 248.097063 
L 121.691735 190.93405 
L 121.798389 188.250631 
L 121.834119 -1 
M 121.979703 -1 
L 122.011697 159.988556 
L 122.118351 149.786356 
L 122.331659 109.109227 
L 122.359017 -1 
M 122.508122 -1 
L 122.651621 194.049536 
L 122.758275 221.059148 
L 122.864929 128.907266 
L 122.887064 -1 
M 123.260826 -1 
L 123.291544 47.536799 
L 123.352806 -1 
M 123.507635 -1 
L 123.931468 137.855585 
L 124.144776 140.967467 
L 124.195795 -1 
M 124.413582 -1 
L 124.464738 158.06946 
L 124.810317 -1 
M 125.100371 -1 
L 125.104661 2.458631 
L 125.106978 -1 
M 125.62194 -1 
L 125.744585 265.534852 
L 125.851239 266.036084 
L 125.957892 265.045023 
L 126.064546 252.616003 
L 126.1712 265.979756 
L 126.277854 265.467358 
L 126.298808 -1 
M 126.472036 -1 
L 126.491162 237.149621 
L 126.505635 -1 
M 126.689996 -1 
L 126.70447 237.165704 
L 126.750872 -1 
M 126.877907 -1 
L 127.024432 192.89136 
L 127.664355 252.326278 
L 127.771009 249.099175 
L 128.090971 224.941324 
L 128.730894 192.214616 
L 129.050856 180.606545 
L 129.160263 -1 
M 129.351594 -1 
L 129.370818 172.772235 
L 129.584126 127.608711 
L 129.797434 193.281948 
L 129.904088 216.550149 
L 130.117396 106.509272 
L 130.224049 107.594538 
L 130.258846 -1 
M 130.642399 -1 
L 130.650665 55.767265 
L 130.757319 55.420173 
L 131.077281 83.830383 
L 131.290589 109.425944 
L 131.397243 112.764587 
L 131.503897 155.678084 
L 131.522606 -1 
M 131.778521 -1 
L 131.930512 247.294598 
L 132.037166 240.719755 
L 132.14382 207.730291 
L 132.158359 -1 
M 132.342542 -1 
L 132.357128 208.516404 
L 132.463782 197.850755 
L 132.67709 176.982197 
L 132.688518 -1 
M 133.140226 -1 
L 133.317013 266.121152 
L 133.423667 266.609937 
L 133.530321 247.724897 
L 133.636975 265.888936 
L 133.743629 265.3789 
L 133.956937 264.310438 
L 133.973105 -1 
M 134.159757 -1 
L 134.276899 169.361769 
L 135.236784 247.352364 
L 135.556746 228.373288 
L 135.572759 -1 
M 135.754743 -1 
L 135.770053 216.631221 
L 135.876707 211.171262 
L 136.516631 185.284542 
L 136.554457 -1 
M 136.891171 -1 
L 136.943247 110.196241 
L 137.049901 98.358867 
L 137.156555 121.196471 
L 137.369862 227.447672 
L 137.58317 109.960878 
L 137.689824 103.273251 
L 137.800649 -1 
M 138.114304 -1 
L 138.223094 73.542506 
L 138.329748 64.219648 
L 138.863017 124.041388 
L 138.969671 137.130403 
L 139.009864 -1 
M 139.557326 -1 
L 139.609595 224.162773 
L 139.716249 215.55763 
L 140.142864 172.926729 
L 140.154217 -1 
M 140.446696 -1 
L 140.56948 262.789441 
L 140.782788 266.274687 
L 140.996096 266.949134 
L 141.10275 242.984724 
L 141.209404 265.256956 
L 141.316058 264.723812 
L 141.529365 263.11682 
L 141.545587 -1 
M 141.731689 -1 
L 141.849327 177.034666 
L 142.702559 247.167423 
L 143.55579 200.659011 
L 143.662444 196.132211 
L 143.722442 -1 
M 144.178232 -1 
L 144.195714 95.012144 
L 144.249817 -1 
M 144.352835 -1 
L 144.515675 120.015874 
L 144.622329 110.015892 
L 144.835637 248.008491 
L 144.942291 109.93415 
L 145.048945 128.068064 
L 145.155599 102.802926 
L 145.262253 103.442896 
L 145.368907 104.992302 
L 145.37873 -1 
M 145.774698 -1 
L 145.902176 75.218848 
L 146.435446 139.952424 
L 146.5421 152.647886 
L 146.592948 -1 
M 147.148308 -1 
L 147.395331 193.232139 
L 147.50885 -1 
M 147.80575 -1 
L 147.928601 259.738822 
L 148.248563 266.395081 
L 148.355217 266.861662 
L 148.46187 240.682296 
L 148.568524 265.681169 
L 148.675178 265.166954 
L 148.888486 264.087956 
L 148.99514 262.313848 
L 149.101794 194.312604 
L 149.114419 -1 
M 149.303486 -1 
L 149.421756 186.254238 
L 150.168333 245.057118 
L 150.274987 138.160376 
L 150.381641 228.613557 
L 150.420336 -1 
M 150.557183 -1 
L 150.594949 220.077809 
L 150.701603 214.505065 
L 151.021565 199.11719 
L 151.061583 -1 
M 151.538193 -1 
L 151.554834 85.704572 
L 151.586562 -1 
M 151.732576 -1 
L 151.768142 101.438465 
L 151.874796 101.387246 
L 151.98145 191.782318 
L 152.088104 108.1535 
L 152.301412 265.252028 
L 152.408066 110.678587 
L 152.51472 186.054884 
L 152.621374 103.787595 
L 152.728027 104.108044 
L 152.834681 103.508708 
L 152.941335 107.465307 
L 152.951281 -1 
M 153.15393 -1 
L 153.261297 100.594399 
L 153.367951 76.413234 
L 153.901221 137.73629 
L 154.114528 171.532078 
L 154.139148 -1 
M 154.402122 -1 
L 154.541144 225.451496 
L 154.647798 40.770338 
L 154.861106 192.646355 
L 154.96776 102.761996 
L 154.975042 -1 
M 155.164807 -1 
L 155.287722 256.606111 
L 155.714337 266.558174 
L 155.820991 267.018121 
L 155.927645 237.139667 
L 156.034299 265.573221 
L 156.140953 265.057321 
L 156.354261 263.974667 
L 156.567569 259.125351 
L 156.674223 256.129078 
L 156.690524 -1 
M 156.875246 -1 
L 156.994184 194.229282 
L 157.527454 243.965458 
L 157.740762 235.544317 
L 157.847416 53.475315 
L 157.95407 224.354822 
L 158.060724 220.904172 
L 158.274032 210.261811 
L 158.34504 -1 
M 158.668327 -1 
L 158.700647 111.174811 
L 158.807301 105.85365 
L 158.817423 -1 
M 159.010641 -1 
L 159.020609 104.062229 
L 159.127263 103.669931 
L 159.340571 102.057195 
L 159.447225 129.959382 
L 159.553879 114.998618 
L 159.767186 277.947564 
L 159.87384 116.757133 
L 159.980494 127.59532 
L 160.087148 104.176953 
L 160.193802 105.060129 
L 160.40711 106.736033 
L 160.513764 108.222954 
L 160.523693 -1 
M 160.72066 -1 
L 160.833726 76.66212 
L 161.153687 115.720838 
L 161.164012 -1 
M 161.354029 -1 
L 161.473649 157.376202 
L 162.006919 225.727881 
L 162.326881 193.557831 
L 162.339978 -1 
M 162.55545 -1 
L 162.753496 257.144732 
L 163.180112 266.708428 
L 163.286766 267.16213 
L 163.39342 233.602438 
L 163.500074 263.587936 
L 163.606728 255.657748 
L 163.638161 -1 
M 163.887384 -1 
L 164.033343 258.368317 
L 164.246651 253.335802 
L 164.263092 -1 
M 164.489191 -1 
L 164.673267 212.610707 
L 164.993229 242.637813 
L 165.206537 228.669301 
L 165.313191 206.016458 
L 165.419844 72.861452 
L 165.633152 204.296502 
L 165.84646 140.190555 
L 166.166422 118.554794 
L 166.177326 -1 
M 166.369838 -1 
L 166.37973 106.322648 
L 166.486384 105.016588 
L 166.593038 103.72472 
L 166.699692 107.843418 
L 166.806345 157.084271 
L 166.912999 109.798166 
L 167.019653 136.412902 
L 167.232961 277.991647 
L 167.446269 112.48626 
L 167.552923 167.880261 
L 167.659577 105.913294 
L 167.766231 107.430043 
L 167.872885 106.929337 
L 168.086193 110.757068 
L 168.096267 -1 
M 168.29519 -1 
L 168.406154 153.530343 
L 168.512808 104.419557 
L 169.152732 187.229484 
L 169.472694 224.963983 
L 169.686001 203.420931 
L 169.69993 -1 
M 170.097752 -1 
L 170.219271 257.042471 
L 170.645887 266.857424 
L 170.752541 267.304849 
L 170.859195 230.085002 
L 170.965849 265.378701 
L 171.072502 264.860901 
L 171.28581 263.770438 
L 171.499118 259.621106 
L 171.605772 256.326494 
L 171.695625 -1 
M 172.124674 -1 
L 172.245696 220.530653 
L 172.35235 230.683257 
L 172.459003 226.881411 
L 172.672311 203.951806 
L 172.778965 222.685842 
L 172.885619 168.658094 
L 172.91577 -1 
M 173.069987 -1 
L 173.098927 159.302821 
L 173.205581 149.724829 
L 173.525543 124.17221 
L 173.536835 -1 
M 173.728813 -1 
L 173.738851 108.823823 
L 173.845504 107.106411 
L 174.058812 104.787619 
L 174.165466 105.201938 
L 174.27212 160.691873 
L 174.378774 110.507437 
L 174.397992 -1 
M 174.554591 -1 
L 174.698736 277.03471 
L 174.846642 -1 
M 174.970138 -1 
L 175.125352 108.034497 
L 175.232005 107.401948 
L 175.338659 109.103211 
L 175.445313 109.024322 
L 175.658621 113.307983 
L 175.668845 -1 
M 175.903746 -1 
L 175.978583 125.825908 
L 176.085237 117.159546 
L 176.618506 187.506502 
L 176.646732 -1 
M 176.904681 -1 
L 176.938468 224.228813 
L 176.954064 -1 
M 177.244421 -1 
L 177.25843 200.281185 
L 177.315215 -1 
M 177.671222 -1 
L 177.685046 28.60652 
L 177.707635 -1 
M 177.991981 -1 
L 178.324969 206.804943 
L 178.431623 191.769347 
L 178.743413 -1 
M 179.061262 -1 
L 179.071547 12.076927 
L 179.077759 -1 
M 179.417939 -1 
L 179.498162 198.988649 
L 179.604816 196.595914 
L 179.618773 -1 
M 179.802226 -1 
L 179.818124 228.895448 
L 179.924778 227.562269 
L 180.031432 225.424871 
L 180.24474 184.940484 
L 180.671356 133.41203 
L 180.701451 -1 
M 180.981145 -1 
L 180.991317 113.887922 
L 181.097971 111.240592 
L 181.417933 106.794402 
L 181.524587 105.330361 
L 181.631241 130.349059 
L 181.705808 -1 
M 181.889649 -1 
L 182.164511 276.987232 
L 182.33057 -1 
M 182.515349 -1 
L 182.591126 129.841324 
L 182.69778 106.925145 
L 182.804434 107.822004 
L 183.23105 114.341889 
L 183.337704 163.434246 
L 183.351478 -1 
M 183.54 -1 
L 183.657665 133.445444 
L 184.190935 204.091022 
L 184.228395 -1 
M 184.497206 -1 
L 184.617551 193.976176 
L 184.724205 201.876968 
L 184.845301 -1 
M 185.473274 -1 
L 185.790744 170.408823 
L 185.897398 174.726911 
L 186.203147 -1 
M 186.829329 -1 
L 186.963937 202.063483 
L 187.283899 180.846162 
L 187.397824 -1 
M 187.589197 -1 
L 187.603861 197.465047 
L 187.710515 185.537862 
L 187.923822 162.924388 
L 187.937202 -1 
M 188.124728 -1 
L 188.13713 149.36873 
L 188.243784 148.359019 
L 188.563746 111.171599 
L 188.777054 108.049396 
L 188.990362 105.096559 
L 189.097016 141.920098 
L 189.173535 -1 
M 189.345224 -1 
L 189.523631 274.239123 
L 189.630285 277.037922 
L 189.808533 -1 
M 189.979212 -1 
L 190.056901 140.703106 
L 190.163555 107.057389 
L 190.270209 107.84917 
L 190.696824 117.094268 
L 190.803478 123.040575 
L 191.016786 150.840386 
L 191.443402 162.987031 
L 191.550056 176.571253 
L 191.564526 -1 
M 191.748427 -1 
L 191.870018 184.028648 
L 192.296633 206.932811 
L 192.616595 225.525071 
L 192.715171 -1 
M 192.943874 -1 
L 193.256519 179.292051 
L 193.363173 163.620205 
L 193.651102 -1 
M 193.852797 -1 
L 194.003096 222.489596 
L 194.116579 -1 
M 194.30318 -1 
L 194.323058 205.829438 
L 194.429712 197.097262 
L 194.536366 192.745178 
L 194.64302 57.411065 
L 194.749674 175.934609 
L 194.856328 174.531043 
L 195.602905 149.492349 
L 195.709559 191.740584 
L 195.922867 112.425038 
L 196.136175 108.720209 
L 196.242829 107.65603 
L 196.349482 104.901866 
L 196.456136 105.067101 
L 196.552921 -1 
M 196.804882 -1 
L 196.989406 273.854855 
L 197.09606 277.569552 
L 197.281362 -1 
M 197.721852 -1 
L 197.842637 112.238152 
L 198.375907 123.304846 
L 198.482561 184.946356 
L 198.589215 156.246915 
L 198.909177 166.179248 
L 199.335792 183.648411 
L 199.655754 202.803777 
L 199.762408 205.18336 
L 200.189024 234.07104 
L 200.3934 -1 
M 200.418865 -1 
L 200.722293 172.393343 
L 200.828947 157.441459 
L 201.104631 -1 
M 201.162855 -1 
L 201.362217 229.26885 
L 201.575525 216.681905 
L 201.682179 212.886444 
L 201.895487 197.780684 
L 202.00214 48.929511 
L 202.108794 186.539534 
L 202.215448 181.379351 
L 202.322102 176.490134 
L 202.437648 -1 
M 202.626814 -1 
L 202.642064 162.741174 
L 202.748718 157.89604 
L 203.06868 148.302158 
L 203.495295 110.201863 
L 203.815257 105.762011 
L 203.921911 138.4434 
L 203.997977 -1 
M 204.261184 -1 
L 204.455181 273.805063 
L 204.561835 277.47387 
L 204.668489 187.308805 
L 204.751962 -1 
M 205.187614 -1 
L 205.201758 115.654061 
L 205.308412 114.612315 
L 205.841682 122.450784 
L 205.948336 180.17108 
L 206.161644 157.805634 
L 206.268297 164.093599 
L 206.297011 -1 
M 206.452131 -1 
L 206.588259 174.41498 
L 207.441491 218.98384 
L 207.548145 158.945883 
L 207.602188 -1 
M 207.880847 -1 
L 208.081414 108.440356 
L 208.188068 236.498203 
L 208.294722 210.917355 
L 208.559201 -1 
M 208.870039 -1 
L 208.934646 225.072823 
L 209.041299 215.997727 
L 209.147953 52.205347 
L 209.254607 205.221629 
L 209.467915 194.172019 
L 209.787877 177.05146 
L 209.894531 175.130196 
L 210.107839 164.382419 
L 210.4278 155.076674 
L 210.534454 191.169846 
L 210.747762 119.189006 
L 211.067724 112.489369 
L 211.174378 114.30797 
L 211.281032 110.085924 
L 211.292952 -1 
M 211.720086 -1 
L 211.920955 277.084294 
L 212.027609 274.321215 
L 212.134263 176.754591 
L 212.216484 -1 
M 212.645248 -1 
L 212.774187 111.761176 
L 213.094149 116.095985 
L 213.200803 119.993327 
L 213.307456 117.693496 
L 213.41411 168.873778 
L 213.520764 154.130833 
L 213.734072 160.847868 
L 213.94738 168.613584 
L 213.966054 -1 
M 214.202969 -1 
L 214.373996 187.54611 
L 215.227227 236.550313 
L 215.333881 245.605483 
L 215.547189 267.462094 
L 215.653843 218.757207 
L 215.760497 260.558001 
L 215.867151 259.795696 
L 215.973805 262.690862 
L 216.293766 231.239362 
L 216.720382 206.072977 
L 216.827036 25.746231 
L 216.93369 194.667247 
L 217.040344 189.39631 
L 217.253652 179.77526 
L 217.278725 -1 
M 217.53681 -1 
L 217.573613 165.66324 
L 217.680267 162.03317 
L 217.893575 154.898058 
L 218.000229 155.136409 
L 218.213537 121.049226 
L 218.533499 114.435674 
L 218.640153 112.933498 
L 218.746807 113.995334 
L 218.811651 -1 
M 219.12635 -1 
L 219.38673 276.129891 
L 219.493384 269.48107 
L 219.600038 242.622324 
L 219.68453 -1 
M 220.120137 -1 
L 220.133308 108.039656 
L 220.239962 107.69837 
L 220.453269 110.120526 
L 220.559923 112.097891 
L 220.879885 85.419581 
L 221.306501 132.610572 
L 222.053078 226.948344 
L 222.266386 207.697122 
L 222.479694 250.532273 
L 222.586348 41.939347 
L 222.799656 258.776903 
L 223.119617 265.037646 
L 223.226271 237.246869 
L 223.439579 263.61047 
L 223.546233 263.650326 
L 223.652887 263.028397 
L 223.759541 52.00929 
L 223.866195 257.193806 
L 223.972849 253.950059 
L 224.079503 55.445177 
L 224.292811 249.82418 
L 224.506118 197.700209 
L 225.146042 168.897433 
L 225.679312 152.628672 
L 225.785966 150.843324 
L 225.892619 143.153432 
L 226.105927 114.8873 
L 226.162647 -1 
M 226.25595 -1 
L 226.425889 150.426931 
L 226.745851 161.11247 
L 226.766719 -1 
M 227.069106 -1 
L 227.172467 248.924907 
L 227.218805 -1 
M 227.480801 -1 
L 227.492428 105.968233 
L 227.599082 104.241677 
L 227.705736 104.71689 
L 227.881604 -1 
M 227.948807 -1 
L 228.025698 68.475183 
L 228.132352 39.232784 
L 228.34566 52.91627 
L 228.665622 89.22692 
L 228.878929 210.605153 
L 229.412199 246.418745 
L 229.518853 242.79757 
L 230.26543 167.799924 
L 230.372084 50.747182 
L 230.692046 259.291649 
L 230.7987 67.247194 
L 230.905354 261.909199 
L 231.012008 261.061402 
L 231.438624 257.9905 
L 232.078547 238.086793 
L 232.185201 235.726874 
L 232.291855 230.893414 
L 232.505163 162.911907 
L 232.611817 162.062228 
L 232.931778 153.203861 
L 233.038432 137.679554 
L 233.25174 153.472435 
L 233.358394 155.217066 
L 233.465048 154.644273 
L 233.571702 177.096765 
L 233.678356 128.954878 
L 233.891664 134.999579 
L 234.31828 146.002377 
L 234.424933 229.606936 
L 234.654771 -1 
M 235.159172 -1 
L 235.171511 113.026536 
L 235.27688 -1 
M 235.515519 -1 
L 235.598127 67.055449 
L 235.704781 45.497348 
L 236.131396 81.887206 
L 236.23805 93.366648 
L 236.558012 218.928714 
L 236.984628 247.927284 
L 237.731205 170.71377 
L 237.837859 159.871609 
L 237.925218 -1 
M 237.958423 -1 
L 238.051167 235.909294 
L 238.157821 38.543782 
L 238.371129 258.171596 
L 238.477783 57.96896 
L 238.584436 260.533047 
L 238.69109 259.708631 
L 238.904398 258.145187 
L 239.117706 251.879709 
L 239.544322 237.780583 
L 239.650976 221.629237 
L 239.864284 164.766834 
L 240.184245 155.084318 
L 240.397553 149.718108 
L 240.504207 230.693812 
L 240.717515 150.082159 
L 240.824169 148.365458 
L 240.930823 154.378475 
L 241.037477 152.320828 
L 241.144131 127.049933 
L 241.464092 132.956238 
L 241.784054 142.479596 
L 241.890708 159.700928 
L 241.997362 26.279543 
L 242.21067 37.834036 
L 242.2154 -1 
M 242.729879 -1 
L 242.74394 112.100305 
L 242.850593 91.032357 
L 242.859854 -1 
M 243.136317 -1 
L 243.170555 5.759121 
L 243.175655 -1 
M 243.900311 -1 
L 243.917133 2.879821 
L 244.130441 97.479812 
L 244.343748 143.748602 
L 244.450402 73.821682 
L 244.557056 193.072836 
L 244.66371 72.138886 
L 244.770364 206.904538 
L 245.090326 175.550259 
L 245.125124 -1 
M 245.260169 -1 
L 245.303634 249.765117 
L 245.410288 247.135214 
L 245.623595 255.287247 
L 246.263519 260.253901 
L 246.370173 259.12871 
L 247.010097 235.473274 
L 247.11675 238.610516 
L 247.330058 157.462165 
L 247.756674 148.519228 
L 248.076636 134.33548 
L 248.289944 143.776056 
L 248.396598 162.697445 
L 248.609905 68.071761 
L 249.036521 83.139207 
L 249.045353 -1 
M 249.229202 -1 
L 249.249829 222.456964 
L 249.356483 222.323583 
L 249.463137 222.109805 
L 249.569791 240.560308 
L 249.676445 205.770378 
L 249.696079 -1 
M 250.082966 -1 
L 250.10306 217.403132 
L 250.129285 -1 
M 250.305626 -1 
L 250.423022 77.938342 
L 250.529676 84.48199 
L 250.63633 142.660022 
L 250.849638 115.554921 
L 251.062946 120.656472 
L 251.276253 126.870444 
L 251.596215 140.702747 
L 251.702869 230.87699 
L 251.809523 223.978052 
L 251.916177 171.456241 
L 252.129485 232.301665 
L 252.876062 254.336311 
L 252.982716 200.783693 
L 253.196024 254.535557 
L 253.62264 258.073511 
L 254.369217 237.354737 
L 254.689179 228.533278 
L 254.795833 240.160784 
L 255.009141 134.34293 
L 255.115795 140.826163 
L 255.222449 99.720893 
L 255.54241 112.288935 
L 255.649064 149.299306 
L 255.755718 98.798038 
L 255.862372 165.819566 
L 256.082143 -1 
M 256.372084 -1 
L 256.395642 275.965419 
L 256.418789 -1 
M 256.925209 -1 
L 256.928911 21.211986 
L 256.945138 -1 
M 257.54675 -1 
L 257.568835 254.858679 
L 257.590399 -1 
M 257.773312 -1 
L 257.782143 90.135936 
L 257.864907 -1 
M 258.222664 -1 
L 258.315412 116.17169 
L 258.422066 1.37528 
L 258.848682 27.450159 
L 259.06199 220.936546 
L 259.701913 237.320417 
L 260.341837 258.268536 
L 260.448491 166.644653 
L 260.555145 253.978956 
L 260.570069 -1 
M 260.753629 -1 
L 260.768453 251.986481 
L 260.783362 -1 
M 260.966636 -1 
L 260.981761 256.249721 
L 261.088415 255.107211 
L 262.0483 225.318737 
L 262.154954 173.032222 
L 262.261608 220.137019 
L 262.368262 68.257011 
L 262.474916 166.435377 
L 262.558302 -1 
M 262.614286 -1 
L 262.794877 123.334423 
L 263.008185 100.938237 
L 263.114839 103.250992 
L 263.328147 94.307648 
L 263.337058 -1 
M 263.519988 -1 
L 263.648109 270.183171 
L 263.754763 273.605841 
L 263.861417 271.472481 
L 263.883679 -1 
M 264.056627 -1 
L 264.074724 210.086158 
L 264.137175 -1 
M 264.377835 -1 
L 264.394686 76.840452 
L 264.402171 -1 
M 264.692408 -1 
L 264.714648 269.288107 
L 264.821302 261.518417 
L 265.03461 248.171629 
L 265.199295 -1 
M 265.494081 -1 
L 265.567879 64.233623 
L 265.660665 -1 
M 265.884776 -1 
L 266.101149 11.676686 
L 266.207803 104.95542 
L 266.314457 74.767932 
L 266.847726 115.952774 
L 267.167688 146.433607 
L 267.380996 180.776017 
L 267.914266 234.901604 
L 268.02092 137.766988 
L 268.127574 245.152315 
L 268.554189 200.334139 
L 268.636971 -1 
M 268.686885 -1 
L 268.874151 204.637258 
L 269.087459 133.087211 
L 269.834036 71.723394 
L 269.94069 107.286444 
L 270.153998 0.908457 
L 270.188374 -1 
M 270.38558 -1 
L 270.47396 45.294046 
L 270.538475 -1 
M 270.842877 -1 
L 271.007229 251.753823 
L 271.220537 272.206419 
L 271.24253 -1 
M 271.41419 -1 
L 271.433845 236.599611 
L 271.625489 -1 
M 271.660233 -1 
L 271.753807 239.135907 
L 271.860461 237.987021 
L 271.967115 236.827344 
L 271.986795 -1 
M 272.15842 -1 
L 272.180423 272.187446 
L 272.287077 262.073564 
L 272.500384 239.776368 
L 272.689241 -1 
M 272.967504 -1 
L 273.033654 49.104868 
L 273.122237 -1 
M 273.327823 -1 
L 273.46027 7.323875 
L 273.566924 103.738027 
L 273.673578 71.215177 
L 273.993539 94.0878 
L 274.100193 18.525414 
L 274.313501 123.235039 
L 274.420155 133.123657 
L 274.633463 167.877155 
L 275.273386 234.139959 
L 275.38004 152.07668 
L 275.486694 246.733968 
L 276.233272 170.836956 
L 276.339926 193.876378 
L 276.553234 125.276721 
L 277.299811 66.469662 
L 277.513119 2.608142 
L 277.580486 -1 
M 277.847628 -1 
L 277.939735 81.607001 
L 278.015828 -1 
M 278.279465 -1 
L 278.36635 172.768197 
L 278.473004 145.343352 
L 278.579658 260.491495 
L 278.601144 -1 
M 278.773115 -1 
L 278.792966 236.042081 
L 278.89962 209.787926 
L 279.006274 238.409522 
L 279.111517 -1 
M 279.114408 -1 
L 279.219582 226.946351 
L 279.326236 225.444127 
L 279.345358 -1 
M 279.517511 -1 
L 279.646197 273.902725 
L 279.859505 254.253594 
L 279.966159 127.563809 
L 280.072813 207.888043 
L 280.168114 -1 
M 280.438026 -1 
L 280.499429 23.474647 
L 280.606083 0.860714 
L 281.032698 25.545185 
L 281.139352 124.784247 
L 281.246006 86.519941 
L 281.565968 109.778945 
L 281.672622 103.181186 
L 281.779276 20.419185 
L 281.992584 132.05516 
L 282.205892 160.68604 
L 282.419199 202.687527 
L 282.845815 256.229411 
L 282.952469 184.874741 
L 283.059123 235.386391 
L 283.379085 203.675345 
L 283.485739 226.340072 
L 283.699046 160.552196 
L 284.445624 94.799591 
L 284.552278 87.207255 
L 284.658932 148.862829 
L 284.87224 18.532709 
L 285.192201 -0.162577 
L 285.298855 89.717892 
L 285.386361 -1 
M 285.727353 -1 
L 285.938779 260.639501 
L 285.960406 -1 
M 286.132137 -1 
L 286.258741 236.951378 
L 286.365395 238.190331 
L 286.385671 -1 
M 286.562764 -1 
L 286.578702 178.03354 
L 286.685356 16.25016 
L 286.79201 180.781856 
L 286.808017 -1 
M 286.983015 -1 
L 287.111972 272.672648 
L 287.218626 272.451513 
L 287.241061 -1 
M 287.410548 -1 
L 287.431934 256.455173 
L 287.538588 241.896359 
L 287.751896 9.400735 
L 287.965203 5.305908 
L 288.071857 4.600396 
L 288.285165 153.152887 
L 288.391819 16.046713 
L 288.498473 19.685508 
L 288.711781 30.923393 
L 288.818435 119.525432 
L 288.862476 -1 
M 288.991989 -1 
L 289.138397 110.664405 
L 289.458358 146.552744 
L 289.489164 -1 
M 289.841453 -1 
L 289.991628 225.246279 
L 290.204936 256.33931 
L 290.236577 -1 
M 290.388741 -1 
L 290.418244 232.300816 
L 290.524898 230.120554 
L 290.738205 206.983133 
L 290.75143 -1 
M 291.023904 -1 
L 291.164821 177.395234 
L 291.698091 233.548167 
L 291.804745 229.208761 
L 291.911399 207.654433 
L 292.124706 129.153711 
L 292.657976 92.183082 
L 292.76463 87.788249 
L 292.871284 129.464625 
L 292.883126 -1 
M 293.171585 -1 
L 293.2979 231.966026 
L 293.317665 -1 
M 293.491238 -1 
L 293.511207 234.926606 
L 293.617861 164.054811 
L 293.632612 -1 
M 293.815688 -1 
L 293.937823 240.419325 
L 293.979693 -1 
M 294.123513 -1 
L 294.257785 226.298677 
L 294.364439 224.315134 
L 294.392174 -1 
M 295.20287 -1 
L 295.21767 163.171694 
L 295.430978 20.557442 
L 295.537632 21.380145 
L 295.75094 26.336021 
L 295.753329 -1 
M 295.958892 -1 
L 295.964248 62.061219 
L 295.983012 -1 
M 296.149517 -1 
L 296.28421 160.579949 
L 296.710825 185.470965 
L 296.924133 202.065575 
L 296.937563 -1 
M 297.128372 -1 
L 297.244095 157.160118 
L 297.254649 -1 
M 297.446066 -1 
L 297.564057 172.53802 
L 297.670711 175.461214 
L 297.695124 -1 
M 297.858902 -1 
L 297.990672 187.150248 
L 298.523942 218.570135 
L 299.377173 95.44908 
L 299.590481 32.910367 
L 299.887968 -1 
M 299.9167 -1 
L 300.017097 36.723497 
L 300.073818 -1 
M 300.371881 -1 
L 300.443713 100.315982 
L 300.453354 -1 
M 300.648524 -1 
L 300.763674 213.61605 
L 300.806327 -1 
M 302.241356 -1 
L 302.256829 168.492271 
L 302.290592 -1 
M 302.674448 -1 
L 302.790099 11.491032 
L 303.110061 6.73176 
L 303.216715 28.632417 
L 303.223143 -1 
M 303.690005 -1 
L 303.749984 6.468708 
L 303.856638 85.807209 
L 303.927525 -1 
M 303.987416 -1 
L 304.1766 155.915914 
L 304.389908 145.737249 
L 305.029831 212.59274 
L 305.136485 213.959159 
L 305.164927 -1 
M 305.321081 -1 
L 305.456447 219.49795 
L 305.669755 226.044908 
L 305.989717 191.445021 
L 306.096371 199.868206 
L 306.736294 139.870926 
L 306.842948 158.490881 
L 307.056256 136.360088 
L 307.16291 130.115068 
L 307.269564 194.297691 
L 307.482872 91.069483 
L 307.589525 86.463159 
L 307.696179 141.202732 
L 307.96118 -1 
M 308.071183 -1 
L 308.122795 80.24592 
L 308.229449 75.817924 
L 308.336103 71.828574 
L 308.347782 -1 
M 308.519596 -1 
L 308.656065 230.7272 
L 308.762719 231.93097 
L 308.869373 162.44538 
L 308.90264 -1 
M 309.049519 -1 
L 309.189334 230.99246 
L 309.402642 227.49002 
L 309.444488 -1 
M 309.589957 -1 
L 309.722604 114.09319 
L 309.829258 53.267678 
L 310.14922 61.645271 
L 310.192554 -1 
M 310.299137 -1 
L 310.469181 135.02613 
L 310.789143 144.047478 
L 310.895797 148.184131 
L 311.002451 140.247535 
L 311.109105 215.393608 
L 311.215759 182.525646 
L 311.322413 204.118958 
L 311.429067 34.569197 
L 311.642375 142.120551 
L 311.962336 173.899341 
L 312.06899 145.628557 
L 312.388952 207.215296 
L 312.489446 -1 
M 312.500743 -1 
L 312.60226 251.208434 
L 312.635246 -1 
M 312.889673 -1 
L 312.922222 246.393607 
L 312.996673 -1 
M 313.061407 -1 
L 313.13553 242.817385 
L 313.242183 239.263959 
L 313.455491 232.434422 
L 313.471149 -1 
M 313.661128 -1 
L 313.668799 104.131228 
L 313.775453 68.499776 
L 313.882107 48.326527 
L 313.988761 54.490578 
L 314.095415 100.083857 
L 314.415377 68.935169 
L 314.421326 -1 
M 315.463679 -1 
L 315.58857 208.158801 
L 315.607457 -1 
M 316.33356 -1 
L 316.335147 13.741601 
L 316.339973 -1 
M 316.610451 -1 
L 316.655109 224.137679 
L 316.675262 -1 
M 317.378332 -1 
L 317.401687 269.558763 
L 317.435429 -1 
M 317.614917 -1 
L 317.614994 -0.575352 
L 317.615063 -1 
M 318.457035 -1 
L 318.57488 171.033003 
L 318.788188 233.545722 
L 318.822057 -1 
M 318.968531 -1 
L 319.001495 224.477206 
L 319.214803 163.569091 
L 319.287222 -1 
M 319.499868 -1 
L 319.641419 181.002921 
L 319.668392 -1 
M 319.828905 -1 
L 319.854727 170.755551 
L 319.870456 -1 
M 320.048541 -1 
L 320.068035 221.051858 
L 320.098992 -1 
M 320.356262 -1 
L 320.387996 228.985262 
L 320.49465 224.938339 
L 320.814612 218.078247 
L 320.921266 217.516233 
L 320.939373 -1 
M 321.365506 -1 
L 321.454536 18.532059 
L 321.56119 66.444594 
L 321.601199 -1 
M 321.714517 -1 
L 321.774497 143.377703 
L 321.881151 121.689533 
L 322.201113 127.892134 
L 322.521075 138.612137 
L 322.627729 125.510095 
L 322.64706 -1 
M 323.155626 -1 
L 323.160998 38.569133 
L 323.170061 -1 
M 323.778382 -1 
L 323.907576 254.446596 
L 323.954136 -1 
M 324.072472 -1 
L 324.120884 273.056889 
L 324.144877 -1 
M 324.630386 -1 
L 324.760807 272.990633 
L 324.837199 -1 
M 325.27896 -1 
L 325.294077 161.815406 
L 325.373081 -1 
M 325.856159 -1 
L 326.040654 231.246645 
L 326.253962 235.897123 
L 326.360616 231.668928 
L 326.573924 207.470001 
L 326.648871 -1 
M 326.969156 -1 
L 327.107194 200.00513 
L 327.213848 205.518663 
L 327.326502 -1 
M 327.517867 -1 
L 327.533809 250.737523 
L 327.549605 -1 
M 327.821109 -1 
L 327.853771 257.223168 
L 327.869937 -1 
M 328.051013 -1 
L 328.067079 255.338645 
L 328.173733 254.448422 
L 328.493695 251.63675 
L 328.92031 244.55697 
L 328.970524 -1 
M 329.341202 -1 
L 329.346926 60.259001 
L 329.45358 56.837951 
L 329.666888 226.829171 
L 329.880196 221.438013 
L 329.985012 -1 
M 330.603741 -1 
L 330.626773 273.246531 
L 330.70441 -1 
M 331.444786 -1 
L 331.480005 273.966183 
L 331.519642 -1 
M 332.097252 -1 
L 332.119928 266.467656 
L 332.188266 -1 
M 332.312798 -1 
L 332.333236 34.549361 
L 332.426523 -1 
M 332.44244 -1 
L 332.653198 210.166368 
L 332.759852 213.291555 
L 332.798565 -1 
M 332.933759 -1 
L 333.079813 222.208179 
L 333.164329 -1 
M 333.475285 -1 
L 333.506429 168.850081 
L 333.5556 -1 
M 333.661736 -1 
L 333.826391 236.818431 
L 333.933045 237.118811 
L 334.039699 238.191027 
L 334.070647 -1 
M 335.400129 -1 
L 335.4262 254.438066 
L 335.532854 253.582839 
L 335.562133 -1 
M 335.833799 -1 
L 335.852815 248.975445 
L 335.959469 245.765123 
L 336.492739 231.524804 
L 336.546226 -1 
M 336.753238 -1 
L 336.812701 224.180726 
L 336.919355 222.225856 
L 337.132663 218.856031 
L 337.34597 222.542966 
L 337.87924 206.793118 
L 337.969918 -1 
M 338.609333 -1 
L 338.625817 185.538976 
L 338.657598 -1 
M 339.050049 -1 
L 339.159087 236.476727 
L 339.275907 -1 
M 339.682958 -1 
L 339.692357 32.108217 
L 339.724219 -1 
M 340.586277 -1 
L 340.652242 196.114164 
L 340.758896 127.747892 
L 340.86555 229.671977 
L 340.972204 140.983465 
L 341.078858 218.980899 
L 341.129681 -1 
M 341.383768 -1 
L 341.398819 249.928608 
L 341.419073 -1 
M 341.918044 -1 
L 341.932089 253.872769 
L 341.950764 -1 
M 342.177728 -1 
L 342.252051 256.179813 
L 342.282425 -1 
M 342.434857 -1 
L 342.465359 257.690533 
L 342.534533 -1 
M 343.195825 -1 
L 343.211936 97.201521 
L 343.31859 92.827256 
L 343.368479 -1 
M 344.585287 -1 
L 344.598437 221.19737 
L 344.705091 219.010034 
L 345.131707 212.464985 
L 345.451669 209.720047 
L 345.558323 95.62554 
L 345.77163 229.560306 
L 345.788366 -1 
M 346.052897 -1 
L 346.091592 196.381825 
L 346.198246 194.966648 
L 346.3049 193.547217 
L 346.321184 -1 
M 346.719414 -1 
L 346.731516 80.524388 
L 346.83817 72.15793 
L 347.158131 43.158023 
L 347.371439 254.559513 
L 347.450569 -1 
M 347.884555 -1 
L 348.011363 224.765746 
L 348.118017 225.94227 
L 348.153038 -1 
M 348.296035 -1 
L 348.331325 228.534566 
L 348.437978 184.245723 
L 348.544632 230.659687 
L 348.576417 -1 
M 348.743873 -1 
L 348.864594 237.053656 
L 348.971248 238.280106 
L 348.994014 -1 
M 350.027426 -1 
L 350.037787 164.156462 
L 350.059673 -1 
M 350.853791 -1 
L 350.891019 112.203015 
L 350.900958 -1 
M 351.13157 -1 
L 351.210981 158.665288 
L 351.273572 -1 
M 351.629715 -1 
L 351.637596 143.260487 
L 351.655375 -1 
M 351.825674 -1 
L 351.957558 236.419302 
L 352.064212 101.232177 
L 352.170866 227.89963 
L 352.279907 -1 
M 352.905539 -1 
L 352.917443 238.195387 
L 352.939026 -1 
M 353.972601 -1 
L 353.983983 234.524249 
L 354.011914 -1 
M 354.171102 -1 
L 354.19729 215.048927 
L 354.248684 -1 
M 355.14951 -1 
L 355.26383 236.285589 
L 355.370484 116.63495 
L 355.583791 218.498422 
L 356.010407 223.746263 
L 356.117061 222.253797 
L 356.223715 207.181055 
L 356.437023 122.021877 
L 356.543677 116.194347 
L 356.551168 -1 
M 357.287464 -1 
L 357.290254 38.282598 
L 357.373294 -1 
M 358.027441 -1 
L 358.036832 67.988175 
L 358.050104 -1 
M 358.310972 -1 
L 358.463447 60.367585 
L 358.570101 52.229137 
L 358.627721 -1 
M 358.757202 -1 
L 359.210025 230.904552 
L 359.316679 203.014166 
L 359.352576 -1 
M 359.491214 -1 
L 359.529987 228.689244 
L 359.636641 227.758003 
L 359.849948 225.857066 
L 359.912594 -1 
M 360.004111 -1 
L 360.063256 197.404629 
L 360.16991 186.874438 
L 360.276564 176.326783 
L 360.354035 -1 
M 360.433514 -1 
L 360.596526 105.613537 
L 360.630298 -1 
M 360.893066 -1 
L 360.916488 90.094984 
L 361.023142 68.418812 
L 361.06893 -1 
M 361.426806 -1 
L 361.556411 186.949383 
L 361.769719 204.657804 
L 361.865352 -1 
M 361.888462 -1 
L 362.089681 196.253294 
L 362.196335 208.199628 
L 362.262346 -1 
M 362.340697 -1 
L 362.516296 238.17592 
L 362.62295 241.912758 
L 362.729604 89.136349 
L 362.836258 238.352211 
L 362.942912 237.738514 
L 363.017274 -1 
M 363.231181 -1 
L 363.369528 247.087618 
L 363.476182 249.598215 
L 363.582836 128.025222 
L 363.68949 254.279482 
L 363.720883 -1 
M 363.871253 -1 
L 363.902797 256.028434 
L 363.923988 -1 
M 364.094788 -1 
L 364.222759 258.756816 
L 364.436067 260.310354 
L 364.465987 -1 
M 364.619325 -1 
L 364.756029 262.585236 
L 364.820024 -1 
M 364.925645 -1 
L 364.969337 120.926658 
L 364.98581 -1 
M 365.152855 -1 
L 365.182645 257.69305 
L 365.289299 256.107105 
L 365.502606 252.674048 
L 365.574517 -1 
M 365.896454 -1 
L 366.035876 234.687151 
L 366.14253 212.702402 
L 366.249184 122.123444 
L 366.355838 233.784164 
L 366.462492 231.692796 
L 366.6758 227.404778 
L 366.889107 207.787524 
L 367.209069 197.065023 
L 367.228174 -1 
M 367.587058 -1 
L 367.635685 264.215581 
L 367.751238 -1 
M 368.043057 -1 
L 368.062301 215.828627 
L 368.087197 -1 
M 368.999694 -1 
L 369.022186 256.640119 
L 369.044709 -1 
M 370.071698 -1 
L 370.195379 213.610507 
L 370.515341 220.801033 
L 371.04861 204.23279 
L 371.368572 199.445129 
L 371.58188 198.72278 
L 371.605752 -1 
M 371.766659 -1 
L 371.901842 253.85703 
L 372.11515 257.461937 
L 372.221804 257.441463 
L 372.262129 -1 
M 372.394328 -1 
L 372.435111 262.19954 
L 372.468651 -1 
M 372.695056 -1 
L 372.755073 248.700672 
L 372.861727 220.874697 
L 373.288343 244.748851 
L 373.501651 240.65003 
L 373.608305 195.206427 
L 373.714959 198.688819 
L 373.821612 180.491779 
L 374.03492 213.673676 
L 374.248228 223.002302 
L 374.322744 -1 
M 374.388271 -1 
L 374.461536 210.993291 
L 374.56819 203.086948 
L 374.674844 195.419133 
L 374.746119 -1 
M 375.048003 -1 
L 375.208113 270.222215 
L 375.242761 -1 
M 377.041903 -1 
L 377.127884 271.407099 
L 377.234538 270.870813 
L 377.341192 242.56376 
L 377.36514 -1 
M 377.739291 -1 
L 377.874462 91.825964 
L 377.981115 198.331724 
L 378.02242 -1 
M 378.160848 -1 
L 378.194423 143.895217 
L 378.301077 124.358625 
L 378.415355 -1 
M 378.577279 -1 
L 378.727693 227.471741 
L 379.367617 257.909259 
L 379.411846 -1 
M 379.539145 -1 
L 379.687578 238.999116 
L 379.773215 -1 
M 379.8205 -1 
L 379.900886 179.258687 
L 379.936469 -1 
M 380.074124 -1 
L 380.114194 215.665205 
L 380.220848 214.132871 
L 381.074079 202.671112 
L 381.287387 209.404372 
L 381.500695 168.694606 
L 381.607349 172.575914 
L 381.68861 -1 
M 381.805385 -1 
L 381.820657 8.064212 
L 382.033965 172.745642 
L 382.247272 213.279643 
L 382.353926 216.245774 
L 382.461141 -1 
M 382.955345 -1 
L 382.99385 44.890286 
L 383.108502 -1 
M 383.267673 -1 
L 383.420466 188.233654 
L 383.52712 207.431417 
L 383.633773 163.082938 
L 383.726295 -1 
M 383.780068 -1 
L 383.847081 41.369013 
L 383.85908 -1 
M 384.143209 -1 
L 384.273697 174.061172 
L 384.308399 -1 
M 384.451775 -1 
L 384.487005 178.03589 
L 384.524954 -1 
M 384.781613 -1 
L 384.806967 119.501777 
L 384.842101 -1 
M 385.086128 -1 
L 385.233582 161.572411 
L 385.44689 211.151361 
L 385.485276 -1 
M 385.637618 -1 
L 385.766852 194.549867 
L 385.98016 230.213619 
L 386.068346 -1 
M 386.220855 -1 
L 386.300122 157.173767 
L 386.406776 150.807274 
L 386.620083 138.20113 
L 386.69436 -1 
M 387.122403 -1 
L 387.153353 202.533527 
L 387.260007 166.803244 
L 387.366661 211.974879 
L 387.417263 -1 
M 387.537967 -1 
L 387.579969 152.261495 
L 387.686623 144.434944 
L 387.793277 92.079821 
L 387.816566 -1 
M 388.52391 -1 
L 388.539854 162.078044 
L 388.646508 158.130579 
L 388.96647 147.626936 
L 388.991061 -1 
M 389.144266 -1 
L 389.179778 246.57302 
L 389.215527 -1 
M 389.371904 -1 
L 389.393085 120.6832 
L 389.411185 -1 
M 389.581401 -1 
L 389.713047 205.956155 
L 389.819701 209.258855 
L 390.033009 261.654994 
L 390.132853 -1 
M 390.148955 -1 
L 390.246317 186.711816 
L 390.566279 62.065347 
L 390.577899 -1 
M 390.981809 -1 
L 390.992894 148.601567 
L 391.026986 -1 
M 391.712075 -1 
L 391.846126 222.19905 
L 391.95278 224.364942 
L 392.042552 -1 
M 392.24182 -1 
L 392.379395 202.639793 
L 392.912665 221.402014 
L 393.019319 119.409487 
L 393.125973 233.513695 
L 393.148015 -1 
M 393.316428 -1 
L 393.445935 244.612014 
L 393.470011 -1 
M 393.65018 -1 
L 393.765896 106.890191 
L 393.778796 -1 
M 393.969985 -1 
L 394.085858 138.535212 
L 394.192512 208.2832 
L 394.308029 -1 
M 394.932123 -1 
L 394.939089 45.646186 
L 395.013142 -1 
M 395.16048 -1 
L 395.259051 124.197832 
L 395.472359 70.450567 
L 395.579013 65.20823 
L 395.685667 68.338929 
L 395.792321 67.986288 
L 396.005629 239.524562 
L 396.026513 -1 
M 396.926972 -1 
L 397.072168 260.207102 
L 397.39213 243.634459 
L 397.498784 235.490433 
L 397.712091 182.12354 
L 397.734417 -1 
M 397.990498 -1 
L 398.032053 264.473852 
L 398.138707 263.276887 
L 398.458669 259.515814 
L 398.778631 253.82228 
L 398.991939 248.56452 
L 399.098592 243.675469 
L 399.205246 256.90826 
L 399.3119 255.391039 
L 399.418554 242.686181 
L 399.525208 269.49045 
L 399.738516 255.297346 
L 399.843842 -1 
M 399.846575 -1 
L 399.951824 240.954936 
L 400.058478 237.396549 
L 400.37844 220.97328 
L 400.698401 195.212601 
L 400.805055 223.711479 
L 400.911709 218.7519 
L 401.018363 189.582435 
L 401.067805 -1 
M 401.290037 -1 
L 401.338325 227.298913 
L 401.444979 223.012251 
L 401.551633 252.962635 
L 401.764941 244.167861 
L 401.978248 226.890037 
L 402.084902 216.690497 
L 402.191556 193.456077 
L 402.231287 -1 
L 402.231287 -1 
" clip-path="url(#pf2b7413cda)" style="fill: none; stroke: #1f77b4; stroke-width: 1.5; stroke-linecap: square"/>
   </g>
   <g id="line2d_28">
    <path d="M 77.643665 245.420577 
L 78.816858 245.420599 
L 79.13682 249.946195 
L 79.350128 245.420594 
L 87.02921 245.42064 
L 87.242518 258.003719 
L 88.095749 263.614741 
L 88.522365 260.698778 
L 88.735673 254.928664 
L 93.855061 254.928575 
L 93.961715 255.118962 
L 94.068369 256.196982 
L 94.281677 254.928587 
L 94.388331 254.928588 
L 94.494985 255.17756 
L 94.601639 256.381549 
L 94.814947 254.928606 
L 97.374641 254.928588 
L 97.587949 257.794219 
L 97.801256 255.941279 
L 98.014564 261.505647 
L 98.227872 254.92858 
L 98.761142 254.928565 
L 98.97445 256.415023 
L 109.426534 256.415023 
L 109.639842 259.46773 
L 120.091927 259.467734 
L 120.305234 258.17473 
L 130.757319 258.174726 
L 130.970627 260.003055 
L 162.753496 259.96925 
L 162.966804 260.55349 
L 173.418889 260.55349 
L 173.632197 259.234514 
L 184.084281 259.234515 
L 184.297589 260.108721 
L 194.749674 260.108721 
L 194.962981 259.694193 
L 205.415066 259.694193 
L 205.628374 260.269795 
L 226.745851 260.190916 
L 226.959159 259.530241 
L 237.411243 259.530241 
L 237.624551 258.322716 
L 248.076636 258.322716 
L 248.289944 256.049026 
L 258.742028 256.049025 
L 258.955336 255.736164 
L 269.407421 255.736164 
L 269.620728 255.298234 
L 280.072813 255.298234 
L 280.286121 255.429012 
L 290.738205 255.429013 
L 290.951513 256.417939 
L 312.06899 256.515956 
L 312.282298 257.097415 
L 322.734383 257.097415 
L 322.947691 256.937262 
L 333.399775 256.937262 
L 333.613083 256.179015 
L 344.065168 256.179015 
L 344.278475 250.345001 
L 354.73056 250.345 
L 354.943868 253.181174 
L 365.395952 253.181175 
L 365.60926 257.962068 
L 376.061345 257.962064 
L 376.274653 263.876841 
L 386.726737 263.876842 
L 386.940045 258.727159 
L 397.39213 258.727155 
L 397.498784 196.63649 
L 397.605438 228.191652 
L 397.818745 196.636487 
L 398.032053 196.636895 
L 398.138707 261.59943 
L 398.245361 260.339093 
L 398.565323 255.681892 
L 398.778631 267.156666 
L 398.885285 266.895195 
L 398.991939 267.16378 
L 399.098592 266.500064 
L 399.3119 271.20142 
L 400.165132 266.425722 
L 400.37844 263.820674 
L 401.125017 225.018705 
L 401.338325 270.774984 
L 401.444979 271.013542 
L 401.551633 275.714577 
L 401.658287 275.65445 
L 401.764941 275.411715 
L 401.871595 275.599582 
L 401.978248 275.426848 
L 402.084902 274.39432 
L 402.29821 196.625844 
L 402.29821 196.625844 
" clip-path="url(#pf2b7413cda)" style="fill: none; stroke: #ff7f0e; stroke-width: 1.5; stroke-linecap: square"/>
   </g>
   <g id="patch_3">
    <path d="M 61.410938 279.010828 
L 61.410938 12.898828 
" style="fill: none; stroke: #000000; stroke-width: 0.8; stroke-linejoin: miter; stroke-linecap: square"/>
   </g>
   <g id="patch_4">
    <path d="M 418.530938 279.010828 
L 418.530938 12.898828 
" style="fill: none; stroke: #000000; stroke-width: 0.8; stroke-linejoin: miter; stroke-linecap: square"/>
   </g>
   <g id="patch_5">
    <path d="M 61.410938 279.010828 
L 418.530938 279.010828 
" style="fill: none; stroke: #000000; stroke-width: 0.8; stroke-linejoin: miter; stroke-linecap: square"/>
   </g>
   <g id="patch_6">
    <path d="M 61.410938 12.898828 
L 418.530938 12.898828 
" style="fill: none; stroke: #000000; stroke-width: 0.8; stroke-linejoin: miter; stroke-linecap: square"/>
   </g>
   <g id="legend_1">
    <g id="patch_7">
     <path d="M 68.410938 35.576953 
L 208.895313 35.576953 
Q 210.895313 35.576953 210.895313 33.576953 
L 210.895313 19.898828 
Q 210.895313 17.898828 208.895313 17.898828 
L 68.410938 17.898828 
Q 66.410938 17.898828 66.410938 19.898828 
L 66.410938 33.576953 
Q 66.410938 35.576953 68.410938 35.576953 
z
" style="fill: #ffffff; opacity: 0.8; stroke: #cccccc; stroke-linejoin: miter"/>
    </g>
    <g id="line2d_29">
     <path d="M 70.410938 25.997266 
L 80.410938 25.997266 
L 90.410938 25.997266 
" style="fill: none; stroke: #1f77b4; stroke-width: 1.5; stroke-linecap: square"/>
    </g>
    <g id="text_16">
     <!-- local -->
     <g transform="translate(98.410938 29.497266)scale(0.1 -0.1)">
      <defs>
       <path id="DejaVuSans-6c" d="M 603 4863 
L 1178 4863 
L 1178 0 
L 603 0 
L 603 4863 
z
" transform="scale(0.015625)"/>
       <path id="DejaVuSans-61" d="M 2194 1759 
Q 1497 1759 1228 1600 
Q 959 1441 959 1056 
Q 959 750 1161 570 
Q 1363 391 1709 391 
Q 2188 391 2477 730 
Q 2766 1069 2766 1631 
L 2766 1759 
L 2194 1759 
z
M 3341 1997 
L 3341 0 
L 2766 0 
L 2766 531 
Q 2569 213 2275 61 
Q 1981 -91 1556 -91 
Q 1019 -91 701 211 
Q 384 513 384 1019 
Q 384 1609 779 1909 
Q 1175 2209 1959 2209 
L 2766 2209 
L 2766 2266 
Q 2766 2663 2505 2880 
Q 2244 3097 1772 3097 
Q 1472 3097 1187 3025 
Q 903 2953 641 2809 
L 641 3341 
Q 956 3463 1253 3523 
Q 1550 3584 1831 3584 
Q 2591 3584 2966 3190 
Q 3341 2797 3341 1997 
z
" transform="scale(0.015625)"/>
      </defs>
      <use xlink:href="#DejaVuSans-6c"/>
      <use xlink:href="#DejaVuSans-6f" x="27.783203"/>
      <use xlink:href="#DejaVuSans-63" x="88.964844"/>
      <use xlink:href="#DejaVuSans-61" x="143.945312"/>
      <use xlink:href="#DejaVuSans-6c" x="205.224609"/>
     </g>
    </g>
    <g id="line2d_30">
     <path d="M 141.7125 25.997266 
L 151.7125 25.997266 
L 161.7125 25.997266 
" style="fill: none; stroke: #ff7f0e; stroke-width: 1.5; stroke-linecap: square"/>
    </g>
    <g id="text_17">
     <!-- blk 100 -->
     <g transform="translate(169.7125 29.497266)scale(0.1 -0.1)">
      <defs>
       <path id="DejaVuSans-62" d="M 3116 1747 
Q 3116 2381 2855 2742 
Q 2594 3103 2138 3103 
Q 1681 3103 1420 2742 
Q 1159 2381 1159 1747 
Q 1159 1113 1420 752 
Q 1681 391 2138 391 
Q 2594 391 2855 752 
Q 3116 1113 3116 1747 
z
M 1159 2969 
Q 1341 3281 1617 3432 
Q 1894 3584 2278 3584 
Q 2916 3584 3314 3078 
Q 3713 2572 3713 1747 
Q 3713 922 3314 415 
Q 2916 -91 2278 -91 
Q 1894 -91 1617 61 
Q 1341 213 1159 525 
L 1159 0 
L 581 0 
L 581 4863 
L 1159 4863 
L 1159 2969 
z
" transform="scale(0.015625)"/>
       <path id="DejaVuSans-6b" d="M 581 4863 
L 1159 4863 
L 1159 1991 
L 2875 3500 
L 3609 3500 
L 1753 1863 
L 3688 0 
L 2938 0 
L 1159 1709 
L 1159 0 
L 581 0 
L 581 4863 
z
" transform="scale(0.015625)"/>
      </defs>
      <use xlink:href="#DejaVuSans-62"/>
      <use xlink:href="#DejaVuSans-6c" x="63.476562"/>
      <use xlink:href="#DejaVuSans-6b" x="91.259766"/>
      <use xlink:href="#DejaVuSans-20" x="149.169922"/>
      <use xlink:href="#DejaVuSans-31" x="180.957031"/>
      <use xlink:href="#DejaVuSans-30" x="244.580078"/>
      <use xlink:href="#DejaVuSans-30" x="308.203125"/>
     </g>
    </g>
   </g>
  </g>
 </g>
 <defs>
  <clipPath id="pf2b7413cda">
   <rect x="61.410938" y="12.898828" width="357.12" height="266.112"/>
  </clipPath>
 </defs>
</svg>
