<?xml version="1.0" encoding="utf-8" standalone="no"?>
<!DOCTYPE svg PUBLIC "-//W3C//DTD SVG 1.1//EN"
  "http://www.w3.org/Graphics/SVG/1.1/DTD/svg11.dtd">
<svg xmlns:xlink="http://www.w3.org/1999/xlink" width="397.6075pt" height="325.385437pt" viewBox="0 0 397.6075 325.385437" xmlns="http://www.w3.org/2000/svg" version="1.1">
 <defs>
  <style type="text/css">*{stroke-linejoin: round; stroke-linecap: butt}</style>
 </defs>
 <g id="figure_1">
  <g id="patch_1">
   <path d="M 0 325.385437 
L 397.6075 325.385437 
L 397.6075 0 
L 0 0 
L 0 325.385437 
z
" style="fill: none"/>
  </g>
  <g id="axes_1">
   <g id="patch_2">
    <path d="M 33.2875 273.312 
L 390.4075 273.312 
L 390.4075 7.2 
L 33.2875 7.2 
L 33.2875 273.312 
z
" style="fill: none"/>
   </g>
   <g id="matplotlib.axis_1">
    <g id="xtick_1">
     <g id="line2d_1">
      <path d="M 65.21781 273.312 
L 65.21781 7.2 
" clip-path="url(#pbe51a6eb4d)" style="fill: none; stroke: #b0b0b0; stroke-width: 0.8; stroke-linecap: square"/>
     </g>
     <g id="line2d_2">
      <defs>
       <path id="md39032bed2" d="M 0 0 
L 0 3.5 
" style="stroke: #000000; stroke-width: 0.8"/>
      </defs>
      <g>
       <use xlink:href="#md39032bed2" x="65.21781" y="273.312" style="stroke: #000000; stroke-width: 0.8"/>
      </g>
     </g>
     <g id="text_1">
      <!-- −3000 -->
      <g transform="translate(39.845544 291.709656)scale(0.15 -0.15)">
       <defs>
        <path id="DejaVuSans-2212" d="M 678 2272 
L 4684 2272 
L 4684 1741 
L 678 1741 
L 678 2272 
z
" transform="scale(0.015625)"/>
        <path id="DejaVuSans-33" d="M 2597 2516 
Q 3050 2419 3304 2112 
Q 3559 1806 3559 1356 
Q 3559 666 3084 287 
Q 2609 -91 1734 -91 
Q 1441 -91 1130 -33 
Q 819 25 488 141 
L 488 750 
Q 750 597 1062 519 
Q 1375 441 1716 441 
Q 2309 441 2620 675 
Q 2931 909 2931 1356 
Q 2931 1769 2642 2001 
Q 2353 2234 1838 2234 
L 1294 2234 
L 1294 2753 
L 1863 2753 
Q 2328 2753 2575 2939 
Q 2822 3125 2822 3475 
Q 2822 3834 2567 4026 
Q 2313 4219 1838 4219 
Q 1578 4219 1281 4162 
Q 984 4106 628 3988 
L 628 4550 
Q 988 4650 1302 4700 
Q 1616 4750 1894 4750 
Q 2613 4750 3031 4423 
Q 3450 4097 3450 3541 
Q 3450 3153 3228 2886 
Q 3006 2619 2597 2516 
z
" transform="scale(0.015625)"/>
        <path id="DejaVuSans-30" d="M 2034 4250 
Q 1547 4250 1301 3770 
Q 1056 3291 1056 2328 
Q 1056 1369 1301 889 
Q 1547 409 2034 409 
Q 2525 409 2770 889 
Q 3016 1369 3016 2328 
Q 3016 3291 2770 3770 
Q 2525 4250 2034 4250 
z
M 2034 4750 
Q 2819 4750 3233 4129 
Q 3647 3509 3647 2328 
Q 3647 1150 3233 529 
Q 2819 -91 2034 -91 
Q 1250 -91 836 529 
Q 422 1150 422 2328 
Q 422 3509 836 4129 
Q 1250 4750 2034 4750 
z
" transform="scale(0.015625)"/>
       </defs>
       <use xlink:href="#DejaVuSans-2212"/>
       <use xlink:href="#DejaVuSans-33" x="83.789062"/>
       <use xlink:href="#DejaVuSans-30" x="147.412109"/>
       <use xlink:href="#DejaVuSans-30" x="211.035156"/>
       <use xlink:href="#DejaVuSans-30" x="274.658203"/>
      </g>
     </g>
    </g>
    <g id="xtick_2">
     <g id="line2d_3">
      <path d="M 136.570457 273.312 
L 136.570457 7.2 
" clip-path="url(#pbe51a6eb4d)" style="fill: none; stroke: #b0b0b0; stroke-width: 0.8; stroke-linecap: square"/>
     </g>
     <g id="line2d_4">
      <g>
       <use xlink:href="#md39032bed2" x="136.570457" y="273.312" style="stroke: #000000; stroke-width: 0.8"/>
      </g>
     </g>
     <g id="text_2">
      <!-- −2000 -->
      <g transform="translate(111.198191 291.709656)scale(0.15 -0.15)">
       <defs>
        <path id="DejaVuSans-32" d="M 1228 531 
L 3431 531 
L 3431 0 
L 469 0 
L 469 531 
Q 828 903 1448 1529 
Q 2069 2156 2228 2338 
Q 2531 2678 2651 2914 
Q 2772 3150 2772 3378 
Q 2772 3750 2511 3984 
Q 2250 4219 1831 4219 
Q 1534 4219 1204 4116 
Q 875 4013 500 3803 
L 500 4441 
Q 881 4594 1212 4672 
Q 1544 4750 1819 4750 
Q 2544 4750 2975 4387 
Q 3406 4025 3406 3419 
Q 3406 3131 3298 2873 
Q 3191 2616 2906 2266 
Q 2828 2175 2409 1742 
Q 1991 1309 1228 531 
z
" transform="scale(0.015625)"/>
       </defs>
       <use xlink:href="#DejaVuSans-2212"/>
       <use xlink:href="#DejaVuSans-32" x="83.789062"/>
       <use xlink:href="#DejaVuSans-30" x="147.412109"/>
       <use xlink:href="#DejaVuSans-30" x="211.035156"/>
       <use xlink:href="#DejaVuSans-30" x="274.658203"/>
      </g>
     </g>
    </g>
    <g id="xtick_3">
     <g id="line2d_5">
      <path d="M 207.923104 273.312 
L 207.923104 7.2 
" clip-path="url(#pbe51a6eb4d)" style="fill: none; stroke: #b0b0b0; stroke-width: 0.8; stroke-linecap: square"/>
     </g>
     <g id="line2d_6">
      <g>
       <use xlink:href="#md39032bed2" x="207.923104" y="273.312" style="stroke: #000000; stroke-width: 0.8"/>
      </g>
     </g>
     <g id="text_3">
      <!-- −1000 -->
      <g transform="translate(182.550839 291.709656)scale(0.15 -0.15)">
       <defs>
        <path id="DejaVuSans-31" d="M 794 531 
L 1825 531 
L 1825 4091 
L 703 3866 
L 703 4441 
L 1819 4666 
L 2450 4666 
L 2450 531 
L 3481 531 
L 3481 0 
L 794 0 
L 794 531 
z
" transform="scale(0.015625)"/>
       </defs>
       <use xlink:href="#DejaVuSans-2212"/>
       <use xlink:href="#DejaVuSans-31" x="83.789062"/>
       <use xlink:href="#DejaVuSans-30" x="147.412109"/>
       <use xlink:href="#DejaVuSans-30" x="211.035156"/>
       <use xlink:href="#DejaVuSans-30" x="274.658203"/>
      </g>
     </g>
    </g>
    <g id="xtick_4">
     <g id="line2d_7">
      <path d="M 279.275752 273.312 
L 279.275752 7.2 
" clip-path="url(#pbe51a6eb4d)" style="fill: none; stroke: #b0b0b0; stroke-width: 0.8; stroke-linecap: square"/>
     </g>
     <g id="line2d_8">
      <g>
       <use xlink:href="#md39032bed2" x="279.275752" y="273.312" style="stroke: #000000; stroke-width: 0.8"/>
      </g>
     </g>
     <g id="text_4">
      <!-- 0 -->
      <g transform="translate(274.503877 291.709656)scale(0.15 -0.15)">
       <use xlink:href="#DejaVuSans-30"/>
      </g>
     </g>
    </g>
    <g id="xtick_5">
     <g id="line2d_9">
      <path d="M 350.628399 273.312 
L 350.628399 7.2 
" clip-path="url(#pbe51a6eb4d)" style="fill: none; stroke: #b0b0b0; stroke-width: 0.8; stroke-linecap: square"/>
     </g>
     <g id="line2d_10">
      <g>
       <use xlink:href="#md39032bed2" x="350.628399" y="273.312" style="stroke: #000000; stroke-width: 0.8"/>
      </g>
     </g>
     <g id="text_5">
      <!-- 1000 -->
      <g transform="translate(331.540899 291.709656)scale(0.15 -0.15)">
       <use xlink:href="#DejaVuSans-31"/>
       <use xlink:href="#DejaVuSans-30" x="63.623047"/>
       <use xlink:href="#DejaVuSans-30" x="127.246094"/>
       <use xlink:href="#DejaVuSans-30" x="190.869141"/>
      </g>
     </g>
    </g>
    <g id="text_6">
     <!-- Max (V) -->
     <g transform="translate(173.350625 314.026062)scale(0.2 -0.2)">
      <defs>
       <path id="DejaVuSans-4d" d="M 628 4666 
L 1569 4666 
L 2759 1491 
L 3956 4666 
L 4897 4666 
L 4897 0 
L 4281 0 
L 4281 4097 
L 3078 897 
L 2444 897 
L 1241 4097 
L 1241 0 
L 628 0 
L 628 4666 
z
" transform="scale(0.015625)"/>
       <path id="DejaVuSans-61" d="M 2194 1759 
Q 1497 1759 1228 1600 
Q 959 1441 959 1056 
Q 959 750 1161 570 
Q 1363 391 1709 391 
Q 2188 391 2477 730 
Q 2766 1069 2766 1631 
L 2766 1759 
L 2194 1759 
z
M 3341 1997 
L 3341 0 
L 2766 0 
L 2766 531 
Q 2569 213 2275 61 
Q 1981 -91 1556 -91 
Q 1019 -91 701 211 
Q 384 513 384 1019 
Q 384 1609 779 1909 
Q 1175 2209 1959 2209 
L 2766 2209 
L 2766 2266 
Q 2766 2663 2505 2880 
Q 2244 3097 1772 3097 
Q 1472 3097 1187 3025 
Q 903 2953 641 2809 
L 641 3341 
Q 956 3463 1253 3523 
Q 1550 3584 1831 3584 
Q 2591 3584 2966 3190 
Q 3341 2797 3341 1997 
z
" transform="scale(0.015625)"/>
       <path id="DejaVuSans-78" d="M 3513 3500 
L 2247 1797 
L 3578 0 
L 2900 0 
L 1881 1375 
L 863 0 
L 184 0 
L 1544 1831 
L 300 3500 
L 978 3500 
L 1906 2253 
L 2834 3500 
L 3513 3500 
z
" transform="scale(0.015625)"/>
       <path id="DejaVuSans-20" transform="scale(0.015625)"/>
       <path id="DejaVuSans-28" d="M 1984 4856 
Q 1566 4138 1362 3434 
Q 1159 2731 1159 2009 
Q 1159 1288 1364 580 
Q 1569 -128 1984 -844 
L 1484 -844 
Q 1016 -109 783 600 
Q 550 1309 550 2009 
Q 550 2706 781 3412 
Q 1013 4119 1484 4856 
L 1984 4856 
z
" transform="scale(0.015625)"/>
       <path id="DejaVuSans-56" d="M 1831 0 
L 50 4666 
L 709 4666 
L 2188 738 
L 3669 4666 
L 4325 4666 
L 2547 0 
L 1831 0 
z
" transform="scale(0.015625)"/>
       <path id="DejaVuSans-29" d="M 513 4856 
L 1013 4856 
Q 1481 4119 1714 3412 
Q 1947 2706 1947 2009 
Q 1947 1309 1714 600 
Q 1481 -109 1013 -844 
L 513 -844 
Q 928 -128 1133 580 
Q 1338 1288 1338 2009 
Q 1338 2731 1133 3434 
Q 928 4138 513 4856 
z
" transform="scale(0.015625)"/>
      </defs>
      <use xlink:href="#DejaVuSans-4d"/>
      <use xlink:href="#DejaVuSans-61" x="86.279297"/>
      <use xlink:href="#DejaVuSans-78" x="147.558594"/>
      <use xlink:href="#DejaVuSans-20" x="206.738281"/>
      <use xlink:href="#DejaVuSans-28" x="238.525391"/>
      <use xlink:href="#DejaVuSans-56" x="277.539062"/>
      <use xlink:href="#DejaVuSans-29" x="345.947266"/>
     </g>
    </g>
   </g>
   <g id="matplotlib.axis_2">
    <g id="ytick_1">
     <g id="line2d_11">
      <path d="M 33.2875 273.312 
L 390.4075 273.312 
" clip-path="url(#pbe51a6eb4d)" style="fill: none; stroke: #b0b0b0; stroke-width: 0.8; stroke-linecap: square"/>
     </g>
     <g id="line2d_12">
      <defs>
       <path id="m6f3f5b6aff" d="M 0 0 
L -3.5 0 
" style="stroke: #000000; stroke-width: 0.8"/>
      </defs>
      <g>
       <use xlink:href="#m6f3f5b6aff" x="33.2875" y="273.312" style="stroke: #000000; stroke-width: 0.8"/>
      </g>
     </g>
     <g id="text_7">
      <!-- 8 -->
      <g transform="translate(16.74375 279.010828)scale(0.15 -0.15)">
       <defs>
        <path id="DejaVuSans-38" d="M 2034 2216 
Q 1584 2216 1326 1975 
Q 1069 1734 1069 1313 
Q 1069 891 1326 650 
Q 1584 409 2034 409 
Q 2484 409 2743 651 
Q 3003 894 3003 1313 
Q 3003 1734 2745 1975 
Q 2488 2216 2034 2216 
z
M 1403 2484 
Q 997 2584 770 2862 
Q 544 3141 544 3541 
Q 544 4100 942 4425 
Q 1341 4750 2034 4750 
Q 2731 4750 3128 4425 
Q 3525 4100 3525 3541 
Q 3525 3141 3298 2862 
Q 3072 2584 2669 2484 
Q 3125 2378 3379 2068 
Q 3634 1759 3634 1313 
Q 3634 634 3220 271 
Q 2806 -91 2034 -91 
Q 1263 -91 848 271 
Q 434 634 434 1313 
Q 434 1759 690 2068 
Q 947 2378 1403 2484 
z
M 1172 3481 
Q 1172 3119 1398 2916 
Q 1625 2713 2034 2713 
Q 2441 2713 2670 2916 
Q 2900 3119 2900 3481 
Q 2900 3844 2670 4047 
Q 2441 4250 2034 4250 
Q 1625 4250 1398 4047 
Q 1172 3844 1172 3481 
z
" transform="scale(0.015625)"/>
       </defs>
       <use xlink:href="#DejaVuSans-38"/>
      </g>
     </g>
    </g>
    <g id="ytick_2">
     <g id="line2d_13">
      <path d="M 33.2875 214.176 
L 390.4075 214.176 
" clip-path="url(#pbe51a6eb4d)" style="fill: none; stroke: #b0b0b0; stroke-width: 0.8; stroke-linecap: square"/>
     </g>
     <g id="line2d_14">
      <g>
       <use xlink:href="#m6f3f5b6aff" x="33.2875" y="214.176" style="stroke: #000000; stroke-width: 0.8"/>
      </g>
     </g>
     <g id="text_8">
      <!-- 10 -->
      <g transform="translate(7.2 219.874828)scale(0.15 -0.15)">
       <use xlink:href="#DejaVuSans-31"/>
       <use xlink:href="#DejaVuSans-30" x="63.623047"/>
      </g>
     </g>
    </g>
    <g id="ytick_3">
     <g id="line2d_15">
      <path d="M 33.2875 155.04 
L 390.4075 155.04 
" clip-path="url(#pbe51a6eb4d)" style="fill: none; stroke: #b0b0b0; stroke-width: 0.8; stroke-linecap: square"/>
     </g>
     <g id="line2d_16">
      <g>
       <use xlink:href="#m6f3f5b6aff" x="33.2875" y="155.04" style="stroke: #000000; stroke-width: 0.8"/>
      </g>
     </g>
     <g id="text_9">
      <!-- 12 -->
      <g transform="translate(7.2 160.738828)scale(0.15 -0.15)">
       <use xlink:href="#DejaVuSans-31"/>
       <use xlink:href="#DejaVuSans-32" x="63.623047"/>
      </g>
     </g>
    </g>
    <g id="ytick_4">
     <g id="line2d_17">
      <path d="M 33.2875 95.904 
L 390.4075 95.904 
" clip-path="url(#pbe51a6eb4d)" style="fill: none; stroke: #b0b0b0; stroke-width: 0.8; stroke-linecap: square"/>
     </g>
     <g id="line2d_18">
      <g>
       <use xlink:href="#m6f3f5b6aff" x="33.2875" y="95.904" style="stroke: #000000; stroke-width: 0.8"/>
      </g>
     </g>
     <g id="text_10">
      <!-- 14 -->
      <g transform="translate(7.2 101.602828)scale(0.15 -0.15)">
       <defs>
        <path id="DejaVuSans-34" d="M 2419 4116 
L 825 1625 
L 2419 1625 
L 2419 4116 
z
M 2253 4666 
L 3047 4666 
L 3047 1625 
L 3713 1625 
L 3713 1100 
L 3047 1100 
L 3047 0 
L 2419 0 
L 2419 1100 
L 313 1100 
L 313 1709 
L 2253 4666 
z
" transform="scale(0.015625)"/>
       </defs>
       <use xlink:href="#DejaVuSans-31"/>
       <use xlink:href="#DejaVuSans-34" x="63.623047"/>
      </g>
     </g>
    </g>
    <g id="ytick_5">
     <g id="line2d_19">
      <path d="M 33.2875 36.768 
L 390.4075 36.768 
" clip-path="url(#pbe51a6eb4d)" style="fill: none; stroke: #b0b0b0; stroke-width: 0.8; stroke-linecap: square"/>
     </g>
     <g id="line2d_20">
      <g>
       <use xlink:href="#m6f3f5b6aff" x="33.2875" y="36.768" style="stroke: #000000; stroke-width: 0.8"/>
      </g>
     </g>
     <g id="text_11">
      <!-- 16 -->
      <g transform="translate(7.2 42.466828)scale(0.15 -0.15)">
       <defs>
        <path id="DejaVuSans-36" d="M 2113 2584 
Q 1688 2584 1439 2293 
Q 1191 2003 1191 1497 
Q 1191 994 1439 701 
Q 1688 409 2113 409 
Q 2538 409 2786 701 
Q 3034 994 3034 1497 
Q 3034 2003 2786 2293 
Q 2538 2584 2113 2584 
z
M 3366 4563 
L 3366 3988 
Q 3128 4100 2886 4159 
Q 2644 4219 2406 4219 
Q 1781 4219 1451 3797 
Q 1122 3375 1075 2522 
Q 1259 2794 1537 2939 
Q 1816 3084 2150 3084 
Q 2853 3084 3261 2657 
Q 3669 2231 3669 1497 
Q 3669 778 3244 343 
Q 2819 -91 2113 -91 
Q 1303 -91 875 529 
Q 447 1150 447 2328 
Q 447 3434 972 4092 
Q 1497 4750 2381 4750 
Q 2619 4750 2861 4703 
Q 3103 4656 3366 4563 
z
" transform="scale(0.015625)"/>
       </defs>
       <use xlink:href="#DejaVuSans-31"/>
       <use xlink:href="#DejaVuSans-36" x="63.623047"/>
      </g>
     </g>
    </g>
   </g>
   <g id="line2d_21">
    <path d="M 59.787716 -1 
L 60.151772 101.475845 
L 60.579888 164.630361 
L 60.865298 188.509607 
L 62.149646 134.341803 
L 62.934525 102.414781 
L 63.362641 92.37415 
L 63.576699 91.099589 
L 63.719404 92.072807 
L 63.933462 96.590297 
L 64.218873 108.278746 
L 64.789694 143.809395 
L 65.003752 154.875842 
L 66.074041 117.514053 
L 66.787568 98.606536 
L 66.930273 95.822713 
L 68.357326 11.798762 
L 68.500031 10.806355 
L 68.642737 12.503288 
L 68.856795 20.59081 
L 69.142205 41.609387 
L 69.641674 99.15132 
L 70.3552 168.49347 
L 70.997374 207.251567 
L 71.568195 233.08163 
L 71.924959 229.00726 
L 72.067664 224.554452 
L 73.494717 170.207196 
L 73.922833 160.687389 
L 74.136891 158.714562 
L 74.208243 158.550242 
L 74.279596 158.643475 
L 74.422301 159.603456 
L 74.636359 162.879529 
L 74.993122 172.253431 
L 75.778001 200.767063 
L 76.848291 242.539819 
L 76.919644 242.286984 
L 78.70346 177.668919 
L 79.131576 168.856587 
L 79.416987 166.804349 
L 79.488339 166.852592 
L 79.631044 167.631186 
L 79.845102 170.413294 
L 80.201866 178.571819 
L 80.844039 199.72985 
L 81.985682 243.675349 
L 82.057034 241.087347 
L 83.912203 172.619046 
L 84.340319 163.302634 
L 84.554377 161.439491 
L 84.62573 161.320013 
L 84.697082 161.460388 
L 84.839788 162.516882 
L 85.125198 167.522655 
L 85.553314 180.647485 
L 86.338193 213.691062 
L 86.980367 243.718279 
L 87.05172 242.790284 
L 89.049594 168.732336 
L 89.406357 161.543206 
L 89.620415 159.976363 
L 89.691768 159.98162 
L 89.834473 160.798219 
L 90.048531 163.94996 
L 90.405294 173.489917 
L 91.047468 198.822949 
L 92.046405 243.796698 
L 92.260463 232.145381 
L 94.044279 165.235862 
L 94.472395 156.364897 
L 94.686453 155.07013 
L 94.757806 155.177694 
L 94.900511 156.205097 
L 95.114569 159.876174 
L 95.471332 170.280796 
L 96.113506 196.643199 
L 97.04109 240.249267 
L 97.112443 238.316264 
L 98.824907 163.69929 
L 99.253022 152.311619 
L 99.538433 149.436768 
L 99.609786 149.470345 
L 99.752491 150.412588 
L 99.966549 153.880981 
L 100.323312 164.090977 
L 100.965486 190.420679 
L 102.035776 238.044405 
L 103.748239 162.600662 
L 104.176355 150.895477 
L 104.461766 147.632303 
L 104.533118 147.506943 
L 104.604471 147.664326 
L 104.747176 148.940828 
L 105.032587 154.673442 
L 105.460703 169.052457 
L 106.316935 207.133668 
L 106.959108 237.78986 
L 107.030461 235.903105 
L 108.671572 162.907293 
L 109.17104 149.222238 
L 109.456451 146.399102 
L 109.527804 146.388915 
L 109.670509 147.283818 
L 109.884567 150.774641 
L 110.24133 161.044256 
L 110.883504 187.473568 
L 111.953794 237.575575 
L 112.025146 234.673029 
L 113.666257 161.904501 
L 114.165726 148.555302 
L 114.451136 145.975552 
L 114.522489 146.026142 
L 114.665194 146.972443 
L 114.879252 150.601512 
L 115.236015 161.098345 
L 115.949542 190.967335 
L 116.948479 237.862634 
L 117.590653 208.034468 
L 118.732295 159.834301 
L 119.160411 148.909121 
L 119.445822 146.319768 
L 119.517174 146.367419 
L 119.65988 147.306175 
L 119.873938 150.932989 
L 120.230701 161.408428 
L 120.944227 191.244758 
L 121.943164 238.180895 
L 122.513986 211.81688 
L 123.655628 162.760362 
L 124.155096 149.382024 
L 124.440507 146.746734 
L 124.51186 146.779121 
L 124.654565 147.685044 
L 124.868623 151.194316 
L 125.225386 161.595671 
L 125.86756 188.100949 
L 126.93785 238.407681 
L 127.009202 235.745382 
L 128.650313 162.978303 
L 129.149782 149.595317 
L 129.435192 146.948552 
L 129.506545 146.976304 
L 129.64925 147.870882 
L 129.863308 151.297786 
L 130.220071 161.681048 
L 130.862245 188.173702 
L 131.932535 238.547577 
L 132.003888 235.83292 
L 133.644999 163.290289 
L 134.144467 149.984266 
L 134.429878 147.357882 
L 134.50123 147.386006 
L 134.643936 148.278876 
L 134.857994 151.687396 
L 135.214757 162.058225 
L 135.856931 188.531114 
L 136.92722 238.857845 
L 136.998573 236.059288 
L 138.639684 163.736866 
L 139.139152 150.567106 
L 139.424563 148.015105 
L 139.495916 148.061468 
L 139.638621 148.981908 
L 139.852679 152.387225 
L 140.209442 162.795025 
L 140.851616 189.273326 
L 141.921906 239.473746 
L 141.993258 236.511765 
L 143.563016 167.53937 
L 144.062485 153.552461 
L 144.347896 150.192939 
L 144.419248 150.008888 
L 144.490601 150.097405 
L 144.633306 151.084143 
L 144.847364 154.49591 
L 145.204127 164.821351 
L 145.917654 194.027921 
L 146.916591 240.396349 
L 146.987944 237.493616 
L 148.629054 165.509017 
L 149.128523 151.206783 
L 149.413934 147.624481 
L 149.485286 147.382852 
L 149.556639 147.412945 
L 149.699344 148.280345 
L 149.913402 151.47732 
L 150.270165 161.180597 
L 150.912339 186.990956 
L 151.982629 236.526614 
L 152.053982 236.151316 
L 154.194561 139.449583 
L 154.622677 129.088016 
L 154.836735 127.719992 
L 154.908087 127.877852 
L 155.050793 129.08046 
L 155.336203 134.670863 
L 155.764319 149.438822 
L 156.620551 189.709185 
L 157.334077 225.046824 
L 157.619488 211.973147 
L 158.76113 149.632212 
L 159.688715 99.448485 
L 159.974125 93.079462 
L 160.116831 92.34438 
L 160.188183 92.568142 
L 160.330889 94.113583 
L 160.616299 100.969067 
L 161.044415 118.065633 
L 161.972 167.190162 
L 162.756879 209.253313 
L 163.61311 156.175445 
L 164.826105 76.897588 
L 165.111516 70.722792 
L 165.182869 70.380906 
L 165.254221 70.494682 
L 165.396927 71.992617 
L 165.682337 79.657699 
L 166.181806 102.076907 
L 167.038037 152.769894 
L 167.965622 207.685702 
L 168.036975 206.878063 
L 168.750501 159.615584 
L 169.892143 78.374189 
L 170.177554 71.538673 
L 170.248907 71.100367 
L 170.320259 71.136339 
L 170.462965 72.525229 
L 170.677022 77.44846 
L 171.033786 91.875437 
L 171.747312 130.205173 
L 173.103012 209.91195 
L 173.174365 209.564038 
L 174.030597 150.243935 
L 174.886829 83.025305 
L 175.172239 73.83373 
L 175.314945 72.541117 
L 175.386297 72.655871 
L 175.529002 74.258794 
L 175.814413 82.02118 
L 176.242529 101.755852 
L 177.455524 173.53049 
L 177.954993 202.497493 
L 179.096635 126.32922 
L 179.667456 87.556573 
L 179.952867 77.792447 
L 180.166925 75.920559 
L 180.30963 77.094065 
L 180.523688 81.931473 
L 180.880451 96.075908 
L 181.593978 135.902158 
L 182.521562 192.197641 
L 182.592915 191.9452 
L 183.877262 109.127929 
L 184.519436 73.711911 
L 184.804847 67.504986 
L 184.876199 67.115963 
L 184.947552 67.184924 
L 185.090257 68.725778 
L 185.375668 76.323269 
L 185.803784 95.569009 
L 186.731368 150.588007 
L 187.230837 182.149544 
L 189.371416 62.639606 
L 189.585474 60.458422 
L 189.656827 60.581278 
L 189.799532 62.064385 
L 190.084943 69.446744 
L 190.513058 88.474583 
L 191.440643 142.963799 
L 191.940111 171.723198 
L 193.937986 56.289474 
L 194.223396 51.706733 
L 194.294749 51.616947 
L 194.437454 52.73674 
L 194.651512 57.502089 
L 195.008275 72.067479 
L 195.721802 113.481917 
L 196.649386 171.950668 
L 197.434265 122.510901 
L 198.290497 69.112862 
L 198.718613 54.067951 
L 198.932671 51.554817 
L 199.004023 51.613248 
L 199.146729 53.130205 
L 199.360787 58.809721 
L 199.71755 75.652979 
L 200.78784 144.082066 
L 201.358661 179.415168 
L 201.501366 173.888492 
L 202.357598 124.817916 
L 203.285182 66.20395 
L 203.570593 59.500902 
L 203.713298 58.706825 
L 203.856003 59.845101 
L 204.070061 65.247951 
L 204.426825 82.717859 
L 205.568467 156.528032 
L 205.782525 178.94381 
L 206.067936 191.305424 
L 207.280931 131.731897 
L 208.493926 60.179475 
L 208.636631 61.802716 
L 208.850689 68.659317 
L 209.207452 90.81105 
L 210.634505 199.030763 
L 210.705858 198.406892 
L 212.346969 138.301916 
L 212.989142 99.980138 
L 213.702669 57.403852 
L 213.845374 51.284362 
L 213.988079 59.087305 
L 214.630253 123.104844 
L 215.272427 178.739325 
L 215.34378 182.662368 
L 215.415132 182.427633 
L 215.557838 181.765755 
L 215.62919 190.088379 
L 215.700543 189.699988 
L 216.770833 182.625979 
L 217.76977 148.471664 
L 218.768707 111.026728 
L 218.840059 111.209187 
L 218.982765 112.697308 
L 219.196823 117.733848 
L 219.553586 132.458206 
L 221.194697 219.171559 
L 221.266049 218.173294 
L 222.407692 201.045335 
L 223.049866 186.117702 
L 223.97745 142.305434 
L 224.048803 142.101261 
L 224.120155 142.223038 
L 224.262861 143.457006 
L 224.405566 149.809972 
L 225.761266 224.925467 
L 226.189382 227.191716 
L 226.617498 228.550153 
L 227.687788 218.720502 
L 227.973198 205.173508 
L 229.328899 134.178421 
L 229.471604 133.885829 
L 229.542957 134.068246 
L 229.685662 136.412373 
L 229.757014 138.165904 
L 230.470541 180.533125 
L 231.041362 195.901872 
L 231.540831 205.141223 
L 231.897594 210.21342 
L 231.968947 210.122931 
L 232.111652 209.084714 
L 232.468415 196.641999 
L 233.039236 173.051864 
L 233.396 150.400917 
L 234.466289 60.434836 
L 234.680347 55.895061 
L 234.823052 58.00924 
L 235.108463 66.33431 
L 235.536579 85.452338 
L 235.750637 110.004537 
L 236.535516 148.913582 
L 236.749574 151.087133 
L 236.820927 150.78501 
L 236.892279 151.626787 
L 236.963632 151.401027 
L 237.320395 150.64862 
L 237.4631 148.401655 
L 237.891216 147.429993 
L 238.319332 146.53713 
L 238.390685 146.2504 
L 238.53339 143.839971 
L 239.318269 116.333851 
L 239.460975 115.754528 
L 239.60368 119.055173 
L 239.746385 126.657623 
L 240.388559 173.121723 
L 240.888027 189.909771 
L 241.530201 203.636092 
L 241.815612 207.022413 
L 242.101022 205.514275 
L 242.386433 201.918267 
L 242.814549 192.218497 
L 243.38537 173.883067 
L 243.742133 154.215131 
L 244.027544 138.415354 
L 244.312955 130.226663 
L 244.384307 130.081888 
L 244.669718 136.490916 
L 245.52595 173.379482 
L 245.882713 187.944297 
L 246.524887 208.75068 
L 246.738945 211.906384 
L 247.095708 213.133299 
L 247.238413 213.882528 
L 247.309766 213.290739 
L 247.595176 204.968264 
L 248.522761 168.701094 
L 248.950877 153.091838 
L 249.164935 151.041415 
L 249.236287 151.027421 
L 249.378993 152.296189 
L 249.521698 156.141947 
L 249.878461 173.026211 
L 250.37793 197.967417 
L 250.877398 216.491553 
L 251.448219 230.050167 
L 251.947688 236.979013 
L 252.161746 236.895669 
L 252.233098 236.574845 
L 252.732567 228.84723 
L 252.946625 223.793126 
L 254.302325 169.208982 
L 254.44503 168.840554 
L 254.587736 172.486733 
L 255.22991 196.135935 
L 255.658025 202.709498 
L 256.086141 205.142717 
L 256.228847 205.587615 
L 257.513194 181.836524 
L 258.012663 158.320232 
L 258.155368 140.160985 
L 258.797542 114.566161 
L 258.940247 113.196116 
L 259.082953 117.265404 
L 259.582421 148.991617 
L 260.153242 192.171803 
L 260.438653 211.543491 
L 261.009474 231.72758 
L 261.223532 235.116101 
L 261.794353 236.332542 
L 261.865706 236.230812 
L 262.079764 235.664881 
L 262.222469 233.678201 
L 262.864643 218.359275 
L 264.148991 166.507909 
L 264.220343 166.358864 
L 264.434401 169.642082 
L 264.648459 177.371117 
L 265.718749 234.768147 
L 266.218217 240.896993 
L 266.503628 242.462834 
L 267.003096 242.621326 
L 267.145802 242.606591 
L 267.288507 241.925663 
L 267.431212 240.449 
L 267.930681 231.408951 
L 268.002033 229.650665 
L 268.287444 212.815867 
L 269.143676 174.541311 
L 269.286381 173.630585 
L 269.429086 175.70177 
L 269.857202 191.372469 
L 270.428023 222.81858 
L 270.998845 239.27511 
L 271.284255 244.688857 
L 271.426961 244.943787 
L 271.712371 244.943258 
L 271.783724 245.379637 
L 271.855076 244.964407 
L 271.926429 245.002953 
L 272.21184 245.148917 
L 272.354545 244.177993 
L 272.925366 230.033374 
L 273.210777 218.912021 
L 273.638893 194.701211 
L 273.995656 178.826359 
L 274.281066 172.241437 
L 274.352419 172.51316 
L 274.566477 175.630076 
L 275.137298 205.804043 
L 275.779472 235.991812 
L 276.207588 240.761925 
L 276.421646 242.113223 
L 276.921114 242.361428 
L 277.206525 242.224504 
L 277.34923 241.357338 
L 277.705994 237.840075 
L 277.991404 232.966038 
L 278.276815 215.731792 
L 279.204399 172.304598 
L 279.275752 171.572489 
L 279.418457 173.29715 
L 279.77522 184.424335 
L 280.274689 214.839848 
L 280.631452 228.0842 
L 281.273626 243.813542 
L 281.416331 244.308836 
L 282.20121 244.525431 
L 282.272563 244.555031 
L 282.343916 244.29121 
L 282.486621 241.89981 
L 283.128795 224.068385 
L 283.414205 210.623385 
L 284.056379 178.459691 
L 284.270437 173.616058 
L 284.34179 173.630913 
L 284.484495 174.912864 
L 284.6272 179.218079 
L 285.483432 222.770941 
L 285.626137 233.281148 
L 286.054253 240.677942 
L 286.411016 243.464354 
L 286.981838 243.981074 
L 287.267248 243.975503 
L 287.552659 241.7821 
L 287.766717 239.086469 
L 287.980775 234.945256 
L 288.837006 190.554505 
L 289.19377 176.875369 
L 289.265122 176.076625 
L 289.336475 176.504937 
L 289.47918 179.52205 
L 289.835944 192.637439 
L 290.54947 229.025811 
L 291.191644 245.410595 
L 291.405702 246.491925 
L 292.333286 246.63634 
L 292.404639 246.362101 
L 292.690049 240.180659 
L 293.189518 225.057655 
L 293.546281 205.221395 
L 294.04575 180.602017 
L 294.259808 175.324755 
L 294.33116 175.254269 
L 294.473866 176.974772 
L 294.830629 192.195253 
L 295.758213 236.221957 
L 296.186329 243.272385 
L 296.400387 244.267308 
L 296.971208 244.503526 
L 297.327972 244.401472 
L 297.399324 244.244748 
L 297.756087 239.960874 
L 297.970145 235.606285 
L 298.255556 218.470702 
L 299.18314 173.866174 
L 299.325846 172.763981 
L 299.468551 175.280957 
L 299.753962 184.822174 
L 300.681546 229.476578 
L 301.32372 243.996871 
L 301.60913 244.888764 
L 302.251304 244.917824 
L 302.394009 244.332839 
L 302.536715 241.750017 
L 303.036183 227.427164 
L 303.607004 197.7545 
L 304.177826 172.017458 
L 304.320531 170.709161 
L 304.391884 171.041019 
L 304.605942 176.295221 
L 304.962705 191.154612 
L 305.462173 215.429983 
L 305.604879 230.800978 
L 306.1757 239.695214 
L 306.532463 242.377509 
L 307.174637 242.499914 
L 307.388695 242.305949 
L 307.5314 241.894608 
L 307.602753 241.554753 
L 307.816811 237.71582 
L 307.959516 234.454568 
L 308.244927 217.011046 
L 309.243864 169.202851 
L 309.386569 167.551287 
L 309.67198 174.650897 
L 309.886037 185.360184 
L 310.599564 222.219186 
L 311.099032 236.205066 
L 311.455796 242.172292 
L 311.812559 244.152809 
L 312.026617 244.441472 
L 312.454733 244.596003 
L 312.740143 239.030169 
L 313.025554 230.035257 
L 314.309902 171.375333 
L 314.381254 171.579145 
L 314.452607 172.514492 
L 314.880723 193.45884 
L 315.594249 229.8814 
L 315.951012 238.078751 
L 316.521834 240.146937 
L 316.735892 240.766209 
L 316.807244 240.450099 
L 316.878597 240.567242 
L 317.092655 240.872545 
L 317.164007 240.757103 
L 317.877534 225.770855 
L 317.948887 223.87078 
L 318.162945 213.193951 
L 318.519708 191.359437 
L 319.019176 162.131612 
L 319.233234 161.056718 
L 319.304587 161.226309 
L 319.447292 164.743426 
L 320.660287 222.690349 
L 321.088403 225.041145 
L 321.373814 225.973302 
L 321.80193 225.454766 
L 322.372751 225.104287 
L 322.658161 224.579272 
L 322.800867 224.071056 
L 322.943572 218.926454 
L 323.799804 170.098434 
L 324.370625 138.212539 
L 324.441978 139.564062 
L 325.440915 195.269418 
L 326.083088 202.739468 
L 327.082025 210.721236 
L 327.153378 211.316423 
L 327.224731 211.280444 
L 327.938257 200.604153 
L 328.152315 191.475588 
L 328.437726 183.088638 
L 328.651784 168.163656 
L 329.36531 111.209176 
L 329.436663 111.371813 
L 329.579368 112.50767 
L 329.722073 114.654878 
L 329.936131 127.429347 
L 330.506953 159.227217 
L 331.363184 181.779485 
L 332.076711 196.285063 
L 333.075648 213.289804 
L 333.432411 191.965554 
L 334.930817 99.724935 
L 335.002169 98.667503 
L 335.073522 99.141058 
L 335.501638 120.615894 
L 336.429222 163.697064 
L 337.642217 207.296756 
L 337.927628 209.690239 
L 338.141686 199.751477 
L 338.641154 166.625388 
L 339.711444 90.073843 
L 339.925502 83.726343 
L 340.13956 86.658781 
L 340.496323 96.714513 
L 340.924439 116.06186 
L 342.208787 182.853549 
L 342.779608 202.993026 
L 343.564487 153.371761 
L 344.777482 73.94919 
L 344.99154 69.6708 
L 345.062893 69.259966 
L 345.134245 69.285615 
L 345.276951 70.700516 
L 345.562361 82.86625 
L 345.990477 110.156853 
L 346.775356 162.391931 
L 347.41753 193.726805 
L 347.916999 166.102968 
L 348.059704 135.640343 
L 349.129994 77.023854 
L 349.558109 63.387209 
L 349.772167 61.461216 
L 349.84352 61.611302 
L 349.986225 63.059852 
L 350.271636 70.101103 
L 350.699752 88.544089 
L 351.341926 132.805668 
L 352.055452 176.102845 
L 352.126805 176.214698 
L 354.410089 58.083004 
L 354.6955 53.914576 
L 354.766853 53.726827 
L 354.838205 53.878078 
L 354.980911 55.161228 
L 355.266321 61.234722 
L 355.694437 77.233191 
L 357.192843 161.546123 
L 357.264195 157.84949 
L 358.263132 82.680211 
L 359.178226 -1 
M 361.343385 -1 
L 362.686997 81.552099 
L 362.829702 89.238141 
L 363.257818 23.686877 
L 363.3735 -1 
L 363.3735 -1 
" clip-path="url(#pbe51a6eb4d)" style="fill: none; stroke: #1f77b4; stroke-width: 1.5; stroke-linecap: square"/>
   </g>
   <g id="line2d_22">
    <path d="M 59.787716 -1 
L 60.151772 101.475843 
L 60.579888 164.630359 
L 60.865298 188.507396 
L 62.149646 134.196251 
L 62.934525 102.34778 
L 63.362641 92.246719 
L 63.576699 90.949983 
L 63.719404 91.915702 
L 63.933462 96.439071 
L 64.218873 108.176451 
L 64.789694 143.809393 
L 65.003752 154.875841 
L 66.074041 117.471625 
L 66.858921 96.710901 
L 67.001626 91.350252 
L 68.285974 13.200882 
L 68.500031 10.774549 
L 68.642737 12.503283 
L 68.856795 20.590805 
L 69.142205 41.609382 
L 69.713026 106.659242 
L 70.3552 168.493468 
L 70.997374 207.251565 
L 71.568195 233.081628 
L 71.924959 229.007258 
L 72.067664 224.54946 
L 73.494717 170.185405 
L 73.922833 160.663049 
L 74.136891 158.659591 
L 74.208243 158.483858 
L 74.279596 158.565647 
L 74.422301 159.50431 
L 74.636359 162.758915 
L 74.993122 172.144571 
L 75.778001 200.489955 
L 76.848291 242.339972 
L 76.919644 242.051679 
L 78.70346 177.662113 
L 79.131576 168.799372 
L 79.416987 166.713797 
L 79.488339 166.749806 
L 79.631044 167.506628 
L 79.845102 170.268282 
L 80.201866 178.437313 
L 80.844039 199.542582 
L 81.985682 243.473591 
L 82.057034 240.875288 
L 83.983556 170.621809 
L 84.411672 162.326159 
L 84.62573 161.16308 
L 84.697082 161.290631 
L 84.839788 162.326496 
L 85.125198 167.320203 
L 85.553314 180.511844 
L 86.338193 213.425798 
L 86.980367 243.060565 
L 87.05172 242.727558 
L 89.049594 168.716946 
L 89.406357 161.503161 
L 89.620415 159.899916 
L 89.691768 159.891624 
L 89.834473 160.684016 
L 90.048531 163.815726 
L 90.405294 173.394797 
L 91.047468 198.758463 
L 92.046405 243.784105 
L 92.260463 231.843891 
L 94.115632 163.076943 
L 94.472395 156.179295 
L 94.686453 154.951224 
L 94.757806 155.085579 
L 94.900511 156.178509 
L 95.185922 161.42673 
L 95.614037 175.208234 
L 96.470269 212.549662 
L 97.04109 239.734797 
L 97.112443 238.085794 
L 98.896259 161.258686 
L 99.324375 151.117128 
L 99.538433 149.424943 
L 99.609786 149.439006 
L 99.752491 150.339014 
L 99.966549 153.748972 
L 100.323312 163.923489 
L 101.036839 193.350533 
L 102.035776 237.726209 
L 103.890945 157.832217 
L 104.247708 149.531787 
L 104.461766 147.55077 
L 104.533118 147.456516 
L 104.675824 148.138755 
L 104.889882 151.2462 
L 105.246645 161.046512 
L 105.888819 186.974996 
L 106.959108 237.258355 
L 107.030461 235.58818 
L 108.814277 157.979679 
L 109.242393 147.972902 
L 109.456451 146.326553 
L 109.527804 146.349324 
L 109.670509 147.26323 
L 109.884567 150.692003 
L 110.24133 160.906744 
L 110.954857 190.417773 
L 111.953794 237.547434 
L 112.025146 234.380966 
L 113.808963 157.018407 
L 114.237078 147.332845 
L 114.451136 145.853957 
L 114.522489 145.932107 
L 114.665194 146.948918 
L 114.879252 150.507039 
L 115.236015 160.862985 
L 115.949542 190.569673 
L 116.948479 237.703851 
L 117.019832 234.771658 
L 118.803648 157.366587 
L 119.231764 147.668204 
L 119.445822 146.19415 
L 119.517174 146.271763 
L 119.65988 147.287116 
L 119.873938 150.843226 
L 120.230701 161.195626 
L 120.944227 190.924206 
L 121.943164 237.962263 
L 122.014517 235.183891 
L 123.726981 160.143335 
L 124.155096 149.140389 
L 124.440507 146.581975 
L 124.51186 146.643876 
L 124.654565 147.627238 
L 124.868623 151.133846 
L 125.225386 161.413182 
L 125.86756 187.838774 
L 126.93785 238.006142 
L 127.009202 235.524951 
L 128.721666 160.368615 
L 129.149782 149.345998 
L 129.435192 146.764681 
L 129.506545 146.817864 
L 129.64925 147.781575 
L 129.863308 151.254728 
L 130.220071 161.479144 
L 130.862245 187.898617 
L 131.932535 238.048692 
L 132.003888 235.586064 
L 133.716351 160.696207 
L 134.144467 149.744081 
L 134.429878 147.170959 
L 134.50123 147.223764 
L 134.643936 148.184294 
L 134.857994 151.646019 
L 135.214757 161.840483 
L 135.856931 188.254634 
L 136.92722 238.386248 
L 136.998573 235.836414 
L 138.711036 161.132204 
L 139.139152 150.288937 
L 139.424563 147.792081 
L 139.495916 147.864884 
L 139.638621 148.858383 
L 139.852679 152.36302 
L 140.209442 162.604027 
L 140.851616 189.118997 
L 141.921906 239.179539 
L 141.993258 236.225703 
L 143.491664 169.831699 
L 143.991132 154.580369 
L 144.276543 150.250022 
L 144.419248 149.665046 
L 144.490601 149.79379 
L 144.633306 150.890159 
L 144.918717 156.139023 
L 145.346833 169.814558 
L 146.203064 206.764742 
L 146.916591 239.651895 
L 147.202001 227.26178 
L 149.199876 149.659144 
L 149.485286 147.111706 
L 149.556639 147.148701 
L 149.699344 148.046121 
L 149.913402 151.331886 
L 150.270165 161.068137 
L 150.912339 186.639609 
L 152.053982 236.096297 
L 154.194561 139.252585 
L 154.551324 129.849623 
L 154.765382 127.596712 
L 154.836735 127.448819 
L 154.908087 127.612027 
L 155.050793 128.840311 
L 155.336203 134.543572 
L 155.764319 149.188519 
L 156.549198 185.628827 
L 157.334077 224.38208 
L 157.40543 222.548924 
L 158.76113 149.63221 
L 159.688715 99.435775 
L 159.974125 92.974033 
L 160.116831 92.24363 
L 160.259536 93.103763 
L 160.473594 96.945802 
L 160.830357 108.565905 
L 161.472531 139.16809 
L 162.756879 208.730598 
L 163.61311 156.102942 
L 164.826105 76.470497 
L 165.111516 70.273272 
L 165.182869 69.950806 
L 165.254221 70.091442 
L 165.396927 71.659963 
L 165.682337 79.136354 
L 166.110453 97.837064 
L 167.038037 152.22177 
L 167.965622 207.587495 
L 168.036975 206.732494 
L 168.750501 159.615582 
L 169.892143 78.360985 
L 170.177554 71.337832 
L 170.248907 70.863476 
L 170.320259 70.874847 
L 170.462965 72.236354 
L 170.677022 77.164261 
L 171.033786 91.652331 
L 171.747312 130.105601 
L 173.103012 209.655025 
L 173.174365 208.878881 
L 174.030597 150.243933 
L 174.886829 82.448316 
L 175.172239 73.26466 
L 175.314945 72.055114 
L 175.386297 72.224385 
L 175.529002 73.92803 
L 175.814413 81.878523 
L 176.313882 105.326273 
L 177.669582 186.217802 
L 177.954993 202.449934 
L 179.096635 126.274753 
L 179.667456 87.537596 
L 179.952867 77.647308 
L 180.166925 75.733073 
L 180.30963 76.917825 
L 180.523688 81.807687 
L 180.880451 96.05791 
L 181.593978 135.902157 
L 182.521562 192.06938 
L 182.592915 191.24384 
L 183.948615 103.599111 
L 184.519436 73.333237 
L 184.804847 67.083972 
L 184.876199 66.689607 
L 184.947552 66.755794 
L 185.090257 68.20836 
L 185.304315 73.319222 
L 185.661078 87.775865 
L 186.374605 128.239413 
L 187.230837 182.018154 
L 189.157358 68.09805 
L 189.442769 60.984496 
L 189.585474 59.891311 
L 189.656827 59.987429 
L 189.799532 61.432644 
L 190.01359 66.466714 
L 190.370353 80.75461 
L 191.08388 120.828148 
L 191.940111 171.091832 
L 193.723928 63.688801 
L 194.080691 53.037305 
L 194.294749 51.362489 
L 194.437454 52.407718 
L 194.651512 57.118257 
L 195.008275 71.619862 
L 195.721802 113.346139 
L 196.649386 171.867937 
L 198.575908 57.663135 
L 198.861318 51.744674 
L 198.932671 51.322792 
L 199.004023 51.361182 
L 199.146729 52.83898 
L 199.360787 58.485201 
L 199.71755 75.415018 
L 200.859192 148.425207 
L 201.358661 179.40389 
L 201.644071 166.115025 
L 202.286245 128.114736 
L 203.285182 65.675219 
L 203.570593 59.208256 
L 203.713298 58.432509 
L 203.856003 59.599992 
L 204.070061 65.067518 
L 204.426825 82.699419 
L 205.568467 156.44865 
L 205.782525 178.424046 
L 206.067936 190.7945 
L 207.209578 135.857952 
L 208.493926 59.266133 
L 208.636631 61.162963 
L 208.850689 68.186284 
L 209.207452 90.590636 
L 210.634505 198.653886 
L 210.705858 198.108756 
L 212.346969 137.835855 
L 213.845374 50.864792 
L 213.916727 52.327003 
L 214.344843 92.856405 
L 215.201074 173.586499 
L 215.34378 182.659255 
L 215.415132 182.39396 
L 215.557838 181.546986 
L 215.700543 189.486827 
L 216.770833 182.530621 
L 217.627064 153.773489 
L 218.05518 134.682006 
L 218.554649 112.45967 
L 218.768707 110.425689 
L 218.840059 110.697486 
L 219.054117 113.754038 
L 219.339528 122.699559 
L 219.838997 147.668914 
L 221.194697 218.427665 
L 222.336339 202.338129 
L 222.978513 188.664366 
L 223.692039 149.821291 
L 223.97745 139.388351 
L 224.048803 139.000851 
L 224.262861 143.031941 
L 224.476919 152.969602 
L 225.689914 224.207146 
L 225.975324 226.244469 
L 226.40344 227.798066 
L 226.546145 227.929512 
L 226.688851 227.793512 
L 227.402377 221.658113 
L 227.687788 218.518516 
L 228.044551 200.655585 
L 229.257546 134.099116 
L 229.471604 133.531629 
L 229.542957 133.61767 
L 229.685662 134.881443 
L 229.89972 147.492749 
L 230.399188 177.976251 
L 230.898657 192.433733 
L 231.683536 206.904006 
L 231.968947 209.177688 
L 232.040299 209.180432 
L 232.111652 208.832706 
L 232.397062 198.836073 
L 232.967884 176.511111 
L 233.324647 155.824085 
L 233.752763 110.415036 
L 234.109526 81.238064 
L 234.537642 58.230704 
L 234.680347 55.895055 
L 234.823052 57.610886 
L 235.108463 66.334303 
L 235.536579 85.28887 
L 235.750637 109.877082 
L 236.464163 147.460587 
L 236.749574 151.003947 
L 236.820927 150.517316 
L 236.892279 150.778641 
L 237.320395 149.575419 
L 237.4631 147.628898 
L 238.033922 147.196071 
L 238.24798 146.788579 
L 238.390685 145.864466 
L 238.53339 143.341383 
L 239.318269 116.010398 
L 239.389622 115.519126 
L 239.460975 115.533853 
L 239.532327 115.805574 
L 239.60368 116.622693 
L 239.746385 125.582489 
L 240.317206 169.859685 
L 240.816675 188.052552 
L 241.387496 200.296144 
L 241.744259 205.222503 
L 241.958317 205.870305 
L 242.02967 205.864948 
L 242.243728 203.519211 
L 242.743196 193.62107 
L 243.242665 179.160258 
L 243.670781 158.016331 
L 244.098897 134.358708 
L 244.312955 129.384282 
L 244.384307 129.629205 
L 244.598365 134.010401 
L 244.883776 144.343414 
L 246.453534 206.351653 
L 246.738945 211.099113 
L 247.095708 213.064112 
L 247.238413 212.778134 
L 247.381118 211.243038 
L 248.023292 189.279966 
L 248.23735 178.950564 
L 248.594113 164.648257 
L 248.950877 152.231925 
L 249.164935 150.779132 
L 249.236287 150.583707 
L 249.30764 150.676535 
L 249.450345 153.079685 
L 249.664403 159.429 
L 250.734693 211.532985 
L 251.162809 223.626047 
L 251.73363 233.916898 
L 252.01904 236.797967 
L 252.090393 236.358024 
L 252.518509 232.132508 
L 252.875272 225.742399 
L 253.446093 201.227821 
L 254.15962 170.282551 
L 254.373678 167.724912 
L 254.516383 169.388113 
L 255.372615 197.983457 
L 255.872083 203.579441 
L 256.014789 204.689212 
L 256.086141 204.590781 
L 256.228847 204.446492 
L 256.300199 204.001495 
L 257.441842 183.629238 
L 257.727252 171.833634 
L 258.012663 157.508201 
L 258.226721 136.76929 
L 258.868895 111.868265 
L 258.940247 110.676521 
L 259.082953 116.28833 
L 259.796479 162.89155 
L 260.724063 222.697064 
L 261.152179 234.486469 
L 261.43759 234.940889 
L 261.865706 234.864342 
L 262.079764 235.360938 
L 262.579232 225.722496 
L 262.935996 215.167858 
L 263.649522 181.290023 
L 263.934933 170.057439 
L 264.220343 165.617332 
L 264.363048 165.063566 
L 264.434401 165.540431 
L 264.791164 185.145391 
L 265.647396 233.237758 
L 266.075512 239.196956 
L 266.503628 241.97568 
L 266.789038 242.460036 
L 267.074449 242.613164 
L 267.35986 240.640745 
L 267.573918 238.037 
L 268.002033 228.534366 
L 268.287444 212.563578 
L 269.143676 171.649115 
L 269.215028 171.870043 
L 269.500439 177.249418 
L 269.78585 187.277343 
L 270.713434 231.790518 
L 271.212903 243.419509 
L 271.426961 244.569819 
L 271.855076 244.349125 
L 272.140487 244.68763 
L 272.283192 244.616205 
L 272.639956 237.538747 
L 272.996719 227.660407 
L 274.138361 174.150112 
L 274.423772 170.353852 
L 274.566477 174.991248 
L 275.065946 201.537321 
L 275.779472 235.701161 
L 276.278941 240.902656 
L 276.564351 242.094132 
L 277.135172 242.140675 
L 277.491936 239.606115 
L 277.848699 235.439798 
L 277.991404 230.996696 
L 278.41952 208.097416 
L 279.204399 170.227641 
L 279.418457 173.057567 
L 279.703868 181.010166 
L 279.917926 193.70213 
L 280.631452 228.061344 
L 281.273626 243.369936 
L 281.416331 243.768626 
L 281.630389 243.775289 
L 281.773094 243.679742 
L 282.20121 244.204311 
L 282.272563 244.135833 
L 282.343916 243.829675 
L 282.629326 238.397277 
L 283.128795 223.382112 
L 283.699616 192.567112 
L 284.056379 177.650356 
L 284.413142 171.130799 
L 284.555848 175.516851 
L 284.983964 197.106087 
L 285.768843 236.142948 
L 286.125606 240.921205 
L 286.482369 243.479775 
L 287.195896 243.874025 
L 287.481306 241.962596 
L 287.766717 238.893381 
L 287.909422 235.955957 
L 288.622949 201.486417 
L 289.19377 174.945109 
L 289.336475 176.053741 
L 289.47918 178.35652 
L 289.764591 188.422505 
L 290.692175 233.153577 
L 291.191644 244.873527 
L 291.334349 245.89199 
L 291.691112 245.981223 
L 291.833818 245.962897 
L 292.190581 246.313793 
L 292.261934 246.316025 
L 292.404639 245.880306 
L 292.761402 238.291936 
L 293.118165 226.979377 
L 293.688987 195.893776 
L 294.04575 179.524171 
L 294.33116 173.559927 
L 294.402513 173.494711 
L 294.687924 183.849258 
L 295.829566 237.261107 
L 296.186329 242.81585 
L 296.47174 244.229565 
L 297.185266 244.275161 
L 297.399324 243.403543 
L 297.684735 240.984028 
L 297.82744 238.407586 
L 298.041498 228.90974 
L 299.18314 171.657602 
L 299.325846 172.088575 
L 299.468551 174.135476 
L 299.753962 183.994253 
L 300.681546 229.433247 
L 301.252367 242.85527 
L 301.395072 243.995968 
L 301.751836 243.969215 
L 301.894541 244.017447 
L 302.322657 244.430482 
L 302.465362 242.550963 
L 302.893478 232.160489 
L 303.464299 205.382451 
L 304.177826 171.519618 
L 304.320531 168.976725 
L 304.391884 169.053469 
L 304.677294 177.39773 
L 305.462173 215.177598 
L 305.604879 229.953306 
L 305.961642 236.500349 
L 306.389758 240.752134 
L 306.746521 242.244753 
L 307.317342 242.097094 
L 307.460047 241.963564 
L 307.5314 241.755473 
L 307.745458 239.057987 
L 307.959516 233.691619 
L 308.244927 216.952279 
L 309.315216 167.229854 
L 309.457922 166.43751 
L 309.600627 169.513892 
L 309.95739 188.902572 
L 310.670917 224.300559 
L 311.241738 238.466216 
L 311.527148 241.967557 
L 311.669854 242.228874 
L 311.883912 243.378829 
L 312.312027 244.348619 
L 312.454733 244.436926 
L 312.740143 239.030166 
L 312.954201 232.871643 
L 313.45367 208.325173 
L 314.238549 169.682321 
L 314.309902 167.720772 
L 314.381254 168.589347 
L 314.952075 197.227425 
L 315.594249 229.822715 
L 315.951012 237.956588 
L 316.236423 238.932669 
L 317.021302 240.661392 
L 317.092655 240.51012 
L 317.23536 239.19899 
L 317.734829 229.045207 
L 317.948887 222.943185 
L 318.234297 209.530584 
L 318.662413 180.599858 
L 318.947824 163.062182 
L 319.161882 160.841129 
L 319.233234 160.716611 
L 319.304587 160.92016 
L 319.37594 161.495703 
L 319.518645 167.279902 
L 320.374877 215.763458 
L 320.588935 221.646896 
L 321.01705 224.672947 
L 321.231108 225.095746 
L 321.659224 225.006374 
L 321.730577 224.764805 
L 321.80193 224.852978 
L 322.015988 224.992922 
L 322.301398 225.013714 
L 322.515456 224.82842 
L 322.800867 224.053868 
L 322.943572 218.826566 
L 323.871156 165.274576 
L 324.370625 136.987449 
L 324.441978 138.088932 
L 325.226857 189.652851 
L 325.440915 195.134061 
L 325.940383 200.622005 
L 327.153378 211.301365 
L 327.224731 211.125112 
L 327.795552 202.984312 
L 327.938257 199.584483 
L 328.080963 192.052184 
L 328.437726 182.774494 
L 328.651784 168.098962 
L 329.36531 110.89739 
L 329.436663 111.278873 
L 329.579368 112.304293 
L 329.722073 114.566066 
L 329.864779 121.989328 
L 330.506953 159.087503 
L 331.363184 181.525216 
L 332.148063 197.376656 
L 333.075648 212.767281 
L 333.432411 191.928532 
L 334.930817 99.152983 
L 335.073522 98.360534 
L 335.144875 99.127626 
L 335.358933 110.502091 
L 336.143812 151.009251 
L 337.499512 203.396733 
L 337.784923 208.53017 
L 337.927628 209.690235 
L 337.998981 201.635487 
L 338.070333 203.549084 
L 338.569802 171.847523 
L 339.782797 86.0635 
L 339.996855 83.34266 
L 340.068207 83.400494 
L 340.210913 86.149611 
L 340.639028 101.889759 
L 341.20985 131.518942 
L 342.208787 182.853546 
L 342.779608 201.888869 
L 343.564487 153.124242 
L 344.777482 73.877764 
L 345.062893 68.848114 
L 345.134245 68.929527 
L 345.276951 70.635047 
L 345.491008 76.746634 
L 345.776419 93.203988 
L 347.132119 180.795249 
L 347.41753 193.531169 
L 347.916999 165.660066 
L 348.059704 134.618718 
L 349.272699 71.229533 
L 349.629462 62.235928 
L 349.772167 61.337482 
L 349.84352 61.499739 
L 349.986225 62.998159 
L 350.271636 70.101101 
L 350.699752 88.259572 
L 351.127868 115.505064 
L 351.984099 172.073321 
L 352.126805 176.214696 
L 354.410089 57.722741 
L 354.6955 53.607904 
L 354.766853 53.408141 
L 354.838205 53.566558 
L 354.980911 54.872632 
L 355.266321 60.871576 
L 355.694437 77.116168 
L 356.407964 117.17275 
L 357.192843 161.54512 
L 357.549606 138.06063 
L 358.405838 69.631352 
L 359.174569 -1 
M 361.344903 -1 
L 362.686997 81.384671 
L 362.829702 88.902964 
L 363.257818 23.395562 
L 363.37318 -1 
L 363.37318 -1 
" clip-path="url(#pbe51a6eb4d)" style="fill: none; stroke: #ff7f0e; stroke-width: 1.5; stroke-linecap: square"/>
   </g>
   <g id="line2d_23">
    <path d="M 59.787716 -1 
L 60.151772 101.475813 
L 60.579888 164.630328 
L 60.865298 188.507384 
L 62.006941 139.852605 
L 63.005878 99.860827 
L 63.362641 92.002714 
L 63.576699 90.712242 
L 63.719404 91.680147 
L 63.933462 96.205681 
L 64.218873 107.948369 
L 64.789694 143.711149 
L 65.003752 153.625794 
L 65.289162 143.158114 
L 66.644863 86.698913 
L 67.215684 49.346421 
L 67.825528 -1 
M 68.940311 -1 
L 69.427616 60.945278 
L 70.141142 147.916154 
L 70.711964 190.300348 
L 71.354137 222.040412 
L 71.568195 232.809971 
L 71.639548 231.560014 
L 72.567132 203.781472 
L 73.922833 156.166813 
L 74.136891 153.942659 
L 74.208243 153.835704 
L 74.350949 154.568789 
L 74.565006 157.852839 
L 74.92177 167.73039 
L 75.849354 202.890021 
L 76.848291 238.886855 
L 76.919644 239.931711 
L 76.990997 239.138456 
L 78.632107 179.319814 
L 79.131576 168.467534 
L 79.416987 166.410603 
L 79.488339 166.443897 
L 79.631044 167.173293 
L 79.845102 169.705248 
L 80.201866 177.718901 
L 80.844039 198.978132 
L 81.985682 243.373242 
L 82.057034 240.759075 
L 83.983556 170.397697 
L 84.411672 161.973753 
L 84.62573 160.761863 
L 84.697082 160.856236 
L 84.839788 161.861647 
L 85.053846 165.291658 
L 85.410609 175.181106 
L 86.052783 200.493642 
L 86.980367 243.041318 
L 87.05172 242.702374 
L 89.049594 168.246012 
L 89.406357 160.998292 
L 89.620415 159.414044 
L 89.691768 159.420052 
L 89.834473 160.228851 
L 90.048531 163.380444 
L 90.405294 172.941022 
L 91.047468 198.126715 
L 92.046405 243.783802 
L 92.260463 231.431881 
L 94.115632 162.574587 
L 94.472395 155.61559 
L 94.686453 154.341045 
L 94.757806 154.479225 
L 94.900511 155.599446 
L 95.185922 160.950891 
L 95.614037 174.849179 
L 96.470269 212.461444 
L 97.04109 239.745553 
L 97.112443 237.995424 
L 98.896259 160.817822 
L 99.324375 150.537538 
L 99.538433 148.814008 
L 99.609786 148.832829 
L 99.752491 149.762177 
L 99.966549 153.246137 
L 100.323312 163.455282 
L 100.965486 189.730015 
L 102.035776 237.597578 
L 103.748239 162.024156 
L 104.176355 150.17134 
L 104.461766 146.886227 
L 104.533118 146.788444 
L 104.675824 147.484781 
L 104.889882 150.653292 
L 105.246645 160.555116 
L 105.888819 186.600257 
L 106.959108 237.247552 
L 107.030461 235.496096 
L 108.742925 159.852912 
L 109.17104 148.494996 
L 109.456451 145.660004 
L 109.527804 145.68002 
L 109.670509 146.609233 
L 109.884567 150.100042 
L 110.24133 160.41262 
L 110.883504 186.810663 
L 111.953794 237.534253 
L 112.025146 234.255704 
L 113.666257 161.321703 
L 114.165726 147.771464 
L 114.379784 145.393898 
L 114.451136 145.177186 
L 114.522489 145.257657 
L 114.665194 146.302091 
L 114.879252 149.943839 
L 115.236015 160.47182 
L 115.949542 190.288057 
L 116.948479 237.740925 
L 117.019832 234.630034 
L 118.660943 161.694609 
L 119.160411 148.159382 
L 119.374469 145.774122 
L 119.445822 145.553674 
L 119.517174 145.630107 
L 119.65988 146.66461 
L 119.873938 150.289233 
L 120.230701 160.787845 
L 120.944227 190.567387 
L 121.943164 237.945928 
L 122.014517 235.042835 
L 123.655628 162.207911 
L 124.155096 148.62956 
L 124.440507 145.962799 
L 124.51186 146.020392 
L 124.654565 147.01594 
L 124.868623 150.579816 
L 125.225386 160.98717 
L 125.938913 190.679495 
L 126.93785 237.96883 
L 127.009202 235.38721 
L 128.650313 162.385394 
L 129.149782 148.816205 
L 129.435192 146.125368 
L 129.506545 146.176044 
L 129.64925 147.157153 
L 129.863308 150.69865 
L 130.220071 161.072788 
L 130.933598 190.765116 
L 131.932535 238.031232 
L 132.003888 235.51123 
L 133.644999 162.672324 
L 134.144467 149.190473 
L 134.429878 146.514516 
L 134.50123 146.564904 
L 134.643936 147.54399 
L 134.857994 151.077842 
L 135.214757 161.430854 
L 135.928283 191.119332 
L 136.92722 238.373644 
L 136.998573 235.75708 
L 138.639684 163.118144 
L 139.139152 149.764633 
L 139.424563 147.156878 
L 139.495916 147.224319 
L 139.638621 148.229406 
L 139.852679 151.793613 
L 140.209442 162.169814 
L 140.922969 191.874759 
L 141.921906 238.998249 
L 141.993258 236.245217 
L 143.563016 166.825517 
L 144.062485 152.503213 
L 144.347896 149.049658 
L 144.419248 148.876209 
L 144.490601 148.988101 
L 144.633306 150.068661 
L 144.847364 153.698852 
L 145.204127 164.06684 
L 145.917654 193.388749 
L 146.916591 239.488488 
L 146.987944 237.274679 
L 148.629054 164.933049 
L 149.128523 150.3795 
L 149.413934 146.713309 
L 149.485286 146.463985 
L 149.556639 146.500873 
L 149.699344 147.424637 
L 149.913402 150.800624 
L 150.270165 160.722667 
L 150.912339 186.483924 
L 152.053982 236.092807 
L 154.265914 136.220341 
L 154.622677 128.100194 
L 154.836735 126.84285 
L 154.97944 127.530598 
L 155.193498 130.76753 
L 155.550261 140.916659 
L 156.192435 168.101307 
L 157.334077 224.234558 
L 157.40543 222.56211 
L 158.689778 153.489093 
L 159.688715 97.700203 
L 159.974125 91.41326 
L 160.116831 90.830468 
L 160.259536 91.851154 
L 160.473594 96.006839 
L 160.830357 108.038073 
L 161.472531 139.171206 
L 162.756879 208.686814 
L 163.61311 155.798054 
L 164.826105 74.721713 
L 165.111516 68.779889 
L 165.182869 68.549642 
L 165.254221 68.790289 
L 165.396927 70.572293 
L 165.682337 78.419746 
L 166.181806 101.496217 
L 167.323448 169.502326 
L 167.965622 207.577755 
L 168.036975 206.6962 
L 168.750501 159.030706 
L 169.892143 75.967486 
L 170.177554 69.247357 
L 170.248907 68.862377 
L 170.320259 68.967827 
L 170.462965 70.535652 
L 170.748375 78.173064 
L 171.176491 97.722691 
L 172.175428 155.380162 
L 173.103012 209.588913 
L 173.174365 209.265681 
L 174.030597 149.471662 
L 174.886829 81.294143 
L 175.172239 72.318853 
L 175.314945 71.186947 
L 175.386297 71.395722 
L 175.529002 73.203296 
L 175.814413 81.391312 
L 176.313882 105.102965 
L 177.740935 190.400675 
L 177.954993 202.449402 
L 179.096635 125.945524 
L 179.738809 83.246528 
L 180.024219 75.21171 
L 180.166925 74.353917 
L 180.30963 75.445887 
L 180.523688 80.238027 
L 180.880451 94.482729 
L 181.593978 134.850833 
L 182.521562 191.705597 
L 182.592915 191.362199 
L 184.733494 68.008616 
L 184.876199 66.741561 
L 184.947552 66.803452 
L 185.090257 68.247031 
L 185.304315 73.351378 
L 185.661078 87.783411 
L 186.374605 128.188699 
L 187.230837 181.683885 
L 189.157358 67.858905 
L 189.442769 60.641689 
L 189.585474 59.506516 
L 189.656827 59.585695 
L 189.799532 61.006126 
L 190.01359 66.026168 
L 190.370353 80.307362 
L 191.08388 120.524682 
L 191.940111 170.256808 
L 193.652575 65.798696 
L 194.009338 53.602324 
L 194.223396 50.754162 
L 194.294749 50.664346 
L 194.437454 51.799567 
L 194.651512 56.626148 
L 195.008275 71.378251 
L 195.721802 113.33517 
L 196.649386 171.23902 
L 198.433202 62.158031 
L 198.789966 52.007918 
L 198.932671 50.740107 
L 199.004023 50.791529 
L 199.146729 52.305775 
L 199.360787 58.013422 
L 199.71755 74.896741 
L 200.716487 139.149824 
L 201.358661 178.76473 
L 201.501366 172.038898 
L 203.356535 62.498001 
L 203.641946 57.652981 
L 203.713298 57.471265 
L 203.784651 57.779183 
L 203.927356 59.900216 
L 204.212767 69.943705 
L 204.712235 100.283392 
L 205.996583 181.505801 
L 206.139288 186.762121 
L 207.423636 104.858247 
L 208.137162 64.759946 
L 208.422573 56.167679 
L 208.565278 55.405074 
L 208.707984 57.690917 
L 208.922041 66.503609 
L 209.278805 94.203282 
L 210.349094 177.516387 
L 210.77721 194.84334 
L 211.062621 182.117031 
L 211.8475 139.324637 
L 213.060495 69.571243 
L 213.559964 48.573422 
L 213.774021 45.641776 
L 213.845374 46.207478 
L 214.059432 52.811766 
L 214.344843 70.015771 
L 215.129722 126.565718 
L 215.985954 163.812215 
L 216.342717 177.250417 
L 216.556775 171.422045 
L 218.626001 108.802477 
L 218.768707 107.445055 
L 218.840059 107.547785 
L 218.982765 109.224639 
L 219.268175 118.405645 
L 219.696291 138.645901 
L 220.980639 203.897988 
L 221.408755 214.950716 
L 222.550397 177.728678 
L 223.692039 137.399073 
L 223.97745 133.307331 
L 224.048803 133.552245 
L 224.191508 135.80177 
L 224.405566 143.596189 
L 225.903972 211.930048 
L 226.332087 222.46283 
L 226.546145 225.039901 
L 227.116967 215.303736 
L 227.75914 199.27041 
L 228.472667 162.559152 
L 229.257546 122.594227 
L 229.471604 119.793371 
L 229.614309 121.337568 
L 229.89972 130.730166 
L 231.184067 186.237054 
L 231.826241 203.215015 
L 232.111652 197.027145 
L 232.397062 187.030348 
L 232.825178 167.443988 
L 233.253294 138.213283 
L 234.537642 39.60765 
L 234.7517 36.623994 
L 234.894405 38.156344 
L 235.251168 48.128236 
L 235.607932 65.611268 
L 236.535516 116.27629 
L 237.034985 134.523642 
L 237.320395 140.773549 
L 237.391748 140.725919 
L 237.677158 134.795202 
L 238.676095 106.844348 
L 238.961506 101.970418 
L 239.104211 101.089481 
L 239.175564 101.132974 
L 239.318269 102.700092 
L 239.532327 109.159854 
L 239.960443 129.350437 
L 241.030733 182.387199 
L 241.244791 185.9166 
L 241.387496 186.363821 
L 241.672907 184.850329 
L 241.958317 182.032074 
L 242.885902 158.923345 
L 243.38537 140.090256 
L 244.170249 106.023687 
L 244.384307 102.353336 
L 244.527012 103.356661 
L 244.74107 110.070418 
L 245.097834 127.570752 
L 245.740007 164.533259 
L 246.239476 184.45215 
L 246.382181 185.870439 
L 246.596239 185.883615 
L 246.738945 186.090853 
L 246.953002 187.233433 
L 247.095708 188.421678 
L 247.16706 188.256772 
L 247.309766 188.037694 
L 247.452471 188.342769 
L 247.523824 188.270984 
L 247.595176 187.834278 
L 247.95194 176.434215 
L 248.380055 157.780914 
L 248.879524 132.036332 
L 249.093582 129.189279 
L 249.236287 131.377841 
L 249.735756 147.372565 
L 251.020103 199.131791 
L 251.947688 220.093467 
L 252.304451 223.391507 
L 252.518509 224.00721 
L 252.661214 223.777448 
L 252.80392 220.30523 
L 253.232035 202.930558 
L 254.15962 165.239092 
L 254.44503 162.172613 
L 254.587736 162.033376 
L 254.730441 163.043474 
L 255.015852 167.940341 
L 255.729378 186.404926 
L 256.300199 197.927901 
L 256.442905 195.185885 
L 256.942373 178.645341 
L 257.869958 136.166472 
L 258.440779 112.403798 
L 258.726189 107.213788 
L 258.797542 107.04437 
L 258.940247 107.870655 
L 259.082953 110.736496 
L 259.29701 120.991539 
L 260.938121 220.166421 
L 261.366237 229.766923 
L 261.651648 233.802819 
L 262.151116 224.948025 
L 262.650585 213.098025 
L 263.150053 192.687477 
L 263.86358 163.437319 
L 264.077638 159.595107 
L 264.148991 159.304023 
L 264.220343 159.541736 
L 264.363048 161.36926 
L 264.648459 169.751465 
L 265.361986 200.512577 
L 266.075512 225.541605 
L 266.646333 237.240958 
L 266.789038 238.895835 
L 266.860391 238.576733 
L 267.145802 234.529934 
L 267.64527 222.215292 
L 268.216091 202.870091 
L 269.072323 171.184103 
L 269.286381 168.602114 
L 269.357734 168.578666 
L 269.500439 169.918826 
L 269.714497 175.201169 
L 270.142613 193.244847 
L 270.927492 227.525898 
L 271.426961 238.839059 
L 271.783724 242.618005 
L 271.855076 242.469345 
L 272.21184 238.370604 
L 272.639956 228.107029 
L 272.996719 214.948008 
L 273.353482 195.71391 
L 273.924303 172.030472 
L 274.209714 167.395572 
L 274.281066 167.376853 
L 274.352419 167.671101 
L 274.495124 169.779844 
L 274.780535 177.463267 
L 276.492999 235.274656 
L 276.778409 238.503244 
L 276.849762 238.433283 
L 277.135172 235.262102 
L 277.563288 225.038988 
L 278.205462 202.24892 
L 279.133046 167.771729 
L 279.347104 166.247786 
L 279.48981 167.391065 
L 279.703868 172.269874 
L 279.846573 179.664953 
L 281.273626 235.459584 
L 281.630389 240.558409 
L 281.773094 241.768665 
L 281.844447 241.658832 
L 282.129858 238.598717 
L 282.415268 233.99869 
L 282.772031 224.270032 
L 283.128795 208.554277 
L 283.985026 171.691474 
L 284.199084 168.689892 
L 284.270437 168.592956 
L 284.34179 168.794958 
L 284.484495 170.728116 
L 284.698553 175.7608 
L 285.126669 192.394382 
L 285.840195 219.800672 
L 286.411016 235.301282 
L 286.76778 240.029873 
L 286.839132 239.965647 
L 287.124543 236.871034 
L 287.552659 226.839448 
L 288.337538 200.204349 
L 288.979712 176.323355 
L 289.265122 172.095014 
L 289.336475 172.143482 
L 289.47918 173.662106 
L 289.693238 178.550559 
L 290.050001 192.663402 
L 290.906233 229.202917 
L 291.334349 238.718416 
L 291.762465 243.563461 
L 291.833818 243.552534 
L 291.90517 243.37766 
L 292.261934 239.211378 
L 292.547344 233.833026 
L 292.904107 221.790953 
L 294.117102 172.225395 
L 294.259808 171.15117 
L 294.33116 171.358813 
L 294.473866 173.141357 
L 294.759276 180.733322 
L 296.400387 236.244884 
L 296.75715 241.630289 
L 296.828503 241.39111 
L 297.113914 237.492896 
L 297.470677 229.786683 
L 297.898793 215.591439 
L 299.254493 168.638897 
L 299.325846 168.481724 
L 299.468551 169.417813 
L 299.682609 173.924354 
L 300.039372 187.872181 
L 300.966957 227.058952 
L 301.466425 238.505502 
L 301.751836 242.657372 
L 301.965894 240.349173 
L 302.394009 233.29311 
L 302.67942 226.119572 
L 303.036183 212.293636 
L 304.03512 169.942767 
L 304.249178 167.678823 
L 304.320531 167.639808 
L 304.391884 167.909137 
L 304.605942 171.093361 
L 304.962705 182.843939 
L 306.104347 225.227055 
L 306.675168 237.275838 
L 306.889226 239.014619 
L 307.103284 236.533573 
L 307.602753 224.937933 
L 308.173574 205.553044 
L 309.243864 164.343914 
L 309.386569 162.835632 
L 309.457922 162.856163 
L 309.600627 164.323897 
L 309.814685 169.773973 
L 310.242801 188.105073 
L 311.02768 221.572284 
L 311.455796 232.499857 
L 312.026617 242.76059 
L 312.240675 239.701821 
L 312.668791 230.297024 
L 312.954201 220.978289 
L 313.596375 189.844852 
L 314.095844 170.12149 
L 314.309902 167.783236 
L 314.381254 168.051084 
L 314.595312 171.42986 
L 315.023428 185.937176 
L 316.236423 231.599814 
L 316.521834 237.170401 
L 316.664539 237.513859 
L 316.807244 236.531586 
L 317.378065 226.27169 
L 317.734829 213.301396 
L 318.876471 159.617213 
L 319.161882 153.968966 
L 319.233234 153.89872 
L 319.304587 154.283006 
L 319.589998 161.866577 
L 321.088403 213.294777 
L 321.730577 223.065713 
L 321.873282 221.315677 
L 322.586809 205.997117 
L 323.228983 183.482695 
L 324.370625 133.737572 
L 324.441978 133.574452 
L 324.51333 133.889274 
L 324.727388 138.748586 
L 325.226857 159.00902 
L 326.011736 191.459249 
L 326.297146 199.639236 
L 327.010673 201.958039 
L 327.153378 200.859399 
L 327.438789 197.420676 
L 327.938257 181.188288 
L 328.509078 150.30241 
L 329.36531 99.156061 
L 329.579368 96.656784 
L 329.722073 98.009684 
L 329.936131 103.273223 
L 330.578305 127.184618 
L 331.934005 180.319989 
L 332.647532 203.565136 
L 332.718885 203.270915 
L 332.86159 201.089726 
L 333.147 193.533506 
L 333.646469 169.021461 
L 334.288643 124.303309 
L 334.716759 97.870709 
L 334.930817 93.762344 
L 335.002169 93.82738 
L 335.144875 95.36329 
L 335.430285 103.090498 
L 336.072459 130.409857 
L 337.499512 194.466113 
L 337.570865 197.391077 
L 337.642217 197.313261 
L 337.927628 184.635731 
L 339.354681 100.624683 
L 339.711444 82.901304 
L 339.925502 78.883326 
L 339.996855 78.636864 
L 340.068207 78.895664 
L 340.210913 80.796265 
L 340.496323 88.991772 
L 340.995792 110.202111 
L 342.708255 199.915501 
L 342.779608 199.461424 
L 343.350429 167.308959 
L 344.278013 95.394214 
L 344.777482 66.722039 
L 344.99154 62.854914 
L 345.062893 62.840363 
L 345.205598 64.355299 
L 345.419656 70.615879 
L 345.847772 92.282531 
L 346.989414 167.981427 
L 347.274825 185.134361 
L 348.48782 108.716851 
L 349.272699 65.890692 
L 349.629462 56.850707 
L 349.772167 56.277176 
L 349.914873 57.469717 
L 350.128931 61.941371 
L 350.485694 75.859456 
L 351.056515 108.793089 
L 352.055452 174.808938 
L 352.126805 174.024529 
L 353.482505 97.167268 
L 354.267384 57.389104 
L 354.552795 50.58492 
L 354.766853 49.337214 
L 354.909558 50.40402 
L 355.123616 54.500342 
L 355.480379 66.783754 
L 356.122553 99.165169 
L 357.192843 159.839444 
L 358.19178 86.686346 
L 359.048011 6.370837 
L 359.12328 -1 
M 361.344233 -1 
L 362.686997 81.381029 
L 362.829702 88.846719 
L 363.257818 23.383672 
L 363.373174 -1 
L 363.373174 -1 
" clip-path="url(#pbe51a6eb4d)" style="fill: none; stroke: #2ca02c; stroke-width: 1.5; stroke-linecap: square"/>
   </g>
   <g id="patch_3">
    <path d="M 33.2875 273.312 
L 33.2875 7.2 
" style="fill: none; stroke: #000000; stroke-width: 0.8; stroke-linejoin: miter; stroke-linecap: square"/>
   </g>
   <g id="patch_4">
    <path d="M 390.4075 273.312 
L 390.4075 7.2 
" style="fill: none; stroke: #000000; stroke-width: 0.8; stroke-linejoin: miter; stroke-linecap: square"/>
   </g>
   <g id="patch_5">
    <path d="M 33.2875 273.312 
L 390.4075 273.312 
" style="fill: none; stroke: #000000; stroke-width: 0.8; stroke-linejoin: miter; stroke-linecap: square"/>
   </g>
   <g id="patch_6">
    <path d="M 33.2875 7.2 
L 390.4075 7.2 
" style="fill: none; stroke: #000000; stroke-width: 0.8; stroke-linejoin: miter; stroke-linecap: square"/>
   </g>
   <g id="legend_1">
    <g id="patch_7">
     <path d="M 40.2875 268.312 
L 294.567188 268.312 
Q 296.567188 268.312 296.567188 266.312 
L 296.567188 252.633875 
Q 296.567188 250.633875 294.567188 250.633875 
L 40.2875 250.633875 
Q 38.2875 250.633875 38.2875 252.633875 
L 38.2875 266.312 
Q 38.2875 268.312 40.2875 268.312 
z
" style="fill: #ffffff; opacity: 0.8; stroke: #cccccc; stroke-linejoin: miter"/>
    </g>
    <g id="line2d_24">
     <path d="M 42.2875 258.732312 
L 52.2875 258.732312 
L 62.2875 258.732312 
" style="fill: none; stroke: #1f77b4; stroke-width: 1.5; stroke-linecap: square"/>
    </g>
    <g id="text_12">
     <!-- Individual -->
     <g transform="translate(70.2875 262.232312)scale(0.1 -0.1)">
      <defs>
       <path id="DejaVuSans-49" d="M 628 4666 
L 1259 4666 
L 1259 0 
L 628 0 
L 628 4666 
z
" transform="scale(0.015625)"/>
       <path id="DejaVuSans-6e" d="M 3513 2113 
L 3513 0 
L 2938 0 
L 2938 2094 
Q 2938 2591 2744 2837 
Q 2550 3084 2163 3084 
Q 1697 3084 1428 2787 
Q 1159 2491 1159 1978 
L 1159 0 
L 581 0 
L 581 3500 
L 1159 3500 
L 1159 2956 
Q 1366 3272 1645 3428 
Q 1925 3584 2291 3584 
Q 2894 3584 3203 3211 
Q 3513 2838 3513 2113 
z
" transform="scale(0.015625)"/>
       <path id="DejaVuSans-64" d="M 2906 2969 
L 2906 4863 
L 3481 4863 
L 3481 0 
L 2906 0 
L 2906 525 
Q 2725 213 2448 61 
Q 2172 -91 1784 -91 
Q 1150 -91 751 415 
Q 353 922 353 1747 
Q 353 2572 751 3078 
Q 1150 3584 1784 3584 
Q 2172 3584 2448 3432 
Q 2725 3281 2906 2969 
z
M 947 1747 
Q 947 1113 1208 752 
Q 1469 391 1925 391 
Q 2381 391 2643 752 
Q 2906 1113 2906 1747 
Q 2906 2381 2643 2742 
Q 2381 3103 1925 3103 
Q 1469 3103 1208 2742 
Q 947 2381 947 1747 
z
" transform="scale(0.015625)"/>
       <path id="DejaVuSans-69" d="M 603 3500 
L 1178 3500 
L 1178 0 
L 603 0 
L 603 3500 
z
M 603 4863 
L 1178 4863 
L 1178 4134 
L 603 4134 
L 603 4863 
z
" transform="scale(0.015625)"/>
       <path id="DejaVuSans-76" d="M 191 3500 
L 800 3500 
L 1894 563 
L 2988 3500 
L 3597 3500 
L 2284 0 
L 1503 0 
L 191 3500 
z
" transform="scale(0.015625)"/>
       <path id="DejaVuSans-75" d="M 544 1381 
L 544 3500 
L 1119 3500 
L 1119 1403 
Q 1119 906 1312 657 
Q 1506 409 1894 409 
Q 2359 409 2629 706 
Q 2900 1003 2900 1516 
L 2900 3500 
L 3475 3500 
L 3475 0 
L 2900 0 
L 2900 538 
Q 2691 219 2414 64 
Q 2138 -91 1772 -91 
Q 1169 -91 856 284 
Q 544 659 544 1381 
z
M 1991 3584 
L 1991 3584 
z
" transform="scale(0.015625)"/>
       <path id="DejaVuSans-6c" d="M 603 4863 
L 1178 4863 
L 1178 0 
L 603 0 
L 603 4863 
z
" transform="scale(0.015625)"/>
      </defs>
      <use xlink:href="#DejaVuSans-49"/>
      <use xlink:href="#DejaVuSans-6e" x="29.492188"/>
      <use xlink:href="#DejaVuSans-64" x="92.871094"/>
      <use xlink:href="#DejaVuSans-69" x="156.347656"/>
      <use xlink:href="#DejaVuSans-76" x="184.130859"/>
      <use xlink:href="#DejaVuSans-69" x="243.310547"/>
      <use xlink:href="#DejaVuSans-64" x="271.09375"/>
      <use xlink:href="#DejaVuSans-75" x="334.570312"/>
      <use xlink:href="#DejaVuSans-61" x="397.949219"/>
      <use xlink:href="#DejaVuSans-6c" x="459.228516"/>
     </g>
    </g>
    <g id="line2d_25">
     <path d="M 138.990625 258.732312 
L 148.990625 258.732312 
L 158.990625 258.732312 
" style="fill: none; stroke: #ff7f0e; stroke-width: 1.5; stroke-linecap: square"/>
    </g>
    <g id="text_13">
     <!-- Neighbor -->
     <g transform="translate(166.990625 262.232312)scale(0.1 -0.1)">
      <defs>
       <path id="DejaVuSans-4e" d="M 628 4666 
L 1478 4666 
L 3547 763 
L 3547 4666 
L 4159 4666 
L 4159 0 
L 3309 0 
L 1241 3903 
L 1241 0 
L 628 0 
L 628 4666 
z
" transform="scale(0.015625)"/>
       <path id="DejaVuSans-65" d="M 3597 1894 
L 3597 1613 
L 953 1613 
Q 991 1019 1311 708 
Q 1631 397 2203 397 
Q 2534 397 2845 478 
Q 3156 559 3463 722 
L 3463 178 
Q 3153 47 2828 -22 
Q 2503 -91 2169 -91 
Q 1331 -91 842 396 
Q 353 884 353 1716 
Q 353 2575 817 3079 
Q 1281 3584 2069 3584 
Q 2775 3584 3186 3129 
Q 3597 2675 3597 1894 
z
M 3022 2063 
Q 3016 2534 2758 2815 
Q 2500 3097 2075 3097 
Q 1594 3097 1305 2825 
Q 1016 2553 972 2059 
L 3022 2063 
z
" transform="scale(0.015625)"/>
       <path id="DejaVuSans-67" d="M 2906 1791 
Q 2906 2416 2648 2759 
Q 2391 3103 1925 3103 
Q 1463 3103 1205 2759 
Q 947 2416 947 1791 
Q 947 1169 1205 825 
Q 1463 481 1925 481 
Q 2391 481 2648 825 
Q 2906 1169 2906 1791 
z
M 3481 434 
Q 3481 -459 3084 -895 
Q 2688 -1331 1869 -1331 
Q 1566 -1331 1297 -1286 
Q 1028 -1241 775 -1147 
L 775 -588 
Q 1028 -725 1275 -790 
Q 1522 -856 1778 -856 
Q 2344 -856 2625 -561 
Q 2906 -266 2906 331 
L 2906 616 
Q 2728 306 2450 153 
Q 2172 0 1784 0 
Q 1141 0 747 490 
Q 353 981 353 1791 
Q 353 2603 747 3093 
Q 1141 3584 1784 3584 
Q 2172 3584 2450 3431 
Q 2728 3278 2906 2969 
L 2906 3500 
L 3481 3500 
L 3481 434 
z
" transform="scale(0.015625)"/>
       <path id="DejaVuSans-68" d="M 3513 2113 
L 3513 0 
L 2938 0 
L 2938 2094 
Q 2938 2591 2744 2837 
Q 2550 3084 2163 3084 
Q 1697 3084 1428 2787 
Q 1159 2491 1159 1978 
L 1159 0 
L 581 0 
L 581 4863 
L 1159 4863 
L 1159 2956 
Q 1366 3272 1645 3428 
Q 1925 3584 2291 3584 
Q 2894 3584 3203 3211 
Q 3513 2838 3513 2113 
z
" transform="scale(0.015625)"/>
       <path id="DejaVuSans-62" d="M 3116 1747 
Q 3116 2381 2855 2742 
Q 2594 3103 2138 3103 
Q 1681 3103 1420 2742 
Q 1159 2381 1159 1747 
Q 1159 1113 1420 752 
Q 1681 391 2138 391 
Q 2594 391 2855 752 
Q 3116 1113 3116 1747 
z
M 1159 2969 
Q 1341 3281 1617 3432 
Q 1894 3584 2278 3584 
Q 2916 3584 3314 3078 
Q 3713 2572 3713 1747 
Q 3713 922 3314 415 
Q 2916 -91 2278 -91 
Q 1894 -91 1617 61 
Q 1341 213 1159 525 
L 1159 0 
L 581 0 
L 581 4863 
L 1159 4863 
L 1159 2969 
z
" transform="scale(0.015625)"/>
       <path id="DejaVuSans-6f" d="M 1959 3097 
Q 1497 3097 1228 2736 
Q 959 2375 959 1747 
Q 959 1119 1226 758 
Q 1494 397 1959 397 
Q 2419 397 2687 759 
Q 2956 1122 2956 1747 
Q 2956 2369 2687 2733 
Q 2419 3097 1959 3097 
z
M 1959 3584 
Q 2709 3584 3137 3096 
Q 3566 2609 3566 1747 
Q 3566 888 3137 398 
Q 2709 -91 1959 -91 
Q 1206 -91 779 398 
Q 353 888 353 1747 
Q 353 2609 779 3096 
Q 1206 3584 1959 3584 
z
" transform="scale(0.015625)"/>
       <path id="DejaVuSans-72" d="M 2631 2963 
Q 2534 3019 2420 3045 
Q 2306 3072 2169 3072 
Q 1681 3072 1420 2755 
Q 1159 2438 1159 1844 
L 1159 0 
L 581 0 
L 581 3500 
L 1159 3500 
L 1159 2956 
Q 1341 3275 1631 3429 
Q 1922 3584 2338 3584 
Q 2397 3584 2469 3576 
Q 2541 3569 2628 3553 
L 2631 2963 
z
" transform="scale(0.015625)"/>
      </defs>
      <use xlink:href="#DejaVuSans-4e"/>
      <use xlink:href="#DejaVuSans-65" x="74.804688"/>
      <use xlink:href="#DejaVuSans-69" x="136.328125"/>
      <use xlink:href="#DejaVuSans-67" x="164.111328"/>
      <use xlink:href="#DejaVuSans-68" x="227.587891"/>
      <use xlink:href="#DejaVuSans-62" x="290.966797"/>
      <use xlink:href="#DejaVuSans-6f" x="354.443359"/>
      <use xlink:href="#DejaVuSans-72" x="415.625"/>
     </g>
    </g>
    <g id="line2d_26">
     <path d="M 232.667187 258.732312 
L 242.667187 258.732312 
L 252.667187 258.732312 
" style="fill: none; stroke: #2ca02c; stroke-width: 1.5; stroke-linecap: square"/>
    </g>
    <g id="text_14">
     <!-- Global -->
     <g transform="translate(260.667187 262.232312)scale(0.1 -0.1)">
      <defs>
       <path id="DejaVuSans-47" d="M 3809 666 
L 3809 1919 
L 2778 1919 
L 2778 2438 
L 4434 2438 
L 4434 434 
Q 4069 175 3628 42 
Q 3188 -91 2688 -91 
Q 1594 -91 976 548 
Q 359 1188 359 2328 
Q 359 3472 976 4111 
Q 1594 4750 2688 4750 
Q 3144 4750 3555 4637 
Q 3966 4525 4313 4306 
L 4313 3634 
Q 3963 3931 3569 4081 
Q 3175 4231 2741 4231 
Q 1884 4231 1454 3753 
Q 1025 3275 1025 2328 
Q 1025 1384 1454 906 
Q 1884 428 2741 428 
Q 3075 428 3337 486 
Q 3600 544 3809 666 
z
" transform="scale(0.015625)"/>
      </defs>
      <use xlink:href="#DejaVuSans-47"/>
      <use xlink:href="#DejaVuSans-6c" x="77.490234"/>
      <use xlink:href="#DejaVuSans-6f" x="105.273438"/>
      <use xlink:href="#DejaVuSans-62" x="166.455078"/>
      <use xlink:href="#DejaVuSans-61" x="229.931641"/>
      <use xlink:href="#DejaVuSans-6c" x="291.210938"/>
     </g>
    </g>
   </g>
  </g>
 </g>
 <defs>
  <clipPath id="pbe51a6eb4d">
   <rect x="33.2875" y="7.2" width="357.12" height="266.112"/>
  </clipPath>
 </defs>
</svg>
