<?xml version="1.0" encoding="utf-8" standalone="no"?>
<!DOCTYPE svg PUBLIC "-//W3C//DTD SVG 1.1//EN"
  "http://www.w3.org/Graphics/SVG/1.1/DTD/svg11.dtd">
<svg xmlns:xlink="http://www.w3.org/1999/xlink" width="420.96375pt" height="325.385437pt" viewBox="0 0 420.96375 325.385437" xmlns="http://www.w3.org/2000/svg" version="1.1">
 <defs>
  <style type="text/css">*{stroke-linejoin: round; stroke-linecap: butt}</style>
 </defs>
 <g id="figure_1">
  <g id="patch_1">
   <path d="M 0 325.385437 
L 420.96375 325.385437 
L 420.96375 0 
L 0 0 
L 0 325.385437 
z
" style="fill: none"/>
  </g>
  <g id="axes_1">
   <g id="patch_2">
    <path d="M 56.64375 273.312 
L 413.76375 273.312 
L 413.76375 7.2 
L 56.64375 7.2 
L 56.64375 273.312 
z
" style="fill: none"/>
   </g>
   <g id="matplotlib.axis_1">
    <g id="xtick_1">
     <g id="line2d_1">
      <path d="M 88.57406 273.312 
L 88.57406 7.2 
" clip-path="url(#pa591a20516)" style="fill: none; stroke: #b0b0b0; stroke-width: 0.8; stroke-linecap: square"/>
     </g>
     <g id="line2d_2">
      <defs>
       <path id="md39032bed2" d="M 0 0 
L 0 3.5 
" style="stroke: #000000; stroke-width: 0.8"/>
      </defs>
      <g>
       <use xlink:href="#md39032bed2" x="88.57406" y="273.312" style="stroke: #000000; stroke-width: 0.8"/>
      </g>
     </g>
     <g id="text_1">
      <!-- −3000 -->
      <g transform="translate(63.201794 291.709656)scale(0.15 -0.15)">
       <defs>
        <path id="DejaVuSans-2212" d="M 678 2272 
L 4684 2272 
L 4684 1741 
L 678 1741 
L 678 2272 
z
" transform="scale(0.015625)"/>
        <path id="DejaVuSans-33" d="M 2597 2516 
Q 3050 2419 3304 2112 
Q 3559 1806 3559 1356 
Q 3559 666 3084 287 
Q 2609 -91 1734 -91 
Q 1441 -91 1130 -33 
Q 819 25 488 141 
L 488 750 
Q 750 597 1062 519 
Q 1375 441 1716 441 
Q 2309 441 2620 675 
Q 2931 909 2931 1356 
Q 2931 1769 2642 2001 
Q 2353 2234 1838 2234 
L 1294 2234 
L 1294 2753 
L 1863 2753 
Q 2328 2753 2575 2939 
Q 2822 3125 2822 3475 
Q 2822 3834 2567 4026 
Q 2313 4219 1838 4219 
Q 1578 4219 1281 4162 
Q 984 4106 628 3988 
L 628 4550 
Q 988 4650 1302 4700 
Q 1616 4750 1894 4750 
Q 2613 4750 3031 4423 
Q 3450 4097 3450 3541 
Q 3450 3153 3228 2886 
Q 3006 2619 2597 2516 
z
" transform="scale(0.015625)"/>
        <path id="DejaVuSans-30" d="M 2034 4250 
Q 1547 4250 1301 3770 
Q 1056 3291 1056 2328 
Q 1056 1369 1301 889 
Q 1547 409 2034 409 
Q 2525 409 2770 889 
Q 3016 1369 3016 2328 
Q 3016 3291 2770 3770 
Q 2525 4250 2034 4250 
z
M 2034 4750 
Q 2819 4750 3233 4129 
Q 3647 3509 3647 2328 
Q 3647 1150 3233 529 
Q 2819 -91 2034 -91 
Q 1250 -91 836 529 
Q 422 1150 422 2328 
Q 422 3509 836 4129 
Q 1250 4750 2034 4750 
z
" transform="scale(0.015625)"/>
       </defs>
       <use xlink:href="#DejaVuSans-2212"/>
       <use xlink:href="#DejaVuSans-33" x="83.789062"/>
       <use xlink:href="#DejaVuSans-30" x="147.412109"/>
       <use xlink:href="#DejaVuSans-30" x="211.035156"/>
       <use xlink:href="#DejaVuSans-30" x="274.658203"/>
      </g>
     </g>
    </g>
    <g id="xtick_2">
     <g id="line2d_3">
      <path d="M 159.926707 273.312 
L 159.926707 7.2 
" clip-path="url(#pa591a20516)" style="fill: none; stroke: #b0b0b0; stroke-width: 0.8; stroke-linecap: square"/>
     </g>
     <g id="line2d_4">
      <g>
       <use xlink:href="#md39032bed2" x="159.926707" y="273.312" style="stroke: #000000; stroke-width: 0.8"/>
      </g>
     </g>
     <g id="text_2">
      <!-- −2000 -->
      <g transform="translate(134.554441 291.709656)scale(0.15 -0.15)">
       <defs>
        <path id="DejaVuSans-32" d="M 1228 531 
L 3431 531 
L 3431 0 
L 469 0 
L 469 531 
Q 828 903 1448 1529 
Q 2069 2156 2228 2338 
Q 2531 2678 2651 2914 
Q 2772 3150 2772 3378 
Q 2772 3750 2511 3984 
Q 2250 4219 1831 4219 
Q 1534 4219 1204 4116 
Q 875 4013 500 3803 
L 500 4441 
Q 881 4594 1212 4672 
Q 1544 4750 1819 4750 
Q 2544 4750 2975 4387 
Q 3406 4025 3406 3419 
Q 3406 3131 3298 2873 
Q 3191 2616 2906 2266 
Q 2828 2175 2409 1742 
Q 1991 1309 1228 531 
z
" transform="scale(0.015625)"/>
       </defs>
       <use xlink:href="#DejaVuSans-2212"/>
       <use xlink:href="#DejaVuSans-32" x="83.789062"/>
       <use xlink:href="#DejaVuSans-30" x="147.412109"/>
       <use xlink:href="#DejaVuSans-30" x="211.035156"/>
       <use xlink:href="#DejaVuSans-30" x="274.658203"/>
      </g>
     </g>
    </g>
    <g id="xtick_3">
     <g id="line2d_5">
      <path d="M 231.279354 273.312 
L 231.279354 7.2 
" clip-path="url(#pa591a20516)" style="fill: none; stroke: #b0b0b0; stroke-width: 0.8; stroke-linecap: square"/>
     </g>
     <g id="line2d_6">
      <g>
       <use xlink:href="#md39032bed2" x="231.279354" y="273.312" style="stroke: #000000; stroke-width: 0.8"/>
      </g>
     </g>
     <g id="text_3">
      <!-- −1000 -->
      <g transform="translate(205.907089 291.709656)scale(0.15 -0.15)">
       <defs>
        <path id="DejaVuSans-31" d="M 794 531 
L 1825 531 
L 1825 4091 
L 703 3866 
L 703 4441 
L 1819 4666 
L 2450 4666 
L 2450 531 
L 3481 531 
L 3481 0 
L 794 0 
L 794 531 
z
" transform="scale(0.015625)"/>
       </defs>
       <use xlink:href="#DejaVuSans-2212"/>
       <use xlink:href="#DejaVuSans-31" x="83.789062"/>
       <use xlink:href="#DejaVuSans-30" x="147.412109"/>
       <use xlink:href="#DejaVuSans-30" x="211.035156"/>
       <use xlink:href="#DejaVuSans-30" x="274.658203"/>
      </g>
     </g>
    </g>
    <g id="xtick_4">
     <g id="line2d_7">
      <path d="M 302.632002 273.312 
L 302.632002 7.2 
" clip-path="url(#pa591a20516)" style="fill: none; stroke: #b0b0b0; stroke-width: 0.8; stroke-linecap: square"/>
     </g>
     <g id="line2d_8">
      <g>
       <use xlink:href="#md39032bed2" x="302.632002" y="273.312" style="stroke: #000000; stroke-width: 0.8"/>
      </g>
     </g>
     <g id="text_4">
      <!-- 0 -->
      <g transform="translate(297.860127 291.709656)scale(0.15 -0.15)">
       <use xlink:href="#DejaVuSans-30"/>
      </g>
     </g>
    </g>
    <g id="xtick_5">
     <g id="line2d_9">
      <path d="M 373.984649 273.312 
L 373.984649 7.2 
" clip-path="url(#pa591a20516)" style="fill: none; stroke: #b0b0b0; stroke-width: 0.8; stroke-linecap: square"/>
     </g>
     <g id="line2d_10">
      <g>
       <use xlink:href="#md39032bed2" x="373.984649" y="273.312" style="stroke: #000000; stroke-width: 0.8"/>
      </g>
     </g>
     <g id="text_5">
      <!-- 1000 -->
      <g transform="translate(354.897149 291.709656)scale(0.15 -0.15)">
       <use xlink:href="#DejaVuSans-31"/>
       <use xlink:href="#DejaVuSans-30" x="63.623047"/>
       <use xlink:href="#DejaVuSans-30" x="127.246094"/>
       <use xlink:href="#DejaVuSans-30" x="190.869141"/>
      </g>
     </g>
    </g>
    <g id="text_6">
     <!-- Position (μm) -->
     <g transform="translate(169.19125 314.026062)scale(0.2 -0.2)">
      <defs>
       <path id="DejaVuSans-50" d="M 1259 4147 
L 1259 2394 
L 2053 2394 
Q 2494 2394 2734 2622 
Q 2975 2850 2975 3272 
Q 2975 3691 2734 3919 
Q 2494 4147 2053 4147 
L 1259 4147 
z
M 628 4666 
L 2053 4666 
Q 2838 4666 3239 4311 
Q 3641 3956 3641 3272 
Q 3641 2581 3239 2228 
Q 2838 1875 2053 1875 
L 1259 1875 
L 1259 0 
L 628 0 
L 628 4666 
z
" transform="scale(0.015625)"/>
       <path id="DejaVuSans-6f" d="M 1959 3097 
Q 1497 3097 1228 2736 
Q 959 2375 959 1747 
Q 959 1119 1226 758 
Q 1494 397 1959 397 
Q 2419 397 2687 759 
Q 2956 1122 2956 1747 
Q 2956 2369 2687 2733 
Q 2419 3097 1959 3097 
z
M 1959 3584 
Q 2709 3584 3137 3096 
Q 3566 2609 3566 1747 
Q 3566 888 3137 398 
Q 2709 -91 1959 -91 
Q 1206 -91 779 398 
Q 353 888 353 1747 
Q 353 2609 779 3096 
Q 1206 3584 1959 3584 
z
" transform="scale(0.015625)"/>
       <path id="DejaVuSans-73" d="M 2834 3397 
L 2834 2853 
Q 2591 2978 2328 3040 
Q 2066 3103 1784 3103 
Q 1356 3103 1142 2972 
Q 928 2841 928 2578 
Q 928 2378 1081 2264 
Q 1234 2150 1697 2047 
L 1894 2003 
Q 2506 1872 2764 1633 
Q 3022 1394 3022 966 
Q 3022 478 2636 193 
Q 2250 -91 1575 -91 
Q 1294 -91 989 -36 
Q 684 19 347 128 
L 347 722 
Q 666 556 975 473 
Q 1284 391 1588 391 
Q 1994 391 2212 530 
Q 2431 669 2431 922 
Q 2431 1156 2273 1281 
Q 2116 1406 1581 1522 
L 1381 1569 
Q 847 1681 609 1914 
Q 372 2147 372 2553 
Q 372 3047 722 3315 
Q 1072 3584 1716 3584 
Q 2034 3584 2315 3537 
Q 2597 3491 2834 3397 
z
" transform="scale(0.015625)"/>
       <path id="DejaVuSans-69" d="M 603 3500 
L 1178 3500 
L 1178 0 
L 603 0 
L 603 3500 
z
M 603 4863 
L 1178 4863 
L 1178 4134 
L 603 4134 
L 603 4863 
z
" transform="scale(0.015625)"/>
       <path id="DejaVuSans-74" d="M 1172 4494 
L 1172 3500 
L 2356 3500 
L 2356 3053 
L 1172 3053 
L 1172 1153 
Q 1172 725 1289 603 
Q 1406 481 1766 481 
L 2356 481 
L 2356 0 
L 1766 0 
Q 1100 0 847 248 
Q 594 497 594 1153 
L 594 3053 
L 172 3053 
L 172 3500 
L 594 3500 
L 594 4494 
L 1172 4494 
z
" transform="scale(0.015625)"/>
       <path id="DejaVuSans-6e" d="M 3513 2113 
L 3513 0 
L 2938 0 
L 2938 2094 
Q 2938 2591 2744 2837 
Q 2550 3084 2163 3084 
Q 1697 3084 1428 2787 
Q 1159 2491 1159 1978 
L 1159 0 
L 581 0 
L 581 3500 
L 1159 3500 
L 1159 2956 
Q 1366 3272 1645 3428 
Q 1925 3584 2291 3584 
Q 2894 3584 3203 3211 
Q 3513 2838 3513 2113 
z
" transform="scale(0.015625)"/>
       <path id="DejaVuSans-20" transform="scale(0.015625)"/>
       <path id="DejaVuSans-28" d="M 1984 4856 
Q 1566 4138 1362 3434 
Q 1159 2731 1159 2009 
Q 1159 1288 1364 580 
Q 1569 -128 1984 -844 
L 1484 -844 
Q 1016 -109 783 600 
Q 550 1309 550 2009 
Q 550 2706 781 3412 
Q 1013 4119 1484 4856 
L 1984 4856 
z
" transform="scale(0.015625)"/>
       <path id="DejaVuSans-3bc" d="M 544 -1331 
L 544 3500 
L 1119 3500 
L 1119 1325 
Q 1119 872 1334 640 
Q 1550 409 1972 409 
Q 2434 409 2667 671 
Q 2900 934 2900 1459 
L 2900 3500 
L 3475 3500 
L 3475 806 
Q 3475 619 3529 530 
Q 3584 441 3700 441 
Q 3728 441 3778 458 
Q 3828 475 3916 513 
L 3916 50 
Q 3788 -22 3673 -56 
Q 3559 -91 3450 -91 
Q 3234 -91 3106 31 
Q 2978 153 2931 403 
Q 2775 156 2548 32 
Q 2322 -91 2016 -91 
Q 1697 -91 1473 31 
Q 1250 153 1119 397 
L 1119 -1331 
L 544 -1331 
z
" transform="scale(0.015625)"/>
       <path id="DejaVuSans-6d" d="M 3328 2828 
Q 3544 3216 3844 3400 
Q 4144 3584 4550 3584 
Q 5097 3584 5394 3201 
Q 5691 2819 5691 2113 
L 5691 0 
L 5113 0 
L 5113 2094 
Q 5113 2597 4934 2840 
Q 4756 3084 4391 3084 
Q 3944 3084 3684 2787 
Q 3425 2491 3425 1978 
L 3425 0 
L 2847 0 
L 2847 2094 
Q 2847 2600 2669 2842 
Q 2491 3084 2119 3084 
Q 1678 3084 1418 2786 
Q 1159 2488 1159 1978 
L 1159 0 
L 581 0 
L 581 3500 
L 1159 3500 
L 1159 2956 
Q 1356 3278 1631 3431 
Q 1906 3584 2284 3584 
Q 2666 3584 2933 3390 
Q 3200 3197 3328 2828 
z
" transform="scale(0.015625)"/>
       <path id="DejaVuSans-29" d="M 513 4856 
L 1013 4856 
Q 1481 4119 1714 3412 
Q 1947 2706 1947 2009 
Q 1947 1309 1714 600 
Q 1481 -109 1013 -844 
L 513 -844 
Q 928 -128 1133 580 
Q 1338 1288 1338 2009 
Q 1338 2731 1133 3434 
Q 928 4138 513 4856 
z
" transform="scale(0.015625)"/>
      </defs>
      <use xlink:href="#DejaVuSans-50"/>
      <use xlink:href="#DejaVuSans-6f" x="56.677734"/>
      <use xlink:href="#DejaVuSans-73" x="117.859375"/>
      <use xlink:href="#DejaVuSans-69" x="169.958984"/>
      <use xlink:href="#DejaVuSans-74" x="197.742188"/>
      <use xlink:href="#DejaVuSans-69" x="236.951172"/>
      <use xlink:href="#DejaVuSans-6f" x="264.734375"/>
      <use xlink:href="#DejaVuSans-6e" x="325.916016"/>
      <use xlink:href="#DejaVuSans-20" x="389.294922"/>
      <use xlink:href="#DejaVuSans-28" x="421.082031"/>
      <use xlink:href="#DejaVuSans-3bc" x="460.095703"/>
      <use xlink:href="#DejaVuSans-6d" x="523.71875"/>
      <use xlink:href="#DejaVuSans-29" x="621.130859"/>
     </g>
    </g>
   </g>
   <g id="matplotlib.axis_2">
    <g id="ytick_1">
     <g id="line2d_11">
      <path d="M 56.64375 273.312 
L 413.76375 273.312 
" clip-path="url(#pa591a20516)" style="fill: none; stroke: #b0b0b0; stroke-width: 0.8; stroke-linecap: square"/>
     </g>
     <g id="line2d_12">
      <defs>
       <path id="m6f3f5b6aff" d="M 0 0 
L -3.5 0 
" style="stroke: #000000; stroke-width: 0.8"/>
      </defs>
      <g>
       <use xlink:href="#m6f3f5b6aff" x="56.64375" y="273.312" style="stroke: #000000; stroke-width: 0.8"/>
      </g>
     </g>
     <g id="text_7">
      <!-- 8 -->
      <g transform="translate(40.1 279.010828)scale(0.15 -0.15)">
       <defs>
        <path id="DejaVuSans-38" d="M 2034 2216 
Q 1584 2216 1326 1975 
Q 1069 1734 1069 1313 
Q 1069 891 1326 650 
Q 1584 409 2034 409 
Q 2484 409 2743 651 
Q 3003 894 3003 1313 
Q 3003 1734 2745 1975 
Q 2488 2216 2034 2216 
z
M 1403 2484 
Q 997 2584 770 2862 
Q 544 3141 544 3541 
Q 544 4100 942 4425 
Q 1341 4750 2034 4750 
Q 2731 4750 3128 4425 
Q 3525 4100 3525 3541 
Q 3525 3141 3298 2862 
Q 3072 2584 2669 2484 
Q 3125 2378 3379 2068 
Q 3634 1759 3634 1313 
Q 3634 634 3220 271 
Q 2806 -91 2034 -91 
Q 1263 -91 848 271 
Q 434 634 434 1313 
Q 434 1759 690 2068 
Q 947 2378 1403 2484 
z
M 1172 3481 
Q 1172 3119 1398 2916 
Q 1625 2713 2034 2713 
Q 2441 2713 2670 2916 
Q 2900 3119 2900 3481 
Q 2900 3844 2670 4047 
Q 2441 4250 2034 4250 
Q 1625 4250 1398 4047 
Q 1172 3844 1172 3481 
z
" transform="scale(0.015625)"/>
       </defs>
       <use xlink:href="#DejaVuSans-38"/>
      </g>
     </g>
    </g>
    <g id="ytick_2">
     <g id="line2d_13">
      <path d="M 56.64375 214.176 
L 413.76375 214.176 
" clip-path="url(#pa591a20516)" style="fill: none; stroke: #b0b0b0; stroke-width: 0.8; stroke-linecap: square"/>
     </g>
     <g id="line2d_14">
      <g>
       <use xlink:href="#m6f3f5b6aff" x="56.64375" y="214.176" style="stroke: #000000; stroke-width: 0.8"/>
      </g>
     </g>
     <g id="text_8">
      <!-- 10 -->
      <g transform="translate(30.55625 219.874828)scale(0.15 -0.15)">
       <use xlink:href="#DejaVuSans-31"/>
       <use xlink:href="#DejaVuSans-30" x="63.623047"/>
      </g>
     </g>
    </g>
    <g id="ytick_3">
     <g id="line2d_15">
      <path d="M 56.64375 155.04 
L 413.76375 155.04 
" clip-path="url(#pa591a20516)" style="fill: none; stroke: #b0b0b0; stroke-width: 0.8; stroke-linecap: square"/>
     </g>
     <g id="line2d_16">
      <g>
       <use xlink:href="#m6f3f5b6aff" x="56.64375" y="155.04" style="stroke: #000000; stroke-width: 0.8"/>
      </g>
     </g>
     <g id="text_9">
      <!-- 12 -->
      <g transform="translate(30.55625 160.738828)scale(0.15 -0.15)">
       <use xlink:href="#DejaVuSans-31"/>
       <use xlink:href="#DejaVuSans-32" x="63.623047"/>
      </g>
     </g>
    </g>
    <g id="ytick_4">
     <g id="line2d_17">
      <path d="M 56.64375 95.904 
L 413.76375 95.904 
" clip-path="url(#pa591a20516)" style="fill: none; stroke: #b0b0b0; stroke-width: 0.8; stroke-linecap: square"/>
     </g>
     <g id="line2d_18">
      <g>
       <use xlink:href="#m6f3f5b6aff" x="56.64375" y="95.904" style="stroke: #000000; stroke-width: 0.8"/>
      </g>
     </g>
     <g id="text_10">
      <!-- 14 -->
      <g transform="translate(30.55625 101.602828)scale(0.15 -0.15)">
       <defs>
        <path id="DejaVuSans-34" d="M 2419 4116 
L 825 1625 
L 2419 1625 
L 2419 4116 
z
M 2253 4666 
L 3047 4666 
L 3047 1625 
L 3713 1625 
L 3713 1100 
L 3047 1100 
L 3047 0 
L 2419 0 
L 2419 1100 
L 313 1100 
L 313 1709 
L 2253 4666 
z
" transform="scale(0.015625)"/>
       </defs>
       <use xlink:href="#DejaVuSans-31"/>
       <use xlink:href="#DejaVuSans-34" x="63.623047"/>
      </g>
     </g>
    </g>
    <g id="ytick_5">
     <g id="line2d_19">
      <path d="M 56.64375 36.768 
L 413.76375 36.768 
" clip-path="url(#pa591a20516)" style="fill: none; stroke: #b0b0b0; stroke-width: 0.8; stroke-linecap: square"/>
     </g>
     <g id="line2d_20">
      <g>
       <use xlink:href="#m6f3f5b6aff" x="56.64375" y="36.768" style="stroke: #000000; stroke-width: 0.8"/>
      </g>
     </g>
     <g id="text_11">
      <!-- 16 -->
      <g transform="translate(30.55625 42.466828)scale(0.15 -0.15)">
       <defs>
        <path id="DejaVuSans-36" d="M 2113 2584 
Q 1688 2584 1439 2293 
Q 1191 2003 1191 1497 
Q 1191 994 1439 701 
Q 1688 409 2113 409 
Q 2538 409 2786 701 
Q 3034 994 3034 1497 
Q 3034 2003 2786 2293 
Q 2538 2584 2113 2584 
z
M 3366 4563 
L 3366 3988 
Q 3128 4100 2886 4159 
Q 2644 4219 2406 4219 
Q 1781 4219 1451 3797 
Q 1122 3375 1075 2522 
Q 1259 2794 1537 2939 
Q 1816 3084 2150 3084 
Q 2853 3084 3261 2657 
Q 3669 2231 3669 1497 
Q 3669 778 3244 343 
Q 2819 -91 2113 -91 
Q 1303 -91 875 529 
Q 447 1150 447 2328 
Q 447 3434 972 4092 
Q 1497 4750 2381 4750 
Q 2619 4750 2861 4703 
Q 3103 4656 3366 4563 
z
" transform="scale(0.015625)"/>
       </defs>
       <use xlink:href="#DejaVuSans-31"/>
       <use xlink:href="#DejaVuSans-36" x="63.623047"/>
      </g>
     </g>
    </g>
    <g id="text_12">
     <!-- Max (V) -->
     <g transform="translate(22.396875 178.752875)rotate(-90)scale(0.2 -0.2)">
      <defs>
       <path id="DejaVuSans-4d" d="M 628 4666 
L 1569 4666 
L 2759 1491 
L 3956 4666 
L 4897 4666 
L 4897 0 
L 4281 0 
L 4281 4097 
L 3078 897 
L 2444 897 
L 1241 4097 
L 1241 0 
L 628 0 
L 628 4666 
z
" transform="scale(0.015625)"/>
       <path id="DejaVuSans-61" d="M 2194 1759 
Q 1497 1759 1228 1600 
Q 959 1441 959 1056 
Q 959 750 1161 570 
Q 1363 391 1709 391 
Q 2188 391 2477 730 
Q 2766 1069 2766 1631 
L 2766 1759 
L 2194 1759 
z
M 3341 1997 
L 3341 0 
L 2766 0 
L 2766 531 
Q 2569 213 2275 61 
Q 1981 -91 1556 -91 
Q 1019 -91 701 211 
Q 384 513 384 1019 
Q 384 1609 779 1909 
Q 1175 2209 1959 2209 
L 2766 2209 
L 2766 2266 
Q 2766 2663 2505 2880 
Q 2244 3097 1772 3097 
Q 1472 3097 1187 3025 
Q 903 2953 641 2809 
L 641 3341 
Q 956 3463 1253 3523 
Q 1550 3584 1831 3584 
Q 2591 3584 2966 3190 
Q 3341 2797 3341 1997 
z
" transform="scale(0.015625)"/>
       <path id="DejaVuSans-78" d="M 3513 3500 
L 2247 1797 
L 3578 0 
L 2900 0 
L 1881 1375 
L 863 0 
L 184 0 
L 1544 1831 
L 300 3500 
L 978 3500 
L 1906 2253 
L 2834 3500 
L 3513 3500 
z
" transform="scale(0.015625)"/>
       <path id="DejaVuSans-56" d="M 1831 0 
L 50 4666 
L 709 4666 
L 2188 738 
L 3669 4666 
L 4325 4666 
L 2547 0 
L 1831 0 
z
" transform="scale(0.015625)"/>
      </defs>
      <use xlink:href="#DejaVuSans-4d"/>
      <use xlink:href="#DejaVuSans-61" x="86.279297"/>
      <use xlink:href="#DejaVuSans-78" x="147.558594"/>
      <use xlink:href="#DejaVuSans-20" x="206.738281"/>
      <use xlink:href="#DejaVuSans-28" x="238.525391"/>
      <use xlink:href="#DejaVuSans-56" x="277.539062"/>
      <use xlink:href="#DejaVuSans-29" x="345.947266"/>
     </g>
    </g>
   </g>
   <g id="line2d_21">
    <path d="M 83.143966 -1 
L 83.508022 101.475845 
L 83.936138 164.630361 
L 84.221548 188.509607 
L 85.505896 134.341803 
L 86.290775 102.414781 
L 86.718891 92.37415 
L 86.932949 91.099589 
L 87.075654 92.072807 
L 87.289712 96.590297 
L 87.575123 108.278746 
L 88.145944 143.809395 
L 88.360002 154.875842 
L 89.430291 117.514053 
L 90.143818 98.606536 
L 90.286523 95.822713 
L 91.713576 11.798762 
L 91.856281 10.806355 
L 91.998987 12.503288 
L 92.213045 20.59081 
L 92.498455 41.609387 
L 92.997924 99.15132 
L 93.71145 168.49347 
L 94.353624 207.251567 
L 94.924445 233.08163 
L 95.281209 229.00726 
L 95.423914 224.554452 
L 96.850967 170.207196 
L 97.279083 160.687389 
L 97.493141 158.714562 
L 97.564493 158.550242 
L 97.635846 158.643475 
L 97.778551 159.603456 
L 97.992609 162.879529 
L 98.349372 172.253431 
L 99.134251 200.767063 
L 100.204541 242.539819 
L 100.275894 242.286984 
L 102.05971 177.668919 
L 102.487826 168.856587 
L 102.773237 166.804349 
L 102.844589 166.852592 
L 102.987294 167.631186 
L 103.201352 170.413294 
L 103.558116 178.571819 
L 104.200289 199.72985 
L 105.341932 243.675349 
L 105.413284 241.087347 
L 107.268453 172.619046 
L 107.696569 163.302634 
L 107.910627 161.439491 
L 107.98198 161.320013 
L 108.053332 161.460388 
L 108.196038 162.516882 
L 108.481448 167.522655 
L 108.909564 180.647485 
L 109.694443 213.691062 
L 110.336617 243.718279 
L 110.40797 242.790284 
L 112.405844 168.732336 
L 112.762607 161.543206 
L 112.976665 159.976363 
L 113.048018 159.98162 
L 113.190723 160.798219 
L 113.404781 163.94996 
L 113.761544 173.489917 
L 114.403718 198.822949 
L 115.402655 243.796698 
L 115.616713 232.145381 
L 117.400529 165.235862 
L 117.828645 156.364897 
L 118.042703 155.07013 
L 118.114056 155.177694 
L 118.256761 156.205097 
L 118.470819 159.876174 
L 118.827582 170.280796 
L 119.469756 196.643199 
L 120.39734 240.249267 
L 120.468693 238.316264 
L 122.181157 163.69929 
L 122.609272 152.311619 
L 122.894683 149.436768 
L 122.966036 149.470345 
L 123.108741 150.412588 
L 123.322799 153.880981 
L 123.679562 164.090977 
L 124.321736 190.420679 
L 125.392026 238.044405 
L 127.104489 162.600662 
L 127.532605 150.895477 
L 127.818016 147.632303 
L 127.889368 147.506943 
L 127.960721 147.664326 
L 128.103426 148.940828 
L 128.388837 154.673442 
L 128.816953 169.052457 
L 129.673185 207.133668 
L 130.315358 237.78986 
L 130.386711 235.903105 
L 132.027822 162.907293 
L 132.52729 149.222238 
L 132.812701 146.399102 
L 132.884054 146.388915 
L 133.026759 147.283818 
L 133.240817 150.774641 
L 133.59758 161.044256 
L 134.239754 187.473568 
L 135.310044 237.575575 
L 135.381396 234.673029 
L 137.022507 161.904501 
L 137.521976 148.555302 
L 137.807386 145.975552 
L 137.878739 146.026142 
L 138.021444 146.972443 
L 138.235502 150.601512 
L 138.592265 161.098345 
L 139.305792 190.967335 
L 140.304729 237.862634 
L 140.946903 208.034468 
L 142.088545 159.834301 
L 142.516661 148.909121 
L 142.802072 146.319768 
L 142.873424 146.367419 
L 143.01613 147.306175 
L 143.230188 150.932989 
L 143.586951 161.408428 
L 144.300477 191.244758 
L 145.299414 238.180895 
L 145.870236 211.81688 
L 147.011878 162.760362 
L 147.511346 149.382024 
L 147.796757 146.746734 
L 147.86811 146.779121 
L 148.010815 147.685044 
L 148.224873 151.194316 
L 148.581636 161.595671 
L 149.22381 188.100949 
L 150.2941 238.407681 
L 150.365452 235.745382 
L 152.006563 162.978303 
L 152.506032 149.595317 
L 152.791442 146.948552 
L 152.862795 146.976304 
L 153.0055 147.870882 
L 153.219558 151.297786 
L 153.576321 161.681048 
L 154.218495 188.173702 
L 155.288785 238.547577 
L 155.360138 235.83292 
L 157.001249 163.290289 
L 157.500717 149.984266 
L 157.786128 147.357882 
L 157.85748 147.386006 
L 158.000186 148.278876 
L 158.214244 151.687396 
L 158.571007 162.058225 
L 159.213181 188.531114 
L 160.28347 238.857845 
L 160.354823 236.059288 
L 161.995934 163.736866 
L 162.495402 150.567106 
L 162.780813 148.015105 
L 162.852166 148.061468 
L 162.994871 148.981908 
L 163.208929 152.387225 
L 163.565692 162.795025 
L 164.207866 189.273326 
L 165.278156 239.473746 
L 165.349508 236.511765 
L 166.919266 167.53937 
L 167.418735 153.552461 
L 167.704146 150.192939 
L 167.775498 150.008888 
L 167.846851 150.097405 
L 167.989556 151.084143 
L 168.203614 154.49591 
L 168.560377 164.821351 
L 169.273904 194.027921 
L 170.272841 240.396349 
L 170.344194 237.493616 
L 171.985304 165.509017 
L 172.484773 151.206783 
L 172.770184 147.624481 
L 172.841536 147.382852 
L 172.912889 147.412945 
L 173.055594 148.280345 
L 173.269652 151.47732 
L 173.626415 161.180597 
L 174.268589 186.990956 
L 175.338879 236.526614 
L 175.410232 236.151316 
L 177.550811 139.449583 
L 177.978927 129.088016 
L 178.192985 127.719992 
L 178.264337 127.877852 
L 178.407043 129.08046 
L 178.692453 134.670863 
L 179.120569 149.438822 
L 179.976801 189.709185 
L 180.690327 225.046824 
L 180.975738 211.973147 
L 182.11738 149.632212 
L 183.044965 99.448485 
L 183.330375 93.079462 
L 183.473081 92.34438 
L 183.544433 92.568142 
L 183.687139 94.113583 
L 183.972549 100.969067 
L 184.400665 118.065633 
L 185.32825 167.190162 
L 186.113129 209.253313 
L 186.96936 156.175445 
L 188.182355 76.897588 
L 188.467766 70.722792 
L 188.539119 70.380906 
L 188.610471 70.494682 
L 188.753177 71.992617 
L 189.038587 79.657699 
L 189.538056 102.076907 
L 190.394287 152.769894 
L 191.321872 207.685702 
L 191.393225 206.878063 
L 192.106751 159.615584 
L 193.248393 78.374189 
L 193.533804 71.538673 
L 193.605157 71.100367 
L 193.676509 71.136339 
L 193.819215 72.525229 
L 194.033272 77.44846 
L 194.390036 91.875437 
L 195.103562 130.205173 
L 196.459262 209.91195 
L 196.530615 209.564038 
L 197.386847 150.243935 
L 198.243079 83.025305 
L 198.528489 73.83373 
L 198.671195 72.541117 
L 198.742547 72.655871 
L 198.885252 74.258794 
L 199.170663 82.02118 
L 199.598779 101.755852 
L 200.811774 173.53049 
L 201.311243 202.497493 
L 202.452885 126.32922 
L 203.023706 87.556573 
L 203.309117 77.792447 
L 203.523175 75.920559 
L 203.66588 77.094065 
L 203.879938 81.931473 
L 204.236701 96.075908 
L 204.950228 135.902158 
L 205.877812 192.197641 
L 205.949165 191.9452 
L 207.233512 109.127929 
L 207.875686 73.711911 
L 208.161097 67.504986 
L 208.232449 67.115963 
L 208.303802 67.184924 
L 208.446507 68.725778 
L 208.731918 76.323269 
L 209.160034 95.569009 
L 210.087618 150.588007 
L 210.587087 182.149544 
L 212.727666 62.639606 
L 212.941724 60.458422 
L 213.013077 60.581278 
L 213.155782 62.064385 
L 213.441193 69.446744 
L 213.869308 88.474583 
L 214.796893 142.963799 
L 215.296361 171.723198 
L 217.294236 56.289474 
L 217.579646 51.706733 
L 217.650999 51.616947 
L 217.793704 52.73674 
L 218.007762 57.502089 
L 218.364525 72.067479 
L 219.078052 113.481917 
L 220.005636 171.950668 
L 220.790515 122.510901 
L 221.646747 69.112862 
L 222.074863 54.067951 
L 222.288921 51.554817 
L 222.360273 51.613248 
L 222.502979 53.130205 
L 222.717037 58.809721 
L 223.0738 75.652979 
L 224.14409 144.082066 
L 224.714911 179.415168 
L 224.857616 173.888492 
L 225.713848 124.817916 
L 226.641432 66.20395 
L 226.926843 59.500902 
L 227.069548 58.706825 
L 227.212253 59.845101 
L 227.426311 65.247951 
L 227.783075 82.717859 
L 228.924717 156.528032 
L 229.138775 178.94381 
L 229.424186 191.305424 
L 230.637181 131.731897 
L 231.850176 60.179475 
L 231.992881 61.802716 
L 232.206939 68.659317 
L 232.563702 90.81105 
L 233.990755 199.030763 
L 234.062108 198.406892 
L 235.703219 138.301916 
L 236.345392 99.980138 
L 237.058919 57.403852 
L 237.201624 51.284362 
L 237.344329 59.087305 
L 237.986503 123.104844 
L 238.628677 178.739325 
L 238.70003 182.662368 
L 238.771382 182.427633 
L 238.914088 181.765755 
L 238.98544 190.088379 
L 239.056793 189.699988 
L 240.127083 182.625979 
L 241.12602 148.471664 
L 242.124957 111.026728 
L 242.196309 111.209187 
L 242.339015 112.697308 
L 242.553073 117.733848 
L 242.909836 132.458206 
L 244.550947 219.171559 
L 244.622299 218.173294 
L 245.763942 201.045335 
L 246.406116 186.117702 
L 247.3337 142.305434 
L 247.405053 142.101261 
L 247.476405 142.223038 
L 247.619111 143.457006 
L 247.761816 149.809972 
L 249.117516 224.925467 
L 249.545632 227.191716 
L 249.973748 228.550153 
L 251.044038 218.720502 
L 251.329448 205.173508 
L 252.685149 134.178421 
L 252.827854 133.885829 
L 252.899207 134.068246 
L 253.041912 136.412373 
L 253.113264 138.165904 
L 253.826791 180.533125 
L 254.397612 195.901872 
L 254.897081 205.141223 
L 255.253844 210.21342 
L 255.325197 210.122931 
L 255.467902 209.084714 
L 255.824665 196.641999 
L 256.395486 173.051864 
L 256.75225 150.400917 
L 257.822539 60.434836 
L 258.036597 55.895061 
L 258.179302 58.00924 
L 258.464713 66.33431 
L 258.892829 85.452338 
L 259.106887 110.004537 
L 259.891766 148.913582 
L 260.105824 151.087133 
L 260.177177 150.78501 
L 260.248529 151.626787 
L 260.319882 151.401027 
L 260.676645 150.64862 
L 260.81935 148.401655 
L 261.247466 147.429993 
L 261.675582 146.53713 
L 261.746935 146.2504 
L 261.88964 143.839971 
L 262.674519 116.333851 
L 262.817225 115.754528 
L 262.95993 119.055173 
L 263.102635 126.657623 
L 263.744809 173.121723 
L 264.244277 189.909771 
L 264.886451 203.636092 
L 265.171862 207.022413 
L 265.457272 205.514275 
L 265.742683 201.918267 
L 266.170799 192.218497 
L 266.74162 173.883067 
L 267.098383 154.215131 
L 267.383794 138.415354 
L 267.669205 130.226663 
L 267.740557 130.081888 
L 268.025968 136.490916 
L 268.8822 173.379482 
L 269.238963 187.944297 
L 269.881137 208.75068 
L 270.095195 211.906384 
L 270.451958 213.133299 
L 270.594663 213.882528 
L 270.666016 213.290739 
L 270.951426 204.968264 
L 271.879011 168.701094 
L 272.307127 153.091838 
L 272.521185 151.041415 
L 272.592537 151.027421 
L 272.735243 152.296189 
L 272.877948 156.141947 
L 273.234711 173.026211 
L 273.73418 197.967417 
L 274.233648 216.491553 
L 274.804469 230.050167 
L 275.303938 236.979013 
L 275.517996 236.895669 
L 275.589348 236.574845 
L 276.088817 228.84723 
L 276.302875 223.793126 
L 277.658575 169.208982 
L 277.80128 168.840554 
L 277.943986 172.486733 
L 278.58616 196.135935 
L 279.014275 202.709498 
L 279.442391 205.142717 
L 279.585097 205.587615 
L 280.869444 181.836524 
L 281.368913 158.320232 
L 281.511618 140.160985 
L 282.153792 114.566161 
L 282.296497 113.196116 
L 282.439203 117.265404 
L 282.938671 148.991617 
L 283.509492 192.171803 
L 283.794903 211.543491 
L 284.365724 231.72758 
L 284.579782 235.116101 
L 285.150603 236.332542 
L 285.221956 236.230812 
L 285.436014 235.664881 
L 285.578719 233.678201 
L 286.220893 218.359275 
L 287.505241 166.507909 
L 287.576593 166.358864 
L 287.790651 169.642082 
L 288.004709 177.371117 
L 289.074999 234.768147 
L 289.574467 240.896993 
L 289.859878 242.462834 
L 290.359346 242.621326 
L 290.502052 242.606591 
L 290.644757 241.925663 
L 290.787462 240.449 
L 291.286931 231.408951 
L 291.358283 229.650665 
L 291.643694 212.815867 
L 292.499926 174.541311 
L 292.642631 173.630585 
L 292.785336 175.70177 
L 293.213452 191.372469 
L 293.784273 222.81858 
L 294.355095 239.27511 
L 294.640505 244.688857 
L 294.783211 244.943787 
L 295.068621 244.943258 
L 295.139974 245.379637 
L 295.211326 244.964407 
L 295.282679 245.002953 
L 295.56809 245.148917 
L 295.710795 244.177993 
L 296.281616 230.033374 
L 296.567027 218.912021 
L 296.995143 194.701211 
L 297.351906 178.826359 
L 297.637316 172.241437 
L 297.708669 172.51316 
L 297.922727 175.630076 
L 298.493548 205.804043 
L 299.135722 235.991812 
L 299.563838 240.761925 
L 299.777896 242.113223 
L 300.277364 242.361428 
L 300.562775 242.224504 
L 300.70548 241.357338 
L 301.062244 237.840075 
L 301.347654 232.966038 
L 301.633065 215.731792 
L 302.560649 172.304598 
L 302.632002 171.572489 
L 302.774707 173.29715 
L 303.13147 184.424335 
L 303.630939 214.839848 
L 303.987702 228.0842 
L 304.629876 243.813542 
L 304.772581 244.308836 
L 305.55746 244.525431 
L 305.628813 244.555031 
L 305.700166 244.29121 
L 305.842871 241.89981 
L 306.485045 224.068385 
L 306.770455 210.623385 
L 307.412629 178.459691 
L 307.626687 173.616058 
L 307.69804 173.630913 
L 307.840745 174.912864 
L 307.98345 179.218079 
L 308.839682 222.770941 
L 308.982387 233.281148 
L 309.410503 240.677942 
L 309.767266 243.464354 
L 310.338088 243.981074 
L 310.623498 243.975503 
L 310.908909 241.7821 
L 311.122967 239.086469 
L 311.337025 234.945256 
L 312.193256 190.554505 
L 312.55002 176.875369 
L 312.621372 176.076625 
L 312.692725 176.504937 
L 312.83543 179.52205 
L 313.192194 192.637439 
L 313.90572 229.025811 
L 314.547894 245.410595 
L 314.761952 246.491925 
L 315.689536 246.63634 
L 315.760889 246.362101 
L 316.046299 240.180659 
L 316.545768 225.057655 
L 316.902531 205.221395 
L 317.402 180.602017 
L 317.616058 175.324755 
L 317.68741 175.254269 
L 317.830116 176.974772 
L 318.186879 192.195253 
L 319.114463 236.221957 
L 319.542579 243.272385 
L 319.756637 244.267308 
L 320.327458 244.503526 
L 320.684222 244.401472 
L 320.755574 244.244748 
L 321.112337 239.960874 
L 321.326395 235.606285 
L 321.611806 218.470702 
L 322.53939 173.866174 
L 322.682096 172.763981 
L 322.824801 175.280957 
L 323.110212 184.822174 
L 324.037796 229.476578 
L 324.67997 243.996871 
L 324.96538 244.888764 
L 325.607554 244.917824 
L 325.750259 244.332839 
L 325.892965 241.750017 
L 326.392433 227.427164 
L 326.963254 197.7545 
L 327.534076 172.017458 
L 327.676781 170.709161 
L 327.748134 171.041019 
L 327.962192 176.295221 
L 328.318955 191.154612 
L 328.818423 215.429983 
L 328.961129 230.800978 
L 329.53195 239.695214 
L 329.888713 242.377509 
L 330.530887 242.499914 
L 330.744945 242.305949 
L 330.88765 241.894608 
L 330.959003 241.554753 
L 331.173061 237.71582 
L 331.315766 234.454568 
L 331.601177 217.011046 
L 332.600114 169.202851 
L 332.742819 167.551287 
L 333.02823 174.650897 
L 333.242287 185.360184 
L 333.955814 222.219186 
L 334.455282 236.205066 
L 334.812046 242.172292 
L 335.168809 244.152809 
L 335.382867 244.441472 
L 335.810983 244.596003 
L 336.096393 239.030169 
L 336.381804 230.035257 
L 337.666152 171.375333 
L 337.737504 171.579145 
L 337.808857 172.514492 
L 338.236973 193.45884 
L 338.950499 229.8814 
L 339.307262 238.078751 
L 339.878084 240.146937 
L 340.092142 240.766209 
L 340.163494 240.450099 
L 340.234847 240.567242 
L 340.448905 240.872545 
L 340.520257 240.757103 
L 341.233784 225.770855 
L 341.305137 223.87078 
L 341.519195 213.193951 
L 341.875958 191.359437 
L 342.375426 162.131612 
L 342.589484 161.056718 
L 342.660837 161.226309 
L 342.803542 164.743426 
L 344.016537 222.690349 
L 344.444653 225.041145 
L 344.730064 225.973302 
L 345.15818 225.454766 
L 345.729001 225.104287 
L 346.014411 224.579272 
L 346.157117 224.071056 
L 346.299822 218.926454 
L 347.156054 170.098434 
L 347.726875 138.212539 
L 347.798228 139.564062 
L 348.797165 195.269418 
L 349.439338 202.739468 
L 350.438275 210.721236 
L 350.509628 211.316423 
L 350.580981 211.280444 
L 351.294507 200.604153 
L 351.508565 191.475588 
L 351.793976 183.088638 
L 352.008034 168.163656 
L 352.72156 111.209176 
L 352.792913 111.371813 
L 352.935618 112.50767 
L 353.078323 114.654878 
L 353.292381 127.429347 
L 353.863203 159.227217 
L 354.719434 181.779485 
L 355.432961 196.285063 
L 356.431898 213.289804 
L 356.788661 191.965554 
L 358.287067 99.724935 
L 358.358419 98.667503 
L 358.429772 99.141058 
L 358.857888 120.615894 
L 359.785472 163.697064 
L 360.998467 207.296756 
L 361.283878 209.690239 
L 361.497936 199.751477 
L 361.997404 166.625388 
L 363.067694 90.073843 
L 363.281752 83.726343 
L 363.49581 86.658781 
L 363.852573 96.714513 
L 364.280689 116.06186 
L 365.565037 182.853549 
L 366.135858 202.993026 
L 366.920737 153.371761 
L 368.133732 73.94919 
L 368.34779 69.6708 
L 368.419143 69.259966 
L 368.490495 69.285615 
L 368.633201 70.700516 
L 368.918611 82.86625 
L 369.346727 110.156853 
L 370.131606 162.391931 
L 370.77378 193.726805 
L 371.273249 166.102968 
L 371.415954 135.640343 
L 372.486244 77.023854 
L 372.914359 63.387209 
L 373.128417 61.461216 
L 373.19977 61.611302 
L 373.342475 63.059852 
L 373.627886 70.101103 
L 374.056002 88.544089 
L 374.698176 132.805668 
L 375.411702 176.102845 
L 375.483055 176.214698 
L 377.766339 58.083004 
L 378.05175 53.914576 
L 378.123103 53.726827 
L 378.194455 53.878078 
L 378.337161 55.161228 
L 378.622571 61.234722 
L 379.050687 77.233191 
L 380.549093 161.546123 
L 380.620445 157.84949 
L 381.619382 82.680211 
L 382.534476 -1 
M 384.699635 -1 
L 386.043247 81.552099 
L 386.185952 89.238141 
L 386.614068 23.686877 
L 386.72975 -1 
L 386.72975 -1 
" clip-path="url(#pa591a20516)" style="fill: none; stroke: #1f77b4; stroke-width: 1.5; stroke-linecap: square"/>
   </g>
   <g id="line2d_22">
    <path d="M 83.143966 -1 
L 83.508022 101.475843 
L 83.936138 164.630359 
L 84.221548 188.507396 
L 85.505896 134.196251 
L 86.290775 102.34778 
L 86.718891 92.246719 
L 86.932949 90.949983 
L 87.075654 91.915702 
L 87.289712 96.439071 
L 87.575123 108.176451 
L 88.145944 143.809393 
L 88.360002 154.875841 
L 89.430291 117.471625 
L 90.215171 96.710901 
L 90.357876 91.350252 
L 91.642224 13.200882 
L 91.856281 10.774549 
L 91.998987 12.503283 
L 92.213045 20.590805 
L 92.498455 41.609382 
L 93.069276 106.659242 
L 93.71145 168.493468 
L 94.353624 207.251565 
L 94.924445 233.081628 
L 95.281209 229.007258 
L 95.423914 224.54946 
L 96.850967 170.185405 
L 97.279083 160.663049 
L 97.493141 158.659591 
L 97.564493 158.483858 
L 97.635846 158.565647 
L 97.778551 159.50431 
L 97.992609 162.758915 
L 98.349372 172.144571 
L 99.134251 200.489955 
L 100.204541 242.339972 
L 100.275894 242.051679 
L 102.05971 177.662113 
L 102.487826 168.799372 
L 102.773237 166.713797 
L 102.844589 166.749806 
L 102.987294 167.506628 
L 103.201352 170.268282 
L 103.558116 178.437313 
L 104.200289 199.542582 
L 105.341932 243.473591 
L 105.413284 240.875288 
L 107.339806 170.621809 
L 107.767922 162.326159 
L 107.98198 161.16308 
L 108.053332 161.290631 
L 108.196038 162.326496 
L 108.481448 167.320203 
L 108.909564 180.511844 
L 109.694443 213.425798 
L 110.336617 243.060565 
L 110.40797 242.727558 
L 112.405844 168.716946 
L 112.762607 161.503161 
L 112.976665 159.899916 
L 113.048018 159.891624 
L 113.190723 160.684016 
L 113.404781 163.815726 
L 113.761544 173.394797 
L 114.403718 198.758463 
L 115.402655 243.784105 
L 115.616713 231.843891 
L 117.471882 163.076943 
L 117.828645 156.179295 
L 118.042703 154.951224 
L 118.114056 155.085579 
L 118.256761 156.178509 
L 118.542172 161.42673 
L 118.970287 175.208234 
L 119.826519 212.549662 
L 120.39734 239.734797 
L 120.468693 238.085794 
L 122.252509 161.258686 
L 122.680625 151.117128 
L 122.894683 149.424943 
L 122.966036 149.439006 
L 123.108741 150.339014 
L 123.322799 153.748972 
L 123.679562 163.923489 
L 124.393089 193.350533 
L 125.392026 237.726209 
L 127.247195 157.832217 
L 127.603958 149.531787 
L 127.818016 147.55077 
L 127.889368 147.456516 
L 128.032074 148.138755 
L 128.246132 151.2462 
L 128.602895 161.046512 
L 129.245069 186.974996 
L 130.315358 237.258355 
L 130.386711 235.58818 
L 132.170527 157.979679 
L 132.598643 147.972902 
L 132.812701 146.326553 
L 132.884054 146.349324 
L 133.026759 147.26323 
L 133.240817 150.692003 
L 133.59758 160.906744 
L 134.311107 190.417773 
L 135.310044 237.547434 
L 135.381396 234.380966 
L 137.165213 157.018407 
L 137.593328 147.332845 
L 137.807386 145.853957 
L 137.878739 145.932107 
L 138.021444 146.948918 
L 138.235502 150.507039 
L 138.592265 160.862985 
L 139.305792 190.569673 
L 140.304729 237.703851 
L 140.376082 234.771658 
L 142.159898 157.366587 
L 142.588014 147.668204 
L 142.802072 146.19415 
L 142.873424 146.271763 
L 143.01613 147.287116 
L 143.230188 150.843226 
L 143.586951 161.195626 
L 144.300477 190.924206 
L 145.299414 237.962263 
L 145.370767 235.183891 
L 147.083231 160.143335 
L 147.511346 149.140389 
L 147.796757 146.581975 
L 147.86811 146.643876 
L 148.010815 147.627238 
L 148.224873 151.133846 
L 148.581636 161.413182 
L 149.22381 187.838774 
L 150.2941 238.006142 
L 150.365452 235.524951 
L 152.077916 160.368615 
L 152.506032 149.345998 
L 152.791442 146.764681 
L 152.862795 146.817864 
L 153.0055 147.781575 
L 153.219558 151.254728 
L 153.576321 161.479144 
L 154.218495 187.898617 
L 155.288785 238.048692 
L 155.360138 235.586064 
L 157.072601 160.696207 
L 157.500717 149.744081 
L 157.786128 147.170959 
L 157.85748 147.223764 
L 158.000186 148.184294 
L 158.214244 151.646019 
L 158.571007 161.840483 
L 159.213181 188.254634 
L 160.28347 238.386248 
L 160.354823 235.836414 
L 162.067286 161.132204 
L 162.495402 150.288937 
L 162.780813 147.792081 
L 162.852166 147.864884 
L 162.994871 148.858383 
L 163.208929 152.36302 
L 163.565692 162.604027 
L 164.207866 189.118997 
L 165.278156 239.179539 
L 165.349508 236.225703 
L 166.847914 169.831699 
L 167.347382 154.580369 
L 167.632793 150.250022 
L 167.775498 149.665046 
L 167.846851 149.79379 
L 167.989556 150.890159 
L 168.274967 156.139023 
L 168.703083 169.814558 
L 169.559314 206.764742 
L 170.272841 239.651895 
L 170.558251 227.26178 
L 172.556126 149.659144 
L 172.841536 147.111706 
L 172.912889 147.148701 
L 173.055594 148.046121 
L 173.269652 151.331886 
L 173.626415 161.068137 
L 174.268589 186.639609 
L 175.410232 236.096297 
L 177.550811 139.252585 
L 177.907574 129.849623 
L 178.121632 127.596712 
L 178.192985 127.448819 
L 178.264337 127.612027 
L 178.407043 128.840311 
L 178.692453 134.543572 
L 179.120569 149.188519 
L 179.905448 185.628827 
L 180.690327 224.38208 
L 180.76168 222.548924 
L 182.11738 149.63221 
L 183.044965 99.435775 
L 183.330375 92.974033 
L 183.473081 92.24363 
L 183.615786 93.103763 
L 183.829844 96.945802 
L 184.186607 108.565905 
L 184.828781 139.16809 
L 186.113129 208.730598 
L 186.96936 156.102942 
L 188.182355 76.470497 
L 188.467766 70.273272 
L 188.539119 69.950806 
L 188.610471 70.091442 
L 188.753177 71.659963 
L 189.038587 79.136354 
L 189.466703 97.837064 
L 190.394287 152.22177 
L 191.321872 207.587495 
L 191.393225 206.732494 
L 192.106751 159.615582 
L 193.248393 78.360985 
L 193.533804 71.337832 
L 193.605157 70.863476 
L 193.676509 70.874847 
L 193.819215 72.236354 
L 194.033272 77.164261 
L 194.390036 91.652331 
L 195.103562 130.105601 
L 196.459262 209.655025 
L 196.530615 208.878881 
L 197.386847 150.243933 
L 198.243079 82.448316 
L 198.528489 73.26466 
L 198.671195 72.055114 
L 198.742547 72.224385 
L 198.885252 73.92803 
L 199.170663 81.878523 
L 199.670132 105.326273 
L 201.025832 186.217802 
L 201.311243 202.449934 
L 202.452885 126.274753 
L 203.023706 87.537596 
L 203.309117 77.647308 
L 203.523175 75.733073 
L 203.66588 76.917825 
L 203.879938 81.807687 
L 204.236701 96.05791 
L 204.950228 135.902157 
L 205.877812 192.06938 
L 205.949165 191.24384 
L 207.304865 103.599111 
L 207.875686 73.333237 
L 208.161097 67.083972 
L 208.232449 66.689607 
L 208.303802 66.755794 
L 208.446507 68.20836 
L 208.660565 73.319222 
L 209.017328 87.775865 
L 209.730855 128.239413 
L 210.587087 182.018154 
L 212.513608 68.09805 
L 212.799019 60.984496 
L 212.941724 59.891311 
L 213.013077 59.987429 
L 213.155782 61.432644 
L 213.36984 66.466714 
L 213.726603 80.75461 
L 214.44013 120.828148 
L 215.296361 171.091832 
L 217.080178 63.688801 
L 217.436941 53.037305 
L 217.650999 51.362489 
L 217.793704 52.407718 
L 218.007762 57.118257 
L 218.364525 71.619862 
L 219.078052 113.346139 
L 220.005636 171.867937 
L 221.932158 57.663135 
L 222.217568 51.744674 
L 222.288921 51.322792 
L 222.360273 51.361182 
L 222.502979 52.83898 
L 222.717037 58.485201 
L 223.0738 75.415018 
L 224.215442 148.425207 
L 224.714911 179.40389 
L 225.000321 166.115025 
L 225.642495 128.114736 
L 226.641432 65.675219 
L 226.926843 59.208256 
L 227.069548 58.432509 
L 227.212253 59.599992 
L 227.426311 65.067518 
L 227.783075 82.699419 
L 228.924717 156.44865 
L 229.138775 178.424046 
L 229.424186 190.7945 
L 230.565828 135.857952 
L 231.850176 59.266133 
L 231.992881 61.162963 
L 232.206939 68.186284 
L 232.563702 90.590636 
L 233.990755 198.653886 
L 234.062108 198.108756 
L 235.703219 137.835855 
L 237.201624 50.864792 
L 237.272977 52.327003 
L 237.701093 92.856405 
L 238.557324 173.586499 
L 238.70003 182.659255 
L 238.771382 182.39396 
L 238.914088 181.546986 
L 239.056793 189.486827 
L 240.127083 182.530621 
L 240.983314 153.773489 
L 241.41143 134.682006 
L 241.910899 112.45967 
L 242.124957 110.425689 
L 242.196309 110.697486 
L 242.410367 113.754038 
L 242.695778 122.699559 
L 243.195247 147.668914 
L 244.550947 218.427665 
L 245.692589 202.338129 
L 246.334763 188.664366 
L 247.048289 149.821291 
L 247.3337 139.388351 
L 247.405053 139.000851 
L 247.619111 143.031941 
L 247.833169 152.969602 
L 249.046164 224.207146 
L 249.331574 226.244469 
L 249.75969 227.798066 
L 249.902395 227.929512 
L 250.045101 227.793512 
L 250.758627 221.658113 
L 251.044038 218.518516 
L 251.400801 200.655585 
L 252.613796 134.099116 
L 252.827854 133.531629 
L 252.899207 133.61767 
L 253.041912 134.881443 
L 253.25597 147.492749 
L 253.755438 177.976251 
L 254.254907 192.433733 
L 255.039786 206.904006 
L 255.325197 209.177688 
L 255.396549 209.180432 
L 255.467902 208.832706 
L 255.753312 198.836073 
L 256.324134 176.511111 
L 256.680897 155.824085 
L 257.109013 110.415036 
L 257.465776 81.238064 
L 257.893892 58.230704 
L 258.036597 55.895055 
L 258.179302 57.610886 
L 258.464713 66.334303 
L 258.892829 85.28887 
L 259.106887 109.877082 
L 259.820413 147.460587 
L 260.105824 151.003947 
L 260.177177 150.517316 
L 260.248529 150.778641 
L 260.676645 149.575419 
L 260.81935 147.628898 
L 261.390172 147.196071 
L 261.60423 146.788579 
L 261.746935 145.864466 
L 261.88964 143.341383 
L 262.674519 116.010398 
L 262.745872 115.519126 
L 262.817225 115.533853 
L 262.888577 115.805574 
L 262.95993 116.622693 
L 263.102635 125.582489 
L 263.673456 169.859685 
L 264.172925 188.052552 
L 264.743746 200.296144 
L 265.100509 205.222503 
L 265.314567 205.870305 
L 265.38592 205.864948 
L 265.599978 203.519211 
L 266.099446 193.62107 
L 266.598915 179.160258 
L 267.027031 158.016331 
L 267.455147 134.358708 
L 267.669205 129.384282 
L 267.740557 129.629205 
L 267.954615 134.010401 
L 268.240026 144.343414 
L 269.809784 206.351653 
L 270.095195 211.099113 
L 270.451958 213.064112 
L 270.594663 212.778134 
L 270.737368 211.243038 
L 271.379542 189.279966 
L 271.5936 178.950564 
L 271.950363 164.648257 
L 272.307127 152.231925 
L 272.521185 150.779132 
L 272.592537 150.583707 
L 272.66389 150.676535 
L 272.806595 153.079685 
L 273.020653 159.429 
L 274.090943 211.532985 
L 274.519059 223.626047 
L 275.08988 233.916898 
L 275.37529 236.797967 
L 275.446643 236.358024 
L 275.874759 232.132508 
L 276.231522 225.742399 
L 276.802343 201.227821 
L 277.51587 170.282551 
L 277.729928 167.724912 
L 277.872633 169.388113 
L 278.728865 197.983457 
L 279.228333 203.579441 
L 279.371039 204.689212 
L 279.442391 204.590781 
L 279.585097 204.446492 
L 279.656449 204.001495 
L 280.798092 183.629238 
L 281.083502 171.833634 
L 281.368913 157.508201 
L 281.582971 136.76929 
L 282.225145 111.868265 
L 282.296497 110.676521 
L 282.439203 116.28833 
L 283.152729 162.89155 
L 284.080313 222.697064 
L 284.508429 234.486469 
L 284.79384 234.940889 
L 285.221956 234.864342 
L 285.436014 235.360938 
L 285.935482 225.722496 
L 286.292246 215.167858 
L 287.005772 181.290023 
L 287.291183 170.057439 
L 287.576593 165.617332 
L 287.719298 165.063566 
L 287.790651 165.540431 
L 288.147414 185.145391 
L 289.003646 233.237758 
L 289.431762 239.196956 
L 289.859878 241.97568 
L 290.145288 242.460036 
L 290.430699 242.613164 
L 290.71611 240.640745 
L 290.930168 238.037 
L 291.358283 228.534366 
L 291.643694 212.563578 
L 292.499926 171.649115 
L 292.571278 171.870043 
L 292.856689 177.249418 
L 293.1421 187.277343 
L 294.069684 231.790518 
L 294.569153 243.419509 
L 294.783211 244.569819 
L 295.211326 244.349125 
L 295.496737 244.68763 
L 295.639442 244.616205 
L 295.996206 237.538747 
L 296.352969 227.660407 
L 297.494611 174.150112 
L 297.780022 170.353852 
L 297.922727 174.991248 
L 298.422196 201.537321 
L 299.135722 235.701161 
L 299.635191 240.902656 
L 299.920601 242.094132 
L 300.491422 242.140675 
L 300.848186 239.606115 
L 301.204949 235.439798 
L 301.347654 230.996696 
L 301.77577 208.097416 
L 302.560649 170.227641 
L 302.774707 173.057567 
L 303.060118 181.010166 
L 303.274176 193.70213 
L 303.987702 228.061344 
L 304.629876 243.369936 
L 304.772581 243.768626 
L 304.986639 243.775289 
L 305.129344 243.679742 
L 305.55746 244.204311 
L 305.628813 244.135833 
L 305.700166 243.829675 
L 305.985576 238.397277 
L 306.485045 223.382112 
L 307.055866 192.567112 
L 307.412629 177.650356 
L 307.769392 171.130799 
L 307.912098 175.516851 
L 308.340214 197.106087 
L 309.125093 236.142948 
L 309.481856 240.921205 
L 309.838619 243.479775 
L 310.552146 243.874025 
L 310.837556 241.962596 
L 311.122967 238.893381 
L 311.265672 235.955957 
L 311.979199 201.486417 
L 312.55002 174.945109 
L 312.692725 176.053741 
L 312.83543 178.35652 
L 313.120841 188.422505 
L 314.048425 233.153577 
L 314.547894 244.873527 
L 314.690599 245.89199 
L 315.047362 245.981223 
L 315.190068 245.962897 
L 315.546831 246.313793 
L 315.618184 246.316025 
L 315.760889 245.880306 
L 316.117652 238.291936 
L 316.474415 226.979377 
L 317.045237 195.893776 
L 317.402 179.524171 
L 317.68741 173.559927 
L 317.758763 173.494711 
L 318.044174 183.849258 
L 319.185816 237.261107 
L 319.542579 242.81585 
L 319.82799 244.229565 
L 320.541516 244.275161 
L 320.755574 243.403543 
L 321.040985 240.984028 
L 321.18369 238.407586 
L 321.397748 228.90974 
L 322.53939 171.657602 
L 322.682096 172.088575 
L 322.824801 174.135476 
L 323.110212 183.994253 
L 324.037796 229.433247 
L 324.608617 242.85527 
L 324.751322 243.995968 
L 325.108086 243.969215 
L 325.250791 244.017447 
L 325.678907 244.430482 
L 325.821612 242.550963 
L 326.249728 232.160489 
L 326.820549 205.382451 
L 327.534076 171.519618 
L 327.676781 168.976725 
L 327.748134 169.053469 
L 328.033544 177.39773 
L 328.818423 215.177598 
L 328.961129 229.953306 
L 329.317892 236.500349 
L 329.746008 240.752134 
L 330.102771 242.244753 
L 330.673592 242.097094 
L 330.816297 241.963564 
L 330.88765 241.755473 
L 331.101708 239.057987 
L 331.315766 233.691619 
L 331.601177 216.952279 
L 332.671466 167.229854 
L 332.814172 166.43751 
L 332.956877 169.513892 
L 333.31364 188.902572 
L 334.027167 224.300559 
L 334.597988 238.466216 
L 334.883398 241.967557 
L 335.026104 242.228874 
L 335.240162 243.378829 
L 335.668277 244.348619 
L 335.810983 244.436926 
L 336.096393 239.030166 
L 336.310451 232.871643 
L 336.80992 208.325173 
L 337.594799 169.682321 
L 337.666152 167.720772 
L 337.737504 168.589347 
L 338.308325 197.227425 
L 338.950499 229.822715 
L 339.307262 237.956588 
L 339.592673 238.932669 
L 340.377552 240.661392 
L 340.448905 240.51012 
L 340.59161 239.19899 
L 341.091079 229.045207 
L 341.305137 222.943185 
L 341.590547 209.530584 
L 342.018663 180.599858 
L 342.304074 163.062182 
L 342.518132 160.841129 
L 342.589484 160.716611 
L 342.660837 160.92016 
L 342.73219 161.495703 
L 342.874895 167.279902 
L 343.731127 215.763458 
L 343.945185 221.646896 
L 344.3733 224.672947 
L 344.587358 225.095746 
L 345.015474 225.006374 
L 345.086827 224.764805 
L 345.15818 224.852978 
L 345.372238 224.992922 
L 345.657648 225.013714 
L 345.871706 224.82842 
L 346.157117 224.053868 
L 346.299822 218.826566 
L 347.227406 165.274576 
L 347.726875 136.987449 
L 347.798228 138.088932 
L 348.583107 189.652851 
L 348.797165 195.134061 
L 349.296633 200.622005 
L 350.509628 211.301365 
L 350.580981 211.125112 
L 351.151802 202.984312 
L 351.294507 199.584483 
L 351.437213 192.052184 
L 351.793976 182.774494 
L 352.008034 168.098962 
L 352.72156 110.89739 
L 352.792913 111.278873 
L 352.935618 112.304293 
L 353.078323 114.566066 
L 353.221029 121.989328 
L 353.863203 159.087503 
L 354.719434 181.525216 
L 355.504313 197.376656 
L 356.431898 212.767281 
L 356.788661 191.928532 
L 358.287067 99.152983 
L 358.429772 98.360534 
L 358.501125 99.127626 
L 358.715183 110.502091 
L 359.500062 151.009251 
L 360.855762 203.396733 
L 361.141173 208.53017 
L 361.283878 209.690235 
L 361.355231 201.635487 
L 361.426583 203.549084 
L 361.926052 171.847523 
L 363.139047 86.0635 
L 363.353105 83.34266 
L 363.424457 83.400494 
L 363.567163 86.149611 
L 363.995278 101.889759 
L 364.5661 131.518942 
L 365.565037 182.853546 
L 366.135858 201.888869 
L 366.920737 153.124242 
L 368.133732 73.877764 
L 368.419143 68.848114 
L 368.490495 68.929527 
L 368.633201 70.635047 
L 368.847258 76.746634 
L 369.132669 93.203988 
L 370.488369 180.795249 
L 370.77378 193.531169 
L 371.273249 165.660066 
L 371.415954 134.618718 
L 372.628949 71.229533 
L 372.985712 62.235928 
L 373.128417 61.337482 
L 373.19977 61.499739 
L 373.342475 62.998159 
L 373.627886 70.101101 
L 374.056002 88.259572 
L 374.484118 115.505064 
L 375.340349 172.073321 
L 375.483055 176.214696 
L 377.766339 57.722741 
L 378.05175 53.607904 
L 378.123103 53.408141 
L 378.194455 53.566558 
L 378.337161 54.872632 
L 378.622571 60.871576 
L 379.050687 77.116168 
L 379.764214 117.17275 
L 380.549093 161.54512 
L 380.905856 138.06063 
L 381.762088 69.631352 
L 382.530819 -1 
M 384.701153 -1 
L 386.043247 81.384671 
L 386.185952 88.902964 
L 386.614068 23.395562 
L 386.72943 -1 
L 386.72943 -1 
" clip-path="url(#pa591a20516)" style="fill: none; stroke: #ff7f0e; stroke-width: 1.5; stroke-linecap: square"/>
   </g>
   <g id="line2d_23">
    <path d="M 83.143966 -1 
L 83.508022 101.475813 
L 83.936138 164.630328 
L 84.221548 188.507384 
L 85.363191 139.852605 
L 86.362128 99.860827 
L 86.718891 92.002714 
L 86.932949 90.712242 
L 87.075654 91.680147 
L 87.289712 96.205681 
L 87.575123 107.948369 
L 88.145944 143.711149 
L 88.360002 153.625794 
L 88.645412 143.158114 
L 90.001113 86.698913 
L 90.571934 49.346421 
L 91.181778 -1 
M 92.296561 -1 
L 92.783866 60.945278 
L 93.497392 147.916154 
L 94.068214 190.300348 
L 94.710387 222.040412 
L 94.924445 232.809971 
L 94.995798 231.560014 
L 95.923382 203.781472 
L 97.279083 156.166813 
L 97.493141 153.942659 
L 97.564493 153.835704 
L 97.707199 154.568789 
L 97.921256 157.852839 
L 98.27802 167.73039 
L 99.205604 202.890021 
L 100.204541 238.886855 
L 100.275894 239.931711 
L 100.347247 239.138456 
L 101.988357 179.319814 
L 102.487826 168.467534 
L 102.773237 166.410603 
L 102.844589 166.443897 
L 102.987294 167.173293 
L 103.201352 169.705248 
L 103.558116 177.718901 
L 104.200289 198.978132 
L 105.341932 243.373242 
L 105.413284 240.759075 
L 107.339806 170.397697 
L 107.767922 161.973753 
L 107.98198 160.761863 
L 108.053332 160.856236 
L 108.196038 161.861647 
L 108.410096 165.291658 
L 108.766859 175.181106 
L 109.409033 200.493642 
L 110.336617 243.041318 
L 110.40797 242.702374 
L 112.405844 168.246012 
L 112.762607 160.998292 
L 112.976665 159.414044 
L 113.048018 159.420052 
L 113.190723 160.228851 
L 113.404781 163.380444 
L 113.761544 172.941022 
L 114.403718 198.126715 
L 115.402655 243.783802 
L 115.616713 231.431881 
L 117.471882 162.574587 
L 117.828645 155.61559 
L 118.042703 154.341045 
L 118.114056 154.479225 
L 118.256761 155.599446 
L 118.542172 160.950891 
L 118.970287 174.849179 
L 119.826519 212.461444 
L 120.39734 239.745553 
L 120.468693 237.995424 
L 122.252509 160.817822 
L 122.680625 150.537538 
L 122.894683 148.814008 
L 122.966036 148.832829 
L 123.108741 149.762177 
L 123.322799 153.246137 
L 123.679562 163.455282 
L 124.321736 189.730015 
L 125.392026 237.597578 
L 127.104489 162.024156 
L 127.532605 150.17134 
L 127.818016 146.886227 
L 127.889368 146.788444 
L 128.032074 147.484781 
L 128.246132 150.653292 
L 128.602895 160.555116 
L 129.245069 186.600257 
L 130.315358 237.247552 
L 130.386711 235.496096 
L 132.099175 159.852912 
L 132.52729 148.494996 
L 132.812701 145.660004 
L 132.884054 145.68002 
L 133.026759 146.609233 
L 133.240817 150.100042 
L 133.59758 160.41262 
L 134.239754 186.810663 
L 135.310044 237.534253 
L 135.381396 234.255704 
L 137.022507 161.321703 
L 137.521976 147.771464 
L 137.736034 145.393898 
L 137.807386 145.177186 
L 137.878739 145.257657 
L 138.021444 146.302091 
L 138.235502 149.943839 
L 138.592265 160.47182 
L 139.305792 190.288057 
L 140.304729 237.740925 
L 140.376082 234.630034 
L 142.017193 161.694609 
L 142.516661 148.159382 
L 142.730719 145.774122 
L 142.802072 145.553674 
L 142.873424 145.630107 
L 143.01613 146.66461 
L 143.230188 150.289233 
L 143.586951 160.787845 
L 144.300477 190.567387 
L 145.299414 237.945928 
L 145.370767 235.042835 
L 147.011878 162.207911 
L 147.511346 148.62956 
L 147.796757 145.962799 
L 147.86811 146.020392 
L 148.010815 147.01594 
L 148.224873 150.579816 
L 148.581636 160.98717 
L 149.295163 190.679495 
L 150.2941 237.96883 
L 150.365452 235.38721 
L 152.006563 162.385394 
L 152.506032 148.816205 
L 152.791442 146.125368 
L 152.862795 146.176044 
L 153.0055 147.157153 
L 153.219558 150.69865 
L 153.576321 161.072788 
L 154.289848 190.765116 
L 155.288785 238.031232 
L 155.360138 235.51123 
L 157.001249 162.672324 
L 157.500717 149.190473 
L 157.786128 146.514516 
L 157.85748 146.564904 
L 158.000186 147.54399 
L 158.214244 151.077842 
L 158.571007 161.430854 
L 159.284533 191.119332 
L 160.28347 238.373644 
L 160.354823 235.75708 
L 161.995934 163.118144 
L 162.495402 149.764633 
L 162.780813 147.156878 
L 162.852166 147.224319 
L 162.994871 148.229406 
L 163.208929 151.793613 
L 163.565692 162.169814 
L 164.279219 191.874759 
L 165.278156 238.998249 
L 165.349508 236.245217 
L 166.919266 166.825517 
L 167.418735 152.503213 
L 167.704146 149.049658 
L 167.775498 148.876209 
L 167.846851 148.988101 
L 167.989556 150.068661 
L 168.203614 153.698852 
L 168.560377 164.06684 
L 169.273904 193.388749 
L 170.272841 239.488488 
L 170.344194 237.274679 
L 171.985304 164.933049 
L 172.484773 150.3795 
L 172.770184 146.713309 
L 172.841536 146.463985 
L 172.912889 146.500873 
L 173.055594 147.424637 
L 173.269652 150.800624 
L 173.626415 160.722667 
L 174.268589 186.483924 
L 175.410232 236.092807 
L 177.622164 136.220341 
L 177.978927 128.100194 
L 178.192985 126.84285 
L 178.33569 127.530598 
L 178.549748 130.76753 
L 178.906511 140.916659 
L 179.548685 168.101307 
L 180.690327 224.234558 
L 180.76168 222.56211 
L 182.046028 153.489093 
L 183.044965 97.700203 
L 183.330375 91.41326 
L 183.473081 90.830468 
L 183.615786 91.851154 
L 183.829844 96.006839 
L 184.186607 108.038073 
L 184.828781 139.171206 
L 186.113129 208.686814 
L 186.96936 155.798054 
L 188.182355 74.721713 
L 188.467766 68.779889 
L 188.539119 68.549642 
L 188.610471 68.790289 
L 188.753177 70.572293 
L 189.038587 78.419746 
L 189.538056 101.496217 
L 190.679698 169.502326 
L 191.321872 207.577755 
L 191.393225 206.6962 
L 192.106751 159.030706 
L 193.248393 75.967486 
L 193.533804 69.247357 
L 193.605157 68.862377 
L 193.676509 68.967827 
L 193.819215 70.535652 
L 194.104625 78.173064 
L 194.532741 97.722691 
L 195.531678 155.380162 
L 196.459262 209.588913 
L 196.530615 209.265681 
L 197.386847 149.471662 
L 198.243079 81.294143 
L 198.528489 72.318853 
L 198.671195 71.186947 
L 198.742547 71.395722 
L 198.885252 73.203296 
L 199.170663 81.391312 
L 199.670132 105.102965 
L 201.097185 190.400675 
L 201.311243 202.449402 
L 202.452885 125.945524 
L 203.095059 83.246528 
L 203.380469 75.21171 
L 203.523175 74.353917 
L 203.66588 75.445887 
L 203.879938 80.238027 
L 204.236701 94.482729 
L 204.950228 134.850833 
L 205.877812 191.705597 
L 205.949165 191.362199 
L 208.089744 68.008616 
L 208.232449 66.741561 
L 208.303802 66.803452 
L 208.446507 68.247031 
L 208.660565 73.351378 
L 209.017328 87.783411 
L 209.730855 128.188699 
L 210.587087 181.683885 
L 212.513608 67.858905 
L 212.799019 60.641689 
L 212.941724 59.506516 
L 213.013077 59.585695 
L 213.155782 61.006126 
L 213.36984 66.026168 
L 213.726603 80.307362 
L 214.44013 120.524682 
L 215.296361 170.256808 
L 217.008825 65.798696 
L 217.365588 53.602324 
L 217.579646 50.754162 
L 217.650999 50.664346 
L 217.793704 51.799567 
L 218.007762 56.626148 
L 218.364525 71.378251 
L 219.078052 113.33517 
L 220.005636 171.23902 
L 221.789452 62.158031 
L 222.146216 52.007918 
L 222.288921 50.740107 
L 222.360273 50.791529 
L 222.502979 52.305775 
L 222.717037 58.013422 
L 223.0738 74.896741 
L 224.072737 139.149824 
L 224.714911 178.76473 
L 224.857616 172.038898 
L 226.712785 62.498001 
L 226.998196 57.652981 
L 227.069548 57.471265 
L 227.140901 57.779183 
L 227.283606 59.900216 
L 227.569017 69.943705 
L 228.068485 100.283392 
L 229.352833 181.505801 
L 229.495538 186.762121 
L 230.779886 104.858247 
L 231.493412 64.759946 
L 231.778823 56.167679 
L 231.921528 55.405074 
L 232.064234 57.690917 
L 232.278291 66.503609 
L 232.635055 94.203282 
L 233.705344 177.516387 
L 234.13346 194.84334 
L 234.418871 182.117031 
L 235.20375 139.324637 
L 236.416745 69.571243 
L 236.916214 48.573422 
L 237.130271 45.641776 
L 237.201624 46.207478 
L 237.415682 52.811766 
L 237.701093 70.015771 
L 238.485972 126.565718 
L 239.342204 163.812215 
L 239.698967 177.250417 
L 239.913025 171.422045 
L 241.982251 108.802477 
L 242.124957 107.445055 
L 242.196309 107.547785 
L 242.339015 109.224639 
L 242.624425 118.405645 
L 243.052541 138.645901 
L 244.336889 203.897988 
L 244.765005 214.950716 
L 245.906647 177.728678 
L 247.048289 137.399073 
L 247.3337 133.307331 
L 247.405053 133.552245 
L 247.547758 135.80177 
L 247.761816 143.596189 
L 249.260222 211.930048 
L 249.688337 222.46283 
L 249.902395 225.039901 
L 250.473217 215.303736 
L 251.11539 199.27041 
L 251.828917 162.559152 
L 252.613796 122.594227 
L 252.827854 119.793371 
L 252.970559 121.337568 
L 253.25597 130.730166 
L 254.540317 186.237054 
L 255.182491 203.215015 
L 255.467902 197.027145 
L 255.753312 187.030348 
L 256.181428 167.443988 
L 256.609544 138.213283 
L 257.893892 39.60765 
L 258.10795 36.623994 
L 258.250655 38.156344 
L 258.607418 48.128236 
L 258.964182 65.611268 
L 259.891766 116.27629 
L 260.391235 134.523642 
L 260.676645 140.773549 
L 260.747998 140.725919 
L 261.033408 134.795202 
L 262.032345 106.844348 
L 262.317756 101.970418 
L 262.460461 101.089481 
L 262.531814 101.132974 
L 262.674519 102.700092 
L 262.888577 109.159854 
L 263.316693 129.350437 
L 264.386983 182.387199 
L 264.601041 185.9166 
L 264.743746 186.363821 
L 265.029157 184.850329 
L 265.314567 182.032074 
L 266.242152 158.923345 
L 266.74162 140.090256 
L 267.526499 106.023687 
L 267.740557 102.353336 
L 267.883262 103.356661 
L 268.09732 110.070418 
L 268.454084 127.570752 
L 269.096257 164.533259 
L 269.595726 184.45215 
L 269.738431 185.870439 
L 269.952489 185.883615 
L 270.095195 186.090853 
L 270.309252 187.233433 
L 270.451958 188.421678 
L 270.52331 188.256772 
L 270.666016 188.037694 
L 270.808721 188.342769 
L 270.880074 188.270984 
L 270.951426 187.834278 
L 271.30819 176.434215 
L 271.736305 157.780914 
L 272.235774 132.036332 
L 272.449832 129.189279 
L 272.592537 131.377841 
L 273.092006 147.372565 
L 274.376353 199.131791 
L 275.303938 220.093467 
L 275.660701 223.391507 
L 275.874759 224.00721 
L 276.017464 223.777448 
L 276.16017 220.30523 
L 276.588285 202.930558 
L 277.51587 165.239092 
L 277.80128 162.172613 
L 277.943986 162.033376 
L 278.086691 163.043474 
L 278.372102 167.940341 
L 279.085628 186.404926 
L 279.656449 197.927901 
L 279.799155 195.185885 
L 280.298623 178.645341 
L 281.226208 136.166472 
L 281.797029 112.403798 
L 282.082439 107.213788 
L 282.153792 107.04437 
L 282.296497 107.870655 
L 282.439203 110.736496 
L 282.65326 120.991539 
L 284.294371 220.166421 
L 284.722487 229.766923 
L 285.007898 233.802819 
L 285.507366 224.948025 
L 286.006835 213.098025 
L 286.506303 192.687477 
L 287.21983 163.437319 
L 287.433888 159.595107 
L 287.505241 159.304023 
L 287.576593 159.541736 
L 287.719298 161.36926 
L 288.004709 169.751465 
L 288.718236 200.512577 
L 289.431762 225.541605 
L 290.002583 237.240958 
L 290.145288 238.895835 
L 290.216641 238.576733 
L 290.502052 234.529934 
L 291.00152 222.215292 
L 291.572341 202.870091 
L 292.428573 171.184103 
L 292.642631 168.602114 
L 292.713984 168.578666 
L 292.856689 169.918826 
L 293.070747 175.201169 
L 293.498863 193.244847 
L 294.283742 227.525898 
L 294.783211 238.839059 
L 295.139974 242.618005 
L 295.211326 242.469345 
L 295.56809 238.370604 
L 295.996206 228.107029 
L 296.352969 214.948008 
L 296.709732 195.71391 
L 297.280553 172.030472 
L 297.565964 167.395572 
L 297.637316 167.376853 
L 297.708669 167.671101 
L 297.851374 169.779844 
L 298.136785 177.463267 
L 299.849249 235.274656 
L 300.134659 238.503244 
L 300.206012 238.433283 
L 300.491422 235.262102 
L 300.919538 225.038988 
L 301.561712 202.24892 
L 302.489296 167.771729 
L 302.703354 166.247786 
L 302.84606 167.391065 
L 303.060118 172.269874 
L 303.202823 179.664953 
L 304.629876 235.459584 
L 304.986639 240.558409 
L 305.129344 241.768665 
L 305.200697 241.658832 
L 305.486108 238.598717 
L 305.771518 233.99869 
L 306.128281 224.270032 
L 306.485045 208.554277 
L 307.341276 171.691474 
L 307.555334 168.689892 
L 307.626687 168.592956 
L 307.69804 168.794958 
L 307.840745 170.728116 
L 308.054803 175.7608 
L 308.482919 192.394382 
L 309.196445 219.800672 
L 309.767266 235.301282 
L 310.12403 240.029873 
L 310.195382 239.965647 
L 310.480793 236.871034 
L 310.908909 226.839448 
L 311.693788 200.204349 
L 312.335962 176.323355 
L 312.621372 172.095014 
L 312.692725 172.143482 
L 312.83543 173.662106 
L 313.049488 178.550559 
L 313.406251 192.663402 
L 314.262483 229.202917 
L 314.690599 238.718416 
L 315.118715 243.563461 
L 315.190068 243.552534 
L 315.26142 243.37766 
L 315.618184 239.211378 
L 315.903594 233.833026 
L 316.260357 221.790953 
L 317.473352 172.225395 
L 317.616058 171.15117 
L 317.68741 171.358813 
L 317.830116 173.141357 
L 318.115526 180.733322 
L 319.756637 236.244884 
L 320.1134 241.630289 
L 320.184753 241.39111 
L 320.470164 237.492896 
L 320.826927 229.786683 
L 321.255043 215.591439 
L 322.610743 168.638897 
L 322.682096 168.481724 
L 322.824801 169.417813 
L 323.038859 173.924354 
L 323.395622 187.872181 
L 324.323207 227.058952 
L 324.822675 238.505502 
L 325.108086 242.657372 
L 325.322144 240.349173 
L 325.750259 233.29311 
L 326.03567 226.119572 
L 326.392433 212.293636 
L 327.39137 169.942767 
L 327.605428 167.678823 
L 327.676781 167.639808 
L 327.748134 167.909137 
L 327.962192 171.093361 
L 328.318955 182.843939 
L 329.460597 225.227055 
L 330.031418 237.275838 
L 330.245476 239.014619 
L 330.459534 236.533573 
L 330.959003 224.937933 
L 331.529824 205.553044 
L 332.600114 164.343914 
L 332.742819 162.835632 
L 332.814172 162.856163 
L 332.956877 164.323897 
L 333.170935 169.773973 
L 333.599051 188.105073 
L 334.38393 221.572284 
L 334.812046 232.499857 
L 335.382867 242.76059 
L 335.596925 239.701821 
L 336.025041 230.297024 
L 336.310451 220.978289 
L 336.952625 189.844852 
L 337.452094 170.12149 
L 337.666152 167.783236 
L 337.737504 168.051084 
L 337.951562 171.42986 
L 338.379678 185.937176 
L 339.592673 231.599814 
L 339.878084 237.170401 
L 340.020789 237.513859 
L 340.163494 236.531586 
L 340.734315 226.27169 
L 341.091079 213.301396 
L 342.232721 159.617213 
L 342.518132 153.968966 
L 342.589484 153.89872 
L 342.660837 154.283006 
L 342.946248 161.866577 
L 344.444653 213.294777 
L 345.086827 223.065713 
L 345.229532 221.315677 
L 345.943059 205.997117 
L 346.585233 183.482695 
L 347.726875 133.737572 
L 347.798228 133.574452 
L 347.86958 133.889274 
L 348.083638 138.748586 
L 348.583107 159.00902 
L 349.367986 191.459249 
L 349.653396 199.639236 
L 350.366923 201.958039 
L 350.509628 200.859399 
L 350.795039 197.420676 
L 351.294507 181.188288 
L 351.865328 150.30241 
L 352.72156 99.156061 
L 352.935618 96.656784 
L 353.078323 98.009684 
L 353.292381 103.273223 
L 353.934555 127.184618 
L 355.290255 180.319989 
L 356.003782 203.565136 
L 356.075135 203.270915 
L 356.21784 201.089726 
L 356.50325 193.533506 
L 357.002719 169.021461 
L 357.644893 124.303309 
L 358.073009 97.870709 
L 358.287067 93.762344 
L 358.358419 93.82738 
L 358.501125 95.36329 
L 358.786535 103.090498 
L 359.428709 130.409857 
L 360.855762 194.466113 
L 360.927115 197.391077 
L 360.998467 197.313261 
L 361.283878 184.635731 
L 362.710931 100.624683 
L 363.067694 82.901304 
L 363.281752 78.883326 
L 363.353105 78.636864 
L 363.424457 78.895664 
L 363.567163 80.796265 
L 363.852573 88.991772 
L 364.352042 110.202111 
L 366.064505 199.915501 
L 366.135858 199.461424 
L 366.706679 167.308959 
L 367.634263 95.394214 
L 368.133732 66.722039 
L 368.34779 62.854914 
L 368.419143 62.840363 
L 368.561848 64.355299 
L 368.775906 70.615879 
L 369.204022 92.282531 
L 370.345664 167.981427 
L 370.631075 185.134361 
L 371.84407 108.716851 
L 372.628949 65.890692 
L 372.985712 56.850707 
L 373.128417 56.277176 
L 373.271123 57.469717 
L 373.485181 61.941371 
L 373.841944 75.859456 
L 374.412765 108.793089 
L 375.411702 174.808938 
L 375.483055 174.024529 
L 376.838755 97.167268 
L 377.623634 57.389104 
L 377.909045 50.58492 
L 378.123103 49.337214 
L 378.265808 50.40402 
L 378.479866 54.500342 
L 378.836629 66.783754 
L 379.478803 99.165169 
L 380.549093 159.839444 
L 381.54803 86.686346 
L 382.404261 6.370837 
L 382.47953 -1 
M 384.700483 -1 
L 386.043247 81.381029 
L 386.185952 88.846719 
L 386.614068 23.383672 
L 386.729424 -1 
L 386.729424 -1 
" clip-path="url(#pa591a20516)" style="fill: none; stroke: #2ca02c; stroke-width: 1.5; stroke-linecap: square"/>
   </g>
   <g id="patch_3">
    <path d="M 56.64375 273.312 
L 56.64375 7.2 
" style="fill: none; stroke: #000000; stroke-width: 0.8; stroke-linejoin: miter; stroke-linecap: square"/>
   </g>
   <g id="patch_4">
    <path d="M 413.76375 273.312 
L 413.76375 7.2 
" style="fill: none; stroke: #000000; stroke-width: 0.8; stroke-linejoin: miter; stroke-linecap: square"/>
   </g>
   <g id="patch_5">
    <path d="M 56.64375 273.312 
L 413.76375 273.312 
" style="fill: none; stroke: #000000; stroke-width: 0.8; stroke-linejoin: miter; stroke-linecap: square"/>
   </g>
   <g id="patch_6">
    <path d="M 56.64375 7.2 
L 413.76375 7.2 
" style="fill: none; stroke: #000000; stroke-width: 0.8; stroke-linejoin: miter; stroke-linecap: square"/>
   </g>
   <g id="legend_1">
    <g id="patch_7">
     <path d="M 63.64375 268.312 
L 317.923438 268.312 
Q 319.923438 268.312 319.923438 266.312 
L 319.923438 252.633875 
Q 319.923438 250.633875 317.923438 250.633875 
L 63.64375 250.633875 
Q 61.64375 250.633875 61.64375 252.633875 
L 61.64375 266.312 
Q 61.64375 268.312 63.64375 268.312 
z
" style="fill: #ffffff; opacity: 0.8; stroke: #cccccc; stroke-linejoin: miter"/>
    </g>
    <g id="line2d_24">
     <path d="M 65.64375 258.732312 
L 75.64375 258.732312 
L 85.64375 258.732312 
" style="fill: none; stroke: #1f77b4; stroke-width: 1.5; stroke-linecap: square"/>
    </g>
    <g id="text_13">
     <!-- Individual -->
     <g transform="translate(93.64375 262.232312)scale(0.1 -0.1)">
      <defs>
       <path id="DejaVuSans-49" d="M 628 4666 
L 1259 4666 
L 1259 0 
L 628 0 
L 628 4666 
z
" transform="scale(0.015625)"/>
       <path id="DejaVuSans-64" d="M 2906 2969 
L 2906 4863 
L 3481 4863 
L 3481 0 
L 2906 0 
L 2906 525 
Q 2725 213 2448 61 
Q 2172 -91 1784 -91 
Q 1150 -91 751 415 
Q 353 922 353 1747 
Q 353 2572 751 3078 
Q 1150 3584 1784 3584 
Q 2172 3584 2448 3432 
Q 2725 3281 2906 2969 
z
M 947 1747 
Q 947 1113 1208 752 
Q 1469 391 1925 391 
Q 2381 391 2643 752 
Q 2906 1113 2906 1747 
Q 2906 2381 2643 2742 
Q 2381 3103 1925 3103 
Q 1469 3103 1208 2742 
Q 947 2381 947 1747 
z
" transform="scale(0.015625)"/>
       <path id="DejaVuSans-76" d="M 191 3500 
L 800 3500 
L 1894 563 
L 2988 3500 
L 3597 3500 
L 2284 0 
L 1503 0 
L 191 3500 
z
" transform="scale(0.015625)"/>
       <path id="DejaVuSans-75" d="M 544 1381 
L 544 3500 
L 1119 3500 
L 1119 1403 
Q 1119 906 1312 657 
Q 1506 409 1894 409 
Q 2359 409 2629 706 
Q 2900 1003 2900 1516 
L 2900 3500 
L 3475 3500 
L 3475 0 
L 2900 0 
L 2900 538 
Q 2691 219 2414 64 
Q 2138 -91 1772 -91 
Q 1169 -91 856 284 
Q 544 659 544 1381 
z
M 1991 3584 
L 1991 3584 
z
" transform="scale(0.015625)"/>
       <path id="DejaVuSans-6c" d="M 603 4863 
L 1178 4863 
L 1178 0 
L 603 0 
L 603 4863 
z
" transform="scale(0.015625)"/>
      </defs>
      <use xlink:href="#DejaVuSans-49"/>
      <use xlink:href="#DejaVuSans-6e" x="29.492188"/>
      <use xlink:href="#DejaVuSans-64" x="92.871094"/>
      <use xlink:href="#DejaVuSans-69" x="156.347656"/>
      <use xlink:href="#DejaVuSans-76" x="184.130859"/>
      <use xlink:href="#DejaVuSans-69" x="243.310547"/>
      <use xlink:href="#DejaVuSans-64" x="271.09375"/>
      <use xlink:href="#DejaVuSans-75" x="334.570312"/>
      <use xlink:href="#DejaVuSans-61" x="397.949219"/>
      <use xlink:href="#DejaVuSans-6c" x="459.228516"/>
     </g>
    </g>
    <g id="line2d_25">
     <path d="M 162.346875 258.732312 
L 172.346875 258.732312 
L 182.346875 258.732312 
" style="fill: none; stroke: #ff7f0e; stroke-width: 1.5; stroke-linecap: square"/>
    </g>
    <g id="text_14">
     <!-- Neighbor -->
     <g transform="translate(190.346875 262.232312)scale(0.1 -0.1)">
      <defs>
       <path id="DejaVuSans-4e" d="M 628 4666 
L 1478 4666 
L 3547 763 
L 3547 4666 
L 4159 4666 
L 4159 0 
L 3309 0 
L 1241 3903 
L 1241 0 
L 628 0 
L 628 4666 
z
" transform="scale(0.015625)"/>
       <path id="DejaVuSans-65" d="M 3597 1894 
L 3597 1613 
L 953 1613 
Q 991 1019 1311 708 
Q 1631 397 2203 397 
Q 2534 397 2845 478 
Q 3156 559 3463 722 
L 3463 178 
Q 3153 47 2828 -22 
Q 2503 -91 2169 -91 
Q 1331 -91 842 396 
Q 353 884 353 1716 
Q 353 2575 817 3079 
Q 1281 3584 2069 3584 
Q 2775 3584 3186 3129 
Q 3597 2675 3597 1894 
z
M 3022 2063 
Q 3016 2534 2758 2815 
Q 2500 3097 2075 3097 
Q 1594 3097 1305 2825 
Q 1016 2553 972 2059 
L 3022 2063 
z
" transform="scale(0.015625)"/>
       <path id="DejaVuSans-67" d="M 2906 1791 
Q 2906 2416 2648 2759 
Q 2391 3103 1925 3103 
Q 1463 3103 1205 2759 
Q 947 2416 947 1791 
Q 947 1169 1205 825 
Q 1463 481 1925 481 
Q 2391 481 2648 825 
Q 2906 1169 2906 1791 
z
M 3481 434 
Q 3481 -459 3084 -895 
Q 2688 -1331 1869 -1331 
Q 1566 -1331 1297 -1286 
Q 1028 -1241 775 -1147 
L 775 -588 
Q 1028 -725 1275 -790 
Q 1522 -856 1778 -856 
Q 2344 -856 2625 -561 
Q 2906 -266 2906 331 
L 2906 616 
Q 2728 306 2450 153 
Q 2172 0 1784 0 
Q 1141 0 747 490 
Q 353 981 353 1791 
Q 353 2603 747 3093 
Q 1141 3584 1784 3584 
Q 2172 3584 2450 3431 
Q 2728 3278 2906 2969 
L 2906 3500 
L 3481 3500 
L 3481 434 
z
" transform="scale(0.015625)"/>
       <path id="DejaVuSans-68" d="M 3513 2113 
L 3513 0 
L 2938 0 
L 2938 2094 
Q 2938 2591 2744 2837 
Q 2550 3084 2163 3084 
Q 1697 3084 1428 2787 
Q 1159 2491 1159 1978 
L 1159 0 
L 581 0 
L 581 4863 
L 1159 4863 
L 1159 2956 
Q 1366 3272 1645 3428 
Q 1925 3584 2291 3584 
Q 2894 3584 3203 3211 
Q 3513 2838 3513 2113 
z
" transform="scale(0.015625)"/>
       <path id="DejaVuSans-62" d="M 3116 1747 
Q 3116 2381 2855 2742 
Q 2594 3103 2138 3103 
Q 1681 3103 1420 2742 
Q 1159 2381 1159 1747 
Q 1159 1113 1420 752 
Q 1681 391 2138 391 
Q 2594 391 2855 752 
Q 3116 1113 3116 1747 
z
M 1159 2969 
Q 1341 3281 1617 3432 
Q 1894 3584 2278 3584 
Q 2916 3584 3314 3078 
Q 3713 2572 3713 1747 
Q 3713 922 3314 415 
Q 2916 -91 2278 -91 
Q 1894 -91 1617 61 
Q 1341 213 1159 525 
L 1159 0 
L 581 0 
L 581 4863 
L 1159 4863 
L 1159 2969 
z
" transform="scale(0.015625)"/>
       <path id="DejaVuSans-72" d="M 2631 2963 
Q 2534 3019 2420 3045 
Q 2306 3072 2169 3072 
Q 1681 3072 1420 2755 
Q 1159 2438 1159 1844 
L 1159 0 
L 581 0 
L 581 3500 
L 1159 3500 
L 1159 2956 
Q 1341 3275 1631 3429 
Q 1922 3584 2338 3584 
Q 2397 3584 2469 3576 
Q 2541 3569 2628 3553 
L 2631 2963 
z
" transform="scale(0.015625)"/>
      </defs>
      <use xlink:href="#DejaVuSans-4e"/>
      <use xlink:href="#DejaVuSans-65" x="74.804688"/>
      <use xlink:href="#DejaVuSans-69" x="136.328125"/>
      <use xlink:href="#DejaVuSans-67" x="164.111328"/>
      <use xlink:href="#DejaVuSans-68" x="227.587891"/>
      <use xlink:href="#DejaVuSans-62" x="290.966797"/>
      <use xlink:href="#DejaVuSans-6f" x="354.443359"/>
      <use xlink:href="#DejaVuSans-72" x="415.625"/>
     </g>
    </g>
    <g id="line2d_26">
     <path d="M 256.023438 258.732312 
L 266.023438 258.732312 
L 276.023438 258.732312 
" style="fill: none; stroke: #2ca02c; stroke-width: 1.5; stroke-linecap: square"/>
    </g>
    <g id="text_15">
     <!-- Global -->
     <g transform="translate(284.023438 262.232312)scale(0.1 -0.1)">
      <defs>
       <path id="DejaVuSans-47" d="M 3809 666 
L 3809 1919 
L 2778 1919 
L 2778 2438 
L 4434 2438 
L 4434 434 
Q 4069 175 3628 42 
Q 3188 -91 2688 -91 
Q 1594 -91 976 548 
Q 359 1188 359 2328 
Q 359 3472 976 4111 
Q 1594 4750 2688 4750 
Q 3144 4750 3555 4637 
Q 3966 4525 4313 4306 
L 4313 3634 
Q 3963 3931 3569 4081 
Q 3175 4231 2741 4231 
Q 1884 4231 1454 3753 
Q 1025 3275 1025 2328 
Q 1025 1384 1454 906 
Q 1884 428 2741 428 
Q 3075 428 3337 486 
Q 3600 544 3809 666 
z
" transform="scale(0.015625)"/>
      </defs>
      <use xlink:href="#DejaVuSans-47"/>
      <use xlink:href="#DejaVuSans-6c" x="77.490234"/>
      <use xlink:href="#DejaVuSans-6f" x="105.273438"/>
      <use xlink:href="#DejaVuSans-62" x="166.455078"/>
      <use xlink:href="#DejaVuSans-61" x="229.931641"/>
      <use xlink:href="#DejaVuSans-6c" x="291.210938"/>
     </g>
    </g>
   </g>
  </g>
 </g>
 <defs>
  <clipPath id="pa591a20516">
   <rect x="56.64375" y="7.2" width="357.12" height="266.112"/>
  </clipPath>
 </defs>
</svg>
