<?xml version="1.0" encoding="utf-8" standalone="no"?>
<!DOCTYPE svg PUBLIC "-//W3C//DTD SVG 1.1//EN"
  "http://www.w3.org/Graphics/SVG/1.1/DTD/svg11.dtd">
<svg xmlns:xlink="http://www.w3.org/1999/xlink" width="411.42pt" height="331.084266pt" viewBox="0 0 411.42 331.084266" xmlns="http://www.w3.org/2000/svg" version="1.1">
 <defs>
  <style type="text/css">*{stroke-linejoin: round; stroke-linecap: butt}</style>
 </defs>
 <g id="figure_1">
  <g id="patch_1">
   <path d="M 0 331.084266 
L 411.42 331.084266 
L 411.42 0 
L 0 0 
L 0 331.084266 
z
" style="fill: none"/>
  </g>
  <g id="axes_1">
   <g id="patch_2">
    <path d="M 47.1 279.010828 
L 404.22 279.010828 
L 404.22 12.898828 
L 47.1 12.898828 
L 47.1 279.010828 
z
" style="fill: none"/>
   </g>
   <g id="matplotlib.axis_1">
    <g id="xtick_1">
     <g id="line2d_1">
      <path d="M 79.03031 279.010828 
L 79.03031 12.898828 
" clip-path="url(#p25c7f03503)" style="fill: none; stroke: #b0b0b0; stroke-width: 0.8; stroke-linecap: square"/>
     </g>
     <g id="line2d_2">
      <defs>
       <path id="md39032bed2" d="M 0 0 
L 0 3.5 
" style="stroke: #000000; stroke-width: 0.8"/>
      </defs>
      <g>
       <use xlink:href="#md39032bed2" x="79.03031" y="279.010828" style="stroke: #000000; stroke-width: 0.8"/>
      </g>
     </g>
     <g id="text_1">
      <!-- −3000 -->
      <g transform="translate(53.658044 297.408484)scale(0.15 -0.15)">
       <defs>
        <path id="DejaVuSans-2212" d="M 678 2272 
L 4684 2272 
L 4684 1741 
L 678 1741 
L 678 2272 
z
" transform="scale(0.015625)"/>
        <path id="DejaVuSans-33" d="M 2597 2516 
Q 3050 2419 3304 2112 
Q 3559 1806 3559 1356 
Q 3559 666 3084 287 
Q 2609 -91 1734 -91 
Q 1441 -91 1130 -33 
Q 819 25 488 141 
L 488 750 
Q 750 597 1062 519 
Q 1375 441 1716 441 
Q 2309 441 2620 675 
Q 2931 909 2931 1356 
Q 2931 1769 2642 2001 
Q 2353 2234 1838 2234 
L 1294 2234 
L 1294 2753 
L 1863 2753 
Q 2328 2753 2575 2939 
Q 2822 3125 2822 3475 
Q 2822 3834 2567 4026 
Q 2313 4219 1838 4219 
Q 1578 4219 1281 4162 
Q 984 4106 628 3988 
L 628 4550 
Q 988 4650 1302 4700 
Q 1616 4750 1894 4750 
Q 2613 4750 3031 4423 
Q 3450 4097 3450 3541 
Q 3450 3153 3228 2886 
Q 3006 2619 2597 2516 
z
" transform="scale(0.015625)"/>
        <path id="DejaVuSans-30" d="M 2034 4250 
Q 1547 4250 1301 3770 
Q 1056 3291 1056 2328 
Q 1056 1369 1301 889 
Q 1547 409 2034 409 
Q 2525 409 2770 889 
Q 3016 1369 3016 2328 
Q 3016 3291 2770 3770 
Q 2525 4250 2034 4250 
z
M 2034 4750 
Q 2819 4750 3233 4129 
Q 3647 3509 3647 2328 
Q 3647 1150 3233 529 
Q 2819 -91 2034 -91 
Q 1250 -91 836 529 
Q 422 1150 422 2328 
Q 422 3509 836 4129 
Q 1250 4750 2034 4750 
z
" transform="scale(0.015625)"/>
       </defs>
       <use xlink:href="#DejaVuSans-2212"/>
       <use xlink:href="#DejaVuSans-33" x="83.789062"/>
       <use xlink:href="#DejaVuSans-30" x="147.412109"/>
       <use xlink:href="#DejaVuSans-30" x="211.035156"/>
       <use xlink:href="#DejaVuSans-30" x="274.658203"/>
      </g>
     </g>
    </g>
    <g id="xtick_2">
     <g id="line2d_3">
      <path d="M 150.382957 279.010828 
L 150.382957 12.898828 
" clip-path="url(#p25c7f03503)" style="fill: none; stroke: #b0b0b0; stroke-width: 0.8; stroke-linecap: square"/>
     </g>
     <g id="line2d_4">
      <g>
       <use xlink:href="#md39032bed2" x="150.382957" y="279.010828" style="stroke: #000000; stroke-width: 0.8"/>
      </g>
     </g>
     <g id="text_2">
      <!-- −2000 -->
      <g transform="translate(125.010691 297.408484)scale(0.15 -0.15)">
       <defs>
        <path id="DejaVuSans-32" d="M 1228 531 
L 3431 531 
L 3431 0 
L 469 0 
L 469 531 
Q 828 903 1448 1529 
Q 2069 2156 2228 2338 
Q 2531 2678 2651 2914 
Q 2772 3150 2772 3378 
Q 2772 3750 2511 3984 
Q 2250 4219 1831 4219 
Q 1534 4219 1204 4116 
Q 875 4013 500 3803 
L 500 4441 
Q 881 4594 1212 4672 
Q 1544 4750 1819 4750 
Q 2544 4750 2975 4387 
Q 3406 4025 3406 3419 
Q 3406 3131 3298 2873 
Q 3191 2616 2906 2266 
Q 2828 2175 2409 1742 
Q 1991 1309 1228 531 
z
" transform="scale(0.015625)"/>
       </defs>
       <use xlink:href="#DejaVuSans-2212"/>
       <use xlink:href="#DejaVuSans-32" x="83.789062"/>
       <use xlink:href="#DejaVuSans-30" x="147.412109"/>
       <use xlink:href="#DejaVuSans-30" x="211.035156"/>
       <use xlink:href="#DejaVuSans-30" x="274.658203"/>
      </g>
     </g>
    </g>
    <g id="xtick_3">
     <g id="line2d_5">
      <path d="M 221.735604 279.010828 
L 221.735604 12.898828 
" clip-path="url(#p25c7f03503)" style="fill: none; stroke: #b0b0b0; stroke-width: 0.8; stroke-linecap: square"/>
     </g>
     <g id="line2d_6">
      <g>
       <use xlink:href="#md39032bed2" x="221.735604" y="279.010828" style="stroke: #000000; stroke-width: 0.8"/>
      </g>
     </g>
     <g id="text_3">
      <!-- −1000 -->
      <g transform="translate(196.363339 297.408484)scale(0.15 -0.15)">
       <defs>
        <path id="DejaVuSans-31" d="M 794 531 
L 1825 531 
L 1825 4091 
L 703 3866 
L 703 4441 
L 1819 4666 
L 2450 4666 
L 2450 531 
L 3481 531 
L 3481 0 
L 794 0 
L 794 531 
z
" transform="scale(0.015625)"/>
       </defs>
       <use xlink:href="#DejaVuSans-2212"/>
       <use xlink:href="#DejaVuSans-31" x="83.789062"/>
       <use xlink:href="#DejaVuSans-30" x="147.412109"/>
       <use xlink:href="#DejaVuSans-30" x="211.035156"/>
       <use xlink:href="#DejaVuSans-30" x="274.658203"/>
      </g>
     </g>
    </g>
    <g id="xtick_4">
     <g id="line2d_7">
      <path d="M 293.088252 279.010828 
L 293.088252 12.898828 
" clip-path="url(#p25c7f03503)" style="fill: none; stroke: #b0b0b0; stroke-width: 0.8; stroke-linecap: square"/>
     </g>
     <g id="line2d_8">
      <g>
       <use xlink:href="#md39032bed2" x="293.088252" y="279.010828" style="stroke: #000000; stroke-width: 0.8"/>
      </g>
     </g>
     <g id="text_4">
      <!-- 0 -->
      <g transform="translate(288.316377 297.408484)scale(0.15 -0.15)">
       <use xlink:href="#DejaVuSans-30"/>
      </g>
     </g>
    </g>
    <g id="xtick_5">
     <g id="line2d_9">
      <path d="M 364.440899 279.010828 
L 364.440899 12.898828 
" clip-path="url(#p25c7f03503)" style="fill: none; stroke: #b0b0b0; stroke-width: 0.8; stroke-linecap: square"/>
     </g>
     <g id="line2d_10">
      <g>
       <use xlink:href="#md39032bed2" x="364.440899" y="279.010828" style="stroke: #000000; stroke-width: 0.8"/>
      </g>
     </g>
     <g id="text_5">
      <!-- 1000 -->
      <g transform="translate(345.353399 297.408484)scale(0.15 -0.15)">
       <use xlink:href="#DejaVuSans-31"/>
       <use xlink:href="#DejaVuSans-30" x="63.623047"/>
       <use xlink:href="#DejaVuSans-30" x="127.246094"/>
       <use xlink:href="#DejaVuSans-30" x="190.869141"/>
      </g>
     </g>
    </g>
    <g id="text_6">
     <!-- Position (μm) -->
     <g transform="translate(159.6475 319.724891)scale(0.2 -0.2)">
      <defs>
       <path id="DejaVuSans-50" d="M 1259 4147 
L 1259 2394 
L 2053 2394 
Q 2494 2394 2734 2622 
Q 2975 2850 2975 3272 
Q 2975 3691 2734 3919 
Q 2494 4147 2053 4147 
L 1259 4147 
z
M 628 4666 
L 2053 4666 
Q 2838 4666 3239 4311 
Q 3641 3956 3641 3272 
Q 3641 2581 3239 2228 
Q 2838 1875 2053 1875 
L 1259 1875 
L 1259 0 
L 628 0 
L 628 4666 
z
" transform="scale(0.015625)"/>
       <path id="DejaVuSans-6f" d="M 1959 3097 
Q 1497 3097 1228 2736 
Q 959 2375 959 1747 
Q 959 1119 1226 758 
Q 1494 397 1959 397 
Q 2419 397 2687 759 
Q 2956 1122 2956 1747 
Q 2956 2369 2687 2733 
Q 2419 3097 1959 3097 
z
M 1959 3584 
Q 2709 3584 3137 3096 
Q 3566 2609 3566 1747 
Q 3566 888 3137 398 
Q 2709 -91 1959 -91 
Q 1206 -91 779 398 
Q 353 888 353 1747 
Q 353 2609 779 3096 
Q 1206 3584 1959 3584 
z
" transform="scale(0.015625)"/>
       <path id="DejaVuSans-73" d="M 2834 3397 
L 2834 2853 
Q 2591 2978 2328 3040 
Q 2066 3103 1784 3103 
Q 1356 3103 1142 2972 
Q 928 2841 928 2578 
Q 928 2378 1081 2264 
Q 1234 2150 1697 2047 
L 1894 2003 
Q 2506 1872 2764 1633 
Q 3022 1394 3022 966 
Q 3022 478 2636 193 
Q 2250 -91 1575 -91 
Q 1294 -91 989 -36 
Q 684 19 347 128 
L 347 722 
Q 666 556 975 473 
Q 1284 391 1588 391 
Q 1994 391 2212 530 
Q 2431 669 2431 922 
Q 2431 1156 2273 1281 
Q 2116 1406 1581 1522 
L 1381 1569 
Q 847 1681 609 1914 
Q 372 2147 372 2553 
Q 372 3047 722 3315 
Q 1072 3584 1716 3584 
Q 2034 3584 2315 3537 
Q 2597 3491 2834 3397 
z
" transform="scale(0.015625)"/>
       <path id="DejaVuSans-69" d="M 603 3500 
L 1178 3500 
L 1178 0 
L 603 0 
L 603 3500 
z
M 603 4863 
L 1178 4863 
L 1178 4134 
L 603 4134 
L 603 4863 
z
" transform="scale(0.015625)"/>
       <path id="DejaVuSans-74" d="M 1172 4494 
L 1172 3500 
L 2356 3500 
L 2356 3053 
L 1172 3053 
L 1172 1153 
Q 1172 725 1289 603 
Q 1406 481 1766 481 
L 2356 481 
L 2356 0 
L 1766 0 
Q 1100 0 847 248 
Q 594 497 594 1153 
L 594 3053 
L 172 3053 
L 172 3500 
L 594 3500 
L 594 4494 
L 1172 4494 
z
" transform="scale(0.015625)"/>
       <path id="DejaVuSans-6e" d="M 3513 2113 
L 3513 0 
L 2938 0 
L 2938 2094 
Q 2938 2591 2744 2837 
Q 2550 3084 2163 3084 
Q 1697 3084 1428 2787 
Q 1159 2491 1159 1978 
L 1159 0 
L 581 0 
L 581 3500 
L 1159 3500 
L 1159 2956 
Q 1366 3272 1645 3428 
Q 1925 3584 2291 3584 
Q 2894 3584 3203 3211 
Q 3513 2838 3513 2113 
z
" transform="scale(0.015625)"/>
       <path id="DejaVuSans-20" transform="scale(0.015625)"/>
       <path id="DejaVuSans-28" d="M 1984 4856 
Q 1566 4138 1362 3434 
Q 1159 2731 1159 2009 
Q 1159 1288 1364 580 
Q 1569 -128 1984 -844 
L 1484 -844 
Q 1016 -109 783 600 
Q 550 1309 550 2009 
Q 550 2706 781 3412 
Q 1013 4119 1484 4856 
L 1984 4856 
z
" transform="scale(0.015625)"/>
       <path id="DejaVuSans-3bc" d="M 544 -1331 
L 544 3500 
L 1119 3500 
L 1119 1325 
Q 1119 872 1334 640 
Q 1550 409 1972 409 
Q 2434 409 2667 671 
Q 2900 934 2900 1459 
L 2900 3500 
L 3475 3500 
L 3475 806 
Q 3475 619 3529 530 
Q 3584 441 3700 441 
Q 3728 441 3778 458 
Q 3828 475 3916 513 
L 3916 50 
Q 3788 -22 3673 -56 
Q 3559 -91 3450 -91 
Q 3234 -91 3106 31 
Q 2978 153 2931 403 
Q 2775 156 2548 32 
Q 2322 -91 2016 -91 
Q 1697 -91 1473 31 
Q 1250 153 1119 397 
L 1119 -1331 
L 544 -1331 
z
" transform="scale(0.015625)"/>
       <path id="DejaVuSans-6d" d="M 3328 2828 
Q 3544 3216 3844 3400 
Q 4144 3584 4550 3584 
Q 5097 3584 5394 3201 
Q 5691 2819 5691 2113 
L 5691 0 
L 5113 0 
L 5113 2094 
Q 5113 2597 4934 2840 
Q 4756 3084 4391 3084 
Q 3944 3084 3684 2787 
Q 3425 2491 3425 1978 
L 3425 0 
L 2847 0 
L 2847 2094 
Q 2847 2600 2669 2842 
Q 2491 3084 2119 3084 
Q 1678 3084 1418 2786 
Q 1159 2488 1159 1978 
L 1159 0 
L 581 0 
L 581 3500 
L 1159 3500 
L 1159 2956 
Q 1356 3278 1631 3431 
Q 1906 3584 2284 3584 
Q 2666 3584 2933 3390 
Q 3200 3197 3328 2828 
z
" transform="scale(0.015625)"/>
       <path id="DejaVuSans-29" d="M 513 4856 
L 1013 4856 
Q 1481 4119 1714 3412 
Q 1947 2706 1947 2009 
Q 1947 1309 1714 600 
Q 1481 -109 1013 -844 
L 513 -844 
Q 928 -128 1133 580 
Q 1338 1288 1338 2009 
Q 1338 2731 1133 3434 
Q 928 4138 513 4856 
z
" transform="scale(0.015625)"/>
      </defs>
      <use xlink:href="#DejaVuSans-50"/>
      <use xlink:href="#DejaVuSans-6f" x="56.677734"/>
      <use xlink:href="#DejaVuSans-73" x="117.859375"/>
      <use xlink:href="#DejaVuSans-69" x="169.958984"/>
      <use xlink:href="#DejaVuSans-74" x="197.742188"/>
      <use xlink:href="#DejaVuSans-69" x="236.951172"/>
      <use xlink:href="#DejaVuSans-6f" x="264.734375"/>
      <use xlink:href="#DejaVuSans-6e" x="325.916016"/>
      <use xlink:href="#DejaVuSans-20" x="389.294922"/>
      <use xlink:href="#DejaVuSans-28" x="421.082031"/>
      <use xlink:href="#DejaVuSans-3bc" x="460.095703"/>
      <use xlink:href="#DejaVuSans-6d" x="523.71875"/>
      <use xlink:href="#DejaVuSans-29" x="621.130859"/>
     </g>
    </g>
   </g>
   <g id="matplotlib.axis_2">
    <g id="ytick_1">
     <g id="line2d_11">
      <path d="M 47.1 279.010828 
L 404.22 279.010828 
" clip-path="url(#p25c7f03503)" style="fill: none; stroke: #b0b0b0; stroke-width: 0.8; stroke-linecap: square"/>
     </g>
     <g id="line2d_12">
      <defs>
       <path id="m6f3f5b6aff" d="M 0 0 
L -3.5 0 
" style="stroke: #000000; stroke-width: 0.8"/>
      </defs>
      <g>
       <use xlink:href="#m6f3f5b6aff" x="47.1" y="279.010828" style="stroke: #000000; stroke-width: 0.8"/>
      </g>
     </g>
     <g id="text_7">
      <!-- 4 -->
      <g transform="translate(30.55625 284.709656)scale(0.15 -0.15)">
       <defs>
        <path id="DejaVuSans-34" d="M 2419 4116 
L 825 1625 
L 2419 1625 
L 2419 4116 
z
M 2253 4666 
L 3047 4666 
L 3047 1625 
L 3713 1625 
L 3713 1100 
L 3047 1100 
L 3047 0 
L 2419 0 
L 2419 1100 
L 313 1100 
L 313 1709 
L 2253 4666 
z
" transform="scale(0.015625)"/>
       </defs>
       <use xlink:href="#DejaVuSans-34"/>
      </g>
     </g>
    </g>
    <g id="ytick_2">
     <g id="line2d_13">
      <path d="M 47.1 225.788428 
L 404.22 225.788428 
" clip-path="url(#p25c7f03503)" style="fill: none; stroke: #b0b0b0; stroke-width: 0.8; stroke-linecap: square"/>
     </g>
     <g id="line2d_14">
      <g>
       <use xlink:href="#m6f3f5b6aff" x="47.1" y="225.788428" style="stroke: #000000; stroke-width: 0.8"/>
      </g>
     </g>
     <g id="text_8">
      <!-- 5 -->
      <g transform="translate(30.55625 231.487256)scale(0.15 -0.15)">
       <defs>
        <path id="DejaVuSans-35" d="M 691 4666 
L 3169 4666 
L 3169 4134 
L 1269 4134 
L 1269 2991 
Q 1406 3038 1543 3061 
Q 1681 3084 1819 3084 
Q 2600 3084 3056 2656 
Q 3513 2228 3513 1497 
Q 3513 744 3044 326 
Q 2575 -91 1722 -91 
Q 1428 -91 1123 -41 
Q 819 9 494 109 
L 494 744 
Q 775 591 1075 516 
Q 1375 441 1709 441 
Q 2250 441 2565 725 
Q 2881 1009 2881 1497 
Q 2881 1984 2565 2268 
Q 2250 2553 1709 2553 
Q 1456 2553 1204 2497 
Q 953 2441 691 2322 
L 691 4666 
z
" transform="scale(0.015625)"/>
       </defs>
       <use xlink:href="#DejaVuSans-35"/>
      </g>
     </g>
    </g>
    <g id="ytick_3">
     <g id="line2d_15">
      <path d="M 47.1 172.566028 
L 404.22 172.566028 
" clip-path="url(#p25c7f03503)" style="fill: none; stroke: #b0b0b0; stroke-width: 0.8; stroke-linecap: square"/>
     </g>
     <g id="line2d_16">
      <g>
       <use xlink:href="#m6f3f5b6aff" x="47.1" y="172.566028" style="stroke: #000000; stroke-width: 0.8"/>
      </g>
     </g>
     <g id="text_9">
      <!-- 6 -->
      <g transform="translate(30.55625 178.264856)scale(0.15 -0.15)">
       <defs>
        <path id="DejaVuSans-36" d="M 2113 2584 
Q 1688 2584 1439 2293 
Q 1191 2003 1191 1497 
Q 1191 994 1439 701 
Q 1688 409 2113 409 
Q 2538 409 2786 701 
Q 3034 994 3034 1497 
Q 3034 2003 2786 2293 
Q 2538 2584 2113 2584 
z
M 3366 4563 
L 3366 3988 
Q 3128 4100 2886 4159 
Q 2644 4219 2406 4219 
Q 1781 4219 1451 3797 
Q 1122 3375 1075 2522 
Q 1259 2794 1537 2939 
Q 1816 3084 2150 3084 
Q 2853 3084 3261 2657 
Q 3669 2231 3669 1497 
Q 3669 778 3244 343 
Q 2819 -91 2113 -91 
Q 1303 -91 875 529 
Q 447 1150 447 2328 
Q 447 3434 972 4092 
Q 1497 4750 2381 4750 
Q 2619 4750 2861 4703 
Q 3103 4656 3366 4563 
z
" transform="scale(0.015625)"/>
       </defs>
       <use xlink:href="#DejaVuSans-36"/>
      </g>
     </g>
    </g>
    <g id="ytick_4">
     <g id="line2d_17">
      <path d="M 47.1 119.343628 
L 404.22 119.343628 
" clip-path="url(#p25c7f03503)" style="fill: none; stroke: #b0b0b0; stroke-width: 0.8; stroke-linecap: square"/>
     </g>
     <g id="line2d_18">
      <g>
       <use xlink:href="#m6f3f5b6aff" x="47.1" y="119.343628" style="stroke: #000000; stroke-width: 0.8"/>
      </g>
     </g>
     <g id="text_10">
      <!-- 7 -->
      <g transform="translate(30.55625 125.042456)scale(0.15 -0.15)">
       <defs>
        <path id="DejaVuSans-37" d="M 525 4666 
L 3525 4666 
L 3525 4397 
L 1831 0 
L 1172 0 
L 2766 4134 
L 525 4134 
L 525 4666 
z
" transform="scale(0.015625)"/>
       </defs>
       <use xlink:href="#DejaVuSans-37"/>
      </g>
     </g>
    </g>
    <g id="ytick_5">
     <g id="line2d_19">
      <path d="M 47.1 66.121228 
L 404.22 66.121228 
" clip-path="url(#p25c7f03503)" style="fill: none; stroke: #b0b0b0; stroke-width: 0.8; stroke-linecap: square"/>
     </g>
     <g id="line2d_20">
      <g>
       <use xlink:href="#m6f3f5b6aff" x="47.1" y="66.121228" style="stroke: #000000; stroke-width: 0.8"/>
      </g>
     </g>
     <g id="text_11">
      <!-- 8 -->
      <g transform="translate(30.55625 71.820056)scale(0.15 -0.15)">
       <defs>
        <path id="DejaVuSans-38" d="M 2034 2216 
Q 1584 2216 1326 1975 
Q 1069 1734 1069 1313 
Q 1069 891 1326 650 
Q 1584 409 2034 409 
Q 2484 409 2743 651 
Q 3003 894 3003 1313 
Q 3003 1734 2745 1975 
Q 2488 2216 2034 2216 
z
M 1403 2484 
Q 997 2584 770 2862 
Q 544 3141 544 3541 
Q 544 4100 942 4425 
Q 1341 4750 2034 4750 
Q 2731 4750 3128 4425 
Q 3525 4100 3525 3541 
Q 3525 3141 3298 2862 
Q 3072 2584 2669 2484 
Q 3125 2378 3379 2068 
Q 3634 1759 3634 1313 
Q 3634 634 3220 271 
Q 2806 -91 2034 -91 
Q 1263 -91 848 271 
Q 434 634 434 1313 
Q 434 1759 690 2068 
Q 947 2378 1403 2484 
z
M 1172 3481 
Q 1172 3119 1398 2916 
Q 1625 2713 2034 2713 
Q 2441 2713 2670 2916 
Q 2900 3119 2900 3481 
Q 2900 3844 2670 4047 
Q 2441 4250 2034 4250 
Q 1625 4250 1398 4047 
Q 1172 3844 1172 3481 
z
" transform="scale(0.015625)"/>
       </defs>
       <use xlink:href="#DejaVuSans-38"/>
      </g>
     </g>
    </g>
    <g id="ytick_6">
     <g id="line2d_21">
      <path d="M 47.1 12.898828 
L 404.22 12.898828 
" clip-path="url(#p25c7f03503)" style="fill: none; stroke: #b0b0b0; stroke-width: 0.8; stroke-linecap: square"/>
     </g>
     <g id="line2d_22">
      <g>
       <use xlink:href="#m6f3f5b6aff" x="47.1" y="12.898828" style="stroke: #000000; stroke-width: 0.8"/>
      </g>
     </g>
     <g id="text_12">
      <!-- 9 -->
      <g transform="translate(30.55625 18.597656)scale(0.15 -0.15)">
       <defs>
        <path id="DejaVuSans-39" d="M 703 97 
L 703 672 
Q 941 559 1184 500 
Q 1428 441 1663 441 
Q 2288 441 2617 861 
Q 2947 1281 2994 2138 
Q 2813 1869 2534 1725 
Q 2256 1581 1919 1581 
Q 1219 1581 811 2004 
Q 403 2428 403 3163 
Q 403 3881 828 4315 
Q 1253 4750 1959 4750 
Q 2769 4750 3195 4129 
Q 3622 3509 3622 2328 
Q 3622 1225 3098 567 
Q 2575 -91 1691 -91 
Q 1453 -91 1209 -44 
Q 966 3 703 97 
z
M 1959 2075 
Q 2384 2075 2632 2365 
Q 2881 2656 2881 3163 
Q 2881 3666 2632 3958 
Q 2384 4250 1959 4250 
Q 1534 4250 1286 3958 
Q 1038 3666 1038 3163 
Q 1038 2656 1286 2365 
Q 1534 2075 1959 2075 
z
" transform="scale(0.015625)"/>
       </defs>
       <use xlink:href="#DejaVuSans-39"/>
      </g>
     </g>
    </g>
    <g id="text_13">
     <!-- Max (V) -->
     <g transform="translate(22.396875 184.451703)rotate(-90)scale(0.2 -0.2)">
      <defs>
       <path id="DejaVuSans-4d" d="M 628 4666 
L 1569 4666 
L 2759 1491 
L 3956 4666 
L 4897 4666 
L 4897 0 
L 4281 0 
L 4281 4097 
L 3078 897 
L 2444 897 
L 1241 4097 
L 1241 0 
L 628 0 
L 628 4666 
z
" transform="scale(0.015625)"/>
       <path id="DejaVuSans-61" d="M 2194 1759 
Q 1497 1759 1228 1600 
Q 959 1441 959 1056 
Q 959 750 1161 570 
Q 1363 391 1709 391 
Q 2188 391 2477 730 
Q 2766 1069 2766 1631 
L 2766 1759 
L 2194 1759 
z
M 3341 1997 
L 3341 0 
L 2766 0 
L 2766 531 
Q 2569 213 2275 61 
Q 1981 -91 1556 -91 
Q 1019 -91 701 211 
Q 384 513 384 1019 
Q 384 1609 779 1909 
Q 1175 2209 1959 2209 
L 2766 2209 
L 2766 2266 
Q 2766 2663 2505 2880 
Q 2244 3097 1772 3097 
Q 1472 3097 1187 3025 
Q 903 2953 641 2809 
L 641 3341 
Q 956 3463 1253 3523 
Q 1550 3584 1831 3584 
Q 2591 3584 2966 3190 
Q 3341 2797 3341 1997 
z
" transform="scale(0.015625)"/>
       <path id="DejaVuSans-78" d="M 3513 3500 
L 2247 1797 
L 3578 0 
L 2900 0 
L 1881 1375 
L 863 0 
L 184 0 
L 1544 1831 
L 300 3500 
L 978 3500 
L 1906 2253 
L 2834 3500 
L 3513 3500 
z
" transform="scale(0.015625)"/>
       <path id="DejaVuSans-56" d="M 1831 0 
L 50 4666 
L 709 4666 
L 2188 738 
L 3669 4666 
L 4325 4666 
L 2547 0 
L 1831 0 
z
" transform="scale(0.015625)"/>
      </defs>
      <use xlink:href="#DejaVuSans-4d"/>
      <use xlink:href="#DejaVuSans-61" x="86.279297"/>
      <use xlink:href="#DejaVuSans-78" x="147.558594"/>
      <use xlink:href="#DejaVuSans-20" x="206.738281"/>
      <use xlink:href="#DejaVuSans-28" x="238.525391"/>
      <use xlink:href="#DejaVuSans-56" x="277.539062"/>
      <use xlink:href="#DejaVuSans-29" x="345.947266"/>
     </g>
    </g>
   </g>
   <g id="line2d_23">
    <path d="M 73.511815 -1 
L 73.892919 110.482353 
L 74.321035 173.980732 
L 74.677798 202.638966 
L 75.962146 153.87956 
L 76.747025 125.140301 
L 77.175141 116.10218 
L 77.389199 114.954877 
L 77.531904 115.830924 
L 77.745962 119.897364 
L 78.031373 130.418776 
L 78.602194 162.401857 
L 78.816252 172.363371 
L 79.886541 138.731981 
L 80.600068 121.712291 
L 80.742773 119.206419 
L 82.169826 43.571865 
L 82.312531 42.678546 
L 82.455237 44.206047 
L 82.669295 51.486069 
L 82.954705 70.406037 
L 83.454174 122.202682 
L 84.1677 184.621343 
L 84.809874 219.509626 
L 85.380695 242.760679 
L 85.737459 239.093116 
L 85.880164 235.084899 
L 87.307217 186.163961 
L 87.735333 177.594662 
L 87.949391 175.818813 
L 88.020743 175.670898 
L 88.092096 175.754827 
L 88.234801 176.618955 
L 88.448859 179.567927 
L 88.805622 188.005889 
L 89.590501 213.672569 
L 90.660791 251.274512 
L 90.732144 251.046919 
L 92.51596 192.880667 
L 92.944076 184.948204 
L 93.229487 183.10087 
L 93.300839 183.144299 
L 93.443544 183.845154 
L 93.657602 186.349481 
L 94.014366 193.693416 
L 94.656539 212.738917 
L 95.798182 252.296665 
L 95.869534 249.967062 
L 97.724703 188.334999 
L 98.152819 179.948787 
L 98.366877 178.27167 
L 98.43823 178.164122 
L 98.509582 178.290481 
L 98.652288 179.241489 
L 98.937698 183.747459 
L 99.365814 195.561837 
L 100.150693 225.306168 
L 100.792867 252.335308 
L 100.86422 251.499969 
L 102.862094 184.836359 
L 103.218857 178.36503 
L 103.432915 176.954629 
L 103.504268 176.959361 
L 103.646973 177.694426 
L 103.861031 180.531481 
L 104.217794 189.118918 
L 104.859968 211.922566 
L 105.858905 252.405898 
L 106.072963 241.91791 
L 107.856779 181.688992 
L 108.284895 173.703751 
L 108.498953 172.538261 
L 108.570306 172.635085 
L 108.713011 173.559906 
L 108.927069 176.864444 
L 109.283832 186.230213 
L 109.926006 209.960454 
L 110.85359 249.212662 
L 110.924943 247.47272 
L 112.637407 180.30584 
L 113.065522 170.055174 
L 113.350933 167.467363 
L 113.422286 167.497587 
L 113.564991 168.345752 
L 113.779049 171.467843 
L 114.135812 180.658418 
L 114.777986 204.359223 
L 115.848276 247.227944 
L 117.560739 179.316904 
L 117.988855 168.780425 
L 118.274266 165.843066 
L 118.345618 165.730222 
L 118.416971 165.871891 
L 118.559676 167.02094 
L 118.845087 172.18118 
L 119.273203 185.124517 
L 120.129435 219.403499 
L 120.771608 246.998814 
L 120.842961 245.300442 
L 122.484072 179.59292 
L 122.98354 167.27425 
L 123.268951 164.732993 
L 123.340304 164.723819 
L 123.483009 165.529375 
L 123.697067 168.67164 
L 124.05383 177.915898 
L 124.696004 201.706367 
L 125.766294 246.805924 
L 125.837646 244.193184 
L 127.478757 178.690252 
L 127.978226 166.673857 
L 128.263636 164.351732 
L 128.334989 164.397273 
L 128.477694 165.249089 
L 128.691752 168.51581 
L 129.048515 177.964586 
L 129.762042 204.851298 
L 130.760979 247.064322 
L 131.403153 220.214358 
L 132.544795 176.826751 
L 132.972911 166.992399 
L 133.258322 164.661584 
L 133.329674 164.704474 
L 133.47238 165.549499 
L 133.686438 168.814356 
L 134.043201 178.243708 
L 134.756727 205.101022 
L 135.755664 247.350806 
L 136.326486 223.619114 
L 137.468128 179.460658 
L 137.967596 167.418085 
L 138.253007 165.045918 
L 138.32436 165.075069 
L 138.467065 165.89054 
L 138.681123 169.049428 
L 139.037886 178.412257 
L 139.68006 202.271107 
L 140.75035 247.554949 
L 140.821702 245.158467 
L 142.462813 179.6566 
L 142.962282 167.610081 
L 143.247692 165.227583 
L 143.319045 165.252565 
L 143.46175 166.057823 
L 143.675808 169.142565 
L 144.032571 178.489133 
L 144.674745 202.336596 
L 145.745035 247.680876 
L 145.816388 245.237265 
L 147.457499 179.937675 
L 147.956967 167.960196 
L 148.242378 165.596044 
L 148.31373 165.62136 
L 148.456436 166.425082 
L 148.670494 169.493276 
L 149.027257 178.828626 
L 149.669431 202.658322 
L 150.73972 247.960166 
L 150.811073 245.441031 
L 152.452184 180.339663 
L 152.951652 168.484842 
L 153.237063 166.187646 
L 153.308416 166.22938 
L 153.451121 167.057919 
L 153.665179 170.123231 
L 154.021942 179.491863 
L 154.664116 203.326428 
L 155.734406 248.514577 
L 155.805758 245.848329 
L 157.375516 183.762505 
L 157.874985 171.172124 
L 158.160396 168.148034 
L 158.231748 167.982359 
L 158.303101 168.062039 
L 158.445806 168.950256 
L 158.659864 172.021419 
L 159.016627 181.315868 
L 159.730154 207.606299 
L 160.729091 249.345058 
L 160.800444 246.732148 
L 162.441554 181.934873 
L 162.941023 169.060648 
L 163.226434 165.836025 
L 163.297786 165.618521 
L 163.369139 165.64561 
L 163.511844 166.426404 
L 163.725902 169.304176 
L 164.082665 178.038626 
L 164.724839 201.271938 
L 165.795129 245.861697 
L 165.866482 245.523871 
L 168.007061 158.477352 
L 168.435177 149.150338 
L 168.649235 147.919032 
L 168.720587 148.061003 
L 168.863293 149.143533 
L 169.148703 154.175764 
L 169.576819 167.469212 
L 170.433051 203.718769 
L 171.146577 235.52811 
L 171.431988 223.759779 
L 172.57363 167.643293 
L 173.501215 122.470176 
L 173.786625 116.737069 
L 173.929331 116.075382 
L 174.000683 116.276802 
L 174.143389 117.667939 
L 174.428799 123.838934 
L 174.856915 139.228489 
L 175.7845 183.448165 
L 176.569379 221.311505 
L 177.42561 173.533214 
L 178.638605 102.17088 
L 178.924016 96.612608 
L 178.995369 96.304857 
L 179.066721 96.407274 
L 179.209427 97.755647 
L 179.494837 104.655406 
L 179.994306 124.83616 
L 180.850537 170.467692 
L 181.778122 219.900414 
L 181.849475 219.173392 
L 182.563001 176.629872 
L 183.704643 103.500049 
L 183.990054 97.347027 
L 184.061407 96.952482 
L 184.132759 96.984864 
L 184.275465 98.23508 
L 184.489522 102.666749 
L 184.846286 115.653264 
L 185.559812 150.155952 
L 186.915512 221.904383 
L 186.986865 221.591207 
L 187.843097 168.193938 
L 188.699329 107.686773 
L 188.984739 99.412934 
L 189.127445 98.249381 
L 189.198797 98.352678 
L 189.341502 99.795556 
L 189.626913 106.782905 
L 190.055029 124.547163 
L 191.268024 189.15544 
L 191.767493 215.230224 
L 192.909135 146.666995 
L 193.479956 111.765615 
L 193.765367 102.976391 
L 193.979425 101.291402 
L 194.12213 102.347739 
L 194.336188 106.702155 
L 194.692951 119.434335 
L 195.406478 155.28412 
L 196.334062 205.958764 
L 196.405415 205.731528 
L 197.689762 131.183172 
L 198.331936 99.303276 
L 198.617347 93.716084 
L 198.688699 93.365904 
L 198.760052 93.427979 
L 198.902757 94.814987 
L 199.188168 101.653904 
L 199.616284 118.978047 
L 200.543868 168.503656 
L 201.043337 196.913922 
L 203.183916 89.33649 
L 203.397974 87.373087 
L 203.469327 87.483676 
L 203.612032 88.818703 
L 203.897443 95.463968 
L 204.325558 112.591966 
L 205.253143 161.64069 
L 205.752611 187.528598 
L 207.750486 83.620506 
L 208.035896 79.495213 
L 208.107249 79.414391 
L 208.249954 80.42238 
L 208.464012 84.711931 
L 208.820775 97.823034 
L 209.534302 135.102435 
L 210.461886 187.733356 
L 211.246765 143.229917 
L 212.102997 95.163422 
L 212.531113 81.620673 
L 212.745171 79.358465 
L 212.816523 79.411062 
L 212.959229 80.776557 
L 213.173287 85.889001 
L 213.53005 101.050539 
L 214.60034 162.647303 
L 215.171161 194.452561 
L 215.313866 189.477697 
L 216.170098 145.306588 
L 217.097682 92.544957 
L 217.383093 86.51117 
L 217.525798 85.796377 
L 217.668503 86.821003 
L 217.882561 91.684404 
L 218.239325 107.410024 
L 219.380967 173.850598 
L 219.595025 194.028265 
L 219.880436 205.155631 
L 221.093431 151.530227 
L 222.306426 87.121991 
L 222.449131 88.583159 
L 222.663189 94.755161 
L 223.019952 114.695147 
L 224.447005 212.109629 
L 224.518358 211.54805 
L 225.231884 188.863988 
L 225.303237 158.486619 
L 225.374589 162.365158 
L 225.66 174.965785 
L 227.443816 83.771909 
L 227.729227 77.941053 
L 227.871932 76.982445 
L 227.943285 77.02868 
L 228.08599 78.173832 
L 228.300048 82.373341 
L 228.656811 94.628666 
L 229.370338 128.483467 
L 229.513043 149.747426 
L 230.51198 197.10012 
L 231.939033 143.888315 
L 232.367149 134.24831 
L 232.581207 132.276914 
L 232.652559 132.131538 
L 232.723912 132.255449 
L 232.866617 133.3209 
L 233.080675 136.890039 
L 233.437439 147.109087 
L 234.436376 185.792858 
L 235.435313 224.787004 
L 236.862366 177.04014 
L 237.433187 163.348623 
L 237.718597 160.488587 
L 237.78995 160.327705 
L 237.861303 160.403992 
L 238.004008 161.275915 
L 238.360771 166.256245 
L 238.788887 176.1691 
L 239.645119 203.062792 
L 240.644056 237.113511 
L 243.212751 150.108845 
L 243.498162 147.370347 
L 243.569514 147.278888 
L 243.71222 147.796782 
L 243.926278 150.198045 
L 244.283041 157.657543 
L 244.925215 177.056973 
L 246.066857 217.284701 
L 246.13821 214.617256 
L 246.923089 172.704098 
L 247.707968 119.892025 
L 248.5642 60.30013 
L 248.84961 52.353599 
L 248.992316 51.186493 
L 249.135021 52.573524 
L 249.349079 57.400827 
L 249.63449 71.813416 
L 250.419369 111.340226 
L 251.489658 161.845597 
L 251.703716 165.225215 
L 251.775069 165.333338 
L 252.702653 136.200957 
L 252.988064 133.282832 
L 253.059417 133.536518 
L 253.344827 137.986499 
L 253.70159 147.942057 
L 254.629175 184.065441 
L 255.556759 218.310785 
L 256.12758 200.769774 
L 257.126517 170.267298 
L 257.625986 151.674611 
L 257.911397 147.912782 
L 257.982749 147.921732 
L 258.196807 149.588423 
L 258.482218 155.443525 
L 258.981686 172.228906 
L 260.337387 220.663464 
L 260.408739 221.539994 
L 260.551445 219.893117 
L 261.835792 191.194957 
L 262.04985 181.113178 
L 262.620671 169.243086 
L 262.834729 167.825598 
L 262.906082 167.688111 
L 262.977435 167.831936 
L 263.12014 168.904181 
L 263.334198 172.442394 
L 263.690961 182.72175 
L 265.403425 240.474317 
L 265.617483 244.989261 
L 265.83154 239.344132 
L 267.401299 195.103914 
L 267.829415 186.861513 
L 268.114825 184.725598 
L 268.186178 184.701403 
L 268.328883 185.259942 
L 268.542941 187.558228 
L 268.899704 194.573913 
L 269.32782 207.237489 
L 269.613231 216.178853 
L 269.755936 212.097502 
L 272.181926 126.624589 
L 272.253279 126.434766 
L 272.324631 126.532183 
L 272.467337 127.642339 
L 272.681395 131.673989 
L 273.038158 144.089599 
L 273.965742 189.245163 
L 274.251153 203.767928 
L 275.321443 243.711268 
L 275.392795 244.289549 
L 277.033906 194.331838 
L 277.533375 185.2031 
L 277.818785 182.625327 
L 277.961491 182.348213 
L 278.104196 182.786097 
L 278.318254 184.756354 
L 278.603664 190.594776 
L 279.245838 209.755388 
L 280.530186 251.270375 
L 280.601538 251.246534 
L 280.815596 245.484288 
L 282.456707 195.323792 
L 282.813471 190.051752 
L 283.027528 189.159976 
L 283.098881 189.220218 
L 283.241586 189.874061 
L 283.455644 192.11407 
L 283.812408 198.583557 
L 284.383229 214.340534 
L 285.596224 253.826497 
L 285.667576 251.415857 
L 287.594098 193.117661 
L 287.950861 188.582007 
L 288.164919 187.853205 
L 288.307624 188.278279 
L 288.521682 190.249306 
L 288.878446 197.820356 
L 289.591972 219.554764 
L 290.662262 251.050762 
L 290.947672 242.713793 
L 292.517431 194.122307 
L 292.874194 188.559893 
L 293.088252 187.382566 
L 293.159604 187.34985 
L 293.30231 187.82677 
L 293.516368 189.835233 
L 293.58772 190.820915 
L 293.801778 196.895066 
L 294.229894 207.778516 
L 295.300184 241.975375 
L 295.656947 252.468144 
L 297.512116 196.675053 
L 297.940232 190.08308 
L 298.15429 188.950235 
L 298.225642 188.944776 
L 298.368348 189.499876 
L 298.582406 191.85503 
L 298.939169 199.731406 
L 299.652695 221.920948 
L 300.651632 252.507244 
L 300.722985 251.654706 
L 302.649506 195.646237 
L 303.00627 191.721616 
L 303.148975 191.354681 
L 303.220328 191.444898 
L 303.363033 192.166766 
L 303.577091 194.710868 
L 304.005207 203.435979 
L 304.718733 224.733288 
L 305.646318 254.536595 
L 307.430134 200.673019 
L 307.929602 191.640072 
L 308.14366 190.518038 
L 308.215013 190.5258 
L 308.357718 191.119781 
L 308.571776 193.549949 
L 308.928539 201.396718 
L 309.713419 225.432343 
L 310.641003 253.007046 
L 310.783708 249.827239 
L 312.781582 189.948393 
L 312.99564 188.406335 
L 313.066993 188.286953 
L 313.138346 188.366 
L 313.281051 189.112691 
L 313.566462 192.669826 
L 313.923225 200.253354 
L 314.708104 223.699213 
L 315.635688 252.29428 
L 317.490857 195.620621 
L 317.918973 187.840805 
L 318.133031 186.578706 
L 318.204384 186.597465 
L 318.347089 187.227563 
L 318.561147 189.512707 
L 318.91791 196.925407 
L 319.346026 210.981639 
L 320.630374 251.103909 
L 320.701726 250.967705 
L 320.844432 247.535471 
L 321.772016 215.067533 
L 322.128779 201.531315 
L 322.6996 185.813863 
L 322.913658 183.231638 
L 323.056364 182.975703 
L 323.199069 183.576881 
L 323.413127 185.998924 
L 323.76989 193.332466 
L 324.412064 212.495621 
L 325.553706 251.843994 
L 325.625059 251.221167 
L 327.622933 192.133505 
L 327.979696 187.76534 
L 328.193754 186.986388 
L 328.265107 187.026041 
L 328.407812 187.511741 
L 328.62187 189.495916 
L 328.978633 196.036356 
L 329.478102 209.488157 
L 330.691097 249.45759 
L 330.76245 247.218507 
L 331.904092 205.964272 
L 332.688971 181.46706 
L 333.117087 173.878661 
L 333.331145 172.340163 
L 333.402498 172.20539 
L 333.47385 172.26142 
L 333.616555 172.926327 
L 333.830613 175.229567 
L 334.187377 182.137029 
L 334.686845 196.486114 
L 335.757135 235.390833 
L 335.828488 232.807003 
L 337.826362 163.82015 
L 338.254478 156.469256 
L 338.468535 155.424478 
L 338.539888 155.47934 
L 338.682593 156.191592 
L 338.896651 158.684548 
L 339.253415 166.03278 
L 339.752883 181.375217 
L 340.75182 221.475478 
L 340.823173 219.044778 
L 341.82211 174.763054 
L 342.678342 142.360437 
L 343.106458 132.973676 
L 343.320515 131.126036 
L 343.391868 130.976767 
L 343.463221 131.063406 
L 343.605926 131.930914 
L 343.819984 134.859444 
L 344.176747 143.343462 
L 344.747568 163.231071 
L 345.675153 206.337919 
L 345.746505 203.18293 
L 347.601674 125.844447 
L 348.02979 116.934236 
L 348.243848 115.234888 
L 348.315201 115.120718 
L 348.386553 115.237297 
L 348.529259 116.153796 
L 348.814669 120.554177 
L 349.242785 132.349719 
L 349.742254 152.311971 
L 350.598486 192.208501 
L 350.669838 191.175481 
L 352.382302 109.887899 
L 352.88177 97.409565 
L 353.167181 94.715704 
L 353.238533 94.634541 
L 353.381239 95.196066 
L 353.595297 97.78487 
L 353.95206 106.151652 
L 354.451528 123.953678 
L 355.236408 162.3901 
L 355.593171 179.413993 
L 357.305634 89.07822 
L 357.805103 74.716875 
L 358.090513 71.536739 
L 358.161866 71.43346 
L 358.304571 72.085192 
L 358.518629 75.162745 
L 358.875393 85.240065 
L 359.446214 110.417449 
L 359.945682 140.632185 
L 360.516503 175.184141 
L 360.587856 175.374358 
L 362.157614 89.743626 
L 362.657083 73.682154 
L 362.942494 69.040798 
L 363.085199 68.301233 
L 363.156551 68.352755 
L 363.299257 69.305148 
L 363.513315 72.789794 
L 363.870078 83.37378 
L 364.440899 108.962121 
L 365.154426 151.444975 
L 365.582541 175.322224 
L 367.223652 82.105908 
L 367.723121 66.095349 
L 368.008531 61.634858 
L 368.151237 60.93441 
L 368.222589 60.978146 
L 368.365295 61.842014 
L 368.579353 64.975359 
L 368.936116 74.366648 
L 369.506937 97.137714 
L 370.648579 156.893682 
L 372.432396 17.535732 
L 372.62654 -1 
M 374.816199 -1 
L 375.643265 53.102453 
L 375.991626 -1 
L 375.991626 -1 
" clip-path="url(#p25c7f03503)" style="fill: none; stroke: #1f77b4; stroke-width: 1.5; stroke-linecap: square"/>
   </g>
   <g id="line2d_24">
    <path d="M 73.511816 -1 
L 73.892919 110.481877 
L 74.321035 173.980257 
L 74.677798 202.636732 
L 75.962146 153.747956 
L 76.747025 125.079543 
L 77.175141 115.987049 
L 77.389199 114.819798 
L 77.531904 115.689102 
L 77.745962 119.760846 
L 78.031373 130.326318 
L 78.602194 162.401432 
L 78.816252 172.362863 
L 79.886541 138.693408 
L 80.671421 120.005415 
L 80.814126 115.180005 
L 82.098474 44.833486 
L 82.312531 42.649373 
L 82.455237 44.205549 
L 82.669295 51.485581 
L 82.954705 70.405579 
L 83.525526 128.959944 
L 84.1677 184.620789 
L 84.809874 219.509063 
L 85.380695 242.76012 
L 85.737459 239.092413 
L 85.880164 235.079884 
L 87.307217 186.143842 
L 87.735333 177.572254 
L 87.949391 175.768859 
L 88.020743 175.610679 
L 88.092096 175.684308 
L 88.234801 176.529266 
L 88.448859 179.458862 
L 88.805622 187.907051 
L 89.590501 213.422368 
L 90.660791 251.093907 
L 90.732144 250.832025 
L 92.51596 192.874006 
L 92.944076 184.896596 
L 93.229487 183.019463 
L 93.300839 183.051964 
L 93.443544 183.733344 
L 93.657602 186.219412 
L 94.014366 193.57293 
L 94.656539 212.570374 
L 95.798182 252.114805 
L 95.869534 249.775657 
L 97.796056 186.536867 
L 98.224172 179.069607 
L 98.43823 178.022677 
L 98.509582 178.137496 
L 98.652288 179.069945 
L 98.937698 183.565079 
L 99.365814 195.439609 
L 100.150693 225.068856 
L 100.792867 251.734051 
L 100.86422 251.443203 
L 102.862094 184.822158 
L 103.218857 178.328724 
L 103.432915 176.885583 
L 103.504268 176.87812 
L 103.646973 177.591402 
L 103.861031 180.410444 
L 104.217794 189.033068 
L 104.859968 211.864119 
L 105.858905 252.393759 
L 106.072963 241.645792 
L 107.928132 179.745877 
L 108.284895 173.536861 
L 108.498953 172.430885 
L 108.570306 172.55182 
L 108.713011 173.535614 
L 108.998422 178.259787 
L 109.426537 190.665148 
L 110.282769 224.278506 
L 110.85359 248.749154 
L 110.924943 247.264612 
L 112.708759 178.108537 
L 113.136875 168.97895 
L 113.350933 167.456382 
L 113.422286 167.469029 
L 113.564991 168.27915 
L 113.779049 171.348599 
L 114.135812 180.507153 
L 114.849339 206.999144 
L 115.848276 246.941619 
L 117.703445 175.02424 
L 118.060208 167.552887 
L 118.274266 165.769361 
L 118.345618 165.684505 
L 118.488324 166.298596 
L 118.702382 169.095724 
L 119.059145 177.917406 
L 119.701319 201.257323 
L 120.771608 246.519737 
L 120.842961 245.016631 
L 122.626777 175.156969 
L 123.054893 166.149477 
L 123.268951 164.667375 
L 123.340304 164.687859 
L 123.483009 165.510483 
L 123.697067 168.596852 
L 124.05383 177.791581 
L 124.767357 204.356397 
L 125.766294 246.780104 
L 125.837646 243.929817 
L 127.621463 174.291315 
L 128.049578 165.571248 
L 128.263636 164.241889 
L 128.334989 164.312245 
L 128.477694 165.227553 
L 128.691752 168.43045 
L 129.048515 177.752457 
L 129.762042 204.493229 
L 130.760979 246.921024 
L 130.832332 244.281414 
L 132.616148 174.604978 
L 133.044264 165.875357 
L 133.258322 164.548119 
L 133.329674 164.617991 
L 133.47238 165.531987 
L 133.686438 168.733072 
L 134.043201 178.051887 
L 134.756727 204.809347 
L 135.755664 247.151461 
L 135.827017 244.652369 
L 137.539481 177.104559 
L 137.967596 167.200406 
L 138.253007 164.897282 
L 138.32436 164.952996 
L 138.467065 165.838159 
L 138.681123 168.994624 
L 139.037886 178.247566 
L 139.68006 202.034747 
L 140.75035 247.193081 
L 140.821702 244.947667 
L 142.534166 177.312339 
L 142.962282 167.390938 
L 143.247692 165.065428 
L 143.319045 165.112692 
L 143.46175 165.978723 
L 143.675808 169.102457 
L 144.032571 178.30124 
L 144.674745 202.076851 
L 145.745035 247.221442 
L 145.816388 245.014454 
L 147.528851 177.602552 
L 147.956967 167.743327 
L 148.242378 165.427782 
L 148.31373 165.475257 
L 148.456436 166.339746 
L 148.670494 169.455588 
L 149.027257 178.631737 
L 149.669431 202.40915 
L 150.73972 247.535354 
L 150.811073 245.239979 
L 152.523536 177.994602 
L 152.951652 168.233986 
L 153.237063 165.98651 
L 153.308416 166.052045 
L 153.451121 166.946353 
L 153.665179 170.101083 
L 154.021942 179.319603 
L 154.664116 203.186923 
L 155.734406 248.249199 
L 155.805758 245.588807 
L 157.304164 185.82528 
L 157.803632 172.096523 
L 158.089043 168.198651 
L 158.231748 167.672106 
L 158.303101 167.787995 
L 158.445806 168.77489 
L 158.731217 173.50012 
L 159.159333 185.810477 
L 160.015564 219.072336 
L 160.729091 248.676099 
L 161.014501 237.521539 
L 163.012376 167.667066 
L 163.297786 165.374249 
L 163.369139 165.407539 
L 163.511844 166.215325 
L 163.725902 169.172958 
L 164.082665 177.93673 
L 164.724839 200.954864 
L 165.866482 245.473978 
L 168.007061 158.298279 
L 168.363824 149.834269 
L 168.577882 147.806807 
L 168.649235 147.673794 
L 168.720587 147.820776 
L 168.863293 148.92655 
L 169.148703 154.060619 
L 169.576819 167.243381 
L 170.361698 200.045591 
L 171.146577 234.929444 
L 171.21793 233.279225 
L 172.57363 167.642866 
L 173.501215 122.458419 
L 173.786625 116.641912 
L 173.929331 115.984438 
L 174.072036 116.758573 
L 174.286094 120.216859 
L 174.642857 130.676667 
L 175.285031 158.22285 
L 176.569379 220.840894 
L 177.42561 173.467634 
L 178.638605 101.783824 
L 178.924016 96.206183 
L 178.995369 95.916214 
L 179.066721 96.043098 
L 179.209427 97.455544 
L 179.494837 104.186367 
L 179.922953 121.020826 
L 180.850537 169.974449 
L 181.778122 219.811603 
L 181.849475 219.041853 
L 182.563001 176.629442 
L 183.704643 103.487687 
L 183.990054 97.165813 
L 184.132759 96.749035 
L 184.275465 97.974751 
L 184.489522 102.410542 
L 184.846286 115.452502 
L 185.559812 150.065977 
L 186.915512 221.672731 
L 186.986865 220.97425 
L 187.843097 168.193518 
L 188.699329 107.167227 
L 188.984739 98.900527 
L 189.127445 97.811711 
L 189.198797 97.964043 
L 189.341502 99.497346 
L 189.626913 106.654072 
L 190.126382 127.760754 
L 191.482082 200.575595 
L 191.767493 215.187235 
L 192.909135 146.617261 
L 193.479956 111.748192 
L 193.765367 102.845118 
L 193.979425 101.122113 
L 194.12213 102.188515 
L 194.336188 106.590127 
L 194.692951 119.417657 
L 195.406478 155.283685 
L 196.334062 205.843227 
L 196.405415 205.099941 
L 197.761115 126.205904 
L 198.331936 98.962004 
L 198.617347 93.336772 
L 198.688699 92.981796 
L 198.760052 93.041382 
L 198.902757 94.348823 
L 199.116815 98.949542 
L 199.473578 111.962816 
L 200.187105 148.386213 
L 201.043337 196.79591 
L 202.969858 94.2504 
L 203.255269 87.847698 
L 203.397974 86.863867 
L 203.469327 86.950474 
L 203.612032 88.251512 
L 203.82609 92.783016 
L 204.182853 105.644419 
L 204.89638 141.716032 
L 205.752611 186.959747 
L 207.536428 90.280748 
L 207.893191 80.692597 
L 208.107249 79.184837 
L 208.249954 80.125715 
L 208.464012 84.36579 
L 208.820775 97.419888 
L 209.534302 134.979882 
L 210.461886 187.658387 
L 212.388408 84.85634 
L 212.673818 79.528669 
L 212.745171 79.148869 
L 212.816523 79.183374 
L 212.959229 80.513637 
L 213.173287 85.595951 
L 213.53005 100.835589 
L 214.671692 166.55691 
L 215.171161 194.442055 
L 215.456571 182.479023 
L 216.098745 148.270185 
L 217.097682 92.077021 
L 217.383093 86.258076 
L 217.525798 85.559026 
L 217.668503 86.609096 
L 217.882561 91.529077 
L 218.239325 107.398795 
L 219.380967 173.778986 
L 219.595025 193.560191 
L 219.880436 204.695191 
L 221.022078 155.258972 
L 222.306426 86.298971 
L 222.449131 88.006173 
L 222.663189 94.328498 
L 223.019952 114.495971 
L 224.447005 211.910528 
L 224.518358 211.241424 
L 225.231884 188.356862 
L 225.303237 157.430064 
L 225.374589 161.415025 
L 225.66 174.492502 
L 227.229758 91.006885 
L 227.657874 78.780103 
L 227.871932 76.793798 
L 227.943285 76.847262 
L 228.08599 78.020362 
L 228.300048 82.280732 
L 228.656811 94.628021 
L 229.370338 128.373393 
L 229.584396 152.495487 
L 230.440627 196.762459 
L 230.51198 196.102904 
L 231.653622 152.663724 
L 232.224444 136.608839 
L 232.509854 132.480892 
L 232.652559 131.886382 
L 232.723912 131.996285 
L 232.866617 133.048281 
L 233.080675 136.636991 
L 233.508791 149.324923 
L 234.721786 196.909297 
L 235.435313 224.085807 
L 236.576955 183.494153 
L 236.648308 183.771067 
L 237.290482 165.732418 
L 237.647245 160.553545 
L 237.78995 159.938284 
L 237.861303 159.975573 
L 238.004008 160.777153 
L 238.289419 164.657868 
L 238.717534 174.029216 
L 239.431061 195.440968 
L 240.644056 236.890531 
L 243.212751 150.035355 
L 243.498162 147.208701 
L 243.569514 147.104267 
L 243.71222 147.620806 
L 243.926278 150.059937 
L 244.283041 157.613383 
L 244.996567 179.193701 
L 246.066857 217.035573 
L 246.851736 176.380146 
L 247.636615 125.185931 
L 248.635552 57.432627 
L 248.920963 51.462701 
L 248.992316 51.186488 
L 249.063668 51.257861 
L 249.206374 52.692991 
L 249.349079 55.655284 
L 249.563137 68.407687 
L 250.490721 115.084463 
L 251.418306 159.142718 
L 251.632364 164.237364 
L 251.703716 164.968792 
L 251.775069 164.877268 
L 252.631301 136.998823 
L 252.916711 133.356681 
L 252.988064 133.177348 
L 253.059417 133.379202 
L 253.202122 134.934687 
L 253.487532 141.307785 
L 253.915648 155.391751 
L 255.485407 216.744822 
L 255.556759 216.640418 
L 256.627049 186.8065 
L 257.340575 161.027368 
L 257.697339 150.172878 
L 257.911397 147.80182 
L 257.982749 147.707022 
L 258.125455 148.66259 
L 258.410865 153.617491 
L 258.838981 166.846793 
L 260.408739 220.762293 
L 260.480092 220.419668 
L 261.122266 208.18221 
L 261.76444 191.65983 
L 262.549319 170.077753 
L 262.834729 167.540368 
L 262.906082 167.522664 
L 263.048787 168.158639 
L 263.262845 171.012048 
L 263.619608 180.086227 
L 264.19043 202.736599 
L 264.689898 219.858579 
L 265.54613 243.85314 
L 265.617483 244.602415 
L 265.902893 236.927146 
L 267.615357 190.310092 
L 267.97212 185.380753 
L 268.186178 184.688263 
L 268.328883 185.247177 
L 268.542941 187.526153 
L 268.828352 192.739325 
L 269.399173 208.502204 
L 269.613231 215.531043 
L 269.684583 214.160492 
L 270.754873 174.549715 
L 271.682458 142.897591 
L 271.825163 139.182869 
L 271.967868 128.553911 
L 272.253279 126.012325 
L 272.324631 126.086411 
L 272.467337 127.143122 
L 272.681395 131.217439 
L 273.038158 143.92792 
L 273.965742 189.231112 
L 274.251153 203.766256 
L 275.321443 243.59302 
L 275.392795 243.69701 
L 276.891201 197.576367 
L 277.462022 186.121676 
L 277.818785 182.604116 
L 277.961491 182.188447 
L 278.104196 182.562602 
L 278.318254 184.695555 
L 278.603664 190.527913 
L 279.317191 211.972845 
L 280.530186 250.994896 
L 280.601538 251.055997 
L 280.815596 245.444233 
L 282.456707 195.153448 
L 282.813471 189.866377 
L 283.027528 189.068616 
L 283.170234 189.403771 
L 283.384292 191.060342 
L 283.669702 195.497359 
L 284.169171 207.868891 
L 285.524871 250.85259 
L 285.596224 252.988485 
L 286.595161 221.618269 
L 287.665451 191.749106 
L 288.022214 188.151644 
L 288.164919 187.668367 
L 288.236272 187.701708 
L 288.378977 188.432451 
L 288.593035 191.238961 
L 288.949798 199.520975 
L 289.877383 228.551227 
L 290.590909 250.687719 
L 290.662262 250.729232 
L 291.019025 240.270934 
L 292.517431 193.925482 
L 292.874194 188.322083 
L 293.088252 187.31157 
L 293.159604 187.28172 
L 293.30231 187.673966 
L 293.516368 189.604802 
L 293.58772 190.58735 
L 293.801778 196.850685 
L 294.301247 209.734285 
L 295.656947 251.81626 
L 295.7283 249.810106 
L 297.583469 195.087116 
L 297.940232 190.037742 
L 298.15429 188.808957 
L 298.225642 188.768002 
L 298.368348 189.312278 
L 298.582406 191.736996 
L 298.939169 199.535476 
L 299.652695 221.642974 
L 300.651632 252.070402 
L 300.794338 249.393582 
L 302.578154 196.814569 
L 302.934917 191.949138 
L 303.148975 191.315651 
L 303.220328 191.379772 
L 303.363033 192.058234 
L 303.577091 194.409734 
L 303.933854 201.442551 
L 304.576028 220.041599 
L 305.646318 254.150853 
L 307.715544 194.211957 
L 308.072308 190.644411 
L 308.215013 190.355931 
L 308.286366 190.458127 
L 308.429071 191.413444 
L 308.714482 196.018937 
L 309.21395 209.410654 
L 310.641003 252.660284 
L 310.783708 249.627188 
L 312.852935 189.115221 
L 313.066993 188.063972 
L 313.209698 188.55684 
L 313.495109 191.558319 
L 313.851872 198.389006 
L 314.494046 216.669573 
L 315.635688 252.036564 
L 317.633562 191.83058 
L 317.990326 187.206203 
L 318.204384 186.533184 
L 318.347089 187.008094 
L 318.561147 189.411021 
L 318.91791 196.900339 
L 319.346026 210.386825 
L 320.559021 250.835318 
L 320.701726 250.851422 
L 320.915784 245.034694 
L 321.914721 208.644706 
L 322.6996 185.595964 
L 322.985011 182.564973 
L 323.056364 182.452943 
L 323.127716 182.592649 
L 323.270422 183.645608 
L 323.555832 188.352019 
L 323.983948 198.990711 
L 324.911532 229.27798 
L 325.553706 251.014581 
L 325.625059 250.797662 
L 327.622933 191.931685 
L 327.979696 187.442161 
L 328.193754 186.604269 
L 328.265107 186.648342 
L 328.407812 187.264603 
L 328.693223 190.278436 
L 329.049986 197.330313 
L 329.69216 215.567966 
L 330.691097 249.426692 
L 330.76245 247.166748 
L 331.975445 202.681897 
L 332.688971 181.166374 
L 333.117087 173.521413 
L 333.331145 172.096856 
L 333.402498 171.982463 
L 333.47385 172.05768 
L 333.616555 172.798368 
L 333.830613 175.192973 
L 334.187377 182.037053 
L 334.758198 198.68698 
L 335.757135 235.266159 
L 335.828488 232.734398 
L 337.897714 161.695083 
L 338.254478 156.221863 
L 338.468535 155.170495 
L 338.539888 155.203066 
L 338.682593 155.907558 
L 338.896651 158.336125 
L 339.253415 165.692694 
L 339.824236 183.948499 
L 340.75182 221.307113 
L 340.823173 218.832434 
L 341.750757 180.22662 
L 341.964815 167.587626 
L 342.749694 139.870281 
L 343.106458 132.652691 
L 343.320515 130.89629 
L 343.391868 130.755814 
L 343.463221 130.860439 
L 343.605926 131.760133 
L 343.891337 136.125403 
L 344.2481 145.188157 
L 344.818921 166.08454 
L 345.675153 205.911838 
L 345.746505 203.028108 
L 347.601674 125.294934 
L 348.02979 116.733454 
L 348.315201 114.956612 
L 348.386553 115.07405 
L 348.529259 116.025014 
L 348.814669 120.26732 
L 349.171433 129.712158 
L 349.670901 148.697505 
L 350.598486 191.980875 
L 350.669838 190.938431 
L 352.382302 109.563499 
L 352.810418 98.619216 
L 353.095828 94.994217 
L 353.238533 94.58616 
L 353.381239 95.177011 
L 353.595297 97.692017 
L 353.880707 103.778142 
L 354.380176 120.856713 
L 355.093702 154.770003 
L 355.593171 179.157508 
L 357.305634 88.705726 
L 357.73375 76.063445 
L 358.019161 71.891895 
L 358.161866 71.382843 
L 358.304571 72.059222 
L 358.518629 75.162152 
L 358.875393 85.049565 
L 359.374861 106.567864 
L 360.017035 144.462434 
L 360.516503 174.8739 
L 360.587856 175.151908 
L 362.228967 86.649003 
L 362.728436 71.994728 
L 363.013846 68.486548 
L 363.085199 68.24578 
L 363.156551 68.297023 
L 363.299257 69.27764 
L 363.513315 72.789387 
L 363.870078 83.373352 
L 364.440899 108.612437 
L 365.225778 154.622691 
L 365.582541 174.376331 
L 367.43771 73.743458 
L 367.865826 63.139768 
L 368.151237 60.826975 
L 368.222589 60.875198 
L 368.365295 61.775317 
L 368.650705 66.363219 
L 369.007469 76.36393 
L 369.57829 100.48677 
L 370.648579 156.466288 
L 372.28969 31.161319 
L 372.626069 -1 
M 374.825548 -1 
L 375.643265 52.808508 
L 375.987155 -1 
L 375.987155 -1 
" clip-path="url(#p25c7f03503)" style="fill: none; stroke: #ff7f0e; stroke-width: 1.5; stroke-linecap: square"/>
   </g>
   <g id="line2d_25">
    <path d="M 73.511815 -1 
L 73.892919 110.482179 
L 74.321035 173.980559 
L 74.677798 202.636898 
L 75.819441 158.853389 
L 76.818378 122.863517 
L 77.175141 115.798883 
L 77.389199 114.644309 
L 77.531904 115.520959 
L 77.745962 119.603457 
L 78.031373 130.168481 
L 78.602194 162.330982 
L 78.816252 172.223364 
L 80.956831 88.613095 
L 81.313594 65.327453 
L 82.027121 17.942945 
L 82.241179 14.015522 
L 82.312531 14.33532 
L 82.455237 17.642523 
L 82.669295 29.391177 
L 83.026058 64.439708 
L 84.024995 172.027857 
L 84.595816 207.212736 
L 85.380695 242.7599 
L 85.737459 234.920858 
L 86.30828 219.116615 
L 87.378569 184.343526 
L 87.949391 173.545728 
L 88.020743 173.289127 
L 88.092096 173.322332 
L 88.234801 174.224901 
L 88.448859 177.482624 
L 88.876975 188.810982 
L 90.018617 228.321798 
L 90.732144 250.714357 
L 92.444607 194.46956 
L 92.944076 184.72345 
L 93.229487 182.867841 
L 93.300839 182.893101 
L 93.443544 183.568927 
L 93.657602 186.014625 
L 94.014366 193.097945 
L 94.656539 212.114169 
L 95.798182 252.024066 
L 95.869534 249.693768 
L 97.724703 188.24886 
L 98.152819 179.693543 
L 98.366877 177.946338 
L 98.43823 177.824264 
L 98.509582 177.940871 
L 98.652288 178.854439 
L 98.866346 181.894098 
L 99.223109 190.733745 
L 99.865283 213.451192 
L 100.792867 251.707948 
L 100.86422 251.423513 
L 102.862094 184.478848 
L 103.218857 177.965024 
L 103.432915 176.540652 
L 103.504268 176.545849 
L 103.646973 177.285421 
L 103.861031 180.109634 
L 104.217794 188.693507 
L 104.859968 211.318406 
L 105.858905 252.393832 
L 106.072963 241.312129 
L 107.928132 179.50451 
L 108.284895 173.226569 
L 108.498953 172.047183 
L 108.570306 172.160047 
L 108.713011 173.145261 
L 108.998422 177.920023 
L 109.426537 190.374028 
L 110.211417 221.141511 
L 110.85359 248.731764 
L 110.924943 247.232541 
L 112.708759 177.896014 
L 113.136875 168.636899 
L 113.350933 167.067015 
L 113.422286 167.077296 
L 113.564991 167.900586 
L 113.779049 171.006345 
L 114.135812 180.15362 
L 114.777986 203.747669 
L 115.848276 246.855765 
L 117.560739 178.970353 
L 117.988855 168.342471 
L 118.274266 165.353879 
L 118.345618 165.256438 
L 118.488324 165.863702 
L 118.702382 168.687286 
L 119.059145 177.548844 
L 119.701319 200.928255 
L 120.771608 246.487822 
L 120.842961 244.970464 
L 122.555425 177.043435 
L 122.98354 166.825261 
L 123.268951 164.246308 
L 123.340304 164.256301 
L 123.483009 165.076213 
L 123.697067 168.194729 
L 124.05383 177.428665 
L 124.696004 201.129838 
L 125.766294 246.750205 
L 125.837646 243.844691 
L 127.478757 178.370389 
L 127.978226 166.192751 
L 128.263636 163.821737 
L 128.334989 163.883239 
L 128.477694 164.800414 
L 128.691752 168.044221 
L 129.048515 177.474242 
L 129.762042 204.236098 
L 130.760979 246.924464 
L 130.832332 244.192062 
L 132.473443 178.707518 
L 132.972911 166.528438 
L 133.258322 164.150942 
L 133.329674 164.209912 
L 133.47238 165.12045 
L 133.686438 168.352382 
L 134.043201 177.761364 
L 134.756727 204.502329 
L 135.755664 247.115908 
L 135.827017 244.551178 
L 137.468128 179.131274 
L 137.967596 166.955446 
L 138.253007 164.521991 
L 138.32436 164.563383 
L 138.467065 165.437242 
L 138.681123 168.61138 
L 139.037886 177.932595 
L 139.751413 204.612568 
L 140.75035 247.140325 
L 140.821702 244.853957 
L 142.462813 179.294621 
L 142.962282 167.127689 
L 143.247692 164.672726 
L 143.319045 164.707828 
L 143.46175 165.568474 
L 143.675808 168.722017 
L 144.032571 178.012645 
L 144.746098 204.673904 
L 145.745035 247.184719 
L 145.816388 244.970569 
L 147.457499 179.569466 
L 147.956967 167.466103 
L 148.242378 165.025337 
L 148.31373 165.06038 
L 148.456436 165.919642 
L 148.670494 169.067056 
L 149.027257 178.34014 
L 149.740783 204.991197 
L 150.73972 247.489492 
L 150.811073 245.190933 
L 152.452184 179.971505 
L 152.951652 167.984827 
L 153.237063 165.60521 
L 153.308416 165.655457 
L 153.451121 166.53775 
L 153.665179 169.711843 
L 154.021942 179.004849 
L 154.735469 205.688934 
L 155.734406 248.063396 
L 155.805758 245.623344 
L 157.375516 183.284684 
L 157.874985 170.454678 
L 158.160396 167.327824 
L 158.231748 167.164918 
L 158.303101 167.260557 
L 158.445806 168.220687 
L 158.659864 171.460545 
L 159.016627 180.757188 
L 159.730154 207.057389 
L 160.729091 248.506006 
L 160.800444 246.542271 
L 162.441554 181.564258 
L 162.941023 168.509873 
L 163.226434 165.236463 
L 163.297786 165.00379 
L 163.369139 165.027449 
L 163.511844 165.833608 
L 163.725902 168.825537 
L 164.082665 177.693559 
L 164.724839 200.826939 
L 165.866482 245.469845 
L 168.078414 155.829349 
L 168.435177 148.488925 
L 168.649235 147.315692 
L 168.720587 147.467809 
L 168.863293 148.602095 
L 169.148703 153.832203 
L 169.576819 167.140689 
L 170.433051 202.952087 
L 171.146577 234.766066 
L 171.21793 233.294349 
L 172.502278 171.280612 
L 173.501215 121.216013 
L 173.786625 115.524508 
L 173.929331 114.976652 
L 174.072036 115.86933 
L 174.286094 119.568402 
L 174.642857 130.289868 
L 175.285031 158.225912 
L 176.569379 220.787063 
L 177.42561 173.225537 
L 178.638605 100.349354 
L 178.924016 94.988174 
L 178.995369 94.776057 
L 179.066721 94.987297 
L 179.209427 96.579418 
L 179.494837 103.623145 
L 179.994306 124.345479 
L 181.135948 185.536322 
L 181.778122 219.804736 
L 181.849475 219.017697 
L 182.563001 176.156415 
L 183.704643 101.532474 
L 183.990054 95.447795 
L 184.061407 95.095579 
L 184.132759 95.184526 
L 184.275465 96.583295 
L 184.560875 103.430925 
L 184.988991 121.007946 
L 185.987928 172.85006 
L 186.915512 221.615037 
L 186.986865 221.32643 
L 187.843097 167.609817 
L 188.699329 106.283258 
L 188.984739 98.209365 
L 189.127445 97.16227 
L 189.198797 97.337628 
L 189.341502 98.942707 
L 189.626913 106.28093 
L 190.126382 127.597232 
L 191.553435 204.349899 
L 191.767493 215.198918 
L 192.909135 146.467691 
L 193.551309 108.034872 
L 193.836719 100.816218 
L 193.979425 100.052542 
L 194.12213 101.044405 
L 194.336188 105.371551 
L 194.692951 118.215101 
L 195.406478 154.545788 
L 196.334062 205.599298 
L 196.405415 205.17924 
L 198.545994 94.162824 
L 198.688699 93.021485 
L 198.760052 93.07649 
L 198.902757 94.374857 
L 199.116815 98.968819 
L 199.473578 111.960747 
L 200.187105 148.338814 
L 201.043337 196.506889 
L 202.969858 94.044219 
L 203.255269 87.539851 
L 203.397974 86.515635 
L 203.469327 86.585902 
L 203.612032 87.862889 
L 203.82609 92.380199 
L 204.182853 105.234879 
L 204.89638 141.429273 
L 205.752611 186.280997 
L 207.465075 92.318943 
L 207.893191 80.066941 
L 208.107249 78.621881 
L 208.249954 79.624548 
L 208.464012 83.944554 
L 208.820775 97.19759 
L 209.534302 134.965249 
L 210.461886 187.208242 
L 212.245702 88.999214 
L 212.602466 79.840729 
L 212.745171 78.692819 
L 212.816523 78.736223 
L 212.959229 80.094411 
L 213.173287 85.210189 
L 213.53005 100.376401 
L 214.528987 158.194207 
L 215.171161 193.771127 
L 215.313866 187.914738 
L 217.169035 89.303235 
L 217.454446 84.969867 
L 217.525798 84.805542 
L 217.597151 85.08225 
L 217.739856 86.991349 
L 218.025267 96.033939 
L 218.524735 123.175842 
L 219.809083 195.481508 
L 219.951788 200.860131 
L 220.593962 166.718873 
L 222.021015 90.30905 
L 222.306426 82.715772 
L 222.449131 81.864454 
L 222.591836 83.353127 
L 222.948599 93.992793 
L 223.590773 123.957438 
L 224.090242 142.457792 
L 224.518358 151.207049 
L 224.875121 154.694355 
L 225.089179 153.907784 
L 225.303237 143.865806 
L 225.588647 171.129152 
L 225.66 172.201532 
L 227.229758 89.071244 
L 227.657874 76.675854 
L 227.871932 74.632181 
L 227.943285 74.687277 
L 228.08599 75.924845 
L 228.300048 80.470356 
L 228.728164 96.21198 
L 229.513043 135.719157 
L 230.51198 192.440133 
L 231.724975 148.323404 
L 232.367149 132.993646 
L 232.581207 130.954225 
L 232.652559 130.80539 
L 232.723912 130.936967 
L 232.866617 132.052296 
L 233.080675 135.673108 
L 233.508791 148.537224 
L 234.793139 199.728125 
L 235.435313 224.192682 
L 236.71966 180.728737 
L 237.433187 161.525899 
L 237.718597 158.128385 
L 237.78995 157.887071 
L 237.861303 157.909215 
L 238.004008 158.756102 
L 238.289419 162.728843 
L 238.717534 172.75336 
L 239.573766 200.226789 
L 240.572703 234.573896 
L 240.644056 234.418847 
L 240.715409 234.181322 
L 243.212751 149.608275 
L 243.498162 146.056509 
L 243.71222 145.361559 
L 244.283041 131.074299 
L 247.993379 66.917194 
L 248.992316 50.44744 
L 249.349079 50.447448 
L 250.062605 52.359943 
L 250.348016 52.31489 
L 250.704779 52.282983 
L 250.99019 52.695054 
L 251.061542 52.830878 
L 251.132895 52.777311 
L 251.204248 50.447445 
L 251.2756 50.835733 
L 251.632364 54.226825 
L 251.917774 58.627787 
L 252.274537 67.82782 
L 252.702653 86.35466 
L 254.48647 176.497803 
L 254.843233 188.578031 
L 255.414054 193.78201 
L 255.770817 195.994895 
L 255.913522 195.592648 
L 256.270286 179.027677 
L 257.055165 144.65718 
L 257.483281 131.569375 
L 257.911397 124.300502 
L 257.982749 124.041293 
L 258.125455 125.83394 
L 258.55357 139.820247 
L 259.62386 191.495934 
L 259.837918 195.744017 
L 260.123329 196.821451 
L 260.408739 198.694112 
L 260.69415 200.247534 
L 260.97956 201.197321 
L 261.050913 201.486032 
L 261.193618 201.015221 
L 261.479029 194.304322 
L 262.192555 173.802633 
L 262.335261 170.468294 
L 262.692024 156.488941 
L 262.906082 154.893693 
L 263.048787 155.960784 
L 263.548256 166.121922 
L 263.905019 177.720841 
L 265.118014 224.471782 
L 265.403425 226.446681 
L 266.045598 228.49127 
L 266.116951 228.61963 
L 266.188304 228.494633 
L 267.544004 190.794845 
L 267.97212 183.756096 
L 268.25753 182.041426 
L 268.328883 181.505784 
L 268.400236 181.647589 
L 268.542941 183.337701 
L 268.828352 189.998161 
L 269.32782 202.562925 
L 269.827289 208.759321 
L 270.540815 180.179771 
L 271.896515 128.051086 
L 272.181926 124.163179 
L 272.324631 123.863415 
L 272.467337 124.885919 
L 272.681395 129.016545 
L 273.038158 141.982886 
L 273.965742 188.696973 
L 274.251153 203.444811 
L 275.25009 241.066271 
L 275.392795 243.083176 
L 276.249027 215.825413 
L 277.176611 190.009258 
L 277.67608 180.611626 
L 277.961491 178.594781 
L 278.032843 178.588826 
L 278.175548 179.363894 
L 278.389606 182.3749 
L 278.74637 191.33518 
L 279.888012 228.595489 
L 280.601538 249.367375 
L 281.101007 233.924389 
L 282.52806 190.593572 
L 282.813471 186.589941 
L 282.956176 185.962994 
L 283.027528 186.025989 
L 283.241586 187.411914 
L 283.59835 192.906985 
L 284.097818 205.465546 
L 285.168108 239.208906 
L 285.596224 251.011096 
L 285.667576 250.812903 
L 286.809219 214.605886 
L 287.094629 204.088523 
L 287.736803 189.089584 
L 288.093566 185.320286 
L 288.236272 185.017137 
L 288.378977 185.719357 
L 288.593035 188.524541 
L 288.949798 196.920754 
L 290.091441 233.820699 
L 290.662262 248.947795 
L 291.518494 221.830604 
L 292.588783 189.578057 
L 292.874194 185.494359 
L 293.016899 184.846742 
L 293.159604 185.022617 
L 293.373662 186.49321 
L 293.58772 189.386883 
L 293.801778 196.209612 
L 294.443952 213.734 
L 295.656947 249.803521 
L 295.7283 249.524455 
L 297.654821 192.208556 
L 298.011584 187.043533 
L 298.225642 185.813818 
L 298.296995 185.921667 
L 298.4397 186.896048 
L 298.725111 191.545078 
L 299.224579 205.589416 
L 300.651632 250.332786 
L 300.722985 248.917052 
L 301.650569 219.740916 
L 302.292743 201.549413 
L 302.720859 192.208677 
L 303.00627 189.988073 
L 303.148975 189.826503 
L 303.29168 190.409976 
L 303.505738 192.701946 
L 303.862501 199.610189 
L 304.504675 217.478175 
L 305.646318 253.219581 
L 306.003081 242.550545 
L 307.572839 195.745493 
L 307.929602 189.961307 
L 308.215013 188.174338 
L 308.286366 188.294604 
L 308.429071 189.272173 
L 308.714482 193.934413 
L 309.21395 207.942385 
L 310.641003 251.388797 
L 311.568587 221.95915 
L 312.567524 191.261004 
L 312.924288 186.31759 
L 313.066993 186.048306 
L 313.209698 186.778878 
L 313.495109 190.588143 
L 313.994577 201.800137 
L 314.708104 223.386842 
L 315.635688 251.262133 
L 315.921099 242.730041 
L 317.56221 192.316325 
L 317.990326 185.4967 
L 318.204384 184.476287 
L 318.275736 184.514574 
L 318.418442 185.370527 
L 318.6325 188.452099 
L 319.060615 199.231619 
L 320.630374 249.051512 
L 320.844432 243.297319 
L 322.842306 181.195892 
L 323.056364 179.994046 
L 323.127716 180.123674 
L 323.270422 181.186132 
L 323.48448 184.642531 
L 323.912595 196.481991 
L 325.625059 250.674559 
L 326.766701 213.640803 
L 327.480228 193.609298 
L 327.908344 187.009532 
L 328.122402 185.621471 
L 328.193754 185.539979 
L 328.33646 185.943949 
L 328.550517 187.837147 
L 328.907281 193.891443 
L 329.478102 208.74169 
L 330.619744 246.581607 
L 330.691097 248.87164 
L 331.832739 207.364824 
L 332.760324 177.121208 
L 333.117087 170.611311 
L 333.331145 169.140863 
L 333.402498 169.097726 
L 333.545203 169.705065 
L 333.759261 171.940656 
L 334.116024 179.076746 
L 334.686845 195.913089 
L 335.757135 234.211084 
L 335.828488 231.618509 
L 337.897714 159.783364 
L 338.254478 153.816094 
L 338.468535 152.802178 
L 338.611241 153.295141 
L 338.825299 155.346642 
L 339.110709 160.780435 
L 339.610178 175.769151 
L 340.609115 214.83128 
L 340.75182 220.202952 
L 341.679405 179.460916 
L 342.535636 143.460009 
L 343.035105 129.356782 
L 343.320515 126.233775 
L 343.391868 126.142844 
L 343.534573 126.803561 
L 343.748631 129.733979 
L 344.105395 138.772211 
L 344.818921 165.606697 
L 345.675153 203.403549 
L 345.746505 200.47427 
L 347.601674 122.689762 
L 348.02979 113.333788 
L 348.243848 111.78219 
L 348.315201 111.768495 
L 348.457906 112.371279 
L 348.671964 114.928874 
L 349.028727 123.628893 
L 349.599548 144.893676 
L 350.598486 190.283525 
L 350.669838 188.922402 
L 352.382302 107.637624 
L 352.88177 93.885943 
L 353.167181 90.844024 
L 353.238533 90.769454 
L 353.381239 91.475001 
L 353.595297 94.351084 
L 353.95206 103.600408 
L 354.522881 126.339561 
L 355.593171 177.13252 
L 357.44834 81.048846 
L 357.876456 69.129395 
L 358.090513 66.73695 
L 358.161866 66.612492 
L 358.304571 67.390135 
L 358.518629 71.017351 
L 358.875393 82.362795 
L 359.446214 109.541522 
L 360.516503 173.001487 
L 360.587856 172.663556 
L 362.157614 88.059956 
L 362.657083 70.328343 
L 362.942494 65.269584 
L 363.085199 64.547322 
L 363.156551 64.666429 
L 363.299257 65.810022 
L 363.513315 69.695845 
L 363.870078 81.365061 
L 364.512252 111.954385 
L 365.582541 174.454522 
L 365.653894 170.362574 
L 367.43771 73.743265 
L 367.865826 63.139207 
L 368.151237 60.827081 
L 368.222589 60.875302 
L 368.365295 61.775445 
L 368.650705 66.363262 
L 369.007469 76.36401 
L 369.57829 100.48728 
L 370.648579 156.466369 
L 372.28969 31.162058 
L 372.626071 -1 
M 374.825548 -1 
L 375.643265 52.808759 
L 375.987158 -1 
L 375.987158 -1 
" clip-path="url(#p25c7f03503)" style="fill: none; stroke: #2ca02c; stroke-width: 1.5; stroke-linecap: square"/>
   </g>
   <g id="patch_3">
    <path d="M 47.1 279.010828 
L 47.1 12.898828 
" style="fill: none; stroke: #000000; stroke-width: 0.8; stroke-linejoin: miter; stroke-linecap: square"/>
   </g>
   <g id="patch_4">
    <path d="M 404.22 279.010828 
L 404.22 12.898828 
" style="fill: none; stroke: #000000; stroke-width: 0.8; stroke-linejoin: miter; stroke-linecap: square"/>
   </g>
   <g id="patch_5">
    <path d="M 47.1 279.010828 
L 404.22 279.010828 
" style="fill: none; stroke: #000000; stroke-width: 0.8; stroke-linejoin: miter; stroke-linecap: square"/>
   </g>
   <g id="patch_6">
    <path d="M 47.1 12.898828 
L 404.22 12.898828 
" style="fill: none; stroke: #000000; stroke-width: 0.8; stroke-linejoin: miter; stroke-linecap: square"/>
   </g>
   <g id="legend_1">
    <g id="patch_7">
     <path d="M 54.1 274.010828 
L 308.379688 274.010828 
Q 310.379688 274.010828 310.379688 272.010828 
L 310.379688 258.332703 
Q 310.379688 256.332703 308.379688 256.332703 
L 54.1 256.332703 
Q 52.1 256.332703 52.1 258.332703 
L 52.1 272.010828 
Q 52.1 274.010828 54.1 274.010828 
z
" style="fill: #ffffff; opacity: 0.8; stroke: #cccccc; stroke-linejoin: miter"/>
    </g>
    <g id="line2d_26">
     <path d="M 56.1 264.431141 
L 66.1 264.431141 
L 76.1 264.431141 
" style="fill: none; stroke: #1f77b4; stroke-width: 1.5; stroke-linecap: square"/>
    </g>
    <g id="text_14">
     <!-- Individual -->
     <g transform="translate(84.1 267.931141)scale(0.1 -0.1)">
      <defs>
       <path id="DejaVuSans-49" d="M 628 4666 
L 1259 4666 
L 1259 0 
L 628 0 
L 628 4666 
z
" transform="scale(0.015625)"/>
       <path id="DejaVuSans-64" d="M 2906 2969 
L 2906 4863 
L 3481 4863 
L 3481 0 
L 2906 0 
L 2906 525 
Q 2725 213 2448 61 
Q 2172 -91 1784 -91 
Q 1150 -91 751 415 
Q 353 922 353 1747 
Q 353 2572 751 3078 
Q 1150 3584 1784 3584 
Q 2172 3584 2448 3432 
Q 2725 3281 2906 2969 
z
M 947 1747 
Q 947 1113 1208 752 
Q 1469 391 1925 391 
Q 2381 391 2643 752 
Q 2906 1113 2906 1747 
Q 2906 2381 2643 2742 
Q 2381 3103 1925 3103 
Q 1469 3103 1208 2742 
Q 947 2381 947 1747 
z
" transform="scale(0.015625)"/>
       <path id="DejaVuSans-76" d="M 191 3500 
L 800 3500 
L 1894 563 
L 2988 3500 
L 3597 3500 
L 2284 0 
L 1503 0 
L 191 3500 
z
" transform="scale(0.015625)"/>
       <path id="DejaVuSans-75" d="M 544 1381 
L 544 3500 
L 1119 3500 
L 1119 1403 
Q 1119 906 1312 657 
Q 1506 409 1894 409 
Q 2359 409 2629 706 
Q 2900 1003 2900 1516 
L 2900 3500 
L 3475 3500 
L 3475 0 
L 2900 0 
L 2900 538 
Q 2691 219 2414 64 
Q 2138 -91 1772 -91 
Q 1169 -91 856 284 
Q 544 659 544 1381 
z
M 1991 3584 
L 1991 3584 
z
" transform="scale(0.015625)"/>
       <path id="DejaVuSans-6c" d="M 603 4863 
L 1178 4863 
L 1178 0 
L 603 0 
L 603 4863 
z
" transform="scale(0.015625)"/>
      </defs>
      <use xlink:href="#DejaVuSans-49"/>
      <use xlink:href="#DejaVuSans-6e" x="29.492188"/>
      <use xlink:href="#DejaVuSans-64" x="92.871094"/>
      <use xlink:href="#DejaVuSans-69" x="156.347656"/>
      <use xlink:href="#DejaVuSans-76" x="184.130859"/>
      <use xlink:href="#DejaVuSans-69" x="243.310547"/>
      <use xlink:href="#DejaVuSans-64" x="271.09375"/>
      <use xlink:href="#DejaVuSans-75" x="334.570312"/>
      <use xlink:href="#DejaVuSans-61" x="397.949219"/>
      <use xlink:href="#DejaVuSans-6c" x="459.228516"/>
     </g>
    </g>
    <g id="line2d_27">
     <path d="M 152.803125 264.431141 
L 162.803125 264.431141 
L 172.803125 264.431141 
" style="fill: none; stroke: #ff7f0e; stroke-width: 1.5; stroke-linecap: square"/>
    </g>
    <g id="text_15">
     <!-- Neighbor -->
     <g transform="translate(180.803125 267.931141)scale(0.1 -0.1)">
      <defs>
       <path id="DejaVuSans-4e" d="M 628 4666 
L 1478 4666 
L 3547 763 
L 3547 4666 
L 4159 4666 
L 4159 0 
L 3309 0 
L 1241 3903 
L 1241 0 
L 628 0 
L 628 4666 
z
" transform="scale(0.015625)"/>
       <path id="DejaVuSans-65" d="M 3597 1894 
L 3597 1613 
L 953 1613 
Q 991 1019 1311 708 
Q 1631 397 2203 397 
Q 2534 397 2845 478 
Q 3156 559 3463 722 
L 3463 178 
Q 3153 47 2828 -22 
Q 2503 -91 2169 -91 
Q 1331 -91 842 396 
Q 353 884 353 1716 
Q 353 2575 817 3079 
Q 1281 3584 2069 3584 
Q 2775 3584 3186 3129 
Q 3597 2675 3597 1894 
z
M 3022 2063 
Q 3016 2534 2758 2815 
Q 2500 3097 2075 3097 
Q 1594 3097 1305 2825 
Q 1016 2553 972 2059 
L 3022 2063 
z
" transform="scale(0.015625)"/>
       <path id="DejaVuSans-67" d="M 2906 1791 
Q 2906 2416 2648 2759 
Q 2391 3103 1925 3103 
Q 1463 3103 1205 2759 
Q 947 2416 947 1791 
Q 947 1169 1205 825 
Q 1463 481 1925 481 
Q 2391 481 2648 825 
Q 2906 1169 2906 1791 
z
M 3481 434 
Q 3481 -459 3084 -895 
Q 2688 -1331 1869 -1331 
Q 1566 -1331 1297 -1286 
Q 1028 -1241 775 -1147 
L 775 -588 
Q 1028 -725 1275 -790 
Q 1522 -856 1778 -856 
Q 2344 -856 2625 -561 
Q 2906 -266 2906 331 
L 2906 616 
Q 2728 306 2450 153 
Q 2172 0 1784 0 
Q 1141 0 747 490 
Q 353 981 353 1791 
Q 353 2603 747 3093 
Q 1141 3584 1784 3584 
Q 2172 3584 2450 3431 
Q 2728 3278 2906 2969 
L 2906 3500 
L 3481 3500 
L 3481 434 
z
" transform="scale(0.015625)"/>
       <path id="DejaVuSans-68" d="M 3513 2113 
L 3513 0 
L 2938 0 
L 2938 2094 
Q 2938 2591 2744 2837 
Q 2550 3084 2163 3084 
Q 1697 3084 1428 2787 
Q 1159 2491 1159 1978 
L 1159 0 
L 581 0 
L 581 4863 
L 1159 4863 
L 1159 2956 
Q 1366 3272 1645 3428 
Q 1925 3584 2291 3584 
Q 2894 3584 3203 3211 
Q 3513 2838 3513 2113 
z
" transform="scale(0.015625)"/>
       <path id="DejaVuSans-62" d="M 3116 1747 
Q 3116 2381 2855 2742 
Q 2594 3103 2138 3103 
Q 1681 3103 1420 2742 
Q 1159 2381 1159 1747 
Q 1159 1113 1420 752 
Q 1681 391 2138 391 
Q 2594 391 2855 752 
Q 3116 1113 3116 1747 
z
M 1159 2969 
Q 1341 3281 1617 3432 
Q 1894 3584 2278 3584 
Q 2916 3584 3314 3078 
Q 3713 2572 3713 1747 
Q 3713 922 3314 415 
Q 2916 -91 2278 -91 
Q 1894 -91 1617 61 
Q 1341 213 1159 525 
L 1159 0 
L 581 0 
L 581 4863 
L 1159 4863 
L 1159 2969 
z
" transform="scale(0.015625)"/>
       <path id="DejaVuSans-72" d="M 2631 2963 
Q 2534 3019 2420 3045 
Q 2306 3072 2169 3072 
Q 1681 3072 1420 2755 
Q 1159 2438 1159 1844 
L 1159 0 
L 581 0 
L 581 3500 
L 1159 3500 
L 1159 2956 
Q 1341 3275 1631 3429 
Q 1922 3584 2338 3584 
Q 2397 3584 2469 3576 
Q 2541 3569 2628 3553 
L 2631 2963 
z
" transform="scale(0.015625)"/>
      </defs>
      <use xlink:href="#DejaVuSans-4e"/>
      <use xlink:href="#DejaVuSans-65" x="74.804688"/>
      <use xlink:href="#DejaVuSans-69" x="136.328125"/>
      <use xlink:href="#DejaVuSans-67" x="164.111328"/>
      <use xlink:href="#DejaVuSans-68" x="227.587891"/>
      <use xlink:href="#DejaVuSans-62" x="290.966797"/>
      <use xlink:href="#DejaVuSans-6f" x="354.443359"/>
      <use xlink:href="#DejaVuSans-72" x="415.625"/>
     </g>
    </g>
    <g id="line2d_28">
     <path d="M 246.479687 264.431141 
L 256.479687 264.431141 
L 266.479687 264.431141 
" style="fill: none; stroke: #2ca02c; stroke-width: 1.5; stroke-linecap: square"/>
    </g>
    <g id="text_16">
     <!-- Global -->
     <g transform="translate(274.479687 267.931141)scale(0.1 -0.1)">
      <defs>
       <path id="DejaVuSans-47" d="M 3809 666 
L 3809 1919 
L 2778 1919 
L 2778 2438 
L 4434 2438 
L 4434 434 
Q 4069 175 3628 42 
Q 3188 -91 2688 -91 
Q 1594 -91 976 548 
Q 359 1188 359 2328 
Q 359 3472 976 4111 
Q 1594 4750 2688 4750 
Q 3144 4750 3555 4637 
Q 3966 4525 4313 4306 
L 4313 3634 
Q 3963 3931 3569 4081 
Q 3175 4231 2741 4231 
Q 1884 4231 1454 3753 
Q 1025 3275 1025 2328 
Q 1025 1384 1454 906 
Q 1884 428 2741 428 
Q 3075 428 3337 486 
Q 3600 544 3809 666 
z
" transform="scale(0.015625)"/>
      </defs>
      <use xlink:href="#DejaVuSans-47"/>
      <use xlink:href="#DejaVuSans-6c" x="77.490234"/>
      <use xlink:href="#DejaVuSans-6f" x="105.273438"/>
      <use xlink:href="#DejaVuSans-62" x="166.455078"/>
      <use xlink:href="#DejaVuSans-61" x="229.931641"/>
      <use xlink:href="#DejaVuSans-6c" x="291.210938"/>
     </g>
    </g>
   </g>
  </g>
 </g>
 <defs>
  <clipPath id="p25c7f03503">
   <rect x="47.1" y="12.898828" width="357.12" height="266.112"/>
  </clipPath>
 </defs>
</svg>
